<?xml version="1.0" encoding="UTF-8" standalone="no"?>
<!-- Generator: Adobe Illustrator 16.0.0, SVG Export Plug-In . SVG Version: 6.00 Build 0)  -->

<svg
   xmlns:dc="http://purl.org/dc/elements/1.1/"
   xmlns:cc="http://creativecommons.org/ns#"
   xmlns:rdf="http://www.w3.org/1999/02/22-rdf-syntax-ns#"
   xmlns:svg="http://www.w3.org/2000/svg"
   xmlns="http://www.w3.org/2000/svg"
   xmlns:sodipodi="http://sodipodi.sourceforge.net/DTD/sodipodi-0.dtd"
   xmlns:inkscape="http://www.inkscape.org/namespaces/inkscape"
   version="1.1"
   id="Layer_1"
   x="0px"
   y="0px"
   width="64px"
   height="64px"
   viewBox="0 0 64 64"
   enable-background="new 0 0 64 64"
   xml:space="preserve"
   inkscape:version="0.48.5 r10040"
   sodipodi:docname="1F31F.svg"
   inkscape:export-filename="D:\TESTINGEMOJI\SVGTEST\1F31F.png"
   inkscape:export-xdpi="90"
   inkscape:export-ydpi="90"><metadata
   id="metadata3341"><rdf:RDF><cc:Work
       rdf:about=""><dc:format>image/svg+xml</dc:format><dc:type
         rdf:resource="http://purl.org/dc/dcmitype/StillImage" /><dc:title></dc:title></cc:Work></rdf:RDF></metadata><defs
   id="defs3339" /><sodipodi:namedview
   pagecolor="#ffffff"
   bordercolor="#666666"
   borderopacity="1"
   objecttolerance="10"
   gridtolerance="10"
   guidetolerance="10"
   inkscape:pageopacity="0"
   inkscape:pageshadow="2"
   inkscape:window-width="640"
   inkscape:window-height="480"
   id="namedview3337"
   showgrid="false"
   inkscape:zoom="3.6875"
   inkscape:cx="32"
   inkscape:cy="32"
   inkscape:window-x="570"
   inkscape:window-y="332"
   inkscape:window-maximized="0"
   inkscape:current-layer="Layer_1" />
<g
   id="g3309">
	<path
   fill="#FBB11A"
   d="M18.894,13.468c-1.449,1.449-4.647,0.599-7.141-1.896C9.254,9.075,8.407,5.88,9.857,4.43   c1.449-1.45,4.647-0.601,7.141,1.893C19.496,8.821,20.344,12.02,18.894,13.468z"
   id="path3311" />
	<path
   fill="#E29B25"
   d="M18.324,13.863c-1.19-0.392-2.46-1.165-3.592-2.296c-2.496-2.496-3.341-5.691-1.893-7.142   c0.164-0.166,0.36-0.293,0.567-0.401C11.97,3.549,10.65,3.633,9.857,4.426c-1.451,1.451-0.603,4.646,1.895,7.142   C13.958,13.777,16.713,14.689,18.324,13.863z"
   id="path3313" />
	<path
   fill="#FBB11A"
   d="M45.115,13.468c1.448,1.449,4.645,0.599,7.137-1.896c2.498-2.496,3.346-5.691,1.896-7.142   c-1.45-1.45-4.648-0.601-7.141,1.893C44.51,8.821,43.662,12.02,45.115,13.468z"
   id="path3315" />
	<path
   fill="#E29B25"
   d="M45.683,13.863c1.19-0.392,2.463-1.165,3.59-2.296c2.496-2.496,3.344-5.691,1.897-7.142   c-0.167-0.166-0.364-0.293-0.572-0.401c1.439-0.476,2.759-0.392,3.551,0.401c1.449,1.451,0.602,4.646-1.896,7.142   C50.048,13.777,47.294,14.689,45.683,13.863z"
   id="path3317" />
	<path
   fill="#FBB11A"
   d="M52.15,35.934c-0.857,1.863,1.049,4.565,4.256,6.037c3.208,1.473,6.499,1.155,7.356-0.705   c0.855-1.863-1.052-4.568-4.258-6.041C56.294,33.753,53.002,34.07,52.15,35.934z"
   id="path3319" />
	<path
   fill="#E29B25"
   d="M51.974,36.607c0.783,0.979,1.948,1.898,3.4,2.568c3.209,1.472,6.499,1.154,7.353-0.709   c0.1-0.211,0.155-0.438,0.181-0.674c0.945,1.183,1.325,2.451,0.857,3.469c-0.855,1.864-4.146,2.182-7.354,0.709   C53.571,40.667,51.757,38.4,51.974,36.607z"
   id="path3321" />
	<path
   fill="#FBB11A"
   d="M32.007,50.325c-2.045-0.008-3.717,2.847-3.735,6.374c-0.014,3.531,1.635,6.397,3.684,6.405   c2.052,0.008,3.726-2.847,3.739-6.37C35.709,53.203,34.062,50.333,32.007,50.325z"
   id="path3323" />
	<path
   fill="#E29B25"
   d="M31.328,50.447c-0.571,1.115-0.93,2.561-0.938,4.153c-0.014,3.531,1.634,6.397,3.686,6.409   c0.235,0,0.464-0.047,0.684-0.117c-0.682,1.351-1.68,2.22-2.802,2.216c-2.051-0.008-3.694-2.878-3.682-6.405   C28.29,53.579,29.599,50.991,31.328,50.447z"
   id="path3325" />
	<g
   id="g3327">
		<polygon
   fill="#FAAA31"
   points="31.983,0 40.807,17.881 60.536,20.747 46.258,34.661 49.631,54.312 31.983,45.032 14.334,54.312     17.707,34.661 3.429,20.747 23.159,17.881   "
   id="polygon3329" />
		<path
   fill="#DC912A"
   d="M31.655,9.4c-0.108-3.038,0.07-6.062,0.507-9.036L31.983,0l-8.825,17.881l-19.73,2.866l14.278,13.914    l-3.373,19.65l17.649-9.279l17.647,9.279l-1.433-8.348C38.134,36.462,32.14,23.229,31.655,9.4z"
   id="path3331" />
	</g>
	<path
   fill="#FBB11A"
   d="M11.817,35.934c0.857,1.863-1.051,4.565-4.256,6.037c-3.21,1.473-6.499,1.155-7.356-0.705   c-0.855-1.863,1.049-4.568,4.256-6.041C7.671,33.753,10.963,34.07,11.817,35.934z"
   id="path3333" />
	<path
   fill="#E29B25"
   d="M11.991,36.607c-0.781,0.979-1.948,1.898-3.4,2.568c-3.207,1.472-6.499,1.154-7.353-0.709   c-0.1-0.211-0.153-0.438-0.18-0.674c-0.945,1.183-1.327,2.451-0.857,3.469c0.855,1.864,4.146,2.182,7.354,0.709   C10.396,40.667,12.208,38.4,11.991,36.607z"
   id="path3335" />
</g>
</svg>