<?xml version="1.0" encoding="UTF-8" standalone="no"?>
<!-- Generator: Adobe Illustrator 16.0.0, SVG Export Plug-In . SVG Version: 6.00 Build 0)  -->

<svg
   xmlns:dc="http://purl.org/dc/elements/1.1/"
   xmlns:cc="http://creativecommons.org/ns#"
   xmlns:rdf="http://www.w3.org/1999/02/22-rdf-syntax-ns#"
   xmlns:svg="http://www.w3.org/2000/svg"
   xmlns="http://www.w3.org/2000/svg"
   xmlns:sodipodi="http://sodipodi.sourceforge.net/DTD/sodipodi-0.dtd"
   xmlns:inkscape="http://www.inkscape.org/namespaces/inkscape"
   version="1.1"
   id="Layer_1"
   x="0px"
   y="0px"
   width="64px"
   height="64px"
   viewBox="0 0 64 64"
   enable-background="new 0 0 64 64"
   xml:space="preserve"
   inkscape:version="0.48.5 r10040"
   sodipodi:docname="1F38A.svg"
   inkscape:export-filename="D:\TESTINGEMOJI\SVGTEST\1F38A.png"
   inkscape:export-xdpi="90"
   inkscape:export-ydpi="90"><metadata
   id="metadata5228"><rdf:RDF><cc:Work
       rdf:about=""><dc:format>image/svg+xml</dc:format><dc:type
         rdf:resource="http://purl.org/dc/dcmitype/StillImage" /><dc:title></dc:title></cc:Work></rdf:RDF></metadata><defs
   id="defs5226" /><sodipodi:namedview
   pagecolor="#ffffff"
   bordercolor="#666666"
   borderopacity="1"
   objecttolerance="10"
   gridtolerance="10"
   guidetolerance="10"
   inkscape:pageopacity="0"
   inkscape:pageshadow="2"
   inkscape:window-width="640"
   inkscape:window-height="480"
   id="namedview5224"
   showgrid="false"
   inkscape:zoom="3.6875"
   inkscape:cx="32"
   inkscape:cy="32"
   inkscape:window-x="504"
   inkscape:window-y="242"
   inkscape:window-maximized="0"
   inkscape:current-layer="Layer_1" />
<g
   id="g5178">
	<path
   fill="#30434A"
   d="M47.748,11.681C43.226,7.8,37.846-0.278,31.783-0.149C24.41,0.009,21.466,8.633,16.083,13.297   c-1.285,1.116,2.759,1.845,3.681,1.045C22.546,11.936,28.52,0.684,32.06,2.208c4.504,1.94,8.168,7.221,12.007,10.519   C44.991,13.522,49.035,12.785,47.748,11.681z"
   id="path5180" />
	<g
   id="g5182">
		<path
   fill="#F7EC35"
   d="M19.267,52.739c0,3.739,0.56,6.771,1.245,6.771c0.691,0,1.245-3.031,1.245-6.771    c0-3.744-0.554-6.771-1.245-6.771C19.827,45.968,19.267,48.995,19.267,52.739z"
   id="path5184" />
		<path
   fill="#F7EC35"
   d="M20.512,53.98c3.739,0,6.773-0.555,6.773-1.241c0-0.691-3.034-1.249-6.773-1.249    c-3.735,0-6.771,0.558-6.771,1.249C13.741,53.426,16.777,53.98,20.512,53.98z"
   id="path5186" />
	</g>
	<g
   id="g5188">
		<path
   fill="#EF66A3"
   d="M45.449,35.812c0,3.739,0.559,6.771,1.243,6.771c0.691,0,1.245-3.031,1.245-6.771    s-0.554-6.771-1.245-6.771C46.008,29.042,45.449,32.073,45.449,35.812z"
   id="path5190" />
		<path
   fill="#EF66A3"
   d="M46.692,37.054c3.741,0,6.773-0.55,6.773-1.241c0-0.687-3.032-1.245-6.773-1.245    c-3.735,0-6.769,0.559-6.769,1.245C39.924,36.504,42.957,37.054,46.692,37.054z"
   id="path5192" />
	</g>
	<g
   id="g5194">
		<path
   fill="#B1772B"
   d="M22.261,32.677c0.883-1.057-2.721-7.262-8.058-13.866C8.869,12.21,3.826,7.713,2.939,8.767    c-0.885,1.053,2.721,7.262,8.058,13.862C16.332,29.233,21.374,33.73,22.261,32.677z"
   id="path5196" />
		<path
   fill="#835423"
   d="M20.968,28.363c0.887-1.058-1.514-5.775-5.364-10.535c-3.848-4.764-7.685-7.771-8.572-6.712    c-0.887,1.053,1.516,5.767,5.363,10.531C16.24,26.406,20.081,29.417,20.968,28.363z"
   id="path5198" />
		<path
   fill="#FBB041"
   d="M14.028,19.023c3.315,4.102,6.105,8.282,8.208,12.134c0.012-1.716,0.641-4.302,2.861-9.536    c4.414-10.398,1.999-12.134,1.999-12.134c-0.196-0.404-0.392-0.774-0.589-1.128c-0.272-0.554-0.735-1.354-1.472-2.257    c-0.025-0.034-0.05-0.059-0.071-0.088c-0.023-0.029-0.046-0.058-0.069-0.087c-0.733-0.912-1.382-1.491-1.834-1.832    c-0.287-0.246-0.591-0.491-0.918-0.737c0,0-1.385-2.96-10.038,2.187c-4.355,2.59-6.5,3.302-7.916,3.286    C7.322,11.452,10.714,14.921,14.028,19.023z"
   id="path5200" />
	</g>
	<g
   id="g5202">
		<path
   fill="#B1772B"
   d="M40.171,32.677c-0.885-1.057,2.72-7.262,8.058-13.866C53.56,12.21,58.606,7.713,59.493,8.767    c0.885,1.053-2.72,7.262-8.058,13.862C46.097,29.233,41.059,33.73,40.171,32.677z"
   id="path5204" />
		<path
   fill="#835423"
   d="M41.462,28.363c-0.887-1.058,1.516-5.775,5.366-10.535c3.845-4.764,7.685-7.771,8.571-6.712    c0.888,1.053-1.52,5.767-5.365,10.531C46.188,26.406,42.35,29.417,41.462,28.363z"
   id="path5206" />
		<path
   fill="#FBB041"
   d="M48.399,19.023c-3.311,4.102-6.104,8.282-8.203,12.134c-0.013-1.716-0.646-4.302-2.863-9.536    c-4.411-10.398-1.996-12.134-1.996-12.134c0.195-0.404,0.392-0.774,0.589-1.128c0.271-0.554,0.735-1.354,1.472-2.257    c0.021-0.034,0.049-0.059,0.071-0.088c0.022-0.029,0.044-0.058,0.066-0.087c0.735-0.912,1.387-1.491,1.837-1.832    c0.287-0.246,0.589-0.491,0.918-0.737c0,0,1.38-2.96,10.038,2.187c4.355,2.59,6.496,3.302,7.916,3.286    C55.11,11.452,51.719,14.921,48.399,19.023z"
   id="path5208" />
	</g>
	<path
   fill="#04A69C"
   d="M12.55,25.769c-1.156,0.862-1.341,2.69-2.317,3.752c-1.917,2.078-4.121,2.523-6.606,1.341   c-0.602,1.633-1.085,3.252-0.66,4.831c5.684,2.36,10.829-1.362,12.484-7.146C16.073,26.36,14.891,24.032,12.55,25.769z"
   id="path5210" />
	<path
   fill="#04A69C"
   d="M21.676,43.619c0.764,1.096,2.167,1.149,3.062,2.049c1.755,1.762,2.301,3.927,1.637,6.488   c1.299,0.487,2.571,0.854,3.723,0.316c1.251-5.843-2.057-10.706-6.59-11.943C21.792,40.067,20.144,41.408,21.676,43.619z"
   id="path5212" />
	<path
   fill="#04A69C"
   d="M50.194,30.995c1.1,1.25,3.13,1.241,4.423,2.253c2.527,1.981,3.314,4.505,2.342,7.553   c1.872,0.508,3.708,0.874,5.387,0.179c1.836-6.94-2.928-12.496-9.484-13.716C50.382,26.801,47.983,28.471,50.194,30.995z"
   id="path5214" />
	<path
   fill="#04A69C"
   d="M48.237,42.716c-0.688,0.787-0.508,2.049-1.028,2.94c-1.017,1.74-2.516,2.439-4.498,2.094   c-0.153,1.204-0.227,2.378,0.346,3.361c4.471,0.558,7.519-2.874,7.725-7.055C50.856,42.479,49.615,41.129,48.237,42.716z"
   id="path5216" />
	<path
   fill="#04A69C"
   d="M15.865,56.3c-0.014-1.041-0.984-1.866-1.191-2.878c-0.399-1.974,0.254-3.493,1.961-4.556   c-0.689-1.003-1.418-1.928-2.499-2.277c-3.706,2.561-3.693,7.153-1.062,10.406C14.07,58.224,15.89,58.402,15.865,56.3z"
   id="path5218" />
	<path
   fill-rule="evenodd"
   clip-rule="evenodd"
   fill="#AE92C4"
   d="M55.883,54.093c-1.895,0.736-2.867,2.235-3.115,3.631   c-0.133,0.716-0.12,1.516,0.2,2.34c0.729,1.903,2.457,2.683,4.021,2.69c0.812,0.004,1.776-0.221,2.599-0.841   c1.44-1.083,1.911-2.865,1.143-4.377c-0.453-0.887-1.159-1.357-1.981-1.578c-0.934-0.246-2.455-0.071-3.288,1.024   c-0.697,0.912-0.791,2.69,0.618,3.41c0.517,0.263,1.397,0.375,2.12-0.133c0.614-0.438,0.855-1.271,0.449-1.857   c-0.295-0.429-0.751-0.558-1.297-0.279c0.002,0.062,0.198,0.013,0.311,0.046c0.114,0.033,0.247,0.112,0.333,0.217   c0.506,0.596,0.019,1.249-0.677,1.391c-0.561,0.117-1.164-0.208-1.381-0.828c-0.223-0.642,0.042-1.362,0.59-1.782   c1.034-0.783,2.548-0.479,3.243,0.566c0.752,1.137,0.356,2.502-0.534,3.302c-0.835,0.749-1.833,0.879-2.672,0.778   c-1.172-0.137-2.438-0.94-2.819-2.474c-0.37-1.461,0.189-3.289,2.124-4.238c0.651-0.325,1.164-0.425,1.762-0.467   c1.06-0.066,2.092,0.158,3.059,0.883c0.949,0.712,1.632,2.003,1.709,3.119c0.073,1.041-0.186,2.082-0.785,2.965   c-0.662,0.979-1.77,1.819-3.092,2.174c-1.089,0.295-2.263,0.274-3.275-0.021c-0.966-0.278-2.099-0.999-2.807-1.94l-0.37-0.558   c-1.118-2.319-0.854-4.53,0.608-6.305c0.801-0.979,2.031-1.832,3.318-2.211C56.128,52.701,56.687,53.488,55.883,54.093z"
   id="path5220" />
	<path
   fill-rule="evenodd"
   clip-rule="evenodd"
   fill="#AE92C4"
   d="M2.587,61.783c1.859,0.816,3.604,0.446,4.77-0.361   c0.6-0.421,1.158-0.991,1.516-1.8c0.829-1.861,0.156-3.635-0.945-4.747c-0.568-0.574-1.408-1.099-2.43-1.24   c-1.784-0.254-3.377,0.674-3.902,2.286c-0.31,0.945-0.139,1.777,0.286,2.519c0.483,0.829,1.682,1.787,3.048,1.6   c1.137-0.15,2.461-1.341,1.97-2.853c-0.179-0.546-0.716-1.249-1.586-1.399c-0.743-0.129-1.507,0.292-1.632,0.991   c-0.098,0.513,0.133,0.929,0.72,1.116c0.04-0.046-0.129-0.15-0.188-0.25c-0.058-0.104-0.098-0.254-0.083-0.388   c0.062-0.782,0.87-0.899,1.458-0.508c0.479,0.312,0.677,0.966,0.391,1.558c-0.292,0.616-0.987,0.941-1.674,0.85   c-1.287-0.18-2.14-1.466-1.895-2.694c0.275-1.337,1.52-2.023,2.715-1.957c1.122,0.059,1.916,0.675,2.44,1.337   c0.73,0.928,1.056,2.39,0.244,3.743c-0.772,1.295-2.459,2.19-4.504,1.495c-0.685-0.233-1.12-0.521-1.57-0.916   c-0.795-0.7-1.37-1.591-1.539-2.786c-0.168-1.174,0.26-2.569,0.995-3.415c0.687-0.786,1.605-1.341,2.65-1.54   c1.164-0.221,2.538-0.038,3.727,0.649c0.977,0.562,1.791,1.403,2.301,2.332c0.485,0.879,0.774,2.19,0.61,3.356l-0.133,0.653   c-0.85,2.432-2.599,3.807-4.887,4.031c-1.26,0.125-2.732-0.142-3.908-0.783C1.432,62.592,1.594,61.643,2.587,61.783z"
   id="path5222" />
</g>
</svg>