<?xml version="1.0" encoding="UTF-8" standalone="no"?>
<!-- Generator: Adobe Illustrator 16.0.0, SVG Export Plug-In . SVG Version: 6.00 Build 0)  -->

<svg
   xmlns:dc="http://purl.org/dc/elements/1.1/"
   xmlns:cc="http://creativecommons.org/ns#"
   xmlns:rdf="http://www.w3.org/1999/02/22-rdf-syntax-ns#"
   xmlns:svg="http://www.w3.org/2000/svg"
   xmlns="http://www.w3.org/2000/svg"
   xmlns:sodipodi="http://sodipodi.sourceforge.net/DTD/sodipodi-0.dtd"
   xmlns:inkscape="http://www.inkscape.org/namespaces/inkscape"
   version="1.1"
   id="Layer_1"
   x="0px"
   y="0px"
   width="64px"
   height="64px"
   viewBox="0 0 64 64"
   enable-background="new 0 0 64 64"
   xml:space="preserve"
   inkscape:version="0.48.5 r10040"
   sodipodi:docname="1F48F.svg"
   inkscape:export-filename="D:\TESTINGEMOJI\SVGTEST\1F48F.png"
   inkscape:export-xdpi="90"
   inkscape:export-ydpi="90"><metadata
   id="metadata5660"><rdf:RDF><cc:Work
       rdf:about=""><dc:format>image/svg+xml</dc:format><dc:type
         rdf:resource="http://purl.org/dc/dcmitype/StillImage" /><dc:title></dc:title></cc:Work></rdf:RDF></metadata><defs
   id="defs5658" /><sodipodi:namedview
   pagecolor="#ffffff"
   bordercolor="#666666"
   borderopacity="1"
   objecttolerance="10"
   gridtolerance="10"
   guidetolerance="10"
   inkscape:pageopacity="0"
   inkscape:pageshadow="2"
   inkscape:window-width="640"
   inkscape:window-height="480"
   id="namedview5656"
   showgrid="false"
   inkscape:zoom="3.6875"
   inkscape:cx="32"
   inkscape:cy="32"
   inkscape:window-x="654"
   inkscape:window-y="315"
   inkscape:window-maximized="0"
   inkscape:current-layer="Layer_1" />
<g
   id="g5620">
	<path
   d="m 35.71,43.002 c 0,9.859 -7.998,17.855 -17.856,17.855 l 0,0 C 8,60.857 0,52.861 0,43.002 V 33.468 C 0,23.613 8,15.619 17.854,15.619 l 0,0 c 9.858,0 17.856,7.994 17.856,17.849 v 9.534 z"
   id="path5622"
   inkscape:connector-curvature="0"
   style="fill:#633d19" />
	<path
   d="m 32.122,63.924 v -2.577 c 0,-3.864 -6.101,-7.001 -13.63,-7.001 -7.528,0 -13.638,3.137 -13.638,7.001 v 2.577 h 27.268 z"
   id="path5624"
   inkscape:connector-curvature="0"
   style="fill:#ed307c" />
	<path
   d="m 2.99,40.104 c 0,5.992 6.65,10.841 14.866,10.841 8.208,0 14.867,-4.85 14.867,-10.841 0,-5.987 -6.658,-20.75 -14.867,-20.75 C 9.64,19.355 2.99,34.117 2.99,40.104 z"
   id="path5626"
   inkscape:connector-curvature="0"
   style="fill:#fbb042" />
	<path
   d="m 10.444,57.236 c 3.053,0 12.879,0 14.821,0 0.124,0 -0.667,-6.313 -0.667,-7.18 0,-0.059 -13.612,-0.109 -13.612,-0.109 0,0 -0.662,7.289 -0.542,7.289 z"
   id="path5628"
   inkscape:connector-curvature="0"
   style="fill:#ed307c" />
	<path
   d="m 29.712,31.633 c 0.021,-3.732 0.037,-7.445 0.081,-11.244 -6.752,-6.575 -16.419,-5.53 -23.349,1.163 -0.075,3.745 -0.149,7.402 -0.229,11.08 7.723,-0.949 15.638,-1.28 23.497,-0.999 z"
   id="path5630"
   inkscape:connector-curvature="0"
   style="fill:#633d19" />
	<path
   d="m 57.557,63.88 v -2.894 c 0,-4.4 -6.938,-7.968 -15.498,-7.968 -8.563,0 -15.506,3.567 -15.506,7.968 v 2.894 h 31.004 z"
   id="path5632"
   inkscape:connector-curvature="0"
   style="fill:#28b473" />
	<path
   d="m 34.799,57.543 c 3.465,0.166 14.628,0.713 16.832,0.822 0.141,0.008 -0.404,-7.215 -0.357,-8.18 0.004,-0.076 -15.455,-0.891 -15.455,-0.891 0,0 -1.158,8.245 -1.02,8.249 z"
   id="path5634"
   inkscape:connector-curvature="0"
   style="fill:#249561" />
	<path
   d="m 27.137,40.677 c -0.33,6.812 6.952,12.685 16.286,13.137 C 52.745,54.272 60.57,49.132 60.904,42.327 61.234,35.53 54.496,18.39 45.174,17.937 35.84,17.479 27.467,33.883 27.137,40.677 z"
   id="path5636"
   inkscape:connector-curvature="0"
   style="fill:#fbb042" />
	<path
   d="m 64.215,26.052 c -0.949,-2.762 -2.402,-3.95 -4.416,-5.227 0.36,-0.324 0.737,-0.747 1.251,-1.365 0.21,-0.256 0.545,-1.054 -0.058,-1.037 -4.576,0.151 -8.227,-4.393 -14.361,-4.183 -4,0.143 -11.9,1.994 -12.449,2.398 -3.246,2.363 -5.254,6.301 -6.359,10.413 -0.27,0.995 1.145,0.318 1.416,0.088 0.102,-0.088 0.222,-0.163 0.326,-0.244 -0.065,2.104 -0.506,4.161 -0.428,6.282 0.034,1.138 2.047,-0.677 2.226,-1.138 0.512,-1.284 1.062,-2.448 1.722,-3.638 0.111,-0.212 0.137,-0.337 0.121,-0.442 0.111,-0.093 0.189,-0.193 0.243,-0.285 1.103,-2.323 2.61,-4.224 4.487,-5.765 2.744,0.416 4.656,3.232 8.676,2.279 7.783,-1.847 10.267,3.359 11.755,10.782 0.206,1.038 1.913,-0.407 2.12,-0.886 1.219,-2.737 0.957,-4.736 0.474,-7.208 0.42,0.285 0.83,0.596 1.202,0.979 0.624,0.469 2.328,-0.988 2.052,-1.803 z"
   id="path5638"
   inkscape:connector-curvature="0"
   style="fill:#633d19" />
	<path
   enable-background="new    "
   d="m 42.025,41.466 c 0,-0.949 0.807,-0.929 1.908,-0.929 1.103,0 2.078,-0.021 2.078,0.929 0,0.952 -0.892,1.717 -1.994,1.717 -1.098,0 -1.992,-0.765 -1.992,-1.717 z"
   id="path5640"
   inkscape:connector-curvature="0"
   style="opacity:0.6;fill:#c37929" />
	<path
   d="m 54.146,36.339 c -0.188,0 -6.604,0 -7.59,0 -0.399,0 -0.552,-0.47 -0.309,-0.747 2.222,-2.566 5.984,-2.566 8.209,0 0.239,0.277 0.093,0.747 -0.31,0.747 z"
   id="path5642"
   inkscape:connector-curvature="0"
   style="fill:#25333a" />
	<path
   d="m 17.062,36.339 c -0.19,0 -6.599,0 -7.585,0 -0.4,0 -0.551,-0.47 -0.31,-0.747 2.222,-2.566 5.98,-2.566 8.203,0 0.239,0.277 0.094,0.747 -0.308,0.747 z"
   id="path5644"
   inkscape:connector-curvature="0"
   style="fill:#25333a" />
	<path
   d="m 28.438,36.486 c -0.188,0 -6.599,0 -7.585,0 -0.398,0 -0.551,-0.471 -0.308,-0.748 2.22,-2.565 5.981,-2.565 8.201,0 0.242,0.278 0.095,0.748 -0.308,0.748 z"
   id="path5646"
   inkscape:connector-curvature="0"
   style="fill:#25333a" />
	<path
   d="m 40.993,36.339 c -0.188,0 -6.604,0 -7.589,0 -0.4,0 -0.551,-0.47 -0.311,-0.747 2.225,-2.566 5.986,-2.566 8.211,0 0.242,0.277 0.092,0.747 -0.311,0.747 z"
   id="path5648"
   inkscape:connector-curvature="0"
   style="fill:#25333a" />
	<path
   d="m 35.484,42.445 c -1.266,-1.32 -3.789,-0.336 -5.633,2.194 -0.021,0.028 -0.039,0.06 -0.057,0.084 -0.021,-0.026 -0.04,-0.056 -0.057,-0.084 -1.845,-2.532 -4.371,-3.515 -5.638,-2.194 -1.263,1.317 -0.794,4.44 1.051,6.973 1.441,1.979 3.296,3.679 4.644,3.406 1.345,0.271 3.198,-1.429 4.644,-3.406 1.847,-2.532 2.314,-5.655 1.046,-6.973 z"
   id="path5650"
   inkscape:connector-curvature="0"
   style="fill:#df394c" />
	<path
   enable-background="new    "
   d="m 22.733,44.086 c -0.255,-0.598 -0.804,-0.903 -1.631,-0.903 -0.641,0 -1.341,0.187 -1.851,0.319 l -0.298,0.078 c -0.131,0.033 -0.812,0.416 -0.767,0.785 l 0.079,0.299 h 0.276 c 0.045,0 0.094,-0.008 0.151,-0.021 l 0.247,-0.063 c 0.559,-0.139 1.084,-0.271 1.636,-0.271 0.323,0 0.6,0.125 0.821,0.372 0.183,0.199 0.153,0.317 0.143,0.356 -0.049,0.203 -0.364,0.445 -0.786,0.604 -0.008,0.004 -0.655,0.271 -0.682,0.647 l 0.02,0.254 0.17,0.098 c 0.955,0.548 0.937,0.902 0.814,1.148 -0.137,0.272 -0.526,0.33 -0.826,0.33 -0.419,0 -0.873,-0.111 -1.135,-0.223 l -0.177,-0.033 c -0.329,0 -0.863,0.396 -0.921,0.687 l -0.029,0.293 0.235,0.099 c 0.406,0.172 0.839,0.26 1.285,0.26 h 0.002 c 0.778,0 1.573,-0.273 2.233,-0.769 0.588,-0.437 0.702,-0.896 0.698,-1.2 -0.008,-0.387 -0.208,-0.775 -0.571,-1.121 0.913,-0.548 1.203,-1.227 0.864,-2.025 z"
   id="path5652"
   inkscape:connector-curvature="0"
   style="opacity:0.98659997;fill:#e79d3b" />
	<path
   enable-background="new    "
   d="m 37.906,45.832 c 0.255,-0.598 0.805,-0.902 1.632,-0.902 0.642,0 1.342,0.186 1.853,0.32 l 0.297,0.078 c 0.131,0.031 0.813,0.416 0.768,0.785 L 42.378,46.41 H 42.1 c -0.045,0 -0.095,-0.006 -0.15,-0.02 l -0.247,-0.063 c -0.56,-0.141 -1.085,-0.272 -1.636,-0.272 -0.323,0 -0.601,0.125 -0.821,0.372 -0.183,0.199 -0.153,0.318 -0.144,0.355 0.049,0.203 0.364,0.445 0.785,0.605 0.01,0.004 0.655,0.27 0.684,0.646 l -0.021,0.256 -0.17,0.097 c -0.955,0.548 -0.937,0.901 -0.813,1.147 0.138,0.272 0.524,0.332 0.826,0.332 0.418,0 0.871,-0.113 1.135,-0.224 l 0.177,-0.034 c 0.329,0 0.862,0.397 0.922,0.688 l 0.028,0.293 -0.234,0.1 c -0.406,0.17 -0.84,0.258 -1.284,0.258 h -0.002 c -0.778,0 -1.573,-0.271 -2.233,-0.767 -0.588,-0.438 -0.701,-0.896 -0.697,-1.202 0.008,-0.386 0.207,-0.773 0.57,-1.121 -0.918,-0.545 -1.209,-1.225 -0.869,-2.024 z"
   id="path5654"
   inkscape:connector-curvature="0"
   style="opacity:0.98659997;fill:#e79d3b" />
</g>
</svg>