<?xml version="1.0" encoding="UTF-8" standalone="no"?>
<!-- Generator: Adobe Illustrator 16.0.0, SVG Export Plug-In . SVG Version: 6.00 Build 0)  -->

<svg
   xmlns:dc="http://purl.org/dc/elements/1.1/"
   xmlns:cc="http://creativecommons.org/ns#"
   xmlns:rdf="http://www.w3.org/1999/02/22-rdf-syntax-ns#"
   xmlns:svg="http://www.w3.org/2000/svg"
   xmlns="http://www.w3.org/2000/svg"
   xmlns:sodipodi="http://sodipodi.sourceforge.net/DTD/sodipodi-0.dtd"
   xmlns:inkscape="http://www.inkscape.org/namespaces/inkscape"
   version="1.1"
   id="Layer_1"
   x="0px"
   y="0px"
   width="64px"
   height="64px"
   viewBox="0 0 64 64"
   enable-background="new 0 0 64 64"
   xml:space="preserve"
   inkscape:version="0.48.5 r10040"
   sodipodi:docname="1F494.svg"
   inkscape:export-filename="D:\TESTINGEMOJI\SVGTEST\1F494.png"
   inkscape:export-xdpi="90"
   inkscape:export-ydpi="90"><metadata
   id="metadata3785"><rdf:RDF><cc:Work
       rdf:about=""><dc:format>image/svg+xml</dc:format><dc:type
         rdf:resource="http://purl.org/dc/dcmitype/StillImage" /><dc:title></dc:title></cc:Work></rdf:RDF></metadata><defs
   id="defs3783" /><sodipodi:namedview
   pagecolor="#ffffff"
   bordercolor="#666666"
   borderopacity="1"
   objecttolerance="10"
   gridtolerance="10"
   guidetolerance="10"
   inkscape:pageopacity="0"
   inkscape:pageshadow="2"
   inkscape:window-width="640"
   inkscape:window-height="480"
   id="namedview3781"
   showgrid="false"
   inkscape:zoom="3.6875"
   inkscape:cx="32"
   inkscape:cy="32"
   inkscape:window-x="354"
   inkscape:window-y="187"
   inkscape:window-maximized="0"
   inkscape:current-layer="Layer_1" />
<g
   id="g3773"
   transform="translate(0,2)">
	<path
   d="M 63.152,12.192 C 61.428,6.308 56.916,1.265 50.94,0.292 47.546,-0.213 44.108,-0.162 40.904,1.25 38.379,2.362 36.305,4.335 34.422,6.383 34.395,6.348 34.367,6.309 34.336,6.274 33.755,7.132 33.111,7.955 32.53,8.767 c -1.213,1.696 -3.07,3.922 -3.006,6.141 0.068,2.376 3.078,2.907 3.603,5.064 0.622,2.562 -1.748,3.818 -2.97,5.651 1.23,0.687 3.405,1.404 3.223,2.918 -0.237,1.978 -2.944,2.094 -3.463,3.838 -0.679,2.255 2.602,2.918 3.406,4.603 0.912,1.923 -0.039,3.116 -1.709,4.096 -0.597,0.347 -3.31,1.728 -3.015,2.617 0.178,0.53 0.886,0.939 1.287,1.279 0.437,0.366 0.847,0.757 1.258,1.15 1.504,1.447 2.479,3.023 1.053,4.978 -0.392,0.538 -1.121,1.088 -1.301,1.743 -0.218,0.808 -0.191,1.635 -0.035,2.449 0.221,1.159 0.671,2.263 0.878,3.417 0.037,0.207 0.078,0.491 0.126,0.819 0.084,-0.016 0.164,-0.043 0.23,-0.086 7.635,-5.016 15.102,-10.57 21.355,-17.412 3.965,-4.341 7.495,-9.329 9.367,-15.052 1.547,-4.72 1.726,-10.024 0.335,-14.788 z"
   id="path3775"
   inkscape:connector-curvature="0"
   style="fill:#df394c" />
	<path
   d="m 31.134,58.434 c -0.488,-1.155 -0.997,-2.349 -1.165,-3.601 -0.169,-1.271 0.01,-2.231 0.751,-3.28 0.889,-1.264 1.227,-2.461 -0.066,-3.519 -1.038,-0.85 -2.258,-1.509 -3.249,-2.398 -0.542,-0.483 -0.823,-1.011 -0.675,-1.739 0.207,-1.007 1.268,-1.931 2.028,-2.54 0.681,-0.542 2.292,-1.322 2.453,-2.266 0.359,-2.087 -3.214,-2.633 -4.052,-4.162 -1.018,-1.86 0.023,-3.354 1.439,-4.583 0.798,-0.694 1.794,-1.521 0.386,-2.172 -0.844,-0.39 -1.771,-0.624 -2.562,-1.12 -0.296,-0.187 -0.378,-0.472 -0.257,-0.799 0.866,-2.309 4.452,-4.591 1.346,-6.764 -1.58,-1.108 -3.171,-2.247 -3.027,-4.397 0.148,-2.217 1.26,-4.242 2.329,-6.145 C 27.406,7.896 28.114,6.811 28.677,5.677 26.61,3.61 24.336,1.85 21.53,0.957 19.578,0.335 17.487,0.243 15.467,0.368 13.712,0.477 11.953,0.754 10.309,1.419 7.294,2.64 4.848,4.955 3.078,7.736 2.042,9.366 1.319,11.199 0.802,13.075 0.289,14.942 -0.092,17.1 0.02,19.054 c 0.125,2.243 0.246,4.38 0.799,6.568 0.628,2.497 1.65,4.876 2.859,7.122 3.351,6.214 8.37,11.386 13.576,15.906 4.464,3.882 9.262,7.333 14.172,10.559 -0.09,-0.261 -0.185,-0.522 -0.292,-0.775 z"
   id="path3777"
   inkscape:connector-curvature="0"
   style="fill:#d13852" />
	<path
   d="m 52.676,21.223 c 0.677,1.751 3.155,2.469 5.535,1.607 l 0,0 c 2.385,-0.87 3.771,-2.992 3.093,-4.743 L 58.422,10.658 C 57.743,8.905 55.254,8.193 52.873,9.057 l 0,0 c -2.385,0.864 -3.758,2.986 -3.083,4.737 l 2.886,7.429 z"
   id="path3779"
   inkscape:connector-curvature="0"
   style="fill:#f1a5b1" />
</g>
</svg>