<?xml version="1.0" encoding="UTF-8" standalone="no"?>
<!-- Generator: Adobe Illustrator 16.0.0, SVG Export Plug-In . SVG Version: 6.00 Build 0)  -->

<svg
   xmlns:dc="http://purl.org/dc/elements/1.1/"
   xmlns:cc="http://creativecommons.org/ns#"
   xmlns:rdf="http://www.w3.org/1999/02/22-rdf-syntax-ns#"
   xmlns:svg="http://www.w3.org/2000/svg"
   xmlns="http://www.w3.org/2000/svg"
   xmlns:sodipodi="http://sodipodi.sourceforge.net/DTD/sodipodi-0.dtd"
   xmlns:inkscape="http://www.inkscape.org/namespaces/inkscape"
   version="1.1"
   id="Layer_1"
   x="0px"
   y="0px"
   width="64px"
   height="64px"
   viewBox="0 0 64 64"
   enable-background="new 0 0 64 64"
   xml:space="preserve"
   inkscape:version="0.48.5 r10040"
   sodipodi:docname="1F497.svg"
   inkscape:export-filename="D:\TESTINGEMOJI\SVGTEST\1F497.png"
   inkscape:export-xdpi="90"
   inkscape:export-ydpi="90"><metadata
   id="metadata3907"><rdf:RDF><cc:Work
       rdf:about=""><dc:format>image/svg+xml</dc:format><dc:type
         rdf:resource="http://purl.org/dc/dcmitype/StillImage" /><dc:title></dc:title></cc:Work></rdf:RDF></metadata><defs
   id="defs3905" /><sodipodi:namedview
   pagecolor="#ffffff"
   bordercolor="#666666"
   borderopacity="1"
   objecttolerance="10"
   gridtolerance="10"
   guidetolerance="10"
   inkscape:pageopacity="0"
   inkscape:pageshadow="2"
   inkscape:window-width="640"
   inkscape:window-height="480"
   id="namedview3903"
   showgrid="false"
   inkscape:zoom="3.6875"
   inkscape:cx="32"
   inkscape:cy="32"
   inkscape:window-x="633"
   inkscape:window-y="423"
   inkscape:window-maximized="0"
   inkscape:current-layer="Layer_1" />
<g
   id="g3895">
	<path
   fill="#F1ABB8"
   d="M62.349,11.99C60.219,5.902,55.201,0.846,48.87,0.151c-3.595-0.344-7.206-0.105-10.496,1.554   c-2.596,1.306-4.665,3.493-6.533,5.75c-2.294-2.748-4.827-5.202-8.176-6.478C21.651,0.209,19.46-0.012,17.331,0   c-1.851,0.014-3.715,0.2-5.481,0.799C8.613,1.904,5.903,4.191,3.881,7.01c-1.186,1.652-2.054,3.534-2.705,5.476   C0.526,14.416,0,16.662,0,18.719c0,2.368,0,4.619,0.453,6.948c0.514,2.662,1.442,5.221,2.582,7.652   c3.156,6.727,8.123,12.455,13.325,17.517c4.691,4.564,9.793,8.656,15.034,12.502c0.239,0.176,0.661,0.176,0.899,0   c7.75-5.687,15.294-11.932,21.49-19.459c3.932-4.779,7.371-10.216,9.023-16.33C64.17,22.502,64.072,16.921,62.349,11.99z"
   id="path3897" />
	<path
   fill="#E65A70"
   d="M56.861,15.543c-1.746-4.992-5.857-9.138-11.051-9.708c-2.946-0.283-5.907-0.086-8.609,1.274   c-2.126,1.073-3.822,2.865-5.354,4.715c-1.88-2.253-3.959-4.266-6.705-5.311c-1.651-0.631-3.449-0.811-5.198-0.801   c-1.514,0.01-3.042,0.163-4.492,0.656c-2.654,0.905-4.874,2.78-6.532,5.092c-0.973,1.355-1.687,2.897-2.22,4.491   c-0.531,1.582-0.963,3.422-0.963,5.111c0,1.94,0,3.785,0.371,5.698c0.418,2.183,1.184,4.281,2.118,6.274   c2.587,5.515,6.659,10.212,10.923,14.362c3.849,3.742,8.033,7.1,12.332,10.253c0.192,0.143,0.54,0.143,0.735,0   c6.357-4.664,12.542-9.784,17.623-15.959c3.225-3.92,6.042-8.375,7.398-13.389C58.358,24.163,58.276,19.586,56.861,15.543z"
   id="path3899" />
	<path
   fill="#BC2133"
   d="M49.55,20.282c-1.234-3.529-4.144-6.464-7.819-6.868c-2.083-0.199-4.18-0.061-6.089,0.903   c-1.505,0.756-2.704,2.025-3.787,3.334c-1.331-1.595-2.8-3.018-4.743-3.757c-1.168-0.447-2.442-0.574-3.675-0.567   c-1.073,0.007-2.153,0.115-3.179,0.463c-1.88,0.642-3.447,1.968-4.622,3.603c-0.688,0.958-1.194,2.048-1.571,3.175   c-0.375,1.12-0.68,2.421-0.68,3.617c0,1.372,0,2.677,0.262,4.029c0.295,1.543,0.836,3.029,1.499,4.439   c1.829,3.9,4.711,7.224,7.726,10.159c2.724,2.647,5.683,5.021,8.723,7.251c0.139,0.102,0.381,0.102,0.52,0   c4.497-3.298,8.872-6.921,12.467-11.286c2.28-2.772,4.272-5.927,5.233-9.473C50.604,26.379,50.55,23.143,49.55,20.282z"
   id="path3901" />
</g>
</svg>