<?xml version="1.0" encoding="UTF-8" standalone="no"?>
<!-- Generator: Adobe Illustrator 16.0.0, SVG Export Plug-In . SVG Version: 6.00 Build 0)  -->

<svg
   xmlns:dc="http://purl.org/dc/elements/1.1/"
   xmlns:cc="http://creativecommons.org/ns#"
   xmlns:rdf="http://www.w3.org/1999/02/22-rdf-syntax-ns#"
   xmlns:svg="http://www.w3.org/2000/svg"
   xmlns="http://www.w3.org/2000/svg"
   xmlns:sodipodi="http://sodipodi.sourceforge.net/DTD/sodipodi-0.dtd"
   xmlns:inkscape="http://www.inkscape.org/namespaces/inkscape"
   version="1.1"
   id="Layer_1"
   x="0px"
   y="0px"
   width="64px"
   height="64px"
   viewBox="0 0 64 64"
   enable-background="new 0 0 64 64"
   xml:space="preserve"
   inkscape:version="0.48.5 r10040"
   sodipodi:docname="1F49D.svg"
   inkscape:export-filename="D:\TESTINGEMOJI\SVGTEST\1F49D.png"
   inkscape:export-xdpi="90"
   inkscape:export-ydpi="90"><metadata
   id="metadata3067"><rdf:RDF><cc:Work
       rdf:about=""><dc:format>image/svg+xml</dc:format><dc:type
         rdf:resource="http://purl.org/dc/dcmitype/StillImage" /><dc:title></dc:title></cc:Work></rdf:RDF></metadata><defs
   id="defs3065" /><sodipodi:namedview
   pagecolor="#ffffff"
   bordercolor="#666666"
   borderopacity="1"
   objecttolerance="10"
   gridtolerance="10"
   guidetolerance="10"
   inkscape:pageopacity="0"
   inkscape:pageshadow="2"
   inkscape:window-width="640"
   inkscape:window-height="480"
   id="namedview3063"
   showgrid="false"
   inkscape:zoom="3.6875"
   inkscape:cx="32"
   inkscape:cy="32"
   inkscape:window-x="623"
   inkscape:window-y="329"
   inkscape:window-maximized="0"
   inkscape:current-layer="Layer_1" />
<g
   id="g3043">
	<g
   id="g3045">
		<path
   fill="#DF394C"
   d="M62.468,12.013C60.336,5.914,55.309,0.848,48.963,0.151c-3.603-0.344-7.22-0.104-10.517,1.558    c-2.598,1.309-4.669,3.5-6.543,5.761c-2.298-2.753-4.837-5.212-8.195-6.49C21.694,0.209,19.495-0.012,17.363,0    c-1.852,0.013-3.72,0.2-5.49,0.802C8.632,1.908,5.918,4.2,3.89,7.023c-1.188,1.655-2.06,3.541-2.711,5.487    C0.529,14.443,0,16.693,0,18.755c0,2.37,0.002,4.626,0.454,6.962c0.513,2.666,1.447,5.231,2.588,7.667    c3.16,6.736,8.136,12.479,13.348,17.547c4.701,4.573,9.814,8.675,15.063,12.527c0.239,0.175,0.664,0.175,0.902,0    c7.763-5.696,15.321-11.955,21.531-19.497c3.938-4.788,7.379-10.234,9.037-16.359C64.294,22.545,64.194,16.952,62.468,12.013z"
   id="path3047" />
		<path
   fill="#D13852"
   d="M19.299,37.619c-0.382-11.546,4.407-22.764,12.208-30.608c-2.194-2.563-4.632-4.825-7.8-6.031    c-2.014-0.77-4.213-0.99-6.345-0.979c-1.852,0.013-3.72,0.199-5.49,0.801c-3.242,1.106-5.955,3.4-7.983,6.223    c-1.188,1.654-2.06,3.541-2.711,5.488C0.529,14.443,0,16.694,0,18.755c0,2.371,0.002,4.627,0.454,6.962    c0.513,2.667,1.447,5.231,2.588,7.667c3.16,6.735,8.136,12.479,13.348,17.548c3.338,3.246,6.891,6.247,10.546,9.1    C22.408,53.836,19.587,46.184,19.299,37.619z"
   id="path3049" />
		<path
   fill="#F1A5B1"
   d="M51.933,22.094c0.809,1.807,3.458,2.427,5.913,1.388l0,0c2.467-1.044,3.81-3.355,2.999-5.162l-3.441-7.664    c-0.811-1.811-3.468-2.423-5.927-1.384l0,0c-2.465,1.041-3.796,3.349-2.989,5.156L51.933,22.094z"
   id="path3051" />
	</g>
	<g
   id="g3053">
		<path
   fill="#3AB14A"
   d="M59.88,35.303c0.158-0.266,0.324-0.524,0.481-0.79c-24.501-8.291-38.429,2.369-38.429,2.369    c-0.421,1.692-0.394,3.731-0.376,4.225c-0.014,0.627,0.004,1.054,0.004,1.054c11.116-12.069,30.541-6.506,36.712-4.317    c0.168-0.254,0.32-0.514,0.487-0.768c0.01,0.002,0.021,0.007,0.031,0.011c0.343-0.535,0.662-1.078,0.988-1.618    c0.033-0.057,0.07-0.108,0.104-0.165H59.88z"
   id="path3055" />
		<path
   fill="#329B48"
   d="M4.078,36.081c-0.106,0.202-0.196,0.405-0.28,0.628c-0.37,1.025-0.435,2.251,0.055,3.542    c0,0.006,0.004,0.014,0.008,0.025c0.031,0.079,0.066,0.157,0.096,0.231c0.353,0.781,2.191,2.722,4.276,2.57    c-1.639,1.302-1.682,3.971-1.41,4.783c0.033,0.082,0.055,0.16,0.086,0.234c0.008,0.018,0.012,0.021,0.014,0.031    c0.515,1.272,1.39,2.135,2.357,2.644c0.208,0.105,0.421,0.191,0.626,0.27c1.49,0.543,3.244,0.394,4.448-0.767    c0.174-0.153,0.351-0.317,0.529-0.496c2.663-2.664,5.595-8.226,6.944-10.94c0.351-0.608,0.617-1.075,0.777-1.348l0.025-0.01l0,0    c0-0.009,0-0.011,0-0.011l-0.012,0.004c0-0.002-0.004,0-0.004,0c0-0.002,0-0.002,0-0.004l0.016-0.009c0,0-0.004,0-0.012-0.002l0,0    l-0.023,0.011c-0.305-0.101-0.811-0.254-1.484-0.464c-2.825-1.086-8.755-3.207-12.514-3.364c-0.255-0.008-0.494-0.013-0.729-0.004    C6.202,33.598,4.81,34.671,4.078,36.081z"
   id="path3057" />
		<path
   fill="#329B48"
   d="M38.793,40.514c0.104-0.199,0.195-0.409,0.275-0.628c0.374-1.023,0.437-2.251-0.055-3.543    c0-0.004-0.004-0.014-0.006-0.024c-0.027-0.079-0.061-0.155-0.096-0.229c-0.349-0.788-2.19-2.722-4.275-2.57    c1.637-1.302,1.682-3.975,1.411-4.787c-0.031-0.078-0.055-0.158-0.088-0.233c-0.006-0.019-0.006-0.022-0.01-0.028    c-0.517-1.277-1.393-2.137-2.361-2.642c-0.207-0.112-0.421-0.198-0.628-0.272c-1.49-0.542-3.241-0.396-4.444,0.763    c-0.176,0.154-0.345,0.319-0.533,0.499c-2.657,2.663-5.593,8.227-6.938,10.938c-0.354,0.608-0.621,1.078-0.781,1.35l-0.023,0.01    l0,0c0.002,0.004,0,0.01-0.006,0.014l0.018-0.01c0,0.004,0.004,0,0.004,0s-0.004,0.004,0,0.01l-0.018,0.008    c0.004-0.004,0.01,0,0.014,0l0,0l0.021-0.008c0.303,0.094,0.816,0.252,1.486,0.46c2.827,1.088,8.749,3.205,12.514,3.363    c0.254,0.01,0.495,0.01,0.726,0.006C36.669,42.998,38.062,41.921,38.793,40.514z"
   id="path3059" />
		<path
   fill="#3AB14A"
   d="M28.473,39.645c1.06,2.691-0.654,5.891-3.829,7.14l0,0c-3.173,1.253-6.613,0.086-7.67-2.609l-2.304-5.85    c-1.059-2.691,0.654-5.888,3.823-7.14l0,0c3.18-1.252,6.613-0.081,7.676,2.61L28.473,39.645z"
   id="path3061" />
	</g>
</g>
</svg>