<?xml version="1.0" encoding="UTF-8" standalone="no"?>
<!-- Generator: Adobe Illustrator 16.0.0, SVG Export Plug-In . SVG Version: 6.00 Build 0)  -->

<svg
   xmlns:dc="http://purl.org/dc/elements/1.1/"
   xmlns:cc="http://creativecommons.org/ns#"
   xmlns:rdf="http://www.w3.org/1999/02/22-rdf-syntax-ns#"
   xmlns:svg="http://www.w3.org/2000/svg"
   xmlns="http://www.w3.org/2000/svg"
   xmlns:sodipodi="http://sodipodi.sourceforge.net/DTD/sodipodi-0.dtd"
   xmlns:inkscape="http://www.inkscape.org/namespaces/inkscape"
   version="1.1"
   id="Layer_1"
   x="0px"
   y="0px"
   width="64px"
   height="64px"
   viewBox="0 0 64 64"
   enable-background="new 0 0 64 64"
   xml:space="preserve"
   inkscape:version="0.48.5 r10040"
   sodipodi:docname="1F49C.svg"
   inkscape:export-filename="D:\TESTINGEMOJI\SVGTEST\1F49C.png"
   inkscape:export-xdpi="90"
   inkscape:export-ydpi="90"><metadata
   id="metadata3013"><rdf:RDF><cc:Work
       rdf:about=""><dc:format>image/svg+xml</dc:format><dc:type
         rdf:resource="http://purl.org/dc/dcmitype/StillImage" /><dc:title></dc:title></cc:Work></rdf:RDF></metadata><defs
   id="defs3011" /><sodipodi:namedview
   pagecolor="#ffffff"
   bordercolor="#666666"
   borderopacity="1"
   objecttolerance="10"
   gridtolerance="10"
   guidetolerance="10"
   inkscape:pageopacity="0"
   inkscape:pageshadow="2"
   inkscape:window-width="640"
   inkscape:window-height="480"
   id="namedview3009"
   showgrid="false"
   inkscape:zoom="6.84375"
   inkscape:cx="32"
   inkscape:cy="32"
   inkscape:window-x="631"
   inkscape:window-y="403"
   inkscape:window-maximized="0"
   inkscape:current-layer="Layer_1" />
<g
   id="g3001">
	<path
   fill="#AC97C2"
   d="M62.393,11.966C60.271,5.89,55.263,0.845,48.94,0.15c-3.586-0.344-7.193-0.105-10.474,1.55   c-2.59,1.304-4.653,3.487-6.52,5.74c-2.29-2.743-4.819-5.191-8.162-6.466C21.777,0.207,19.589-0.012,17.463,0   c-1.845,0.012-3.706,0.199-5.468,0.798C8.765,1.9,6.062,4.183,4.042,6.996C2.858,8.645,1.99,10.522,1.34,12.461   c-0.647,1.926-1.174,4.168-1.174,6.221c0,2.362,0.002,4.608,0.453,6.933c0.511,2.656,1.441,5.213,2.578,7.639   c3.147,6.711,8.105,12.431,13.296,17.48c4.683,4.556,9.776,8.643,15.007,12.479c0.238,0.174,0.659,0.174,0.897,0   c7.734-5.675,15.263-11.909,21.449-19.422c3.92-4.77,7.353-10.195,9.003-16.296C64.214,22.458,64.113,16.886,62.393,11.966z"
   id="path3003" />
	<path
   fill="#A68BBE"
   d="M19.394,37.473c-0.382-11.5,4.388-22.676,12.16-30.49c-2.186-2.554-4.612-4.806-7.768-6.007   C21.777,0.208,19.589-0.011,17.463,0c-1.845,0.014-3.706,0.199-5.468,0.798C8.765,1.9,6.062,4.185,4.042,6.997   C2.858,8.645,1.99,10.523,1.34,12.464c-0.647,1.923-1.174,4.165-1.174,6.218c0,2.362,0.002,4.608,0.453,6.933   c0.511,2.658,1.441,5.213,2.578,7.641c3.147,6.709,8.105,12.431,13.296,17.48c3.325,3.233,6.865,6.223,10.506,9.064   C22.487,53.628,19.678,46.005,19.394,37.473z"
   id="path3005" />
	<path
   fill="#D9C6E0"
   d="M51.9,22.007c0.804,1.802,3.444,2.418,5.89,1.385l0,0c2.458-1.042,3.795-3.343,2.988-5.143l-3.429-7.634   c-0.808-1.804-3.456-2.414-5.905-1.379l0,0c-2.453,1.037-3.78,3.336-2.977,5.136L51.9,22.007z"
   id="path3007" />
</g>
</svg>