<?xml version="1.0" encoding="UTF-8" standalone="no"?>
<!-- Generator: Adobe Illustrator 16.0.0, SVG Export Plug-In . SVG Version: 6.00 Build 0)  -->

<svg
   xmlns:dc="http://purl.org/dc/elements/1.1/"
   xmlns:cc="http://creativecommons.org/ns#"
   xmlns:rdf="http://www.w3.org/1999/02/22-rdf-syntax-ns#"
   xmlns:svg="http://www.w3.org/2000/svg"
   xmlns="http://www.w3.org/2000/svg"
   xmlns:sodipodi="http://sodipodi.sourceforge.net/DTD/sodipodi-0.dtd"
   xmlns:inkscape="http://www.inkscape.org/namespaces/inkscape"
   version="1.1"
   id="Layer_1"
   x="0px"
   y="0px"
   width="64px"
   height="64px"
   viewBox="0 0 64 64"
   enable-background="new 0 0 64 64"
   xml:space="preserve"
   inkscape:version="0.48.5 r10040"
   sodipodi:docname="1F49E.svg"
   inkscape:export-filename="D:\TESTINGEMOJI\SVGTEST\1F49E.png"
   inkscape:export-xdpi="90"
   inkscape:export-ydpi="90"><metadata
   id="metadata3117"><rdf:RDF><cc:Work
       rdf:about=""><dc:format>image/svg+xml</dc:format><dc:type
         rdf:resource="http://purl.org/dc/dcmitype/StillImage" /><dc:title></dc:title></cc:Work></rdf:RDF></metadata><defs
   id="defs3115" /><sodipodi:namedview
   pagecolor="#ffffff"
   bordercolor="#666666"
   borderopacity="1"
   objecttolerance="10"
   gridtolerance="10"
   guidetolerance="10"
   inkscape:pageopacity="0"
   inkscape:pageshadow="2"
   inkscape:window-width="640"
   inkscape:window-height="480"
   id="namedview3113"
   showgrid="false"
   inkscape:zoom="3.6875"
   inkscape:cx="32"
   inkscape:cy="32"
   inkscape:window-x="651"
   inkscape:window-y="250"
   inkscape:window-maximized="0"
   inkscape:current-layer="Layer_1" />
<g
   id="g3095"
   transform="translate(0,6)">
	<path
   d="M 4.503,34.112 C 5.212,33.439 1.068,20.94 32.757,7.014 36.94,5.173 -2.616,11.49 0.138,31.654 c 0.304,2.2 2.872,3.895 4.365,2.458 z"
   id="path3097"
   inkscape:connector-curvature="0"
   style="fill:#d0d1d1" />
	<path
   d="M 63.486,7.436 C 62.167,3.661 59.054,0.525 55.127,0.095 52.9,-0.12 50.658,0.028 48.618,1.058 47.01,1.868 45.726,3.224 44.567,4.623 43.147,2.919 41.575,1.397 39.499,0.607 38.251,0.13 36.893,-0.006 35.569,0 34.423,0.007 33.265,0.124 32.17,0.497 c -2.004,0.685 -3.684,2.104 -4.94,3.851 -0.733,1.024 -1.274,2.191 -1.678,3.396 -0.402,1.197 -0.731,2.589 -0.731,3.864 0,1.468 0.002,2.864 0.281,4.31 0.317,1.65 0.895,3.238 1.604,4.746 1.953,4.17 5.035,7.723 8.259,10.861 2.91,2.831 6.073,5.37 9.326,7.752 0.146,0.109 0.407,0.109 0.556,0 4.804,-3.525 9.486,-7.398 13.325,-12.067 2.438,-2.965 4.571,-6.334 5.596,-10.127 0.849,-3.126 0.788,-6.589 -0.282,-9.647 z"
   id="path3099"
   inkscape:connector-curvature="0"
   style="fill:#d12a83" />
	<path
   d="M 36.77,23.286 C 36.533,16.14 39.496,9.195 44.325,4.34 42.967,2.754 41.459,1.354 39.5,0.61 38.251,0.131 36.893,-0.006 35.569,0 34.423,0.009 33.265,0.124 32.17,0.497 30.166,1.182 28.486,2.601 27.23,4.348 26.497,5.372 25.956,6.54 25.552,7.745 c -0.402,1.196 -0.731,2.589 -0.731,3.863 0,1.47 0.002,2.864 0.281,4.31 0.317,1.65 0.895,3.238 1.604,4.746 1.953,4.17 5.035,7.725 8.259,10.861 2.068,2.01 4.267,3.869 6.529,5.633 -2.803,-3.836 -4.546,-8.57 -4.724,-13.872 z"
   id="path3101"
   inkscape:connector-curvature="0"
   style="fill:#c42781" />
	<path
   d="m 56.966,13.676 c 0.503,1.118 2.141,1.5 3.66,0.858 l 0,0 c 1.525,-0.646 2.356,-2.075 1.855,-3.197 L 60.352,6.595 C 59.851,5.474 58.206,5.096 56.684,5.738 l 0,0 c -1.525,0.644 -2.35,2.073 -1.851,3.192 l 2.133,4.746 z"
   id="path3103"
   inkscape:connector-curvature="0"
   style="fill:#eba4c8" />
	<path
   d="m 41.329,20.449 c -1.319,-3.775 -4.433,-6.913 -8.358,-7.343 -2.227,-0.213 -4.469,-0.064 -6.509,0.965 -1.608,0.808 -2.892,2.165 -4.051,3.565 -1.422,-1.706 -2.993,-3.227 -5.069,-4.017 -1.25,-0.477 -2.606,-0.614 -3.93,-0.606 -1.147,0.008 -2.304,0.124 -3.399,0.496 -2.004,0.685 -3.684,2.103 -4.94,3.852 -0.735,1.024 -1.276,2.189 -1.678,3.395 -0.402,1.196 -0.731,2.591 -0.731,3.865 0,1.467 0.002,2.864 0.281,4.31 0.317,1.65 0.896,3.238 1.603,4.744 1.955,4.172 5.037,7.725 8.262,10.858 2.91,2.833 6.073,5.372 9.325,7.753 0.146,0.11 0.408,0.11 0.555,0 4.805,-3.525 9.486,-7.396 13.326,-12.066 2.437,-2.962 4.572,-6.333 5.596,-10.124 0.848,-3.128 0.786,-6.59 -0.283,-9.647 z"
   id="path3105"
   inkscape:connector-curvature="0"
   style="fill:#efa4c8" />
	<path
   d="m 14.613,36.298 c -0.24,-7.147 2.726,-14.089 7.555,-18.946 -1.359,-1.584 -2.868,-2.987 -4.825,-3.732 -1.25,-0.475 -2.606,-0.614 -3.93,-0.606 -1.147,0.008 -2.304,0.124 -3.399,0.496 -2.004,0.685 -3.684,2.104 -4.94,3.852 -0.735,1.024 -1.276,2.191 -1.678,3.397 -0.402,1.194 -0.731,2.589 -0.731,3.863 0,1.467 0.002,2.864 0.281,4.31 0.317,1.65 0.896,3.238 1.603,4.746 1.955,4.17 5.037,7.723 8.262,10.856 2.066,2.013 4.265,3.87 6.528,5.634 -2.805,-3.832 -4.55,-8.57 -4.726,-13.87 z"
   id="path3107"
   inkscape:connector-curvature="0"
   style="fill:#e099bf" />
	<path
   d="m 34.809,26.691 c 0.501,1.117 2.14,1.499 3.66,0.855 l 0,0 c 1.525,-0.646 2.357,-2.076 1.854,-3.195 l -2.128,-4.742 c -0.503,-1.121 -2.146,-1.499 -3.67,-0.857 l 0,0 c -1.523,0.644 -2.347,2.074 -1.848,3.191 l 2.132,4.748 z"
   id="path3109"
   inkscape:connector-curvature="0"
   style="fill:#f0c8de" />
	<path
   d="M 23.899,42.517 C 24.839,42.164 34.171,51.684 61.48,28.759 65.079,25.734 40.975,59.385 24.087,47.663 22.247,46.38 21.914,43.238 23.899,42.517 z"
   id="path3111"
   inkscape:connector-curvature="0"
   style="fill:#ed307c" />
</g>
</svg>