<?xml version="1.0" encoding="UTF-8" standalone="no"?>
<!-- Generator: Adobe Illustrator 16.0.0, SVG Export Plug-In . SVG Version: 6.00 Build 0)  -->

<svg
   xmlns:dc="http://purl.org/dc/elements/1.1/"
   xmlns:cc="http://creativecommons.org/ns#"
   xmlns:rdf="http://www.w3.org/1999/02/22-rdf-syntax-ns#"
   xmlns:svg="http://www.w3.org/2000/svg"
   xmlns="http://www.w3.org/2000/svg"
   xmlns:sodipodi="http://sodipodi.sourceforge.net/DTD/sodipodi-0.dtd"
   xmlns:inkscape="http://www.inkscape.org/namespaces/inkscape"
   version="1.1"
   id="Layer_1"
   x="0px"
   y="0px"
   width="64px"
   height="64px"
   viewBox="0 0 64 64"
   enable-background="new 0 0 64 64"
   xml:space="preserve"
   inkscape:version="0.48.5 r10040"
   sodipodi:docname="1F499.svg"
   inkscape:export-filename="D:\TESTINGEMOJI\SVGTEST\1F499.png"
   inkscape:export-xdpi="90"
   inkscape:export-ydpi="90"><metadata
   id="metadata4002"><rdf:RDF><cc:Work
       rdf:about=""><dc:format>image/svg+xml</dc:format><dc:type
         rdf:resource="http://purl.org/dc/dcmitype/StillImage" /><dc:title></dc:title></cc:Work></rdf:RDF></metadata><defs
   id="defs4000" /><sodipodi:namedview
   pagecolor="#ffffff"
   bordercolor="#666666"
   borderopacity="1"
   objecttolerance="10"
   gridtolerance="10"
   guidetolerance="10"
   inkscape:pageopacity="0"
   inkscape:pageshadow="2"
   inkscape:window-width="640"
   inkscape:window-height="480"
   id="namedview3998"
   showgrid="false"
   inkscape:zoom="3.6875"
   inkscape:cx="32"
   inkscape:cy="32"
   inkscape:window-x="464"
   inkscape:window-y="304"
   inkscape:window-maximized="0"
   inkscape:current-layer="Layer_1" />
<g
   id="g3990">
	<path
   fill="#64A8DC"
   d="M62.422,11.942C60.303,5.878,55.302,0.843,48.996,0.15c-3.583-0.343-7.179-0.105-10.456,1.547   c-2.587,1.301-4.646,3.48-6.507,5.729c-2.283-2.738-4.808-5.182-8.144-6.453C21.883,0.207,19.701-0.012,17.58,0   c-1.843,0.012-3.7,0.199-5.459,0.796c-3.223,1.1-5.921,3.378-7.938,6.186c-1.181,1.646-2.045,3.52-2.693,5.455   c-0.648,1.922-1.172,4.159-1.172,6.209c0,2.357,0,4.599,0.452,6.919c0.51,2.651,1.435,5.203,2.573,7.624   c3.142,6.697,8.089,12.406,13.271,17.445c4.673,4.547,9.755,8.626,14.975,12.455c0.238,0.173,0.658,0.173,0.896,0   c7.719-5.664,15.234-11.887,21.404-19.384c3.918-4.761,7.342-10.176,8.988-16.264C64.236,22.414,64.139,16.853,62.422,11.942z"
   id="path3992" />
	<path
   fill="#60A3CD"
   d="M19.506,37.398c-0.383-11.478,4.377-22.631,12.136-30.429c-2.184-2.549-4.605-4.797-7.752-5.996   C21.883,0.208,19.701-0.01,17.58,0c-1.843,0.014-3.7,0.199-5.459,0.796c-3.223,1.1-5.921,3.38-7.938,6.187   c-1.181,1.645-2.045,3.52-2.693,5.457c-0.648,1.919-1.172,4.156-1.172,6.206c0,2.357,0,4.599,0.452,6.919   c0.51,2.653,1.435,5.203,2.573,7.626c3.142,6.695,8.089,12.406,13.271,17.445c3.318,3.228,6.849,6.211,10.485,9.047   C22.591,53.522,19.791,45.914,19.506,37.398z"
   id="path3994" />
	<path
   fill="#AAD5EE"
   d="M51.946,21.964c0.806,1.798,3.439,2.414,5.88,1.382l0,0c2.451-1.039,3.786-3.336,2.98-5.132l-3.42-7.619   c-0.806-1.8-3.447-2.409-5.896-1.376l0,0c-2.446,1.034-3.771,3.329-2.971,5.125L51.946,21.964z"
   id="path3996" />
</g>
</svg>