<?xml version="1.0" encoding="UTF-8" standalone="no"?>
<!-- Generator: Adobe Illustrator 16.0.0, SVG Export Plug-In . SVG Version: 6.00 Build 0)  -->

<svg
   xmlns:dc="http://purl.org/dc/elements/1.1/"
   xmlns:cc="http://creativecommons.org/ns#"
   xmlns:rdf="http://www.w3.org/1999/02/22-rdf-syntax-ns#"
   xmlns:svg="http://www.w3.org/2000/svg"
   xmlns="http://www.w3.org/2000/svg"
   xmlns:sodipodi="http://sodipodi.sourceforge.net/DTD/sodipodi-0.dtd"
   xmlns:inkscape="http://www.inkscape.org/namespaces/inkscape"
   version="1.1"
   id="Layer_1"
   x="0px"
   y="0px"
   width="64px"
   height="64px"
   viewBox="0 0 64 64"
   enable-background="new 0 0 64 64"
   xml:space="preserve"
   inkscape:version="0.48.5 r10040"
   sodipodi:docname="1F498.svg"
   inkscape:export-filename="D:\TESTINGEMOJI\SVGTEST\1F498.png"
   inkscape:export-xdpi="90"
   inkscape:export-ydpi="90"><metadata
   id="metadata3972"><rdf:RDF><cc:Work
       rdf:about=""><dc:format>image/svg+xml</dc:format><dc:type
         rdf:resource="http://purl.org/dc/dcmitype/StillImage" /><dc:title></dc:title></cc:Work></rdf:RDF></metadata><defs
   id="defs3970" /><sodipodi:namedview
   pagecolor="#ffffff"
   bordercolor="#666666"
   borderopacity="1"
   objecttolerance="10"
   gridtolerance="10"
   guidetolerance="10"
   inkscape:pageopacity="0"
   inkscape:pageshadow="2"
   inkscape:window-width="640"
   inkscape:window-height="480"
   id="namedview3968"
   showgrid="false"
   inkscape:zoom="3.6875"
   inkscape:cx="32"
   inkscape:cy="32"
   inkscape:window-x="528"
   inkscape:window-y="261"
   inkscape:window-maximized="0"
   inkscape:current-layer="Layer_1" />
<g
   id="g3948"
   transform="translate(0,2)">
	<path
   d="M 54.06,15.438 C 52.339,10.525 48.291,6.445 43.179,5.883 40.282,5.606 37.364,5.798 34.707,7.138 32.617,8.192 30.947,9.956 29.439,11.777 27.586,9.562 25.543,7.58 22.839,6.55 21.214,5.93 19.444,5.752 17.727,5.761 c -1.493,0.01 -2.999,0.161 -4.424,0.646 -2.61,0.891 -4.797,2.737 -6.428,5.011 -0.959,1.334 -1.659,2.853 -2.185,4.421 -0.522,1.556 -0.95,3.368 -0.95,5.03 0,1.907 0.002,3.725 0.365,5.605 0.412,2.148 1.165,4.214 2.086,6.176 2.544,5.426 6.553,10.053 10.751,14.135 3.788,3.683 7.905,6.988 12.135,10.092 0.192,0.14 0.532,0.14 0.725,0 6.256,-4.592 12.343,-9.633 17.343,-15.708 3.174,-3.855 5.947,-8.243 7.279,-13.176 1.108,-4.07 1.026,-8.576 -0.364,-12.555 z"
   id="path3950"
   inkscape:connector-curvature="0"
   style="fill:#df394c" />
	<path
   d="M 19.29,36.062 C 18.979,26.763 22.834,17.728 29.122,11.408 27.351,9.343 25.389,7.522 22.841,6.552 21.216,5.93 19.446,5.754 17.729,5.763 16.236,5.773 14.73,5.922 13.305,6.408 10.695,7.299 8.508,9.146 6.877,11.419 5.918,12.753 5.218,14.272 4.692,15.84 c -0.522,1.556 -0.95,3.368 -0.95,5.03 0,1.907 0.002,3.725 0.365,5.605 0.412,2.148 1.165,4.214 2.086,6.176 2.544,5.426 6.553,10.053 10.751,14.135 2.688,2.614 5.551,5.034 8.495,7.33 C 21.79,49.125 19.519,42.96 19.29,36.062 z"
   id="path3952"
   inkscape:connector-curvature="0"
   style="fill:#d13852" />
	<path
   d="m 17.355,46.813 c 0.089,-0.187 0.177,-0.373 0.247,-0.556 0.33,-0.87 0.367,-1.709 -0.107,-2.3 -0.002,-0.003 -0.004,-0.007 -0.012,-0.011 -0.02,-0.039 -0.058,-0.066 -0.089,-0.102 -0.342,-0.33 -2.092,-0.633 -4.04,0.567 1.511,-1.717 1.507,-3.496 1.239,-3.885 -0.027,-0.035 -0.051,-0.077 -0.083,-0.104 -0.008,-0.01 -0.008,-0.01 -0.012,-0.014 -0.501,-0.569 -1.334,-0.67 -2.245,-0.491 -0.198,0.035 -0.395,0.089 -0.595,0.151 -1.4,0.427 -3.032,1.449 -4.135,2.847 -0.163,0.19 -0.326,0.393 -0.489,0.606 -2.443,3.15 -5.092,8.352 -6.304,10.837 -0.319,0.587 -0.56,1.034 -0.703,1.298 l -0.021,0.02 0,0 c 0,0 -0.002,0.008 -0.006,0.012 l 0.012,-0.016 c 0,0 0.004,0 0.008,0 -0.004,0 -0.006,0.004 -0.006,0.004 l -0.012,0.016 c 0.004,-0.004 0.006,-0.004 0.01,-0.004 l 0,0 0.023,-0.02 C 0.322,55.57 0.8,55.403 1.428,55.187 4.087,54.41 9.657,52.673 13.176,50.793 c 0.237,-0.128 0.462,-0.253 0.678,-0.381 1.561,-0.852 2.845,-2.286 3.501,-3.599 z"
   id="path3954"
   inkscape:connector-curvature="0"
   style="fill:#236798" />
	<path
   d="M 61.634,3.546 C 61.125,2.949 60.007,3.063 59.125,3.806 l -24.37,20.575 c 0.469,0.27 0.846,0.715 1.032,1.262 0.136,0.4 0.203,0.816 0.264,1.237 -0.004,-0.006 0.006,0.037 0.014,0.105 L 60.955,5.973 c 0.877,-0.741 1.184,-1.828 0.679,-2.427 z"
   id="path3956"
   inkscape:connector-curvature="0"
   style="fill:#236798" />
	<path
   d="M 18.608,38.124 2.424,51.789 c -0.882,0.738 -1.185,1.83 -0.68,2.428 0.507,0.595 1.629,0.482 2.505,-0.264 L 20.408,40.318 c -0.697,-0.636 -1.107,-1.534 -1.8,-2.194 z"
   id="path3958"
   inkscape:connector-curvature="0"
   style="fill:#236798" />
	<g
   id="g3960">
		<path
   d="M 62.683,6.115 C 62.326,5.401 57.704,8.454 57.416,8.671 L 44.072,19.965 c -0.284,0.213 -1.01,0.035 -0.646,0.748 0.363,0.713 0.89,1.113 1.174,0.899 l 19.209,-9.875 c 0.295,-0.22 -0.761,-4.91 -1.126,-5.622 z"
   id="path3962"
   inkscape:connector-curvature="0"
   style="fill:#71a1b8" />
		<path
   d="M 42.503,18.104 55.874,6.844 C 56.138,6.597 59.921,2.553 59.276,2.079 58.639,1.599 54.187,-0.227 53.923,0.023 L 40.967,17.304 c -0.263,0.245 0.048,0.831 0.689,1.309 0.641,0.478 0.586,-0.264 0.847,-0.509 z"
   id="path3964"
   inkscape:connector-curvature="0"
   style="fill:#71a1b8" />
	</g>
	<path
   d="m 35.639,24.591 c -0.973,-1.598 -1.228,-3.418 -0.878,-5.084 -1.507,1.678 -1.845,4.168 -0.631,6.165 1.296,2.128 3.906,2.976 6.213,2.167 -1.876,-0.35 -3.62,-1.461 -4.704,-3.248 z"
   id="path3966"
   inkscape:connector-curvature="0"
   style="fill:#d13852" />
</g>
</svg>