<?xml version="1.0" encoding="UTF-8" standalone="no"?>
<!-- Generator: Adobe Illustrator 16.0.0, SVG Export Plug-In . SVG Version: 6.00 Build 0)  -->

<svg
   xmlns:dc="http://purl.org/dc/elements/1.1/"
   xmlns:cc="http://creativecommons.org/ns#"
   xmlns:rdf="http://www.w3.org/1999/02/22-rdf-syntax-ns#"
   xmlns:svg="http://www.w3.org/2000/svg"
   xmlns="http://www.w3.org/2000/svg"
   xmlns:sodipodi="http://sodipodi.sourceforge.net/DTD/sodipodi-0.dtd"
   xmlns:inkscape="http://www.inkscape.org/namespaces/inkscape"
   version="1.1"
   id="Layer_1"
   x="0px"
   y="0px"
   width="64px"
   height="64px"
   viewBox="0 0 64 64"
   enable-background="new 0 0 64 64"
   xml:space="preserve"
   inkscape:version="0.48.5 r10040"
   sodipodi:docname="1F64F.svg"
   inkscape:export-filename="D:\TESTINGEMOJI\SVGTEST\1F64F.png"
   inkscape:export-xdpi="90"
   inkscape:export-ydpi="90"><metadata
   id="metadata3195"><rdf:RDF><cc:Work
       rdf:about=""><dc:format>image/svg+xml</dc:format><dc:type
         rdf:resource="http://purl.org/dc/dcmitype/StillImage" /><dc:title></dc:title></cc:Work></rdf:RDF></metadata><defs
   id="defs3193" /><sodipodi:namedview
   pagecolor="#ffffff"
   bordercolor="#666666"
   borderopacity="1"
   objecttolerance="10"
   gridtolerance="10"
   guidetolerance="10"
   inkscape:pageopacity="0"
   inkscape:pageshadow="2"
   inkscape:window-width="640"
   inkscape:window-height="480"
   id="namedview3191"
   showgrid="false"
   inkscape:zoom="3.6875"
   inkscape:cx="32"
   inkscape:cy="32"
   inkscape:window-x="0"
   inkscape:window-y="0"
   inkscape:window-maximized="0"
   inkscape:current-layer="Layer_1" />
<g
   id="g3133"
   transform="translate(0,10)">
	<path
   d="m 30.006,2.275 c 0,0 -0.729,-2.941 -3.444,0.004 0,0 -8.975,20.351 -8.445,25.832 0.53,5.477 -2.668,6.879 -3.381,7.323 -0.713,0.444 -0.713,0.444 -0.713,0.444 l -7.062,6.005 11.148,8.713 c 0,0 12.917,-11.57 13.096,-18.671 L 30.061,3.057"
   id="path3135"
   inkscape:connector-curvature="0"
   style="fill:#e0952f" />
	<path
   d="m 28.978,2.468 c 0,0 -0.522,-2.983 -3.436,-0.233 0,0 -10.365,19.679 -10.219,25.183 0.148,5.5 -3.141,6.676 -3.881,7.07 -0.74,0.394 -0.74,0.394 -0.74,0.394 l -7.463,5.5 10.514,9.466 c 0,0 13.691,-10.646 14.363,-17.716 L 28.979,3.253"
   id="path3137"
   inkscape:connector-curvature="0"
   style="fill:#fbb042" />
	<g
   id="g3139">
		<path
   d="m 29.999,2.25 c -0.561,-1.286 -1.582,-2.544 -3.334,-1.831 -1.43,0.577 -2.053,1.395 -2.581,2.478 -1.568,3.194 -3.687,6.649 -5.099,9.89 -1.692,3.883 -3.383,7.833 -4.345,11.876 -0.736,3.108 0.374,7.105 -3.599,9.041 -1.445,0.705 -2.61,1.71 -3.845,2.618 -1.569,1.156 -3.139,2.313 -4.707,3.471 -0.446,0.327 -0.372,0.841 0,1.172 3.505,3.159 7.009,6.311 10.515,9.466 0.378,0.347 1.108,0.304 1.5,0 2.633,-2.053 5.048,-4.289 7.315,-6.591 1.874,-1.908 3.599,-3.907 5.021,-6.034 1.133,-1.71 2.275,-3.724 2.333,-5.679 0.167,-5.559 0.335,-11.117 0.502,-16.676 0.119,-4.066 0.244,-8.129 0.364,-12.2 0.033,-1.067 -2.09,-1.063 -2.125,0 -0.16,5.484 -0.328,10.965 -0.491,16.446 -0.099,3.322 -0.198,6.637 -0.3,9.956 -0.07,2.376 -0.321,4.327 -1.646,6.567 -2.885,4.861 -7.641,9.271 -12.475,13.037 0.5,0 1.001,0 1.5,0 -3.504,-3.151 -7.011,-6.306 -10.515,-9.465 0,0.394 0,0.786 0,1.172 2.483,-1.826 4.968,-3.661 7.454,-5.488 -0.491,0.358 0.506,-0.257 0.598,-0.304 0.185,-0.094 0.364,-0.179 0.551,-0.276 0.711,-0.378 1.325,-0.842 1.833,-1.383 1.728,-1.847 1.934,-4.145 1.961,-6.354 0.016,-1.527 0.536,-3.069 0.998,-4.542 0.646,-2.049 1.435,-4.075 2.255,-6.088 1.539,-3.786 3.882,-7.767 5.668,-11.487 0.381,-0.798 0.769,-1.593 1.161,-2.384 0.183,-0.374 0.771,-0.654 1.29,-0.802 0.452,-0.125 0.167,0.755 0.202,0.833 0.439,1.006 2.492,0.574 2.041,-0.439 l 0,0 z"
   id="path3141"
   inkscape:connector-curvature="0"
   style="fill:#fbb042" />
	</g>
	<polygon
   points="7.324,34.366 20.934,46.228 20.934,54.248 1.061,54.248 1.061,37.413 "
   id="polygon3143"
   style="fill:#59c4e7" />
	<polygon
   points="5.146,54.248 5.146,37.413 9.073,35.504 7.768,34.366 1.504,37.413 1.504,54.248 "
   id="polygon3145"
   style="fill:#46b2cb" />
	<g
   id="g3147">
		<path
   d="m 8.068,33.7 c 3.821,3.323 7.637,6.649 11.45,9.976 0.67,0.585 1.342,1.169 2.012,1.749 0.541,0.472 0.463,1.017 0.463,1.637 0,2.396 0,4.791 0,7.187 0,0.51 -0.481,0.938 -1.06,0.938 -6.626,0 -13.25,0 -19.874,0 -0.579,0 -1.06,-0.429 -1.06,-0.938 0,-5.613 0,-11.227 0,-16.835 0,-0.323 0.199,-0.655 0.522,-0.818 2.092,-1.009 4.176,-2.025 6.266,-3.042 1.198,-0.581 2.267,1.048 1.067,1.624 -2.084,1.017 -4.174,2.033 -6.258,3.046 0.171,-0.269 0.347,-0.537 0.522,-0.81 0,5.608 0,11.222 0,16.835 -0.354,-0.315 -0.705,-0.631 -1.06,-0.942 6.624,0 13.248,0 19.874,0 -0.353,0.312 -0.705,0.627 -1.06,0.942 0,-2.676 0,-5.345 0,-8.021 0.102,0.226 0.207,0.448 0.31,0.666 C 15.644,42.941 11.106,38.987 6.57,35.029 5.595,34.184 7.094,32.852 8.068,33.7 z"
   id="path3149"
   inkscape:connector-curvature="0"
   style="fill:#2ba4dd" />
	</g>
	<g
   id="g3151">
		<path
   d="m 7.25,2.757 c 1.496,2.341 3.29,4.304 5.329,5.854 1.317,1.001 2.515,-1.617 1.2,-2.614 C 11.904,4.575 10.304,2.768 8.925,0.618 7.959,-0.897 6.288,1.257 7.25,2.757 l 0,0 z"
   id="path3153"
   inkscape:connector-curvature="0"
   style="fill:#59c4e7" />
	</g>
	<g
   id="g3155">
		<path
   d="m 0.815,10.925 c 2.96,1.321 6.032,1.967 9.141,2.427 1.517,0.23 1.501,-2.8 0,-3.022 C 7.056,9.897 4.205,9.239 1.447,8.008 -0.003,7.357 -0.62,10.282 0.815,10.925 l 0,0 z"
   id="path3157"
   inkscape:connector-curvature="0"
   style="fill:#59c4e7" />
	</g>
	<g
   id="g3159">
		<path
   d="m 4.954,22.977 c 2.542,-1.527 5.025,-3.202 7.465,-4.971 1.333,-0.962 0.136,-3.58 -1.2,-2.609 -2.438,1.772 -4.921,3.443 -7.463,4.966 -1.387,0.834 -0.179,3.44 1.198,2.614 l 0,0 z"
   id="path3161"
   inkscape:connector-curvature="0"
   style="fill:#59c4e7" />
	</g>
	<path
   d="m 33.995,2.178 c 0,0 0.729,-2.941 3.441,0.004 0,0 8.975,20.351 8.446,25.832 -0.529,5.477 2.669,6.879 3.382,7.323 0.712,0.443 0.712,0.443 0.712,0.443 l 7.062,6.005 -11.148,8.714 c 0,0 -12.916,-11.571 -13.096,-18.672 L 33.94,2.959"
   id="path3163"
   inkscape:connector-curvature="0"
   style="fill:#e0952f" />
	<path
   d="m 35.023,2.367 c 0,0 0.521,-2.984 3.434,-0.234 0,0 10.367,19.679 10.219,25.183 -0.147,5.5 3.14,6.676 3.884,7.069 0.74,0.394 0.74,0.394 0.74,0.394 l 7.463,5.5 -10.517,9.466 c 0,0 -13.688,-10.646 -14.362,-17.716 L 35.023,3.15"
   id="path3165"
   inkscape:connector-curvature="0"
   style="fill:#fbb042" />
	<g
   id="g3167">
		<path
   d="m 34.003,2.149 c 0.561,-1.285 1.581,-2.543 3.334,-1.831 1.43,0.576 2.051,1.395 2.579,2.477 1.569,3.194 3.688,6.649 5.099,9.89 1.692,3.884 3.383,7.833 4.345,11.876 0.738,3.109 -0.376,7.105 3.6,9.042 1.447,0.705 2.611,1.71 3.847,2.617 1.569,1.157 3.14,2.313 4.705,3.471 0.448,0.327 0.37,0.842 0,1.173 -3.506,3.158 -7.01,6.31 -10.513,9.465 -0.382,0.347 -1.11,0.304 -1.5,0 C 46.865,48.276 44.45,46.041 42.184,43.738 40.31,41.83 38.584,39.832 37.163,37.705 36.029,35.995 34.888,33.98 34.825,32.025 34.662,26.466 34.49,20.908 34.323,15.35 34.206,11.283 34.081,7.221 33.961,3.15 c -0.035,-1.067 2.092,-1.063 2.127,0 0.159,5.485 0.327,10.965 0.49,16.446 0.098,3.323 0.199,6.638 0.3,9.957 0.068,2.376 0.319,4.328 1.645,6.567 2.886,4.861 7.641,9.271 12.477,13.038 -0.503,0 -1.002,0 -1.5,0 3.502,-3.151 7.01,-6.307 10.513,-9.466 0,0.394 0,0.787 0,1.173 -2.48,-1.827 -4.966,-3.662 -7.451,-5.489 0.489,0.358 -0.509,-0.257 -0.6,-0.304 -0.184,-0.093 -0.364,-0.179 -0.55,-0.276 C 50.699,34.418 50.084,33.955 49.578,33.413 47.85,31.567 47.645,29.268 47.618,27.06 47.602,25.533 47.081,23.991 46.619,22.518 45.974,20.469 45.183,18.444 44.364,16.43 42.825,12.643 40.482,8.662 38.696,4.943 38.316,4.145 37.926,3.35 37.537,2.559 37.35,2.185 36.766,1.905 36.246,1.756 35.793,1.631 36.079,2.512 36.046,2.59 35.602,3.594 33.551,3.162 34.003,2.149 l 0,0 z"
   id="path3169"
   inkscape:connector-curvature="0"
   style="fill:#fbb042" />
	</g>
	<polygon
   points="56.677,34.266 43.066,46.126 43.066,54.146 62.94,54.146 62.94,37.312 "
   id="polygon3171"
   style="fill:#59c4e7" />
	<polygon
   points="58.853,54.146 58.853,37.312 54.928,35.402 56.232,34.266 62.494,37.312 62.494,54.146 "
   id="polygon3173"
   style="fill:#46b2cb" />
	<g
   id="g3175">
		<path
   d="m 55.933,33.6 c -3.821,3.322 -7.639,6.648 -11.452,9.976 -0.67,0.584 -1.342,1.168 -2.01,1.749 -0.541,0.471 -0.463,1.017 -0.463,1.636 0,2.396 0,4.791 0,7.187 0,0.511 0.479,0.938 1.059,0.938 6.622,0 13.248,0 19.874,0 0.576,0 1.06,-0.428 1.06,-0.938 0,-5.613 0,-11.226 0,-16.835 0,-0.323 -0.2,-0.654 -0.524,-0.818 -2.09,-1.009 -4.173,-2.025 -6.265,-3.042 -1.196,-0.58 -2.268,1.048 -1.067,1.624 2.084,1.017 4.176,2.033 6.26,3.047 -0.174,-0.27 -0.347,-0.538 -0.522,-0.811 0,5.609 0,11.222 0,16.835 0.353,-0.315 0.705,-0.631 1.06,-0.942 -6.626,0 -13.252,0 -19.874,0 0.351,0.312 0.705,0.627 1.06,0.942 0,-2.676 0,-5.344 0,-8.021 -0.101,0.227 -0.206,0.448 -0.312,0.666 4.538,-3.953 9.076,-7.907 13.614,-11.864 0.975,-0.847 -0.527,-2.179 -1.498,-1.329 z"
   id="path3177"
   inkscape:connector-curvature="0"
   style="fill:#2ba4dd" />
	</g>
	<g
   id="g3179">
		<path
   d="M 56.751,2.655 C 55.253,4.996 53.459,6.959 51.42,8.509 50.104,9.51 48.906,6.893 50.223,5.895 c 1.873,-1.421 3.475,-3.229 4.852,-5.379 0.965,-1.515 2.638,0.64 1.676,2.139 l 0,0 z"
   id="path3181"
   inkscape:connector-curvature="0"
   style="fill:#59c4e7" />
	</g>
	<g
   id="g3183">
		<path
   d="m 63.186,10.824 c -2.96,1.32 -6.033,1.967 -9.142,2.427 -1.518,0.23 -1.5,-2.801 0,-3.023 2.899,-0.432 5.749,-1.09 8.511,-2.321 1.447,-0.651 2.064,2.274 0.631,2.917 l 0,0 z"
   id="path3185"
   inkscape:connector-curvature="0"
   style="fill:#59c4e7" />
	</g>
	<g
   id="g3187">
		<path
   d="m 59.045,22.875 c -2.541,-1.527 -5.024,-3.202 -7.463,-4.97 -1.334,-0.962 -0.137,-3.58 1.197,-2.61 2.44,1.772 4.922,3.443 7.466,4.966 1.387,0.835 0.179,3.44 -1.2,2.614 l 0,0 z"
   id="path3189"
   inkscape:connector-curvature="0"
   style="fill:#59c4e7" />
	</g>
</g>
</svg>