<?xml version="1.0" encoding="UTF-8" standalone="no"?>
<!-- Generator: Adobe Illustrator 16.0.0, SVG Export Plug-In . SVG Version: 6.00 Build 0)  -->

<svg
   xmlns:dc="http://purl.org/dc/elements/1.1/"
   xmlns:cc="http://creativecommons.org/ns#"
   xmlns:rdf="http://www.w3.org/1999/02/22-rdf-syntax-ns#"
   xmlns:svg="http://www.w3.org/2000/svg"
   xmlns="http://www.w3.org/2000/svg"
   xmlns:sodipodi="http://sodipodi.sourceforge.net/DTD/sodipodi-0.dtd"
   xmlns:inkscape="http://www.inkscape.org/namespaces/inkscape"
   version="1.1"
   id="Layer_1"
   x="0px"
   y="0px"
   width="64px"
   height="64px"
   viewBox="0 0 64 64"
   enable-background="new 0 0 64 64"
   xml:space="preserve"
   inkscape:version="0.48.5 r10040"
   sodipodi:docname="1F69D.svg"
   inkscape:export-filename="D:\TESTINGEMOJI\SVGTEST\1F69D.png"
   inkscape:export-xdpi="90"
   inkscape:export-ydpi="90"><metadata
   id="metadata4179"><rdf:RDF><cc:Work
       rdf:about=""><dc:format>image/svg+xml</dc:format><dc:type
         rdf:resource="http://purl.org/dc/dcmitype/StillImage" /><dc:title></dc:title></cc:Work></rdf:RDF></metadata><defs
   id="defs4177" /><sodipodi:namedview
   pagecolor="#ffffff"
   bordercolor="#666666"
   borderopacity="1"
   objecttolerance="10"
   gridtolerance="10"
   guidetolerance="10"
   inkscape:pageopacity="0"
   inkscape:pageshadow="2"
   inkscape:window-width="640"
   inkscape:window-height="480"
   id="namedview4175"
   showgrid="false"
   inkscape:zoom="3.6875"
   inkscape:cx="32"
   inkscape:cy="32"
   inkscape:window-x="567"
   inkscape:window-y="267"
   inkscape:window-maximized="0"
   inkscape:current-layer="Layer_1" />
<g
   id="g4115">
	<path
   fill="#A2C3CB"
   d="M50.21,46.209c0,3.538,0,7.079,0,10.619c0,2.253,0,4.505,0,6.756c0,0.144,0.051,0.264,0.101,0.264   c1.348,0,2.713,0,4.067,0c0.771,0,1.543,0,2.321,0c0.06,0,0.093-0.12,0.093-0.264c0-3.536,0-7.077,0-10.617   c0-2.254,0-4.508,0-6.758c0-0.078,0-0.136-0.016-0.179l-0.01-0.005c0-0.005,0-0.005,0-0.005c-0.017-0.044-0.042-0.074-0.042-0.074   c-1.373,0-2.735,0-4.083,0c-0.778,0-1.56,0-2.331,0C50.261,45.946,50.21,46.066,50.21,46.209z"
   id="path4117" />
</g>
<g
   id="g4119">
	<path
   fill="#7F9BA0"
   d="M52.407,46.206c0,3.539,0,7.08,0,10.62c0,2.253,0,4.505,0,6.756c0,0.144,0.023,0.264,0.047,0.264   c0.615,0,1.239,0,1.858,0c0.352,0,0.704,0,1.061,0c0.026,0,0.042-0.12,0.042-0.264c0-3.538,0-7.077,0-10.62   c0-2.252,0-4.505,0-6.756c0-0.078,0-0.136-0.008-0.178l-0.003-0.006c0-0.005,0-0.005,0-0.005c-0.008-0.045-0.02-0.073-0.02-0.073   c-0.627,0-1.251,0-1.866,0c-0.355,0-0.713,0-1.064,0C52.431,45.944,52.407,46.063,52.407,46.206z"
   id="path4121" />
</g>
<g
   id="g4123">
	<path
   fill="#A2C3CB"
   d="M29.092,46.209c0,3.538,0,7.079,0,10.619c0,2.253,0,4.505,0,6.756c0,0.144,0.053,0.264,0.105,0.264   c1.384,0,2.786,0,4.175,0c0.794,0,1.586,0,2.386,0c0.062,0,0.097-0.12,0.097-0.264c0-3.536,0-7.077,0-10.617   c0-2.254,0-4.508,0-6.758c0-0.078,0-0.136-0.018-0.179l-0.011-0.005c0-0.005,0-0.005,0-0.005c-0.015-0.044-0.042-0.074-0.042-0.074   c-1.409,0-2.811,0-4.195,0c-0.799,0-1.6,0-2.392,0C29.145,45.946,29.092,46.066,29.092,46.209z"
   id="path4125" />
</g>
<g
   id="g4127">
	<path
   fill="#7F9BA0"
   d="M31.345,46.206c0,3.539,0,7.08,0,10.62c0,2.253,0,4.505,0,6.756c0,0.144,0.023,0.264,0.047,0.264   c0.615,0,1.239,0,1.858,0c0.353,0,0.705,0,1.062,0c0.026,0,0.042-0.12,0.042-0.264c0-3.538,0-7.077,0-10.62   c0-2.252,0-4.505,0-6.756c0-0.078,0-0.136-0.008-0.178l-0.004-0.006c0-0.005,0-0.005,0-0.005c-0.008-0.045-0.019-0.073-0.019-0.073   c-0.628,0-1.251,0-1.867,0c-0.356,0-0.712,0-1.064,0C31.368,45.944,31.345,46.063,31.345,46.206z"
   id="path4129" />
</g>
<path
   fill="#B3B3B3"
   d="M47.796,11.187c0.959,0.242,15.894,0.107,15.894,0.107V6.337c0,0-10.924-0.082-12.674,0  C49.26,6.419,46.843,10.945,47.796,11.187z"
   id="path4131" />
<g
   id="g4133">
	<path
   fill="#A2C3CB"
   d="M10.825,46.206c0,3.539,0,7.08,0,10.62c0,2.253,0,4.505,0,6.756c0,0.144,0.048,0.264,0.095,0.264   c1.242,0,2.501,0,3.751,0c0.711,0,1.421,0,2.142,0c0.054,0,0.085-0.12,0.085-0.264c0-3.538,0-7.077,0-10.62   c0-2.252,0-4.505,0-6.756c0-0.078,0-0.136-0.016-0.178l-0.008-0.006c0-0.005,0-0.005,0-0.005c-0.015-0.045-0.038-0.073-0.038-0.073   c-1.267,0-2.525,0-3.768,0c-0.72,0-1.438,0-2.148,0C10.874,45.944,10.825,46.063,10.825,46.206z"
   id="path4135" />
</g>
<g
   id="g4137">
	<path
   fill="#7F9BA0"
   d="M10.825,47.813c0,1.809,0,3.618,0,5.427c0,1.152,0,2.301,0,3.451c0,0.074,0.048,0.136,0.095,0.136   c1.242,0,2.501,0,3.751,0c0.711,0,1.421,0,2.142,0c0.054,0,0.085-0.062,0.085-0.136c0-1.808,0-3.615,0-5.425   c0-1.153,0-2.303,0-3.453c0-0.038,0-0.069-0.016-0.091l-0.008-0.001c0-0.002,0-0.002,0-0.002c-0.015-0.025-0.038-0.039-0.038-0.039   c-1.267,0-2.525,0-3.768,0c-0.72,0-1.438,0-2.148,0C10.874,47.68,10.825,47.739,10.825,47.813z"
   id="path4139" />
</g>
<g
   id="g4141">
	<path
   fill="#7F9BA0"
   d="M29.065,48.525c0,1.808,0,3.62,0,5.428c0,1.15,0,2.3,0,3.452c0,0.073,0.054,0.133,0.106,0.133   c1.39,0,2.795,0,4.193,0c0.796,0,1.59,0,2.395,0c0.061,0,0.096-0.06,0.096-0.133c0-1.808,0-3.618,0-5.427c0-1.151,0-2.303,0-3.453   c0-0.039,0-0.069-0.018-0.089l-0.011-0.004v-0.002c-0.015-0.023-0.042-0.037-0.042-0.037c-1.415,0-2.823,0-4.21,0   c-0.805,0-1.609,0-2.402,0C29.119,48.394,29.065,48.451,29.065,48.525z"
   id="path4143" />
</g>
<g
   id="g4145">
	<path
   fill="#7F9BA0"
   d="M50.108,48.525c0,1.808,0,3.62,0,5.428c0,1.15,0,2.3,0,3.452c0,0.073,0.054,0.133,0.106,0.133   c1.39,0,2.794,0,4.192,0c0.796,0,1.59,0,2.395,0c0.061,0,0.096-0.06,0.096-0.133c0-1.808,0-3.618,0-5.427c0-1.151,0-2.303,0-3.453   c0-0.039,0-0.069-0.018-0.089l-0.01-0.004v-0.002c-0.016-0.023-0.043-0.037-0.043-0.037c-1.415,0-2.822,0-4.211,0   c-0.805,0-1.608,0-2.401,0C50.162,48.394,50.108,48.451,50.108,48.525z"
   id="path4147" />
</g>
<g
   id="g4149">
	<path
   fill="#A2C3CB"
   d="M1.193,49.261c12.595,0,25.189,0,37.784,0c8.011,0,16.024,0,24.033,0c0.516,0,0.936-0.049,0.936-0.104   c0-1.356,0-2.728,0-4.093c0-0.778,0-1.557,0-2.342c0-0.055-0.42-0.096-0.936-0.096c-12.592,0-25.188,0-37.783,0   c-8.017,0-16.023,0-24.034,0c-0.281,0-0.492,0.007-0.639,0.024l-0.019,0.007c0,0-0.016,0-0.027,0   c-0.151,0.017-0.251,0.04-0.251,0.04c0,1.388,0,2.753,0,4.116c0,0.784,0,1.563,0,2.343C0.256,49.212,0.682,49.261,1.193,49.261z"
   id="path4151" />
</g>
<g
   id="g4153">
	<path
   fill="#7F9BA0"
   d="M0.937,52.967c12.595,0,25.189,0,37.784,0c8.011,0,16.025,0,24.031,0c0.516,0,0.938-0.059,0.938-0.12   c0-1.516,0-3.047,0-4.573c0-0.872,0-1.74,0-2.617c0-0.064-0.422-0.105-0.938-0.105c-12.59,0-25.185,0-37.783,0   c-8.015,0-16.021,0-24.032,0c-0.283,0-0.492,0.005-0.639,0.023l-0.011,0.009c-0.023,0-0.023,0-0.023,0   C0.101,45.602,0,45.627,0,45.627c0,1.549,0,3.08,0,4.6c0,0.882,0,1.751,0,2.62C0,52.908,0.426,52.967,0.937,52.967z"
   id="path4155" />
</g>
<g
   id="g4157">
	<path
   fill="#7F9BA0"
   d="M12.761,46.206c0,3.539,0,7.08,0,10.62c0,2.253,0,4.505,0,6.756c0,0.144,0.023,0.264,0.046,0.264   c0.615,0,1.239,0,1.858,0c0.353,0,0.705,0,1.061,0c0.027,0,0.042-0.12,0.042-0.264c0-3.538,0-7.077,0-10.62   c0-2.252,0-4.505,0-6.756c0-0.078,0-0.136-0.007-0.178l-0.004-0.006c0-0.005,0-0.005,0-0.005c-0.008-0.045-0.019-0.073-0.019-0.073   c-0.627,0-1.251,0-1.866,0c-0.356,0-0.712,0-1.065,0C12.784,45.944,12.761,46.063,12.761,46.206z"
   id="path4159" />
</g>
<path
   fill="#CDCCCB"
   d="M14.633,40.896h49.056V9.801H35.51c0,0-27.174,9.449-29.117,21.216  C5.453,36.703,11.152,39.896,14.633,40.896z"
   id="path4161" />
<path
   fill="#29ABE2"
   d="M40.872,13.148H27.373c-4.095,1.418-12.527,6.268-16.438,10.364h29.937V13.148z"
   id="path4163" />
<rect
   x="42.815"
   y="13.148"
   fill="#29ABE2"
   width="4.03"
   height="10.364"
   id="rect4165" />
<rect
   x="49.437"
   y="13.148"
   fill="#29ABE2"
   width="10.8"
   height="10.364"
   id="rect4167" />
<path
   fill="#056353"
   d="M7.556,27.016c-0.836,1.306-1.428,2.651-1.657,4.033c-0.79,4.802,3.105,7.837,6.454,9.29  c9.337-13.201,41.698-8.336,51.337-7.983v-5.339H7.556z"
   id="path4169" />
<path
   fill="#CDCCCB"
   d="M20.34,40.275c-0.85,1.59,4.973,9.35,9.24,9.494c4.72,0.159,34.11,0,34.11,0v-9.494H20.34z"
   id="path4171" />
<path
   fill="#B3B3B3"
   d="M63.689,42.626v-2.351H20.34c-0.23,0.426,0.033,1.304,0.608,2.351H63.689z"
   id="path4173" />
</svg>