<?xml version="1.0" encoding="UTF-8" standalone="no"?>
<!-- Generator: Adobe Illustrator 16.0.0, SVG Export Plug-In . SVG Version: 6.00 Build 0)  -->

<svg
   xmlns:dc="http://purl.org/dc/elements/1.1/"
   xmlns:cc="http://creativecommons.org/ns#"
   xmlns:rdf="http://www.w3.org/1999/02/22-rdf-syntax-ns#"
   xmlns:svg="http://www.w3.org/2000/svg"
   xmlns="http://www.w3.org/2000/svg"
   xmlns:sodipodi="http://sodipodi.sourceforge.net/DTD/sodipodi-0.dtd"
   xmlns:inkscape="http://www.inkscape.org/namespaces/inkscape"
   version="1.1"
   id="Layer_1"
   x="0px"
   y="0px"
   width="64px"
   height="64px"
   viewBox="0 0 64 64"
   enable-background="new 0 0 64 64"
   xml:space="preserve"
   inkscape:version="0.48.5 r10040"
   sodipodi:docname="1F202.svg"
   inkscape:export-filename="D:\TESTINGEMOJI\SVGTEST\1F202.png"
   inkscape:export-xdpi="90"
   inkscape:export-ydpi="90"><metadata
   id="metadata3172"><rdf:RDF><cc:Work
       rdf:about=""><dc:format>image/svg+xml</dc:format><dc:type
         rdf:resource="http://purl.org/dc/dcmitype/StillImage" /><dc:title></dc:title></cc:Work></rdf:RDF></metadata><defs
   id="defs3170" /><sodipodi:namedview
   pagecolor="#ffffff"
   bordercolor="#666666"
   borderopacity="1"
   objecttolerance="10"
   gridtolerance="10"
   guidetolerance="10"
   inkscape:pageopacity="0"
   inkscape:pageshadow="2"
   inkscape:window-width="640"
   inkscape:window-height="480"
   id="namedview3168"
   showgrid="false"
   inkscape:zoom="3.6875"
   inkscape:cx="32"
   inkscape:cy="32"
   inkscape:window-x="655"
   inkscape:window-y="349"
   inkscape:window-maximized="0"
   inkscape:current-layer="Layer_1" />
<g
   id="g3158">
	<path
   fill="#1B75BB"
   d="M64.016,57.116c0,3.814-3.085,6.902-6.896,6.902H6.899C3.092,64.019,0,60.931,0,57.116V6.9   C0,3.091,3.092,0,6.899,0H57.12c3.811,0,6.896,3.091,6.896,6.9V57.116z"
   id="path3160" />
</g>
<g
   id="g3162">
	<path
   fill="#0867A3"
   d="M0,48.745v8.371c0,3.814,3.092,6.902,6.899,6.902H57.12c3.811,0,6.896-3.088,6.896-6.902V6.9   C53.084,46.609,13.787,49.126,0,48.745z"
   id="path3164" />
</g>
<path
   fill="#FFFFFF"
   d="M58.296,18.726c-3.489,0-6.981,0-10.471,0c0-4.134,0-8.269,0-12.403c0-0.207-0.173-0.381-0.381-0.381  c-2.01,0-4.02,0-6.031,0c-0.203,0-0.384,0.174-0.381,0.381c0.079,4.134,0.157,8.269,0.234,12.403c-4.922,0-9.845,0-14.769,0  c-1.172,0-2.343,0-3.516,0c0-3.894,0-7.786,0-11.679c0-0.207-0.172-0.38-0.38-0.38c-1.931,0-3.86,0-5.789,0  c-0.208,0-0.381,0.174-0.381,0.38c0,3.894,0,7.786,0,11.679c-3.57,0-7.142,0-10.714,0c-0.207,0-0.381,0.172-0.381,0.381  c0,1.929,0,3.858,0,5.788c0,0.207,0.174,0.381,0.381,0.381c3.572,0,7.144,0,10.714,0c0,4.91,0,9.821,0,14.732  c0,0.509,0,1.019,0,1.527c0,0.209,0.173,0.381,0.381,0.381c1.929,0,3.858,0,5.789,0c0.208,0,0.38-0.172,0.38-0.381  c0-5.037,0-10.074,0-15.113c0-0.382,0-0.765,0-1.146c4.925,0,9.851,0,14.775,0c1.173,0,2.346,0,3.518,0  c0.011,2.987,0.132,6.019-0.283,8.982c-0.638,4.561-2.617,8.892-6.328,11.741c-4.362,3.348-10.009,4.897-15.299,6.023  c-0.225,0.048-0.369,0.364-0.226,0.56c1.286,1.767,2.571,3.536,3.858,5.306c0.101,0.141,0.252,0.223,0.429,0.175  c8.283-2.248,16.922-6.218,21.395-13.945c1.933-3.339,2.848-7.153,2.987-10.989c0.095-2.611,0.017-5.234,0.017-7.847  c0-0.001,0-0.004,0-0.006c3.489,0,6.981,0,10.471,0c0.114,0,0.198-0.041,0.259-0.103c0.004-0.003,0.008-0.006,0.011-0.009  c0.005-0.005,0.008-0.008,0.011-0.011c0.061-0.062,0.101-0.146,0.101-0.258c0-1.93,0-3.859,0-5.788  C58.677,18.898,58.505,18.726,58.296,18.726z"
   id="path3166" />
</svg>