<?xml version="1.0" encoding="UTF-8" standalone="no"?>
<!-- Generator: Adobe Illustrator 16.0.0, SVG Export Plug-In . SVG Version: 6.00 Build 0)  -->

<svg
   xmlns:dc="http://purl.org/dc/elements/1.1/"
   xmlns:cc="http://creativecommons.org/ns#"
   xmlns:rdf="http://www.w3.org/1999/02/22-rdf-syntax-ns#"
   xmlns:svg="http://www.w3.org/2000/svg"
   xmlns="http://www.w3.org/2000/svg"
   xmlns:sodipodi="http://sodipodi.sourceforge.net/DTD/sodipodi-0.dtd"
   xmlns:inkscape="http://www.inkscape.org/namespaces/inkscape"
   version="1.1"
   id="Layer_1"
   x="0px"
   y="0px"
   width="64px"
   height="64px"
   viewBox="0 0 64 64"
   enable-background="new 0 0 64 64"
   xml:space="preserve"
   inkscape:version="0.48.5 r10040"
   sodipodi:docname="1F21A.svg"
   inkscape:export-filename="D:\TESTINGEMOJI\SVGTEST\1F21A.png"
   inkscape:export-xdpi="90"
   inkscape:export-ydpi="90"><metadata
   id="metadata3226"><rdf:RDF><cc:Work
       rdf:about=""><dc:format>image/svg+xml</dc:format><dc:type
         rdf:resource="http://purl.org/dc/dcmitype/StillImage" /><dc:title></dc:title></cc:Work></rdf:RDF></metadata><defs
   id="defs3224" /><sodipodi:namedview
   pagecolor="#ffffff"
   bordercolor="#666666"
   borderopacity="1"
   objecttolerance="10"
   gridtolerance="10"
   guidetolerance="10"
   inkscape:pageopacity="0"
   inkscape:pageshadow="2"
   inkscape:window-width="640"
   inkscape:window-height="480"
   id="namedview3222"
   showgrid="false"
   inkscape:zoom="3.6875"
   inkscape:cx="32"
   inkscape:cy="32"
   inkscape:window-x="764"
   inkscape:window-y="371"
   inkscape:window-maximized="0"
   inkscape:current-layer="Layer_1" />
<g
   id="g3202">
	<path
   fill="#F6921E"
   d="M64.027,57.124c0,3.815-3.089,6.897-6.9,6.897H6.903C3.093,64.021,0,60.939,0,57.124V6.9   C0,3.084,3.093,0,6.903,0h50.224c3.812,0,6.9,3.084,6.9,6.9V57.124z"
   id="path3204" />
</g>
<g
   id="g3206">
	<path
   fill="#D07929"
   d="M0,48.747v8.368c0,3.815,3.091,6.907,6.9,6.907h50.227c3.814,0,6.9-3.092,6.9-6.907V6.896   C53.094,46.61,13.792,49.128,0,48.747z"
   id="path3208" />
</g>
<g
   id="g3210">
	<path
   fill="#FFFFFF"
   d="M59.753,38.287c-2.606,0-5.214,0-7.82,0c0-3.446,0-6.891,0-10.335c2.126,0,4.248,0,6.373,0   c0.208,0,0.381-0.174,0.381-0.382c0-1.446,0-2.894,0-4.341c0-0.208-0.173-0.381-0.381-0.381c-2.125,0-4.247,0-6.373,0   c0-3.444,0-6.889,0-10.334c1.481,0,2.962,0,4.443,0c0.207,0,0.381-0.172,0.381-0.38c0-1.528,0-3.056,0-4.583   c0-0.207-0.174-0.381-0.381-0.381c-3.619,0-7.238,0-10.858,0c-6.479,0-12.956,0-19.434,0c-2.623,0-5.245,0-7.868,0   c0.677-1.139,1.283-2.317,1.825-3.528c0.099-0.22,0.028-0.487-0.228-0.558c-1.448-0.402-2.895-0.804-4.342-1.207   c-0.02-0.005-0.038-0.006-0.056-0.009c-0.142-0.036-0.293,0.007-0.374,0.184c-2.444,5.374-6.422,9.812-11.036,13.432   c-0.153,0.119-0.148,0.418,0,0.539c1.286,1.045,2.573,2.09,3.859,3.136c0.174,0.142,0.362,0.141,0.538,0   c1.396-1.122,2.704-2.342,3.934-3.641c0,2.444,0,4.889,0,7.333c-2.125,0-4.25,0-6.373,0c-0.208,0-0.382,0.173-0.382,0.381   c0,1.447,0,2.895,0,4.341c0,0.208,0.174,0.382,0.382,0.382c2.124,0,4.249,0,6.373,0c0,3.444,0,6.889,0,10.335   c-2.687,0-5.375,0-8.062,0c-0.208,0-0.38,0.172-0.38,0.38c0,1.526,0,3.055,0,4.583c0,0.207,0.172,0.38,0.38,0.38   c2.764,0,5.527,0,8.292,0c6.144,0,12.289,0,18.433,0c6.306,0,12.612,0,18.917,0c3.245,0,6.493,0,9.738,0c0.033,0,0.067,0,0.099,0   c0.209,0,0.381-0.173,0.381-0.38c0-1.528,0-3.057,0-4.583C60.134,38.459,59.962,38.287,59.753,38.287z M17.681,22.848   c0-3.444,0-6.889,0-10.334c1.998,0,3.994,0,5.992,0c0,3.445,0,6.89,0,10.334C21.675,22.848,19.678,22.848,17.681,22.848z    M17.681,27.952c1.998,0,3.994,0,5.992,0c0,3.444,0,6.889,0,10.335c-1.998,0-3.995,0-5.992,0   C17.681,34.841,17.681,31.396,17.681,27.952z M40.354,22.848c0-3.444,0-6.889,0-10.334c2.078,0,4.157,0,6.235,0   c0,3.445,0,6.89,0,10.334C44.511,22.848,42.432,22.848,40.354,22.848z M40.354,27.952c2.078,0,4.157,0,6.235,0   c0,3.444,0,6.889,0,10.335c-2.078,0-4.157,0-6.235,0C40.354,34.841,40.354,31.396,40.354,27.952z M29.018,27.952   c1.998,0,3.993,0,5.991,0c0,3.444,0,6.889,0,10.335c-1.998,0-3.993,0-5.991,0C29.018,34.841,29.018,31.396,29.018,27.952z    M35.009,22.848c-1.998,0-3.993,0-5.991,0c0-3.444,0-6.889,0-10.334c1.998,0,3.993,0,5.991,0   C35.009,15.958,35.009,19.403,35.009,22.848z"
   id="path3212" />
	<path
   fill="#FFFFFF"
   d="M15.32,47.504c-1.366-0.804-2.733-1.608-4.101-2.411c-0.088-0.054-0.174-0.063-0.252-0.049   c-0.104,0.011-0.203,0.064-0.269,0.185c-1.83,3.311-4.104,6.338-6.694,9.089c-0.136,0.144-0.16,0.397,0,0.538   c1.366,1.206,2.733,2.412,4.1,3.619c0.147,0.128,0.396,0.163,0.539,0c2.738-3.145,4.895-6.763,6.813-10.449   C15.553,47.84,15.506,47.613,15.32,47.504z"
   id="path3214" />
	<path
   fill="#FFFFFF"
   d="M24.141,45.71c-0.057-0.079-0.13-0.126-0.208-0.148c-0.092-0.037-0.2-0.04-0.312,0.013   c-1.527,0.725-3.055,1.447-4.583,2.171c-0.177,0.084-0.25,0.362-0.137,0.521c2.059,2.934,3.604,6.182,4.785,9.557   c0.087,0.249,0.326,0.333,0.56,0.229c1.608-0.725,3.216-1.447,4.823-2.172c0.146-0.065,0.23-0.284,0.175-0.431   C27.979,51.99,26.292,48.705,24.141,45.71z"
   id="path3216" />
	<path
   fill="#FFFFFF"
   d="M38.131,45.71c-0.074-0.109-0.177-0.161-0.281-0.171c-0.074-0.013-0.155-0.004-0.238,0.035   c-1.528,0.725-3.056,1.447-4.585,2.171c-0.177,0.084-0.248,0.362-0.136,0.521c2.017,2.872,3.581,6.023,4.786,9.317   c0.09,0.246,0.323,0.332,0.56,0.226c1.608-0.724,3.217-1.447,4.823-2.169c0.206-0.094,0.212-0.348,0.137-0.521   C41.786,51.84,40.105,48.684,38.131,45.71z"
   id="path3218" />
	<path
   fill="#FFFFFF"
   d="M52.062,45.393c-0.129-0.137-0.287-0.142-0.416-0.076c-0.015,0.006-0.03,0.01-0.045,0.016   c-1.527,0.725-3.056,1.449-4.583,2.172c-0.237,0.112-0.224,0.427-0.077,0.598c2.697,3.156,5.07,6.581,6.937,10.297   c0.098,0.195,0.342,0.22,0.521,0.135c1.688-0.803,3.378-1.607,5.065-2.411c0.188-0.091,0.232-0.354,0.138-0.521   C57.504,51.909,54.977,48.48,52.062,45.393z"
   id="path3220" />
</g>
</svg>