<?xml version="1.0" encoding="UTF-8" standalone="no"?>
<!-- Generator: Adobe Illustrator 16.0.0, SVG Export Plug-In . SVG Version: 6.00 Build 0)  -->

<svg
   xmlns:dc="http://purl.org/dc/elements/1.1/"
   xmlns:cc="http://creativecommons.org/ns#"
   xmlns:rdf="http://www.w3.org/1999/02/22-rdf-syntax-ns#"
   xmlns:svg="http://www.w3.org/2000/svg"
   xmlns="http://www.w3.org/2000/svg"
   xmlns:sodipodi="http://sodipodi.sourceforge.net/DTD/sodipodi-0.dtd"
   xmlns:inkscape="http://www.inkscape.org/namespaces/inkscape"
   version="1.1"
   id="Layer_1"
   x="0px"
   y="0px"
   width="64px"
   height="64px"
   viewBox="0 0 64 64"
   enable-background="new 0 0 64 64"
   xml:space="preserve"
   inkscape:version="0.48.5 r10040"
   sodipodi:docname="1F22F.svg"
   inkscape:export-filename="D:\TESTINGEMOJI\SVGTEST\1F22F.png"
   inkscape:export-xdpi="90"
   inkscape:export-ydpi="90"><metadata
   id="metadata3330"><rdf:RDF><cc:Work
       rdf:about=""><dc:format>image/svg+xml</dc:format><dc:type
         rdf:resource="http://purl.org/dc/dcmitype/StillImage" /><dc:title></dc:title></cc:Work></rdf:RDF></metadata><defs
   id="defs3328" /><sodipodi:namedview
   pagecolor="#ffffff"
   bordercolor="#666666"
   borderopacity="1"
   objecttolerance="10"
   gridtolerance="10"
   guidetolerance="10"
   inkscape:pageopacity="0"
   inkscape:pageshadow="2"
   inkscape:window-width="640"
   inkscape:window-height="480"
   id="namedview3326"
   showgrid="false"
   inkscape:zoom="3.6875"
   inkscape:cx="32"
   inkscape:cy="32"
   inkscape:window-x="958"
   inkscape:window-y="472"
   inkscape:window-maximized="0"
   inkscape:current-layer="Layer_1" />
<g
   id="g3310">
	<g
   id="g3312">
		<path
   fill="#37B34A"
   d="M63.975,57.078c0,3.812-3.083,6.898-6.895,6.898H6.895C3.088,63.977,0,60.891,0,57.078V6.896    C0,3.089,3.088,0,6.895,0H57.08c3.812,0,6.895,3.089,6.895,6.896V57.078z"
   id="path3314" />
	</g>
	<g
   id="g3316">
		<path
   fill="#0F7B40"
   d="M0,48.715v8.363c0,3.812,3.088,6.898,6.895,6.898H57.08c3.812,0,6.895-3.086,6.895-6.898V6.896    C53.052,46.578,13.778,49.094,0,48.715z"
   id="path3318" />
	</g>
</g>
<path
   fill="#FFFFFF"
   d="M27.128,28.619c-0.041-0.184-0.282-0.343-0.467-0.265c-2.331,0.977-4.66,1.954-6.99,2.931  c0-3.861,0-7.723,0-11.583c2.363,0,4.728,0,7.091,0c0.207,0,0.379-0.173,0.379-0.381c0-1.526,0-3.053,0-4.58  c0-0.207-0.172-0.38-0.379-0.38c-2.364,0-4.729,0-7.091,0c0-3.248,0-6.495,0-9.743c0-0.207-0.173-0.379-0.38-0.379  c-1.607,0-3.214,0-4.821,0c-0.207,0-0.38,0.172-0.38,0.379c0,3.248,0,6.496,0,9.743c-2.846,0-5.691,0-8.537,0  c-0.113,0-0.197,0.041-0.258,0.103c-0.003,0.002-0.007,0.006-0.01,0.009s-0.008,0.007-0.009,0.011  c-0.062,0.062-0.103,0.146-0.103,0.258c0,1.527,0,3.053,0,4.58c0,0.208,0.173,0.381,0.381,0.381c2.845,0,5.691,0,8.537,0  c0,4.524,0,9.049,0,13.573c-3.082,1.125-6.207,2.129-9.361,3.032c-0.191,0.056-0.332,0.271-0.266,0.468  c0.562,1.688,1.125,3.375,1.687,5.062c0.062,0.184,0.267,0.339,0.469,0.266c2.49-0.905,4.981-1.812,7.471-2.717  c0,4.318,0,8.636,0,12.954c0,0.718-0.004,1.543-0.354,2.192c-0.081,0.149-0.215,0.296-0.394,0.317  c-0.457,0.056-0.959-0.008-1.418-0.026c-2.037-0.084-4.057-0.403-6.029-0.922c-0.296-0.077-0.521,0.188-0.467,0.469  c0.321,1.688,0.642,3.374,0.964,5.062c0.023,0.121,0.146,0.24,0.266,0.267c1.463,0.307,2.946,0.512,4.437,0.629  c1.48,0.116,3.016,0.21,4.49-0.021c1.047-0.164,2.07-0.618,2.772-1.43c0.648-0.75,0.942-1.756,1.114-2.713  c0.207-1.15,0.202-2.318,0.202-3.483c0-1.208,0-2.417,0-3.626c0-3.966,0-7.931,0-11.896c2.749-1.258,5.498-2.514,8.247-3.771  c0.159-0.072,0.21-0.275,0.175-0.429C27.772,31.512,27.451,30.064,27.128,28.619z"
   id="path3320" />
<path
   fill="#FFFFFF"
   d="M60.366,15.339c-1.607-0.483-3.213-0.964-4.821-1.446c-0.256-0.077-0.457,0.129-0.479,0.367  c-0.138,1.285-0.281,2.575-0.533,3.842c-0.14,0.709-0.342,1.337-0.757,1.936c-0.935,1.347-2.807,1.455-4.292,1.561  c-2.139,0.154-4.287,0.185-6.429,0.21c-1.543,0.02-3.086,0.033-4.629,0.022c-0.625-0.004-1.25-0.025-1.871-0.083  c-0.335-0.031-0.743-0.059-1.044-0.225c-0.646-0.358-0.415-2.04-0.415-2.672c0-0.701,0-1.403,0-2.105  c7.98-1.371,15.88-3.229,23.584-5.736c0.209-0.068,0.385-0.353,0.226-0.559c-1.043-1.365-2.088-2.731-3.132-4.098  c-0.103-0.133-0.255-0.231-0.431-0.174c-6.65,2.157-13.418,3.936-20.247,5.437c0-2.333,0-4.666,0-7c0-0.207-0.172-0.379-0.38-0.379  c-1.606,0-3.213,0-4.82,0c-0.111,0-0.197,0.041-0.257,0.101c-0.004,0.003-0.007,0.006-0.011,0.011  c-0.003,0.003-0.007,0.006-0.01,0.01c-0.061,0.061-0.102,0.146-0.102,0.257c0,5.058,0,10.115,0,15.172  c0,2.308-0.318,5.409,2.208,6.533c0.791,0.35,1.66,0.5,2.511,0.61c1.325,0.172,2.661,0.223,3.998,0.239  c2.94,0.033,5.892-0.032,8.829-0.19c1.925-0.104,3.852-0.262,5.759-0.559c1.209-0.189,2.436-0.435,3.559-0.937  c1.349-0.602,2.271-1.832,2.874-3.141c0.948-2.062,1.244-4.396,1.394-6.639C60.657,15.535,60.521,15.384,60.366,15.339z"
   id="path3322" />
<path
   fill="#FFFFFF"
   d="M57.65,30.391c-0.003-0.005-0.006-0.008-0.009-0.011c-0.005-0.003-0.008-0.007-0.011-0.011  c-0.062-0.06-0.146-0.101-0.258-0.101H30.378c-0.208,0-0.38,0.173-0.38,0.38v2.609v21.66v1.754c0,0.111,0.041,0.198,0.101,0.258  c0.004,0.003,0.008,0.006,0.011,0.011c0.003,0.003,0.007,0.006,0.011,0.009c0.06,0.062,0.146,0.103,0.258,0.103h26.995  c0.207,0,0.38-0.173,0.38-0.38v-1.754v-21.66v-2.609C57.753,30.537,57.713,30.451,57.65,30.391z M35.339,51.954v-5.741h17.075v5.741  H35.339z M35.339,41.106v-5.739h17.075v5.739H35.339z"
   id="path3324" />
</svg>