<?xml version="1.0" encoding="UTF-8" standalone="no"?>
<!-- Generator: Adobe Illustrator 16.0.0, SVG Export Plug-In . SVG Version: 6.00 Build 0)  -->

<svg
   xmlns:dc="http://purl.org/dc/elements/1.1/"
   xmlns:cc="http://creativecommons.org/ns#"
   xmlns:rdf="http://www.w3.org/1999/02/22-rdf-syntax-ns#"
   xmlns:svg="http://www.w3.org/2000/svg"
   xmlns="http://www.w3.org/2000/svg"
   xmlns:sodipodi="http://sodipodi.sourceforge.net/DTD/sodipodi-0.dtd"
   xmlns:inkscape="http://www.inkscape.org/namespaces/inkscape"
   version="1.1"
   id="Layer_1"
   x="0px"
   y="0px"
   width="64px"
   height="64px"
   viewBox="0 0 64 64"
   enable-background="new 0 0 64 64"
   xml:space="preserve"
   inkscape:version="0.48.5 r10040"
   sodipodi:docname="1F235.svg"
   inkscape:export-filename="D:\TESTINGEMOJI\SVGTEST\1F235.png"
   inkscape:export-xdpi="90"
   inkscape:export-ydpi="90"><metadata
   id="metadata3253"><rdf:RDF><cc:Work
       rdf:about=""><dc:format>image/svg+xml</dc:format><dc:type
         rdf:resource="http://purl.org/dc/dcmitype/StillImage" /><dc:title></dc:title></cc:Work></rdf:RDF></metadata><defs
   id="defs3251" /><sodipodi:namedview
   pagecolor="#ffffff"
   bordercolor="#666666"
   borderopacity="1"
   objecttolerance="10"
   gridtolerance="10"
   guidetolerance="10"
   inkscape:pageopacity="0"
   inkscape:pageshadow="2"
   inkscape:window-width="640"
   inkscape:window-height="480"
   id="namedview3249"
   showgrid="false"
   inkscape:zoom="3.6875"
   inkscape:cx="32"
   inkscape:cy="32"
   inkscape:window-x="764"
   inkscape:window-y="403"
   inkscape:window-maximized="0"
   inkscape:current-layer="Layer_1" />
<g
   id="g3229">
	<g
   id="g3231">
		<path
   fill="#EC1C24"
   d="M63.902,57.087c0,3.813-3.084,6.896-6.888,6.896H6.888C3.086,63.982,0,60.9,0,57.087V6.894    C0,3.081,3.086,0,6.888,0h50.126c3.804,0,6.888,3.081,6.888,6.894V57.087z"
   id="path3233" />
	</g>
	<g
   id="g3235">
		<path
   fill="#C32129"
   d="M0.042,48.812l0.023,8.365c0.012,3.812,3.105,6.892,6.908,6.88l50.128-0.148    c3.805-0.011,6.879-3.111,6.867-6.925L63.816,6.794C53.025,46.519,13.806,49.152,0.042,48.812z"
   id="path3237" />
	</g>
</g>
<g
   id="g3239">
	<path
   fill="#FFFFFF"
   d="M18.223,36.19c-1.289-0.912-2.579-1.821-3.867-2.732c-0.151-0.106-0.298-0.071-0.398,0.025   c-0.057,0.042-0.104,0.103-0.129,0.188c-2.099,7.032-4.976,13.808-8.606,20.184c-0.103,0.18-0.033,0.377,0.128,0.492   c1.517,1.062,3.033,2.125,4.549,3.187c0.154,0.108,0.407,0.034,0.492-0.128c3.442-6.609,6.147-13.588,7.995-20.811   C18.429,36.43,18.357,36.286,18.223,36.19z"
   id="path3241" />
	<path
   fill="#FFFFFF"
   d="M4.12,22.919c3.07,1.7,5.856,3.842,8.341,6.319c0.129,0.129,0.384,0.152,0.509,0   c1.061-1.29,2.122-2.582,3.183-3.871c0.115-0.139,0.161-0.375,0-0.509c-2.647-2.174-5.49-4.092-8.487-5.749   c-0.054-0.03-0.107-0.044-0.159-0.047c-0.093-0.01-0.19,0.017-0.276,0.103c-1.062,1.063-2.123,2.126-3.184,3.188   C3.886,22.515,3.916,22.807,4.12,22.919z"
   id="path3243" />
	<path
   fill="#FFFFFF"
   d="M6.394,8.798c3.334,2.076,6.406,4.532,9.252,7.233c0.184,0.173,0.422,0.112,0.564-0.073   c0.985-1.292,1.97-2.582,2.956-3.873c0.095-0.123,0.051-0.335-0.057-0.435C16.348,9.049,13.265,6.814,9.94,4.99   C9.887,4.961,9.834,4.947,9.784,4.944C9.691,4.932,9.592,4.959,9.505,5.046C8.443,6.108,7.382,7.172,6.32,8.235   C6.154,8.402,6.198,8.677,6.394,8.798z"
   id="path3245" />
	<path
   fill="#FFFFFF"
   d="M58.297,18.833c-2.989,0-5.979,0-8.966,0c0-1.659,0-3.316,0-4.974c2.456,0,4.915,0,7.375,0   c0.194,0,0.356-0.165,0.356-0.36c0-1.366,0-2.732,0-4.1c0-0.195-0.162-0.359-0.356-0.359c-2.46,0-4.919,0-7.375,0   c0-1.398,0-2.797,0-4.195c0-0.196-0.164-0.36-0.359-0.36c-1.516,0-3.032,0-4.55,0c-0.195,0-0.357,0.164-0.357,0.36   c0,1.398,0,2.797,0,4.195c-3.4,0-6.8,0-10.198,0c0-1.398,0-2.797,0-4.195c0-0.196-0.165-0.36-0.359-0.36c-1.517,0-3.034,0-4.549,0   c-0.196,0-0.36,0.164-0.36,0.36c0,1.398,0,2.797,0,4.195c-2.458,0-4.916,0-7.374,0c-0.105,0-0.185,0.039-0.244,0.097   c-0.003,0.003-0.006,0.006-0.01,0.009c-0.003,0.003-0.006,0.006-0.01,0.01c-0.057,0.058-0.096,0.138-0.096,0.243   c0,1.367,0,2.733,0,4.1c0,0.196,0.163,0.36,0.359,0.36c2.458,0,4.916,0,7.374,0c0,1.658,0,3.315,0,4.974c-3.064,0-6.128,0-9.193,0   c-0.196,0-0.359,0.163-0.359,0.359c0,1.367,0,2.732,0,4.099c0,0.197,0.164,0.359,0.359,0.359c4.783,0,9.564,0,14.347,0   c0.86,0,1.72,0,2.58,0c0,1.127,0,2.254,0,3.381c-4.61,0-9.217,0-13.825,0c-0.427,0-0.854,0-1.282,0   c-0.196,0-0.359,0.163-0.359,0.359c0,3.91,0,7.818,0,11.729c0,5.479,0,10.959,0,16.439c0,0.555,0,1.11,0,1.666   c0,0.195,0.163,0.358,0.359,0.358c1.516,0,3.033,0,4.549,0c0.196,0,0.359-0.163,0.359-0.358c0-4.24,0-8.483,0-12.725   c0-4.217,0-8.434,0-12.651c3.4,0,6.799,0,10.2,0c0,4.315,0,8.63,0,12.946c-0.898,0-1.797,0-2.694,0c0-3.297,0-6.594,0-9.889   c0-0.197-0.163-0.361-0.36-0.361c-1.44,0-2.878,0-4.319,0c-0.196,0-0.36,0.164-0.36,0.361c0,4.586,0,9.174,0,13.762   c0,0.118,0,0.238,0,0.357c0,0.196,0.164,0.359,0.36,0.359c4.675,0,9.35,0,14.023,0c1.921,0,3.842,0,5.763,0   c0.197,0,0.359-0.163,0.359-0.359c0-4.587,0-9.174,0-13.764c0-0.118,0-0.236,0-0.355c0-0.197-0.162-0.361-0.359-0.361   c-1.438,0-2.882,0-4.322,0c-0.195,0-0.357,0.164-0.357,0.361c0,3.295,0,6.592,0,9.889c-0.898,0-1.796,0-2.693,0   c0-4.316,0-8.631,0-12.946c3.475,0,6.951,0,10.426,0c0,4.604,0,9.207,0,13.811c0,1.58,0,3.161,0,4.741c0,0.124,0,0.248-0.002,0.373   c-0.006,0.417-0.069,0.844-0.29,1.202c-0.198,0.321-0.573,0.334-0.909,0.334c-1.982-0.008-3.967-0.117-5.944-0.228   c-0.236-0.013-0.407,0.238-0.347,0.456c0.379,1.365,0.758,2.731,1.137,4.1c0.03,0.108,0.13,0.231,0.251,0.25   c1.375,0.207,2.757,0.372,4.146,0.439c1.241,0.06,2.493,0.048,3.691-0.328c0.978-0.302,1.89-0.897,2.494-1.73   c0.659-0.907,0.93-1.991,1.018-3.096c0.118-1.492,0.021-3.025,0.021-4.524c0-5.78,0-11.562,0-17.344c0-0.971,0-1.943,0-2.915   c0-0.196-0.162-0.359-0.356-0.359c-4.753,0-9.504,0-14.255,0c-0.359,0-0.721,0-1.08,0c0-1.127,0-2.254,0-3.381   c4.662,0,9.323,0,13.987,0c0.979,0,1.957,0,2.938,0c0.194,0,0.358-0.163,0.358-0.359c0-1.367,0-2.732,0-4.099   C58.655,18.996,58.491,18.833,58.297,18.833z M33.866,13.859c3.398,0,6.798,0,10.198,0c0,1.658,0,3.315,0,4.974   c-3.4,0-6.8,0-10.198,0C33.866,17.174,33.866,15.517,33.866,13.859z"
   id="path3247" />
</g>
</svg>