<?xml version="1.0" encoding="UTF-8" standalone="no"?>
<!-- Generator: Adobe Illustrator 16.0.0, SVG Export Plug-In . SVG Version: 6.00 Build 0)  -->

<svg
   xmlns:dc="http://purl.org/dc/elements/1.1/"
   xmlns:cc="http://creativecommons.org/ns#"
   xmlns:rdf="http://www.w3.org/1999/02/22-rdf-syntax-ns#"
   xmlns:svg="http://www.w3.org/2000/svg"
   xmlns="http://www.w3.org/2000/svg"
   xmlns:sodipodi="http://sodipodi.sourceforge.net/DTD/sodipodi-0.dtd"
   xmlns:inkscape="http://www.inkscape.org/namespaces/inkscape"
   version="1.1"
   id="Layer_1"
   x="0px"
   y="0px"
   width="64px"
   height="64px"
   viewBox="0 0 64 64"
   enable-background="new 0 0 64 64"
   xml:space="preserve"
   inkscape:version="0.48.5 r10040"
   sodipodi:docname="1F236.svg"
   inkscape:export-filename="D:\TESTINGEMOJI\SVGTEST\1F236.png"
   inkscape:export-xdpi="90"
   inkscape:export-ydpi="90"><metadata
   id="metadata3132"><rdf:RDF><cc:Work
       rdf:about=""><dc:format>image/svg+xml</dc:format><dc:type
         rdf:resource="http://purl.org/dc/dcmitype/StillImage" /><dc:title></dc:title></cc:Work></rdf:RDF></metadata><defs
   id="defs3130" /><sodipodi:namedview
   pagecolor="#ffffff"
   bordercolor="#666666"
   borderopacity="1"
   objecttolerance="10"
   gridtolerance="10"
   guidetolerance="10"
   inkscape:pageopacity="0"
   inkscape:pageshadow="2"
   inkscape:window-width="640"
   inkscape:window-height="480"
   id="namedview3128"
   showgrid="false"
   inkscape:zoom="3.6875"
   inkscape:cx="32"
   inkscape:cy="32"
   inkscape:window-x="661"
   inkscape:window-y="361"
   inkscape:window-maximized="0"
   inkscape:current-layer="Layer_1" />
<g
   id="g3118">
	<path
   fill="#F6921E"
   d="M63.986,57.087c0,3.813-3.086,6.895-6.894,6.895H6.899C3.09,63.981,0,60.9,0,57.087V6.894   C0,3.082,3.09,0,6.899,0h50.194c3.808,0,6.894,3.082,6.894,6.894V57.087z"
   id="path3120" />
</g>
<g
   id="g3122">
	<path
   fill="#D07929"
   d="M0,48.714v8.365c0,3.813,3.089,6.903,6.895,6.903h50.198c3.808,0,6.894-3.09,6.894-6.903V6.892   C53.063,46.581,13.782,49.097,0,48.714z"
   id="path3124" />
</g>
<path
   fill="#FFFFFF"
   d="M58.054,10.095c-4.245,0-8.488,0-12.735,0c-4.983,0-9.968,0-14.951,0c0.696-1.705,1.339-3.431,1.924-5.178  c0.062-0.183-0.068-0.416-0.26-0.456c-1.491-0.313-2.979-0.628-4.47-0.941c-0.147-0.032-0.352,0.014-0.42,0.171  c-0.929,2.162-1.92,4.297-2.967,6.404c-4.872,0-9.744,0-14.616,0c-1.013,0-2.027,0-3.04,0c-0.109,0-0.191,0.039-0.251,0.099  c-0.004,0.003-0.006,0.006-0.011,0.011c-0.003,0.003-0.006,0.006-0.009,0.009c-0.06,0.059-0.101,0.144-0.101,0.252  c0,1.49,0,2.981,0,4.47c0,0.204,0.17,0.374,0.372,0.374c4.853,0,9.705,0,14.557,0c0.104,0,0.207,0,0.31,0  c-4.267,6.871-9.825,12.836-16.07,17.956c-0.152,0.125-0.138,0.396,0,0.524c1.177,1.099,2.354,2.197,3.53,3.295  c0.161,0.15,0.362,0.13,0.525,0c2.77-2.192,5.382-4.57,7.838-7.107c0,3.839,0,7.678,0,11.52c0,5.366,0,10.733,0,16.099  c0,0.292,0,0.584,0,0.874c0,0.205,0.169,0.372,0.371,0.372c1.57,0,3.137,0,4.706,0c0.204,0,0.374-0.167,0.374-0.372  c0-4.033,0-8.065,0-12.1c4.267,0,8.536,0,12.805,0c4.269,0,8.538,0,12.807,0c0,0.814,0,1.631,0,2.443  c0,0.996,0.158,2.206-0.153,3.166c-0.261,0.794-1.051,0.945-1.786,0.942c-0.794-0.003-1.59-0.028-2.384-0.059  c-2.283-0.089-4.562-0.244-6.837-0.412c-0.248-0.019-0.412,0.25-0.357,0.471c0.393,1.568,0.784,3.139,1.176,4.708  c0.043,0.17,0.195,0.256,0.358,0.271c2.769,0.262,5.55,0.461,8.333,0.47c2.309,0.011,4.683-0.521,6.086-2.504  c1.184-1.674,1.015-3.808,1.015-5.757c0-5.767,0-11.534,0-17.301c0-3.605,0-7.208,0-10.811c0-0.205-0.17-0.372-0.372-0.372  c-4.076,0-8.151,0-12.226,0c-5.572,0-11.145,0-16.716,0c-0.231,0-0.462,0-0.693,0c1.45-2.025,2.785-4.127,3.968-6.316  c3.978,0,7.955,0,11.932,0c5.617,0,11.237,0,16.854,0c0.529,0,1.058,0,1.585,0c0.203,0,0.373-0.169,0.373-0.374  c0-1.489,0-2.979,0-4.47C58.427,10.265,58.257,10.095,58.054,10.095z M22.659,36.724c4.267,0,8.536,0,12.805,0  c4.269,0,8.538,0,12.807,0c0,1.556,0,3.112,0,4.67c-4.269,0-8.538,0-12.807,0c-4.269,0-8.538,0-12.805,0  C22.659,39.836,22.659,38.279,22.659,36.724z M48.271,31.744c-4.269,0-8.538,0-12.807,0c-4.269,0-8.538,0-12.805,0  c0-1.635,0-3.269,0-4.904c4.267,0,8.536,0,12.805,0c4.269,0,8.538,0,12.807,0C48.271,28.475,48.271,30.109,48.271,31.744z"
   id="path3126" />
</svg>