<?xml version="1.0" encoding="UTF-8" standalone="no"?>
<!-- Generator: Adobe Illustrator 16.0.0, SVG Export Plug-In . SVG Version: 6.00 Build 0)  -->

<svg
   xmlns:dc="http://purl.org/dc/elements/1.1/"
   xmlns:cc="http://creativecommons.org/ns#"
   xmlns:rdf="http://www.w3.org/1999/02/22-rdf-syntax-ns#"
   xmlns:svg="http://www.w3.org/2000/svg"
   xmlns="http://www.w3.org/2000/svg"
   xmlns:sodipodi="http://sodipodi.sourceforge.net/DTD/sodipodi-0.dtd"
   xmlns:inkscape="http://www.inkscape.org/namespaces/inkscape"
   version="1.1"
   id="Layer_1"
   x="0px"
   y="0px"
   width="64px"
   height="64px"
   viewBox="0 0 64 64"
   enable-background="new 0 0 64 64"
   xml:space="preserve"
   inkscape:version="0.48.5 r10040"
   sodipodi:docname="1F237.svg"
   inkscape:export-filename="D:\TESTINGEMOJI\SVGTEST\1F237.png"
   inkscape:export-xdpi="90"
   inkscape:export-ydpi="90"><metadata
   id="metadata3115"><rdf:RDF><cc:Work
       rdf:about=""><dc:format>image/svg+xml</dc:format><dc:type
         rdf:resource="http://purl.org/dc/dcmitype/StillImage" /><dc:title></dc:title></cc:Work></rdf:RDF></metadata><defs
   id="defs3113" /><sodipodi:namedview
   pagecolor="#ffffff"
   bordercolor="#666666"
   borderopacity="1"
   objecttolerance="10"
   gridtolerance="10"
   guidetolerance="10"
   inkscape:pageopacity="0"
   inkscape:pageshadow="2"
   inkscape:window-width="640"
   inkscape:window-height="480"
   id="namedview3111"
   showgrid="false"
   inkscape:zoom="3.6875"
   inkscape:cx="32"
   inkscape:cy="32"
   inkscape:window-x="690"
   inkscape:window-y="352"
   inkscape:window-maximized="0"
   inkscape:current-layer="Layer_1" />
<g
   id="g3099">
	<g
   id="g3101">
		<path
   fill="#F6921E"
   d="M63.964,57.071c0,3.811-3.085,6.891-6.89,6.891H6.894C3.09,63.962,0,60.882,0,57.071V6.893    C0,3.082,3.09,0,6.894,0h50.18c3.805,0,6.89,3.082,6.89,6.893V57.071z"
   id="path3103" />
	</g>
	<g
   id="g3105">
		<path
   fill="#D07929"
   d="M0,48.633v8.362c0,3.812,3.086,6.9,6.89,6.9h50.182c3.807,0,6.892-3.089,6.892-6.9V6.822    C53.044,46.5,13.777,49.016,0,48.633z"
   id="path3107" />
	</g>
</g>
<path
   fill="#FFFFFF"
   d="M51.641,35.552c0-6.263,0-12.524,0-18.787c0-3.777,0-7.558,0-11.335c0-0.091,0-0.183,0-0.275  c0-0.107-0.039-0.188-0.097-0.247c-0.003-0.003-0.006-0.006-0.011-0.009c-0.002-0.004-0.007-0.007-0.01-0.01  c-0.059-0.058-0.139-0.097-0.245-0.097c-3.464,0-6.928,0-10.392,0c-6.169,0-12.339,0-18.508,0c-2.643,0-5.287,0-7.93,0  c-0.199,0-0.363,0.165-0.363,0.363c0,4.592,0,9.185,0,13.777c0,6.046,0.294,12.2-0.92,18.154  c-1.269,6.217-4.331,11.881-7.778,17.145c-0.108,0.165-0.034,0.402,0.131,0.498c1.458,0.844,2.916,1.688,4.373,2.531  c0.185,0.106,0.382,0.03,0.498-0.131c3.924-5.454,6.642-11.664,8.036-18.233c3.983,0,7.966,0,11.95,0c5.192,0,10.383,0,15.575,0  c0.12,0,0.241,0,0.362,0c0,2.22,0,4.439,0,6.661c0,1.064,0,2.129,0,3.194c0,0.693-0.037,1.384-0.261,2.044  c-0.324,0.961-1.08,0.963-1.955,0.947c-2.757-0.05-5.508-0.345-8.241-0.684c-0.242-0.03-0.4,0.254-0.35,0.459  c0.383,1.534,0.768,3.069,1.15,4.604c0.044,0.172,0.189,0.245,0.351,0.267c2.649,0.344,5.313,0.624,7.986,0.684  c2.204,0.048,4.366-0.362,5.629-2.349c1.061-1.672,1.02-3.709,1.02-5.617C51.641,44.587,51.641,40.069,51.641,35.552z   M46.312,19.292c-4.032,0-8.064,0-12.095,0c-4.935,0-9.869,0-14.801,0c0-3.134,0-6.268,0-9.402c4.031,0,8.062,0,12.094,0  c4.934,0,9.868,0,14.802,0C46.312,13.024,46.312,16.158,46.312,19.292z M19.416,24.393c4.031,0,8.062,0,12.093,0  c4.934,0,9.868,0,14.802,0c0,3.133,0,6.268,0,9.401c-4.007,0-8.013,0-12.02,0c-5.011,0-10.023,0-15.034,0c-0.015,0-0.03,0-0.045,0  C19.448,30.665,19.417,27.529,19.416,24.393z"
   id="path3109" />
</svg>