<?xml version="1.0" encoding="UTF-8" standalone="no"?>
<!-- Generator: Adobe Illustrator 16.0.0, SVG Export Plug-In . SVG Version: 6.00 Build 0)  -->

<svg
   xmlns:dc="http://purl.org/dc/elements/1.1/"
   xmlns:cc="http://creativecommons.org/ns#"
   xmlns:rdf="http://www.w3.org/1999/02/22-rdf-syntax-ns#"
   xmlns:svg="http://www.w3.org/2000/svg"
   xmlns="http://www.w3.org/2000/svg"
   xmlns:sodipodi="http://sodipodi.sourceforge.net/DTD/sodipodi-0.dtd"
   xmlns:inkscape="http://www.inkscape.org/namespaces/inkscape"
   version="1.1"
   id="Layer_1"
   x="0px"
   y="0px"
   width="64px"
   height="64px"
   viewBox="0 0 64 64"
   enable-background="new 0 0 64 64"
   xml:space="preserve"
   inkscape:version="0.48.5 r10040"
   sodipodi:docname="1F239.svg"
   inkscape:export-filename="D:\TESTINGEMOJI\SVGTEST\1F239.png"
   inkscape:export-xdpi="90"
   inkscape:export-ydpi="90"><metadata
   id="metadata3077"><rdf:RDF><cc:Work
       rdf:about=""><dc:format>image/svg+xml</dc:format><dc:type
         rdf:resource="http://purl.org/dc/dcmitype/StillImage" /><dc:title></dc:title></cc:Work></rdf:RDF></metadata><defs
   id="defs3075" /><sodipodi:namedview
   pagecolor="#ffffff"
   bordercolor="#666666"
   borderopacity="1"
   objecttolerance="10"
   gridtolerance="10"
   guidetolerance="10"
   inkscape:pageopacity="0"
   inkscape:pageshadow="2"
   inkscape:window-width="640"
   inkscape:window-height="480"
   id="namedview3073"
   showgrid="false"
   inkscape:zoom="3.6875"
   inkscape:cx="32"
   inkscape:cy="32"
   inkscape:window-x="838"
   inkscape:window-y="311"
   inkscape:window-maximized="0"
   inkscape:current-layer="Layer_1" />
<g
   id="g3049">
	<g
   id="g3051">
		<path
   fill="#EC297B"
   d="M64.008,57.109c0,3.814-3.084,6.902-6.896,6.902H6.898C3.089,64.012,0,60.924,0,57.109V6.899    C0,3.091,3.089,0,6.898,0h50.213c3.812,0,6.896,3.091,6.896,6.899V57.109z"
   id="path3053" />
	</g>
	<g
   id="g3055">
		<path
   fill="#D12775"
   d="M0,48.741v8.368c0,3.814,3.089,6.902,6.898,6.902h50.213c3.812,0,6.896-3.088,6.896-6.902V6.899    C53.08,46.604,13.785,49.12,0,48.741z"
   id="path3057" />
	</g>
</g>
<g
   id="g3059">
	<path
   fill="#FFFFFF"
   d="M24.74,8.639c4.595,0,9.189,0,13.783,0c0.108,0,0.191,0.039,0.251,0.099   c0.004,0.003,0.006,0.006,0.011,0.01c0.002,0.004,0.006,0.007,0.01,0.011c0.06,0.058,0.099,0.141,0.099,0.251   c0,2.657,0,5.316,0,7.975c0,0.201-0.169,0.371-0.37,0.371c-1.485,0-2.971,0-4.457,0c-0.202,0-0.37-0.17-0.37-0.371   c0-1.128,0-2.255,0-3.384c-3.38,0-6.758,0-10.138,0c-4.428,0-8.856,0-13.284,0c0,1.128,0,2.255,0,3.384   c0,0.201-0.168,0.371-0.371,0.371c-1.484,0-2.97,0-4.456,0c-0.203,0-0.37-0.17-0.37-0.371c0-2.659,0-5.318,0-7.975   c0-0.202,0.167-0.371,0.37-0.371c0.036,0,0.072,0,0.108,0c4.411,0,8.821,0,13.232,0H24.74z"
   id="path3061" />
	<g
   id="g3063">
		<path
   fill="#FFFFFF"
   d="M38.758,33.27H24.818v-2.778h11.358c0.203,0,0.371-0.168,0.371-0.371v-4.223    c0-0.201-0.168-0.37-0.371-0.37H24.818v-2.544h8.778c0.202,0,0.371-0.168,0.371-0.37v-4.222c0-0.202-0.169-0.371-0.371-0.371    h-8.778v-2.444c0-0.201-0.168-0.371-0.37-0.371h-4.457c-0.202,0-0.371,0.169-0.371,0.371v2.444h-9.482    c-0.202,0-0.37,0.169-0.37,0.371v4.222c0,0.202,0.168,0.37,0.37,0.37h9.482v2.544H8.497c-0.109,0-0.193,0.04-0.251,0.1    c-0.003,0.003-0.006,0.007-0.01,0.009c-0.003,0.005-0.005,0.008-0.01,0.01c-0.06,0.06-0.099,0.143-0.099,0.251v4.223    c0,0.202,0.168,0.371,0.37,0.371h11.124v2.778H5.214c-0.203,0-0.371,0.169-0.371,0.37v4.223c0,0.201,0.168,0.37,0.371,0.37h14.407    v2.777H8.262c-0.201,0-0.369,0.169-0.369,0.371v0.709v14.038v0.505c0,0.202,0.168,0.369,0.369,0.369h27.915    c0.203,0,0.371-0.167,0.371-0.369v-0.505V42.09v-0.709c0-0.202-0.168-0.371-0.371-0.371H24.818v-2.777h13.939    c0.201,0,0.37-0.169,0.37-0.37V33.64C39.128,33.438,38.959,33.27,38.758,33.27z M13.09,52.035v-6.057h18.26v6.057H13.09z"
   id="path3065" />
		<path
   fill="#FFFFFF"
   d="M46.165,45.604c0-3.777,0-7.555,0-11.333c0-6.081,0-12.162,0-18.244c0-1.479,0-2.957,0-4.437    c0-0.202-0.168-0.371-0.37-0.371c-1.562,0-3.128,0-4.69,0c-0.109,0-0.193,0.04-0.251,0.099c-0.005,0.003-0.007,0.006-0.012,0.009    c-0.002,0.004-0.006,0.007-0.009,0.011c-0.06,0.06-0.1,0.143-0.1,0.251c0,3.778,0,7.555,0,11.333c0,6.081,0,12.163,0,18.243    c0,1.48,0,2.96,0,4.438c0,0.201,0.169,0.37,0.371,0.37c1.562,0,3.128,0,4.69,0C45.997,45.974,46.165,45.805,46.165,45.604z"
   id="path3067" />
		<path
   fill="#FFFFFF"
   d="M56.487,51.609c0-4.692,0-9.385,0-14.077c0-6.398,0-12.797,0-19.197c0-4.089,0-8.179,0-12.269    c0-0.192,0-0.385,0-0.577c0-0.202-0.168-0.37-0.371-0.37c-1.564,0-3.127,0-4.691,0c-0.107,0-0.19,0.041-0.251,0.099    c-0.003,0.003-0.007,0.007-0.011,0.01c-0.003,0.004-0.005,0.006-0.008,0.011c-0.061,0.06-0.102,0.142-0.102,0.25    c0,3.024,0,6.047,0,9.07c0,6.255,0,12.51,0,18.765c0,5.262,0,10.523,0,15.785c0,0.915,0,1.831,0,2.747    c0,0.852-0.027,2.432-1.175,2.522c-1.291,0.103-2.676-0.091-3.952-0.265c-1.438-0.197-2.856-0.51-4.255-0.893    c-0.287-0.08-0.509,0.184-0.456,0.455c0.313,1.563,0.625,3.129,0.939,4.691c0.022,0.121,0.14,0.229,0.257,0.258    c2.881,0.711,5.965,1.104,8.935,0.923c1.096-0.065,2.222-0.297,3.157-0.896c0.775-0.498,1.24-1.266,1.537-2.119    C56.584,54.971,56.487,53.248,56.487,51.609z"
   id="path3069" />
	</g>
</g>
<path
   fill="#FFFFFF"
   d="M25.167,9.568V4.998c0-0.208-0.173-0.381-0.38-0.381h-4.823c-0.208,0-0.381,0.173-0.381,0.381v4.571H25.167z  "
   id="path3071" />
</svg>