<?xml version="1.0" encoding="UTF-8" standalone="no"?>
<!-- Generator: Adobe Illustrator 16.0.0, SVG Export Plug-In . SVG Version: 6.00 Build 0)  -->

<svg
   xmlns:dc="http://purl.org/dc/elements/1.1/"
   xmlns:cc="http://creativecommons.org/ns#"
   xmlns:rdf="http://www.w3.org/1999/02/22-rdf-syntax-ns#"
   xmlns:svg="http://www.w3.org/2000/svg"
   xmlns="http://www.w3.org/2000/svg"
   xmlns:sodipodi="http://sodipodi.sourceforge.net/DTD/sodipodi-0.dtd"
   xmlns:inkscape="http://www.inkscape.org/namespaces/inkscape"
   version="1.1"
   id="Layer_1"
   x="0px"
   y="0px"
   width="64px"
   height="64px"
   viewBox="0 0 64 64"
   enable-background="new 0 0 64 64"
   xml:space="preserve"
   inkscape:version="0.48.5 r10040"
   sodipodi:docname="1F233.svg"
   inkscape:export-filename="D:\TESTINGEMOJI\SVGTEST\1F233.png"
   inkscape:export-xdpi="90"
   inkscape:export-ydpi="90"><metadata
   id="metadata3353"><rdf:RDF><cc:Work
       rdf:about=""><dc:format>image/svg+xml</dc:format><dc:type
         rdf:resource="http://purl.org/dc/dcmitype/StillImage" /><dc:title></dc:title></cc:Work></rdf:RDF></metadata><defs
   id="defs3351" /><sodipodi:namedview
   pagecolor="#ffffff"
   bordercolor="#666666"
   borderopacity="1"
   objecttolerance="10"
   gridtolerance="10"
   guidetolerance="10"
   inkscape:pageopacity="0"
   inkscape:pageshadow="2"
   inkscape:window-width="640"
   inkscape:window-height="480"
   id="namedview3349"
   showgrid="false"
   inkscape:zoom="3.6875"
   inkscape:cx="32"
   inkscape:cy="32"
   inkscape:window-x="896"
   inkscape:window-y="372"
   inkscape:window-maximized="0"
   inkscape:current-layer="Layer_1" />
<g
   id="g3333">
	<g
   id="g3335">
		<path
   fill="#724198"
   d="M64.037,57.057c0,3.814-3.086,6.905-6.898,6.905H6.898C3.09,63.962,0,60.871,0,57.057V6.821    c0-3.81,3.09-6.903,6.898-6.903h50.24c3.813,0,6.898,3.093,6.898,6.903V57.057z"
   id="path3337" />
	</g>
	<g
   id="g3339">
		<path
   fill="#58327D"
   d="M0,48.684v8.373c0,3.814,3.09,6.905,6.898,6.905h50.24c3.813,0,6.898-3.091,6.898-6.905V6.821    C53.104,46.544,13.79,49.062,0,48.684z"
   id="path3341" />
	</g>
	<g
   id="g3343">
		<path
   fill="#FFFFFF"
   d="M54.9,51.739c-4.252,0-8.504,0-12.752,0c-2.732,0-5.461,0-8.191,0c0-3.785,0-7.571,0-11.358    c4.344,0,8.689,0,13.037,0c1.561,0,3.121,0,4.68,0c0.188,0,0.342-0.154,0.342-0.34c0-1.432,0-2.864,0-4.299    c0-0.185-0.154-0.339-0.342-0.339c-2.893,0-5.783,0-8.674,0c-5.785,0-11.57,0-17.356,0c-4.343,0-8.688,0-13.03,0    c-0.379,0-0.757,0-1.137,0c-0.099,0-0.174,0.036-0.229,0.092c-0.004,0.003-0.008,0.006-0.01,0.009    c-0.003,0.003-0.008,0.006-0.009,0.009c-0.056,0.054-0.092,0.131-0.092,0.229c0,1.435,0,2.867,0,4.299    c0,0.186,0.155,0.34,0.339,0.34c4.477,0,8.953,0,13.431,0c1.357,0,2.716,0,4.071,0c0,3.787,0,7.573,0,11.358    c-4.168,0-8.338,0-12.506,0c-2.668,0-5.338,0-8.006,0c-0.186,0-0.338,0.154-0.338,0.341c0,1.362,0,2.723,0,4.084    c0,0.185,0.152,0.34,0.338,0.34c2.59,0,5.182,0,7.771,0c5.6,0,11.201,0,16.803,0c5.355,0,10.713,0,16.068,0    c1.93,0,3.861,0,5.791,0c0.186,0,0.338-0.155,0.338-0.34c0-1.361,0-2.722,0-4.084C55.238,51.894,55.086,51.739,54.9,51.739z"
   id="path3345" />
		<path
   fill="#FFFFFF"
   d="M55.887,10.511c-4.289,0-8.576,0-12.865,0c-2.51,0-5.016,0-7.523,0h-1.941V4.59    c0-0.186-0.154-0.34-0.338-0.34h-4.302c-0.185,0-0.341,0.154-0.341,0.34v5.921c-3.578,0-7.157,0-10.735,0    c-2.938,0-5.878,0-8.815,0c-0.185,0-0.339,0.153-0.339,0.339c0,3.295,0,6.591,0,9.887c0,0.186,0.154,0.34,0.339,0.34    c1.433,0,2.867,0,4.3,0c0.185,0,0.339-0.154,0.339-0.34c0-1.893,0-3.787,0-5.678c2.885,0,5.77,0,8.656,0c0.688,0,1.376,0,2.063,0    c-0.26,1.428-0.531,2.861-0.998,4.23c-0.92,2.697-2.566,5.4-5.15,6.698c-3.037,1.526-5.975,2.591-9.316,2.66    c-0.143,0.003-0.279,0.165-0.226,0.303c0.528,1.403,0.438,1.371,1.015,2.596c0.045,0.097,0.125,0.165,0.24,0.156    c5.289-0.4,10.999-1.806,14.615-5.979c1.563-1.802,2.563-4.012,3.092-6.327c0.328-1.433,0.574-2.889,0.844-4.337    c1.785,0,3.571,0,5.355,0v11.244c0,1.748-0.242,4.096,1.672,4.946c0.6,0.264,1.256,0.376,1.9,0.46    c1.004,0.132,1.473,0.171,2.484,0.182c2.227,0.024,1.686-0.024,3.908-0.144c1.459-0.078,2.918-0.198,4.361-0.424    c0.918-0.143,1.844-0.327,2.697-0.708c1.02-0.456,1.793-1.354,2.174-2.379c0.646-1.744,0.713-3.46,0.713-3.682    c0-0.222-0.17-0.273-0.285-0.309c-1.217-0.365-2.342-0.729-3.559-1.094c-0.195-0.06-0.439,0.097-0.457,0.277    c-0.104,0.974,0.018,1.373-0.328,2.29c-0.355,0.94-0.799,1.716-3.48,1.955c-1.615,0.146-1.826,0.14-3.447,0.159    c-1.17,0.015-0.982,0.024-2.15,0.017c-0.473-0.003-1.436-0.106-1.662-0.232c-0.49-0.272-0.314-1.544-0.314-2.024V15.059    c0.555,0,1.109,0,1.664,0c3.834,0,7.67,0,11.504,0c0,1.892,0,3.785,0,5.678c0,0.186,0.154,0.34,0.34,0.34c1.434,0,2.867,0,4.299,0    c0.186,0,0.342-0.154,0.342-0.34c0-3.296,0-6.592,0-9.887C56.229,10.664,56.072,10.511,55.887,10.511z"
   id="path3347" />
	</g>
</g>
</svg>