<?xml version="1.0" encoding="UTF-8" standalone="no"?>
<!-- Generator: Adobe Illustrator 16.0.0, SVG Export Plug-In . SVG Version: 6.00 Build 0)  -->

<svg
   xmlns:dc="http://purl.org/dc/elements/1.1/"
   xmlns:cc="http://creativecommons.org/ns#"
   xmlns:rdf="http://www.w3.org/1999/02/22-rdf-syntax-ns#"
   xmlns:svg="http://www.w3.org/2000/svg"
   xmlns="http://www.w3.org/2000/svg"
   xmlns:sodipodi="http://sodipodi.sourceforge.net/DTD/sodipodi-0.dtd"
   xmlns:inkscape="http://www.inkscape.org/namespaces/inkscape"
   version="1.1"
   id="Layer_1"
   x="0px"
   y="0px"
   width="64px"
   height="64px"
   viewBox="0 0 64 64"
   enable-background="new 0 0 64 64"
   xml:space="preserve"
   inkscape:version="0.48.5 r10040"
   sodipodi:docname="1F238.svg"
   inkscape:export-filename="D:\TESTINGEMOJI\SVGTEST\1F238.png"
   inkscape:export-xdpi="90"
   inkscape:export-ydpi="90"><metadata
   id="metadata3096"><rdf:RDF><cc:Work
       rdf:about=""><dc:format>image/svg+xml</dc:format><dc:type
         rdf:resource="http://purl.org/dc/dcmitype/StillImage" /><dc:title></dc:title></cc:Work></rdf:RDF></metadata><defs
   id="defs3094" /><sodipodi:namedview
   pagecolor="#ffffff"
   bordercolor="#666666"
   borderopacity="1"
   objecttolerance="10"
   gridtolerance="10"
   guidetolerance="10"
   inkscape:pageopacity="0"
   inkscape:pageshadow="2"
   inkscape:window-width="640"
   inkscape:window-height="480"
   id="namedview3092"
   showgrid="false"
   inkscape:zoom="3.6875"
   inkscape:cx="32"
   inkscape:cy="32"
   inkscape:window-x="624"
   inkscape:window-y="335"
   inkscape:window-maximized="0"
   inkscape:current-layer="Layer_1" />
<g
   id="g3080">
	<g
   id="g3082">
		<path
   fill="#F6921E"
   d="M63.974,57.076c0,3.812-3.09,6.893-6.894,6.893H6.892C3.088,63.969,0,60.889,0,57.076V6.893    C0,3.082,3.088,0,6.892,0H57.08c3.804,0,6.894,3.082,6.894,6.893V57.076z"
   id="path3084" />
	</g>
	<g
   id="g3086">
		<path
   fill="#D07929"
   d="M0,48.638v8.363c0,3.812,3.085,6.901,6.892,6.901h50.184c3.812,0,6.897-3.089,6.897-6.901V6.823    C53.048,46.505,13.778,49.021,0,48.638z"
   id="path3088" />
	</g>
</g>
<path
   fill="#FFFFFF"
   d="M54.104,12.334c0-0.106-0.039-0.188-0.098-0.246c-0.002-0.003-0.006-0.006-0.01-0.01  c-0.003-0.003-0.006-0.006-0.009-0.01c-0.059-0.058-0.14-0.097-0.248-0.097H34.307V4.508c0-0.197-0.165-0.363-0.362-0.363h-4.605  c-0.198,0-0.363,0.166-0.363,0.363v7.464H10.232c-0.198,0-0.363,0.166-0.363,0.363v1.458l0,0v29.164  c0,0.198,0.165,0.364,0.363,0.364h18.743v7.463l0,0v6.671c0,0.198,0.165,0.363,0.363,0.363h4.605c0.197,0,0.362-0.165,0.362-0.363  V43.32h19.433c0.108,0,0.189-0.039,0.248-0.099c0.003-0.002,0.006-0.005,0.009-0.009c0.004-0.003,0.007-0.007,0.01-0.01  c0.059-0.058,0.098-0.14,0.098-0.247v-1.308l0,0V12.334z M34.307,37.984v-7.786h14.467v7.786H34.307z M34.307,25.094v-7.787h14.467  v7.787H34.307z M15.199,37.984v-7.786h13.776v7.786H15.199z M15.199,25.094v-7.787h13.776v7.787H15.199z"
   id="path3090" />
</svg>