<?xml version="1.0" encoding="UTF-8" standalone="no"?>
<!-- Generator: Adobe Illustrator 16.0.0, SVG Export Plug-In . SVG Version: 6.00 Build 0)  -->

<svg
   xmlns:dc="http://purl.org/dc/elements/1.1/"
   xmlns:cc="http://creativecommons.org/ns#"
   xmlns:rdf="http://www.w3.org/1999/02/22-rdf-syntax-ns#"
   xmlns:svg="http://www.w3.org/2000/svg"
   xmlns="http://www.w3.org/2000/svg"
   xmlns:sodipodi="http://sodipodi.sourceforge.net/DTD/sodipodi-0.dtd"
   xmlns:inkscape="http://www.inkscape.org/namespaces/inkscape"
   version="1.1"
   id="Layer_1"
   x="0px"
   y="0px"
   width="64px"
   height="64px"
   viewBox="0 0 64 64"
   enable-background="new 0 0 64 64"
   xml:space="preserve"
   inkscape:version="0.48.5 r10040"
   sodipodi:docname="1F234.svg"
   inkscape:export-filename="D:\TESTINGEMOJI\SVGTEST\1F234.png"
   inkscape:export-xdpi="90"
   inkscape:export-ydpi="90"><metadata
   id="metadata3155"><rdf:RDF><cc:Work
       rdf:about=""><dc:format>image/svg+xml</dc:format><dc:type
         rdf:resource="http://purl.org/dc/dcmitype/StillImage" /><dc:title></dc:title></cc:Work></rdf:RDF></metadata><defs
   id="defs3153" /><sodipodi:namedview
   pagecolor="#ffffff"
   bordercolor="#666666"
   borderopacity="1"
   objecttolerance="10"
   gridtolerance="10"
   guidetolerance="10"
   inkscape:pageopacity="0"
   inkscape:pageshadow="2"
   inkscape:window-width="640"
   inkscape:window-height="480"
   id="namedview3151"
   showgrid="false"
   inkscape:zoom="3.6875"
   inkscape:cx="32"
   inkscape:cy="32"
   inkscape:window-x="659"
   inkscape:window-y="348"
   inkscape:window-maximized="0"
   inkscape:current-layer="Layer_1" />
<g
   id="g3135">
	<g
   id="g3137">
		<path
   fill="#EC1C24"
   d="M63.969,57.072c0,3.812-3.088,6.893-6.894,6.893H6.895C3.089,63.965,0,60.885,0,57.072V6.893    C0,3.081,3.089,0,6.895,0h50.18c3.806,0,6.894,3.081,6.894,6.893V57.072z"
   id="path3139" />
	</g>
	<g
   id="g3141">
		<path
   fill="#C32129"
   d="M0.042,48.798l0.023,8.362c0.012,3.812,3.108,6.892,6.915,6.88l50.181-0.149    c3.81-0.013,6.885-3.11,6.872-6.923L63.881,6.792C53.08,46.504,13.819,49.138,0.042,48.798z"
   id="path3143" />
	</g>
</g>
<path
   fill="#FFFFFF"
   d="M60.725,22.496c-0.944-0.443-1.885-0.895-2.819-1.356c-5.152-2.547-10.197-5.37-14.884-8.71  C40.338,10.515,35.4,6.09,35.4,6.09c-1.444-1.187-1.953-1.271-3.687-1.272l0,0c-0.007,0-0.012,0-0.02,0c-0.006,0-0.012,0-0.018,0  l0,0c-1.735,0-2.242,0.085-3.687,1.272c0,0-4.938,4.425-7.623,6.339c-4.685,3.34-9.73,6.163-14.884,8.71  c-0.935,0.461-1.875,0.913-2.818,1.356c-0.186,0.087-0.238,0.355-0.137,0.52c0.884,1.446,1.767,2.893,2.65,4.338  c0.118,0.19,0.329,0.223,0.521,0.137c9.383-4.233,18.052-9.929,25.602-16.929l0.393-0.42l0.393,0.42  c7.55,7,16.219,12.695,25.603,16.929c0.192,0.086,0.403,0.053,0.521-0.137c0.883-1.446,1.766-2.892,2.649-4.338  C60.961,22.851,60.91,22.583,60.725,22.496z"
   id="path3145" />
<path
   fill="#FFFFFF"
   d="M51.92,35.438c0-0.11-0.043-0.196-0.104-0.257c-0.003-0.004-0.007-0.007-0.01-0.011  c-0.003-0.003-0.007-0.007-0.011-0.01c-0.061-0.062-0.146-0.102-0.259-0.102H10.568c-0.207,0-0.38,0.172-0.38,0.379v9.323l0,0  v10.913c0,0.112,0.041,0.196,0.103,0.259c0.003,0.003,0.006,0.006,0.009,0.011c0.004,0.003,0.007,0.006,0.01,0.009  c0.062,0.061,0.146,0.102,0.258,0.102h40.969c0.209,0,0.381-0.173,0.381-0.38v-9.32h0.002V35.438z M46.339,50.714H15.77v-4.36l0,0  v-5.956h30.569v4.363l0,0V50.714z"
   id="path3147" />
<path
   fill="#FFFFFF"
   d="M24.292,30.326c6.354,0,12.711,0,19.065,0c2.005,0,4.008,0,6.012,0c0.207,0,0.381-0.172,0.381-0.38  c0-1.606,0-3.213,0-4.819c0-0.208-0.174-0.381-0.381-0.381c-3.771,0-7.541,0-11.312,0c-6.354,0-12.71,0-19.065,0  c-2.005,0-4.008,0-6.013,0c-0.112,0-0.197,0.041-0.257,0.102c-0.004,0.003-0.007,0.007-0.01,0.01  c-0.004,0.003-0.008,0.007-0.011,0.01c-0.061,0.062-0.102,0.146-0.102,0.259c0,1.606,0,3.212,0,4.819c0,0.208,0.173,0.38,0.38,0.38  C16.75,30.326,20.521,30.326,24.292,30.326z"
   id="path3149" />
</svg>