<?xml version="1.0" encoding="UTF-8" standalone="no"?>
<!-- Generator: Adobe Illustrator 16.0.0, SVG Export Plug-In . SVG Version: 6.00 Build 0)  -->

<svg
   xmlns:dc="http://purl.org/dc/elements/1.1/"
   xmlns:cc="http://creativecommons.org/ns#"
   xmlns:rdf="http://www.w3.org/1999/02/22-rdf-syntax-ns#"
   xmlns:svg="http://www.w3.org/2000/svg"
   xmlns="http://www.w3.org/2000/svg"
   xmlns:sodipodi="http://sodipodi.sourceforge.net/DTD/sodipodi-0.dtd"
   xmlns:inkscape="http://www.inkscape.org/namespaces/inkscape"
   version="1.1"
   id="Layer_1"
   x="0px"
   y="0px"
   width="64px"
   height="64px"
   viewBox="0 0 64 64"
   enable-background="new 0 0 64 64"
   xml:space="preserve"
   inkscape:version="0.48.5 r10040"
   sodipodi:docname="1F23A.svg"
   inkscape:export-filename="D:\TESTINGEMOJI\SVGTEST\1F23A.png"
   inkscape:export-xdpi="90"
   inkscape:export-ydpi="90"><metadata
   id="metadata3199"><rdf:RDF><cc:Work
       rdf:about=""><dc:format>image/svg+xml</dc:format><dc:type
         rdf:resource="http://purl.org/dc/dcmitype/StillImage" /><dc:title></dc:title></cc:Work></rdf:RDF></metadata><defs
   id="defs3197" /><sodipodi:namedview
   pagecolor="#ffffff"
   bordercolor="#666666"
   borderopacity="1"
   objecttolerance="10"
   gridtolerance="10"
   guidetolerance="10"
   inkscape:pageopacity="0"
   inkscape:pageshadow="2"
   inkscape:window-width="640"
   inkscape:window-height="480"
   id="namedview3195"
   showgrid="false"
   inkscape:zoom="3.6875"
   inkscape:cx="32"
   inkscape:cy="32"
   inkscape:window-x="794"
   inkscape:window-y="458"
   inkscape:window-maximized="0"
   inkscape:current-layer="Layer_1" />
<g
   id="g3175">
	<path
   fill="#F6921E"
   d="M64.003,57.103c0,3.812-3.086,6.896-6.896,6.896H6.901C3.091,63.998,0,60.915,0,57.103V6.896   C0,3.083,3.091,0,6.901,0h50.206c3.811,0,6.896,3.083,6.896,6.896V57.103z"
   id="path3177" />
</g>
<g
   id="g3179">
	<path
   fill="#D07929"
   d="M0,48.728v8.366c0,3.814,3.091,6.905,6.897,6.905h50.209c3.811,0,6.896-3.091,6.896-6.905v-50.2   C53.076,46.593,13.785,49.109,0,48.728z"
   id="path3181" />
</g>
<path
   fill="#FFFFFF"
   d="M30.087,15.538c0.044,0.192,0.271,1.228,0.46,1.161c1.608-0.562,3.517,0.566,5.125,0.003  c0.195-0.068-0.151-3.167-0.667-5.018c-0.8-2.87-1.648-4.243-3.481-6.594C31.405,4.938,31.25,4.93,31.125,5  c-1.438,0.398-2.875,0.798-4.311,1.197c-0.233,0.065-0.359,0.35-0.229,0.56C28.141,9.264,29.437,12.658,30.087,15.538z"
   id="path3183" />
<g
   id="g3185">
	<path
   fill="#FFFFFF"
   d="M56.735,15.701c-3.819,0-7.638,0-11.456,0c2.429-2.39,4.636-5.028,6.304-8.008   c0.121-0.216,0.009-0.481-0.225-0.553c-1.826-0.556-3.651-1.11-5.478-1.666c-0.026-0.007-0.049-0.012-0.072-0.015   c-0.004,0-0.008-0.001-0.011-0.002h-0.003c-0.13-0.023-0.265,0.027-0.338,0.189c-1.692,3.697-4.044,7.034-6.751,10.054   c-3.869,0-7.737,0-11.606,0c-3.563,0-7.126,0-10.69,0c0.011-0.005,4.239,1.64,5.667,0.767c0.176-0.107-0.175-1.959-1.215-3.915   c-0.898-1.689-3.082-4.429-5.06-6.268c-0.031-0.028-0.062-0.048-0.094-0.063c-0.1-0.062-0.229-0.073-0.362,0.004   c-1.35,0.794-2.699,1.588-4.049,2.382c-0.209,0.123-0.246,0.417-0.076,0.59c1.871,1.882,3.505,3.98,4.706,6.354   c0.034,0.067,0.091,0.118,0.158,0.148c-2.377,0-4.756,0-7.135,0c-1.139,0-2.277,0-3.415,0c-0.207,0-0.377,0.17-0.377,0.376   c0,3.811,0,7.621,0,11.432c0,0.205,0.17,0.375,0.377,0.375c1.507,0,3.016,0,4.524,0c0.204,0,0.375-0.171,0.375-0.375   c0-2.256,0-4.514,0-6.769c3.214,0,6.428,0,9.644,0c6.44,0,12.881,0,19.321,0c4.146,0,8.29,0,12.435,0c0,2.335,0,4.67,0,7.006   c0,0.205,0.172,0.375,0.376,0.375c1.509,0,3.017,0,4.525,0c0.206,0,0.375-0.17,0.375-0.375c0-3.89,0-7.78,0-11.669   C57.11,15.871,56.941,15.701,56.735,15.701z"
   id="path3187" />
	<path
   fill="#FFFFFF"
   d="M24.637,38.838c6.267,0,12.535,0,18.802,0c1.893,0,3.784,0,5.676,0c0.205,0,0.376-0.17,0.376-0.375   c0-4.52,0-9.04,0-13.56c0-0.005,0-0.011,0-0.015c0-0.205-0.171-0.376-0.376-0.376c-3.747,0-7.494,0-11.243,0   c-6.269,0-12.536,0-18.803,0c-1.893,0-3.785,0-5.676,0c-0.112,0-0.195,0.041-0.254,0.102c-0.004,0.002-0.008,0.005-0.011,0.01   c-0.003,0.002-0.006,0.005-0.01,0.01c-0.061,0.06-0.101,0.144-0.101,0.254c0,4.52,0,9.039,0,13.559c0,0.004,0,0.011,0,0.016   c0,0.205,0.171,0.375,0.376,0.375C17.141,38.838,20.888,38.838,24.637,38.838z M18.054,34.038c0-1.576,0-3.15,0-4.726   c4.321,0,8.641,0,12.961,0s8.641,0,12.961,0c0,1.576,0,3.15,0,4.726c-4.32,0-8.641,0-12.961,0S22.375,34.038,18.054,34.038z"
   id="path3189" />
	<path
   fill="#FFFFFF"
   d="M52.248,42.494c-0.004-0.003-0.008-0.007-0.011-0.011c-0.003-0.003-0.006-0.007-0.01-0.009   c-0.061-0.061-0.145-0.101-0.255-0.101H9.344c-0.206,0-0.376,0.17-0.376,0.375v0.808v13.683v0.765c0,0.111,0.04,0.195,0.1,0.256   c0.003,0.003,0.007,0.006,0.01,0.01c0.004,0.004,0.007,0.007,0.011,0.01c0.06,0.061,0.144,0.102,0.255,0.102h42.628   c0.205,0,0.375-0.172,0.375-0.377v-0.765V43.557v-0.808C52.348,42.64,52.31,42.555,52.248,42.494z M14.244,53.328v-5.902H47.07   v5.902H14.244z"
   id="path3191" />
	<path
   fill="#FFFFFF"
   d="M27.667,45.422c-0.043,0.188-0.275,0.327-0.462,0.262c-1.587-0.555-3.175-1.111-4.763-1.667   c-0.192-0.065-0.321-0.255-0.263-0.462c0.798-2.833,2.099-5.463,3.908-7.787c0.117-0.149,0.269-0.157,0.394-0.089   c1.42,0.394,2.839,0.789,4.259,1.183c0.229,0.064,0.353,0.345,0.225,0.553C29.427,39.891,28.31,42.577,27.667,45.422z"
   id="path3193" />
</g>
</svg>