<?xml version="1.0" encoding="UTF-8" standalone="no"?>
<!-- Generator: Adobe Illustrator 16.0.0, SVG Export Plug-In . SVG Version: 6.00 Build 0)  -->

<svg
   xmlns:dc="http://purl.org/dc/elements/1.1/"
   xmlns:cc="http://creativecommons.org/ns#"
   xmlns:rdf="http://www.w3.org/1999/02/22-rdf-syntax-ns#"
   xmlns:svg="http://www.w3.org/2000/svg"
   xmlns="http://www.w3.org/2000/svg"
   xmlns:sodipodi="http://sodipodi.sourceforge.net/DTD/sodipodi-0.dtd"
   xmlns:inkscape="http://www.inkscape.org/namespaces/inkscape"
   version="1.1"
   id="Layer_1"
   x="0px"
   y="0px"
   width="64px"
   height="64px"
   viewBox="0 0 64 64"
   enable-background="new 0 0 64 64"
   xml:space="preserve"
   inkscape:version="0.48.5 r10040"
   sodipodi:docname="1F232.svg"
   inkscape:export-filename="D:\TESTINGEMOJI\SVGTEST\1F232.png"
   inkscape:export-xdpi="90"
   inkscape:export-ydpi="90"><metadata
   id="metadata3286"><rdf:RDF><cc:Work
       rdf:about=""><dc:format>image/svg+xml</dc:format><dc:type
         rdf:resource="http://purl.org/dc/dcmitype/StillImage" /><dc:title></dc:title></cc:Work></rdf:RDF></metadata><defs
   id="defs3284" /><sodipodi:namedview
   pagecolor="#ffffff"
   bordercolor="#666666"
   borderopacity="1"
   objecttolerance="10"
   gridtolerance="10"
   guidetolerance="10"
   inkscape:pageopacity="0"
   inkscape:pageshadow="2"
   inkscape:window-width="640"
   inkscape:window-height="480"
   id="namedview3282"
   showgrid="false"
   inkscape:zoom="3.6875"
   inkscape:cx="32"
   inkscape:cy="32"
   inkscape:window-x="752"
   inkscape:window-y="318"
   inkscape:window-maximized="0"
   inkscape:current-layer="Layer_1" />
<g
   id="g3256">
	<g
   id="g3258">
		<g
   id="g3260">
			<path
   fill="#EC1C24"
   d="M63.919,57.096c0,3.815-3.083,6.896-6.888,6.896H6.891C3.087,63.992,0,60.911,0,57.096v-50.2     C0,3.082,3.087,0,6.891,0h50.141c3.805,0,6.888,3.082,6.888,6.896V57.096z"
   id="path3262" />
		</g>
		<g
   id="g3264">
			<path
   fill="#C32129"
   d="M0.042,48.818l0.024,8.365c0.012,3.814,3.106,6.896,6.909,6.884l50.142-0.149     c3.808-0.013,6.882-3.111,6.87-6.925L63.833,6.795C53.039,46.524,13.809,49.159,0.042,48.818z"
   id="path3266" />
		</g>
	</g>
	<g
   id="g3268">
		<path
   fill="#FFFFFF"
   d="M8.331,28.329c3.378-2.512,6.213-5.636,8.553-9.121c0,3.165,0,6.329,0,9.493    c0,0.195,0.164,0.36,0.359,0.36c1.364,0,2.728,0,4.091,0c0.196,0,0.359-0.165,0.359-0.36c0-3.023,0-6.047,0-9.071    c2.165,1.626,4.227,3.382,6.208,5.229c0.179,0.167,0.428,0.119,0.564-0.073c0.909-1.29,1.817-2.579,2.728-3.87    c0.122-0.174,0.016-0.381-0.129-0.492c-2.958-2.257-6.132-4.219-9.371-6.044c0-0.038,0-0.076,0-0.114c2.759,0,5.521,0,8.28,0    c0.196,0,0.359-0.164,0.359-0.359c0-1.366,0-2.731,0-4.096c0-0.196-0.163-0.36-0.359-0.36c-2.759,0-5.521,0-8.28,0    c0-2.004,0-4.008,0-6.013c0-0.196-0.163-0.359-0.359-0.359c-1.364,0-2.728,0-4.091,0c-0.196,0-0.359,0.163-0.359,0.359    c0,2.005,0,4.009,0,6.013c-3.214,0-6.428,0-9.643,0c-0.106,0-0.186,0.038-0.244,0.097C6.995,9.55,6.992,9.553,6.987,9.557    C6.984,9.56,6.981,9.563,6.979,9.566C6.921,9.624,6.881,9.705,6.881,9.811c0,1.365,0,2.73,0,4.096c0,0.196,0.164,0.359,0.36,0.359    c2.438,0,4.875,0,7.313,0c-2.407,3.869-5.594,7.169-9.314,9.801c-0.144,0.103-0.253,0.325-0.129,0.491    c0.911,1.214,1.819,2.427,2.728,3.641C7.948,28.342,8.162,28.455,8.331,28.329z"
   id="path3270" />
		<path
   fill="#FFFFFF"
   d="M24.545,48.569c-0.987-1.138-1.97-2.276-2.956-3.414c-0.134-0.155-0.308-0.143-0.433-0.05    c-0.026,0.014-0.051,0.029-0.076,0.05c-4.2,3.514-9.352,5.637-14.619,6.964c-0.239,0.06-0.309,0.324-0.213,0.528    c0.682,1.441,1.364,2.881,2.046,4.322c0.066,0.141,0.262,0.211,0.405,0.166c5.597-1.833,11.34-4.157,15.845-8.058    C24.699,48.943,24.664,48.71,24.545,48.569z"
   id="path3272" />
		<path
   fill="#FFFFFF"
   d="M57.024,39.527c-2.695,0-5.39,0-8.086,0c-5.877,0-11.757,0-17.636,0c-5.755,0-11.51,0-17.265,0    c-2.341,0-4.682,0-7.023,0c-0.105,0-0.188,0.04-0.244,0.098c-0.004,0.004-0.007,0.006-0.01,0.01    c-0.003,0.002-0.006,0.006-0.009,0.01c-0.058,0.058-0.097,0.138-0.097,0.243c0,1.366,0,2.73,0,4.096    c0,0.196,0.163,0.359,0.36,0.359c4.401,0,8.802,0,13.204,0c3.36,0,6.719,0,10.079,0c0,2.045,0,4.091,0,6.134    c0,0.901,0.189,2.195-0.508,2.867c-0.296,0.288-0.751,0.296-1.134,0.296c-0.739-0.004-1.477-0.047-2.211-0.112    c-1.465-0.133-2.912-0.413-4.331-0.786c-0.277-0.073-0.494,0.178-0.441,0.441c0.304,1.519,0.607,3.035,0.91,4.552    c0.021,0.111,0.137,0.233,0.25,0.251c1.382,0.229,2.773,0.365,4.172,0.431c1.38,0.062,2.785,0.088,4.156-0.108    c0.89-0.126,1.821-0.338,2.558-0.88c0.704-0.517,1.087-1.348,1.318-2.168c0.35-1.245,0.298-2.557,0.298-3.838    c0-1.477,0-2.952,0-4.43c0-0.883,0-1.766,0-2.649c4.409,0,8.817,0,13.225,0c2.823,0,5.645,0,8.466,0    c0.196,0,0.359-0.163,0.359-0.359c0-1.365,0-2.729,0-4.096C57.384,39.691,57.221,39.527,57.024,39.527z"
   id="path3274" />
		<path
   fill="#FFFFFF"
   d="M12.02,32.245c-0.078,0-0.155,0-0.232,0c-0.105,0-0.187,0.038-0.243,0.097    c-0.003,0.003-0.006,0.006-0.01,0.009c-0.003,0.003-0.005,0.006-0.009,0.009c-0.057,0.058-0.095,0.139-0.095,0.245    c0,1.289,0,2.579,0,3.869c0,0.195,0.163,0.358,0.358,0.358c3.198,0,6.393,0,9.589,0c6.144,0,12.286,0,18.428,0    c3.92,0,7.84,0,11.761,0c0.077,0,0.154,0,0.23,0c0.197,0,0.36-0.163,0.36-0.358c0-1.29,0-2.58,0-3.869    c0-0.196-0.163-0.36-0.36-0.36c-3.195,0-6.392,0-9.588,0c-6.143,0-12.286,0-18.429,0C19.859,32.245,15.938,32.245,12.02,32.245z"
   id="path3276" />
		<path
   fill="#FFFFFF"
   d="M58.798,23.611c-4.121-2.08-7.302-5.494-9.763-9.345c2.588,0,5.175,0,7.763,0    c0.196,0,0.358-0.164,0.358-0.359c0-1.366,0-2.731,0-4.096c0-0.196-0.162-0.36-0.358-0.36c-3.366,0-6.733,0-10.097,0    c0-2.004,0-4.008,0-6.013c0-0.196-0.165-0.359-0.36-0.359c-1.516,0-3.032,0-4.546,0c-0.196,0-0.359,0.163-0.359,0.359    c0,2.005,0,4.009,0,6.013c-3.062,0-6.125,0-9.188,0c-0.105,0-0.187,0.038-0.243,0.097C32,9.55,31.997,9.553,31.994,9.557    c-0.003,0.003-0.007,0.007-0.011,0.01c-0.056,0.058-0.095,0.138-0.095,0.244c0,1.365,0,2.73,0,4.096    c0,0.196,0.163,0.359,0.359,0.359c2.146,0,4.294,0,6.44,0c-2.24,4.002-5.275,7.495-9.123,10.028    c-0.208,0.137-0.22,0.378-0.072,0.564c0.91,1.137,1.818,2.275,2.728,3.413c0.097,0.12,0.312,0.138,0.437,0.057    c3.608-2.373,6.464-5.675,8.779-9.293c0,3.222,0,6.443,0,9.666c0,0.195,0.163,0.36,0.359,0.36c1.514,0,3.03,0,4.546,0    c0.195,0,0.36-0.165,0.36-0.36c0-3.235,0-6.472,0-9.708c2.512,3.768,5.664,7.064,9.461,9.562c0.158,0.104,0.402,0.038,0.49-0.13    c0.758-1.441,1.517-2.882,2.273-4.325C59.012,23.938,58.979,23.702,58.798,23.611z"
   id="path3278" />
		<path
   fill="#FFFFFF"
   d="M56.75,53.295c-4.377-3.126-9.031-5.844-13.865-8.195c-0.01-0.004-0.019-0.008-0.028-0.011    c-0.123-0.083-0.285-0.088-0.405,0.066c-0.91,1.138-1.819,2.276-2.729,3.414c-0.132,0.165-0.156,0.457,0.072,0.564    c4.723,2.224,9.213,4.934,13.338,8.138c0.152,0.116,0.362,0.156,0.508,0c1.062-1.138,2.123-2.276,3.185-3.415    C56.991,53.678,56.942,53.431,56.75,53.295z"
   id="path3280" />
	</g>
</g>
</svg>