<?xml version="1.0" encoding="UTF-8" standalone="no"?>
<!-- Generator: Adobe Illustrator 16.0.0, SVG Export Plug-In . SVG Version: 6.00 Build 0)  -->

<svg
   xmlns:dc="http://purl.org/dc/elements/1.1/"
   xmlns:cc="http://creativecommons.org/ns#"
   xmlns:rdf="http://www.w3.org/1999/02/22-rdf-syntax-ns#"
   xmlns:svg="http://www.w3.org/2000/svg"
   xmlns="http://www.w3.org/2000/svg"
   xmlns:sodipodi="http://sodipodi.sourceforge.net/DTD/sodipodi-0.dtd"
   xmlns:inkscape="http://www.inkscape.org/namespaces/inkscape"
   version="1.1"
   id="Layer_1"
   x="0px"
   y="0px"
   width="64px"
   height="64px"
   viewBox="0 0 64 64"
   enable-background="new 0 0 64 64"
   xml:space="preserve"
   inkscape:version="0.48.5 r10040"
   sodipodi:docname="1F250.svg"
   inkscape:export-filename="D:\TESTINGEMOJI\SVGTEST\1F250.png"
   inkscape:export-xdpi="90"
   inkscape:export-ydpi="90"><metadata
   id="metadata3046"><rdf:RDF><cc:Work
       rdf:about=""><dc:format>image/svg+xml</dc:format><dc:type
         rdf:resource="http://purl.org/dc/dcmitype/StillImage" /><dc:title></dc:title></cc:Work></rdf:RDF></metadata><defs
   id="defs3044" /><sodipodi:namedview
   pagecolor="#ffffff"
   bordercolor="#666666"
   borderopacity="1"
   objecttolerance="10"
   gridtolerance="10"
   guidetolerance="10"
   inkscape:pageopacity="0"
   inkscape:pageshadow="2"
   inkscape:window-width="640"
   inkscape:window-height="480"
   id="namedview3042"
   showgrid="false"
   inkscape:zoom="3.6875"
   inkscape:cx="32"
   inkscape:cy="32"
   inkscape:window-x="713"
   inkscape:window-y="323"
   inkscape:window-maximized="0"
   inkscape:current-layer="Layer_1" />
<g
   id="g3028">
	<path
   fill="#EC1C24"
   d="M31.989,63.976C14.35,63.976,0,49.626,0,31.988C0,14.348,14.35,0,31.989,0   c17.637,0,31.988,14.349,31.988,31.988C63.977,49.626,49.626,63.976,31.989,63.976z M31.989,4.09   c-15.383,0-27.896,12.515-27.896,27.897c0,15.382,12.514,27.895,27.896,27.895c15.382,0,27.897-12.513,27.897-27.895   C59.886,16.605,47.371,4.09,31.989,4.09z"
   id="path3030" />
</g>
<path
   fill="#EC1C24"
   d="M25.764,23.255c0.066-0.132,0.04-0.309-0.1-0.383c-1.004-0.533-2.008-1.062-3.012-1.595  c-0.036-0.018-0.073-0.029-0.106-0.032c-0.004-0.001-0.005-0.001-0.008-0.001c0,0-0.002,0-0.003,0  c-0.099-0.017-0.202,0.018-0.266,0.135c-2.703,5.017-6.504,9.318-10.938,12.875c-0.089,0.07-0.112,0.246-0.044,0.338  c0.709,0.944,1.418,1.889,2.125,2.834c0.118,0.156,0.287,0.177,0.44,0.057c1.141-0.892,2.208-1.879,3.242-2.894  c0,3.207,0,6.413,0,9.619c0,2.712,0,5.423,0,8.133c0,0.154,0.128,0.282,0.28,0.282c1.122,0,2.244,0,3.365,0  c0.152,0,0.28-0.128,0.28-0.282c0-3.139,0-6.28,0-9.422c0-3.994,0-7.99,0-11.986c0-0.153,0-0.307,0-0.46  C22.826,28.222,24.467,25.835,25.764,23.255z"
   id="path3032" />
<path
   fill="#EC1C24"
   d="M13.767,24.494c0.084,0.111,0.249,0.197,0.382,0.101c4.144-3.033,7.658-6.858,10.021-11.438  c0.068-0.131,0.039-0.309-0.101-0.382c-1.003-0.533-2.008-1.063-3.012-1.594c-0.036-0.02-0.071-0.029-0.105-0.032  c-0.003-0.002-0.008-0.002-0.01-0.002c0,0,0,0-0.001,0c-0.099-0.016-0.203,0.018-0.266,0.134c-2.148,4.008-5.42,7.279-8.99,10.04  c-0.09,0.071-0.112,0.25-0.044,0.34C12.35,22.604,13.059,23.55,13.767,24.494z"
   id="path3034" />
<path
   fill="#EC1C24"
   d="M52.449,36.475c-1.855,0-3.711,0-5.566,0c0-0.877,0-1.753,0-2.63c1.562,0,3.12,0,4.682,0  c0.15,0,0.279-0.127,0.279-0.28c0-1.003,0-2.006,0-3.011c0-0.152-0.129-0.279-0.279-0.279c-2.789,0-5.576,0-8.364,0  c-4.663,0-9.325,0-13.987,0c-1.408,0-2.815,0-4.221,0c-0.083,0-0.146,0.029-0.19,0.075c-0.001,0.002-0.004,0.005-0.007,0.006  c-0.003,0.004-0.005,0.007-0.006,0.008c-0.046,0.046-0.077,0.108-0.077,0.19c0,1.004,0,2.008,0,3.011c0,0.153,0.129,0.28,0.281,0.28  c3.455,0,6.914,0,10.369,0c2.473,0,4.945,0,7.42,0c0,0.877,0,1.753,0,2.63c-3.24,0-6.482,0-9.723,0c-3.162,0-6.324,0-9.484,0  c-0.152,0-0.278,0.127-0.278,0.279c0,1.062,0,2.126,0,3.188c0,0.152,0.126,0.28,0.278,0.28c3.333,0,6.669,0,10.004,0  c3.068,0,6.135,0,9.203,0c0,1.722,0,3.444,0,5.165c0,0.652,0.003,1.304-0.002,1.954c-0.003,0.362-0.003,0.799-0.187,1.125  c-0.063,0.112-0.245,0.054-0.348,0.052c-0.331-0.003-0.661-0.015-0.991-0.033c-1.214-0.062-2.42-0.235-3.609-0.485  c-0.226-0.048-0.379,0.129-0.347,0.345c0.178,1.119,0.355,2.241,0.533,3.363c0.014,0.094,0.11,0.175,0.194,0.197  c0.981,0.263,1.985,0.411,2.996,0.487c1.046,0.081,2.117,0.103,3.154-0.084c0.674-0.119,1.373-0.386,1.828-0.919  c0.482-0.564,0.67-1.338,0.776-2.055c0.128-0.89,0.103-1.796,0.103-2.691c0-1.146,0-2.289,0-3.435c0-0.994,0-1.99,0-2.986  c1.855,0,3.711,0,5.566,0c0.151,0,0.278-0.128,0.278-0.28c0-1.062,0-2.125,0-3.188C52.728,36.602,52.601,36.475,52.449,36.475z"
   id="path3036" />
<path
   fill="#EC1C24"
   d="M30.328,41.162c-0.024-0.024-0.049-0.04-0.074-0.054c-0.006-0.002-0.011-0.005-0.015-0.008  c-0.004-0.002-0.011-0.005-0.015-0.008c-0.071-0.029-0.152-0.027-0.237,0.024c-0.944,0.591-1.888,1.181-2.835,1.771  c-0.155,0.099-0.18,0.306-0.056,0.439c1.635,1.751,3.08,3.671,4.208,5.79c0.072,0.134,0.256,0.175,0.382,0.1  c1.004-0.591,2.008-1.181,3.014-1.771c0.133-0.079,0.171-0.247,0.1-0.383C33.63,44.874,32.076,42.918,30.328,41.162z"
   id="path3038" />
<path
   fill="#EC1C24"
   d="M27.649,27.645c3.176,0,6.352,0,9.528,0c3.857,0,7.715,0,11.57,0c0.11,0,0.226,0,0.337,0  c0.151,0,0.279-0.127,0.279-0.281c0-3.701,0-7.402,0-11.104c0-1.081,0-2.162,0-3.244c0-0.152-0.128-0.279-0.279-0.279  c-3.178,0-6.354,0-9.529,0c-3.857,0-7.713,0-11.569,0c-0.114,0-0.224,0-0.336,0c-0.083,0-0.146,0.029-0.19,0.075  c-0.003,0.001-0.006,0.004-0.008,0.006c-0.001,0.003-0.004,0.005-0.007,0.009c-0.044,0.045-0.074,0.107-0.074,0.189  c0,3.701,0,7.403,0,11.104c0,1.083,0,2.164,0,3.244C27.37,27.518,27.496,27.645,27.649,27.645z M45.438,18.582  c-3.595,0-7.191,0-10.787,0c-1.119,0-2.239,0-3.358,0c0-0.758,0-1.517,0-2.275c3.598,0,7.193,0,10.788,0c1.119,0,2.238,0,3.357,0  C45.438,17.065,45.438,17.824,45.438,18.582z M31.293,21.798c3.598,0,7.193,0,10.788,0c1.119,0,2.238,0,3.357,0  c0,0.819,0,1.635,0,2.453c-3.595,0-7.191,0-10.787,0c-1.119,0-2.239,0-3.358,0C31.293,23.433,31.293,22.617,31.293,21.798z"
   id="path3040" />
</svg>