<?xml version="1.0" encoding="UTF-8" standalone="no"?>
<!-- Generator: Adobe Illustrator 16.0.0, SVG Export Plug-In . SVG Version: 6.00 Build 0)  -->

<svg
   xmlns:dc="http://purl.org/dc/elements/1.1/"
   xmlns:cc="http://creativecommons.org/ns#"
   xmlns:rdf="http://www.w3.org/1999/02/22-rdf-syntax-ns#"
   xmlns:svg="http://www.w3.org/2000/svg"
   xmlns="http://www.w3.org/2000/svg"
   xmlns:sodipodi="http://sodipodi.sourceforge.net/DTD/sodipodi-0.dtd"
   xmlns:inkscape="http://www.inkscape.org/namespaces/inkscape"
   version="1.1"
   id="Layer_1"
   x="0px"
   y="0px"
   width="64px"
   height="64px"
   viewBox="0 0 64 64"
   enable-background="new 0 0 64 64"
   xml:space="preserve"
   inkscape:version="0.48.5 r10040"
   sodipodi:docname="1F251.svg"
   inkscape:export-filename="D:\TESTINGEMOJI\SVGTEST\1F251.png"
   inkscape:export-xdpi="90"
   inkscape:export-ydpi="90"><metadata
   id="metadata3025"><rdf:RDF><cc:Work
       rdf:about=""><dc:format>image/svg+xml</dc:format><dc:type
         rdf:resource="http://purl.org/dc/dcmitype/StillImage" /><dc:title></dc:title></cc:Work></rdf:RDF></metadata><defs
   id="defs3023" /><sodipodi:namedview
   pagecolor="#ffffff"
   bordercolor="#666666"
   borderopacity="1"
   objecttolerance="10"
   gridtolerance="10"
   guidetolerance="10"
   inkscape:pageopacity="0"
   inkscape:pageshadow="2"
   inkscape:window-width="640"
   inkscape:window-height="480"
   id="namedview3021"
   showgrid="false"
   inkscape:zoom="3.6875"
   inkscape:cx="32"
   inkscape:cy="32"
   inkscape:window-x="591"
   inkscape:window-y="351"
   inkscape:window-maximized="0"
   inkscape:current-layer="Layer_1" />
<g
   id="g3009">
	<path
   fill="#F6921E"
   d="M58.34,13.875c10.002,14.561,6.303,34.465-8.253,44.464c-14.562,10-34.466,6.307-44.468-8.255   c-9.996-14.558-6.302-34.466,8.256-44.464C28.434-4.377,48.343-0.682,58.34,13.875z"
   id="path3011" />
</g>
<g
   id="g3013">
	<path
   fill="#D07929"
   d="M27.732,0.291C11.487,2.449-0.703,16.708,0.036,33.393c0.782,17.644,15.716,31.312,33.365,30.534   c11.5-0.511,21.31-7.037,26.529-16.405C13.879,50.29,3.548,19.785,27.732,0.291z"
   id="path3015" />
</g>
<path
   fill="#FFFFFF"
   d="M54.13,14.613H9.832c-0.292,0-0.56,0.112-0.759,0.318c-0.201,0.196-0.311,0.463-0.311,0.752v3.644  c0,0.589,0.48,1.07,1.07,1.07h32.106v30.397c0,0.428,0.001,0.797-0.104,1.135c-0.119,0.377-0.926,0.431-1.672,0.45l-0.182,0.006  c-1.287,0.051-2.599-0.062-4.269-0.36l-0.169-0.014c-0.332,0-0.64,0.144-0.845,0.396c-0.204,0.252-0.28,0.583-0.212,0.909  l0.768,3.646c0.086,0.393,0.407,0.713,0.799,0.799c1.321,0.285,2.697,0.432,4.095,0.432c1.004,0,2.013-0.076,2.996-0.227  c2.142-0.328,3.521-1.241,4.211-2.79c0.581-1.294,0.571-2.653,0.561-3.969l-0.002-30.812h6.218c0.59,0,1.07-0.481,1.07-1.07v-3.644  C55.2,15.093,54.72,14.613,54.13,14.613z"
   id="path3017" />
<path
   fill="#FFFFFF"
   d="M36.13,25.649c-0.003-0.005-0.008-0.008-0.009-0.011c-0.004-0.003-0.007-0.007-0.013-0.009  c-0.058-0.062-0.142-0.102-0.253-0.102H12.957c-0.206,0-0.376,0.171-0.376,0.376v2.62v17.132v1.248c0,0.11,0.04,0.194,0.1,0.254  c0.003,0.003,0.006,0.008,0.01,0.009c0.003,0.005,0.008,0.009,0.011,0.011c0.059,0.062,0.144,0.102,0.255,0.102h22.898  c0.205,0,0.375-0.172,0.375-0.375v-0.011v-18.37v-2.62C36.23,25.793,36.191,25.709,36.13,25.649z M18.104,30.821h12.605v11.165  H18.104V30.821z"
   id="path3019" />
</svg>