<?xml version="1.0" encoding="utf-8"?>
<!-- Generator: Adobe Illustrator 16.0.0, SVG Export Plug-In . SVG Version: 6.00 Build 0)  -->
<!DOCTYPE svg PUBLIC "-//W3C//DTD SVG 1.1//EN" "http://www.w3.org/Graphics/SVG/1.1/DTD/svg11.dtd">
<svg version="1.1"
	 id="Layer_1" xmlns:inkscape="http://www.inkscape.org/namespaces/inkscape" xmlns:sodipodi="http://sodipodi.sourceforge.net/DTD/sodipodi-0.dtd" xmlns:cc="http://creativecommons.org/ns#" xmlns:svg="http://www.w3.org/2000/svg" xmlns:rdf="http://www.w3.org/1999/02/22-rdf-syntax-ns#" xmlns:dc="http://purl.org/dc/elements/1.1/" sodipodi:docname="1F36D.svg" inkscape:export-xdpi="90" inkscape:export-filename="D:\TESTINGEMOJI\SVGTEST\1F36D.png" inkscape:export-ydpi="90" inkscape:version="0.48.5 r10040"
	 xmlns="http://www.w3.org/2000/svg" xmlns:xlink="http://www.w3.org/1999/xlink" x="0px" y="0px" width="64px" height="64px"
	 viewBox="0 0 64 64" enable-background="new 0 0 64 64" xml:space="preserve">
<sodipodi:namedview  id="namedview4482" inkscape:cy="32" gridtolerance="10" objecttolerance="10" showgrid="false" bordercolor="#666666" guidetolerance="10" borderopacity="1" inkscape:cx="32" inkscape:zoom="3.6875" pagecolor="#ffffff" inkscape:pageopacity="0" inkscape:pageshadow="2" inkscape:window-width="640" inkscape:window-height="480" inkscape:window-maximized="0" inkscape:window-x="820" inkscape:window-y="297" inkscape:current-layer="Layer_1">
	</sodipodi:namedview>
<path fill="#808285" d="M60.29,58.596c0.63,0.705,0.288,2.031-0.766,2.971l0,0c-1.05,0.93-2.411,1.109-3.04,0.402L34.568,37.244
	c-0.625-0.705-0.283-2.031,0.768-2.963l0,0c1.054-0.939,2.415-1.119,3.04-0.408L60.29,58.596z"/>
<path fill="#9D9EA4" d="M58.525,59.764c0.628,0.701,0.564,1.785-0.144,2.416l0,0c-0.709,0.627-1.788,0.561-2.415-0.145
	L34.049,37.309c-0.625-0.701-0.561-1.785,0.143-2.408l0,0c0.711-0.631,1.791-0.568,2.418,0.145L58.525,59.764z"/>
<path fill="#E6E6E6" d="M48.77,21.249c0.899,12.087-8.513,22.644-21.026,23.576S4.356,36.715,3.453,24.626
	C2.555,12.542,11.967,1.988,24.48,1.055C36.994,0.121,47.868,9.165,48.77,21.249z"/>
<path fill="#FF68B5" d="M43.059,25.687c0.457-7.254-3.167-12.699-7.559-15.59c-2.275-1.504-5.035-2.669-8.379-2.871
	c-7.693-0.473-13.096,3.979-15.582,9.051c-1.298,2.633-2.043,6.106-1.203,9.717c1.453,6.312,6.84,10.529,13.24,10.299
	c3.768-0.135,6.504-1.738,8.555-4.085c2.316-2.647,4.121-7.888,1.668-12.235c-2.045-3.632-8.016-6.616-12.717-3.104
	c-1.713,1.275-3.49,3.979-2.875,7.083c0.525,2.662,3.02,4.691,5.67,4.262c1.943-0.31,3.121-1.592,3.014-3.801
	c-0.217-0.076-0.363,0.623-0.647,0.937c-0.292,0.319-0.772,0.639-1.265,0.768c-2.855,0.755-4.326-1.821-3.723-4.289
	c0.48-1.992,2.537-3.467,5.021-3.244c2.561,0.225,4.627,2.159,5.2,4.583c1.075,4.551-2.364,9.021-7.044,9.708
	c-5.094,0.741-9.18-2.605-10.527-6.71c-1.262-3.849-0.135-7.276,1.529-9.849c2.336-3.617,7.082-6.521,12.959-5.468
	c5.607,1.001,11.008,5.554,11.235,13.282c0.073,2.61-0.37,4.428-1.179,6.421c-1.438,3.552-3.844,6.575-7.85,8.636
	c-3.949,2.021-9.464,2.316-13.424,0.883c-3.703-1.33-6.867-3.734-8.956-7.018c-2.323-3.617-3.474-8.474-2.616-13.319
	C6.311,15.75,8.23,11.968,10.85,9.105c2.484-2.721,6.738-5.322,11.098-6.22l2.498-0.356c9.748-0.174,16.92,4.023,20.731,11.433
	c2.095,4.083,3.103,9.37,2.368,14.119C47.465,28.583,43.877,29.2,43.059,25.687z"/>
</svg>
