<?xml version="1.0" encoding="UTF-8" standalone="no"?>
<!-- Generator: Adobe Illustrator 16.0.0, SVG Export Plug-In . SVG Version: 6.00 Build 0)  -->

<svg
   xmlns:dc="http://purl.org/dc/elements/1.1/"
   xmlns:cc="http://creativecommons.org/ns#"
   xmlns:rdf="http://www.w3.org/1999/02/22-rdf-syntax-ns#"
   xmlns:svg="http://www.w3.org/2000/svg"
   xmlns="http://www.w3.org/2000/svg"
   xmlns:sodipodi="http://sodipodi.sourceforge.net/DTD/sodipodi-0.dtd"
   xmlns:inkscape="http://www.inkscape.org/namespaces/inkscape"
   version="1.1"
   id="Layer_1"
   x="0px"
   y="0px"
   width="64px"
   height="64px"
   viewBox="0 0 64 64"
   enable-background="new 0 0 64 64"
   xml:space="preserve"
   inkscape:version="0.48.5 r10040"
   sodipodi:docname="1F3EE.svg"
   inkscape:export-filename="D:\TESTINGEMOJI\SVGTEST\1F3EE.png"
   inkscape:export-xdpi="90"
   inkscape:export-ydpi="90"><metadata
   id="metadata3012"><rdf:RDF><cc:Work
       rdf:about=""><dc:format>image/svg+xml</dc:format><dc:type
         rdf:resource="http://purl.org/dc/dcmitype/StillImage" /><dc:title></dc:title></cc:Work></rdf:RDF></metadata><defs
   id="defs3010" /><sodipodi:namedview
   pagecolor="#ffffff"
   bordercolor="#666666"
   borderopacity="1"
   objecttolerance="10"
   gridtolerance="10"
   guidetolerance="10"
   inkscape:pageopacity="0"
   inkscape:pageshadow="2"
   inkscape:window-width="711"
   inkscape:window-height="807"
   id="namedview3008"
   showgrid="false"
   inkscape:zoom="6.390625"
   inkscape:cx="32"
   inkscape:cy="32"
   inkscape:window-x="522"
   inkscape:window-y="116"
   inkscape:window-maximized="0"
   inkscape:current-layer="Layer_1" />
<path
   fill="#1F2E35"
   d="M42.559,46.943c0,9.461-2.679,17.133-5.982,17.133h-5.59c-3.304,0-5.985-7.672-5.985-17.133V17.055  c0-9.461,2.682-17.131,5.985-17.131h5.589c3.306,0,5.983,7.67,5.983,17.131V46.943L42.559,46.943z"
   id="path2986" />
<path
   fill="#EC1C24"
   d="M53.523,44.324c0,7.433-6.021,13.457-13.455,13.457h-12.58c-7.429,0-13.454-6.024-13.454-13.457v-23.47  c0-7.43,6.025-13.455,13.455-13.455H40.07c7.434,0,13.455,6.025,13.455,13.455L53.523,44.324L53.523,44.324z"
   id="path2988" />
<path
   fill="#C52030"
   d="M17.972,44.324v-23.47c0-7.43,6.023-13.455,13.454-13.455H27.49c-7.43,0-13.455,6.025-13.455,13.455v23.472  c0,7.432,6.025,13.457,13.455,13.457h3.936C23.995,57.781,17.972,51.757,17.972,44.324z"
   id="path2990" />
<path
   fill="#C52030"
   d="M50.584,17.083c0,0.69-0.56,1.25-1.25,1.25h-32c-0.69,0-1.25-0.56-1.25-1.25l0,0c0-0.69,0.56-1.25,1.25-1.25  h32C50.024,15.833,50.584,16.393,50.584,17.083L50.584,17.083z"
   id="path2992" />
<path
   fill="#C52030"
   d="M43.148,10.384c0,0.433-0.351,0.783-0.783,0.783H22.313c-0.433,0-0.783-0.351-0.783-0.783l0,0  c0-0.433,0.351-0.783,0.783-0.783h20.052C42.798,9.601,43.148,9.951,43.148,10.384L43.148,10.384z"
   id="path2994" />
<path
   fill="#C52030"
   d="M50.584,23.667c0,0.69-0.559,1.25-1.25,1.25h-32c-0.69,0-1.25-0.56-1.25-1.25l0,0  c0-0.69,0.56-1.25,1.25-1.25h32C50.025,22.417,50.584,22.977,50.584,23.667L50.584,23.667z"
   id="path2996" />
<path
   fill="#C52030"
   d="M50.584,30.167c0,0.69-0.559,1.25-1.25,1.25h-32c-0.69,0-1.25-0.56-1.25-1.25l0,0  c0-0.69,0.56-1.25,1.25-1.25h32C50.025,28.917,50.584,29.477,50.584,30.167L50.584,30.167z"
   id="path2998" />
<path
   fill="#C52030"
   d="M50.584,36.916c0,0.691-0.559,1.25-1.25,1.25h-32c-0.69,0-1.25-0.559-1.25-1.25l0,0  c0-0.689,0.56-1.25,1.25-1.25h32C50.025,35.666,50.584,36.227,50.584,36.916L50.584,36.916z"
   id="path3000" />
<path
   fill="#C52030"
   d="M50.584,43.749c0,0.691-0.559,1.25-1.25,1.25h-32c-0.69,0-1.25-0.559-1.25-1.25l0,0  c0-0.689,0.56-1.25,1.25-1.25h32C50.025,42.499,50.584,43.06,50.584,43.749L50.584,43.749z"
   id="path3002" />
<path
   fill="#C52030"
   d="M50.584,49.999c0,0.691-0.559,1.25-1.25,1.25h-32c-0.69,0-1.25-0.559-1.25-1.25l0,0  c0-0.689,0.56-1.25,1.25-1.25h32C50.025,48.749,50.584,49.31,50.584,49.999L50.584,49.999z"
   id="path3004" />
<path
   fill="#C52030"
   d="M40.07,7.399h-9.781c7.43,0,13.455,6.025,13.455,13.455v23.472c0,7.432-6.025,13.457-13.455,13.457h9.781  c7.434,0,13.455-6.025,13.455-13.457V20.854C53.523,13.424,47.504,7.399,40.07,7.399z"
   id="path3006" />
</svg>