<?xml version="1.0" encoding="utf-8"?>
<!-- Generator: Adobe Illustrator 16.0.0, SVG Export Plug-In . SVG Version: 6.00 Build 0)  -->
<!DOCTYPE svg PUBLIC "-//W3C//DTD SVG 1.1//EN" "http://www.w3.org/Graphics/SVG/1.1/DTD/svg11.dtd">
<svg version="1.1"
	 id="Layer_1" inkscape:export-ydpi="90" inkscape:export-xdpi="90" inkscape:export-filename="D:\TESTINGEMOJI\SVGTEST\1F47A.png" sodipodi:docname="1F47A.svg" inkscape:version="0.48.5 r10040" xmlns:rdf="http://www.w3.org/1999/02/22-rdf-syntax-ns#" xmlns:sodipodi="http://sodipodi.sourceforge.net/DTD/sodipodi-0.dtd" xmlns:dc="http://purl.org/dc/elements/1.1/" xmlns:cc="http://creativecommons.org/ns#" xmlns:inkscape="http://www.inkscape.org/namespaces/inkscape" xmlns:svg="http://www.w3.org/2000/svg"
	 xmlns="http://www.w3.org/2000/svg" xmlns:xlink="http://www.w3.org/1999/xlink" x="0px" y="0px" width="64px" height="64px"
	 viewBox="0 0 64 64" enable-background="new 0 0 64 64" xml:space="preserve">
<sodipodi:namedview  id="namedview4986" inkscape:current-layer="Layer_1" inkscape:window-maximized="0" inkscape:window-y="329" inkscape:window-x="686" inkscape:window-height="480" inkscape:window-width="640" inkscape:pageshadow="2" inkscape:pageopacity="0" borderopacity="1" inkscape:cx="32" inkscape:zoom="3.6875" inkscape:cy="32" showgrid="false" gridtolerance="10" bordercolor="#666666" guidetolerance="10" objecttolerance="10" pagecolor="#ffffff">
	</sodipodi:namedview>
<g id="g4942_6_">
	<path id="path4944_6_" inkscape:connector-curvature="0" fill="#DE374B" d="M48.99,2.927c-2.76-2.633-11.861-1.425-17.118-1.425
		c-5.258,0-15.594-4.169-21.708,4.103c-5.744,7.769-8.432,33.534,3.698,46.743c8.364,9.106,22.502,11.88,24.534,11.151
		C52.893,58.295,53.449,7.184,48.99,2.927z"/>
</g>
<path fill="#C63850" d="M20.268,32.871c-0.857-8.596-1.728-22.744,2.568-32.317C18.184,0.175,13.082,0.7,9.458,5.601
	c-5.743,7.769-8.432,33.534,3.699,46.743c8.364,9.106,22.501,11.88,24.534,11.151c0.063-0.021,0.118-0.063,0.179-0.085
	C27.916,56.736,21.417,44.382,20.268,32.871z"/>
<g id="g4930_20_">
	<path id="path4932_20_" inkscape:connector-curvature="0" fill="#E6D9AF" d="M35.467,24.006c0-4.496-5.63-2.783-13.134-6.061
		c-5.674-2.477-6.88,2.27-6.88,6.764c0,4.489,3.533,7.047,9.726,7.047C31.373,31.757,35.467,28.494,35.467,24.006z"/>
</g>
<g id="g4930_19_">
	<path id="path4932_19_" inkscape:connector-curvature="0" fill="#E6D9AF" d="M48.777,30.296c1.233,0,3.172-0.141,4.018-3.523
		c0.795-3.187,1.045-9.539-3.1-7.728c-5.485,2.394-8.882,3.592-8.882,6.876C40.813,29.201,44.252,30.296,48.777,30.296z"/>
</g>
<path fill="#25333A" d="M33.186,43.014c-2.03-0.929-4.149-1.134-6.355-1.2c-3.299-0.102-6.045-0.537-8.396-3.058
	c-0.116-0.123-1.033-0.127-0.992,0.063c0.022,0.104,0.042,0.205,0.062,0.31c-0.242-0.3-0.49-0.594-0.754-0.875
	c-0.117-0.126-0.994-0.162-0.99,0.062c0.006,0.388-0.017,0.771-0.038,1.157c-1.206-1.541-2.425-3.066-3.431-4.753
	c-0.102-0.172-0.935-0.146-0.99,0.064c-0.111,0.43-0.229,0.851-0.329,1.274c-0.236-0.275-0.473-0.547-0.7-0.834
	c-0.107-0.137-1.008-0.143-0.99,0.063c0.532,5.519,1.235,14.018,8.566,13.906c5.162-0.077,9.856-3.053,14.245-5.56
	C32.208,43.633,33.213,43.025,33.186,43.014z"/>
<path fill="#25333A" d="M49.673,42.474c-0.058,0.004-0.117,0.007-0.176,0.008c-2.206,0.066-4.325,0.271-6.355,1.202
	c-0.025,0.011,0.979,0.619,1.093,0.619c1.49,0.851,3.016,1.752,4.584,2.58C49.187,45.427,49.55,43.97,49.673,42.474z"/>
<path fill="#25333A" d="M35.321,16.228c-5.067-3.253-9.535-7.412-15.203-9.662c-0.132-0.053-1.228-0.159-1.179,0.119
	c0.112,0.643,0.306,1.254,0.48,1.878c-0.758-0.286-1.5-0.565-2.347-0.645c-0.087-0.009-1.012-0.042-0.952,0.175
	c0.07,0.26,0.141,0.517,0.212,0.776c0.021,0.08,0.119,0.128,0.251,0.153c4.049,5.684,8.569,11.053,15.496,13.113
	c1.706,0.507,3.653,0.76,5.341,0.077C40.378,21.017,35.284,16.146,35.321,16.228z"/>
<g id="g4950_10_">
	<path id="path4952_10_" inkscape:connector-curvature="0" fill="#25333A" d="M31.506,25.651c0,2.567-1.714,4.645-3.83,4.645
		c-2.121,0-3.836-2.077-3.836-4.645c0-2.564,1.715-4.646,3.836-4.646C29.792,21.005,31.506,23.087,31.506,25.651z"/>
</g>
<g id="g4950_9_">
	<path id="path4952_9_" inkscape:connector-curvature="0" fill="#25333A" d="M52.137,25.651c0,2.567-1.713,4.645-3.828,4.645
		c-2.121,0-3.837-2.077-3.837-4.645c0-2.564,1.716-4.646,3.837-4.646C50.424,21.005,52.137,23.087,52.137,25.651z"/>
</g>
<g id="g4930_18_">
	<path id="path4932_18_" inkscape:connector-curvature="0" fill="#681624" d="M46.813,39.268c4.484-0.313,15.703-2.341,15.521-8.534
		c-0.282-9.561-11.157-5.933-13.607-4.882c-4.732,2.033-13.039,3.204-12.605,9.381C36.555,41.411,42.335,39.581,46.813,39.268z"/>
</g>
<path fill="#25333A" d="M40.579,22.259c1.505,0.609,3.244,0.383,4.77-0.069c6.179-1.838,10.215-6.631,13.829-11.705
	c0.117-0.023,0.205-0.065,0.225-0.138c0.063-0.23,0.125-0.461,0.188-0.692c0.055-0.194-0.77-0.165-0.848-0.158
	c-0.756,0.073-1.418,0.321-2.095,0.578c0.154-0.557,0.327-1.104,0.429-1.676c0.043-0.25-0.937-0.155-1.052-0.107
	c-5.061,2.01-9.049,5.721-13.571,8.625C42.484,16.845,37.939,21.192,40.579,22.259z"/>
<path fill="#F6F3B0" d="M47.66,48.554c-2.095-1.649-4.857-2.521-7.991-2.521c-4.132,0-8.868,1.545-12.361,4.034
	c-0.91,0.647-1.273,1.77-0.924,2.861c0.322,1.009,1.173,1.688,2.115,1.688c0.447,0,0.897-0.153,1.3-0.44
	c2.439-1.735,6.339-3.589,9.969-3.589c1.928,0,3.567,0.52,4.871,1.547c0.452,0.355,0.975,0.544,1.513,0.545
	c1.012,0,1.952-0.677,2.286-1.645C48.751,50.127,48.453,49.176,47.66,48.554z"/>
</svg>
