<?xml version="1.0" encoding="UTF-8" standalone="no"?>
<!-- Generator: Adobe Illustrator 16.0.0, SVG Export Plug-In . SVG Version: 6.00 Build 0)  -->

<svg
   xmlns:dc="http://purl.org/dc/elements/1.1/"
   xmlns:cc="http://creativecommons.org/ns#"
   xmlns:rdf="http://www.w3.org/1999/02/22-rdf-syntax-ns#"
   xmlns:svg="http://www.w3.org/2000/svg"
   xmlns="http://www.w3.org/2000/svg"
   xmlns:sodipodi="http://sodipodi.sourceforge.net/DTD/sodipodi-0.dtd"
   xmlns:inkscape="http://www.inkscape.org/namespaces/inkscape"
   version="1.1"
   id="Layer_1"
   inkscape:export-filename="D:\TESTINGEMOJI\SVGTEST\1F508.png"
   inkscape:export-xdpi="90"
   inkscape:export-ydpi="90"
   sodipodi:docname="1F508.svg"
   inkscape:version="0.48.5 r10040"
   x="0px"
   y="0px"
   width="64px"
   height="64px"
   viewBox="0 0 64 64"
   enable-background="new 0 0 64 64"
   xml:space="preserve"><metadata
   id="metadata3011"><rdf:RDF><cc:Work
       rdf:about=""><dc:format>image/svg+xml</dc:format><dc:type
         rdf:resource="http://purl.org/dc/dcmitype/StillImage" /><dc:title></dc:title></cc:Work></rdf:RDF></metadata><defs
   id="defs3009" />
<sodipodi:namedview
   id="namedview3233"
   objecttolerance="10"
   inkscape:zoom="3.6875"
   guidetolerance="10"
   showgrid="false"
   bordercolor="#666666"
   inkscape:cx="32"
   inkscape:cy="32"
   pagecolor="#ffffff"
   borderopacity="1"
   gridtolerance="10"
   inkscape:current-layer="Layer_1"
   inkscape:window-maximized="0"
   inkscape:window-y="331"
   inkscape:window-x="647"
   inkscape:pageopacity="0"
   inkscape:window-height="480"
   inkscape:window-width="640"
   inkscape:pageshadow="2">
	</sodipodi:namedview>
<g
   id="g2997">
	<g
   id="g3201_1_">
		<path
   id="path3203_1_"
   fill="#5FA6C9"
   d="M26.631,2.899c-6.888,13.779-13.78,27.556-20.665,41.336    c-0.627,1.254,0.295,3.45,1.632,3.889c14.652,4.742,29.308,9.478,43.972,14.228c1.351,0.438,2.172-1.186,1.457-2.896    c-3.882-9.258-7.772-18.534-11.655-27.789c-3.884-9.264-7.77-18.528-11.656-27.795C28.998,2.166,27.266,1.609,26.631,2.899z" />
	</g>
	<g
   id="g3205_1_">
		<path
   id="path3207_1_"
   fill="#66B1DE"
   d="M26.825,2.381C20.991,14.052,15.151,25.712,9.329,37.375    c-0.529,1.063,0.249,2.921,1.38,3.293c12.404,4.022,24.814,8.027,37.223,12.048c1.145,0.368,1.844-1.009,1.238-2.456    c-3.288-7.837-6.578-15.685-9.862-23.519c-3.291-7.841-6.582-15.689-9.87-23.529C28.831,1.763,27.363,1.299,26.825,2.381z" />
	</g>
	<g
   id="g3209_1_">
		<path
   id="path3211_1_"
   fill="#2B7F99"
   d="M1.08,34.646c2.025,4.822,4.043,9.644,6.071,14.471c1.286,3.072,2.574,6.138,3.859,9.206    c0.084,0.197,0.239,0.321,0.347,0.275c2.674-1.121,5.349-2.24,8.024-3.365c1.53-0.642,3.058-1.281,4.59-1.926    c0.107-0.04,0.126-0.239,0.048-0.44c-2.028-4.827-4.046-9.645-6.073-14.471c-1.284-3.067-2.572-6.136-3.859-9.204    c-0.041-0.109-0.102-0.178-0.155-0.228l-0.015-0.003c-0.005-0.005-0.005-0.005-0.005-0.005c-0.054-0.044-0.116-0.064-0.17-0.041    c-2.678,1.122-5.348,2.244-8.024,3.363c-1.529,0.641-3.06,1.284-4.591,1.929C1.018,34.247,0.998,34.443,1.08,34.646z" />
	</g>
	<path
   id="path3225_1_"
   fill="#2B7F99"
   d="M34.314,34.384c7.167,17.1,15.541,29.891,18.698,28.567   c3.157-1.328-0.096-16.263-7.271-33.362C38.569,12.486,30.2-0.303,27.04,1.02C23.884,2.346,27.139,17.284,34.314,34.384z" />
	<path
   id="path3227_1_"
   fill="#5FA6C9"
   d="M36.1,33.862c6.161,14.685,12.948,25.834,15.163,24.902   c2.213-0.926-0.989-13.582-7.143-28.263C37.961,15.813,31.175,4.665,28.96,5.592C26.747,6.523,29.948,19.172,36.1,33.862z" />
	<g
   id="g3229_1_">
		<path
   id="path3231_1_"
   fill="#72C1E8"
   d="M46.742,29.411c1.442,3.43,0.478,7.108-2.154,8.216    c-2.633,1.102-5.941-0.785-7.384-4.217c-1.438-3.43-0.464-7.104,2.173-8.207C42.011,24.099,45.31,25.978,46.742,29.411z" />
	</g>
</g>
</svg>