<?xml version="1.0" encoding="UTF-8" standalone="no"?>
<!-- Generator: Adobe Illustrator 16.0.0, SVG Export Plug-In . SVG Version: 6.00 Build 0)  -->

<svg
   xmlns:dc="http://purl.org/dc/elements/1.1/"
   xmlns:cc="http://creativecommons.org/ns#"
   xmlns:rdf="http://www.w3.org/1999/02/22-rdf-syntax-ns#"
   xmlns:svg="http://www.w3.org/2000/svg"
   xmlns="http://www.w3.org/2000/svg"
   xmlns:sodipodi="http://sodipodi.sourceforge.net/DTD/sodipodi-0.dtd"
   xmlns:inkscape="http://www.inkscape.org/namespaces/inkscape"
   version="1.1"
   id="Layer_1"
   x="0px"
   y="0px"
   width="64px"
   height="64px"
   viewBox="0 0 64 64"
   enable-background="new 0 0 64 64"
   xml:space="preserve"
   inkscape:version="0.48.5 r10040"
   sodipodi:docname="1F561.svg"
   inkscape:export-filename="D:\TESTINGEMOJI\SVGTEST\1F561.png"
   inkscape:export-xdpi="90"
   inkscape:export-ydpi="90"><metadata
   id="metadata3002"><rdf:RDF><cc:Work
       rdf:about=""><dc:format>image/svg+xml</dc:format><dc:type
         rdf:resource="http://purl.org/dc/dcmitype/StillImage" /><dc:title></dc:title></cc:Work></rdf:RDF></metadata><defs
   id="defs3000" /><sodipodi:namedview
   pagecolor="#ffffff"
   bordercolor="#666666"
   borderopacity="1"
   objecttolerance="10"
   gridtolerance="10"
   guidetolerance="10"
   inkscape:pageopacity="0"
   inkscape:pageshadow="2"
   inkscape:window-width="640"
   inkscape:window-height="480"
   id="namedview2998"
   showgrid="false"
   inkscape:zoom="7.265625"
   inkscape:cx="32"
   inkscape:cy="32"
   inkscape:window-x="655"
   inkscape:window-y="395"
   inkscape:window-maximized="0"
   inkscape:current-layer="Layer_1" />
<g
   id="g2986">
	<path
   fill="#E0E7EC"
   d="M61.63,31.994c0,16.366-13.27,29.636-29.638,29.636c-16.369,0-29.637-13.27-29.637-29.636   c0-16.371,13.269-29.639,29.637-29.639C48.36,2.355,61.63,15.624,61.63,31.994z"
   id="path2988" />
	<path
   fill="#D1D7DA"
   d="M52.288,47.162c-16.369,0-29.638-13.269-29.638-29.639c0-5.441,1.494-10.524,4.052-14.908   C12.923,5.161,2.48,17.22,2.48,31.736c0,16.367,13.269,29.636,29.635,29.636c10.928,0,20.447-5.928,25.586-14.728   C55.945,46.97,54.141,47.162,52.288,47.162z"
   id="path2990" />
	<path
   fill="#98A9B4"
   d="M31.994,0C14.353,0,0,14.353,0,31.994c0,17.642,14.353,31.994,31.994,31.994   c17.642,0,31.992-14.353,31.992-31.994C63.986,14.353,49.636,0,31.994,0z M31.994,57.76c-14.207,0-25.766-11.56-25.766-25.766   c0-14.207,11.559-25.766,25.766-25.766c14.206,0,25.764,11.559,25.764,25.766C57.758,46.2,46.2,57.76,31.994,57.76z"
   id="path2992" />
	<path
   fill="#85939C"
   d="M33.871,52.95c0,1.437-0.848,2.603-1.89,2.603l0,0c-1.041,0-1.89-1.166-1.89-2.603v-21.08   c0-1.438,0.849-2.605,1.89-2.605l0,0c1.042,0,1.89,1.167,1.89,2.605V52.95z"
   id="path2994" />
	<path
   fill="#788288"
   d="M30.102,31.871c0-1.438,0.845-2.605,1.888-2.605l0,0c1.043,0,1.891,1.168,1.891,2.605l0.005,15.253   c0,1.436-0.85,2.604-1.888,2.602l0,0c-1.043,0.002-1.892-1.166-1.892-2.6L30.102,31.871z"
   id="path2996" />
</g>
</svg>