<?xml version="1.0" encoding="utf-8"?>
<!-- Generator: Adobe Illustrator 16.0.0, SVG Export Plug-In . SVG Version: 6.00 Build 0)  -->
<!DOCTYPE svg PUBLIC "-//W3C//DTD SVG 1.1//EN" "http://www.w3.org/Graphics/SVG/1.1/DTD/svg11.dtd">
<svg version="1.1"
	 id="Layer_1" xmlns:dc="http://purl.org/dc/elements/1.1/" xmlns:inkscape="http://www.inkscape.org/namespaces/inkscape" xmlns:sodipodi="http://sodipodi.sourceforge.net/DTD/sodipodi-0.dtd" xmlns:svg="http://www.w3.org/2000/svg" xmlns:rdf="http://www.w3.org/1999/02/22-rdf-syntax-ns#" xmlns:cc="http://creativecommons.org/ns#" inkscape:export-ydpi="90" inkscape:export-xdpi="90" inkscape:export-filename="D:\TESTINGEMOJI\SVGTEST\1F628.png" sodipodi:docname="1F628.svg" inkscape:version="0.48.5 r10040"
	 xmlns="http://www.w3.org/2000/svg" xmlns:xlink="http://www.w3.org/1999/xlink" x="0px" y="0px" width="64px" height="64px"
	 viewBox="0 0 64 64" enable-background="new 0 0 64 64" xml:space="preserve">
<sodipodi:namedview  id="namedview6457" inkscape:cy="32" inkscape:cx="32" inkscape:zoom="3.6875" showgrid="false" guidetolerance="10" gridtolerance="10" objecttolerance="10" bordercolor="#666666" borderopacity="1" pagecolor="#ffffff" inkscape:current-layer="Layer_1" inkscape:window-maximized="0" inkscape:window-y="256" inkscape:window-x="625" inkscape:window-height="480" inkscape:window-width="640" inkscape:pageshadow="2" inkscape:pageopacity="0">
	</sodipodi:namedview>
<g id="g6388">
	<g id="g6390">
		<path id="path6397" fill="#FBB041" d="M63.958,31.98c0,17.665-14.313,31.979-31.979,31.979C14.315,63.959,0,49.645,0,31.98
			C0,14.315,14.315,0,31.979,0C49.645,0,63.958,14.315,63.958,31.98z"/>
	</g>
</g>
<g id="g6399">
	<ellipse id="ellipse6401" fill="#25333A" cx="42.859" cy="25.305" rx="4.205" ry="5.099"/>
</g>
<g id="g6403">
	<path id="path6405" fill="#25333A" d="M25.072,25.305c0,2.816-1.882,5.099-4.203,5.099c-2.327,0-4.21-2.283-4.21-5.099
		c0-2.817,1.884-5.101,4.21-5.101C23.19,20.204,25.072,22.487,25.072,25.305z"/>
</g>
<g id="g6407">
	<path id="path6409" fill="#633D19" d="M42.794,54.574c-0.288,0-5.524-1.672-10.815-1.672c-4.72,0-9.488,1.672-10.809,1.672
		c-1.149,0-1.576-2.174-0.881-3.473c6.324-11.914,17.057-11.914,23.389,0C44.363,52.4,43.938,54.574,42.794,54.574z"/>
</g>
<g id="g6411">
	<g id="g6413">
		<g id="g6415">
			<ellipse id="ellipse6417" fill="#FFFFFF" cx="20.984" cy="25.305" rx="6.5" ry="9.732"/>
		</g>
	</g>
	<g id="g6419">
		<g id="g6421">
			<ellipse id="ellipse6423" fill="#FFFFFF" cx="42.979" cy="25.305" rx="6.5" ry="9.732"/>
		</g>
	</g>
	<g id="g6425">
		<g id="g6427">
			<ellipse id="ellipse6429" fill="#25333A" cx="20.984" cy="25.305" rx="4.205" ry="5.099"/>
		</g>
	</g>
	<g id="g6431">
		<g id="g6433">
			<path id="path6435" fill="#25333A" d="M47.184,25.305c0,2.816-1.881,5.099-4.205,5.099s-4.205-2.283-4.205-5.099
				c0-2.817,1.881-5.101,4.205-5.101S47.184,22.487,47.184,25.305z"/>
		</g>
	</g>
</g>
<g id="g6437">
	<g id="g6439">
		<path id="path6441" fill="#633D19" d="M22.821,3.772c-3.918,4.179-8.318,7.386-13.604,9.626c-1.205,0.511-0.272,2.307,0.92,1.801
			c5.439-2.305,10.001-5.621,14.034-9.922C25.059,4.333,23.712,2.824,22.821,3.772z"/>
	</g>
	<g id="g6443">
		<path id="path6445" fill="#633D19" d="M9.719,16.049L9.719,16.049c-0.845,0-1.611-0.648-1.785-1.507
			c-0.162-0.796,0.225-1.519,0.987-1.841c5.013-2.123,9.377-5.214,13.347-9.446c0.828-0.881,2.314-0.531,2.796,0.581
			c0.292,0.675,0.162,1.426-0.339,1.961c-4.234,4.517-8.907,7.819-14.291,10.102C10.201,15.998,9.96,16.049,9.719,16.049z
			 M23.457,4.23c-4.201,4.452-8.733,7.659-13.943,9.867c-0.083,0.352,0.11,0.498,0.328,0.405c5.187-2.198,9.691-5.386,13.777-9.743
			c0.04-0.043,0.132-0.142,0.056-0.32C23.615,4.304,23.5,4.23,23.457,4.23z"/>
	</g>
</g>
<g id="g6447">
	<g id="g6449">
		<path id="path6451" fill="#633D19" d="M42.654,3.772c3.918,4.179,8.318,7.386,13.604,9.626c1.204,0.511,0.271,2.307-0.921,1.801
			c-5.438-2.305-10.001-5.621-14.034-9.922C40.416,4.333,41.764,2.824,42.654,3.772z"/>
	</g>
	<g id="g6453">
		<path id="path6455" fill="#633D19" d="M55.756,16.049c-0.24,0-0.48-0.051-0.715-0.15c-5.384-2.283-10.057-5.585-14.291-10.102
			c-0.502-0.535-0.632-1.286-0.34-1.961c0.482-1.112,1.967-1.463,2.797-0.581c3.971,4.232,8.334,7.323,13.348,9.446
			c0.762,0.322,1.148,1.045,0.986,1.841C57.367,15.401,56.602,16.049,55.756,16.049z M42.01,4.27c-0.089,0-0.166,0.067-0.209,0.17
			c-0.076,0.178,0.016,0.276,0.055,0.32c4.088,4.357,8.592,7.544,13.778,9.743l0.122,0.029c0.143,0,0.271-0.154,0.301-0.292
			c-5.306-2.35-9.838-5.558-13.955-9.948C42.068,4.278,42.04,4.27,42.01,4.27z"/>
	</g>
</g>
</svg>
