<?xml version="1.0" encoding="utf-8"?>
<!-- Generator: Adobe Illustrator 16.0.0, SVG Export Plug-In . SVG Version: 6.00 Build 0)  -->
<!DOCTYPE svg PUBLIC "-//W3C//DTD SVG 1.1//EN" "http://www.w3.org/Graphics/SVG/1.1/DTD/svg11.dtd">
<svg version="1.1"
	 id="Layer_1" xmlns:svg="http://www.w3.org/2000/svg" xmlns:inkscape="http://www.inkscape.org/namespaces/inkscape" xmlns:dc="http://purl.org/dc/elements/1.1/" xmlns:rdf="http://www.w3.org/1999/02/22-rdf-syntax-ns#" xmlns:cc="http://creativecommons.org/ns#" xmlns:sodipodi="http://sodipodi.sourceforge.net/DTD/sodipodi-0.dtd" inkscape:export-filename="D:\TESTINGEMOJI\SVGTEST\1F62A.png" inkscape:export-xdpi="90" inkscape:export-ydpi="90" sodipodi:docname="1F62A.svg" inkscape:version="0.48.5 r10040"
	 xmlns="http://www.w3.org/2000/svg" xmlns:xlink="http://www.w3.org/1999/xlink" x="0px" y="0px" width="64px" height="64px"
	 viewBox="0 0 64 64" enable-background="new 0 0 64 64" xml:space="preserve">
<g>
	<g>
		<g>
			<circle fill="#FBB041" cx="32" cy="31.922" r="31.932"/>
		</g>
	</g>
	<g opacity="0.9866">
		<g>
			<g>
				<path fill="#E79D3C" d="M15.265,41.155c-5.66-12.142-5.912-25.207-0.796-36.01c-8.669,5.707-14.4,15.516-14.4,26.674
					c0,17.638,14.294,31.93,31.932,31.93c0.315,0,0.621-0.037,0.935-0.048C25.614,57.541,19.446,50.128,15.265,41.155z"/>
			</g>
		</g>
	</g>
	<g>
		<path fill="#633D19" d="M36.105,30.686c0-3.153,4.254,0.379,8.011,0.379s8.011-3.532,8.011-0.379c0,3.151-4.254,6.555-8.011,6.555
			S36.105,33.837,36.105,30.686z"/>
		<path fill="#633D19" d="M11.873,30.686c0-3.153,4.254,0.379,8.011,0.379s8.01-3.532,8.01-0.379c0,3.151-4.253,6.555-8.01,6.555
			S11.873,33.837,11.873,30.686z"/>
	</g>
	<g>
		<g>
			<g>
				<path fill="#28A6DE" d="M55.743,44.729c3.471,3.171,4.163,8.052,1.557,10.907c-2.611,2.852-7.529,2.598-11.001-0.573
					c-3.467-3.172-9.903-13.296-7.294-16.151C41.613,36.06,52.28,41.562,55.743,44.729z"/>
			</g>
		</g>
		<g>
			<g>
				<path fill="#58C5E8" d="M39.206,38.694c2.94-2.41,13.223,2.916,16.634,6.032c3.493,3.195,4.192,8.113,1.57,10.988
					c-1.199,1.31-2.89,1.937-4.697,1.96C52.102,49.615,46.774,42.397,39.206,38.694z"/>
			</g>
		</g>
	</g>
	<g>
		<path fill="#633D19" d="M42.799,56.963c-0.288,0-5.518-1.668-10.799-1.668c-4.713,0-9.474,1.668-10.795,1.668
			c-1.148,0-1.574-2.169-0.879-3.467c6.314-11.896,17.031-11.896,23.353,0C44.365,54.794,43.938,56.963,42.799,56.963z"/>
	</g>
	<g>
		<g>
			<path fill="#633D19" d="M26.512,12.994c-4.808,4.293-11.067,6.542-16.95,8.939c-1.209,0.493-0.278,2.286,0.919,1.799
				c6.058-2.467,12.432-4.814,17.38-9.235C28.835,13.627,27.48,12.129,26.512,12.994z"/>
		</g>
		<g>
			<path fill="#633D19" d="M10.073,24.32L10.073,24.32c-0.737,0-1.404-0.568-1.554-1.317c-0.13-0.67,0.205-1.272,0.852-1.536
				l1.822-0.736c5.277-2.122,10.734-4.318,14.984-8.113c0.783-0.702,2.061-0.31,2.427,0.651c0.221,0.58,0.069,1.179-0.408,1.605
				c-4.591,4.102-10.373,6.437-15.965,8.696L10.672,24.2C10.475,24.28,10.274,24.32,10.073,24.32z M27.151,13.239
				c-0.103,0-0.203,0.043-0.304,0.132c-4.38,3.913-9.919,6.141-15.277,8.296l-1.816,0.734c-0.205,0.083-0.28,0.211-0.243,0.406
				c0.047,0.243,0.276,0.503,0.562,0.503l0,0c0.071,0,0.142-0.016,0.217-0.045l1.562-0.633c5.514-2.225,11.213-4.528,15.674-8.511
				c0.162-0.146,0.205-0.308,0.134-0.493C27.577,13.411,27.354,13.239,27.151,13.239z"/>
		</g>
	</g>
	<g>
		<g>
			<path fill="#633D19" d="M38.053,13.012c4.808,4.291,11.066,6.54,16.949,8.937c1.209,0.493,0.278,2.288-0.919,1.799
				c-6.058-2.465-12.432-4.812-17.38-9.233C35.729,13.643,37.084,12.145,38.053,13.012z"/>
		</g>
		<g>
			<path fill="#633D19" d="M53.892,24.217l-1.558-0.631c-5.593-2.26-11.375-4.595-15.966-8.697
				c-0.478-0.426-0.629-1.025-0.408-1.605c0.367-0.958,1.645-1.353,2.428-0.65c4.25,3.794,9.706,5.991,14.983,8.113l1.822,0.737
				c0.646,0.264,0.982,0.864,0.852,1.535c-0.149,0.749-0.816,1.317-1.554,1.317l0,0C54.29,24.336,54.089,24.296,53.892,24.217z
				 M36.904,13.643c-0.07,0.186-0.027,0.347,0.135,0.493c4.46,3.983,10.159,6.287,15.674,8.511l1.562,0.635
				c0.075,0.027,0.146,0.043,0.217,0.043l0,0c0.286,0,0.515-0.261,0.562-0.501c0.038-0.197-0.037-0.324-0.242-0.406l-1.816-0.734
				c-5.357-2.157-10.897-4.386-15.277-8.298c-0.101-0.087-0.201-0.13-0.304-0.13C37.21,13.257,36.987,13.426,36.904,13.643z"/>
		</g>
	</g>
</g>
<sodipodi:namedview  id="namedview4441" objecttolerance="10" inkscape:zoom="3.6875" guidetolerance="10" showgrid="false" bordercolor="#666666" inkscape:cx="32" inkscape:cy="32" pagecolor="#ffffff" borderopacity="1" gridtolerance="10" inkscape:current-layer="Layer_1" inkscape:window-maximized="0" inkscape:window-y="245" inkscape:window-x="431" inkscape:pageopacity="0" inkscape:window-height="480" inkscape:window-width="640" inkscape:pageshadow="2">
	</sodipodi:namedview>
</svg>
