<?xml version="1.0" encoding="utf-8"?>
<!-- Generator: Adobe Illustrator 16.0.0, SVG Export Plug-In . SVG Version: 6.00 Build 0)  -->
<!DOCTYPE svg PUBLIC "-//W3C//DTD SVG 1.1//EN" "http://www.w3.org/Graphics/SVG/1.1/DTD/svg11.dtd">
<svg version="1.1"
	 id="Layer_1" xmlns:dc="http://purl.org/dc/elements/1.1/" xmlns:inkscape="http://www.inkscape.org/namespaces/inkscape" xmlns:sodipodi="http://sodipodi.sourceforge.net/DTD/sodipodi-0.dtd" xmlns:svg="http://www.w3.org/2000/svg" xmlns:rdf="http://www.w3.org/1999/02/22-rdf-syntax-ns#" xmlns:cc="http://creativecommons.org/ns#" inkscape:export-ydpi="90" inkscape:export-xdpi="90" inkscape:export-filename="D:\TESTINGEMOJI\SVGTEST\1F631.png" sodipodi:docname="1F631.svg" inkscape:version="0.48.5 r10040"
	 xmlns="http://www.w3.org/2000/svg" xmlns:xlink="http://www.w3.org/1999/xlink" x="0px" y="0px" width="64px" height="64px"
	 viewBox="0 0 64 64" enable-background="new 0 0 64 64" xml:space="preserve">
<sodipodi:namedview  id="namedview6731" inkscape:cy="32" inkscape:cx="32" inkscape:zoom="3.6875" showgrid="false" guidetolerance="10" gridtolerance="10" objecttolerance="10" bordercolor="#666666" borderopacity="1" pagecolor="#ffffff" inkscape:current-layer="Layer_1" inkscape:window-maximized="0" inkscape:window-y="218" inkscape:window-x="607" inkscape:window-height="480" inkscape:window-width="640" inkscape:pageshadow="2" inkscape:pageopacity="0">
	</sodipodi:namedview>
<path id="path6701" fill="#FBB041" d="M63.993,31.996c0,17.674-14.324,31.997-31.997,31.997C14.323,63.993,0,49.67,0,31.996
	C0,14.325,14.324,0,31.997,0S63.993,14.325,63.993,31.996z"/>
<g id="g6703">
	<path id="path6705" fill="#FFFFFF" d="M54.844,21.076c0,7.438-4.023,13.466-8.996,13.466c-4.967,0-8.992-6.028-8.992-13.466
		c0-7.441,4.025-13.47,8.992-13.47C50.818,7.606,54.844,13.635,54.844,21.076z"/>
</g>
<g id="g6707">
	<path id="path6709" fill="#FFFFFF" d="M27.462,21.076c0,7.438-4.019,13.466-8.989,13.466c-4.97,0-8.997-6.028-8.997-13.466
		c0-7.441,4.027-13.47,8.997-13.47C23.443,7.606,27.462,13.635,27.462,21.076z"/>
</g>
<g id="g6711">
	<g id="g6713">
		<path id="path6715" fill="#FBB041" d="M18.084,47.861c0,10.75-4.019,13.47-8.991,13.47c-4.968,0-4.949-4.007-4.949-11.444
			c0-7.443-6.504-20.173,4.949-15.492C13.697,36.271,18.084,40.42,18.084,47.861z"/>
		<path id="path6717" fill="#FFFFFF" d="M9.094,62.848c-3.028,0-4.915-1.295-5.774-3.959c-0.692-2.145-0.692-5.133-0.692-8.914
			c0-1.973-0.472-4.334-0.93-6.617c-0.859-4.28-1.597-7.979,0.142-10.099c0.519-0.633,1.506-1.39,3.253-1.39
			c1.233,0,2.729,0.365,4.575,1.119c6.312,2.576,9.935,7.996,9.935,14.873C19.603,57.945,16.164,62.848,9.094,62.848z M5.093,34.905
			c-0.677,0-0.849,0.209-0.906,0.278c-0.825,1.008-0.095,4.651,0.49,7.576c0.485,2.43,0.987,4.939,0.987,7.126
			c0,3.604,0,6.38,0.545,8.067c0.391,1.206,0.965,1.859,2.886,1.859c3.48,0,7.473-1.358,7.473-11.953
			c0-7.639-5.042-10.838-8.046-12.062C7.066,35.205,5.914,34.905,5.093,34.905z"/>
	</g>
</g>
<g id="g6719">
	<g id="g6721">
		<path id="path6723" fill="#FBB041" d="M45.848,48.369c0,10.75,4.02,13.466,8.992,13.466c4.967,0,4.947-4.005,4.947-11.442
			c0-7.441,6.506-20.17-4.947-15.494C50.241,36.775,45.848,40.926,45.848,48.369z"/>
		<path id="path6725" fill="#FFFFFF" d="M54.84,63.354c-7.07,0-10.507-4.903-10.507-14.983c0-6.875,3.618-12.298,9.935-14.877
			c1.842-0.752,3.34-1.118,4.572-1.118c1.748,0,2.732,0.754,3.258,1.391c1.733,2.118,0.993,5.815,0.137,10.098
			c-0.457,2.283-0.93,4.645-0.93,6.529c0,3.868,0,6.856-0.688,9C59.755,62.059,57.863,63.354,54.84,63.354z M58.84,35.408
			c-0.82,0-1.975,0.302-3.427,0.895c-3.003,1.229-8.046,4.428-8.046,12.066c0,10.59,3.994,11.947,7.473,11.947
			c1.924,0,2.495-0.651,2.885-1.857c0.547-1.688,0.547-4.465,0.547-7.979c0-2.271,0.502-4.785,0.986-7.213
			c0.586-2.928,1.314-6.57,0.487-7.582C59.688,35.617,59.518,35.408,58.84,35.408z"/>
	</g>
</g>
<g id="g6727">
	<path id="path6729" fill="#633C17" d="M41.838,49.97c0,8.88-3.982,8.714-9.419,8.714c-5.434,0-10.264,0.166-10.264-8.714
		c0-8.883,4.408-16.079,9.844-16.079C37.436,33.891,41.838,41.087,41.838,49.97z"/>
</g>
</svg>
