<?xml version="1.0" encoding="utf-8"?>
<!-- Generator: Adobe Illustrator 16.0.0, SVG Export Plug-In . SVG Version: 6.00 Build 0)  -->
<!DOCTYPE svg PUBLIC "-//W3C//DTD SVG 1.1//EN" "http://www.w3.org/Graphics/SVG/1.1/DTD/svg11.dtd">
<svg version="1.1"
	 id="Layer_1" xmlns:dc="http://purl.org/dc/elements/1.1/" xmlns:inkscape="http://www.inkscape.org/namespaces/inkscape" xmlns:sodipodi="http://sodipodi.sourceforge.net/DTD/sodipodi-0.dtd" xmlns:svg="http://www.w3.org/2000/svg" xmlns:rdf="http://www.w3.org/1999/02/22-rdf-syntax-ns#" xmlns:cc="http://creativecommons.org/ns#" inkscape:export-ydpi="90" inkscape:export-xdpi="90" inkscape:export-filename="D:\TESTINGEMOJI\SVGTEST\1F630.png" sodipodi:docname="1F630.svg" inkscape:version="0.48.5 r10040"
	 xmlns="http://www.w3.org/2000/svg" xmlns:xlink="http://www.w3.org/1999/xlink" x="0px" y="0px" width="64px" height="64px"
	 viewBox="0 0 64 64" enable-background="new 0 0 64 64" xml:space="preserve">
<sodipodi:namedview  id="namedview6639" inkscape:cy="32" inkscape:cx="32" inkscape:zoom="3.6875" showgrid="false" guidetolerance="10" gridtolerance="10" objecttolerance="10" bordercolor="#666666" borderopacity="1" pagecolor="#ffffff" inkscape:current-layer="Layer_1" inkscape:window-maximized="0" inkscape:window-y="271" inkscape:window-x="619" inkscape:window-height="480" inkscape:window-width="640" inkscape:pageshadow="2" inkscape:pageopacity="0">
	</sodipodi:namedview>
<g id="g6592">
	<path id="path6599" fill="#8AE2F9" d="M63.962,31.979c0,17.666-14.313,31.979-31.979,31.979C14.319,63.958,0,49.645,0,31.979
		C0,14.319,14.319,0,31.983,0C49.646,0,63.962,14.319,63.962,31.979z"/>
</g>
<g id="g6601">
	<path id="path6603" fill="#FFFFFF" d="M27.365,28.483c0,5.376-2.903,9.732-6.494,9.732c-3.59,0-6.5-4.355-6.5-9.732
		c0-5.378,2.909-9.733,6.5-9.733C24.462,18.75,27.365,23.105,27.365,28.483z"/>
</g>
<g id="g6605">
	<path id="path6607" fill="#FFFFFF" d="M49.361,28.483c0,5.376-2.905,9.732-6.496,9.732c-3.596,0-6.5-4.355-6.5-9.732
		c0-5.378,2.904-9.733,6.5-9.733C46.456,18.75,49.361,23.105,49.361,28.483z"/>
</g>
<g id="g6609">
	<path id="path6611" fill="#25333A" d="M25.074,28.483c0,2.816-1.884,5.098-4.203,5.098c-2.327,0-4.208-2.281-4.208-5.098
		s1.882-5.1,4.208-5.1C23.19,23.384,25.074,25.667,25.074,28.483z"/>
</g>
<g id="g6613">
	<path id="path6615" fill="#25333A" d="M47.066,28.483c0,2.816-1.879,5.098-4.201,5.098c-2.326,0-4.207-2.281-4.207-5.098
		s1.881-5.1,4.207-5.1C45.188,23.384,47.066,25.667,47.066,28.483z"/>
</g>
<g id="g6617">
	<path id="path6619" fill="#25333A" d="M27.255,7.639c-0.413,0.113-0.818,0.227-1.227,0.344c-0.063,0.016-0.101,0.051-0.152,0.075
		c-0.06,0.027-0.123,0.049-0.174,0.091c-0.095,0.071-0.162,0.154-0.221,0.245c-0.012,0.02-0.032,0.028-0.043,0.047
		c-2.153,3.705-5.834,5.439-10.055,4.57c-2.262-0.466-2.348-1.41-4.465-0.82c-0.869,0.243-0.913,1.337-0.221,1.792
		c6.32,4.187,14.425,1.928,17.672-4.922C28.72,8.315,28.12,7.398,27.255,7.639z"/>
</g>
<g id="g6621">
	<path id="path6623" fill="#25333A" d="M36.707,7.639c0.406,0.113,0.816,0.227,1.223,0.344c0.063,0.016,0.104,0.051,0.156,0.075
		c0.059,0.027,0.116,0.049,0.174,0.091c0.096,0.071,0.162,0.154,0.221,0.245c0.008,0.02,0.025,0.028,0.045,0.047
		c2.147,3.705,5.834,5.439,10.049,4.57c2.267-0.466,2.354-1.41,4.471-0.82c0.867,0.243,0.909,1.337,0.223,1.792
		c-6.32,4.187-14.427,1.928-17.674-4.922C35.234,8.315,35.842,7.398,36.707,7.639z"/>
</g>
<g id="g6627">
	<path id="path6629" fill="#28A6DE" d="M0.82,52.602c0,4.707,3.136,8.52,7.007,8.52c3.875,0,7.013-3.813,7.013-8.52
		c0-4.703-3.138-16.302-7.013-16.302C3.956,36.3,0.82,47.896,0.82,52.602z"/>
</g>
<g id="g6631">
	<path id="path6633" fill="#3FC1EF" d="M7.537,36.3c-3.772,0.546-6.782,11.748-6.782,16.371c0,4.742,3.16,8.583,7.059,8.583
		c1.782,0,3.385-0.822,4.625-2.143C6.891,53.214,5.159,44.396,7.537,36.3z"/>
</g>
<g id="g6635">
	<path id="path6637" fill="#25333A" d="M43.012,56.165c-0.289,0-5.523-1.671-10.815-1.671c-4.72,0-9.488,1.671-10.809,1.671
		c-1.149,0-1.576-2.173-0.881-3.474c6.324-11.912,17.056-11.912,23.388,0C44.581,53.992,44.154,56.165,43.012,56.165z"/>
</g>
</svg>
