<?xml version="1.0" encoding="UTF-8" standalone="no"?>
<!-- Generator: Adobe Illustrator 16.0.0, SVG Export Plug-In . SVG Version: 6.00 Build 0)  -->

<svg
   xmlns:dc="http://purl.org/dc/elements/1.1/"
   xmlns:cc="http://creativecommons.org/ns#"
   xmlns:rdf="http://www.w3.org/1999/02/22-rdf-syntax-ns#"
   xmlns:svg="http://www.w3.org/2000/svg"
   xmlns="http://www.w3.org/2000/svg"
   xmlns:sodipodi="http://sodipodi.sourceforge.net/DTD/sodipodi-0.dtd"
   xmlns:inkscape="http://www.inkscape.org/namespaces/inkscape"
   version="1.1"
   id="Layer_1"
   inkscape:export-ydpi="90"
   inkscape:export-xdpi="90"
   inkscape:export-filename="D:\TESTINGEMOJI\SVGTEST\1F683.png"
   sodipodi:docname="1F683.svg"
   inkscape:version="0.48.5 r10040"
   x="0px"
   y="0px"
   width="64px"
   height="64px"
   viewBox="0 0 64 64"
   enable-background="new 0 0 64 64"
   xml:space="preserve"><metadata
   id="metadata3198"><rdf:RDF><cc:Work
       rdf:about=""><dc:format>image/svg+xml</dc:format><dc:type
         rdf:resource="http://purl.org/dc/dcmitype/StillImage" /><dc:title></dc:title></cc:Work></rdf:RDF></metadata><defs
   id="defs3196" />
<path
   id="path42669_1_"
   inkscape:connector-curvature="0"
   fill="#243438"
   d="M19.735,50.083c0,3.629-2.642,6.567-5.896,6.567  c-3.264,0-5.9-2.938-5.9-6.567c0-3.625,2.638-6.563,5.9-6.563C17.094,43.518,19.735,46.458,19.735,50.083z" />
<ellipse
   id="ellipse42671_1_"
   sodipodi:cx="46.648998"
   sodipodi:ry="6.5679998"
   sodipodi:rx="5.9000001"
   sodipodi:cy="47.311001"
   fill="#243438"
   cx="46.779"
   cy="50.083"
   rx="5.9"
   ry="6.567">
</ellipse>
<path
   id="path42673_1_"
   inkscape:connector-curvature="0"
   fill="#A2C3CB"
   d="M1.159,58.021c12.621,0,25.24,0,37.862,0  c8.025,0,16.06,0,24.082,0c0.519,0,0.939-0.022,0.939-0.051c0-0.658,0-1.324,0-1.986c0-0.379,0-0.756,0-1.139  c0-0.027-0.424-0.047-0.939-0.047c-12.617,0-25.235,0-37.859,0c-8.033,0-16.058,0-24.084,0c-0.281,0-0.494,0.004-0.642,0.012  l-0.02,0.004c-0.014,0-0.018,0-0.018,0c-0.16,0.009-0.263,0.021-0.263,0.031c0,0.662,0,1.324,0,1.986c0,0.383,0,0.76,0,1.139  C0.219,57.999,0.647,58.021,1.159,58.021z" />
<g
   id="g42675_1_">
	<rect
   id="rect42677_1_"
   x="0.131"
   y="8.083"
   fill="#CDCCCB"
   width="63.824"
   height="1.668" />
</g>
<path
   id="path42679_1_"
   inkscape:connector-curvature="0"
   fill="#243438"
   d="M22.364,2.772L10.54,9.751l11.824,6.979l11.824-6.979  L22.364,2.772z M22.364,13.961L13.229,9.75l9.135-5.213l9.132,5.213L22.364,13.961z" />
<polygon
   id="polygon42681_1_"
   fill="#CDCCCB"
   points="4.342,21.769 10.321,12.418 53.238,12.418 59.229,21.769 " />
<polygon
   id="polygon42683_1_"
   fill="#A7A8AC"
   points="6.698,19.836 12.192,14.165 51.609,14.165 57.113,19.836 " />
<path
   id="path42685_1_"
   inkscape:connector-curvature="0"
   fill="#E1AD81"
   d="M60.484,19.116c0-0.414-0.342-0.76-0.754-0.76  c-18.813,0-37.62,0-56.434,0c-0.411,0-0.75,0.346-0.75,0.76c0,9.323,0,18.649,0,27.975c0,0.412,0.339,0.757,0.75,0.757  c18.813,0,37.619,0,56.434,0c0.209,0,0.36-0.076,0.479-0.188c0.02-0.011,0.035-0.021,0.035-0.021  c0.025-0.031,0.041-0.046,0.053-0.064c0.105-0.117,0.188-0.273,0.188-0.48C60.484,37.766,60.484,28.439,60.484,19.116z" />
<path
   id="path42687_3_"
   inkscape:connector-curvature="0"
   fill="#F48020"
   d="M60.484,38.773c0-0.168-0.342-0.314-0.754-0.314  c-18.812,0-37.62,0-56.434,0c-0.408,0-0.75,0.146-0.75,0.314c0,3.819,0,7.644,0,11.459c0,0.17,0.342,0.312,0.75,0.312  c18.813,0,37.623,0,56.434,0c0.207,0,0.36-0.033,0.479-0.078c0,0,0.031-0.008,0.053-0.018c0.016-0.007,0.029-0.011,0.037-0.021  c0.105-0.047,0.188-0.111,0.188-0.195C60.484,46.417,60.484,42.594,60.484,38.773z" />
<rect
   id="rect42691_1_"
   x="2.546"
   y="22.98"
   fill="#C2793E"
   width="57.938"
   height="14.879" />
<rect
   id="rect42693_1_"
   x="14.092"
   y="24.329"
   fill="#A2C3CB"
   width="42.126"
   height="10.843" />
<rect
   id="rect42699_1_"
   x="20.729"
   y="23.821"
   fill="#C2793E"
   width="1.688"
   height="11.857" />
<rect
   id="rect42701_1_"
   x="27.995"
   y="23.724"
   fill="#C2793E"
   width="1.688"
   height="11.854" />
<rect
   id="rect42703_1_"
   x="34.881"
   y="23.821"
   fill="#C2793E"
   width="1.684"
   height="11.857" />
<rect
   id="rect42705_1_"
   x="41.027"
   y="23.724"
   fill="#C2793E"
   width="1.682"
   height="11.854" />
<rect
   id="rect42707_1_"
   x="47.699"
   y="23.821"
   fill="#C2793E"
   width="1.682"
   height="11.857" />
<path
   id="path42711_1_"
   inkscape:connector-curvature="0"
   fill="#A2C3CB"
   d="M4.971,24.583c0,2.104,0,4.208,0,6.317  c0,1.341,0,2.679,0,4.021c0,0.082,0.045,0.154,0.102,0.154c1.359,0,2.726,0,4.093,0c0.776,0,1.56,0,2.339,0  c0.059,0,0.102-0.072,0.102-0.154c0-2.106,0-4.215,0-6.317c0-1.34,0-2.673,0-4.02c0-0.045-0.008-0.084-0.027-0.107h-0.002v-0.004  c-0.018-0.025-0.041-0.047-0.071-0.047c-1.364,0-2.728,0-4.093,0c-0.78,0-1.559,0-2.338,0C5.016,24.422,4.971,24.499,4.971,24.583z" />
<path
   id="path42713_1_"
   inkscape:connector-curvature="0"
   fill="#F38F37"
   d="M60.484,37.904c0-0.025-0.342-0.045-0.752-0.045  c-18.812,0-37.622,0-56.429,0c-0.408,0-0.756,0.02-0.756,0.045c0,0.535,0,1.072,0,1.606c0,0.023,0.348,0.044,0.756,0.044  c18.809,0,37.619,0,56.429,0c0.203,0,0.358-0.003,0.479-0.011c0.018,0,0.033,0,0.033,0c0.029-0.004,0.045-0.004,0.055-0.006  c0.105-0.011,0.188-0.017,0.188-0.027C60.484,38.977,60.484,38.439,60.484,37.904z" />
<sodipodi:namedview
   inkscape:cy="32"
   inkscape:cx="32"
   inkscape:zoom="3.6875"
   showgrid="false"
   guidetolerance="10"
   gridtolerance="10"
   objecttolerance="10"
   borderopacity="1"
   pagecolor="#ffffff"
   bordercolor="#666666"
   id="namedview3233"
   inkscape:current-layer="Layer_1"
   inkscape:window-maximized="0"
   inkscape:window-y="331"
   inkscape:window-x="647"
   inkscape:window-height="480"
   inkscape:window-width="640"
   inkscape:pageshadow="2"
   inkscape:pageopacity="0">
	</sodipodi:namedview>
<path
   id="path4050_1_"
   fill="#E4E4E4"
   d="M20.584,51.215c-0.121-4.154-3.178-7.482-6.938-7.482c-3.763,0-6.82,3.328-6.947,7.482  H20.584z" />
<path
   id="path4050_2_"
   fill="#E4E4E4"
   d="M53.723,51.215c-0.121-4.154-3.178-7.482-6.938-7.482c-3.763,0-6.82,3.328-6.947,7.482  H53.723z" />
</svg>