<svg xmlns="http://www.w3.org/2000/svg" viewBox="0 0 64 64" enable-background="new 0 0 64 64"><path fill="#ec1c24" d="m63.906 57.02c0 3.806-3.085 6.892-6.89 6.892h-50.14c-3.803 0-6.891-3.086-6.891-6.892v-50.13c0-3.81 3.088-6.893 6.891-6.893h50.14c3.805 0 6.89 3.083 6.89 6.893v50.13z"/><path fill="#c32129" d="m-.013 48.67v8.355c0 3.81 3.086 6.894 6.889 6.894h50.14c3.807 0 6.89-3.084 6.89-6.894v-50.14c-10.915 39.647-50.15 42.16-63.92 41.781"/><path fill="#fff" d="m62.19 18.07c-.066-.573-.298-1.048-.482-1.43l-.014-.025c-.06-.124-.116-.237-.161-.343l-.041-.094c-.058-.103-.11-.208-.177-.334l-.045-.079c-.022-.043-.046-.086-.069-.122l-.157-.291c-.08-.134-.163-.283-.267-.463l-.099-.161c-.035-.062-.07-.124-.102-.181l-.062-.102c-.116-.196-.238-.408-.365-.612-3.851-6.235-7.797-7.543-10.426-7.543-.383 0-.752.023-1.089.074-4.583.605-8.452 4.896-11.833 13.14-1.475 3.589-2.839 10.1-4.159 16.401-.239 1.139-.471 2.246-.699 3.318-.229-1.072-.459-2.18-.701-3.322-1.317-6.294-2.684-12.808-4.157-16.397-3.378-8.238-7.248-12.53-11.829-13.13-.344-.051-.708-.074-1.094-.074-2.63 0-6.577 1.308-10.427 7.543-.128.208-.25.416-.359.608l-.063.106c-.053.086-.106.181-.161.271l-.035.072c-.112.185-.202.337-.277.483l-.133.231c-.031.055-.063.114-.083.161-.094.161-.167.294-.235.43l-.04.081c-.037.098-.094.216-.157.339l-.001.025c-.188.381-.416.856-.483 1.43-.086.73 0 1.406.263 2.069l.031.066c.613 1.331 1.905 2.16 3.383 2.16 1.08 0 2.121-.448 2.859-1.225.168-.149.328-.314.463-.452.448-.495.84-1.068 1.141-1.665.086-.142.17-.291.253-.428l.208-.365c.073-.125.142-.251.205-.357l.047-.075c.102-.165.204-.334.318-.499.365-.569.723-1.013 1.129-1.409l.04-.036c.139-.149.291-.302.467-.467.64-.585 1.254-.927 1.685-.927.039 0 .074 0 .108.004.729.098 7.323 2.073 13.735 41.13l-.132.82.208.043c.147 1.183.686 1.979 1.137 2.454.58.613 1.186.892 1.43.986l.168.066.205.004c.333.012.634.008.895-.023.181.02.381.031.603.031h.002c.09 0 .192-.004.289-.008l.207-.004.183-.07c.231-.095.838-.369 1.417-.977.452-.477.992-1.273 1.133-2.46l.204-.039-.125-.82c6.414-39.05 13.01-41.03 13.733-41.13.445-.051 1.101.283 1.788.915.185.173.334.326.491.491l.027.028c.404.393.764.836 1.131 1.406.09.141.181.278.269.424l.458.785c.09.161.192.338.298.515.303.597.695 1.17 1.148 1.673.142.145.293.302.458.443.736.773 1.778 1.221 2.858 1.221 1.484 0 2.782-.836 3.395-2.199l.014-.027c.26-.658.349-1.334.264-2.068"/><g fill="#929497"><path d="m3.26 20.2l-.032-.066c-.263-.664-.351-1.339-.265-2.069.066-.573.296-1.048.483-1.43l.012-.025c.061-.124.114-.241.155-.339l.04-.081c.071-.136.141-.269.235-.43.022-.048.053-.107.082-.162l.13-.231c.076-.146.168-.298.281-.483l.039-.071c.051-.09.108-.185.157-.271l.062-.106c.112-.192.236-.4.363-.608 3.558-5.76 7.194-7.312 9.801-7.52-.206-.012-.416-.023-.636-.023-2.63 0-6.577 1.308-10.421 7.543-.134.208-.255.416-.365.608l-.063.106c-.053.086-.106.181-.161.271l-.037.071c-.112.185-.202.337-.277.483l-.133.231c-.031.055-.063.114-.083.161-.094.161-.163.294-.233.43l-.042.081c-.037.098-.094.216-.157.339l-.001.025c-.188.381-.416.856-.483 1.43-.084.73.002 1.406.263 2.069l.031.066c.613 1.331 1.905 2.16 3.383 2.16.21 0 .418-.023.625-.055-1.205-.2-2.224-.969-2.744-2.104"/><path d="m31.947 39.22c.228-1.072 1.386-2.623 1.626-3.762 1.319-6.302 3.02-12.369 4.491-15.958 3.381-8.238 7.251-12.53 11.835-13.13.147-.023.299-.039.45-.051-.213-.012-.423-.023-.623-.023-.383 0-.752.023-1.083.074-4.589.605-8.458 4.896-11.839 13.13-1.475 3.589-2.839 10.1-4.159 16.401-.023.11-.045.221-.068.33-.162 1.096-.484 1.878-.63 2.989"/><path d="m56.92 21.14c-.164-.141-.315-.298-.455-.443-.455-.503-.848-1.076-1.15-1.673-.106-.177-.204-.354-.301-.515l-.455-.785c-.089-.146-.177-.283-.267-.424-.369-.57-.729-1.013-1.136-1.406l-.025-.028c-.156-.165-.306-.318-.49-.491-.688-.632-1.343-.966-1.789-.915-.086.016-.261.051-.506.181.319.157.673.401 1.034.734.185.173.334.326.491.491l.027.028c.404.393.764.836 1.131 1.406.09.141.181.278.269.424l.458.785c.094.161.192.338.298.515.303.597.695 1.17 1.148 1.673.144.145.293.302.458.443.736.773 1.778 1.221 2.858 1.221.216 0 .428-.023.636-.055-.847-.138-1.64-.542-2.234-1.166"/><path d="m31.939 59.893c-.244-.095-.852-.373-1.429-.986-.452-.475-.99-1.271-1.135-2.454l-.21-.043.134-.82c-6.414-39.06-13.01-41.03-13.739-41.13-.031-.004-.069-.004-.104-.004-.185 0-.406.067-.646.185 1.808.935 7.586 6.597 13.227 40.947l-.132.82.21.043c.146 1.183.684 1.979 1.135 2.454.58.613 1.186.892 1.43.986l.17.066.203.004c.333.012.634.008.895-.023.047.004.098.008.146.012l-.155-.058"/><path d="m32.925 59.963l.124-.004.014-.008c-.045.004-.091.008-.138.012"/><path d="m32.31 59.963l-.108-.004c.108.008.224.012.345.012h.002c.026 0 .055 0 .084-.004-.103.004-.211 0-.323-.004"/></g></svg>