<?xml version="1.0" encoding="UTF-8" standalone="no"?>
<!-- Generator: Adobe Illustrator 16.0.0, SVG Export Plug-In . SVG Version: 6.00 Build 0)  -->

<svg
   xmlns:dc="http://purl.org/dc/elements/1.1/"
   xmlns:cc="http://creativecommons.org/ns#"
   xmlns:rdf="http://www.w3.org/1999/02/22-rdf-syntax-ns#"
   xmlns:svg="http://www.w3.org/2000/svg"
   xmlns="http://www.w3.org/2000/svg"
   xmlns:sodipodi="http://sodipodi.sourceforge.net/DTD/sodipodi-0.dtd"
   xmlns:inkscape="http://www.inkscape.org/namespaces/inkscape"
   version="1.1"
   id="Layer_1"
   x="0px"
   y="0px"
   width="64px"
   height="64px"
   viewBox="0 0 64 64"
   enable-background="new 0 0 64 64"
   xml:space="preserve"
   inkscape:version="0.48.5 r10040"
   sodipodi:docname="2648.svg"
   inkscape:export-filename="D:\TESTINGEMOJI\SVGTEST\2648.png"
   inkscape:export-xdpi="90"
   inkscape:export-ydpi="90"><metadata
   id="metadata3078"><rdf:RDF><cc:Work
       rdf:about=""><dc:format>image/svg+xml</dc:format><dc:type
         rdf:resource="http://purl.org/dc/dcmitype/StillImage" /><dc:title></dc:title></cc:Work></rdf:RDF></metadata><defs
   id="defs3076" /><sodipodi:namedview
   pagecolor="#ffffff"
   bordercolor="#666666"
   borderopacity="1"
   objecttolerance="10"
   gridtolerance="10"
   guidetolerance="10"
   inkscape:pageopacity="0"
   inkscape:pageshadow="2"
   inkscape:window-width="640"
   inkscape:window-height="480"
   id="namedview3074"
   showgrid="false"
   inkscape:zoom="3.6875"
   inkscape:cx="32"
   inkscape:cy="32"
   inkscape:window-x="248"
   inkscape:window-y="271"
   inkscape:window-maximized="0"
   inkscape:current-layer="Layer_1" />
<path
   fill="#009345"
   d="M63.906,57.025c0,3.806-3.086,6.892-6.891,6.892H6.878c-3.803,0-6.891-3.086-6.891-6.892V6.893  C-0.013,3.083,3.075,0,6.878,0h50.14c3.805,0,6.889,3.083,6.889,6.893V57.025L63.906,57.025z"
   id="path3054" />
<path
   fill="#076E38"
   d="M-0.013,48.67v8.355c0,3.81,3.086,6.894,6.889,6.894h50.142c3.807,0,6.889-3.084,6.889-6.894V6.889  C52.992,46.536,13.755,49.049-0.013,48.67z"
   id="path3056" />
<path
   fill="#FFFFFF"
   d="M62.193,18.066c-0.066-0.573-0.299-1.048-0.482-1.43l-0.014-0.025c-0.061-0.124-0.116-0.237-0.161-0.343  l-0.041-0.094c-0.058-0.103-0.11-0.208-0.177-0.334l-0.045-0.079c-0.022-0.043-0.047-0.086-0.069-0.122l-0.157-0.291  c-0.08-0.134-0.163-0.283-0.268-0.463l-0.098-0.161c-0.035-0.062-0.07-0.124-0.103-0.181l-0.062-0.102  c-0.117-0.196-0.238-0.408-0.365-0.612c-3.852-6.235-7.797-7.543-10.426-7.543c-0.383,0-0.752,0.023-1.09,0.074  c-4.582,0.605-8.451,4.896-11.832,13.135c-1.476,3.589-2.84,10.103-4.16,16.401c-0.239,1.139-0.471,2.246-0.699,3.317  c-0.229-1.071-0.459-2.18-0.701-3.321c-1.317-6.294-2.684-12.809-4.157-16.397C23.71,11.257,19.84,6.965,15.259,6.36  c-0.344-0.051-0.708-0.074-1.094-0.074c-2.63,0-6.577,1.308-10.427,7.543c-0.128,0.208-0.25,0.416-0.359,0.608l-0.063,0.106  c-0.053,0.086-0.106,0.181-0.161,0.271L3.12,14.886c-0.112,0.185-0.202,0.337-0.277,0.483L2.71,15.6  c-0.031,0.055-0.063,0.114-0.083,0.161c-0.094,0.161-0.167,0.294-0.235,0.43l-0.04,0.081c-0.037,0.098-0.094,0.216-0.157,0.339  l-0.01,0.025c-0.188,0.381-0.416,0.856-0.483,1.43c-0.086,0.73,0,1.406,0.263,2.069l0.031,0.066c0.613,1.331,1.905,2.16,3.383,2.16  c1.08,0,2.121-0.448,2.859-1.225c0.168-0.149,0.328-0.313,0.463-0.452c0.448-0.495,0.84-1.068,1.141-1.665  c0.086-0.142,0.17-0.291,0.253-0.428l0.208-0.365c0.073-0.125,0.142-0.251,0.205-0.357l0.047-0.075  c0.102-0.165,0.204-0.334,0.318-0.499c0.365-0.569,0.723-1.013,1.129-1.409l0.04-0.036c0.139-0.149,0.291-0.302,0.467-0.467  c0.64-0.585,1.254-0.927,1.685-0.927c0.039,0,0.074,0,0.108,0.004c0.729,0.098,7.323,2.073,13.735,41.127l-0.132,0.82l0.208,0.043  c0.147,1.183,0.686,1.979,1.137,2.454c0.58,0.613,1.186,0.892,1.43,0.986l0.168,0.065l0.205,0.004  c0.333,0.013,0.634,0.008,0.895-0.022c0.181,0.02,0.381,0.03,0.603,0.03h0.002c0.09,0,0.192-0.004,0.289-0.008l0.207-0.004  l0.184-0.07c0.23-0.095,0.838-0.368,1.416-0.977c0.453-0.478,0.992-1.273,1.133-2.46l0.205-0.039l-0.125-0.82  c6.414-39.054,13.005-41.033,13.732-41.131c0.445-0.051,1.102,0.283,1.788,0.915c0.185,0.173,0.334,0.326,0.491,0.491l0.027,0.028  c0.404,0.393,0.764,0.836,1.131,1.406c0.09,0.141,0.181,0.278,0.269,0.424l0.458,0.785c0.09,0.161,0.192,0.338,0.299,0.515  c0.303,0.597,0.694,1.17,1.147,1.673c0.142,0.145,0.293,0.302,0.458,0.443c0.736,0.773,1.777,1.221,2.857,1.221  c1.484,0,2.783-0.836,3.396-2.199l0.015-0.027C62.189,19.476,62.277,18.8,62.193,18.066z"
   id="path3058" />
<g
   id="g3060">
	<path
   fill="#929497"
   d="M3.26,20.202l-0.032-0.066c-0.263-0.664-0.351-1.339-0.265-2.069c0.066-0.573,0.296-1.048,0.483-1.43   l0.012-0.025c0.061-0.124,0.114-0.241,0.155-0.339l0.04-0.081c0.071-0.136,0.141-0.269,0.235-0.43   C3.91,15.714,3.941,15.655,3.97,15.6l0.13-0.231c0.076-0.146,0.168-0.298,0.281-0.483l0.039-0.071   c0.051-0.09,0.108-0.185,0.157-0.271l0.062-0.106c0.112-0.192,0.236-0.4,0.363-0.608c3.558-5.76,7.194-7.312,9.801-7.52   c-0.206-0.012-0.416-0.023-0.636-0.023c-2.63,0-6.577,1.308-10.421,7.543c-0.134,0.208-0.255,0.416-0.365,0.608l-0.063,0.106   c-0.053,0.086-0.106,0.181-0.161,0.271L3.12,14.886c-0.112,0.185-0.202,0.337-0.277,0.483L2.71,15.6   c-0.031,0.055-0.063,0.114-0.083,0.161c-0.094,0.161-0.163,0.294-0.233,0.43l-0.042,0.081c-0.037,0.098-0.094,0.216-0.157,0.339   l-0.01,0.025c-0.188,0.381-0.416,0.856-0.483,1.43c-0.084,0.73,0.002,1.406,0.263,2.069l0.031,0.066   c0.613,1.331,1.905,2.16,3.383,2.16c0.21,0,0.418-0.023,0.625-0.055C4.799,22.106,3.78,21.337,3.26,20.202z"
   id="path3062" />
	<path
   fill="#929497"
   d="M31.947,39.215c0.228-1.072,1.386-2.623,1.625-3.762c1.32-6.302,3.021-12.369,4.492-15.958   c3.381-8.238,7.25-12.53,11.834-13.135c0.147-0.023,0.299-0.039,0.451-0.051c-0.213-0.012-0.424-0.023-0.623-0.023   c-0.383,0-0.752,0.023-1.084,0.074c-4.588,0.605-8.457,4.896-11.838,13.135c-1.476,3.589-2.84,10.103-4.16,16.401   c-0.022,0.109-0.045,0.221-0.067,0.33C32.415,37.322,32.093,38.104,31.947,39.215z"
   id="path3064" />
	<path
   fill="#929497"
   d="M56.92,21.141c-0.164-0.141-0.314-0.298-0.455-0.443c-0.455-0.503-0.848-1.076-1.15-1.673   c-0.105-0.177-0.203-0.354-0.301-0.515l-0.455-0.785c-0.088-0.146-0.177-0.283-0.267-0.424c-0.369-0.57-0.729-1.013-1.136-1.406   l-0.025-0.028c-0.156-0.165-0.306-0.318-0.49-0.491c-0.688-0.632-1.343-0.966-1.789-0.915c-0.086,0.016-0.261,0.051-0.506,0.181   c0.319,0.157,0.674,0.401,1.034,0.734c0.185,0.173,0.334,0.326,0.491,0.491l0.027,0.028c0.404,0.393,0.764,0.836,1.131,1.406   c0.09,0.141,0.181,0.278,0.269,0.424l0.458,0.785c0.094,0.161,0.191,0.338,0.299,0.515c0.303,0.597,0.694,1.17,1.147,1.673   c0.144,0.145,0.293,0.302,0.458,0.443c0.736,0.773,1.777,1.221,2.857,1.221c0.217,0,0.428-0.023,0.637-0.055   C58.307,22.169,57.514,21.765,56.92,21.141z"
   id="path3066" />
	<path
   fill="#929497"
   d="M31.939,59.893c-0.244-0.095-0.852-0.373-1.429-0.985c-0.452-0.476-0.99-1.271-1.135-2.454l-0.21-0.043   l0.134-0.82C22.885,16.535,16.292,14.56,15.56,14.461c-0.031-0.004-0.069-0.004-0.104-0.004c-0.185,0-0.406,0.067-0.646,0.185   c1.808,0.935,7.586,6.597,13.227,40.947l-0.132,0.82l0.21,0.043c0.146,1.183,0.684,1.979,1.135,2.454   c0.58,0.613,1.186,0.892,1.43,0.986l0.17,0.065l0.203,0.004c0.333,0.013,0.634,0.008,0.895-0.022   c0.047,0.004,0.098,0.008,0.146,0.012L31.939,59.893z"
   id="path3068" />
	<path
   fill="#929497"
   d="M32.925,59.963l0.124-0.004l0.014-0.008C33.018,59.955,32.973,59.959,32.925,59.963z"
   id="path3070" />
	<path
   fill="#929497"
   d="M32.312,59.963l-0.108-0.004c0.108,0.008,0.224,0.012,0.345,0.012h0.002c0.026,0,0.055,0,0.084-0.004   C32.532,59.971,32.424,59.967,32.312,59.963z"
   id="path3072" />
</g>
</svg>