<?xml version="1.0" encoding="UTF-8" standalone="no"?>
<!-- Generator: Adobe Illustrator 16.0.0, SVG Export Plug-In . SVG Version: 6.00 Build 0)  -->

<svg
   xmlns:dc="http://purl.org/dc/elements/1.1/"
   xmlns:cc="http://creativecommons.org/ns#"
   xmlns:rdf="http://www.w3.org/1999/02/22-rdf-syntax-ns#"
   xmlns:svg="http://www.w3.org/2000/svg"
   xmlns="http://www.w3.org/2000/svg"
   xmlns:sodipodi="http://sodipodi.sourceforge.net/DTD/sodipodi-0.dtd"
   xmlns:inkscape="http://www.inkscape.org/namespaces/inkscape"
   version="1.1"
   id="Layer_1"
   x="0px"
   y="0px"
   width="64px"
   height="64px"
   viewBox="0 0 64 64"
   enable-background="new 0 0 64 64"
   xml:space="preserve"
   inkscape:version="0.48.5 r10040"
   sodipodi:docname="2649.svg"
   inkscape:export-filename="D:\TESTINGEMOJI\SVGTEST\2649.png"
   inkscape:export-xdpi="90"
   inkscape:export-ydpi="90"><metadata
   id="metadata3103"><rdf:RDF><cc:Work
       rdf:about=""><dc:format>image/svg+xml</dc:format><dc:type
         rdf:resource="http://purl.org/dc/dcmitype/StillImage" /><dc:title></dc:title></cc:Work></rdf:RDF></metadata><defs
   id="defs3101" /><sodipodi:namedview
   pagecolor="#ffffff"
   bordercolor="#666666"
   borderopacity="1"
   objecttolerance="10"
   gridtolerance="10"
   guidetolerance="10"
   inkscape:pageopacity="0"
   inkscape:pageshadow="2"
   inkscape:window-width="640"
   inkscape:window-height="480"
   id="namedview3099"
   showgrid="false"
   inkscape:zoom="3.6875"
   inkscape:cx="32"
   inkscape:cy="32"
   inkscape:window-x="240"
   inkscape:window-y="251"
   inkscape:window-maximized="0"
   inkscape:current-layer="Layer_1" />
<path
   fill="#009345"
   d="M64.045,57.141c0,3.812-3.091,6.9-6.9,6.9H6.903c-3.811,0-6.903-3.089-6.903-6.9V6.901  C0,3.088,3.092,0,6.903,0h50.242c3.811,0,6.9,3.088,6.9,6.901V57.141z"
   id="path3081" />
<path
   fill="#076E38"
   d="M0,48.764v8.372c0,3.816,3.09,6.905,6.901,6.905h50.242c3.813,0,6.902-3.089,6.902-6.905V6.897  C53.109,46.623,13.794,49.143,0,48.764z"
   id="path3083" />
<path
   fill="#FFFFFF"
   d="M62.294,9.938c-0.235-1.066-1.166-1.877-2.438-2.176V7.759l-0.063-0.012  c-0.173-0.036-0.354-0.067-0.539-0.083l-0.031-0.008c-0.933-0.149-1.994-0.232-3.072-0.232c-1.996,0-4.998,0.268-7.947,1.526  c-3.059,1.307-5.309,3.36-6.688,6.099c-0.93,1.845-3.031,3.218-6.248,4.088c-1.027,0.279-2.014,0.464-2.854,0.582  c-0.809-0.118-1.737-0.295-2.693-0.555c-3.218-0.874-5.319-2.247-6.248-4.088c-1.381-2.746-3.631-4.796-6.69-6.102  c-2.951-1.259-5.951-1.523-7.949-1.523c-1.076,0-2.137,0.079-3.069,0.229L5.727,7.684C5.526,7.708,5.331,7.739,5.142,7.782  L5.093,7.79l0.002,0.004C3.838,8.101,2.921,8.91,2.687,9.962c-0.381,1.696,1.137,3.486,3.382,3.986  c0.325,0.075,0.657,0.114,0.986,0.13l0.027,0.094l0.503-0.075c0.079-0.016,0.803-0.118,1.822-0.118c2.06,0,5.732,0.441,7.212,3.372  c1.239,2.459,3.191,4.253,5.367,5.563c-5.229,3.435-8.688,9.344-8.688,16.053v0.008v0.012c0,10.589,8.609,19.197,19.192,19.197  s19.194-8.608,19.194-19.197l-0.002-0.008l0.002-0.012c0-6.716-3.472-12.633-8.709-16.064c2.185-1.31,4.145-3.108,5.387-5.579  c1.477-2.931,5.15-3.372,7.213-3.372c1.019,0,1.742,0.11,1.82,0.118l0.504,0.075l0.027-0.091c0.331-0.012,0.661-0.055,0.983-0.126  C61.157,13.424,62.674,11.638,62.294,9.938z M34.736,26.459c5.949,1.062,10.481,6.271,10.486,12.52  c-0.009,7.017-5.718,12.721-12.733,12.721c-7.017,0-12.726-5.704-12.734-12.721c0.006-6.322,4.641-11.575,10.688-12.555  c0.468-0.028,1.074-0.075,1.79-0.162c0.084,0,0.169-0.004,0.252-0.004C33.428,26.373,34.197,26.432,34.736,26.459z"
   id="path3085" />
<g
   id="g3087">
	<path
   fill="#D0D2D3"
   d="M33.219,51.675c0.24,0.017,0.483,0.023,0.729,0.023c7.02,0,12.729-5.704,12.732-12.72   c-0.005-6.248-4.537-11.458-10.486-12.521c-0.534-0.027-1.313-0.086-2.25-0.201c-0.084,0-0.166,0.004-0.252,0.004   c-0.209,0.028-0.403,0.047-0.594,0.063c0.664,0.075,1.223,0.114,1.641,0.134c5.949,1.062,10.48,6.271,10.484,12.521   C45.215,45.746,39.898,51.297,33.219,51.675z"
   id="path3089" />
	<path
   fill="#D0D2D3"
   d="M33.863,19.719c0.847-0.118,1.83-0.303,2.855-0.582c3.219-0.87,5.32-2.243,6.248-4.088   c1.381-2.738,3.633-4.792,6.692-6.099c2.598-1.109,5.235-1.448,7.19-1.511c-0.233-0.008-0.467-0.016-0.703-0.016   c-1.994,0-4.996,0.268-7.946,1.526c-3.058,1.307-5.308,3.36-6.688,6.099c-0.929,1.845-3.029,3.218-6.248,4.088   c-0.74,0.201-1.455,0.35-2.113,0.464C33.396,19.645,33.637,19.684,33.863,19.719z"
   id="path3091" />
	<path
   fill="#D0D2D3"
   d="M7.526,13.948c-2.244-0.5-3.761-2.29-3.383-3.986C4.379,8.91,5.296,8.101,6.551,7.794V7.79l0.047-0.008   c0.189-0.043,0.386-0.075,0.586-0.098L7.218,7.68c0.726-0.118,1.534-0.189,2.367-0.216C9.321,7.456,9.069,7.452,8.829,7.452   c-1.076,0-2.137,0.079-3.069,0.229L5.727,7.684C5.526,7.708,5.331,7.739,5.142,7.782L5.093,7.79l0.002,0.004   C3.838,8.101,2.921,8.91,2.687,9.962c-0.381,1.696,1.137,3.486,3.382,3.986c0.325,0.075,0.657,0.114,0.986,0.13l0.027,0.094   l0.503-0.075c0.036-0.008,0.205-0.036,0.476-0.055C7.883,14.019,7.704,13.991,7.526,13.948z"
   id="path3093" />
	<path
   fill="#D0D2D3"
   d="M57.029,13.952c-0.221,0-0.465,0.008-0.719,0.023c0.617,0.028,1.027,0.086,1.084,0.095l0.504,0.075   l0.027-0.091c0.149-0.004,0.299-0.02,0.448-0.039C58.051,13.987,57.585,13.952,57.029,13.952z"
   id="path3095" />
	<path
   fill="#D0D2D3"
   d="M14.754,38.986v-0.008v-0.013c0-6.708,3.462-12.618,8.687-16.053c-2.174-1.31-4.125-3.104-5.367-5.563   c-1.477-2.931-5.15-3.372-7.21-3.372c-0.269,0-0.517,0.008-0.737,0.02c2.105,0.106,5.174,0.732,6.492,3.353   c1.239,2.459,3.191,4.253,5.367,5.563c-5.229,3.435-8.688,9.344-8.688,16.053v0.008v0.012c0,10.589,8.609,19.197,19.192,19.197   c0.245,0,0.485-0.004,0.728-0.017C22.973,57.781,14.754,49.33,14.754,38.986z"
   id="path3097" />
</g>
</svg>