<svg xmlns="http://www.w3.org/2000/svg" viewBox="0 0 64 64" enable-background="new 0 0 64 64"><path fill="#f6921e" d="M64.045,57.14c0,3.812-3.091,6.901-6.901,6.901H6.903C3.092,64.041,0,60.952,0,57.14V6.901
		C0,3.088,3.092,0,6.903,0h50.241c3.811,0,6.901,3.088,6.901,6.901V57.14z"/><path fill="#dc7f27" d="m0 48.764v8.372c0 3.816 3.09 6.905 6.901 6.905h50.24c3.814 0 6.903-3.089 6.903-6.905v-50.24c-10.936 39.726-50.25 42.25-64.05 41.867"/><path fill="#fff" d="m62.29 9.938c-.236-1.066-1.166-1.877-2.439-2.176v-.003l-.062-.012c-.173-.036-.354-.067-.539-.083l-.031-.008c-.933-.149-1.995-.232-3.073-.232-1.995 0-4.997.268-7.947 1.526-3.058 1.307-5.308 3.36-6.688 6.099-.929 1.845-3.03 3.218-6.248 4.088-1.027.279-2.01.464-2.854.582-.809-.118-1.737-.295-2.693-.555-3.218-.874-5.319-2.247-6.248-4.088-1.381-2.746-3.631-4.796-6.69-6.102-2.951-1.259-5.951-1.523-7.949-1.523-1.076 0-2.137.079-3.069.229l-.037.004c-.201.024-.396.055-.585.098l-.049.008.002.004c-1.257.307-2.174 1.116-2.408 2.168-.381 1.696 1.137 3.486 3.382 3.986.325.075.657.114.986.13l.027.094.503-.075c.079-.016.803-.118 1.822-.118 2.06 0 5.732.441 7.212 3.372 1.239 2.459 3.191 4.253 5.367 5.563-5.229 3.435-8.688 9.344-8.688 16.05v.008.012c0 10.588 8.609 19.2 19.19 19.2s19.19-8.608 19.19-19.2l-.002-.008.002-.012c0-6.716-3.472-12.633-8.709-16.06 2.184-1.31 4.144-3.108 5.387-5.579 1.476-2.931 5.15-3.372 7.212-3.372 1.019 0 1.743.11 1.821.118l.504.075.027-.091c.331-.012.661-.055.983-.126 2.248-.504 3.765-2.29 3.385-3.99m-27.557 16.521c5.949 1.062 10.481 6.271 10.485 12.52-.008 7.02-5.717 12.72-12.732 12.72-7.02 0-12.726-5.704-12.734-12.72.006-6.323 4.641-11.575 10.688-12.555.468-.028 1.074-.075 1.79-.162.084 0 .169-.004.252-.004.941.115 1.712.174 2.251.201"/><g fill="#d0d2d3"><path d="m33.22 51.675c.24.016.483.023.728.023 7.02 0 12.729-5.704 12.732-12.72-.004-6.248-4.537-11.457-10.485-12.52-.535-.027-1.314-.086-2.251-.201-.083 0-.165.004-.252.004-.208.028-.403.047-.594.063.665.075 1.224.114 1.641.134 5.949 1.062 10.481 6.271 10.485 12.52-.008 6.768-5.324 12.319-12 12.697"/><path d="m33.864 19.719c.846-.118 1.829-.303 2.855-.582 3.219-.87 5.32-2.243 6.248-4.088 1.381-2.738 3.632-4.792 6.692-6.099 2.598-1.109 5.235-1.448 7.19-1.511-.233-.008-.466-.016-.702-.016-1.995 0-4.997.268-7.947 1.526-3.058 1.307-5.308 3.36-6.688 6.099-.929 1.845-3.03 3.218-6.248 4.088-.74.201-1.456.35-2.113.464.245.045.485.084.713.119"/><path d="m7.526 13.948c-2.244-.5-3.761-2.29-3.383-3.986.236-1.052 1.153-1.861 2.408-2.168v-.004l.047-.008c.189-.043.386-.075.586-.098l.034-.004c.726-.118 1.534-.189 2.367-.216-.264-.008-.516-.012-.756-.012-1.076 0-2.137.079-3.069.229l-.033.003c-.201.024-.396.055-.585.098l-.049.008.002.004c-1.257.307-2.174 1.116-2.408 2.168-.381 1.696 1.137 3.486 3.382 3.986.325.075.657.114.986.13l.027.094.503-.075c.036-.008.205-.036.476-.055-.178-.023-.357-.051-.535-.094"/><path d="m57.03 13.952c-.221 0-.465.008-.719.023.616.028 1.027.086 1.084.095l.504.075.027-.091c.149-.004.299-.02.448-.039-.323-.028-.789-.063-1.344-.063"/><path d="m14.754 38.986v-.008-.012c0-6.708 3.462-12.618 8.687-16.05-2.174-1.31-4.125-3.104-5.367-5.563-1.477-2.931-5.15-3.372-7.21-3.372-.269 0-.517.008-.737.02 2.105.106 5.174.732 6.492 3.353 1.239 2.459 3.191 4.253 5.367 5.563-5.229 3.435-8.688 9.344-8.688 16.05v.008.012c0 10.588 8.609 19.2 19.19 19.2.244 0 .484-.004.728-.016-10.245-.386-18.464-8.837-18.464-19.18"/></g></svg>