<svg xmlns="http://www.w3.org/2000/svg" viewBox="0 0 64 64" enable-background="new 0 0 64 64"><path fill="#1b75bb" d="M63.666,56.802c0,3.794-3.07,6.868-6.862,6.868H6.86C3.072,63.67,0,60.596,0,56.802V6.864   C0,3.074,3.072,0,6.86,0h49.943c3.792,0,6.862,3.074,6.862,6.864V56.802z"/><path fill="#0867a3" d="M0,48.479v8.323c0,3.794,3.072,6.868,6.86,6.868h49.943c3.792,0,6.862-3.074,6.862-6.868V6.864   C52.795,46.355,13.712,48.858,0,48.479z"/><path fill="#fff" d="m59.14 20.499l-.765-.7c-.172-.196-.367-.372-.585-.52-5.478-4.819-11.279-8.382-17.254-10.6-4.908-1.822-9.723-2.75-14.314-2.75-.319 0-.638.008-.957.016-4.081.114-7.643.677-10.582 1.667-1.257.379-2.46.931-3.579 1.635-.081.051-.153.098-.215.137-.021.016-.045.031-.068.047l-.28.188c-.012.012-.027.02-.027.02l-.047.037c-3.27 2.306-5.407 5.74-6.02 9.686-1.24 7.967 4.232 15.457 12.199 16.696.747.118 1.506.177 2.257.177 3.45 0 6.805-1.236 9.453-3.485 2.675-2.264 4.445-5.425 4.985-8.886.644-4.142-.546-8.338-3.154-11.526 2.763.36 5.522 1.044 8.234 2.049 5.282 1.963 10.457 5.155 15.379 9.493.146.164.308.301.479.426l.806.704.207-.232c.249.064.509.1.767.1 1.693 0 3.07-1.373 3.07-3.066 0-.375-.066-.739-.197-1.08l.211-.233m-31.82 2.424c-.641 4.119-4.261 7.22-8.424 7.22-.438 0-.88-.035-1.318-.102-2.245-.352-4.224-1.561-5.571-3.402-1.346-1.838-1.891-4.095-1.543-6.34.642-4.116 4.263-7.22 8.423-7.22.44 0 .882.039 1.318.105 2.247.352 4.226 1.557 5.571 3.399 1.345 1.842 1.894 4.095 1.544 6.34"/><g fill="#d0d2d3"><path d="m19.513 30.12c.213.016.426.027.638.027 4.164 0 7.783-3.102 8.425-7.22.348-2.245-.2-4.498-1.545-6.34-1.346-1.842-3.325-3.047-5.572-3.399-.436-.066-.882-.105-1.318-.105-.208 0-.413.014-.616.027.227.016.454.043.679.078 2.247.352 4.226 1.557 5.571 3.399 1.346 1.842 1.895 4.095 1.545 6.34-.611 3.911-3.91 6.908-7.807 7.193"/><path d="m56.7 24.809c-.055-.012-.105-.02-.156-.033l-.059.064c.071-.012.141-.02.215-.031"/><path d="m17.897 36.06c-7.966-1.24-13.439-8.73-12.198-16.697.616-3.946 2.753-7.38 6.02-9.686l.031-.029c.016-.008.031-.016.031-.016l.292-.2c.021-.016.045-.031.068-.047.062-.039.135-.086.215-.137 1.117-.704 2.321-1.255 3.579-1.635 2.939-.99 6.5-1.553 10.583-1.667.122-.004.239-.004.36-.004-.219-.004-.44-.012-.661-.012-.319 0-.638.008-.957.016-4.081.114-7.643.677-10.582 1.667-1.257.379-2.46.931-3.579 1.635-.081.051-.153.098-.215.137-.021.016-.045.031-.068.047l-.278.188c-.014.012-.029.02-.029.02l-.047.037c-3.27 2.306-5.407 5.74-6.02 9.686-1.24 7.967 4.232 15.457 12.199 16.696.747.118 1.506.177 2.257.177.215 0 .426-.008.637-.012-.546-.023-1.096-.077-1.638-.164"/><path d="m55.53 24.304c-.173-.125-.333-.262-.479-.426-4.922-4.338-10.09-7.529-15.379-9.493-2.712-1.01-5.47-1.689-8.239-2.049.059.066.113.145.172.215 2.289.391 4.565 1 6.811 1.834 5.282 1.963 10.457 5.155 15.379 9.493.146.164.308.301.479.426l.806.704.207-.232c.249.064.509.1.767.1.043 0 .084-.004.121-.004l-.645-.568"/></g><path fill="#fff" d="m4.267 42.4l.767.7c.17.197.368.371.584.516 5.474 4.822 11.28 8.386 17.252 10.604 4.911 1.822 9.725 2.745 14.315 2.745.318 0 .64-.004.958-.012 4.081-.113 7.643-.677 10.582-1.666 1.255-.379 2.46-.931 3.576-1.635.082-.051.155-.092.214-.137.025-.02.049-.031.074-.047l.275-.188c.014-.012.027-.023.027-.023l.049-.029c3.27-2.31 5.409-5.744 6.02-9.69 1.242-7.971-4.23-15.461-12.197-16.697-.747-.117-1.506-.176-2.257-.176-3.449 0-6.805 1.236-9.453 3.481-2.675 2.269-4.447 5.425-4.987 8.89-.645 4.143.546 8.343 3.159 11.526-2.766-.359-5.527-1.048-8.239-2.05-5.284-1.961-10.457-5.154-15.378-9.496-.147-.156-.305-.301-.477-.422l-.808-.704-.203.232c-.252-.064-.51-.104-.772-.104-1.689 0-3.066 1.381-3.066 3.07 0 .375.066.739.196 1.079l-.212.233m31.821-2.425c.642-4.114 4.264-7.22 8.421-7.22.44 0 .884.035 1.318.106 2.249.348 4.228 1.556 5.573 3.399 1.346 1.838 1.896 4.095 1.545 6.34-.642 4.114-4.263 7.22-8.423 7.22-.438 0-.882-.039-1.319-.105-2.247-.352-4.225-1.557-5.57-3.398-1.345-1.844-1.895-4.097-1.545-6.342"/><g fill="#d0d2d3"><path d="m23.747 54.22c-5.974-2.218-11.778-5.781-17.252-10.604-.217-.145-.415-.318-.589-.516l-.763-.7.211-.231c-.129-.34-.196-.704-.196-1.079 0-1.502 1.08-2.75 2.505-3.01-.176-.035-.356-.059-.538-.059-1.689 0-3.066 1.381-3.066 3.07 0 .375.067.739.196 1.079l-.211.231.765.7c.17.197.368.371.585.516 5.476 4.822 11.28 8.386 17.252 10.604 4.913 1.822 9.727 2.745 14.315 2.745.176 0 .348-.004.521-.008-4.415-.073-9.03-.992-13.735-2.736"/><path d="m45.604 32.862c2.249.348 4.228 1.556 5.573 3.399 1.346 1.838 1.893 4.095 1.543 6.34-.612 3.931-3.94 6.935-7.863 7.196.18.012.361.023.539.023 4.162 0 7.783-3.105 8.425-7.22.349-2.245-.199-4.502-1.545-6.34-1.345-1.843-3.324-3.051-5.573-3.399-.436-.071-.88-.106-1.318-.106-.188 0-.373.008-.559.02.262.02.52.044.778.087"/><path d="m34.1 50.563c-2.613-3.184-3.802-7.384-3.156-11.526.54-3.465 2.31-6.621 4.986-8.89 2.514-2.132 5.666-3.348 8.93-3.469-.191-.008-.386-.012-.577-.012-3.447 0-6.806 1.236-9.451 3.481-2.675 2.269-4.447 5.425-4.987 8.89-.634 4.064.504 8.175 3.01 11.343.413.066.828.129 1.243.183"/><path d="m8.225 38.02c.001 0 .02.004.031.004l-.156-.133-.125.145c.082-.009.164-.016.25-.016"/></g></svg>