<?xml version="1.0" encoding="utf-8"?>
<!-- Generator: Adobe Illustrator 16.0.0, SVG Export Plug-In . SVG Version: 6.00 Build 0)  -->
<!DOCTYPE svg PUBLIC "-//W3C//DTD SVG 1.1//EN" "http://www.w3.org/Graphics/SVG/1.1/DTD/svg11.dtd">
<svg version="1.1"
	 id="Layer_1" xmlns:dc="http://purl.org/dc/elements/1.1/" xmlns:cc="http://creativecommons.org/ns#" xmlns:rdf="http://www.w3.org/1999/02/22-rdf-syntax-ns#" xmlns:svg="http://www.w3.org/2000/svg" xmlns:sodipodi="http://sodipodi.sourceforge.net/DTD/sodipodi-0.dtd" xmlns:inkscape="http://www.inkscape.org/namespaces/inkscape" inkscape:export-ydpi="90" inkscape:export-xdpi="90" inkscape:export-filename="D:\TESTINGEMOJI\SVGTEST\264B.png" sodipodi:docname="264B.svg" inkscape:version="0.48.5 r10040"
	 xmlns="http://www.w3.org/2000/svg" xmlns:xlink="http://www.w3.org/1999/xlink" x="0px" y="0px" width="64px" height="64px"
	 viewBox="0 0 64 64" enable-background="new 0 0 64 64" xml:space="preserve">
<sodipodi:namedview  inkscape:cy="32" inkscape:cx="32" inkscape:zoom="3.6875" showgrid="false" guidetolerance="10" gridtolerance="10" objecttolerance="10" bordercolor="#666666" pagecolor="#ffffff" borderopacity="1" id="namedview3715" inkscape:current-layer="Layer_1" inkscape:window-maximized="0" inkscape:window-y="365" inkscape:window-x="560" inkscape:window-height="480" inkscape:window-width="640" inkscape:pageshadow="2" inkscape:pageopacity="0">
	</sodipodi:namedview>
<path id="path3687" fill="#009345" d="M63.666,56.802c0,3.794-3.07,6.868-6.861,6.868H6.86C3.072,63.67,0,60.596,0,56.802V6.864
	C0,3.074,3.072,0,6.86,0h49.943c3.793,0,6.862,3.074,6.862,6.864L63.666,56.802L63.666,56.802z"/>
<path id="path3689" fill="#076E38" d="M0,48.479v8.323c0,3.794,3.072,6.868,6.86,6.868h49.943c3.793,0,6.862-3.074,6.862-6.868
	V6.864C52.795,46.355,13.712,48.857,0,48.479z"/>
<path id="path3691" fill="#FFFFFF" d="M59.139,20.499l-0.765-0.7c-0.172-0.196-0.367-0.372-0.585-0.52
	c-5.479-4.819-11.279-8.382-17.254-10.6c-4.908-1.822-9.723-2.75-14.314-2.75c-0.319,0-0.638,0.008-0.957,0.016
	c-4.081,0.114-7.643,0.677-10.582,1.667c-1.257,0.379-2.46,0.931-3.579,1.635c-0.081,0.051-0.153,0.098-0.215,0.137
	C10.867,9.4,10.843,9.415,10.82,9.431l-0.28,0.188c-0.012,0.012-0.027,0.02-0.027,0.02l-0.047,0.037
	c-3.27,2.306-5.407,5.74-6.023,9.686c-1.24,7.967,4.232,15.457,12.199,16.697c0.747,0.117,1.506,0.176,2.257,0.176
	c3.45,0,6.805-1.235,9.453-3.484c2.675-2.264,4.445-5.425,4.985-8.886c0.644-4.142-0.546-8.338-3.154-11.526
	c2.762,0.36,5.522,1.044,8.234,2.049c5.282,1.963,10.457,5.155,15.379,9.493c0.146,0.164,0.308,0.301,0.479,0.426l0.806,0.704
	l0.207-0.232c0.249,0.064,0.509,0.1,0.767,0.1c1.693,0,3.07-1.373,3.07-3.066c0-0.375-0.066-0.739-0.197-1.08L59.139,20.499z
	 M27.319,22.923c-0.641,4.119-4.261,7.22-8.424,7.22c-0.438,0-0.88-0.035-1.318-0.102c-2.245-0.352-4.224-1.561-5.571-3.402
	c-1.346-1.838-1.891-4.095-1.543-6.34c0.642-4.116,4.263-7.22,8.423-7.22c0.44,0,0.882,0.039,1.318,0.105
	c2.247,0.352,4.226,1.557,5.571,3.399C27.12,18.425,27.669,20.678,27.319,22.923z"/>
<g id="g3693">
	<path id="path3695" fill="#D0D2D3" d="M19.513,30.116c0.213,0.016,0.426,0.027,0.638,0.027c4.164,0,7.783-3.102,8.425-7.22
		c0.348-2.245-0.2-4.498-1.545-6.34c-1.346-1.842-3.325-3.047-5.572-3.399c-0.436-0.066-0.882-0.105-1.318-0.105
		c-0.208,0-0.413,0.014-0.616,0.027c0.227,0.016,0.454,0.043,0.679,0.078c2.247,0.352,4.226,1.557,5.571,3.399
		c1.346,1.842,1.895,4.095,1.545,6.34C26.709,26.834,23.41,29.831,19.513,30.116z"/>
	<path id="path3697" fill="#D0D2D3" d="M56.7,24.809c-0.056-0.012-0.104-0.02-0.156-0.033l-0.06,0.064
		C56.557,24.828,56.626,24.82,56.7,24.809z"/>
	<path id="path3699" fill="#D0D2D3" d="M17.897,36.057C9.931,34.816,4.458,27.327,5.699,19.36c0.616-3.946,2.753-7.38,6.023-9.686
		l0.031-0.029c0.016-0.008,0.031-0.016,0.031-0.016l0.292-0.2c0.021-0.016,0.045-0.031,0.068-0.047
		c0.062-0.039,0.135-0.086,0.215-0.137c1.117-0.704,2.321-1.255,3.579-1.635c2.939-0.99,6.5-1.553,10.583-1.667
		c0.122-0.004,0.239-0.004,0.36-0.004c-0.219-0.004-0.44-0.012-0.661-0.012c-0.319,0-0.638,0.008-0.957,0.016
		C21.182,6.057,17.62,6.62,14.681,7.61c-1.257,0.379-2.46,0.931-3.579,1.635c-0.081,0.051-0.153,0.098-0.215,0.137
		c-0.021,0.016-0.045,0.031-0.068,0.047l-0.278,0.188c-0.014,0.012-0.029,0.02-0.029,0.02l-0.047,0.037
		c-3.27,2.306-5.407,5.74-6.023,9.686c-1.24,7.967,4.232,15.457,12.199,16.697c0.747,0.117,1.506,0.176,2.257,0.176
		c0.215,0,0.426-0.008,0.637-0.012C18.989,36.198,18.439,36.145,17.897,36.057z"/>
	<path id="path3701" fill="#D0D2D3" d="M55.531,24.304c-0.174-0.125-0.334-0.262-0.479-0.426c-4.923-4.338-10.096-7.529-15.38-9.493
		c-2.712-1.005-5.47-1.689-8.239-2.049c0.059,0.066,0.113,0.145,0.172,0.215c2.289,0.391,4.565,1.001,6.811,1.834
		c5.282,1.963,10.457,5.155,15.379,9.493c0.146,0.164,0.308,0.301,0.479,0.426l0.806,0.704l0.207-0.232
		c0.249,0.064,0.509,0.1,0.767,0.1c0.043,0,0.084-0.004,0.121-0.004L55.531,24.304z"/>
</g>
<path id="path3703" fill="#FFFFFF" d="M4.267,42.4l0.767,0.701c0.17,0.196,0.368,0.371,0.584,0.516
	c5.474,4.822,11.28,8.386,17.252,10.604c4.911,1.822,9.726,2.745,14.315,2.745c0.317,0,0.64-0.004,0.957-0.012
	c4.082-0.113,7.644-0.677,10.582-1.666c1.256-0.379,2.461-0.931,3.576-1.636c0.082-0.051,0.155-0.092,0.215-0.137
	c0.024-0.02,0.049-0.031,0.073-0.047l0.274-0.188c0.015-0.012,0.027-0.023,0.027-0.023l0.049-0.029
	c3.271-2.31,5.41-5.744,6.021-9.689c1.242-7.971-4.23-15.461-12.197-16.697c-0.746-0.117-1.506-0.176-2.257-0.176
	c-3.448,0-6.805,1.236-9.452,3.481c-2.676,2.269-4.448,5.425-4.988,8.89c-0.645,4.143,0.546,8.343,3.16,11.525
	c-2.767-0.358-5.527-1.047-8.24-2.049c-5.284-1.962-10.457-5.154-15.378-9.496c-0.147-0.156-0.305-0.302-0.477-0.423l-0.808-0.704
	l-0.203,0.232c-0.252-0.064-0.51-0.104-0.772-0.104c-1.689,0-3.066,1.381-3.066,3.069c0,0.375,0.066,0.739,0.196,1.079L4.267,42.4z
	 M36.088,39.977c0.643-4.115,4.264-7.221,8.421-7.221c0.44,0,0.884,0.035,1.318,0.105c2.249,0.349,4.228,1.557,5.573,3.399
	c1.346,1.839,1.896,4.095,1.545,6.341c-0.643,4.113-4.264,7.219-8.424,7.219c-0.438,0-0.881-0.038-1.318-0.104
	c-2.247-0.352-4.225-1.557-5.57-3.397C36.288,44.475,35.738,42.221,36.088,39.977z"/>
<g id="g3705">
	<path id="path3707" fill="#D0D2D3" d="M23.747,54.221c-5.974-2.218-11.778-5.781-17.252-10.604
		c-0.217-0.145-0.415-0.318-0.589-0.516L5.143,42.4l0.211-0.23c-0.129-0.34-0.196-0.704-0.196-1.079c0-1.502,1.08-2.75,2.505-3.012
		c-0.176-0.035-0.356-0.06-0.538-0.06c-1.689,0-3.066,1.381-3.066,3.07c0,0.375,0.067,0.739,0.196,1.079L4.044,42.4L4.809,43.1
		c0.17,0.197,0.368,0.371,0.585,0.517c5.476,4.821,11.28,8.386,17.252,10.604c4.913,1.822,9.727,2.745,14.315,2.745
		c0.176,0,0.348-0.004,0.521-0.008C33.066,56.884,28.45,55.965,23.747,54.221z"/>
	<path id="path3709" fill="#D0D2D3" d="M45.604,32.861c2.25,0.349,4.229,1.557,5.574,3.399c1.346,1.839,1.893,4.095,1.543,6.341
		c-0.613,3.931-3.941,6.935-7.863,7.195c0.18,0.012,0.361,0.023,0.539,0.023c4.162,0,7.783-3.105,8.424-7.221
		c0.35-2.244-0.198-4.502-1.545-6.34c-1.344-1.843-3.323-3.051-5.572-3.398c-0.436-0.071-0.881-0.106-1.318-0.106
		c-0.188,0-0.373,0.009-0.559,0.021C45.088,32.795,45.346,32.818,45.604,32.861z"/>
	<path id="path3711" fill="#D0D2D3" d="M34.102,50.563c-2.613-3.184-3.802-7.383-3.156-11.525c0.54-3.465,2.31-6.621,4.986-8.89
		c2.514-2.132,5.666-3.348,8.93-3.469c-0.19-0.008-0.385-0.012-0.576-0.012c-3.447,0-6.807,1.236-9.451,3.481
		c-2.675,2.269-4.447,5.425-4.987,8.89c-0.634,4.064,0.504,8.175,3.012,11.343C33.271,50.445,33.688,50.509,34.102,50.563z"/>
	<path id="path3713" fill="#D0D2D3" d="M8.225,38.021c0.01,0,0.02,0.004,0.031,0.004L8.1,37.893l-0.125,0.145
		C8.057,38.027,8.139,38.021,8.225,38.021z"/>
</g>
</svg>
