<?xml version="1.0" encoding="utf-8"?>
<!-- Generator: Adobe Illustrator 16.0.0, SVG Export Plug-In . SVG Version: 6.00 Build 0)  -->
<!DOCTYPE svg PUBLIC "-//W3C//DTD SVG 1.1//EN" "http://www.w3.org/Graphics/SVG/1.1/DTD/svg11.dtd">
<svg version="1.1"
	 id="Layer_1" xmlns:dc="http://purl.org/dc/elements/1.1/" xmlns:cc="http://creativecommons.org/ns#" xmlns:rdf="http://www.w3.org/1999/02/22-rdf-syntax-ns#" xmlns:svg="http://www.w3.org/2000/svg" xmlns:sodipodi="http://sodipodi.sourceforge.net/DTD/sodipodi-0.dtd" xmlns:inkscape="http://www.inkscape.org/namespaces/inkscape" inkscape:export-ydpi="90" inkscape:export-xdpi="90" inkscape:export-filename="D:\TESTINGEMOJI\SVGTEST\264C.png" sodipodi:docname="264C.svg" inkscape:version="0.48.5 r10040"
	 xmlns="http://www.w3.org/2000/svg" xmlns:xlink="http://www.w3.org/1999/xlink" x="0px" y="0px" width="64px" height="64px"
	 viewBox="0 0 64 64" enable-background="new 0 0 64 64" xml:space="preserve">
<sodipodi:namedview  inkscape:cy="32" inkscape:cx="32" inkscape:zoom="3.6875" showgrid="false" guidetolerance="10" gridtolerance="10" objecttolerance="10" bordercolor="#666666" pagecolor="#ffffff" borderopacity="1" id="namedview3769" inkscape:current-layer="Layer_1" inkscape:window-maximized="0" inkscape:window-y="359" inkscape:window-x="498" inkscape:window-height="480" inkscape:window-width="640" inkscape:pageshadow="2" inkscape:pageopacity="0">
	</sodipodi:namedview>
<path id="path3751" fill="#009345" d="M63.947,57.052c0,3.812-3.088,6.896-6.891,6.896H6.892C3.088,63.947,0,60.861,0,57.052V6.895
	C0,3.084,3.088,0,6.892,0h50.165c3.805,0,6.891,3.084,6.891,6.895V57.052L63.947,57.052z"/>
<path id="path3753" fill="#076E38" d="M0,48.811v8.359c0,3.813,3.086,6.898,6.89,6.898h50.165c3.809,0,6.893-3.088,6.893-6.898
	V7.012C53.027,46.678,13.773,49.191,0,48.811z"/>
<path id="path3755" fill="#FFFFFF" d="M52.146,55.721c0-1.851-1.51-3.361-3.362-3.361c-0.468,0-0.923,0.102-1.354,0.289
	l-0.013-0.004l-0.22,0.114c-1.184,0.585-2.274,0.958-3.336,1.14c-1.127,0.185-2.104-0.023-3.03-0.651
	c-1.149-0.782-1.856-1.808-2.163-3.154c-0.186-0.813-0.204-1.67-0.063-2.629c0.166-1.124,0.486-2.291,1.017-3.677
	c0.599-1.575,1.349-3.197,2.426-5.26c1.579-3.014,2.962-6.192,4.228-9.728c0.935-2.608,2.043-6.078,2.31-9.821
	c0.095-1.332,0.022-2.691-0.218-4.16c-0.446-2.679-1.651-5.103-3.596-7.188C41.876,4.5,38.426,2.916,34.529,2.916
	c-1.154,0-2.36,0.142-3.59,0.421c-2.668,0.604-5.044,1.928-7.262,4.05c-1.554,1.481-2.642,3.327-3.235,5.483
	c-0.656,2.377-0.76,4.923-0.33,8.018c0.259,1.858,0.723,3.819,1.418,5.991c-1.563-0.357-3.18-0.357-4.753-0.012
	c-6.093,1.351-9.933,7.019-8.933,13.183c0.899,5.56,5.649,9.595,11.292,9.591c1.059,0,2.119-0.144,3.152-0.433
	c4.479-1.263,7.728-5.062,8.281-9.688c0.198-1.677,0.102-3.483-0.283-5.373c-0.373-1.823-0.94-3.576-1.496-5.197
	c-0.994-2.895-1.554-5.162-1.819-7.338c-0.26-2.118-0.228-3.854,0.098-5.465c0.306-1.512,0.872-2.73,1.736-3.728
	c1.426-1.65,3.261-2.443,5.455-2.365c1.122,0.043,2.245,0.306,3.34,0.801c1.733,0.774,2.856,2.019,3.434,3.803
	c0.427,1.32,0.578,2.734,0.466,4.336c-0.151,2.102-0.617,4.345-1.421,6.863c-0.854,2.675-2.018,5.456-3.659,8.751
	c-0.856,1.713-1.823,3.666-2.719,5.634c-1.158,2.562-1.861,4.922-2.148,7.221c-0.313,2.506,0.043,4.871,1.053,7.022
	c1.901,4.035,5.717,6.545,9.961,6.545c0.904,0,1.83-0.112,2.746-0.336c1.92-0.469,3.651-1.297,4.771-1.866
	c0.141-0.06,0.281-0.13,0.438-0.226c0.113-0.059,0.229-0.133,0.354-0.22l0.104-0.079l-0.002-0.029
	C51.723,57.633,52.146,56.711,52.146,55.721z M24.415,38.416c0.018,1.289-0.55,2.648-1.518,3.63c-0.684,0.69-1.888,1.517-3.73,1.517
	h-0.114c-1.497-0.026-2.797-0.573-3.755-1.578c-0.971-1.01-1.526-2.444-1.491-3.842c0.061-2.551,2.061-5.187,5.29-5.187l0.102,0.004
	c1.906,0.031,3.122,0.907,3.803,1.634c0.954,1.021,1.485,2.428,1.418,3.76l-0.004,0.039L24.415,38.416L24.415,38.416z"/>
<g id="g3757">
	<path id="path3759" fill="#D0D2D3" d="M21.477,26.709c0.318,0.043,0.639,0.094,0.955,0.169c-0.695-2.172-1.159-4.133-1.418-5.991
		c-0.432-3.095-0.326-5.641,0.326-8.018c0.595-2.157,1.686-4.002,3.237-5.483c2.219-2.122,4.596-3.446,7.264-4.05
		c1.084-0.244,2.146-0.377,3.177-0.405c-0.164-0.008-0.324-0.016-0.49-0.016c-1.153,0-2.359,0.142-3.589,0.421
		c-2.668,0.604-5.044,1.928-7.262,4.05c-1.554,1.481-2.642,3.327-3.239,5.483c-0.652,2.377-0.756,4.923-0.326,8.018
		C20.361,22.695,20.812,24.608,21.477,26.709z"/>
	<path id="path3761" fill="#D0D2D3" d="M44.764,53.896c1.061-0.181,2.151-0.554,3.336-1.139l0.221-0.113l0.011,0.004
		c0.292-0.131,0.595-0.213,0.907-0.252c-0.15-0.02-0.301-0.039-0.454-0.039c-0.468,0-0.927,0.103-1.354,0.291l-0.013-0.004
		l-0.22,0.113c-1.184,0.585-2.274,0.958-3.336,1.139c-0.109,0.013-0.217,0.028-0.323,0.041
		C43.928,53.977,44.336,53.969,44.764,53.896z"/>
	<path id="path3763" fill="#D0D2D3" d="M19.64,43.543c0.104,0.004,0.209,0.016,0.317,0.02h0.114c1.842,0,3.046-0.824,3.728-1.517
		c0.97-0.981,1.538-2.341,1.52-3.63v-0.023v-0.039c0.071-1.332-0.459-2.737-1.414-3.76c-0.684-0.728-1.897-1.603-3.803-1.634
		L20,32.956c-0.149,0-0.292,0.008-0.436,0.021c1.697,0.129,2.801,0.938,3.438,1.618c0.954,1.021,1.485,2.427,1.418,3.761
		l-0.004,0.037v0.024c0.018,1.289-0.55,2.647-1.518,3.63C22.274,42.674,21.217,43.417,19.64,43.543z"/>
	<path id="path3765" fill="#D0D2D3" d="M33.505,54.486c-1.013-2.152-1.367-4.519-1.052-7.023c0.287-2.299,0.99-4.658,2.148-7.221
		c0.893-1.969,1.862-3.92,2.719-5.633c1.641-3.296,2.806-6.077,3.66-8.752c0.803-2.518,1.269-4.761,1.418-6.863
		c0.113-1.603-0.037-3.017-0.465-4.336c-0.58-1.784-1.703-3.029-3.434-3.803c-1.094-0.495-2.217-0.758-3.339-0.801
		c-0.257-0.012-0.507-0.008-0.752,0.008c1.067,0.059,2.144,0.326,3.188,0.793c1.733,0.774,2.856,2.019,3.434,3.803
		c0.427,1.32,0.578,2.734,0.466,4.336c-0.151,2.102-0.617,4.345-1.421,6.863c-0.854,2.675-2.018,5.456-3.659,8.752
		c-0.856,1.713-1.824,3.664-2.72,5.633c-1.157,2.563-1.86,4.922-2.147,7.221c-0.312,2.506,0.043,4.871,1.054,7.023
		c1.901,4.035,5.717,6.545,9.961,6.545c0.136,0,0.271-0.008,0.408-0.012C38.93,60.835,35.332,58.368,33.505,54.486z"/>
	<path id="path3767" fill="#D0D2D3" d="M8.743,40.05c-0.998-6.164,2.842-11.832,8.935-13.183c0.628-0.134,1.265-0.216,1.901-0.248
		c-0.937-0.036-1.877,0.047-2.805,0.248c-6.093,1.351-9.933,7.019-8.933,13.183c0.899,5.56,5.649,9.595,11.292,9.591
		c0.153,0,0.304-0.005,0.456-0.009C14.146,49.428,9.621,45.463,8.743,40.05z"/>
</g>
</svg>
