<svg xmlns="http://www.w3.org/2000/svg" viewBox="0 0 64 64" enable-background="new 0 0 64 64"><path fill="#ec1c24" d="M63.947,57.052c0,3.811-3.087,6.896-6.891,6.896H6.892C3.088,63.947,0,60.862,0,57.052V6.895   C0,3.084,3.088,0,6.892,0h50.165c3.804,0,6.891,3.084,6.891,6.895V57.052z"/><path fill="#c32129" d="M0,48.81v8.36c0,3.812,3.086,6.898,6.89,6.898h50.165c3.808,0,6.893-3.087,6.893-6.898V7.012   C53.027,46.678,13.773,49.191,0,48.81z"/><path fill="#fff" d="m52.15 55.721c0-1.851-1.509-3.362-3.362-3.362-.468 0-.923.102-1.355.29l-.012-.004-.22.114c-1.183.585-2.274.958-3.336 1.139-1.127.185-2.104-.023-3.03-.651-1.149-.782-1.856-1.808-2.163-3.154-.185-.814-.204-1.67-.063-2.629.166-1.124.487-2.291 1.017-3.677.599-1.575 1.348-3.197 2.426-5.26 1.579-3.01 2.962-6.192 4.228-9.727.934-2.608 2.042-6.078 2.309-9.821.095-1.332.023-2.691-.218-4.16-.446-2.679-1.651-5.103-3.595-7.188-2.896-3.131-6.346-4.715-10.243-4.715-1.154 0-2.36.142-3.59.421-2.668.604-5.04 1.928-7.262 4.05-1.554 1.481-2.642 3.327-3.235 5.483-.656 2.377-.76 4.923-.33 8.02.259 1.858.723 3.819 1.418 5.991-1.563-.357-3.18-.357-4.753-.012-6.093 1.351-9.933 7.02-8.933 13.183.899 5.56 5.649 9.594 11.292 9.59 1.059 0 2.119-.143 3.152-.432 4.479-1.262 7.728-5.061 8.281-9.688.198-1.677.102-3.484-.283-5.374-.373-1.823-.94-3.575-1.496-5.197-.994-2.895-1.554-5.162-1.819-7.338-.26-2.118-.228-3.854.098-5.465.306-1.512.872-2.73 1.736-3.728 1.426-1.65 3.261-2.443 5.455-2.365 1.122.043 2.245.306 3.339.801 1.734.774 2.857 2.02 3.434 3.803.427 1.32.579 2.734.466 4.336-.152 2.102-.617 4.345-1.421 6.863-.854 2.675-2.02 5.456-3.659 8.752-.856 1.713-1.824 3.665-2.719 5.633-1.158 2.562-1.861 4.922-2.148 7.221-.312 2.506.043 4.871 1.053 7.02 1.902 4.03 5.718 6.545 9.962 6.545.903 0 1.83-.113 2.746-.337 1.92-.468 3.651-1.297 4.771-1.866.14-.06.281-.13.438-.225.113-.059.228-.133.354-.22l.104-.079-.002-.03c.744-.64 1.168-1.562 1.168-2.552m-27.731-17.305c.018 1.289-.55 2.648-1.518 3.63-.684.691-1.888 1.517-3.73 1.517h-.114c-1.497-.027-2.797-.574-3.755-1.579-.971-1.01-1.526-2.444-1.491-3.842.061-2.55 2.061-5.186 5.29-5.186l.102.004c1.906.031 3.122.907 3.803 1.634.954 1.021 1.485 2.427 1.418 3.76l-.004.038v.024"/><g fill="#d0d2d3"><path d="m21.477 26.709c.318.043.639.094.955.169-.695-2.172-1.159-4.133-1.418-5.991-.432-3.095-.326-5.641.326-8.02.595-2.157 1.686-4 3.237-5.483 2.219-2.122 4.596-3.446 7.264-4.05 1.084-.244 2.146-.377 3.176-.405-.163-.008-.323-.016-.489-.016-1.154 0-2.36.142-3.59.421-2.668.604-5.04 1.928-7.262 4.05-1.554 1.481-2.642 3.327-3.239 5.483-.652 2.377-.756 4.923-.326 8.02.25 1.808.701 3.721 1.366 5.822"/><path d="m44.764 53.897c1.06-.181 2.151-.554 3.336-1.139l.22-.114.011.004c.292-.13.595-.213.907-.251-.15-.02-.301-.039-.454-.039-.468 0-.927.102-1.355.29l-.012-.004-.22.114c-1.183.585-2.274.958-3.336 1.139-.109.012-.216.028-.323.04.39.04.798.032 1.226-.04"/><path d="m19.64 43.543c.104.004.209.016.317.02h.114c1.842 0 3.046-.825 3.728-1.517.97-.981 1.538-2.341 1.52-3.63v-.024-.038c.071-1.333-.459-2.738-1.414-3.76-.684-.728-1.897-1.603-3.803-1.634l-.102-.004c-.149 0-.292.008-.436.02 1.697.129 2.801.939 3.438 1.619.954 1.021 1.485 2.427 1.418 3.76l-.004.038v.024c.018 1.289-.55 2.648-1.518 3.63-.624.627-1.681 1.37-3.258 1.496"/><path d="m33.505 54.49c-1.013-2.152-1.367-4.518-1.052-7.02.287-2.299.99-4.659 2.149-7.221.892-1.968 1.862-3.92 2.718-5.633 1.641-3.296 2.806-6.077 3.66-8.752.803-2.518 1.269-4.761 1.418-6.863.113-1.603-.037-3.02-.464-4.336-.58-1.784-1.703-3.03-3.434-3.803-1.094-.495-2.217-.758-3.339-.801-.257-.012-.507-.008-.752.008 1.068.059 2.144.326 3.188.793 1.734.774 2.857 2.02 3.434 3.803.427 1.32.579 2.734.466 4.336-.152 2.102-.617 4.345-1.421 6.863-.854 2.675-2.02 5.456-3.659 8.752-.856 1.713-1.824 3.665-2.719 5.633-1.158 2.562-1.861 4.922-2.148 7.221-.312 2.506.043 4.871 1.053 7.02 1.902 4.03 5.718 6.545 9.962 6.545.135 0 .271-.008.408-.012-4.04-.184-7.641-2.651-9.468-6.533"/><path d="m8.743 40.05c-.998-6.164 2.842-11.832 8.935-13.183.628-.134 1.265-.216 1.901-.248-.937-.036-1.877.047-2.805.248-6.093 1.351-9.933 7.02-8.933 13.183.899 5.56 5.649 9.594 11.292 9.59.153 0 .304-.004.456-.008-5.443-.204-9.968-4.169-10.846-9.582"/></g></svg>