<svg xmlns="http://www.w3.org/2000/svg" viewBox="0 0 64 64" enable-background="new 0 0 64 64"><path fill="#f6921e" d="m63.881 56.91c0 3.798-3.078 6.874-6.874 6.874h-50.05c-3.796 0-6.876-3.076-6.876-6.874v-50.04c0-3.797 3.081-6.874 6.876-6.874h50.04c3.796 0 6.874 3.077 6.874 6.874v50.04"/><path fill="#dc7f27" d="M0,48.665v8.34c0,3.802,3.079,6.882,6.874,6.882h50.044c3.8,0,6.876-3.08,6.876-6.882V6.966   C52.901,46.537,13.74,49.045,0,48.665z"/><g fill-rule="evenodd"><path fill="#fff" d="m50.575 56.3c-.082 0-.16.004-.243.012-1.297-.289-2.222-.74-2.878-1.41-.786-.8-1.141-1.639-1.086-2.556.025-.023.05-.039.062-.047 2.386-1.388 4.471-3.292 6.185-5.654 3.93-5.413 5.847-11.542 5.693-18.228-.055-2.478-.637-4.994-1.777-7.693-.505-1.195-1.127-2.183-1.898-3.02-.878-.944-1.929-1.599-3.128-1.932-1.414-.396-2.724-.22-3.821.518-.609.411-1.186.92-1.661 1.481-.302.353-.556.729-.796 1.102.002-.138.005-.278.011-.42.018-.76.037-1.548.033-2.324v-.298c-.004-1.419-.004-2.893-.093-4.342-.045-.745-.206-1.563-.489-2.504-.465-1.529-1.515-2.791-3.13-3.755-1.591-.949-3.327-1.019-5.02-.192-.507.247-.976.533-1.397.854-1.683 1.289-2.894 2.715-3.689 4.346-.196-.713-.464-1.399-.804-2.042-.599-1.14-1.311-2.01-2.179-2.646-1.278-.937-2.728-1.27-4.301-.972-1.054.2-2 .659-2.992 1.446-.756.6-1.438 1.309-2.089 2.164-.619.819-1.18 1.705-1.705 2.692l-.006-.023-.068-.228c-.29-1.01-.588-2.042-1.168-3.01-.733-1.23-1.736-2.081-2.986-2.528-1.524-.544-3.122-.588-4.703-.11l-.241.067c-1.062.294-1.841 1.263-1.841 2.419 0 1.383 1.121 2.508 2.508 2.508.172 0 .339-.016.501-.051.591-.02 1.021.231 1.346.799.104.188.18.415.257.659l.055.164c.202.608.202 1.258.2 1.948v.152 31.867c.016-.015.034-.03.051-.046.168 1.9 1.763 3.385 3.705 3.385 1.983 0 3.6-1.552 3.714-3.507l.019.004c.008-1.215.012-2.43.02-3.646.012-3.292.028-6.689.071-10.03.039-2.524.133-5.224.31-8.759.072-1.454.31-2.948.702-4.433.692-2.61 1.871-4.699 3.605-6.388.365-.356.794-.667 1.249-.991.029-.02.057-.043.084-.059 0 .078-.002.157-.004.239-.004.094-.008.188-.008.282-.018 7.759-.043 15.516-.067 23.275-.009 2.391-.023 5.01-.049 8.229-.002.517-.014 1.039-.02 1.556-.014.133-.026.275-.026.412 0 2.108 1.709 3.816 3.816 3.816 2.043 0 3.705-1.606 3.803-3.629l.001-.004c.037-1.191.076-2.406.094-3.612.014-1.043.026-2.089.038-3.136.045-3.86.09-7.854.266-11.773.102-2.265.226-4.162.514-6.06.266-1.779.721-3.359 1.384-4.82.869-1.928 2.143-3.547 3.777-4.82.002.039.002.074.002.114.001 3.601.018 7.203.027 10.805l.015 6.541c.004 1.352.004 2.705.004 4.057-.004 4.538-.008 9.229.16 13.85.021.624-.043 1.309-.188 2.046-.411 2.042-2.076 2.516-3.401 2.56-.165.008-.325.004-.49-.004.012.012.02.031.031.051-.148-.023-.294-.039-.446-.039-1.623 0-2.938 1.316-2.938 2.939 0 1.622 1.314 2.936 2.938 2.936.023 0 .045 0 .066 0l0 0c.686.062 1.368.054 2.052-.031 1.676-.204 3.196-.828 4.517-1.847.317 1.164.784 2.332 1.649 3.363 1.025 1.207 2.193 2.112 3.577 2.762 1.438.675 3.047 1.078 4.297 1.078.088 0 .17-.004.255-.008.051.004.102.008.156.008 1.623 0 2.936-1.312 2.936-2.936-.002-1.624-1.315-2.937-2.938-2.937m-5.282-10.483l-.071.059c-.027.022-.057.046-.082.066-.004-.385-.008-.749-.004-1.113.014-1.708.027-3.413.043-5.122.021-2.646.043-5.287.063-7.932v-.196c.012-2.07.012-2.07.923-4.01.401-.858.876-1.728 1.407-2.594.287-.47.707-.921 1.075-1.297.199-.212.471-.408.783-.568.299-.153.572-.231.815-.231.385 0 .724.204 1.034.631.441.599.64 1.309.771 1.924 1.172 5.389.33 10.651-2.503 15.648-.94 1.654-2.291 3.155-4.254 4.731"/><g fill="#d0d2d3"><path d="m18.01 10.63l.066.224.008.027c.525-.988 1.086-1.874 1.705-2.692.651-.858 1.333-1.564 2.087-2.167.989-.784 1.941-1.242 2.996-1.442.257-.051.51-.078.763-.094-.473-.031-.958 0-1.456.094-1.054.2-2.01.659-2.996 1.442-.754.604-1.438 1.309-2.087 2.167-.443.584-.856 1.207-1.248 1.877.056.188.111.376.162.564"/><path d="m32.15 10.239c.794-1.634 2.01-3.061 3.686-4.346.424-.322.894-.608 1.398-.858.667-.325 1.341-.51 2.01-.557-.891-.062-1.803.118-2.7.557-.505.25-.976.537-1.399.858-1.398 1.074-2.471 2.245-3.249 3.55.094.259.181.529.257.796"/><path d="m45.936 18.453c-.004.142-.007.282-.009.42.24-.373.495-.752.796-1.105.475-.557 1.051-1.066 1.662-1.481.623-.416 1.31-.655 2.044-.709-.998-.074-1.925.168-2.737.709-.612.416-1.188.925-1.662 1.481-.027.031-.055.067-.08.098-.003.195-.007.395-.014.587"/><path d="m39.01 48.4c.147-.733.21-1.418.188-2.042-.168-4.62-.164-9.315-.162-13.85.002-1.356.002-2.705-.002-4.061l-.017-6.537c-.006-3.602-.016-7.204-.027-10.805 0-.04 0-.079 0-.114-.238.184-.468.38-.689.58.008 3.449.018 6.89.024 10.338l.016 6.537c.004 1.356.004 2.704.002 4.061-.002 4.534-.006 9.229.162 13.85.021.624-.041 1.309-.19 2.042-.409 2.042-2.074 2.52-3.401 2.563-.163.004-.325 0-.488-.009.004.013.012.017.018.028.085-.008.171-.012.26-.012.152 0 .299.016.447.039-.012-.02-.02-.039-.031-.056.164.009.326.013.488.009 1.326-.041 2.991-.519 3.402-2.561"/><path d="m45.923 45.871l.071-.059c1.966-1.572 3.319-3.077 4.256-4.731 2.832-4.993 3.675-10.255 2.505-15.644-.135-.616-.329-1.329-.772-1.924-.312-.427-.65-.635-1.035-.635-.117 0-.239.02-.37.059.253.083.492.271.711.576.441.595.64 1.309.772 1.924 1.17 5.389.328 10.651-2.505 15.644-.85 1.502-2.041 2.878-3.718 4.296 0 .184.002.368.004.561.027-.021.054-.041.081-.067"/><path d="m7.07 7.46c0-1.152.779-2.121 1.841-2.415l.239-.07c.608-.18 1.215-.286 1.821-.317-.833-.036-1.676.066-2.514.317l-.239.07c-1.062.294-1.842 1.263-1.842 2.415 0 1.387 1.121 2.512 2.508 2.512.117 0 .231-.012.347-.027-1.22-.169-2.161-1.216-2.161-2.485"/><path d="m34.775 56.841l0 0c-.025 0-.045.004-.069.004-1.621 0-2.936-1.313-2.936-2.936 0-1.501 1.126-2.74 2.579-2.916-.109-.016-.221-.023-.335-.023-1.623 0-2.938 1.316-2.938 2.939 0 1.622 1.315 2.936 2.938 2.936.023 0 .045-.004.068-.004l0 0c.402.038.802.046 1.2.03-.171-.008-.34-.012-.507-.03"/><path d="m46.566 61.09c-1.38-.649-2.552-1.551-3.574-2.763-.866-1.026-1.329-2.194-1.65-3.362-.188.149-.38.278-.576.407.317 1.027.769 2.051 1.532 2.955 1.023 1.212 2.191 2.113 3.575 2.763 1.441.679 3.049 1.082 4.299 1.082.086 0 .17-.004.253-.008.053 0 .105.008.156.008.042 0 .085-.004.123-.008-1.225-.027-2.758-.427-4.138-1.074"/><path d="m11.986 45.46c-.013.016-.033.031-.049.042v-31.866-.148c0-.694.004-1.344-.2-1.952l-.055-.16c-.077-.244-.151-.47-.257-.659-.327-.568-.752-.819-1.346-.803-.085.019-.176.034-.269.042.382.09.678.337.922.761.108.188.181.415.259.659l.053.16c.204.608.2 1.258.2 1.952v.148 31.866c.016-.011.036-.026.049-.042.174 1.896 1.765 3.381 3.709 3.381.114 0 .229-.004.341-.016-1.779-.164-3.194-1.587-3.357-3.365"/><path d="m25.297 45.03c0-.137.006-.279.02-.416.001-.517.02-1.035.023-1.552.023-3.226.035-5.839.047-8.229.027-7.76.047-15.52.066-23.279 0-.09.004-.188.008-.278 0-.086.004-.165.004-.243-.027.02-.055.043-.086.063-.212.152-.419.305-.619.455v.004c-.02 7.759-.043 15.52-.067 23.279-.008 2.391-.027 5-.049 8.229-.004.517-.001 1.035-.021 1.552-.014.137-.024.279-.024.416 0 2.104 1.709 3.812 3.818 3.812.117 0 .235-.004.351-.016-1.946-.172-3.471-1.806-3.471-3.797"/></g></g></svg>