<?xml version="1.0" encoding="utf-8"?>
<!-- Generator: Adobe Illustrator 16.0.0, SVG Export Plug-In . SVG Version: 6.00 Build 0)  -->
<!DOCTYPE svg PUBLIC "-//W3C//DTD SVG 1.1//EN" "http://www.w3.org/Graphics/SVG/1.1/DTD/svg11.dtd">
<svg version="1.1"
	 id="Layer_1" xmlns:dc="http://purl.org/dc/elements/1.1/" xmlns:cc="http://creativecommons.org/ns#" xmlns:rdf="http://www.w3.org/1999/02/22-rdf-syntax-ns#" xmlns:svg="http://www.w3.org/2000/svg" xmlns:sodipodi="http://sodipodi.sourceforge.net/DTD/sodipodi-0.dtd" xmlns:inkscape="http://www.inkscape.org/namespaces/inkscape" inkscape:export-ydpi="90" inkscape:export-xdpi="90" inkscape:export-filename="D:\TESTINGEMOJI\SVGTEST\264D.png" sodipodi:docname="264D.svg" inkscape:version="0.48.5 r10040"
	 xmlns="http://www.w3.org/2000/svg" xmlns:xlink="http://www.w3.org/1999/xlink" x="0px" y="0px" width="64px" height="64px"
	 viewBox="0 0 64 64" enable-background="new 0 0 64 64" xml:space="preserve">
<sodipodi:namedview  inkscape:cy="32" inkscape:cx="32" inkscape:zoom="3.6875" showgrid="false" guidetolerance="10" gridtolerance="10" objecttolerance="10" bordercolor="#666666" pagecolor="#ffffff" borderopacity="1" id="namedview3843" inkscape:current-layer="Layer_1" inkscape:window-maximized="0" inkscape:window-y="446" inkscape:window-x="581" inkscape:window-height="480" inkscape:window-width="640" inkscape:pageshadow="2" inkscape:pageopacity="0">
	</sodipodi:namedview>
<path id="path3815" fill="#009345" d="M63.881,56.91c0,3.798-3.078,6.874-6.874,6.874H6.962c-3.796,0-6.876-3.076-6.876-6.874V6.868
	c0-3.797,3.081-6.874,6.876-6.874h50.044c3.797,0,6.874,3.077,6.874,6.874L63.881,56.91L63.881,56.91z"/>
<path id="path3817" fill="#076E38" d="M0,48.665v8.34c0,3.802,3.079,6.882,6.874,6.882h50.044c3.8,0,6.876-3.08,6.876-6.882V6.966
	C52.9,46.537,13.74,49.045,0,48.665z"/>
<path id="path3819" fill="#FFFFFF" d="M50.575,56.299c-0.082,0-0.16,0.004-0.243,0.012c-1.297-0.289-2.223-0.74-2.878-1.41
	c-0.786-0.799-1.142-1.639-1.086-2.556c0.024-0.022,0.05-0.038,0.062-0.047c2.387-1.388,4.471-3.292,6.186-5.653
	c3.93-5.414,5.847-11.543,5.693-18.229c-0.056-2.478-0.638-4.994-1.777-7.693c-0.506-1.195-1.127-2.183-1.898-3.018
	c-0.878-0.944-1.929-1.599-3.128-1.932c-1.414-0.396-2.724-0.22-3.821,0.518c-0.608,0.411-1.186,0.92-1.66,1.481
	c-0.303,0.353-0.557,0.729-0.797,1.102c0.002-0.138,0.006-0.278,0.012-0.42c0.018-0.76,0.037-1.548,0.033-2.324v-0.298
	c-0.004-1.419-0.004-2.893-0.094-4.342c-0.045-0.745-0.205-1.563-0.488-2.504c-0.465-1.529-1.516-2.791-3.131-3.755
	c-1.59-0.949-3.326-1.019-5.021-0.192c-0.507,0.247-0.976,0.533-1.397,0.854c-1.683,1.289-2.894,2.715-3.688,4.346
	c-0.196-0.713-0.464-1.399-0.804-2.042c-0.599-1.14-1.311-2.006-2.179-2.646c-1.278-0.937-2.728-1.27-4.301-0.972
	c-1.054,0.2-2.004,0.659-2.992,1.446c-0.756,0.6-1.438,1.309-2.089,2.164c-0.619,0.819-1.18,1.705-1.705,2.692l-0.006-0.023
	l-0.068-0.228c-0.29-1.007-0.588-2.042-1.168-3.014c-0.733-1.23-1.736-2.081-2.986-2.528C11.63,4.544,10.032,4.5,8.451,4.978
	L8.21,5.045C7.148,5.339,6.369,6.308,6.369,7.464c0,1.383,1.121,2.508,2.508,2.508c0.172,0,0.339-0.016,0.501-0.051
	c0.591-0.02,1.021,0.231,1.346,0.799c0.104,0.188,0.18,0.415,0.257,0.659l0.055,0.164c0.202,0.608,0.202,1.258,0.2,1.948v0.152
	V45.51c0.016-0.015,0.034-0.029,0.051-0.046c0.168,1.9,1.763,3.386,3.705,3.386c1.983,0,3.6-1.553,3.714-3.508l0.019,0.004
	c0.008-1.215,0.012-2.43,0.02-3.646c0.012-3.292,0.028-6.689,0.071-10.032c0.039-2.524,0.133-5.224,0.31-8.759
	c0.072-1.454,0.31-2.948,0.702-4.433c0.692-2.61,1.871-4.699,3.605-6.388c0.365-0.356,0.794-0.667,1.249-0.991
	c0.029-0.02,0.057-0.043,0.084-0.059c0,0.078-0.002,0.157-0.004,0.239c-0.004,0.094-0.008,0.188-0.008,0.282
	c-0.018,7.759-0.043,15.516-0.067,23.275c-0.009,2.391-0.023,5.009-0.049,8.229c-0.002,0.518-0.014,1.039-0.02,1.557
	c-0.014,0.133-0.026,0.275-0.026,0.412c0,2.107,1.709,3.816,3.816,3.816c2.043,0,3.705-1.606,3.803-3.63l0.01-0.004
	c0.037-1.19,0.076-2.405,0.094-3.612c0.014-1.043,0.026-2.088,0.038-3.136c0.045-3.86,0.09-7.854,0.266-11.773
	c0.102-2.265,0.227-4.162,0.514-6.062c0.266-1.779,0.721-3.359,1.385-4.82c0.869-1.928,2.143-3.547,3.776-4.82
	c0.002,0.039,0.002,0.074,0.002,0.114c0.011,3.601,0.019,7.203,0.026,10.805l0.016,6.541c0.004,1.352,0.004,2.705,0.004,4.057
	c-0.004,4.538-0.008,9.229,0.16,13.85c0.021,0.625-0.043,1.31-0.188,2.047c-0.412,2.041-2.076,2.516-3.401,2.56
	c-0.165,0.009-0.325,0.004-0.49-0.004c0.013,0.013,0.021,0.031,0.031,0.051c-0.147-0.022-0.294-0.038-0.446-0.038
	c-1.623,0-2.938,1.315-2.938,2.938c0,1.622,1.314,2.937,2.938,2.937c0.023,0,0.045,0,0.066,0l0,0
	c0.686,0.062,1.367,0.053,2.052-0.031c1.677-0.205,3.196-0.828,4.517-1.848c0.317,1.164,0.785,2.332,1.649,3.363
	c1.024,1.207,2.192,2.111,3.577,2.762c1.438,0.676,3.047,1.078,4.297,1.078c0.088,0,0.17-0.004,0.255-0.008
	c0.052,0.004,0.103,0.008,0.156,0.008c1.623,0,2.937-1.313,2.937-2.936C53.512,57.611,52.197,56.299,50.575,56.299z M45.293,45.816
	l-0.07,0.059c-0.027,0.021-0.058,0.046-0.082,0.066c-0.004-0.385-0.009-0.75-0.004-1.113c0.014-1.708,0.026-3.413,0.043-5.122
	c0.021-2.646,0.043-5.287,0.063-7.932v-0.196c0.012-2.07,0.012-2.07,0.923-4.006c0.401-0.858,0.876-1.729,1.407-2.594
	c0.287-0.47,0.707-0.921,1.074-1.297c0.199-0.212,0.472-0.408,0.783-0.568c0.299-0.153,0.572-0.231,0.815-0.231
	c0.385,0,0.724,0.204,1.034,0.631c0.441,0.599,0.64,1.309,0.771,1.924c1.173,5.389,0.33,10.651-2.503,15.648
	C48.607,42.739,47.256,44.24,45.293,45.816z"/>
<g id="g3821">
	<path id="path3823" fill="#D0D2D3" d="M18.008,10.63l0.066,0.224l0.008,0.027c0.525-0.988,1.086-1.874,1.705-2.692
		c0.651-0.858,1.333-1.564,2.087-2.167c0.989-0.784,1.941-1.242,2.996-1.442c0.257-0.051,0.51-0.078,0.763-0.094
		c-0.473-0.031-0.958,0-1.456,0.094c-1.054,0.2-2.006,0.659-2.996,1.442c-0.754,0.604-1.438,1.309-2.087,2.167
		c-0.443,0.584-0.856,1.207-1.248,1.877C17.902,10.254,17.957,10.442,18.008,10.63z"/>
	<path id="path3825" fill="#D0D2D3" d="M32.154,10.239c0.793-1.634,2.008-3.062,3.686-4.346c0.424-0.322,0.895-0.608,1.398-0.858
		c0.666-0.325,1.341-0.51,2.007-0.557c-0.892-0.062-1.804,0.118-2.7,0.557c-0.505,0.25-0.977,0.537-1.398,0.858
		c-1.398,1.074-2.472,2.245-3.25,3.55C31.991,9.702,32.078,9.972,32.154,10.239z"/>
	<path id="path3827" fill="#D0D2D3" d="M45.936,18.453c-0.004,0.142-0.006,0.282-0.008,0.42c0.239-0.373,0.494-0.752,0.795-1.105
		c0.475-0.557,1.051-1.066,1.662-1.481c0.623-0.416,1.311-0.655,2.045-0.709c-0.998-0.074-1.926,0.168-2.738,0.709
		c-0.611,0.416-1.188,0.925-1.662,1.481c-0.026,0.031-0.055,0.067-0.079,0.098C45.947,18.061,45.943,18.261,45.936,18.453z"/>
	<path id="path3829" fill="#D0D2D3" d="M39.014,48.398c0.147-0.733,0.211-1.418,0.188-2.043c-0.168-4.619-0.164-9.314-0.162-13.85
		c0.002-1.356,0.002-2.705-0.002-4.061l-0.017-6.537c-0.006-3.602-0.017-7.204-0.027-10.805c0-0.04,0-0.079,0-0.114
		c-0.238,0.184-0.469,0.38-0.689,0.58c0.008,3.449,0.018,6.89,0.024,10.338l0.017,6.537c0.004,1.356,0.004,2.704,0.002,4.061
		c-0.002,4.534-0.007,9.229,0.161,13.851c0.021,0.623-0.041,1.309-0.19,2.041c-0.408,2.043-2.073,2.521-3.4,2.563
		c-0.163,0.004-0.325,0-0.488-0.009c0.004,0.013,0.012,0.017,0.018,0.027c0.086-0.008,0.172-0.012,0.261-0.012
		c0.151,0,0.299,0.016,0.446,0.039c-0.012-0.02-0.02-0.039-0.03-0.056c0.164,0.009,0.326,0.013,0.487,0.009
		C36.938,50.918,38.604,50.439,39.014,48.398z"/>
	<path id="path3831" fill="#D0D2D3" d="M45.923,45.871l0.071-0.059c1.966-1.572,3.318-3.078,4.256-4.731
		c2.832-4.993,3.675-10.255,2.505-15.644c-0.135-0.616-0.329-1.329-0.772-1.924c-0.312-0.427-0.649-0.635-1.035-0.635
		c-0.116,0-0.238,0.02-0.369,0.059c0.253,0.083,0.492,0.271,0.711,0.576c0.441,0.595,0.641,1.309,0.771,1.924
		c1.17,5.389,0.328,10.651-2.504,15.644c-0.851,1.502-2.041,2.878-3.719,4.296c0,0.184,0.002,0.368,0.004,0.561
		C45.869,45.917,45.896,45.896,45.923,45.871z"/>
	<path id="path3833" fill="#D0D2D3" d="M7.07,7.46c0-1.152,0.779-2.121,1.841-2.415l0.239-0.07c0.608-0.18,1.215-0.286,1.821-0.317
		c-0.833-0.036-1.676,0.066-2.514,0.317l-0.239,0.07C7.156,5.339,6.376,6.308,6.376,7.46c0,1.387,1.121,2.512,2.508,2.512
		c0.117,0,0.231-0.012,0.347-0.027C8.011,9.776,7.07,8.729,7.07,7.46z"/>
	<path id="path3835" fill="#D0D2D3" d="M34.775,56.841L34.775,56.841c-0.025,0-0.045,0.004-0.069,0.004
		c-1.621,0-2.936-1.313-2.936-2.936c0-1.501,1.126-2.74,2.58-2.916c-0.109-0.017-0.222-0.023-0.336-0.023
		c-1.623,0-2.938,1.316-2.938,2.939c0,1.622,1.315,2.936,2.938,2.936c0.023,0,0.045-0.004,0.068-0.004l0,0
		c0.402,0.038,0.802,0.046,1.2,0.03C35.111,56.863,34.941,56.859,34.775,56.841z"/>
	<path id="path3837" fill="#D0D2D3" d="M46.566,61.088c-1.381-0.648-2.553-1.551-3.574-2.763c-0.866-1.026-1.329-2.194-1.65-3.362
		c-0.188,0.148-0.38,0.278-0.576,0.407c0.317,1.026,0.77,2.051,1.532,2.955c1.022,1.212,2.19,2.112,3.575,2.763
		c1.441,0.68,3.049,1.082,4.299,1.082c0.086,0,0.17-0.004,0.253-0.008c0.054,0,0.104,0.008,0.156,0.008
		c0.042,0,0.085-0.004,0.123-0.008C49.479,62.135,47.945,61.734,46.566,61.088z"/>
	<path id="path3839" fill="#D0D2D3" d="M11.986,45.464c-0.013,0.017-0.033,0.031-0.049,0.042V13.64v-0.148
		c0-0.694,0.004-1.344-0.2-1.952l-0.055-0.16c-0.077-0.244-0.151-0.47-0.257-0.659c-0.327-0.568-0.752-0.819-1.346-0.803
		C9.994,9.937,9.903,9.952,9.81,9.96c0.382,0.09,0.678,0.337,0.922,0.761c0.108,0.188,0.181,0.415,0.259,0.659l0.053,0.16
		c0.204,0.608,0.2,1.258,0.2,1.952v0.148v31.866c0.016-0.011,0.036-0.025,0.049-0.042c0.174,1.896,1.765,3.381,3.709,3.381
		c0.114,0,0.229-0.004,0.341-0.016C13.564,48.665,12.149,47.242,11.986,45.464z"/>
	<path id="path3841" fill="#D0D2D3" d="M25.297,45.032c0-0.138,0.006-0.279,0.02-0.416c0.01-0.517,0.02-1.035,0.023-1.552
		c0.023-3.227,0.035-5.84,0.047-8.229c0.027-7.76,0.047-15.52,0.066-23.279c0-0.09,0.004-0.188,0.008-0.278
		c0-0.086,0.004-0.165,0.004-0.243c-0.027,0.02-0.055,0.043-0.086,0.063c-0.212,0.152-0.419,0.305-0.619,0.455v0.004
		c-0.021,7.759-0.043,15.52-0.067,23.279c-0.008,2.391-0.027,5.004-0.049,8.229c-0.004,0.518-0.01,1.035-0.021,1.553
		c-0.014,0.137-0.024,0.279-0.024,0.416c0,2.104,1.709,3.813,3.818,3.813c0.117,0,0.235-0.005,0.351-0.017
		C26.822,48.657,25.297,47.023,25.297,45.032z"/>
</g>
</svg>
