<?xml version="1.0" encoding="UTF-8" standalone="no"?>
<!-- Generator: Adobe Illustrator 16.0.0, SVG Export Plug-In . SVG Version: 6.00 Build 0)  -->

<svg
   xmlns:dc="http://purl.org/dc/elements/1.1/"
   xmlns:cc="http://creativecommons.org/ns#"
   xmlns:rdf="http://www.w3.org/1999/02/22-rdf-syntax-ns#"
   xmlns:svg="http://www.w3.org/2000/svg"
   xmlns="http://www.w3.org/2000/svg"
   xmlns:sodipodi="http://sodipodi.sourceforge.net/DTD/sodipodi-0.dtd"
   xmlns:inkscape="http://www.inkscape.org/namespaces/inkscape"
   version="1.1"
   id="Layer_1"
   x="0px"
   y="0px"
   width="64px"
   height="64px"
   viewBox="0 0 64 64"
   enable-background="new 0 0 64 64"
   xml:space="preserve"
   inkscape:version="0.48.5 r10040"
   sodipodi:docname="264F.svg"
   inkscape:export-filename="D:\TESTINGEMOJI\SVGTEST\264F.png"
   inkscape:export-xdpi="90"
   inkscape:export-ydpi="90"><metadata
   id="metadata3051"><rdf:RDF><cc:Work
       rdf:about=""><dc:format>image/svg+xml</dc:format><dc:type
         rdf:resource="http://purl.org/dc/dcmitype/StillImage" /><dc:title></dc:title></cc:Work></rdf:RDF></metadata><defs
   id="defs3049" /><sodipodi:namedview
   pagecolor="#ffffff"
   bordercolor="#666666"
   borderopacity="1"
   objecttolerance="10"
   gridtolerance="10"
   guidetolerance="10"
   inkscape:pageopacity="0"
   inkscape:pageshadow="2"
   inkscape:window-width="640"
   inkscape:window-height="480"
   id="namedview3047"
   showgrid="false"
   inkscape:zoom="3.6875"
   inkscape:cx="32"
   inkscape:cy="32"
   inkscape:window-x="343"
   inkscape:window-y="314"
   inkscape:window-maximized="0"
   inkscape:current-layer="Layer_1" />
<path
   fill="#009345"
   d="M64.044,57.139c0,3.814-3.091,6.905-6.903,6.905H6.899C3.09,64.044,0,60.953,0,57.139V6.903  C0,3.092,3.09,0,6.899,0h50.242c3.813,0,6.903,3.092,6.903,6.903V57.139z"
   id="path3041" />
<path
   fill="#076E38"
   d="M0.002,48.134v8.372c0,3.816,3.09,6.906,6.901,6.906h50.24c3.813,0,6.901-3.09,6.901-6.906V6.271  C53.107,45.995,13.795,48.514,0.002,48.134z"
   id="path3043" />
<path
   fill="#FFFFFF"
   d="M59.396,52.568l-9.205-7.564v5.053c-0.237-0.066-0.487-0.104-0.744-0.104c0,0-0.038,0.002-0.059,0.002  c-0.136-0.009-0.268-0.022-0.396-0.045c-0.428-0.106-0.807-0.232-1.146-0.382c-3.152-1.668-3.488-7.67-3.484-10.27l0.02-0.002  c0.02-1.579,0.033-3.156,0.045-4.738c0.021-2.46,0.043-4.917,0.063-7.378V26.96c0-0.763,0.004-1.222,0.06-1.613v-6.142  c-0.024,0.04-0.052,0.077-0.079,0.116c0.004-0.13,0.008-0.258,0.012-0.39c0.017-0.708,0.037-1.44,0.033-2.162v-0.277  c-0.005-1.322-0.005-2.689-0.088-4.039c-0.041-0.695-0.188-1.454-0.455-2.331c-0.433-1.42-1.41-2.595-2.91-3.49  c-1.479-0.883-3.095-0.948-4.67-0.181c-0.473,0.23-0.906,0.496-1.299,0.797c-1.568,1.198-2.693,2.526-3.433,4.042  c-0.183-0.665-0.433-1.302-0.748-1.9c-0.559-1.061-1.22-1.865-2.03-2.461c-1.186-0.872-2.534-1.18-3.997-0.903  c-0.981,0.183-1.865,0.612-2.786,1.346c-0.704,0.557-1.337,1.217-1.941,2.01c-0.574,0.761-1.1,1.585-1.587,2.506  c0-0.008-0.002-0.018-0.004-0.023l-0.061-0.212c-0.273-0.935-0.549-1.898-1.088-2.803C16.73,7.707,15.8,6.917,14.637,6.5  c-1.418-0.508-2.903-0.545-4.375-0.103L10.038,6.46C9.051,6.731,8.327,7.634,8.327,8.71c0,1.287,1.043,2.331,2.333,2.331  c0.162,0,0.315-0.014,0.464-0.045c0.553-0.021,0.952,0.212,1.255,0.744c0.096,0.173,0.165,0.386,0.238,0.612l0.051,0.153  c0.187,0.565,0.187,1.17,0.187,1.812V44.1c0.012-0.019,0.03-0.031,0.03-0.031c0.173,1.752,1.658,3.136,3.464,3.136  c1.843,0,3.348-1.443,3.455-3.263c0,0,0.01,0.004,0.018,0.004c0.006-1.131,0.012-2.262,0.018-3.391  c0.012-3.062,0.024-6.223,0.067-9.333c0.036-2.347,0.122-4.859,0.287-8.144c0.067-1.354,0.288-2.742,0.651-4.124  c0.647-2.427,1.741-4.371,3.354-5.942c0.34-0.331,0.74-0.62,1.163-0.923c0.025-0.018,0.051-0.039,0.077-0.055  c0,0.073,0,0.148,0,0.223c-0.006,0.088-0.01,0.175-0.01,0.264c-0.018,7.217-0.042,14.433-0.063,21.648  c-0.008,2.225-0.021,4.658-0.045,7.658c-0.004,0.479-0.012,0.964-0.018,1.445c-0.014,0.121-0.023,0.254-0.023,0.384  c0,1.962,1.587,3.549,3.546,3.549c1.9,0,3.447-1.495,3.539-3.373l0.008-0.004c0.038-1.11,0.073-2.239,0.09-3.362  c0.01-0.972,0.026-1.943,0.034-2.915c0.039-3.592,0.083-7.306,0.248-10.951c0.094-2.107,0.208-3.874,0.476-5.64  c0.25-1.657,0.674-3.124,1.289-4.483c0.809-1.794,1.992-3.299,3.514-4.485c0.002,0.035,0.002,0.071,0.002,0.104  c0.01,3.35,0.018,6.7,0.022,10.05l0.017,3.763c0.002,1.257,0.002,0.659,0.002,1.914c-0.002,2.827,0,5.715,0.047,8.604  c0.009,0.415,0.015,0.832,0.027,1.258c0.016,0.848,0.029,1.705,0.063,2.561c0.01,0.288,0.022,0.574,0.037,0.857  c0.104,1.858,0.301,3.774,0.772,5.602c0.094,0.365,0.2,0.727,0.318,1.083c0.096,0.331,0.206,0.655,0.332,0.979  c0.126,0.319,0.268,0.635,0.423,0.94c1.726,3.476,5.558,5.798,9.364,5.711c0.255-0.002,0.505-0.039,0.74-0.106v4.823L59.396,52.568z  "
   id="path3045" />
</svg>