<svg xmlns="http://www.w3.org/2000/svg" viewBox="0 0 64 64" enable-background="new 0 0 64 64"><path fill="#1b75bb" d="M64.044,57.138c0,3.815-3.091,6.906-6.904,6.906H6.899C3.09,64.044,0,60.953,0,57.138V6.903
		C0,3.092,3.09,0,6.899,0H57.14c3.813,0,6.904,3.092,6.904,6.903V57.138z"/><path fill="#0867a3" d="m.002 48.13v8.372c0 3.816 3.09 6.906 6.901 6.906h50.24c3.813 0 6.902-3.09 6.902-6.906v-50.23c-10.936 39.724-50.25 42.24-64.04 41.863"/><path fill-rule="evenodd" fill="#fff" d="m59.4 52.57l-9.204-7.565v5.05c-.238-.066-.488-.104-.745-.104 0 0-.038.002-.058.002-.136-.008-.268-.023-.397-.045-.427-.106-.807-.232-1.146-.382-3.153-1.668-3.488-7.67-3.484-10.269l.019-.002c.02-1.579.033-3.157.045-4.738.021-2.461.043-4.918.062-7.379v-.179c0-.763.004-1.222.06-1.613v-6.142c-.025.04-.052.077-.079.116.004-.13.008-.258.012-.39.016-.708.036-1.44.032-2.162v-.277c-.004-1.322-.004-2.689-.087-4.04-.041-.695-.188-1.454-.456-2.331-.432-1.42-1.409-2.595-2.91-3.49-1.479-.883-3.094-.948-4.67-.181-.472.23-.906.496-1.298.797-1.568 1.198-2.693 2.526-3.433 4.04-.183-.665-.433-1.302-.748-1.9-.559-1.061-1.22-1.865-2.03-2.461-1.186-.872-2.534-1.18-3.997-.903-.981.183-1.865.612-2.786 1.346-.704.557-1.337 1.217-1.941 2.01-.574.761-1.1 1.585-1.587 2.506 0-.008-.002-.018-.004-.023l-.061-.212c-.273-.935-.549-1.898-1.088-2.803-.687-1.143-1.617-1.933-2.78-2.35-1.418-.508-2.903-.545-4.375-.103l-.224.063c-.987.271-1.711 1.174-1.711 2.25 0 1.287 1.043 2.331 2.333 2.331.162 0 .315-.014.464-.045.553-.021.952.212 1.255.744.096.173.165.386.238.612l.051.153c.187.565.187 1.17.187 1.812v29.783c.012-.019.03-.032.03-.032.173 1.753 1.658 3.136 3.464 3.136 1.843 0 3.348-1.443 3.455-3.262 0 0 .001.004.018.004.006-1.131.012-2.262.018-3.391.012-3.062.024-6.223.067-9.334.036-2.347.122-4.859.287-8.144.067-1.354.288-2.742.651-4.124.647-2.427 1.741-4.371 3.354-5.942.34-.331.74-.62 1.163-.923.025-.018.051-.039.077-.055 0 .073 0 .148 0 .223-.006.088-.001.175-.001.264-.018 7.217-.042 14.433-.063 21.648-.008 2.225-.021 4.658-.045 7.658-.004.479-.012.964-.018 1.446-.014.121-.023.253-.023.383 0 1.962 1.587 3.549 3.546 3.549 1.9 0 3.447-1.495 3.539-3.373l.008-.004c.038-1.11.073-2.239.09-3.362.001-.972.026-1.943.034-2.915.039-3.592.083-7.306.248-10.951.094-2.107.208-3.874.476-5.64.25-1.657.673-3.124 1.289-4.483.809-1.794 1.992-3.299 3.513-4.485.002.035.002.071.002.104.001 3.35.018 6.7.023 10.05l.017 3.763c.002 1.257.002.659.002 1.914-.002 2.827 0 5.715.047 8.604.008.415.014.832.027 1.257.016.848.029 1.705.063 2.561.001.288.023.575.037.858.104 1.858.301 3.774.772 5.601.095.365.201.726.319 1.083.096.331.206.655.332.979.126.32.268.635.423.941 1.726 3.475 5.558 5.798 9.364 5.711.255-.002.505-.039.741-.106v4.823l9.204-7.565"/></svg>