<?xml version="1.0" encoding="UTF-8" standalone="no"?>
<!-- Generator: Adobe Illustrator 16.0.0, SVG Export Plug-In . SVG Version: 6.00 Build 0)  -->

<svg
   xmlns:dc="http://purl.org/dc/elements/1.1/"
   xmlns:cc="http://creativecommons.org/ns#"
   xmlns:rdf="http://www.w3.org/1999/02/22-rdf-syntax-ns#"
   xmlns:svg="http://www.w3.org/2000/svg"
   xmlns="http://www.w3.org/2000/svg"
   xmlns:sodipodi="http://sodipodi.sourceforge.net/DTD/sodipodi-0.dtd"
   xmlns:inkscape="http://www.inkscape.org/namespaces/inkscape"
   version="1.1"
   id="Layer_1"
   x="0px"
   y="0px"
   width="64px"
   height="64px"
   viewBox="0 0 64 64"
   enable-background="new 0 0 64 64"
   xml:space="preserve"
   inkscape:version="0.48.5 r10040"
   sodipodi:docname="2650.svg"
   inkscape:export-filename="D:\TESTINGEMOJI\SVGTEST\2650.png"
   inkscape:export-xdpi="90"
   inkscape:export-ydpi="90"><metadata
   id="metadata3122"><rdf:RDF><cc:Work
       rdf:about=""><dc:format>image/svg+xml</dc:format><dc:type
         rdf:resource="http://purl.org/dc/dcmitype/StillImage" /><dc:title></dc:title></cc:Work></rdf:RDF></metadata><defs
   id="defs3120" /><sodipodi:namedview
   pagecolor="#ffffff"
   bordercolor="#666666"
   borderopacity="1"
   objecttolerance="10"
   gridtolerance="10"
   guidetolerance="10"
   inkscape:pageopacity="0"
   inkscape:pageshadow="2"
   inkscape:window-width="640"
   inkscape:window-height="480"
   id="namedview3118"
   showgrid="false"
   inkscape:zoom="3.6875"
   inkscape:cx="32"
   inkscape:cy="32"
   inkscape:window-x="242"
   inkscape:window-y="353"
   inkscape:window-maximized="0"
   inkscape:current-layer="Layer_1" />
<path
   fill="#009345"
   d="M63.92,57.027c0,3.811-3.084,6.889-6.889,6.889H6.89c-3.803,0-6.89-3.078-6.89-6.889V6.888  C0,3.079,3.086,0,6.89,0h50.143c3.804,0,6.888,3.079,6.888,6.888L63.92,57.027L63.92,57.027z"
   id="path3106" />
<path
   fill="#076E38"
   d="M0,48.664v8.355c0,3.81,3.084,6.896,6.888,6.896h50.141c3.809,0,6.891-3.087,6.891-6.896V6.884  C53.006,46.532,13.767,49.045,0,48.664z"
   id="path3108" />
<path
   fill="#FFFFFF"
   d="M49.295,9.852L10.353,48.794c-1.455,1.455-1.451,3.819,0.004,5.272c1.451,1.451,3.815,1.455,5.27,0  l38.941-38.94c1.455-1.455,1.455-3.821,0.002-5.274C53.115,8.397,50.75,8.397,49.295,9.852z"
   id="path3110" />
<path
   fill="#FFFFFF"
   d="M10.944,34.439l19.037,19.039c1.455,1.455,3.819,1.453,5.274-0.002c1.452-1.453,1.454-3.816,0-5.271  L16.216,29.168c-1.455-1.455-3.821-1.455-5.272-0.004C9.489,30.619,9.489,32.984,10.944,34.439z"
   id="path3112" />
<path
   fill="#FFFFFF"
   d="M31.043,16.218h20.893c2.061-0.002,3.729-1.673,3.729-3.73c0-2.054-1.669-3.727-3.728-3.727L31.045,8.759  c-2.058-0.002-3.732,1.675-3.732,3.729C27.314,14.543,28.987,16.216,31.043,16.218z"
   id="path3114" />
<path
   fill="#FFFFFF"
   d="M48.203,33.378V12.485c0.002-2.06,1.673-3.729,3.73-3.727c2.053,0,3.727,1.667,3.727,3.725l0.002,20.895  c0.002,2.056-1.674,3.729-3.729,3.729C49.878,37.105,48.205,35.434,48.203,33.378z"
   id="path3116" />
</svg>