<svg xmlns="http://www.w3.org/2000/svg" viewBox="0 0 64 64" enable-background="new 0 0 64 64"><path fill="#ec1c24" d="M63.92,57.028c0,3.81-3.084,6.888-6.888,6.888H6.89c-3.803,0-6.89-3.078-6.89-6.888V6.888
		C0,3.079,3.086,0,6.89,0h50.143c3.804,0,6.888,3.079,6.888,6.888V57.028z"/><path fill="#c32129" d="m0 48.664v8.356c0 3.809 3.084 6.896 6.888 6.896h50.14c3.808 0 6.89-3.087 6.89-6.896v-50.14c-10.914 39.648-50.15 42.16-63.92 41.78"/><g fill="#fff"><path d="m49.3 9.852l-38.942 38.942c-1.455 1.455-1.451 3.819.004 5.273 1.451 1.451 3.815 1.455 5.27 0l38.942-38.941c1.455-1.455 1.455-3.821.002-5.274-1.456-1.455-3.821-1.455-5.276 0"/><path d="m10.944 34.439l19.04 19.04c1.455 1.455 3.819 1.453 5.274-.002 1.452-1.453 1.454-3.816 0-5.271l-19.04-19.04c-1.455-1.455-3.821-1.455-5.272-.004-1.455 1.455-1.455 3.821 0 5.275"/><path d="m31.04 16.218h20.893c2.06-.002 3.729-1.673 3.729-3.73 0-2.054-1.669-3.727-3.727-3.727l-20.893-.002c-2.058-.002-3.732 1.675-3.732 3.729.0001 2.055 1.674 3.728 3.73 3.73"/><path d="m48.2 33.378v-20.893c.002-2.06 1.673-3.729 3.73-3.727 2.054 0 3.727 1.667 3.727 3.725l.002 20.895c.002 2.056-1.673 3.73-3.729 3.73-2.055-.002-3.728-1.674-3.73-3.73"/></g></svg>