<svg xmlns="http://www.w3.org/2000/svg" viewBox="0 0 64 64" enable-background="new 0 0 64 64"><path fill="#f6921e" d="M64.221,57.252c0,3.823-3.097,6.914-6.914,6.914H6.967c-3.818,0-6.917-3.091-6.917-6.914V6.915   C0.051,3.091,3.149,0,6.967,0h50.339c3.817,0,6.914,3.091,6.914,6.915V57.252z"/><path fill="#dc7f27" d="m.051 48.688v8.389c0 3.824 3.097 6.918 6.915 6.918h50.34c3.821 0 6.916-3.094 6.916-6.918v-50.34c-10.957 39.804-50.35 42.33-64.17 41.949"/><path fill="#fff" d="m59.957 35.836c-.66-1.961-1.812-3.648-3.422-5.02-1.803-1.527-3.928-2.505-6.309-2.899-1.895-.319-3.683-.183-5.301.391-1.924.684-3.587 1.758-4.967 3.205-.234-1.269-.439-2.521-.538-3.761l-.081-.989c-.057-.656-.112-1.34-.157-2l-.018-.304c-.119-1.81-.237-3.68-.326-5.517-.108-2.318-.26-4.271-.65-6.256-.26-1.345-.699-3.097-1.803-4.735-.724-1.072-1.577-1.823-2.618-2.296-1.222-.554-2.355-.664-3.489-.329-.684.199-1.48.471-2.213.974-.637.432-1.187.85-1.683 1.279-1.914 1.671-3.412 3.836-4.585 6.611-.369.879-.704 1.801-1.013 2.799-.569-2.167-1.263-3.952-2.158-5.588-.694-1.258-1.447-2.285-2.304-3.138-1.75-1.732-3.771-2.612-6.108-2.612h-.006-.335c-.371 0-.733.006-1.029.036-.855 0-1.677.27-2.397.798-1.023.765-1.613 1.936-1.613 3.21 0 2.06 1.561 3.761 3.603 3.981l.077.091.469-.028c.217-.016.434-.027.698-.033.691 0 1.279.26 1.845.816.406.396.761.877 1.086 1.476 1.297 2.371 2.123 4.837 2.454 7.329.11.822.195 1.666.278 2.489l.16 1.482c.276 2.519.398 4.825.367 7.05l-.006.485c-.006.682-.016 1.376-.001 1.969-.02.17-.032.341-.032.515 0 2.562 2.085 4.647 4.65 4.647 2.56 0 4.646-2.085 4.646-4.647 0-.195-.012-.383-.033-.596-.001-.416-.026-.837-.042-1.255-.032-.69-.063-1.405-.042-2.092.067-2.296.298-4.62.682-6.909.451-2.702 1.078-4.999 1.92-7.01.654-1.579 1.474-3.01 2.44-4.258.134-.173.274-.339.422-.495.515 1.729.828 3.378.956 5.03.043.568.079 1.139.112 1.713l.012.213c.038.599.075 1.196.118 1.788.065.895.154 1.796.237 2.566.126 1.202.238 2.202.353 3.14l.097.771c.126 1.078.262 2.192.441 3.292.108.672.244 1.348.408 2.17.128.625.26 1.268.366 1.902.327 1.947.648 4.21.313 6.405-.277 1.821-.854 3.337-1.754 4.634-.704 1.018-1.656 1.741-2.825 2.146-.654.229-1.281.375-2.01.462-1.961.252-3.441 1.934-3.441 3.912 0 2.17 1.76 3.937 3.926 3.946l.187.225.599-.3c.148-.031.304-.055.473-.084.221-.036.452-.075.682-.127 3.773-.823 6.663-2.925 8.592-6.242.682-1.169 1.226-2.435 1.659-3.869.203-.672.379-1.364.526-2.067.085.073.169.146.258.217 1.161.922 2.506 1.691 3.998 2.284 1.487.596 3.01.899 4.533.899 1.736 0 3.479-.395 5.176-1.175 5.239-2.401 6.937-8.473 5.503-12.723m-7.456 4.75c-.519.852-1.279 1.399-2.391 1.725-.33.095-.688.143-1.189.215l-.314.05c-1.36-.085-2.531-.522-3.576-1.339-.691-.542-1.092-1.141-1.266-1.888-.051-.223-.047-.304-.047-.304.116-.905.418-1.591.956-2.166 1.098-1.181 2.261-1.73 3.654-1.73.132 0 .273.006.406.016 1.109.08 2.093.424 2.927 1.01 1.816 1.29 1.587 3.18.84 4.41"/></svg>