<svg xmlns="http://www.w3.org/2000/svg" viewBox="0 0 64 64" enable-background="new 0 0 64 64"><path fill="#1b75bb" d="M64.149,57.231c0,3.823-3.093,6.918-6.914,6.918H6.912C3.096,64.149,0,61.055,0,57.231V6.912   C0,3.096,3.096,0,6.912,0h50.323c3.821,0,6.914,3.096,6.914,6.912V57.231z"/><path fill="#0867a3" d="m0 49.13v8.387c0 3.822 3.096 6.918 6.912 6.918h50.32c3.821 0 6.914-3.096 6.914-6.918v-50.32c-10.953 39.791-50.33 42.31-64.15 41.933"/><g fill="#fff"><path d="m55.28 28.331h-45.18c-2.063 0-3.742 1.679-3.742 3.744 0 2.061 1.679 3.74 3.742 3.74h45.18c2.064 0 3.741-1.679 3.741-3.74-.0001-2.065-1.677-3.744-3.742-3.744"/><path d="m22.826 16.97h-.02c-.765-2.948-1.756-5.734-2.954-8.296-.035-.071-.067-.144-.1-.215l-.123-.254c-.029-.067-.063-.134-.096-.205-.709-1.858-2.223-5.05-4.445-5.705-.974-.29-1.955-.077-2.913.625l-.042.031c-1.01.883-1.517 2.045-1.517 3.454 0 .806.164 1.689.5 2.692l.012.031c.394.983.976 2.02 1.779 3.181l.014.029c.023.043.045.087.063.126 2.538 5.04 3.996 11.11 4.232 17.592l.025.991c.006.341.012.684.014 1.021 0 .069-.002.14-.002.207l-.006.708c-.103 6.898-1.575 13.355-4.264 18.695-.018.042-.04.085-.055.116l-.022.044c-.804 1.154-1.385 2.196-1.779 3.178l-.012.034c-.337 1.01-.5 1.883-.5 2.688 0 1.41.512 2.573 1.517 3.456l.042.031c.958.701 1.939.912 2.913.627 2.223-.658 3.736-3.849 4.445-5.711l.219-.453c.033-.072.065-.146.1-.217 1.115-2.382 2.051-4.957 2.791-7.657.869-3.332 1.377-6.786 1.637-8.924.232-2.157.384-4.343.39-6.536v-.169-.118-.114-.16c-.006-1.71-.106-3.417-.248-5.117-.476-4.359-1.071-7.529-1.595-9.706"/><path d="m42.4 16.974h.018c.767-2.948 1.758-5.734 2.955-8.296.034-.071.067-.144.099-.215l.124-.254c.03-.067.063-.136.097-.205.71-1.858 2.223-5.05 4.443-5.705.976-.29 1.955-.077 2.915.625l.041.031c1.01.883 1.518 2.045 1.518 3.454 0 .806-.164 1.689-.501 2.692l-.012.031c-.393.983-.976 2.02-1.779 3.181l-.014.029c-.023.043-.046.087-.063.126-2.538 5.04-3.996 11.11-4.232 17.592l-.025.991c-.008.341-.012.684-.016 1.021 0 .069.004.14.004.207l.004.708c.104 6.898 1.576 13.355 4.266 18.695.018.042.04.085.056.116l.021.044c.804 1.154 1.387 2.196 1.779 3.178l.012.034c.337 1.01.501 1.884.501 2.688 0 1.41-.513 2.573-1.518 3.456l-.041.031c-.96.701-1.939.912-2.915.627-2.221-.658-3.733-3.847-4.443-5.711l-.221-.453c-.031-.072-.064-.146-.099-.217-1.117-2.382-2.053-4.957-2.79-7.657-.87-3.332-1.377-6.786-1.637-8.924-.232-2.157-.385-4.341-.391-6.536v-.169-.119-.114-.16c.006-1.71.104-3.417.246-5.117.479-4.358 1.074-7.528 1.598-9.705"/></g></svg>