<?xml version="1.0" encoding="utf-8"?>
<!-- Generator: Adobe Illustrator 16.0.0, SVG Export Plug-In . SVG Version: 6.00 Build 0)  -->
<!DOCTYPE svg PUBLIC "-//W3C//DTD SVG 1.1//EN" "http://www.w3.org/Graphics/SVG/1.1/DTD/svg11.dtd">
<svg version="1.1"
	 id="Layer_1" xmlns:dc="http://purl.org/dc/elements/1.1/" xmlns:cc="http://creativecommons.org/ns#" xmlns:rdf="http://www.w3.org/1999/02/22-rdf-syntax-ns#" xmlns:svg="http://www.w3.org/2000/svg" xmlns:sodipodi="http://sodipodi.sourceforge.net/DTD/sodipodi-0.dtd" xmlns:inkscape="http://www.inkscape.org/namespaces/inkscape" inkscape:export-ydpi="90" inkscape:export-xdpi="90" inkscape:export-filename="D:\TESTINGEMOJI\SVGTEST\2653.png" sodipodi:docname="2653.svg" inkscape:version="0.48.5 r10040"
	 xmlns="http://www.w3.org/2000/svg" xmlns:xlink="http://www.w3.org/1999/xlink" x="0px" y="0px" width="64px" height="64px"
	 viewBox="0 0 64 64" enable-background="new 0 0 64 64" xml:space="preserve">
<sodipodi:namedview  inkscape:cy="32" inkscape:cx="32" inkscape:zoom="3.6875" showgrid="false" guidetolerance="10" gridtolerance="10" objecttolerance="10" bordercolor="#666666" pagecolor="#ffffff" borderopacity="1" id="namedview4363" inkscape:current-layer="Layer_1" inkscape:window-maximized="0" inkscape:window-y="288" inkscape:window-x="615" inkscape:window-height="480" inkscape:window-width="640" inkscape:pageshadow="2" inkscape:pageopacity="0">
	</sodipodi:namedview>
<path id="path4353" fill="#009345" d="M64.148,57.23c0,3.824-3.092,6.918-6.914,6.918H6.912C3.096,64.148,0,61.055,0,57.23V6.912
	C0,3.096,3.096,0,6.912,0h50.322c3.822,0,6.914,3.096,6.914,6.912V57.23z"/>
<path id="path4355" fill="#076E38" d="M0,49.129v8.387c0,3.822,3.096,6.918,6.912,6.918h50.322c3.822,0,6.914-3.096,6.914-6.918
	V7.196C53.195,46.986,13.817,49.51,0,49.129z"/>
<path id="path4357" fill="#FFFFFF" d="M55.281,28.331H10.099c-2.063,0-3.742,1.679-3.742,3.744c0,2.061,1.679,3.739,3.742,3.739
	h45.182c2.064,0,3.742-1.679,3.742-3.739C59.021,30.01,57.346,28.331,55.281,28.331z"/>
<path id="path4359" fill="#FFFFFF" d="M22.826,16.97h-0.02c-0.765-2.948-1.756-5.734-2.954-8.296
	c-0.035-0.071-0.067-0.144-0.1-0.215l-0.123-0.254C19.6,8.138,19.566,8.071,19.533,8c-0.709-1.858-2.223-5.048-4.445-5.705
	c-0.974-0.29-1.955-0.077-2.913,0.625l-0.042,0.031c-1.005,0.883-1.517,2.045-1.517,3.454c0,0.806,0.164,1.688,0.5,2.692
	l0.012,0.031c0.394,0.983,0.976,2.022,1.779,3.181l0.014,0.029c0.023,0.043,0.045,0.087,0.063,0.126
	c2.538,5.044,3.996,11.107,4.232,17.592l0.025,0.991c0.006,0.341,0.012,0.684,0.014,1.021c0,0.069-0.002,0.14-0.002,0.207
	l-0.006,0.708c-0.103,6.898-1.575,13.355-4.264,18.695c-0.018,0.042-0.04,0.086-0.055,0.116l-0.022,0.044
	c-0.804,1.154-1.385,2.196-1.779,3.178l-0.012,0.034c-0.337,1.005-0.5,1.884-0.5,2.688c0,1.41,0.512,2.572,1.517,3.455l0.042,0.031
	c0.958,0.701,1.939,0.912,2.913,0.627c2.223-0.658,3.736-3.849,4.445-5.711l0.219-0.453c0.033-0.071,0.065-0.146,0.1-0.217
	c1.115-2.382,2.051-4.957,2.791-7.656c0.869-3.332,1.377-6.787,1.637-8.924c0.232-2.158,0.384-4.344,0.39-6.537v-0.169v-0.118
	v-0.114v-0.16c-0.006-1.71-0.106-3.417-0.248-5.117C23.945,22.317,23.35,19.147,22.826,16.97z"/>
<path id="path4361" fill="#FFFFFF" d="M42.404,16.974h0.018c0.768-2.948,1.758-5.734,2.955-8.296c0.034-0.071,0.066-0.144,0.1-0.215
	L45.6,8.209c0.03-0.067,0.063-0.136,0.098-0.205c0.709-1.858,2.223-5.048,4.443-5.705c0.976-0.29,1.955-0.077,2.914,0.625
	l0.041,0.031C54.102,3.838,54.613,5,54.613,6.409c0,0.806-0.163,1.689-0.5,2.692l-0.012,0.031c-0.394,0.983-0.977,2.022-1.779,3.181
	l-0.014,0.029c-0.023,0.043-0.047,0.087-0.063,0.126c-2.538,5.044-3.996,11.107-4.231,17.592l-0.025,0.991
	c-0.008,0.341-0.012,0.684-0.016,1.021c0,0.069,0.004,0.14,0.004,0.207l0.004,0.708c0.104,6.898,1.576,13.355,4.266,18.695
	c0.018,0.043,0.04,0.086,0.057,0.116l0.02,0.044c0.805,1.154,1.388,2.196,1.779,3.178l0.012,0.035
	c0.338,1.004,0.502,1.883,0.502,2.688c0,1.41-0.514,2.572-1.518,3.456l-0.041,0.03c-0.961,0.701-1.939,0.912-2.916,0.627
	c-2.221-0.657-3.732-3.847-4.443-5.711l-0.221-0.453c-0.031-0.071-0.063-0.146-0.099-0.217c-1.116-2.382-2.053-4.957-2.79-7.656
	c-0.869-3.332-1.377-6.786-1.637-8.924c-0.232-2.158-0.385-4.342-0.391-6.537v-0.169V32.07v-0.114v-0.16
	c0.006-1.71,0.104-3.417,0.246-5.117C41.285,22.321,41.88,19.151,42.404,16.974z"/>
</svg>
