<?xml version="1.0" encoding="UTF-8" standalone="no"?>
<!-- Generator: Adobe Illustrator 16.0.0, SVG Export Plug-In . SVG Version: 6.00 Build 0)  -->

<svg
   xmlns:dc="http://purl.org/dc/elements/1.1/"
   xmlns:cc="http://creativecommons.org/ns#"
   xmlns:rdf="http://www.w3.org/1999/02/22-rdf-syntax-ns#"
   xmlns:svg="http://www.w3.org/2000/svg"
   xmlns="http://www.w3.org/2000/svg"
   xmlns:sodipodi="http://sodipodi.sourceforge.net/DTD/sodipodi-0.dtd"
   xmlns:inkscape="http://www.inkscape.org/namespaces/inkscape"
   version="1.1"
   id="Layer_1"
   inkscape:version="0.48.5 r10040"
   sodipodi:docname="27BF.svg"
   inkscape:export-ydpi="90"
   inkscape:export-xdpi="90"
   inkscape:export-filename="D:\TESTINGEMOJI\SVGTEST\27BF.png"
   x="0px"
   y="0px"
   width="64px"
   height="64px"
   viewBox="0 0 64 64"
   enable-background="new 0 0 64 64"
   xml:space="preserve"><metadata
   id="metadata3117"><rdf:RDF><cc:Work
       rdf:about=""><dc:format>image/svg+xml</dc:format><dc:type
         rdf:resource="http://purl.org/dc/dcmitype/StillImage" /><dc:title></dc:title></cc:Work></rdf:RDF></metadata><defs
   id="defs3115" />
<sodipodi:namedview
   id="namedview5027"
   gridtolerance="10"
   borderopacity="1"
   pagecolor="#ffffff"
   inkscape:cy="32"
   inkscape:cx="32"
   bordercolor="#666666"
   showgrid="false"
   guidetolerance="10"
   inkscape:zoom="3.6875"
   objecttolerance="10"
   inkscape:pageshadow="2"
   inkscape:window-width="640"
   inkscape:window-height="480"
   inkscape:pageopacity="0"
   inkscape:window-x="1006"
   inkscape:window-y="420"
   inkscape:window-maximized="0"
   inkscape:current-layer="Layer_1">
	</sodipodi:namedview>
<g
   id="g5019">
	<path
   id="path5021"
   fill="#1B75BB"
   d="M64.249,57.139c0,3.814-3.089,6.905-6.901,6.905H7.108c-3.811,0-6.901-3.091-6.901-6.905   V6.903C0.207,3.092,3.297,0,7.108,0h50.24c3.813,0,6.901,3.092,6.901,6.903V57.139z" />
	<path
   id="path5023"
   fill="#0867A3"
   d="M0.207,48.766v8.373c0,3.814,3.09,6.905,6.901,6.905h50.24c3.813,0,6.901-3.091,6.901-6.905   V6.903C53.313,46.627,14,49.145,0.207,48.766z" />
</g>
<path
   fill="#FFFFFF"
   d="M61.818,23.97c-5.872-1.825-10.936-0.748-15.293,0.652c-4.109-1.453-8.813-3.891-14.298-3.891  c-5.469,0-10.189,2.438-14.298,3.891c-4.357-1.4-9.42-2.478-15.294-0.652c-0.995,0.309-1.324,1.208-1.211,1.961  c0.164,1.08,1.144,1.745,2.179,1.424c3.085-0.956,5.795-1.474,8.255-1.576c-0.958,0.747-1.724,1.565-2.285,2.447  c-0.084,0.128-0.147,0.263-0.195,0.416c-1.26,1.865-1.928,4.06-1.928,6.348c0,6.069,4.701,11.008,10.479,11.008  c5.778,0,10.48-4.938,10.48-11.008c0-2.287-0.667-4.481-1.929-6.348c-0.048-0.152-0.11-0.286-0.192-0.413  c-0.566-0.889-1.341-1.715-2.314-2.469c2.576-1.247,5.026-2.397,8.254-2.397c3.063,0,5.678,1.151,8.253,2.397  c-0.974,0.753-1.749,1.58-2.313,2.469c-0.082,0.126-0.144,0.26-0.193,0.413c-1.262,1.867-1.928,4.061-1.928,6.348  c0,6.069,4.701,11.008,10.479,11.008c5.777,0,10.477-4.938,10.477-11.008c0-2.288-0.666-4.483-1.927-6.348  c-0.049-0.152-0.11-0.287-0.195-0.416c-0.56-0.882-1.327-1.7-2.284-2.447c2.46,0.102,5.17,0.62,8.255,1.576  c1.035,0.321,2.016-0.344,2.18-1.424C63.144,25.177,62.813,24.278,61.818,23.97z M25.055,34.989c0,4.22-3.198,7.653-7.125,7.653  c-3.929,0-7.125-3.434-7.125-7.653c0-1.617,0.467-3.161,1.349-4.469c0.17-0.13,0.318-0.292,0.437-0.481l0.079-0.109  c0.217-0.27,0.454-0.523,0.701-0.765c0.189-0.186,0.388-0.36,0.57-0.511c2.329-1.696,5.55-1.705,7.856-0.084  c0.202,0.162,0.402,0.325,0.591,0.499c0.27,0.25,0.534,0.532,0.804,0.859l0.073,0.108c0.124,0.193,0.271,0.355,0.442,0.485  C24.588,31.828,25.055,33.372,25.055,34.989z M53.649,34.989c0,4.22-3.195,7.653-7.124,7.653c-3.928,0-7.124-3.434-7.124-7.653  c0-1.617,0.464-3.161,1.347-4.469c0.17-0.13,0.317-0.292,0.44-0.485l0.074-0.108c0.269-0.327,0.533-0.608,0.804-0.859  c0.188-0.174,0.388-0.336,0.592-0.499c2.306-1.621,5.527-1.611,7.856,0.084c0.181,0.151,0.38,0.325,0.569,0.511  c0.247,0.242,0.483,0.495,0.7,0.765l0.081,0.109c0.118,0.189,0.265,0.352,0.436,0.481C53.183,31.828,53.649,33.372,53.649,34.989z"
   id="path3113" />
</svg>