<?xml version="1.0" encoding="UTF-8" standalone="no"?>
<!-- Generator: Adobe Illustrator 16.0.0, SVG Export Plug-In . SVG Version: 6.00 Build 0)  -->

<svg
   xmlns:dc="http://purl.org/dc/elements/1.1/"
   xmlns:cc="http://creativecommons.org/ns#"
   xmlns:rdf="http://www.w3.org/1999/02/22-rdf-syntax-ns#"
   xmlns:svg="http://www.w3.org/2000/svg"
   xmlns="http://www.w3.org/2000/svg"
   xmlns:sodipodi="http://sodipodi.sourceforge.net/DTD/sodipodi-0.dtd"
   xmlns:inkscape="http://www.inkscape.org/namespaces/inkscape"
   version="1.1"
   id="Layer_1"
   x="0px"
   y="0px"
   width="64px"
   height="64px"
   viewBox="0 0 64 64"
   enable-background="new 0 0 64 64"
   xml:space="preserve"
   inkscape:version="0.48.5 r10040"
   sodipodi:docname="3297.svg"
   inkscape:export-filename="D:\TESTINGEMOJI\SVGTEST\3297.png"
   inkscape:export-xdpi="90"
   inkscape:export-ydpi="90"><metadata
   id="metadata3006"><rdf:RDF><cc:Work
       rdf:about=""><dc:format>image/svg+xml</dc:format><dc:type
         rdf:resource="http://purl.org/dc/dcmitype/StillImage" /><dc:title></dc:title></cc:Work></rdf:RDF></metadata><defs
   id="defs3004" /><sodipodi:namedview
   pagecolor="#ffffff"
   bordercolor="#666666"
   borderopacity="1"
   objecttolerance="10"
   gridtolerance="10"
   guidetolerance="10"
   inkscape:pageopacity="0"
   inkscape:pageshadow="2"
   inkscape:window-width="640"
   inkscape:window-height="480"
   id="namedview3002"
   showgrid="false"
   inkscape:zoom="7"
   inkscape:cx="32"
   inkscape:cy="32"
   inkscape:window-x="637"
   inkscape:window-y="450"
   inkscape:window-maximized="0"
   inkscape:current-layer="Layer_1" />
<g
   id="g2986">
	<g
   id="g2988">
		<path
   fill="#EC1C24"
   d="M58.339,13.876c9.999,14.56,6.303,34.463-8.254,44.462c-14.561,10-34.465,6.307-44.464-8.254    c-9.997-14.558-6.303-34.466,8.256-44.462C28.433-4.377,48.342-0.681,58.339,13.876z"
   id="path2990" />
	</g>
	<g
   id="g2992">
		<path
   fill="#BE1E2D"
   d="M27.731,0.291C11.486,2.449-0.702,16.708,0.036,33.39c0.783,17.645,15.717,31.313,33.364,30.535    c11.5-0.509,21.309-7.036,26.53-16.405C13.878,50.288,3.549,19.786,27.731,0.291z"
   id="path2994" />
	</g>
</g>
<g
   id="g2996">
	<path
   fill="#FFFFFF"
   d="M25.17,40.069c0.134,0.17,0.396,0.087,0.498-0.064c0.802-1.205,1.605-2.408,2.408-3.612   c0.082-0.123,0.042-0.283-0.049-0.385c-2.348-2.632-5.023-4.948-7.829-7.074c1.941-3.02,3.566-6.23,5.021-9.509   c0.198-0.446,0.393-0.896,0.583-1.345c0.068-0.156,0.109-0.266,0.109-0.428c0-0.384,0-0.77,0-1.155c0-0.78,0-1.561,0-2.341   c0-0.173-0.145-0.317-0.317-0.317c-1.861,0-3.721,0-5.583,0c-0.653-2.262-1.566-4.44-2.774-6.466   c-0.069-0.12-0.222-0.189-0.357-0.146c-1.271,0.4-2.542,0.802-3.814,1.204c-0.186,0.059-0.306,0.288-0.189,0.464   c1.01,1.527,1.751,3.191,2.264,4.943c-2.068,0-4.136,0-6.205,0c-0.093,0-0.165,0.034-0.214,0.084   c-0.005,0.003-0.007,0.005-0.01,0.009c-0.001,0.003-0.004,0.006-0.007,0.007c-0.05,0.052-0.085,0.123-0.085,0.216   c0,1.205,0,2.408,0,3.612c0,0.172,0.146,0.317,0.317,0.317c3.921,0,7.843,0,11.764,0c-2.977,6.907-7.106,13.654-13.329,18.074   c-0.132,0.093-0.22,0.283-0.114,0.433c0.803,1.138,1.605,2.276,2.409,3.413c0.096,0.135,0.28,0.213,0.434,0.113   c2.058-1.335,3.789-3.11,5.343-4.999c0,3.67,0,7.343,0,11.013c0,2.654,0,5.308,0,7.963c0,0.172,0.144,0.316,0.316,0.316   c1.271,0,2.542,0,3.813,0c0.174,0,0.316-0.145,0.316-0.316c0-3.886,0-7.772,0-11.657c0-2.815,0-5.627,0-8.441   C21.764,35.919,23.52,37.952,25.17,40.069z"
   id="path2998" />
	<path
   fill="#FFFFFF"
   d="M54.98,44.958c-1.204-0.401-2.408-0.803-3.612-1.205c-0.205-0.067-0.392,0.111-0.401,0.307   c-0.061,1.111-0.127,2.227-0.278,3.328c-0.07,0.493-0.1,1.246-0.479,1.617c-0.596,0.586-1.826,0.545-2.586,0.558   c-0.784,0.012-1.859-0.068-2.165-0.939c-0.157-0.448-0.08-1.057-0.08-1.524c0-0.977,0-1.956,0-2.932c0-4.279,0-8.558,0-12.835   c1.7,0,3.401,0,5.103,0c0.173,0,0.316-0.146,0.316-0.318c0-3.894,0-7.787,0-11.68c0-2.998,0-5.994,0-8.992   c0-0.172-0.144-0.316-0.316-0.316c-3.776,0-7.556,0-11.333,0c-3.581,0-7.163,0-10.744,0c-0.094,0-0.165,0.034-0.214,0.084   c-0.004,0.003-0.008,0.006-0.009,0.009c-0.003,0.003-0.005,0.005-0.008,0.009c-0.051,0.051-0.085,0.122-0.085,0.215   c0,3.894,0,7.786,0,11.68c0,2.998,0,5.994,0,8.991c0,0.172,0.144,0.318,0.317,0.318c1.558,0,3.113,0,4.671,0   c-0.375,3.903-1.29,7.796-3.163,11.265c-1.703,3.152-4.216,5.771-7.288,7.612c-0.139,0.082-0.216,0.292-0.115,0.433   c0.871,1.204,1.74,2.408,2.609,3.612c0.098,0.137,0.277,0.212,0.434,0.114c3.018-1.891,5.539-4.438,7.417-7.464   c2.082-3.357,3.305-7.192,3.991-11.064c0.265-1.49,0.442-2.999,0.564-4.508c1.135,0,2.27,0,3.405,0c0,3.973,0,7.947,0,11.919   c0,1.907,0,3.813,0,5.718c0,1.081,0.062,2.194,0.613,3.153c0.804,1.398,2.698,1.532,4.133,1.633   c1.634,0.114,3.316,0.097,4.938-0.125c0.953-0.13,2.05-0.32,2.786-0.999c0.67-0.616,0.938-1.766,1.146-2.61   c0.384-1.551,0.544-3.165,0.664-4.759C55.224,45.12,55.107,45,54.98,44.958z M32.534,14.271c4.106,0,8.211,0,12.316,0   c0.5,0,1.001,0,1.502,0c0,4.058,0,8.115,0,12.173c0,0.214,0,0.427,0,0.64c-4.107,0-8.213,0-12.316,0c-0.501,0-1.003,0-1.502,0   c0-4.057,0-8.115,0-12.172C32.534,14.698,32.534,14.485,32.534,14.271z"
   id="path3000" />
</g>
</svg>