<?xml version="1.0" encoding="UTF-8" standalone="no"?>
<!-- Generator: Adobe Illustrator 16.0.0, SVG Export Plug-In . SVG Version: 6.00 Build 0)  -->

<svg
   xmlns:dc="http://purl.org/dc/elements/1.1/"
   xmlns:cc="http://creativecommons.org/ns#"
   xmlns:rdf="http://www.w3.org/1999/02/22-rdf-syntax-ns#"
   xmlns:svg="http://www.w3.org/2000/svg"
   xmlns="http://www.w3.org/2000/svg"
   xmlns:sodipodi="http://sodipodi.sourceforge.net/DTD/sodipodi-0.dtd"
   xmlns:inkscape="http://www.inkscape.org/namespaces/inkscape"
   version="1.1"
   id="Layer_1"
   x="0px"
   y="0px"
   width="64px"
   height="64px"
   viewBox="0 0 64 64"
   enable-background="new 0 0 64 64"
   xml:space="preserve"
   inkscape:version="0.48.5 r10040"
   sodipodi:docname="3299.svg"
   inkscape:export-filename="D:\TESTINGEMOJI\SVGTEST\3299.png"
   inkscape:export-xdpi="90"
   inkscape:export-ydpi="90"><metadata
   id="metadata3384"><rdf:RDF><cc:Work
       rdf:about=""><dc:format>image/svg+xml</dc:format><dc:type
         rdf:resource="http://purl.org/dc/dcmitype/StillImage" /><dc:title></dc:title></cc:Work></rdf:RDF></metadata><defs
   id="defs3382" /><sodipodi:namedview
   pagecolor="#ffffff"
   bordercolor="#666666"
   borderopacity="1"
   objecttolerance="10"
   gridtolerance="10"
   guidetolerance="10"
   inkscape:pageopacity="0"
   inkscape:pageshadow="2"
   inkscape:window-width="640"
   inkscape:window-height="480"
   id="namedview3380"
   showgrid="false"
   inkscape:zoom="3.6875"
   inkscape:cx="32"
   inkscape:cy="32"
   inkscape:window-x="828"
   inkscape:window-y="360"
   inkscape:window-maximized="0"
   inkscape:current-layer="Layer_1" />
<g
   id="g3356">
	<g
   id="g3358">
		<g
   id="g3360">
			<path
   fill="#EC1C24"
   d="M58.355,13.873c9.999,14.558,6.302,34.459-8.253,44.456c-14.559,9.999-34.459,6.307-44.46-8.252     c-9.994-14.557-6.301-34.461,8.256-44.457C28.455-4.378,48.36-0.681,58.355,13.873z"
   id="path3362" />
		</g>
		<g
   id="g3364">
			<path
   fill="#BE1E2D"
   d="M27.752,0.29C11.509,2.448-0.678,16.704,0.061,33.384c0.782,17.644,15.714,31.311,33.36,30.532     c11.498-0.511,21.306-7.036,26.524-16.402C13.901,50.281,3.572,19.782,27.752,0.29z"
   id="path3366" />
		</g>
	</g>
	<g
   id="g3368">
		<path
   fill="#FFFFFF"
   d="M22.359,27.616v-1.464h7.354v-3.474h-7.354v-8.446l0.302-0.054c2.163-0.39,4.137-0.823,6.033-1.327    l-1.737-3.278c-4.82,1.195-9.853,2.1-15.401,2.764l1.351,3.669c1.86-0.253,3.732-0.561,5.544-0.915l0.438-0.084v7.67h-7.355v3.474    h6.971l-0.098,0.445c-1.345,6.094-1.438,8.271-7.132,16.84l2.187,2.162c1.752-2.245,3.298-4.942,4.724-8.24l0.703-1.628v19.039    h3.47V32.563l0.677,1.062c0.864,1.36,1.705,2.803,2.565,4.407l2.509-3.48c-1.596-2.246-3.444-4.481-5.651-6.83L22.359,27.616z"
   id="path3370" />
		<path
   fill="#FFFFFF"
   d="M26.85,42.278l3.482,1.933c1.773-5.064,3.176-10.616,4.544-17.99l-3.283-1.139    C30.409,30.847,28.813,36.633,26.85,42.278z"
   id="path3372" />
		<path
   fill="#FFFFFF"
   d="M49.282,11.172c-2.379,11.391-5.175,20.015-8.543,26.363l-0.691,1.3V20.494h-3.882l0.012,22.74    l-0.063,0.093c-2.641,3.875-4.963,6.383-8.018,8.656c0.425,1.459,0.587,1.774,0.857,2.294l0.039,0.074    c2.286-1.458,4.491-3.261,6.557-5.366l0.626-0.638l0.001,0.894c0.004,1.069,0.064,2.188,0.765,3.054    c0.414,0.511,1.108,0.746,1.595,0.88c0.903,0.248,1.874,0.318,2.714,0.363c0.718,0.042,1.364,0.061,1.973,0.061    c1.724,0,3.183-0.161,4.466-0.488c0.722-0.185,1.285-0.431,1.721-0.75c0.329-0.242,0.557-0.552,0.758-1.034    c0.403-0.954,0.585-2.021,0.737-3.032c0.267-1.75,0.389-3.519,0.474-5.018l-1.6-0.445l-2.073-0.655l-0.02,0.55    c-0.057,1.73-0.117,3.521-0.476,5.236c-0.085,0.409-0.195,0.939-0.57,1.274c-0.57,0.509-1.524,0.572-2.221,0.617l-0.204,0.016    c-0.455,0.031-0.99,0.065-1.527,0.065c-0.674,0-1.25-0.053-1.764-0.161c-0.875-0.184-0.875-1.037-0.875-1.548v-3.927h0.354    l-0.181-0.242c0.033-0.034,0.073-0.096,0.102-0.14l0.056-0.08c0.137-0.181,0.272-0.364,0.406-0.549    c0.462-0.636,0.927-1.32,1.422-2.09c0.919-1.434,1.792-2.979,2.669-4.717c1.703-3.385,3.214-7.164,4.621-11.555    c1.212-3.774,2.279-7.841,3.268-12.43L49.282,11.172z"
   id="path3374" />
		<path
   fill="#FFFFFF"
   d="M45.801,18.034c-2.104-3.392-4.238-6.307-6.504-8.853l-3.122,2.147c2.481,2.953,4.606,6.072,6.326,9.229    L45.801,18.034z"
   id="path3376" />
		<path
   fill="#FFFFFF"
   d="M49.512,29.012c1.725,4.405,3.144,9.249,4.34,14.805l3.479-1.547c-1.201-5.445-2.688-10.291-4.548-14.817    L49.512,29.012z"
   id="path3378" />
	</g>
</g>
</svg>