<?xml version="1.0" encoding="utf-8"?>
<!-- Generator: Adobe Illustrator 19.0.0, SVG Export Plug-In . SVG Version: 6.00 Build 0)  -->
<svg version="1.1"
	 id="Слой_1" xmlns:dc="http://purl.org/dc/elements/1.1/" xmlns:cc="http://creativecommons.org/ns#" xmlns:rdf="http://www.w3.org/1999/02/22-rdf-syntax-ns#" xmlns:svg="http://www.w3.org/2000/svg"
	 xmlns="http://www.w3.org/2000/svg" xmlns:xlink="http://www.w3.org/1999/xlink" x="0px" y="0px" width="24px" height="24px"
	 viewBox="-374.034 286.28 24 24" style="enable-background:new -374.034 286.28 24 24;" xml:space="preserve">
<style type="text/css">
	.st0{fill:url(#SVGID_1_);}
	.st1{fill:#1A1626;}
	.st2{fill:url(#SVGID_2_);}
	.st3{fill:#B3C2C6;}
	.st4{opacity:0.3;fill:url(#SVGID_3_);enable-background:new    ;}
</style>
<g>
	
		<radialGradient id="SVGID_1_" cx="-273.9293" cy="283.2144" r="13.0467" gradientTransform="matrix(1.0506 0 0 -1.0506 35.403 593.0075)" gradientUnits="userSpaceOnUse">
		<stop  offset="0" style="stop-color:#FF8800"/>
		<stop  offset="0.2913" style="stop-color:#FC8500"/>
		<stop  offset="0.5282" style="stop-color:#F27E00"/>
		<stop  offset="0.7453" style="stop-color:#E17000"/>
		<stop  offset="0.9273" style="stop-color:#CC6000"/>
	</radialGradient>
	<circle class="st0" cx="-250.215" cy="298.28" r="12"/>
	<path class="st1" d="M-244.272,301.023c-4.416-1.463-8.23-2.726-9.737-5.76c-0.101-0.203-0.184-0.412-0.252-0.625
		c5.741-2.206,12.524-2.715,15.4-0.253c-0.1-0.292-0.21-0.578-0.332-0.858c-1.388-0.942-3.755-1.482-6.411-1.374
		c-2.78,0.113-5.943,0.798-8.805,1.88c-0.214-1.258,0.104-2.612,0.929-3.808c1.42-2.058,3.935-3.264,6.918-3.377
		c-0.37-0.118-0.747-0.219-1.132-0.301c-3.021,0.281-5.06,1.528-6.299,3.325c-0.947,1.374-1.292,2.942-1.006,4.393
		c-0.489,0.197-0.969,0.405-1.434,0.625c-0.347,0.164-0.68,0.332-1,0.502c-0.325-1.315-0.498-2.592-0.481-3.762
		c0.015-0.992,0.181-2.171,0.744-3.128c-0.271,0.193-0.533,0.397-0.787,0.612c-1.009,2.316-0.405,5.122-0.032,6.584
		c-0.627,0.358-1.196,0.726-1.704,1.103c-0.324-1.153-0.808-2.243-1.572-3.21c-0.096,0.226-0.185,0.456-0.267,0.688
		c0.626,0.89,1.029,1.887,1.303,2.941c-0.871,0.719-1.521,1.461-1.934,2.206c0.028,0.302,0.068,0.601,0.119,0.896
		c0.352-0.701,0.924-1.523,1.971-2.432c0.252,1.21,0.368,2.478,0.481,3.729c0.169,1.869,0.4,4.327,1.315,5.553
		c0.325,0.295,0.667,0.573,1.024,0.831c-1.277-1.573-1.487-3.885-1.718-6.44c-0.125-1.382-0.252-2.782-0.557-4.116
		c0.5-0.384,1.071-0.761,1.708-1.13c0.515,1.8,1.29,3.686,2.28,5.49c1.993,3.633,4.65,7.323,8.641,8.011
		c0.342-0.098,0.678-0.211,1.008-0.339c-0.762-0.01-1.56-0.218-2.392-0.626c-3.698-1.818-7.505-7.55-8.986-12.843
		c0.35-0.189,0.718-0.375,1.104-0.557c0.432-0.204,0.874-0.398,1.323-0.582c0.075,0.228,0.167,0.453,0.276,0.672
		c1.622,3.266,5.551,4.568,10.099,6.074c1.663,0.551,3.37,1.117,5.095,1.813c0.089-0.188,0.174-0.377,0.253-0.57
		C-240.869,302.152-242.592,301.58-244.272,301.023z"/>
</g>
<path d="M-362.034,286.471c-6.512,0-11.81,5.297-11.81,11.809c0,6.511,5.298,11.809,11.81,11.809s11.81-5.298,11.81-11.809
	C-350.224,291.768-355.522,286.471-362.034,286.471z M-352.229,302.031c-1.178-0.464-3.67-1.406-7.588-2.693
	c-1.718-0.564-3.107-1.309-4.131-2.213c-0.637-0.565-1.089-1.286-1.357-2.063c1.248-0.442,2.674-0.83,4.321-1.11
	c4.701-0.8,7.352-0.115,8.773,0.628c0.436,1.153,0.686,2.398,0.686,3.702C-351.525,299.603-351.781,300.864-352.229,302.031z
	 M-353.059,292.841c-2.134-0.667-4.857-0.732-8.144-0.171c-1.647,0.281-3.087,0.666-4.363,1.108
	c-0.042-0.673,0.051-1.352,0.309-1.984c1.096-2.679,4.346-3.48,5.691-3.701c0.01-0.002,0.017-0.008,0.027-0.01
	C-356.801,288.753-354.487,290.495-353.059,292.841z M-368.421,289.954c1.534-1.179,3.395-1.949,5.428-2.134
	c-1.378,0.675-2.759,1.753-3.466,3.483c-0.389,0.953-0.497,1.968-0.373,2.956c-0.609,0.253-1.174,0.516-1.693,0.788
	C-369.016,292.507-368.69,290.799-368.421,289.954z M-370.03,291.478c-0.098,1.091-0.059,2.513,0.32,4.243
	c-0.337,0.21-0.656,0.42-0.947,0.63c-0.376-1.065-0.797-1.794-1.05-2.176C-371.287,293.188-370.716,292.283-370.03,291.478z
	 M-371.271,299.562c0.061,0.609,0.105,1.16,0.147,1.669c0.089,1.08,0.167,1.988,0.343,2.862c-0.846-1.269-1.413-2.733-1.641-4.307
	c0.237-0.31,0.571-0.701,1.024-1.139C-371.348,298.938-371.303,299.24-371.271,299.562z M-372.525,297.938
	c0.023-0.71,0.115-1.402,0.273-2.071c0.171,0.365,0.347,0.812,0.509,1.338C-372.039,297.461-372.295,297.705-372.525,297.938z
	 M-368.472,306.568c-0.009-0.02-0.009-0.042-0.02-0.062c-1.045-1.829-1.154-3.166-1.336-5.382c-0.042-0.516-0.088-1.074-0.15-1.691
	c-0.064-0.641-0.172-1.217-0.297-1.751c0.276-0.212,0.581-0.427,0.909-0.643c0.346,1.167,0.836,2.446,1.535,3.844
	c2.354,4.709,4.82,6.874,6.733,7.859c-0.309,0.027-0.62,0.047-0.936,0.047C-364.46,308.788-366.691,307.954-368.472,306.568z
	 M-358.651,308.219c-0.029-0.009-0.054-0.027-0.085-0.032c-1.616-0.252-4.795-1.612-7.933-7.888c-0.73-1.46-1.223-2.776-1.55-3.95
	c0.512-0.281,1.074-0.555,1.691-0.817c0.342,0.96,0.913,1.851,1.718,2.565c1.156,1.023,2.699,1.856,4.586,2.475
	c3.835,1.26,6.278,2.181,7.461,2.645C-354.011,305.551-356.115,307.353-358.651,308.219z"/>
<g>
	
		<radialGradient id="SVGID_2_" cx="-298.1872" cy="283.9428" r="11.9595" gradientTransform="matrix(1.0506 0 0 -1.0506 35.403 593.0075)" gradientUnits="userSpaceOnUse">
		<stop  offset="0.2727" style="stop-color:#FAFDFF"/>
		<stop  offset="0.4936" style="stop-color:#F7FAFC"/>
		<stop  offset="0.6732" style="stop-color:#EDF2F4"/>
		<stop  offset="0.8379" style="stop-color:#DCE3E7"/>
		<stop  offset="0.9273" style="stop-color:#CFD8DD"/>
	</radialGradient>
	<circle class="st2" cx="-275.882" cy="297.28" r="11"/>
	<path class="st3" d="M-279.516,290.078c-2.133-0.776-3.766-0.544-3.783-0.542l-0.041-0.272c0.069-0.01,1.72-0.244,3.917,0.555
		L-279.516,290.078z"/>
	<path class="st3" d="M-266.591,293.035c-3.241-1.925-5.943-1.651-5.97-1.649l-0.03-0.273c0.114-0.013,2.823-0.286,6.141,1.686
		L-266.591,293.035z"/>
	<path class="st3" d="M-272.771,301.55c-0.621-2.033-2.623-7.077-2.643-7.128l0.256-0.102c0.02,0.051,2.026,5.105,2.651,7.149
		L-272.771,301.55z"/>
	<path class="st3" d="M-268.521,301.522l-0.183-0.206c2.195-1.944,2.77-4.569,2.775-4.594l0.269,0.056
		C-265.682,296.889-266.255,299.515-268.521,301.522z"/>
	<path class="st3" d="M-275.166,304.799c-4.634-0.194-7.09-1.654-7.193-1.716l0.143-0.235c0.024,0.015,2.505,1.485,7.062,1.676
		L-275.166,304.799z"/>
	<path class="st3" d="M-283.976,299.317l-0.243-0.128c0.014-0.028,1.497-2.83,4.711-6.083l0.195,0.193
		C-282.498,296.524-283.961,299.289-283.976,299.317z"/>
	<path class="st3" d="M-275.562,288.15c0.005-0.012,0.491-1.07,1.092-1.777c-0.107-0.014-0.215-0.029-0.324-0.039
		c-0.569,0.721-0.996,1.653-1.019,1.702L-275.562,288.15z"/>
	<path class="st3" d="M-269.523,305.4c0.283,0.087,0.616,0.13,0.889,0.151c0.097-0.084,0.191-0.171,0.285-0.259
		c-0.274-0.011-0.736-0.045-1.093-0.155L-269.523,305.4z"/>
	<path class="st3" d="M-273.057,306.556l-0.264-0.076c-0.004,0.015-0.387,1.29-1.865,1.776c0.274-0.017,0.545-0.044,0.814-0.082
		C-273.356,307.539-273.061,306.569-273.057,306.556z"/>
	<path class="st3" d="M-286.617,297.886l0.272-0.039c-0.29-2.006-0.046-3.595,0.256-4.667c-0.298,0.74-0.517,1.518-0.649,2.327
		C-286.769,296.218-286.744,297.01-286.617,297.886z"/>
	<path class="st1" d="M-268.219,301.032c-0.455-0.019-3.69-0.329-4.843-0.711c-0.386,0.456-3.079,3.552-3.881,4.186
		c0.283,0.38,1.581,2.177,3.176,3.002c0.505-0.069,2.905-0.458,4.914-2.123C-268.177,303.46-268.097,302.384-268.219,301.032z"/>
	<path class="st1" d="M-271.62,291.248c-0.309-0.456-2.326-3.071-3.747-3.69c-0.612,0.1-3.627,0.693-5.368,1.982
		c-0.094,1.066-0.1,3.557,0.172,4.956c0.562,0.104,3.552,0.649,5.768,1.05C-274.269,294.813-272.204,292.033-271.62,291.248z"/>
	<path class="st1" d="M-282.727,288.673c-1.442,1.148-2.589,2.649-3.309,4.374c0.569-0.979,2.227-3.251,3.078-3.644
		C-283.004,289.02-282.822,288.802-282.727,288.673z"/>
	<path class="st1" d="M-283.357,298.053c-1.192-0.145-2.959-0.776-3.195-0.917c-0.208,0.428-0.252,0.712-0.298,0.916
		c0.202,2.915,1.54,5.517,3.574,7.367c0.055-0.682,1.791-1.719,2.071-1.928C-282.26,301.956-283.221,298.595-283.357,298.053z"/>
	<path class="st1" d="M-267.707,289.921c0.435,0.617,0.378,1.471-0.195,2.318c1.261,2.028,1.808,5.02,1.847,5.372
		c0.51-0.177,1.086,0.041,1.155,0.292c0.012-0.207,0.019-0.415,0.019-0.624C-264.882,294.45-265.951,291.869-267.707,289.921z"/>
	
		<radialGradient id="SVGID_3_" cx="639.9374" cy="854.3203" r="8.0916" gradientTransform="matrix(0.3583 0.4654 0.7924 -0.61 -1185.5491 516.2996)" gradientUnits="userSpaceOnUse">
		<stop  offset="0" style="stop-color:#FFFFFF"/>
		<stop  offset="1" style="stop-color:#FFFFFF;stop-opacity:0"/>
	</radialGradient>
	<path class="st4" d="M-276.397,296.757c-3.541,2.726-7.71,3.25-9.311,1.17c-1.602-2.08-0.029-5.976,3.512-8.702
		s7.71-3.25,9.311-1.17C-271.283,290.135-272.855,294.031-276.397,296.757z"/>
</g>
</svg>
