<?xml version="1.0" encoding="utf-8"?>
<!-- Generator: Adobe Illustrator 19.0.0, SVG Export Plug-In . SVG Version: 6.00 Build 0)  -->
<svg version="1.1"
	 id="Слой_1" xmlns:rdf="http://www.w3.org/1999/02/22-rdf-syntax-ns#" xmlns:cc="http://creativecommons.org/ns#" xmlns:svg="http://www.w3.org/2000/svg" xmlns:dc="http://purl.org/dc/elements/1.1/"
	 xmlns="http://www.w3.org/2000/svg" xmlns:xlink="http://www.w3.org/1999/xlink" x="0px" y="0px" width="24px" height="24px"
	 viewBox="-370.6 286.3 24 24" style="enable-background:new -370.6 286.3 24 24;" xml:space="preserve">
<path d="M-348.5,292.7c-3.2-2.3-6.3-2.1-9.4-1.9c-3.5,0.2-6.8,0.4-10.1-3c0,0,0,0,0,0v-0.2c0-0.4-0.3-0.7-0.7-0.7s-0.7,0.3-0.7,0.7
	V309c0,0.4,0.3,0.7,0.7,0.7s0.7-0.3,0.7-0.7v-7c0.6,0.2,1.2,0.3,1.9,0.3c3,0,5.8-1.9,8.7-3.8c2.7-1.8,5.5-3.7,8.2-3.6
	c0.5,0,1-0.3,1.2-0.8C-347.9,293.6-348,293-348.5,292.7z M-358.2,297.4c-3.4,2.3-6.6,4.4-9.8,3.2v-11c3.4,3,6.9,2.8,10.2,2.6
	c2.8-0.2,5.5-0.3,8.2,1.4C-352.5,293.6-355.4,295.5-358.2,297.4z"/>
</svg>
