<?xml version="1.0" encoding="utf-8"?>
<!-- Generator: Adobe Illustrator 19.0.0, SVG Export Plug-In . SVG Version: 6.00 Build 0)  -->
<svg version="1.1"
	 id="Слой_1" xmlns:dc="http://purl.org/dc/elements/1.1/" xmlns:cc="http://creativecommons.org/ns#" xmlns:rdf="http://www.w3.org/1999/02/22-rdf-syntax-ns#" xmlns:svg="http://www.w3.org/2000/svg"
	 xmlns="http://www.w3.org/2000/svg" xmlns:xlink="http://www.w3.org/1999/xlink" x="0px" y="0px" width="24px" height="24px"
	 viewBox="-417.263 286.28 24 24" style="enable-background:new -417.263 286.28 24 24;" xml:space="preserve">
<g>
	<path d="M-393.767,303.396c0-0.382-0.149-0.914-0.752-1.439c0.199-0.307,0.316-0.652,0.316-1.044c0-2.985-3.069-5.414-6.841-5.414
		c-0.822,0-1.607,0.121-2.338,0.332c0.14-1.334,0.254-2.142,0.295-2.434l0.033-0.246c0-0.733-0.535-1.478-3.935-1.736l0.877-2.943
		l5.089,0.765c0.356,0.054,0.686-0.19,0.739-0.546c0.054-0.355-0.191-0.686-0.546-0.739l-5.226-0.786
		c-0.554-0.082-1.104,0.263-1.264,0.804l-1.007,3.377c-0.487-0.016-1.003-0.027-1.582-0.027c-6.039,0-6.853,0.926-6.853,1.832
		l0.031,0.244c0.295,2.521,0.839,7.809,1.532,14.89c0.002,0.019,0.012,0.035,0.016,0.053c0.094,0.67,0.965,0.823,2.016,0.931
		c0.863,0.089,2.021,0.138,3.258,0.138c3.375,0,4.594-0.267,5.038-0.598c0.942,0.367,2.181,0.598,3.825,0.598
		c4.858,0,6.245-1.991,6.552-3.659c0.015-0.076,0.03-0.304,0.041-0.5c0,0,0.011-0.377-0.012-0.456
		C-394.024,304.394-393.767,303.929-393.767,303.396z M-407.021,303.396c0-0.157,0.161-0.359,0.427-0.558
		c0.295,0.177,0.644,0.347,1.08,0.498c1.189,0.412,2.777,0.639,4.469,0.639c1.997,0,4.204-0.323,5.558-1.132
		c0.262,0.197,0.419,0.397,0.419,0.553c0,0.608-2.11,1.792-5.977,1.792S-407.021,304.004-407.021,303.396z M-395.502,300.912
		c0,0.852-2.227,1.763-5.542,1.763s-5.542-0.911-5.542-1.763c0-2.269,2.486-4.114,5.542-4.114
		C-397.988,296.798-395.502,298.644-395.502,300.912z M-405.301,292.942c-0.551,0.083-1.32,0.144-2.196,0.182l0.128-0.428
		C-406.461,292.756-405.78,292.845-405.301,292.942z M-408.708,292.635l-0.158,0.53c-2.109,0.036-4.42-0.038-5.645-0.223
		c0.849-0.172,2.297-0.323,4.605-0.323C-409.476,292.619-409.081,292.625-408.708,292.635z M-413.933,307.844
		c-0.61-6.221-1.101-11.027-1.407-13.747c0.387,0.097,0.853,0.155,1.352,0.206c1.081,0.111,2.53,0.172,4.082,0.172
		c2.933,0,4.534-0.157,5.415-0.38c-0.068,0.538-0.155,1.289-0.251,2.269c-1.888,0.965-3.143,2.641-3.143,4.548
		c0,0.311,0.085,0.673,0.322,1.039c-0.608,0.528-0.757,1.061-0.757,1.444c0,0.534,0.258,0.999,0.697,1.397
		c-0.023,0.078-0.013,0.449-0.013,0.449c0.01,0.195,0.026,0.426,0.04,0.504c0.135,0.734,0.48,1.53,1.237,2.192
		C-408.192,308.196-412.769,308.164-413.933,307.844z M-401.043,308.106c-3.134,0-4.896-0.851-5.25-2.51
		c1.391,0.588,3.324,0.892,5.249,0.892c1.925,0,3.857-0.304,5.248-0.892C-396.159,307.259-397.918,308.106-401.043,308.106z"/>
	<circle cx="-397.252" cy="300.406" r="0.588"/>
	<circle cx="-401.151" cy="301.26" r="0.588"/>
	<circle cx="-404.836" cy="300.406" r="0.588"/>
	<circle cx="-402.731" cy="298.478" r="0.588"/>
	<circle cx="-399.523" cy="298.478" r="0.588"/>
</g>
</svg>
