<?xml version="1.0" encoding="utf-8"?>
<!-- Generator: Adobe Illustrator 19.0.0, SVG Export Plug-In . SVG Version: 6.00 Build 0)  -->
<svg version="1.1"
	 id="Слой_1" xmlns:cc="http://creativecommons.org/ns#" xmlns:svg="http://www.w3.org/2000/svg" xmlns:rdf="http://www.w3.org/1999/02/22-rdf-syntax-ns#" xmlns:dc="http://purl.org/dc/elements/1.1/"
	 xmlns="http://www.w3.org/2000/svg" xmlns:xlink="http://www.w3.org/1999/xlink" x="0px" y="0px" width="24px" height="24px"
	 viewBox="-243.5 286.28 24 24" enable-background="new -243.5 286.28 24 24" xml:space="preserve">
<g>
	<path d="M-219.75,305.024l-0.031-0.957c-0.005-0.148-0.124-3.574-1.288-6.818c0.654-2.156,1.299-9.727-0.311-10.484
		c-1.981-0.93-5.527,1.601-7.634,3.358c-1.786-0.504-3.178-0.506-4.972,0c-2.108-1.758-5.652-4.288-7.634-3.358
		c-1.612,0.757-0.966,8.327-0.311,10.483c-1.165,3.244-1.284,6.67-1.288,6.818l-0.029,0.957l0.896-0.337
		c0.012-0.004,0.811-0.3,1.81-0.425c-0.546,0.886-0.864,1.883-0.915,2.048l-0.526,1.711l1.494-0.987
		c1.088-0.717,2.972-1.525,3.556-0.984c0.217,0.201,0.351,0.555,0.507,0.967c0.475,1.257,1.128,2.979,4.928,2.983
		c3.798-0.004,4.451-1.726,4.926-2.983c0.156-0.412,0.29-0.767,0.508-0.968c0.587-0.546,2.468,0.268,3.555,0.984l1.495,0.987
		l-0.528-1.711c-0.051-0.165-0.37-1.162-0.915-2.048c0.999,0.125,1.798,0.421,1.81,0.425L-219.75,305.024z M-223.97,302.957
		l-1.906,0.202l1.643,0.987c0.263,0.157,0.528,0.509,0.764,0.921c-1.137-0.478-2.564-0.796-3.467,0.04
		c-0.439,0.406-0.64,0.939-0.836,1.455c-0.418,1.107-0.814,2.152-3.726,2.154c-2.914-0.002-3.309-1.047-3.728-2.154
		c-0.196-0.516-0.397-1.049-0.835-1.454c-0.406-0.376-0.918-0.52-1.462-0.52c-0.666,0-1.381,0.215-2.007,0.479
		c0.235-0.413,0.499-0.764,0.763-0.922l1.645-0.987l-1.907-0.202c-1.05-0.112-2.115,0.069-2.844,0.25
		c0.113-1.243,0.419-3.576,1.224-5.725l0.086-0.229l-0.088-0.228c-0.785-2.031-0.897-8.197-0.351-9.128
		c1.019-0.356,3.639,1.034,6.454,3.428l0.269,0.229l0.337-0.105c0.888-0.277,1.733-0.424,2.443-0.424
		c0.712,0,1.556,0.147,2.442,0.424l0.338,0.106l0.269-0.229c2.812-2.394,5.434-3.786,6.454-3.428
		c0.546,0.932,0.433,7.098-0.351,9.129l-0.088,0.228l0.086,0.229c0.803,2.148,1.111,4.48,1.224,5.724
		C-221.855,303.027-222.915,302.845-223.97,302.957z"/>
	<path d="M-231.5,304.314c-1.372,0-2.486,0.219-2.486,1.365c0,0.912,1.98,1.721,2.486,1.721c0.508,0,2.485-0.808,2.485-1.721
		C-229.015,304.534-230.126,304.314-231.5,304.314z"/>
	<ellipse cx="-235.816" cy="299.071" rx="1.665" ry="2.141"/>
	<ellipse cx="-227.184" cy="299.072" rx="1.665" ry="2.14"/>
	<path d="M-236.935,292.221c-0.402-0.887-1.01-1.691-1.758-2.326l-1.365-1.16l0.318,1.764c0.001,0.006,0.08,0.45,0.124,1.099
		c-0.091-0.027-0.182-0.048-0.276-0.064l-0.935-0.158l0.201,0.927c0.002,0.01,0.22,1.046,0.017,2.324
		c-0.056,0.35,0.183,0.679,0.533,0.735c0.034,0.005,0.067,0.008,0.101,0.008c0.31,0,0.582-0.225,0.633-0.541
		c0.085-0.531,0.108-1.025,0.102-1.445l0.889,0.954l0.042-1.566c0.004-0.141,0.006-0.28,0.005-0.414
		c0.079,0.142,0.146,0.274,0.2,0.394c0.146,0.322,0.527,0.464,0.849,0.319C-236.931,292.924-236.789,292.544-236.935,292.221z"/>
	<path d="M-222.375,292.304l0.201-0.929l-0.935,0.16c-0.094,0.016-0.186,0.037-0.276,0.064c0.044-0.649,0.123-1.093,0.124-1.099
		l0.318-1.764l-1.365,1.16c-0.946,0.803-1.477,1.708-1.757,2.326c-0.147,0.323-0.003,0.703,0.32,0.849
		c0.321,0.145,0.702,0.004,0.849-0.32c0.054-0.119,0.12-0.251,0.199-0.392c-0.001,0.135,0.001,0.273,0.005,0.414l0.042,1.568
		l0.889-0.956c-0.006,0.42,0.017,0.914,0.102,1.445c0.05,0.316,0.323,0.541,0.633,0.541c0.034,0,0.067-0.002,0.101-0.008
		c0.35-0.056,0.589-0.385,0.533-0.735C-222.594,293.35-222.377,292.314-222.375,292.304z"/>
</g>
</svg>
