<?xml version="1.0" encoding="utf-8"?>
<!-- Generator: Adobe Illustrator 19.0.0, SVG Export Plug-In . SVG Version: 6.00 Build 0)  -->
<svg version="1.1"
	 id="Слой_1" xmlns:dc="http://purl.org/dc/elements/1.1/" xmlns:cc="http://creativecommons.org/ns#" xmlns:rdf="http://www.w3.org/1999/02/22-rdf-syntax-ns#" xmlns:svg="http://www.w3.org/2000/svg"
	 xmlns="http://www.w3.org/2000/svg" xmlns:xlink="http://www.w3.org/1999/xlink" x="0px" y="0px" width="24px" height="24px"
	 viewBox="-219.75 286.28 24 24" style="enable-background:new -219.75 286.28 24 24;" xml:space="preserve">
<path d="M-207.75,286.42c-4.539,0-8.232,3.282-8.232,7.315c0,2.194,1.165,3.995,2.291,5.737c0.461,0.714,0.896,1.387,1.237,2.066
	c0.103,0.203,0.1,0.362,0.096,0.582c-0.005,0.33-0.011,0.808,0.428,1.273c0.119,0.656,0.492,2.655,0.745,3.395
	c0.153,0.449,0.469,0.83,0.896,1.13v0.056c0,1.194,1.143,2.167,2.546,2.167s2.546-0.973,2.546-2.167v-0.056
	c0.428-0.3,0.744-0.68,0.896-1.129c0.255-0.747,0.631-2.77,0.747-3.411c0.425-0.46,0.417-0.932,0.412-1.258
	c-0.004-0.22-0.007-0.379,0.096-0.582c0.341-0.679,0.776-1.353,1.237-2.065c1.126-1.742,2.291-3.543,2.291-5.738
	C-199.518,289.702-203.211,286.42-207.75,286.42z M-210.487,304.039c1.74,0.465,3.747,0.466,5.487-0.001
	c-0.06,0.31-0.127,0.643-0.194,0.961c-2.262,0.775-4.417,0.221-5.098,0.002C-210.36,304.682-210.427,304.349-210.487,304.039z
	 M-207.777,303.084c-0.32-1.199-1.187-4.02-1.496-5.02c0.876-0.481,1.304-0.733,1.522-0.874c0.219,0.141,0.646,0.393,1.522,0.874
	c-0.309,1-1.176,3.823-1.496,5.021C-207.741,303.084-207.759,303.084-207.777,303.084z M-207.722,307.324h-0.044
	c-1.028-0.005-1.9-0.366-2.147-0.873c0.58,0.133,1.352,0.256,2.242,0.256c0.648,0,1.358-0.074,2.093-0.248
	C-205.83,306.961-206.698,307.319-207.722,307.324z M-206.93,308.624c-0.439,0.268-1.188,0.268-1.627,0h0.813h0.001H-206.93z
	 M-202.9,298.768c-0.46,0.71-0.935,1.446-1.308,2.187c-0.246,0.489-0.239,0.894-0.233,1.188c0.004,0.234,0.001,0.289-0.075,0.363
	c-0.562,0.224-1.183,0.378-1.829,0.471c0.37-1.309,1.086-3.64,1.36-4.525c0.251-0.074,0.547-0.192,0.758-0.373
	c0.41-0.378,0.593-0.886,0.502-1.385c-0.073-0.432-0.397-0.789-0.816-0.908c-0.223-0.068-0.444-0.073-0.743,0.003
	c-0.185,0.065-0.352,0.17-0.492,0.311c-0.169,0.175-0.278,0.348-0.365,0.523c-0.162-0.091-0.317-0.178-0.451-0.254
	c0.061-0.123,0.138-0.304,0.163-0.523c0.033-0.279-0.029-0.563-0.182-0.805c-0.164-0.255-0.389-0.439-0.689-0.552
	c-0.277-0.094-0.607-0.101-0.916,0.008c-0.28,0.106-0.505,0.289-0.673,0.552c-0.146,0.233-0.208,0.515-0.177,0.797
	c0.026,0.215,0.099,0.389,0.163,0.521c-0.137,0.078-0.29,0.166-0.45,0.255c-0.082-0.165-0.194-0.344-0.37-0.526
	c-0.132-0.134-0.301-0.24-0.554-0.326c-0.234-0.056-0.457-0.051-0.668,0.014c-0.429,0.123-0.753,0.48-0.823,0.901
	c-0.095,0.508,0.088,1.018,0.519,1.412c0.199,0.17,0.489,0.284,0.738,0.356c0.274,0.885,0.99,3.215,1.359,4.523
	c-0.65-0.094-1.274-0.25-1.837-0.476c-0.069-0.07-0.071-0.128-0.067-0.356c0.006-0.295,0.013-0.699-0.233-1.188
	c-0.373-0.742-0.849-1.477-1.308-2.188c-1.024-1.583-2.082-3.22-2.082-5.031c0-3.317,3.109-6.016,6.932-6.016
	s6.932,2.699,6.932,6.016C-200.818,295.546-201.877,297.184-202.9,298.768z"/>
</svg>
