<?xml version="1.0" encoding="utf-8"?>
<!-- Generator: Adobe Illustrator 19.0.0, SVG Export Plug-In . SVG Version: 6.00 Build 0)  -->
<svg version="1.1"
	 id="Слой_1" xmlns:dc="http://purl.org/dc/elements/1.1/" xmlns:cc="http://creativecommons.org/ns#" xmlns:svg="http://www.w3.org/2000/svg" xmlns:rdf="http://www.w3.org/1999/02/22-rdf-syntax-ns#"
	 xmlns="http://www.w3.org/2000/svg" xmlns:xlink="http://www.w3.org/1999/xlink" x="0px" y="0px" width="24px" height="24px"
	 viewBox="-408 286.28 24 24" style="enable-background:new -408 286.28 24 24;" xml:space="preserve">
<g>
	<g>
		<path d="M-385.49,300.152c-0.254-0.254-0.666-0.254-0.92,0l-7.751,7.751c-0.254,0.254-0.254,0.666,0,0.92
			c0.127,0.127,0.294,0.19,0.46,0.19s0.333-0.063,0.46-0.19l7.751-7.751C-385.237,300.818-385.237,300.406-385.49,300.152z"/>
		<path d="M-392.708,303.888c0.585,0,1.171-0.223,1.616-0.668c0.89-0.891,0.89-2.34,0-3.229c-0.892-0.892-2.342-0.89-3.231,0
			c-0.89,0.89-0.89,2.339,0.001,3.23C-393.878,303.665-393.293,303.888-392.708,303.888z M-393.405,300.91
			c0.186-0.187,0.433-0.289,0.696-0.289s0.51,0.103,0.695,0.289c0.384,0.383,0.384,1.007,0.001,1.391
			c-0.384,0.383-1.009,0.385-1.393,0.001C-393.788,301.917-393.788,301.293-393.405,300.91z"/>
		<path d="M-385.327,305.755c-0.891-0.891-2.34-0.89-3.23,0.001c-0.89,0.891-0.89,2.34,0,3.229c0.432,0.433,1.005,0.67,1.615,0.67
			s1.184-0.237,1.614-0.669c0.433-0.432,0.67-1.005,0.67-1.615C-384.659,306.761-384.896,306.186-385.327,305.755z
			 M-386.247,308.066c-0.371,0.371-1.02,0.372-1.391-0.001c-0.384-0.383-0.384-1.007,0-1.391c0.186-0.186,0.433-0.288,0.695-0.288
			s0.51,0.103,0.695,0.288c0.187,0.186,0.289,0.433,0.289,0.695S-386.061,307.88-386.247,308.066z"/>
	</g>
	<path d="M-398.294,306.82l0.557-0.453c0.277-0.225,0.318-0.629,0.09-0.903c-0.228-0.276-0.639-0.315-0.914-0.089l-0.757,0.614
		l-2.961-2.402c0.423-0.323,0.935-0.73,1.163-0.977c0.27-0.291,0.4-0.673,0.4-1.169c0-1.205-1.145-2.184-2.551-2.184
		c-1.405,0-2.55,0.979-2.55,2.184c0,0.554,0.24,1.081,0.709,1.512l0.756,0.613l-1.331,1.08l-0.001,0.001
		c-0.688,0.559-1.067,1.313-1.066,2.123c0,0.81,0.379,1.564,1.067,2.121c0.678,0.55,1.547,0.825,2.416,0.825
		c0.87,0,1.739-0.275,2.417-0.825l1.531-1.242l1.488,1.207c0.12,0.098,0.267,0.147,0.412,0.147c0.188,0,0.374-0.08,0.502-0.236
		c0.229-0.274,0.188-0.679-0.09-0.903L-398.294,306.82z M-404.251,301.989c-0.121-0.112-0.265-0.297-0.265-0.547
		c0-0.487,0.571-0.899,1.249-0.899s1.25,0.411,1.25,0.899c0,0.215-0.04,0.282-0.058,0.301l-0.001,0.001
		c-0.175,0.189-0.729,0.624-1.235,1.007l-0.017-0.014l0,0L-404.251,301.989z M-401.673,307.901c-0.863,0.7-2.321,0.698-3.185,0
		c-0.382-0.31-0.592-0.711-0.592-1.129c0-0.419,0.21-0.82,0.593-1.131l1.53-1.241l2.984,2.421L-401.673,307.901z"/>
	<g>
		<path d="M-401.76,296.597l-1.12-0.908c-2.905-2.346-4.505-3.639-4.505-5.611c0-1.471,0.935-2.686,2.383-3.095
			c1.197-0.34,2.414-0.042,3.241,0.743c0.827-0.784,2.044-1.082,3.243-0.743c1.447,0.41,2.383,1.625,2.383,3.095
			c0,1.972-1.6,3.264-4.505,5.61L-401.76,296.597z M-404.027,288.057c-0.223,0-0.442,0.031-0.645,0.089
			c-0.726,0.205-1.503,0.821-1.503,1.932c0,1.395,1.355,2.49,4.054,4.671l0.36,0.292l0.362-0.293
			c2.699-2.181,4.054-3.275,4.054-4.67c0-1.111-0.776-1.727-1.503-1.932c-0.795-0.227-1.846-0.05-2.399,0.849l-0.515,0.836
			l-0.515-0.837C-402.688,288.325-403.375,288.057-404.027,288.057z"/>
	</g>
	<path d="M-385.448,287.738c-0.901-0.894-2.182-0.893-2.24-0.894h-1.171v5.379c-0.652-0.408-1.51-0.661-2.473-0.661
		c-2.078,0-3.705,1.14-3.705,2.596c0,1.455,1.627,2.596,3.705,2.596s3.705-1.14,3.705-2.596v-6.08
		c0.196,0.013,0.86,0.087,1.311,0.534c0.312,0.309,0.469,0.76,0.469,1.337c0,0.34,0.276,0.616,0.616,0.616s0.616-0.276,0.616-0.616
		C-384.613,289.031-384.895,288.287-385.448,287.738z M-391.331,295.522c-1.457,0-2.473-0.719-2.473-1.364
		c0-0.645,1.016-1.364,2.473-1.364s2.473,0.719,2.473,1.364S-389.875,295.522-391.331,295.522z"/>
</g>
</svg>
