<?xml version="1.0" encoding="utf-8"?>
<!-- Generator: Adobe Illustrator 19.0.0, SVG Export Plug-In . SVG Version: 6.00 Build 0)  -->
<svg version="1.1"
	 id="Слой_1" xmlns:cc="http://creativecommons.org/ns#" xmlns:svg="http://www.w3.org/2000/svg" xmlns:rdf="http://www.w3.org/1999/02/22-rdf-syntax-ns#" xmlns:dc="http://purl.org/dc/elements/1.1/"
	 xmlns="http://www.w3.org/2000/svg" xmlns:xlink="http://www.w3.org/1999/xlink" x="0px" y="0px" width="24px" height="24px"
	 viewBox="-278.583 314.162 24 24" enable-background="new -278.583 314.162 24 24" xml:space="preserve">
<g>
	<path d="M-254.972,323.47c0-0.544-0.294-1.435-2.163-1.588c-0.133-0.395-0.245-0.8-0.354-1.194
		c-0.312-1.121-0.605-2.181-1.328-2.938c-1.139-1.192-3.533-1.729-7.767-1.737c-4.231,0.009-6.627,0.545-7.767,1.738
		c-0.722,0.757-1.016,1.814-1.327,2.936c-0.109,0.396-0.222,0.801-0.355,1.196c-1.868,0.153-2.162,1.044-2.162,1.588
		c0,0.439,0.17,1.173,1.2,1.583c-0.127,1.666-0.106,4.17-0.095,5.731l0.006,0.967c0,0.023,0.003,0.043,0.004,0.065
		c-0.002,0.018-0.011,0.034-0.011,0.053v3.023c0,0.783,0.656,1.42,1.463,1.42h2.029c0.807,0,1.463-0.638,1.463-1.421v-0.873
		c1.429,0.074,3.24,0.101,5.553,0.101c2.31,0,4.12-0.027,5.549-0.101v0.872c0,0.783,0.656,1.421,1.462,1.421h2.03
		c0.806,0,1.462-0.637,1.462-1.42v-3.626l0.003-0.483c0.012-1.561,0.032-4.064-0.095-5.73
		C-255.141,324.643-254.972,323.909-254.972,323.47z M-257.513,324.658c0.141,1.264,0.15,3.413,0.142,5.092h-0.013
		c0,0.693-1.466,1.069-9.199,1.069c-7.734,0-9.2-0.375-9.2-1.068h-0.013c-0.009-1.679,0-3.828,0.142-5.093l0.045-0.403h18.051
		L-257.513,324.658z M-274.425,321.033c0.267-0.959,0.519-1.865,1.015-2.386c0.839-0.879,3.137-1.328,6.826-1.335
		c3.691,0.007,5.988,0.456,6.826,1.334c0.497,0.521,0.749,1.429,1.016,2.389c0.155,0.558,0.314,1.134,0.537,1.709l0.081,0.21
		h-16.921l0.081-0.21C-274.74,322.169-274.58,321.592-274.425,321.033z M-273.436,334.892c0,0.057-0.066,0.12-0.162,0.12h-2.029
		c-0.096,0-0.162-0.063-0.162-0.119v-1.399c0.547,0.198,1.313,0.338,2.354,0.434V334.892z M-275.783,331.751l-0.002-0.256
		c1.375,0.495,4.079,0.625,9.202,0.625c5.122,0,7.826-0.129,9.201-0.625l-0.002,0.255c0,0.693-1.466,1.069-9.199,1.069
		C-274.317,332.819-275.783,332.444-275.783,331.751z M-257.542,335.012h-2.03c-0.097,0-0.161-0.062-0.161-0.12v-0.964
		c1.04-0.096,1.805-0.235,2.353-0.433v1.398C-257.381,334.949-257.447,335.012-257.542,335.012z"/>
	<path d="M-272.79,330.163c1.377,0,2.376-0.625,2.376-1.485c0-1.207-1.605-2.738-3.41-2.738c-0.895,0-1.544,0.749-1.544,1.781
		c0,0.604,0.23,1.202,0.632,1.643C-274.404,329.727-273.796,330.163-272.79,330.163z M-273.824,327.24
		c1.085,0,1.999,0.927,2.101,1.363c-0.118,0.094-0.473,0.259-1.066,0.259c-0.427,0-0.759-0.126-0.985-0.375
		c-0.187-0.204-0.293-0.483-0.293-0.767C-274.068,327.587-274.024,327.24-273.824,327.24z"/>
	<path d="M-260.377,330.163c1.007,0,1.614-0.436,1.946-0.801c0.401-0.44,0.632-1.039,0.632-1.643c0-1.031-0.648-1.78-1.543-1.78
		c-1.805,0-3.411,1.532-3.411,2.739C-262.753,329.539-261.754,330.163-260.377,330.163z M-259.342,327.24
		c0.199,0,0.243,0.347,0.243,0.479c0,0.284-0.106,0.563-0.292,0.768c-0.228,0.249-0.56,0.375-0.986,0.375
		c-0.593,0-0.948-0.164-1.066-0.259C-261.341,328.167-260.427,327.24-259.342,327.24z"/>
</g>
</svg>
