<svg xmlns="http://www.w3.org/2000/svg" viewBox="0 0 64 64" enable-background="new 0 0 64 64"><path d="M52,2H12C6.478,2,2,6.477,2,11.999V52c0,5.522,4.478,10,10,10h40c5.522,0,10-4.478,10-10V11.999C62,6.477,57.522,2,52,2z
		 M57,45.666C57,50.27,53.269,54,48.667,54H15.333C10.731,54,7,50.27,7,45.666V12.333C7,7.729,10.731,4,15.333,4h33.334
		C53.269,4,57,7.729,57,12.333V45.666z"/><path d="m49.365 24.921l1.635-5.98h-6.104l1.635-5.979h-6.101l-1.637 5.979h-8.137l1.635-5.979h-6.102l-1.637 5.979h-6.102l-1.635 5.979h6.102l-2.18 7.973h-6.104l-1.633 5.98h6.104l-1.637 5.979h6.104l1.635-5.979h8.139l-1.637 5.979h6.104l1.635-5.979h6.104l1.635-5.979h-6.102l2.18-7.973h6.101m-14.386 7.973h-8.137l2.18-7.973h8.137l-2.18 7.973"/></svg>