<svg xmlns="http://www.w3.org/2000/svg" viewBox="0 0 64 64" enable-background="new 0 0 64 64"><path d="M52,2H12C6.478,2,2,6.478,2,12v40c0,5.523,4.478,10,10,10h40c5.522,0,10-4.477,10-10V12C62,6.478,57.522,2,52,2z
		 M57,45.667C57,50.27,53.269,54,48.667,54H15.333C10.731,54,7,50.27,7,45.667V12.334C7,7.731,10.731,4,15.333,4h33.334
		C53.269,4,57,7.731,57,12.334V45.667z"/><path d="m45.474 33.291c.377.161.55.477.523.943-.027.469-.35 1.223-.966 2.265-.618 1.071-1.121 1.725-1.51 1.966-.389.24-.745.24-1.067 0l-8.573-6.216 1.128 10.508c.079.399-.096.709-.524.921-.429.215-1.262.322-2.496.322-1.236 0-2.066-.107-2.496-.322-.43-.212-.604-.521-.523-.921l1.127-10.508-8.533 6.216c-.322.24-.685.24-1.087 0-.402-.241-.913-.895-1.53-1.966-.617-1.042-.933-1.796-.945-2.265-.015-.467.168-.782.543-.943l9.701-4.29-9.701-4.251c-.375-.188-.558-.515-.543-.983.013-.467.328-1.224.945-2.265.617-1.044 1.128-1.685 1.53-1.927.402-.239.765-.239 1.087 0l8.533 6.176-1.127-10.466c-.08-.428.094-.748.523-.963.43-.214 1.26-.322 2.496-.322 1.233 0 2.066.108 2.495.322.429.215.604.535.524.963l-1.128 10.466 8.573-6.176c.322-.239.679-.239 1.067 0 .389.242.892.897 1.51 1.967.616 1.016.938 1.758.966 2.225.026.469-.146.796-.523.983l-9.701 4.251 9.702 4.29"/></svg>