<svg xmlns="http://www.w3.org/2000/svg" viewBox="0 0 64 64" enable-background="new 0 0 64 64"><path d="m33.9 21.676c-.553-.463-1.186-.695-1.9-.695s-1.352.232-1.912.695-.994 1.293-1.303 2.49c-.405 1.553-.608 4.168-.608 7.846 0 3.675.182 6.203.546 7.578.363 1.375.822 2.291 1.377 2.746.553.457 1.186.684 1.9.684s1.352-.23 1.912-.693c.561-.465.994-1.295 1.303-2.492.405-1.539.608-4.146.608-7.822 0-3.678-.182-6.203-.546-7.58-.363-1.374-.822-2.294-1.377-2.757"/><path d="M32,2C15.432,2,2,15.432,2,32c0,16.568,13.432,30,30,30s30-13.432,30-30C62,15.432,48.568,2,32,2z M38.975,44.795
		C37.308,46.932,34.983,48,32,48c-2.997,0-5.414-1.172-7.248-3.516C22.918,42.139,22,37.961,22,31.948
		c0-5.9,1.009-10.146,3.025-12.74C26.692,17.071,29.017,16,32,16s5.315,1.082,6.996,3.25C40.999,21.815,42,26.069,42,32.012
		C42,37.939,40.991,42.201,38.975,44.795z"/></svg>