<svg xmlns="http://www.w3.org/2000/svg" viewBox="0 0 64 64" enable-background="new 0 0 64 64"><path d="M52,2H12C6.479,2,2,6.477,2,12v40c0,5.523,4.479,10,10,10h40c5.523,0,10-4.477,10-10V12C62,6.477,57.523,2,52,2z
		 M57,45.666C57,50.27,53.27,54,48.668,54H15.334C10.732,54,7,50.27,7,45.666V12.334C7,7.73,10.732,4,15.334,4h33.334
		C53.27,4,57,7.73,57,12.334V45.666z"/><path d="m38 45h-6.107v-23.021c-2.232 2.086-4.863 3.629-7.893 4.629v-5.543c1.594-.521 3.326-1.512 5.195-2.967 1.871-1.455 3.152-3.156 3.848-5.098h4.957v32"/></svg>