<svg xmlns="http://www.w3.org/2000/svg" viewBox="0 0 64 64" enable-background="new 0 0 64 64"><path d="M52,2H12C6.479,2,2,6.477,2,12v40c0,5.523,4.479,10,10,10h40c5.523,0,10-4.477,10-10V12C62,6.477,57.523,2,52,2z
		 M57,45.666C57,50.27,53.27,54,48.668,54H15.334C10.732,54,7,50.27,7,45.666V12.334C7,7.73,10.732,4,15.334,4h33.334
		C53.27,4,57,7.73,57,12.334V45.666z"/><path d="m42 39.326v5.674h-20c.217-2.146.865-4.178 1.949-6.098 1.084-1.922 3.221-4.467 6.416-7.643 2.572-2.564 4.148-4.303 4.732-5.217.783-1.26 1.176-2.508 1.176-3.738 0-1.363-.342-2.41-1.025-3.143s-1.627-1.098-2.832-1.098c-1.191 0-2.139.385-2.842 1.152-.705.768-1.111 2.045-1.219 3.826l-5.686-.609c.338-3.361 1.402-5.773 3.188-7.238 1.788-1.462 4.022-2.194 6.702-2.194 2.936 0 5.246.848 6.924 2.543s2.517 3.805 2.517 6.326c0 1.434-.24 2.801-.721 4.098-.48 1.299-1.242 2.656-2.283 4.076-.691.941-1.938 2.297-3.738 4.064-1.799 1.77-2.939 2.943-3.42 3.523-.48.578-.871 1.145-1.168 1.695h11.33z"/></svg>