<svg xmlns="http://www.w3.org/2000/svg" viewBox="0 0 64 64" enable-background="new 0 0 64 64"><path d="M52,2H12C6.479,2,2,6.477,2,12v40c0,5.523,4.479,10,10,10h40c5.523,0,10-4.477,10-10V12C62,6.477,57.523,2,52,2z
		 M57,45.666C57,50.27,53.27,54,48.668,54H15.334C10.732,54,7,50.27,7,45.666V12.334C7,7.73,10.732,4,15.334,4h33.334
		C53.27,4,57,7.73,57,12.334V45.666z"/><path d="m22 36.15l5.586-.707c.178 1.482.656 2.617 1.438 3.4.779.783 1.725 1.176 2.834 1.176 1.189 0 2.193-.471 3.008-1.41.814-.941 1.223-2.209 1.223-3.807 0-1.51-.391-2.707-1.172-3.59-.781-.885-1.73-1.324-2.854-1.324-.74 0-1.623.148-2.65.447l.637-4.895c1.561.043 2.752-.311 3.574-1.059.82-.748 1.232-1.742 1.232-2.982 0-1.055-.301-1.896-.904-2.521-.602-.627-1.404-.941-2.402-.941-.986 0-1.828.355-2.525 1.068-.699.713-1.123 1.752-1.273 3.121l-5.318-.939c.369-1.896.928-3.41 1.674-4.543s1.785-2.023 3.121-2.672c1.332-.648 2.828-.972 4.484-.972 2.834 0 5.107.939 6.816 2.822 1.41 1.539 2.115 3.275 2.115 5.215 0 2.75-1.443 4.945-4.332 6.584 1.725.385 3.104 1.246 4.139 2.586 1.033 1.34 1.549 2.957 1.549 4.854 0 2.75-.965 5.094-2.895 7.031-1.931 1.937-4.334 2.908-7.207 2.908-2.725 0-4.984-.816-6.777-2.447-1.793-1.633-2.832-3.768-3.121-6.403"/></svg>