<svg xmlns="http://www.w3.org/2000/svg" viewBox="0 0 64 64" enable-background="new 0 0 64 64"><path d="m32 2c-16.568 0-30 13.432-30 30s13.432 30 30 30 30-13.432 30-30-13.432-30-30-30m7.871 41.779c-1.934 2.813-4.619 4.221-8.053 4.221-2.746 0-4.984-.791-6.715-2.371-1.73-1.582-2.766-3.707-3.104-6.375l5.68-.631c.162 1.379.643 2.469 1.44 3.273.798.807 1.717 1.209 2.759 1.209 1.189 0 2.197-.52 3.021-1.557.825-1.035 1.237-2.598 1.237-4.688 0-1.957-.409-3.426-1.228-4.404-.817-.979-1.883-1.469-3.193-1.469-1.637 0-3.104.777-4.402 2.328l-4.625-.719 2.923-16.596h15.07v5.721h-10.75l-.893 5.418c1.271-.682 2.568-1.023 3.895-1.023 2.527 0 4.672.986 6.43 2.959 1.758 1.97 2.637 4.53 2.637 7.679 0 2.623-.71 4.967-2.129 7.025"/></svg>