<svg xmlns="http://www.w3.org/2000/svg" viewBox="0 0 64 64" enable-background="new 0 0 64 64"><path d="M52,2H12C6.479,2,2,6.477,2,12v40c0,5.523,4.479,10,10,10h40c5.523,0,10-4.477,10-10V12C62,6.477,57.523,2,52,2z
		 M57,45.666C57,50.27,53.27,54,48.668,54H15.334C10.732,54,7,50.27,7,45.666V12.334C7,7.73,10.732,4,15.334,4h33.334
		C53.27,4,57,7.73,57,12.334V45.666z"/><path d="m22 36.254l5.68-.631c.162 1.379.643 2.469 1.441 3.273.797.807 1.717 1.209 2.758 1.209 1.189 0 2.197-.52 3.021-1.557.826-1.035 1.238-2.598 1.238-4.688 0-1.957-.41-3.426-1.229-4.404-.816-.979-1.883-1.469-3.193-1.469-1.637 0-3.104.777-4.402 2.328l-4.625-.719 2.922-16.596h15.07v5.721h-10.75l-.893 5.418c1.271-.682 2.568-1.023 3.895-1.023 2.527 0 4.672.986 6.43 2.959 1.758 1.97 2.637 4.53 2.637 7.679 0 2.623-.709 4.967-2.129 7.025-1.933 2.813-4.619 4.221-8.053 4.221-2.746 0-4.984-.791-6.715-2.371-1.73-1.582-2.765-3.707-3.103-6.375"/></svg>