<svg xmlns="http://www.w3.org/2000/svg" viewBox="0 0 64 64" enable-background="new 0 0 64 64"><path d="M52,2H12C6.479,2,2,6.477,2,12v40c0,5.523,4.479,10,10,10h40c5.523,0,10-4.477,10-10V12C62,6.477,57.523,2,52,2z
		 M57,45.666C57,50.27,53.27,54,48.668,54H15.334C10.732,54,7,50.27,7,45.666V12.334C7,7.73,10.732,4,15.334,4h33.334
		C53.27,4,57,7.73,57,12.334V45.666z"/><path d="m41.449 20.801l-5.557.643c-.137-1.197-.49-2.082-1.063-2.65-.572-.57-1.314-.855-2.227-.855-1.213 0-2.238.57-3.074 1.709-.838 1.141-1.365 3.514-1.584 7.121 1.43-1.77 3.207-2.654 5.332-2.654 2.396 0 4.451.957 6.158 2.867 1.712 1.909 2.566 4.373 2.566 7.393 0 3.207-.898 5.779-2.695 7.717-1.799 1.937-4.108 2.908-6.926 2.908-3.023 0-5.51-1.23-7.457-3.688s-2.922-6.486-2.922-12.087c0-5.744 1.016-9.885 3.045-12.42 2.029-2.537 4.664-3.805 7.906-3.805 2.273 0 4.156.666 5.648 1.998 1.491 1.334 2.442 3.27 2.85 5.803m-13.013 13.103c0 1.953.43 3.459 1.287 4.521s1.838 1.594 2.941 1.594c1.063 0 1.947-.436 2.656-1.305.707-.869 1.063-2.295 1.063-4.275 0-2.039-.381-3.529-1.145-4.479-.764-.945-1.715-1.42-2.859-1.42-1.104 0-2.037.451-2.799 1.355-.764.906-1.144 2.244-1.144 4.009"/></svg>