<svg xmlns="http://www.w3.org/2000/svg" viewBox="0 0 64 64" enable-background="new 0 0 64 64"><path d="m32.379 31.541c-1.104 0-2.037.451-2.799 1.355-.764.904-1.145 2.242-1.145 4.008 0 1.953.43 3.459 1.287 4.521s1.838 1.594 2.941 1.594c1.063 0 1.947-.436 2.656-1.305.707-.869 1.063-2.295 1.063-4.275 0-2.039-.381-3.529-1.145-4.479-.762-.944-1.714-1.419-2.858-1.419"/><path d="m32 2c-16.568 0-30 13.432-30 30s13.432 30 30 30 30-13.432 30-30-13.432-30-30-30m7.305 43.092c-1.799 1.937-4.108 2.908-6.926 2.908-3.023 0-5.51-1.23-7.457-3.688s-2.922-6.486-2.922-12.087c0-5.744 1.016-9.885 3.045-12.42 2.029-2.537 4.664-3.805 7.906-3.805 2.273 0 4.156.666 5.648 1.998 1.49 1.334 2.441 3.27 2.85 5.803l-5.557.643c-.137-1.197-.49-2.082-1.063-2.65-.572-.57-1.314-.855-2.227-.855-1.213 0-2.238.57-3.074 1.709-.838 1.141-1.365 3.514-1.584 7.121 1.43-1.77 3.207-2.654 5.332-2.654 2.396 0 4.451.957 6.158 2.867 1.712 1.909 2.566 4.373 2.566 7.393 0 3.207-.898 5.779-2.695 7.717"/></svg>