<svg xmlns="http://www.w3.org/2000/svg" viewBox="0 0 64 64" enable-background="new 0 0 64 64"><path d="M52,2H12C6.478,2,2,6.477,2,12v40c0,5.523,4.478,10,10,10h40c5.522,0,10-4.477,10-10V12C62,6.477,57.522,2,52,2z
		 M57,45.666C57,50.27,53.269,54,48.667,54H15.333C10.731,54,7,50.27,7,45.666V12.334C7,7.73,10.731,4,15.333,4h33.334
		C53.269,4,57,7.73,57,12.334V45.666z"/><path d="m23 18.775v-5.775h20v4.514c-1.651 1.727-3.33 4.205-5.036 7.436-1.707 3.23-3.008 6.667-3.903 10.303-.895 3.637-1.335 6.887-1.321 9.748h-5.64c.098-4.484.968-9.059 2.612-13.72 1.644-4.663 3.84-8.831 6.586-12.504h-13.298z"/></svg>