<svg xmlns="http://www.w3.org/2000/svg" viewBox="0 0 64 64" enable-background="new 0 0 64 64"><path d="m31.979 33.109c-1.425 0-2.487.506-3.185 1.518-.698 1.012-1.048 2.107-1.048 3.291 0 1.652.412 2.939 1.235 3.865.822.924 1.85 1.389 3.08 1.389 1.203 0 2.198-.445 2.987-1.336.788-.889 1.182-2.174 1.182-3.855 0-1.465-.399-2.646-1.202-3.533-.801-.893-1.818-1.339-3.049-1.339"/><path d="m31.896 28.303c1.108 0 1.992-.338 2.655-1.014.664-.676.996-1.613.996-2.809 0-1.125-.328-2.025-.984-2.703-.658-.676-1.525-1.014-2.604-1.014-1.12 0-2.013.342-2.676 1.025-.664.684-.996 1.588-.996 2.713 0 1.197.328 2.129.986 2.797.656.671 1.53 1.005 2.623 1.005"/><path d="m32 2c-16.568 0-30 13.432-30 30s13.432 30 30 30 30-13.432 30-30-13.432-30-30-30m7.314 43.287c-1.793 1.809-4.175 2.713-7.148 2.713-2.767 0-5.069-.748-6.909-2.242-2.171-1.768-3.257-4.188-3.257-7.266 0-1.693.408-3.25 1.224-4.664.817-1.42 2.104-2.512 3.86-3.281-1.509-.654-2.604-1.557-3.289-2.703-.686-1.145-1.026-2.402-1.026-3.768 0-2.338.791-4.268 2.374-5.791 1.584-1.523 3.836-2.285 6.753-2.285 2.891 0 5.136.762 6.733 2.285s2.396 3.453 2.396 5.791c0 1.451-.366 2.744-1.101 3.877-.732 1.129-1.763 1.996-3.091 2.594 1.688.697 2.971 1.717 3.849 3.055.879 1.339 1.318 2.882 1.318 4.634 0 2.893-.896 5.243-2.686 7.051"/></svg>