<svg xmlns="http://www.w3.org/2000/svg" viewBox="0 0 64 64" enable-background="new 0 0 64 64"><path d="m31.336 20.977c-1.063 0-1.943.439-2.645 1.314-.703.877-1.055 2.311-1.055 4.305 0 2.021.383 3.508 1.146 4.453.762.947 1.715 1.42 2.857 1.42 1.105 0 2.033-.453 2.791-1.365.756-.912 1.135-2.25 1.135-4.018 0-1.938-.43-3.439-1.279-4.506-.85-1.068-1.835-1.603-2.95-1.603"/><path d="m32 2c-16.568 0-30 13.432-30 30s13.432 30 30 30 30-13.432 30-30-13.432-30-30-30m6.955 42.197c-2.029 2.533-4.672 3.803-7.926 3.803-2.342 0-4.236-.652-5.68-1.955s-2.369-3.252-2.777-5.842l5.555-.641c.137 1.182.492 2.057 1.064 2.627s1.328.854 2.268.854c1.184 0 2.193-.568 3.023-1.709.83-1.139 1.359-3.502 1.592-7.092-1.443 1.752-3.246 2.627-5.412 2.627-2.357 0-4.391-.951-6.098-2.85-1.71-1.902-2.564-4.376-2.564-7.423 0-3.178.9-5.736 2.707-7.68 1.805-1.945 4.102-2.916 6.895-2.916 3.035 0 5.527 1.229 7.479 3.684 1.944 2.459 2.919 6.498 2.919 12.123 0 5.726-1.016 9.855-3.045 12.39"/></svg>