<svg xmlns="http://www.w3.org/2000/svg" viewBox="0 0 64 64" enable-background="new 0 0 64 64"><path d="m32 2c-13.786 0-25 11.216-25 25s11.215 25 25 25c13.786 0 25-11.216 25-25s-11.215-25-25-25m0 45.001c-11.029 0-20.001-8.972-20.001-20.001 0-11.027 8.971-19.999 20.001-19.999 11.028 0 19.999 8.972 19.999 19.999-.001 11.029-8.972 20.001-19.999 20.001"/><path d="m25.414 19.337c.93-.983 2.016-1.765 3.26-2.338 1.242-.573 2.574-.86 3.994-.86 1.749 0 3.354.417 4.817 1.251 1.461.833 2.656 1.947 3.586 3.342l3.564-2.665c-1.365-1.857-3.08-3.335-5.143-4.426-2.062-1.094-4.338-1.641-6.825-1.641-2.049 0-3.975.396-5.777 1.19-1.805.79-3.375 1.864-4.713 3.215-1.338 1.354-2.398 2.938-3.176 4.756-.779 1.814-1.168 3.763-1.168 5.84 0 2.075.389 4.022 1.168 5.841.777 1.817 1.838 3.401 3.176 4.752 1.338 1.354 2.908 2.425 4.713 3.219 1.803.79 3.729 1.187 5.777 1.187 2.487 0 4.762-.547 6.825-1.642 2.063-1.09 3.777-2.564 5.143-4.426l-3.564-2.661c-.93 1.391-2.125 2.505-3.586 3.339-1.463.833-3.068 1.25-4.817 1.25-1.42 0-2.752-.286-3.994-.86-1.244-.573-2.33-1.354-3.26-2.338-.928-.98-1.666-2.131-2.213-3.441s-.82-2.719-.82-4.22c0-1.504.273-2.911.82-4.222s1.285-2.458 2.213-3.442"/></svg>