<svg xmlns="http://www.w3.org/2000/svg" viewBox="0 0 64 64" enable-background="new 0 0 64 64"><path d="m32 2c-13.785 0-25 11.216-25 25s11.215 25 25 25c13.786 0 25-11.216 25-25s-11.214-25-25-25m0 45.001c-11.028 0-20-8.972-20-20.001 0-11.027 8.972-19.999 20-19.999 11.027 0 20 8.972 20 19.999 0 11.029-8.973 20.001-20 20.001"/><path d="m32.262 14h-9.262v26h4.162v-7.676h7.043l4.397 7.676h4.398l-5.02-8.985c7.691-3.45 7.691-17.015-5.718-17.015m.504 14.999h-5.563v-11.674h5.563c8.857 0 8.857 11.674 0 11.674"/></svg>