<svg xmlns="http://www.w3.org/2000/svg" viewBox="0 0 64 64" enable-background="new 0 0 64 64"><g fill-rule="evenodd"><path d="m61.984 22.992c-.036-.425-.246-.844-.65-1.17l-21.498-17.286c-.444-.355-1.026-.536-1.608-.536s-1.163.181-1.606.536l-33.957 27.304c-.445.358-.667.828-.665 1.298v7.746c0 .002 0 .002 0 .002v.198h.023c.053.398.26.786.642 1.094l21.499 17.286c.887.715 2.326.715 3.215 0l33.955-27.302c.42-.338.635-.775.656-1.219h.009l.001-.074v-7.877h-.016m-24.11-16.897c.059-.047.189-.094.354-.094.165 0 .298.048.355.094l21.166 17.021-33.621 27.034c-.06.047-.192.095-.357.095-.164 0-.295-.047-.354-.093l-21.167-17.02 33.624-27.037"/><path d="m32.127 29.855c1.436 1.162 3.287 2.334 3.287 3.457 3.757-2.023 7.638-1.074 11.502-.529 2.379-3.836-2.585-8.006-6.176-9.854 1.646-2.39 3.477-.404 5.139-2.388.011-1.965.524-3.917-.248-5.904-1.375.513-2.811-.395-4.195-.111-1.966 2.473-1.355 5.015-4.926 7.446-2.326-1.368-4.613-1.77-6.94-3.136-1.154-1.437.768-2.787-1.226-4.246-6.119 3.345.702 7.039-3.229 10.44 1.463 1.577 2.826.807 4.301 2.645-1.934 4.299-12.314 8.371-12.561 12.715 6.352-.928 9.209-8.54 15.272-10.535m5.538-5.325c1.782.647 5.145 1.448 5.386 3.515-3.251 1.586-6.54 2.262-9.946.152 1.52-1.222 3.04-2.445 4.56-3.667m-7.483-3.573c1.246.551 2.512 1.603 3.725 1.365 1.573 1.448-1.606 2.764-2.971 4.131-2.874-1.902-1.582-3.693-.754-5.496"/></g></svg>