<svg xmlns="http://www.w3.org/2000/svg" viewBox="0 0 64 64" enable-background="new 0 0 64 64"><path d="M49.538,2H14.462C10.899,2,8,4.944,8,8.563v46.875C8,59.056,10.899,62,14.462,62h35.076C53.101,62,56,59.056,56,55.438
		V8.563C56,4.944,53.101,2,49.538,2z M53.23,55.438c0,2.07-1.652,3.75-3.692,3.75H14.462c-2.04,0-3.692-1.68-3.692-3.75V8.563
		c0-2.072,1.652-3.75,3.692-3.75h35.076c2.04,0,3.692,1.678,3.692,3.75V55.438z"/><path d="m34.706 39.591c-.13.082-.276.172-.434.26-.319.179-.684.352-1.069.469-.195.06-.394.104-.596.133-.051.005-.101.016-.151.021-.051.002-.106.012-.151.014l-.067.004-.031.002h-.019l-.025.002-.173.004c-.433 0-.842-.058-1.229-.17-.384-.111-.75-.281-1.063-.461-.315-.177-.578-.359-.764-.495-.188-.137-.298-.224-.298-.224s-.004.033 0 .094c.006.063.016.154.04.266.05.228.159.547.396.895.115.174.265.352.448.527.188.17.409.334.664.475.258.137.548.253.854.326.308.074.627.114.948.116h.006.029l.013-.002h.024.049l.1-.005h.026l.032-.004.066-.005.131-.015c.167-.018.321-.047.476-.086.31-.077.596-.195.851-.338.256-.141.475-.307.658-.477.182-.172.332-.352.449-.523.117-.17.203-.337.27-.488.065-.148.109-.285.138-.396.054-.225.05-.359.05-.359s-.113.084-.308.213c-.093.065-.207.144-.34.227"/><path d="m29.644 33.483c0-.146-.04-.282-.106-.405.013.005.021.01.034.014.051.014.094.036.139.055.047.018.092.035.133.057.087.037.171.072.24.111.074.031.141.063.191.088.055.025.102.045.131.062.03.013.046.02.046.02s-.004-.017-.016-.045c-.01-.029-.024-.073-.049-.124-.022-.058-.055-.117-.1-.187-.021-.036-.045-.072-.071-.11-.028-.036-.061-.074-.093-.113-.032-.041-.07-.078-.111-.119-.042-.041-.085-.083-.136-.121-.048-.035-.098-.077-.158-.113-.053-.033-.114-.069-.177-.104-.131-.061-.272-.117-.43-.152-.037-.006-.076-.015-.115-.023-.039-.005-.079-.011-.12-.014-.08-.013-.162-.009-.244-.011-.158.009-.32.026-.469.069-.149.039-.29.095-.414.16-.125.061-.234.137-.331.208-.097.077-.18.153-.248.228-.142.153-.23.299-.284.402-.026.051-.043.094-.053.124-.013.027-.017.045-.017.045s.065-.028.177-.076.264-.114.438-.187c.091-.033.182-.07.28-.104-.055.112-.086.236-.086.366 0 .503.451.913 1.01.913.556-.001 1.009-.411 1.009-.914"/><path d="m37.105 33.314c-.021-.058-.053-.117-.095-.187-.022-.036-.047-.072-.074-.11-.027-.036-.06-.074-.092-.113-.033-.041-.072-.078-.11-.119-.043-.041-.085-.083-.138-.121-.048-.035-.097-.077-.156-.113-.054-.033-.115-.069-.178-.104-.133-.061-.273-.117-.428-.152-.038-.006-.076-.015-.117-.023-.04-.005-.078-.011-.121-.014-.081-.013-.16-.009-.242-.011-.159.009-.322.026-.468.069-.152.039-.29.095-.415.16-.127.061-.234.137-.332.208-.096.077-.18.153-.248.228-.143.153-.231.299-.285.402-.025.051-.042.094-.055.124-.009.027-.013.045-.013.045s.063-.028.175-.076c.112-.048.264-.114.441-.187.088-.033.182-.07.278-.104-.054.112-.085.236-.085.366 0 .503.451.913 1.006.913.558 0 1.008-.41 1.008-.913 0-.146-.037-.282-.102-.405.009.005.021.01.031.014.051.014.095.036.142.055.044.018.091.035.131.057.087.037.17.072.24.111.072.031.141.063.19.088.053.025.102.045.129.062.033.013.048.02.048.02s-.004-.017-.015-.045c-.008-.03-.022-.074-.05-.125"/><path d="m49.659 17.927c-.466 0-.887.164-1.205.425-.813-.754-1.949-1.7-3.127-2.34-3.992-2.163-7.24-.24-9.604 2.515-.776-1.685-1.718-3.472-2.851-5.229.537-.28.902-.798.902-1.398 0-.895-.801-1.619-1.793-1.619-.989 0-1.792.724-1.792 1.619 0 .589.351 1.099.872 1.382-1.125 1.743-2.061 3.515-2.836 5.188-2.359-2.724-5.589-4.604-9.553-2.457-1.186.643-2.325 1.595-3.139 2.352-.318-.257-.732-.418-1.191-.418-.992 0-1.796.724-1.796 1.621 0 .895.804 1.619 1.796 1.619.989 0 1.792-.725 1.792-1.619 0-.005-.001-.009-.002-.014 2.517.201 6.934 1.389 8.243 7.049-.6 1.765-1.752 7.134 2.631 15.042.178.32.352.61.525.898l-6.321 11.176 7.996-6.873-.822 6.873 3.641-7.223 3.558 7.223-.747-6.884 7.918 6.884-6.262-11.23c.162-.271.326-.543.492-.844 4.361-7.875 3.238-13.234 2.639-15.021 1.244-5.826 5.709-6.954 8.245-7.107-.001.01-.004.02-.004.03 0 .895.804 1.62 1.796 1.62.99 0 1.794-.725 1.794-1.62-.001-.896-.805-1.62-1.795-1.62m-13.881 23.028c-1.843 3.324-3.072 4.057-3.784 4.08-.71-.023-1.938-.756-3.782-4.08-2.98-5.38-3.213-9.49-2.934-11.908.631-.891 1.669-1.837 3.254-1.837 2.982 0 3.462 3.373 3.462 3.373s.478-3.373 3.466-3.373c1.583 0 2.622.948 3.25 1.839.28 2.42.045 6.528-2.932 11.906"/></svg>