<svg xmlns="http://www.w3.org/2000/svg" viewBox="0 0 64 64" enable-background="new 0 0 64 64"><path d="m39 19.434h-5.384v25.133h5.384c2.969 0 5.386-2.322 5.386-5.174v-14.784c0-2.853-2.417-5.175-5.386-5.175"/><path d="m52 2h-40c-5.523 0-10 4.477-10 10v40c0 5.523 4.477 10 10 10h40c5.523 0 10-4.477 10-10v-40c0-5.523-4.477-10-10-10m-29 47h-4v-34h4v34m26-9.607c0 1.295-.267 2.553-.787 3.738-.505 1.145-1.225 2.172-2.143 3.055-.918.881-1.987 1.574-3.178 2.059-1.235.501-2.544.755-3.892.755h-10v-34h10c1.348 0 2.657.254 3.893.754 1.19.484 2.26 1.176 3.178 2.059s1.638 1.912 2.143 3.053c.519 1.187.786 2.447.786 3.743v14.784"/></svg>