<svg xmlns="http://www.w3.org/2000/svg" viewBox="0 0 64 64" enable-background="new 0 0 64 64"><path d="m32.552 23.131c-2.078 0-3.77 1.639-3.77 3.652v10.434c0 2.016 1.691 3.652 3.77 3.652s3.77-1.637 3.77-3.652v-10.434c-.001-2.013-1.692-3.652-3.77-3.652"/><path d="m52 2h-40c-5.523 0-10 4.477-10 10v40c0 5.523 4.477 10 10 10h40c5.523 0 10-4.477 10-10v-40c0-5.523-4.477-10-10-10m-35.334 28.445c.916 0 1.813.188 2.665.557.811.352 1.541.846 2.175 1.473.634.625 1.133 1.346 1.484 2.141.373.842.562 1.721.562 2.613 0 .914-.182 1.801-.543 2.637-.348.807-.844 1.529-1.477 2.15-.631.623-1.368 1.111-2.19 1.451-.849.353-1.751.533-2.682.533-.93 0-2.05-.201-2.898-.557-.822-.342-1.56-.83-2.19-1.449-.633-.621-1.129-1.346-1.477-2.152-.361-.836-.543-1.723-.543-2.635h3.181c0 2.01 1.882 3.668 3.928 3.668 2.047 0 3.711-1.637 3.711-3.646 0-1.914-1.767-3.658-3.705-3.658-1.739 0-3.53-.752-4.913-2.063-1.397-1.326-2.201-3.053-2.201-4.736 0-.914.182-1.801.543-2.637.348-.807.844-1.531 1.477-2.154.631-.619 1.368-1.107 2.19-1.447.847-.356 1.751-.534 2.68-.534s2.05.154 2.898.508c.822.342 1.56.83 2.19 1.451.633.621 1.129 1.346 1.477 2.152.361.834.543 1.721.543 2.635h-3.181c0-2.01-1.882-3.621-3.928-3.621-2.047 0-3.711 1.635-3.711 3.646.001 1.784 2.025 3.674 3.935 3.674m22.886 6.772c0 .916-.186 1.805-.551 2.641-.354.809-.858 1.533-1.5 2.156-.642.621-1.391 1.111-2.226 1.453-.862.353-1.779.533-2.723.533s-1.861-.18-2.726-.533c-.833-.342-1.582-.832-2.224-1.453-.644-.623-1.148-1.348-1.5-2.156-.365-.836-.551-1.725-.551-2.641v-10.434c0-.914.186-1.803.551-2.641.352-.809.856-1.533 1.5-2.156.642-.623 1.391-1.111 2.224-1.453.864-.353 1.781-.533 2.726-.533s1.861.18 2.724.533c.835.342 1.584.83 2.226 1.453s1.146 1.348 1.5 2.156c.365.838.551 1.727.551 2.641v10.434zm9.116-6.774c.913 0 1.81.189 2.665.559.808.352 1.541.846 2.175 1.473.632.625 1.131 1.346 1.485 2.141.37.842.559 1.721.559 2.613 0 .914-.183 1.801-.543 2.637-.346.807-.843 1.529-1.475 2.152-.633.621-1.37 1.109-2.19 1.449-.852.353-1.755.533-2.685.533s-2.048-.203-2.899-.557c-.819-.342-1.558-.83-2.188-1.449-.634-.623-1.131-1.346-1.477-2.152-.36-.836-.543-1.723-.543-2.637h3.182c0 2.012 1.88 3.67 3.926 3.67 2.047 0 3.712-1.637 3.712-3.646 0-1.914-1.765-3.658-3.703-3.658-1.74 0-3.531-.752-4.915-2.063-1.399-1.326-2.201-3.053-2.201-4.736 0-.914.183-1.801.543-2.637.346-.807.843-1.531 1.477-2.152.631-.621 1.369-1.109 2.188-1.451.85-.354 1.754-.532 2.683-.532s2.048.154 2.899.508c.82.342 1.558.83 2.19 1.451.632.621 1.129 1.346 1.475 2.152.36.834.543 1.721.543 2.635h-3.181c0-2.01-1.881-3.621-3.927-3.621-2.047 0-3.711 1.635-3.711 3.646.001 1.784 2.022 3.672 3.936 3.672"/></svg>