<svg xmlns="http://www.w3.org/2000/svg" viewBox="0 0 64 64" enable-background="new 0 0 64 64"><path d="m52 2h-40c-5.523 0-10 4.477-10 10v40c0 5.523 4.477 10 10 10h40c5.523 0 10-4.477 10-10v-40c0-5.523-4.477-10-10-10m-28.77 42.365h-4.877l-8.353-24.645h5.514l5.363 18.71 5.412-18.71h5.363l-8.422 24.645m28.153-1.595c-1.744 1.487-4.209 2.23-7.395 2.23-3.252 0-5.809-.732-7.672-2.197-1.863-1.467-2.795-3.481-2.795-6.045h4.928c.158 1.125.473 1.967.939 2.524.855 1.016 2.322 1.521 4.398 1.521 1.242 0 2.252-.134 3.029-.401 1.471-.512 2.207-1.465 2.207-2.859 0-.813-.361-1.443-1.082-1.889-.721-.436-1.865-.82-3.43-1.154l-2.674-.584c-2.629-.581-4.434-1.211-5.418-1.891-1.664-1.136-2.496-2.915-2.496-5.334 0-2.207.813-4.04 2.441-5.501 1.629-1.46 4.021-2.19 7.178-2.19 2.635 0 4.883.688 6.742 2.065 1.861 1.376 2.836 3.375 2.928 5.994h-4.961c-.092-1.482-.756-2.536-1.994-3.16-.824-.412-1.85-.62-3.074-.62-1.363 0-2.451.269-3.266.804-.813.535-1.219 1.283-1.219 2.24 0 .881.4 1.539 1.203 1.975.516.289 1.609.629 3.281 1.019l4.336 1.021c1.898.446 3.324 1.042 4.271 1.789 1.476 1.158 2.212 2.835 2.212 5.032 0 2.252-.871 4.121-2.617 5.611"/></svg>