<svg xmlns="http://www.w3.org/2000/svg" viewBox="0 0 64 64" enable-background="new 0 0 64 64"><path d="m39 26.285c-1.377 0-2.5 1.025-2.5 2.285v6.857c0 1.26 1.123 2.287 2.5 2.287 1.379 0 2.5-1.027 2.5-2.287v-6.857c0-1.259-1.121-2.285-2.5-2.285"/><path d="m27 26.285c-1.377 0-2.5 1.025-2.5 2.285v6.857c0 1.26 1.123 2.287 2.5 2.287 1.379 0 2.5-1.027 2.5-2.287v-6.857c0-1.259-1.121-2.285-2.5-2.285"/><path d="m52 2h-40c-5.523 0-10 4.477-10 10v40c0 5.523 4.477 10 10 10h40c5.523 0 10-4.477 10-10v-40c0-5.523-4.477-10-10-10m-37 35.715c1.379 0 2.5-1.027 2.5-2.287h2.5c0 2.521-2.242 4.572-5 4.572-2.756 0-5-2.051-5-4.572v-6.858c0-2.52 2.244-4.57 5-4.57 2.758 0 5 2.051 5 4.57h-2.5c0-1.26-1.121-2.285-2.5-2.285-1.377 0-2.5 1.025-2.5 2.285v6.857c0 1.261 1.123 2.288 2.5 2.288m17-2.287c0 2.521-2.244 4.572-5 4.572s-5-2.051-5-4.572v-6.858c0-2.52 2.244-4.57 5-4.57s5 2.051 5 4.57v6.858m12 0c0 2.521-2.244 4.572-5 4.572-2.758 0-5-2.051-5-4.572v-6.858c0-2.52 2.242-4.57 5-4.57 2.756 0 5 2.051 5 4.57v6.858m10 4.572h-8v-16h2.287v13.715h5.713v2.285"/></svg>