<svg xmlns="http://www.w3.org/2000/svg" viewBox="0 0 64 64" enable-background="new 0 0 64 64"><path d="M52,2H12C6.477,2,2,6.477,2,12v40c0,5.523,4.477,10,10,10h40c5.523,0,10-4.477,10-10V12C62,6.477,57.523,2,52,2z M30,33v9
	h-2.356l-14.31-14.313V42H10V22h2.356l14.311,14.309V22H30V33z M54,31.998C54,37.514,49.516,42,44,42c-5.513,0-10-4.486-10-10.002
	C34,26.484,38.487,22,44,22c2.566,0,5.007,0.969,6.87,2.732l-2.29,2.42c-1.243-1.174-2.869-1.82-4.58-1.82
	c-3.676,0-6.666,2.99-6.666,6.666c0,3.678,2.99,6.668,6.666,6.668c3.102,0,5.713-2.127,6.455-4.998H44v-3.336h10V31.998z"/></svg>