<svg xmlns="http://www.w3.org/2000/svg" viewBox="0 0 64 64" enable-background="new 0 0 64 64"><path d="m52 2h-40c-5.523 0-10 4.477-10 10v40c0 5.523 4.477 10 10 10h40c5.523 0 10-4.477 10-10v-40c0-5.523-4.477-10-10-10m-29 41.086c2.375 0 4.309-2.047 4.309-4.564h3.691c0 1.143-.211 2.254-.629 3.299-.403 1.012-.979 1.918-1.714 2.695-.734.777-1.589 1.389-2.541 1.816-.989.443-2.036.668-3.116.668s-2.129-.225-3.114-.668c-.954-.428-1.809-1.039-2.543-1.816-.733-.777-1.311-1.684-1.714-2.695-.418-1.046-.629-2.157-.629-3.3v-13.042c0-1.145.211-2.256.629-3.303.403-1.008.98-1.916 1.714-2.693.734-.777 1.589-1.389 2.543-1.816.985-.442 2.034-.667 3.114-.667s2.127.225 3.116.666c.952.428 1.807 1.039 2.541 1.816.735.777 1.311 1.686 1.714 2.693.418 1.048.629 2.159.629 3.304h-3.691c0-2.518-1.934-4.566-4.309-4.566s-4.309 2.049-4.309 4.566v13.043c0 2.517 1.934 4.564 4.309 4.564m26 3.914h-12v-30h3.693v26.086h8.307v3.914"/></svg>