<svg xmlns="http://www.w3.org/2000/svg" viewBox="0 0 64 64" enable-background="new 0 0 64 64"><path d="M52,2H12C6.477,2,2,6.477,2,12v40c0,5.523,4.477,10,10,10h40c5.523,0,10-4.477,10-10V12C62,6.477,57.523,2,52,2z M18,26
		h-5.09v4.5H18v3h-5.09V41H10V23h8V26z M30.475,41h-3.021l-2.471-7.5h-1.125V41H21V23h5c2.758,0,5,2.355,5,5.25
		c0,2.197-1.293,4.084-3.121,4.865L30.475,41z M42,26h-5.09v4.5H42v3h-5.09V38H42v3h-8V23h8V26z M54,26h-5.09v4.5H54v3h-5.09V38H54
		v3h-8V23h8V26z"/><path d="M26,26h-2.143v4.5H26c1.182,0,2.143-1.01,2.143-2.25S27.182,26,26,26z"/></svg>