<svg xmlns="http://www.w3.org/2000/svg" viewBox="0 0 64 64" enable-background="new 0 0 64 64"><path d="m36.651 41.188c.173.039.342.047.504.006.109-.027.216-.092.319-.176-.346-.221-.645-.432-.877-.619.012.361.029.722.054.789"/><path d="m38.162 37.662c-.344.053-.671.367-.874.6.319.313.734.645 1.241.971.232-.604.373-1.115.376-1.135-.22-.25-.493-.473-.743-.436"/><path d="m32 2c-16.568 0-30 13.432-30 30 0 16.568 13.432 30 30 30s30-13.432 30-30c0-16.568-13.432-30-30-30m-26.55 30h-1.45c0-3.102.515-6.083 1.45-8.875v8.875m26.55-17.701h-8.26l8.26 10.326v2.515l-10.396-12.841h-5.9l14.329 17.701h-3.933l-11.8-14.75v14.75h-2.95v-18.888c.562-.613 1.149-1.201 1.763-1.762h18.887v2.949m0-8.849h-8.876c2.791-.936 5.773-1.45 8.876-1.45v1.45m5.346 15.248h15.179v9.341c0 0-2.847-1.967-3.795-1.967s-2.701 1.967-3.794 1.967-2.847-1.967-3.794-1.967c-.949 0-3.796 1.967-3.796 1.967v-9.341m11.385 11.8c-.113 0-.238.031-.371.08.001-.037.002-.072.005-.104.037-.328.652-.898.652-.898l-1.5.348c.007-.602.013-1.094.016-1.348.452-.303.873-.537 1.196-.537.948 0 3.795 1.967 3.795 1.967v1.475c0 .32-.026.633-.075.941-.585-.395-2.911-1.924-3.718-1.924m1.494 2.725c-.934.113-2.383.291-2.383.311 0-.029-.014.488-.017.658-.097.078-.219.172-.361.273.003-.287.01-.809.017-1.43.474-.32.913-.572 1.249-.572.322 0 .916.353 1.495.76m-4.181-2.239c.11.451.255.84.29.84.038 0 .437-.6.871-.629.014-.002.029.002.044.002l-.001.029c-.801.561-1.67 1.236-2.313 1.236-.167 0-.354-.057-.546-.133.003-.4.006-.805.009-1.201.463-.029 1.059.307 1.024.307s-.181-.451-.181-.779c0-.166.137-.504.273-.801.48-.203 1.018-.582 1.54-.953.092.021.166.035.219.041l-.012 1.039-.964.223c.002 0-.361.33-.253.779m1.183 2.225l-.017 1.426c-.591.377-1.438.771-2.396.756-.164-.002-.315-.008-.459-.016.006-.219.012-.605.017-1.088.199.082.392.143.564.143.636 0 1.495-.664 2.291-1.221m-3.949-1.523c.073-.045.402-.307.766-.459-.005.309-.009.625-.014.938-.243-.136-.497-.304-.752-.479m.724 2.429c-.008.541-.014.984-.018 1.232-1.177-.109-1.632-.398-1.963-.646-.398-.299-.761-.748-.761-.748l-.024-.008c.007-.277.012-.82.016-1.457.714.094 1.802 1.098 2.75 1.627m-6.656-4.109c0 0 2.847-1.967 3.796-1.967.702 0 1.846 1.076 2.836 1.637l-.838.17c0 .061-.361.541-.253.99.079.33.218.643.301.785-.354-.248-.704-.498-1.034-.705.009-.104.023-.213.049-.32.109-.449.472-.779.472-.779s-.723.162-1.413.313c.001-.9.001-1.598.001-1.598l-.217-.029-.001.109c-.396.105-1.789.385-1.563.357.211-.025 1.236.195 1.561.221l-.007.99c-.515.111-.963.207-1.007.207 0 0-.307.092-.218.6-.953.5-2.075 1.287-2.374 1.5-.055-.328-.09-.662-.09-1.006v-1.475zm3.673 2.488l-.009 1.377-1.558-.512c.577-.418 1.187-.795 1.567-.865m12.203 8.69c-.478.143-1.714-.35-2.642-1.197-1.521.676-3.466 1.236-5.644 1.236-2.179 0-4.123-.561-5.644-1.236-.928.848-2.165 1.34-2.642 1.197-.34-.104-1.801-3.127-1.801-3.369 0-.238.039-.857.742-1.002-.012-.156.002-.301.068-.42.177-.32.405-.752.824-1.307.27-.637.758-1.719 1.065-1.777.004 0 .01 0 .014 0 .143.383.326.748.522 1.121 0 0 .506-.432 1.116-.889l.063.381.761.24c0 0 .068.563.468 1.199-.339.553-.666 1.201-.666 1.201.274.227.753.551.753.551s-.141.691-.239 1.035c1.253.494 2.789.844 4.594.844 1.804 0 3.34-.35 4.593-.842-.099-.346-.24-1.037-.24-1.037s.474-.322.75-.551c0 0-.439-.875-.828-1.457.287-.348.48-.662.579-.855l1.131.002c-.038-.09-.125-.398-.125-.398v-.215c.55.42.988.791.988.791.19-.363.394-.73.554-1.111.309.092.782 1.141 1.047 1.764.421.557.646.99.824 1.311.066.119.08.264.068.42.705.143.744.764.744 1.002.002.241-1.458 3.264-1.797 3.368"/><path d="m51.71 37.662c-.251-.037-.523.186-.744.436.003.02.144.533.377 1.135.507-.324.923-.658 1.242-.971-.203-.233-.531-.547-.875-.6"/><path d="m52.718 41.193c.161.041.331.033.502-.004.025-.068.043-.428.055-.791-.233.188-.53.4-.876.619.103.087.209.149.319.176"/><path d="m41.683 28.049c0 .217.485.393 1.084.393s1.085-.176 1.085-.393v-.592h2.168v.592c0 .217.484.393 1.084.393.599 0 1.084-.176 1.084-.393v-.592c.599 0 1.084-.439 1.084-.982v-1.967c0-.544-.485-.984-1.084-.984h-5.421c0-1.086 0-1.967-2.168-1.967-1.197 0-2.168 1.967-2.168 1.967s.971 1.967 2.168 1.967v.984c0 .543.486.982 1.084.982v.592"/></svg>