<svg xmlns="http://www.w3.org/2000/svg" viewBox="0 0 64 64" enable-background="new 0 0 64 64"><path d="m34.635 36.889c.002.505-.09.89-.427 1.215h2.151c-.349-.277-.598-.764-.602-1.215h-1.122"/><path d="m35.807 30.854l.627-.721-1.957-.028-.954-.708-3.072-.012-.89.734h-2.02l.613.721z"/><path d="m33.314 29.287c.359-.201.47-.844.469-1.203-.006-1.063-.703-1.573-1.404-1.601-.105-.005-.227-.092-.255-.194-.069-.23-.052-.378-.127-.37-.067-.001-.048.134-.107.351-.032.108-.146.214-.259.22-.873.047-1.436.725-1.414 1.594.015.574.078.917.456 1.207l2.641-.004"/><path d="m34.434 37.33l-.446-.333.015-.558-.328-.216v-.549l-.518-.236-.004-.53-.432-.136.009-.53-.604-.205-.302-.206.018-.353-1.925-.014v-.308c-.013-1.028 1.246-1.852 2.058-1.876.938-.029 2.107.895 2.107 1.883l.006.988h.139v-1.001c-.01-.904-1.033-1.975-2.096-1.977l3.582-.006-.008-.114h-7.425v.114l3.531.006c-.595-.006-2.047.721-2.02 1.97l.001 3.532h.745l.007.647-1.029.007c-.146.012-.242-.158-.244-.44h-1.016c-.003.505-.269.856-.684 1.269h2.984l-.006-.828h.834l.163.769.684.007-.288-.775h.64l.482.781h.972l-.658-.781h1.056zm-3.883-1.314h.57l.145.653h-.715v-.653m1.387 1.314l-.553-.007-.119-.653.471-.001-.201-.644h.145v-.018h.076v.02l.086.003.365.64h-.471l.201.66m.645-.007l-.383-.647h.001l.551-.007.615.654h-.784"/><path d="m34.088 34.672h.132v1.008h-.132z"/><path d="m28.33 35.713h1.066v-1.242h-1.066v.283l-2.096-3.759.07-.194c0-.162-.123-.293-.275-.293-.15 0-.273.131-.273.293 0 .161.123.292.273.292l.08-.014.066.12c-.152.033-.379.521-.893.921l-.013-.019.001.029v-.007l-.039.035c-.316.23-.539.845-.541 1.248-.004.102-.003.201 0 .302l-.026-.024.034.102c.005.15.01.298-.006.443-.02.17-.186.547-.071.643.3.237.688.777.869.963.142.133.267-.6.376-1.035l.018.016-.012-.024.028-.109c.113-.39.093-.842.344-1.22v-.003l-.007-.017.078-.102c.19-.207.604-.412.75-.55l1.266 2.271v.651z"/><path d="m28.346 27.363h.967v.236h-.967z"/><path d="m28.346 27.811h.967v1.973h-.967z"/><path d="m28.826 26.3c-.211.011-.549.423-.54.794l1.073.008c.041-.388-.322-.807-.533-.802"/><path d="m28.293 31.387h1.078v1.59h-1.078z"/><path d="m28.355 33.885h1.041v.334h-1.041z"/><path d="m28.256 35.969h1.166v.693h-1.166z"/><path d="m28.398 33.586h.941l.186-.331h-1.295z"/><path d="m29.676 31.5l-.01.868c.166-.374.402-.646.656-.868h-.646"/><path d="m39.332 33.785l.033-.102-.026.024c.003-.101.004-.2 0-.302-.002-.403-.224-1.018-.542-1.248l-.037-.035-.002-.021-.013.019c-.513-.4-.739-.888-.893-.921l.067-.12.078.014c.152 0 .275-.131.275-.292 0-.162-.123-.293-.275-.293-.151 0-.275.131-.275.293l.072.194-2.097 3.759v-.283h-1.065v1.242h1.065v-.65l1.267-2.271c.146.138.559.343.75.55l.078.102-.008.017v.001c.25.378.23.83.344 1.22l.028.109-.011.024.016-.016c.109.435.234 1.168.377 1.035.181-.186.569-.726.87-.963.113-.096-.053-.473-.071-.643-.015-.145-.011-.292-.005-.443"/><path d="m34.717 27.363h.967v.236h-.967z"/><path d="m34.717 27.811h.967v1.973h-.967z"/><path d="m35.203 26.3c-.212-.004-.574.414-.533.802l1.072-.008c.009-.371-.33-.783-.539-.794"/><path d="m34.657 31.387h1.079v1.59h-1.079z"/><path d="m34.632 33.885h1.041v.334h-1.041z"/><path d="m34.607 35.969h1.166v.693h-1.166z"/><path d="m34.504 33.255l.185.331h.94l.17-.331z"/><path d="m34.362 32.368l-.008-.868h-.648c.254.223.491.494.656.868"/><path d="m42.393 33.221c.388-.177.898-.451 1.139-.756.41-.524.23-1.412.23-1.412s-.725.261-1.245.619c-.024-.417-.184-.902-.352-1.313.329-.271.751-.667.903-1.022.259-.612-.145-1.423-.145-1.423s-.633.438-1.043.918c-.133-.396-.412-.825-.682-1.18.246-.344.551-.835.605-1.218.092-.658-.512-1.336-.512-1.336s-.495.584-.766 1.153c-.285-.429-.796-.847-1.201-1.138.152-.311.234-.636.234-.972 0-2.177-3.385-3.941-7.561-3.941s-7.561 1.764-7.561 3.941c0 .335.083.661.234.972-.404.292-.915.709-1.2 1.138-.271-.569-.767-1.153-.767-1.153s-.603.678-.511 1.336c.054.383.358.874.604 1.218-.27.354-.549.783-.682 1.18-.41-.48-1.041-.918-1.041-.918s-.404.811-.146 1.423c.151.355.574.751.902 1.022-.168.41-.326.896-.351 1.313-.521-.358-1.245-.619-1.245-.619s-.181.888.23 1.412c.239.305.751.579 1.138.756-.056.439-.082.949.003 1.358-.596-.212-1.364-.277-1.364-.277s.059.902.592 1.304c.311.232.876.365 1.295.438.062.438.17.938.357 1.313-.631-.053-1.391.08-1.391.08s.292.857.912 1.108c.361.146.941.129 1.365.09.174.408.408.862.688 1.175-.622.113-1.321.438-1.321.438s.505.752 1.169.836c.387.047.943-.117 1.342-.266.275.351.619.729.971.959-.572.269-1.162.76-1.162.76s.684.599 1.348.508c.149-.021.316-.08.484-.158l-.789.913h11.8l-.794-.915c.168.078.335.138.484.158.663.091 1.347-.508 1.347-.508s-.589-.491-1.162-.76c.352-.229.695-.608.971-.959.398.148.955.313 1.342.266.664-.084 1.17-.836 1.17-.836s-.699-.324-1.322-.438c.279-.313.514-.767.688-1.175.424.039 1.004.056 1.365-.09.621-.251.912-1.108.912-1.108s-.76-.133-1.391-.08c.188-.375.296-.874.357-1.313.419-.072.984-.205 1.295-.438.533-.401.592-1.304.592-1.304s-.768.065-1.364.277c.085-.407.058-.917.003-1.356m-15.395 7.476l-.034-.025c-.282-.182-.653-.32-1.013-.423.131-.253.291-.601.383-.93h.865c-.058.226-.209.855-.201 1.378m8.764-.449c-.086.297-.054.723.006 1.094l-.556-.641h-6.424l-.556.641c.061-.371.092-.797.006-1.094-.135-.461-.604-.784-.855-.929h9.234c-.252.145-.721.468-.855.929m1.274.424l-.034.025c.009-.523-.142-1.152-.201-1.378h.865c.092.329.252.677.383.93-.36.103-.731.241-1.013.423m4.046-6.354l-.008.041c-.453-.466-1.199-.878-1.199-.878s-.32.849.004 1.431c.205.369.738.754 1.1.984-.26.268-.512.572-.664.871l-.019.037c-.316-.568-.931-1.157-.931-1.157s-.528.737-.367 1.384c.102.409.515.917.805 1.234-.321.191-.643.42-.868.668l-.026.031c-.16-.629-.598-1.355-.598-1.355s-.703.576-.717 1.242c-.004.138.025.295.069.457l-1.003-.871h-9.32l-1.002.871c.043-.162.072-.319.068-.457-.013-.666-.716-1.242-.716-1.242s-.438.727-.598 1.355l-.026-.031c-.227-.248-.548-.477-.868-.668.289-.317.703-.825.805-1.234.161-.646-.368-1.384-.368-1.384s-.613.589-.93 1.157l-.019-.037c-.153-.299-.404-.604-.664-.871.361-.23.894-.615 1.099-.984.324-.582.004-1.431.004-1.431s-.746.412-1.199.878l-.008-.041c-.069-.328-.232-.686-.414-1.011.41-.13 1.023-.364 1.318-.669.465-.479.377-1.38.377-1.38s-.828.204-1.388.538l.003-.041c.018-.334-.047-.721-.137-1.082.43-.021 1.084-.09 1.447-.307.574-.344.726-1.236.726-1.236s-.854-.016-1.481.164l.014-.041c.104-.317.143-.708.15-1.079.42.091 1.07.192 1.479.075.644-.186 1.022-1.009 1.022-1.009s-.819-.233-1.476-.222l.025-.035c.517-.79.688-2.267.688-2.267s-.066.039-.172.106c1.18-1.374 3.825-2.332 6.9-2.332 3.076 0 5.721.958 6.9 2.332-.104-.067-.172-.106-.172-.106s.172 1.478.688 2.267l.024.035c-.655-.012-1.476.222-1.476.222s.38.823 1.022 1.009c.408.117 1.059.016 1.479-.075.008.371.046.762.15 1.079l.014.041c-.627-.18-1.48-.164-1.48-.164s.15.893.725 1.236c.363.217 1.018.285 1.447.307-.09.361-.154.748-.137 1.082l.003.041c-.56-.334-1.388-.538-1.388-.538s-.088.901.377 1.38c.295.305.908.539 1.318.669-.178.326-.341.683-.411 1.011"/><path d="M32,2C15.432,2,2,15.432,2,32s13.432,30,30,30s30-13.432,30-30S48.568,2,32,2z M18.233,56.367V7.633
		C22.302,5.325,26.998,4,32,4s9.698,1.325,13.767,3.633v48.734C41.698,58.675,37.002,60,32,60S22.302,58.675,18.233,56.367z"/></svg>