<svg xmlns="http://www.w3.org/2000/svg" viewBox="0 0 64 64" enable-background="new 0 0 64 64"><path d="m32 2c-16.568 0-30 13.432-30 30s13.432 30 30 30 30-13.432 30-30-13.432-30-30-30m3.13 21.586l-2.366-1.794-2.364 1.794.896-2.917-2.355-1.81 2.916-.01.908-2.911.908 2.911 2.918.01-2.356 1.81.895 2.917m-4.731 16.826l2.364 1.796 2.366-1.796-.896 2.919 2.356 1.808-2.918.01-.908 2.911-.908-2.911-2.916-.01 2.355-1.808-.895-2.919m12.452-7.5l-.908 2.912-.908-2.912-2.915-.01 2.354-1.809-.895-2.918 2.364 1.794 2.364-1.794-.895 2.918 2.354 1.809-2.915.01m-23.159-4.736l2.364 1.794 2.364-1.794-.895 2.918 2.355 1.809-2.916.01-.909 2.912-.908-2.912-2.916-.01 2.354-1.809-.893-2.918"/></svg>