<svg xmlns="http://www.w3.org/2000/svg" viewBox="0 0 64 64" enable-background="new 0 0 64 64"><path d="m32 2c-16.568 0-30 13.432-30 30s13.432 30 30 30 30-13.432 30-30-13.432-30-30-30m3.179 7.383l1.425 1.734 2.17-.829-1.301 1.887 1.41 1.72-2.27-.513-1.342 1.9-.054-2.239-2.234-.551 2.204-.846-.008-2.263m-5.113 24.584l-7.9-5.535-7.901 5.535 2.983-9.004-7.866-5.746h9.833l2.95-8.85 3.039 8.85h9.745l-7.866 5.746 2.983 9.004m8.707 4.011l-2.182-.813-1.412 1.719.008-2.264-2.204-.848 2.234-.549.056-2.239 1.34 1.899 2.27-.512-1.423 1.734 1.313 1.873m1.829-8.225l-.481 2.247-.955-2.144-2.25.175 1.682-1.505-.903-2.142 1.955 1.203 1.729-1.487-.483 2.268 1.922 1.187-2.216.198m-.049-8.796l-.72 2.193-.676-2.233-2.241-.077 1.821-1.319-.642-2.27 1.814 1.435 1.795-1.294-.688 2.17 1.799 1.425-2.262-.03"/></svg>