<svg xmlns="http://www.w3.org/2000/svg" viewBox="0 0 64 64" enable-background="new 0 0 64 64"><path d="m38.807 24.301c-.171.074-.361.111-.561.115-.402.008-1.6-.183-1.931-.855l-.024.016.015-.104c0-.455-.324-.837-.753-.922l-.01-.002c-1.148-.209-2.331-.32-3.541-.32h-.05c-1.208 0-2.392.111-3.54.32l-.01.002c-.43.085-.754.467-.754.922l.015.102-.022-.014c-.33.673-1.529.863-1.933.855-.197-.004-.388-.041-.559-.115l.067.18c.169.377.497.665.895.78-.129.407-.422.549-.737.676.346.109 2.593.292 4.058-1.198l.041-.01-.01-.016.004-.002-.01-.005-.221-.381-.029-.065c.897-.136 1.81-.223 2.745-.223h.05c.939 0 1.855.087 2.754.225l-.036.063h-.002l-.221.381-.008.005.004.002-.01.016.04.01c1.466 1.49 3.711 1.308 4.059 1.198-.315-.127-.609-.269-.738-.676.398-.115.725-.403.894-.78l.069-.18"/><path d="m43.838 35.9c-.014-.015-.011-.011-.002 0-.114-.1-.23-.1-.346 0-.197.212.055.399.137.574.225.48-.086 1.128-.654 1.128-.391 0-.437-.39-.536-.667-.161-.443-.444-.741-.79-1.045-1.496-1.083-1.67-2.719-1.66-4.413.003-.628.08-1.287-.275-1.846-.217-.344-.555-.606-.948-.714-.171-.047-.352-.112-.53-.112-.207 0-.346.224-.526.152-.192-.079-.782-.403-.888-.085-.104.31-.03.832.107 1.122.194.401.649.624.969.914 0 .306-.018.612-.029.918-.286-.441-.57-.884-.854-1.323-.081-.123-.157-.302-.263-.403-.332-.503-1.055-.196-1.055.357.033 0 .056.009.087.01h-3.042c.652-.045 1.23-.149 1.676-.296l.231-.948c.407-.12.759-.413 1.05-1.036l.014.025c0 0 .549-.801-.17-1.486-.201-.192-.612-.321-1.027-.321-.163 0-.32.02-.467.056.021.027-.291-.482-1.037-.482-.263 0-.503.071-.689.188l-.004-.034c-.023-.117-.125-.199-.244-.215.125-.013.23-.091.278-.205l.001-.001v-.001c.008-.02.008-.042.013-.063l.015-.071v-.001-.001c0-.158-.104-.286-.242-.33v-.007-.265h.186v-.193h-.186v-.188h-.188v.188h-.185v.192h.185v.263.008c-.143.04-.25.169-.25.331v.001.001l.012.057c.004.026.005.055.016.079.048.114.153.193.278.206-.119.016-.225.098-.25.215l-.004.034c-.186-.119-.426-.188-.688-.188-.729 0-1.058.508-1.037.482-.146-.036-.303-.056-.469-.056-2.266 0-1.362 1.545-1.215 1.776.306.655.677.948 1.109 1.059l.225.932c.445.146 1.024.251 1.676.296h-3.133c.031-.001.053-.01.086-.01 0-.924-.916-.572-1.23-.085-.313.484-.627.968-.939 1.454-.014-.306-.029-.612-.029-.918.385-.352.943-.61 1.049-1.17.041-.232.183-.793-.038-.974-.137-.111-.499.071-.626.117-.369.133-.35-.077-.723-.077-2.039 0-1.757 2.348-1.748 3.709.006 1.131-.439 2.249-1.258 3.034-.322.312-.703.528-.956.909-.21.313-.28 1.145-.78 1.145-.568 0-.879-.647-.654-1.128.336-.712-.219-.825-.479-.142-.434 1.145.906 2.393 1.921 1.49-.056.515.159 1.049-.321 1.438-.408.334-.236.872.065 1.313.165.342.302 1.194.786 1.194.249.081.648 0 .914 0 0-.432-.336-.835-.784-.835-.326-.271-.346-.837-.171-1.194.063-.129 1.621-1.547 1.26-1.617.24.046.644.072.748.346.1.267-.045.284-.083.511.198.098.352.3.475.477.203.29.349.918.787.918.217.067.552 0 .782 0 0-.89-1.483-.805-1.105-1.784.129-.336.45-.519.22-.934-.151-.413-.673-.772-1.063-.922.778-.862 2.126-1.308 2.456-2.493.969-.749.951-1.146.951-2.271-.28 0-.407.25-.42.484-.021.367-.158.6-.48.799-.018-.123-.029-.246-.033-.37.336-.373.352-1.051.459-1.52.096-.419.249-.65.486-.778v7.339c0 2.462 4.252 2.462 4.252 2.462s4.252 0 4.252-2.462v-7.344c.244.126.398.357.496.783.125.542.509 1.365.426 1.89-.324-.199-.461-.43-.479-.799-.014-.234-.141-.484-.421-.484-.002 1.124-.018 1.521.949 2.271.33 1.186 1.678 1.631 2.456 2.493-.444.173-.816.503-1.057.912-.181.471.067.563.216.943.376.979-1.106.895-1.106 1.784.812 0 .998.017 1.431-.705.125-.208.269-.417.453-.578.28-.246.042-.094.042-.39 0-.465.415-.508.782-.578.061-.012.178.57.255.691.225.354.628.418.88.728.324.399.311 1.013-.039 1.393-.342.292-.789.173-.789.835.266 0 .663.081.912 0 .484 0 .623-.853.79-1.194.298-.441.472-.979.063-1.313-.484-.394-.26-.922-.321-1.438 1.202 1.073 2.671-.822 1.655-1.918.065.073.391.419-.005-.005m-9.326-9.354c1.116.017 1.314.804 1.102 1.18-.364-.271-.888-.467-1.454-.602.046-.161.055-.345-.031-.54.12-.025.249-.04.383-.038m-1.504-.429c.809 0 1.036.552.903.95-.54-.111-1.085-.173-1.53-.194-.024-.252-.041-.515-.045-.55.169-.129.407-.206.672-.206m-1.944 0c.264 0 .502.077.671.204-.003.036-.021.299-.046.551-.428.019-.955.076-1.485.181-.102-.396.086-.936.86-.936m-2.591 1.573c-.391-.715.092-1.145 1.086-1.145.135 0 .266.013.385.038-.121.197-.121.381-.076.543-.536.131-1.036.314-1.395.564m3.571 2.128c.844.002 1.609.102 2.189.267-.58.163-1.346.271-2.189.271-.843 0-1.605-.108-2.186-.271.58-.165 1.343-.265 2.186-.267m-2.251 1.85c.173-.194.453-.194.629 0l.994 1.103v.002h-2.617l.994-1.105m0 2.203c.173-.196.453-.196.629 0l.994 1.102h-2.617l.994-1.102m0 2.233c.173-.194.453-.194.629 0l.994 1.103h-2.617l.994-1.103m.89 3.319l.995-1.103c.173-.195.453-.195.63.002l.993 1.101h-2.618m1.893-2.216l.995-1.103c.175-.194.453-.194.63 0l.992 1.103h-2.617m0-2.234l.995-1.102c.175-.196.453-.196.63 0l.992 1.102h-2.617m2.617-2.201h-2.617l.995-1.104c.175-.194.453-.194.63 0l.992 1.103v.001"/><path d="m32 2c-16.568 0-30 13.432-30 30s13.432 30 30 30 30-13.432 30-30-13.432-30-30-30m12.076 35.967c-.399.425-1.018.58-1.572.395-.02.499.238.505.495.837.242.312.004 1.007-.134 1.295-.333.689-.484 1.6-1.391 1.6-.236 0-.767.102-.963-.095-.39-.39.217-1.105.559-1.266 1.205-.561-.684-1.53-.851-2.228-.411.095-.109.26-.109.519 0 .213-.632.729-.753.955-.284.527-.964 1-1.63.718-.688 0-.139-1.041.102-1.238.245-.202 1.079-.365.626-.876-.655-.695.145-1.567.739-1.933-.561-.566-1.363-.809-1.848-1.446-.153-.199-.451-1.139-.773-1.139 0 .834 0 1.667 0 2.501 0 .72.118 1.596-.188 2.27-.689 1.514-2.902 1.877-4.389 1.877s-3.699-.363-4.389-1.877c-.328-.718-.189-1.686-.189-2.452 0-.771 0-1.538 0-2.309-.407.407-.548.932-.949 1.349-.482.501-1.166.726-1.661 1.229.415.256.799.594.924 1.074.128.499-.288.695-.288 1.133 0 .439.837.572 1.039 1.003.144.303.223.837-.268.837-.966 0-1.175-.127-1.707-.95-.127-.198-.658-.556-.605-.788.113.039.127-.962-.213-.185-.238.548-.926.659-1.119 1.166-.27.705.428.703.754 1.101.8.968-.239 1.053-.929 1.053-.767 0-1.188-1.281-1.376-1.897-.078-.258-.243-.957.127-1.103.312-.123.371-.438.35-.729-1.352.443-2.42-1.064-1.855-2.267.329-.701 1.581-.711 1.228.203-.105.273-.509.974.159.974.16 0 .459-.938.58-1.102.393-.53.993-.836 1.379-1.379.346-.486.572-1.055.663-1.643.225-1.448-.497-3.43 1.041-4.347.263-.157.755-.344 1.079-.322.352.021.367.188.715.062.811-.294 1.125.196 1.014 1.027.389-.102.753.01.979.365.177.278.242.205.582.205-.102-.197-.409-1.065-.661-1.083-.255-.016-.595-.09-.481-.431-.229-.184-.534-.964-.433-1.244.081-.207.008-.359.089-.584.092-.247.3-.311.411-.541.157-.323.938-.663 1.266-.544.138-.163.361-.109.564-.127.434.152.271-.054.68-.24.152-.068.67-.107.842-.092-.148-1.057 1.496-1.059 1.348.002.246-.016.818.02 1.011.209.294.29.221.101.587.127.565.038 1.668.152 1.815.845.392.164.479.814.479 1.17 0 .39-.454.755-.454 1.112 0 .242-.374.445-.593.336-.227.332-.39.728-.57 1.085.686.202.735-.797 1.546-.57-.087-.682.113-1.354.885-1.073.51.09.928-.048 1.458.104 1.771.484 1.468 2.508 1.458 3.91-.008 1.108.459 2.207 1.302 2.933.423.365.814.657 1.055 1.182.105.232.196.95.594.524.397-.427-.304-.809-.121-1.281.067-.175.403-.427.595-.344.933.41 1.022 1.712.343 2.438m-5.48-11.697c-.419.094-.874.08-1.299.038-.656-.063-3.48-.755-3.069-1.786-1.503-.194-2.996-.194-4.501-.002.662.828-2.601 1.744-3.067 1.788-.425.042-.88.056-1.299-.038-.823-.187.141-.721.3-.892-.311-.181-.588-.429-.737-.759-.499-.785.584-.507.936-.534.626-.046 1.352-.235 1.503-.895.224-.97 1.251-1.023 2.065-1.128 1.093-.136 2.2-.186 3.302-.146.962.034 2.226.01 3.124.386.765.321.55 1.184 1.229 1.518.311.153.668.24 1.016.265.262.02.521-.144.767-.111.829.107-.369 1.287-.568 1.404.157.171 1.121.705.298.892m-34.596 5.73c0-10.437 5.744-19.553 14.233-24.367v48.734c-8.489-4.814-14.233-13.929-14.233-24.367m41.767 24.367v-48.734c8.489 4.814 14.233 13.93 14.233 24.367s-5.744 19.553-14.233 24.367"/></svg>