<svg xmlns="http://www.w3.org/2000/svg" viewBox="0 0 64 64" enable-background="new 0 0 64 64"><path d="m48.635 41.722c-.889-1.579-3.363-.4-4.641-.356.641-.541 2.494-1.854 3.437-1.889-.653-.545-1.991-.115-2.477.463-1.763 2.105-2.899.965-5.45.223 2.071-2.144-5.906-3.693-3.369-5.462.531-.37 1.412 3.024 2.794 2.476.593-.236-2.288-2.42-.77-2.954.531-.187 2.501 5.615 3.869 3.256.513-.883-3.038-1.656-2.038-3.433-.726 1.29 8.665 6.082 7.456 2.969-.565-1.457-6.253-.4-5.76-4.248-.133 1.029 6.63 4.144 5.871 1.23-.167-.641-6.772-.188-5.616-3.313.178-.482 5.796 3.802 5.594.644-.074-1.154-5.978-.259-5.393-2.872.012-.05 6.109 2.536 5.387-.179-.099-.375-6.756.373-5.537-1.929-.564 1.065 7.979.544 5.435-1.546-.884-.726-4.649 2.659-5.368-.314.098.398 7.373-.583 5.324-2.679-.535-.547-5.082 3.036-5.252.689-.033-.457 6.098-3.299 5.168-4.796-1.121-1.806-7.065 3.126-7.77 3.453-4.588 2.133.047.888-2.289 3.628-1.361 1.599-2.42-.908-2.035-1.963.83-2.269 5.487-2.014 5.705-3.456-.703.444-1.354.429-1.952-.047.097-.007 4.971-.732 3.358-1.391-.187-.077-.738.25-1.359.559.099-2.394-6.324-.575-6.965-.529 2.675 2.246-2.137.951.601 2.116-.71.13-1.326.438-1.852.923 1.271.231-.741 1.629-.741 1.629s-2.012-1.398-.741-1.629c-.524-.485-1.142-.793-1.851-.923 2.736-1.165-2.074.13.6-2.116-.639-.045-7.063-1.865-6.963.529-.623-.308-1.174-.635-1.36-.559-1.612.659 3.261 1.383 3.358 1.391-.599.476-1.25.491-1.953.047.218 1.441 4.876 1.187 5.705 3.456.386 1.055-.674 3.563-2.035 1.963-2.334-2.741 2.3-1.495-2.289-3.628-.703-.327-6.647-5.259-7.77-3.453-.93 1.497 5.203 4.339 5.169 4.796-.17 2.347-4.717-1.236-5.252-.689-2.049 2.096 5.227 3.077 5.323 2.679-.718 2.973-4.485-.411-5.368.314-2.544 2.09 5.999 2.612 5.434 1.546 1.219 2.302-5.438 1.554-5.538 1.929-.722 2.715 5.376.129 5.387.179.586 2.613-5.319 1.718-5.392 2.872-.202 3.158 5.416-1.126 5.593-.644 1.158 3.126-5.449 2.673-5.616 3.313-.758 2.913 6.004-.201 5.871-1.23.493 3.848-5.193 2.791-5.759 4.248-1.209 3.113 8.181-1.679 7.455-2.969 1 1.777-2.55 2.55-2.038 3.433 1.368 2.359 3.339-3.442 3.87-3.256 1.518.534-1.363 2.718-.77 2.954 1.381.549 2.263-2.846 2.793-2.476 2.539 1.769-5.439 3.318-3.368 5.462-2.55.742-3.688 1.883-5.45-.223-.485-.578-1.825-1.008-2.478-.463.943.035 2.798 1.348 3.437 1.889-1.277-.044-3.75-1.223-4.641.356 1.111-.456 3.541.023 4.627.095-1.186 1.007-3.331.287-2.932 2.713.589-1.961 6.485-3.471 7.182-.641.709-1.256-2.087-1.971-2.689-2.141.408-.132 5-.124 5-.124s2.552-5.052 3.699-3.801c2.744 2.993-4.57 4.577-4.817 5.184-.766 1.889 3.693.181 3.563.061 1.227 1.128-2.978 2.026-2.969 2.394.051 2.043 3.433-.799 3.592-.763 1.605.368-2.256 2.796-2.213 2.502-.322 2.2 3.34-.675 3.281-1.165.382.545.363 1.125-.055 1.74-1.32 2.289-.102 2.532 1.365 4.875 1.467-2.343 2.686-2.586 1.365-4.875-.418-.615-.436-1.195-.055-1.74-.059.49 3.605 3.365 3.281 1.165.043.294-3.818-2.134-2.213-2.503.159-.035 3.542 2.807 3.592.764.009-.367-4.194-1.266-2.968-2.394-.131.119 4.329 1.828 3.563-.061-.245-.606-7.56-2.19-4.815-5.184 1.146-1.251 3.697 3.801 3.697 3.801s4.592-.008 5.002.124c-.604.17-3.4.884-2.691 2.141.698-2.83 6.593-1.32 7.182.641.4-2.426-1.745-1.706-2.93-2.713 1.089-.072 3.516-.551 4.628-.095m-7.789-23.183c-.568.276-1.179.517-1.615.413.378-.476 1.125-.968 1.615-.413m-3.121-.438c.998.216.998.45 0 .702-.995-.237-.995-.47 0-.702m-14.571.438c.49-.554 1.236-.063 1.617.413-.437.104-1.048-.137-1.617-.413m3.123.263c-1-.251-1-.485 0-.702.994.233.994.466 0 .702"/><path d="M32,2C15.432,2,2,15.432,2,32s13.432,30,30,30s30-13.432,30-30S48.568,2,32,2z M32,60C16.561,60,4,47.439,4,32
		S16.561,4,32,4s28,12.561,28,28S47.439,60,32,60z"/></svg>