<svg xmlns="http://www.w3.org/2000/svg" viewBox="0 0 64 64" enable-background="new 0 0 64 64"><path d="m32 2c-16.568 0-30 13.432-30 30s13.432 30 30 30 30-13.432 30-30-13.432-30-30-30m-20.65 11.113c.562-.614 1.15-1.202 1.764-1.764h18.886v.983 1.968h-8.259l8.259 10.325v2.516l-10.325-12.841h-5.97l14.328 17.7h-3.933l-11.8-14.75v14.75h-1.967-.983v-18.887m42.644 30.614l-1.467-1.065-1.466 1.065.56-1.725-1.468-1.067h1.815l.559-1.723.561 1.723h1.812l-1.467 1.067.561 1.725m-12.392 0l-1.468-1.065-1.468 1.065.561-1.725-1.467-1.067 1.813.002.562-1.725.561 1.723h1.813l-1.468 1.067.561 1.725m-6.256-6.949l1.655.737 1.214-1.348-.189 1.805 1.657.738-1.774.376-.188 1.804-.907-1.571-1.774.376 1.214-1.346-.908-1.571m2.424-4.84l-1.466-1.065-1.467 1.065.561-1.725-1.468-1.067h1.813l.561-1.724.56 1.725 1.814-.001-1.467 1.067.559 1.725m-1.129-7.486l1.657.737 1.214-1.346-.19 1.803 1.657.735-1.774.379-.19 1.804-.906-1.571-1.774.376 1.214-1.346-.908-1.571m4.385-3.186l1.214 1.347 1.658-.737-.907 1.57 1.214 1.349-1.774-.376-.908 1.568-.188-1.803-1.774-.377 1.657-.737-.192-1.804m2.287 21.749l-.188-1.806 1.214 1.349 1.655-.737-.906 1.57 1.214 1.347-1.774-.377-.907 1.571-.189-1.803-1.773-.377 1.654-.737m1.549-18.362l.561-1.725-1.466-1.067h1.813l.561-1.723.562 1.723h1.813l-1.467 1.067.561 1.725-1.468-1.065-1.47 1.065m3.901-2.778l1.657.737 1.214-1.347-.19 1.804 1.658.737-1.775.377-.188 1.803-.908-1.568-1.773.376 1.214-1.349-.909-1.57m4.388 1.969l1.212 1.346 1.657-.737-.906 1.571 1.214 1.346-1.775-.376-.906 1.571-.189-1.804-1.775-.379 1.658-.735-.19-1.803m4.675 8.094l-1.47-1.065-1.465 1.065.559-1.725-1.466-1.066h1.812l.561-1.725.562 1.724 1.814.001-1.467 1.066.56 1.725m-11.158 9.882l1.657.737 1.214-1.349-.19 1.806 1.657.737-1.774.377-.19 1.803-.906-1.571-1.774.379 1.214-1.349-.908-1.57m8.085-2.733l-1.774-.376 1.657-.74-.19-1.803 1.215 1.348 1.655-.737-.906 1.571 1.212 1.348-1.772-.378-.906 1.571-.191-1.804m2.771-4.17l-.19 1.804-.906-1.571-1.772.379 1.212-1.349-.906-1.571 1.657.74 1.213-1.349-.19 1.802 1.657.739-1.775.376m-22.504-1.115l-.19-1.804 1.214 1.351 1.657-.74-.906 1.571 1.212 1.349-1.773-.379-.906 1.571-.189-1.804-1.775-.376 1.656-.739m-3.02-28.352h-8.875c2.791-.935 5.773-1.45 8.875-1.45v1.45m-26.55 17.675v8.875h-1.45c0-3.102.515-6.084 1.45-8.875"/></svg>