<svg xmlns="http://www.w3.org/2000/svg" viewBox="0 0 64 64" enable-background="new 0 0 64 64"><path d="m40.475 30.914c.316-.144.732-.365.929-.615.335-.429.188-1.15.188-1.15s-.59.211-1.016.503c-.02-.341-.15-.735-.287-1.07.268-.22.612-.542.736-.833.212-.5-.117-1.162-.117-1.162s-.516.357-.851.751c-.108-.325-.337-.672-.557-.961.201-.282.45-.682.494-.996.054-.388-.185-.777-.323-.968l.191-.208-.205.188c-.047-.063-.08-.102-.08-.102s-.199.239-.395.539l-.315.292c-.462-.598-1.381-1.143-1.381-1.143s.14 1.206.562 1.85c.006.01.013.018.02.029-.534-.01-1.203.181-1.203.181s.146.312.405.558l-1.001.924c-.031-.065-.053-.137-.087-.201-.132-.296-.313-.564-.491-.829-.348-.536-.779-.983-1.264-1.428-.242-.229-.434-.346-.658-.505-.212-.146-.42-.29-.621-.43-.398-.248-.718-.517-1.013-.784-.167-.123-.268-.269-.383-.403-.105-.136-.257-.257-.315-.397-.077-.135-.146-.267-.225-.39-.047-.133-.089-.254-.127-.365-.054-.225-.096-.428-.085-.557-.003-.137.016-.211.016-.211s-.05.052-.116.179c-.076.126-.16.328-.204.603-.013.137-.03.294-.037.467.016.167.048.348.081.547.02.21.124.383.193.598.078.209.174.431.313.618.133.202.271.411.414.628.119.167.268.308.415.456h-2.841c0 0 .983.976.983 3.933 0 .269-.017.504-.03.74l-3.458-3.191c.258-.246.405-.558.405-.558s-.669-.19-1.203-.181c.006-.012.013-.02.02-.029.421-.644.561-1.85.561-1.85s-.918.545-1.381 1.143l-.316-.292c-.195-.301-.394-.539-.394-.539s-.033.038-.08.102l-.204-.188.191.208c-.138.19-.377.58-.323.968.043.314.293.714.494.996-.22.289-.448.636-.557.961-.335-.394-.851-.751-.851-.751s-.329.662-.118 1.162c.125.291.469.613.737.833-.137.335-.267.729-.287 1.07-.425-.292-1.015-.503-1.015-.503s-.147.722.188 1.15c.196.25.613.472.929.615-.045.359-.068.773.001 1.109-.485-.173-1.112-.227-1.112-.227s.047.735.482 1.063c.254.19.715.298 1.058.355.05.358.136.765.29 1.071-.515-.042-1.134.065-1.134.065s.237.699.744.905c.295.119.769.104 1.115.071.142.334.331.704.559.96-.508.092-1.078.354-1.078.354s.412.615.953.683c.077.01.163.007.252-.002l-1.291 1.292c-.318.319-.318.834 0 1.152.319.317.834.317 1.153 0l1.079-1.079c.213.131.524.28.844.236.316-.044.718-.291 1.002-.49.291.219.641.445.968.554-.395.332-.755.841-.755.841s.667.328 1.169.119c.504-.211 1.105-1.073 1.105-1.073s.023-1.049-.26-1.512c-.282-.465-1.016-.588-1.016-.588s-.012.691.135 1.2c-.011-.004-.02-.01-.031-.012-.262-.084-.582-.115-.888-.121.074-.341.158-.867.062-1.198-.035-.12-.1-.228-.176-.323l3.062-3.341h.365l1.422 1.551c-.095.103-.188.205-.286.289-.242.238-.459.453-.666.596-.396.313-.628.517-.628.517s.288-.046.806-.167c.264-.052.568-.156.905-.319.153-.07.326-.142.496-.23l1.013 1.104c-.076.097-.142.204-.177.324-.096.331-.012.857.063 1.198-.306.006-.626.037-.888.121-.012.002-.021.008-.031.012.146-.509.135-1.2.135-1.2s-.733.123-1.016.588c-.283.463-.26 1.512-.26 1.512s.602.862 1.105 1.073c.502.209 1.169-.119 1.169-.119s-.36-.509-.755-.841c.327-.108.677-.335.968-.554.284.199.687.446 1.002.49.319.044.631-.105.844-.236l1.079 1.079c.318.317.834.317 1.152 0 .318-.318.318-.833 0-1.152l-1.291-1.292c.09.009.176.012.252.002.541-.067.953-.683.953-.683s-.569-.263-1.078-.354c.229-.256.418-.626.56-.96.347.032.82.048 1.115-.071.507-.206.744-.905.744-.905s-.62-.107-1.134-.065c.154-.307.239-.713.289-1.071.343-.058.804-.165 1.059-.355.435-.328.482-1.063.482-1.063s-.627.054-1.112.227c.07-.338.047-.753.002-1.112m-1.47-5.774c-.017.031-.036.062-.052.093-.004-.007-.01-.013-.015-.02l.067-.073m-1.5 1.636c.062.035.126.064.194.084.334.096.863.013 1.207-.061.006.303.036.622.121.881.003.012.008.021.012.032-.512-.146-1.208-.134-1.208-.134s.122.728.591 1.008c.297.179.831.233 1.182.251-.073.295-.127.61-.112.883-.001.011.002.022.003.034-.457-.272-1.133-.439-1.133-.439s-.071.735.308 1.125c.241.249.741.439 1.076.546-.147.266-.282.557-.339.823-.003.012-.004.021-.006.035-.37-.381-.979-.717-.979-.717s-.261.691.004 1.168c.168.301.602.613.896.802-.211.219-.416.466-.541.71-.008.009-.01.019-.016.03-.258-.463-.759-.943-.759-.943s-.432.602-.3 1.128c.082.335.42.749.656 1.007-.262.156-.523.342-.708.545-.009.01-.015.018-.021.027-.13-.516-.488-1.106-.488-1.106s-.573.471-.584 1.012c-.001.057.007.118.017.181l-1.318-1.217c.053-.05.105-.098.157-.15.185-.19.389-.379.535-.624.341-.459.627-1.013.798-1.623.16-.613.266-1.271.215-1.929-.033-.656-.169-1.313-.395-1.928-.033-.1-.085-.189-.123-.286l1.058-1.155m-3.46 3.776l.89-.971c.056.24.097.481.128.72.055.474.065.94-.002 1.386-.082.44-.187.868-.367 1.255-.063.209-.201.368-.3.551-.021.04-.052.071-.073.111l-.961-.887c.207-.328.522-1.009.685-2.165m.389-2.372c.116.223.213.455.285.695.008.02.011.041.018.061l-.604.558c.005-.149.018-.283.018-.445 0-.634-.051-1.16-.121-1.622.018.031.039.059.057.09.128.212.248.43.347.663m-9.372-2.967c-.005.006-.011.013-.016.02-.015-.031-.036-.063-.052-.094l.068.074m2.36 10.475c.01-.063.018-.124.017-.181-.011-.541-.584-1.012-.584-1.012s-.358.591-.488 1.106c-.007-.01-.013-.018-.022-.027-.184-.203-.446-.389-.708-.545.236-.258.574-.672.657-1.007.131-.526-.3-1.128-.3-1.128s-.5.48-.758.943c-.006-.012-.009-.021-.016-.03-.125-.244-.33-.491-.542-.71.295-.188.729-.501.897-.802.265-.477.004-1.168.004-1.168s-.608.336-.979.717c-.002-.014-.002-.023-.006-.035-.057-.267-.191-.558-.338-.823.334-.106.835-.297 1.076-.546.379-.39.307-1.125.307-1.125s-.676.167-1.132.439c0-.012.003-.023.002-.034.015-.272-.039-.588-.112-.883.351-.018.884-.072 1.182-.251.468-.28.591-1.008.591-1.008s-.696-.012-1.208.134c.003-.011.009-.021.012-.032.085-.259.116-.578.122-.881.343.073.873.156 1.206.061.069-.02.134-.049.195-.084l3.597 3.924c-.264 1.667-.857 2.281-.857 2.281h1.119l-2.934 2.707"/><path d="M32,2C15.432,2,2,15.432,2,32s13.432,30,30,30s30-13.432,30-30S48.568,2,32,2z M22.167,58.213V5.787
		C25.228,4.635,28.541,4,32,4s6.771,0.635,9.834,1.787v52.426C38.771,59.365,35.459,60,32,60S25.228,59.365,22.167,58.213z"/></svg>