<svg xmlns="http://www.w3.org/2000/svg" viewBox="0 0 64 64" enable-background="new 0 0 64 64"><path d="m47.925 23.402c.104-.158.368-.4.413-.435-.613-.212-1.238-.381-1.866-.544.317.35 1.023.79 1.453.979"/><path d="m49.128 22.531c.302-.19.302-.558.536-.8-.068-.019-.137-.027-.203-.027-.318 0-.623.179-.941.179.43-.242.27-.649-.115-.804-.031-.013-.063-.019-.093-.019-.292 0-.546.519-.74.636.208-.485.086-.666-.158-.666-.374 0-1.036.427-1.23.839.758.096 1.914.745 2.603.745.133-.001.248-.025.341-.083"/><path d="m32 2c-16.568 0-30 13.432-30 30 0 5.217 1.334 10.121 3.676 14.395l-.017.003.051.059c5.106 9.264 14.964 15.543 26.29 15.543 16.568 0 30-13.432 30-30s-13.432-30-30-30m-24.237 43.993c-.137-.235-.276-.47-.406-.71l.777.496-.371.214m.553.915c.835-.398 1.429-1.211 2.19-1.74.768-.533 2.097-.367 2.517-1.359-.737.496-1.528.34-2.296.672-.459.199-.957.667-1.478.667-.154 0-.31-.041-.467-.142.559-.07.939-.492 1.345-.833.482-.403 1.138-.291 1.672-.569.653-.34 1-.623 1.751-.762.487-.09.946-.317 1.267-.704-.115-.055-.228-.077-.34-.077-.393 0-.77.272-1.138.369-.103.027-.206.037-.31.037-.283 0-.567-.074-.847-.074-.172 0-.342.028-.509.119.071-.693 1.218-.547 1.679-.601.979-.114 1.635-.604 2.63-.604.101 0 .206.005.314.016-.781-.148-1.425-.759-2.238-.759-.039 0-.078.001-.117.005-.017.001-.035.002-.052.002-.486 0-1.208-.449-1.735-.449-.145 0-.274.034-.381.12.017-.345.451-.453.979-.453.707 0 1.583.194 1.856.279.558.174.973.518 1.558.518.059 0 .119-.003.182-.011.259-.031.532-.095.797-.095.199 0 .395.036.577.149-.099-.291-.442-.361-.72-.361-.047 0-.092.003-.133.006.164-.335.516-.443.905-.443.454 0 .958.148 1.265.254-.136-.201-.204-.424-.206-.665.114.043.228.06.342.06.313 0 .625-.121.94-.121.036 0 .072.002.108.006-.219-.149-.345-.355-.379-.618.057.019.111.027.164.027.309 0 .538-.296.783-.448-.327-.059-.787-.145-.935-.502.093.029.182.043.266.043.738 0 1.154-1.033 1.525-1.438.425-.461-.162-1.289.557-1.78-.029-.003-.059-.005-.089-.005-.411 0-.931.256-1.37.256-.251 0-.476-.084-.64-.344.111.031.217.045.318.045.771 0 1.312-.813 1.96-1.148.485-.252-.008-1.683.932-1.683.041 0 .084.002.13.008-.25-.303-.142-.993.184-1.222-.214-.124-.59-.227-.932-.227-.218 0-.421.042-.56.147.018-.504 1.096-.778 1.887-.778.34 0 .626.051.753.155-.182-.596.117-.712.473-.712.23 0 .484.049.647.049.058 0 .104-.006.134-.023-.219-.574.311-1.046.835-1.046.179 0 .357.055.505.18-.083-.487-.799-1.021-.669-1.478.313.802 1.603.254 1.899 1.26.108-.154.291-.227.474-.227.125 0 .251.034.353.099.144.092.218.123.267.123.096 0 .09-.121.335-.121.041 0 .089.003.146.011.478.066.301.218.524.218.055 0 .134-.009.254-.031.038-.005.074-.008.11-.008.202 0 .373.081.515.241.069-.48-.448-.89-.201-1.365.037.661 1.7 1.252 1.563 2.125.092-.093.231-.134.383-.134.448 0 .998.358.695.765.019.007.042.011.068.011.178 0 .502-.145.783-.145.072 0 .142.009.205.033.32.118.435.68.578.727.057-.153.127-.209.207-.209.211 0 .48.395.674.418.189-.623-1.186-.472-.879-1.209.141.338.432.406.752.406.215 0 .443-.031.65-.031.098 0 .189.007.273.027-.232-.278-.301-.591-.204-.94-.106.037-.208.053-.308.053-.588 0-1.067-.555-1.573-.555-.087 0-.175.016-.265.055.258-.559 1.192-.195 1.619-.725-.555-.119-.873-.867-.548-1.34-.062.017-.121.025-.179.025-.547 0-.909-.722-.708-1.208-.733.393-1.458.139-1.644 1.227-.374-.721.354-1.837.695-2.482-.566.112-1.086.404-1.493.811.452-.936 1.412-1.301 1.678-2.202.182-.61.334-1.294.668-1.919-.16.026-.324.036-.49.036-.607 0-1.248-.134-1.856-.134-.54 0-1.054.105-1.498.503.152-.802 1.115-.911 1.846-.911.127 0 .246.003.354.007.013 0 .025 0 .037 0 .768 0 1.506-.791 2.392-.822-.291-.194-.31-.563-.216-.864.194.587 1.316.812 2.115.812.252 0 .473-.022.62-.063-1.079-.534-2.286-1.063-3.516-1.063-.104 0-.209.004-.313.012-.889.067-.743.971-.205.971.07 0 .147-.015.229-.05-.05.129-.161.185-.298.185-.516 0-1.381-.796-.539-1.472.379-.304.828-.417 1.298-.417.784 0 1.624.315 2.282.583-.037-.304.006-.596.129-.875-.188-.056-.375-.083-.563-.083s-.377.028-.564.084c.314-.399 1.247-.333 1.668-.475-.491-.202-1.031-.412-1.567-.412-.258 0-.515.049-.765.17.27-.775 1.388-.366 1.941-.644.214-.107.438-.153.664-.153.746 0 1.52.496 2.076.903.092-.711-.138-1.016-.974-1.06.086-.05.173-.07.261-.07.311 0 .627.243.917.243.091 0 .181-.024.265-.087-.568-.384-1.242-.614-1.93-.614-.054 0-.107.001-.161.004.286-.195.772-.281 1.296-.281.848 0 1.794.226 2.152.582 2.133 2.121 2.991 2.45 4.438 2.45.256 0 .528-.01.83-.022.029-.001.057-.002.086-.002 1.178 0 2.01.986 2.268.986.01 0 .018-.001.025-.003.785-.252 1.604.284 1.737-.879.11-.964.869-1.631 1.171-2.555.137-.42.547-.65.879-.923.072.087.14.18.211.268-.308.406-.744.798-.779 1.259-.07.905-.57 1.514-.748 2.379.417-.304.76-.809 1.328-.809.012 0 .024 0 .037.001.258.01.53.042.797.042.34 0 .673-.053.96-.271-.109.683-.852.728-1.366.938-.557.228-.865.795-1.41 1.042.806-.075 1.529-.558 2.32-.563h.041c.437 0 1.082.041 1.568.076.028.05.057.1.084.151-.763.134-2.07.391-2.623.664-.631.311-1.215.615-1.924.721-.264.039-.519.264-.759.264-.04 0-.081-.006-.12-.021.244.111.269.391.031.391-.04 0-.088-.008-.142-.025-.027.208.206.562.258.859.11.634-.328 1.042-.459 1.608-.056.246.069.342.259.342.555 0 1.668-.83.445-1.186.104-.044.21-.064.314-.064.506 0 .971.471.824 1.013.441-.169.825-1.156.16-1.156-.034 0-.07.002-.11.008.137-.106.258-.15.367-.15.517 0 .774.978 1.153 1.043.594.102 1.883.66 1.215 1.452.061-.788-.742-.996-1.764-.996-1.134 0-2.537.255-3.328.255-.189 0-.344-.015-.451-.051-.009.541-.006 1.194-.496 1.552.273-.648.139-2.067-.554-2.067-.179 0-.396.095-.651.323.739.2 1.355 2.555.418 2.767.162-.356-.244-.568-.373-.833-.174.257-.633.548-.361.92-.406-.14-.548-.589-.417-.969-.224.216-.517.357-.815.357-.147 0-.297-.034-.439-.111.482-.023.561-.618.949-.799-.664-.413-1.082-1.404-1.959-1.418-.384-.006-.844-.05-1.306-.05-.733 0-1.467.111-1.896.659.681.396 1.337 1.442 2.041 1.633-.078.021-.152.03-.225.03-.52 0-.881-.503-1.256-.811-.519-.424-1.17-.534-1.805-.663.72 1.065 1.335 1.135 2.432 1.687.836.421 1.521.974 2.473 1.136.131.022.26.032.385.032.851 0 1.578-.447 2.406-.447.062 0 .124.002.188.008.142.012.244.02.322.02.316 0 .197-.131.546-.628.214-.377 1.508-1.524 2.532-1.524.433 0 .817.205 1.053.76.244.582.77 1.124 1.162 1.683.578.819-.055.849-.393 1.5-.409.791-1.435 1.172-2.422 1.172-.641 0-1.266-.161-1.697-.474-.328-.239-.516-.374-.725-.374-.193 0-.404.114-.76.366-.645.454-1.18.75-1.941.75-.078 0-.157-.003-.239-.009.008.591.752 1.231.245 1.796.018-.46-.354-.913-.76-1.085.256.467-.398.866-.162 1.348-.831-.208-.791-1.278-.512-1.896-.156.263-.475.539-.804.539-.103 0-.206-.027-.307-.09.798-.239.731-1.288-.077-1.288-.042 0-.086.002-.131.008-1.179.15-.826.911-.944 1.817-.134 1.031-.636 1.936-1.149 2.819-.438.753-1.166 1.419-1.078 2.368.07-.025.136-.036.195-.036.392 0 .568.476.951.476.028 0 .058-.002.088-.008.082-.015.188-.022.303-.022.346 0 .785.066.991.195.374.233.617.157.999.366.104.15.201.227.295.227.113 0 .219-.113.314-.338.073.016.139.024.197.024.257 0 .38-.155.369-.468.133-.172.291-.258.477-.258.073 0 .151.014.234.041-.154-.734.745-1.096 1.576-1.096.489 0 .955.125 1.167.373-.06-.018-.115-.024-.169-.024-.38 0-.624.38-.962.524-.55.234-.112.51-.705.846.172-.064.38-.096.603-.095 1.113 0 2.602.765 1.857 1.966-.107-.584-.659-.755-1.157-.755-.215 0-.419.032-.573.075.029-.001.059-.002.088-.002 1.793.001 2.809 2.329 1.532 3.631-.338.345-.687.453-1.013.453-.554 0-1.043-.313-1.301-.313-.123 0-.194.07-.195.279-.002.218-.106.313-.275.313-.891 0-3.57-2.637-2.294-3.505-.05.015-.108.021-.175.021-.44 0-1.182-.298-1.619-.298h-.034c-.308 0-.971-.068-.955-.497-.082.136-.217.193-.387.193-.842 0-2.542-1.408-2.845-1.586-.093.344-.282.832-.723.842.385-.676.274-.865-.024-.865-.383 0-1.074.309-1.436.309-.08 0-.146-.016-.186-.054.014.001.029.002.043.002.61 0 .73-1.1 1.467-1.149-.488-.047-.846-.508-1.285-.523.035-.056.353-.079.715-.079.474 0 1.024.04 1.115.099.092-.281-.159-.518.029-.886-1.83-.112-4.075-.407-5.743-1.136-.77-.336-2.02-.66-3.078-.66-.784 0-1.462.179-1.76.664-.186.303-.584.563-.81.857-.162.211.054.521-.131.748-.318.391-.213 2.157.348 2.406.032.014.063.02.094.02.594 0 1.133-2.422 2.176-2.422.301 0 .645.203 1.044.726-.085-.021-.167-.031-.245-.031-.362 0-.652.21-.87.471-.114.14-.341.827-.44.907.408-.271 1.209-.528 1.831-.528.167 0 .322.019.452.062.425.137 1.043.878.471.878-.041 0-.088-.003-.142-.012 1.708.698.906 3.22-.649 3.22-.191 0-.394-.038-.605-.123.254.121.276.167.165.167-.295 0-1.53-.327-1.789-.438-.39-.167-1.203-.465-1.532-.689-.141.671-.682 1.967.118 2.438.363.215.875 1.193.797 1.588.052-.008.104-.012.153-.012.22 0 .417.079.588.236.126-.184.292-.276.497-.276.041 0 .083.004.127.011.261.041 1.001.354 1.167.566.494.633.542 2.035.056 2.668.09-.629-.115-1.512-.828-1.727-.184-.052-.319-.163-.407-.332-.13.105-.271.158-.423.158-.069 0-.14-.011-.213-.032 1.174.521.333 3.409-.333 4.105-.375.392-.844.563-1.312.563-1.133 0-2.253-1.005-1.989-2.297-.041.2-.092.28-.147.28-.177 0-.393-.832-.442-1.117-.088-.507-.027-1.031.369-1.398.449-.417.849-.266 1.062-.77.107-.252-.175-.692.148-.802-.021.005-.041.007-.062.007-.216 0-.44-.254-.167-.414-.016-.025-.908-.304-.369-.539-.019-.025-.041-.037-.065-.037-.215 0-.615.908-.802.908-.002 0-.004 0-.006 0 .146-.327-.231-.55-.175-.873-.161.211-.519.42-.834.42-.158 0-.306-.053-.413-.183.083-.007 1.203-.951 1.197-.979-.032-.164-.762-.377-.67-.5.154-.208.321-.263.481-.263.176 0 .344.066.476.066.199 0 .316-.151.258-.914-.121.063-.246.083-.374.083-.231 0-.471-.066-.702-.066-.047 0-.093.002-.139.009-.387.055-.684.35-.996.552-.622.401-.978.708-1.38 1.326-.418.642-1.553 1.408-2.144 1.919-.631.544-1.611.351-2.291.9.167-.755 1.366-.977 1.807-1.599-.682.207-1.956 1.19-2.716 1.19-.086 0-.167-.013-.238-.041.841-.159.919-1.22 1.646-1.546-.003-.001-.006-.002-.011-.002-.204 0-1.916 1.148-2.122 1.342-.715.663-1.595.832-2.347 1.479-.748.645-1.876.482-2.736.935-.262.139-.688.418-1.104.551-.077-.121-.153-.24-.229-.36m24.039-20.393l.116-.116c.035.154.09.308.168.459l.171.33c-.027-.022-.053-.044-.079-.066-.113-.094-.273-.226-.36-.315l-.016-.292m1.982 1.092l.163-.961c.129.178.281.327.451.443.006.036.012.071.02.107-.221.08-.446.205-.634.411m20.105-12.332c.202.27.394.546.586.823l-.229.175c-.038.029-.115.067-.355.067-.135 0-.272-.011-.407-.021-.028-.002-.056-.004-.084-.006.034-.16.061-.33.075-.51.023-.056.199-.265.315-.403.03-.035.067-.085.099-.125m-9.282 9.128l-.52.3-.155.007-.095-.025c-.092-.028-.259-.171-.424-.327h.017c.243 0 .487.014.718.026.162.009.313.014.459.019m-16.29 9.405l-.875.505c-.004.002-.009.005-.013.008l-.456.264c.179-.168.367-.354.515-.596.019-.03.242-.169.829-.181m3.13-29.808c8.326 0 15.811 3.657 20.943 9.444-.054.043-.112.087-.16.124-.342.259-.809.613-1.016 1.244-.092.283-.267.569-.451.872-.304.499-.646 1.062-.75 1.792h-.025c-.166 0-.369.001-.594.031-.459-.328-1.311-.932-2.43-.932-.042 0-.084.001-.127.003-.287.012-.547.021-.789.021-1.055 0-1.653-.092-3.732-2.159-.648-.644-1.945-.872-2.857-.872-.791 0-1.416.153-1.859.455l-1.137.774c-.069.002-.154.005-.221.007-.547.018-1.687.055-2.084 1.193l-.127.365c-.561.07-1.055.274-1.473.61-.642.516-.878 1.243-.631 1.946.024.069.053.136.086.202-1.66.143-2.181.986-2.317 1.704l-.552 2.908 2.203-1.977c.196-.176.437-.248.83-.248.251 0 .528.03.823.061.028.003.057.006.086.009-.03.104-.059.207-.088.307-.033.121-.066.24-.102.355-.064.217-.258.414-.57.715-.212.207-.458.444-.682.74l-.021-.368-1.682 3.233c-.075.144-.123.284-.15.419-.009-.001-.018-.002-.027-.004-.11-.015-.204-.021-.284-.021-.112 0-.213.011-.304.029-.204-.085-.424-.13-.651-.13-.044 0-.089.002-.133.005-.396-.314-.862-.416-1.144-.478-.064-.014-.149-.033-.213-.05l-1.588-1.329-.256 1.548c-.095.335-.058.639.037.907-.193.13-.363.294-.495.486-.045.065-.084.132-.119.2-.638.024-.988.311-1.171.556-1.396.008-2.812.548-2.854 1.743l-.074 2.114.71-.543c-.052.181-.09.381-.115.601-.004.034-.009.075-.014.114-.213.142-.404.3-.578.445-.217.181-.514.428-.645.428l-1.426.401.261 1.086c.329.523.856.813 1.486.813.014 0 .028-.001.042-.001-.103.13-.196.271-.288.408-.106.16-.295.442-.417.547l-2.004-.635.615 1.431.089.681-.969-.366.013.867c-.017 0-.034 0-.051 0-.911 0-1.399.4-1.653.753-.136-.013-.29-.081-.532-.194-.196-.091-.419-.193-.682-.275-.341-.106-1.314-.325-2.154-.325-1.773 0-1.962 1.075-1.979 1.405l-.106 2.225.011-.008-.049.475c-.35.076-.767.203-1.146.521-.077.063-.15.129-.225.195-.229.201-.445.393-.604.412l-1.833.231c-1.807-3.702-2.825-7.857-2.825-12.246 0-15.439 12.561-28 28-28"/></svg>