<svg xmlns="http://www.w3.org/2000/svg" viewBox="0 0 64 64" enable-background="new 0 0 64 64"><path d="M32,2C15.432,2,2,15.432,2,32s13.432,30,30,30s30-13.432,30-30S48.568,2,32,2z M31.999,4c6.532,0,12.724,2.265,17.668,6.422
	L32,24.014L14.332,10.421C19.275,6.265,25.467,4,31.999,4z M31.999,60c-6.532,0-12.724-2.265-17.667-6.421L32,39.986l17.666,13.592
	C44.723,57.735,38.531,60,31.999,60z M51.559,52.01L32,36.963L12.44,52.01c-1.878-1.836-3.497-3.934-4.802-6.232L25.547,32
	L7.638,18.224c1.305-2.3,2.924-4.397,4.803-6.233L32,27.037l19.559-15.048c1.878,1.836,3.497,3.934,4.803,6.233L38.451,32
	l17.91,13.777C55.056,48.077,53.437,50.174,51.559,52.01z"/></svg>