<svg xmlns="http://www.w3.org/2000/svg" viewBox="0 0 64 64" enable-background="new 0 0 64 64"><path d="m32 2c-16.568 0-30 13.432-30 30s13.432 30 30 30 30-13.432 30-30-13.432-30-30-30m-18.735 50.788c-.478-.431-.937-.882-1.384-1.344l10.286-7.575v-.021-2.015h-3.89l-8.938 6.585c-1.062-1.461-1.983-3.027-2.751-4.682l2.584-1.903h-3.385c-.479-1.271-.865-2.584-1.156-3.934h9.879 9.09.02 2.48v3.061.013 2.354 16.042c-1.35-.291-2.663-.678-3.933-1.156v-11.986l-8.902 6.561m24.635-29.749v-.013-2.354-16.041c1.35.291 2.663.678 3.933 1.156v11.985l8.901-6.561c.478.431.937.881 1.384 1.344l-10.285 7.575v.021 2.015h3.888l8.939-6.584c1.062 1.46 1.984 3.027 2.751 4.68l-2.585 1.904h3.387c.479 1.271.865 2.584 1.156 3.934h-9.881-9.09-.017-2.481v-3.061m-24.661-11.805l8.926 6.559.002-12.006c1.27-.478 2.583-.865 3.933-1.156v16.055 5.414h-1.993-.004-6.649-.004-2.935-9.884c.291-1.35.678-2.663 1.156-3.934h3.387l-2.585-1.904c.249-.538.509-1.07.791-1.589l4.738 3.493 6.644-.001-9.256-6.818c1.107-1.492 2.358-2.869 3.733-4.113m37.522 41.532l-8.926-6.56-.002 12.007c-1.27.479-2.583.865-3.933 1.156v-16.056-5.414h1.991.006 6.649.002 2.937 9.884c-.291 1.35-.678 2.663-1.156 3.934h-3.389l2.587 1.905c-.249.537-.509 1.069-.791 1.588l-4.738-3.493-6.646.001 9.258 6.818c-1.107 1.493-2.358 2.87-3.733 4.114"/></svg>