<svg xmlns="http://www.w3.org/2000/svg" viewBox="0 0 64 64" enable-background="new 0 0 64 64"><path d="m44.512 26.663c.631.33 1.334.294 1.84-.095.225-.173.301-.175.751-.017.366.126.589.149.831.086.494-.129.772-.713.582-1.222-.098-.261-.297-.32-.281-.082.015.189-.418.745-.626.801-.079.021-.36-.073-.627-.206l-.479-.245-.408.346c-.465.392-.932.469-1.655.272-.404-.109-.461-.105-.364.032.065.09.261.237.436.33"/><path d="m46.576 24.541c.044-.669-.021-.867-.309-.957-.163-.052-.225-.014-.285.165-.068.208.143 1.053.318 1.277.165.204.245.06.276-.485"/><path d="m8.49 38.53c-.378.906-1.438 1.133-2.066 1.79 2.033.507 3.492-.727 3.858-2.344 6.887 0 13.916 0 20.805 0 0-1.667-.002-3.976-.002-5.51-.171-1.281-1.528-1.216-2.068-2.066-1.051.603-2.618.688-2.617 2.343-2.283.104-4.984.187-7.42.139.823-1.051 5.325-5.439 6.559-6.673.22-.12.519-.072.76-.18-.354-.185-1.137-1.201-1.08-1.611-1.977 1.918-4.237 3.962-4.559 4.282-3.222 3.221-3.165 3.181-3.639 3.653 0 .624.012 1.49.012 1.905 3.72 0 10.575 0 11.126 0 .552 0-.125-1.929.584-1.929.742 0 .493 1.508.493 2.443-4.744 0-9.759.036-14.406.036 0-.92 0-2.078 0-2.996-1.195 1.013-1.32 1.106-2.068 1.379.581.109.617 1.001.552 1.756-1.956.05-4.589.294-3.857-1.931-1.043.703-1.198.796-2.224 1.17.618 1.128 1.577 2.354 1.257 4.344"/><path d="m56.611 34.259c-.506.32-.73.922-1.792.688 0-2.8 0-5.603 0-8.402.091-.415.442-.57.552-.965-.951-.243-1.564-.821-2.343-1.24 0 4.546 0 9.094 0 13.638 1.517 0 3.032 0 4.547 0 .03-1.057-.827-2.374-.964-3.719"/><path d="m51.441 37.958c0-3.916 0-8.142 0-13.133-.236.487-1.185 1.188-1.666 1.673 0 2.596.036 5.429.036 8.224l-1.192.002c0-2.388 0-4.945 0-7.333 0 .054-1.652 1.448-1.652 1.448 0 .188-.01 5.881-.01 5.881-.222 0-.873-.002-1.205-.002 0 0-.026-3.399-.026-4.84-1.366 1.194-1.536 1.323-2.042 1.828.041.248.215.012.312.202 0 .37 0 .646 0 1.109-3.177-.604-3.149 2.219-2.997 4.944.825.001 7.087-.003 10.442-.003m-7.446-3.544c.037.564-.726.57-.948.234-.18-.524.821-.701.948-.234"/><circle cx="12.814" cy="39.525" r=".639"/><path d="m36.077 34.271c-.507.32-.729.924-1.792.689 0-2.801 0-5.603 0-8.405.093-.412.443-.57.553-.962-.95-.244-1.565-.821-2.344-1.24 0 4.546 0 9.092 0 13.638 1.516 0 3.033 0 4.547 0 .03-1.057-.826-2.375-.964-3.72"/><path d="M32,2C15.432,2,2,15.432,2,32s13.432,30,30,30s30-13.432,30-30S48.568,2,32,2z M5.787,22.167h52.426
		C59.365,25.229,60,28.541,60,32s-0.635,6.771-1.787,9.833H5.787C4.635,38.771,4,35.459,4,32S4.635,25.229,5.787,22.167z"/></svg>