<svg xmlns="http://www.w3.org/2000/svg" viewBox="0 0 64 64" enable-background="new 0 0 64 64"><path d="m32 2c-16.568 0-30 13.432-30 30s13.432 30 30 30 30-13.432 30-30-13.432-30-30-30m4.173 30l17.591-17.591c3.896 4.812 6.236 10.932 6.236 17.591s-2.34 12.779-6.236 17.591l-17.591-17.591m-1.798-9.396c-.042-.027-.053-.104.028-.145-.097-.036-.057-.146.011-.169.1-.036.207.075.459.058.063-.004.146-.015.146-.159 0-.207-.142-.359-.595-.276-.38.069-.65.063-.861.024-.014.162.004.26.075.331.073.071.165.14.094.219-.186.207-.748.079-.999.079-.067-.002-.171.024-.255.092-.152.121-.291.046-.288-.012s.099-.096.159-.08c-.071-.079-.254.147-.301-.045-.024-.1.102-.105.215-.107-.148-.004-.217-.052-.137-.153.104-.137.267.125.623.109.158-.008.361.012.412-.03.142-.117.012-.117-.2-.156-.206-.04-.243-.014-.478-.28-.354.217-1.26.252-1.392.248-.893.801-1.988.105-2.141.111-.095.004-.128-.063-.085-.111.044-.046.137-.05.225-.033-.082-.074-.207-.054-.268-.024-.078.038-.156-.071-.093-.129.048-.042.167-.079.276-.03-.068-.031-.145-.077-.208-.054-.064.022-.142-.062-.062-.127.159-.123.356.012.505.181.168.189.49.227.729.215.129-.006.295.012.311-.067-1.028-.574-1.449-1.196-1.581-1.183-.092.007-.134-.079-.092-.127.063-.073.163-.069.278.038-.091-.109-.029-.213-.146-.225-.081-.01-.096-.1-.059-.141.063-.063.19-.026.276.077-.018-.127-.103-.135-.169-.185-.065-.05-.037-.117.04-.144.087-.033.247.052.288.188.092.299.604 1.033.991 1.069.007-.016-.292-.419-.294-.693 0-.002 0-.002 0-.004-.053-.054-.104-.159-.126-.236-.051-.179.018-.183.224-.102.07-.071.188-.113.387-.113.197 0 .315.042.386.113.204-.081.272-.075.222.102-.021.075-.072.181-.124.234 0 .002 0 .004 0 .006 0 .073-.011.119-.027.153.224.357 1.079.538 1.821.292.412-.136.775-.13 1.125-.09.352.042.807-.025.807-.179 0-.163-.26-.213-.758-.141-.854.129-1.842.171-1.834-.324.008-.499.93-.499 1.305-.392.375.105.848.09.994.032-.596.212-.822.179-1.141.131s-.938-.016-.938.219c0 .238.863.304 1.573.148.708-.154 1.06.076 1.06.362 0 .256-.452.566-.807.421.236.163.977.215 1.246.121.111-.038.133-.004.164.082.137.379-.033.949-.412.985-.088.01-.232.071-.311.173-.078.103-.161.062-.193.014-.055-.077.041-.151.132-.192-.067.035-.173.06-.212.031m.974-3.165c-.074-.107.056-.209.181-.266-.098.045-.241.079-.297.041-.055-.039-.068-.141.04-.198-.132-.05-.076-.197.015-.23.135-.048.283.102.626.081.087-.006.2-.023.2-.217 0-.283-.193-.49-.811-.377-.518.094-.888.085-1.175.035-.019.217.005.351.103.449.1.1.226.189.127.298-.252.282-1.02.107-1.361.105-.092 0-.232.034-.346.126-.209.166-.398.063-.394-.015.005-.079.134-.131.218-.111-.098-.105-.348.203-.41-.058-.034-.137.137-.146.292-.146-.201-.006-.296-.072-.188-.213.144-.185.365.171.851.151.216-.009.494.016.561-.038.193-.163.017-.163-.272-.219-.28-.052-.331-.014-.65-.379-.481.294-1.718.342-1.896.335-1.216 1.095-2.71.146-2.918.155-.128.006-.175-.087-.115-.154.06-.063.185-.066.306-.044-.111-.102-.282-.074-.366-.032-.106.054-.212-.098-.125-.177.063-.056.227-.105.375-.04-.093-.043-.196-.108-.283-.075-.088.032-.194-.083-.083-.171.216-.171.485.014.688.246.229.257.667.309.994.292.176-.008.4.015.422-.093-1.4-.781-1.975-1.633-2.155-1.613-.125.012-.183-.105-.125-.173.087-.1.223-.094.38.056-.124-.151-.039-.294-.199-.309-.111-.012-.131-.137-.08-.188.084-.091.26-.039.377.102-.025-.173-.14-.183-.23-.25-.09-.068-.051-.159.053-.197.121-.044.336.071.393.255.125.411.822 1.412 1.352 1.462.008-.023-.398-.574-.4-.945 0-.004 0-.004 0-.005-.072-.073-.143-.22-.173-.323-.068-.242.025-.25.306-.137.096-.098.256-.157.527-.157.269 0 .43.06.525.156.278-.112.371-.104.303.138-.029.104-.098.246-.17.319 0 .004 0 .005 0 .009 0 .099-.014.16-.037.208.306.485 1.471.733 2.482.399.561-.187 1.057-.181 1.533-.123.479.054 1.101-.034 1.101-.246 0-.223-.355-.288-1.034-.188-1.162.172-2.512.234-2.5-.445.012-.678 1.268-.678 1.779-.531.51.144 1.155.122 1.355.044-.813.288-1.123.243-1.557.179-.434-.067-1.277-.023-1.277.297 0 .323 1.178.413 2.145.202s1.445.105 1.445.495c0 .348-.617.772-1.102.57.322.224 1.332.296 1.701.168.151-.055.18-.006.223.111.186.517-.047 1.294-.563 1.344-.12.012-.316.099-.423.236-.107.137-.22.083-.264.019m.92-4.521c-.128.012-.336.103-.448.248-.111.146-.231.088-.279.021-.078-.113.059-.221.191-.281-.104.049-.254.085-.313.045-.06-.041-.074-.15.041-.21-.139-.054-.08-.211.016-.243.144-.053.299.107.662.086.092-.008.213-.024.213-.23 0-.3-.205-.519-.857-.399-.549.1-.939.089-1.243.034-.02.234.006.375.107.477.105.105.239.202.135.317-.267.298-1.078.113-1.439.111-.097 0-.247.036-.366.132-.221.177-.421.069-.416-.015.004-.083.143-.139.229-.117-.103-.113-.366.215-.434-.062-.036-.146.146-.154.31-.154-.214-.005-.313-.076-.198-.225.151-.195.386.181.898.16.229-.012.523.017.594-.043.204-.171.017-.171-.288-.229-.297-.058-.351-.015-.688-.401-.509.312-1.818.361-2.007.354-1.286 1.158-2.866.155-3.085.163-.137.008-.186-.092-.123-.159.063-.069.195-.075.323-.05-.118-.107-.298-.077-.386-.034-.112.058-.225-.103-.132-.185.067-.062.24-.113.397-.047-.099-.042-.207-.111-.299-.076-.093.034-.206-.089-.088-.181.228-.181.514.014.728.257.242.275.706.327 1.053.312.185-.008.423.016.444-.1-1.48-.824-2.088-1.725-2.279-1.706-.132.014-.193-.109-.132-.18.092-.106.235-.101.402.058-.13-.162-.042-.312-.211-.329-.117-.012-.139-.142-.084-.199.089-.093.275-.039.398.111-.026-.185-.148-.194-.243-.268-.096-.07-.054-.167.057-.209.126-.046.356.077.416.272.132.433.87 1.492 1.431 1.545.008-.023-.422-.605-.425-1.001 0 0 0-.002 0-.004-.077-.077-.151-.23-.183-.342-.072-.256.027-.264.323-.146.101-.102.271-.163.558-.163.285 0 .454.062.557.163.294-.117.393-.109.32.146-.031.109-.104.259-.18.338 0 .004 0 .006 0 .008-.001.104-.016.171-.039.223.322.513 1.555.774 2.625.419.594-.196 1.117-.188 1.623-.129.505.058 1.163-.036 1.163-.259 0-.234-.376-.306-1.093-.2-1.23.181-2.657.248-2.646-.471.013-.714 1.342-.714 1.883-.563.539.151 1.222.129 1.434.046-.859.308-1.188.26-1.646.188-.459-.071-1.353-.023-1.353.316s1.246.435 2.269.214c1.022-.225 1.528.111 1.528.522 0 .37-.652.815-1.163.604.341.234 1.409.312 1.798.177.16-.056.191-.008.236.117.195.551-.051 1.372-.596 1.426m-4.589-9.028c-.34-.58-1.442-.02-1.463.68.301-.179 1.303-.018 1.303 1.023 0 .401-.211.852-.711.991-.387.109-.926-.038-1.227-.53.266-.104.396-.403.293-.668-.104-.267-.403-.397-.67-.296-.266.105-.397.405-.293.67.072.188.248.317.449.329-.085.451-.32.765-.768.887-.952.26-1.763-1.002-.711-1.715-.291-.368-1.231-.409-1.473.271-.01-.529-.44-1.041-1.402-1.02.921 1.301 1.702 3.023 1.923 4.748.002-.002.006-.003.008-.005-1.156 4.955-.419 10.987 5.069 14.357 5.493-3.373 6.226-9.415 5.065-14.373.224-1.718 1.001-3.432 1.919-4.728-.961-.021-1.391.491-1.401 1.02-.241-.68-1.183-.639-1.473-.271 1.052.713.24 1.975-.711 1.715-.447-.122-.684-.436-.768-.887.285-.018.502-.266.483-.55-.018-.286-.264-.499-.548-.481-.285.017-.502.263-.484.547.014.202.141.377.328.449-.301.492-.84.64-1.226.53-.501-.14-.712-.59-.712-.991 0-1.041 1.002-1.202 1.303-1.023-.02-.699-1.122-1.26-1.463-.68.309-.551.347-1.282-.007-1.882 6.537.072 12.542 2.395 17.277 6.229l-17.589 17.592-17.591-17.591c4.735-3.835 10.74-6.157 17.278-6.229-.353.599-.316 1.331-.007 1.882m-21.443 8.519l17.591 17.591-17.591 17.591c-3.897-4.812-6.237-10.932-6.237-17.591s2.34-12.779 6.237-17.591m4.173 39.355l17.59-17.592 17.59 17.592c-4.811 3.896-10.931 6.236-17.59 6.236-6.659 0-12.779-2.34-17.59-6.236"/></svg>