<svg xmlns="http://www.w3.org/2000/svg" viewBox="0 0 64 64" enable-background="new 0 0 64 64"><path d="m46.75 48.315c1.003-1.027 2.897-3.105 4.054-5.217l-8.108-.002c1.157 2.114 3.051 4.192 4.054 5.219"/><path d="m46.721 35.48c.905-.943 2.91.14 2.005-.803-.905-.947-2.372-.947-3.277 0-.905.942-.905 2.474 0 3.416.905.946.366-1.67 1.272-2.613"/><path d="m44.537 41.374c1.244.34 2.525-.426 2.861-1.707.339-1.285-1.582.505-2.823.165-1.243-.34-1.338-2.677-1.676-1.395-.339 1.286.395 2.599 1.638 2.937"/><path d="m47.739 37.132c-1.244.338 1.214 1.166 1.551 2.446.338 1.285-1.572 2.537-.328 2.199 1.243-.338 1.978-1.653 1.638-2.937-.338-1.281-1.62-2.048-2.861-1.708"/><path d="M32,2C15.432,2,2,15.432,2,32s13.432,30,30,30s30-13.432,30-30S48.568,2,32,2z M5.45,32H4c0-3.102,0.515-6.084,1.45-8.875
		V32z M32,12.334V14.3h-8.26L32,24.625v2.516L21.604,14.3h-5.9L30.033,32H26.1L14.3,17.25V32h-1.967H11.35V13.112
		c0.562-0.613,1.149-1.201,1.763-1.763H32V12.334z M32,5.45h-8.876C25.915,4.515,28.897,4,32,4V5.45z M51.666,43.571
		C49.945,46.712,46.75,49.7,46.75,49.7s-3.196-2.988-4.917-6.129C40.219,40.629,39.866,32,39.866,32s2.459,1.359,3.934,1.359
		c1.598,0,2.95-1.359,2.95-1.359s1.352,1.359,2.95,1.359c1.475,0,3.933-1.359,3.933-1.359S53.28,40.629,51.666,43.571z"/></svg>