<svg xmlns="http://www.w3.org/2000/svg" viewBox="0 0 64 64" enable-background="new 0 0 64 64"><path d="m34.718 36.916l1.216-.922 1.214.922-.46-1.5 1.212-.931-1.5-.004-.466-1.498-.467 1.498-1.5.004 1.212.931z"/><path d="m12.563 35.416l-.461 1.5 1.214-.922 1.216.922-.461-1.5 1.212-.931-1.5-.004-.467-1.498-.466 1.498-1.5.004z"/><path d="m37.9 46.285l-1.5-.004-.466-1.498-.467 1.498-1.5.004 1.212.931-.461 1.501 1.216-.923 1.214.923-.46-1.501z"/><path d="m13.783 46.281l-.467-1.498-.466 1.498-1.5.004 1.213.931-.461 1.501 1.214-.923 1.216.923-.461-1.501 1.212-.931z"/><path d="m32 2c-16.568 0-30 13.432-30 30s13.432 30 30 30 30-13.432 30-30-13.432-30-30-30m27.369 35.9h-54.738c-.41-1.904-.631-3.877-.631-5.9h56c0 2.023-.221 3.996-.631 5.9m-39.92 16.717l-1.216-.924-1.216.924.461-1.502-1.212-.93 1.5-.004.467-1.498.467 1.498 1.5.004-1.212.93.461 1.502m6.883 1.967l-1.215-.924-1.217.924.461-1.502-1.211-.93 1.5-.004.467-1.498.467 1.498 1.5.004-1.213.93.461 1.502m5.9-1.967l-1.216-.924-1.216.924.461-1.502-1.212-.93 1.5-.004.467-1.498.467 1.498 1.5.004-1.212.93.461 1.502m-21.91-4.917c-1.468-1.795-2.715-3.776-3.706-5.9h50.768c-.991 2.124-2.238 4.105-3.706 5.9h-43.356m22.894-19.667l-1.216-.923-1.216.923.461-1.501-1.212-.931 1.5-.004.467-1.497.467 1.498 1.5.004-1.212.931.461 1.5m-6.884-2.949l-1.215-.924-1.217.924.461-1.502-1.211-.93 1.5-.004.467-1.498.467 1.498 1.5.004-1.213.93.461 1.502m-6.883 2.949l-1.216-.923-1.216.923.461-1.501-1.212-.931 1.5-.004.467-1.498.467 1.498 1.5.004-1.212.931.461 1.501"/></svg>