<svg xmlns="http://www.w3.org/2000/svg" viewBox="0 0 64 64" enable-background="new 0 0 64 64"><path d="m32 22.386l-2.459-2.186.822 3.06-3.28.874 3.28.873-.822 3.06 2.115-1.882c-.002 1.199.1 3.303.654 5.815h-2.277l-1.967-1.967v1.967h-3.933c0 2.706 1.159 5.213 2.585 7.281 2.294 3.323 5.282 5.502 5.282 5.502s7.867-5.722 7.867-12.783h-.008-6.688c-.555-2.427-.679-4.494-.689-5.691l1.977 1.758-.82-3.06 3.277-.873-3.277-.874.82-3.06-2.459 2.186"/><path d="M32,2C15.432,2,2,15.432,2,32s13.432,30,30,30s30-13.432,30-30S48.568,2,32,2z M47.039,8.4H16.96
		C21.309,5.62,26.467,4,32,4S42.691,5.62,47.039,8.4z M41.834,32c0,8.688-9.834,15.733-9.834,15.733S22.167,40.688,22.167,32
		c0-8.69,9.833-15.733,9.833-15.733S41.834,23.31,41.834,32z M16.96,55.6h30.079C42.691,58.38,37.533,60,32,60
		S21.309,58.38,16.96,55.6z"/></svg>