<svg xmlns="http://www.w3.org/2000/svg" viewBox="0 0 64 64" enable-background="new 0 0 64 64"><path d="m32 2c-16.568 0-30 13.432-30 30s13.432 30 30 30 30-13.432 30-30-13.432-30-30-30m-24.109 32.334l-1.018.148.068 1.024-.749-.702-.761.693.083-1.024-1.016-.162.853-.575-.507-.894.979.307.384-.954.371.959.985-.295-.52.886.848.589m2.545-8.74l.981.308.383-.954.372.958.983-.295-.516.889.843.586-1.016.148.067 1.025-.749-.703-.759.693.081-1.023-1.015-.164.852-.574-.507-.894m6.378 5.002l.981.306.384-.954.371.958.982-.294-.515.888.844.586-1.017.149.067 1.024-.749-.702-.759.692.081-1.023-1.014-.162.851-.575-.507-.893m18.76-3.434c-1.769 2.305-4.615 3.02-6.307 2.731-.099-.476-.469-.528-1.186-.53-.92.453-2.064-1.283-2.819-2.317-.169-.059-.769.45-.493 1.242l.895.812c.196.25.105 1.168-.105 1.309-.198.141-.488-.005-.686.308-.232.409-.177.813-.286 1.358-.22.22-.486.272-.939.591 0 0-.57.278-.548.904.115.214.685.615.693.396.352-.085.538-.792.967-1.029 1.045.243 2.967-.093 2.927.187 0 0 .368.831 1.206.729.33-.103.242-.178.39-.253.296.03.405.098.703.13.094.093.261.312.526.368.32.195 2.42-.164 2.545 1.319 0 .187.186 2.007-.296 4.083.493.099 1.452.361 2.698.337.188 0-.052-1.893.146-2.293.048-.378.476-.538.585-1.612.123-.515.234-.795.135-1.311-.198-.373-.087-1.094.014-1.418.197-.258.553.029.833-.5l.469-.797c0 0 .321-.729 1.998-1.58.576-.149.193-.531.574-.735.436-.333-.804-.345-.886-.737 0-.319.267-.558.251-1.398.037-.752-.381-.816-.251-2.28 1.671 1.792 2.702 4.188 2.702 6.826 0 5.53-4.499 10.029-10.029 10.029-5.531 0-10.031-4.499-10.031-10.029s4.5-10.032 10.031-10.032c2.889 0 5.488 1.235 7.32 3.196-.135-.07-.058-.091-.275-.042 0 0-.175-.026-.234.247-.046 0-.649.208-.983-.015-.062-.11-.063-.192-.125-.302-.069-.17-.397-.241-.53.083-.016.173.021.317-.046.454-.25.311-.547.799-.765.871-.098-.005-.084-.146-.155-.335-.013-.127-.527-.204-.537.179.052.876-.096.856-.096.856m-25.334 15.729l.851-.575-.505-.894.979.307.384-.953.371.958.984-.294-.518.888.843.585-1.017.148.069 1.025-.751-.703-.758.693.08-1.023-1.012-.162m4.955-6.127l-.809-.539-.79.569.279-.917-.8-.553.98-.026.293-.913.329.901.981-.009-.778.582.315.905m41.84 7.754l-14.288-7.145c.813-1.619 1.282-3.44 1.282-5.373 0-6.633-5.396-12.03-12.029-12.03-4.701 0-8.77 2.716-10.748 6.656l-14.287-7.144c4.603-9.17 14.094-15.482 25.035-15.482 13.508 0 24.813 9.615 27.43 22.36-.115-.057-.23-.114-.334-.183-.486-.12-.816-.144-1.148.053-.104.058-.21.113-.315.171l-.517-.069c-1.135.027-1.315-3.728-1.838-5.259v.001c-.34-1.009-2.841-3.043-4.697-4.317-.44-.252-.699-.063-.613.339.246.348.439.734.686 1.08.079.238.208.399.286.636l.091.449c.592.558.705 1.06.705 1.06.36.58.674 1.001 1.264 1.454.646.34.286 1.579.355 2.219.03.406-.264.379-.521.351-2.146-1.684-4.133-1.534-5.923-1.931-.689-.019-.678.309-.439.472 1.325 1.212 2.545 2.013 4.116 2.639.267.138.531.275.799.414.309.219.62.438.928.658.706.384.793.779.795.815.08.815-.304 1.485-.411 1.75-.163.883-2.96 2.804-8.048 3.82-.096-.04-.668.101.023.291 5.255-.405 9.305-3.133 9.57-3.245.783-.499 3.034-1.167 3.526-1.645.601-.096 1.222-.226 1.226-.748.163-.127.41-.107.593-.395.265 1.548.411 3.137.411 4.76 0 4.498-1.072 8.748-2.965 12.518"/></svg>