<svg xmlns="http://www.w3.org/2000/svg" viewBox="0 0 64 64" enable-background="new 0 0 64 64"><path d="M32,2C15.432,2,2,15.432,2,32s13.432,30,30,30s30-13.432,30-30S48.568,2,32,2z M53.677,14.299H32v5.9h25.383
	c0.871,1.865,1.543,3.84,1.986,5.9H32v-5.9H20.2V32H32h28v0c0,2.023-0.221,3.996-0.631,5.9H4.631C4.221,35.996,4,34.023,4,32v0h10.3
	V20.2H6.617c0.991-2.124,2.238-4.105,3.707-5.9H14.3v-3.976c1.795-1.469,3.776-2.715,5.9-3.707v7.683H32v-5.9h15.038
	C49.551,10.006,51.795,11.998,53.677,14.299z M10.323,49.7c-1.468-1.795-2.715-3.776-3.707-5.9h50.768
	c-0.991,2.124-2.238,4.105-3.706,5.9H10.323z M16.961,55.6h30.078C42.691,58.381,37.533,60,32,60
	C26.467,60,21.309,58.381,16.961,55.6z"/></svg>