<svg xmlns="http://www.w3.org/2000/svg" viewBox="0 0 64 64" enable-background="new 0 0 64 64"><path d="m32 2c-16.568 0-30 13.432-30 30s13.432 30 30 30 30-13.432 30-30-13.432-30-30-30m0 2c8.279 0 15.729 3.615 20.859 9.347v37.307c-.348.388-.701.769-1.069 1.137l-39.58-39.581c5.07-5.069 12.07-8.21 19.79-8.21m-21.654 14.208l.913-2.925.913 2.925 2.929.01-2.365 1.817.897 2.933-2.374-1.804-2.375 1.804.897-2.933-2.209-1.697c.023-.041.047-.08.07-.121l2.704-.009m30.18 31.651l-2.374-1.802-2.375 1.802.897-2.931-2.365-1.816 2.929-.01.914-2.927.914 2.927 2.928.01-2.365 1.816.897 2.931m-7.62-9.654l.896 2.933-2.374-1.804-2.375 1.804.897-2.933-2.365-1.817 2.93-.01.913-2.925.913 2.925 2.93.01-2.365 1.817m-6.723-6.723l.897 2.931-2.375-1.803-2.375 1.803.897-2.931-2.364-1.818 2.928-.01.914-2.925.914 2.925 2.928.01-2.364 1.818m-6.724-6.723l.897 2.931-2.375-1.802-2.374 1.802.897-2.931-2.364-1.817 2.928-.009.913-2.926.915 2.926 2.928.009-2.365 1.817m25.416 28.021l-2.375 1.804.898-2.932-2.365-1.818 2.928-.01.914-2.925.914 2.925 2.928.01-2.364 1.818.611 1.996c-.172.109-.341.221-.515.326l-1.574-1.194"/></svg>