<svg xmlns="http://www.w3.org/2000/svg" viewBox="0 0 64 64" enable-background="new 0 0 64 64"><path d="m18.757 25.537c2.328-.678 4.786-1.065 7.34-1.065 8.362 0 15.779 3.908 20.442 9.916.128-.78.211-1.573.211-2.388 0-8.146-6.604-14.75-14.75-14.75-5.825 0-10.846 3.384-13.243 8.287"/><path d="m26.097 28.493c-3.121 0-6.072.676-8.746 1.84-.062.547-.101 1.103-.101 1.667 0 8.146 6.604 14.75 14.75 14.75 5.511 0 10.308-3.028 12.84-7.506-3.635-6.395-10.665-10.751-18.743-10.751m-3.93 8.424c-.543 0-.983-.44-.983-.983 0-.544.44-.983.983-.983.543 0 .983.439.983.983 0 .543-.44.983-.983.983m0-3.934c-.543 0-.983-.439-.983-.983s.44-.983.983-.983c.543 0 .983.439.983.983s-.44.983-.983.983m3.933 5.901c-.543 0-.983-.44-.983-.983 0-.544.44-.983.983-.983s.983.439.983.983c0 .542-.44.983-.983.983m5.9 3.932c-.543 0-.983-.439-.983-.983 0-.543.44-.983.983-.983s.983.44.983.983c0 .544-.44.983-.983.983m0-3.932c-.543 0-.983-.44-.983-.983 0-.544.44-.983.983-.983s.983.439.983.983c0 .542-.44.983-.983.983m3.934 1.966c-.544 0-.983-.439-.983-.982 0-.544.439-.983.983-.983.543 0 .982.439.982.983 0 .542-.439.982-.982.982m3.933 1.966c-.544 0-.984-.439-.984-.983 0-.543.44-.983.984-.983.543 0 .982.44.982.983.001.544-.439.983-.982.983m0-3.932c-.544 0-.984-.44-.984-.983 0-.544.44-.983.984-.983.543 0 .982.439.982.983.001.542-.439.983-.982.983"/><path d="M32,2C15.432,2,2,15.432,2,32s13.432,30,30,30s30-13.432,30-30S48.568,2,32,2z M60,32c0,2.058-0.229,4.062-0.652,5.994
		L32,51.667L4.653,37.994C4.229,36.062,4,34.058,4,32s0.229-4.062,0.653-5.994L32,12.333l27.348,13.673
		C59.771,27.938,60,29.942,60,32z"/></svg>