<svg xmlns="http://www.w3.org/2000/svg" viewBox="0 0 64 64" enable-background="new 0 0 64 64"><path d="m32 2c-16.568 0-30 13.432-30 30 0 16.568 13.432 30 30 30s30-13.432 30-30c0-16.568-13.432-30-30-30m-26.55 21.125v8.875h-1.45c0-3.101.515-6.083 1.45-8.875m6.892 17.742l-3.102-1.432-.84 3.381-.841-3.381-2.246 1.037c-.057-.18-.109-.363-.163-.545l1.358-1.842-2.052-1.082c-.033-.178-.067-.355-.096-.535l2.522-.066-.672-3.419 2.19 2.669 2.189-2.669-.672 3.419 3.4.09-3.026 1.594 2.051 2.781m19.658-28.533v1.965h-8.26l8.26 10.326v2.516l-10.396-12.842h-5.9l14.329 17.701h-3.933l-11.8-14.75v14.75h-1.967-.983v-18.888c.562-.613 1.149-1.201 1.763-1.762h18.887v.984m0-6.884h-8.876c2.791-.935 5.773-1.45 8.876-1.45v1.45m17.916 12.783l1.75 2.137 1.752-2.137-.538 2.735 2.72.073-2.42 1.275 1.641 2.225-2.48-1.146-.675 2.705-.672-2.704-2.481 1.146 1.642-2.225-2.421-1.275 2.72-.073-.538-2.736m-4.929 12.209l-2.481-1.146-.672 2.704-.674-2.705-2.48 1.146 1.641-2.226-2.42-1.274 2.72-.074-.538-2.734 1.752 2.136 1.75-2.136-.537 2.734 2.72.074-2.421 1.274 1.64 2.227m9.833 13.765l-2.48-1.145-.674 2.703-.672-2.703-2.481 1.145 1.642-2.225-2.421-1.275 2.72-.072-.538-2.735 1.75 2.135 1.752-2.135-.538 2.734 2.72.072-2.42 1.275 1.64 2.226"/></svg>