<svg xmlns="http://www.w3.org/2000/svg" viewBox="0 0 64 64" enable-background="new 0 0 64 64"><path d="m7.878 23.604c-.323.441.167.534.38.194.363-.382.813-.849 1.354-.463.257.242.409-.129.593-.107.119.301.268.013.399-.071.22-.027.158.272.417.087.517-.342 1.154-.055 1.657-.387.54-.246.077.198-.07.371-.236.457-.033 1.059-.544 1.343-.207.546.242 1.267-.215 1.672-.067.252.588.223.771.327.323.013-.013-.738.308-.838.429.266.407-.476.319-.704.042-.519.07-1.087.33-1.557.274-.577.528.235.221.463-.175.53-.429 1.194-.033 1.687.115.025.21.303.357.387.148.085.35-.022.387-.274.189-.758.096-1.575.366-2.314.027-.033.059-.04.089-.057.001.351-.02.934-.133 1.615-.185 1.111-.24 1.21-.441 2.063-.204.853-.232.927-.417 1.423-.185.497-.204.522-.492.983-.288.459-.184.288-.344.564-.08.138-.179.101-.23.202-.056.1-.065.338-.065.338h2.211c0 0 .1-.202-.022-.303-.121-.102-.596-.124-.467-.482.263-.737.3-.51.465-2.259.128-1.356.204-3.305.232-4.115.075.052.145.122.189.202.379.441.647.993 1.106 1.357.419.196.789.492.983.923-.004.332.943.384.661.014-.271-.36-.093-.72.182-.96.148.038.104-.227-.011-.123-.185-.043-.196-.382.062-.221.432.141-.035-.313-.192-.328-.365-.227-.786-.488-.966-.882.476.004.972.261 1.459.102.391-.2.786.017.922.361.304-.048.173-.351 0-.451.221-.091.375-.28.105-.447-.14-.185.19-.498-.217-.486.014-.311-.109-.594-.447-.701-.34-.288-1.335.422-1.306-.225-.103-.354.403-.048.545-.224.146-.372-.695-.335-.417-.623.181-.117 1.029-.284.363-.409-.332.091-.616.024-.88-.141-.237.399-.92-.216-.797.493-.094.268-.703.963-.868.43.141-.417.862-.553.638-1.116-.034-.352-.324.062-.463.035-.069-.218.212-.476.405-.528.387.298.399-.375.767-.319.267-.06-.087-.175-.161-.226.072-.197.485-.297.08-.468-.355-.265-.62.263-.914.291-.282-.319.258-.472.405-.64.008-.124-.314-.038-.217-.147.084-.15.653-.161.388-.386-.403-.139-.922-.104-1.308.075-.242.079-.315.628-.524.605-.098-.244.032-.727-.306-.798v.001c.02.344-.015.797-.157 1.167-.145.412-.302.823-.294 1.25-.229.079-.465-.496-.686-.158.165.466.55.835.811 1.256.046.13.423.47.203.549-.551-.188-.684-.887-1.027-1.311-.396-.713-1.137-1.219-1.961-1.253-.311.007-1.319-.077-1.056.453.386.263.862.434 1.242.728.284.027.799.501.769.68-.5-.202-.732-.444-1.271-.657-.729-.282-1.738-.113-2.142.611-.075.19-.187.738.05.791.276-.432.674-.915 1.26-.786.461.036-.515.859-.142.691.119-.052.39-.23.58-.25.189-.018.295.124.439.143.286.04.365.16.338.229-.03.083-.123.012-.415.106-.146.046-.221.173-.392.232-.169.059-.524.063-.656.011-.461-.199-1.22-.164-1.365.416 0 .255-.227-.029-.332.083-.079.278-.1.564-.513.54-.25.261-.507.535-.824.721.187.428.926-.431.892-.07m8.253-.677c.09-.06.191-.104.299-.128.308-.052.006.466-.14.458.013-.186-.444-.168-.159-.33"/><path d="m32 2c-16.568 0-30 13.432-30 30s13.432 30 30 30 30-13.432 30-30-13.432-30-30-30m25.252 28.593l-1.146-1.207-1.146 1.207.227-1.649-1.66-.144 1.434-.85-.922-1.387 1.557.589.51-1.585.509 1.585 1.558-.589-.923 1.387 1.433.85-1.659.144.228 1.649m-4.766 5.188l-.904-.563-.906.563.254-1.036-.814-.688 1.063-.077.403-.989.401.989 1.064.077-.814.688.253 1.036m-19.95-13.265c2.487 0 4.743.965 6.436 2.532-1.051-.527-2.222-.854-3.479-.854-4.312 0-7.805 3.496-7.805 7.805 0 4.309 3.493 7.804 7.805 7.804 1.259 0 2.43-.327 3.482-.855-1.694 1.569-3.95 2.536-6.439 2.536-5.239 0-9.486-4.246-9.486-9.485 0-5.237 4.247-9.483 9.486-9.483m8.669 8.751l-1.657.144.229 1.649-1.146-1.207-1.146 1.207.229-1.649-1.659-.144 1.431-.85-.92-1.387 1.558.59.509-1.584.509 1.584 1.558-.59-.922 1.387 1.427.85m4.609-12.258l1.558.59.509-1.586.51 1.586 1.557-.59-.922 1.386 1.434.85-1.66.144.229 1.65-1.146-1.208-1.146 1.208.229-1.65-1.659-.144 1.433-.85-.926-1.386m0 24.67l1.558.589.509-1.584.51 1.584 1.557-.589-.922 1.387 1.434.849-1.66.145.229 1.649-1.146-1.207-1.146 1.207.229-1.649-1.659-.145 1.433-.849-.926-1.387m-32.359-28.65c4.886 0 8.848 3.962 8.848 8.85s-3.962 8.85-8.848 8.85c-4.325 0-7.919-3.104-8.691-7.205.788-3.313 2.159-6.402 4.01-9.146 1.359-.85 2.959-1.349 4.681-1.349"/></svg>