<svg xmlns="http://www.w3.org/2000/svg" viewBox="0 0 64 64" enable-background="new 0 0 64 64"><path d="m38.555 32c0-3.328 2.253-6.107 5.245-6.743-.422-.094-.862-.14-1.31-.14-3.622 0-6.557 3.084-6.557 6.883 0 3.799 2.935 6.883 6.557 6.883.447 0 .888-.046 1.31-.141-2.992-.635-5.245-3.414-5.245-6.742"/><path d="m45.715 31.017l-.934-2.951-.906 2.951h-3.025l2.42 1.914-.916 3.002 2.427-1.845 2.43 1.845-.916-3.002 2.422-1.914z"/><path d="M32,2C15.432,2,2,15.431,2,32c0,16.569,13.432,30,30,30s30-13.432,30-30C62,15.431,48.568,2,32,2z M4,32
		c0-7.361,2.859-14.063,7.52-19.066L30.586,32L11.52,51.066C6.859,46.063,4,39.361,4,32z M23.581,41.832L33.414,32l-9.833-9.833
		h34.632C59.365,25.228,60,28.541,60,32c0,3.459-0.635,6.772-1.787,9.833H23.581z"/></svg>