<svg xmlns="http://www.w3.org/2000/svg" viewBox="0 0 64 64" enable-background="new 0 0 64 64"><path d="m41.767 41.184c0 .253-.283 1.264.184 1.83.313.379 1.441.604 1.52.619l.431 1.043.375-.413.752.036c-.275-.046-1.011-.857-1.011-.857-.032-.299-.399-.989-.399-.989 1.041.14 1.433-.968 1.433-.968-.26.105-.918-.193-.918-.193.958-.09.918-1.079.918-1.079-.155.663-1.423.574-1.423.574.365-.157.573-.888.573-.888-.084.26-.766.475-1.201.719-.437.244-.207.949-.207.949-.122-.084-.359-.459-.405-.789-.047-.328-.176-.459-.475-.496-.299-.039-.475.298-.475.298l-.443.229.451.016c-.002-.001.32.107.32.359"/><path d="m52.143 33.035c.389-.123.868-.258.944-.273-.192-.141-.995-.639-2.017.373l-.017.001c-1.021-1.013-1.825-.515-2.018-.374.076.016.555.15.945.273-.62-.1-1.395-.077-1.626.332l.914-.012c-.382.183-.591.201-.646.65.022-.009.497-.135.983-.264-.265.133-.501.293-.608.458.433.034.814-.083 1.103-.222-.179.229-.29.48-.274.625.216-.039.438-.224.619-.417-.11.423-.103.855.02 1.031.119-.091.209-.234.288-.391v2.089h.618v-2.082c.079.154.17.293.287.384.121-.176.13-.608.021-1.031.181.193.402.378.618.417.017-.145-.096-.396-.274-.625.288.139.67.256 1.103.222-.107-.165-.344-.325-.607-.458.485.129.96.255.983.264-.057-.449-.266-.468-.647-.65l.914.012c-.233-.409-1.008-.431-1.626-.332"/><path d="m43.656 34.229c-.006-.022-.013-.047-.021-.071-.021-.217-.092-.388-.236-.449-.23-.272-.467-.119-.666.186-.132.086-.221.17-.278.242.023-.851.146-1.639 1.251-.555 0 0 .025-.438-.608-.922-.662-.506-.931.117-1.004.895-.085-.145-.281-.37-.729-.563-.795-.342-.896.352-.773 1.109-.315-.387-.707-.561-1.073-.023-.4.588-.228.877-.228.877.708-1.367 1.104-.518 1.443.127-.447-.359-1.075-.66-1.184-.016-.083.487.13.628.13.628.046-1.275.808-.413 1.261-.146l.172 1.151.32-.04-.18-1.205c.078-.203.116-.57.197-.86.223.153.449.509.637.696l-.102 1.264.323.025.104-1.313c.085-.135.168-.354.259-.576.279-.041.349.553.468.842l-.472.968.234.108.488-1c.382-.303 1.129-1.535 1.128-.119 0 0 .185-.188.13-.691-.07-.65-.592-.253-.983.195.308-.742.669-1.672 1.223-.36 0 0 .156-.339-.167-.894-.35-.598-.761-.133-1.064.49m-2.537.519c-.011-.051-.022-.102-.034-.152.024-.023.048-.04.072-.052-.014.067-.027.136-.038.204m.158-.591c-.097-.019-.188-.002-.268.063-.019-.109-.032-.217-.037-.314.32-.295.528-.28.674-.115-.158.007-.28.156-.369.366m.296.149c.067-.094.158-.134.284-.084.052.168.094.354.135.53-.123-.168-.269-.332-.419-.446m.51-.629c-.004-.008-.008-.016-.011-.022.004.002.008.004.012.006-.001.005-.001.01-.001.016m.364.802c.001-.063.002-.127.003-.189.035-.021.068-.041.101-.059-.037.081-.072.164-.104.248m.791.605c-.078-.318-.224-.65-.433-.698.074-.147.154-.269.243-.325.368.007.262.562.19 1.023"/><path d="m52.322 39.781c-.409-.16-.863.348-.975.482-.291-.135-.583-.219-.783-.211-.837.031-.838.963-.838.963-.021 0-.047-.007-.066-.007-.631-.003-.134 1.383-.418 1.228-.401-.219-.624 1.043.009 1.465.01.006.019.008.027.014-.03.047-.076.109-.088.103-.609-.403-.999 1.257-.999 1.257s1.776-.68 1.118-1.152c-.033-.024.115-.1.115-.119 0-.006-.008-.013-.009-.018.932.483 1.644-.247 1.531-.453-.204-.371.918-.559.918-.846 0-.088-.025-.172-.059-.256.329-.168.685-.541.565-1.067-.05-.224-.298-.462-.603-.661.074-.088.211-.209.371-.309.228-.141.468.331.717.331.247 0 .242-.458.242-.47l.001-.002h.002c0 0-.307-.088-.778-.272"/><path d="m32 2c-16.568 0-30 13.432-30 30s13.432 30 30 30 30-13.432 30-30-13.432-30-30-30m-26.55 30h-1.45c0-3.102.515-6.084 1.45-8.875v8.875m26.55-19.666v1.966h-8.26l8.26 10.325v2.516l-10.396-12.841h-5.9l14.329 17.7h-3.933l-11.8-14.75v14.75h-1.967-.983v-18.888c.562-.613 1.149-1.201 1.763-1.763h18.887v.985m0-6.884h-8.876c2.791-.935 5.773-1.45 8.876-1.45v1.45m13.608 40.792c-2.094-.864-6.581-3.092-6.581-6.336v-.447h6.581v6.783m0-8.9h-6.581v-5.371h6.581v5.371m1.887-6.227c-.407-.498.085-.646.241-.602.336.092 1.034.871 1.293.517.003-.004.006-.008.009-.013.152-.244-.437-.405-.462-.592-.114-.855 1.231-.888 1.231-.888s-.842-.419-1.404.386c-2.716 1.391-5.281 1.142-5.463 1.177 0 0-.193.237-.772.376-1.019.332-2.428-.1-2.398-.406.121-1.284 1.807.045 1.807.045.234-.257.762-.44.762-.44.003-.007.008-.015.012-.021-.003-.001-.006-.002-.009-.002 0 0 .344-.779.465-1.039 0 0-.952.041-1.515-.56-.474-.505-1.447.116-1.447.116-.346-.33.917-.918 1.151-.932.235-.016.903.381.903.381 1.204.553 1.308-1.232 1.144-1.432 0 0 .442.199.46.545 0 0 .269-.389.735-.441 0 0 .139.39.13.728 0 0 .477-.147.702.13 0 0-.999.195-.729.729.423.841 3.861-.369 6.271-.234.989.055.97-.242.97-.242-.148-.07-.188-.334-.188-.334-.354-.332-1.677.188-2.438.316-3.356-.195-2.665.484-2.665.484-1.776-.799-.845-1.598-.845-1.598s.042.746 1.471.568c.651-.082 1.754.232 2.101.094s1.396-.374 1.871-.346c.883.052.872 1.008 1.48.157.14-.026.668.847.209 1.081 0 0-.224.029-.056-.31 0 0-.248-.141-.594.223-.318.333-.529.462-.81.458.054.028.488.556.705.547.217-.008.606-.008.685-.121 0 0 .173-.113.433-.043.26.068.433.25.494.736.025.182.368.199.368.32 0 .975-1.78.857-1.806.762-.044-.406.441-.381.441-.381s.493.035.546-.139c.052-.174-.061-.217-.156-.312-.095-.096-.147-.183-.096-.329 0 0-1.065.892-1.325-.13 0 0-.146.239.144.419 0 0-.325.152-.862-.809 0 0 .165.459-.061.684 0 0-.363-.113-.406-.527 0 0-.035.719-.451.493 0 0-.13-.026-.025.122.104.146.601.273.372.51-1.337 1.387-2.178.664-2.623.119m6.813 8.791c0 3.244-4.487 5.472-6.581 6.336v-6.783h6.581v.447m-6.581-2.564v-5.371h6.581v5.371h-6.581"/></svg>