<svg xmlns="http://www.w3.org/2000/svg" viewBox="0 0 64 64" enable-background="new 0 0 64 64"><path d="m32 34.925l2.764-1.956-1.057-3.166h-3.414l-1.057 3.166z"/><path d="m27.558 38.056l3.745-2.638-2.332-1.65z"/><path d="m28.539 32.476l.891-2.671-4.618.011z"/><path d="m32 24.727l-1.44 4.277h2.88z"/><path d="m39.188 29.816l-4.616-.011.889 2.671z"/><path d="m32.699 35.418l3.745 2.638-1.415-4.288z"/><path d="m32 2c-16.568 0-30 13.432-30 30s13.432 30 30 30 30-13.432 30-30-13.432-30-30-30m-5.683 21.629l3.056 3.782-.27.796-.131.001-3.299-4.088.644-.491m3.38 5.377v-.002l2.303-6.837 2.303 6.837v.002l7.385.021-5.959 4.247 2.26 6.851-5.986-4.211h-.003l-5.986 4.211 2.26-6.851-5.961-4.247 7.384-.021m8.629-4.885l-3.299 4.088-.131-.001-.27-.796 3.057-3.782.643.491m3.508 9.65l-.234.763-4.438-1.296.83-.59 3.842 1.123m-15.826-1.123l.83.59-4.435 1.296-.236-.763 3.841-1.123m5.583 4.536l.409-.288.411.288v4.65h-.82v-4.65m10.035 4.65c2.552-2.5 4.141-5.979 4.141-9.834s-1.589-7.334-4.141-9.833h16.587c1.152 3.061 1.787 6.374 1.787 9.833 0 3.459-.635 6.771-1.787 9.834h-16.587m-35.839-19.667h16.587c-2.552 2.499-4.141 5.979-4.141 9.833s1.588 7.334 4.141 9.834h-16.587c-1.152-3.063-1.787-6.375-1.787-9.834 0-3.459.635-6.772 1.787-9.833"/></svg>