<svg xmlns="http://www.w3.org/2000/svg" viewBox="0 0 64 64" enable-background="new 0 0 64 64"><path d="m29.324 35.378l-.578 2.052c-.059-.016-.117-.031-.172-.05-.385-.127-.84-.069-.84.386-.56-.121-.804.765-.197.966 0 .258 0 .455.396.524.897.258 2.447.384 4.066.384 1.62 0 3.17-.126 4.079-.384.385-.069.385-.267.385-.524.605-.201.361-1.087-.198-.966 0-.455-.454-.513-.839-.386-.055.019-.113.036-.174.052l-.605-2.153 3.226 3.143-.414-10.268c-.06-1.556-1.349-1.198-2.284-.638-.443.298-.917.455-1.412.497-.671-1.222-.299-2.72-.787-3.159-.229-.207-.924-.467-1.357-.493-.247-.014-.207.205-.207.205-.455-.131-.881-.075-1.086.077-.193.144-.003 1.058.139.932.343-.306.408-.222.614.113.169.272-.212 1.451-.691 2.335-.548-.021-1.071-.179-1.559-.507-.936-.561-2.224-.918-2.285.638l-.414 10.268 3.194-3.044m2.675 2.316c-.368-.016-.742-.028-1.107-.042l.731-3.326c.119.105.242.211.375.313.133-.104.258-.209.377-.314l.738 3.353c-.367.012-.744.016-1.114.016m-.862-4.292v-.31-3.399c.35-.107.68-.246.878-.396.179.153.476.286.797.388v3.463.207.104c-.005.006-.01.011-.015.019-.152.179-.318.35-.494.511-.098.091-.2.179-.305.262-.104-.083-.205-.169-.301-.258-.157-.144-.305-.294-.442-.451-.022-.026-.047-.054-.07-.08-.017-.02-.033-.039-.048-.06m.061-6.461c.206-.684.216-1.27.073-1.478-.164-.235-.398-.432-.669-.217-.112.091-.081-.421.073-.522.161-.107.522-.072.881.02 0 0-.031-.155.164-.146.343.02.865.164 1.027.325.128.127.287.469.252 1.335-.027.616.131 1.344.342 1.763-.435-.02-.883-.119-1.342-.288-.46.169-.911.269-1.348.288.189-.277.426-.678.547-1.08m-2.239.924c.412.265.853.409 1.312.451.054.004.107.008.161.012.502.021 1.029-.075 1.568-.266.543.19 1.07.286 1.576.266.106-.006.212-.018.316-.033.399-.058.785-.197 1.148-.43.84-.48 1.975-.795 2.164.328-.193-.127-.468-.286-.584-.286l.392 9.348-.192-.179-.404-9.023c-.133.131-.527.458-.601.53l.335 7.871-.268-.248-.332-7.417c-.131.132-.396.324-.469.397l.262 6.519-.781-.725-.733-2.603c.69-1.469.593-2.766.593-2.766-.07.014-.137.021-.207.021-.485 0-1.561-.244-2.029-.574-.067-.048-.123-.098-.162-.147-.043.046-.102.094-.176.14-.491.312-1.582.582-2.064.582-.07 0-.139-.008-.205-.021 0 0-.101 1.299.592 2.768l-.758 2.689-.751.682.265-6.628c-.072-.075-.342-.271-.477-.405l-.338 7.53-.272.248.341-7.987c-.072-.073-.477-.405-.612-.54l-.409 9.144-.197.179.397-9.471c-.107 0-.348.133-.54.256.249-.984 1.33-.673 2.139-.212"/><path d="M32,2C15.432,2,2,15.432,2,32s13.432,30,30,30s30-13.432,30-30S48.568,2,32,2z M5.787,22.167h52.426
		C59.365,25.229,60,28.541,60,32s-0.635,6.771-1.787,9.833H5.787C4.635,38.771,4,35.459,4,32S4.635,25.229,5.787,22.167z"/></svg>