<svg xmlns="http://www.w3.org/2000/svg" viewBox="0 0 64 64" enable-background="new 0 0 64 64"><path d="m32 2c-16.568 0-30 13.432-30 30s13.432 30 30 30 30-13.432 30-30-13.432-30-30-30m-2.984 45.718h2.279l.705-2.17.705 2.17h2.279l-1.844 1.341.703 2.168-1.843-1.34-1.846 1.34.705-2.168-1.843-1.341m-3.452.808l-1.844-1.341-1.846 1.341.705-2.168-1.844-1.341h2.279l.705-2.17.705 2.17h2.279l-1.846 1.341.707 2.168m-5.702-5.702l-1.846-1.341-1.844 1.341.704-2.168-1.846-1.341h2.28l.705-2.17.704 2.17h2.28l-1.844 1.341.707 2.168m-7.529-11.813h2.28l.705-2.168.704 2.168h2.28l-1.844 1.341.705 2.168-1.846-1.34-1.844 1.34.702-2.168-1.842-1.341m7.529-4.794l-1.846-1.34-1.844 1.34.704-2.168-1.846-1.341h2.28l.705-2.17.704 2.17h2.28l-1.844 1.341.707 2.168m5.702-5.702l-1.844-1.34-1.846 1.34.705-2.168-1.844-1.341h2.279l.705-2.17.705 2.17h2.279l-1.844 1.341.705 2.168m8.282-2.701l-1.846-1.339-1.844 1.34.705-2.168-1.846-1.341h2.281l.704-2.168.705 2.168h2.279l-1.844 1.341.706 2.167m13.981 8.403l-1.846-1.34-1.844 1.34.705-2.168-1.846-1.341h2.28l.704-2.17.705 2.17h2.28l-1.844 1.341.706 2.168m0 16.607l-1.846-1.341-1.844 1.341.705-2.168-1.846-1.341h2.28l.704-2.17.705 2.17h2.28l-1.844 1.341.706 2.168m-6.407-24.477l.703 2.168-1.844-1.34-1.846 1.34.705-2.168-1.844-1.341h2.279l.705-2.17.705 2.17h2.279l-1.842 1.341m-1.846 26.671l.705-2.17.705 2.17h2.279l-1.844 1.341.705 2.168-1.846-1.341-1.846 1.341.705-2.168-1.844-1.341h2.281m10.951-10.498l-1.844-1.34-1.846 1.34.705-2.168-1.844-1.341h2.28l.704-2.168.703 2.168h2.282l-1.846 1.341.706 2.168"/></svg>