<svg xmlns="http://www.w3.org/2000/svg" viewBox="0 0 64 64" enable-background="new 0 0 64 64"><path d="m31.017 18.233v1.311c.18 0 .342.073.46.191-.551.023-1.094.08-1.624.174-.414-.792-1.329-1.23-2.23-.999l.327 1.27c.166-.042.333-.013.474.063-.52.158-1.02.357-1.508.58-.596-.665-1.593-.863-2.409-.414l.632 1.148c.158-.086.337-.101.499-.054-.467.285-.919.592-1.343.935-.743-.495-1.755-.438-2.434.199l.897.957c.129-.122.295-.179.46-.176-.379.388-.726.805-1.051 1.239-.846-.299-1.816.009-2.317.796l1.108.702c.095-.151.243-.249.405-.286-.272.471-.519.957-.728 1.464-.888-.073-1.745.464-2.032 1.347l1.249.405c.055-.168.172-.298.318-.375-.144.518-.253 1.05-.329 1.593-.882.146-1.583.882-1.641 1.813l1.308.082c.011-.176.093-.33.214-.44-.001.081-.012.16-.012.241 0 .469.032.931.083 1.387-.813.363-1.305 1.246-1.13 2.158l1.289-.246c-.034-.172.007-.343.097-.48.126.533.287 1.051.479 1.555-.702.553-.961 1.535-.565 2.379l1.187-.561c-.075-.157-.078-.33-.026-.484.253.48.54.939.852 1.381-.544.711-.551 1.727.043 2.445l1.01-.837c-.115-.139-.162-.313-.145-.48.366.405.752.79 1.168 1.144-.349.824-.102 1.809.651 2.355l.771-1.062c-.141-.103-.226-.251-.255-.411.449.298.923.559 1.411.797-.134.885.35 1.779 1.216 2.123l.482-1.221c-.164-.064-.286-.19-.353-.341.512.179 1.033.334 1.572.444.097.883.784 1.62 1.704 1.736l.163-1.301c-.174-.022-.322-.113-.425-.24.334.027.669.051 1.011.051.207 0 .408-.021.613-.03.309.841 1.163 1.391 2.087 1.273l-.165-1.3c-.175.021-.344-.029-.475-.13.543-.092 1.077-.206 1.594-.368.51.727 1.465 1.042 2.328.701l-.484-1.219c-.162.064-.336.057-.487-.006.497-.223.973-.48 1.432-.765.675.588 1.689.659 2.444.11l-.771-1.06c-.144.104-.316.14-.479.115.426-.339.827-.704 1.204-1.096.801.399 1.799.218 2.393-.502l-1.011-.835c-.113.14-.275.219-.443.233.33-.434.635-.886.906-1.362.873.187 1.793-.238 2.188-1.082l-1.185-.557c-.073.154-.2.263-.349.322.207-.493.371-1.008.514-1.531.893-.036 1.679-.677 1.854-1.592l-1.289-.245c-.033.175-.135.319-.271.413.077-.533.13-1.074.136-1.627.854-.259 1.453-1.072 1.393-2l-1.307.083c.01.17-.049.328-.15.451-.058-.542-.161-1.071-.287-1.59.765-.462 1.145-1.402.857-2.288l-1.246.405c.055.169.035.345-.039.494-.192-.513-.408-1.015-.664-1.494.621-.638.754-1.639.256-2.422l-1.107.703c.096.149.121.323.088.484-.312-.445-.656-.864-1.021-1.264.452-.774.332-1.786-.349-2.425l-.897.956c.131.122.199.287.205.453-.412-.356-.846-.686-1.302-.985.241-.86-.125-1.805-.942-2.253l-.63 1.149c.156.085.264.228.312.388-.486-.242-.988-.454-1.508-.63.02-.892-.57-1.717-1.474-1.948l-.324 1.27c.165.042.295.148.382.281-.521-.109-1.057-.176-1.599-.216-.205-.867-.983-1.519-1.914-1.519m8.098 22.545c.041-.132.111-.255.23-.341l-.77-1.061c-.725.526-.976 1.455-.686 2.258-.379.232-.771.444-1.178.632.072-.114.169-.215.304-.269l-.481-1.219c-.838.332-1.313 1.178-1.225 2.032-.424.13-.859.228-1.303.308.098-.095.219-.168.364-.188l-.163-1.3c-.891.112-1.558.807-1.689 1.649-.173.009-.344.027-.52.027-.275 0-.544-.022-.814-.042.118-.065.25-.105.394-.087l.165-1.301c-.895-.113-1.718.399-2.053 1.191-.441-.092-.869-.217-1.29-.358.132-.036.273-.042.41.012l.484-1.219c-.834-.33-1.753-.043-2.275.633-.402-.198-.792-.415-1.165-.657.136-.002.272.027.391.113l.77-1.061c-.725-.527-1.688-.477-2.361.048-.336-.288-.651-.598-.951-.923.126.034.246.095.335.203l.762-.63c1.211.548 3.868.929 6.958.929 4.23 0 7.661-.713 7.661-1.59 0-.181-.151-.354-.418-.515.251-1.079-.356-2.632-.369-3.788-.01-.655-.608-3.538-.608-3.538s-.061.018-.148.039c.178-.126.201-.376.375-.915 0 .782 1.002 1.118 1.371.474.098-.172.408-1.009.215-1.153-.06-.044-.652-.321-.65-.314.072.369-.057.295-.106.564-.274-.937-.437-1.111-1.284-1.583-.551-.307.072-1.471-.044-1.825.376-.325-.289-.593-.646-.689.047-.094.08-.191.08-.292 0-.657-1.061-1.19-2.383-1.206.162-.137.255-.294.255-.463 0-.507-.831-.917-1.855-.917-.54 0-1.025.113-1.363.295-.198-.035-.409-.054-.632-.054-.904 0-1.659.321-1.82.744-.133-.014-.269-.022-.409-.022-1.026 0-1.855.41-1.855.917 0 .37.444.688 1.083.833-.22.105-.396.231-.524.37-.083-.167-.22-.292-.436-.31-.111-.009-1.323.317-.842.729-.116.354.507 1.518-.045 1.825-.847.472-1.01.646-1.283 1.583-.05-.269-.178-.196-.105-.564 0-.007-.591.27-.651.314-.196.144.117.981.215 1.153.369.643 1.372.309 1.372-.474.174.538.197.788.374.914-.087-.022-.147-.039-.147-.039s-.601 2.882-.609 3.539c-.015 1.082-.541 2.512-.402 3.575-.527.19-.876.404-.985.634-.451-.145-.943-.12-1.387.074-.258-.368-.5-.748-.714-1.145.125.063.234.157.299.293l1.187-.559c-.382-.811-1.25-1.23-2.093-1.095-.157-.414-.289-.84-.396-1.275.099.092.178.206.205.348l1.289-.245c-.169-.883-.91-1.508-1.765-1.582-.043-.403-.069-.812-.069-1.227 0-.039.005-.077.006-.116.077.115.127.25.119.398l1.308.083c.055-.895-.501-1.682-1.306-1.969.064-.444.153-.88.267-1.307.042.127.056.265.011.402l1.247.405c.279-.855-.069-1.76-.783-2.236.172-.414.373-.813.591-1.201.01.136-.01.275-.089.398l1.108.703c.479-.755.369-1.711-.194-2.35.268-.355.553-.696.86-1.017-.025.131-.078.257-.182.356l.897.954c.652-.613.785-1.569.394-2.329.346-.277.71-.529 1.087-.765-.057.12-.139.229-.264.297l.632 1.148c.784-.432 1.15-1.326.961-2.16.41-.185.829-.354 1.263-.49-.086.113-.201.205-.349.243l.327 1.27c.868-.223 1.443-.997 1.467-1.851.433-.075.874-.123 1.322-.146-.108.078-.233.133-.375.133v1.311c.897 0 1.647-.607 1.883-1.429.454.036.903.091 1.341.179-.129.057-.273.083-.422.045l-.326 1.271c.869.222 1.746-.179 2.178-.917.423.146.832.317 1.23.509-.133.017-.27.005-.395-.064l-.631 1.15c.786.432 1.738.26 2.34-.348.373.246.73.514 1.07.802-.135-.016-.268-.062-.375-.162l-.896.957c.652.612 1.611.684 2.345.25.299.329.58.673.839 1.035-.125-.049-.239-.126-.316-.248l-1.106.704c.482.758 1.399 1.066 2.22.822.208.392.387.8.549 1.217-.11-.078-.204-.182-.248-.32l-1.247.406c.276.853 1.085 1.379 1.94 1.348.104.433.188.874.238 1.325-.09-.105-.157-.232-.166-.382l-1.31.084c.058.896.711 1.606 1.548 1.789-.008.451-.047.894-.105 1.331-.059-.122-.09-.258-.063-.4l-1.287-.245c-.169.882.287 1.731 1.051 2.117-.12.436-.259.863-.429 1.276-.029-.136-.026-.279.037-.415l-1.188-.558c-.381.811-.15 1.748.492 2.312-.221.385-.467.753-.73 1.108.01-.132.047-.262.137-.371l-1.01-.836c-.572.691-.583 1.656-.1 2.361-.318.329-.646.634-.994.916m-12.617-4.117c.037-1.208.098-2.118.476-3.261 0 .724.365 1.293.323 2.094-.031.598-.025 1.193-.021 1.789-.271.041-.527.084-.77.132.013-.278-.014-.588-.008-.754m6.777-10.66c-.369.055-.701.152-.974.28.034-.082.054-.166.054-.253 0-.566-.792-1.042-1.859-1.171.15-.104.257-.225.306-.356.132.015.269.023.407.023.542 0 1.026-.114 1.366-.295.09.016.187.029.284.038-.35.209-.559.478-.559.77 0 .394.384.744.975.964m1.586 2.283c.916-.174 1.565-.613 1.565-1.125 0-.396-.384-.746-.978-.965.352-.052.666-.144.931-.263-.011.087-.017.177-.013.262.016.222.026.297.039.312.047.415.44.81.021 1.206-.559.529-.862.176-.805 1.151.046.394-.23.754-.147 1.165.006.045.002.025-.002.003.004.089-.4.188-.634.234h-2.738-2.679c.016-.012.032-.025.048-.037-.092-.012-.793-.146-.785-.262-.004.023-.008.042-.001-.002.076-.39-.159-.735-.145-1.105.195.528.911.922 1.772.922.528 0 1.004-.148 1.338-.385.257.462.928.792 1.717.792 1.011 0 1.828-.541 1.828-1.208 0-.26-.123-.499-.332-.695m2.798 9.272c-.237-.06-.501-.114-.776-.165.003-.611.009-1.221-.021-1.831-.045-.801.322-1.37.322-2.095.379 1.143.438 2.054.475 3.262.005.18-.026.533 0 .829m-.622-6.651c.005 0 .009 0 .014 0-.005 0-.01 0-.014 0m-.839-.11c-.019 1.321-.317 2.777-.317 4.166 0 .753-.106 1.5-.156 2.251-.275-.035-.562-.067-.859-.095.107-.228.2-.456.271-.679l.002.001c.003-.012.004-.021.008-.033.064-.201.113-.396.152-.585.006-.025.012-.051.018-.076.037-.189.064-.366.084-.532.004-.024.006-.046.009-.069.018-.161.028-.308.035-.436.001-.019.001-.031.002-.048.005-.123.007-.232.007-.313v-3.501c.312.16.569.101.703-.617-.201.642.338.681.77.677-.265.009-.529-.014-.729-.111m.39-4.899c-.005-.016-.004-.034-.012-.05.02.008.039.006.059.013-.018.008-.031.025-.047.037m-4.997 1.009c-.035.082-.056.166-.056.253 0 .334.278.638.726.857-.084.042-.163.089-.234.14-.257-.461-.93-.79-1.717-.79-.884 0-1.621.413-1.792.963-.076-.386-.354-.271-.788-.683-.379-.357-.099-.712-.004-1.083.4.397 1.223.673 2.184.673.652.001 1.243-.126 1.681-.33m-3.59 3.261c.139.744.41.782.737.599v3.583c0 .08.002.189.007.312 0 .018.001.03.001.048.006.129.018.276.036.438.002.022.005.042.008.065.02.168.048.349.087.542.003.019.008.036.012.056.042.202.095.412.166.631.066.205.152.415.249.626-.3.021-.59.046-.872.074-.05-.747-.158-1.492-.158-2.243 0-1.389-.295-2.846-.315-4.166-.212.102-.494.124-.772.111.439.006 1.022-.014.814-.676m-.905.673c.02.001.033.002.054.002-.019-.001-.036-.001-.054-.002"/><path d="m28.683 29.962c0 0 .001.001.001.002.005-.026.01-.06-.001-.002"/><path d="m35.473 30.029c0-.001.002-.002.002-.003-.012-.057-.007-.024-.002.003"/><path d="M32,2C15.432,2,2,15.432,2,32s13.432,30,30,30s30-13.432,30-30S48.568,2,32,2z M49.756,10.367H14.244
		C19.08,6.391,25.266,4,32,4S44.92,6.391,49.756,10.367z M47.733,32c0,8.689-7.045,15.733-15.733,15.733
		c-8.69,0-15.733-7.044-15.733-15.733S23.31,16.267,32,16.267C40.688,16.267,47.733,23.311,47.733,32z M14.244,53.633h35.512
		C44.92,57.609,38.734,60,32,60S19.08,57.609,14.244,53.633z"/></svg>