<svg xmlns="http://www.w3.org/2000/svg" viewBox="0 0 64 64" enable-background="new 0 0 64 64"><path d="m14.585 22.166l3.647-2.769 3.649 2.769-1.377-4.502 3.629-2.874h-4.498l-1.403-4.426-1.362 4.426h-4.538l3.63 2.874z"/><path d="m32 2c-16.568 0-30 13.432-30 30s13.432 30 30 30 30-13.432 30-30-13.432-30-30-30m12.502 4.957l-37.545 37.545c-.308-.614-.595-1.24-.858-1.879l36.525-36.523c.639.262 1.265.549 1.878.857m-25.002 50.088l37.545-37.545c.307.614.594 1.24.857 1.878l-36.523 36.523c-.639-.262-1.265-.549-1.879-.856m12.5-53.045c2.982 0 5.855.473 8.553 1.341l-35.212 35.212c-.868-2.698-1.341-5.571-1.341-8.553 0-15.439 12.561-28 28-28m0 56c-2.981 0-5.854-.473-8.551-1.34l35.211-35.211c.867 2.697 1.34 5.57 1.34 8.551 0 15.439-12.561 28-28 28"/></svg>