<svg xmlns="http://www.w3.org/2000/svg" viewBox="0 0 64 64" enable-background="new 0 0 64 64"><path d="m32 2c-16.568 0-30 13.432-30 30s13.432 30 30 30 30-13.432 30-30-13.432-30-30-30m-26.551 30h-1.449c0-3.102.514-6.084 1.449-8.875v8.875m12.971 16.047l-2.848-3.404-2.846 3.404.887-4.348-4.438-.104 3.955-2.018-2.688-3.533 4.043 1.832 1.086-4.301 1.088 4.301 4.043-1.832-2.688 3.533 3.953 2.018-4.438.104.891 4.348m13.58-35.713v1.965h-8.26l8.26 10.326v2.516l-10.396-12.842h-5.9l14.329 17.701h-3.933l-11.801-14.75v14.75h-1.967-.982v-18.889c.561-.613 1.148-1.201 1.762-1.762h18.888v.985m0-6.885h-8.877c2.791-.935 5.773-1.449 8.877-1.449v1.449m13.75 14.512l1.719.779.463-1.828.461 1.828 1.719-.779-1.143 1.502 1.68.859-1.887.043.379 1.848-1.209-1.447-1.211 1.447.377-1.848-1.887-.043 1.682-.859-1.143-1.502m-5.809 14.219l-1.211-1.45-1.209 1.449.379-1.85-1.889-.043 1.68-.857-1.141-1.502 1.717.779.463-1.828.463 1.828 1.717-.779-1.14 1.503 1.682.857-1.889.043.378 1.85m9.2 14.564l-1.209-1.445-1.211 1.445.377-1.848-1.887-.043 1.682-.859-1.143-1.5 1.719.779.463-1.83.461 1.83 1.719-.779-1.143 1.5 1.68.859-1.887.043.379 1.848m3.371-12.012l-.9-.656-.904.656.346-1.061-.902-.654h1.117l.344-1.059.344 1.059h1.113l-.902.654.344 1.061m3.597-6.453l-1.211 1.447.377-1.85-1.887-.041 1.682-.859-1.143-1.502 1.719.777.463-1.828.461 1.828 1.719-.777-1.143 1.502 1.68.859-1.887.041.377 1.85-1.207-1.447"/></svg>