<svg xmlns="http://www.w3.org/2000/svg" viewBox="0 0 64 64" enable-background="new 0 0 64 64"><path d="m9.577 41.73h3.23v1.625h-3.23z"/><path d="m30.637 41.73h3.23v1.625h-3.23z"/><path d="m31.111 32.987c-.002 0-.004-.001-.006-.001-.977 0-1.823.125-2.334.314l-.006 1.387c.502-.206 1.353-.359 2.33-.393.005 0 .011.001.016.001v2.05c-.001-.001-.001-.001-.002-.002l-.002-1.104c-.4.061-.697.158-.848.28l-.014.024c-.002.004.004.011.003.016-.003.009.001.021.001.031l.002-.013c-.003.026-.003.055.015.09-.015-.029-.017-.054-.017-.077l-.155 1.094c-.082.151.343.52 1.017.918v4.123h2.295v-3.11c.253.088.504.207.713.329-.202.152-.327.391-.327.654 0 .254.117.481.308.633-.109-.13.028-.414.257-.572.146-.098.248-.161.265-.248l.212-1.144v-.001c.062-.18-.556-.541-1.427-.862v-2.404-.289c.211.076.398.159.558.248-.171.018-.363.041-.559.041l.002 1.1c.637-.047 1.071-.216 1.121-.482l-.008.038.522-1.204c.072-.385-.615-.836-1.638-1.138v-2.814h.418v-1.733h-3.147v1.733h.435v2.487"/><path d="m16.897 26.459l.416 1.576c1.108.332 2.658.537 4.391.54 1.73-.003 3.28-.208 4.388-.54l.429-1.603c.755-.203 1.406-.698 1.945-1.751l.025.041c0 0 1.02-1.355-.312-2.513-.374-.325-1.137-.543-1.905-.543-.303 0-.597.033-.866.095.041.044-.541-.816-1.922-.816-.488 0-.934.12-1.277.32l-.008-.059c-.045-.191-.215-.334-.423-.369.216-.031.398-.156.483-.34h.001l.004-.004.05-.23-.004-.013c-.006-.263-.192-.475-.445-.548v-.01-.447h.344v-.324h-.344v-.32h-.342v.32h-.342v.324h.342v.443.012c-.263.068-.461.289-.461.561 0 .001 0 .001 0 .001v.001l.048.23.004.004h.001c.084.183.266.308.479.339-.209.034-.388.178-.433.37l-.008.057c-.344-.199-.787-.318-1.273-.318-1.352 0-1.963.859-1.922.816-.271-.062-.563-.095-.868-.095-4.188 0-2.537 2.596-2.256 2.999.568 1.111 1.258 1.607 2.061 1.794m9.377-4.556c2.07.03 2.437 1.361 2.041 1.996-.676-.457-1.646-.79-2.695-1.018.084-.272.102-.582-.058-.911.223-.043.465-.07.712-.067m-2.788-.724c1.497 0 1.92.935 1.674 1.607-1-.188-2.011-.291-2.836-.327-.045-.427-.077-.872-.083-.933.312-.214.753-.347 1.245-.347m-3.603 0c.49 0 .93.133 1.243.347-.006.061-.038.505-.084.931-.795.031-1.771.128-2.754.306-.192-.67.156-1.584 1.595-1.584m1.815 6.259c1.563.002 2.982.172 4.058.451-1.075.277-2.494.458-4.058.459-1.562-.001-2.974-.182-4.049-.459 1.076-.28 2.488-.45 4.049-.451m-4.605-5.535c.249 0 .489.023.712.067-.224.332-.226.644-.141.916-.993.22-1.919.53-2.586.953-.724-1.207.172-1.936 2.015-1.936"/><path d="m27.241 29.459c-.222 1.06-.346 1.757-.106 2.844.141.631-.428 1.158-.948.57-.306-.343-.39-1.084-.557-1.143.885.311.887-1.14.636-1.732v.002c-.425-.508-1.09-.811-1.637-.311-.223.213.459.372.48.443.147.492-.461.191-.524.412-.069.246.267.539-.548.44-.628-.075-.883-.542-.799-1.027 0 0-.532.282-.578.471-.171.7.974 1.156 1.21 1.406-.332.374-.604.367-.966.206-.328-.148.004.907.004.907 1.049-.083 1.427-.555 1.59-.681.154.443.521.88.979.883-1.246-.008-.743.789-.743.789-.052.687-.326.193-.628.049-.315-.148-.95.883.129.971.006 0 .413-.17.57-.17.934 0-.177-.971.807-.92-.085.198.912.314.559 1.448 0 0-.274.667.558.368-.156.057.191-1.207.199-1.197-.32-.307-.785-.915-.016-1.092 1.16-.266.131-1.596.202-2.279.032-.317.574-.791.747-1.076-.111-.011-.089-.404.044-.688-.173.224-.647.249-.664.107"/><path d="m21.55 43.878l.228.524.23-.524-.228-.524z"/><path d="m25.113 40.38l-1.903 1.902 1.903.869z"/><path d="m25.447 40.38v2.771l1.904-.869z"/><path d="m27.484 41.941v-3.934l-1.966 1.966z"/><path d="m25.447 37.858v1.709l1.711-1.709z"/><path d="m8.611 38.268l.213 1.145c.018.087.117.15.264.248.229.158.366.442.259.572.188-.151.308-.379.308-.633 0-.265-.125-.502-.328-.655.21-.121.461-.24.714-.328v3.11h2.295v-4.123c.673-.398 1.097-.767 1.017-.918l-.156-1.095c0 .024-.003.05-.019.081.02-.039.021-.07.016-.1l.003.019c0-.015.008-.032.002-.046l-.013-.024c-.15-.122-.448-.22-.846-.28l-.004 1.104v-2.049c.005 0 .011-.001.016-.001.955.032 1.781.181 2.289.38v1.812h-.002v.053h.802v6.762c.217.254.462.486.748.671v-7.473h.832l.02 7.863c.233.076.477.127.729.156v-8.019h.83v8.021c.253-.028.496-.078.729-.153l.021-7.868h.102c.011.729.289 1.379.729 1.841v5.637c.296-.192.548-.435.771-.7l-.014-4.409c.246.104.51.167.787.17v2.157c0 1.858 1.593 3.364 3.554 3.364 1.963 0 3.555-1.506 3.555-3.364v-4.709h-4.799c.001-.01.003-.019.003-.029 0-1.426-1.027-2.582-2.295-2.582-.007 0-.013.002-.02.002v-5.252h-7.083v4.666c-.514-.184-1.344-.305-2.299-.305-.002 0-.004.001-.006.001v-2.488h.433v-1.733h-3.147v1.733h.419v2.813c-1.023.303-1.712.754-1.64 1.139l.521 1.204-.007-.038c.052.267.485.436 1.121.482l.005-1.1c-.197 0-.39-.023-.559-.041.159-.089.348-.172.559-.249v.29 2.404c-.874.323-1.49.684-1.429.864m16.431 1.705l-1.69-1.689c.075-.083.142-.175.206-.27l1.556 1.554-.002-1.709h-1.452c.063-.108.122-.219.17-.337h3.991v4.91l-2.373 1.092v.002h-.004-.328-.002v-.002l-2.374-1.092v-3.658c.118-.064.23-.141.336-.225v3.393l1.966-1.969m-2.561-4.825l.423 1.078-.286.099.132.374h-.535l.135-.374-.287-.099.418-1.078m-.751 1.291l.423 1.078-.286.1.135.373h-.536l.132-.373-.285-.1.417-1.078m-.751-1.291l.423 1.078-.286.099.133.374h-.534l.133-.374-.285-.099.416-1.078m-4.79-.822h.522v-2.088h-.261v-1.045h.489v-.358h-.229v-.522h.978v.522h-.229v.358h.49v-1.141h-.262v-.522h1.013v.522h-.26v1.141h.49v-.358h-.229v-.522h.978v.522h-.229v.358h.489v1.045h-.259v2.088h.522v.229c-.231.237-.421.522-.551.848h-3.462v-1.077"/><path d="M32,2C15.432,2,2,15.432,2,32s13.432,30,30,30s30-13.432,30-30S48.568,2,32,2z M8.852,16.267h46.297
		C58.208,20.754,60,26.171,60,32s-1.792,11.246-4.852,15.733H8.852C5.792,43.246,4,37.829,4,32S5.792,20.754,8.852,16.267z"/></svg>