<svg xmlns="http://www.w3.org/2000/svg" viewBox="0 0 64 64" enable-background="new 0 0 64 64"><path d="m32 2c-16.568 0-30 13.432-30 30s13.432 30 30 30 30-13.432 30-30-13.432-30-30-30m0 2c13.791 0 25.276 10.023 27.574 23.167l-23.875-5.306c-.08-1.795-.613-4.78-3.168-5.971l-2.133-.994v2.354 1.85h-1.475v1.256l-19.843-4.41c5.069-7.217 13.45-11.946 22.92-11.946m-17.225 24.557h2.441c0 0 0 2.408 3.154 4.083v7.852h-3.154v-6.908c0-.001-2.441-.631-2.441-5.027m14.758 2.894l-4.937-1.097c.063-.395.155-.784.278-1.167.874.641 1.964 1.146 3.229 1.146.482 0 .961-.075 1.43-.225v1.343m-6.536.142c0 4.041 2.533 7.468 6.051 8.708l1.946-4.85h.04v-7.554c-.404.15-.941.363-1.627.659-.451.194-.887.277-1.303.277-2.498 0-4.292-2.999-4.292-2.999s.152.021.409.021c.73 0 2.307-.172 3.661-1.487.527-.513 1.087-.695 1.618-.695.572 0 1.11.212 1.535.45v-1.013h-.61v-2.51h1.475v-3.35c2.695 1.256 2.288 5.861 2.288 5.861h-1.524v1.134c.449-.284 1.068-.571 1.736-.571.531 0 1.092.183 1.619.695 1.354 1.315 2.931 1.487 3.66 1.487.257 0 .408-.021.408-.021s-1.793 2.999-4.291 2.999c-.416 0-.852-.083-1.303-.277-.811-.35-1.412-.582-1.83-.734v7.727l1.941 4.844c3.648-1.163 6.297-4.663 6.297-8.8 0-1.438-.33-2.796-.901-4.01 1.081 1.617 1.716 3.574 1.716 5.685 0 5.551-4.373 10.051-9.766 10.051-5.393 0-9.765-4.5-9.765-10.051 0-2.11.635-4.067 1.715-5.685-.573 1.213-.903 2.57-.903 4.009m16.147 1.995l-4.981-1.107v-2.441c.533.196 1.081.295 1.633.295 1.266 0 2.355-.505 3.229-1.146.25.778.377 1.583.377 2.405-.002.687-.095 1.354-.258 1.994m-17.274 5.994l.763.169c.017.026.037.05.054.075l-.557.854-.26.398v-.587-.909m1.516 1.918c1.914 2.71 5.012 4.474 8.512 4.489 3.499-.016 6.598-1.779 8.512-4.489l2.932 4.492c0 0-.146-.012-.4-.012-.831 0-2.818.123-4.686 1.164-.814.453-1.437.604-2.024.604-1.166 0-2.199-.594-4.333-.604-2.134.011-3.167.604-4.334.604-.588 0-1.21-.151-2.024-.604-1.868-1.042-3.854-1.164-4.685-1.164-.255 0-.401.012-.401.012l2.931-4.492m23.397-7.917v6.908h-3.152v-7.851c3.152-1.675 3.152-4.083 3.152-4.083h2.441c.001 4.396-2.441 5.026-2.441 5.026m0-6.526h-1.5v1.5c-.003.027-.12 1.51-2.248 2.69-.275-1.593-.869-3.111-1.77-4.469.051-.079.088-.139.108-.174l.757-1.266 7.729 1.718h-.635-2.441zm-38.865-9.32l20.604 4.578c-.616.171-1.189.494-1.688.979-.951.924-2.046 1.063-2.614 1.063-.114 0-.191-.006-.219-.01l-3.016-.344 1.539 2.603c.021.034.057.094.109.174-.587.884-1.04 1.839-1.365 2.836l-2.409-.535c-.123-.32-.142-.538-.143-.562v-1.5l-1.5.038h-2.441-1.5v.782l-8.604-1.912c.65-2.928 1.758-5.684 3.247-8.19m24.082 42.263c-14.196 0-25.95-10.621-27.752-24.334l11.468 2.548v2.277 1.5h1.5 3.154.904l-2.076 3.181-1.667 2.556 3.042-.24c.017-.001.119-.007.283-.007.664 0 2.378.095 3.954.975.973.542 1.848.794 2.755.794.668 0 1.245-.132 1.855-.271.703-.161 1.431-.328 2.487-.333 1.04.005 1.768.172 2.471.333.609.14 1.186.271 1.854.271.906 0 1.781-.252 2.754-.794 1.577-.88 3.292-.975 3.956-.975.164 0 .266.006.289.008l3.011.212-1.644-2.528-.412-.631 11.393 2.531c-4.983 7.766-13.686 12.927-23.579 12.927m16.283-24.381v-1.152c1.047-.747 2.441-2.4 2.441-5.91v-1.308l9.141 2.031c.088.896.135 1.802.135 2.72 0 2.086-.236 4.116-.671 6.073l-11.046-2.454"/></svg>