<svg xmlns="http://www.w3.org/2000/svg" viewBox="0 0 64 64" enable-background="new 0 0 64 64"><path d="m34.391 41.036l-2.497-1.456-2.497 1.456 2.497 1.444z"/><path d="m32 2c-16.568 0-30 13.432-30 30s13.432 30 30 30 30-13.432 30-30-13.432-30-30-30m0 2c15.439 0 28 12.561 28 28 0 3.459-.635 6.771-1.787 9.834h-17.469v-1.287h8.621v-1.418l-2.034-1.338v-13.164h.918v-1.056h1.132v-2.454h-1.132v1.352h-1.894v-1.352h-1.367v-8.29h.514v-1.123h.883v-2.151h-1.565v1.095h-1.535v-1.095h-2.342v1.095h-1.535v-1.095h-1.27v2.151h.492v1.123h.455v8.29h-.235v1.352h-2.13v-1.352h-.668v-10.477h.742v-1.491h.903v-1.733h-1.433v.956h-1.614v-.956h-1.843v.956h-1.615v-.956h-1.842v.956h-1.616v-.956h-1.432v1.733h.904v1.491h.741v10.477h-.667v1.352h-2.13v-1.352h-.235v-8.29h.455v-1.123h.492v-2.151h-1.27v1.095h-1.534v-1.095h-2.343v1.095h-1.535v-1.095h-1.564v2.151h.882v1.123h.514v8.29h-1.367v1.352h-1.894v-1.352h-1.131v2.454h1.131v1.056h.918v13.164l-2.035 1.338v1.418h8.622v1.287h-17.469c-1.152-3.063-1.787-6.375-1.787-9.834 0-15.439 12.561-28 28-28m-7.592 30.314v3.471h-4.803v-3.471c0-3.711 4.803-3.765 4.803 0m-3.97-11.845v-3.627c0-2.055 3.117-2.084 3.117 0l-.007 3.627h-3.11m9.602 31.972v-.946h1.268v-.714h-1.268v-.947h-1.608v.947h-1.183v-1.889h4.059v-6.783-.957l-2.755-1.598h-.653v-1.043h.653l3.341-1.939 3.341 1.939h.654v1.043h-.654l-2.754 1.598v.957 11.764.711h-1.173v-.711-.486h-4.059v-1.892h1.183v.946h1.608m3.825-36.421v4.449h-3.73v-4.449c0-2.281 3.73-2.281 3.73 0m-2.202-2.607v-3.584h.674v3.584h-.674m1.931-.257v-2.622h.682v2.622h-.682m-3.188 0h-.682v-2.622h.682v2.622m4.993 18.537v4.783h-6.799v-4.783c.001-4.69 6.799-4.677 6.799 0m8.996.621v3.471h-4.803v-3.471c0-3.765 4.803-3.711 4.803 0m-3.95-15.473c0-2.084 3.117-2.055 3.117 0v3.627h-3.111l-.006-3.627"/></svg>