<svg xmlns="http://www.w3.org/2000/svg" viewBox="0 0 64 64" enable-background="new 0 0 64 64"><path d="m32 2c-16.568 0-30 13.432-30 30s13.432 30 30 30 30-13.432 30-30-13.432-30-30-30m2.508 43.677l-.373-1.229c-.968.292-1.96.489-2.963.59l.126 1.277c-.544.054-1.09.08-1.636.08s-1.092-.026-1.637-.08l.126-1.277c-.999-.099-1.991-.294-2.964-.588l-.371 1.226c-1.048-.317-2.061-.736-3.023-1.251l.604-1.133c-.87-.467-1.711-1.021-2.504-1.673l1.832-2.233c1.893 1.55 4.195 2.512 6.629 2.768.441.047.879.069 1.313.069 1.298 0 2.556-.211 3.745-.586.674.401 1.35.81 2.039 1.233l.582 2.262c-.498.204-1.008.387-1.525.545m-7.602-8.948c-2.099-1.192-5.355-4.19-2.786-9.205.161 3.292 13.176 12.332 18.677 16.261l-.441.519c-1.597-1.208-3.287-2.396-4.918-3.547-3.301-2.324-6.714-4.727-9.574-7.421l-.221.232c2.877 2.712 6.301 5.122 9.608 7.451 1.626 1.146 3.308 2.328 4.896 3.53l-.787.924c-5.571-3.707-9.115-5.708-14.454-8.744m12.524-18.945c.002.002.005.004.008.006l.814-.993c.846.693 1.619 1.469 2.314 2.314l-.992.814c.648.789 1.209 1.63 1.678 2.512l1.133-.605c.515.965.935 1.977 1.252 3.023l-1.229.373c.293.968.49 1.96.59 2.963l1.276-.127c.108 1.089.108 2.184 0 3.272l-1.276-.126c-.099.998-.295 1.991-.588 2.963l1.227.373c-.317 1.047-.737 2.059-1.252 3.022l-1.133-.604c-.466.872-1.021 1.711-1.673 2.504-.002.002-.003.004-.006.008l.993.814c-.365.446-.763.861-1.172 1.267-.945-.674-2.138-1.529-3.447-2.488 2.266-2.003 3.824-4.816 4.166-8.061.723-6.876-4.266-13.037-11.143-13.759l.301-2.873c.977.102 1.934.298 2.863.58l.373-1.231c1.045.317 2.059.737 3.022 1.252l-.606 1.136c.885.473 1.725 1.03 2.507 1.671m-5.422 10.504l-1.072-3.303 2.81-2.041 1.995-1.449c.306.302.6.617.875.956 1.936 2.391 2.825 5.394 2.504 8.453-.039.37-.096.735-.168 1.096h-12.013c-.958-.843-1.793-1.636-2.438-2.338l.352-.257 2.807-2.04 2.809 2.04 2.489 1.809-.95-2.926m3.342-7.152h-2.192-3.472l-.945-2.904.126.013c2.446.256 4.69 1.275 6.483 2.891m-6.391 1h4.198l-3.396 2.468 1.296 3.993-3.396-2.468-3.395 2.468 1.297-3.993-3.396-2.468h4.198l1.296-3.991 1.298 3.991m-4.572 2.849l-1.03 3.175c-.141-.26-.228-.492-.237-.686l-.174-3.537 1.441 1.048m20.809 25.287c-.198 0-.421-.072-.657-.236-.615-.425-1.001-1.575-1.941-2.527-.619-.528-1.128-1.077-2.463-1.403l.773-.908.687-.807h-.001l.037-.043c.734.638 1.57 1.262 2.219 1.838.801.71 1.416 1.304 1.914 2.11.576.94.183 1.976-.568 1.976m.017-18.272l.057-.564c.114-1.151.114-2.318 0-3.47l-.099-.995-.995.099-.313.031c-.064-.401-.144-.801-.238-1.196l.302-.092.956-.291-.289-.956c-.334-1.102-.78-2.18-1.326-3.204l-.472-.883-.883.472-.276.147c-.213-.346-.439-.685-.678-1.015l.242-.198.773-.635-.635-.773c-.739-.898-1.564-1.724-2.454-2.453l-.772-.634-.635.773-.199.243c-.329-.237-.668-.463-1.017-.677l.149-.281.471-.882-.881-.471c-1.02-.545-2.098-.991-3.203-1.327l-.957-.29-.291.957-.092.303c-.689-.164-1.387-.283-2.084-.355l-.993-.104-.104.993-.201 1.917-.416-1.279-.951 2.926-1.071 3.3h-3.472-3.078l2.49 1.809 1.286.935-1.634 3.188c-.936 1.824-1.184 3.478-.973 4.933h-18.257c0-15.44 12.561-28.001 28-28.001s28 12.561 28 28h-12.787"/></svg>