<svg xmlns="http://www.w3.org/2000/svg" viewBox="0 0 64 64" enable-background="new 0 0 64 64"><path d="M32,2C15.432,2,2,15.432,2,32s13.432,30,30,30s30-13.432,30-30S48.568,2,32,2z M32,4c12.683,0,23.391,8.436,26.834,20H32V4z
	 M28,4.289c0.659-0.094,1.327-0.163,2-0.21V26h29.349c0.144,0.659,0.266,1.325,0.362,2H28V4.289z M16,9.027V24H5.166
	C6.994,17.861,10.868,12.608,16,9.027z M16,54.973C10.868,51.392,6.994,46.139,5.166,40H16V54.973z M20,57.302
	c-0.683-0.324-1.349-0.68-2-1.057V38H4.651c-0.144-0.658-0.266-1.325-0.362-2H20V57.302z M20,28H4.289
	c0.097-0.675,0.218-1.341,0.362-2H18V7.755c0.651-0.377,1.317-0.732,2-1.057V28z M32,60V40h26.834C55.391,51.564,44.683,60,32,60z
	 M59.349,38H30v21.921c-0.673-0.048-1.341-0.115-2-0.21V36h31.711C59.614,36.675,59.492,37.342,59.349,38z"/></svg>