<svg xmlns="http://www.w3.org/2000/svg" viewBox="0 0 64 64" enable-background="new 0 0 64 64"><path d="M32,2C15.432,2,2,15.432,2,32s13.432,30,30,30s30-13.432,30-30S48.568,2,32,2z M29.49,29.104L32,21.382l2.51,7.722h8.117
	l-6.567,4.771l2.51,7.723L32,36.825l-6.568,4.772l2.509-7.723l-6.567-4.771H29.49z M32,60C16.561,60,4,47.439,4,32
	c0-4.498,1.072-8.748,2.965-12.518l15.242,7.621h-6.99l10.372,7.535l-3.96,12.193L32,39.298l10.374,7.534l-3.743-11.517
	l18.404,9.202C52.432,53.688,42.941,60,32,60z"/></svg>