<svg xmlns="http://www.w3.org/2000/svg" viewBox="0 0 64 64" enable-background="new 0 0 64 64"><path d="m14.3 17.25v14.75h11.8z"/><path d="m32 2c-16.568 0-30 13.432-30 30s13.432 30 30 30 30-13.432 30-30-13.432-30-30-30m25.532 18.827h.006l.03.001c.036 0 .065.002.101.002.548 1.254 1.001 2.558 1.362 3.898l-.226-.399c-.352-.622-.908-1.113-1.653-1.466l.316-.062-1.824-1.348c-.167-.124-.387-.269-.649-.417.695-.127 1.507-.21 2.533-.21h.004zm-.727 6.7c-.099-.038-2.107-.573-4.166-1.116 1.117.559 2.118 1.241 2.575 1.938-.219.017-.435.025-.646.025-1.568 0-2.95-.447-4.024-.963.757.972 1.231 2.032 1.158 2.645-.91-.163-1.852-.944-2.615-1.764.465 1.794.428 3.625-.091 4.37-.487-.378-.884-.948-1.216-1.59v4.227l-.896-.555-.526-.325-.526.326-.666.412v-4.093c-.332.646-.729 1.217-1.222 1.598-.517-.745-.554-2.576-.085-4.37-.77.82-1.709 1.601-2.621 1.764-.069-.612.403-1.672 1.16-2.645-1.074.516-2.455.963-4.024.963-.212 0-.428-.008-.646-.025.455-.697 1.457-1.379 2.579-1.938-2.063.542-4.071 1.078-4.166 1.116.236-1.903 1.118-1.983 2.739-2.758l-3.874.053c.68-1.204 2.467-1.62 4.374-1.619.843 0 1.709.081 2.513.211-1.651-.523-3.682-1.093-4.002-1.155.429-.316 1.572-1.049 3.191-1.049 1.46 0 3.305.596 5.357 2.63l.068-.002c2.053-2.032 3.896-2.627 5.354-2.627 1.618 0 2.763.733 3.19 1.049-.32.063-2.353.632-4 1.155.804-.13 1.669-.211 2.512-.211 1.905 0 3.692.416 4.373 1.619l-3.874-.053c1.619.774 2.502.854 2.743 2.757m-14.465 16.702l-2.146-2.277.292-3.772 4.697-1.17-.455-.405 1.629-1.008 1.63 1.008-.457.405 5.221 1.595-.23 3.348-2.172 2.27-8.009.006m5.439.994v4.467h-2.615v-4.464l2.615-.003m-10.681-40.7h.009.012c.105 0 .196.005.298.007 4.624.91 8.845 2.959 12.352 5.846-.674.117-1.462.189-2.439.189h-.01-.01c-5.103 0-5.106-1.964-10.202-1.967-2.554.002-3.83.496-5.108.988v-4.083c1.273-.49 2.551-.98 5.098-.98m-5.098-.523v1.45h-8.875c2.791-.935 5.773-1.45 8.875-1.45m-28 28c0-3.102.515-6.084 1.45-8.875v8.875h5.899v-18.887c.562-.613 1.149-1.202 1.763-1.763h18.888v2.304c1.273-.49 2.551-.979 5.098-.979h.009.012c5.102 0 5.104 1.964 10.2 1.966 2.9-.001 4.154-.637 5.636-1.185.949 1.071 1.815 2.216 2.593 3.423-3.218.429-3.889 1.838-8.219 1.838h-.01-.01c-5.103 0-5.106-1.964-10.202-1.967-2.548.001-3.827.492-5.106.982v-3.432h-8.26l8.259 10.325v-2.823c1.273-.489 2.555-.975 5.098-.975h.009.012c.417 0 .797.015 1.149.039-.412.202-.74.417-.973.588l-1.83 1.351.315.062c-.742.353-1.297.843-1.647 1.464l-.576 1.021c-.567.16-1.065.348-1.557.538v1.251l-10.396-12.841h-5.9l14.329 17.7h1.967v-2.042c1.095-.422 2.197-.84 4.101-.95l-.134.205c0 0 4.209.085 4.342.119-.063.283-.097.566-.066.837l.12 1.06 1.05-.188c.365-.065.736-.197 1.115-.397-.012.994.146 1.944.594 2.589l.6.865.443-.342v.926c-2.305-.561-3.302-1.625-7.058-1.627-5.097.002-5.101 1.967-10.204 1.967h-.009-.012c-5.102 0-5.106-1.965-10.2-1.967-5.1.002-5.104 1.967-10.21 1.967h-.006-.004l-.03-.002c-.908-.001-1.646-.059-2.285-.149-.097-.944-.147-1.902-.147-2.871m2.466 11.174h-.004l-.03-.001c-.035 0-.064-.002-.1-.003-.585-1.337-1.072-2.726-1.443-4.161.462.052.965.087 1.543.088l.034.001c5.102-.001 5.102-1.967 10.204-1.967h.012.01c5.101 0 5.106 1.964 10.202 1.967 5.095-.003 5.101-1.967 10.204-1.967h.009.012c1.043 0 1.858.088 2.563.218l-.138.034-.056.719-.252 3.249c-.604-.089-1.296-.144-2.13-.144-5.097.003-5.101 1.967-10.204 1.967l-.009-.001-.012.001c-5.102 0-5.106-1.964-10.2-1.967-5.1.003-5.104 1.967-10.21 1.967h-.005m35.187 15.11c-1.116-.412-2.364-.772-4.547-.773-5.097.003-5.101 1.967-10.204 1.967l-.009-.001-.012.001c-.103 0-.192-.005-.291-.007-4.627-.909-8.85-2.959-12.359-5.848.674-.116 1.462-.188 2.438-.188h.012.01c5.101 0 5.106 1.964 10.202 1.967 5.095-.003 5.101-1.967 10.204-1.967h.009.012c5.102 0 5.104 1.964 10.2 1.967.012 0 .021-.001.031-.001-1.77 1.165-3.677 2.139-5.696 2.883m11.796-8.311c-1.713.576-2.91 1.354-6.121 1.354l-.01-.002-.01.002c-5.103 0-5.106-1.965-10.202-1.967-5.097.002-5.101 1.967-10.204 1.967l-.009-.002-.012.002c-5.102 0-5.106-1.965-10.2-1.967-2.9.001-4.154.637-5.635 1.186-.949-1.072-1.816-2.217-2.595-3.424 3.218-.43 3.89-1.838 8.218-1.838h.012.01c5.101 0 5.106 1.963 10.202 1.967 5.095-.004 5.101-1.967 10.204-1.967h.009.012c3.753 0 4.754 1.059 7.046 1.622v3.784h4.615v-3.508c3.428-.313 4.105-1.687 7.852-1.877-.902 1.665-1.973 3.226-3.182 4.668m4.979-8.738c-.271-.016-.554-.027-.859-.027l-.036-.001c-1.834 0-3.007.256-3.999.58l.215-3.114.055-.793-.412-.126c1.021-.346 2.219-.623 4.138-.623h.004.006l.03.001c.744.001 1.377.039 1.934.103-.263 1.37-.623 2.706-1.076 4m-.86-8.18h-.036c-4.558.002-5.056 1.567-8.753 1.9v-1.193l.435.337.603-.864c.447-.645.607-1.597.596-2.593.38.201.751.334 1.113.399l1.043.187.126-1.053c.013-.104.004-.212.001-.319.473-.18.963-.354 1.525-.499.115.004 2.755-.144 2.755-.144l-.142-.216c.225-.009 2.496.059 3.02.133.096.944.146 1.901.146 2.87 0 .427-.014.851-.032 1.273-.669-.129-1.44-.216-2.4-.218"/><path d="m47.338 37.508l-.016 2.898 1.558.254 1.312.469 1.32-1.935-4.174-1.686m2.463 2.419l-.584-.209-.086-.03-.09-.015-.262-.042v-.462l1.206.487-.184.271"/><path d="m41.203 39.194l1.318 1.935 1.312-.469 1.56-.254-.039-2.869-4.151 1.657m2.961.399l-.491.08-.091.015-.086.03-.584.209-.181-.266 1.433-.572v.504"/></svg>