<svg xmlns="http://www.w3.org/2000/svg" viewBox="0 0 64 64" enable-background="new 0 0 64 64"><path d="m32 2c-16.568 0-30 13.432-30 30s13.432 30 30 30 30-13.432 30-30-13.432-30-30-30m-.983 36.884v21.091c-.997-.034-1.981-.119-2.95-.256v-23.785h31.652c-.142 1.001-.333 1.986-.577 2.95h-28.125m-26.154.022c-.247-.972-.439-1.964-.582-2.973h15.919v21.45c-1.019-.476-2.003-1.009-2.95-1.599v-16.878h-12.387m12.387-13.789v-16.902c.947-.59 1.932-1.123 2.95-1.599v21.45h-15.919c.142-1 .332-1.985.577-2.949h12.392m10.816 2.949v-23.785c.969-.137 1.953-.222 2.95-.256v21.092h28.125c.245.964.436 1.949.577 2.949h-31.652"/></svg>