<svg xmlns="http://www.w3.org/2000/svg" viewBox="0 0 64 64" enable-background="new 0 0 64 64"><path d="m26.435 28.251c-.124.179-.201.322-.31.51.207-.14.392-.27.63-.386.521-.263 1.458-.27 1.842-.731.099-.117.038-.186-.044-.376.285-.094.392-.16.736-.238.836-.186 1.411.034 1.814-.064.127-.031.249-.101.258-.233l-.06-.421 1.356-.001c.002.238-.229.544.192.654.382.099 1.15-.119 1.815.066l.737.238-.072.177.026.192c.072.082.174.164.283.227.215.124.497.202.764.266.767.187.839.235 1.428.629-.037-.115-.318-.524-.412-.668l.725.057c-.124-.19-.507-.391-.728-.477l-.882-.322c.08-.154.146-.282.065-.409-.122-.186-.858-.547-1.044-.599-.318-.087-.653-.157-.967-.208-.314-.051-.918-.094-.918-.094-.044-.045.084-.285-.11-.452-.114-.091-.278-.122-.448-.139-.673-.064-1.59-.046-2.271 0-.195.012-.334.032-.447.139-.137.128-.154.207-.141.449-.91-.016-1.827.191-2.59.665-.351.217-.433.291-.24.641l-.444.157c-.292.11-.588.222-.836.371-.151.09-.214.158-.329.279l.727-.056-.105.157"/><path d="m37.871 35.451c.023-.108.084-.269.097-.373-.173.186-.328.379-.481.55-.073.097-.154.177-.228.281-.153.236-.124.244-.183.321-.537-.298-.779.43-1.142.876-.319-.179-.618-.298-.929-.391-.021-.011-.042-.024-.063-.034.177-.116.349-.308.486-.484.201.075.477.16.676.135.334-.041.586-.42.586-.42s-.351-.162-.664-.219c.141-.158.258-.386.345-.592.214.021.506.029.688-.044.311-.126.457-.558.457-.558s-.381-.066-.697-.04c.094-.188.146-.439.178-.661.211-.035.494-.102.651-.219.269-.202.298-.655.298-.655s-.387.033-.686.14c.043-.207.027-.462 0-.683.195-.089.452-.226.573-.38.206-.262.115-.708.115-.708s-.363.131-.625.311c-.013-.211-.093-.455-.178-.662.166-.135.377-.33.455-.512.13-.308-.073-.715-.073-.715s-.316.22-.525.461c-.066-.201-.208-.413-.344-.591.125-.173.279-.417.307-.613.047-.331-.257-.672-.257-.672s-.249.293-.386.58c-.261-.394-.902-.771-.902-.771s.012.086.033.21h-2.898v.483h-.309v-.65h-.54v.65h-.351v-.483h-2.732c.021-.124.033-.21.033-.21s-.643.377-.903.771c-.137-.287-.385-.58-.385-.58s-.304.341-.257.672c.027.196.182.439.307.613-.136.178-.278.39-.346.591-.207-.241-.524-.461-.524-.461s-.203.408-.072.715c.077.182.288.376.454.512-.085.207-.166.451-.178.662-.262-.18-.625-.311-.625-.311s-.09.446.116.708c.121.154.377.292.572.38-.028.221-.042.477 0 .683-.298-.107-.685-.14-.685-.14s.029.453.297.655c.156.117.44.184.652.219.03.222.083.472.178.661-.316-.026-.698.04-.698.04s.146.432.458.558c.182.073.474.064.687.044.087.206.204.434.345.592-.313.057-.663.219-.663.219s.252.379.586.42c.198.025.473-.06.674-.135.138.176.309.365.485.482-.035.009-.068.017-.105.025-.365.12-.609.204-.959.409-.134-.2-.317-.498-.446-.671-.073-.092-.174-.193-.3-.257-.198-.093-.271-.063-.397.044l-.089-.168c-.178-.314-.365-.458-.563-.711l-.178-.209-.064-.064c.077.252.132.492.182.768-.109-.061-.211-.121-.324-.17-.085-.031-.304-.08-.41-.067l.129.116c.223.197.369.459.458.752.097.316.324.654.563.887.048.049.186.173.276.205.267.097.255-.004.353-.052.205.348.337.522.575.787.256.269.656.341 1.021.257.162-.039.264-.084.391-.156.473-.273.246-.486.189-.703.145-.045.674-.205.918-.258-.204.196-.375.433-.375.433s.411.202.722.072c.269-.112.567-.508.647-.616.443-.023.932-.025 1.385-.001.076.106.378.504.646.617.312.13.722-.072.722-.072s-.158-.219-.353-.411c.302.079.765.208.827.244-.065.152-.091.227-.081.393.016.154.147.234.265.303.126.072.227.117.39.156.158.036.327.045.49.021.34-.057.518-.253.664-.43.242-.276.318-.444.441-.639l.119.08.238-.028c.117-.044.189-.133.271-.209.251-.241.463-.555.563-.896.121-.4.288-.59.584-.851-.383.013-.515.116-.729.237l.084-.395m-5.314-6.1v1.123l-.066-.096-.242.141v-1.168h.308m-.849 0v1.483l-.351.205v-1.688h.351m-.481 7.018c-.002-.004-.004-.01-.006-.014-.174-.286-.627-.361-.627-.361s0 .198.025.422c-.102.012-.209.009-.309.023-.061.008-.109.017-.165.025.03-.188.047-.401.003-.552-.093-.321-.51-.509-.51-.509s-.117.408-.113.734l-.017-.012c-.143-.092-.329-.161-.511-.213.099-.19.234-.486.23-.703-.007-.334-.359-.624-.359-.624s-.221.365-.301.683l-.014-.017c-.113-.126-.276-.24-.438-.337.146-.158.354-.409.406-.619.08-.324-.186-.695-.186-.695s-.309.296-.467.58l-.01-.018c-.078-.151-.207-.3-.339-.436.182-.115.452-.306.558-.496.163-.293.002-.72.002-.72s-.375.207-.603.441l-.004-.021c-.035-.166-.121-.342-.212-.507.206-.065.518-.183.667-.338.234-.24.189-.693.189-.693s-.417.102-.697.271l.001-.021c.009-.168-.024-.363-.069-.544.216-.011.544-.044.728-.154.289-.173.364-.621.364-.621s-.429-.008-.744.082l.007-.02c.052-.16.071-.356.075-.543.211.045.538.097.744.038.322-.093.513-.508.513-.508s-.412-.117-.74-.112l.012-.016c.127-.194.212-.471.266-.703l.528.558.007 2.121h1.924l-.768.447.137.246-.455.266.133.241h-.991l-.007 1.832c.104.799.693 1.071 1.225 1.068.358.004.48-.002 1.047-.006v-.884l1.199-.771v1.654l1.047.006c.53.003 1.17-.277 1.225-1.068l.007-1.832h-1.019l-.179-.257.065-.042-.625-.901h1.75v-2.072l.653-.7c.052.248.141.574.286.796l.012.016c-.329-.005-.74.112-.74.112s.19.415.514.508c.205.059.531.007.742-.038.004.187.023.383.076.543l.006.02c-.314-.09-.744-.082-.744-.082s.076.448.365.621c.183.109.512.143.728.154-.046.182-.079.376-.069.544l.002.021c-.282-.169-.698-.271-.698-.271s-.044.454.189.693c.149.155.462.273.669.338-.093.165-.178.341-.213.507l-.005.021c-.228-.235-.603-.441-.603-.441s-.161.426.002.72c.105.19.377.381.559.496-.133.136-.262.284-.34.436l-.01.018c-.158-.284-.468-.58-.468-.58s-.267.371-.185.695c.052.21.261.461.406.619-.162.097-.324.211-.438.337l-.014.017c-.08-.317-.3-.683-.3-.683s-.354.29-.36.624c-.004.217.131.513.23.703-.182.052-.368.121-.511.213l-.017.012c.004-.326-.113-.734-.113-.734s-.417.188-.51.509c-.045.153-.027.372.004.562-.02-.004-.035-.008-.055-.011-.154-.017-.29-.036-.42-.053.025-.222.024-.417.024-.417s-.452.075-.626.361c-.004.006-.006.014-.009.02-.534-.037-1.073-.037-1.618-.004"/><path d="m32 2c-16.568 0-30 13.432-30 30s13.432 30 30 30 30-13.432 30-30-13.432-30-30-30m5.9 35.9v21.469c-1.904.41-3.877.631-5.9.631s-3.996-.221-5.9-.631v-21.469h-21.469c-.41-1.904-.631-3.877-.631-5.9 0-2.024.221-3.997.631-5.9h21.469v-21.469c1.904-.41 3.877-.631 5.9-.631s3.996.221 5.9.631v21.469h21.469c.41 1.903.631 3.876.631 5.9 0 2.023-.221 3.996-.631 5.9h-21.469"/></svg>