<svg xmlns="http://www.w3.org/2000/svg" viewBox="0 0 64 64" enable-background="new 0 0 64 64"><path d="m43.641 20.357l-1.057-1.059c0 .001-.006.007-.006.008l.002-.008-6.352 6.352h2.959c-.778 2.246-1.426 5.077-1.576 8.52h-4.156v-8.52h1.721l-3.176-9.525-3.175 9.525h1.72v8.52h-4.156c-.151-3.442-.798-6.273-1.577-8.52h2.954l-6.351-6.352-2.114 2.111c.042.048 4.211 4.872 4.211 14.293v1.534h7.033v10.636h2.91v-10.635h7.031v-1.534c0-9.421 4.172-14.245 4.213-14.293l-1.058-1.053"/><path d="M32,2C15.432,2,2,15.432,2,32s13.432,30,30,30s30-13.432,30-30S48.568,2,32,2z M18.233,56.367V7.633
		C22.302,5.325,26.998,4,32,4s9.698,1.325,13.767,3.633v48.734C41.698,58.675,37.002,60,32,60S22.302,58.675,18.233,56.367z"/></svg>