<svg xmlns="http://www.w3.org/2000/svg" viewBox="0 0 64 64" enable-background="new 0 0 64 64"><path d="m32 2c-16.568 0-30 13.432-30 30s13.432 30 30 30 30-13.432 30-30-13.432-30-30-30m-25.369 41.833c-.306-.653-.588-1.32-.844-2h52.426c-.256.68-.538 1.347-.844 2h-50.738m50.738-23.666c.306.653.588 1.32.844 2h-52.426c.256-.68.538-1.347.844-2h50.738m-13.713 14.591l-2.215-1.365-.557 2.541-.602-2.53-2.189 1.402 1.363-2.214-2.54-.558 2.531-.601-1.404-2.191 2.215 1.365.557-2.541.602 2.53 2.189-1.402-1.363 2.214 2.54.558-2.531.601 1.404 2.191m-12.043 5.297c1.06 0 2.064-.209 2.989-.58-1.578 1.204-3.535 1.925-5.67 1.925-5.172 0-9.368-4.21-9.368-9.399 0-5.191 4.195-9.399 9.368-9.399 2.135 0 4.092.722 5.67 1.925-.925-.371-1.932-.58-2.989-.58-4.439 0-8.036 3.606-8.036 8.055s3.597 8.053 8.036 8.053"/></svg>