<svg xmlns="http://www.w3.org/2000/svg" viewBox="0 0 64 64" enable-background="new 0 0 64 64"><path d="m15.58 40.283c.476.081-.555-1.745-.555-1.745s-1.509-1.905-2.224-1.669c0 0-.159 1.352.397 1.985.556.638 1.906 1.351 2.382 1.429"/><path d="m13.04 40.283c0 0 .159 1.271 1.032 1.431.874.158 1.667.079 1.667.079s0-1.429-2.699-1.51"/><path d="m16.692 40.364c0 0 .079-.795.079-1.589 0-.795-.874-1.111-.874-1.111s.158 1.111.158 1.51c.001.395.637 1.19.637 1.19"/><path d="m15.575 42.444c0 0-.112.785.786.785.898 0 .112-1.009-.786-.785"/><path d="m17.597 43.623c-1.124-.225-2.078.056-2.078.056s-.111.675 1.235 1.011c1.348.338 2.526 0 2.526 0s-.56-.842-1.683-1.067"/><path d="m18.775 43.398c-1.292-2.919-2.638-2.527-2.638-2.527.167 1.911 2.638 2.527 2.638 2.527"/><path d="m20.292 43.341c-1.235-3.93-2.752-3.086-2.752-3.086 1.011 2.412 2.752 3.086 2.752 3.086"/><path d="m19.562 43.903c0 0 .281 1.629 3.482 1.74-1.966-2.302-3.482-1.74-3.482-1.74"/><path d="m20.576 42.834c0 0-.075.886.52.886.593 0 .074-1.14-.52-.886"/><path d="m19.482 45.133c0 0-.058.774.406.774.464 0 .057-.995-.406-.774"/><path d="m24.112 47.522c0 0-.074.885.521.885s.074-1.138-.521-.885"/><path d="m25.518 44.883c0 0-.075.886.519.886s.074-1.137-.519-.886"/><path d="m21.808 43.341c0 0 .449 1.742 3.032 2.136-.899-2.695-3.032-2.136-3.032-2.136"/><path d="m23.436 46.543c-1.123-.842-3.538-.225-3.538-.225 1.404 1.404 4.661 1.068 3.538.225"/><path d="m24.11 46.375c0 0 .056 1.402 3.425.953-1.797-1.74-3.425-.953-3.425-.953"/><path d="m26.861 45.308c0 0-.337 1.965 3.201 2.47-1.572-2.975-3.201-2.47-3.201-2.47"/><path d="m25.625 48.508c2.246 1.292 4.042.056 4.042.056-3.311-1.572-4.042-.056-4.042-.056"/><path d="m48.977 38.509c0 0-1.033 1.826-.557 1.748.477-.079 1.827-.796 2.382-1.429.557-.636.397-1.984.397-1.984-.715-.24-2.222 1.665-2.222 1.665"/><path d="m48.262 41.765c0 0 .793.08 1.667-.079.873-.159 1.033-1.429 1.033-1.429-2.7.078-2.7 1.508-2.7 1.508"/><path d="m47.229 38.747c0 .795.08 1.588.08 1.588s.635-.793.635-1.19.158-1.508.158-1.508-.873.317-.873 1.11"/><path d="m47.64 43.201c.898 0 .786-.786.786-.786-.899-.225-1.686.786-.786.786"/><path d="m46.403 43.595c-1.122.225-1.684 1.067-1.684 1.067s1.179.336 2.528 0c1.346-.338 1.233-1.01 1.233-1.01s-.953-.282-2.077-.057"/><path d="m45.225 43.37c0 0 2.471-.619 2.641-2.526-.001 0-1.348-.394-2.641 2.526"/><path d="m43.709 43.314c0 0 1.74-.675 2.751-3.089 0 .001-1.517-.842-2.751 3.089"/><path d="m40.957 45.615c3.201-.109 3.482-1.74 3.482-1.74s-1.515-.561-3.482 1.74"/><path d="m43.425 42.805c-.595-.251-1.114.886-.52.886.593-.001.52-.886.52-.886"/><path d="m44.113 45.878c.463 0 .405-.771.405-.771-.463-.224-.869.771-.405.771"/><path d="m39.367 48.379c.595 0 .521-.886.521-.886-.595-.253-1.115.886-.521.886"/><path d="m38.484 44.854c-.594-.252-1.115.886-.521.886.596 0 .521-.886.521-.886"/><path d="m39.16 45.448c2.583-.395 3.033-2.134 3.033-2.134s-2.134-.563-3.033 2.134"/><path d="m40.564 46.516c-1.123.842 2.135 1.178 3.537-.225.001 0-2.413-.618-3.537.225"/><path d="m36.466 47.301c3.368.45 3.425-.956 3.425-.956s-1.629-.785-3.425.956"/><path d="m37.14 45.279c0 0-1.63-.506-3.201 2.472 3.538-.506 3.201-2.472 3.201-2.472"/><path d="m34.332 48.536c0 0 1.797 1.235 4.043-.058 0 .001-.73-1.515-4.043.058"/><path d="m33.189 48.498l-.318-.357-1.049.449-1.035-.443-.317.357.595.278-1.508 1.111c0 0 .874.713.874.874 0 .158 1.23-1.512 1.23-1.512l.169-.45.168.447c0 0 1.23 1.667 1.23 1.509 0-.159.875-.873.875-.873l-1.51-1.112.596-.278"/><path d="m52.281 18.635c-.053.269-.59.751-.59.751s-1.23-.375-1.393.107c-.16.482-1.23 1.231-1.23 1.231l-.912.161-.374.536-.911.105c0 0-.215.697-.589.644-.375-.054-1.231.107-1.231.107s.16.481-1.019.856c-1.178.374-1.981 1.018-1.981 1.018-1.178-.215-1.393 0-1.393 0s-.803 1.019-1.607 1.019c-.802 0-.802.32-1.23.267-.429-.052-.857.32-.857.32l-2.625-.105c0 0-1.017-.32-1.338-.32-.322 0-1.071-.377-2.09-.323-1.018.054-2.624-1.071-2.624-1.071l-.107 1.339.482.697c0 0-.16 4.069-3.106 2.571-2.947-1.5-3.535.964-3.75 1.554-.214.588-.856.695-.856.695s-1.286-.107-1.768-.107-.91-1.126-.91-1.126l.214 1.395.268.91.642.268-.108.964.269.536v.535l.696.106.054.966.321.32 1.072 1.233 1.231.052.481.59.644.161.481.267c0 0 .269.107.644.375.375.269.268-.107.268-.107l.482-.321.536-.32.589-.054.535.215.857.803v.59c0 0-.054.481.161.535.215.053.107.053.535.053s.535-.534.535-.534v-.805c0 0 .107-.375.107-.588 0-.215.375-.322.375-.322s.59-.106.803-.268c.215-.161.43-.215.43-.215l.696-.161.803.215.591.375.16-.375.375-.269.855-.052.322-.429.696-.269.374-.321h.697l.268-.269.482-.429.965-.159c-.107-2.09.749-2.732.749-2.732h.374c0 0 .215 0 .43.107.214.107.32-.214.32-.214l.376-.215.052.267.59.162c0 0 .43.269.697.428.268.162.375.216.375 0 0-.213.214-.535.214-.535l.429-.482.803.056.43.372c0 0 .375.055.589.11.214.052.374-.056.374-.056l-.16-.749-.374-.642-.483-.323c0 0-.054-.695-1.017-1.338-.965-.644-.054-2.465-.054-2.465l.321-.374.856-.213.643-.164.107-.426.375-.107.214-.321.375-.481.482-.805.321.054.482-.644.75.054.374-.482.536-.374.215-.321h.535l.214-.107.16-.269.108-.642.75-.054.053-.536h.91v-.537l.589-.32.054-.858c0-.001-.482-.214-.535.053"/><path d="M32,2C15.432,2,2,15.432,2,32s13.432,30,30,30s30-13.432,30-30S48.568,2,32,2z M32,60C16.561,60,4,47.439,4,32
		S16.561,4,32,4s28,12.561,28,28S47.439,60,32,60z"/></svg>