<svg xmlns="http://www.w3.org/2000/svg" viewBox="0 0 64 64" enable-background="new 0 0 64 64"><path d="m32 2c-16.568 0-30 13.432-30 30s13.432 30 30 30 30-13.432 30-30-13.432-30-30-30m-11.806 18.173l7.726 2.193-4.932-6.328 6.296 4.979-2.132-7.73 3.91 7.004.993-7.957.927 7.967 3.969-6.973-2.199 7.714 6.339-4.924-4.985 6.285 7.744-2.126-7.016 3.902 7.516.938h-24.705l-.447-.056 7.977-.925-6.981-3.963m26.762 6.943l-4.028 8.058h-21.856l-4.028-8.058h29.912m-17.995 32.716l-21.054-42.076c.393-.661.813-1.303 1.257-1.928l22.121 44.153c-.782-.019-1.558-.066-2.324-.149m-6.843-22.658h19.764l-9.882 19.764-9.882-19.764m12.978 22.651c-.785.087-1.58.137-2.381.156l22.121-44.153c.455.64.884 1.298 1.284 1.976l-21.024 42.021"/></svg>