<svg xmlns="http://www.w3.org/2000/svg" viewBox="0 0 64 64" enable-background="new 0 0 64 64"><path d="m32 2c-16.568 0-30 13.432-30 30s13.432 30 30 30 30-13.432 30-30-13.432-30-30-30m27.445 24.452c.304 1.501.479 3.046.531 4.622l-44.642-21.546c1.243-.923 2.561-1.75 3.949-2.461l40.162 19.385m-44.637 25.989l19.026-19.027 1.415-1.414-1.415-1.414-19.026-19.027v-.063l42.485 20.504-42.485 20.505v-.064m4.475 4.493c-1.388-.711-2.706-1.539-3.949-2.462l44.642-21.546c-.052 1.576-.228 3.121-.531 4.622l-40.162 19.386"/></svg>