<svg xmlns="http://www.w3.org/2000/svg" viewBox="0 0 64 64" enable-background="new 0 0 64 64"><path d="m31.873 24.307l.576-.024.314.491.286-.514.574-.027-.312-.49.26-.516-.575.023-.312-.492-.262.515-.601.027.314.489z"/><path d="m29.473 24.84l.547-.136.418.416.156-.555.574-.141-.416-.419.182-.56-.575.135-.416-.417-.158.56-.547.137.39.423z"/><path d="m27.228 25.688l.52-.256.497.318.026-.579.522-.258-.469-.324.026-.58-.522.255-.471-.317-.05.58-.524.261.496.321z"/><path d="m34.954 24.26l.261.514.315-.491.573.024-.259-.518.312-.489-.574-.027-.288-.515-.314.492-.574-.023.262.516-.289.49z"/><path d="m37.383 24.565l.156.555.418-.416.548.136-.155-.557.416-.423-.575-.137-.155-.56-.419.417-.547-.135.157.56-.393.419z"/><path d="m39.705 25.171l.027.579.496-.318.522.256-.025-.579.47-.321-.523-.261-.026-.58-.496.317-.521-.255.051.58-.494.324z"/><path d="m33.963 38.864c.392-1.88 4.986.835 4.986-2.688v-10.476h-9.999c0 0 .024 6.611.024 10.266.001 3.761 4.311.966 4.989 2.898m4.594-12.647v9.653c0 3.247-4.232.747-4.594 2.479-.626-1.782-4.598.793-4.598-2.672 0-3.368-.023-9.461-.023-9.461h9.215z"/><path d="m30.333 30.641c.105.288.68.364.835-.158.184.133.21.236.574.21.393.549 1.203.261.888-.392.288.108.457.032.531-.171l-.009.066c.889.471.471 4.778-.496 6.735h2.403c-1.056-3.408-.938-6.223.188-6.88.127.027.293.024.543-.013.286.443.651.602 1.279.157.496.158.86.027.912-.364.393-.131.732-.759-.155-.993.13-.574-.315-.705-.811-.574.21-.313.104-.626-.417-.522-.054-.496-.705-.496-.756-.104-.289 0-.289 0-.444.183-.105-.313-.236-.393-.628-.444.104-.887-1.279-1.192-1.357-.549-.469-.075-.679.026-.521.471-.263 0-.34.13-.287.286-.471.054-.602.132-.574.576-.234.024-.55 0-.365.416-.34.158-.549.313-.209.757-.234.054-.289.158-.21.34-.13-.052-.288-.104-.313.158-.234-.052-.601-.131-.65.286-.604.027-.68.418.049.523m3.981-.903c.109-.026.232-.068.405-.143.063.08.116.148.167.208-.119.066-.341.208-.623.478.016-.177.034-.359.051-.543m-.716-.194c.104.063.183.105.259.142l-.007.628c-.056-.072-.338-.441-.644-.533.234.024.365.129.392-.237"/><path d="m39.888 35.928c.183.199.588 1.095.588 1.095-.298.436-.509.729-1.526 1.15-1.332.522-3.212.183-3.212.183l.054 1.279-3.604-.027.054-1.252c0 0-1.881.34-3.211-.183-.861-.35-1.371-.854-1.668-1.285 0 0 .665-.96.675-.96.157-.757-1.174-1.254-1.358-2.428-.104 1.93-1.043 2.608.154 3.261-.075.317-.185.671-.336.917.471 2.4 4.803 2.452 4.803 2.452v.443c0 .89 5.38.89 5.38 0v-.443c0 0 4.333-.052 4.776-2.452-.244-.396-.34-.915-.34-.915 1.202-.68.209-1.331.105-3.263-.184 1.174-1.49 1.671-1.334 2.428"/><path d="m32 2c-16.568 0-30 13.432-30 30s13.432 30 30 30 30-13.432 30-30-13.432-30-30-30m-14.841 40l-4.786 9.945c-.479-.471-.938-.96-1.381-1.464l8.899-18.481-8.898-18.481c.443-.503.902-.993 1.381-1.463l4.785 9.944h40.988c1.193 3.108 1.853 6.478 1.853 10s-.66 6.893-1.853 10h-40.988"/></svg>