<svg xmlns="http://www.w3.org/2000/svg" viewBox="0 0 64 64" enable-background="new 0 0 64 64"><path d="m27.567 33.848c.563 1.73 1.761 3.075 3.253 3.864-.914.33-1.881.503-2.863.455 1.16.378 2.348.417 3.46.183l.01.234.573.789.574-.789.01-.234c1.113.234 2.3.195 3.459-.183-.981.048-1.949-.125-2.861-.455 1.49-.789 2.689-2.132 3.251-3.864.839-2.577.046-5.406-2.009-7.176 2.23 3.302 1.422 7.758-1.774 10.084l.221-5.497v-4.335c-.346-.167-.646-.419-.87-.731-.224.313-.522.564-.87.731v4.335l.223 5.498c-3.198-2.325-4.007-6.783-1.774-10.085-2.058 1.769-2.85 4.599-2.013 7.176"/><path d="m36.572 36.859c-.004.006-.007.012-.011.017 2.692-1.558 3.614-5.003 2.059-7.697-.765-1.319-2.03-2.274-3.511-2.645 3.256 2.446 3.912 7.07 1.463 10.325"/><path d="m27.44 36.876c-.004-.005-.008-.011-.013-.017-2.447-3.256-1.792-7.879 1.463-10.325-1.479.37-2.747 1.325-3.509 2.645-1.557 2.694-.635 6.139 2.059 7.697"/><path d="m30.518 26.127c.48.338 1.145.223 1.482-.258.338.48 1.002.596 1.482.258.403-.282.559-.807.377-1.264-.102.545-.629.904-1.176.801-.287-.054-.537-.23-.684-.484-.146.254-.396.431-.684.484-.545.104-1.072-.256-1.176-.801-.18.457-.025.982.379 1.264"/><path d="m32 2c-16.568 0-30 13.432-30 30s13.432 30 30 30 30-13.432 30-30-13.432-30-30-30m23.567 18.266v.983h-.329v-1.313h2.025c.049.102.092.205.14.308v.61h.276c.048.11.099.219.145.329h-.749v-.918h-1.508zm.984.588v.329h-.459v-.329h.459m-5.572-.588v.589h.984v.329h-1.313v-1.247h1.836v-.983h.329v1.901h.589v-1.901h.327v1.901h.591v-1.901h.327v2.23h-2.163v-.918h-1.507m-4.59 0v.983h-.326v-1.313h2.162v.918h1.508v-.589h-.983v-.329h1.311v1.247h-2.162v-.918h-1.51zm.983.588v.329h-.457v-.329h.457m-1.375-1.506v-.329h5.966v.329h-5.966m-4.196.918v.589h.983v.329h-1.312v-1.247h1.836v-.983h.328v1.901h.59v-1.901h.328v1.901h.59v-1.901h.328v2.23h-2.164v-.918h-1.507m-4.588 0v.983h-.329v-1.313h2.165v.918h1.508v-.589h-.984v-.329h1.311v1.247h-2.162v-.918h-1.509zm.982.588v.329h-.459v-.329h.459m-1.377-1.506v-.329h5.966v.329h-5.966m-4.196.918v.589h.983v.329h-1.31v-1.247h1.836v-.983h.327v1.901h.589v-1.901h.329v1.901h.589v-1.901h.329v2.23h-2.163v-.918h-1.509m-4.588 0v.983h-.328v-1.313h2.164v.918h1.508v-.589h-.983v-.329h1.312v1.247h-2.165v-.918h-1.508zm.984.588v.329h-.459v-.329h.459m-1.378-1.506v-.329h5.965v.329h-5.965m-4.194.918v.589h.983v.329h-1.312v-1.247h1.836v-.983h.327v1.901h.591v-1.901h.327v1.901h.591v-1.901h.327v2.23h-2.163v-.918h-1.507m-4.59 0v.983h-.327v-1.313h2.162v.918h1.508v-.589h-.983v-.329h1.312v1.247h-2.164v-.918h-1.508zm.984.588v.329h-.459v-.329h.459m-1.376-1.506v-.329h5.965v.329h-5.965m-4.196.918v.589h.983v.329h-1.311v-1.247h1.835v-.983h.329v1.901h.589v-1.901h.329v1.901h.59v-1.901h.328v2.23h-2.165v-.918h-1.507m-4.589 0v.983h-.328v-1.313h2.164v.918h1.509v-.589h-.984v-.329h1.31v1.247h-2.163v-.918h-1.508zm.984.588v.329h-.459v-.329h.459m-1.378-1.506v-.329h5.965v.329h-5.965m-1.769 1.506v-1.901h.327v1.901h.59v-1.901h.329v2.23h-2.164v-.918h-.011c.109-.236.222-.472.338-.705v1.294h.591m47.658-1.835h1.623c.058.109.113.22.169.329h-1.792v-.329m-49.387 3.148h52.426c1.152 3.062 1.787 6.374 1.787 9.833s-.635 6.771-1.787 9.833h-52.426c-1.152-3.062-1.787-6.374-1.787-9.833s.635-6.771 1.787-9.833m1.138 22.272c-.116-.233-.229-.47-.339-.707h.012v-.983h.327v1.69m.108.211h.482v-1.901h.327v1.901h.59v-1.901h.329v2.23h-1.56c-.056-.109-.112-.219-.168-.329m9.66 0v-1.901h.329v1.901h.59v-1.901h.328v2.23h-2.165v-.918h-1.507v.589h.983v.329h-1.311v-1.247h1.835v-.983h.329v1.901h.589m-1.443-1.506h-5.965v-.329h5.965v.329m-5.571.918v.983h-.328v-1.313h2.164v.918h1.509v-.589h-.984v-.329h1.31v1.247h-2.163v-.918h-1.508zm.984.588v.329h-.459v-.329h.459m15.209 0v-1.901h.327v1.901h.591v-1.901h.327v2.23h-2.163v-.918h-1.508v.589h.983v.329h-1.312v-1.247h1.836v-.983h.327v1.901h.592m-1.443-1.506h-5.965v-.329h5.965v.329m-5.573.918v.983h-.327v-1.313h2.162v.918h1.508v-.589h-.983v-.329h1.312v1.247h-2.164v-.918h-1.508zm.984.588v.329h-.459v-.329h.459m15.208 0v-1.901h.329v1.901h.589v-1.901h.329v2.23h-2.163v-.918h-1.51v.589h.983v.329h-1.31v-1.247h1.836v-.983h.327v1.901h.59m9.179 0v-1.901h.328v1.901h.59v-1.901h.328v2.23h-2.164v-.918h-1.508v.589h.983v.329h-1.312v-1.247h1.836v-.983h.328v1.901h.591m-1.443-1.506h-5.966v-.329h5.966v.329m-5.571.918v.983h-.329v-1.313h2.165v.918h1.508v-.589h-.984v-.329h1.311v1.247h-2.162v-.918h-1.509zm.982.588v.329h-.459v-.329h.459m15.209 0v-1.901h.327v1.901h.591v-1.901h.327v2.23h-2.163v-.918h-1.508v.589h.984v.329h-1.312v-1.247h1.836v-.983h.329v1.901h.589m-1.441-1.506h-5.966v-.329h5.966v.329m-5.574.918v.983h-.326v-1.313h2.162v.918h1.508v-.589h-.983v-.329h1.311v1.247h-2.162v-.918h-1.51zm.983.588v.329h-.457v-.329h.457m-13.767-1.506h-5.965v-.329h5.965v.329m-5.571.918v.983h-.328v-1.313h2.164v.918h1.508v-.589h-.983v-.329h1.312v1.247h-2.165v-.918h-1.508zm.984.588v.329h-.459v-.329h.459m27.074.329v-.329h.459v.329h-.459m-.525-.917v.983h-.329v-1.313h2.165v.023c-.106.229-.216.457-.328.684v-.378h-1.508zm-.393-.918v-.329h2.651c-.046.11-.097.219-.145.329h-2.506"/></svg>