<svg xmlns="http://www.w3.org/2000/svg" viewBox="0 0 64 64" enable-background="new 0 0 64 64"><path d="m32 2c-16.568 0-30 13.432-30 30s13.432 30 30 30 30-13.432 30-30-13.432-30-30-30m26.559 21.15c.631 1.887 1.07 3.86 1.285 5.9h-13.391c-.443-2.184-1.381-4.183-2.674-5.9h14.78m-17.381 7.431l1.752.537 1.084-1.413.006 1.75 1.747.545-1.747.545-.004 1.75-1.086-1.412-1.752.535 1.077-1.418-1.077-1.419m.078-6.575l.881 1.512 1.786-.401-1.241 1.346.869 1.518-1.645-.681-1.249 1.34.224-1.767-1.643-.689 1.785-.41.233-1.768m-2.371 19.917l-1.347-1.241-1.518.871.681-1.646-1.34-1.248 1.766.223.691-1.643.41 1.785 1.766.234-1.512.879.403 1.786m-.657-20.946l-.411 1.784-.69-1.642-1.765.224 1.34-1.248-.682-1.645 1.518.868 1.346-1.241-.4 1.787 1.512.878-1.768.235m-3.278-18.821c2.04.215 4.013.655 5.899 1.285v14.779c-1.717-1.292-3.715-2.231-5.899-2.674v-13.39m-3.497 15.825l.547-1.748.545 1.748 1.75.006-1.412 1.085.533 1.75-1.416-1.076-1.418 1.076.535-1.75-1.412-1.085 1.748-.006m-8.303-14.54c1.887-.63 3.86-1.07 5.9-1.285v13.39c-2.184.443-4.183 1.382-5.9 2.674v-14.779m4.83 38.11l-1.518-.867-1.345 1.239.401-1.785-1.513-.878 1.767-.234.41-1.787.691 1.643 1.767-.223-1.341 1.249.681 1.643m-1.107-20.432l-.69 1.642-.411-1.784-1.766-.232 1.512-.879-.401-1.787 1.345 1.242 1.519-.87-.682 1.645 1.34 1.249-1.766-.226m-4.131.887l.234 1.767 1.785.41-1.643.69.225 1.766-1.249-1.34-1.644.681.867-1.518-1.24-1.346 1.786.402.879-1.512m.08 9.414l-1.751-.537-1.084 1.413-.006-1.749-1.748-.546 1.748-.544.005-1.75 1.085 1.412 1.751-.536-1.077 1.418 1.077 1.419m-17.381-10.27h14.779c-1.292 1.717-2.231 3.716-2.674 5.9h-13.39c.215-2.04.655-4.013 1.285-5.9m0 17.7c-.63-1.887-1.07-3.859-1.285-5.899h13.39c.443 2.185 1.381 4.183 2.673 5.899h-14.778m17.304-.855l-.88-1.511-1.786.4 1.242-1.346-.87-1.518 1.644.68 1.249-1.34-.222 1.767 1.641.69-1.785.41-.233 1.768m6.305 19.849c-2.04-.215-4.013-.654-5.9-1.285v-14.779c1.717 1.292 3.716 2.23 5.9 2.674v13.39m1.62-31.918c-1.281.001-2.604.714-2.604.714.089-1.885 1.502-2.162 1.502-2.162 2.785-1.417 4.311 1.609 4.311 1.609h-.001c1.028 1.58 2.056 4.49 2.056 9.813h-6.365c0 0 .547-1.928 3.234-1.357-4.512-2.672-3.348-6.462-2.133-8.617m1.877 16.095l-.546 1.745-.544-1.745-1.751-.006 1.411-1.086-.535-1.752 1.419 1.078 1.419-1.078-.537 1.752 1.412 1.086-1.748.006m8.303 14.538c-1.887.631-3.859 1.07-5.899 1.285v-13.39c2.185-.443 4.183-1.382 5.899-2.674v14.779m.408-18.564l-.234-1.767-1.785-.411 1.644-.691-.224-1.765 1.248 1.34 1.645-.682-.867 1.519 1.239 1.345-1.786-.4-.88 1.512m17.301.855h-14.779c1.292-1.717 2.229-3.715 2.673-5.899h13.391c-.215 2.039-.655 4.012-1.285 5.899"/></svg>