<svg xmlns="http://www.w3.org/2000/svg" viewBox="0 0 64 64" enable-background="new 0 0 64 64"><path d="m39.76 47.236c.254-.048.971.149 1.054.173-.107-.295-.22-.57-.338-.805-.256.193-.486.415-.716.632"/><path d="m46.666 21.602c-.563 0-.669 1.964.084 1.856.312-.046.737-1.856-.084-1.856"/><path d="m32 2c-16.568 0-30 13.432-30 30s13.432 30 30 30 30-13.432 30-30-13.432-30-30-30m-26.55 30h-1.45c0-3.102.515-6.084 1.45-8.875v8.875m26.55-17.7h-8.26l8.26 10.325v2.516l-10.396-12.841h-5.9l14.329 17.7h-3.933l-11.8-14.75v14.75h-2.95v-18.888c.562-.613 1.149-1.201 1.763-1.763h18.887v2.951m0-8.85h-8.876c2.791-.935 5.773-1.45 8.876-1.45v1.45m22.01 39.8c-.528.02-1.297-.659-1.297-.659v.04c0 0-.311.135-.716.566.772.559 1.484 1.243 2.108 2.059 0 0-1.158.98-1.105 1.085-.31-.073-2.627.55-2.697 1.062 0 0-.668-1.406-1-1.426-.129-.248.046-1.253.493-2.342-2.629-1.269-5.629-1.06-8.015.157.445 1.155.6 2.186.451 2.195-.336.019-.982 1.063-.92 1.624-.65-.698-2.628-1.16-2.675-1.091-.02-.337-1.085-1.067-1.085-1.067.549-.834 1.234-1.553 2.017-2.148-.375-.376-.655-.538-.655-.538s-.849.869-1.383.849c-.534-.156-.553-.571-.553-.75 0-.178.178-.197.376-.395s.296-1.048.435-1.384c.119-.196.607-.45.889-.474 1.012.015 1.815.791 2.406 1.748 2.827-1.422 6.395-1.531 9.405-.068.61-.951 1.438-1.738 2.46-1.844.27.022.534.182.53.177.117.021.159.175.256.372.136.333.278.82.474 1.016.196.197.373.488.373.664 0 .177-.042.416-.572.572m1.76-4.302l-.986-.443.431.417-.735-.348c.141.152.284.301.43.444-.207-.102-.42-.194-.637-.277l.026.235c-.013-.01-.028-.018-.041-.027l.021.027.812.309-5.75.217.644.317-1.51.055-.265-.024.28.172h-.457l.487.509-.795-.251.018.417-.649-.315-.025.463-.668-.609v.668l-.616-.661-.109.603-.437-.777-.265.637-.217-.977-.258.482.03-1.07c-.045.133-1.215 2.09-2.769.982-1.037.236-.49.511-1.438-.164-.721.222-.836.23-1.829-.229-.462.922-1.108 1.092-1.845.457.112-.156.221-.313.328-.473-.32.208-1.532.143-1.617.162.17-.568.45-1.113.803-1.639-1.061-.839-1.621-2.045-1.143-3.604.151-.497.42-.973.854-1.276.538-.38.578-1.017.814-1.642.094-.247.288-.539.253-.809-.064-.542.264-.771.334-1.216.106-.658.166-1.516.16-2.185-.008-1.094.388-.992 1.242-1.463.204-.112.973-.005 1.448.152-.492-.425-1.067-1.138-1.053-2.181 1.548.352 2.028 1.613 1.835 1.17-.105-.236-.031-1.027.061-1.715-.263.067-.621.292-.199 1.011-.455.144-1.469-.52-.767-1.404-2.303-.053-3.237-1.157-3.237-2.172.676.702 2.287.417 2.861.845-.703-.65-.561-1.547-.561-1.547s1.965.586 2.314 2.328c-.004.011-.007.023-.011.035.329.358.866 1.202.577 2.75 1.227-.234 1.181 1.144.867 1.436.381-.189.623-.651.675-.696-.143-.491-.321-.945-.526-1.104-.469-.364-.479-.497-.506-.62-.016-.078.057-.225.114-.326h-.181v-1.16h.252c.037-.127.076-.256.113-.383.353-.879 1.038-2.377.726-3.314-.119.025-.236.061-.352.104.04-.162.098-.319.171-.469l-.496-.039c.119-.155.218-.319.3-.493-.122-.016-.243-.006-.364.025.03-.133.096-.241.195-.326h-.209c.181.061.04-.821-.135-.99-.372-.366-.753-.232-1.139-.738.055-.048.451-.165.849-.268l-1.415-1.258-.154-1.023.238.244.17-.551.193.3.282-.39.177.289-.561.887.415.714.142-.497-.261-.389h.38l.023-.513.284.269.238-.223-.486 1.28.21.244.382-1.007.201.202.187-.208-.137.624.212.055-.127.344.102.298-.479-.18.134.397-.01.009c.239-.057.44-.096.502-.094.057.003.203.021.382.048l.152-.42-.565.198.317-.328-.348-.377.248-.061-.16-.686.221.229.117-.289.5 1.293.316-.388-.467-1.233.139.061.418-.328-.021.607.319-.109-.18.536.17.546.487-.785-.499-.974.28-.429.167.418.159-.208.091.089.109.518.338-.258-.24 1.113-1.61 1.336c.366.062.72.131.771.168-.145.433-.618.523-1.001.402-.236 1.126.928 1.103 1.742 1.145.606.032.958-.225 1.598.018.332.127.441 1.148.691 1.127.012 0-.668.119-.61-.037-.179.491.551.611.463 1.084-.106.564-.187 1.169-.246 1.604.197.398.503.934.657 1.438h.186v1.16h-.141l.101.157c0 .071-.077.206-.505.515-.176.065-.348.513-.491 1.034.046.05.514 1.727 1.853 1.226-.223-1.262-1.106-1.027-1.172-.78 0 0-.676-1.573.989-1.132-.702-1.299-.183-2.041-.144-2.132 0 0 .051-.031.131-.067.148-.254.336-.437.507-.463-.065-.338.521-1.834 2.224-2.406.104.768-.728 1.521-.728 1.521s2.51-.429 3.015-1.066c-.052.287-.559 2.068-3.237 2.055 1.016.964-.325 1.73-.897 1.496.565-.433.432-.764.077-.905-.26.415-.229 1.166-.099 1.877.223-.476.688-1.188 1.513-1.205.032 1.419-.829 2.201-1.222 2.485-.196 1.854-1.518 1.504-1.518 1.504-.001 0 .003-.003.003-.003-.359-.11-.691.015-1.528-1.015 0-.001 0-.002 0-.002-.096.468-.153.832-.153.832l.851.541c0 0 .23-.222.488-.24.257-.018.718.045.762.576.008.093-.01.158-.022.229.22-.008.442-.016.662-.023l.009 1.216c.369-.148.691-.181.903-.159.107-.926.343-1.691.757-2.113.027-.002.08-.002.143-.002-.003-.043-.004-.087-.009-.129l-1.054.017-.326-.302 1.234-.644c-.013-.053-.017-.11-.03-.162.208-.563.574-.548 1.154-.561 1.214-.026 1.104.402 1.47 1.365.523 1.382 1.336 2.755 1.431 4.28.104 1.646.065 3.932-.705 5.428-.546 1.064.735 1.353 1.523 1.742l-.598-.223.598.5-.681-.319.401.401"/><path d="m50.83 47.218c.133-.036.764-.218 1.02-.178-.229-.206-.459-.414-.699-.591-.112.226-.218.489-.321.769"/><path d="m50.395 33.3c-.277.044-.584.154-.825.259.007 1 .015 1.999.021 2.999-.2.962-.614 1.797-1.154 2.505l1.258.096.296.533.905.078.806-.075.252.167.156.014c-.847-.683-1.649-3.855-1.715-6.576"/><path d="m43.688 29.104c-1.708 1.271-2.475.232-2.742-.331-.088-.057-.145-.105-.145-.105s-.108-.053-.269-.158c.065.431-.457 1.396-.632 1.539-.284.763.682 1.971 1.009 2.629.182-.23.332-.397.459-.505-.02-.436-.039-.872-.059-1.307.305-.006.608-.011.912-.017-.02-.076-.042-.15-.042-.24 0-.504.383-.698.496-.717.117-.018.338.027.382.071l.779-.319c.002.001-.162-.736-.148-.54"/><path d="m43.727 23.188c-.036.089-.109.14-.215.153.202-.02.348.061.441.237.419-.631.415-1.613.412-2.342-.926.235-.254 1.45-.638 1.952"/><path d="m41.896 38.084c-.01-.213-.041-3-.44-4.027-.998.193.389 3.916.44 4.027"/><path d="m44.716 22.187c-.132.456.042 1.349.659 1.347.038 0 .517-1.098.612-1.253.701-1.141-1.526-1.697-1.271-.094"/></svg>