<svg xmlns="http://www.w3.org/2000/svg" viewBox="0 0 64 64" enable-background="new 0 0 64 64"><path d="m33.774 27.083l.985-1.966h-1.966l-.984-1.967-.984 1.967h-1.966l.984 1.966-.984 1.967h1.966l.984 1.967.984-1.967h1.966z"/><path d="m26.893 34.95l-.985-1.967-.983 1.967h-1.966l.984 1.966-.984 1.967h1.966l.983 1.967.985-1.967h1.966l-.984-1.967.984-1.966z"/><path d="m38.693 34.95l-.984-1.967-.984 1.967h-1.966l.984 1.966-.984 1.967h1.966l.984 1.967.984-1.967h1.965l-.983-1.967.983-1.966z"/><path d="m32 2c-16.568 0-30 13.432-30 30s13.432 30 30 30 30-13.432 30-30-13.432-30-30-30m16.124 52.87l-9.693-9.692c-1.994.997-4.238 1.572-6.622 1.572-2.383 0-4.627-.575-6.621-1.572l-9.535 9.533c-2.521-1.819-4.727-4.047-6.523-6.587l9.482-9.481c-1.014-1.998-1.598-4.25-1.598-6.643 0-2.392.584-4.644 1.598-6.642l-9.482-9.482c1.796-2.54 4.001-4.768 6.523-6.587l9.535 9.534c1.994-.998 4.238-1.573 6.621-1.573 2.384 0 4.628.575 6.622 1.573l9.693-9.693c2.54 1.796 4.767 4.001 6.587 6.522l-9.705 9.706c1.014 1.998 1.598 4.25 1.598 6.642 0 2.393-.584 4.645-1.598 6.643l9.705 9.705c-1.82 2.521-4.047 4.726-6.587 6.522"/></svg>