<svg xmlns="http://www.w3.org/2000/svg" viewBox="0 0 64 64" enable-background="new 0 0 64 64"><path d="m32 2c-16.568 0-30 13.432-30 30s13.432 30 30 30 30-13.432 30-30-13.432-30-30-30m27.99 29.598l-47.119-20.018c5.01-4.696 11.737-7.58 19.129-7.58 15.305 0 27.773 12.344 27.99 27.598m-31.45 3.934c-.425 1.054-1.389 1.681-2.338 1.63-.396.657-.856 1.27-1.379 1.825.984.278 2.27-.107 1.486.693-.819.839-2.001 1.027-2.874.541-.596.444-1.236.83-1.917 1.142.794.688 2.228.831 1.176 1.274-1.096.465-2.289.156-2.9-.674-.126.032-.248.071-.375.1.367.48.595 1.078.595 1.736h-5.529c0-.658.229-1.256.595-1.736-.127-.028-.25-.067-.375-.1-.611.83-1.804 1.139-2.9.674-1.051-.443.382-.587 1.176-1.274-.68-.312-1.32-.695-1.917-1.142-.872.486-2.054.298-2.874-.541-.784-.801.5-.415 1.485-.693-.522-.556-.981-1.166-1.378-1.825-.951.049-1.913-.576-2.338-1.63-.406-1.001.529-.26 1.498-.081-.275-.716-.474-1.469-.593-2.251-.828-.37-1.415-1.29-1.415-2.374-.001-1.025.525-.138 1.284.421.02-.807.127-1.596.312-2.356-.534-.67-.688-1.675-.307-2.612.361-.891.518-.036.943.745.33-.731.738-1.421 1.219-2.061-.171-.795.071-1.707.73-2.38.635-.65.507.091.581.932.58-.53 1.225-.996 1.925-1.394.165-.767.723-1.472 1.551-1.821 1.271-.54-.34 1.239.129 2.397.468 1.159 2.84 1.252 1.564 1.791-.999.425-2.078.198-2.725-.476-.5.318-.965.676-1.384 1.081.985.282 2.276-.107 1.492.697-.742.759-1.787.987-2.626.66-.321.471-.61.961-.836 1.486.98-.167 1.941-.937 1.533.079-.383.945-1.2 1.548-2.052 1.627-.109.524-.18 1.062-.196 1.611.764-.559 1.296-1.46 1.297-.429-.001.973-.479 1.81-1.176 2.24.088.517.221 1.016.394 1.496.434-.788.59-1.664.956-.765.343.849.248 1.751-.168 2.414.253.419.541.811.856 1.179.072-.833-.049-1.561.583-.916.603.619.863 1.438.771 2.184.371.283.762.536 1.175.755-.244-.743-.558-1.296.229-.964.761.324 1.294.951 1.503 1.646.409.112.832.188 1.261.242 0-1.552 0-3.103 0-4.653-.726.404-1.657.307-2.274-.311-.745-.745-.674-3.372-.674-3.372s1.928-.049 2.948.405c0-.546 0-1.093 0-1.639-.726.404-1.657.307-2.274-.311-.745-.745-.674-3.373-.674-3.373s1.928-.05 2.948.406c0-.505 0-1.009 0-1.514 0-1.268 1.967-1.268 1.967 0 0 .063 0 .126 0 .189.474-.079.982-.065.982-.065s.036 1.314-.337 1.687c-.179.179-.412.267-.646.274 0 .465 0 .93 0 1.395 1.021-.455 2.948-.405 2.948-.405s.071 2.628-.674 3.373c-.617.617-1.548.715-2.274.311 0 .546 0 1.093 0 1.639 1.021-.454 2.948-.405 2.948-.405s.071 2.627-.674 3.372c-.617.617-1.548.715-2.274.311 0 .896 0 1.79 0 2.687.429-.054.852-.13 1.26-.242.209-.695.742-1.322 1.504-1.646.787-.332.473.221.229.964.413-.219.805-.472 1.175-.755-.092-.745.169-1.564.771-2.184.632-.645.511.083.583.914.315-.366.603-.76.856-1.177-.416-.663-.51-1.565-.168-2.414.366-.897.522-.023.955.765.173-.482.306-.981.394-1.496-.696-.431-1.175-1.268-1.176-2.24.001-1.029.532-.132 1.295.429-.016-.552-.089-1.087-.2-1.611-.85-.081-1.664-.684-2.045-1.627-.406-1.008.539-.255 1.512-.08-.226-.522-.499-1.019-.817-1.485-.837.327-1.883.101-2.625-.66-.781-.801.492-.421 1.474-.693-.417-.403-.861-.778-1.357-1.095-.645.682-1.73.912-2.732.485-1.277-.539 1.095-.632 1.563-1.791.47-1.158-1.142-2.938.129-2.397.828.35 1.387 1.055 1.552 1.822.699.398 1.342.868 1.924 1.402.075-.843-.057-1.594.58-.941.661.673.902 1.587.73 2.382.48.64.886 1.335 1.216 2.068.429-.785.586-1.649.946-.755.381.939.227 1.946-.309 2.618.186.761.293 1.548.314 2.353.758-.559 1.286-1.448 1.285-.423 0 1.084-.587 2.004-1.416 2.374-.119.782-.318 1.535-.594 2.251.969-.179 1.905-.92 1.499.081m-13.525-14.529c0-1.408.994.795 2.217.795 1.222 0 2.215-2.203 2.215-.795 0 1.411-.993 2.553-2.215 2.553-1.224 0-2.217-1.142-2.217-2.553m16.985 38.997c-7.392 0-14.119-2.884-19.128-7.579l47.118-20.019c-.217 15.254-12.685 27.598-27.99 27.598"/></svg>