<svg xmlns="http://www.w3.org/2000/svg" viewBox="0 0 64 64" enable-background="new 0 0 64 64"><path d="m36.498 26.633c-.15.174-.279.382-.365.627-.043.122-.052.242-.071.362.087-.128.173-.258.241-.401.093-.2.152-.396.195-.588"/><path d="m52.475 32.092c-.122-.227-.708-.347-.885-.536-.057-.06-.104-.153-.147-.263-.626.385-1.35.464-2.009.287l-.068.169 2.449-.019v1.918c0 0 .008.18.011.469.073-.051.146-.102.22-.152.039-.252.09-.486.173-.666.032-.069.089-.149.158-.23l-.013-.002c-.001-.001.228-.76.111-.975"/><path d="m56.328 27.195c-.018.026-.031.056-.048.084.034-.019.061-.045.093-.063-.015-.007-.029-.013-.045-.021"/><path d="m32 2c-16.568 0-30 13.432-30 30s13.432 30 30 30 30-13.432 30-30-13.432-30-30-30m-20.65 11.112c.561-.613 1.149-1.201 1.762-1.762h18.888v.983 1.967h-8.26l8.26 10.325v2.516l-10.396-12.841h-5.9l14.329 17.7h-3.933l-11.8-14.75v14.75h-1.966-.984v-18.888m39.089 30.103c-.862-.241 1.057-2.026 2.493-2.57-.263-.471-.442-1.017-.337-1.461.055-.225.172-.554.301-.896-.109-.136-.205-.267-.273-.386-.242-.42-.433-1.116-.542-1.857-.108.085-.221.18-.339.291-.086.943-.252 1.952-.574 2.699-.809 1.869-3.982 3.216-3.982 3.216-4.105-1.711-4.385-4.562-4.461-5.022-.018-.104-.033-.443-.047-.896-.117-.109-.229-.203-.334-.287-.109.741-.299 1.438-.541 1.857-.068.119-.166.251-.275.387.129.342.244.67.299.895.105.444-.072.99-.336 1.46 1.438.544 3.357 2.33 2.496 2.571-4.916 1.371-4.746 1.098-7.799-.127-.863-.347.861-1.521 2.597-2.168.016-.121.027-.236.034-.348-.668.4-1.268.639-1.585.535-.741-.245-.077-3.951.444-5.126.438-.985 1.745-2.921 2.88-3.435-.023-.279-.038-.576-.011-.73.072-.408.507-1.172.826-1.439.081-.068.203-.142.34-.213-.393-.12-.776-.361-1.107-.714.312.075.627.067.924-.037 1.082-.382 1.533-1.901 1.013-3.402-.013-.005-.022-.015-.034-.02-.7-.263-1.502.023-2.135.66.309.306.512.673.539 1.088.072 1.151-1.16 2.167-2.757 2.269-.967.062-1.823-.239-2.382-.732-.053-.045-.105-.086-.147-.144-.052-.055-.119-.1-.163-.159.029.011.063.014.092.023-.189-.354-.237-.842-.061-1.342.195-.556.596-.952 1.014-1.069.162-.825-.145-1.526-.824-1.692-.234-.057-.486-.045-.739.023.536-.496 1.2-.751 1.759-.616.852.209 1.13 1.251.619 2.329-.29.612-.771 1.095-1.287 1.369.022.498.237.92.624 1.056.157.056.323.06.485.021-.037.039-.078.066-.118.102.741-.056 1.397-.311 1.882-.682-.105-.574-.068-1.229.179-1.888.562-1.497 1.89-2.381 2.97-1.977.354.133.639.389.84.725.359.359.664.832.859 1.389.461 1.308.182 2.633-.611 3.211.297.121.627.329.558.504l-.272-.046c-.289.144-.377.908-.598 1.143-.177.189-.759.31-.883.536-.117.215.109.975.109.975l-.01.002c.068.081.127.161.159.23.082.18.134.414.173.667.082.057.164.114.248.172-.021-1.222-.033-2.337-.033-2.337l2.652-.021-1.44-1.724 1.253-.368-.592-1.372.223-.517-.649-.792.802.438 2.313-5.357 2.075 4.807c.027-.09.036-.179.07-.269.561-1.497 1.892-2.382 2.971-1.977.292.109.521.317.711.57.029-.028.051-.062.082-.089-.016.049-.018.101-.03.15.24.351.392.794.421 1.295-.121-.161-.269-.288-.43-.395.254 1.047 1.386 1.649 2.611 1.346.099-.024.186-.071.28-.105-.038-.216-.054-.426-.045-.629-.046-.078-.081-.161-.099-.251-.119-.593.451-1.206 1.273-1.37.597-.119 1.159.032 1.471.351-.07-.015-.146-.017-.221-.024.285.168.563.397.816.698.149.178.273.371.387.568.104.547.189 1.101.262 1.658-.137-.28-.296-.555-.505-.803-.892-1.059-2.098-1.306-2.775-.612.013.036.021.075.038.108.091-.061.189-.113.271-.183-.037.116-.104.222-.161.332.014.017.022.036.038.052-.02-.005-.035-.014-.055-.019-.332.624-.946 1.14-1.725 1.331-1.276.315-2.463-.345-2.648-1.476-.066-.412.02-.825.203-1.205-1.021-.178-2.178.667-2.693 2.039-.009.022-.01.046-.018.068l.111.261-.313.724c-.004.05-.006.101-.008.149.632-.205 1.18-.771 1.377-1.45.109-.372.107-.75.012-1.099.576.505.841 1.315.61 2.099-.219.754-.839 1.274-1.559 1.419.337.049.683.029 1.02-.055.206-.128.478-.229.62-.248.001 0 .003.001.004.001.037-.021.076-.034.113-.057.418-.263.737-.626.945-1.039.053.444-.021.889-.189 1.298.23.099.447.213.572.318.319.268.754 1.031.826 1.439.027.154.013.451-.011.73 1.134.514 2.442 2.449 2.88 3.435.521 1.175 1.186 4.881.444 5.126-.317.104-.917-.135-1.585-.535.007.111.018.227.034.348.95.354 1.895.866 2.415 1.314-.148.377-.305.75-.469 1.118-2.401.992-2.611 1.128-7.145-.136m-18.439-37.765h-8.875c2.791-.935 5.773-1.45 8.875-1.45v1.45m-26.55 17.675v8.875h-1.45c0-3.102.515-6.084 1.45-8.875"/></svg>