<svg xmlns="http://www.w3.org/2000/svg" viewBox="0 0 64 64" enable-background="new 0 0 64 64"><path d="m32 39.867c4.346 0 7.867-3.521 7.867-7.867s-3.521-7.866-7.867-7.866c-4.346 0-7.867 3.52-7.867 7.866s3.521 7.867 7.867 7.867m-5.905-10.314c.1-.241-.01-.517-.248-.627.062-.124.126-.246.195-.365l3.554 2.335 1.067.49c-.016.034-.029.068-.042.104l-1.11-.411-4.154-.859c.036-.133.072-.265.116-.395.247.089.521-.027.622-.272m2.83-3.704c.11.236.386.347.63.245.243-.101.359-.374.27-.62.13-.044.263-.08.396-.116l.86 4.163.408 1.101c-.035.014-.069.026-.104.042l-.494-1.075-2.33-3.545c.119-.069.24-.134.364-.195m5.52.245c.244.104.52-.009.628-.246.124.062.246.127.366.195l-2.337 3.553-.489 1.067c-.033-.016-.068-.028-.103-.041l.412-1.111.858-4.152c.133.035.264.071.394.114-.087.249.028.518.271.621m3.459 3.459c.102.245.377.362.622.27.044.131.081.265.116.398l-4.163.857-1.103.41c-.014-.035-.025-.068-.041-.102l1.076-.495 3.545-2.331c.068.119.133.24.194.363-.234.115-.345.387-.246.63m0 4.892c-.1.244.011.52.248.628-.062.124-.126.246-.195.366l-3.553-2.337-1.068-.489c.016-.034.028-.068.041-.104l1.112.412 4.153.859c-.035.132-.072.264-.115.393-.248-.087-.519.029-.623.272m-3.261-2.199l4.24-.246-4.25-.248-1.174.11c-.003-.036-.004-.073-.011-.108l1.169-.199 4.025-1.333c.035.132.074.263.102.397-.261.045-.441.282-.407.545.034.262.267.443.525.421.009.138.021.275.021.415 0 .139-.012.274-.021.411-.261-.017-.49.162-.526.423-.033.265.146.505.408.545-.027.137-.066.269-.102.401l-4.035-1.339-1.159-.196c.007-.036.008-.072.011-.109l1.184.11m.433 5.906c-.112-.237-.385-.348-.629-.248-.246.103-.361.378-.271.623-.13.043-.264.08-.397.116l-.859-4.164-.409-1.104c.035-.013.069-.025.103-.041l.495 1.075 2.33 3.548c-.119.069-.24.134-.363.195m-5.521-.246c-.244-.102-.52.009-.63.246-.124-.062-.245-.126-.364-.195l2.337-3.555.489-1.066c.034.016.068.028.104.041l-.411 1.112-.86 4.153c-.133-.035-.265-.072-.394-.115.088-.246-.027-.52-.271-.621m-3.46-3.459c-.102-.245-.375-.361-.622-.271-.043-.13-.081-.263-.116-.396l4.163-.859 1.102-.408c.013.034.026.069.042.103l-1.074.494-3.548 2.329c-.068-.118-.133-.239-.194-.362.237-.114.347-.388.247-.63m-.84-3.827c.027-.136.066-.268.102-.4l4.035 1.337 1.158.197c-.006.035-.008.073-.012.11l-1.181-.11-4.239.246 4.25.246 1.172-.109c.004.037.006.074.012.111l-1.166.199-4.028 1.331c-.035-.132-.074-.262-.102-.396.26-.044.442-.282.408-.546-.035-.263-.266-.442-.525-.423-.008-.138-.021-.273-.021-.413s.013-.275.021-.413c.26.02.491-.161.525-.421.034-.265-.148-.504-.409-.546m1.599 5.942c.199-.17.234-.46.075-.671-.162-.21-.458-.251-.672-.099-.076-.114-.146-.234-.215-.354l3.801-1.909.956-.679c.021.03.048.058.071.087l-.912.757-2.826 3.173 3.179-2.831.752-.906c.028.023.055.049.085.07l-.683.964-1.906 3.793c-.119-.068-.238-.139-.353-.214.151-.216.111-.51-.099-.673-.209-.16-.502-.124-.671.076-.204-.183-.399-.377-.582-.584m4.734 2.301c.019-.26-.161-.49-.422-.527-.264-.033-.504.146-.547.409-.136-.027-.268-.066-.4-.103l1.338-4.036.197-1.158c.036.006.073.008.11.011l-.11 1.184.245 4.239.248-4.249-.11-1.174c.037-.004.074-.005.11-.012l.199 1.169 1.333 4.027c-.133.035-.264.074-.398.102-.045-.263-.282-.44-.547-.409-.261.035-.441.268-.42.527-.138.008-.274.021-.414.021-.139 0-.275-.013-.412-.021m4.975-1.718c-.171-.198-.462-.234-.671-.074-.213.161-.254.458-.1.672-.115.076-.234.146-.354.216l-1.908-3.801-.681-.958c.03-.021.058-.047.086-.071l.759.914 3.172 2.825-2.83-3.181-.908-.751c.023-.028.05-.056.07-.086l.967.685 3.791 1.905c-.068.119-.138.236-.213.351-.218-.148-.512-.108-.673.099-.16.211-.124.505.075.672-.181.206-.375.4-.582.583m.582-9.707c-.197.171-.232.461-.074.672.162.209.459.251.672.097.076.115.146.234.215.354l-3.801 1.909-.957.679c-.021-.029-.047-.057-.07-.086l.914-.759 2.824-3.171-3.18 2.829-.752.908c-.028-.023-.055-.049-.085-.07l.685-.966 1.904-3.79c.119.068.236.138.351.213-.148.217-.108.51.101.673.21.16.504.123.67-.075.206.182.399.376.583.583m-4.733-2.3c-.018.261.162.489.422.526.265.033.504-.146.545-.408.137.027.268.066.401.102l-1.337 4.034-.197 1.159c-.036-.007-.073-.008-.109-.012l.109-1.182-.246-4.24-.246 4.25.109 1.172c-.037.004-.074.005-.11.012l-.199-1.167-1.333-4.026c.133-.035.264-.074.398-.102.046.262.282.439.547.406.262-.033.443-.266.418-.523.139-.009.275-.021.416-.021.139-.001.275.012.412.02m-4.974 1.717c.169.198.462.234.672.074.211-.163.25-.458.099-.672.114-.076.233-.146.353-.215l1.91 3.8.678.956c-.03.022-.057.048-.086.071l-.758-.912-3.171-2.825 2.832 3.179.905.751c-.023.029-.05.057-.071.087l-.965-.684-3.791-1.905c.069-.119.138-.238.214-.353.216.15.511.11.672-.099.16-.209.124-.503-.075-.671.181-.205.375-.399.582-.582"/><path d="M32,2C15.432,2,2,15.432,2,32s13.432,30,30,30s30-13.432,30-30S48.568,2,32,2z M5.787,22.167h52.426
		C59.365,25.229,60,28.541,60,32s-0.635,6.771-1.787,9.833H5.787C4.635,38.771,4,35.459,4,32S4.635,25.229,5.787,22.167z"/></svg>