<svg xmlns="http://www.w3.org/2000/svg" viewBox="0 0 64 64" enable-background="new 0 0 64 64"><path d="m55.199 28.895l-.174-.131-1.181-.9.447-.859.23-.439-.489.084-3.673.64-.161.029-.036.157-.075.32-2.14-.855 3.608-2.249.723-1.635 1.018-1.458.377-3.517-3.322 1.181-3.093.699.012-.595-3.657 1.621-.165-.612-4.266 1.801-2.21 1.029-.083 1.886-2.675 2.235 3.688.635-.755.888-4.291 2.134-.105.052-.024.115-.182.814-.287.486-.065.108.013.031c-.246.245-.775.852-.697 1.49.051.407.335.743.848.998l.151.077.025-.169c.046-.326.105-.482.136-.549.127.036.375.094.679.094.461 0 1.086-.157 1.586-.759l.077-.001.067-.002.056-.035 1.604-1 2.191-.582.685-.333 1.065.117 2.025.617.069.957.238.86-.238.914.132 2.051-1.305 1.028-2.493-1.549-.438.965-2.484-.58.168-.809-.664-.125.165-.582-1.252-.313-.35 1.248-1.289-1.446-4.123.78 3.257 2.705 1.875-.896-.27 1.344 1.239.361.177-.614.726.042.123-.656 2.403.503.088 1.145 2.259-.457-.027.271-1.125.518.067.27-5.032-.443-.167-.334-1.444 1.24 8.85 4.09-.532-.876 2.207 1.371-.044-1.017 2.616 1.008-1.371-1.27 2.535.045-2.163-1.006 1.963-.753-2.708.223.169-.724-2.911.363.299-.373-4.461-.213.271-.437 12.443.851-.133-.795.576.135.28-.955-5.875-1.37-.261-.412.315-.873 1.033.338.09-1.133 1.018.298-.236-1.286 1.476.354-.761-1.251 1.139.483-.242-1.244 1.487-1.254-1.149.177.607-.655-.934-.065 1.245-.59-1.208-.916 1.641-.059.086.118.058.077.094.02 4.101.782.477.09-.21-.438-.61-1.283.837-1.442.106-.189m-16.335 3.019l-2.226.591-1.55.967-.005-.007c-.245-.355-.599-.43-.853-.43-.175 0-.309.039-.307.041-.363 0-1.307-.099-1.395-.535l-.01-.051.255-.433.19-.853 4.337-2.157.947-1.114-.355 1.089 1.421-.307-1.398 1.066 1.802-.403-1.518 1.043 2.084-.188-1.23.782-.711.117 1.776.167-1.254.615m9.753 9.203l-4.899-.393.013-.034.886-.495 4 .922m5.359-10.603l.668 1.4-4.101-.782-.568-.782.522-1.492-.284-.522.19-.805 3.672-.64-.544 1.043 1.347 1.026-.902 1.554"/><path d="M32,2C15.432,2,2,15.432,2,32s13.432,30,30,30s30-13.432,30-30S48.568,2,32,2z M48.677,54.477L4.023,32.925
		C4.014,32.617,4,32.311,4,32s0.014-0.617,0.023-0.925L48.677,9.523C55.543,14.631,60,22.804,60,32S55.543,49.369,48.677,54.477z"/></svg>