<svg xmlns="http://www.w3.org/2000/svg" viewBox="0 0 64 64" enable-background="new 0 0 64 64"><path d="M32,2C15.432,2,2,15.432,2,32s13.432,30,30,30s30-13.432,30-30S48.568,2,32,2z M59.369,26.1H37.9V4.631
	C48.611,6.938,57.062,15.389,59.369,26.1z M36.917,54.125h-9.834l2.459-2.458V34.458H12.333l-2.458,2.459v-9.834l2.458,2.459h17.209
	V12.333l-2.459-2.458h9.834l-2.459,2.458v17.209h17.209l2.458-2.459v9.834l-2.458-2.459H34.458v17.209L36.917,54.125z M26.1,4.631
	V26.1H4.631C6.938,15.389,15.389,6.938,26.1,4.631z M4.631,37.9H26.1v21.469C15.389,57.062,6.938,48.611,4.631,37.9z M37.9,59.369
	V37.9h21.469C57.062,48.611,48.611,57.062,37.9,59.369z"/></svg>