<svg xmlns="http://www.w3.org/2000/svg" viewBox="0 0 64 64" enable-background="new 0 0 64 64"><path d="m6.491 31.904v.194.386h.57v-.386-.194-.386h-.57z"/><path d="m8.771 33.452h.228.113.229v.966h.571v.968h.569v-1.934h-.569v-.968h-.571v-.386-.194-.386h.571v-.968h.569v-1.934h-.569v.966h-.571v.968h-.229-.113-.228v-.968h-.571v-.966h-.569v1.934h.569v.968h.571v.386.194.386h-.571v.968h-.569v1.934h.569v-.968h.571z"/><path d="m9.112 27.648h.229v-.966h-.229-.113-.228v.966h.228z"/><path d="m15.042 46.026h.57v.966h-.57z"/><path d="m15.042 48.926h-.571v-.966h-.57v.966h-.57v.968h-.569v.968h.569v.966h.57v.968h.57v-.968h.571v-.966h.57v-.968h-.57z"/><path d="m11.621 32.098v-.194-.386h-.57v.386.194.386h.57z"/><path d="m8.999 36.354h-.228v.966h.228.113.229v-.966h-.229z"/><path d="m32 2c-16.568 0-30 13.432-30 30s13.432 30 30 30 30-13.432 30-30-13.432-30-30-30m-17.529 10.172v-.966h-.569v.966h-.57v.968h-.569v.969h.569v.966h.57v.968h.569v-.968h.571v-.966h.57v2.899h-.57v.968h.57v1.935h-.57v-.966h-.571v-.969h-.569v-.968h-.57v-.966h-.569v-.968h-.57v.968h-.571v.966h-.569v.968h-.57v.969h-.571v.966h-.57v.968h-.23-.113-.228v-.969h-.571v-.966h-.569v-.708c.358-.632.735-1.252 1.14-1.853v1.592h.229.113.229v-1.934h-.23-.1c.289-.415.589-.821.9-1.219v.251h.569v.968h.57v-.968h.569v-.966h.571v-.967h-.571v-.312c.208-.221.415-.442.63-.656h.511v-.487c.169-.16.336-.322.51-.479h.06v-.052c.551-.494 1.122-.965 1.71-1.414v.498h.57v2.901h-.57v-.968h-.57zm1.141 12.574v.968h-.57v.968h-.571v.967h-.569v.968h-.57v-.968h-.569v-.967h-.57v-.968h-.571v-.968h-.569v-.966h-.57v-.968h.57v-.967h.569v-.968h1.71v.968h-1.14v.967h.57v.968h.569v.966h.57v-.966h.569v-.968h.571v-.967h.57v1.935h-.57v.966h.571m0 15.476v1.935h-.57v-.967h-.571v-.968h-.569v-.968h-.57v.968h-.569v.968h-.57v.967h1.14v.968h-1.71v-.968h-.569v-.967h-.57v-.968h.57v-.968h.569v-.966h.571v-.968h.57v-.967h.569v-.968h.57v.968h.569v.967h.571v.968h.57v.966h-.57v.968h.569m-7.412-1.934v-.968h-.569v-.967h-.57v-.968h-.57v-.968h-.571v-2.32-.193-2.322h.57v-.966h.57v-.968h.57v-.967h.57v-.968h.57v-.968h.229.113.229v.968h.57v.968h.569v.967h.57v.968h.569v.966h.571v2.322.193 2.32h-.571v.968h-.569v.968h-.57v.967h-.568v.968h-.57v.966h-.23-.113-.228v-.966h-.571m-1.139 3.868h-.57v.968h-.18c-.139-.319-.269-.643-.396-.968h.005v-.967h-.363c-.07-.202-.141-.404-.207-.609v-.358h-.116c-.48-1.559-.821-3.176-1.022-4.836h.569v.968h.569v.967h.57v.968h.57v.966h.57v.968h.57v.968h-.57v.965zm-.57-21.278v.968h.57v.967h.57v.968h-.57v.966h-.57v.968h-.571v.968h-.57v.967h-.569v.968h-.569c.201-1.66.542-3.277 1.021-4.836h.117v-.36c.066-.204.136-.406.206-.607h.364v-.967h-.006c.127-.325.257-.648.396-.968h.181zm8.551 14.508v-.968h-.571v-.966h-.569v-.968h-.57v-.387-.193-.387h.57v-.967h.569v-.968h.571v-.966h.57v6.77h-.57m16.958 24.614c-6.117 0-11.777-1.977-16.388-5.318v-.918h-.57v.496c-.589-.449-1.16-.92-1.71-1.414v-.05h-.058c-.174-.157-.342-.319-.512-.48v-.487h-.512c-.215-.214-.422-.436-.63-.656v-.31h.571v-.969h-.571v-.968h-.569v-.966h-.57v.966h-.569v.251c-.31-.397-.61-.803-.898-1.217h.099.229v-1.934h-.23-.113-.228v1.59c-.405-.601-.781-1.221-1.14-1.853v-.706h.569v-.967h.57v-.966h.229.113.229v.966h.57v.968h.569v.969h.57v.966h.569v.968h.571v.966h.57v-.967h.569v-.968h.57v-.966h.569v-.969h.571v-.967h.57v-.29h41.772c-4.458 9.557-14.156 16.2-25.381 16.2"/></svg>