<svg xmlns="http://www.w3.org/2000/svg" viewBox="0 0 64 64" enable-background="new 0 0 64 64"><path d="m32 2c-16.568 0-30 13.432-30 30s13.432 30 30 30 30-13.432 30-30-13.432-30-30-30m9.213 6.094l.58-1.786.58 1.786h1.877l-1.518 1.104.58 1.786-1.52-1.104-1.52 1.104.58-1.786-1.52-1.104h1.881m-9.834 0l.58-1.786.58 1.786h1.878l-1.519 1.104.58 1.786-1.52-1.104-1.52 1.104.58-1.786-1.518-1.104h1.879m-9.833 0l.58-1.786.58 1.786h1.878l-1.52 1.104.58 1.786-1.518-1.104-1.52 1.104.58-1.786-1.519-1.104h1.879m-8.864 3.667h38.637c2.219 2.119 4.091 4.597 5.521 7.341l-16.989 8.822c-1.476-2.835-4.435-4.774-7.851-4.774l1.899 6.149h6.151l-4.975 3.799 1.9 6.153-4.975-3.802-4.975 3.803 1.898-6.153-4.974-3.799h6.15l1.901-6.15c-3.416 0-6.375 1.938-7.851 4.773l-16.989-8.821c1.431-2.745 3.302-5.222 5.522-7.341m-7.21 14.66c1.864 2.333 9.036 1.89 7.024 9.195-.369-.739-1.036-1.596-1.82-2.329.266.998.424 1.999.411 2.871-.794-.334-1.646-.995-2.408-1.784.237.979.643 1.913 1.15 2.606-7.687-1.498-3.073-7.884-4.357-10.559m19.157 30.985l-1.52-1.103-1.52 1.103.58-1.786-1.52-1.104h1.879l.58-1.784.58 1.784h1.878l-1.519 1.104.582 1.786m9.329-.006l-1.52-1.104-1.52 1.104.58-1.786-1.52-1.104h1.879l.58-1.786.58 1.786h1.878l-1.519 1.104.582 1.786m9.355 0l-1.52-1.104-1.52 1.104.58-1.786-1.52-1.104h1.879l.58-1.786.58 1.786h1.877l-1.518 1.104.582 1.786m8.005-5.161h-38.636c-2.22-2.119-4.091-4.598-5.522-7.343l16.99-8.82c1.475 2.834 4.434 4.774 7.85 4.774s6.375-1.939 7.851-4.773l16.99 8.82c-1.431 2.745-3.303 5.223-5.523 7.342"/></svg>