<svg xmlns="http://www.w3.org/2000/svg" viewBox="0 0 64 64" enable-background="new 0 0 64 64"><path d="m32.202 22.531h-5.6v18.938h5.6c2.865 0 4.862-1.41 5.993-4.232.617-1.549.927-3.393.927-5.531 0-2.953-.464-5.221-1.39-6.801-.927-1.583-2.77-2.374-5.53-2.374"/><path d="m32 2c-16.568 0-30 13.432-30 30s13.432 30 30 30 30-13.432 30-30-13.432-30-30-30m10.959 39.094c-2.102 3.609-5.346 5.414-9.732 5.414h-12.511v-29.016h12.511c1.799.025 3.297.236 4.492.629 2.035.67 3.684 1.896 4.944 3.682 1.012 1.443 1.7 3.006 2.068 4.686s.552 3.281.552 4.803c0 3.858-.774 7.126-2.324 9.802"/></svg>