<svg xmlns="http://www.w3.org/2000/svg" viewBox="0 0 64 64" enable-background="new 0 0 64 64"><path d="m38.281 46.967c.929-.703 1.738-1.554 2.392-2.518h-2.392v2.518"/><path d="m25.712 46.969v-2.521h-2.396c.654.967 1.466 1.82 2.396 2.521"/><path d="m29.902 48.866c.443.091.898.152 1.361.185.486.031.975.029 1.463 0 .464-.032.919-.094 1.365-.187v-4.417h-4.189v4.419"/><path d="m43.364 23.219h-.001l-.021.051z"/><path d="m44.141 21.458l-.354.802 1.258-2.851-1.82-2.938-3.244 1.202v-.002l-.007.002-2.283-2.608-3.001 1.721-.007.004-2.683-2.198-2.677 2.191.223 2.686-.097-1.17c-1.726.142-3.41.426-5.043.843l-.372-1.467c1.713-.437 3.481-.734 5.29-.884l-.001-.008-.005.006-3.009-1.725-2.278 2.604-.004.004-3.252-1.202-1.819 2.938.697 1.582 1.766 4.011c1.318-.584 2.693-1.063 4.113-1.424 1.391-.355 2.827-.597 4.295-.718.718-.06 1.441-.091 2.173-.091.735 0 1.463.033 2.184.093 1.468.12 2.903.362 4.295.718l.541-2.128-.01.041-.531 2.087c1.416.361 2.784.838 4.1 1.42l.611-1.385c-1.391-.615-2.841-1.12-4.338-1.5l.106-.421c1.521.388 2.993.9 4.405 1.524l.614-1.392c-1.489-.659-3.041-1.199-4.645-1.608l.1-.392c1.626.417 3.199.965 4.709 1.633m-2.615-2.821l.442-.384-.111-.576-.005-.025.024.008.556.19.442-.385.02-.017.006.026.113.574.553.192.025.01-.021.017-.441.385.112.576.004.024-.025-.008-.554-.189-.442.384-.021.018-.005-.027-.112-.574-.555-.191-.024-.008.019-.02m-20.864.33l.025-.01.55-.188.112-.57.005-.027.02.018.439.382.55-.188.025-.01-.005.026-.111.57.437.383.021.017-.026.01-.549.19-.112.568-.006.026-.02-.017-.438-.383-.55.188-.026.008.005-.025.11-.57-.438-.382-.018-.016m1.776 3.933c-.772 0-1.417-.555-1.56-1.287.274.486.795.814 1.391.814.879 0 1.597-.716 1.597-1.596 0-.089-.006-.175-.021-.26.116.221.183.473.183.738-.001.877-.715 1.591-1.59 1.591m2.722-.789l-.379-1.494c1.553-.396 3.155-.665 4.793-.801l.002.025.126 1.511c-1.554.129-3.071.384-4.542.759m4.698-4.759c0-.042.341.065.314.052.04-.138-.28-.566-.28-.566.371.544.716-.207.877-.19.256.045.535.729.905.188.012-.017-.316.44-.278.568-.025.01.308-.094.309-.056.008 2.02-1.857 2.036-1.847.004m1.225 2.869c.001-.042.341.065.315.053.04-.139-.281-.567-.281-.567.372.544.717-.207.877-.188.258.042.537.726.906.186.01-.017-.316.44-.279.569-.023.009.309-.095.309-.057.008 2.02-1.858 2.036-1.847.004m1.226-2.869c0-.042.341.065.314.052.04-.138-.281-.566-.281-.566.372.544.717-.207.878-.19.257.045.536.729.905.188.012-.017-.316.44-.279.568-.023.01.309-.094.31-.056.006 2.02-1.859 2.036-1.847.004m6.188 2.576c-.054.094-.509 2.309-1.534 1.78-.006.038.563-.227.613-.598-.004-.006-.179-.221-.177-.211-.372.009-.689 1.194-1.146.589-.024-.032.593-.274.533-.76-.067.04-.35.036-.439.002-.248.096-.185 1.137-.811.847.02.036.661-.949.293-1.001-.067.169-.26.411-.263.586.169.175-.448.221-.421.01.006-.056.48-.582.35-1.124-.176-.134.016-.996.117-1.181-.592.014-.239-.194-.133-.546-.116-.078-.203-.126-.199-.276.106-.032.209-.022.307.031.18.074.172.002.344-.099.232-.136.772-.219 1.413.108.106.054.715.113.715.113s-.493.225-.993-.027c.176.117.313.28.492.394.072.046.826.196.826.196s-.592.276-.947-.02c-.311-.259-.637-.586-1.095-.443.042.008.322.138.329.127-.063.121-.377.239-.467.126-.043.288.94 1.237 2.192 1.013.53-.204.219.158.101.364"/><path d="m21.523 26.037h4.188v4.604h-4.188z"/><path d="m25.711 30.641h4.191v4.602h-4.191z"/><path d="m21.523 38.61c0 .417.026.83.073 1.235h4.115v-4.604h-4.188v3.369"/><path d="m29.902 35.242h4.189v4.604h-4.189z"/><path d="m25.712 39.846h4.19v4.602h-4.19z"/><path d="m34.092 35.242h4.189v4.604h-4.189v4.602h4.189v-4.602h4.111c.049-.407.074-.82.074-1.241v-3.362h-4.186v-4.602h-4.189v4.601z"/><path d="m29.902 26.037h4.189v4.604h-4.189z"/><path d="m38.281 26.037h4.186v4.604h-4.186z"/><path d="m32 2c-16.568 0-30 13.432-30 30s13.432 30 30 30 30-13.432 30-30-13.432-30-30-30m10.391 39.833c-1.384 4.423-5.529 7.657-10.395 7.657-3.928 0-7.387-2.109-9.302-5.252-.02-.033-.041-.065-.06-.098-.122-.205-.236-.415-.345-.628-.04-.078-.077-.157-.114-.236-.092-.191-.181-.384-.262-.581-.056-.138-.104-.279-.154-.42-.053-.147-.111-.292-.158-.442h-.001c-.313-1.013-.484-2.086-.484-3.197v-13.008h21.774v13.008c0 1.111-.171 2.185-.483 3.197h-.016m.224 0c.314-1.024.486-2.108.486-3.232v-13.187h-22.196v13.187c0 1.124.172 2.208.486 3.232h-15.604c-1.152-3.062-1.787-6.374-1.787-9.833s.635-6.771 1.787-9.833h14.137l-1.223-2.775 1.979-3.198 3.279 1.214 2.302-2.631 3.034 1.738 2.705-2.215 2.704 2.215 3.033-1.738 2.303 2.631 3.279-1.214 1.979 3.196-1.225 2.777h14.139c1.153 3.062 1.788 6.374 1.788 9.833s-.635 6.771-1.787 9.833h-15.598"/></svg>