<svg xmlns="http://www.w3.org/2000/svg" viewBox="0 0 64 64" enable-background="new 0 0 64 64"><path d="m32 2c-16.568 0-30 13.432-30 30s13.432 30 30 30c16.568 0 30-13.432 30-30s-13.432-30-30-30m-13.767 30c0-8.147 6.528-14.75 14.583-14.75 4.38 0 8.31 1.954 10.982 5.047-1.883-1.321-4.17-2.097-6.637-2.097-6.443 0-11.667 5.283-11.667 11.8s5.225 11.8 11.667 11.8c2.467 0 4.754-.775 6.637-2.1-2.672 3.095-6.602 5.05-10.982 5.05-8.055 0-14.583-6.604-14.583-14.75m13.767 28v-12.292c.271.015.541.042.816.042 4.498 0 8.871-1.888 11.74-5.396 1.287-1.573 2.35-3.573 2.35-3.573s-3.318 2.175-5.391 3.071c-1.023.441-2.156.947-4.354.947-1.873 0-3.631-.494-5.162-1.355v-5.118-8.652-5.118c1.531-.862 3.289-1.356 5.162-1.356 2.072 0 3.314.545 4.354.946 2.691 1.041 5.078 2.828 5.078 2.828s-.75-1.756-2.037-3.331c-2.787-3.409-7.242-5.394-11.74-5.394-.275 0-.545.027-.816.042v-12.291c15.439 0 28 12.561 28 28s-12.561 28-28 28"/><path d="M40.652 39 40.641 33.644 46 32 40.641 30.355 40.652 25 37.352 29.34 32 27.674 35.318 32 32 36.326 37.352 34.659z"/></svg>