<svg xmlns="http://www.w3.org/2000/svg" viewBox="0 0 64 64" enable-background="new 0 0 64 64"><path d="m27.861 25.872c-1.508.296-3.993 1.043-3.993 1.043 1.597 0 2.952.255 4.078.61-.144.011-.259.029-.259.029s.115.339.361.439c.146.059.373.05.542.034.069.162.158.342.271.466-.246.044-.523.172-.523.172s.199.298.463.331c.156.02.374-.047.533-.107.1.129.222.263.351.355-.042.032-.076.073-.116.107-.17.103-.313.22-.313.22s.017.015.045.036c-.207.206-.395.432-.563.681l-.541-.436.172.125c-.19-.161-.418-.351-.659-.552l-.387-.317.389.318c-.707-.59-1.532-1.283-1.951-1.637-.075-.063-.095 1.277-.089 2.827-.349-.293-.663-.557-.874-.735-.134-.114-.038 4.409-.038 6.417 0 .941.703 4.264 4.823 2.592 0 0 .189-.059.456-.153v2.741h.848v-.73h.726v-.252h.775v.252h.728v.73h.848v-2.666c.267.095.455.152.455.152 4.121 1.672 4.824-1.648 4.824-2.592 0-2.008.097-6.529-.038-6.416-.211.179-.525.443-.875.736.007-1.582-.012-2.967-.088-2.903-.418.354-1.244 1.047-1.95 1.637l.388-.318-.388.317c-.24.202-.468.391-.658.552l.173-.125-.543.436c-.168-.249-.355-.475-.563-.681.028-.021.045-.036.045-.036s-.143-.117-.313-.219c-.04-.034-.074-.075-.116-.107.128-.093.25-.227.351-.355.158.059.377.126.533.106.264-.033.461-.331.461-.331s-.275-.128-.521-.172c.111-.125.2-.304.27-.466.168.016.396.025.543-.034.244-.1.359-.439.359-.439s-.115-.018-.258-.029c1.127-.355 2.482-.61 4.079-.61 0 0-2.485-.747-3.993-1.043.15-.07.332-.17.422-.284.162-.208.092-.558.092-.558s-.287.103-.493.245c-.009-.167-.074-.357-.141-.521.13-.106.298-.26.358-.404.104-.242-.057-.563-.057-.563s-.25.174-.414.363c-.052-.158-.163-.325-.27-.465.098-.137.219-.329.24-.483.037-.26-.201-.529-.201-.529s-.197.231-.305.457c-.205-.31-.709-.607-.709-.607s.067.584.271.897l.009.012c-.259-.004-.582.088-.582.088s.149.327.403.399c.166.048.424.004.59-.032.002.148.013.302.055.43l.006.015c-.248-.071-.586-.063-.586-.063s.06.352.287.488c.148.089.408.112.577.12-.036.145-.065.296-.06.431l.002.017c-.223-.134-.549-.214-.549-.214s-.035.357.148.545c.037.039.093.072.148.105-.044-.003-.093-.008-.13-.008-.851 0-1.796.806-2.716 1.072.082-.113.141-.245.141-.395 0-.374-.303-.677-.678-.677s-.678.303-.678.677c0 .15.059.282.141.395-.92-.266-1.865-1.072-2.716-1.072-.038 0-.087.005-.132.008.057-.033.111-.066.148-.105.186-.188.15-.545.15-.545s-.328.081-.549.214l.001-.017c.007-.134-.022-.286-.059-.431.169-.007.429-.031.577-.12.227-.136.286-.488.286-.488s-.337-.007-.585.063l.005-.015c.042-.127.053-.281.056-.43.164.036.422.08.59.032.254-.073.403-.399.403-.399s-.325-.092-.583-.088l.01-.012c.204-.313.271-.897.271-.897s-.506.297-.711.607c-.107-.226-.303-.457-.303-.457s-.238.269-.202.529c.021.154.143.346.241.482-.107.141-.219.308-.271.466-.164-.189-.413-.363-.413-.363s-.159.321-.057.563c.062.144.228.297.358.404-.066.164-.131.354-.142.521-.205-.142-.491-.245-.491-.245s-.07.351.091.558c.094.114.276.214.426.284m4.139 3.507c1.878 0 3.4 1.804 3.4 4.031 0 .012-.006.021-.006.033 0 .001.006.006.006.006 0 2.07-1.522 3.748-3.4 3.748s-3.4-1.678-3.4-3.748c0 0 .006-.006.006-.007 0-.011-.006-.021-.006-.032 0-2.227 1.521-4.031 3.4-4.031"/><path d="M32,2C15.432,2,2,15.432,2,32s13.432,30,30,30s30-13.432,30-30S48.568,2,32,2z M5.787,22.166h52.426
		C59.365,25.228,60,28.541,60,32c0,3.459-0.635,6.771-1.787,9.833H5.787C4.635,38.771,4,35.459,4,32
		C4,28.541,4.635,25.228,5.787,22.166z"/></svg>