<svg xmlns="http://www.w3.org/2000/svg" viewBox="0 0 64 64" enable-background="new 0 0 64 64"><path d="m44.77 35.65c-.127-.278-.139-.682-.368-.919-.333-.345-.806-.122-1.026.21-.711-.614-1.015-1.88-.479-2.699.269-.412.311-.076.711-.076.23 0 .439-.133.549-.334.25-.459-.094-.9-.514-1.077 1.359-.384 1.953-1.44 1.979-2.792.027-1.426-1.666-3.628-3.225-2.599.303-.728-.935-1.071-.802-.295-.741-1.134 1.288-2.214 1.718-3.125.291-.62.255-1.187-.438-1.452-.162-.063-.27-.415-.448-.522-.245-.148-.358-.107-.542-.324-.211-.247-.484-.41-.82-.334-.207.047-.369.186-.495-.037-.183-.321-.563-.052-.808-.052-.171 0-.307-.208-.518-.208-.15 0-.276.048-.396.134-.094.068-.16.255-.248.302-.205.107-.42.004-.638.208-.465.432-.12 1.094.475 1.12-.622.63-2.1.885-2.827.27-.503-.426-.004-1.095.16-1.565.191-.548.311-1.11-.007-1.642-.803-1.345-2.271.038-3.247.282-1.323.33-2.025-.874-3.252-.874-.621-.008-1.093.377-1.182 1.006-.116.83.313 1.327.522 2.069.196.693-.62.993-1.155 1.029-.646.044-1.258-.098-1.768-.505.516-.169.897-.691.369-1.167-.193-.175-.424-.159-.627-.279-.202-.117-.284-.329-.533-.396-.313-.083-.426.221-.654.221-.287 0-.441-.146-.733-.005-.343.161-.147.09-.53.042-.27-.033-.529.014-.729.207-.1.097-.165.253-.279.332-.143.099-.319.093-.452.208-.145.127-.247.451-.448.452-.682.005-.594 1.013-.417 1.41.368.832 2.447 1.997 1.821 3.041-.156-.276-.395-.532-.715-.26-.085.073-.309.625-.191.661-.702-.216-1.184-.262-1.878.125-.604.338-1.051 1.074-1.208 1.731-.175.734-.125 1.511.227 2.194.145.284.347.592.58.813.273.26.648.328.927.569-1.009.465.021 1.991.788 1.226.685.686.365 1.867-.044 2.577-.132.23-.259.452-.461.22-.146-.17-.38-.249-.599-.18-.236.077-.605.556-.613.805-.012.396-.4.594-.197 1.056.193.44.578.425.972.517-.924.924-1.14 2.07-.657 3.29.419 1.055 1.336 1.741 2.334 2.208 1.151.533 2.676.509 3.92.563 1.172.052 2.361.065 3.243.947-.468.217-.755.648-.582 1.17.084.253.276.445.505.574.191.107.436.091.574.275.33.438 1.002.262 1.388.025.286-.175.422.169.664.359.176.139.385.371.626.371.24 0 .559-.319.711-.48.184-.196.271-.438.508-.252.332.26 1.174.432 1.426-.027.111-.204.455-.18.645-.305.162-.107.289-.262.354-.447.178-.519-.133-.933-.532-1.226.942-.94 2.222-.94 3.471-.994 1.234-.053 2.513-.126 3.689-.538 1.188-.415 2.107-1.304 2.45-2.527.339-1.213-.082-2.182-.926-3.025.393-.039.711.099 1.003-.274.3-.39.052-.662-.101-1.006m-20.684-11.575h7.502v7.488h-7.502v-7.488m5.834 15.73c-.182-.011-.366-.009-.561 0-.4.017-.663.045-1.016.092-.247.033-.545.081-.936.097-.5.021-.918.011-1.514-.146-.303-.08-.439-.129-.624-.228-.185-.1-.419-.243-.569-.411-.305-.34-.255-.334-.39-.547-.128-.238-.177-.469-.197-.604l-.029-.348v-5.345h.9v7.063l.351.204.482.174v-7.44h.832v7.604c.28.03.828.002.838.001v-7.605h.832v7.52c0 0 .57-.073.833-.09l.001-.029v-7.4h.832v7.428c.135.014.275.051.413.076-.16-.027-.321-.058-.478-.066m1.668.383c0 0-.4-.148-.837-.252.023.006.046.007.069.014l-.002-7.581h.771l-.001 7.819m7.257-16.113h1.046v7.488h-1.046v-7.488m-2.144 0h1.025v7.488h-1.025v-7.488m-2.143 0h1.024v7.488h-1.024v-7.488m-2.169 0h1.051v7.488h-1.051v-7.488m7.504 13.634l-.029.348c-.021.135-.069.365-.197.604-.135.213-.085.207-.391.547-.15.168-.385.312-.568.412-.184.098-.321.146-.625.227-.594.156-1.012.166-1.513.146-.391-.016-.688-.063-.936-.097-.353-.047-.614-.075-1.015-.092-.195-.009-.379-.01-.561 0-.221.012-.438.047-.668.092-.496.101-1.007.291-1.007.291l.005-7.819 7.504-.002v5.343z"/><path d="m30.896 29.32c-.483-.161-.793.183-.941.475-.205.399-.293 1.135-.861 1.021-.309-.063-.454-.511-.454-.717l-.011-.012c.104.035.212.075.336.125.838-1.832 1.084-3.053 1.084-3.053l-.582-.75c.119-.134.229-.271.32-.415.364-.347.092-.939.496-1.211.281-.19.639.023.664.345.025.349-.492.177-.621.581.785.674 1.51-.895.498-1.311-.403-.166-1.326.195-1.432.56.1-.006.198-.013.297-.02-.076.305-.564.418-.051.476.002.212-.184.458-.408.691l-1.394-1.792-2.213 2.847c0 0 .163.789.655 2.039-.01.01-.018.02-.027.029-.098.105-.316.297-.559.522-.158-.281-.455-.584-.914-.431-.379.127-.488.551-.447.777.072.379.318.537.497.611-.161.264-.198.493.03.616.27-.292.54-.585.811-.876.125.407.354.846.801.885.184.017.365-.041.543-.156.115-.073.244-.192.349-.354.078-.121.079-.121.163-.37.074-.215.079-.482.079-.482h-.001c.074-.007.147-.014.233-.014.087 0 .162.006.237.012l-.002.002h-.001c0 0 .005.268.079.482.085.249.086.249.164.37.104.162.232.281.348.354.178.115.359.173.543.156.501-.044.733-.588.848-1.028.119-.469.463-.724.681-.554.128.099.135.266.028.425-.113.171-.374.255-.374.255l.269.342c0 0 .574-.075.688-.676.042-.225-.069-.649-.448-.776m-5.791 1.024c-.07-.041-.144-.095-.191-.167-.106-.159-.1-.326.028-.425.155-.121.37-.021.526.212-.126.123-.251.252-.363.38m1.931-.244c0 .206-.146.654-.454.717-.398.08-.561-.259-.691-.605.185-.2.369-.4.555-.601.08.192.167.393.263.603.123-.046.229-.084.333-.119l-.006.005"/><path d="m34.436 34.112c.17 0 .406.634.379.659-.338.326.111 1.158.237.92.13-.248-.374-.911.297-.721.229.065.341.783.068.979.144.269.435.107.392-.198-.08-.539.008-.775.51-.793.607-.021.472.17.802.246l.294-.003.171-.191c-.007.341-.395.671-.596.839.407.172 1.023-.566.967-.933.368.181.079.897-.074 1.122 1.031.243.087-1.759.417-1.938.889-.487-.515-.827-.859-.807-.744.042-1.832.35-2.557.125.151-.054.158-.179.258-.28-.183-.146-.554.038-.834-.146-.287.192-.427.49-.727.664.191.375.601.278.855.456"/><path d="m34.436 37.453c.171 0 .406.634.379.66-.338.324.111 1.156.237.918.13-.248-.374-.91.297-.719.229.064.341.781.068.978.144.271.435.107.392-.196-.08-.541.008-.775.51-.795.611-.021.468.168.802.247l.294-.003.171-.191c-.007.34-.395.67-.596.838.407.172 1.023-.564.967-.932.368.18.079.898-.074 1.121 1.031.245.087-1.758.417-1.938.889-.488-.514-.826-.859-.808-.744.042-1.832.35-2.557.126.151-.054.158-.179.258-.279-.184-.146-.553.036-.834-.148-.287.192-.427.491-.727.665.19.376.601.276.855.456"/><path d="M32,2C15.432,2,2,15.432,2,32s13.432,30,30,30s30-13.432,30-30S48.568,2,32,2z M18.233,56.367V7.633
		C22.302,5.325,26.998,4,32,4s9.698,1.325,13.767,3.633v48.734C41.698,58.675,37.002,60,32,60S22.302,58.675,18.233,56.367z"/></svg>