<svg xmlns="http://www.w3.org/2000/svg" viewBox="0 0 64 64" enable-background="new 0 0 64 64"><path d="m16.3 22.2h3.933l-.786-4.72 4.72.787v-3.934l-4.72.786.786-4.719h-3.933l.786 4.719-4.719-.786v3.934l4.719-.787z"/><path d="m39.834 18.267l4.719-.787-.786 4.72h3.933l-.786-4.72 4.719.787v-3.934l-4.719.786.786-4.719h-3.933l.786 4.719-4.719-.786z"/><path d="m24.167 45.733l-4.816.803c.25-1.888.883-4.736.883-4.736h-3.934c0 0 .633 2.849.883 4.736l-4.816-.803v3.934l4.816-.803c-.251 1.888-.883 4.736-.883 4.736h3.934c0 0-.632-2.848-.883-4.735l4.816.803v-3.935"/><path d="m47.7 41.8h-3.933l.786 4.72-4.719-.787v3.934l4.719-.786-.786 4.719h3.933l-.786-4.719 4.719.786v-3.934l-4.719.787z"/><path d="M32,2C15.432,2,2,15.432,2,32s13.432,30,30,30s30-13.432,30-30S48.568,2,32,2z M59.369,26.1H37.9V4.631
		C48.611,6.938,57.062,15.389,59.369,26.1z M26.1,4.631V26.1H4.631C6.938,15.389,15.389,6.938,26.1,4.631z M4.631,37.9H26.1v21.469
		C15.389,57.063,6.938,48.611,4.631,37.9z M37.9,59.369V37.9h21.469C57.062,48.611,48.611,57.063,37.9,59.369z"/></svg>