<svg xmlns="http://www.w3.org/2000/svg" viewBox="0 0 64 64" enable-background="new 0 0 64 64"><circle cx="30.414" cy="21.483" r=".922"/><path d="m21.368 28.623c-.488-.157-1.002.106-1.162.592-.157.483.108 1.002.592 1.16.484.157 1.002-.108 1.16-.592.159-.483-.106-1.001-.59-1.16"/><path d="m25.232 40.132c-.3.411-.208.987.204 1.286.411.301.987.209 1.287-.203.3-.411.208-.989-.202-1.287-.417-.299-.993-.209-1.289.204"/><path d="m38.875 40.31c.412-.299.504-.875.206-1.29-.304-.41-.88-.5-1.288-.203-.412.301-.504.877-.204 1.289.298.412.872.503 1.286.204"/><path d="m40.793 26.827c-.488.158-.752.678-.592 1.163.155.483.676.749 1.158.591.487-.156.75-.677.595-1.162-.159-.486-.68-.75-1.161-.592"/><path d="m32 2c-16.568 0-30 13.432-30 30s13.432 30 30 30 30-13.432 30-30-13.432-30-30-30m11.951 28.229c-1.086-.04-2.746 1.195-3.835 1.157-2.503-.083-3.29-1.577-5.212-1.645-1.688-.059-2.847.88-3.734 2.317 4.128-1.147 8.432 1.195 9.613 5.243 1.188 4.055-1.205 8.283-5.34 9.449 0 0 2.132-1.021 1.452-3.345-.3-1.024-2.009-2.19-2.311-3.219-.688-2.355.515-3.55-.013-5.365-.467-1.593-1.732-2.378-3.402-2.764 2.388 3.495 1.443 8.228-2.118 10.583-3.568 2.355-8.41 1.434-10.818-2.063 0 0 1.648 1.674 3.693.322.902-.594 1.505-2.55 2.408-3.146 2.074-1.372 3.605-.614 5.203-1.673 1.399-.926 1.774-2.35 1.632-4.023-2.654 3.308-7.54 3.89-10.924 1.296-3.392-2.596-3.995-7.395-1.344-10.719 0 0-1.114 2.053.83 3.542.858.656 2.94.614 3.797 1.271 1.973 1.511 1.713 3.171 3.23 4.334 1.333 1.02 2.829.927 4.411.276-4.031-1.453-6.105-5.824-4.636-9.779 1.474-3.964 5.946-6.008 9.989-4.566 0 0-2.338-.404-3.182 1.869-.37 1.001.311 2.929-.061 3.933-.855 2.304-2.547 2.576-3.205 4.35-.578 1.557-.027 2.924 1.094 4.195.164-4.203 3.767-7.489 8.059-7.341 4.301.149 7.668 3.684 7.518 7.901.001-.002-.333-2.306-2.794-2.39"/></svg>