<svg xmlns="http://www.w3.org/2000/svg" viewBox="0 0 64 64" enable-background="new 0 0 64 64"><path d="m32.836 15.395c.289.002.402.004.686.002.061-.311.105-.476.242-.92.539-1.711 2.131-2.398 2.059-.795-.023.442-.21.689-.417.926.255-.063.801-.317 1.242-.569 2.461-1.482 1.493-5.118-1.089-4.018-1.338.574-2.143 2.165-2.581 4.354-.083.411-.102.557-.142 1.02"/><path d="m31.299 13.887c.192 1.148.171 1.258.198 1.507.239 0 .781.002 1.033 0 .036-.397.065-.856.149-1.488.1-.735.393-2.274.707-3.342.63-2.136.59-3.445-.39-4.93-.359-.549-.838-1.004-1.053-1.004s-.701.42-1.027.981c-.945 1.558-1.059 2.806-.413 4.959.311 1.005.654 2.505.796 3.317"/><path d="m33.934 15.961c.002-.23.004-.111.008-.298-.66-.006-3.188.004-3.845.004.002.119-.002.179-.006.286 1.081.006 2.948.014 3.843.008"/><path d="m27.354 14.037c.441.251.987.507 1.242.57-.207-.238-.394-.484-.417-.928-.072-1.602 1.518-.914 2.059.797.135.442.182.607.242.918.283.002.396 0 .686 0-.04-.464-.061-.608-.142-1.02-.44-2.191-1.245-3.78-2.581-4.354-2.582-1.1-3.55 2.534-1.089 4.017"/><path d="m33.556 17.202c-.312-.436-.244-.361-.471-.922-.274-.014-1.669-.002-2.11-.002-.242.513-.268.618-.564.941-.391.42-.999.734-.999.734s.54.061 1.041.025c.501-.037.779-.1 1.075-.244-.08.599-.084 1.177-.084 1.177.072.771.155.966.322 1.343.227.311.357.313.524-.018.179-.369.298-.749.336-1.329-.013-.434-.038-.634-.14-1.166.346.15.566.19 1.083.236.53.048 1.018.025 1.018.025s-.716-.36-1.031-.8"/><path d="m16.511 15.961c.002-.23.004-.111.008-.298-.661-.006-3.188.004-3.845.004.002.119-.002.179-.006.286 1.081.006 2.947.014 3.843.008"/><path d="m16.133 17.202c-.312-.436-.244-.361-.471-.922-.275-.014-1.67-.002-2.111-.002-.242.513-.267.618-.564.941-.39.42-.999.734-.999.734s.54.061 1.041.025c.501-.037.78-.1 1.076-.244-.081.599-.085 1.177-.085 1.177.073.771.156.966.322 1.343.227.311.357.313.525-.018.178-.369.297-.749.336-1.329-.014-.434-.039-.634-.141-1.166.346.15.566.19 1.083.236.53.048 1.019.025 1.019.025s-.717-.36-1.031-.8"/><path d="m15.555 14.375c-.083.411-.103.557-.143 1.02.29.002.403.004.686.002.062-.311.105-.476.242-.92.539-1.711 2.132-2.398 2.059-.795-.023.442-.209.689-.417.926.256-.063.802-.317 1.243-.569 2.46-1.482 1.492-5.118-1.089-4.018-1.339.574-2.144 2.165-2.581 4.354"/><path d="m44.777 14.037c.441.251.987.507 1.243.57-.208-.238-.394-.484-.417-.928-.073-1.602 1.518-.914 2.059.797.135.442.181.607.242.918.282.002.396 0 .686 0-.04-.464-.062-.608-.143-1.02-.439-2.191-1.244-3.78-2.581-4.354-2.581-1.1-3.551 2.534-1.089 4.017"/><path d="m50.979 17.202c-.312-.436-.244-.361-.471-.922-.274-.014-1.669-.002-2.11-.002-.242.513-.268.618-.565.941-.39.42-.999.734-.999.734s.54.061 1.041.025c.502-.037.78-.1 1.076-.244-.081.599-.085 1.177-.085 1.177.073.771.155.966.323 1.343.227.311.357.313.523-.018.18-.369.299-.749.337-1.329-.014-.434-.038-.634-.141-1.166.346.15.566.19 1.083.236.53.048 1.019.025 1.019.025s-.716-.36-1.031-.8"/><path d="m47.515 15.954c1.081.006 2.948.014 3.843.008.002-.23.004-.111.008-.298-.66-.006-3.188.004-3.845.004.001.119-.002.178-.006.286"/><path d="m22.416 38.531l.033-.024-.076-.008z"/><path d="m18.762 35.142l-.18-.142-1.287-.289.32.239z"/><path d="m14.59 34.104l.657.45.943.158-.475-.355z"/><path d="m21.994 36.119l-.011.111.212.184.801.097-.475-.155c-.177-.058-.353-.147-.527-.237"/><path d="m19.839 35.991l-1.068-.178.301.224.974.117z"/><path d="m20.094 37.78l-.15-.015 1.179.807-.007.01.286.015-.599-.446c-.252-.104-.488-.227-.709-.371"/><path d="m16.541 35.438l.52.356.694.084-.408-.304z"/><path d="m21.044 37.205c.097-.008.194-.018.293-.033l-.292-.23-.906-.109.441.329.464.043"/><path d="m18.822 36.674l-.578-.07.574.392.432.041-.082-.105z"/><path d="m32 2c-16.568 0-30 13.432-30 30s13.432 30 30 30 30-13.432 30-30-13.432-30-30-30m9.385 44.006c-.139.019-.273.021-.416.055l-.795.175.5.29c.859.498 1.615 1.459 1.813 2.314l.203.811-.432-.657c-.519-.801-1.48-1.239-2.639-1.216l-.816.008.43.389c.738.662 1.277 1.762 1.293 2.639l.029.835-.287-.731c-.338-.892-1.19-1.521-2.329-1.74l-.797-.162.34.469c.584.801.884 1.99.716 2.853l-.144.822-.129-.776c-.146-.941-.849-1.734-1.917-2.186l-.746-.326.233.531c.403.905.452 2.131.11 2.939l-.312.773.034-.785c.052-.953-.471-1.873-1.421-2.537l-.663-.473.121.564c.204.971-.004 2.178-.505 2.896l-.465.693.196-.761c.248-.922-.071-1.931-.864-2.776l-.55-.604v.58c0 .992-.455 2.13-1.095 2.73l-.599.578.352-.703c.432-.848.33-1.902-.271-2.896l-.41-.701-.121.564c-.206.97-.886 1.989-1.637 2.443l-.709.441.492-.614c.599-.742.718-1.792.338-2.889l-.258-.773-.236.529c-.402.906-1.279 1.762-2.108 2.049l-.782.285.605-.502c.741-.598 1.076-1.602.932-2.752l-.09-.811-.342.467c-.582.803-1.619 1.456-2.49 1.563l-.821.117.695-.361c.849-.433 1.385-1.347 1.482-2.501l.079-.813-.431.389c-.737.664-1.884 1.087-2.758 1.012l-.831-.059.756-.208c.922-.245 1.635-1.029 1.971-2.138l.246-.777-.502.289c-.857.496-2.068.671-2.907.416l-.803-.23.785-.047c.949-.048 1.812-.666 2.37-1.68l.401-.711-.549.178c-.943.308-2.165.227-2.933-.197l-.734-.392.776.117c.939.151 1.909-.272 2.668-1.151l.539-.609-.576.061c-.985.104-2.162-.232-2.825-.807l-.638-.535.735.276c.752.291 1.605.161 2.411-.305l-13.131-.69.063-.658 11.58.609-1.281-.877-13.243-1.238.063-.659 12.055 1.128-.639-.438-9.415-1.136.062-.659 8.17.986-.648-.444-9.674-1.618.063-.657 8.317 1.392-.85-.582-6.154-1.381.062-.653 4.644 1.042-4.587-3.139.396-.528 5.934 4.059 1.297.291-4.868-3.629.396-.53 6.053 4.514 1.384.311-7.405-5.836.397-.53 8.2 6.464-6.243-5.402.396-.528 7.472 6.464.231.052c-.061-.094-.137-.187-.182-.282l-.368-.751.561.551c.31.311.702.516 1.139.632l-6.958-6.721.394-.526 7.597 7.34c.217-.014.436-.033.662-.086l.795-.176-.499-.289c-.858-.496-1.617-1.458-1.814-2.313l-.202-.81.435.657c.516.801 1.479 1.237 2.637 1.214l.814-.006-.429-.389c-.737-.665-1.277-1.763-1.294-2.641l-.029-.833.288.731c.338.892 1.19 1.52 2.327 1.738l.798.163-.339-.468c-.583-.803-.883-1.99-.718-2.852l.144-.822.131.776c.146.941.85 1.734 1.917 2.184l.747.326-.236-.53c-.403-.907-.449-2.132-.107-2.938l.312-.774-.035.786c-.052.951.471 1.873 1.421 2.535l.663.475-.119-.567c-.207-.97.002-2.178.503-2.896l.467-.691-.197.761c-.248.92.07 1.93.864 2.775l.549.603v-.58c0-.993.455-2.13 1.095-2.729l.6-.58-.352.705c-.432.847-.33 1.899.269 2.894l.413.703.121-.566c.205-.972.885-1.99 1.637-2.443l.706-.441-.489.616c-.602.738-.719 1.792-.338 2.887l.257.774.234-.53c.405-.907 1.281-1.761 2.11-2.047l.782-.286-.606.499c-.74.6-1.074 1.606-.93 2.756l.09.811.342-.469c.582-.803 1.617-1.456 2.487-1.565l.824-.115-.695.361c-.849.432-1.385 1.346-1.485 2.502l-.076.811.43-.386c.736-.665 1.885-1.088 2.758-1.013l.832.058-.757.209c-.922.246-1.634 1.027-1.971 2.139l-.245.777.501-.29c.858-.495 2.068-.671 2.907-.415l.801.229-.783.049c-.95.045-1.811.664-2.37 1.68l-.401.709.55-.179c.942-.306 2.164-.225 2.933.2l.733.391-.776-.117c-.94-.15-1.908.273-2.667 1.148l-.54.611.574-.06c.987-.104 2.165.23 2.827.805l.638.536-.735-.277c-.618-.238-1.31-.191-1.984.086l11.898 2.905-.185.634-12.561-3.064c-.006.004-.012.006-.018.011l-.479.356 12.775 3.675-.185.636-9.614-2.766c.005.006.015.012.02.02l.515.656-.663-.422c-.532-.349-1.186-.446-1.871-.34l11.394 3.611-.183.635-12.321-3.906-.34.154 12.423 4.572-.185.635-10.367-3.815c.221.228.408.466.541.715l9.186 3.966c-.15.172-.298.346-.451.514l-11.284-4.874m6.168-37.277c.045.548.166 1.145.375 1.841.311 1.004.652 2.504.795 3.317.191 1.148.171 1.258.197 1.507.24 0 .782.002 1.033 0 .037-.397.065-.856.15-1.488.083-.611.299-1.775.551-2.765.22.197.434.399.647.603-.39.72-.692 1.595-.9 2.63-.083.411-.103.557-.143 1.02.29.002.403.004.686.002.062-.311.106-.476.242-.92.263-.833.774-1.416 1.222-1.618.281.299.555.605.822.917-.043.38-.211.614-.402.832.178-.044.495-.182.82-.344 1.926 2.347 3.477 5.013 4.564 7.903h-52.425c1.088-2.891 2.639-5.558 4.566-7.905.324.164.643.302.82.346-.191-.22-.359-.453-.402-.834.267-.311.54-.616.82-.915.448.202.96.785 1.224 1.618.135.442.181.607.242.918.282.002.396 0 .686 0-.04-.464-.062-.608-.143-1.02-.208-1.035-.511-1.911-.901-2.632.188-.178.373-.358.565-.531.253.927.497 2.022.61 2.675.192 1.148.172 1.258.198 1.507.24 0 .782.002 1.033 0 .036-.397.065-.856.15-1.488.1-.735.392-2.274.706-3.342.194-.658.314-1.23.371-1.761 4.476-3.03 9.869-4.802 15.668-4.802 5.751 0 11.102 1.745 15.553 4.729"/></svg>