<svg xmlns="http://www.w3.org/2000/svg" viewBox="0 0 64 64" enable-background="new 0 0 64 64"><path d="m23.149 36.916h5.898l2.95 4.918 2.953-4.918h5.898l-2.95-4.916 2.951-4.917h-5.898l-2.953-4.917-2.95 4.917h-5.898l2.951 4.917-2.952 4.916m2.593-1.439l1.223-2.037 1.22 2.037h-2.443m6.256 3.476l-1.222-2.037h2.444l-1.222 2.037m6.259-3.476h-2.442l1.22-2.037 1.222 2.037m0-6.954l-1.223 2.037-1.22-2.037h2.443m-6.259-3.477l1.223 2.037h-2.444l1.221-2.037m-2.084 3.477h4.172l2.084 3.477-2.084 3.477h-4.172l-2.088-3.477 2.088-3.477m-4.172 0h2.442l-1.22 2.037-1.222-2.037"/><path d="M32,2C15.432,2,2,15.432,2,32s13.432,30,30,30s30-13.432,30-30S48.568,2,32,2z M49.756,10.367H14.244
		C19.08,6.391,25.266,4,32,4S44.92,6.391,49.756,10.367z M6.616,20.2h50.768C59.059,23.789,60,27.786,60,32
		c0,4.215-0.941,8.211-2.616,11.8H6.616C4.941,40.211,4,36.215,4,32C4,27.786,4.941,23.789,6.616,20.2z M14.244,53.633h35.512
		C44.92,57.609,38.734,60,32,60S19.08,57.609,14.244,53.633z"/></svg>