<svg xmlns="http://www.w3.org/2000/svg" viewBox="0 0 64 64" enable-background="new 0 0 64 64"><path d="m32 2c-16.568 0-30 13.432-30 30s13.432 30 30 30 30-13.432 30-30-13.432-30-30-30m-21.677 47.7c-1.469-1.795-2.716-3.776-3.707-5.9h50.768c-.991 2.124-2.238 4.105-3.707 5.9h-43.354m17.131-11.331l-4.479-3.254-4.479 3.254 1.71-5.265-4.479-3.256h5.537l1.712-5.264 1.709 5.264h5.537l-4.479 3.256 1.711 5.265m-16.888-18.85l1.218-3.749 1.218 3.749h3.94l-3.188 2.313 1.218 3.747-3.188-2.315-3.188 2.315 1.218-3.747-2.954-2.145c.028-.057.059-.112.087-.169h3.619z"/></svg>