<svg xmlns="http://www.w3.org/2000/svg" viewBox="0 0 64 64" enable-background="new 0 0 64 64"><path d="M32,2C15.432,2,2,15.432,2,32s13.432,30,30,30s30-13.432,30-30S48.568,2,32,2z M59.142,25.116H31.017V4.025
	C31.344,4.014,31.67,4,32,4C45.064,4,56.065,12.995,59.142,25.116z M17.25,8.215v16.901H4.858
	C6.661,18.014,11.185,11.989,17.25,8.215z M4.858,38.883H17.25v16.902C11.185,52.011,6.66,45.985,4.858,38.883z M32,60
	c-0.33,0-0.656-0.014-0.983-0.025V38.883h28.125C56.066,51.005,45.064,60,32,60z"/></svg>