<svg xmlns="http://www.w3.org/2000/svg" viewBox="0 0 64 64" enable-background="new 0 0 64 64"><path d="m30.178 34.95l1.822-1.385 1.824 1.385-.689-2.251 1.815-1.395-2.248-.008-.702-2.246-.701 2.246-2.249.008 1.815 1.395z"/><path d="m20.344 30.033l1.823-1.384 1.823 1.384-.688-2.251 1.815-1.395-2.248-.008-.702-2.246-.701 2.246-2.249.008 1.816 1.395z"/><path d="m40.011 30.033l1.823-1.384 1.822 1.384-.687-2.251 1.814-1.395-2.248-.008-.701-2.246-.701 2.246-2.25.008 1.816 1.395z"/><path d="m22.869 36.212l-.702-2.245-.701 2.245-2.249.008 1.816 1.395-.689 2.252 1.823-1.385 1.823 1.385-.688-2.252 1.815-1.395z"/><path d="m40.011 39.867l1.823-1.385 1.822 1.385-.687-2.252 1.814-1.395-2.248-.008-.701-2.245-.701 2.245-2.25.008 1.816 1.395z"/><path d="M32,2C15.432,2,2,15.432,2,32s13.432,30,30,30s30-13.432,30-30S48.568,2,32,2z M5.787,22.167h52.426
		C59.365,25.228,60,28.541,60,32c0,3.459-0.635,6.771-1.787,9.834H5.787C4.635,38.771,4,35.459,4,32
		C4,28.541,4.635,25.228,5.787,22.167z"/></svg>