<svg xmlns="http://www.w3.org/2000/svg" viewBox="0 0 64 64" enable-background="new 0 0 64 64"><path d="m42.731 31.563c-.425-.185-.444-.565-.401-.822l1.014-3.568-3.416.71c-.117.016-.444-.009-.613-.68l-.301-1.214-2.369 2.718c0 0-1.534 1.663-1.053-.876l1.029-5.425-1.903.944c-.108.042-.483.096-.98-.845l-1.738-3.288-1.737 3.288c-.497.94-.872.887-.98.845l-1.901-.944 1.027 5.425c.481 2.539-1.052.876-1.052.876l-2.369-2.718-.301 1.214c-.169.671-.494.695-.614.68l-3.416-.71 1.013 3.568c.044.257.024.638-.401.822l-1.069.467c0 0 3.919 3.129 5.203 4.195.25.207.855.813.647 1.461l-.458 1.42 5.363-.814c.275-.023.863.024.826.893l-.25 5.599h.938l-.25-5.599c-.037-.868.553-.916.826-.893l5.363.814-.458-1.42c-.208-.648.396-1.254.647-1.461 1.283-1.066 5.202-4.195 5.202-4.195l-1.068-.467"/><path d="M32,2C15.432,2,2,15.432,2,32s13.432,30,30,30s30-13.432,30-30S48.568,2,32,2z M16.267,55.148V8.852
		C20.754,5.792,26.171,4,32,4s11.246,1.792,15.733,4.852v46.297C43.246,58.208,37.829,60,32,60S20.754,58.208,16.267,55.148z"/></svg>