<svg xmlns="http://www.w3.org/2000/svg" viewBox="0 0 64 64" enable-background="new 0 0 64 64"><path d="M32,2C15.431,2,2,15.432,2,32s13.432,30,30,30c16.568,0,30-13.432,30-30S48.568,2,32,2z M5.45,32H4
		c0-3.102,0.515-6.084,1.45-8.875V32z M32,12.334v1.965h-8.26L32,24.625v2.516L21.604,14.299h-5.9L30.033,32H26.1l-11.8-14.75V32
		h-1.967h-0.983V13.111c0.562-0.613,1.149-1.201,1.763-1.762H32V12.334z M32,5.449h-8.877C25.914,4.513,28.896,4,32,4V5.449z
		 M52.388,43.074l-5.638,2.152l-5.639-2.152c-1.443-0.563-2.818-1.219-2.818-2.721v-17.68h16.914v17.68
		C55.207,41.855,53.832,42.51,52.388,43.074z"/><path d="m50.023 38.039l.325.033.681-.49.523-1.67c.2.092 1.377.613 1.678.344.613-.547.29-2.711-.309-3.273-.283-.266-1.051-.465-1.722-.596l.2-.193.424.26.381-.162-.039-.746h-.398c.26-.475.612-1.379-.162-1.863 0 0 .619-.338.539-.529-.059-.143-.381-.291-.533-.309-.441-.057-1.713.473-1.713.473l-.791-.504-.369-.723c0 0 .537-.105.567-.258.04-.207-.583-.607-.583-.607s.641-.16.674-.348c.033-.184-.507-.555-.507-.555s.444-.439.372-.602c-.076-.17-.738-.131-.738-.131s.352-.414.313-.572c-.033-.129-.451-.285-.451-.285s.051-.857-.095-.891c-.062-.014-.623.209-.623.209s-.149-.51-.31-.496c-.111.01-.568.461-.568.461s-.695-.221-.825-.174c-.224.08-.241.807-.241.807s-.477.281-.531.445c-.061.188.189.764.189.764s-.516-.336-.625-.215c-.125.141.318.68.318.68s-.656.184-.643.367c.018.25.929.367.929.367s-.891.32-.929.592c-.027.195.519.59.519.59l-.106.813-1.17.307c0 0-.281-.48-.445-.545-.427-.17-1.609-.166-1.82.244-.134.26.722.703.722.703-1.218.238-.737 1.785-.737 1.785h-.159l-.041.746.059.023c-.168.088-.313.176-.397.258-.633.629-1.337 3.014-.601 3.516.297.205 1.114-.535 1.389-.797l.061.16.667 2.131.682.49.123-.014-.051.121h-3.422v1.373c0 1.313 1.146 1.889 2.35 2.381l4.699 1.885 4.697-1.885c1.203-.494 2.35-1.068 2.35-2.381v-1.373h-3.715l-.062-.141m-3.453 1.74l-2.445-2.035-1.568-.359-.662-2.139.809-.697c0 0 1.28.953 1.787 1.086.344.09 1.127-.252 1.419-.051.228.156.089.955.349 1.047.561.197 1.406-1.197 1.99-1.285.34-.051 1.009.518 1.32.375.43-.195.801-1.709.801-1.709l1.209 1.127-.64 2.261-1.684.389-2.685 1.99"/></svg>