<svg xmlns="http://www.w3.org/2000/svg" viewBox="0 0 64 64" enable-background="new 0 0 64 64"><path d="m25.271 40.521l1.567 2.713 1.564-2.713c5.703-.711 10.228-5.236 10.938-10.938l2.714-1.566-2.714-1.566c-.711-5.702-5.235-10.226-10.937-10.938l-1.565-2.713-1.567 2.714c-5.7.712-10.226 5.236-10.936 10.938l-2.714 1.566 2.714 1.566c.71 5.701 5.235 10.227 10.936 10.937m1.567-23.492c6.059 0 10.987 4.929 10.987 10.988 0 6.06-4.929 10.988-10.987 10.988-6.06 0-10.99-4.929-10.99-10.988 0-6.059 4.93-10.988 10.99-10.988"/><path d="m24.665 31.779l2.173 3.76 2.17-3.76h4.345l-2.173-3.762 2.173-3.761h-4.343l-2.172-3.761-2.173 3.761h-4.342l2.172 3.761-2.172 3.762z"/><path d="M32,2C15.432,2,2,15.432,2,32s13.432,30,30,30s30-13.432,30-30S48.568,2,32,2z M4,32c0-2.208,0.265-4.354,0.75-6.417
		L36.56,4.377c10.604,1.745,19.218,9.465,22.257,19.578L14.27,53.653C8.005,48.515,4,40.717,4,32z"/></svg>