<svg xmlns="http://www.w3.org/2000/svg" viewBox="0 0 64 64" enable-background="new 0 0 64 64"><path d="m29.7 23.853c-.909.545-1.689 1.418-2.278 2.492l-4.188-4.174v5.179l.954.963c0 0 0 4.376 0 6.126 0 10.111 7.297 4.27 7.297 4.27h1.029.002c0 0 7.298 5.855 7.298-4.27 0-1.359 0-6.126 0-6.126l.953-.963v-5.18l-4.276 4.261c-.959-1.658-2.122-2.531-2.132-2.555-.021-.012-.046-.026-.077-.043 2.212-1.409 6.031-3.142 11.485-3.142 0 0-6.54-1.967-8.259-1.967-1.441 0-3.041 1.363-4.6 1.813.141-.19.238-.413.238-.667 0-.633-.512-1.146-1.146-1.146s-1.146.514-1.146 1.146c0 .254.098.477.238.667-1.559-.45-3.158-1.813-4.6-1.813-1.717 0-8.259 1.967-8.259 1.967 5.462 0 9.284 1.737 11.495 3.147-.009.006-.028.015-.028.015m.724.451c1.042.741 1.576 1.304 1.576 1.304s.545-.574 1.607-1.325c.346.168.559.328.559.328 1.679 1.065 2.86 3.344 2.992 6.022-.008-.001-5.861-2.862-7.624-2.862-.69 0-2.605 1.557-2.605 1.557s.276-1.111.467-1.605c.544-1.414 1.47-2.508 2.535-3.157 0-.001.199-.123.493-.262"/><path d="m32 2c-16.568 0-30 13.432-30 30s13.432 30 30 30 30-13.432 30-30-13.432-30-30-30m0 2c15.439 0 28 12.561 28 28h-17.939c-.013 1.742-.029 3.492-.029 4.702 0 1.594-.974 7.218-6.683 4.388 0 0-.255-.094-.631-.257v5.343h-1.174v-5.828h-3.087v5.828h-1.174v-5.472c-.377.163-.632.258-.632.258-5.708 2.83-6.682-2.794-6.682-4.388 0-1.181-.017-2.875-.029-4.574h-17.94c0-15.439 12.561-28 28-28m22.211 45h-44.422c-.496-.646-.968-1.312-1.407-2h47.237c-.439.688-.912 1.354-1.408 2"/></svg>