<svg xmlns="http://www.w3.org/2000/svg" viewBox="0 0 64 64" enable-background="new 0 0 64 64"><path d="m31.998 34.612h-.006c-.332 0-.504-.241-1.229-.093.734-.007.516.473 1.23.473h.007c.711 0 .504-.479 1.229-.475-.727-.151-.897.095-1.231.095"/><path d="m33.482 31.235c0-.117.055-.223.139-.292-.199.054-.387.171-.518.381.165.131.369.217.581.246-.12-.063-.202-.188-.202-.335"/><path d="m30.824 31.237c-.034-.121-.223-.24-.461-.296.087.069.143.175.143.294 0 .121-.057.229-.146.298.169-.052.329-.147.464-.296"/><path d="m29.743 31.235c0-.128.063-.241.163-.311-.232.04-.456.159-.605.399.186.147.42.238.661.255-.13-.06-.219-.19-.219-.343"/><path d="m34.627 31.237c-.039-.134-.266-.267-.543-.313.097.069.161.183.161.311 0 .137-.072.256-.182.325.207-.044.403-.148.564-.323"/><path d="m18.487 32.167l8.027.304c.003.03.004.06.007.09-1.313.24-2.248.983-3.609.86-1.67-.149-2.613.767-3.262.979-.649.212-1.037-.23-1.13-.04-.092.192.42.608 1.343.473.923-.137 1.197-.836 3.235-.671 1.729.139 2.336-.557 3.615-.622.011.041.022.083.036.123l-7.299 3.35c0 0-.234.098-.17.256.064.155.299.058.299.058l7.531-2.793c.014.027.027.056.042.081-1.12.726-1.7 1.769-3.005 2.176-1.601.501-2.121 1.709-2.64 2.153-.519.445-1.047.184-1.059.397-.013.211.621.401 1.422-.079.801-.479.786-1.231 2.731-1.859 1.652-.531 1.946-1.405 3.103-1.957.026.033.054.065.082.098l-5.462 5.891c0 0-.181.181-.061.3.119.119.3-.06.3-.06l5.889-5.462c.023.02.046.038.069.058-.758 1.099-.895 2.285-1.944 3.161-1.286 1.073-1.306 2.39-1.614 3-.309.608-.896.57-.826.771.069.199.729.132 1.283-.617.557-.749.256-1.437 1.813-2.762 1.322-1.125 1.257-2.045 2.114-2.996.038.021.077.041.116.06l-2.793 7.532c0 0-.098.234.06.3.156.065.254-.171.254-.171l3.351-7.298c.029.01.058.018.088.026-.282 1.305.047 2.453-.588 3.665-.777 1.484-.293 2.706-.344 3.388-.052.68-.609.87-.469 1.027.141.159.723-.155.95-1.06.228-.905-.314-1.426.618-3.246.79-1.544.381-2.37.809-3.578.042.006.086.008.127.014l.303 8.026c0 0 0 .255.169.255.171 0 .169-.255.169-.255l.303-8.026c.031-.004.061-.006.091-.008.24 1.313.983 2.247.86 3.61-.15 1.669.767 2.612.979 3.262.212.648-.229 1.037-.039 1.129s.608-.421.472-1.345c-.136-.922-.836-1.196-.672-3.233.14-1.729-.555-2.336-.621-3.615.041-.012.082-.022.123-.036l3.35 7.298c0 0 .098.236.254.171.157-.065.06-.3.06-.3l-2.792-7.53c.026-.016.055-.026.08-.042.725 1.121 1.768 1.701 2.176 3.006.5 1.6 1.708 2.12 2.153 2.639s.185 1.047.396 1.059c.213.013.402-.621-.076-1.422-.479-.801-1.232-.785-1.86-2.73-.532-1.652-1.407-1.948-1.958-3.104.033-.027.066-.055.1-.081l5.89 5.462c0 0 .179.181.3.06.119-.119-.061-.3-.061-.3l-5.462-5.889c.02-.022.039-.046.059-.07 1.099.76 2.284.896 3.161 1.945 1.074 1.287 2.389 1.306 2.999 1.615.608.308.57.895.771.826.201-.071.134-.729-.615-1.285-.748-.555-1.438-.254-2.764-1.812-1.124-1.323-2.045-1.256-2.996-2.114.021-.038.042-.077.063-.117l7.53 2.795c0 0 .235.096.3-.06.064-.158-.17-.254-.17-.254l-7.299-3.352c.01-.028.018-.058.025-.086 1.307.28 2.454-.048 3.665.587 1.484.776 2.708.29 3.388.342.682.053.871.611 1.029.469.158-.14-.156-.722-1.061-.95-.904-.227-1.426.314-3.246-.616-1.545-.792-2.371-.381-3.577-.809.005-.043.008-.087.012-.129l8.027-.302c0 0 .254 0 .254-.169 0-.171-.254-.169-.254-.169l-8.027-.304c-.003-.03-.004-.06-.007-.09 1.313-.24 2.248-.983 3.609-.86 1.67.149 2.613-.767 3.262-.979.649-.212 1.037.23 1.13.04s-.421-.608-1.343-.473c-.923.137-1.197.836-3.235.673-1.729-.141-2.336.555-3.615.62-.011-.04-.024-.083-.036-.123l7.299-3.35c0 0 .234-.098.17-.254-.064-.157-.299-.06-.299-.06l-7.531 2.793c-.015-.027-.027-.056-.042-.083 1.12-.724 1.7-1.767 3.005-2.174 1.6-.501 2.121-1.709 2.64-2.152.519-.446 1.047-.185 1.059-.396.013-.213-.621-.401-1.422.077s-.786 1.231-2.731 1.859c-1.652.532-1.946 1.405-3.103 1.957-.026-.033-.054-.065-.082-.098l5.462-5.891c0 0 .181-.179.061-.3-.119-.119-.3.06-.3.06l-5.889 5.462c-.023-.019-.046-.038-.07-.058.759-1.099.896-2.285 1.945-3.161 1.286-1.073 1.306-2.39 1.614-2.998s.896-.572.826-.772c-.07-.199-.729-.132-1.283.617-.557.749-.256 1.437-1.813 2.762-1.322 1.125-1.257 2.045-2.114 2.996-.038-.021-.077-.041-.116-.06l2.793-7.532c0 0 .098-.234-.06-.3-.156-.063-.254.171-.254.171l-3.351 7.298c-.027-.008-.058-.018-.088-.026.282-1.305-.047-2.453.588-3.663.777-1.486.293-2.708.344-3.39.052-.68.609-.87.469-1.027-.141-.159-.723.155-.95 1.06-.228.905.314 1.426-.618 3.246-.791 1.544-.381 2.37-.809 3.578-.043-.006-.085-.01-.127-.012l-.303-8.027c0 0 0-.254-.17-.254-.169 0-.169.254-.169.254l-.303 8.027c-.03.002-.061.004-.09.006-.241-1.312-.983-2.247-.86-3.608.15-1.669-.767-2.614-.979-3.264-.212-.648.229-1.037.039-1.129s-.608.421-.472 1.343c.136.924.836 1.198.672 3.235-.14 1.729.555 2.336.621 3.615-.041.012-.082.022-.123.036l-3.35-7.298c0 0-.098-.234-.254-.171-.157.065-.06.3-.06.3l2.792 7.53c-.027.016-.055.026-.08.042-.725-1.121-1.77-1.699-2.176-3.006-.5-1.6-1.709-2.12-2.154-2.639-.444-.519-.184-1.045-.395-1.059-.213-.011-.402.623.076 1.422.479.801 1.232.785 1.859 2.732.533 1.65 1.408 1.946 1.959 3.103-.033.026-.066.054-.1.08l-5.89-5.462c0 0-.18-.179-.3-.06-.119.119.061.3.061.3l5.462 5.889c-.02.024-.039.046-.059.07-1.099-.758-2.284-.895-3.161-1.945-1.074-1.287-2.389-1.306-2.999-1.615-.608-.307-.57-.895-.771-.826-.201.071-.134.729.615 1.285.748.556 1.438.254 2.764 1.812 1.124 1.323 2.045 1.258 2.995 2.114-.021.038-.04.077-.062.115l-7.53-2.793c0 0-.235-.096-.3.061-.064.157.17.255.17.255l7.299 3.35c-.01.028-.018.058-.026.086-1.306-.28-2.454.049-3.664-.585-1.485-.778-2.708-.292-3.388-.344-.682-.053-.871-.609-1.029-.469-.158.14.156.722 1.061.95.904.227 1.426-.314 3.246.616 1.544.792 2.371.381 3.577.809-.005.043-.008.087-.012.129l-8.027.302c0 0-.254 0-.254.169 0 .17.254.168.254.168m11.615-1.607c.551 0 .677.127.932.34.254.211.381.169.423.211.042.043 0 .169-.084.127-.085-.042-.255-.127-.509-.338-.254-.213-.508-.213-.762-.213-.764 0-1.187.636-1.271.593-.085-.043.423-.72 1.271-.72m1.02.719c-.292.214-.646.321-.985.337-.004 0-.008.002-.012.002-.002 0-.004-.002-.006-.002-.395.015-.766-.089-.992-.292.211-.34.572-.504.947-.504.377 0 .773.164 1.048.459m-2.038.212c.848.34 1.355.34 1.694.171.339-.171.424-.256.509-.256.084 0 .084.085-.34.34-.424.254-1.143.296-1.863-.255m2.916 3.803c-.361 0-.678.249-.762.603 0-.42.342-.762.762-.762.422 0 .764.342.764.762-.084-.354-.4-.603-.764-.603m0-.173h-.006c-.932 0-.504-.509-1.395-.594.051-.006.096-.006.141-.006.309-.09.525-.125.689-.131.277-.013.404.049.563.049h.006c.252 0 .42-.164 1.242.078.049 0 .102.004.159.01-.212-.086-.386-.253-.682-.422-.296-.17-.55.036-.719.036h-.006c-.169 0-.422-.206-.719-.036-.297.169-.464.336-.675.422.381-.255.549-.64.973-.64.084 0 .252.046.421.131h.006c.169-.085.337-.131.421-.131.424 0 .598.385.979.64h.002c-.89.085-.468.594-1.4.594m1.102-3.375c-.424-.255-.424-.34-.338-.34.084 0 .168.085.508.256.338.169.846.169 1.693-.171h.001c-.721.551-1.441.509-1.864.255m-.172-.422c.211-.34.571-.504.947-.504.377 0 .771.164 1.047.459-.635.467-1.57.425-1.994.045m2.289-.045c-.084.043-.508-.593-1.271-.593-.255 0-.508 0-.763.213-.253.211-.423.296-.508.338s-.127-.084-.085-.127c.043-.042.17 0 .424-.211.255-.213.382-.34.932-.34.847.001 1.356.678 1.271.72m-3.014-.406c.029-.164.074-.325.133-.482.932-.763 2.201-.847 3.134.421 0 .002.001.002.001.002 0 0-.001 0-.001-.002-.975-.846-2.201-.972-2.879-.337-.166.224-.272.459-.315.707-.086.484.064 1.005.442 1.539-.042 0-.127.042-.169.084-.337-.644-.456-1.304-.346-1.932m-.18 2.482c.32-.013.484-.259.525-.342.009.135.119.242.254.242.141 0 .254-.113.254-.253 0-.108-.064-.206-.166-.242.18.032.309.193.309.376 0 .212-.174.381-.384.381-.124 0-.237-.06-.31-.162-.146.11-.35.121-.458.123-.011 0-.033 0-.05 0-.109-.002-.313-.013-.459-.123-.07.103-.186.162-.309.162-.211 0-.385-.169-.385-.381 0-.183.129-.344.311-.376-.102.036-.168.134-.168.242 0 .14.113.253.254.253.135 0 .246-.107.254-.242.042.084.206.33.528.342m-3.447-2.543c.932-1.268 2.201-1.184 3.133-.421.059.157.104.318.133.482.111.628-.008 1.288-.345 1.932-.042-.042-.127-.084-.17-.084.378-.534.528-1.055.444-1.539-.045-.248-.15-.483-.316-.707-.678-.635-1.905-.509-2.879.337 0 .002-.001.002-.001.002h-.001c0-.001.002-.001.002-.002"/><path d="M32,2C15.432,2,2,15.432,2,32s13.432,30,30,30s30-13.432,30-30S48.568,2,32,2z M8.852,16.267h46.296
		C58.208,20.754,60,26.171,60,32s-1.792,11.246-4.852,15.733H8.852C5.792,43.246,4,37.829,4,32S5.792,20.754,8.852,16.267z"/></svg>