<svg xmlns="http://www.w3.org/2000/svg" viewBox="0 0 64 64" enable-background="new 0 0 64 64"><path d="m32 2c-16.568 0-30 13.432-30 30s13.432 30 30 30 30-13.432 30-30-13.432-30-30-30m18.801 35.368l-1.665 1.329.332 1.997-.997.667-.499-.168v1.83h-.832l.333.667-1.664.665.457 1.056-1.123 1.106.332.332-.664-.165-3.15 1.861.156-.53-.936.177-.205-.469-.763.638-.335-.173-.483.651-3.568-.477-.44-.288-.591.272-1.347-.972.638-.582.837-1.822.039-1.116-.666-1.498-.822.73-4.598-1.186-.955.15-.856.493-2.253-.188v.332l-4.657-1.662v-.998h-.832l-.167-2.828-.664.167-.834-1.997.167.499-1.663-1.831h.997l-.321-1.981.818-1.292.502-.052-.333-1.333-.294.006-.443.488-.094-1.325-.667-.5-.332.167-.067.265-.64-.288-.459-.642 1.164-.997-1.995-1.498-.999-3.66 7.319 5.159 4.492-1.166-.165-.665.831-.167.427-1.48-.094-.515.296-.39.18-.96-.146-.44.628-.613-.127-1.425 1.498-.665 1.331-1.331-.167-.667.978.484.739-.515.28-.801.375.634 4.264.183.872.843 3.405.68.735.668.497-.178.536 1.673.286-.054.384-.449 3.107 1.068.236.44.774-.183.831.832.932 4.821-.764 2.667 3.328.997.177 2.237-.688 1.699 1.011.723-.497 2.829"/></svg>