<svg xmlns="http://www.w3.org/2000/svg" viewBox="0 0 64 64" enable-background="new 0 0 64 64"><path d="m40.347 21.952l1.919-4.528.543.18.691-1.584-1.273-.363-.297.759-.617-.167.27-.759-1.291-.293-.236.77-.612-.121.201-.781-1.296-.226-.179.779-.849-.126-.079.393-.324-.045.063-.393-.655-.07-.06.384-.328-.032.052-.395-.651-.06-.056.394-.634-.044.119-1.194-1.312-.058-.048.788-.64-.013.021-.792h-1.321l.012.782-.628.01-.042-.775-1.317.067.117 1.178-.637.049-.053-.398-.655.06.048.398-.32.033-.067-.396-.657.086.065.388-.319.041-.074-.39-.858.121-.177-.773-1.297.227.219.767-.635.121-.23-.759-1.293.299.264.729-.618.18-.288-.744-1.27.375.691 1.583.317-.096 1.884 4.432c5.114-1.529 11.4-1.522 16.697.002"/><path d="m19.624 29.799c.032-.401.019-.858-.141-1.206 0 0-.457-.419-.942-1.046-.085.682-.035 1.792-.006 2.293.475-.05.879-.048 1.089-.041"/><path d="m44.517 28.593c-.159.348-.171.805-.141 1.205.212-.006.616-.009 1.089.041.031-.501.079-1.61-.006-2.292-.485.626-.942 1.046-.942 1.046"/><path d="m52.15 27.711l-.044-.059c.161-.243.267-.49.265-.718-.002-.24-.109-.451-.297-.596l-.271-.102c.298-.713.212-.855.123-1.004l-.144-.237-.302-.015c.104-.342.131-.7.004-1.041l-.079-.213-.403-.112-.107.01c-.03-.3-.165-.549-.394-.728l-.133-.104-.136-.003c-.025-.262-.105-.371-.162-.445-.123-.165-.313-.26-.518-.26-.406.033-.518.327-.623.612-.105.278-.271.721-.592 1.199l-.015-.013c-.002-1.129-.461-1.483-.89-1.565l-.104-.02c-.102-.28-.236-.535-.409-.709-.217-.219-.443-.265-.595-.265h-.123c-.421-.499-.876-.635-1.266-.44l-.198.116c-.695-.432-1.365-.275-1.466.337-.008.335.154.469.357.638.146.12.357.297.551.514-.241.072-.445.198-.603.374-.24.269-.352.632-.334 1.079-1.148 1.117-2.415 2.466-2.874 3.359.007-1.782.003-3.564-.024-5.347h-16.693c-.028 1.78-.032 3.56-.024 5.34-.463-.894-1.727-2.238-2.87-3.352.018-.447-.094-.809-.336-1.079-.155-.176-.361-.301-.601-.374.191-.217.404-.394.549-.513.203-.169.365-.303.359-.639-.1-.612-.772-.769-1.466-.337l-.2-.116c-.39-.195-.843-.059-1.266.441h-.122c-.15 0-.377.046-.596.264-.173.174-.308.429-.409.709l-.104.02c-.429.083-.886.436-.888 1.565l-.017.013c-.319-.478-.486-.921-.59-1.199-.107-.285-.217-.579-.624-.612-.206 0-.394.095-.519.261-.055.073-.137.183-.162.444l-.134.003-.135.104c-.227.178-.362.428-.394.728l-.107-.01-.403.111-.079.213c-.127.341-.098.699.006 1.041l-.304.015-.142.238c-.09.148-.177.29.121 1.003l-.27.102c-.189.145-.295.356-.297.596-.002.229.104.475.263.718l-.042.059c-.127.171-.171.384-.129.601.04.21.173.424.35.628-.104.176-.131.376-.075.579.165.604 1.208 1.149 2.12 1.519-.511.597-.818 1.23-.745 1.607l.089.332.272.091.19.03c.096 0 .189-.021.29-.062-.023.188-.014.36.038.504.081.232.262.395.492.443l.105.012c.35 0 .529-.279.801-.701l.01-.015.019.194c-.328.398-1.037 1.262-1.262 1.621-.251.302-.196.559-.138.688l.004.012c-.306.3-.639.602-.834.727-.348.24-.306.527-.269.639l.189.371h.099l.017.044.05.12.104.08c.259.197.67.155 1.029-.005l.032.021.115.068h.137c.188 0 .409-.088.626-.21l.315.105.197-.124c.181-.114.851-.658 1.377-1.093.109.28.199.609.259.88h-.222c-.277 0-.381.145-.657.53l-.087.12c-.259.357-.346.707-.259 1.035.028.117.127.333.261.619.148.309.342.719.516 1.178.239.639.382 1.213.406 1.66.041.731.867.988 1.358 1.141.425.131.974.163 1.462.178-.016.361-.077.737-.194 1.188-.089.342-.018.746.185 1.051.215.328.537.531.822.709l.104.066c3.265 2.093 7.01 3.245 10.544 3.245 3.537 0 7.282-1.152 10.546-3.245l.107-.068c.282-.177.603-.379.82-.706.203-.313.271-.707.182-1.052-.117-.449-.18-.826-.195-1.188.489-.015 1.039-.047 1.461-.178.494-.152 1.318-.409 1.36-1.141.024-.449.165-1.021.407-1.66.173-.457.366-.865.513-1.174.136-.288.234-.506.263-.621.087-.33 0-.68-.259-1.035l-.087-.121c-.276-.387-.38-.531-.656-.531l-.154.001c.06-.271.149-.6.26-.881.526.433 1.194.979 1.377 1.093l.195.124.317-.105c.215.122.437.21.626.21h.135l.117-.068.03-.021c.359.16.771.202 1.029.004l.104-.079.052-.12.017-.044h.097l.191-.371c.035-.111.079-.4-.271-.639-.193-.125-.526-.428-.834-.727l.006-.012c.059-.129.111-.387-.138-.688-.227-.359-.936-1.225-1.264-1.621l.019-.194.01.015c.273.422.453.701.803.701l.104-.012c.232-.049.412-.211.494-.443.05-.144.06-.316.038-.504.099.041.194.062.29.062l.188-.03.272-.091.091-.332c.073-.376-.234-1.01-.747-1.607.914-.371 1.957-.915 2.12-1.519.056-.203.028-.403-.075-.579.177-.204.31-.417.352-.628.047-.215.001-.429-.124-.6m-11.195.928h.141l.486-.284-.091-.357c.397-.326 1.412-1.068 2.394-1.711-.313.294-.638.571-.959.845-1.273 1.085-2.589 2.207-2.506 4.097v.207h-.094c.01-.316.016-.641.021-.974.011-.729.011-1.459.017-2.188.12.179.306.365.591.365m-3.47-5.906l1.218 3.119-.828.284.388 1.081h-1.55l.385-1.081-.822-.284 1.209-3.119m-2.378 11.527l.749 1.43 1.218-1.43v2.949h-3.934v-2.949l1.218 1.43.749-1.43m-1.125 3.456v2.95h-3.934v-2.95l1.218 1.429.749-1.429.749 1.429 1.218-1.429m-1.964-14.983l1.216 3.119-.828.284.39 1.081h-1.55l.382-1.081-.821-.284 1.211-3.119m-2.1 7.339l2.026.827-.826-2.028.901.601.902-.601-.826 2.028 2.026-.827-.601.902.601.901-2.026-.827.826 2.028-.902-.601-.901.601.826-2.028-2.026.827.602-.901-.602-.902m-.994 4.188l.748 1.43 1.218-1.43v2.949h-3.933v-2.949l1.217 1.43.75-1.43m-2.376-11.527l1.216 3.119-.828.284.39 1.081h-1.55l.383-1.081-.822-.284 1.211-3.119m5.45 19.146c3.107-1.424 5.521-2.875 6.97-4.883.505-.699.815-1.486 1.016-2.359-.002.349-.001.646.008.82l.029.589.574-.135c.138.034.544.509.676.663l.175.199.113.12.163.028c.181.031.365.034.552-.022l.142-.068c.264-.185.54-.312.838-.389.626.708 1.158 1.231 1.341 1.407.122.731.064 1.043.024 1.156-.338.17-1.609.537-2.396.6l-1.33.106.354.257c-.493.072-.972.145-1.384.227l-.101.027c-.696.15-1.2.48-1.415.925-.139.28-.012.497.269.974.267.455.737 1.256.83 1.87-.089.056-.177.109-.267.158-2.475 1.347-4.43 1.847-7.214 1.847-2.783 0-4.738-.5-7.212-1.847-.091-.05-.179-.103-.268-.158.093-.616.565-1.417.832-1.872.278-.473.405-.688.269-.969-.215-.447-.72-.777-1.388-.922l-.129-.033c-.396-.078-.854-.149-1.326-.219l.365-.264-1.33-.107c-.786-.063-2.06-.43-2.396-.6-.04-.113-.1-.425.022-1.156.186-.176.715-.699 1.341-1.407.3.077.576.206.84.389l.142.068c.187.057.369.054.552.022l.163-.028.111-.12.175-.199c.133-.154.538-.629.676-.662l.574.134.029-.589c.009-.172.011-.46.009-.799.201.864.51 1.644 1.011 2.338 1.45 2.008 3.866 3.459 6.971 4.883m-8.363-13.602c.006.728.006 1.456.017 2.184.005.333.011.658.021.974h-.093l.002-.206c.081-1.89-1.234-3.013-2.506-4.098-.321-.274-.647-.55-.959-.845.979.644 1.996 1.386 2.394 1.712l-.093.357.488.283h.141c.281.001.467-.182.588-.361m-6.016 7.664c-.137.113-1.553 1.288-1.79 1.438-.137-.045-.016-.322-.016-.322s-.6.477-.86.477c-.156-.092.03-.354.03-.354s-.777.573-1.046.369c-.037-.088.529-.455.744-.592-.223.137-1.338.397-.954.135.457-.291 1.396-1.283 1.396-1.283s-.636.102-.31-.258c.221-.378 1.4-1.785 1.4-1.785-.19-.52.067-1.307.352-1.921-.886.256-1.494 1.834-1.719 1.825-.363-.077-.058-1.141.561-1.901-.457.249-1.289 1.076-1.52.999-.155-.052.158-.931 1.114-1.756 0 0-3.03-1.046-2.474-1.702.042-.11 1.85.845 1.099.414 0 0-1.74-1.066-1.381-1.555.221-.053 1.325.731 1.164.489 0 0-1.722-1.354-1.186-1.761.254-.069 1.454.897.979.456 0 0-1.067-2.02-.599-1.674 2.857 2.105-.104-.12.37-1.403.23-.083.298 1.188 2.245 2.352-.419-.395-2.247-2.532-1.419-3.179.082-.063.229.628.785 1.371-.179-.597-.584-2.116-.123-2.078.127.012.292 1.224 1.395 2.333-.012-.22-.032-.502.046-.572 0 0 .141.13.327.322-.079-.536-.185-1.741.428-1.86.049.087.104.54.221 1.065-.004-.652.292-2.049.794-2.049.028 0 .011.266-.008.614.302-.575.783-1.302 1.177-1.106.043.021-.34.49-.537 1.143.592-.631 1.828-1.707 1.936-1.048 0 .088-.962.653-1.277 1.523.145-.029 1.448-.259 1.289 1.137h-.064c.714.687 2.986 2.926 3.134 3.761 0 0-.165.399-.339.292l.073-.286c-.071-.182-2.986-2.303-4.321-2.941-.041.27.113.74.113.74 1.654 2.11 4.349 3.061 4.241 5.567.041 1.159-.896 2.661-1.881 3.915 1.686 2.4 2.104-2.048 1.994-2.812 0 0 .069-.392.269-.384 0 0 .081 2.804.046 3.505-.461-.107-1.058.724-1.323 1.005-.102.019-.197.03-.326-.009-.456-.319-.904-.463-1.305-.523-.837.968-1.561 1.652-1.561 1.652l-.043.002c-.12.617-.207 1.405.039 1.774.131.196 1.784.685 2.738.761 0 0-.684.49-.814 1.055 0 0-.641-.238-1.055.359-.318-.342-.445-.729-1.522-1.783 0 0 .02-.104.04-2.141l-.125.006c.002-.003-.209-1.253-.641-1.818m4.978-1.928c-.119.649-.302 1.239-.489 1.323 0 0-.095-.02-.275-.216.29-.386.545-.755.764-1.107m-4.715 4.667c-.001.051-.002.104-.003.15-.004-.016-.015-.031-.013-.047.005-.039.011-.068.016-.103m28.673.045c-.101-.853-.335-1.136.219-.367.142.195.238.41.18.624-.057.229-.441.905-.76 1.745-.223.59-.405 1.239-.437 1.806-.019.315-.384.503-1.014.699-.501.155-1.277.153-1.802.168-.032.513.012 1.05.203 1.791.057.218.002.473-.118.659-.179.271-.498.448-.78.629-3.265 2.094-6.934 3.168-10.28 3.168-3.346 0-7.015-1.076-10.279-3.168-.282-.181-.601-.358-.778-.631-.122-.185-.176-.441-.12-.657.191-.741.235-1.278.203-1.791-.524-.015-1.3-.013-1.802-.168-.63-.196-.994-.384-1.014-.699-.031-.566-.215-1.216-.438-1.806-.315-.84-.701-1.517-.759-1.745-.058-.214.038-.429.181-.624.553-.769.318-.485.219.367-.034.282.158.509.489.699-.003.157-.005.21-.004.213l-.048.257.187.184c.701.686.979 1.072 1.181 1.354.115.158.21.289.325.412l.417.449.348-.504c.094-.135.199-.193.346-.193l.134.016h-.002l.526.196.125-.546c.067-.287.449-.641.624-.766l.146-.106c.647.092 1.271.183 1.801.288l.093.024c.511.111.926.344 1.079.663.067.137.036.318-.036.459l.05-.02c-.446.779-1.224 1.319-1.18 2.449.179.111.355.229.54.328 2.656 1.445 4.688 1.906 7.446 1.906 2.76 0 4.792-.461 7.447-1.906.185-.1.361-.217.54-.328.044-1.13-.733-1.67-1.18-2.449l.051.02c-.073-.14-.104-.322-.035-.459.154-.319.566-.552 1.078-.663l.092-.024c.545-.108 1.19-.201 1.859-.296l.157.114c.175.125.557.478.622.764l.127.548.524-.196.132-.018c.146 0 .254.061.346.194l.348.505.417-.449c.117-.125.212-.254.325-.412.203-.283.481-.669 1.181-1.354l.188-.185-.048-.258c.001-.002-.002-.061-.006-.249.291-.183.455-.399.424-.661m5.198-10.558c.361.489-1.381 1.554-1.381 1.554-.749.432 1.059-.524 1.099-.413.559.655-2.474 1.702-2.474 1.702.958.825 1.27 1.704 1.114 1.756-.229.077-1.061-.75-1.518-.999.618.761.922 1.824.561 1.901-.227.01-.835-1.568-1.721-1.826.284.616.542 1.403.352 1.922 0 0 1.18 1.406 1.4 1.785.326.359-.308.258-.308.258s.938.992 1.395 1.283c.384.263-.731.002-.954-.135.215.137.781.504.744.592-.267.204-1.044-.369-1.044-.369s.185.262.03.354c-.261 0-.862-.477-.862-.477s.123.277-.016.322c-.237-.149-1.651-1.324-1.788-1.439-.434.566-.645 1.816-.645 1.816l-.123-.006c.02 2.037.038 2.141.038 2.141-1.075 1.055-1.204 1.44-1.521 1.782-.413-.597-1.055-.358-1.055-.358-.131-.565-.816-1.055-.816-1.055.956-.077 2.61-.564 2.738-.761.246-.369.16-1.157.04-1.774l-.042-.002c0 0-.725-.685-1.562-1.653-.399.062-.848.204-1.304.524-.129.037-.225.026-.328.009-.264-.282-.86-1.112-1.321-1.005-.034-.701.046-3.505.046-3.505.199-.008.269.384.269.384-.11.764.309 5.211 1.994 2.812-.986-1.254-1.923-2.756-1.882-3.915-.108-2.506 2.588-3.457 4.24-5.567 0 0 .154-.469.113-.74-1.336.64-4.248 2.759-4.319 2.941l.073.286c-.173.109-.335-.292-.335-.292.145-.833 2.417-3.074 3.132-3.761h-.063c-.159-1.395 1.143-1.165 1.287-1.136-.313-.87-1.277-1.435-1.277-1.524.107-.659 1.345.418 1.936 1.049-.195-.653-.578-1.122-.535-1.143.394-.197.873.532 1.177 1.106-.021-.348-.036-.614-.009-.614.501 0 .797 1.397.793 2.049.119-.525.174-.978.223-1.065.612.119.505 1.324.426 1.86.187-.192.327-.323.327-.323.078.071.06.354.046.573 1.103-1.11 1.27-2.323 1.395-2.333.463-.038.056 1.481-.121 2.078.555-.743.703-1.435.785-1.371.826.647-1.002 2.784-1.421 3.179 1.949-1.164 2.017-2.437 2.245-2.352.475 1.283-2.487 3.508.371 1.402.468-.345-.598 1.674-.598 1.674-.475.441.724-.525.979-.456.536.407-1.186 1.761-1.186 1.761-.162.245.942-.538 1.161-.486m-10.35 5.845c.219.354.474.723.767 1.108-.181.196-.275.215-.275.215-.188-.085-.373-.673-.492-1.323"/><path d="m16.785 33.229l.553-.52c-.006-.148.006-.338.035-.566-.188.095-.401.612-.588 1.086"/><path d="m46.627 32.142c.031.229.043.418.037.565l.551.521c-.187-.473-.4-.99-.588-1.086"/><path d="M32,2C15.432,2,2,15.432,2,32s13.432,30,30,30s30-13.432,30-30S48.568,2,32,2z M32,60C16.561,60,4,47.439,4,32
		S16.561,4,32,4s28,12.561,28,28S47.439,60,32,60z"/></svg>