<svg xmlns="http://www.w3.org/2000/svg" viewBox="0 0 64 64" enable-background="new 0 0 64 64"><path d="m20.026 22.339l2.14 5.727 2.141-5.727 5.726-2.139-5.726-2.139-2.141-5.728-2.14 5.728-5.726 2.139z"/><path d="m32 2c-16.568 0-30 13.432-30 30s13.432 30 30 30 30-13.432 30-30-13.432-30-30-30m-9.834 4.716l3.669 9.816 9.817 3.668-9.817 3.668-3.669 9.816-3.667-9.816-9.818-3.668 9.817-3.668 3.668-9.816m-17.033 33.151h53.734c-.397 1.355-.895 2.67-1.483 3.933h-50.768c-.589-1.263-1.086-2.577-1.483-3.933m44.623 13.766h-35.512c-1.433-1.178-2.746-2.496-3.921-3.933h1.629 40.096 1.63c-1.176 1.437-2.489 2.755-3.922 3.933"/></svg>