<svg xmlns="http://www.w3.org/2000/svg" viewBox="0 0 64 64" enable-background="new 0 0 64 64"><path d="m32 2c-16.568 0-30 13.432-30 30s13.432 30 30 30 30-13.432 30-30-13.432-30-30-30m23.148 14.267c3.06 4.487 4.852 9.904 4.852 15.733h-20.133v-15.733h15.281m-37.617-6.603l.62-1.984c.046-.026.093-.054.139-.08l.646 2.064 2.247.006-1.815 1.396.688 2.251-1.823-1.385-1.825 1.385.689-2.251-1.814-1.396 2.248-.006m-8.679 6.603h15.281v15.733h-20.133c0-5.829 1.792-11.246 4.852-15.733m.024 31.466h15.256v11.134c-6.284-1.844-11.644-5.846-15.256-11.134m30.991 11.134v-11.134h15.256c-3.611 5.288-8.971 9.29-15.256 11.134"/></svg>