<svg xmlns="http://www.w3.org/2000/svg" viewBox="0 0 64 64" enable-background="new 0 0 64 64"><path d="m32 2c-16.568 0-30 13.432-30 30s13.432 30 30 30 30-13.432 30-30-13.432-30-30-30m23.9 15.43l-48.493 27.945c-1.307-2.393-2.275-4.997-2.839-7.747l40.278-30.495c4.555 2.363 8.386 5.935 11.054 10.297m-45.656-1.231l3.816.614-3.133-2.262 3.529 1.581-2.442-2.998 2.999 2.441-1.582-3.528 2.264 3.132-.615-3.815 1.377 3.611.39-6.502c.002-.001.004-.003.006-.004l.391 6.506 1.377-3.611-.616 3.815 2.266-3.132-1.583 3.528 2.999-2.441-2.442 2.998 3.529-1.581-3.133 2.262 3.815-.614-3.612 1.376 6.559.394-6.559.395 3.612 1.375-3.815-.614 3.133 2.265-3.529-1.582 2.442 2.998-2.999-2.44 1.583 3.527-2.266-3.133.616 3.816-1.377-3.613-.394 6.56-.394-6.56-1.377 3.613.615-3.816-2.264 3.133 1.582-3.527-2.999 2.44 2.442-2.998-3.529 1.582 3.133-2.265-3.816.614 3.613-1.375-6.088-.366c.011-.02.022-.039.033-.059l6.055-.364-3.612-1.376m-1.81 30.893l48.443-27.917c1.991 3.846 3.123 8.204 3.123 12.825 0 .501-.015.998-.041 1.492l-46.465 19.494c-1.946-1.717-3.651-3.701-5.06-5.894"/></svg>