<svg xmlns="http://www.w3.org/2000/svg" viewBox="0 0 64 64" enable-background="new 0 0 64 64"><path d="m35.989 18.605l2.174-2.27.229-3.348-5.218-1.594.455-.405-1.631-1.008-1.629 1.009.457.405-4.699 1.169-.29 3.772 2.146 2.277 8.006-.007m-3.01-6.711l4.174 1.687-1.317 1.934-1.313-.469-1.56-.253.016-2.899m-1.983.028l.038 2.87-1.558.253-1.312.469-1.319-1.934 4.151-1.658"/><path d="m31.733 7.799l-.005.113-.133 1.093h.808l-.132-1.089-.006-.117.597.059.328-.376-.328-.361-.528.092.043-.614-.377-.346-.378.346.042.614-.528-.092-.328.361.328.376z"/><path d="m27.488 26.455c-.142-.004-.294.039-.428.089-.282.107-.574.471-.646.761-.261 1.054.753 1.784.772 2.907.77-.348-.039-2.311-.06-2.954l.03-.042c.486-.086.697.415.785.801.777-.533.523-1.542-.453-1.562"/><path d="m32.236 25.726c-.145-.002-.296.038-.429.088-.284.108-.574.471-.646.763-.26 1.055.753 1.784.773 2.908.771-.348-.038-2.311-.062-2.956l.033-.042c.483-.087.697.416.783.803.776-.533.524-1.543-.452-1.564"/><path d="m36.982 26.455c-.145-.004-.296.039-.429.089-.282.107-.574.471-.646.761-.261 1.054.751 1.784.772 2.907.77-.348-.038-2.311-.062-2.954l.032-.042c.484-.086.697.415.786.801.776-.533.523-1.542-.453-1.562"/><path d="m32 2c-16.568 0-30 13.432-30 30s13.432 30 30 30 30-13.432 30-30-13.432-30-30-30m0 2c15.104 0 27.445 12.022 27.975 27h-12.327l-.566-1.605 1.52-1.543-.217-2.136-1.563 1.379-1.18-1.716 1.064-1.881-.767-2.006-1.15 1.73-2.696-2.301 1.031 3.401.036.052-.911.137c-.492-1.148-1.11-2.022-1.808-2.627-1.385-1.199-2.985-1.444-4.156-1.033l-.067-.004-3.521 1.528c-.152-.203-.394-.334-.666-.334-.273 0-.516.131-.667.334l-3.521-1.528-.121.007c-1.171-.416-2.777-.173-4.166 1.03-.697.604-1.314 1.479-1.807 2.628l-.912-.138.036-.052 1.031-3.401-2.696 2.301-1.148-1.73-.767 2.006 1.063 1.879-1.179 1.718-1.563-1.379-.217 2.136 1.519 1.542-.566 1.606h-12.325c.53-14.978 12.871-27 27.975-27m11.819 32.216l1.847 1.52-1.195 1.262-.027.056-1.395-1.734-.553 2.074 1.389 1.945-1.482.91-.041.046-.896-2.033-1.076 1.862.835 2.233-1.67.498-.05.036-.336-2.193-1.525 1.521.241 2.548c-1.479.304-3.192.815-5.602.854-2.507-.039-4.488-.581-6.163-.88l.238-2.521-1.525-1.521-.336 2.193-.052-.036-1.669-.497.834-2.234-1.074-1.862-.896 2.033-.041-.046-1.482-.91 1.389-1.945-.553-2.074-1.395 1.734-.029-.056-1.193-1.262 1.847-1.52.008-2.147-1.802 1.317-.01-.062-.825-1.525 1.751-.8h1.446c.55 4.374 2.701 7.662 5.063 9.82 1.552 1.418 4.039 3.104 6.185 3.924 2.147-.82 4.635-2.506 6.187-3.924 2.361-2.158 4.513-5.446 5.063-9.82h1.448l1.753.799-.825 1.525-.012.062-1.8-1.317.006 2.147m-23.631-6.82l.581-.991c-.043.358-.085.721-.112 1.108-.035.509-.043 1.002-.038 1.487h-2.512l-.285-1.203 2.366-.401m-1.136-1.608l.022-.06.053-1.729 2.06.191c-.114.436-.212.9-.295 1.394l-1.84.204m18.462 3.207v.794l-.521-.175v-.814l-.416-.141-.415.131v.813l-.522.153v-.805l-.707.229v1.313l.509.65.012 3.701-.521 2.019-1.026-.425-.825-2.283v-3.726l.457-.649v-1.317l-.708-.227v.795l-.521-.146v-.812l-.417-.141-.415.161v.813l-.521.187v-.805l-.709.278v1.294l.51.625.011 3.704-1.144 2.843-1.229-2.149v-3.703l.458-.646v-1.303l-.709-.236v.794l-.521-.175v-.814l-.415-.141-.417.131v.813l-.521.153v-.805l-.708.229v1.313l.509.65.012 3.701-.606 2.03c-1.264-2.476-2.147-5.382-2.01-8.353.198-4.264 1.396-5.603 2.011-6.079.214.642.866 1.041 1.494 1.041.534 0 4.341-2.186 4.341-2.186.146.244.411.409.717.409.305 0 .57-.165.716-.409 0 0 3.684 2.186 4.279 2.186.626 0 1.279-.399 1.492-1.041.614.477 1.814 1.815 2.011 6.079.137 2.955-.738 5.846-1.99 8.313l-.773-1.953v-3.701l.457-.646v-1.303l-.709-.236m5.865.005c.005-.485-.003-.979-.038-1.487-.026-.389-.069-.752-.112-1.112l.583.995 2.366.401-.285 1.203h-2.514m-.272-3.416c-.082-.493-.181-.958-.295-1.394l2.061-.191.053 1.729.021.06-1.84-.204m-11.107 32.416c-15.104 0-27.445-12.022-27.975-27h11.453l1.094.643-.158 2.072-2.045-.417.888 1.957 2.092.581.388 2.042-2.086.123 1.367 1.661 2.172.025.907 1.872-1.982.655 1.754 1.254 2.104-.534 1.363 1.575-1.743 1.141 1.119.422c.099.536.169.951.234 1.352-1.275.201-1.897.789-2.869.789-.974 0-1.947-.105-2.919-.838.105 1.245 1.215 2.191 1.215 2.191-1.48.063-2.919-.243-2.919-.243 1.945 2.189 4.354 3.356 7.542 1.723 1.46-.749 2.964.102 4.381.102 1.945 0 1.458-1.575 1.216-2.402 1.104.219 2.326.338 3.667.338v-.004c1.207-.016 2.114-.131 3.147-.334-.244.827-.731 2.402 1.216 2.402 1.415 0 2.919-.851 4.379-.102 3.189 1.634 5.597.467 7.544-1.723 0 0-1.44.307-2.921.243 0 0 1.109-.946 1.217-2.191-.974.732-1.947.838-2.921.838-.972 0-1.594-.588-2.869-.789.066-.401.138-.816.236-1.353l1.117-.421-1.743-1.141 1.364-1.575 2.106.534 1.753-1.254-1.983-.655.908-1.872 2.172-.025 1.367-1.661-2.086-.123.388-2.042 2.092-.581.888-1.957-2.045.417-.158-2.072 1.092-.643h11.455c-.53 14.978-12.871 27-27.975 27"/></svg>