<svg xmlns="http://www.w3.org/2000/svg" viewBox="0 0 64 64" enable-background="new 0 0 64 64"><path d="m32 2c-16.568 0-30 13.432-30 30s13.432 30 30 30 30-13.432 30-30-13.432-30-30-30m27.369 35.9h-54.738c-.41-1.903-.631-3.876-.631-5.9h28 28c0 2.024-.221 3.997-.631 5.9m-49.046 11.8c-1.469-1.795-2.715-3.776-3.707-5.9h50.768c-.991 2.124-2.238 4.105-3.707 5.9h-43.354m21.677-29.5h25.384c.87 1.865 1.542 3.84 1.985 5.899h-27.369v-5.899m-3.242 1.312l-1.771-.588.952 1.641-1.347-1.315.164 1.901-.656-1.787-.657 1.786.164-1.901-1.347 1.315.953-1.641-1.771.588 1.552-1.055-1.844-.256 1.844-.26-1.552-1.054 1.771.587-.953-1.64 1.347 1.317-.164-1.901.657 1.786.656-1.786-.164 1.901 1.347-1.317-.952 1.64 1.771-.587-1.552 1.054 1.844.26-1.844.257 1.552 1.055m-8.672 4.194c1.139 0 2.194-.36 3.064-.979-1.234 1.444-3.047 2.356-5.069 2.356-3.718 0-6.73-3.082-6.73-6.883 0-3.803 3.012-6.884 6.73-6.884 2.022 0 3.835.91 5.069 2.354-.87-.616-1.925-.979-3.064-.979-2.973 0-5.385 2.467-5.385 5.509 0 3.04 2.412 5.506 5.385 5.506m33.591-11.406h-21.677v-5.9h15.039c2.514 1.608 4.756 3.599 6.638 5.9m-36.717 41.3h30.079c-4.348 2.78-9.506 4.4-15.039 4.4s-10.691-1.62-15.04-4.4"/></svg>