<svg xmlns="http://www.w3.org/2000/svg" viewBox="0 0 64 64" enable-background="new 0 0 64 64"><path d="m33.367 28.935h.755v2.299h-.755z"/><path d="m33.367 32.767h.755v2.299h-.755z"/><path d="m34.875 28.935h.753v2.299h-.753z"/><path d="m34.875 32.767h.753v2.299h-.753z"/><path d="m36.383 28.935h.755v2.299h-.755z"/><path d="m36.383 32.767h.755v2.299h-.755z"/><path d="m37.891 28.935h.755v2.299h-.755z"/><path d="m37.891 32.767h.755v2.299h-.755z"/><path d="m39.398 28.935h.754v2.299h-.754z"/><path d="m39.398 32.767h.754v2.299h-.754z"/><path d="m40.906 28.935h.754v2.299h-.754z"/><path d="m40.906 32.767h.754v2.299h-.754z"/><path d="m32 2c-16.568 0-30 13.432-30 30s13.432 30 30 30 30-13.432 30-30-13.432-30-30-30m-22.448 46.717c-.923-1.235-1.739-2.553-2.45-3.934h49.797c-.711 1.381-1.527 2.698-2.45 3.934h-44.897m44.896-33.434c.923 1.235 1.739 2.553 2.45 3.934h-49.796c.711-1.381 1.527-2.698 2.45-3.934h44.896m1.626 20.921c.194-.246 1.138-1.436-.008.012-.003.004-.002.002-.004.005-1.403 1.749-4.124-1.329-4.983-.309.155-1.074 1.722-2.699 1.97-3.48h-6.241c-2.618 2.544-6.027 6.708-11.89 7.869-.295-1.461-3.876-1.875-3.818-2.38.111-.564 2.683-.487 2.715-.981.033-.495-2.379-.807-2.308-1.359.056-.588 1.244-.647 1.286-1.562.027-1.589 1.484-1.536 1.476-2.051-.008-.5-.456-.01-.987-.701-.522-.661.074-2.666-.469-2.688-.776-.028-.254-.875-1.178-.937-.875-.058-.184-.403-1.012-1.264h.002c-1.064-1.175 1.058-2.977 1.083-2.998 5.158 0 8.712 2.224 11.41 4.596h6.628c.002 0 .004 0 .004 0h.31c0 0 .001 0 .003 0h.308c.002 0 .002 0 .004 0h.563l1.764-.574 2.643.862-2.645.863-1.762-.574h-7.187c.417.387.813.771 1.19 1.148h3.509l1.762-.574 2.643.862-2.643.862-1.764-.576h-.563c-.002 0-.004.002-.006.002v-.002h-.305c-.002 0-.004.002-.006.002v-.002h-.306c-.002 0-.004.002-.006.002v-.002h-1.744c.455.461.884.896 1.294 1.294h11.163c.254 0 .461.194.461.431 0 .238-.207.432-.461.432h-2.254c1.235.569 1.959 1.744.359 3.772m-27.168-5.658c-.051-.007-.104-.021-.156-.032v.72h-.754v-.989c-.246-.116-.5-.256-.753-.403v1.393h-.755v-1.849c-.27-.166-.523-.319-.755-.445v2.294h-.753v-2.299h.743c-.464-.251-.826-.378-.978-.195-.298-1.661.826-5.369 4.539-2.802-.255-.177-1.552-1.077.009.005.051.035.042.029.003.003 1.441 1.009-.195 2.699-.547 3.798v.631c.037.062.088.119.157.17m-.156 2.221v2.299h-.754v-2.299h.754m-1.507 0v2.299h-.755v-2.299h.755m-1.51 0v2.299h-.753v-2.299h.753m3.77 0h.753v2.299h-.753v-2.299m0-1.534v-2.299h.753v2.299h-.753m-6.03 0v-2.299h.755v2.299h-.755m.755 1.534v2.299h-.755v-2.299h.755m-2.263-1.534v-2.299h.755v2.299h-.755m.755 1.534v2.299h-.755v-2.299h.755m-9.702 2.36c-1.108.845-4.377.96-4.247 1.63-1.25-.747-2.957-3.06-1.051-4.325h-1.694c-.254 0-.459-.193-.459-.432 0-.236.205-.431.459-.431h10.593c-.155.147-.312.295-.458.431.147.136.303.283.46.432h-5.472c.752 1.031.923 2.837 1.869 2.695m-2.74-4.852c-.187 0-.338-.129-.338-.286 0-.159.151-.288.338-.288h8.322c-.211.194-.418.386-.617.574h-7.705m2.488-1.722c-.187 0-.338-.129-.338-.288 0-.157.151-.288.338-.288h7.809c-.234.191-.461.384-.685.576h-7.124"/></svg>