<svg xmlns="http://www.w3.org/2000/svg" viewBox="0 0 64 64" enable-background="new 0 0 64 64"><path d="m32 2c-16.568 0-30 13.432-30 30s13.432 30 30 30 30-13.432 30-30-13.432-30-30-30m-3.117 15.25c4.381 0 8.311 1.955 10.984 5.049-1.885-1.321-4.172-2.099-6.638-2.099-6.444 0-11.668 5.283-11.668 11.8s5.224 11.8 11.668 11.8c2.466 0 4.753-.775 6.638-2.097-2.674 3.092-6.604 5.047-10.984 5.047-8.055 0-14.583-6.603-14.583-14.75 0-8.146 6.528-14.75 14.583-14.75m20.817 19.004l-5.263-1.638-3.246 4.268.012-5.267-5.269-1.617 5.27-1.617-.012-5.266 3.246 4.267 5.263-1.638-3.265 4.254 3.264 4.254"/></svg>