<svg xmlns="http://www.w3.org/2000/svg" viewBox="0 0 64 64" enable-background="new 0 0 64 64"><path d="m32 2c-16.568 0-30 13.432-30 30s13.432 30 30 30 30-13.432 30-30-13.432-30-30-30m-1.408 45.845c-.7-.749-2.484-2.625-3.507-3.469-.543-.445-1.536-.691-2.601-.747v-.82c.909-.241 1.599-1.394 1.599-2.784 0-1.387-.689-2.541-1.599-2.783v-.257c.886.132 1.77.758 2.169 1.745.868 2.149 1.611 3.065 1.611 3.065s-.463-1.943-.695-4.442c-.105-1.148-1.077-1.957-3.085-2.04v-.363h2.599v-.709h-2.599v-.354c1.14-.107 2.012-.728 2.012-1.475s-.872-1.367-2.012-1.474v-.356h2.599v-.709h-2.599v-.357c1.364-.02 3.089-.227 3.188-2.18.069-1.329.534-2.654.534-2.654s-.983 1.181-1.359 1.947c-.675 1.377-1.464 1.655-2.363 1.704v-.493c1.14-.169 2.012-1.148 2.012-2.331 0-1.182-.872-2.157-2.012-2.33v-2.487c.691-.572 1.476-1.453 2.255-2.861.433-.772.227-1.114.227-1.114s.023.05-.298.327c-.698.606-1.463 1.002-2.184 1.33v-3.479c9.275.19 16.76 7.79 16.76 17.106 0 7.149-4.41 13.287-10.652 15.844m-8.362-25.91c.188-.156.768-.254 1.55-.734v1.979c-1.136.173-2.005 1.148-2.005 2.33 0 1.183.869 2.162 2.005 2.331v.494c-.897-.049-1.687-.327-2.36-1.704-.377-.767-1.36-1.947-1.36-1.947s.465 1.325.534 2.654c.102 1.953 1.824 2.16 3.187 2.18v.357h-2.599v.709h2.599v.356c-1.136.106-2.005.727-2.005 1.474s.869 1.367 2.005 1.475v.354h-2.599v.709h2.599v.362c-2.003.083-2.974.892-3.083 2.04-.23 2.499-.693 4.442-.693 4.442s.741-.916 1.609-3.065c.403-.987 1.283-1.613 2.167-1.745v.257c-.909.242-1.595 1.396-1.595 2.783 0 1.391.686 2.543 1.595 2.784v.811c-1.17.031-2.314.288-2.914.757-.809.64-2.782 2.599-3.497 3.336-6.081-2.629-10.345-8.683-10.345-15.714 0-9.316 7.482-16.916 16.755-17.106v3.793c-1.066.473-1.915.897-2.084 1.836-.023.123-.052 1.422-.083 1.74 0 0 .183.023.617-.328m-18.23 10.065c0-3.459.635-6.771 1.787-9.833h3.639c-1.888 2.814-2.992 6.196-2.992 9.833 0 3.219.877 6.23 2.384 8.833h-3.382c-.926-2.778-1.436-5.747-1.436-8.833m35.45 8.833c1.506-2.603 2.383-5.614 2.383-8.833 0-3.637-1.104-7.019-2.991-9.833h19.371c1.152 3.062 1.787 6.374 1.787 9.833 0 3.086-.51 6.055-1.436 8.833h-19.114"/></svg>