<svg xmlns="http://www.w3.org/2000/svg" viewBox="0 0 64 64" enable-background="new 0 0 64 64"><path d="m10.59 31.046c-.053.045-.551.552-.551.552l-.418 1.781.038-.004 2.862-2.381.033-.161.268-.224c-.018-.005-.029-.01-.029-.01s-1.722.208-2.203.447"/><path d="m12.483 28.227l-.233-.262c-.185.094-.378.089-.579.064l-.608-.68-.085 1.039-1.032 1.307 2.065.008.472-1.476"/><path d="m32 2c-16.568 0-30 13.432-30 30s13.432 30 30 30 30-13.432 30-30-13.432-30-30-30m-25.045 36.394l-1.086-1.274 1.73-1.528c.21-.144.426-.172.675-.191l.966-.965h.258l1.736-1.545.129.097.225-.192.031-.129c0 0 1.254-1.158 1.287-1.158.034 0-.063-.128-.063-.128l-1.449 1.157-.19-.16v.225l-1.867 1.544.056-.642-5.29-3.807c.001-.008.001-.015.001-.021l3.033.01 2.072-2.937.45-.097c0 0 .831.172.933-.032.128-.869.76-.846 1.158-.707l1.094 1.188 1.585-4.955 1.858 5.785.16-.154.707.031.934-.869.036-.592c.107.222.605.399.639.399.032 0 .243-.333.387-.161.133.188 0 .215 0 .32l.129.098 3.664-2.589-3.362 3.228c-.109.061-.273.008-.327-.047l-2.034 1.725c-.117-.178-.259-.31-.481-.388l-.101.088.221.688 7.933-.035-5.29 3.813-.575-1.89-.483-.515c0 0-.984-.58-2.841-.424 1.078 1.238 6.082 6.985 6.091 6.992-.023.352-.102.436-.45.579l-6.435-7.335-1.094.933-.481-.61-.064.225.29.419c0 0-.676.063-.611.61.063.549 2.831.838 2.831.838s-.034 1.211-.063 1.199c-1.029.451-3.701-1.23-3.701-1.23l-.191.258.288.449-.771.838.353 1.254-.548.387-.447-1.22-.297-.262.677-.61c0 0 .321 0 .353 0 .032 0 .354-.419.354-.419l-.225-.29-.289.225c-.101.137-.008.197.117.229-.106-.006-.168-.02-.274-.025l-1.29 1.147c.01.124-.025.262-.13.387l-.677.837-1.607 1.931c-.115.071-.228.075-.357 0m1.075 3.459l1.73-5.261h3.722c.371.416 1.201.586 1.989-.006 1.005-.551 2.659-.334 3.577-.15l1.787 5.415-6.408-4.69-6.397 4.692m49.354 1.947h-34.356l-9.349 9.349c-.504-.438-.998-.887-1.47-1.359l19.791-19.79-19.79-19.79c.472-.472.966-.921 1.47-1.358l9.349 9.348h34.355c.589 1.263 1.086 2.577 1.483 3.933h-31.906l6.453 6.453 1.414 1.414-1.414 1.414-6.453 6.453h31.906c-.397 1.356-.894 2.67-1.483 3.933"/></svg>