<svg xmlns="http://www.w3.org/2000/svg" viewBox="0 0 64 64" enable-background="new 0 0 64 64"><path d="M32,2C15.432,2,2,15.432,2,32s13.432,30,30,30s30-13.432,30-30S48.568,2,32,2z M54.519,15.381l-7.571,7.572
	C44.629,20.636,41.43,19.2,37.9,19.2s-6.729,1.436-9.047,3.753L15.381,9.482C20.033,6.04,25.782,4,32,4
	C41.222,4,49.413,8.482,54.519,15.381z M27.1,32c0-5.955,4.845-10.8,10.801-10.8c5.955,0,10.8,4.845,10.8,10.8
	s-4.845,10.8-10.8,10.8C31.944,42.8,27.1,37.955,27.1,32z M6.434,20.604c1.029-2.299,2.353-4.438,3.934-6.36v35.514
	c-1.581-1.923-2.904-4.062-3.934-6.36V20.604z M32,60c-6.218,0-11.967-2.04-16.619-5.482l13.473-13.471
	c2.317,2.317,5.518,3.753,9.047,3.753s6.729-1.436,9.047-3.753l7.571,7.572C49.413,55.518,41.222,60,32,60z"/></svg>