<svg xmlns="http://www.w3.org/2000/svg" viewBox="0 0 64 64" enable-background="new 0 0 64 64"><path d="m33.703 30.087h-3.404l-1.051 3.155 2.752 1.951 2.754-1.951z"/><path d="m24.798 30.087l2.635 1.869.622-1.869z"/><path d="m27.548 38.352l2.64-1.872-1.633-1.156z"/><path d="m32 24.97l-1.008 3.034h2.018z"/><path d="m35.945 30.087l.622 1.869 2.637-1.869z"/><path d="m33.814 36.48l2.64 1.872-1.009-3.028z"/><path d="M32,2C15.432,2,2,15.432,2,32s13.432,30,30,30s30-13.432,30-30S48.568,2,32,2z M40.51,43.8L32,37.766L23.492,43.8
		l3.249-9.765l-8.508-6.031h10.515L32,18.233l3.254,9.771h10.513l-8.506,6.031L40.51,43.8z"/></svg>