<svg xmlns="http://www.w3.org/2000/svg" viewBox="0 0 64 64" enable-background="new 0 0 64 64"><path d="m32 2c-16.568 0-30 13.432-30 30s13.432 30 30 30 30-13.432 30-30-13.432-30-30-30m-9.833 3.787c3.062-1.152 6.374-1.787 9.833-1.787 11.98 0 22.01 7.397 26 18h-35.833v-16.213m-1.448 18.347l-1.604-.446-1.13-.759.196-.054-2.629-2.258-.339-.331c-.237.187-.805.387-1.095.423-.06.008-.13.012-.209.012l-2.508 2.154.195.054-1.129.759-1.604.446-.055-.192 1.416-1.406.242.095 1.556-1.368.601-.656c-.906-.133-1.826-.328-1.826-.328l-.034.147c0 0-1.267-.304-1.489-.642-.042-.065-.044-.246 0-.31.236-.322 1.523-.493 1.523-.493l.104.155 2.388-.217.13-.31h.354v-.237l-.288-.352h-.276c-.119.207-.342.352-.6.352-.259 0-.479-.145-.599-.352h-.394v.447h-2.697v-1.48h2.698v.445h.348c.084-.221.276-.388.515-.435l-.062-.06-1.556-3.271c.117-.135.23-.271.35-.403l2.37 3.217-.173.232.173.365.449.021.139-.185-.415.022v-.263l.276-.115v-.559l-.346-.014-.104-.34.795-.227v-1.933l-.553-.72.968-.669.968.669-.555.72v1.933l.797.227-.104.34-.348.014v.559l.278.115v.263l-.415-.022.137.185.451-.021.173-.365-.173-.232 3.044-4.133.242.123-2.124 4.467-.062.06c.237.047.432.214.517.435h.348v-.445h2.698v1.48h-2.698v-.447h-.395c-.119.207-.342.352-.599.352-.258 0-.48-.145-.6-.352h-.276l-.256.309c.008.338.006.771-.044 1.013l1.76 1.92 1.558 1.368.242-.095 1.413 1.406-.049.193m36.437 19.866h-33.156v14.824c-.619-.186-1.232-.385-1.833-.611v-16.213h35.833c-.256.681-.539 1.347-.844 2"/></svg>