<svg xmlns="http://www.w3.org/2000/svg" viewBox="0 0 64 64" enable-background="new 0 0 64 64"><path d="m16.362 29.795l-5.995.018 4.842 3.721-1.839 6.003 4.863-3.691 4.863 3.691-1.842-6.003 4.846-3.721-5.998-.018-1.869-5.99z"/><path d="m32 2c-16.568 0-30 13.432-30 30s13.432 30 30 30 30-13.432 30-30-13.432-30-30-30m-22.449 46.717c-.922-1.236-1.738-2.554-2.45-3.934h49.799c-.712 1.38-1.528 2.697-2.45 3.934h-44.899m44.897-33.434c.922 1.236 1.739 2.553 2.45 3.934h-49.796c.711-1.38 1.528-2.698 2.45-3.934h44.896m-25.398 16.717c0 5.974-4.844 10.817-10.816 10.817-5.975 0-10.816-4.843-10.816-10.817s4.842-10.817 10.816-10.817c5.972 0 10.816 4.842 10.816 10.817"/></svg>