<svg xmlns="http://www.w3.org/2000/svg" viewBox="0 0 64 64" enable-background="new 0 0 64 64"><path d="m38.102 30.619l1.565-1.056 1.569 1.056-.593-1.719 1.559-1.096h-1.932l-.603-1.689-.584 1.689h-1.949l1.559 1.096z"/><path d="m55.479 27.804l-.604-1.689-.584 1.689h-1.949l1.559 1.096-.59 1.719 1.564-1.056 1.569 1.056-.593-1.719 1.559-1.096z"/><path d="m48.874 17.632l-.603-1.688-.583 1.688h-1.95l1.559 1.097-.591 1.718 1.565-1.055 1.569 1.055-.593-1.718 1.56-1.097z"/><path d="m49.063 42.863l-.792-2.217-.768 2.217h-2.563l2.052 1.442-.78 2.258 2.059-1.388 2.061 1.388-.778-2.258 2.05-1.442z"/><path d="m32 2c-16.568 0-30 13.432-30 30s13.432 30 30 30 30-13.432 30-30-13.432-30-30-30m-20.65 11.113c.562-.614 1.149-1.202 1.764-1.764h18.886v.983 1.968h-8.26l8.26 10.325v2.516l-10.395-12.841h-5.9l14.328 17.7h-3.933l-11.8-14.749v14.749h-1.967-.983v-18.887m46.145 18.887l-2.62-1.767-2.619 1.767.992-2.879-2.675-1.88h3.336l.96-2.77.987 2.77h3.321l-2.674 1.88.992 2.879m-5.78 16.379l-3.443-2.322-3.442 2.322 1.305-3.782-3.517-2.474h4.385l1.26-3.639 1.298 3.639h4.366l-3.514 2.474 1.302 3.782m-.824-26.55l-2.619-1.768-2.62 1.768.993-2.88-2.676-1.88h3.336l.961-2.77.987 2.77h3.32l-2.674 1.88.992 2.88m-12.19 5.412l.96-2.77.987 2.77h3.32l-2.673 1.88.992 2.879-2.62-1.767-2.62 1.767.993-2.879-2.675-1.88h3.336m-6.701-21.791h-8.875c2.791-.935 5.773-1.45 8.875-1.45v1.45m-26.55 17.675v8.875h-1.45c0-3.102.515-6.084 1.45-8.875"/></svg>