<svg xmlns="http://www.w3.org/2000/svg" viewBox="0 0 64 64" enable-background="new 0 0 64 64"><path d="m41.076 30.88l.127-.021v-1.011l-.814.596.056.113c-.03.027-.063.062-.085.107-.019.038-.026.079-.028.117-.058-.004-.121-.006-.181-.006-.177 0-.242.02-.282.046-.102.065-.093.192-.077.369.01.119.021.265 0 .392-.034.225-.096.271-.137.304-.017.014-.037.034-.059.063.004-3.491.014-6.724.014-6.783 0-.588-1.91-2.36-1.91-2.36l-1.822 1.429.094 1.19c-.436.048-1.912.866-2.104.928-1.573-.876-.524-2.839-.528-2.902.008.006.014.012.02.018l.23.232c0 0 .195-.82-.154-1.337.043-.015.807-.167.807-.167s-1.916-1.344-3.629-.726c.002-.018.008-.031.008-.046 0-.173-.047-.329-.123-.431l-.162-.205-.07.251c-.02.065-.079.107-.15.107h-.207v-.203c0-.071.044-.131.107-.15l.248-.072-.204-.158c-.202-.157-.657-.157-.858 0l-.207.158.251.072c.065.02.108.079.108.15v.203h-.204c-.069 0-.131-.042-.149-.107l-.073-.246-.157.202c-.079.102-.123.257-.123.431 0 .172.044.33.123.428l.157.202.073-.244c.019-.067.078-.109.149-.109h.204v1.484c0 .067-.041.125-.103.146l-.515.183.542.075c.084.01.197.167.229.263l.126.389.125-.389c.031-.096.143-.253.229-.263l.55-.075c.042.154.249 2.022-.743 2.837-.177-.058-1.671-.88-2.105-.928l.092-1.19-1.823-1.429c0 0-1.907 1.772-1.907 2.36 0 .046.006 2.089.009 4.675l-.09-.123-.096.197c-.004.006-.054.111-.096.242-.175-.155-.403-.286-.467-.32l-.161-.091-.033.185c-.007.046-.073.453.046.741-.125-.024-.221-.028-.229-.028l-.175-.008.042.171c.006.021.137.533.457.781.204.155.463.192.634.198l.169.372c0 .035 0 .071 0 .105-.199-.054-.394-.08-.534-.08-.098 0-.16.006-.16.006l-.195.022.094.171c.014.025.054.099.113.175-.056.018-.098.033-.107.037l-.148.056.083.136c.012.021.298.484.705.63.044.018.102.016.151.025 0 2.333-.257 6.693-.257 6.693s2.715-2.428 2.777-2.455c0 0-.534.703-.589.985-.071.35.213 1.239 1.306.87l-.098.447.926.504c-.115.084-.642.32-.642.32l4.342 2.883 4.343-2.883c0 0-2.327-.887-3.102-4.014.036-.018.676-.306.693-.313.265.227 2.233 2.708 2.285 2.764-.022.023-.048.045-.06.067-.006.012-.012.025-.016.038-.059-.004-.105.002-.144.021-.079.038-.131.065-.073.918l.016.223.188-.119c.724-.457.714-.513.696-.599-.007-.046-.032-.089-.066-.129.002-.002.002-.004.004-.006.026.004.04.021.07.021.095 0 .542-.216.647-.369.465-.682.183-1.285.208-1.319.219.3 2.331 2.142 2.331 2.142s-.257-4.202-.257-6.447l.463-.907c.006-.009.036-.026.054-.038.048-.028.107-.063.138-.125.016-.026.021-.058.021-.088.046-.014.094-.035.131-.065.061-.054.063-.123.064-.163.002-.052.006-.129.166-.288.09-.091.215-.167.314-.229.152-.095.264-.161.256-.282-.002-.029-.006-.109-.24-.399.031-.021.058-.051.076-.089.028-.043.039-.089.041-.132m-11.166-9.176h.203c.053 0 .092.028.121.065-.032.002-.066.006-.092.004-.092 0-.162.028-.232.054v-.123m.104 1.63c-.063-.021-.104-.078-.104-.146v-.386c.286.125.519.309.628.71l-.524-.178m-3.179 14.579l-.2-.438-.524.151-1.047-.537.418-.093-.442-.591 1.344.52-.715-1.568-.626.09-.672-.328.455-.179-.403-.473.638.01.427.481-.777-1.703-.753.039-.636-.576.354-.06-.29-.337.818.115.364.507-.601-1.316-.626-.145-.409-.709.564.161-.194-.28-.054-.702.601.497.144-.477.354.87-.178.528.399.875-.105-.281.265-.446.194.519.284-.309.188.996-.347.571.403.884.036-.287.471-.487.15.551.294-.242.005 1.072-.46.479.798 1.75-.249-.897.444-.642.234.799.363-.171-.109.757-.528.492.255.56h-.319m.359-.23l-.123-.271c.146-.1.352-.265.473-.489.19-.355.126-.816.123-.838l-.023-.161c0 0-.286.107-.336.129-.006-.054.132-.723.196-.949.111.139.294.304.486.427.103.067.223.134.344.201-.068 1.024-1.121 1.955-1.14 1.951m.896 2.631l-.736-.399.129-.591-.062-.136.215-.225.114.252.516.282-.176.817m.109.124l.219-1.009-.625-.436c.027-.052 1.837-2.288 2.105-2.513.018.008.658.296.691.31-.306.664-1.359 2.829-2.39 3.648m4.916-3.811c-.664.303-.938.424-1.283.854-.348-.431-.618-.552-1.284-.854-.8-.365-1.855-.797-2.487-1.206-.204-.133-.401-.312-.494-.442-.092-.119-.15-.242-.15-.432v-7.158c0-.302-.396-.598-.396-.598h9.618c0 0-.394.296-.394.598v7.158c0 .189-.056.313-.148.432-.092.131-.289.31-.495.442-.629.409-1.686.841-2.487 1.206m2.776 3.654v-.791l.219.023v-.143l.12-.07.143.033.123.236-.113.08.146.165-.638.467m.403-2.7c-.115-.201-.818-1.565-.964-1.848.121-.067.242-.134.346-.201.189-.125.37-.288.482-.425.176.642.489 1.679.807 2.231.007.022-.608.352-.671.243m4.776-6.072l-.53.408-.225.446-.192.062.01.13-.191.162-2.022 3.97-.099.664-.439.244.06.3-.386.098-.145-.369.275-.132-.064-.496.484-.469 2.022-3.97.016-.249.113-.067-.062-.194.227-.441.018-.671.566-.009-.029-.2.137-.117-.058-.121.515-.376v.638l-.135.022-.014.181-.178.097.326.459"/><path d="m36.02 34.547l.002-3.107-.002-4.051c0-.23.115-.371.115-.371h-8.608c0 0 .117.141.117.371v4.051 3.107c0 .157.162.524 1.097.989 1.546.77 2.734 1.129 3.092 1.568.355-.439 1.543-.799 3.089-1.568.933-.465 1.098-.832 1.098-.989m-4.806-6.551l.45.217.17-.473.168.473.449-.217-.213.453.468.167-.468.167.213.449-.449-.213-.17.469-.168-.469-.45.213.214-.449-.469-.167.469-.167-.214-.453m-2.261 2.94l.79.482-.784.588-.875-.553.869-.517m1.122 4.084l-1.253.314-.684-1.095.826-.991 1.199.482-.088 1.29m2.948.468l-1.191.7-1.19-.7.442-.425-.121-2.831-.758-.302.341-.768-1.516-1.862 1.099-1.715-.501 1.619 1.361 1.457.39-.189.453.209.453-.209.391.189 1.361-1.457-.501-1.619 1.097 1.715-1.514 1.863.34.768-.755.302-.122 2.831.441.424m2.051-1.433c-.545 0-.943.419-.889.934.016.145.064.28.14.401-.436-.104-.789-.469-.835-.902-.055-.515.344-.934.889-.934.393 0 .755.217.947.532-.083-.02-.166-.031-.252-.031m-.369-2.049l-.783-.588.787-.482.873.518-.877.552"/><path d="M32,2C15.432,2,2,15.432,2,32s13.432,30,30,30s30-13.432,30-30S48.568,2,32,2z M22.166,58.213V5.787
		C25.228,4.635,28.541,4,32,4s6.771,0.635,9.833,1.787v52.426C38.771,59.365,35.459,60,32,60S25.228,59.365,22.166,58.213z"/></svg>