<svg xmlns="http://www.w3.org/2000/svg" viewBox="0 0 64 64" enable-background="new 0 0 64 64"><path d="m33.466 25.16c.028.337-.31.731-.226.844.085.112.985-.676 1.295-.704.084.226-.169.45-.084.787.111.113.618-.563.956-.703.056.253-.31.731-.113 1.041.142.028.985-.957 1.268-1.069.28-.113-.143.928 0 1.013.251-.169 1.041-1.069 1.292-1.182.254-.112-.026 1.153.085 1.153.312-.225 1.099-1.294 1.183-1.462.085-.169-.084 1.632.788 2.588.872.957 2.195 2.054 2.335 2.054.169-.309-.056-.957.085-.929.394.423 1.125 1.041 1.294 1.041s-.113-.675.111-.675c.451.422 1.746 2.082 4.277 2.841-.169-.478-.534-.9-.563-1.125.169.029.761.31.872.281.113-.028-1.237-1.688-1.152-1.913.309-.028.449.169.563.028-.142-.225-1.323-1.547-1.323-1.857 0-.309.365.057.479 0 .113-.056-.449-1.238-.338-1.378.113-.141 1.35.76 1.661.76.119 0 .159-.166.171-.372.837.686 2.479 1.992 3.603 3.658-.01.357-.063.727-.173 1.103-.845 2.054-2.533 3.151-5.009 2.25.141.225 1.464 1.322 2.898.928 1.21-.331 2.637-1.183 2.94-3.125.32.703.521 1.449.521 2.226 0 3.714-3.321 3.601-4.277 3.489 1.069.9 5.12.731 5.12-3.489 0-1.211-.555-2.421-1.327-3.515-.209-2.738-1.121-3.129-1.26-3.547-.142-.422.225.112.534.225.309.113-.056-.591-.141-.901-.084-.309.928.647 1.182.731.253.084-.592-2.307-.844-2.476-.253-.169.252.056.421.112s-1.546-2.617-1.913-2.617c-.365 0 .31-.14.507-.14.196 0-1.97-1.745-2.335-1.745-.367 0 .787-.451.9-.479.196.028-2.504-1.435-4.924.028-.141-.112 1.139-.999 1.181-1.378.016-.099-.42-.31-.449-.422-.028-.112.674-.45.703-.703-.169-.226-.479-.141-.647-.197-.042-.211.592-.732.536-.957-.042-.126-.507-.169-.62-.084-.111.084.295-.591.225-.788-.056-.084-.281-.028-.506.029-.142-.029.732-1.239.563-1.407-.169-.169-2.533 1.238-3.405 2.814-.872 1.575-.196 2.841-.31 3.375-.113.535-.253 1.069-.618 1.069-.367 0-1.21-.563-1.492-.844-.28-.282-.338-.479-.732-.591-.394-.113-1.294.225-1.63.252-.338.029-1.661-.252-1.746-.169-.085.084 1.295.592 1.604.761.312.168.338.394.563.534.227.141 2.335.76 1.661 1.633-.477.614-1.604-.62-2.956-.647-1.351-.029-2.307 1.293-2.7 1.744-.394.45-1.659 2.813-1.633 3.067.028.256.789-.701 1.069-.869m14.969.281c.14-.057 1.181.59 1.405.59s.198-.478.283-.422c.059.041 1.354 1.329 1.749 3.122-1.29-1.479-2.812-2.623-3.489-3.063.002-.122.013-.212.052-.227"/><path d="m32 2c-16.568 0-30 13.432-30 30s13.432 30 30 30 30-13.432 30-30-13.432-30-30-30m0 2c15.439 0 28 12.561 28 28 0 6.296-2.09 12.111-5.61 16.794l-44.781-33.586c5.114-6.801 13.246-11.208 22.391-11.208m-21.559 34.51l-1.951-1.477-1.896 1.409.716-2.304-1.936-1.465h2.392l.753-2.421.743 2.421h2.398l-1.95 1.454.731 2.383m14.748-.672l-1.951-1.477-1.897 1.409.717-2.304-1.935-1.465h2.39l.753-2.421.745 2.421h2.396l-1.951 1.452.733 2.385m-4.409 3.248l-.976.725.366 1.192-.976-.738-.948.704.358-1.152-.968-.73h1.194l.377-1.211.373 1.211h1.2zm-3.679-14.409l.733 2.383-1.951-1.477-1.897 1.41.716-2.303-1.934-1.465h2.389l.753-2.422.745 2.422h2.397l-1.951 1.452m-1.945 20.763l.753-2.422.745 2.422h2.397l-1.951 1.452.733 2.383-1.951-1.477-1.897 1.41.716-2.305-1.934-1.464h2.389z"/></svg>