<svg xmlns="http://www.w3.org/2000/svg" viewBox="0 0 64 64" enable-background="new 0 0 64 64"><path d="m32 40.85c4.88 0 8.85-3.969 8.85-8.85 0-4.88-3.97-8.85-8.85-8.85s-8.85 3.97-8.85 8.85c0 4.881 3.97 8.85 8.85 8.85m0-17.414c4.723 0 8.563 3.841 8.563 8.564s-3.84 8.564-8.563 8.564-8.563-3.841-8.563-8.564 3.84-8.564 8.563-8.564"/><path d="m32 39.465c4.119 0 7.465-3.344 7.465-7.465 0-4.122-3.346-7.465-7.465-7.465-4.121 0-7.465 3.344-7.465 7.465 0 4.121 3.344 7.465 7.465 7.465m0-1.865c-3.092 0-5.601-2.508-5.601-5.6 0-3.091 2.509-5.6 5.601-5.6 3.09 0 5.599 2.508 5.599 5.6 0 3.092-2.509 5.6-5.599 5.6m0-12.79c3.97 0 7.19 3.221 7.19 7.19h-1.29c0-3.257-2.643-5.9-5.9-5.9s-5.9 2.643-5.9 5.9h-1.292c0-3.97 3.222-7.19 7.192-7.19"/><path d="m34.819 31.657c0-1.553-1.26-2.811-2.812-2.811s-2.812 1.258-2.812 2.811 1.26 2.811 2.812 2.811 2.812-1.258 2.812-2.811m-2.817.881l-1.525 1.054.572-1.686-1.334-1.054h1.715l.572-1.687.572 1.687h1.715l-1.334 1.054.572 1.686-1.525-1.054"/><path d="m30.772 35.145c0 0-.006.361.071.627-.006-.002-.01-.004-.018-.008-.137-.043-.306-.059-.466-.062.04-.178.086-.45.034-.626-.079-.273-.435-.434-.435-.434s-.098.348-.094.625c-.006-.004-.01-.008-.016-.012-.121-.078-.279-.137-.434-.181.084-.161.2-.413.197-.597-.007-.283-.307-.529-.307-.529s-.187.311-.254.579c-.004-.005-.006-.009-.012-.013-.098-.108-.237-.201-.376-.284.124-.134.305-.35.35-.528.069-.275-.158-.59-.158-.59s-.261.252-.396.493c-.002-.006-.004-.011-.008-.015-.065-.13-.176-.256-.288-.371.154-.098.384-.259.474-.421.139-.249.002-.611.002-.611s-.318.176-.513.375c0-.006 0-.011-.002-.017-.03-.142-.104-.292-.182-.432.174-.055.438-.151.566-.285.199-.204.161-.588.161-.588s-.352.086-.592.229c0-.006.002-.011.002-.017.007-.145-.025-.308-.064-.463.183-.009.463-.035.623-.13.244-.146.31-.527.31-.527s-.365-.007-.634.07c.004-.005.006-.011.008-.017.045-.136.061-.303.063-.462.178.039.452.085.632.034.272-.08.436-.43.436-.43s-.352-.1-.63-.095c.004-.006.008-.009.012-.014.219-.337.292-.967.292-.967s-.544.32-.767.655c-.115-.244-.326-.492-.326-.492s-.258.289-.219.569c.023.167.155.373.261.521-.115.152-.236.332-.294.503-.175-.206-.443-.393-.443-.393s-.173.347-.062.608c.064.155.246.321.387.436-.072.176-.142.381-.152.56-.223-.153-.53-.264-.53-.264s-.077.378.098.603c.104.132.32.245.486.32-.024.188-.036.405 0 .581-.254-.09-.582-.119-.582-.119s.025.385.254.557c.134.101.373.155.553.185.026.188.071.402.151.563-.269-.021-.593.035-.593.035s.124.364.39.471c.155.063.399.055.581.037.074.175.173.369.293.503-.266.048-.563.187-.563.187s.216.321.5.357c.168.02.403-.053.574-.116.117.15.261.313.411.411-.244.115-.496.324-.496.324s.292.256.574.218c.168-.024.376-.154.525-.26.152.114.333.235.505.292-.206.174-.395.439-.395.439s.348.172.611.063c.263-.111.58-.561.58-.561s.012-.549-.137-.792c-.144-.243-.529-.307-.529-.307"/><path d="m34.871 28.451c0 0 .071.63.292.967.002.005.008.008.012.014-.28-.005-.63.095-.63.095s.161.351.436.43c.178.051.452.005.631-.034.003.159.02.326.064.462 0 .006.004.012.006.017-.269-.077-.634-.07-.634-.07s.065.381.312.527c.159.095.439.121.621.13-.039.156-.07.319-.063.463 0 .006 0 .011 0 .017-.238-.143-.592-.229-.592-.229s-.036.384.162.588c.129.134.393.231.566.285-.078.141-.151.29-.181.432-.002.006-.002.011-.004.017-.194-.199-.511-.375-.511-.375s-.137.362.002.611c.089.162.318.323.473.421-.112.115-.223.241-.289.371-.002.004-.004.009-.007.015-.135-.241-.396-.493-.396-.493s-.228.314-.158.59c.045.179.225.395.348.528-.139.083-.276.176-.374.284-.006.004-.008.008-.012.013-.069-.269-.256-.579-.256-.579s-.3.246-.305.529c-.004.184.111.436.195.598-.153.043-.313.103-.434.18-.004.004-.01.008-.014.012.004-.277-.096-.625-.096-.625s-.354.16-.435.434c-.051.176-.004.448.036.626-.16.003-.329.019-.466.062-.008.004-.012.006-.018.008.077-.266.071-.627.071-.627s-.385.064-.532.306c-.148.243-.137.792-.137.792s.315.449.578.561c.264.109.613-.063.613-.063s-.19-.266-.396-.439c.172-.057.354-.178.506-.292.148.105.356.235.524.26.284.038.574-.218.574-.218s-.25-.209-.496-.324c.151-.099.295-.261.413-.41.171.063.405.135.574.115.284-.036.5-.357.5-.357s-.298-.139-.565-.187c.12-.134.22-.328.294-.503.182.018.427.026.582-.037.266-.106.388-.471.388-.471s-.322-.057-.591-.035c.08-.16.125-.374.151-.563.18-.029.417-.084.553-.185.229-.172.252-.557.252-.557s-.326.029-.582.119c.037-.175.024-.392.001-.581.166-.075.384-.188.487-.32.175-.225.098-.603.098-.603s-.31.111-.532.264c-.01-.179-.08-.384-.152-.56.142-.115.322-.281.389-.436.109-.261-.062-.608-.062-.608s-.266.187-.441.393c-.057-.171-.178-.351-.293-.502.106-.147.237-.354.261-.521.038-.28-.218-.569-.218-.569s-.211.249-.326.492c-.225-.335-.767-.655-.767-.655"/><path d="M32,2C15.432,2,2,15.432,2,32s13.432,30,30,30s30-13.432,30-30S48.568,2,32,2z M5.787,22.167h52.426
		C59.365,25.228,60,28.541,60,32c0,3.459-0.635,6.771-1.787,9.834H5.787C4.635,38.771,4,35.459,4,32
		C4,28.541,4.635,25.228,5.787,22.167z"/></svg>