<svg xmlns="http://www.w3.org/2000/svg" viewBox="0 0 64 64" enable-background="new 0 0 64 64"><path d="m32 2c-16.568 0-30 13.432-30 30s13.432 30 30 30 30-13.432 30-30-13.432-30-30-30m-22.449 46.717c-1.352-1.812-2.488-3.791-3.375-5.9h51.648c-.887 2.109-2.023 4.089-3.375 5.9h-44.898m44.897-33.434c1.352 1.811 2.489 3.79 3.376 5.9h-51.648c.887-2.11 2.024-4.089 3.376-5.9h44.896m-16.37 26.55l-6.078-4.614-6.076 4.614 2.295-7.506-6.052-4.65 7.494-.022 2.339-7.489 2.338 7.488 7.495.022-6.054 4.65 2.299 7.507"/></svg>