<svg xmlns="http://www.w3.org/2000/svg" viewBox="0 0 64 64" enable-background="new 0 0 64 64"><path d="m50.586 31.236l-.736-1.031-.543.227 1.176.868z"/><path d="m50.809 30.942l.032-.209-.72-.53z"/><path d="m52.525 29.792l-.507-1.129-.349 1.258.007.205z"/><path d="m50.914 29.921l-.35-1.258-.506 1.129.848.334z"/><path d="m48.771 33.364l.977.195.036-.459v-.016l-1.14-.352.007.63z"/><path d="m50.046 31.771l.121-.169-1.138-.873-.23.465.198.068z"/><path d="m49.817 32.716l.092-.279.02-.299-1.218-.6-.058.501-.007.314.343.084z"/><path d="m51.742 30.733l.032.209.688-.739z"/><path d="m52.798 33.1l.036.459.977-.195.121-.002.006-.63-1.14.35z"/><path d="m52.099 31.3l1.177-.868-.542-.227-.737 1.031z"/><path d="m35.012 36.015c0 6.979 2.74 13.369 10.874 17.251 8.132-3.882 10.874-10.271 10.874-17.251v-8.5h-21.748v8.5m13.265-3.976l.063-.636-2.148-.407 2.228.083.298-.564-1.59-1.241 1.848.951.821-.409.747-1.2-.133-.417.754 1.723-.023.551.139.571.161-.569-.023-.553.755-1.723-.133.417.747 1.2.822.409 1.848-.951-1.591 1.241.298.564 2.229-.083-2.149.407.065.636-.006.248 2.193.149-2.203.224-.028.694 1.978.805-1.991-.483-.196 4.192.503 2.781-.752-2.518.119-4.452h-.02l-1.08.276-.151.469-.096.596-.155.521-.025.062.025.013-.105.62-.145.573-.004.005-.096.524-.197.162.908.912.133.722-.552-.211-.122.654-.333-.144-.238.298-.384-.774-.384.774-.236-.298-.332.144-.123-.656-.551.213.132-.722.909-.912-.194-.162-.097-.522-.004-.007-.144-.573-.107-.62.026-.013-.026-.062-.153-.522-.097-.594-.151-.469-1.08-.276h-.019l.119 4.452-.753 2.518.501-2.781-.194-4.192-1.991.483 1.979-.805-.027-.694-2.204-.224 2.193-.149-.005-.249m-2.405 5.034c1.368 0 1.802.862 1.855 3.252.063.005.119.024.159.072.099.124.121.232.045.34.025.155-.004.297.178.363.296.109.039.499.387.636.309.121.004.491.336.659.298.149-.05.497.348.697.397.197-.073.646.225.819.298.175-.1.622.25.797.348.173-.15.522.173.771.322.25-.075.622.247.847.325.224-.197.521.127.846.248.247-.092.491.098.87.125.247-.125 1.242-.821 1.143-.248.424-1.218.797-1.565.674-.35.248-1.468.596-2.04.05-.57.546-1.691.198-2.039-.05-.348.123-1.317-.25-1.565-.674-.697.1-.947-.896-.822-1.143.188-.379-.149-.623.1-.87.323-.325-.199-.622.125-.846.322-.225-.074-.597.248-.847.322-.248-.175-.598.173-.771.35-.175-.048-.622.249-.797.3-.173-.172-.622.226-.819.397-.2.05-.548.348-.697.334-.168.026-.538.336-.659.348-.137.09-.526.384-.636.185-.067.154-.209.181-.363-.077-.107-.055-.216.044-.34.039-.048.096-.067.16-.072.048-2.389.483-3.252 1.85-3.252m-4.413-7.898c-.242.26-.076.081 0 0m-4.262 2.928c-.282.018-.391.212-.703.173.377-.318.868-.904 1.456-.904-.145-.087-.157-.188-.038-.302-.139-.026-.542-.434-.198-.434-.104-.399-.477-.248-.24-.874.067-.175.179-.989.435-1.128.287-.159 1.268 1.249 1.439 1.364.327.221.719.234.871.67.197.575.14.243.568.547 0-.001.001-.002.001-.003.012-.847.011-1.329.703-2.072.993.388.761 1.391 1.418 1.916.374.3.193.715.549.971.437.311.133.779.355 1.194.378.712.425 1.975-.081 2.648-.223.302-.716.267-.867.614-.135.312.055.737-.271.964-.166.115-.492.203-.792.208-.671 1.085-1.521.094-1.918-.594-.364-.63-.816-.952-1.371-1.383-.697-.539-1.653-.612-2.019-1.514.196-.533.878-.525.943-1.154.032-.301.291-.549.525-.708-.3.06-.488-.217-.765-.199"/><path d="m52.673 32.437l.093.279.827-.279.344-.084-.007-.314-.059-.501-1.217.6z"/><path d="m52.537 31.771l1.049-.509.197-.068-.23-.463-1.137.871z"/><path d="M32,2C15.432,2,2,15.432,2,32.001c0,16.568,13.432,30,30,30s30-13.432,30-30C62,15.432,48.568,2,32,2z M5.45,32.001H4
		c0-3.102,0.515-6.084,1.45-8.875V32.001z M32,12.334v1.967h-8.26L32,24.626v2.516L21.604,14.301h-5.9l14.329,17.7H26.1L14.3,17.25
		v14.751h-1.967H11.35V13.113c0.562-0.613,1.149-1.201,1.763-1.764H32V12.334z M32,5.451h-8.876C25.915,4.516,28.897,4,32,4V5.451z
		 M45.886,54.195c-8.72-4.164-11.658-11.013-11.658-18.497v-9.113h23.316h0.002v9.113C57.546,43.183,54.605,50.031,45.886,54.195z"/></svg>