<svg xmlns="http://www.w3.org/2000/svg" viewBox="0 0 64 64" enable-background="new 0 0 64 64"><path d="m16.758 25.608l-2.212-3.29h-4.425l-2.213 3.29 2.213 3.29h4.425l2.212-3.29m-6.03 2.388l-1.605-2.388 1.605-2.388h3.212l1.605 2.388-1.605 2.388h-3.212"/><path d="m11.689 24.652l-.642.956.642.956h1.288l.641-.956-.641-.956z"/><path d="m16.758 39.085l-2.212-3.292h-4.425l-2.213 3.292 2.213 3.29h4.425l2.212-3.29m-6.03 2.388l-1.605-2.388 1.605-2.39h3.212l1.605 2.39-1.605 2.388h-3.212"/><path d="m11.638 38.129l-.643.956.643.954h1.285l.643-.954-.643-.956z"/><path d="m32 2c-16.568 0-30 13.432-30 30s13.432 30 30 30 30-13.432 30-30-13.432-30-30-30m-19.914 49.381h-.266c-.542-.564-1.063-1.148-1.557-1.757l2.959.038 1.575 2.408-.885 1.279c-.44-.373-.868-.762-1.285-1.161l-.541-.807m3.926.704l-2.171-3.318-4.292-.054c-.364-.488-.707-.991-1.039-1.503l1.836-1.837-2.929-2.929v-6.661l2.929-2.929-2.929-2.931v-8.368l2.929-2.931-1.836-1.835c.422-.648.868-1.277 1.34-1.888h4.205l2.212-3.29-1.247-1.853c.717-.55 1.461-1.064 2.23-1.543v7.481l-2.931 2.929 2.931 2.931v8.368l-2.931 2.931 2.931 2.929v6.661l-2.931 2.929 2.931 2.931v7.481c-.887-.551-1.737-1.152-2.555-1.797l1.317-1.904m16.831-22.161c-2.665 0-5.104-.968-6.986-2.571 1.163.499 2.437.803 3.777.86 5.948.259 10.981-4.354 11.241-10.302.151-3.454-1.341-6.598-3.783-8.68 3.843 1.65 6.533 5.466 6.533 9.91 0 5.955-4.828 10.783-10.782 10.783m-7.256-22.073l1.222.888 1.222-.888-.467 1.437 1.222.888h-1.51l-.467 1.437-.467-1.437h-1.51l1.222-.888-.467-1.437m0 5.546l1.222.888 1.222-.888-.467 1.437 1.222.888h-1.51l-.467 1.435-.467-1.435h-1.51l1.222-.888-.467-1.437m0 5.547l1.222.887 1.222-.887-.467 1.435 1.222.887h-1.51l-.467 1.437-.467-1.437h-1.51l1.222-.887-.467-1.435m5.477-8.251l1.222.887 1.222-.887-.465 1.437 1.222.888h-1.512l-.465 1.437-.467-1.437h-1.511l1.222-.888-.468-1.437m-10.957 5.409l1.222.888 1.222-.888-.467 1.435 1.222.89h-1.51l-.467 1.435-.467-1.435h-1.509l1.221-.89-.467-1.435m-7.932-3.855h.347l.623-.929c.353-.321.713-.634 1.081-.938l.827 1.23-1.605 2.387h-2.871c.509-.604 1.04-1.19 1.598-1.75"/></svg>