<svg xmlns="http://www.w3.org/2000/svg" viewBox="0 0 64 64" enable-background="new 0 0 64 64"><path d="m32 2c-16.568 0-30 13.432-30 30s13.432 30 30 30 30-13.432 30-30-13.432-30-30-30m19.522 22.01l-1.822-1.385-1.823 1.385.689-2.251-1.816-1.396 2.249-.008.701-2.245.7 2.245 2.25.008-1.817 1.396.689 2.251m-23.972 22.576c-.38-3.555-5.462-5.369-5.462-5.369-.533-4.082-2.353-4.916-3.567-6.654-1.214-1.741 1.744-1.89 2.809-1.287 1.062.607.835-1.665.835-1.665s1.291.151 2.804 0c1.523-.148 1.446-2.645 1.446-2.645 1.669-.607 2.656-2.118 2.656-2.118-.531-1.287-1.29-1.967-1.29-1.967s.606.081 1.441-.605c.835-.684 2.778-1.003 2.778-1.003 0 2.195 1.089 3.574 1.089 3.574 3.114 0 4.937 3.48 4.937 3.48 2.656 0 2.885 3.099 2.885 3.099 3.414 0 4.856 2.572 4.856 2.572-2.96 2.57-3.036 6.807-3.036 6.807s-2.656.227-3.566 1.664c-.914 1.438-1.898 1.209-3.035.227-1.141-.984-1.975 1.281-2.81 1.359s-2.729-.078-2.729 2.422c0 2.496-3.112 2.328-3.112 2.328s.452-.666.071-4.219m-11.427-21.592l-1.823-1.385-1.822 1.385.688-2.251-1.816-1.396 2.249-.008.701-2.245.701 2.245 2.249.008-1.817 1.396.69 2.251m13.766-5.9l-1.822-1.385-1.822 1.385.688-2.251-1.816-1.396 2.249-.008.701-2.245.701 2.245 2.249.008-1.817 1.396.689 2.251m-9.407-1.688l.701-2.245.701 2.245 2.249.007-1.817 1.396.689 2.251-1.822-1.385-1.823 1.385.688-2.251-1.816-1.396 2.25-.007m17.274 1.688l-1.822-1.385-1.822 1.385.688-2.251-1.815-1.396 2.249-.008.701-2.245.701 2.245 2.248.008-1.816 1.396.688 2.251m6.883 1.967l-1.822-1.385-1.822 1.385.688-2.251-1.815-1.396 2.248-.007.701-2.245.701 2.245 2.249.007-1.817 1.396.689 2.251"/></svg>