<svg xmlns="http://www.w3.org/2000/svg" viewBox="0 0 64 64" enable-background="new 0 0 64 64"><path d="m34.15 20.396c-4.367-.805-8.912.964-11.583 4.511-2.681 3.559-3.111 8.476-1.086 12.446 1.998 3.919 6.121 6.447 10.519 6.447 7.795 0 13.557-7.767 11.293-15.231-1.265-4.172-4.855-7.385-9.143-8.173m4.177 4.081c-1.2.691-2.329 1.494-3.349 2.42-.254-.296-.513-.585-.777-.87.988-.845 2.063-1.59 3.197-2.241.323.213.633.443.929.691m-6.963 3.039c-.273.309-.536.628-.792.955-.281-.323-.561-.647-.862-.949.251-.298.511-.586.776-.87.3.28.594.566.878.864m-.22-1.543c.278-.274.564-.542.856-.801.292.259.578.528.856.803-.293.275-.578.557-.855.847-.278-.29-.563-.574-.857-.849m.857 2.241c.28.325.548.657.81.997-.278.354-.555.708-.81 1.081-.253-.373-.531-.729-.81-1.083.26-.337.529-.672.81-.995m.637-.698c.283-.298.576-.584.877-.864.266.284.524.574.776.87-.301.303-.58.628-.861.949-.256-.327-.52-.646-.792-.955m2.638-4.779c.409.146.807.313 1.188.509-1.029.626-2.006 1.327-2.915 2.109-.274-.273-.555-.538-.841-.797.81-.666 1.675-1.264 2.568-1.821m-3.276-.57c.719 0 1.42.083 2.094.229-.722.484-1.428.993-2.094 1.55-.666-.557-1.372-1.066-2.096-1.55.676-.147 1.375-.229 2.096-.229m-3.276.57c.894.557 1.759 1.154 2.567 1.82-.285.259-.566.524-.841.795-.909-.78-1.886-1.483-2.916-2.107.383-.195.78-.362 1.19-.508m-2.122 1.047c1.135.653 2.208 1.398 3.198 2.243-.266.285-.524.574-.776.87-1.02-.926-2.149-1.729-3.35-2.42.294-.249.605-.48.928-.693m-4.435 8.216c0-2.671 1.068-5.089 2.795-6.86 1.251.693 2.423 1.518 3.474 2.476-2.229 2.821-3.835 6.15-4.658 9.77-1.016-1.548-1.611-3.396-1.611-5.386m2.347 6.367c.722-3.763 2.326-7.214 4.604-10.12.311.313.602.644.889.978-2.178 3.041-3.589 6.664-3.963 10.586-.561-.428-1.074-.909-1.53-1.444m2.405 2.041c.274-3.856 1.601-7.425 3.693-10.425.297.386.581.782.847 1.191-1.729 2.863-2.742 6.205-2.742 9.787 0 .102.009.202.011.302-.636-.225-1.24-.511-1.809-.855m7.419 1.133c-.75.185-1.531.293-2.338.293s-1.586-.108-2.336-.293c-.008-.191-.02-.384-.02-.58 0-3.234.863-6.265 2.356-8.896 1.492 2.631 2.356 5.661 2.356 8.896.001.194-.012.387-.018.58m.937-.278c.001-.102.011-.2.011-.302 0-3.582-1.015-6.924-2.743-9.787.266-.409.55-.805.846-1.191 2.092 3 3.42 6.566 3.693 10.423-.568.344-1.172.632-1.807.857m2.684-1.454c-.375-3.92-1.785-7.543-3.963-10.584.285-.334.578-.665.887-.978 2.277 2.906 3.881 6.357 4.603 10.12-.456.533-.968 1.016-1.527 1.442m2.264-2.424c-.824-3.619-2.43-6.946-4.658-9.77 1.051-.958 2.221-1.782 3.474-2.476 1.728 1.771 2.796 4.191 2.796 6.86-.001 1.991-.597 3.839-1.612 5.386"/><path d="m32 2c-16.568 0-30 13.432-30 30s13.432 30 30 30 30-13.432 30-30-13.432-30-30-30m17.436 32.261c-.235-.2.246.165 0 0 .384.257.75.587.963 1.005-1.634-1.797-4.623-.559-6.481.086 1.937.145 5.024.539 5.745 2.752-1.332-2.033-4.471-1.267-6.406-.932 1.885.488 4.862 1.301 5.234 3.619-1.001-2.215-4.221-1.951-6.183-1.921 1.789.765 4.601 2.052 4.604 4.392-.642-2.346-3.872-2.582-5.805-2.865 1.636 1.061 4.224 2.729 3.859 5.059-.269-2.414-3.427-3.168-5.295-3.738 1.476 1.26 3.751 3.385 3.03 5.602.117-2.424-2.876-3.656-4.635-4.518 1.239 1.5 3.168 3.912 2.106 6.004.493-2.381-2.272-4.065-3.878-5.193 1.015 1.655 2.518 4.379 1.148 6.266.859-2.276-1.609-4.369-3.02-5.736.749 1.797 1.799 4.713.156 6.368 1.207-2.112-.906-4.569-2.086-6.138.457 1.883 1.043 4.945-.841 6.313 1.521-1.898-.18-4.654-1.1-6.389.155 1.937.257 5.045-1.819 6.104 1.803-1.632.549-4.624-.087-6.481-.151 1.931-.532 5.029-2.75 5.745 2.033-1.332 1.265-4.479.928-6.413-.45 1.886-1.317 4.878-3.616 5.241 2.216-.995 1.952-4.234 1.919-6.191-.735 1.797-2.064 4.609-4.391 4.612 2.346-.632 2.592-3.89 2.866-5.815-1.008 1.654-2.762 4.238-5.06 3.87 2.416-.263 3.169-3.431 3.739-5.295-1.26 1.479-3.384 3.748-5.602 3.03 2.427.125 3.661-2.887 4.521-4.644-1.474 1.268-3.929 3.167-6.007 2.116 2.385.486 4.063-2.27 5.193-3.881-1.658 1.016-4.375 2.52-6.265 1.15 2.273.863 4.371-1.611 5.736-3.02-1.797.739-4.716 1.807-6.367.155 2.108 1.208 4.574-.904 6.137-2.085-1.884.469-4.945 1.038-6.313-.841 1.899 1.523 4.65-.183 6.388-1.099-1.939.148-5.041.261-6.104-1.819 1.637 1.8 4.619.548 6.481-.086-1.939-.159-5.019-.53-5.745-2.752 1.335 2.032 4.48 1.27 6.417.928-1.89-.454-4.875-1.312-5.244-3.615.998 2.217 4.231 1.95 6.191 1.919-1.795-.74-4.611-2.061-4.613-4.391.64 2.343 3.882 2.594 5.815 2.864-1.662-1.008-4.229-2.76-3.87-5.059.261 2.415 3.431 3.17 5.295 3.739-1.479-1.253-3.749-3.389-3.029-5.6-.117 2.424 2.882 3.665 4.644 4.519-1.271-1.467-3.167-3.934-2.116-6.006-.493 2.38 2.274 4.067 3.88 5.193-1.018-1.654-2.52-4.38-1.151-6.265-.86 2.278 1.611 4.366 3.02 5.735-.745-1.799-1.801-4.712-.156-6.367-1.206 2.113.906 4.569 2.085 6.138-.453-1.884-1.045-4.946.842-6.313-1.521 1.894.181 4.654 1.099 6.386-.155-1.936-.255-5.044 1.821-6.104-1.803 1.632-.551 4.624.085 6.482.151-1.94.536-5.018 2.753-5.745-2.033 1.331-1.27 4.481-.93 6.415.447-1.896 1.318-4.868 3.617-5.243-2.215 1.007-1.955 4.226-1.922 6.192.737-1.8 2.065-4.607 4.393-4.613-2.346.645-2.59 3.878-2.867 5.815 1.016-1.661 2.758-4.227 5.063-3.87-2.416.265-3.17 3.429-3.742 5.295 1.271-1.483 3.377-3.738 5.604-3.03-2.429-.11-3.651 2.871-4.519 4.634 1.515-1.23 3.9-3.171 6.004-2.105-2.373-.5-4.067 2.27-5.189 3.872 1.67-.997 4.365-2.516 6.262-1.143-2.274-.864-4.373 1.613-5.738 3.019 1.797-.738 4.719-1.805 6.369-.155-2.107-1.207-4.564.902-6.13 2.078 1.896-.427 4.925-1.045 6.306.849-1.895-1.517-4.646.172-6.381 1.095 1.585-.1 3.817-.31 5.135.82"/></svg>