<svg xmlns="http://www.w3.org/2000/svg" viewBox="0 0 64 64" enable-background="new 0 0 64 64"><path d="m21.045 33.349l.375 1.071c0 0 3.162-2.447 2.935-.816-.225 1.633-5.137 4.229-5.137 4.229l.47.816c0 0 3.989-2.374 4.141-1.337 0 0 .574.695-3.365 1.979l.503.767c0 0 6.025-2.967 7.531-.816 1.505 2.151-4.971 4.45-4.971 4.45l.152 1.091c0 0 6.407-4.22 13.859-.467v-1.556c0 0-6.309-4.097-.997-4.681 5.314-.583 8.243 2.201 8.243 2.201v-1.335c0 0-9.028-4.797-1.25-2.955v-1.349c0 0-7.004-2.446-2.775-2.446.857 0 1.432 0 1.818 0v-.892c0 0-7.161-.997-1.133-1.389v-.91c0 0-10.836-4.989-2.742-3.016v-.988c0 0-3.914-.744-.924-1.188 0 0-1.537-2.082-4.127-2.082-2.594 0-2.171-2.514-2.171-2.514l-3.209 3.465c0 0 2.226-.238-1.41 1.707 0 0 3.023.342-3.845 4.371 0 0 2.545-.942 2.545.689 0 1.634-4.516 3.901-4.516 3.901m17.768.455c.497 0 .902.399.902.889 0 .494-.405.892-.902.892-.5 0-.904-.397-.904-.892-.001-.49.404-.889.904-.889m-2.862-.892c.499 0 .902.399.902.892 0 .491-.403.889-.902.889-.5 0-.903-.397-.903-.889 0-.492.403-.892.903-.892m-2.56-5.613c.499 0 .902.399.902.891 0 .492-.403.89-.902.89-.5 0-.904-.397-.904-.89-.001-.492.404-.891.904-.891m-1.204 3.858c.497 0 .902.399.902.889 0 .492-.405.892-.902.892-.499 0-.905-.399-.905-.892-.001-.489.406-.889.905-.889m-2.38-5.32c.5 0 .904.399.904.892 0 .491-.404.889-.904.889-.499 0-.904-.397-.904-.889-.001-.493.405-.892.904-.892m-2.622 2.168c.5 0 .905.399.905.89 0 .491-.405.891-.905.891-.498 0-.903-.399-.903-.891 0-.491.406-.89.903-.89m-1.074 4.018c.5 0 .903.399.903.889 0 .492-.403.892-.903.892-.499 0-.904-.399-.904-.892 0-.489.405-.889.904-.889"/><path d="M32,2C15.432,2,2,15.432,2,32s13.432,30,30,30s30-13.432,30-30S48.568,2,32,2z M8.852,16.267h46.296
		C58.208,20.754,60,26.171,60,32s-1.792,11.246-4.852,15.733H8.852C5.792,43.246,4,37.829,4,32S5.792,20.754,8.852,16.267z"/></svg>