<svg xmlns="http://www.w3.org/2000/svg" viewBox="0 0 64 64" enable-background="new 0 0 64 64"><path d="m41.768 43.434c-.225 0-1.177-.448-1.727 0-.501-.373-2.776-.621-2.776-.621-.3-.299 5.431.148 5.756-.074.676-.673-1.251-.598-1.55-.373-.534-.324-1.207-.302-1.615-.077-.196-.466-2.056-.263-3.091-.397-.33-.191-.276-.303-.052-.424 2.161.092 4.311.372 6.482.276.586-.761-.74-1.047-1.552-.399-.477-.78-1.452-.025-2.102-.1-.651-.075-.352-.87.475-.746.825.125 2.303-.052 2.577-.424.276-.375-.163-.751-1.526-.397-.461-.447-1.474 0-1.95.149-.631-.352-2.104-.05-2.605.075-.49-.304 2.579-.797 2.579-.797 1.183-.021 1.852-.225 2.226-.325 1.79-.954-.024-1.054-.964-.36-.582-.454-1.137.038-1.661.213-.494.163-1.404.282-1.516.234l-.006-.002-.004-.002-.002-.004v-.002-.004l.002-.006c.075-.113 1.424-.938 1.424-.938s1.753-.124 2.103-.175c.214-.03.962-.382.962-.513-.008-.08-.318-.072-1.264.165-.851.073-1.35.025-1.674.051-.524-.054-.746-.107-.79-.156l-.006-.01.006-.024.01-.01c.127-.102.954-.175.954-.175s2.527-.23 2.695-.363l.004-.002.002-.005.002-.002c.053-1.028-2.144-.554-2.201-.546.006-.724-1.982-.012-2.076 0h-.002l-.131-.151.006-.058c.05-.148.35-.264.35-.264.551-.132 1.373-.175 1.588-.35 0 0 1.554-.013 1.738-.424-.38-1.045-3.288.186-3.676.374l-.149-.052c-.129-.187.503-.797.524-.818l.001-.004c.097-.026 2.419-.146 3.526-1.64.079-.922-1.325.522-1.325.522-.105-1.198-1.526.076-2.353.175-.826.1-.851-.373-.274-.448.576-.074 1.226-.024 1.552-.896.324-.87 1.302.052 1.477-.272.171-.313-.318-.58-.35-.598 0 0 .725-.747-.451-.722-1.164.022-2.67-.146-2.7-.15.073-.026 1.26-.473 2.374-.447 1.152.025.526-.822-.576-.822-1.101 0-1.675-.372-1.675-.372.624-.232 1.25-.465 1.876-.697-.042-.175-.082-.348-.125-.521 0 0 1.101-.872-.451-.672-1.552.197-1.727.223-1.727.223l-3.126.475h-.004c-.029-.006-.331-.101-.389-.216l-.005-.013-.002-.016v-.02c.013-.06.107-.127.348-.187.801-.199 3.629-.77 4.054-.62l.121-.006c.159-.144-.372-1.06-1.673-1.188-1.502-.15-2.426.372-2.426.372s-.978-.35-.076-.646c.9-.3 2.327.1 2.327.1s1.602-.475.274-.674c-1.327-.198-1.743.18-2.353.201-.242-.302 2.082-.373 2.228-.622-.245-.447-1.684 0-2.527 0-.357-.151-.38-.397.025-.548.86-.034 1.667.016 2.527-.017-.027-.457 0-.997-.025-1.452-1.091-.198-2.367.144-2.98.115.163-.498 2.518-.626 2.779-.761.542-.674-2.257-.012-2.326 0-.495-.073-.465-.386-.151-.574.726-.083 2.354.105 2.229-.382-.094-.459-1.127-.214-1.552-.113-.426.098-1.052.022-1.052.022-.273-.364 2.452-.215 2.429-.497-.036-.323-1.729-.1-2.305-.075-.441-.304 2.082-.505 2.201-.545l.002-.002c.094-.828-1.751 0-2.101 0l-.141-.041-.021-.022c-.119-.139-.013-.459-.013-.459l.698-.365.002-.002v-.002-.004l-.002-.002-.009-.008-.59-.215h-.002l-.004-.002-.002-.004-.002-.002.008-.564c0 0 .521-.388.555-.542v-.005-.006-.006-.006-.002l-.004-.006v-.004l-.002-.002h-.002l-.002-.006-.003-.002-.008-.006-.006-.002c-.131-.063-.676.123-.676.123 0-.165 0-.33 0-.497 0 0 .476-.05.525-.274v-.039l-.002-.015-.013-.031-.006-.006c-.109-.138-.556-.157-.556-.157-.082-.872-.165-1.742-.247-2.612-.075.813-.152 1.625-.227 2.439-.275.04-.55.083-.826.123 0 0 .574.322.674.646l-.014.126-.03.031c-.165.129-.657.067-.657.067s.651.549.701.749l.002.013v.014l-.004.01-.022.031c-.152.14-.874.18-.874.18s.801.57.851.896c.044.292.006.463 0 .493-.056-.048-1.347-1.131-2.18-.816l-.075.062-.004.033c.058.181 1.237.364 2.058 1.075-.021.177-2.34-.564-2.426-.1.072.131 2.496.48 2.675.797-.893.033-2.736-.196-2.675.096-.187.34 1.741.148 2.55.425.238.269.216.493-.197.522-.78-.371-2.525-.647-2.529-.173v.002l.002.002.004.006.013.01c.198.098 1.823.05 2.434.453-.866.195-3.809-.397-3.827-.109.084.136.549.729 1.352.704.799-.022 2.652.325 2.777.574l.004.021c-.056.173-2.441-.528-3.357-.096-.952.447 2.726.175 3.326.722.602.548-1.2-.052-1.2-.052s-2.502-.346-2.877-.171c-.376.173-.801.572-.801.572s.25.496.499.396l.079-.012h.004l.002.002.004.002.002.004.002.002.004.01-.171.294c0 0 3.503.843 4.278 1.59.778.745-4.453-1.169-4.453-1.169s-2.104.77.125.82c-.248.36.104.583.124.597 0 0 3.705.772 4.081 1.369.375.598-2.527-.574-3.178-.896-.628-.312-2.376.165-2.476.312l-.002.005v.002.006.004.002l.002.002v.004l.006.008.003.002c.112.123.892.292.915.503v.002l-.008.035c-.099.189-1.029.271-1.068.449l-.002.012c0 .197 4.681 1.167 5.931 2.214 1.253 1.045-3.676-1.246-3.676-1.246s.274.374 0 .473c-.276.1-1.254-1.393-2.855-.473-.292.38 1.398.68 1.828.722-.146.375-.274.5.326.872l.117.079.002.004.002.002v.002.004h-.002-.002c-.094-.016-1.173-.567-1.284-.59h-.006-.004l.125.647c-.554-.448-1.224-.582-1.852-.123-.002.026-.006.455.624.72-.355.723.401.5 1.602 1.17-1.784-.465-1.926.397-.651.598 1.277.199 4.78.324 5.606 1.394.175.225.223.338.188.375-.139.125-1.406-.788-1.591-.82h-.002l-.002.002-.009.014c-.044.1-.087.53-.087.53-.533-.308-1.023-.584-1.661-.715-.052.1-.04.242-.09.342-.58-.417-1.086-.709-1.927-.749-.032.133-.067.267-.1.399 0 0-.701-.87-2.078 0-.769.548 2.903.2 3.503.845.602.647.125.747.125.747-.499-.184-.999-.362-1.498-.545 0 0-1.78-.326-2.28.071-.501.399 7.309 1.369 7.533 2.438.151.58-1.834-.606-3.554-1.117-.067.189-.134.38-.201.57-.04-.04-.705-.684-1.45-.795l-.002.004v.006l.151.662c0 0-1.926-.895-2.899-.423-.978.473 3.401.723 3.803 1.17l.06.107-.006.014c-.099.14-1.402-.378-1.533-.121-.149.298-2.275-.547-2.251-.149.025.399.302.622.302.622s4.429.423 4.579.944c.151.522-2.453-.297-2.453-.297s-.251.372-.052.545l.018.018v.002h-.004c-.09-.029-1.5-.947-1.363-.242-.552-.219-1.977-.895-1.776-.373.197.516 3.914 1.247 4.023 1.27-.099.008-1.671.139-1.599.548-2.104-1.275-2.101-.511-2.053-.451v.004c-.119-.02-2.71-.661-.649.447 1.106.596 1.375.826 1.379.916v.008l-.002.008-.002.004-.004.004-.001.004-.004.002-.002.003-.002.002-.177.018h-.006l-.002.002.002.002.183.559-.004.006v.004h-.002v.002h-.004-.002c-.091-.022-1.456-.747-1.923-.797-.477-.05-2.729.622-.326 1.667s3.878-.25 5.203-.1c1.327.149 1.955.372 1.828.797-.125.423-1.356-1.389-2.65.179-1.472-.292-2.472-.459-1.711.616-2.405-.893-3.872.272-.846.747 2.978.087 4.806-.722 4.806-.722s.503.924 1.228.276c.691-.618.747.167.771.242l.002.004v.002h.004l.699-.3h.175v5.971c.811.008 1.617.016 2.426.025 0 0-.774-5.199-.35-5.896.411-.674.801-.601.825-.597 0 0 1.577.472 1.752.397l.008-.004.006-.002.012-.008.002-.002c.128-.117-.002-.576.799-.507.248-.089.151-.48.311-.576l.012-.006.023-.01.032-.004c.25-.025 5.08 1.343 6.131.048-.277-.726-1.23-.054-1.48-.028m-9.903-21.187c0 0-.561-.028-.666-.115l-.002-.004-.004-.002-.002-.002-.002-.003-.004-.006v-.002l-.002-.002v-.004-.006-.001-.002l.002-.01.004-.002.004-.008.004-.004.004-.006.016-.009c.188-.133.564-.129.638-.15h.001l.004-.002h.002l.004-.004v.344zm-4.413 20.214c0 0-.715-.197-.941-.597l.143-.025c.361-.021.763.2.809.223h.004l-.015.399m2.553-4.159h.015c1.07.115 1.47.513 1.583.674-.215.37-1.903-.463-1.727-.642l.129-.032m-.717 2.152l-.004-.006v-.007-.006-.004-.004l.004-.006v-.001l.227-.067c.227-.012.425.135.63.254.461-.095 1.408.072 1.408.072v.415l-.002.004h-.004c-.087.016-1.194-.034-1.442-.19-.203-.001-.775-.3-.817-.454m2.285 1.867l-.021.014c-.219.115-1.271-.091-1.333-.511.123-.131.308-.181.499-.19.394-.018.822.138.822.138.013.021.214.416.033.549m-2.381-11.6c.61-.03 2.466.813 2.556.84h.002l-.019.392v.006h-.002c-.05-.027-2.589-1.076-2.702-.991-.071-.166.002-.239.165-.247m-1.181 1.561v-.004-.014l.02-.042c.024-.032.085-.067.223-.076.357-.021 1.245.124 3.436.916l.073.426c-.001 0-3.648-1.17-3.752-1.206m.985-8.16l-.016-.002-.019-.01-.008-.002-.004-.002-.02-.02-.002-.002-.004-.005v-.004l-.002-.006v-.002-.006-.006l.002-.01.018-.025c.036-.034.129-.07.308-.08.357-.02 1.069.065 2.406.432l.016.431-.002.002v.002l-.004.004c-.02-.012-2.43-.699-2.65-.689h-.019m.102 3.501c.308-.018 1.024.151 2.62.824l.012.396c0 0-2.702-.814-2.799-.951-.046-.066-.132-.253.167-.269m2.735 2.166c-.121-.04-3.676-1.28-3.676-1.28-.004-.014-.056-.227.309-.246.405-.021 1.315.192 3.357 1.154l.012.372h-.002m.016-4.146l-.002.002-.004.004-.002.002-.006.004h-.002-.006-.004c-.077-.021-1.435-.449-1.488-.624v-.012l.008-.017.004-.004.002-.002.149-.037c.384-.014 1.306.206 1.356.196l-.005.488m2.026-3.13l.003.006.002.007v.006.008l-.002.008c-.084.179-1.194.284-1.194.284l-.022-.469c.018-.001 1.116.007 1.213.15m-1.235.817v-.002l-.002-.003-.038-.286h.002.002l.576.109.002.002v.002l.004.004v.002.001.004.002.004l-.004.002v.004l-.002.006-.002.002v.002c-.095.115-.516.146-.536.146h-.002zm.065 2.71c.038-.005.958-.124 1.574-.134.367-.008.627.022.53.134-.263.302-2.072.55-2.072.55l-.032-.55m3.568 8.366l.006.014.002.025-.107.159c-.179.167-3.018 1.062-3.018 1.062l-.012-.645c1.659-.502 2.472-.665 2.847-.679.181-.006.259.024.282.064m-3.107 2.576c.05-.002 1.748-.465 2.17-.477l.096.024v.006l-.056.058c-.47.334-2.243.677-2.243.677l.033-.288m-.073-.574v-.294c.221-.008.715-.079 1.063-.091v-.002c.181-.006.32.004.364.046l.008.012.002.008v.008.014l-.014.028c-.244.236-1.423.271-1.423.271m-.157-7.909h.002c.062-.004 1.055-.266 1.455-.284l.162.022.002.004.004.008.002.008-.025.044c-.252.28-1.602.561-1.602.561v-.363m.007 2.041h-.002l-.004-.004-.002-.005v-.002l-.002-.006.03-.335v-.003h.004l.002.003h.004c.131-.003 1.706-.349 2.259-.372.104-.006.171.004.188.026l.002.01-.027.043c-.32.288-2.376.639-2.45.645h-.002m.013.606c.051-.012 1.18-.181 1.702-.204.127-.006.219 0 .25.018l.007.008v.002.004.004l-.001.004-.01.008c-.188.167-1.938.511-1.938.511l-.01-.355m1.56.912c.123-.004.212.002.23.025l.004.002v.005l.002.002-.002.004v.006l-.004.002-.006.008-.007.008c-.188.163-1.673.473-1.673.473l-.041-.365c.042.001 1.034-.155 1.497-.17m-.69 1.138l.002.004.004.002.002.004.004.004.002.004.002.008v.004.002.006.002l-.002.004v.002l-.002.006c-.096.146-.733.2-.733.2s-.033-.286-.046-.375c.042.01.654.03.767.123m-.765.928h.002c.064-.008 1.002-.207 1.475-.219.145-.004.246.012.267.054l-.078.125c-.524.426-1.665.509-1.665.509v-.469zm.018 4.037l.033-.298c.851-.505 2.398-.979 3.219-.987.207-.002.366.029.459.095h.002v.002.004.006c-.008.063-.141.368-.609.499-.581-.052-3.052.674-3.102.686h-.002v-.007m.97 1.425l-.013.083c-.169.312-.903.196-.903.196v-.22h.002c.043.004.448-.107.705-.117l.183.027.014.012.006.004.003.007.003.008m.415 2.624c-.199.24-1.331.021-1.331.021v-.289c.103-.031.24-.047.389-.047.403-.004.889.091.96.227l-.018.088m.012-1.418c-.378.53-1.353.313-1.353.313l-.042-.33c.346.014.974-.202 1.283-.219.173-.007.248.045.112.236m1.085-2.21c.031-.01.363-.202.568-.21l.109.025.029.028.02.065c-.111.172-.689.098-.726.092"/><path d="M32,2C15.432,2,2,15.432,2,32s13.432,30,30,30s30-13.432,30-30S48.568,2,32,2z M18.233,56.367V7.633
		C22.302,5.325,26.998,4,32,4s9.698,1.325,13.767,3.633v48.734C41.698,58.675,37.002,60,32,60S22.302,58.675,18.233,56.367z"/></svg>