<svg xmlns="http://www.w3.org/2000/svg" viewBox="0 0 64 64" enable-background="new 0 0 64 64"><path d="m48.187 19.217l.53-2.377-1.475 1.188-1.475-1.188-1.475 1.188-1.476-1.188.531 2.377z"/><path d="m48.717 22.167v-2.736l-1.475 1.368-1.475-1.368-1.475 1.368-1.476-1.368v2.736h2.951z"/><path d="m48.717 22.167l-1.475 1.475-1.475-1.475-1.475 1.475-1.476-1.475v2.95h5.901z"/><ellipse cx="45.767" cy="15.406" rx=".492" ry="1.435"/><path d="m55.667 41.865c-.131-.131-.286-.215-.45-.271.489-1.087.49-2.357.001-3.444.163-.058.318-.142.449-.272.465-.465.465-1.218.002-1.683-.465-.464-1.222-.464-1.685 0-.085.085-.138.188-.191.288-1.114-.697-2.49-.699-3.604.002-.055-.102-.107-.205-.193-.29-.089-.089-.195-.146-.301-.2l-1.956-2.08.524-.523-.695-.695-.503.502-.002-.002 3.401-3.607.004.009 1.691-1.433-.111-.256.016-.016 1.275 1.388 1.277-1.386-2.553-2.777-.838.891-.128-.296-1.74.901.368.991-3.468 3.689v-.276h-.983v.277l-3.471-3.69.369-.991-1.74-.901-.129.296-.838-.892-2.55 2.777 1.275 1.386 1.274-1.388.016.016-.111.256 1.692 1.433.003-.008 3.402 3.608-.002.002-.504-.504-.695.695.525.525-1.938 2.061c-.113.056-.226.117-.32.213-.086.086-.141.189-.194.293-1.113-.699-2.487-.697-3.599 0-.055-.104-.108-.207-.195-.293-.465-.465-1.218-.469-1.683-.004s-.465 1.221 0 1.686c.132.132.288.216.453.272-.489 1.087-.491 2.357-.004 3.445-.164.057-.32.141-.451.271-.465.465-.463 1.22.002 1.685s1.218.465 1.683-.002c.085-.084.138-.187.191-.287 1.115.703 2.49.703 3.606 0 .054.101.105.203.19.287.467.467 1.222.465 1.685 0 .465-.465.465-1.218 0-1.684-.127-.126-.276-.211-.435-.269.158-.354.257-.729.31-1.112.726.063 1.453.096 2.181.107v1.956c-.523.021-.945.446-.945.976v2.95h1.967v-.921h.983v-2.95c0-.544-.44-.983-.983-.983-.014 0-.024.007-.038.008v-1.035c.728-.012 1.453-.045 2.179-.106.053.384.153.762.313 1.117-.159.058-.311.142-.438.27-.465.464-.463 1.22.002 1.685s1.216.465 1.681-.002c.086-.086.141-.189.194-.292 1.115.702 2.488.702 3.603.001.055.102.107.205.193.291.467.467 1.222.465 1.685 0 .466-.466.466-1.22-.001-1.685m-7.681-4.939c-.018.182-.004.362.062.533-.63-.59-1.231-1.211-1.789-1.869v-.195l.146-.145 1.581 1.676m-2.711-1.528v.188c-.559.659-1.16 1.28-1.79 1.871.065-.172.079-.353.063-.534l1.579-1.674.148.149m-4.004 5.045c-.318.316-.833.316-1.152 0 .319.316.319.831 0 1.15-.318.318-.833.318-1.154 0-.314-.319-.314-.834 0-1.15-.314.316-.831.316-1.15 0-.318-.319-.318-.836 0-1.152.319-.319.836-.319 1.15 0-.314-.319-.314-.834 0-1.152.321-.319.836-.319 1.154 0 .319.318.319.833 0 1.152.319-.319.834-.319 1.152 0 .038.038.058.086.086.129-.003.096.037.174.106.211 0 .001 0 .001 0 .002-.012-.002-.024-.002-.037-.004-.58-.085-.825.555-.243.641.063.01.126.012.188.021-.032.051-.056.107-.1.152m1.866-.628c-.008-.404-.074-.806-.195-1.194.83-.705 1.607-1.47 2.334-2.281v3.587c-.715-.012-1.428-.048-2.139-.112m3.122.112v-3.585c.726.812 1.501 1.575 2.331 2.279-.121.389-.188.791-.194 1.195-.711.063-1.423.1-2.137.111m6.308 1.673c-.318.318-.833.318-1.152 0-.318-.319-.318-.834 0-1.152-.318.318-.833.318-1.152 0-.046-.047-.071-.104-.104-.156.063-.009.129-.012.192-.021.581-.086.334-.726-.246-.641-.012.001-.023.002-.035.004 0-.001 0-.002 0-.002.068-.037.107-.113.105-.206.029-.044.049-.092.087-.13.319-.317.834-.317 1.152 0-.318-.317-.318-.834 0-1.15.319-.319.834-.319 1.152 0 .317.316.317.833 0 1.15.317-.317.834-.317 1.15 0 .319.318.319.833 0 1.152-.316.318-.833.318-1.15 0 .319.318.319.832.001 1.152"/><path d="m38.038 21.114h1.937v2.145h-1.937z"/><path d="m51.56 21.114h1.936v2.145h-1.936z"/><path d="m43.952 28.817l.296-1.08.455.125.157-.573-.455-.125.14-.509-.586-.16-.14.508-.453-.125-.157.573.453.125-.296 1.081z"/><path d="m48.167 26.878l-.453.125-.14-.508-.586.16.14.509-.455.125.158.573.454-.125.297 1.08.585-.16-.296-1.081.454-.125z"/><path d="M32,2C15.432,2,2,15.432,2,32s13.432,30,30,30s30-13.432,30-30S48.568,2,32,2z M32,60V4c15.439,0,28,12.561,28,28
		S47.439,60,32,60z"/></svg>