<svg xmlns="http://www.w3.org/2000/svg" viewBox="0 0 64 64" enable-background="new 0 0 64 64"><path d="m32 2c-16.568 0-30 13.432-30 30s13.432 30 30 30 30-13.432 30-30-13.432-30-30-30m9.269 7.448l.343-1.048.342 1.048h1.11l-.896.652.342 1.049-.897-.649-.898.649.344-1.049-.899-.651h1.109zm0 3.544l.344-1.051.342 1.051h1.11l-.896.649.342 1.05-.897-.648-.898.648.344-1.05-.899-.649h1.108m0 3.541l.344-1.05.342 1.05h1.11l-.896.649.342 1.051-.897-.649-.898.649.344-1.051-.899-.649h1.108m-4.191-7.085l.344-1.048.344 1.048h1.11l-.899.652.342 1.049-.896-.649-.898.649.344-1.049-.899-.652h1.108m0 3.544l.344-1.051.344 1.051h1.11l-.899.649.342 1.05-.896-.648-.898.648.344-1.05-.897-.649h1.106m0 3.541l.344-1.05.344 1.05h1.11l-.899.649.342 1.051-.896-.649-.898.649.344-1.051-.897-.649h1.106m-4.188-7.085l.341-1.048.344 1.048h1.109l-.898.652.344 1.049-.898-.649-.897.649.342-1.049-.896-.651h1.109zm0 3.544l.342-1.051.344 1.051h1.109l-.898.649.344 1.05-.898-.648-.897.648.342-1.05-.896-.649h1.108m0 3.541l.342-1.05.344 1.05h1.109l-.898.649.344 1.051-.898-.649-.897.649.342-1.051-.896-.649h1.108m-4.192-3.541l.344-1.051.342 1.051h1.11l-.896.649.342 1.05-.897-.648-.898.648.344-1.05-.898-.649h1.107m0 3.541l.344-1.05.342 1.05h1.11l-.896.649.342 1.051-.897-.649-.898.649.344-1.051-.898-.649h1.107m-4.188 0l.342-1.05.344 1.05h1.11l-.899.649.344 1.051-.898-.649-.898.649.344-1.051-.899-.649h1.11m-5.309-8.133c1.116 0 2.14.376 2.966 1.006-.484-.193-1.011-.304-1.563-.304-2.322 0-4.204 1.887-4.204 4.214 0 2.328 1.882 4.214 4.204 4.214.553 0 1.079-.109 1.563-.304-.826.629-1.85 1.007-2.966 1.007-2.706 0-4.901-2.201-4.901-4.917s2.195-4.916 4.901-4.916m-13.76 32.45c-.929-2.784-1.441-5.757-1.441-8.85s.512-6.066 1.441-8.85h53.117c.93 2.784 1.442 5.757 1.442 8.85s-.512 6.066-1.441 8.85h-53.118"/></svg>