<svg xmlns="http://www.w3.org/2000/svg" viewBox="0 0 64 64" enable-background="new 0 0 64 64"><path d="m33.543 22.531h-5.464v8.543h5.464c1.384 0 2.46-.348 3.228-1.043s1.151-1.797 1.151-3.307-.384-2.586-1.151-3.229-1.844-.964-3.228-.964"/><path d="m31.999 2c-16.568 0-30 13.432-30 30s13.432 30 30 30c16.569 0 30.001-13.432 30.001-30s-13.432-30-30.001-30m9.398 31.949c-1.699 1.418-4.125 2.125-7.277 2.125h-6.041v10.434h-6.023v-29.016h12.458c2.872 0 5.162.748 6.87 2.244 1.707 1.496 2.562 3.813 2.562 6.949-.001 3.424-.85 5.846-2.549 7.264"/></svg>