<svg xmlns="http://www.w3.org/2000/svg" viewBox="0 0 64 64" enable-background="new 0 0 64 64"><path d="m32 2c-16.568 0-30 13.432-30 30s13.432 30 30 30 30-13.432 30-30-13.432-30-30-30m-25.986 40.408c-1.064-2.648-1.734-5.494-1.939-8.467l14.573-.959.906 3.969-13.54 5.457m18.412.653l3.668 1.767-4.173 13.979c-2.818-.851-5.448-2.135-7.816-3.773l8.321-11.973m7.574-19.912c4.888 0 8.85 3.962 8.85 8.85 0 4.885-3.962 8.85-8.85 8.85s-8.85-3.965-8.85-8.85c0-4.887 3.962-8.85 8.85-8.85m3.908 21.676l3.668-1.767 8.322 11.973c-2.367 1.639-4.998 2.923-7.814 3.774l-4.176-13.98m8.541-7.876l.904-3.969 14.572.956c-.204 2.974-.874 5.819-1.938 8.468l-13.538-5.455m11.881-18.78l-12.717 7.193-2.539-3.182 9.841-10.804c2.138 1.963 3.967 4.255 5.415 6.793m-19.983-13.83l-2.312 14.451h-4.07l-2.312-14.451c1.417-.222 2.868-.339 4.347-.339s2.93.117 4.347.339m-23.265 7.04l9.843 10.802-2.539 3.182-12.719-7.189c1.447-2.538 3.276-4.831 5.415-6.795"/></svg>