<svg xmlns="http://www.w3.org/2000/svg" viewBox="0 0 64 64" enable-background="new 0 0 64 64"><path d="m32 2c-16.568 0-30 13.431-30 30 0 16.569 13.432 30 30 30s30-13.432 30-30c0-16.569-13.432-30-30-30m8.953 42.678c-2.049 1.752-4.943 2.627-8.684 2.627-3.82 0-6.826-.863-9.014-2.588-2.189-1.727-3.283-4.098-3.283-7.117h5.787c.188 1.326.557 2.316 1.105 2.973 1.006 1.195 2.727 1.791 5.166 1.791 1.461 0 2.646-.156 3.557-.473 1.73-.604 2.594-1.725 2.594-3.365 0-.957-.424-1.699-1.27-2.225-.848-.512-2.191-.965-4.029-1.357l-3.141-.689c-3.088-.684-5.209-1.424-6.363-2.224-1.957-1.339-2.934-3.432-2.934-6.28 0-2.599.957-4.757 2.869-6.476 1.912-1.72 4.723-2.579 8.43-2.579 3.096 0 5.734.81 7.922 2.431 2.184 1.621 3.33 3.974 3.438 7.058h-5.828c-.107-1.745-.887-2.985-2.34-3.721-.969-.485-2.174-.729-3.613-.729-1.602 0-2.879.315-3.834.945s-1.434 1.509-1.434 2.638c0 1.037.471 1.811 1.414 2.322.604.342 1.889.742 3.855 1.201l5.092 1.201c2.23.524 3.904 1.227 5.018 2.105 1.729 1.365 2.594 3.341 2.594 5.925 0 2.651-1.023 4.854-3.074 6.606"/></svg>