<svg xmlns="http://www.w3.org/2000/svg" viewBox="0 0 64 64" enable-background="new 0 0 64 64"><path d="m18.076 25.137l24.08 12.041v-4.039l-16.004-8.002z"/><path d="m42.156 13.096v-6.656l-13.311 6.656z"/><path d="m12.055 37.178h19.333l-19.333-9.666z"/><path d="m42.156 31.792v-6.655h-13.311z"/><path d="m32 2c-16.568 0-30 13.432-30 30s13.432 30 30 30 30-13.432 30-30-13.432-30-30-30m-13.755 5.626l2.627-1.314c2.07-.9 4.269-1.556 6.561-1.934l-14.736 7.368c1.667-1.59 3.53-2.976 5.548-4.12m-14.171 26.304l.648-1.997-.708-.514c.007-.345.016-.689.036-1.029h1.174l.811-2.496.811 2.496h2.624l-2.124 1.543.813 2.496-2.124-1.542-1.933 1.405c-.01-.121-.02-.241-.028-.362m27.926 26.07c-13.67 0-25.076-9.85-27.512-22.822h1.546 3.612v-10.87-2.219-.001l-3.589-2.606c.606-1.489 1.336-2.915 2.178-4.264h1.598 2.037c.001.001.001.003.002.005l-2.607 1.894-.997.725.151.467 1.228 3.779c.521-.379.979-.838 1.357-1.359h31.152v-3.612-3.612h-31.152c-.255-.351-.558-.662-.881-.951.607-.76 1.25-1.488 1.932-2.181v.723h6.021l17.675-8.837c13.671 1.839 24.249 13.574 24.249 27.741 0 15.439-12.561 28-28 28m-2.771-37.611l-2.122-1.543-2.124 1.543.811-2.497-1.066-.775-1.056-.767h2.623l.813-2.496.811 2.496h2.623l-1.054.767-1.068.775.809 2.497"/></svg>