<svg xmlns="http://www.w3.org/2000/svg" viewBox="0 0 64 64" enable-background="new 0 0 64 64"><path d="m40.133 33.15c.759-.551.649-.729.465-1.489-.063-.26-.153.068-.165.203-.038-.26-.124-.518-.265-.741-.284.291-.364.669-.393 1.062-.064-.291-.191-.58-.482-.694h-.002c.166.272.106.468.076.773-.047.441.303.679.313 1.111.019.424-.174.699-.484.96.021-.101.014-.2.043-.302-.995.346-.797.922-.757 1.735.041.859-.479.701-1.079 1.156.096-.217.1-.46-.021-.667l-.001.002c-.044.547-.755.633-.906 1.123-.076.247-.037.545-.256.732-.184.119-.473.283-.521.516-.218-.107-.437-.103-.667-.059.105-.057.194-.135.265-.234-1.002-.449-1.292.546-2.133.709-.271-.018-.969-.392-1.001.021.839-.006 1.286.774 2.011.798.614.021 1.087-.537 1.701-.539l.001-.002c-.057-.04-.397-.188-.646-.186.465-.265.772-.899 1.344-.902 1.03-.008 1.456-.23 1.792-1.168-.105-.008-.204.014-.3.059 0-.434.439-.852.77-1.092 1.014-.188.844-1.027 1.455-1.643-.241.012-.411.131-.583.307.036-.588-.142-1.14.426-1.549"/><path d="m40.598 31.662c.026.105-.012-.054 0 0"/><path d="m30.838 39.047c-.84-.163-1.13-1.158-2.132-.709.069.1.157.178.265.234-.232-.044-.451-.049-.666.059-.051-.232-.339-.396-.522-.516-.219-.188-.181-.485-.257-.732-.15-.49-.863-.576-.905-1.123l-.001-.002c-.12.207-.116.45-.021.667-.599-.455-1.121-.297-1.079-1.156.039-.813.236-1.39-.757-1.735.029.102.021.201.042.302-.311-.261-.503-.536-.485-.96.01-.433.358-.67.314-1.111-.032-.305-.092-.5.075-.773h-.002c-.291.114-.417.403-.484.694-.027-.392-.107-.771-.39-1.062h-.001c-.139.223-.228.48-.266.741-.012-.135-.101-.462-.165-.203-.183.76-.293.938.466 1.489.567.408.389.961.426 1.549-.171-.176-.342-.295-.583-.307.613.615.443 1.455 1.456 1.643.331.24.771.658.771 1.092-.095-.045-.195-.066-.301-.059.336.938.762 1.16 1.793 1.168.57.003.878.638 1.345.902-.25-.002-.592.146-.646.186v.002c.615.002 1.088.561 1.7.539.724-.023 1.174-.804 2.013-.798-.033-.413-.731-.039-1.003-.021"/><path d="m32.315 38.293c.183 0 .536.034.687-.121.03-.007.06-.01.091-.018.18.113.339.02.403-.129.351-.119.714-.266 1.115-.472-.164-.047-.29-.147-.374-.298.042-.204.749-.354.933-.38.004-.079.01-.159.014-.237-.395.123-1.021.229-1.723.282.147-.248-.025-.648-.346-.495-.146.072-.104.1-.241.044.073-.12.163-.238.322-.325.423-.229.857-.247 1.272-.081.6.241 2.759.169 2.094-.977-.826-1.024-1.221.487-2.103.44.067-.356-.071-.557-.294-.671.314.104.608.272.383.452.113.052.294.059.372-.062.345-.517-.647-.752-1.12-1.163.258-.099.567-.184.674-.057.214.255.432-.008.588.109.212.16.975.027 1.205-.098.064-.035 1.073-.238.916-.385-.01-.011-.006-.008 0-.001-.471-.438-1.041-.804-1.555-1.185-.471-.351-.94-.703-1.408-1.057-.243-.183-.235-.547-.316-.878.878.877 1.802 1.371 1.678-.326.574.443 1.749 3.201 1.877 3.201.262 0 .047-2.981.031-3.238.432.369.359 3.632.443 3.629.419-.016 1.154-4.354-.51-6.54-.49-.644-2.337-2.911-5.034-3.124-.301-.024-1.073.257-1.327.418-.879.561.988 1.042 1.096 1.505.037.162.064.33.087.5-.259-.514-.636-.821-.649-.936-.459.22-1.298-.129-1.371-.584-.055.183-.121.316-.257.455-.02-.295-.079-.29-.177-.48.025.289.008.682-.301.789.146-.158.039-.431-.09-.546.036.259-.03.532-.207.729.053-.205-.076-.328-.105-.464-.061.619-.809.966-.477 1.223-.112.007-.21.02-.263.04-.053.111-.166.22-.268.335-.156.053-.426.104-.571.028-.329-.232.673-.578.57-.622-.025-.011-.995.514-.571-.063.125-.17.286-.44.378-.624.11-.223-.296.027-.267.024-.133.016-.192-.025-.316.077-.581.456-.416.714-.339 1.35.024.56.553.465.987.433.135.223.477.507.672.291-.074-.052-.128-.102-.166-.149.118.085.229.187.228.282-.292.643-1.143.755-1.396 1.436-.194.521-.105 1.292.382 1.622.262.178.514.186.801.16.675-.058.536.017.488.163-.356.044-.855.354-.909.702-.321.08-.41-.199-.477-.475-.109-.448-.807-.651-.807-1.083-.001-.426.398-.774.069-1.191-.274-.348-.743-.575-.801-.363-.054.2.419.229.419.715.002.631-.578 1.056.085 1.61.508.425.495 1.547 1.244 1.547.233 0 .437-.064.556-.222.391.062 1.207-.125 1.32-.264.059.124.13.2.205.254-.183.159.369.442.527.49.742.228 1.34-.436 1.336-.54-.001-.001.916.887 1.398 1.312-.194.193-.414.338-.647.211-.175-.095-.659.149-.7.421-.102-.02-.197-.055-.283-.113-.604-.418-1.409-.616-1.844.117-.43-.543-1.467-1.198-2.078-.548-.005-.612-.557-1.46-1.26-1.368-.768.101-.465 1.091-.078 1.426.308.267.714.39 1.118.374-.026.166.076.311.195.415.457.405 1.48.539 1.966.121.04 1.009 1.931.99 2.448.467-.09.211-.169.528-.173.813-.183 0-.389.009-.572.019-.145.006-.291-.021-.439-.006-.158.016-.221-.055-.351-.102-.181-.063-.327.077-.37.244-.006.025 0 .043.001.063-.352-.15-.63-.349-.783-.611-.431.549-1.064.147-1.813-.299.145.185.524 1.185.461 1.062.197.079 1.485.354 1.503.668-.068.141-.179.228-.328.258.359.134.688.242 1.005.34.056.166.255.258.438.128.051.013.099.02.149.031.137.122.398.12.566.126.079.004.16.002.24.004.232.021.465.025.697.012.044.002.083.004.122.004m-5.357-11.075c-.003-.02-.003-.023 0 0m2.142.214c-.022-.021-.035-.059-.062-.074-.038-.021-.063-.019-.097-.032.016-.001.034-.005.049-.004.063.001.092.056.11.11m-1.208 2.738c-.014-.214 1.129-1.381 1.235-1.502.235-.271.245-.799.078-1.109.221.017.786-.236.755-.433-.003-.017-.019-.03-.025-.045.092.068.226.224.268.217-.036.143-.371.5-.106.542-.053.083-.423.735-.429.734.279.04.051.21-.056.419-.271.538.043 1.023.124 1.577-.028-.189.328.119.34.382.019.429.409.543.509.887-.505-.445-.588.007-.029.278-.161.013-.265.063-.335.124-.152-.146-.369-.463-.455-.63-.027-.296-.028-.591-.313-.833-.471-.399-1.5.38-1.561-.608m5.403 4.592c-.111.016-.225.035-.33.063.068-.036.197-.054.33-.063"/><path d="m36.563 35.087c.014.023.019.031.023.04-.01-.017-.023-.04-.023-.04"/><path d="m36.586 35.127c.008.014.01.017 0 0"/><path d="M32,2C15.432,2,2,15.432,2,32s13.432,30,30,30s30-13.432,30-30S48.568,2,32,2z M22.166,58.213V5.787
		C25.228,4.635,28.541,4,32,4s6.771,0.635,9.833,1.787v52.426C38.771,59.365,35.459,60,32,60S25.228,59.365,22.166,58.213z"/></svg>