<svg xmlns="http://www.w3.org/2000/svg" viewBox="0 0 64 64" enable-background="new 0 0 64 64"><path d="m24.489 24.894v9.832c.708 3.472 4.873 4.354 6.033-.214-1.031 1.615-3.926 1.146-4.571.02v-9.628l-1.462-.01"/><path d="m39.256 34.726v-9.832h-1.596v9.628c-.646 1.126-3.405 1.605-4.437-.01 1.162 4.567 5.322 3.685 6.033.214"/><path d="m29.037 20.081l-.361-.628c-.957.253-1.871.612-2.726 1.065.735 1.429 2.569 4.951 2.569 4.951s.034-5.115.518-5.388"/><path d="m34.937 22.879c0 0-.004 1.937-.004 2.662 1.005-1.699 2.013-3.397 3.021-5.095-.243-.125-.489-.242-.738-.352-.471-.19-.951-.352-1.434-.506-.257-.086-.518-.161-.781-.229-.029-.005-.056-.013-.082-.019-.357 1.179-1.072 3.537-1.072 3.537h1.09z"/><path d="m31.716 43.226c-.907-.077-1.27-1.045-2.573-1.045-.043 0-.081-.004-.121 0-.859.046-2.163.565-2.624.894 0 0 2.098 1.709 5.416 1.709 3.348 0 5.528-1.709 5.528-1.709s-1.716-.897-2.84-.858c-1.123.037-1.882 1.088-2.786 1.009"/><path d="m34.722 40.804c-1.304.102-1.631-.753-2.825-.718-1.197.034-1.885.718-2.791.753-.904.034-2.064-.855-2.754-.82-.547.026-2.216.658-2.877.916.204.181.415.419.632.586h15.747c.102-.077.201-.154.299-.234-.491-.415-1.621-1.243-2.894-1.268-1.702-.036-1.232.683-2.537.785"/><path d="m39.939 38.032c-1.014.035-1.74.993-2.571 1.028-.833.034-1.776-.993-2.718-.959-.943.035-1.92.959-2.863.959s-1.631-.993-2.825-.993c-1.197 0-1.74 1.095-2.647 1.027-.906-.069-1.702-1.094-2.571-1.094-.615 0-1.516.61-2.094.948.156.214.321.488.492.691h19.703c.109-.128.218-.259.321-.39-.273-.494-1.281-1.138-2.227-1.217"/><path d="m29.519 37.687h4.609c.036-.034-1.033-1.506-2.305-1.401-1.417.033-2.38 1.401-2.304 1.401"/><path d="m40.063 37.16c-.816-.034-.705-.245-1.111-.455-.224.421-1.041.981-1.041.981h5.365c.113-.205.221-.519.324-.729-.346-.31-.779-.62-1.161-.638-.781-.034-1.56.876-2.376.841"/><path d="m24.627 36.705c-.407.21-.296.421-1.112.455-.816.035-1.596-.875-2.375-.841-.265.012-.555.167-.824.363.14.305.29.71.453 1.004h4.897c0 .001-.816-.56-1.039-.981"/><path d="m23.997 34.445c-1.16-.377-2.103.819-2.937.854-.561.022-1.137-.373-1.454-.634.09.354.198.735.317 1.077h4.398c0 .001-.289-.581-.324-1.297"/><path d="m39.649 34.445c-.036.716-.326 1.298-.326 1.298h4.494l.471-1.298c0 0-.87.887-1.702.854-.833-.034-1.776-1.231-2.937-.854"/><path d="m31.787 35.025c-1.197 0-1.088.752-1.124.718h2.282c0 0 .036-.718-1.158-.718"/><path d="m34.215 29.93v-6.396c-2.174.104-3.987-3.898-.146-4.172-3.768-.513-4.202.411-4.639 1.402l.037 7.969 4.748 1.197"/><path d="m26.621 30.104l2.014.056-2.014-.816z"/><path d="m26.621 27.254v1.692l2.004.974.018-1.095c-.563-.365-1.5-1.258-2.022-1.571"/><path d="m19.363 33.486l4.289.033v-2.708l-4.398-.2c-.025.319-.036.644-.036.97-.001.648.049 1.283.145 1.905"/><path d="m23.651 28.213l-3.515-1.315c-.375.914-.644 1.882-.792 2.89l4.306.395v-1.97z"/><path d="m23.651 24.85l-1.521-1.248c-.649.775-1.208 1.627-1.654 2.541l3.175 1.453v-2.746"/><path d="m26.621 24.317v2.181l2.004 1.834.01-2.011-3.572-5.286c-.826.524-1.586 1.141-2.265 1.832.438.46 1.037 1.09 1.381 1.45h2.442"/><path d="m39.82 33.52h4.685c0 0 .278-1.243.278-2.998l-4.963.354v2.644"/><path d="m39.82 30.262l4.804-.545c-.202-1.75-.801-3-.818-3.041l-3.985 1.593v1.993z"/><path d="m39.82 27.679c1.207-.6 2.412-1.198 3.617-1.798-.461-.885-1.025-1.711-1.68-2.46-.645.467-1.29.934-1.938 1.398v2.86z"/><path d="m36.943 29.388l-2.005.832 2.005-.083z"/><path d="m34.938 29.791l2.005-.896v-1.683c-.703.574-2.015 1.692-2.015 1.692l.01.887"/><path d="m34.937 28.439c.669-.609 1.341-1.214 2.007-1.823v-2.299h2.588c0 0 1.169-1.141 1.602-1.563-.736-.731-1.563-1.373-2.461-1.91-1.244 1.826-2.486 3.65-3.731 5.476-.004.705-.005 1.412-.005 2.119"/><path d="m26.893 35.018h2.157c.86 0 1.259-1.226 1.259-1.226h-2.008c-1.009 0-1.408 1.226-1.408 1.226"/><path d="m34.547 35.018h2.154c0 0-.398-1.226-1.407-1.226h-2.005c0 0 .396 1.226 1.258 1.226"/><path d="m26.39 33.192h10.815v.363h-10.815z"/><path d="m31.117 32.735l.68-.65.682.65.207-.197-.682-.649.682-.652-.207-.197-.537.511v-.809h-.292v.809l-.533-.511-.208.197.682.652-.682.649z"/><path d="m36.997 31.04l-.534.511-.002-.809h-.291v.809l-.534-.511-.208.197.681.652-.681.649.208.197.679-.65.682.65.208-.197-.682-.649.682-.652z"/><path d="m33.377 32.735l.68-.65.681.65.206-.197-.68-.649.68-.652-.206-.197-.533.511-.002-.809h-.292v.809l-.534-.511-.207.197.682.652-.682.649z"/><path d="m28.65 31.237l.682.652-.682.649.207.197.681-.65.682.65.206-.197-.681-.649.681-.652-.206-.197-.536.511v-.809h-.292v.809l-.535-.511z"/><path d="m26.598 32.735l.679-.65.682.65.207-.197-.681-.649.681-.652-.207-.197-.536.511v-.809h-.292v.809l-.533-.511-.208.197.682.652-.682.649z"/><path d="M32,2C15.432,2,2,15.432,2,32s13.432,30,30,30s30-13.432,30-30S48.568,2,32,2z M8.852,16.267h46.296
		C58.208,20.754,60,26.171,60,32s-1.792,11.246-4.852,15.733H8.852C5.792,43.246,4,37.829,4,32S5.792,20.754,8.852,16.267z"/></svg>