<svg xmlns="http://www.w3.org/2000/svg" viewBox="0 0 64 64" enable-background="new 0 0 64 64"><path d="m32 2c-16.568 0-30 13.432-30 30s13.432 30 30 30 30-13.432 30-30-13.432-30-30-30m0 2c9.05 0 17.105 4.319 22.228 11h-39.158l-2.818-2.83c5.066-5.046 12.049-8.17 19.748-8.17m-26.043 28c0-5.464 4.412-9.895 9.855-9.895.675 0 1.334.069 1.971.198-4.498.918-7.884 4.91-7.884 9.697s3.386 8.779 7.884 9.698c-.637.127-1.295.196-1.971.196-5.444.001-9.855-4.428-9.855-9.894m13.044 7.916l-1.219-.928-1.218.928.46-1.51-1.212-.964h1.517l.454-1.484.468 1.484h1.503l-1.212.964.459 1.51m0-3.958l-1.219-.928-1.218.928.46-1.51-1.212-.964h1.517l.454-1.484.468 1.484h1.503l-1.212.964.459 1.51m0-3.958l-1.219-.928-1.218.928.46-1.509-1.212-.964h1.517l.454-1.484.468 1.484h1.503l-1.212.964.459 1.509m0-3.958l-1.219-.928-1.218.928.46-1.51-1.212-.964h1.517l.454-1.484.468 1.484h1.503l-1.212.964.459 1.51m35.227 20.958h-36.092l-4.353 4.237c-.526-.452-1.04-.918-1.531-1.408l19.748-19.829-14.938-15h38.563c2.766 4.34 4.375 9.484 4.375 15h-24.863l-15 15h35.489c-.438.688-.904 1.355-1.398 2"/></svg>