<svg xmlns="http://www.w3.org/2000/svg" viewBox="0 0 64 64" enable-background="new 0 0 64 64"><path d="m8.152 35.205c.324 1.037 1.465 1.643 2.51 1.762 1.013.059 2.06.227 2.996.428.177.038.389.119.512.173.257.109.447.267.612.437.564-.588 1.393-.752 2.208-.838 1.476-.173 3.291-.079 4.191-1.414v-.074c.489-.738.424-1.865.213-2.701-.014-.29-.092-.547-.135-.826-.9-2.376-.128-5.047.258-7.442-.473.257-1.001.38-1.527.509-.418.058-.887.031-1.312.008l-.003-.001c-.044-.094-.128-.34.055-.61 0 0-.315-.182-.368-.47-.353.001-.729-.007-.972-.046 0 0-.431.348-.989.313.073.183-.208.859-1.965.35-.29.09-1.351.267-1.235-.048-.276 0-.766.088-.839-.069-.069-.155.86-.392 1.023-.561 0 0-1.737.016-2.246-.098.073.381-.37.624-.37.624.17.248.115.477.071.585-.093.01-.19.015-.28.029l-.078.012c-.901.06-1.718-.208-2.503-.557.249 1.412.526 2.86.663 4.337.296 2.188-1.037 4.026-.49 6.188m4.032-9.067c.828-.117 1.79-.117 2.566.23.426-.184.927-.265 1.388-.316.876.086 1.817.244 2.718.238.604-.033 1.15-.206 1.675-.438-.312 2.013-.908 4.122-.175 6.146-.006.156.079.278.109.422.171 1.041.338 2.416-.731 3.06-1.183.753-2.733.431-4.103.828-.274.077-.65.328-.843.507-.123-.082-.248-.207-.407-.28-1.126-.6-2.589-.397-3.86-.722-.64-.202-1.304-.699-1.468-1.353-.414-1.715.582-3.177.463-4.878-.076-1.298-.294-2.545-.594-3.762.993.462 2.143.539 3.262.318"/><path d="m10.922 30.503l.01 1.912h-.35v.43l.167.006.006 2.026h-.622l.004.59 9.32.011v-.591l-.671-.002-.009-2.034h.14l-.004-.427h-.346l-.009-1.919h.232l-2.892-1.866-.005-.972h.278l-1.446-1.036-1.439 1.036h.278l.006.97-2.879 1.866z"/><path d="m18.942 28.145c0-.559-.071-1.687-.344-1.681-.274-.008-.333 1.12-.333 1.679-.23.065-.745.394-.972.684l2.63.004c-.23-.294-.747-.623-.981-.686"/><path d="m23.997 32.65c-.048-.443-.151-.991-.363-1.611v.002l-1.347.427.427 2.184.375.06c-.2 1.653-1.077 4.357-5.08 4.536l.024.23c-.748.319-2.112.534-3.237.53-1.126 0-2.528-.217-3.28-.534l.022-.236c-4.001-.181-4.903-2.882-5.12-4.536l.377-.058.406-2.188-1.35-.43v-.002c-.205.618-.304 1.166-.348 1.611l-.461-.035c-.225 1.817.137 6.28 4.761 7.056l-.003.477c1.305.719 4.341.874 5.003.87.659.004 3.659-.149 4.957-.866l-.008-.473c4.619-.768 4.944-5.229 4.704-7.046l-.459.032"/><path d="m14.127 23.374c0 0 .528.323.838.281.177-.023-.104.011-.334-.179-.234-.192-.285-.586.251-.576.534.015 2.537.128 2.573.309.037.181-1.058.255-1.465.246-.407-.012-.359.196.046.18.618-.022 1.265-.138 1.935-.133-.01-.049-.029-.088-.025-.149 0 0-.477-.033-.526-.438 0 0-.477.079-.686-.317 0 0-.465.09-.598-.236 0 0-.451.157-.72-.227 0 0-.477.194-.678-.169-.198.361-.675.169-.675.169-.265.382-.72.223-.72.223-.127.328-.592.236-.592.236-.207.394-.686.316-.686.316-.046.405-.522.438-.522.438.001.009-.004.013-.003.021.624-.079 1.46-.101 2.587.005"/><path d="m9.672 27.849l.6-.057.263.228-.126.58.315.432.329-.449.05.459.17-.086.297-.675-.074-.201.227.207.073-.202.288-.013-.129-.198.451.154.117-.215-.178-.517.334-.519-1.946-.176-.149.157h-.002l-1.375-.311.647.694z"/><path d="M32,2C15.432,2,2,15.431,2,32c0,16.569,13.432,30,30,30s30-13.432,30-30C62,15.431,48.568,2,32,2z M32,33L12.934,52.48
		C7.443,47.365,4,40.078,4,32c0-8.078,3.443-15.365,8.934-20.48L32,31h28c0.012,0.332,0.012,1.668,0,2H32z"/></svg>