<svg xmlns="http://www.w3.org/2000/svg" viewBox="0 0 64 64" enable-background="new 0 0 64 64"><path d="m21.002 35c5.134-1.352 8.743-5.128 9.106-9.53l.892-10.771c-6.378-2.266-13.621-2.266-20 0l.893 10.771c.365 4.402 3.975 8.178 9.109 9.53m0-.668c-2.276-.642-4.215-1.811-5.662-3.303.547.048 1.116-.034 1.629-.276.831-.395 1.857-.395 2.688 0 .832.39 1.857.39 2.689 0 .832-.395 1.857-.395 2.689 0 .513.242 1.082.324 1.627.276-1.447 1.494-3.386 2.661-5.66 3.303m6.352-4.08c-.734.234-1.583.213-2.319-.134-.832-.395-1.857-.395-2.689 0-.832.391-1.857.391-2.689 0-.832-.395-1.857-.395-2.688 0-.736.347-1.585.369-2.32.134-.24-.304-.471-.614-.67-.938.837.53 2.017.628 2.991.167.831-.392 1.857-.392 2.688 0 .832.394 1.857.394 2.689 0 .832-.392 1.857-.392 2.689 0 .975.461 2.152.363 2.991-.167-.201.324-.432.634-.673.938m-3.126-15.89l.838.177.237-.695.238.695.838-.177-.601.521.601.519-.838-.175-.238.695-.237-.695-.838.175.601-.519-.601-.521m-4.302 2.741l.838.176.238-.696.237.696.838-.176-.603.52.603.519-.838-.175-.237.696-.238-.696-.838.175.601-.519-.601-.52m-4.302-2.741l.838.177.237-.695.237.695.838-.177-.602.521.602.519-.838-.175-.236.694-.237-.695-.838.175.6-.519-.601-.52m1.345 8.18l1.613 1.76 2.42-3.96 2.419 3.96 1.614-1.76 4.033 4.398c-.107.398-.25.784-.413 1.163-.765 1.001-2.362 1.339-3.62.744-.832-.393-1.857-.393-2.689 0s-1.857.393-2.689 0c-.832-.393-1.857-.393-2.688 0-1.258.594-2.855.257-3.62-.743-.162-.379-.306-.766-.414-1.164l4.034-4.398"/><path d="m32 2c-16.568 0-30 13.432-30 30s13.432 30 30 30 30-13.432 30-30-13.432-30-30-30m0 2c11.917 0 22.112 7.486 26.147 18h-26.92l-.208 2.797c-.399 5.38-4.37 9.552-10.017 11.203-5.648-1.651-9.619-5.823-10.02-11.203l-.208-2.797h-4.92c4.034-10.514 14.229-18 26.146-18m-25.746 39c-.246-.575-.471-1.162-.679-1.756h52.85c-.208.594-.433 1.181-.679 1.756h-51.492"/></svg>