<svg xmlns="http://www.w3.org/2000/svg" viewBox="0 0 64 64" enable-background="new 0 0 64 64"><path d="m45.934 27.596l.004-.009c0-.018-.002-.024-.004.009"/><path d="m32 2c-16.568 0-30 13.432-30 30s13.432 30 30 30 30-13.432 30-30-13.432-30-30-30m26.15 20.007c-.184.036-.579.211-1.053.429.431-.248.731-.482.949-.689.035.086.07.173.104.26m-.257-.653c-.414.229-1.015.55-1.789.893.944-.458 1.426-.878 1.666-1.193.043.099.081.2.123.3m-17.56 37.378c-.519.162-1.04.305-1.565.436-.128.032-.257.06-.385.09-.393.092-.786.176-1.182.25-.167.031-.334.062-.502.09-.377.064-.755.119-1.134.168-.161.02-.321.043-.482.061-.479.053-.958.094-1.44.122-.048.003-.095.008-.143.011v-26.46h6.833v25.232m1.5-26.732h-9.833v28c-15.439 0-28-12.561-28-28s12.561-28 28-28c11.388 0 21.202 6.837 25.572 16.617-.532.259-1.476.859-2.623 1.359 1.407-.661 2.112-1.49 2.015-1.598-.298.249-3.373 1.453-3.373 1.453l-.032-.011c.365-.229.644-.681.346-.647-.503.348-2.358.72-2.94.82-.365.111-1.516.495-1.732.473-2.003-.137-2.505.136-2.505.136.006 0-.068-.06-.078-.092-.288-.624.094-.826.318-.856.183-.02.236.006.369-.053-.098-.034-.196-.068-.296-.104.234.048.526.045.439.352.229-.08.717-.61-.553-.731-.411-.435-2.108-.684-2.533 1.212.032.026-1.822-.3-2.343-.379-1.406-.37-2.868-1.268-3.008-1.158-.188.077.851.963.795.982-.898-.48-1.721-.822-2.487-1.132-.538-.187-1.077-.614-1.137-.534-.198.377.862 1.323 1.06 1.436.198.105 1.75.766 1.727.773-2.337-.972-2.729-1.148-2.846-1.262-.205-.042-.709-.664-.847-.624-.077.069.076 1.052 1.19 1.492.034.022.157.073.312.131-.312-.117-.542-.206-.569-.216-.487-.175-1.085-.789-1.196-.72-.105.063.274.728.769.936.161.065.612.267 1.146.479-.484-.177-1.039-.38-1.408-.522-.362-.184-.531-.413-.587-.364-.083.05.13 1.031 2.694 1.584.008.004.026.002.052 0-.048.008-.087.012-.1.012-.071-.01-.521.048-.528.069-.025.065.163.419 1.486.344.169-.01 1.087-.306 1.01-.242-.038.032-1.25.394-1.342.399-.081.012-.505.054-.522.094-.018.057.316.308 1.025.348.63.031 1.826-.353 1.802-.328-.023.025-1.152.379-1.184.401-.04.021-.453.04-.467.071-.034.071.596.61 2.459.036-.188.23-1.091.39-1.089.431-.004.03.199.211.515.274.157.032.372.027.57-.002.355-.065.728-.194 1.204-.598.056.127-1.187.705-1.128.759.27.23 1.164-.028 1.222-.06.06-.03-.428.22-.405.264.141.205.882-.01.918-.029.035-.019.947-.471.973-.481.024-.016-1.072.585-.975.68-.04.336 1.255-.105 1.702-.288-.242.117-.699.361-.699.497.294.457 1.237.313 1.381.211.073-.05-.085.341-.034.306.019-.008.205-.211.278-.359-.025.129-.127.331-.187.562-.062.23-.079.489-.161.766-.018.104.421-.147.489-.762-.036.438-.173.956-.123.99.037.025.095-.007.156-.064l-.02.056c-.006.074-.088.527-.594.527-.616 0-.634.504-.634.504s-.05.036-.015.28c.102-.165.151-.217.151-.217.069.009.352.086.799-.234-.407.388-.165.533-.165.533s-.096.308.215.369c-.096-.125-.04-.234-.04-.234s.437-.04.409-.528c.018.442.276.55.276.55s0 .245.284.265c-.153-.123-.119-.316-.119-.316s.367-.244.056-.659c.054-.028.104-.075.15-.123-.004.046-.01.091.002.15 0 .259.007.326.199.47-.052-.169-.034-.29-.034-.29s.255.141.503-.243c-.169.378-.05.515-.01.524.039.066-.069.374.271.368-.13-.115-.068-.28-.068-.28s.357-.052.232-.644c.13-.119.182-.006.182-.006s.039.354.35.28c.143.073-.022.266-.022.266s.229.006.296-.171.146-.494-.227-.622c-.047-.125.146-.137.146-.137s.238.073.308.183c.067.109.044-.284-.25-.327-.361-.011-.384-.078-.384-.094 0-.006-.01-.127-.021-.288.286.202.598.242.607.229.004-.056-.619-.824-.461-.924.159.029.416.379.628.266-.063-.137-.252-.06-.465-.407-.039-.069-.069-.146-.1-.227.013.011.461.47.893.447.163-.125-.338-.399-.338-.461.175.149.92.733 1.395.522.189-.248-.338-.212-.92-.882.405.248 1.421.793 1.896.584.13-.129-.35-.436-.82-.767.185.097.324.167.386.194.447.187.949-.073.963-.111-.008-.058-.198-.1-.486-.165.563.062 1.001-.041 1.055-.121-.021-.073-.104-.101-.651-.236 1.214.155 2.126-.484 2.126-.484s.288-.09-.203-.082c3.382-.397 3.976-1.844 3.914-1.855-.145-.016-.661.357-1.484.722 1.188-.545 1.897-1.265 2.089-1.538 1.154 3.064 1.793 6.383 1.793 9.851h-8.333-9.834m4.905-5.049c.048-.34.054-.807.065-1.337.509.891.711 1.268.568 1.951.062.023.135-.062.204-.177l.026.461c0 0-.04.062-.073.098-.021.025-.412-.034-.648.097-.054-.021-.25-.101-.354-.173-.056-.109-.004-.703-.004-.705.092.127.197.244.296.286-.02-.258.003-.246-.08-.501m-8.219-3.872c-.008.004-.29.062-.54.107.257-.051.564-.124.54-.107m21.435 10.479c-.039.708-.109 1.411-.202 2.11-.01.077-.019.155-.029.232-.103.724-.231 1.442-.389 2.152-.007.029-.014.059-.021.088-.334 1.479-.785 2.926-1.351 4.326-.004.008-.007.017-.01.025-.278.686-.585 1.359-.916 2.021-.025.051-.052.102-.078.151-.328.647-.679 1.282-1.057 1.903-.019.029-.038.058-.057.088-.336.546-.696 1.076-1.069 1.6-.091.127-.179.256-.271.381-.357.484-.735.953-1.124 1.415-.07.083-.143.164-.214.246v-16.796h6.792c0 .02-.003.039-.004.058"/></svg>