<svg xmlns="http://www.w3.org/2000/svg" viewBox="0 0 64 64" enable-background="new 0 0 64 64"><path d="m36.604 23.043c-.623-.342-1.559-.512-2.805-.512h-6.693v7.795h6.525c1.295 0 2.268-.156 2.916-.473 1.146-.551 1.721-1.639 1.721-3.268 0-1.757-.555-2.939-1.664-3.542"/><path d="m32.002 2c-16.568 0-30.002 13.432-30.002 30s13.434 30 30.002 30 30-13.432 30-30-13.432-30-30-30m12.82 44.508h-6.693c-.184-.643-.314-1.16-.393-1.555-.158-.814-.244-1.646-.256-2.5l-.041-2.697c-.023-1.85-.344-3.084-.959-3.701-.613-.615-1.766-.924-3.453-.924h-5.922v11.377h-5.925v-29.016h13.879c1.984.039 3.51.289 4.578.748s1.975 1.135 2.717 2.027c.613.734 1.1 1.549 1.459 2.441.357.893.537 1.908.537 3.051 0 1.379-.348 2.732-1.043 4.064s-1.844 2.273-3.445 2.826c1.338.537 2.287 1.303 2.844 2.293.559.99.838 2.504.838 4.537v1.949c0 1.324.053 2.225.16 2.697.16.748.533 1.299 1.119 1.652v.731z"/></svg>