<svg xmlns="http://www.w3.org/2000/svg" viewBox="0 0 64 64" enable-background="new 0 0 64 64"><path d="m32 2c-16.568 0-30 13.432-30 30s13.432 30 30 30 30-13.432 30-30-13.432-30-30-30m-6.344 15.685l-3.131-.897.893 3.131-2.26-2.339-.792 3.157-.791-3.157-2.265 2.339.895-3.131-3.128.895 2.337-2.265-3.157-.788 3.157-.793-2.339-2.265 3.13.895-.895-3.129 2.265 2.34.789-3.16.792 3.16 2.264-2.34-.895 3.131 3.129-.895-2.338 2.263 3.158.79-3.158.791 2.34 2.267m22.415-8.593c1.149.809 2.233 1.701 3.247 2.668l-46.52 26.859c-.328-1.348-.559-2.732-.683-4.148l43.956-25.379m11.131 16.288c.328 1.348.558 2.732.683 4.148l-43.957 25.378c-1.149-.809-2.234-1.7-3.248-2.668l46.522-26.858"/></svg>