<svg xmlns="http://www.w3.org/2000/svg" viewBox="0 0 64 64" enable-background="new 0 0 64 64"><path d="m32 2c-16.568 0-30 13.432-30 30s13.432 30 30 30 30-13.432 30-30-13.432-30-30-30m-26.549 30h-1.451c0-3.102.516-6.084 1.451-8.875v8.875m26.549-17.7h-8.26l8.26 10.325v2.516l-10.395-12.841h-5.9l14.328 17.7h-3.933l-11.799-14.75v14.75h-2.951v-18.888c.563-.613 1.15-1.201 1.764-1.763h18.886v2.951m0-8.85h-8.875c2.791-.935 5.773-1.45 8.875-1.45v1.45m13.277 45.126c-1.811-1.004-3.6-2.591-4.631-4.93l4.633-8.614 4.631 8.609c-1.031 2.343-2.82 3.932-4.633 4.935m9.383-22.18c.297.726.545 2.158.576 2.675.039.707.289.733.361.278.129-.814.803-.877.76-1.2.117.129.277.461.16.739.461-.61.963-.128 1.285-.247-.396.309-.158.954-.963 1.23.322-.032.406.225.621.29-.344.085-.32.511-.771.556-.449.044-1.092.451-1.498.922-1.293 1.5-2.699 1.5-3.941.686.129.07.273.129.424.176-.148-.047-.291-.105-.42-.176-.457-.248-.824-.119-.387.278.666.599 2.117 1.045 3.832 1.413 2.977.536 3.256 2.699 1.799 4.021.191.461-.301 1.51-1.426 1.555.334-.363-.055-.836.184-1.039-.262.295-.873.271-1.189.193.023.094.057.183.076.28.389 1.927 1.115 2.441 2.016 1.927-.215 1.112-1.33 1.24-2.271.386.078 1.139-.32 2.478-1.336 3.154-.01.085-.039.17-.094.237-.234.288.049.928-.447 1.162.07.171.092.431.021.854-.059.355-.072 1.218.238 1.241-.193.088-.604.173-.764-.054-.172.263-.531.171-.664-.169-.199.146-.449-.127-.439-.354-.174.1-.5-.067-.396-.576-.207.063-.465-.091-.555-.225.301-.048 1.068-.425 1.262-.741.115-.188.328-.313.549-.35-.172-.715.598-.771.68-1.122.047-.191.135-.262.23-.274.105-.506.344-.955.238-1.414-.063-.278-.084-.924.279-1.221-.707.234-1.822-.214-1.928-1.264.813.385 1.857.448 2.268-.576-.045-.193-1.449-2.389-2.227-2.748v2.296c0 1.305-.195 2.464-.531 3.498l-4.813-8.933c.01-.007.008-.013.014-.02-.18.13-.363.257-.559.371l-4.631 8.584c.004.008.006.017.008.025-.002-.007-.006-.017-.008-.024v-.001c-.334-1.035-.533-2.195-.533-3.501v-2.14c-.535.563-1.453 3.036-1.48 3.323.348.352.936.26 1.531-.091.084 1.351-.922 1.629-1.607 1.138.428.833.428 2.289.641 2.74.027.058.049.111.066.162.09.01.172.072.209.255.063.314.748.394.57 1.027.193.04.381.159.477.334.16.288.836.651 1.104.705-.084.119-.318.248-.504.185.08.457-.223.597-.373.501 0 .204-.234.438-.406.3-.129.3-.455.371-.6.129-.148.197-.514.105-.686.019.279-.009.297-.781.258-1.101-.05-.38-.022-.613.05-.762-.443-.227-.164-.791-.361-1.057-.07-.093-.094-.215-.063-.32-.023-.018-.041-.03-.064-.052-1.068-.967-1.543-2.1-1.543-3.405-.535.814-1.756.708-1.756-.684.986.492 1.664.087 2.184-1.817-.348-.027-.689-.059-.898-.284.064.491-.043 1.114-.451 1.349.021-.899-.982-.771-.814-1.841-.641-.301-1.723-1.638-.084-3.17 2.014-1.887 4.178-1.072 5.527-2.357 0 0-.002.001-.004.002-1.92.975-3.961.279-4.496-.795-.332-.662-.74-.864-1.285-.908s-1.018-.258-1.479-.793c.344 0 .418-.377.73-.397-.537-.278-1.051-.922-.73-1.563.299.386 1.113.065 1.35.322-.041-.234.066-.576.258-.705.129.492.793.556.877 1.562.279-.642.602-2.569.75-3.403.021-.119.043-.223.064-.329-.33.203-.777.177-1.092-.101.043.966-.492 1.521-1.498 1.2.557-.513.084-1.027.557-1.456-.449.171-.686-.044-.836-.535.898.255 1.32-1.262 2.113-.834.529-.515 1.24-.726 1.967-.088.371.328.482.848.428 1.357 0 .006.002.011.002.018-.014.102-.031.197-.053.296-.236.986-.645 2.484-.857 3.233 1.389-2.162 2.441-1.818 3.168-2.565.063.236.066.695-.148.93.691.042 1.531.242 1.84-.052-.344.942-1.156 1.607-2.037 1.542.324.447.174 1.222-.49 1.456.193-.624-.277-1.16-.879-.858-.385.189-1.82.854-1.625 2.333l.002.001c0-.001 0-.002 0-.003 1.066.281 2.889.332 4.502-.92.199-.156.395-.341.588-.539-.102-.119-.201-.229-.291-.313-.35-.056-.756-.085-1.014-.069.277-.6 1.07-1.23 1.715-1.488.023-.035.049-.066.074-.102v-1.001h.221l-.693-2.597 7.219-1.888-.982 4.484h.01v1.286c.416 1.227 1.201 2.365 2.055 3.148 1.027.942 2.578.705 3.447-.191-.047-2.037-2.482-2.521-2.504-1.326-.514-.189-1.027-.77-.641-1.453-.771-.043-1.715-.449-1.627-1.52.748.813 1.627-.173 2.012.427-.236-.407-.32-.922.301-1.2-.023 1.155 1.883 1.457 2.117 2.635.129-1.585-1.432-2.42-.877-3.876.008-.03.027-.054.039-.081-.012.027-.029.046-.039.075.021-.076.061-.141.105-.201 0 .001-.002.001-.002.001.004-.005.006-.009.008-.014.617-1.204 1.93-1.055 2.395-.47 1.436-.814 1.627 1.027 2.848.664-.02.343-.428.663-.879.64.473.429-.191 1.072.814 1.456-.857.429-2.055-.021-2.375-1.2-.213.426-.854.523-1.324.346.039.182.094.367.164.536"/><path d="m44.293 39.143h1.84v2.059h-1.84z"/><path d="m48.166 46.21c-.279.709-1.219.687-1.479 1.114.156.079.305.183.43.272-.32.321-1.074.858-1.5.989v-4.554c.498-.03 1.271-.104 1.598-.104.109 0 .199-.161.199-.363 0-.199-.088-.362-.199-.362-.35 0-1.219-.083-1.707-.109 0-.158 0-.727 0-.911 0-.213-.043-.524-.234-.524-.115 0-.176.113-.207.248-.094-.042-.201-.067-.314-.067-.379 0-.688.28-.688.628s.307.628.688.628c.104 0 .201-.021.287-.06v.059c-.486.026-1.35.109-1.701.109-.107 0-.197.163-.197.362 0 .202.086.363.197.363.326 0 1.096.071 1.594.104v4.554c-.234-.686-1.158-.451-1.586-1.137.166-.04.346-.054.514-.021-.32-1.091-1.199-1.175-1.369-1.498 0 .451-.193 1.498.107 1.949.068-.078.168-.165.293-.236.363.794 2 .796 2.387 2.102.309-.482 1.424-1.037 2.203-1.874.129.063.367.182.473.227.256-.516.297-1.244.211-1.888m-3.127-4.027c0 .111 0 .367 0 .586-.076.062-.176.1-.287.1-.244 0-.441-.181-.441-.401 0-.223.199-.403.441-.403.113 0 .213.039.289.101l-.002.017"/><path d="m53.592 39.554c.279-.131.623-.195 1.055-.145-.492-.267-.664-.942-.021-1.284.035.407.566.875 1.125.889.254-.006.459-.269.096-.595-1.336-1.203-3.381-1.548-5.043-2.305 0 .181 0 .403 0 .668 1.208.849 2.186 1.694 2.788 2.772"/><path d="m47.824 34.345c-.564-.05-1.18.493-1.906 1.063l2.57.005c.17-.515.065-1.005-.664-1.068"/><path d="m48.896 35.413h-.189l.902.002c-.25-.19-.48-.404-.682-.651.053.207.05.428-.031.649"/><path d="m36.566 37.857c.426.169.684.834.232 1.241.348-.034.668.068.945.246.309-.794.953-1.609 1.648-2.199.115-.099.238-.192.357-.287 0-.18 0-.343 0-.485-1.438.483-3.623 1.58-4.271 2.184.431.091 1.021-.046 1.089-.7"/></svg>