<svg xmlns="http://www.w3.org/2000/svg" viewBox="0 0 64 64" enable-background="new 0 0 64 64"><path d="m32 2c-16.568 0-30 13.432-30 30s13.432 30 30 30 30-13.432 30-30-13.432-30-30-30m15.039 6.4h-30.079c4.349-2.78 9.507-4.4 15.04-4.4s10.691 1.62 15.039 4.4m-4.223 40.947c-1.164.23-2.374.354-3.605.354-9.957 0-18.027-7.925-18.027-17.7 0-9.773 8.07-17.7 18.027-17.7 1.231 0 2.441.123 3.605.355-8.23 1.64-14.421 8.782-14.421 17.344s6.191 15.704 14.421 17.347m-25.856 6.253h30.079c-4.348 2.78-9.506 4.4-15.039 4.4s-10.691-1.62-15.04-4.4"/></svg>