<svg xmlns="http://www.w3.org/2000/svg" viewBox="0 0 64 64" enable-background="new 0 0 64 64"><path d="m25.201 32c0-5.633 4.565-10.2 10.198-10.2 2.661 0 5.076 1.028 6.892 2.697-2.318-3.175-6.059-5.246-10.291-5.246-7.041 0-12.749 5.708-12.749 12.749s5.708 12.749 12.749 12.749c4.234 0 7.976-2.073 10.294-5.25-1.816 1.671-4.232 2.699-6.895 2.699-5.632 0-10.198-4.565-10.198-10.198"/><path d="m36.302 29.221l-3.267-4.496v5.558l-5.285 1.717 5.285 1.717v5.558l3.267-4.496 5.286 1.717-3.268-4.496 3.268-4.496z"/><path d="M32,2C15.432,2,2,15.432,2,32s13.432,30,30,30s30-13.432,30-30S48.568,2,32,2z M32,48.997
		c-9.388,0-16.999-7.609-16.999-16.997S22.612,15.001,32,15.001S48.997,22.612,48.997,32S41.388,48.997,32,48.997z"/></svg>