<svg xmlns="http://www.w3.org/2000/svg" viewBox="0 0 64 64" enable-background="new 0 0 64 64"><path d="m32 40.85c4.888 0 8.85-3.962 8.85-8.85s-3.962-8.85-8.85-8.85-8.85 3.962-8.85 8.85 3.962 8.85 8.85 8.85m0-16.225c4.073 0 7.375 3.302 7.375 7.375 0 4.072-3.302 7.375-7.375 7.375s-7.375-3.303-7.375-7.375c0-4.073 3.302-7.375 7.375-7.375"/><path d="m28.579 32.512c0 0 .056-.076.232-.076.179 0 .232.076.232.076.106.349.31.699.576 1.002.266-.326.463-.682.562-1.002 0 0 .056-.076.234-.076.176 0 .23.076.23.076.105.34.299.682.559.979.259-.298.455-.64.559-.979 0 0 .056-.076.232-.076s.232.076.232.076c.105.342.302.687.563.985.262-.299.459-.644.563-.985 0 0 .057-.076.232-.076.179 0 .234.076.234.076.106.342.302.687.565.985.261-.299.457-.644.563-.985 0 0 .054-.076.232-.076.177 0 .232.076.232.076.263.854 1.087 1.721 2.095 1.846l-1.765-2.891h.017l-3.758-6.017-3.084 4.933-.017.027-.687 1.098h.016l-1.883 3.083c1.006-.13 1.971-1.228 2.234-2.079m2.468-2.663c.112-.227.224-.338.431-.459.467-.278.765-.187.999.208.215.351.424.734.443 1.06.004.08.035.21 0 .305.018.013.027.031.02.063-.033.119.044.202.044.288 0 .035-.012.05-.03.059-.035.046-.113.076-.218.059-.165-.03-.201.048-.292.104-.063.1-.098.198-.144.364-.044.18-.139.277-.258.243-.017-.005-.032-.012-.046-.026-.012 0-.023.004-.036 0-.103-.017-.117-.231-.115-.33.009-.236.022-.288-.089-.388-.006-.007-.008-.009-.016-.015-.109-.091-.225-.198-.408-.269-.223-.091-.298-.224-.308-.243-.012-.021.014-.204.073-.351.062-.151.184-.301.265-.364.032-.026.075-.091.135-.137-.025.015-.083.029-.133.072-.119.121-.238.072-.269.059-.016-.005-.029-.01-.039-.028-.047-.062-.053-.176-.009-.274"/><path d="M32,2C15.432,2,2,15.432,2,32s13.432,30,30,30s30-13.432,30-30S48.568,2,32,2z M5.787,22.167h52.426
		C59.365,25.228,60,28.541,60,32c0,3.459-0.635,6.771-1.787,9.834H5.787C4.635,38.771,4,35.459,4,32
		C4,28.541,4.635,25.228,5.787,22.167z"/></svg>