<svg xmlns="http://www.w3.org/2000/svg" viewBox="0 0 64 64" enable-background="new 0 0 64 64"><path d="m8.208 23.452l6.751-10.126-.68-.452-.678-.453-6.751 10.126.68.452z"/><path d="m10.062 24.687l.677.453 6.749-10.126-.677-.453-.68-.452-6.749 10.126z"/><path d="m12.591 26.374l.68.453 6.75-10.125-.679-.452-.678-.454-6.751 10.126z"/><path d="m48.258 42.349l.678.452 3.149-4.723-.678-.452-.679-.453-3.148 4.723z"/><path d="m55.79 40.549l-3.147 4.722.677.454.68.452 3.148-4.724-.678-.452z"/><path d="m51.467 44.488l3.15-4.722-.68-.453-.678-.452-3.148 4.723.678.452z"/><path d="m47.807 43.027l-.68-.452-3.148 4.724.677.451.68.453 3.148-4.723z"/><path d="m50.338 44.715l-.68-.453-3.148 4.724.678.453.68.452 3.148-4.723z"/><path d="m52.189 45.95l-3.148 4.724.678.453.678.451 3.15-4.723-.68-.453z"/><path d="m7.53 41.001l-.68.452 6.751 10.125.678-.451.68-.453-6.751-10.125z"/><path d="m13.66 44.715l-.678.453 3.149 4.723.68-.452.677-.453-3.148-4.724z"/><path d="m12.591 37.626l-.678.452 6.751 10.125.678-.453.679-.451-6.75-10.126z"/><path d="m9.382 39.766l3.149 4.722.678-.452.68-.452-3.15-4.723-.677.452z"/><path d="m52.867 17.598l.68-.453-3.15-4.724-.678.453-.678.452 3.15 4.724z"/><path d="m47.807 20.973l.677-.453-3.148-4.724-.68.454-.677.452 3.148 4.723z"/><path d="m52.643 18.729l3.147 4.723.68-.453.678-.452-3.148-4.723-.68.452z"/><path d="m53.937 24.687l.68-.452-6.749-10.126-.68.452-.678.453 6.749 10.126z"/><path d="m51.407 26.374l.678-.452-3.149-4.724-.678.453-.678.453 3.148 4.723z"/><path d="M32,2C15.432,2,2,15.432,2,32s13.432,30,30,30s30-13.432,30-30S48.568,2,32,2z M32,60C16.561,60,4,47.439,4,32
		S16.561,4,32,4s28,12.561,28,28S47.439,60,32,60z"/><path d="m32 18.841c-7.256 0-13.158 5.903-13.158 13.159 0 7.256 5.902 13.159 13.158 13.159s13.158-5.903 13.158-13.159c0-7.256-5.902-13.159-13.158-13.159m8.438 11.472c-2.797-1.865-6.575-1.109-8.438 1.687-1.865 2.796-5.643 3.551-8.439 1.688-1.328-.886-2.191-2.204-2.536-3.644.929-5.222 5.491-9.203 10.976-9.203 6.152 0 11.158 5.006 11.158 11.159 0 .67-.069 1.323-.184 1.961-.344-1.441-1.207-2.762-2.537-3.648"/></svg>