<svg xmlns="http://www.w3.org/2000/svg" viewBox="0 0 64 64" enable-background="new 0 0 64 64"><path d="m36.59 21.349h.882v-3.283h1.261v-.714h-3.415v.714h1.272z"/><path d="m40.126 21.349h.882v-3.283h1.262v-.714h-3.414v.714h1.27z"/><path d="m45.989 20.611h-2.343v-1.029h2.047v-.685h-2.047v-.85h2.24v-.695h-3.11v3.997h3.213z"/><path d="m28.328 21.349h.881v-1.491l1.41-2.506h-1.006l-.845 1.722-.916-1.722h-1.08l1.556 2.506z"/><path d="m18.834 18.126l.882 3.223h.903l.867-3.223v3.223h.827v-3.997h-1.308l-.841 3.042-.851-3.042h-1.304v3.997h.825z"/><path d="m23.978 20.526h1.659l.292.822h.924l-1.544-3.997h-1.018l-1.523 3.997h.928l.282-.822m.826-2.374l.596 1.7h-1.19l.594-1.7"/><path d="m32.908 21.46c.64 0 1.148-.19 1.527-.57.38-.381.57-.892.57-1.534 0-.646-.19-1.156-.57-1.537-.379-.38-.888-.568-1.527-.568s-1.148.188-1.526.568c-.377.379-.564.89-.564 1.537 0 .643.188 1.153.564 1.534.378.38.887.57 1.526.57m-.877-3.131c.209-.241.501-.364.877-.364.381 0 .676.123.888.366.211.242.316.584.316 1.024 0 .438-.105.779-.316 1.023-.212.244-.507.364-.888.364-.376 0-.668-.12-.877-.364-.21-.244-.315-.586-.315-1.023 0-.442.105-.784.315-1.026"/><path d="m43.42 45.521c-2.432-1.258-4.861-1.822-5.092-1.216-.042.117-.076.183-.135.333-.245-.056-.883-.208-1.521-.312-1.971-.357-7.375-.357-9.346 0-.64.104-1.073.278-1.433.381-.205-.409-.161-.246-.203-.361-.17-.421-1.277-.354-2.807.189-1.236.419-3.019 1.279-3.731 1.762-.229.167-.209.354.147 1.067.252.461.504.858.546.858.062 0 .753-.313 1.528-.71.776-.379 1.766-.876 2.221-.966.348-.067.668-.133.864-.216.079.194.03.089.175.389.207.436.078.426.436.545.379.125 1.314-.382 1.314-.382 1.089-.377 1.697-.419 5.615-.419s4.527.042 5.614.439c0 0 .877.298.99.337.112.034.171.061.292.034.105-.027.218-.192.268-.292 0 0 .242-.58.303-.781.21.102.59.232.959.346.438.147 1.423.587 2.199.966.773.397 1.465.71 1.53.71.04 0 .292-.397.544-.858.505-.985.545-.9-1.277-1.843m-4.945-1.048l.038-.051c.137.109.365.268.507.346.202.111.304.183.336.227l.006.008.004.006.002.01v.004.002.004.002l-.002.004-.004.002-.006.006-.002.004-.008.002-.116.011c-.239.01-.708-.282-.849-.33.02-.096.028-.179.094-.257m-12.95.005c.021.063.043.081.216.346-.262.108-.037.031-.455.188-.488.165-.691.35-.73.367h-.004-.002v-.004l.006-.016c.115-.255.155-.397.425-.58.151-.102.384-.246.522-.352l.022.051"/><path d="m39.469 23.878h-7.475-7.474v8.351c0 0 .004 5.964.016 8.239-.02.338.176.419.467.644.468.363.966.743 3.641.536 2.459.015 2.974.205 3.23 1.185l.139.549.119-.549c.189-.945.773-1.17 3.144-1.185 3.054.046 3.308-.146 3.745-.521 0 0 .319-.246.401-.482.093-.265.048-.482.048-.482v-7.934-8.351zm-.171 16.685c-.098.177-.299.411-.299.411-.463.465-.857.56-2.974.532-1.367.002-2.104.04-3.183.211-.169.152-.634.139-.849 1.022-.28-.884-.48-.846-.48-.846-1.145-.479-1.655-.386-3.489-.403-1.185.171-2.456-.052-2.938-.532 0 0-.071.02-.394-.362.002-1.677 0-8.299 0-8.299v-8.249h7.302 7.304v8.249l.033 6.879c0 .927.065 1.211-.033 1.387"/><path d="m29.425 36.435c-.216 0-.392.175-.392.392 0 .215.176.392.392.392.215 0 .392-.177.392-.392v-.002c-.001-.216-.177-.39-.392-.39"/><path d="m38.361 35.719l-.256-.306.269-.325c.598-.706.592-1.363-.013-2.007l-.325-.365h.016l.294-.347c.566-.605.566-1.262.006-1.955l-.286-.352.267-.317c.588-.701.574-1.347-.03-2.021-.275-.3-.282-.357-.065-.497.352-.236.568-1.031.409-1.518-.236-.726-1.251-1.21-1.869-.891-.113.058-.342.217-.515.35-.173.14-.332.249-.363.249-.026 0-.178-.115-.338-.255-.618-.528-1.344-.492-1.963.107l-.236.23-.311-.288c-.632-.592-1.422-.566-2.066.058l-.234.23-.256-.23c-.376-.344-.624-.445-1.057-.451-.414-.008-.805.165-1.109.495l-.154.159-.33-.278c-.61-.524-1.103-.612-1.695-.3-.465.242-.707.6-.746 1.083-.038.522.077.892.377 1.172.135.135.25.262.25.294 0 .025-.104.151-.23.272-.3.281-.471.651-.471 1.033 0 .396.119.669.445 1.026l.268.294-.294.324c-.586.651-.567 1.395.044 2.013l.261.309h.056l-.269.341c-.624.693-.618 1.401.014 2.103l.236.262-.27.292c-.146.159-.305.388-.356.505-.202.489-.051 1.146.351 1.521.242.236.25.333.02.613-.102.121-.223.292-.267.382-.479.904.236 2.04 1.292 2.04.421 0 .739-.135 1.026-.44.23-.241.351-.249.555-.032.3.332.695.536 1.025.536.39 0 .63-.121 1.025-.498l.3-.294.274.3c.592.638 1.191.657 1.988.052l.326-.242.278.254c.352.308.613.429.957.429s.599-.135 1-.528l.331-.319.255.229c.492.44.759.58 1.116.58.368 0 .63-.121 1-.453.344-.311.528-.674.484-.974-.044-.326-.338-.918-.555-1.121l-.185-.179.286-.325c.624-.735.631-1.302.013-2.029m-8.587-7.549c.09-.239.109-.376.227-.63.022.173.034.409.153.772.155.497.431.858.791 1.081.826.532 2.08.361 2.716-.344.258-.292.417-.747.482-.979.063-.229.077-.263.115-.489.098.221.153.336.201.678.069.507-.042.93-.163 1.238-.601 1.581-2.525 2.063-3.729.928-.584-.533-1.048-1.58-.793-2.255m.845 9.002c.445.28.686.517.532.753-.154.234-.663-.01-.87-.173-.254-.199-.443-.384-.57-.513.034.177.076.429.08.787.004.343-.058.85-.35.852-.286 0-.34-.431-.346-.814-.006-.317.06-.649.083-.816-.111.117-.394.344-.608.485-.258.174-.713.438-.87.202-.156-.232.253-.596.526-.771.278-.178.529-.243.714-.342-.217-.084-.411-.111-.745-.299-.306-.174-.697-.48-.561-.705.142-.234.559-.052.889.14.26.15.448.276.634.457-.058-.276-.074-.445-.063-.817.012-.407.077-.822.329-.82.251.002.332.479.336.849.004.248-.034.584-.067.811.15-.144.373-.346.611-.497.445-.282.739-.417.883-.171.148.255-.058.453-.543.749-.329.199-.554.221-.757.305.201.083.422.151.733.348m5.126 0c.445.28.688.517.532.753-.154.234-.663-.01-.87-.173-.254-.199-.443-.384-.57-.513.036.177.077.429.08.787.006.343-.058.85-.349.852-.289 0-.341-.431-.346-.814-.006-.317.061-.649.082-.816-.109.117-.394.344-.606.485-.258.174-.715.438-.872.202-.156-.232.253-.596.526-.771.28-.178.529-.243.716-.342-.219-.084-.411-.111-.747-.299-.306-.174-.697-.48-.559-.705.14-.234.557-.052.887.14.26.15.448.276.636.457-.06-.276-.076-.445-.064-.817.011-.407.076-.822.328-.82.251.002.332.479.336.849.004.248-.034.584-.067.811.149-.144.375-.346.612-.497.444-.282.738-.417.882-.171.15.255-.058.453-.543.749-.329.199-.552.221-.757.305.201.083.422.151.733.348"/><path d="m34.551 36.435c-.215 0-.392.175-.392.392 0 .215.177.392.392.392.217 0 .392-.177.392-.392v-.002c-.001-.216-.175-.39-.392-.39"/><path d="m23.526 34.696c-.439-1.778-1.377-3.159-2.643-3.94.642.024 1.093-.012 1.093-.012l1.427-.119-1.198-.782c-.354-.23-1.373-1.046-1.412-1.741-.009-.156.02-.397.373-.691l.874-.725-.978-.123.388-.935-1.075.269-.105-.981.399-.258-.848-.762-.779-.069-.906.354-.27-.807-.474.737-.548-.749-.304 1.212-.747-.429-.187.951-1.014-.755.085 1.583-1.523-.256.35 1.179-1.281-.094.999 1.896-1.166.723 1.669 1.644.04.447-3.41-.831 2.024 2.064-.554 2.021 2.334.187-.882 1.824 2.869-.723.709 1.863c-.127-.034-.258-.052-.392-.052-1.589 0-2.984 2.412-2.984 3.868 0 1.385 2.319 3.769 4.695 3.769.991 0 1.886-.395 2.662-1.172 2.468-2.465 3.522-6.227 2.69-9.585m-9.508 7.077c0-1.632 1.951-4.359 3.296-3.015.724.724.165 1.693-.187 1.534-.203-.092.145-1.183-.996-1.183-1.149 0-3.234 3.864 1.725 4.805.891.169 2.838-1.796 2.796-3.519-.077-3.088-2.428-4.699-2.428-4.699l-1.112 1.431-.614-1.617-2.273.572.737-1.524-2.459-.196.473-1.721-1.016-1.035 2.402.586-.117-1.313-1.352-1.33 1.023-.636-.799-1.516 1.106.08-.327-1.105 1.353.227-.062-1.148.799.595.203-1.044.719.408.203-.819.35.479.308-.478.107.322 1.283-.499.501.044.246.223-1.456.938.185.489.741.167.522-.537.092.86.677-.169-.262.63.492.062c-1.706 1.413 1.085 3.223 1.085 3.223s-5.064.419-5.508-2.722c0 0-1.072 1.867 3.213 3.192 4.308 1.332 5.103 8.953.849 13.207-2.807 2.809-6.518-.89-6.518-2.249m3.597-3.453c-.185-.184-.389-.318-.607-.403l1.249-1.607c.612.566 1.807 1.933 1.856 4.011.02.706-.416 1.621-1.107 2.329-.463.477-.884.693-1.103.693h-.002c-1.881-.357-2.856-1.19-2.747-2.349.083-.884.734-1.482.93-1.482.355 0 .381.088.421.463.024.213.06.533.374.676l.177.062h.106c.348 0 .668-.254.837-.661.19-.462.19-1.157-.384-1.732"/><path d="m53.643 30.631l-3.408.831.04-.447 1.669-1.644-1.166-.723.999-1.896-1.283.094.35-1.179-1.522.256.084-1.583-1.014.755-.185-.951-.749.429-.302-1.212-.548.749-.474-.737-.269.807-.909-.354-.779.069-.846.762.399.258-.105.981-1.075-.269.388.935-.979.123.876.725c.354.294.382.535.373.691-.041.695-1.059 1.511-1.412 1.741l-1.2.782 1.427.119c0 0 .453.036 1.093.012-1.264.781-2.203 2.162-2.643 3.94-.832 3.357.225 7.12 2.688 9.584.776.777 1.673 1.172 2.664 1.172 2.374 0 4.694-2.384 4.694-3.769 0-1.456-1.395-3.868-2.985-3.868-.132 0-.265.018-.392.052l.709-1.863 2.871.723-.884-1.824 2.334-.187-.553-2.021 2.024-2.063m-4.606 3.928l.738 1.524-2.274-.572-.614 1.617-1.11-1.431c0 0-2.351 1.611-2.428 4.699-.044 1.723 1.905 3.688 2.796 3.519 4.959-.94 2.874-4.805 1.725-4.805-1.141 0-.795 1.091-.996 1.183-.354.159-.91-.811-.187-1.534 1.345-1.345 3.296 1.383 3.296 3.015 0 1.358-3.711 5.058-6.519 2.249-4.254-4.254-3.461-11.875.849-13.207 4.285-1.325 3.213-3.192 3.213-3.192-.443 3.141-5.508 2.722-5.508 2.722s2.791-1.81 1.085-3.223l.492-.062-.262-.63.677.169.092-.86.522.537.741-.167.183-.489-1.456-.938.248-.223.501-.044 1.281.499.107-.322.308.478.35-.479.205.819.717-.408.205 1.044.799-.595-.062 1.148 1.353-.227-.328 1.105 1.105-.08-.799 1.516 1.025.636-1.352 1.33-.117 1.313 2.402-.586-1.016 1.035.471 1.721-2.458.196m-3.038 5.492c.171.407.489.661.837.661h.106l.179-.062c.313-.143.35-.463.372-.676.042-.375.065-.463.421-.463.197 0 .847.599.932 1.482.107 1.158-.868 1.991-2.749 2.349h-.001c-.218 0-.641-.217-1.104-.693-.691-.708-1.125-1.623-1.107-2.329.052-2.078 1.246-3.444 1.859-4.011l1.248 1.607c-.219.085-.425.22-.609.403-.572.576-.574 1.271-.384 1.732"/><path d="M32,2C15.432,2,2,15.432,2,32s13.432,30,30,30s30-13.432,30-30S48.568,2,32,2z M32,60C16.561,60,4,47.439,4,32
		S16.561,4,32,4s28,12.561,28,28S47.439,60,32,60z"/></svg>