<svg xmlns="http://www.w3.org/2000/svg" viewBox="0 0 64 64" enable-background="new 0 0 64 64"><path d="m32 2c-16.568 0-30 13.432-30 30s13.432 30 30 30 30-13.432 30-30-13.432-30-30-30m-9.833 43.381l-2.122.599.539 2.14-2.136-.541-.6 2.121-1.581-1.538-1.583 1.538-.601-2.122-2.136.541.542-2.14-2.122-.599 1.536-1.581-1.536-1.582 2.122-.6-.542-2.138 2.136.542.601-2.122 1.583 1.536 1.581-1.536.601 2.122 2.136-.542-.539 2.138 2.122.6-1.54 1.583 1.539 1.581m-5.9-19.281c-5.408 0-6.884-5.899-6.884-5.899s1.478 1.025 3.391 1.771c-.273-.534-.44-1.131-.44-1.771 0-2.173 1.762-3.934 3.934-3.934s3.932 1.76 3.932 3.933c0 .64-.169 1.236-.44 1.771 1.913-.743 3.391-1.771 3.391-1.771s-1.353 5.9-6.884 5.9m30.493 29.679l-21.813-21.812h23.601l-27.661-27.661c3.409-1.481 7.166-2.306 11.113-2.306 15.439 0 28 12.561 28 28 0 10.025-5.299 18.832-13.24 23.779"/></svg>