<svg xmlns="http://www.w3.org/2000/svg" viewBox="0 0 64 64" enable-background="new 0 0 64 64"><path d="m22.167 38.626c0 0 0 5.174 9.833 5.174 9.834 0 9.834-5.174 9.834-5.174l-6.752-7.85c.857-1.108 1.387-2.681 1.387-4.457 0-3.433-1.963-6.119-4.469-6.119s-4.471 2.687-4.471 6.119c0 1.776.53 3.349 1.387 4.457l-6.749 7.85m10.278-12.526l1.343-.654-1.343-.657v-2.764c1.25.359 2.236 2.172 2.236 4.295 0 1.181-.306 2.271-.794 3.068l-1.442-1.677v-1.611m-.892-4.076v2.764l-1.341.657 1.341.654v1.611l-1.44 1.677c-.488-.797-.796-1.888-.796-3.068-.001-2.123.988-3.935 2.236-4.295"/><path d="M32,2C15.432,2,2,15.432,2,32s13.432,30,30,30s30-13.432,30-30S48.568,2,32,2z M8.852,16.267h46.296
		C58.208,20.754,60,26.171,60,32s-1.792,11.246-4.852,15.733H8.852C5.792,43.246,4,37.829,4,32S5.792,20.754,8.852,16.267z"/></svg>