<svg xmlns="http://www.w3.org/2000/svg" viewBox="0 0 64 64" enable-background="new 0 0 64 64"><path d="m32 2c-16.568 0-30 13.432-30 30s13.432 30 30 30 30-13.432 30-30-13.432-30-30-30m0 2c11.917 0 22.112 7.486 26.147 18h-52.293c4.034-10.514 14.229-18 26.146-18m15.858 34.092l-1.216-.832-1.283.795.528-1.313-1.214-.834 1.544.02.53-1.31.431 1.323 1.538.029-1.273.797.415 1.325m-4.422-8.057l.908 1.092 1.442-.494-.876 1.178.898 1.098-1.451-.366-.886 1.177-.018-1.406-1.45-.372 1.442-.502-.009-1.405m-4.846-3.169l1.268.714 1.148-.948-.363 1.395 1.26.726-1.493.147-.369 1.4-.557-1.311-1.49.145 1.146-.958-.55-1.31m-3.052 1.394l-1.024-1.032-1.328.634.692-1.282-1.018-1.04 1.456.239.699-1.277.203 1.432 1.45.251-1.327.642.197 1.433m-4.975-.383l-1.351-.621-.992 1.045.151-1.435-1.347-.628 1.444-.267.158-1.434.741 1.271 1.444-.256-.985 1.05.737 1.275m-7.859-1.145l1.18.937 1.244-.728-.511 1.315 1.174.945-1.492-.125-.521 1.313-.409-1.395-1.498-.132 1.238-.738-.405-1.392m-2.247 7.116l-.924-1.166-1.437.383.864-1.109-.914-1.167 1.458.478.876-1.102.03 1.403 1.458.486-1.438.39.027 1.404m-1.753 4.355l-1.308-.777-1.191.844.379-1.33-1.301-.783 1.539-.047.388-1.324.572 1.301 1.542-.037-1.188.85.568 1.303m-12.45 4.797c-.246-.575-.471-1.162-.679-1.756h52.85c-.208.594-.433 1.181-.679 1.756h-51.492"/></svg>