<svg xmlns="http://www.w3.org/2000/svg" viewBox="0 0 64 64" enable-background="new 0 0 64 64"><path d="m12.194 17.031l.193 1.526.727-1.405 1.524.217-1.078-1.059.749-1.394-1.394.748-1.059-1.076.215 1.521-1.403.729z"/><path d="m13.005 46.096l-.745-1.315-.187 1.526-1.544.339 1.425.583-.209 1.524 1.066-1.169 1.416.604-.767-1.303 1.083-1.153z"/><path d="m29.01 31.214l.011-1.511-.923 1.23-1.508-.479.945 1.216-.945 1.216 1.508-.479.923 1.23-.011-1.511 1.513-.456z"/><path d="m20.185 30.746c-.019-.062-.036-.123-.058-.184l2.766-.736-.699-.509-2.217.845c-.146-.316-.332-.605-.544-.876l1.86-1.554-.085-.867-2.043 2.096c-.044-.045-.085-.092-.131-.136l2.132-2.396-.071-.728-.718.057-1.963 2.562c-.053-.034-.112-.058-.166-.09l1.702-2.44-.858.069-1.208 2.173c-.298-.145-.608-.262-.938-.337l.453-2.463-.615-.61-.244 3.013c-.06-.008-.12-.013-.181-.019l.119-3.3-.517-.512-.515.511.12 3.301c-.062.006-.122.011-.182.019l-.245-3.013-.613.61.452 2.462c-.33.076-.642.193-.939.338l-1.208-2.173-.856-.067 1.7 2.438c-.054.032-.113.056-.165.09l-1.964-2.561-.718-.058-.071.728 2.132 2.396c-.045.044-.086.091-.13.136l-2.044-2.098-.085.869 1.86 1.554c-.212.271-.398.56-.543.876l-2.219-.845-.698.508 2.766.737c-.021.061-.039.122-.058.184l-3.057-.666-.586.426.407.604 3.08.433c-.007.064-.016.127-.02.191l-2.818-.266.485.721 2.323-.023c.014.363.076.71.173 1.045l-2.183.783-.212.845 2.524-1.212c.024.061.048.119.074.179l-2.707 1.455-.181.708.695.198 2.591-1.65c.037.054.084.098.123.149l-2.299 1.616.828.236 1.749-1.518c.24.26.504.494.8.689l-1.166 2.006.372.786 1.172-2.587c.057.03.11.064.169.092l-1.156 2.89.312.659.656-.302.946-2.973c.062.017.12.043.183.057l-.736 2.736.781-.36.381-2.322c.173.021.343.053.521.053s.349-.031.522-.053l.381 2.322.781.359-.736-2.735c.063-.014.12-.04.183-.057l.945 2.972.657.303.312-.658-1.156-2.89c.059-.028.112-.062.169-.092l1.171 2.587.373-.787-1.166-2.005c.296-.195.56-.431.8-.689l1.747 1.518.826-.236-2.297-1.615c.039-.052.086-.097.123-.149l2.588 1.649.697-.198-.182-.709-2.706-1.454c.026-.059.051-.118.074-.179l2.524 1.211-.213-.845-2.182-.783c.096-.335.158-.683.172-1.045l2.323.022.483-.718-2.816.266c-.004-.065-.013-.129-.02-.192l3.08-.434.407-.604-.586-.426-3.055.666"/><path d="m32 2c-16.568 0-30 13.432-30 30s13.432 30 30 30 30-13.432 30-30-13.432-30-30-30m.414 31l-19.48 19.48c-5.491-5.115-8.934-12.402-8.934-20.48s3.443-15.365 8.934-20.48l19.48 19.48h27.561c.011.332.025.664.025 1s-.014.668-.025 1h-27.561"/></svg>