<svg xmlns="http://www.w3.org/2000/svg" viewBox="0 0 64 64" enable-background="new 0 0 64 64"><path d="m11.809 32.568v5.149l3.257-4.119 5.109 1.557-3.14-4.131 3.14-4.135-5.109 1.559-3.257-4.121v5.109l-5.024 1.588z"/><path d="m32 2c-16.568 0-30 13.432-30 30s13.432 30 30 30 30-13.432 30-30-13.432-30-30-30m-2.828 30l-17.981 17.98c-4.329-4.995-6.691-11.306-6.691-17.98 0-6.676 2.362-12.988 6.69-17.981l17.982 17.981m-7.988 10.816l1.967-1.967h35.408c-.223.666-.464 1.324-.734 1.967h-36.641m1.966-19.667l-1.967-1.967h36.641c.271.643.512 1.301.734 1.967h-35.408"/></svg>