<svg xmlns="http://www.w3.org/2000/svg" viewBox="0 0 64 64" enable-background="new 0 0 64 64"><path d="m32 2c-16.568 0-30 13.432-30 30s13.432 30 30 30 30-13.432 30-30-13.432-30-30-30m1.375 41.72l-13.689 13.42c-1.213-.597-2.377-1.278-3.484-2.038l15.543-15.234h27.123c-.39 1.328-.874 2.614-1.447 3.853h-24.046zm-28.154-19.895c.428-1.4.963-2.755 1.596-4.054l12.4 12.229-12.4 12.229c-.633-1.299-1.168-2.654-1.597-4.056l8.285-8.173-8.284-8.175m28.154-3.547h24.044c.573 1.239 1.059 2.526 1.448 3.855h-27.123l-15.541-15.236c1.106-.76 2.271-1.44 3.483-2.037l13.689 13.418"/></svg>