<svg xmlns="http://www.w3.org/2000/svg" viewBox="0 0 64 64" enable-background="new 0 0 64 64"><path d="m39.588 42.949l.743.54-.353-1.087c.597-1.123 1.822-1.223 1.822-1.223s-.157-1.822 1.909-2.222c.056-1.239 1.31-2.265 1.31-2.265s-.256-1.922 1.055-2.363c-.797-1.525.271-2.637.255-2.664-.013-.029-1.352-2.409-.155-3.092-.434-.365-.661-.745-.785-1.089l.187-.136h-.236c-.171-.597-.02-1.053-.02-1.053s-1.383-.357-.884-2.009c-1.139-.2-1.367-2.038-1.367-2.038s-1.752.355-1.965-1.167c-1.154.185-1.283-.955-1.297-.955-.015 0-2.293.613-2.75-1.112-.883.457-1.268-.355-1.268-.355s-1.268.626-2.022-.584c-.659.41-1.182.447-1.571.366l-.347-1.067-.263.808c-.11-.082-.17-.148-.17-.148s-1.98 1.31-2.635.297c-1.168 1.183-2.209.67-2.209.67s-.883 1.567-2.307 1.168c-.328 1.454-1.967 1.48-1.967 1.48s.172 1.283-1.793 1.625c-.258 1.509-1.283 1.767-1.283 1.767s.1 1.467-.826 1.938c.048.121.064.245.068.37h-.343l.331.24c-.094.643-.585 1.227-.585 1.227s.913 1.141-.326 2.421c1.196.313.326 2.38.326 2.38s1.653.739.613 2.109c1.183.383.812 1.324.825 1.879.757.343 1.426.172 1.099 1.695 2.322.257 1.226 1.537 1.226 1.537s1.081.045.655.899c.698-.016 1.177.168 1.515.407l-.436 1.342 1-.727c.145.254.185.459.185.459s1.798-.472 2.067.211l.361-2.568 4.87-3.537 4.562 3.316.481 3.554c.166-.166 1.424-1.38 2.698-1.244m-5.371-23.17c0 0 1.803.113 1.892 1.148.086 1.033-.431 1.664-.431 1.664s.18 1.944-1.247 2.731l-1.802-5.546c.891.008 1.582.015 1.588.003m.679 6.976l-.395-1.213c.185.186.343.445.383 1.046.005.056.009.111.012.167m-5.836-6.962c.444-.022 1.208-.027 2.012-.025l-1.874 5.768c-.226.001-.847-.129-1.133-1.594-.354-1.804-.455-3.077-.455-3.077s.176-1.009 1.45-1.072m.096 5.866l-.549 1.69h-.119c.035-.289.202-1.359.668-1.69m-1.988 12.593l1.788-5.502-4.68-3.4h5.784l1.788-5.502 1.787 5.502h5.785l-4.681 3.4 1.788 5.503-4.68-3.399-4.679 3.398"/><path d="m37.186 46.594v-.002z"/><path d="m15.218 33.387c1.468 10.832 10.625 14.266 10.625 14.266l.272-1.285-.002.002c0-.001-8.369-2.43-10.895-12.983"/><path d="m48.939 30.581l-.427-.784-.656.081-.224.866.43.785.655-.082z"/><path d="m45.451 21.493l-.561.348.158.879.282.21c.003 1.468.313 3.597.153 4.09.936-1.066.325-2.657.075-3.92l.207.154.561-.348-.159-.882-.523-.389c.032-.05.063-.102.106-.145-.071 0-.128.038-.179.091l-.12-.088"/><path d="m42.987 18.8l-.461.471.366.817.824.345.461-.471-.191-.428 1.612-1.189-1.948.008.246.978-.083-.185z"/><path d="m40.191 17.993l.885.121.325-.574-.561-.695-.885-.123-.326.574z"/><path d="m37.963 16.499l.623.642.893.042.273-.603-.296-.304.111.035-.171-2.034-.996 1.628-.166-.007z"/><path d="m36.99 16.499l.893-.019.23-.619-.433-.391.503-.123-1.203-1.652-.004 1.577-.42.009-.231.619z"/><path d="m31.105 15.385l.003-.07c.041-.009.079-.013.119-.019l.732.325.345-.122c.729.51.769 1.753-.003 2.578 1.507-.439 1.536-1.733.998-2.583l.401.22.072-.019c.744.433 1.006 1.302.875 2.366 1.078-.584.795-1.812.085-2.566l.646.498.89-.086.183-.634-.709-.545-.89.086-.178.623c-.031-.03-.06-.063-.091-.092l.063-.508-.783-.43-.864.223-.046.362c-.023.012-.047.016-.069.03-.022-.018-.046-.031-.068-.047l.013-.31-.818-.361-.843.296-.025.625c-.011.013-.021.023-.032.037l.021-.534-.818-.363-.843.296-.027.659.818.363.843-.298"/><path d="m28.618 15.884l.737-.507-.148-.643-.883-.134-.737.504.147.644z"/><path d="m25.819 15.618l.201.63.892.061.692-.565-.198-.628-.495-.035-.133-1.369-.995 1.673.235.071z"/><path d="m25.406 16.96l.621-.644-.273-.601-.893.045-.62.645.273.599z"/><path d="m22.65 17.3l.324.574.886-.121.564-.693-.323-.576-.192.026-.179-1.859-.995 1.673.786.239-.308.041z"/><path d="m22.422 18.734l.191-.298.585 1.508.507-1.878-.842-.016.043-.068-.385-.536-.865.215-.486.753.384.536z"/><path d="m21.068 19.758l.029-.053.653 1.688.509-1.881-1.049-.021.276-.522-.427-.503-.847.29-.419.789.428.501z"/><path d="m16.006 24.794l-.049.893.602.277.645-.621.046-.891-.6-.276z"/><path d="m36.473 18.419l1.358-1.394-1.073-.628z"/><path d="m27.11 18.752l.507-1.88-1.244-.025z"/><path d="m25.255 19.311l.509-1.88-1.244-.025z"/><path d="m16.807 23.226l-.166.723.544.375.235-.158c-.055 1.019.002 2.063-.051 2.92.023-.389.762-2.781 1.102-4.468l.371-.195.283-.819c-.045 1.211-1.023 3.028-.212 4.188-.044-.545.532-3.304.333-4.505l.342-.145.637 1.65.51-1.88-.813-.016.303-.689-.463-.468-.821.348-.363.818.463.471.077-.033c.008.073.01.15.008.229l-.49-.423-.014.007c-.014-.085-.035-.155-.072-.192-.129.12-.225.263-.327.402l-.378.199-.292.845.122.105c-.011.036-.02.073-.029.109l-.063-.043-.373.25.087-.085-1.877-.806.989 1.677.398-.391"/><path d="m15.363 27.112l.014.371.623.219.324-.371.356.976.543-1.869-.66-.026-.01-.277-.622-.221-.586.674.006.168-1.455-.919.713 1.811z"/><path d="m16.147 28.783l.062-.09-.137-.885-.642-.146-.508.737.139.883.351.081-.238-.017-.403.639.251.688.657.048.403-.638-.068-.187 1.393.293z"/><path d="m38.632 19.361l1.359-1.397-1.075-.628z"/><path d="m41.828 20.955l.371-1.858.194.06.414-.512-.438-.78-.852-.267-.417.512.437.78.517.161-1.089.053z"/><path d="m48.651 29.437l.147-.575-.428-.784-.469.059c-.014-.044-.03-.087-.045-.131l.446-.097.147-.881-.497-.744-.646.139-.015.088c-.04-.107-.076-.216-.112-.324l.129.113.588-.3-.082-.889-.671-.591-.185.093c0-.006.001-.013.001-.02l.257-.131-.083-.889-.67-.592-.59.298.085.891.67.591.04-.021c-.003.008-.007.016-.011.024l-.104.052.017.176c-.224.789.153 1.531.596 2.275l-.006.038.268.4c.097.162.189.325.276.489l-.216.832.181.33-.653-.478-.735 1.802 1.583-.972.056.102.654-.081.033-.127 1.938.404-1.302-1.448-.592.879"/><path d="m43.108 16.263l-1.947.006.304 1.208z"/><path d="m30.123 17.874l.643-1.838-1.24-.115z"/><path d="m44.344 23.569l.365-1.836.104.063.523-.401-.241-.861-.767-.461-.524.4.242.862.55.331-1.115.051z"/><path d="m48.586 31.95l-.002-.018c-.116.737-.496 1.969-.792 3.237-2.913 9.226-10.602 11.423-10.606 11.424l.274 1.261c0 0 7.407-2.727 10.014-10.949-.114.958-.076 1.808.294 2.317-.34-.946.609-2.846.934-3.812-.028.589.043 1.157.423 1.683-.658-1.827 1.07-3.205-.539-5.143m.286 1.868c-.065-.592-.238-1.15-.286-1.866.317.612.34 1.243.286 1.866"/><path d="m15.589 39.389c1.183-1.625-.703-5.305-.997-7.152-.161 2.534 1.233 4.702.997 7.152"/><path d="m14.59 32.255l.002-.004h-.002c-2.13 2.57.978 4.104.141 6.432 1.226-1.687-.956-4.251-.141-6.428"/><path d="m32 2c-16.568 0-30 13.432-30 30s13.432 30 30 30 30-13.432 30-30-13.432-30-30-30m19.075 32.385c.326 2.622-.999 3.293-.999 3.293s.342 1.693-1.139 2.18c-.029 1.993-1.909 2.235-1.909 2.235s.499.866-1.367 1.778c-.073 1.333-2.022 1.44-2.022 1.44s-.187 2.45-2.664 1.796c-.601 1.967-3.505 1.381-3.561 1.354l-.016-.118.033.562c0 0-.266.932-1.009 1.009-.543 1.134-3.479 1.462-3.77 1.45-.266-.014-1.198-.405-1.766-.354-.568.05-1.55.428-1.991.365-.441-.062-1.438-.403-1.615-1.122-1.235-.392-1.437-1.337-1.437-1.337l.005-.037c-.01.048-.017.08-.017.08s-1.554 0-2.708-1.239c-2.706-.071-2.106-1.853-2.15-1.853-.043 0-.897.328-1.339-1.152-1.81.368-1.752-1.154-1.768-1.17-.013-.014-.811-.369-.513-1.124-1.865.171-1.723-1.653-1.723-1.653-.409-.166-.561-.545-.499-.926-.242-.084-1.894-.113-1.039-2.293-1.581-.955-.6-2.051-.6-2.051s-2.178-1.126-.497-2.422c-1.254-1.852.1-2.778.1-2.778s-1.738-1.767.029-3.021c-.287-2.677 1.31-3.319 1.31-3.319s-.841-2.18 1.438-3.09c.143-2.208 1.738-2.266 1.738-2.266s.042-1.751 2.551-1.581c.483-1.567 2.193-1.254 2.193-1.254s.525-1.894 2.848-.981c1.184-2.309 2.935-1.125 2.935-1.125s1.112-.728 1.667-.5c.705-1.212 2.207-.048 3.179.188.352-.138 1.607-1.085 2.575.112 1.283-.841 2.38.668 2.38.668s1.767-.897 2.593 1.154c3.745-.342 3.205 2.109 3.205 2.109s2.948-.67 2.307 2.264c2.68.187 2.408 1.952 2.408 1.952s1.696 1.283.955 2.437c1.51.071.954 1.523.954 1.523s1.152.442.2 2.238c2.207 1.765.426 3.518.413 3.503-.013-.014 1.183 1.425.102 3.076"/></svg>