<svg xmlns="http://www.w3.org/2000/svg" viewBox="0 0 64 64" enable-background="new 0 0 64 64"><path d="m58.312 36.333l-1.302-.626c-1.514-.713-1.977-.863-1.977-.6 0 .763 1.402 4.014 1.627 3.764.05-.051.175-.351.288-.662.113-.313.463-.864.787-1.227l.577-.649"/><path d="m54.734 35.759c-.176-.851-.264-1.039-.488-1.103-.501-.139-.551-.075-.876 1.012-.188.615-.476 1.527-.638 2.053l-.301.963 1.276.264c.688.136 1.552.299 1.913.338l.651.074-.651-1.289c-.423-.838-.736-1.663-.886-2.312"/><path d="m38.135 27.554l-.177-.764c-.087-.424-.187-.962-.212-1.199l-.038-.413-.749.787c-2.003 2.113-5.568 6.703-5.568 7.177 0 .188 3.729 1.901 4.255 1.965l.399.037 1.051-3.79 1.039-3.8"/><path d="m43.725 27.541l-.438-.338-.187.651c-.1.363-.227.813-.276 1l-.074.35h1.139c.624 0 1.139-.05 1.139-.111 0-.052-.188-.352-.427-.663-.238-.302-.624-.701-.876-.889"/><path d="m39.859 33.431l-.023-1.101h-.401-.413v-1.275c0-1.039-.05-1.414-.274-1.938-.149-.363-.3-.665-.35-.665-.038 0-.501 1.552-1.015 3.44l-.937 3.428.374.137c.214.074.951.463 1.639.876.701.413 1.363.749 1.477.749.399 0 .449-.512.2-1.575-.139-.538-.263-1.477-.277-2.076"/><path d="m51.719 13.459c.487-.137.438-.15-2.189-.688-1.212-.25-2.227-.449-2.276-.449-.063 0-.388 1.112-.662 2.263l-.089.338 2.426-.674c1.326-.377 2.59-.727 2.79-.79"/><path d="m41.486 26.578c-.575 0-1.476.488-1.802.976-.312.461-.5 1.362-.325 1.539.075.075.514.111.987.086l.853-.037.35-1.189c.188-.651.35-1.225.35-1.289-.001-.049-.186-.086-.413-.086"/><path d="m48.58 35.519c-1.027-2.112-1.415-4.389-1.177-6.778.075-.737.188-1.588.249-1.863.102-.424.063-.688-.188-1.425-.375-1.114-.686-2.552-.699-3.276-.014-1.051-.15-1.089-.576-.138-.799 1.79-.974 2.564-.974 4.416 0 1.012.062 1.899.161 2.212.139.476.199.538.524.538h.376v1.563c0 1.3-.024 1.563-.188 1.563-.264 0-.238.137.138 1.025.6 1.439 1.688 2.889 2.728 3.627l.35.263-.087-.3c-.051-.164-.325-.813-.637-1.427"/><path d="m45.715 13.347l.025-.149c-.039 0-4.092 2.963-4.191 3.05-.024.038.325-.05.801-.175.475-.138 1.301-.375 1.827-.513l.976-.263.25-.899c.149-.49.286-.964.312-1.051"/><path d="m51.48 34.468c-.662.163-1.25.626-1.652 1.302-.311.538-.311.588-.16 1.201.138.549.237.676.65.887.274.139.538.202.586.139.052-.05.34-.838.626-1.727.302-.9.564-1.699.602-1.788.063-.175.024-.175-.652-.014"/><path d="m24.523 34.262l.325-.34-.325-.34-1.279.34z"/><path d="m25.591 33.26l-.342-1.277-.34 1.277.34.326z"/><path d="m17.697 33.922l.326.34 1.278-.34-1.278-.34z"/><path d="m15.291 33.922l1.279.34.325-.34-.325-.34z"/><path d="m16.956 33.26l.34.326.342-.326-.342-1.277z"/><path d="m17.16 34.235l-1.237 2.879h.788l.449.663h.235l.423-.663h.853l-1.276-2.879z"/><path d="m11.344 33.922l-1.279-.34-.325.34.325.34z"/><path d="m8.938 33.922l-.327-.34-1.277.34 1.277.34z"/><path d="m9.68 33.26l-.341-1.277-.342 1.277.342.326z"/><path d="m9.203 34.235l-1.239 2.879h.788l.451.663h.235l.421-.663h.856l-1.277-2.879z"/><path d="m6.088 26.726l-.326.34.326.342 1.277-.342z"/><path d="m5.02 26.405l.339.325.34-.325-.34-1.279z"/><path d="m15.324 27.066l-1.279-.34-.327.34.327.342z"/><path d="m12.915 27.066l-.324-.34-1.279.34 1.279.342z"/><path d="m13.658 26.405l-.34-1.279-.341 1.279.341.325z"/><path d="m13.183 27.379l-1.24 2.879h.787l.453.664h.233l.423-.664h.852l-1.275-2.879z"/><path d="m21.677 27.066l.327.342 1.276-.342-1.276-.34z"/><path d="m20.874 27.066l-.324-.34-1.279.34 1.279.342z"/><path d="m21.617 26.405l-.342-1.279-.339 1.279.339.325z"/><path d="m21.139 30.922h.234l.425-.664h.852l-1.277-2.879h-.234l-1.237 2.879h.787z"/><path d="m13.718 41.328l.327.34 1.279-.34-1.279-.34z"/><path d="m11.312 41.328l1.279.34.324-.34-.324-.34z"/><path d="m12.977 40.668l.341.324.34-.324-.34-1.279z"/><path d="m21.677 41.328l.327.34 1.276-.34-1.276-.34z"/><path d="m19.271 41.328l1.279.34.324-.34-.324-.34z"/><path d="m20.936 40.668l.339.324.342-.324-.342-1.279z"/><path d="m16.527 21.752l-.604 1.412h.788l.449.664h.235l.423-.664h.853l-.626-1.412h4.872l-7.253-5.873.006 5.873z"/><path d="m25.879 34.146v-.451l-.229.227z"/><path d="m25.113 34.235l-1.237 2.879h.787l.45.663h.235l.423-.663h.108v-1.694-.011l-.531-1.174z"/><path d="m32 2c-16.568 0-30 13.432-30 30s13.432 30 30 30 30-13.432 30-30-13.432-30-30-30m-28 30c0-.585.023-1.166.06-1.742h.712l.452.665h.234l.422-.665h.854l-1.276-2.879h-.234l-1.147 2.667c.063-.914.169-1.814.318-2.702l.239.064.324-.342-.324-.34-.136.036c.33-1.731.819-3.406 1.453-5.01h2.62l-.607 1.412h.788l.451.665h.234l.422-.665h.855l-.627-1.412h1.494l-.008-5.94-4.676 3.801c3.578-7.221 10.177-12.69 18.139-14.735l-5.928 4.815h6.779v4.02h-6.76l6.76 5.458-.01 2.582h-1.29-.004l-.604 1.412h.787l.45.665h.234l.424-.665h.003l.002 18.681h-20.088c-1.154-3.066-1.791-6.382-1.791-9.846m9.775 21.23c.742-.648 2.65-.606 3.532-.389 1.103.275 2.495.23 2.927.083-1.753.553-2.424.466-3.359.342-.807-.112-2.27-.062-2.658.346-.151-.124-.294-.255-.442-.382m9.672 5.429c-.289-.093-.576-.189-.86-.292.003-.022.012-.035.012-.061 0-.54-.419-.93-1.749-.715-.053.008-.097.011-.148.019-1.358-.602-2.659-1.308-3.894-2.108.665-.062 1.298-.043 1.915.02 1.033.105 2.374-.063 2.374-.463 0-.423-.767-.551-2.229-.361-.984.128-2.027.222-2.934.213-.265-.186-.527-.371-.785-.565.934.142 2.346.107 3.6-.134 2.086-.398 3.117.204 3.117.943 0 .662-1.331 1.463-2.372 1.086.693.42 2.873.561 3.669.314.326-.1.39-.014.479.211.241.589.151 1.353-.195 1.893m-1.017-7.83c-.259.021-.686.187-.914.448-.229.261-.475.158-.572.036-.155-.204.121-.394.392-.501-.211.084-.519.151-.64.076-.119-.072-.147-.267.085-.373-.284-.098-.163-.38.032-.439.294-.092.611.192 1.354.154.183-.01.432-.043.432-.415 0-.538-.419-.928-1.749-.715-1.122.177-1.919.159-2.537.063-.041.417.012.67.217.856.219.188.489.361.276.569-.544.531-2.203.201-2.938.195-.197 0-.501.065-.747.24-.451.316-.86.123-.851-.029.01-.147.292-.246.469-.211-.208-.199-.746.39-.884-.107-.073-.262.296-.279.632-.279-.436-.007-.638-.136-.403-.402.308-.352.787.324 1.832.285.469-.017 1.07.035 1.214-.072.415-.307.035-.307-.592-.413-.603-.104-.714-.024-1.403-.72-1.037.561-3.709.645-4.091.635-.147.117-.297.219-.448.313-1.266-1.501-2.377-3.135-3.309-4.88.086.022.172.046.286.085.205-.18.553-.289 1.137-.289s.928.109 1.139.289c.598-.211.8-.197.653.262-.065.197-.213.467-.368.609v.013c0 .187-.033.304-.079.397.659.922 3.173 1.391 5.358.755 1.212-.352 2.277-.338 3.311-.234 1.033.108 2.374-.062 2.374-.463 0-.423-.767-.55-2.229-.36-2.512.326-5.424.443-5.398-.842.022-1.287 2.736-1.287 3.839-1.014 1.103.274 2.495.232 2.927.086-1.753.549-2.424.463-3.359.338-.935-.129-2.76-.044-2.76.568 0 .609 2.543.778 4.633.379 2.086-.401 3.117.203 3.117.941 0 .664-1.331 1.465-2.372 1.086.693.422 2.873.562 3.669.315.326-.1.39-.013.479.212.399.982-.1 2.459-1.214 2.553m16.923 8.185c-.225.034-.445.09-.667.174-1.469.361-2.982.603-4.53.721-.267-.116-.536-.252-.816-.429-.681-.438-1.327-.93-1.45-1.093-.248-.383-1.575-.383-2.345 0-.556.246-.586.217-.216-.274.185-.3.647-.655 1.019-.82.956-.409 1.018-.38 2.714.794 2.035 1.447 2.591 1.529 4.225.71 1.568-.79 2.686-.887 3.727-.292-.548.184-1.101.356-1.661.509m-7.188-7.899c.864-.574 1.512-.519 3.271.275 1.942.873 2.775.847 4.502-.029 1.512-.791 3.207-.791 4.072 0 .401.355.309.355-.709.165-1.327-.274-2.005-.083-3.701.928-1.419.876-2.314.793-4.442-.437-1.11-.627-1.665-.766-2.499-.656-.987.137-1.049.11-.494-.246m12.222 5.987c-.274-.15-.586-.329-.901-.52-1.727-1.066-2.405-1.146-3.763-.52-.524.219-1.172.355-1.45.246-.401-.137-.185-.326.864-.82 1.85-.873 2.775-.845 4.164.139 1.078.76 1.86.953 2.744.58-.541.315-1.094.615-1.658.895m2.631-1.489c.057-.043.109-.077.168-.125.442-.357.782-.597 1.107-.738-.416.299-.842.587-1.275.863m3.371-2.525c-.383-.066-.738-.194-1.105-.387-1.232-.656-1.11-.875.31-.547.5.121 1.075.14 1.75.062-.313.298-.63.589-.955.872m7.934-13.592c.184.01.408.014.646.016-.994 3.563-2.675 6.84-4.893 9.681-.271-.146-.552-.302-.859-.483-3.069-1.778-3.23-1.592-4.007-.697-.05.054-.146.158-.265.277-.436.434-1.26 1.155-1.955 1.155-.799 0-2.686-.956-2.898-1.065-1.846-.955-2.654-.928-2.971-.826-.131.043-.298.127-.445.415-.341.626-.828 1.354-1.68 1.577-1.06.275-2.228-.287-4.143-1.494-1.755-1.109-2.45-1.013-3.779-.139-1.471.978-1.855 1.031-3.43.482-.856-.31-1.443-.662-1.764-1.045v-2.344c.398-.096.92.095 1.103.443.121.097.459.299.979.486.459.16.777.266.918.246.165-.023.513-.248.953-.54 2.015-1.323 3.449-1.294 5.687.119.614.386 2.243 1.415 2.76 1.279.146-.038.336-.272.566-.697.325-.628.82-1.06 1.466-1.266 1.057-.338 2.426-.04 4.315.938.251.128.489.241.716.344-2.097-1.317-3.134-2.257-6.821-6.111-1.251-1.3-1.577-1.563-2.428-1.989-.862-.425-1.112-.486-1.863-.486-.7 0-.889-.039-1.039-.238-.313-.438-.188-.951.413-1.602l.313-.336-1.639-.814c-1.125-.576-1.776-.824-2.103-.824-.588 0-.912-.301-.912-.826 0-.764 1-1.1 1.477-.501l.236.302.225-.391c.715-1.236 4.016-5.375 5.704-7.152.825-.875.864-.925.864-1.525 0-1.2.763-3.564 1.576-4.939.375-.626.413-.738.287-1.026-.236-.526 0-.826 1.526-1.913 3.026-2.165 4.792-3.49 4.84-3.64.089-.276-1.226-.175-2.237.175-2.026.712-3.853.876-4.729.424-.401-.2-1.014-.9-1.014-1.162 0-.039.412-.039.926 0 .512.036 1.075.036 1.264-.014l.35-.088-.525-.261c-.551-.276-.887-.751-.887-1.289 0-.175.012-.313.036-.313.012 0 .25.088.526.188.888.313 2.239.238 3.965-.238.851-.236 1.926-.463 2.377-.513l.824-.086-.062-.426c-.028-.17-.003-.322.044-.458.463.291.915.595 1.358.912-.196.221-.405.749-.602 1.499-.175.651-.302 1.187-.302 1.2.014 0 1.327.276 2.904.587.936.191 1.68.331 2.229.417.406.435.803.879 1.182 1.339-.16.087-.355.184-.597.295-.449.213-1.15.638-1.563.951-1.025.776-2.877 2.702-3.666 3.828-.649.924-.649.924-.649 1.888 0 1.05.25 2.65.574 3.751l.202.689.35-.939c.487-1.338 1.113-2.539 1.926-3.664.563-.774.664-.987.501-1.051-.263-.1-.426-.549-.288-.799.062-.113.288-.313.514-.452.225-.136 1.727-1.463 3.326-2.963l.323-.303c.082.111.16.225.24.338-.57.534-1.155 1.077-1.526 1.416l-1.037.976 1.362-.488c.737-.274 1.477-.538 1.626-.599.039-.015.141-.116.278-.268 2.83 4.37 4.478 9.571 4.478 15.154 0 1.72-.164 3.4-.463 5.035-.417-.256-.766-.453-.801-.453-.025 0-.274.25-.549.55-.565.601-.951 1.302-1.064 1.901l-.075.388 1.275.075"/></svg>