<svg xmlns="http://www.w3.org/2000/svg" viewBox="0 0 64 64" enable-background="new 0 0 64 64"><path d="m13.682 27.685h-2.086-.257c.272.125.549.238.553.557 0 .117-.034.284-.104.5l-1.615 5.064-1.619-5.064c-.069-.216-.102-.383-.102-.5-.004-.311.263-.419.555-.557h-.261-2.165-.259c.249.105.438.179.531.361.045.082.139.311.264.695l2.112 6.455c.091.274.135.451.135.529 0 .337-.227.461-.54.59h2.616c-.638-.175-.542-.582-.542-.582.014-.084.047-.263.135-.537l2.112-6.455c.125-.385.221-.613.264-.695.1-.19.294-.266.532-.361h-.259"/><path d="m55.229 28.048c.04-.069.223-.277.481-.363h-.259-1.901-.26c.26.105.44.3.482.367.042.066.063.163.063.29v7.31c0 .13-.021.23-.063.298-.042.066-.223.247-.482.366h.26 1.901.259c-.259-.125-.438-.296-.479-.365-.044-.068-.065-.169-.065-.299v-7.31c0-.127.022-.226.063-.294"/><path d="m32 2c-16.568 0-30 13.432-30 30s13.432 30 30 30 30-13.432 30-30-13.432-30-30-30m0 2c9.937 0 18.675 5.207 23.646 13.032-.583.157-1.341.529-2.179.762 0 0-3.5 1.102-5.595 1.53-.218.02-.429.079-.429.079-.008.002-.016.006-.023.006-5.7 1.451-7.256 2.375-7.256 2.375-1.075.651-.813 2.223-.107 2.747.288.213.27.584.06.785-.251.24-.57.021-.57.021-.495-.246-.874-.253-1.125-.205v-1.188c0 0-1.354.701-3.214.693-.236-.277-.453-.447-.453-.447s.628-.071.786-.273c-.999-.481-1.569-1.492-1.569-1.492.282.087.722-.008.722-.008-1.099-1.54-.587-1.92-.991-2.942-.402-1.018-1.092-1.221-1.264-1.315-.171-.094-1.313-.188-1.743.027-.431.217-.457.533-.507.533-.049 0-.398-.056-.532.308-.02.054-.033.1-.039.145-.173.002-.364.015-.579.04-1.055.127-.907 1.444-.907 1.444.083-.06.28-.467.651-.407.367.058.503-.034.735-.029.735.018.807.665.805.92-.036.018-.082.06-.146.152-.256.37-.298.624-.298.624-.242 1.148-.914 1.231-.914 1.231.344.188.511.132.545.117-.35.177-.841.805-.841.805-.336.509-.592.424-.592.424.066.066.132.103.196.138-1.659-.079-2.831-.687-2.831-.687v1.172c-.245-.021-.574.016-.987.221 0 0-.319.219-.57-.021-.21-.201-.229-.572.06-.785.705-.524.968-2.096-.107-2.747 0 0-1.556-.924-7.256-2.375-.008 0-.016-.004-.023-.006 0 0-.211-.06-.428-.079-2.098-.429-5.595-1.53-5.595-1.53-.838-.232-1.596-.604-2.18-.762 4.969-7.826 13.707-13.033 23.644-13.033m2.428 32.645c-.353.29-.689.541-.999.75v-8.629h.999v7.879m-4.993-7.879h.998v8.631c-.31-.21-.646-.462-.998-.75v-7.881m1.997 0h.999v9.246c-.304.167-.5.259-.5.259s-.195-.091-.499-.258v-9.247m-.589 8.901c-.001-.001-.003-.002-.005-.003.002.001.004.002.005.003m1.157 22.333c-15.439 0-28-12.561-28-28 0-4.973 1.309-9.643 3.591-13.694.164.149.325.235.325.235-.376 1.075.814 1.463.814 1.463-.592 1.124 1.959 1.821 1.959 1.821-.225.521.211.906.211.906.753.68 2.28 1.003 2.28 1.003-.041.059-.065.149-.065.149-.117.34.115.596.115.596.483.553 2.16.81 2.16.81-.161.01-.171.172-.171.172-.052.282.109.443.109.443.367.586 1.837.822 1.837.822-.333.366.225.716.225.716.67.511 2.303.519 2.303.519s-.401.294-.223.86c.211.665.984.461.984.461-.197.058-.42.54-.054 1.025.369.486 1.085.344 1.085.344s0 .341.413.565c.411.227.901-.058.901-.058.054.169.147.465.712.564.565.1.848-.24.848-.24.619.603 1.343.139 1.499.025-.253-.834-.416-1.74-.418-2.743h.797.201v4.219c-.161-.324-.311-.664-.438-1.021-.005.023-.189.932-1.531 2.077 0 0-1.051.927-1.024 1.993.027 1.085-.188 1.208-.601 1.577 0 0 .104.007.255-.006-.251.346-.76.926-1.338.938 0 0-.147-.017-.352-.028.068-.043.146-.085.25-.125.604-.234.652-1.104.531-1.685 0 0-.316.552-.699.736 0 0-.626.324-.654.948 0 0-.001.051-.007.12-.043.002-.085.002-.127.006-.035-.294-.01-.762.305-1.153.539-.672.691-1.216.261-2.28 0 0-.04.646-.463 1.013-.424.369-.478.397-.471 1.275 0 0 .006.306-.155.403 0 0-.328-.48-.417-.801-.086-.317-.126-.451.25-.82 0 0 1.206-.779.336-2.485 0 0-.026.588-.443.936-.419.346-.384.58-.403 1.181-.021.604-.062.56-.107.646 0 0-.769-1.409-.175-2.158.592-.751.92-.909.267-2.303 0 0 .031.716-.491 1.069s-.401 1.184-.401 1.184.032.311-.075.537c0 0-.737-1.44-.032-2.216.599-.659.64-1.12.314-2.054 0 0-.038.433-.368.667-.329.232-.592.465-.532 1.365 0 0 .028.63-.052.807 0 0-.31-.572-.398-.949-.086-.374-.12-.593.108-.97.229-.374 1.137-1.451.054-3.002 0 0-.033.502-.31.955s-.147.993-.088 1.402c.062.41-.141.808-.141.808s-.471-.864-.37-1.853c.102-.993-.302-1.808-1.216-2.394 0 0-.667 1.542.241 2.328 0 0 .772.765.969 1.691 0 0-.584-.056-1.116-1.089-.532-1.035-1.635-.872-1.707-.879 0 0 .181 1.6 1.874 2.055 0 0 1.083.183 1.285.976 0 0 .181.546.255.835 0 0-.344-.134-.658-.601-.317-.469-.276-.524-1.345-.632 0 0-.43-.048-.658-.354 0 0 .449 1.694 1.605 1.679 0 0 1.056-.113 1.647 1.275 0 0-.113-.073-.269-.179-.156-.105-.546-.304-1.317-.211-.772.092-.989-.037-1.184-.101 0 0 .78 1.431 1.882 1.005 1.103-.425 1.635 1.125 1.648 1.154 0 0-.15-.113-.344-.304-.194-.192-.6-.427-1.363-.185 0 0-.552.212-1.11.043 0 0 .537 1.038 1.794.863 1.258-.176 1.574.928 1.574.928s-.169-.1-.284-.189c-.113-.095-.537-.334-1.444-.065-.906.269-1.236-.042-1.236-.042s.505.92 1.471 1.025c0 0 .538-.006.767-.091.23-.086.835-.221 1.25.383 0 0-.113.021-.288-.058 0 0-.646-.234-1.137.177 0 0-.436.445-1.055.36 0 0 .799.78 2.07.121 0 0 .114-.08.267-.128-.136.174-.251.397-.314.758-.115.661.225.801.306.83 0 0 .063.473.528.35 0 0 .026.489.853.255.078-.022.147-.04.217-.058.421.749 1.375 2.419 1.438 2.284.054-.113.157-.113.157-.113.969.021 1.049-.169 1.049-.169l-1.732-2.41c.086-.117.151-.275.198-.516.161-.821.31-.808.457-.906.196-.132.566-.259.841-.417.221-.124.987-.517 1.383-.632.014.091.031.183.062.275 0 0 .063-.238.394-.342 0 0 .602-.123.834-.991 0 0 .153-.576 1.095-1.085 0 0 .692-.267.943-.646-.291-.306-.571-.648-.844-1.009v-5.811h.999v6.991c0 0 .018.018.043.042-.395.448-.516.757-.502.962-3.868 3.558-1.988 3.868-1.988 3.868 0 .916.816.701.816.701-.09.972.663.84.663.84-.008 1.094.799.906.799.906.142 1.17 1.029.697 1.031.697-.046 1.002.555 1.058.555 1.058.701.073.989-.65 1.068-.906.006.171.013.336.024.493.062.784.482 1.424 1.055 1.424.574 0 .995-.64 1.057-1.424.012-.157.019-.322.022-.493.079.256.369.979 1.07.906 0 0 .599-.056.555-1.058 0 0 .888.473 1.031-.697 0 0 .807.188.797-.906 0 0 .753.132.663-.84 0 0 .816.215.816-.701 0 0 1.882-.311-1.988-3.868.014-.207-.107-.519-.511-.976-.021-.024-.046-.039-.067-.061-.006.006-.013.012-.019.018v-6.977h.998v5.816c-.245.326-.498.637-.76.918.191.427 1 .731 1 .731.941.509 1.093 1.087 1.093 1.087.234.866.834.989.834.989.332.104.396.342.396.342.028-.093.048-.185.06-.275.397.115 1.164.508 1.383.632.274.158.645.285.843.417.146.099.296.085.457.906.063.325.158.508.298.626l-.849-.003-.409.777-.26-.065-2.8 3.278 1.456.11.255 1.513.987-1.156-.25 1.053 1.335-.624.901 1.21 1.014-4.277-.363-.361.148-.28-.367-.628.059-.235c.056.014.109.027.17.045.826.234.853-.255.853-.255.467.123.528-.35.528-.35.081-.029.423-.169.306-.83-.059-.333-.16-.553-.282-.722l3.799-4.486.487.785 1.848-3.976-3.561 2.353.788.423-3.811 4.461c-.018-.013-.038-.023-.058-.035l3.36-6.458.642.649.953-4.31-2.968 3.136.856.223-2.75 5.243.854-3.68.78.451-.141-4.423-2.096 3.838.884-.016-1.218 5.175c-.448-.014-.87.035-.87.035-.58-.013-1.089-.593-1.34-.938.151.013.255.006.255.006-.413-.369-.628-.492-.599-1.577.024-1.066-1.024-1.993-1.024-1.993-1.361-1.154-1.532-2.076-1.532-2.076s-.101.121-.256.312c-.097.243-.21.47-.322.697v-4.201h.34.659c-.001.6-.071 1.157-.168 1.695l-.146 1.022c0 0 .834.68 1.532 0 0 0 .282.34.848.24.564-.1.658-.396.712-.564 0 0 .49.284.901.058.413-.225.413-.565.413-.565s.716.143 1.085-.344c.366-.485.142-.968-.054-1.025 0 0 .775.204.985-.461.179-.566-.226-.86-.226-.86s1.635-.008 2.305-.519c0 0 .556-.35.224-.716 0 0 1.471-.236 1.838-.822 0 0 .161-.161.107-.443 0 0-.008-.162-.171-.172 0 0 1.677-.257 2.16-.81 0 0 .234-.256.117-.596 0 0-.024-.091-.065-.149 0 0 1.527-.323 2.28-1.003 0 0 .434-.386.209-.906 0 0 2.551-.697 1.959-1.821 0 0 1.193-.388.816-1.463 0 0 .161-.086.324-.236 2.285 4.051 3.594 8.721 3.594 13.694 0 15.439-12.561 28-28 28"/></svg>