<svg xmlns="http://www.w3.org/2000/svg" viewBox="0 0 64 64" enable-background="new 0 0 64 64"><path d="m33.158 18.172l.444-.145.291-.159-.051-.349.115-.611-.514-.966-.71-.446.154 1.152-.058.914h-.002l-.33.366.2.073z"/><path d="m34.98 16.255l.283 1.15-.388.624.074.237.498-.025.34-.109-.085-.121-.009-.441.035-.594-.265-.537-.629-.449.145.265z"/><path d="m16.618 32.856l-.283.05-.026.112.161.337.321-.181-.002.002.011-.008-.14-.319z"/><path d="m30.34 17.868l.292.159.444.145.461-.171.201-.073-.334-.366-.057-.914.153-1.152-.711.446h.002l-.514.966.118.611z"/><path d="m26.806 38.157l-.991.843-.614-.42.388-.502-.127.012-1.573.681-1.041-.33.338-.357-.105-.08-1.434.024-1.084-.755.792-.167.177-.185-1.613.009-.795-.91.88-.223.311-.15-1.753-.13-.871-1.139.019-.177 1.328.183.745-.056-2.389-.534-.442-.396-.061.165.021.837.522 1.664.991 1.784.259 1.344.016.412.459.488.069.416-.031.196.465.63.39.991.069.541.728.045 1.494-.01 1.1-.371.29-.228-.626-.159-.025-.213.58-.327-.034-.273-.248-.407.916-.221.309-.157-.186-.268.027-.238.987-.245 1.108-.91.002-.002.302-.675-.029-.036z"/><path d="m31.979 5.412c-14.662 0-26.55 11.886-26.55 26.55 0 14.661 11.888 26.55 26.55 26.55 14.664 0 26.55-11.889 26.55-26.55-.001-14.664-11.886-26.55-26.55-26.55m5.314 41.989l-.623.062.045.243.184.738-.587.211-.687-.211.037.098.052.438-.123.475-.352-.115-.587-.209-.387-.185.088.28-.034.649-.36.543-.377-.123-.43-.499-.212.693-.823 1.139-.824-1.139-.211-.693-.431.499-.376.123-.359-.543-.037-.649.089-.28-.386.185-.588.209-.352.115-.123-.475.054-.438.034-.098-.684.211-.587-.211.184-.738.042-.243-.622-.062-.623-.413.086-.377.974-.641.764-.701.202-.317.175-.851.501-.657-.211-.509.324-1.113.64-.792.146-.293 2.082 2.079 2.234-2.234.226.448.64.792.326 1.113-.211.509.499.657.177.851.201.317.763.701.974.641.089.377-.625.413m8.857-16.134l2.116-.92.302.134-1.127 1.627-2.186.609-.091.07 1.055-.056 1.473-.388-.845 1.45-2.388.534.745.056 1.326-.183.021.177-.87 1.139-1.754.131.312.151.88.221-.795.912-1.613-.011.176.186.794.167-1.085.755-1.434-.024-.105.08.338.357-1.041.33-1.574-.682-.125-.012.388.502-.615.421-.989-.837-.011.018 1.436 1.598.987.246.027.238-.187.267.309.157.917.221-.248.407-.034.273.58.326-.025.213-.24.063.075.19 1.087.833.365.227.076-.213-.493-.783.102-1.063.163-.354.292-.43.24-.202.707-.847 1.161-.392.27.002.217-.097.175-.297-.052-.069h-.371l-.021-.206.155-.551.167-.083.222.145.113-.037-.008-.336.14-.127.618.176.083.184-.14.25.057.06.279.048.055.15-.147.472-.19.165-.219-.134-.074.046-.008.447.139.083.07.119 1.074 1.697.07.446.125.42.012.21.183.34-.137.595-1.129.628-2.747.957-1.627-.131-1.029-.688-.726-.282-.771-.248-.1.328-.951-.564-1.1-.601-.298.415-1.083-1.068-1.534-1.692 1.445-1.445h-7.866l1.609 1.608-1.4 1.545-1.083 1.067-.3-.415-1.101.6-.95.566-.133-.485-.747.388-.688.574-.447.425-.344.581-.256.285-.221.229-.018.23-.123.184.096.222.53.362.413.238-.221.167-.486.125-.086.477-.034.3-.45-.177-.361-.071-.396.071.044-.45-.044-.733-.265-.123-.528.018-.378-.31-.044-.282-.509-.213-.299-.555.086-.214-.422-.503.037-.574.422-.467.246-.125-.115-.201-.634-1.271v-.849l-.088-.168-.413-.476.071-.451-.054-.16-1.189-2.206-.509-2.791-.731-.662-.079-.346.336-.16-.12-.467-.348.206-.144-.044-.244-.576.05-.185.459-.121-.182-.328-.062-.304.587-.252.144.085.042.376.178.067.242-.144.156.094.061.258 1.393.358 1.055.056-.09-.07-2.186-.609-1.127-1.627.301-.136 2.117.922.866.181-.105-.101-2.474-1.173-1.116-1.587.125-.37 1.367.966 1.141.447.211.021-1.638-.983-1.099-2.082.209-.38 1.181 1.23 1.231.87.131-.028-2.092-2.503-.351-2.011.211-.141 1.4 2.282.57.601.071-.07-1.162-1.961-.39-2.063.281-1.29.211-.111.739 2.333.851 1.621.081-.06-.891-3.503.331-2.652.373-.544.263 2.415.728 2.176.056-.137-.336-1.592.169-2.795.782-1.433.609 4.534.267.077.886 2.46.864 1.264.194-.42.227-.023 1.195 1.855 1.148 1.936-.818 1.275-.467.809.83.49.956.068.329.479.376.272.132.017-.627-2.475 1.854-2.18.275.129.052-.077.328-.987-.445.042.01-.362.064-.926-.049-.296-.437.296-.177-.355-.386-.826-.63.204-1.152-.44-.353-.428-1.185.261-1.32-.599.135-1.12h.227l.304.757.849.102 1.175-.144.488.102-.781-.53-.74.194-.336.042.126-1.021.909-.387.511.101.682-.647 1.765.386.814-.024.693-.346-.14-.447-.24-.083-.113-.19.232-.28-.371-.519-.361-.177-.334-.026-.096-.113-.246-.168-.031-.392.042-.209-.132-.308-.006-.127-.13-.257.184-.313.109-.017.119-.296.181-.24-.037-.198.234-.253h.196l.469-.27.187-.096.06-.205.245-.102.139.036.761-.175.234-.054.665-.266.233-.048-.175-.511.342-.606.252-.109.037-.216-.373.048-.029-.57.354.023-.054-.35.733.01-.053.35.351-.044-.028.577-.361-.036.004.187.201.098.359.64-.205.505.24.054.664.266.234.054.761.175.138-.036.246.102.06.205.187.096.467.27h.197l.234.253-.036.198.181.24.119.296.107.017.186.313-.132.257-.006.127-.131.308.04.209-.028.392-.245.168-.097.113-.334.026-.361.177-.37.519.232.282-.113.188-.246.08-.139.449.693.344.814.024 1.765-.386.683.647.51-.101.909.389.124 1.02-.336-.042-.739-.194-.779.53.485-.102 1.178.144.849-.1.302-.759h.227l.135 1.12-1.32.599-1.185-.261-.352.43-1.152.438-.63-.204-.386.826-.177.355-.438-.296-.051.296.067.926.008.362-.443-.042.326.987.056.083.286-.135 1.855 2.18-.632 2.476.127-.018.376-.272.331-.479.954-.068.829-.49-.467-.809-.817-1.275 1.148-1.936 1.194-1.855.227.023.194.42.864-1.264.885-2.46.268-.077.609-4.534.781 1.433.171 2.795-.337 1.593.059.137.726-2.176.261-2.415.375.544.33 2.652-.891 3.503.08.06.852-1.621.739-2.333.211.111.28 1.29-.39 2.063-1.162 1.961.071.07.57-.601 1.4-2.282.211.141-.352 2.011-2.092 2.503.131.028 1.231-.87 1.181-1.23.21.38-1.099 2.082-1.639.983.209-.021 1.144-.447 1.367-.966.125.37-1.116 1.587-2.474 1.173-.024-.011-.079.111.865-.18"/><path d="m29.397 15.99l-.627.449-.264.537.035.594-.01.441-.087.121.341.109.497.025.077-.235-.39-.626.284-1.15z"/><path d="m30.01 22.628l-.386.296.672.589.64.303.049.203-.276.362-.145.067.741.724.537.313.051.515-.295.346-.008.276.525.715.008-.004.522-.711-.008-.276-.295-.346.052-.515.538-.313.738-.724-.144-.067-.276-.362.05-.203.639-.303.672-.589-.387-.296.631-.346v.002l.545-.516-.713-.64-.095-.455-.019.005-2.454.349-2.459-.349-.017-.005-.094.455-.715.64.546.514z"/><path d="m32.445 35.596l-1.086.904-.262.417h2.157l-.156-.417z"/><path d="m27.083 36.917h2.652l.551-.488-.803-.982-1.184-.576.461-.847.761.388.743-.771-.248-.662.914-.979.914.979-.199.584h2.108l1.101.861-.245-1.498.789-.495-.107 2.911-.428.254-.83.844.231.477h2.652v-5.9h-9.833z"/><path d="M32,2C15.432,2,2,15.432,2,32s13.432,30,30,30s30-13.432,30-30S48.568,2,32,2z M32,60C16.561,60,4,47.439,4,32
		S16.561,4,32,4s28,12.561,28,28S47.439,60,32,60z"/></svg>