<svg xmlns="http://www.w3.org/2000/svg" viewBox="0 0 64 64" enable-background="new 0 0 64 64"><path d="m32 2c-16.568 0-30 13.432-30 30s13.432 30 30 30 30-13.432 30-30-13.432-30-30-30m8.279 13.895c.406-.703 2.027-3.514 4.842-5.95-.704 3.652-2.328 6.465-2.734 7.167-.608 1.055-1.217 2.109-2.326 2.407l-.393.681h17.716c.589 1.263 1.086 2.577 1.483 3.934h-18.721c-.426-1.399-.936-2.711-1.482-3.934h.066l.629-1.089c-.297-1.108.311-2.163.92-3.216m-8.279 35.772c0 0-7.867-8.806-7.867-19.667 0-10.862 7.867-19.667 7.867-19.667s7.866 8.805 7.866 19.667c0 10.861-7.866 19.667-7.866 19.667m-25.384-31.467h17.715l-.394-.682c-1.108-.298-1.717-1.353-2.326-2.407-.406-.702-2.029-3.515-2.733-7.167 2.813 2.437 4.435 5.247 4.841 5.95.609 1.054 1.218 2.108.921 3.217l.63 1.089h.065c-.547 1.223-1.057 2.534-1.482 3.934h-18.72c.397-1.357.894-2.671 1.483-3.934m13.787 31.745l4.703-8.146h-18.49c-.589-1.263-1.085-2.576-1.483-3.933h18.72c.505 1.664 1.131 3.205 1.796 4.613l-4.544 7.87-.702-.404m36.981-8.145h-18.489l4.702 8.146-.702.405-4.545-7.87c.666-1.408 1.291-2.949 1.797-4.613h18.721c-.399 1.356-.895 2.669-1.484 3.932"/><path d="m25.116 32c0 2.877.411 5.563 1.114 7.867 1.689-1.625 2.82-4.537 2.82-7.867 0-3.332-1.13-6.242-2.82-7.866-.703 2.304-1.114 4.987-1.114 7.866"/><path d="m37.77 24.134c-1.689 1.624-2.82 4.534-2.82 7.866 0 3.33 1.131 6.242 2.82 7.867.702-2.305 1.113-4.99 1.113-7.867 0-2.879-.411-5.562-1.113-7.866"/><ellipse cx="32" cy="31.999" rx="1.583" ry="2.373"/><path d="m31.814 21.354c0-3.033-.138-5.86-.373-8.287-.565 1.713-.943 4.778-.943 8.287s.378 6.576.943 8.287c.236-2.427.373-5.256.373-8.287"/><path d="m33.502 21.354c0-3.509-.379-6.574-.944-8.287-.235 2.427-.372 5.254-.372 8.287 0 3.03.137 5.859.372 8.287.565-1.71.944-4.778.944-8.287"/><path d="m30.498 42.659c0 3.509.378 6.576.943 8.287.235-2.428.373-5.257.373-8.287 0-3.032-.138-5.859-.373-8.287-.565 1.713-.943 4.778-.943 8.287"/><path d="m32.186 42.659c0 3.03.137 5.859.372 8.287.565-1.711.944-4.778.944-8.287s-.379-6.574-.944-8.287c-.236 2.428-.372 5.255-.372 8.287"/></svg>