<svg xmlns="http://www.w3.org/2000/svg" viewBox="0 0 64 64" enable-background="new 0 0 64 64"><path d="m35.354 39.033c.397.054.809-.304.809-.304s-.354-.296-.697-.457c.211-.139.415-.365.58-.575.239.088.574.188.808.158.398-.05.699-.501.699-.501s-.418-.194-.791-.261c.168-.188.307-.461.41-.707.255.024.604.035.821-.052.372-.152.546-.667.546-.667s-.434-.073-.807-.049l-.016-.025c.105-.223.166-.508.202-.762.252-.043.591-.123.778-.263.32-.239.355-.781.355-.781s-.463.038-.818.167c.051-.247.033-.552 0-.816.232-.105.539-.27.684-.453.246-.313.139-.847.139-.847s-.435.157-.746.372c-.016-.252-.111-.542-.213-.789.197-.162.451-.398.543-.612.155-.367-.087-.853-.087-.853s-.379.261-.626.549c-.08-.239-.248-.495-.41-.707.148-.208.332-.498.364-.731.056-.396-.307-.801-.307-.801s-.298.35-.46.691c-.313-.471-1.077-.92-1.077-.92s.102.885.412 1.359c.005.008.009.014.015.021-.061-.001-.123.006-.185.011-.18-.525-.446-1.012-.794-1.431l-1.17 1.172c.393.499.629 1.124.633 1.81l-1.161-1.936c.499-.474.814-1.141.814-1.883 0-.632-.225-1.21-.6-1.661l-.672.674c.228.288.364.651.364 1.047 0 .397-.143.759-.373 1.048l-1.32-2.203-1.322 2.204c-.23-.289-.373-.65-.373-1.048 0-.396.137-.759.364-1.047l-.672-.674c-.374.451-.6 1.029-.6 1.661 0 .742.315 1.409.814 1.883l-1.161 1.936c.004-.686.24-1.313.633-1.81l-1.17-1.172c-.348.419-.614.905-.794 1.431-.062-.005-.125-.012-.184-.011.005-.008.01-.014.014-.021.311-.475.412-1.359.412-1.359s-.765.449-1.077.92c-.164-.342-.46-.691-.46-.691s-.362.405-.308.801c.033.233.216.523.365.731-.162.212-.33.468-.41.707-.247-.288-.626-.549-.626-.549s-.242.485-.087.853c.092.214.346.45.543.612-.102.247-.197.537-.212.789-.312-.215-.746-.372-.746-.372s-.108.534.138.847c.144.184.451.348.684.453-.033.265-.051.569 0 .816-.356-.129-.818-.167-.818-.167s.035.542.355.781c.187.14.526.22.778.263.036.254.096.539.203.762l-.016.025c-.373-.024-.808.049-.808.049s.176.515.547.667c.218.087.566.076.821.052.104.246.243.519.411.707-.374.066-.792.261-.792.261s.301.451.7.501c.233.029.568-.07.808-.158.165.21.369.437.58.575-.343.161-.697.457-.697.457s.411.357.809.304c.235-.033.527-.215.736-.362.214.161.472.328.713.408-.291.244-.556.62-.556.62s.49.24.861.087c.369-.155.813-.789.813-.789s.018-.772-.191-1.112c-.207-.342-.747-.433-.747-.433s-.009.508.099.882c-.008-.002-.014-.006-.023-.008-.191-.063-.428-.085-.652-.089.055-.251.116-.638.045-.881-.111-.384-.609-.608-.609-.608s-.141.487-.135.877c-.007-.006-.012-.009-.02-.015-.17-.109-.392-.191-.607-.253.117-.229.277-.586.272-.84-.005-.259-.18-.484-.306-.619h7.324c-.126.135-.301.36-.306.619-.005.254.155.611.272.84-.216.062-.438.144-.607.253-.008.006-.013.009-.02.015.006-.39-.136-.877-.136-.877s-.497.225-.608.608c-.071.243-.01.63.045.881-.225.004-.461.026-.652.089-.01.002-.016.006-.023.008.107-.374.099-.882.099-.882s-.54.091-.747.433c-.209.34-.191 1.112-.191 1.112s.443.634.813.789c.371.153.861-.087.861-.087s-.266-.376-.556-.62c.241-.08.499-.247.713-.408.207.146.499.328.734.361m1.722-4.508c.107.086.218.161.311.221-.037.037-.072.077-.108.117l-.203-.338m.005-4.413c.004.223.026.457.089.647.002.009.007.015.009.024-.224-.063-.483-.085-.667-.093-.008-.17-.019-.34-.045-.506.211.002.443-.036.614-.072m-.583 1.089c.061.088.133.17.227.227.219.131.611.171.869.184-.054.217-.094.449-.082.65 0 .009.002.015.002.024-.337-.201-.833-.324-.833-.324s-.054.541.226.827c.178.184.546.324.791.402-.107.195-.206.41-.248.606-.002.01-.002.016-.004.024-.273-.28-.721-.525-.721-.525s-.086.247-.078.513l-.577-.962c.243-.504.388-1.058.428-1.646m-4.498 1.748c.99 0 1.802-.734 1.938-1.688l.66 1.101c-.495.936-1.466 1.581-2.599 1.581s-2.104-.646-2.599-1.581l.66-1.101c.138.954.95 1.688 1.94 1.688m-2.146 1.908h-1.95l.641-1.068c.365.435.807.796 1.309 1.068m5.601-1.068l.641 1.068h-1.95c.502-.272.944-.633 1.309-1.068m-8.101.021c.008-.266-.078-.513-.078-.513s-.447.245-.72.525c-.002-.009-.002-.015-.005-.024-.042-.196-.14-.411-.248-.606.246-.078.614-.219.791-.402.28-.286.227-.827.227-.827s-.497.123-.833.324c0-.01.002-.016.002-.024.011-.201-.029-.434-.083-.65.257-.013.65-.053.869-.184.094-.057.167-.139.226-.227.041.588.186 1.142.429 1.646l-.577.962m.179-3.624c-.026.166-.037.336-.045.506-.184.008-.443.029-.667.093.002-.01.007-.016.009-.024.063-.19.085-.425.089-.647.171.034.403.072.614.072m-.92 4.56c.093-.06.203-.135.311-.221l-.202.338c-.036-.04-.072-.08-.109-.117m1.242 1.84c-.006-.006-.009-.011-.017-.019-.136-.15-.33-.287-.522-.402.07-.076.141-.163.219-.267h.608c-.083.156-.222.43-.288.688m8.61-.688c.078.104.149.19.219.266-.193.116-.387.253-.522.403-.008.008-.011.013-.017.019-.065-.258-.203-.532-.288-.688h.608"/><path d="m27.806 40.99l.672-1.184c-2.762-1.317-4.674-4.129-4.674-7.392 0-4.527 3.669-8.195 8.196-8.195 4.527 0 8.196 3.668 8.196 8.195 0 3.311-1.968 6.157-4.795 7.452l.483 1.271c3.34-1.488 5.67-4.83 5.67-8.723 0-5.276-4.277-9.555-9.555-9.555-5.277 0-9.555 4.278-9.555 9.555.001 3.771 2.19 7.021 5.362 8.576"/><path d="M32,2C15.432,2,2,15.432,2,32s13.432,30,30,30s30-13.432,30-30S48.568,2,32,2z M5.787,22.167h52.426
		C59.365,25.229,60,28.541,60,32s-0.635,6.771-1.787,9.833H5.787C4.635,38.771,4,35.459,4,32S4.635,25.229,5.787,22.167z"/></svg>