<svg xmlns="http://www.w3.org/2000/svg" viewBox="0 0 64 64" enable-background="new 0 0 64 64"><path d="m32 2c-16.568 0-30 13.432-30 30s13.432 30 30 30 30-13.432 30-30-13.432-30-30-30m-.751 17.216l-1.216-.923-1.214.923.459-1.502-1.212-.93 1.5-.005.467-1.497.469 1.497 1.498.006-1.21.931.459 1.5m-.983 4.917l-1.216-.923-1.214.923.459-1.502-1.212-.93 1.5-.004.467-1.497.469 1.497 1.498.004-1.21.931.459 1.501m-5.901 0l-1.215-.923-1.214.923.459-1.502-1.212-.93 1.5-.004.467-1.497.469 1.497 1.498.004-1.211.931.459 1.501m-1.441-6.418l.459 1.501-1.216-.923-1.214.923.459-1.502-1.212-.93 1.5-.005.467-1.497.468 1.497 1.498.005-1.209.931m-6.874 1.403c0 4.919 3.801 8.908 8.489 8.908.533 0 1.054-.058 1.561-.158-1.315.751-2.819 1.181-4.425 1.181-5.156 0-9.342-4.403-9.342-9.833 0-5.431 4.186-9.833 9.342-9.833 1.387 0 2.696.325 3.878.897-.334-.042-.67-.069-1.014-.069-4.688-.001-8.489 3.988-8.489 8.907m8.837-2.852l.459-1.502-1.213-.929 1.5-.005.467-1.497.469 1.497 1.498.005-1.21.93.459 1.501-1.216-.923-1.213.923m7.113 43.734c-15.439 0-28-12.561-28-28h56c0 15.439-12.561 28-28 28"/></svg>