<svg xmlns="http://www.w3.org/2000/svg" viewBox="0 0 64 64" enable-background="new 0 0 64 64"><path d="m27.861 37.217c-.761-.068-1.477-.377-2.036-.881-.726 1.759-2.794 2.617-4.621 1.916-.269-.104-.522-.238-.759-.4.331 3.162 5.248 2.516 5.614-.558 1.544 2.613 4.939 1.865 5.935-1.333h.01c.995 3.198 4.393 3.946 5.937 1.333.366 3.073 5.283 3.72 5.612.558-.234.162-.49.297-.759.4-1.825.701-3.894-.157-4.621-1.916-.558.504-1.273.813-2.036.881-1.882.162-3.545-1.178-3.714-2.99v-2.606c.019-.599.537-1.07 1.159-1.051.389.011.744.214.939.538.461-1.34-.294-2.791-1.686-3.234-1.393-.445-2.896.282-3.357 1.624-.181.523-.181 1.088 0 1.61.313-.516 1-.692 1.538-.392.336.189.548.53.559.905v2.606c-.169 1.812-1.832 3.152-3.714 2.99m2.22-7.242c.117-.828.796-1.479 1.656-1.594 1.058-.14 2.035.574 2.182 1.594-.759-.149-1.531.186-1.919.83-.388-.645-1.16-.979-1.919-.83"/><path d="m28.293 39.839c-.002 0-.348-.2-1.071-.11-.104-.449-.513-.838-.807-1.031-.278.297-.479.847-.38 1.243-.518.091-.999.419-.999.419 1.198 1.151 2.569.907 3.257-.521"/><path d="m33.659 39.678c0 0-.308-.254-1.037-.277-.024-.461-.364-.906-.62-1.143-.326.247-.616.759-.588 1.165-.524.009-1.057.257-1.057.257.99 1.324 2.384 1.298 3.302-.002"/><path d="m38.983 40.359c0 0-.262-.297-.976-.438.052-.457-.208-.95-.421-1.224-.365.194-.735.653-.776 1.058-.518-.072-1.085.089-1.085.089.752 1.463 2.132 1.655 3.258.515"/><path d="m23.023 42.246l.48 1.554c5.558-1.594 11.435-1.594 16.992 0l.479-1.554c-5.87-1.683-12.078-1.683-17.951 0"/><path d="m30.677 24.124l1.323-.926 1.323.926-.505-1.499 1.324-.927h-1.637l-.505-1.498-.505 1.498h-1.637l1.324.927z"/><path d="m24.371 25.752l1.324-.926 1.323.926-.505-1.499 1.323-.926h-1.636l-.505-1.499-.506 1.499h-1.635l1.323.926z"/><path d="m19.756 30.199l1.324-.926 1.323.926-.506-1.498 1.324-.928h-1.636l-.505-1.499-.506 1.499h-1.636l1.324.928z"/><path d="m18.573 34.775l-.505 1.499 1.324-.926 1.323.926-.505-1.499 1.323-.926h-1.637l-.504-1.5-.505 1.5h-1.637z"/><path d="m36.98 25.752l1.324-.926 1.323.926-.506-1.499 1.324-.926h-1.634l-.507-1.499-.506 1.499h-1.636l1.323.926z"/><path d="m41.596 30.199l1.322-.926 1.324.926-.506-1.498 1.324-.928h-1.636l-.506-1.499-.505 1.499h-1.636l1.324.928z"/><path d="m44.104 33.849h-1.637l1.323.926-.505 1.499 1.323-.926 1.324.926-.505-1.499 1.323-.926h-1.637l-.505-1.5z"/><path d="M32,2C15.432,2,2,15.432,2,32s13.432,30,30,30s30-13.432,30-30S48.568,2,32,2z M8.852,16.267h46.297
		C58.208,20.754,60,26.171,60,32s-1.792,11.246-4.852,15.733H8.852C5.792,43.246,4,37.829,4,32S5.792,20.754,8.852,16.267z"/></svg>