<svg xmlns="http://www.w3.org/2000/svg" viewBox="0 0 64 64" enable-background="new 0 0 64 64"><path d="m32 2c-16.568 0-30 13.432-30 30s13.432 30 30 30 30-13.432 30-30-13.432-30-30-30m-3.532 20.199l-1.244-.904-1.245.904.475-1.463-1.244-.905h1.538l.477-1.462.475 1.462h1.538l-1.244.905.474 1.463m-8.132 16.178l-1.655-1.205-1.657 1.205.634-1.948-1.658-1.204h2.047l.634-1.947.632 1.947h2.048l-1.655 1.204.63 1.948m-.205-23.393l-1.412-1.027-1.411 1.027.538-1.661-1.412-1.025h1.746l.539-1.66.54 1.66h1.744l-1.411 1.025.539 1.661m-10.037 10.025l-1.403-1.019-1.401 1.019.536-1.648-1.402-1.019h1.732l.535-1.648.536 1.648h1.732l-1.401 1.019.536 1.648m13.031 33.541c-2.188-.733-4.254-1.729-6.164-2.95h30.078c-1.91 1.222-3.977 2.217-6.164 2.95h-17.75m27.763-5.9h-37.776c-.255-.234-.504-.474-.75-.716 4.046-4.499 26.416-28.985 41.012-36.828 0 0-11.017 20.027 1.802 32.587-1.233 1.817-2.674 3.479-4.288 4.957"/></svg>