<svg xmlns="http://www.w3.org/2000/svg" viewBox="0 0 64 64" enable-background="new 0 0 64 64"><path d="m32 2c-16.568 0-30 13.432-30 30s13.432 30 30 30 30-13.432 30-30-13.432-30-30-30m11.644 32.952c0 3.084-.479 5.486-1.434 7.205-1.783 3.149-5.182 4.725-10.201 4.725-5.018 0-8.424-1.575-10.219-4.725-.957-1.719-1.434-4.121-1.434-7.205v-17.834h6.16v17.82c0 1.993.236 3.448.707 4.366.732 1.626 2.328 2.439 4.785 2.439 2.445 0 4.035-.813 4.768-2.439.471-.918.705-2.373.705-4.366v-17.82h6.162v17.834z"/></svg>