<svg xmlns="http://www.w3.org/2000/svg" viewBox="0 0 64 64" enable-background="new 0 0 64 64"><path d="m32 2c-16.568 0-30 13.432-30 30s13.432 30 30 30 30-13.432 30-30-13.432-30-30-30m-26.55 30h-1.45c0-3.102.515-6.084 1.45-8.875v8.875m26.55-19.666v1.966h-8.26l8.26 10.325v2.516l-10.396-12.841h-5.9l14.329 17.7h-3.933l-11.8-14.75v14.75h-1.967-.983v-18.888c.562-.613 1.149-1.201 1.763-1.763h18.887v.985m0-6.884h-8.876c2.791-.935 5.773-1.45 8.876-1.45v1.45m5.831 22.038h3.134c-.287 0-.521-.469-.521-1.045 0-.338.086-.624.211-.815-.415-.317-.659-.808-.708-1.51-.399.146-.821.236-1.069.236-.578 0-1.046-.469-1.046-1.045s.468-1.045 1.046-1.045c.349 0 1.036.173 1.527.436.395-.482 1.008-.886 1.764-1.15-.616-.479-1.33-.979-1.33-.979l1.791.125-.928-3.052 1.684 1.89.242-2.69.879 2.462 1.643-2.256-.596 2.859 2.41-1.009-2.008 1.946 2.275-.041c0 0-.976.351-1.77.844 1.098.45 1.818 1.234 1.818 2.243 0 .84-.271 1.383-.732 1.736.124.191.209.478.209.815 0 .576-.232 1.045-.521 1.045h3.135v12.54c0 .918-.646 1.421-1.449 1.808-.043.02-4.819 1.936-4.819 1.936s-4.777-1.914-4.813-1.933c-.806-.386-1.456-.89-1.456-1.811v-12.54zm15.589 18.802l-1.035 2.097c-.897-.625-1.91-1.144-3.014-1.541l.304-1.187c-1.688 1.182-3.617 1.824-5.61 1.824-1.988 0-3.918-.639-5.605-1.817l.299 1.172c-1.078.389-2.074.89-2.957 1.495l-1.021-2.104c-.007.006-.016.01-.023.015l-1.104-2.276c1.029-.704 2.182-1.284 3.421-1.73l.263 1.032.823-1.09c1.624 1.727 3.72 2.68 5.905 2.68 2.211 0 4.328-.974 5.962-2.741l.798 1.04.234-.913c1.269.459 2.443 1.059 3.49 1.786l-1.118 2.267c-.004-.004-.008-.006-.012-.009"/></svg>