<svg xmlns="http://www.w3.org/2000/svg" viewBox="0 0 64 64" enable-background="new 0 0 64 64"><path d="m32 2c-16.568 0-30 13.432-30 30s13.432 30 30 30 30-13.432 30-30-13.432-30-30-30m-12.783 22.134c-2.716 0-4.917-2.201-4.917-4.917s2.201-4.917 4.917-4.917 4.916 2.201 4.916 4.917-2.2 4.917-4.916 4.917m1.169.529l-1.169 4.387-1.171-4.388c.378.081.769.126 1.171.126.401 0 .792-.045 1.169-.125m-5.297-9.183c-.523.578-.93 1.264-1.175 2.024l-3.213-3.204 4.388 1.18m-.789-4.779l3.205 3.213c-.761.245-1.446.651-2.024 1.175l-1.181-4.388m-.531 7.345c-.08.378-.125.769-.125 1.171 0 .401.044.792.125 1.169l-4.386-1.169 4.386-1.171m.145 2.882c.245.76.651 1.445 1.175 2.023l-4.388 1.183 3.213-3.206m1.566 2.415c.579.523 1.265.931 2.025 1.176l-3.205 3.213 1.18-4.389m2.566-9.574l1.171-4.385 1.169 4.385c-.377-.081-.768-.125-1.169-.125-.403 0-.793.044-1.171.125m4.905 1.32c-.578-.523-1.264-.93-2.023-1.175l3.205-3.213-1.182 4.388m4.781-.789l-3.214 3.206c-.245-.761-.652-1.446-1.176-2.025l4.39-1.181m-4.781 9.043l1.182 4.39-3.207-3.214c.761-.246 1.446-.653 2.025-1.176m.391-.392c.524-.579.932-1.265 1.177-2.025l3.214 3.208-4.391-1.183m1.321-2.565c.08-.377.125-.768.125-1.169 0-.402-.045-.793-.126-1.171l4.388 1.171-4.387 1.169m7.337 39.614c-15.439 0-28-12.561-28-28h28v-28c15.439 0 28 12.561 28 28s-12.561 28-28 28"/></svg>