<svg xmlns="http://www.w3.org/2000/svg" viewBox="0 0 64 64" enable-background="new 0 0 64 64"><path d="m8.121 22.167l5.18.941c-1.344.629-1.834 1.264-2.187 1.738-.042.058-.083.113-.124.166l-1.737.72.097.05c.452.229.822.336 1.164.336.468 0 .82-.205 1.228-.442.534-.311 1.202-.682 2.374-.739l-3.031 4.38 4.259-2.948c-.454 1.32-.355 2.085-.271 2.651.01.069.021.137.028.202l-.676 1.636-.042.101.104-.033c1.258-.412 1.416-1.01 1.616-1.767.162-.613.372-1.339 1.162-2.205l.92 5.056.049.271.905-4.98c.603 1.214 1.203 1.672 1.656 2.008.058.043.112.084.165.124l.72 1.736.05-.097c.599-1.181.288-1.715-.106-2.391-.327-.563-.701-1.247-.739-2.478l4.499 3.114-3.015-4.355c.767.291 1.446.443 2.06.443.338 0 .614-.041.857-.077.071-.01.141-.021.207-.028l1.735.718-.033-.104c-.411-1.258-1.009-1.416-1.766-1.615-.624-.165-1.362-.368-2.25-1.192l4.896-.89.271-.049-5.06-.921c1.43-.647 1.933-1.304 2.294-1.791.041-.057.081-.111.121-.163l1.735-.718-.097-.05c-.446-.227-.827-.336-1.164-.336-.467 0-.819.204-1.228.441-.566.329-1.271.735-2.587.752l3.021-4.367-4.307 2.985c.51-1.407.405-2.205.319-2.791-.094-.632-.156-1.05.638-1.823l.153-.15-.204.066c-1.258.412-1.416 1.01-1.616 1.767-.164.621-.367 1.353-1.178 2.231l-.904-4.976-.049-.271-.942 5.18c-.651-1.447-1.312-1.952-1.801-2.314-.057-.042-.111-.082-.164-.122l-.677-1.638-.041-.101-.05.098c-.599 1.182-.288 1.716.105 2.393.328.563.708 1.236.748 2.464l-4.328-2.998 3 4.335c-.74-.275-1.4-.421-1.995-.421-.338 0-.614.041-.858.077-.069.01-.137.021-.202.028l-1.637-.676-.101-.042.033.104c.411 1.258 1.009 1.416 1.766 1.616.623.165 1.357.368 2.239 1.184l-4.938.898-.269.049m6.884 0c0-1.78 1.448-3.229 3.229-3.229s3.229 1.448 3.229 3.229-1.448 3.229-3.229 3.229-3.229-1.449-3.229-3.229"/><path d="m19.574 20.677c.745 0 .864.416 1.073.178-.269-.267-.954-.505-1.192-.476-.238.028-.983.566-.864.654.119.091.238-.356.983-.356"/><path d="m19.604 20.974c-.478 0-.775.06-.805.419v.029c.176-.16.261-.231.373-.266-.07.198.142.43.332.501-.008 0-.012.003-.02.003-.328 0-.478-.357-.597-.179-.089.118.356.297.686.297.328 0 .833-.507.626-.356-.038.026-.075.04-.112.063.04-.086.022-.172-.021-.243.163.084.28.181.399.181-.177-.092-.384-.449-.861-.449m.402.556c-.073.039-.163.067-.25.087.115-.112.162-.328.043-.464.066.014.129.026.182.049.053.089.085.21.025.328"/><path d="m19.219 23.74c-.283.092-.521.184-.985.184s-.703-.092-.985-.184c-.164.013-.271-.008-.581-.127 0 .001-.001.002-.001.003.933.401.834.546 1.567.546s.635-.145 1.567-.546c0-.001-.001-.002-.002-.003-.309.119-.416.14-.58.127"/><path d="m19.634 23.389c.076.105.121.165.156.212-.333.075-.853-.212-1.08-.212-.238 0-.298.059-.477.059s-.238-.059-.477-.059c-.228 0-.747.287-1.08.212.035-.047.079-.106.156-.212-.238.178-.3.269-.328.476.076-.133.097-.163.161-.248-.016-.007-.026-.012-.042-.019.017.007.027.01.043.016.002-.002.003-.004.005-.006.24.033.417.082.576.133.167-.012.398-.055.985-.055.586 0 .817.043.985.055.158-.051.335-.1.575-.133.002.002.004.004.005.006.017-.006.026-.009.044-.016-.016.007-.026.012-.042.019.064.086.085.116.161.248-.028-.208-.089-.299-.326-.476"/><path d="m16.893 20.677c.745 0 .864.447.983.356.119-.088-.626-.626-.864-.654-.238-.029-.924.209-1.192.476.208.238.327-.178 1.073-.178"/><path d="m17.578 21.481c-.121-.179-.269.179-.597.179-.008 0-.012-.003-.02-.003.189-.071.4-.303.33-.501.112.034.198.105.375.266v-.029c-.029-.359-.329-.419-.805-.419-.477 0-.686.357-.864.448.12 0 .237-.096.4-.18-.043.07-.061.156-.021.242-.036-.023-.074-.036-.111-.063-.209-.15.298.356.626.356.329.001.776-.177.687-.296m-1.117.05c-.061-.119-.028-.24.025-.329.053-.022.115-.035.182-.049-.121.136-.072.352.043.464-.087-.019-.177-.048-.25-.086"/><path d="m17.638 22.643c.029-.178.119-.147.119-.267-.269.058-.179.445-.419.477-.237.028-.356.298-.326.267.148-.119.477-.207.715-.207s.298.147.507.147c.207 0 .267-.147.507-.147.238 0 .564.088.715.207.03.031-.089-.238-.328-.267-.238-.031-.148-.419-.417-.477 0 .119.09.089.119.267 0 .15-.268.15-.329 0 .062.238-.117.238-.267.238s-.328 0-.269-.238c-.06.15-.327.15-.327 0"/><path d="m18.233 24.521c.536 0 .149-.091 0-.091s-.536.091 0 .091"/><path d="M32,2C15.432,2,2,15.432,2,32s13.432,30,30,30s30-13.432,30-30S48.568,2,32,2z M32,4c5.533,0,10.691,1.62,15.039,4.4H32
		V14.3h21.677c1.913,2.339,3.454,4.991,4.536,7.867H32v5.899h27.719C59.9,29.353,60,30.664,60,32s-0.1,2.647-0.281,3.934H4.281
		C4.1,34.647,4,33.336,4,32C4,16.561,16.561,4,32,4z M10.323,49.7c-1.913-2.339-3.454-4.991-4.536-7.867h52.426
		c-1.082,2.876-2.623,5.528-4.536,7.867H10.323z M16.961,55.6h30.078C42.691,58.38,37.533,60,32,60S21.309,58.38,16.961,55.6z"/></svg>