<svg xmlns="http://www.w3.org/2000/svg" viewBox="0 0 64 64" enable-background="new 0 0 64 64"><path d="m31.945 21.139c-2.402 0-4.318.853-5.748 2.559s-2.146 4.259-2.146 7.658c0 3.976 1.025 6.824 3.072 8.543 1.326 1.115 2.916 1.673 4.766 1.673.697 0 1.365-.085 2.01-.256.354-.093.807-.257 1.359-.493l-2.938-2.794 3.113-3.252 2.949 2.776c.459-.944.781-1.771.965-2.479.289-1.063.432-2.303.432-3.72 0-3.254-.666-5.771-1.998-7.549-1.332-1.778-3.277-2.666-5.836-2.666"/><path d="m32 2c-16.568 0-30 13.432-30 30s13.432 30 30 30 30-13.432 30-30-13.432-30-30-30m10.813 46l-3.486-3.307c-1.064.646-1.982 1.1-2.758 1.363-1.301.436-2.857.652-4.67.652-3.783 0-6.908-1.128-9.377-3.386-2.996-2.716-4.494-6.706-4.494-11.968 0-5.303 1.535-9.312 4.607-12.028 2.506-2.217 5.623-3.326 9.349-3.326 3.754 0 6.904 1.175 9.449 3.524 2.939 2.716 4.41 6.516 4.41 11.397 0 2.585-.314 4.751-.945 6.496-.51 1.664-1.262 3.046-2.256 4.146l3.33 3.137-3.159 3.3"/></svg>