<svg xmlns="http://www.w3.org/2000/svg" viewBox="0 0 64 64" enable-background="new 0 0 64 64"><path d="m18.418 17.004l-1.168-3.687-1.135 3.687h-3.782l3.025 2.395-1.146 3.751 3.038-2.307 3.038 2.307-1.146-3.751 3.025-2.395z"/><path d="m43.712 48.717l3.038-2.307 3.038 2.307-1.146-3.751 3.025-2.396h-3.749l-1.168-3.687-1.135 3.687h-3.782l3.025 2.396z"/><path d="M32,2C15.432,2,2,15.432,2,32s13.432,30,30,30s30-13.432,30-30S48.568,2,32,2z M32,60V32H4C4,16.561,16.561,4,32,4v28h28
		C60,47.439,47.439,60,32,60z"/></svg>