<svg xmlns="http://www.w3.org/2000/svg" viewBox="0 0 64 64" enable-background="new 0 0 64 64"><path d="m32 2c-16.568 0-30 13.432-30 30s13.432 30 30 30 30-13.432 30-30-13.432-30-30-30m27.369 35.9h-54.738c-.41-1.903-.631-3.876-.631-5.9h28 28c0 2.024-.221 3.997-.631 5.9m-49.046 11.8c-1.468-1.795-2.715-3.776-3.707-5.9h50.768c-.991 2.124-2.238 4.105-3.706 5.9h-43.355m21.677-29.5h25.384c.87 1.865 1.542 3.84 1.985 5.899h-27.369v-5.899m-6.33 5.9l-5.47-3.693-5.47 3.693 2.064-6.005-5.445-3.721 6.745-.017 2.105-5.99 2.105 5.99 6.745.017-5.448 3.721 2.069 6.005m28.008-11.8h-21.678v-5.9h15.039c2.514 1.608 4.756 3.599 6.639 5.9m-36.718 41.3h30.079c-4.348 2.78-9.506 4.4-15.039 4.4s-10.691-1.62-15.04-4.4"/></svg>