<svg xmlns="http://www.w3.org/2000/svg" viewBox="0 0 64 64" enable-background="new 0 0 64 64"><path d="m32 2c-16.568 0-30 13.432-30 30s13.432 30 30 30 30-13.432 30-30-13.432-30-30-30m0 45.733c-8.689 0-15.734-7.044-15.734-15.733 0-1.078.11-2.13.315-3.147 1.46 7.181 7.807 12.586 15.419 12.586 7.611 0 13.958-5.405 15.418-12.586.205 1.017.314 2.069.314 3.147 0 8.689-7.044 15.733-15.732 15.733m5.349-15.733l-5.349-3.69-5.349 3.69 2.02-6.004-5.325-3.83h6.658l1.996-5.9 2.057 5.9h6.598l-5.326 3.83 2.02 6.004"/></svg>