<svg xmlns="http://www.w3.org/2000/svg" viewBox="0 0 64 64" enable-background="new 0 0 64 64"><path d="m24.892 18.154l-5.921 10.18 5.921 10.179 5.923-10.179z"/><path d="m39.106 18.154l-5.922 10.18 5.922 10.179 5.923-10.179z"/><path d="M26.077 41.566 32 51.745 37.921 41.566 32 31.388z"/><path d="M32,2C15.432,2,2,15.432,2,32s13.432,30,30,30s30-13.432,30-30S48.568,2,32,2z M16.267,55.148V8.852
		C20.754,5.792,26.171,4,32,4s11.246,1.792,15.733,4.852v46.297C43.246,58.208,37.829,60,32,60S20.754,58.208,16.267,55.148z"/></svg>