<svg xmlns="http://www.w3.org/2000/svg" viewBox="0 0 64 64" enable-background="new 0 0 64 64"><path d="m32 2c-16.568 0-30 13.432-30 30s13.432 30 30 30 30-13.432 30-30-13.432-30-30-30m-12.788 54.896c-2.345-1.209-4.497-2.738-6.399-4.532h38.375c-1.902 1.794-4.055 3.323-6.399 4.532h-25.577m-10.292-9.067c-.979-1.422-1.825-2.938-2.531-4.532h51.223c-.706 1.594-1.553 3.11-2.531 4.532h-46.161m-4.089-9.064c-.366-1.469-.611-2.983-.734-4.533h55.807c-.123 1.55-.368 3.064-.734 4.533h-54.339m3.71-22.024h.378l.327-1.028c.063-.089.125-.179.189-.266l.412 1.294h1.502l-1.215.962.465 1.49-1.217-.885-1.215.908.465-1.516-.47-.371c.123-.197.252-.392.379-.588m2.059 14.253l-1.217-.886-1.215.908.465-1.516-1.216-.96h1.502l.464-1.458.465 1.458h1.502l-1.215.962.465 1.492m18.45-21.61l.465 1.457h1.502l-1.216.963.465 1.49-1.216-.886-1.216.908.465-1.515-1.216-.961h1.502l.465-1.456m-.465 13.257l.465-1.457.465 1.457h1.502l-1.216.963.465 1.49-1.216-.886-1.216.909.465-1.516-1.216-.961h1.502zm-2.718-4.938l.465 1.49-1.215-.885-1.217.909.465-1.516-1.215-.96h1.502l.465-1.458.465 1.458h1.501l-1.216.962m.465 13.291l-1.215-.886-1.217.909.465-1.516-1.215-.96h1.502l.465-1.458.465 1.458h1.501l-1.216.962.465 1.491m-4.397-19.19l.465 1.49-1.216-.886-1.216.908.465-1.515-1.216-.961h1.502l.465-1.457.465 1.457h1.502l-1.216.964m-1.216 10.837l.465-1.457.465 1.457h1.502l-1.216.963.465 1.49-1.216-.886-1.216.909.465-1.516-1.216-.961h1.502zm-2.718-4.938l.465 1.49-1.216-.885-1.216.908.465-1.516-1.216-.96h1.502l.465-1.458.465 1.458h1.502l-1.216.963m-1.216 10.838l.465-1.458.465 1.458h1.502l-1.216.962.465 1.491-1.216-.886-1.216.908.465-1.516-1.216-.96h1.502zm-2.718-4.937l.465 1.49-1.216-.886-1.215.909.464-1.516-1.216-.961h1.502l.465-1.457.465 1.457h1.502l-1.216.964m17.933 1.561h27.152c.37 1.468.618 2.983.745 4.532h-27.897v-4.532m0-4.533v-4.532h23.029c.984 1.421 1.838 2.938 2.55 4.532h-25.579m0-9.067v-4.533h12.648c2.369 1.204 4.543 2.734 6.465 4.533h-19.113m-6.475-6.801l.057.178h1.501l-1.216.962.465 1.49-1.215-.886-1.217.909.465-1.516-.771-.61c.634-.199 1.279-.372 1.931-.527m-11.744 6.077h1.502l-1.216.963.465 1.49-1.216-.886-1.215.908.434-1.416c.398-.386.807-.758 1.227-1.119l.019.06m-7.866 11.8h1.502l-1.216.963.465 1.49-1.216-.886-.43.321c.22-.791.469-1.568.755-2.33l.14.442"/></svg>