<svg xmlns="http://www.w3.org/2000/svg" viewBox="0 0 64 64" enable-background="new 0 0 64 64"><path d="m32 2c-16.568 0-30 13.432-30 30s13.432 30 30 30 30-13.432 30-30-13.432-30-30-30m-6.652 17.217l-1.218-.924-1.216.924.463-1.502-1.21-.93 1.5-.006.463-1.496.47 1.496 1.5.006-1.211.93.459 1.502m-2.561 3.933l-.616-.463-.623.463.234-.751-.616-.465.765-.004.24-.747.233.747.763.004-.616.465.236.751m-2.354 4.916l-1.216-.926-1.218.926.461-1.504-1.21-.93 1.496-.003.471-1.496.469 1.496 1.498.003-1.21.93.459 1.504m0-13.768l-1.216-.922-1.218.922.461-1.498-1.21-.932 1.496-.005.471-1.496.469 1.496 1.498.005-1.21.932.459 1.498m-4.915 4.919l-1.216-.924-1.218.924.459-1.502-1.21-.93 1.5-.006.469-1.496.465 1.496 1.5.006-1.21.93.461 1.502m16.482 40.783c-15.439 0-28-12.561-28-28h28v-28c15.439 0 28 12.561 28 28s-12.561 28-28 28"/></svg>