<svg xmlns="http://www.w3.org/2000/svg" viewBox="0 0 64 64" enable-background="new 0 0 64 64"><path d="m15.359 18.356h-2.479v3.638h-1.093v-3.638h-2.479l3.025 6.527z"/><path d="m12.333 39.117l-3.025 6.527h2.479v-3.642h1.093v3.642h2.479z"/><path d="m13.112 32.9h-1.557l.778 2.291z"/><path d="m12.333 28.809l-.778 2.291h1.557z"/><path d="m27.465 35.61c-.67 1.082-.42 2.519.406 3.607 1.919 2.521 4.449 4.109 7.648 4.995.664-1.067 1.554-2.047 2.599-2.794-4.362-.643-9.218-2.325-10.653-5.808"/><path d="m32 2c-16.568 0-30 13.432-30 30 0 16.569 13.432 30 30 30s30-13.431 30-30c0-16.568-13.432-30-30-30m-19.12 45.665v3.642h-1.093v-3.642h-2.479l.839 1.812c-.838-1.046-1.603-2.152-2.286-3.313l3.616-7.799h-2.479v3.637h-1.095v-9.646h1.095v3.984h2.572l-1.477-4.34 1.477-4.341h-2.572v3.984h-1.095v-9.649h1.095v3.641h2.479l-3.616-7.799c.683-1.159 1.447-2.266 2.284-3.311l-.838 1.808h2.479v-3.639h1.093v3.639h2.479l-2.291-4.941c.279-.257.566-.506.856-.751l3.11 6.703-3.845 8.291h2.48v-3.641h1.094v9.649h-1.094v-3.984h-2.572l1.478 4.341-1.478 4.341h2.572v-3.984h1.094v9.646h-1.094v-3.637h-2.48l3.845 8.291-3.11 6.703c-.29-.245-.577-.494-.856-.751l2.291-4.943h-2.478zm35.817-4.134c3.175-.858 6.656-2.109 7.629-5.305.238-.785.269-1.679-.043-2.43-1.994 4.389-9.557 6.032-14.266 5.954-.031-.002-.064-.004-.095-.004-.005 0-.009.002-.015.004-2.223.125-4.24 2.18-5.172 4.21 2.417-1.099 5.256-1.55 7.898-1.587 1.271-.017 1.269 1.732 0 1.75-2.94.04-6.5.709-8.723 2.368-.602.449-1.739.211-1.681-.619.047-.662.213-1.357.478-2.047-3.939-1.154-8.547-3.781-9.447-7.542-.481-2.007.231-4.053 2.269-5.164.671-.365 1.438.117 1.481.756.321 4.71 8.947 6.192 13.006 6.125 4.083-.069 12.471-1.327 12.787-6.125.04-.61.826-1.157 1.481-.756 1.945 1.196 2.778 3.597 1.938 5.571-1.619 3.807-4.832 5.398-9.004 6.526-1.216.332-1.733-1.359-.521-1.685m-6.863-24.006c4.172 0 7.557 3.384 7.557 7.558 0 4.172-3.385 7.558-7.557 7.558-4.174 0-7.559-3.386-7.559-7.558 0-4.174 3.385-7.558 7.559-7.558m-2.303-4.017c0 0 1.023 1.98 1.111 2.421.066.328-.045.636-.484.731-.441.086-.662-.162-.729-.493-.087-.439.102-2.659.102-2.659m1.684 2.363c0-.449.619-2.588.619-2.588s.617 2.139.617 2.588c0 .336-.168.619-.617.624-.451 0-.619-.288-.619-.624m1.808.058c.088-.44 1.111-2.421 1.111-2.421s.189 2.22.102 2.659c-.066.331-.285.573-.728.493-.441-.09-.55-.403-.485-.731m3.581 16.294c.374-.25.674-.104.861.176.248.375.924 2.496.924 2.496s-1.701-1.437-1.952-1.811c-.187-.279-.203-.607.167-.861m-.254 3.762c0 0-1.391-1.742-1.563-2.155-.129-.312-.08-.637.333-.813.414-.172.681.028.809.34.173.415.421 2.628.421 2.628m1.559-3.952c-.237-.239-.317-.556-.005-.878.318-.317.641-.234.879.003.317.319 1.395 2.269 1.395 2.269s-1.951-1.077-2.269-1.394m1.239-1.319c-.281-.187-.42-.483-.174-.86.248-.375.58-.354.86-.168.374.251 1.81 1.954 1.81 1.954s-2.122-.675-2.496-.926m.958-1.537c-.312-.126-.507-.392-.339-.81.171-.414.5-.46.812-.33.416.172 2.155 1.56 2.155 1.56s-2.213-.248-2.628-.42m.64-1.693c-.33-.063-.573-.285-.491-.726.088-.44.401-.55.733-.486.439.089 2.418 1.11 2.418 1.11s-2.218.191-2.66.102m.298-1.785c-.337 0-.618-.166-.623-.616 0-.449.286-.619.623-.619.448 0 2.589.619 2.589.619s-2.141.616-2.589.616m-.056-1.807c-.332.066-.64-.046-.733-.484-.088-.439.161-.661.491-.728.441-.086 2.66.101 2.66.101s-1.978 1.022-2.418 1.111m-.409-1.765c-.312.129-.635.08-.812-.331-.174-.414.027-.68.339-.81.415-.172 2.628-.419 2.628-.419s-1.739 1.391-2.155 1.56m-.744-1.649c-.28.188-.607.205-.86-.167-.251-.371-.107-.671.174-.86.374-.248 2.496-.925 2.496-.925s-1.436 1.704-1.81 1.952m-1.052-1.472c-.238.24-.557.317-.879.004-.316-.317-.232-.641.005-.879.317-.316 2.269-1.394 2.269-1.394s-1.077 1.951-1.395 2.269m-1.318-1.241c-.188.282-.484.421-.861.176-.373-.247-.354-.582-.167-.86.251-.374 1.952-1.811 1.952-1.811s-.676 2.124-.924 2.495m-1.536-.955c-.128.312-.392.503-.809.34-.417-.173-.462-.504-.333-.815.172-.414 1.563-2.152 1.563-2.152s-.248 2.209-.421 2.627m-1.794 19.846c0 0-1.023-1.978-1.111-2.419-.065-.33.045-.638.485-.733.44-.086.661.161.728.493.087.44-.102 2.659-.102 2.659m-1.684-2.363c0 .449-.617 2.591-.617 2.591s-.619-2.142-.619-2.591c0-.337.168-.616.619-.622.449 0 .617.285.617.622m-1.808-.056c-.088.441-1.111 2.419-1.111 2.419s-.189-2.22-.102-2.659c.066-.332.287-.573.729-.493.44.09.55.403.484.733m-8.021-9.773c.337 0 .618.17.624.619 0 .45-.287.616-.624.616-.448 0-2.589-.616-2.589-.616s2.141-.619 2.589-.619m-2.362-1.684c0 0 2.221-.187 2.66-.101.332.066.573.285.491.728-.088.441-.401.551-.732.484-.441-.088-2.419-1.111-2.419-1.111m2.419 3.492c.331-.063.639.046.732.486.088.44-.159.662-.491.726-.439.089-2.66-.102-2.66-.102s1.978-1.021 2.419-1.11m.408 1.765c.312-.13.635-.08.812.33.174.415-.027.684-.338.81-.416.172-2.629.42-2.629.42s1.741-1.388 2.155-1.56m.744 1.649c.281-.187.607-.204.862.168.249.374.105.674-.176.86-.372.251-2.496.926-2.496.926s1.438-1.703 1.81-1.954m1.053 1.472c.239-.237.556-.318.878-.003.318.316.234.639-.004.878-.318.316-2.268 1.394-2.268 1.394s1.075-1.949 1.394-2.269m1.317 1.24c.188-.279.484-.42.861-.176.373.251.354.582.167.861-.249.374-1.952 1.811-1.952 1.811s.676-2.121.924-2.496m1.537.959c.129-.312.393-.506.809-.34.416.17.462.501.332.813-.172.413-1.562 2.155-1.562 2.155s.249-2.213.421-2.628m.809-16.208c-.415.169-.68-.028-.809-.34-.172-.418-.421-2.628-.421-2.628s1.39 1.738 1.562 2.152c.13.313.081.638-.332.816m-1.484.791c-.375.251-.674.106-.861-.176-.248-.371-.924-2.495-.924-2.495s1.703 1.437 1.952 1.811c.186.278.203.608-.167.86m-1.305.191c.238.238.317.558.004.879-.318.319-.639.236-.878-.004-.318-.317-1.394-2.269-1.394-2.269s1.949 1.077 2.268 1.394m-1.24 1.319c.281.189.42.483.176.86-.25.375-.581.354-.862.167-.372-.247-1.81-1.952-1.81-1.952s2.124.677 2.496.925m-.957 1.536c.311.13.506.393.338.81-.171.414-.5.46-.812.331-.414-.169-2.155-1.56-2.155-1.56s2.213.247 2.629.419m-16.798-14.459v4.167h-1.094v-3.417c.358-.258.723-.508 1.094-.75m-1.094 46.196v-3.416h1.094v4.166c-.371-.242-.736-.492-1.094-.75"/></svg>