<svg xmlns="http://www.w3.org/2000/svg" viewBox="0 0 64 64" enable-background="new 0 0 64 64"><path d="m14.3 17.25v14.75h11.8z"/><path d="m32 24.625v-10.325h-8.261z"/><path d="m28.968 49.848l-.655-2.014-.654 2.014h-2.118l1.713 1.244-.654 2.013 1.713-1.244 1.712 1.244-.654-2.013 1.713-1.244z"/><path d="m38.324 46.27l-1.711 1.244-1.713-1.244.655 2.013-1.713 1.244h2.116l.655 2.012.654-2.012h2.116l-1.711-1.244z"/><path d="m38.324 39.174l-1.711 1.244-1.713-1.244.655 2.014-1.713 1.244h2.116l.655 2.011.654-2.011h2.116l-1.711-1.244z"/><path d="m45.653 44.477l-1.711 1.244-1.713-1.244.655 2.011-1.713 1.244h2.116l.655 2.014.653-2.014h2.117l-1.712-1.244z"/><path d="m43.287 32.295l.655 2.014.653-2.014h2.117l-1.712-1.244.653-2.012-1.711 1.245-1.713-1.245.655 2.012-1.713 1.244z"/><path d="m49.389 41.068l-.653-2.011-.655 2.011h-2.116l1.713 1.245-.656 2.011 1.714-1.244 1.711 1.244-.653-2.011 1.712-1.245z"/><path d="m51.16 28.946l.653-2.012-1.711 1.244-1.713-1.244.654 2.012-1.713 1.245h2.116l.656 2.011.652-2.011h2.117z"/><path d="m55.579 37.084l-.655-2.014-.653 2.014h-2.119l1.713 1.244-.654 2.012 1.713-1.244 1.711 1.244-.653-2.014 1.711-1.242z"/><path d="m53.211 26.726l1.713-1.245 1.711 1.245-.653-2.013 1.711-1.244h-2.114l-.655-2.013-.653 2.013h-2.119l1.713 1.244z"/><path d="M15.704 14.3 30.033 32 32 32 32 27.141 21.605 14.3z"/><path d="M32,2C15.432,2,2,15.432,2,32c0,16.568,13.432,30,30,30s30-13.432,30-30C62,15.432,48.568,2,32,2z M32,60
		C16.561,60,4,47.439,4,32c0-3.103,0.515-6.085,1.45-8.876V32h5.899V13.113c0.562-0.613,1.149-1.202,1.763-1.763H32v-5.9h-8.875
		C25.916,4.515,28.898,4,32,4c15.439,0,28,12.561,28,28C60,47.439,47.439,60,32,60z"/></svg>