<svg xmlns="http://www.w3.org/2000/svg" viewBox="0 0 64 64" enable-background="new 0 0 64 64"><path d="m32 2c-16.568 0-30 13.432-30 30s13.432 30 30 30 30-13.432 30-30-13.432-30-30-30m-16.105 51.6v-43.2h7.801v43.2h-7.801m16.105 6.4c-5.533 0-10.691-1.619-15.039-4.4h8.734v-47.2h-8.734c4.348-2.78 9.506-4.4 15.039-4.4s10.691 1.62 15.039 4.4h-17.755v47.2h17.755c-4.348 2.781-9.506 4.4-15.039 4.4m5.418-27.645c.31.157 2.514.471 2.514-.29 0-1.823 2.199-.713.506 1.085-.302.135-.719.24-1.178.302.445.109.755.288.755.497 0 .248-.411.461-.997.557.482.097.82.258.82.453 0 .252-.555.455-1.287.516.684.07 1.188.267 1.188.509 0 .215-.399.397-.967.483.625.081 1.066.273 1.066.502 0 .272-.642.488-1.462.525.951.222 1.896.74 1.623.957-.372.021-.741-.008-1.104-.08-.211.199.771 3.946.953 3.285.133-.481.91-.142.747.344-.129.389-1.4.682-1.373.861.046.314.505.52.712.724-.048.048-1.304.978-1.544 1.135.006-.161-1.544-1.145-1.536-1.137.175-.306.636-.2.66-.697-.006.153-2.214-1.373-.972-1.454.278.089.49.26.626.51.344-.784.753-2.471.713-3.275-.388-.234-.789-.443-1.208-.622 0-.372.236-.559.584-.626-.477-.096-.811-.258-.811-.449 0-.215.399-.398.968-.484-.624-.08-1.066-.274-1.066-.501 0-.253.554-.457 1.287-.515-.684-.071-1.188-.27-1.188-.51 0-.221.417-.408 1.008-.493-.487-.107-.829-.294-.829-.517 0-.23.363-.422.881-.527-.75-.137-1.411-.45-1.686-1.053-.477-1.041 1.143-1.896 1.564-1.168.458-3.234-2.125-17.89 3.693-17.585-1.332-.069-1.389 14.877-1.438 15.993-.113 2.516-1.822 2.246-2.249 2.068-.15.257-.412.453.027.677m-7.112 18.571c.903-.908 3.029-.854 4.068-1.631.697-.526 1.331-1.811 1.333-1.816 0 .002-.027.865-.15 1.407-.142.634-.392 1.46-.501 2.093-.123 1.666-.036 3.613-2.197 3.754-.858.055-1.039-.321-1.5-.393-.31-.048-1.037-.057-1.037-.057l.06-.748c.009-.123-1.157-1.538-.076-2.609m4.068-36.221c-1.039-.778-3.165-.722-4.068-1.63-1.081-1.072.085-2.487.075-2.61l-.06-.748c0 0 .728-.009 1.037-.058.461-.071.642-.447 1.5-.392 2.161.142 2.074 2.09 2.197 3.753.109.634.359 1.459.501 2.093.123.542.15 1.404.15 1.408-.001-.003-.635-1.29-1.332-1.816m20.371 25.953c-.797-1.016-.298.284-.97 1.312-1.732 2.658 1.351 1.405 1.351 2.43 0 1.913-2.858.785-2.47 3.157.384 2.336-1.722.646-2.43 1.174-.319.238-4.637-.304-4.637.09 0-3.141 4.404-.482 4.725-3.367.121-1.109-.459-3.289-1.148-4.098-.582-.68-1.911-1.195-3.012-1.925.248.378.401.699.401.912 0 3.54-4.661.919-5.431-.202-.663-.963-1.977-5.459-.51-6.239.51-.271 2.895 2.39 3.794 3.374-.391-.902-.558-1.891-.401-2.889.278-1.771 5.266-6.494 5.089-6.946-.522-1.34-1.154.604-1.446.392-.282-.404-.557-.818-.821-1.234-.129.242-.254.484-.379.728-.232.02-1.475-.28-2.049-.286.046-.146.515-.807.423-.893-.166-.153-1.573.2-1.971.292.076-.993 1.115-1.807 1.749-2.013.642-.208 1.955-.154 2.632.572.044.048-.062.574-.175.778.052.083 2.15.269 2.293.132.545-.517-1.734-3.125-2.054-3.626-.122.261-.209.534-.261.82 0 .227-1.079-.626-1.075-.628-.248.177.132.62.019.809-.724-.505-5.19-5.288-2.021-5.288 1.696 0 .453 2.278 2.981 1.07 1.389-.663 2.546.094 2.539-1.852.92-.18 2.76.826 3.219.626.159-.382.282-.778.362-1.183.675-.325 1.768.733 2.165 1.248.104-.448.254-.704.434-.849 1.469 2.317 2.606 4.862 3.347 7.571-.016.02-.029.046-.047.063-.538.507.48 4.165.207 3.929.2.006.414.016.624.023.133 1.102.209 2.221.209 3.358 0 3.095-.512 6.07-1.443 8.855-1.553.672-2.917.946-3.812-.197"/></svg>