<svg xmlns="http://www.w3.org/2000/svg" viewBox="0 0 64 64" enable-background="new 0 0 64 64"><path d="m32 2c-16.568 0-30 13.432-30 30s13.432 30 30 30 30-13.432 30-30-13.432-30-30-30m-15.578 20.969l1.837.412.904-1.554.241 1.815 1.835.423-1.688.71.229 1.817-1.286-1.377-1.691.699.894-1.56-1.275-1.385m21.664-6.166l1.562.895 1.383-1.276-.411 1.837 1.556.905-1.817.242-.422 1.833-.711-1.688-1.816.229 1.377-1.285-.701-1.692m7.68 14.909c0 0-3.147 4.915-6.95 5.986-3.207.905-5.653-1.517-6.596-1.892-.101-.041-.33-.046-.432-.008-.937.355-3.386 2.809-6.604 1.899-3.802-1.071-6.951-5.986-6.951-5.986s4.604-2.377 8.407-1.303c.773.218 1.448.565 2.041.975-.105-.601-.162-1.239-.162-1.901 0-3.502 3.523-7.315 3.523-7.315s3.523 3.813 3.523 7.315c0 .637-.055 1.25-.152 1.831.57-.378 1.216-.697 1.945-.904 3.804-1.075 8.408 1.303 8.408 1.303m-22.797-15.29l1.385 1.274 1.56-.894-.7 1.692 1.379 1.285-1.818-.229-.709 1.688-.425-1.835-1.815-.24 1.555-.905-.412-1.836m10.544.776l.92 3.002-2.433-1.846-2.43 1.846.916-3.002-2.42-1.861 2.996-.009.938-2.995.937 2.994 2.996.009-2.42 1.862m-5.02 22.669c2.452 0 2.523-1.767 2.523-1.967h1.967c.008.318.165 1.967 2.522 1.967h10.573c-.302.678-.626 1.34-.999 1.967h-9.574c-1.733 0-2.831-.631-3.506-1.412-.675.781-1.771 1.412-3.507 1.412h-9.572c-.373-.627-.698-1.289-.999-1.967h10.572m15.011 3.933c-.536.711-1.131 1.364-1.771 1.967h-19.466c-.641-.603-1.235-1.256-1.771-1.967h23.008m-4.369 3.933c-2.115 1.25-4.547 1.967-7.135 1.967-2.589 0-5.02-.717-7.135-1.967h14.27m8.062-21.82l-1.694-.698-1.282 1.377.229-1.818-1.688-.709 1.836-.425.24-1.815.902 1.556 1.838-.413-1.273 1.385.892 1.56"/></svg>