<svg xmlns="http://www.w3.org/2000/svg" viewBox="0 0 64 64" enable-background="new 0 0 64 64"><path d="m36.809 41.471l-.873 1.562h1.744z"/><path d="m45.842 41.471l-.872 1.562h1.746z"/><path d="m32 2c-16.568 0-30 13.432-30 30s13.432 30 30 30 30-13.432 30-30-13.432-30-30-30m-18.979 25.039v-15.602c3.513-3.244 7.855-5.598 12.67-6.711v22.313h12.67v-22.301c.211.049.425.092.634.146v22.788h-34.659c.033-.213.075-.423.113-.634h8.572zm39.344 12.924l-1.429-1.037-1.429 1.037.546-1.681-1.429-1.037h1.767l.545-1.681.546 1.681h1.767l-1.429 1.037.545 1.681m-22.964-2.718h1.767l.546-1.681.546 1.681h1.767l-1.429 1.037.545 1.681-1.429-1.037-1.429 1.037.545-1.681-1.429-1.037m7.408 1.329l3.185 4.98v-8.28h-4.24l-1.493-2.374h14.128l-1.49 2.374h-4.241v1.448h3.328l-1.417 2.259h-1.911v4.573l3.185-4.98 4.285 6.833h-2.086l-.421-.753h-3.554l-2.74 4.923-2.742-4.923h-3.555l-.421.753h-2.084l4.284-6.833m11.157 13.085l-1.429-1.037-1.43 1.037.546-1.681-1.429-1.037h1.767l.546-1.681.545 1.681h1.768l-1.43 1.037.546 1.681m-5.211 3.937l-1.429-1.037-1.431 1.037.548-1.68-1.432-1.037h1.768l.547-1.681.546 1.681h1.767l-1.431 1.037.547 1.68m-5.21-3.937l-1.431-1.037-1.429 1.037.545-1.681-1.429-1.037h1.767l.546-1.681.547 1.681h1.765l-1.429 1.037.548 1.681"/></svg>