<svg xmlns="http://www.w3.org/2000/svg" viewBox="0 0 64 64" enable-background="new 0 0 64 64"><path d="m32 2c-16.568 0-30 13.432-30 30s13.432 30 30 30 30-13.432 30-30-13.432-30-30-30m28 30c0 1.336-.1 2.647-.281 3.934h-55.438c-.181-1.287-.281-2.598-.281-3.934s.1-2.647.281-3.934h55.438c.181 1.287.281 2.598.281 3.934m-49.633 11.609l2.427-.265-1.528-1.903 2.343.682-.684-2.343 1.903 1.528.266-2.426 1.173 2.14 1.174-2.14.265 2.426 1.903-1.528-.686 2.343 2.343-.682-1.526 1.903 2.428.265-2.142 1.174 2.142 1.172-2.428.265 1.526 1.905-2.343-.686.686 2.345-1.903-1.528-.265 2.428-1.174-2.142-1.173 2.142-.266-2.428-1.903 1.528.684-2.345-2.343.686 1.528-1.905-2.427-.265 2.141-1.172-2.141-1.174"/></svg>