<svg xmlns="http://www.w3.org/2000/svg" viewBox="0 0 64 64" enable-background="new 0 0 64 64"><path d="m17.616 16.454c-.017-.033-.036-.064-.051-.099-.021.048-.053.09-.086.13.026.006.052.012.078.018.01-.018.031-.034.059-.049"/><path d="m20.94 16.463c-.026-.034-.054-.068-.072-.108-.014.032-.032.061-.047.092.017.011.036.022.043.035.026-.006.051-.013.076-.019"/><ellipse transform="matrix(-.1282-.9917.9917-.1282-8.1717 44.088)" cx="15.291" cy="25.635" rx="1.618" ry=".352"/><ellipse transform="matrix(-.2767-.961.961-.2767-10.0596 44.129)" cx="11.578" cy="25.85" rx="1.618" ry=".352"/><ellipse transform="matrix(.1281-.9918.9918.1281-5.2465 45.3032)" cx="23.142" cy="25.635" rx="1.618" ry=".352"/><ellipse transform="matrix(.2766-.961.961.2766-5.4139 44.509)" cx="26.856" cy="25.85" rx="1.618" ry=".353"/><ellipse cx="19.217" cy="25.539" rx=".369" ry="1.689"/><path d="m32 2c-16.568 0-30 13.432-30 30s13.432 30 30 30 30-13.432 30-30-13.432-30-30-30m-2.397 16.784c0 .289-.232.524-.519.524s-.519-.235-.519-.524c0-.29.232-.524.519-.524s.519.234.519.524m-.32-1.141c0 .29-.232.524-.518.524-.286 0-.519-.234-.519-.524s.232-.524.519-.524c.286 0 .518.234.518.524m-1.18-1.496c.286 0 .517.235.517.525 0 .289-.23.524-.517.524-.287 0-.52-.235-.52-.524 0-.289.233-.525.52-.525m-.935-.695c.287 0 .52.234.52.525 0 .289-.232.524-.52.524-.286 0-.519-.235-.519-.524 0-.29.233-.525.519-.525m-1.109-.385c.286 0 .519.235.519.525 0 .289-.232.524-.519.524-.285 0-.518-.235-.518-.524 0-.289.232-.525.518-.525m-1.163-.066c.286 0 .519.235.519.524 0 .29-.232.525-.519.525-.287 0-.519-.235-.519-.525 0-.289.232-.524.519-.524m-10.172.118c.287 0 .518.235.518.524 0 .198-.112.365-.272.455.183.002.351.013.514.025-.053-.082-.091-.174-.091-.279 0-.29.232-.525.519-.525.286 0 .518.235.518.525 0 .148-.062.281-.159.376.114.021.225.043.333.066-.013-.046-.028-.092-.028-.143 0-.29.232-.524.519-.524.134 0 .254.055.346.139-.001-.03-.009-.058-.009-.088 0-.162.024-.317.063-.466.152-.565.574-1.019 1.121-1.216l-.278-.521.753-1.407c-.255-.05-.457-.245-.519-.497l-1.105.704-1.39-.882 1.39-.881 1.116.709c.073-.241.275-.424.528-.465l-.773-1.444.882-1.651.881 1.651-.773 1.444c.252.041.455.225.528.465l1.116-.709 1.391.881-1.391.882-1.105-.704c-.061.252-.264.447-.52.497l.754 1.407-.277.521c.545.197.968.65 1.121 1.216.039.149.063.304.063.466 0 .03-.007.058-.009.088.092-.084.212-.139.346-.139.286 0 .518.234.518.524 0 .033-.013.063-.019.094.095-.022.188-.047.287-.067-.073-.09-.122-.201-.122-.327 0-.29.232-.525.518-.525.286 0 .519.235.519.525 0 .073-.015.141-.041.204.114-.01.238-.015.362-.02-.104-.096-.171-.231-.171-.385 0-.289.231-.524.519-.524.286 0 .519.235.519.524 0 .152-.066.287-.169.383 3.329.116 4.348 1.61 4.606 3.631.095-.128.238-.216.408-.216.285 0 .518.234.518.524s-.232.525-.518.525c-.135 0-.256-.055-.349-.142.004.091.01.182.013.274.037-.009.072-.023.112-.023.287 0 .519.234.519.525 0 .289-.231.524-.519.524-.007 0-.012-.003-.019-.004.066.277.152.543.194.667-.479-.727-1.106-1.13-1.774-1.13-.816 0-1.544.604-2.008 1.539-.463-.935-1.189-1.539-2.007-1.539-.064 0-.125.027-.188.035-.123-.094-.242-.194-.354-.306-1.125-1.125-1.322-2.826-.595-4.155-.146.1-.287.21-.417.341-1.106 1.106-1.106 2.901 0 4.007.168.168.356.305.551.421-.397.268-.748.672-1.009 1.196-.383-.772-.952-1.298-1.598-1.463.417-.164.715-.566.715-1.041 0-.49-.317-.895-.755-1.049.36-.146.615-.497.615-.909 0-.435-.287-.792-.679-.922.254-.117.433-.371.433-.668 0-.407-.329-.737-.737-.737s-.738.33-.738.737c0 .298.179.552.434.668-.392.129-.679.487-.679.922 0 .412.255.763.615.909-.438.154-.755.56-.755 1.049 0 .475.297.877.714 1.041-.646.166-1.215.69-1.601 1.463-.26-.524-.61-.928-1.007-1.196.196-.117.383-.252.552-.421 1.106-1.106 1.106-2.901 0-4.007-.13-.13-.271-.241-.417-.341.727 1.329.53 3.03-.596 4.155-.112.112-.231.213-.354.306-.064-.008-.124-.035-.189-.035-.816 0-1.543.604-2.007 1.539-.463-.935-1.191-1.539-2.007-1.539-.655 0-1.27.392-1.745 1.092.067-.139.185-.39.273-.65-.042.011-.082.026-.127.026-.286 0-.519-.235-.519-.524 0-.291.232-.525.519-.525.086 0 .164.026.235.064 0-.159.001-.316.003-.471-.084.174-.257.297-.462.297-.286 0-.518-.235-.518-.525s.231-.524.518-.524c.213 0 .395.13.475.315.087-2.045.696-3.558 4.653-3.653-.166-.087-.283-.258-.283-.461-.005-.287.228-.522.514-.522m14.326 7.267l-1.908 6.664h-.059c0 .544-3.522.983-7.867.983-4.345 0-7.867-.439-7.867-.983h-.059l-1.908-6.664c0 0 .013-.024.025-.049.251-.082 3.258-.99 3.258 2.78h1.051c0-1.3.664-2.36 1.479-2.36.819 0 1.487 1.06 1.487 2.36h1.051c0-1.3.663-2.36 1.482-2.36.816 0 1.481 1.06 1.481 2.36h1.052c0-1.3.667-2.36 1.485-2.36.817 0 1.48 1.06 1.48 2.36h1.05c0-3.829 3.102-2.833 3.269-2.777.01.022.018.046.018.046m-15.512-7.385c.286 0 .519.235.519.524 0 .29-.232.525-.519.525s-.519-.235-.519-.525c0-.289.232-.524.519-.524m-1.164.066c.286 0 .519.235.519.525 0 .289-.232.524-.519.524-.285 0-.518-.235-.518-.524 0-.289.232-.525.518-.525m-1.108.385c.286 0 .519.234.519.525 0 .289-.232.524-.519.524-.287 0-.52-.235-.52-.524 0-.29.233-.525.52-.525m-.936.695c.287 0 .52.235.52.525 0 .289-.232.524-.52.524-.286 0-.517-.235-.517-.524 0-.289.231-.525.517-.525m-.663.972c.286 0 .519.234.519.524s-.232.524-.519.524c-.285 0-.518-.234-.518-.524s.233-.524.518-.524m-.318 1.14c.286 0 .519.234.519.524 0 .289-.232.524-.519.524s-.519-.234-.519-.523c0-.29.233-.525.519-.525m-5.349 14.741v-2h56v2h-56"/></svg>