<svg xmlns="http://www.w3.org/2000/svg" viewBox="0 0 64 64" enable-background="new 0 0 64 64"><path d="m32 2c-16.568 0-30 13.432-30 30s13.432 30 30 30 30-13.432 30-30-13.432-30-30-30m10.202 20.436c-1.798 0-3.259-1.462-3.259-3.26 0-1.796 1.461-3.258 3.259-3.258 1.796 0 3.259 1.462 3.259 3.258 0 1.797-1.463 3.26-3.259 3.26m.486.701l-.486 8.341-.488-8.341c.162.02.321.049.488.049s.325-.029.486-.049m5.378-14.048l-3.46 6.898c-.259-.196-.533-.372-.835-.501l4.235-6.44c.021.015.041.029.06.043m2.335 1.834c.02.017.04.034.06.051l-5.114 5.746c-.201-.257-.431-.487-.688-.689l5.742-5.108m-5.037-3.522l-1.663 8.061c-.298-.121-.616-.195-.945-.241l2.598-7.827c.003.002.006.005.01.007m-2.676 7.813c-.161-.02-.319-.049-.486-.049s-.326.029-.488.049l.488-8.34.486 8.34m-11.141-2.189l7.465 3.747c-.195.259-.371.533-.5.835l-6.965-4.582m6.941 4.652c-.121.298-.194.616-.24.943l-7.929-2.628 8.169 1.685m-4.986-7.2l6.241 5.553c-.257.202-.487.432-.688.688l-5.553-6.241m2.549-1.955l4.582 6.964c-.303.129-.578.305-.837.501l-3.745-7.465m2.967-1.229l2.629 7.928c-.328.046-.646.12-.943.241l-1.686-8.169m-.778 11.395c-.02.161-.049.32-.049.487 0 .167.029.327.05.489l-8.343-.489 8.342-.487m.008 1.044c.046.328.12.646.24.943l-8.169 1.684 7.929-2.627m.265 1.013c.129.302.304.577.5.835l-7.466 3.747 6.966-4.582m.543.888c.201.257.432.487.688.688l-6.242 5.554 5.554-6.242m.741.732c.259.196.533.372.836.501l-4.582 6.964 3.746-7.465m.906.525c.297.121.615.194.943.241l-2.629 7.93 1.686-8.171m2.998 0l1.686 8.17-2.631-7.93c.329-.046.647-.12.945-.24m.07-.024c.302-.129.577-.305.835-.501l3.746 7.466-4.581-6.965m.887-.545c.257-.201.486-.431.688-.688l5.557 6.243-6.245-5.555m.732-.741c.195-.259.371-.533.5-.836l6.966 4.583-7.466-3.747m.523-.905c.121-.298.194-.616.241-.944l7.931 2.628-8.172-1.684m.001-2.998l8.171-1.685-7.931 2.629c-.046-.328-.12-.646-.24-.944m.246 1.988c.021-.163.05-.322.05-.489 0-.167-.029-.326-.05-.487l8.344.487-8.344.489m-.269-2.057c-.129-.303-.305-.577-.5-.836l7.27-3.649c.006.006.012.012.018.019l-6.788 4.466m9.894 29.142h-47.57c-2.668-4.287-4.215-9.34-4.215-14.75h56c0 5.41-1.547 10.463-4.215 14.75"/></svg>