<svg xmlns="http://www.w3.org/2000/svg" viewBox="0 0 64 64" enable-background="new 0 0 64 64"><path d="M32,2C15.432,2,2,15.432,2,32s13.432,30,30,30s30-13.432,30-30S48.568,2,32,2z M32,4c11.98,0,22.223,7.564,26.213,18.167
	h-22.1L32,8.975l-4.116,13.191H5.787C9.777,11.564,20.02,4,32,4z M32,39.676l-9.687,7.354l3.659-11.959l-9.72-7.489h12.036
	L32,15.692l3.707,11.89h12.039l-9.727,7.489l3.665,11.958L32,39.676z M32,60C20.02,60,9.777,52.436,5.787,41.834h16.024
	l-3.223,10.535L32,42.188l13.413,10.184l-3.229-10.537h16.029C54.223,52.436,43.98,60,32,60z"/></svg>