<svg xmlns="http://www.w3.org/2000/svg" viewBox="0 0 64 64" enable-background="new 0 0 64 64"><path d="m32 23.15c-5.423 0-9.833 4.412-9.833 9.833 0 1.907.554 3.683 1.498 5.191.675-.184 1.311-.378 1.992-.56-.953-1.302-1.522-2.899-1.522-4.632 0-4.339 3.529-7.867 7.867-7.867 4.338 0 7.867 3.528 7.867 7.867 0 1.869-.658 3.586-1.752 4.938.648.188 1.303.374 2.051.534 1.052-1.566 1.668-3.448 1.668-5.472-.002-5.42-4.414-9.832-9.836-9.832"/><path d="m32 2c-16.568 0-30 13.432-30 30s13.432 30 30 30 30-13.432 30-30-13.432-30-30-30m9.503 56.337c-3.708-.496-4.774-1.759-10.188-1.759-4.913 0-6.266 1.034-9.247 1.596-2.407-.916-4.656-2.152-6.694-3.661.722.067 1.539.108 2.494.108 6.737 0 6.737-1.955 13.474-1.955 6.734 0 6.734 1.955 13.469 1.955 1.748 0 3.031-.135 4.108-.33-2.234 1.7-4.73 3.074-7.416 4.046m3.28-7.669c-6.734 0-6.734-1.957-13.469-1.957-6.733 0-6.733 1.957-13.466 1.957-4.03 0-5.657-.698-7.754-1.26-1.104-1.386-2.079-2.878-2.908-4.459 4.098.445 5.048 1.805 10.682 1.805 6.737 0 6.737-1.955 13.474-1.955 6.734 0 6.734 1.955 13.469 1.955 6.226 0 6.706-1.668 12.063-1.92-.769 1.483-1.664 2.89-2.676 4.204-3.102.555-4.407 1.63-9.415 1.63m13.475-9.824c-6.737 0-6.737 1.957-13.475 1.957-6.734 0-6.734-1.957-13.469-1.957-6.733 0-6.733 1.957-13.466 1.957-6.356 0-6.72-1.74-12.402-1.937-.426-1.272-.762-2.585-1.002-3.931 6.686.009 6.706 1.953 13.424 1.953.793 0 1.487-.028 2.115-.076l.499-.56-4.166-.034 3.352-2.46-4.068-.893 3.792-1.713-3.792-1.713 4.067-.893-3.351-2.461 4.166-.032-2.764-3.101 4.082.831-2.055-3.604 3.819 1.656-1.257-3.95 3.389 2.41-.404-4.125 2.813 3.059.466-4.118 2.111 3.573 1.318-3.932 1.317 3.932 2.11-3.573.468 4.118 2.81-3.059-.402 4.124 3.389-2.41-1.256 3.952 3.818-1.658-2.055 3.605 4.082-.831-2.766 3.101 4.167.03-3.352 2.463 4.069.891-3.795 1.716 3.795 1.713-4.069.894 3.353 2.46-4.168.032.558.624c.242.006.476.014.737.014 6.733 0 6.733-1.955 13.466-1.955.458 0 .877.012 1.274.029-.238 1.331-.571 2.629-.992 3.889-.101-.002-.194-.007-.3-.007m-19.375-26.634c0 0-3.081 1.073-6.883 1.073s-6.883-1.073-6.883-1.073 2.563-.888 5.896-1.047c-1.138-.363-2.946-.786-5.21-.786-5.388 0-6.724-4.087-4.717-2.712 1.511 1.033 1.369 1.414 7.151 1.414 2.082 0 3.188.338 3.764.77.575-.432 1.682-.77 3.762-.77 5.783 0 5.642-.38 7.152-1.414 2.008-1.375.671 2.712-4.717 2.712-2.265 0-4.072.422-5.21.786 3.331.159 5.895 1.047 5.895 1.047"/></svg>