<svg xmlns="http://www.w3.org/2000/svg" viewBox="0 0 64 64" enable-background="new 0 0 64 64"><path d="m32 2c-16.568 0-30 13.432-30 30s13.432 30 30 30 30-13.432 30-30-13.432-30-30-30m-11.088 55.705c-2.097-.907-4.061-2.064-5.855-3.433l44.712-25.813c.147 1.161.231 2.341.231 3.541 0 1.1-.07 2.184-.195 3.25l-38.893 22.455m-16.912-25.705c0-1.1.07-2.183.195-3.25l38.894-22.456c2.096.908 4.06 2.064 5.854 3.433l-44.712 25.814c-.147-1.161-.231-2.341-.231-3.541m35.355-12.285l3.428 3.159 3.866-2.214-1.733 4.193 3.412 3.182-4.501-.57-1.755 4.181-1.048-4.545-4.499-.596 3.852-2.241-1.022-4.549m-21.67 12.513l3.429 3.158 3.865-2.214-1.733 4.192 3.411 3.183-4.498-.569-1.757 4.181-1.05-4.545-4.497-.595 3.85-2.243-1.02-4.548"/></svg>