<svg xmlns="http://www.w3.org/2000/svg" viewBox="0 0 64 64" enable-background="new 0 0 64 64"><path d="m13.849 34.344c-.264 0-.478.213-.478.476s.214.477.478.477c.262 0 .475-.214.475-.477s-.214-.476-.475-.476m0 .753c-.153 0-.278-.125-.278-.277s.125-.276.278-.276c.151 0 .275.124.275.276s-.124.277-.275.277"/><path d="m15.432 34.451c-.262 0-.475.212-.475.474 0 .263.213.477.475.477.263 0 .476-.214.476-.477-.001-.262-.214-.474-.476-.474m0 .751c-.151 0-.275-.125-.275-.277 0-.151.124-.274.275-.274.152 0 .276.123.276.274 0 .152-.124.277-.276.277"/><path d="m9.531 24.391c-.215 0-.39.175-.39.39 0 .216.175.392.39.392.214 0 .388-.176.388-.392 0-.216-.174-.39-.388-.39m0 .582c-.104 0-.19-.087-.19-.192 0-.104.086-.19.19-.19.104 0 .188.086.188.19.001.107-.082.192-.188.192"/><path d="m32 2c-16.568 0-30 13.432-30 30s13.432 30 30 30 30-13.432 30-30-13.432-30-30-30m27.375 24.124h-30.378l-7.914-7.914h35.271c1.384 2.436 2.417 5.096 3.021 7.914m-40.837-18.667h26.924c3.859 2.125 7.165 5.135 9.646 8.753h-36.025l-5.379-5.379c1.485-1.285 3.103-2.42 4.834-3.374m-14.538 24.543c0-.842.044-1.673.117-2.496l4.527 3.8c-.306.615-.574 1.209-.574 1.854 0 .169.105.471.354.527.045.232.152.761.271 1.346l-.721 3.459 1.839-1.051h7.422l1.838 1.051-.219-1.051h.087c.046 0 .085-.03.097-.074l1.176-4.548c0 0 0 0 0-.001l.337-1.304c.312.038.533.063.626.074.04 0 .083-.018.102-.057.019-.038.011-.084-.02-.114-.101-.1-.721-.576-1.551-1.202l3.281-2.756-6.237-1.049-3.227-6.543-1.628 3.301c-.078-.13-.149-.248-.203-.329-.395-.602-1.044-1.317-1.901-1.317-.837 0-1.398.467-1.669 1.388-.233.105-.866.536-.841 1.003.001.027.015.053.035.071.021.018.041.022.077.022.017-.003.041-.007.071-.013.344-.061 1.383-.248 1.77 1.018.137.446.228.978.283 1.53l-5.399.908c.549-6.035 3.021-11.521 6.796-15.842l18.394 18.395-18.394 18.394c-4.302-4.924-6.916-11.358-6.916-18.394m5.75-3.189c.387-.184 2.62-1.246 3.181-1.475.12.124.495.481 1.384 1.125 1.078.775 5.426 4 6.551 4.887-1.237-.146-5.122-.636-6.606-1.145-1.673-.572-1.815-.65-2.483-2.103-.023-.05-.081-.071-.133-.049-.05.023-.072.082-.049.133.683 1.483.906 1.625 2.511 2.177-.136.594-1.433 1.354-1.97 1.518-.062.023-.104.047-.161.07h-.001c-.028 0-.053.013-.071.031-1.343.564-1.512 1.187-1.518 1.417-.353.016-.748.035-1.091.054-.043-.076-.123-.276-.032-.618.034-.128.19-.347.371-.6.485-.68 1.219-1.708 1.219-3.024 0-.056-.044-.1-.1-.1s-.1.044-.1.1c0 1.253-.712 2.249-1.182 2.908-.208.291-.358.502-.402.665-.087.324-.038.544.017.68-.31.017-.541.03-.575.032-.17-.001-.239-.238-.239-.337 0-.665.301-1.265.648-1.959.179-.355.363-.724.52-1.13.299-.769.401-2.041.311-3.257m-.021-.212c-.056-.591-.152-1.164-.301-1.648-.285-.932-.938-1.322-1.932-1.166.094-.344.643-.68.737-.705.034-.009.061-.036.07-.07.241-.867.728-1.29 1.489-1.29.768 0 1.367.668 1.733 1.228.292.445 1.063 1.819 1.287 2.221-.607.254-2.563 1.183-3.083 1.43m1.669 10.64h-2.044c-.098-.479-.604-2.932-.725-3.552.403-.023 1.784-.1 2.361-.111.016.268.04.569.071.885.109 1.121.284 2.396.337 2.778m-.11-2.533l.562.511c-.236-.002-.411-.002-.506-.002-.02-.17-.038-.339-.056-.509m.077.708c.282 0 1.123.003 2.24.035l3.994.229c.554.051 1.101.111 1.621.184l-.355 1.378h-7.265c-.032-.232-.136-.982-.235-1.826m.979-.192l.618-.617.623.644c-.471-.014-.89-.022-1.241-.027m1.736.042l.675-.599.622.655c-.451-.023-.888-.042-1.297-.056m1.8.084l.698-.575.57.665c-.425-.036-.851-.065-1.268-.09m1.765.133l.697-.534.796.702c-.483-.065-.985-.121-1.493-.168m.768-.738c-.037-.032-.09-.032-.127-.004l-.889.681-.731-.853c-.036-.039-.097-.047-.14-.012l-.897.739-.796-.838c-.037-.04-.098-.042-.139-.006l-.862.765-.797-.823c-.02-.02-.045-.03-.071-.03h-.001c-.026 0-.052.01-.07.029l-.787.787-.848-.771c-.022-.239-.043-.473-.058-.686l.749.713c.038.036.097.037.135.003l.913-.797.782.835c.036.038.097.042.138.008l.909-.771.779.879c.037.04.098.044.14.01l.896-.761.709.825c.036.04.093.047.135.016l.902-.652 1.049.997-.13.504-.893-.787m-7.077-1.169c.312.002.808.007 1.41.021l-.725.632-.685-.653m1.904.035c.416.013.865.029 1.337.053l-.717.608-.62-.661m1.832.08c.437.025.883.056 1.33.093l-.712.604-.618-.697m1.82.137c.423.04.84.086 1.242.141l-.691.5-.551-.641m1.806.223c.333.053.65.112.945.179l-.149.577-.796-.756m-2.036-.445c-.001 0-.002 0-.003 0-.609-.055-1.224-.096-1.812-.127-.004-.001-.006-.001-.01-.001-1.726-.092-3.228-.101-3.713-.101-.121 0-.317.006-.541.015.013-.179.176-.726 1.429-1.241.39.005 4.598.059 7.98.727l-.3 1.158c-.873-.196-1.941-.334-3.03-.43m-4.182-1.647c.19-.085.42-.205.654-.351.113.004.501.016.9.018.001 0 .002.001.002.001.001 0 .002-.001.004-.001.036 0 .072.001.109.001.355 0 .69-.01.803-.042.448-.128.759-.399.915-.781 1.508.296 3.396.55 4.483.686l-.309 1.194c-2.85-.566-6.289-.696-7.561-.725m2.325-1.2l-.426.426c-.168.128-.314.214-.363.241-.195-.002-.397-.005-.589-.01.418-.295.774-.65.864-.993.178.058.38.114.607.17-.025.057-.055.112-.093.166m.291-.12c.182.042.367.084.568.125-.172.376-.502.554-.767.629-.067.02-.26.028-.505.031.249-.173.571-.453.704-.785m30.366 23.906h-26.924c-1.732-.954-3.35-2.09-4.835-3.375l5.379-5.378h36.025c-2.48 3.618-5.786 6.628-9.645 8.753m10.892-10.753h-35.272l7.914-7.914h30.379c-.604 2.818-1.637 5.478-3.021 7.914"/></svg>