<svg xmlns="http://www.w3.org/2000/svg" viewBox="0 0 64 64" enable-background="new 0 0 64 64"><path d="m32 2c-16.568 0-30 13.432-30 30s13.432 30 30 30 30-13.432 30-30-13.432-30-30-30m-26.55 30h-1.45c0-3.102.515-6.084 1.45-8.875v8.875m26.55-19.667v1.966h-8.26l8.26 10.326v2.516l-10.396-12.842h-5.9l14.329 17.701h-3.933l-11.8-14.75v14.75h-1.967-.983v-18.887c.562-.613 1.15-1.202 1.764-1.763h18.886v.983m0-6.883h-8.874c2.79-.935 5.772-1.45 8.874-1.45v1.45m22.394 39.991c-.497.25-3.553 3.943-9.804 4.121-6.359-.107-9.842-4.157-9.842-4.157s-.853 1.351-2.061.286c-1.172-1.387-.284-2.273-.284-2.273s.995-.569 1.279-.961c.463-.532.604-1.242 1.387-1.242.922.068 1.278.816 1.278.816s3.196 3.374 6.644 3.801c-7.78-3.73-8.064-6.041-8.029-6.607l.036-16.911 19.148-.071-.035 17.053c0 0 .674 2.593-8.029 6.536 3.126-.319 6.537-3.659 6.537-3.659s1.385-1.776 2.059-.782c.677.995 1.316 1.492 1.813 1.883.497.392.888 1.457.142 2.239s-1.918.889-2.239-.072"/><path d="m46.541 30.143c-.052-.097-.101-.203-.146-.313 0 .124-.022.234-.096.32-.201.233-.131 1.097-.084 1.745.264-.563.65-1.149.326-1.752"/><path d="m53.72 39.082v-16.413l-18.261.107-.071 16.269c.036 2.311 3.377 4.122 9.167 7.106 5.612-2.77 9.199-4.936 9.165-7.069m-5.101-15.491l.358 1.054-.247.609h-.344l.233-1.663m1.145 4.671c.382-.665.881.432 1.53.058.185-.106.899-.54 1.055-.198.109.486-.568.382-.612.689-.053.386-.361.213-.012-.24l.384-.329c-.642.039-.716.845-1.381.936.123.092.181.208.175.35-.557-.002-1.116-.004-1.671-.004 0-.636.075-.144-.338-.686-.367-.037-.632-.129-.735-.475.327.001 1.456.157 1.605-.101m-1.479.092l.231-1.662.357 1.053-.247.609h-.341m2.46 7.113c.122.092.181.207.173.35-.558-.002-1.114-.004-1.671-.006 0-.546-.093-.537-.717-.764-.236-.086-.292-.188-.355-.396.352 0 .705 0 1.057 0 .503 0 .519-.377.894-.393.332.004.253.389.535.389.187.002.392.024.578.004.211-.023.842-.572 1.079-.297-.012-.052-.007-.066.048.057.043.189.018.143-.012.063-.065.277-.804.895-.852.855-.216-.17.586-.805.624-.797-.642.035-.717.842-1.381.935m-1.886 1.683l-.248.609h-.341l.23-1.662.359 1.053m-.557-2.507l.23-1.664.361 1.054-.25.609h-.341zm.077-4.781l.359 1.055-.248.609h-.342l.231-1.664m-10.945-6.322l.359 1.054-.248.609h-.344l.233-1.663m1.244 1.57c.387-.668.882.432 1.533.058.184-.105.898-.54 1.054-.198.107.486-.568.382-.612.689-.054.388-.357.209-.012-.242l.383-.327c-.641.039-.715.843-1.38.935.123.092.183.208.173.35-.555-.002-1.113-.004-1.671-.004-.003-.636.077-.142-.338-.686-.366-.035-.63-.128-.733-.476.327.001 1.457.159 1.603-.099m-.946 2.643l-.247.609h-.344l.232-1.663.359 1.054m.888.517c.384-.666.882.433 1.53.056.185-.106.899-.538 1.055-.196.109.484-.57.382-.612.689-.054.388-.357.209-.01-.242l.382-.327c-.641.037-.716.843-1.381.936.125.092.183.208.175.35-.557-.004-1.113-.004-1.671-.006-.006-.636.077-.14-.338-.684-.367-.036-.632-.13-.733-.476.328 0 1.458.155 1.603-.1m-.91 2.594l-.25.609h-.342l.23-1.661.362 1.052m.886.519c.384-.666.883.432 1.532.058.183-.107.898-.542 1.055-.198.107.484-.571.382-.613.688-.058.392-.356.209-.011-.24l.382-.329c-.642.041-.715.845-1.381.938.125.09.183.207.175.348-.557-.002-1.114-.004-1.671-.004 0-.634.077-.144-.338-.684-.367-.036-.63-.128-.733-.476.327-.001 1.456.157 1.603-.101m1.156 2.853l-.248.609h-.344l.232-1.661.36 1.052m-2.668 1.706l.359 1.053-.248.608h-.344l.233-1.661m1.246 1.57c.383-.666.882.432 1.531.058.184-.108.898-.542 1.054-.198.108.484-.57.383-.612.689-.058.393-.357.209-.012-.24l.385-.328c-.643.039-.717.844-1.381.936.122.09.18.207.174.348-.557 0-1.115-.002-1.67-.004-.006-.634.072-.141-.341-.686-.364-.035-.63-.129-.733-.475.328-.001 1.458.156 1.605-.1m-.828 2.742l-.247.607h-.342l.23-1.66.359 1.053m3.308.765c-.29.223-.318.247-.521.521-.139.185-.199-.264.063-.461 0 0 .524-.307.382-.328-.641.04-.714.845-1.381.936.123.092.183.207.175.35-.557-.002-1.113-.004-1.671-.004-.004-.544-.092-.538-.716-.766-.236-.084-.294-.186-.357-.395.495 0 1.067.076 1.554 0 .264-.041.219-.732.668-.227.258.291.329.223.736.227.058-.001 2.007-.575 1.068.147m6.689.695c-.286.01-.253.155-.517.144-.033 0-.068-.005-.102-.007l.038.021c0 0 .183.268-.315.886-.495.618-.933-.388-.933-.388l-.05-.105c-.033.094-.133.141-.461.021-.183-.065-.137-.823-.53-.593.058-.031.282.261.056.438-.217.17-.335.032-.474-.107l.08.092c0 0-1.176.618-1.347.668-.159.045-.399-.612-.265-.68-.015.001 0-.008.028-.021-.157-.009-.272-.063-.272-.222 0-1.035.276-1.999.271-3.117-.002-.178-.002-.355-.004-.533 0-.098-.276-.053-.263-.256.03-.501.1-1 .159-1.498.049-.416.107-.824.168-1.232-.268.188-.541.326-.435.117l.48-.446c.007-.042.015-.085.021-.126-.505.146-.624.818-1.231.902.123.09.183.207.175.348-.557 0-1.113-.002-1.671-.004-.003-.543-.092-.536-.716-.763-.236-.087-.294-.188-.355-.397.35 0 .703 0 1.055 0 .494 0 .525-.369.884-.387-.056.001-.11.001.009-.003.082 0 .054.001.012.002.417.015.578.689 1.178.345.076-.045.421-.199.701-.259.07-.427.144-.852.229-1.28h-.191c-.116-.734.374-1.741.564-2.629-.292.556-1.102 1.007-1.583 1.361-.543.397-.076.526-.272 1.03-.267.695-.837 1.354-.847.131-.008-.704.533-1.136.883-1.708.306-.503 1.245-1.249 1.318-1.798.029-.225.048-.495.078-.772-.032-.128-.02-.264.06-.415.087-.477.255-.92.638-1.147.162-.29.368-.534.723-.592.021.041.042.062.063.094.09-.253.082-.478-.238-.587-.32-.111-.396-.647-.443-.901-.026-.173.381-.43.268-.799-.003-.027.01-.044.01-.069-.016 0-.031-.005-.047-.004-.485-.932 3.107-1.41 2.253 1.465-.146.497-.41.265-.743-.148.023.312.075.602.19.907.468.021.713.384.995.75.184.241.184.371.104.47.018-.006.028-.017.047-.022.528 0 .628 3.167.39 3.522-.386.572-.68 1.156-1.008 1.761-.029.052-.035.107-.051.161.028.42.084.813.187 1.277.396 1.771.729 3.275 1.2 4.905.129.442-.046.907.061 1.281.118.437.445.893-.212.916m-3.124-14.967c-.082.014-.158.026 0 0m3.646 4.786c.328 0 1.458.156 1.604-.1.385-.668.882.432 1.533.056.182-.106.898-.54 1.052-.198.109.486-.566.382-.612.689-.054.388-.355.209-.01-.24l.383-.329c-.643.039-.715.845-1.381.938.124.09.182.208.174.348-.557-.002-1.113-.004-1.671-.004-.003-.636.077-.142-.338-.686-.366-.036-.63-.129-.734-.474m1.673 6.235c.263-.041.217-.732.666-.225.258.289.331.223.737.225.059 0 2.006-.572 1.066.147-.29.223-.316.249-.521.521-.138.186-.198-.262.063-.459 0 0 .526-.308.384-.328-.642.038-.716.843-1.381.935.123.093.181.208.175.35-.557-.002-1.115-.004-1.671-.005-.006-.545-.092-.537-.718-.764-.236-.086-.292-.188-.355-.396.499-.001 1.068.075 1.555-.001m-.82 2.519l-.247.606h-.342l.231-1.661.358 1.055m3.308.762c-.29.223-.317.25-.521.523-.139.184-.2-.264.063-.461 0 0 .525-.307.384-.329-.642.038-.716.845-1.381.936.123.092.181.209.175.35-.557-.002-1.116-.004-1.671-.006 0-.544-.095-.536-.718-.763-.236-.084-.293-.186-.355-.396.497 0 1.065.075 1.554 0 .263-.042.217-.733.666-.227.257.292.33.223.735.227.06 0 2.008-.574 1.069.146m-.344-15.338c-.054.388-.355.209-.012-.242l.384-.327c-.642.037-.716.843-1.381.936.125.09.183.207.175.349-.557-.002-1.113-.003-1.671-.005-.004-.636.077-.142-.338-.684-.366-.036-.63-.13-.733-.476.328 0 1.457.156 1.604-.1.384-.665.882.432 1.532.058.183-.107.897-.542 1.053-.198.109.484-.569.382-.613.689"/></svg>