<svg xmlns="http://www.w3.org/2000/svg" viewBox="0 0 64 64" enable-background="new 0 0 64 64"><path d="m34.95 32.607v.017c-.31-.195-.647-.377-1.055-.527-1.037-.381-2.988-.806-2.142-4.175.72-.292 1.229-.996 1.229-1.821 0-1.086-.882-1.967-1.967-1.967-1.087 0-1.967.88-1.967 1.967l-1.967.983h2.239c.15.258.351.483.598.649-.697 1.71-2.158 6.31 1.62 7.594l.133 1.59c-.361 0-.741 0-1.147 0v-.491h-.983l.491 1.967h.492v-.95c.419.025.821.067 1.201.13l.213 2.556-.923.231v.491h.985.492.491v-.982l-.491.122v-2.296c.614.107 1.236.207 1.962.207.363 0 .628-.423.425-.742-.316-.496-.634-.993-.95-1.49.415.005.774.088 1.081.238.035.018.084.049.143.088.016.009.029.02.044.029.412.297 1.156 1.1.676 2.859l1.045.523c-.001-.001 1.811-4.718-1.968-6.8m-2.458 4.309v-1.356c.069.011.145.019.216.028.283.442.565.886.848 1.328-.391 0-.734 0-1.064 0"/><path d="M32,2C15.432,2,2,15.432,2,32s13.432,30,30,30s30-13.432,30-30S48.568,2,32,2z M12.093,51.666
		c-2.741-2.773-4.907-6.116-6.306-9.832H32c-5.432,0-9.833-4.402-9.833-9.834c0-5.431,4.401-9.833,9.833-9.833H5.787
		c1.398-3.716,3.564-7.059,6.306-9.833h39.814c2.741,2.774,4.907,6.117,6.306,9.833H32c5.43,0,9.833,4.402,9.833,9.833
		c0,5.432-4.403,9.834-9.833,9.834h26.213c-1.398,3.716-3.564,7.059-6.306,9.832H12.093z"/></svg>