<svg xmlns="http://www.w3.org/2000/svg" viewBox="0 0 64 64" enable-background="new 0 0 64 64"><path d="m32 2c-16.568 0-30 13.432-30 30s13.432 30 30 30 30-13.432 30-30-13.432-30-30-30m5.436 16.233l2.432 1.844 2.431-1.844-.92 3.002 2.422 1.859-3 .009-.934 2.997-.936-2.996-2.998-.009 2.42-1.859-.917-3.003m-7.416 1.967c-1.816 1.894-2.937 4.435-2.937 7.236 0 5.849 4.844 10.588 10.817 10.588 5.323 0 9.74-3.77 10.64-8.729.105.651.177 1.312.177 1.991 0 6.91-5.724 12.513-12.783 12.513-7.061 0-12.783-5.603-12.783-12.513-.001-4.819 2.787-8.996 6.869-11.086m-26.02 11.8c0-10.029 5.304-18.84 13.25-23.785v47.57c-7.946-4.945-13.25-13.756-13.25-23.785"/></svg>