<svg xmlns="http://www.w3.org/2000/svg" viewBox="0 0 64 64" enable-background="new 0 0 64 64"><path d="m32 2c-16.568 0-30 13.432-30 30s13.432 30 30 30 30-13.432 30-30-13.432-30-30-30m-5.517 25.698l-1.965-1.326-1.966 1.326.743-2.158-1.957-1.336 2.423-.006.757-2.152.757 2.152 2.423.006-1.956 1.336.741 2.158m-5.299-5.652l-1.965-1.327-1.966 1.327.743-2.157-1.957-1.336 2.423-.01.757-2.15.757 2.15 2.423.01-1.958 1.336.743 2.157m-5.3 5.652l-1.965-1.326-1.964 1.326.741-2.158-1.957-1.336 2.423-.006.757-2.152.757 2.152 2.423.006-1.956 1.336.741 2.158m10.599-11.305l-1.965-1.327-1.966 1.327.743-2.156-1.957-1.339 2.423-.008.757-2.15.757 2.15 2.423.008-1.956 1.339.741 2.156m-13.321-3.503l.757-2.15.757 2.15 2.423.008-1.956 1.339.741 2.156-1.965-1.327-1.964 1.327.741-2.156-1.461-.999c.105-.116.215-.228.322-.343l1.605-.005m39.58.322c2.642 2.913 4.675 6.385 5.909 10.212l-47.394 27.363c-2.642-2.913-4.674-6.385-5.908-10.212l47.393-27.363"/></svg>