<svg xmlns="http://www.w3.org/2000/svg" viewBox="0 0 64 64" enable-background="new 0 0 64 64"><path d="m23.849 17.292c0-.927-.927-1.854-1.854-1.854v-5.562h-5.561v5.562c-.926 0-1.854.927-1.854 1.854h-5.561v5.562h5.561c0 .926.928 1.853 1.854 1.853v5.562h5.561v-5.562c.928 0 1.854-.927 1.854-1.853h5.562v-5.562h-5.562m5.005 5.004h-5.56c0 .097-.016.194-.035.29-.34-.233-.878-.142-1.275.255s-.488.935-.256 1.275c-.096.019-.192.035-.289.035v5.561h-4.449v-5.562c-.097 0-.193-.016-.289-.035.233-.34.142-.878-.254-1.274-.396-.396-.934-.488-1.275-.255-.019-.096-.035-.192-.035-.289h-5.562v-4.449h5.562c0-.097.016-.193.035-.289.341.232.879.142 1.275-.254.396-.397.487-.936.254-1.275.096-.02.192-.035.289-.035v-5.562h4.449v5.562c.097 0 .193.016.289.035-.232.34-.141.878.256 1.275s.935.487 1.275.254c.019.096.035.192.035.289h5.56v4.448"/><path transform="matrix(-.709-.7052.7052-.709 13.9246 52.1944)" d="m17.601 23.093h.261v.261h-.261z"/><path transform="matrix(-.708-.7062.7062-.708 18.9529 54.2841)" d="m20.568 23.093h.261v.262h-.261z"/><path d="m19.339 23.224h-.248v.193h-.246v.193h.246v.193l.233.016.015-.208h.248v-.194h-.248z"/><path d="m20.898 19.026c-.098.144-.396.302-.396.302s-.134-.203-.225-.245c.042-.084-.094-.281-.211-.426.111-.1.2-.197.26-.268.061-.009.099-.039.132-.071 0 0 .076.017.088-.05.013-.066.018-.109-.037-.219-.188-.01-.46-.122-.659-.1.04-.066.012-.165.012-.165s-.078.021-.165.087c-.054-.032-.127.001-.127.001l-.005.013c0-.013.003-.025.003-.038 0-.223-.182-.403-.405-.403-.192 0-.353.134-.394.314-1.607-.354-2.398 1.16-1.96 1.619.142.148.53-.07.789-.221-.018.099-.021.178-.021.178s-.008.012-.018.03c-.048-.016-.114-.032-.128-.015-.02.027.364.32.364.32l.285.245c-.147.091-.267.228-.328.446h-.001c-.205.055-.56-.265-.727-.142-.167.123-.088.426.022.577.108.147-.158.2-.229.287-.069.083.175.595.261.608-.031-.063.021-.239.021-.239s.15.011.187-.054c.038-.064-.035-.204-.035-.204s.183-.203.181-.359c-.002-.157-.334-.323-.211-.403.133-.088.362.222.561.09.117.272.456.472.672.511.043.146-.099.375-.058.463.034.069.185-.014.463.147-.033.052-.063.1-.096.135l-.322.038-.125.144-.396.031-.621-.011.402.306h3.166l.245-.194-.408-.22-.039-.013c.045-.014.083-.056.083-.056s.104.001.148-.046c.422.298.572-.048.572-.048s-.061-.015-.057-.075c-.045.021-.076-.063-.076-.063s-.007.196-.1.194c-.042-.001-.103-.043-.156-.089.156-.115.3-.356.3-.356l.082-.157.12-.025c0 0 .007-.079-.058-.076-.001-.047-.042-.072-.1-.063.012-.028-.031-.05-.031-.05-.113.028-.119.313-.119.313s-.198.15-.271.188c-.002-.163-.275-.384-.219-.489.057-.104.234.162.389.112.107-.033.176-.14.211-.255.066.056.154.078.154.078s.004-.043-.021-.094c.041.022.134.006.134.006s-.05-.053-.09-.057c.021-.013.065-.047.065-.047s-.113.006-.144-.013c.029-.014.02-.06.02-.06s-.054-.006-.108-.004c-.05-.106-.134-.244-.134-.244l-.1-.006-.088-.213c0 0-.184.12-.181.226.002.079.11.149.164.179-.071.037-.287-.098-.287-.098s.062.095.16.159c-.018 0-.037-.002-.056-.008-.009.106.125.086.175.088.025.077.1.119.1.119s.048.117-.075.105c-.121-.01-.266-.292-.438-.162-.185.137.081.389.081.389s-.039.02-.089.067c-.023-.03-.057-.069-.097-.113.017-.208.083-.631.311-.825-.118-.03-.34.17-.501.336-.119-.095-.284-.216-.338-.267-.024-.045-.056-.109-.088-.183.03-.014.061-.028.093-.038.304.033.557-.092.772-.15.077.062.121.055.213.043.298.159.3.5.375.289.076.26.275.226.275.226l-.219-.376c0 0-.246-.191-.414-.332-.162-.098-.458-.057-.458-.057s.317-.202.327-.489c.323-.081.557.179.665.169.089.179.295.044.295.044s-.173-.143-.345-.283c-.139-.014-.421-.195-.593-.195m.175 1.569l.001-.013c.007.004.013.006.013.006s-.006.003-.014.007m-1.949-2.264c.042.019.119-.061.135-.09.003-.001.005-.002.009-.003.039.013.074.012.081-.01.002-.005.004-.014.006-.025.014-.007.027-.014.039-.021l-.071.124-.11.091-.001.045-.004-.001-.138-.073c-.002.001.035-.015.054-.037m-.342-.359c.017.058.048.108.086.152-.025.018-.058.038-.058.038s-.015-.006-.042-.013c-.02-.011-.041-.017-.064-.019-.036-.01-.076-.019-.117-.029.039-.049.118-.09.195-.129m-.49 1.843l-.397-.257-.093-.057c.018.003.075.042.091.03.019-.015-.004-.06-.015-.077-.009-.016-.069-.033-.083-.107-.015-.074.038-.176.038-.176s.082-.065.155-.15c.25-.116.356-.246.356-.246l.007.002c-.036.139-.014.306.088.387.013.165.149.493.262.542-.134.032-.276.062-.409.109m1.114 1.563c-.215-.116-.348-.014-.451.124-.114-.063-.211-.127-.252-.268.104-.048.203-.307.156-.385.125.155.031.383.09.429.067.052.163-.025.163-.025.171.045.477-.051.477-.051.134.076.081-.036.163-.031.02.05.052.083.089.106-.127.023-.266.068-.435.101m.558-.815c-.002.029-.003.063.024.098.025.034.146.04.152.021.016.024.055.043.098.058-.032.036-.056.063-.071.082-.236-.142-.54-.225-.873-.076.356-.039.364.157.364.157s.241-.011.194.163c.14-.021.144.131.144.131s.121-.055.138.051c.079-.042.136.049.164.104-.103-.059-.197-.083-.292-.086-.074-.071-.207-.189-.298-.231-.105.062-.411.072-.465.062-.06-.01-.021-.083-.05-.125.095-.091.047-.297-.008-.421.042.001.115-.008.233-.062.101-.045.189-.11.276-.171.081.094.176.178.27.245m-.051-2.082c0 0 .209-.018.308-.094.01.001.017 0 .027.001-.053.061-.126.139-.219.222-.064-.075-.116-.129-.116-.129"/><path d="M32,2C15.432,2,2,15.432,2,32s13.432,30,30,30s30-13.432,30-30S48.568,2,32,2z M4,32C4,16.561,16.561,4,32,4v56
		C16.561,60,4,47.439,4,32z"/></svg>