<svg xmlns="http://www.w3.org/2000/svg" viewBox="0 0 64 64" enable-background="new 0 0 64 64"><path d="m32 2c-16.568 0-30 13.432-30 30s13.432 30 30 30 30-13.432 30-30-13.432-30-30-30m-28 30c0-1.255.092-2.488.252-3.7 1.1-1.188 2.769-1.523 3.481-1.523 1.104 0 4.802.809 4.802 5.166s-3.465 5.71-5.231 5.71c0-.743 0-2.03 0-2.03 2.13 0 3.466-2.16 3.466-3.86 0-1.701-1.386-3.384-3.283-3.384-1.898 0-2.987 1.765-2.987 3.086 0 1.319 1.122 2.656 2.92 2.656 1.799 0 2.657-1.6 2.657-2.358.281 2.672-2.194 3.267-2.855 3.267-.447 0-2.129-.155-3.167-1.363-.034-.554-.055-1.107-.055-1.667m3.805-1.125c.378.14.662.39.896.672.204.311.348.666.327 1.119l-.071.051c-.429-.133-.713-.346-.962-.588-.204-.256-.379-.53-.5-.872-.122.342-.298.616-.501.872-.25.242-.534.455-.964.588l-.069-.051c-.021-.453.123-.809.326-1.119.234-.282.519-.532.897-.672.019-.008.034-.02.054-.029-.027-.025-.046-.058-.079-.077-.146-.102-.368-.111-.534-.179-.307-.165-.509-.424-.666-.849l.038-.076c.467-.083.84.086 1.082.37.109.161.155.386.271.528.038.052.092.09.146.131.052-.041.106-.079.145-.131.115-.143.161-.367.271-.528.242-.284.615-.453 1.081-.37l.041.076c-.16.425-.361.684-.671.849-.163.067-.386.077-.531.179-.033.02-.053.052-.079.077.018.009.032.021.052.029m9.121 1.125l-10.77-10.769c.535-1.28 1.162-2.513 1.874-3.688l12.49 12.49h39.402c.047.651.078 1.305.078 1.967s-.031 1.316-.077 1.967h-39.402l-12.491 12.49c-.712-1.176-1.339-2.409-1.874-3.689l10.77-10.768m15.074-28c13.065 0 24.066 8.995 27.142 21.117h-37.538l-11.069-11.07c5.14-6.136 12.853-10.047 21.465-10.047m0 56c-8.612 0-16.325-3.911-21.466-10.047l11.068-11.069h37.539c-3.076 12.121-14.077 21.116-27.141 21.116"/></svg>