<svg xmlns="http://www.w3.org/2000/svg" viewBox="0 0 64 64" enable-background="new 0 0 64 64"><path d="m8.152 27.117c-.541 1.007-.91 2.117-1.092 3.29l2.652-1.237-1.56-2.053"/><path d="m21 41.611c.465-.181.913-.393 1.342-.637l-1.923-.128.581.765"/><path d="m16.401 33.49c0 .25.203.453.453.453h.791c.248 0 .451-.203.451-.453v-1.627h-1.695v1.627m1.256.147c-.137 0-.246-.109-.246-.244s.109-.244.246-.244c.135 0 .244.109.244.244s-.109.244-.244.244m0-1.466c.135 0 .244.109.244.244 0 .134-.109.244-.244.244-.137 0-.246-.11-.246-.244 0-.135.11-.244.246-.244m-.163.727c0 .137-.109.246-.244.246s-.244-.109-.244-.246c0-.134.109-.243.244-.243s.244.11.244.243m-.643-.727c.135 0 .244.109.244.244 0 .134-.109.244-.244.244s-.244-.11-.244-.244c-.001-.135.109-.244.244-.244m0 .977c.135 0 .244.109.244.244s-.109.244-.244.244-.244-.109-.244-.244.109-.244.244-.244"/><path d="m16.401 31.032c0 .249.203.453.453.453h.791c.248 0 .451-.204.451-.453v-1.627h-1.695v1.627m1.248.14c-.136 0-.246-.109-.246-.245 0-.135.11-.244.246-.244.135 0 .244.109.244.244.001.136-.109.245-.244.245m0-1.467c.135 0 .244.109.244.244 0 .136-.109.245-.244.245-.136 0-.246-.109-.246-.245 0-.135.111-.244.246-.244m-.163.73c0 .135-.109.244-.244.244s-.244-.109-.244-.244c0-.134.109-.244.244-.244s.244.11.244.244m-.643-.73c.135 0 .244.109.244.244 0 .136-.109.245-.244.245s-.244-.109-.244-.245c0-.135.109-.244.244-.244m0 .978c.135 0 .244.109.244.244 0 .136-.109.245-.244.245s-.244-.109-.244-.245c0-.135.109-.244.244-.244"/><path d="m20.077 33.49v-1.627h-1.696v1.627c0 .25.204.453.451.453h.792c.249 0 .453-.203.453-.453m-.445-1.319c.134 0 .243.109.243.244 0 .134-.109.244-.243.244-.135 0-.244-.11-.244-.244 0-.135.109-.244.244-.244m-.807 0c.136 0 .245.109.245.244 0 .134-.109.244-.245.244-.135 0-.244-.11-.244-.244 0-.135.109-.244.244-.244m0 1.466c-.135 0-.244-.109-.244-.244s.109-.244.244-.244c.136 0 .245.109.245.244s-.109.244-.245.244m.155-.739c0-.134.109-.243.244-.243.136 0 .246.109.246.243 0 .137-.11.246-.246.246-.134.001-.244-.109-.244-.246m.408.495c0-.135.109-.244.244-.244.134 0 .243.109.243.244s-.109.244-.243.244c-.135 0-.244-.11-.244-.244"/><path d="m14.423 33.49c0 .25.204.453.451.453h.794c.247 0 .451-.203.451-.453v-1.627h-1.696v1.627m1.25.143c-.134 0-.243-.109-.243-.244s.109-.244.243-.244c.137 0 .246.109.246.244s-.109.244-.246.244m0-1.466c.137 0 .246.109.246.244s-.109.244-.246.244c-.134 0-.243-.109-.243-.244s.109-.244.243-.244m-.161.728c0 .137-.109.246-.244.246-.136 0-.245-.109-.245-.246 0-.134.109-.243.245-.243.134-.001.244.109.244.243m-.644-.728c.135 0 .244.109.244.244s-.109.244-.244.244c-.136 0-.245-.109-.245-.244s.109-.244.245-.244m0 .978c.135 0 .244.109.244.244s-.109.244-.244.244c-.136 0-.245-.109-.245-.244s.109-.244.245-.244"/><path d="m16.401 35.893c0 .248.203.454.453.454h.791c.248 0 .451-.206.451-.454v-1.626h-1.695v1.626m1.252.146c-.137 0-.246-.109-.246-.244s.109-.244.246-.244c.135 0 .244.109.244.244s-.109.244-.244.244m0-1.468c.135 0 .244.11.244.246 0 .135-.109.244-.244.244-.137 0-.246-.109-.246-.244 0-.135.11-.246.246-.246m-.163.731c0 .136-.109.245-.244.245s-.244-.109-.244-.245c0-.135.109-.244.244-.244s.244.109.244.244m-.643-.731c.135 0 .244.11.244.246 0 .135-.109.244-.244.244s-.244-.109-.244-.244c0-.135.109-.246.244-.246m0 .98c.135 0 .244.109.244.244s-.109.244-.244.244-.244-.109-.244-.244.109-.244.244-.244"/><path d="m24.133 28.05v-1.498l2.101.37c-1.659-2.928-4.706-4.959-8.246-5.21v3.405h-1.475v-3.405c-2.932.208-5.526 1.631-7.273 3.778l1.128.79v4.212l-2.973 1.387 2.973 1.081v1.007c0 .193.014.384.029.573l-3.38-1.229c.222 1.743.877 3.348 1.855 4.708l1.858-1.862c.169.501.395.975.668 1.417l-1.117 1.12 2.107.141c.746.745 1.663 1.315 2.684 1.657l-4.051-.271c1.549 1.176 3.435 1.922 5.491 2.067v-1.479c.242.026.488.041.737.041s.495-.015.737-.041v1.479c.52-.037 1.029-.108 1.524-.22l-1.016-1.338c1.081-.198 2.071-.651 2.913-1.293l2.785.188c1.133-1.033 2.037-2.309 2.623-3.752l-3.744 1.745c.39-.618.682-1.301.858-2.029l2.586-1.206-2.385-.421v-1.498l3.389.597c.035-.349.054-.702.054-1.061 0-1.211-.22-2.369-.603-3.449l-2.837-.501m-15.082 8.374c-.268-.496-.489-1.016-.663-1.551l1.621.59-.958.961m7.339-10.324h-.123v-.443h.246v.221h.169v-.221h.246v.221h.191v-.221h.246v.221h.207v-.221h.246v.221h.156v-.221h.245v.443h-.232v.983l.246.983h-1.967l.246-.983v-.983h-.122m-.877-3.251v1.167l-.121-.021v1.123h-4.399c1.271-1.15 2.832-1.949 4.52-2.269m-4.04 3.251h-.123v-.443h.246v.221h.169v-.221h.246v.221h.192v-.221h.245v.221h.208v-.221h.246v.221h.155v-.221h.245v.443h-.232v.983l.246.983h-1.966l.246-.983v-.983h-.123m-.09 7.763l.246-.983v-.983h-.123-.123v-.441h.246v.221h.169v-.221h.245v.221h.192v-.221h.246v.221h.207v-.221h.246v.221h.155v-.221h.246v.441h-.232v.983l.246.983h-1.966m3.127 5.564l-.521-.868-.695-.695-.087.087-.088.086-.313-.313.175-.173.155.155.121-.119-.157-.155.175-.175.155.155.137-.135-.157-.157.175-.173.155.155.147-.146-.157-.155.175-.175.155.157.112-.111-.158-.157.175-.173.313.313-.165.165.694.695.869.521-1.39 1.391m2.74-2.51c-1.627 0-2.95-1.323-2.95-2.95v-4.917h5.9v4.917c0 1.627-1.323 2.95-2.95 2.95m4.114 1.119l-.087-.086-.086-.087-.695.695-.522.868-1.391-1.391.87-.521.695-.695-.165-.165.313-.313.173.173-.155.157.111.111.155-.157.175.175-.157.155.146.146.158-.155.173.173-.156.157.137.135.155-.155.175.175-.157.155.119.119.157-.155.173.173-.314.313m-.18-4.05l.246-.983v-.983h-.123-.123v-.442h.246v.222h.168v-.222h.246v.222h.192v-.222h.246v.222h.207v-.222h.246v.222h.155v-.222h.246v.442h-.232v.983l.246.983h-1.966m0-5.92l.246-.983v-.983h-.123-.123v-.443h.246v.221h.168v-.221h.246v.221h.192v-.221h.246v.221h.207v-.221h.246v.221h.155v-.221h.246v.443h-.232v.983l.246.983h-1.966"/><path d="m32 2c-16.568 0-30 13.432-30 30s13.432 30 30 30 30-13.432 30-30-13.432-30-30-30m-14.75 6.215v10.493h-.246c-.482 0-.911.229-1.184.586-3.154.354-6.08 1.877-8.178 4.259-.482.034-.89.262-1.142.625l-.077.11-.035.035c-.295.293-.45.703-.428 1.13.002.145.023.286.064.42-.776 1.421-1.278 2.99-1.472 4.6l-.043.02c-.189.09-.351.215-.481.362.388-9.552 5.579-17.884 13.222-22.64m0 47.57c-7.691-4.787-12.898-13.195-13.226-22.823.124.243.308.447.533.587.239 1.975.931 3.854 2.028 5.509-.217.535-.11 1.177.323 1.614l.352.352c.287.282.659.436 1.056.436.099 0 .195-.01.29-.028 1.997 1.831 4.518 2.976 7.22 3.276.273.358.699.585 1.178.585h.246v10.492m12.062-21.409c-.041.238-.252.406-.485.406-.028 0-.056-.002-.084-.007l-.033-.006c-.89 3.691-3.505 6.708-6.954 8.135-.021.086-.056.169-.122.235l-.348.348c-.096.095-.221.142-.347.142s-.253-.047-.349-.142l-.111-.146c-.799.227-1.633.367-2.491.421v.038c0 .271-.221.492-.491.492h-.492c-.271 0-.491-.222-.491-.492v-.037c-3.031-.188-5.751-1.511-7.735-3.561l-.114.114c-.095.095-.221.143-.347.143s-.252-.048-.349-.143l-.349-.347c-.19-.192-.19-.506 0-.695l.2-.201c-1.34-1.783-2.183-3.955-2.332-6.32-.048.015-.098.021-.146.021-.184 0-.357-.1-.44-.276l-.207-.445c-.113-.244-.006-.538.238-.653l.561-.262c.14-1.927.741-3.722 1.696-5.281l-.029-.021c-.14-.098-.204-.256-.2-.414-.013-.141.027-.284.135-.391l.097-.097.13-.186c.094-.136.246-.2.402-.2.005 0 .011 0 .017 0 .016-.002.032-.003.048-.003.091 0 .18.026.26.078 2.018-2.514 5.043-4.174 8.464-4.386v-.037c0-.271.221-.492.491-.492h.492c.271 0 .491.222.491.492v.037c4.503.279 8.318 3.073 10.055 7.003l.1.018c.265.049.445.304.397.57l-.084.484c0 0 0 .001-.001.002.382 1.16.596 2.397.596 3.686 0 .445-.029.884-.078 1.316l.026.005c.268.048.445.304.399.57l-.086.485"/></svg>