<svg xmlns="http://www.w3.org/2000/svg" viewBox="0 0 64 64" enable-background="new 0 0 64 64"><path d="m18.537 33.398l-1.607 4.502 4.254-2.767 4.254 2.767-1.608-4.502 4.236-2.873h-5.247l-1.635-4.425-1.589 4.425h-5.295z"/><path d="m38.563 37.9l4.253-2.767 4.254 2.767-1.607-4.502 4.237-2.873h-5.247l-1.637-4.425-1.587 4.425h-5.295l4.236 2.873z"/><path d="M32,2C15.432,2,2,15.432,2,32s13.432,30,30,30s30-13.432,30-30S48.568,2,32,2z M5.787,22.167h52.426
		C59.365,25.229,60,28.541,60,32s-0.635,6.771-1.787,9.833H5.787C4.635,38.771,4,35.459,4,32S4.635,25.229,5.787,22.167z"/></svg>