<svg xmlns="http://www.w3.org/2000/svg" viewBox="0 0 64 64" enable-background="new 0 0 64 64"><path d="m51.748 31.424c-.166-.194-.389-.383-.65-.408-.276.021-.564.194-.843.319-.135.029-.253.033-.361.023.653.247 1.289.394 1.854.066"/><path d="m47.008 30.938c.011-.3.07-.589.203-.86-.096.044-.19.053-.287.054.021.246.049.515.084.806"/><path d="m47.178 29.517c-.098-.029-.196-.05-.295-.075.002.095.005.2.014.331.103-.085.197-.169.281-.256"/><path d="m46.771 26.069l-.359 2.053c0 0 .735-1.26.359-2.053"/><path d="m43.652 28.122l-.359-2.053c-.377.793.359 2.053.359 2.053"/><path d="m39.633 31.587c0 0-.121.029-.229.173.555.582 1.663.811 2.323.232-1.448.133-2.094-.405-2.094-.405"/><path d="m46.771 26.069l1.279-.043c0 0 .172-.529.217-.807-2.58.785-4.815.457-5.956.037.025.229.037.503.123.728.47-.009.858.085.858.085s.889-.801 1.738 0c.852-.8 1.741 0 1.741 0"/><ellipse cx="45.031" cy="27.032" rx=".107" ry=".963"/><path d="m39.869 37.463c-.302.337-.657.956-.932 1.317-.391.51.99-.968 1.286-.484.025.042.209.415.369.905v-.925c-.268-.504-.633-.949-.723-.813"/><path d="m51.16 36.104c-.158.094-.517.383-.792.755v.583c.18-.339.368-.597.452-.641.347-.182 1.19 1.156 1.336 1.109.043-.294-.747-1.954-.996-1.806"/><path d="m32 2c-16.568 0-30 13.432-30 30s13.432 30 30 30 30-13.432 30-30-13.432-30-30-30m-26.55 30h-1.45c0-3.102.515-6.084 1.45-8.875v8.875m26.55-17.7h-8.26l8.26 10.325v2.516l-10.396-12.841h-5.9l14.329 17.7h-3.933l-11.8-14.75v14.75h-2.95v-18.888c.562-.613 1.149-1.201 1.763-1.763h18.887v2.951m0-8.85h-8.876c2.791-.935 5.773-1.45 8.876-1.45v1.45m12.728 16.197l.767-1.238 2.808 3.753-3.629 1.227.054-3.742m-3.913 5.404c.217-.742.813-.99 1.366-1.053-.219-.244-.144-.992-.121-1.235l-.423-.107 2.534-2.535.016-1.074c0 0 .006-.097.097-.097.098 0 .098.097.098.097l-.011.875.069-.069-.037 3.513-.077-.02v.044h-.201l.002-.096-1.813-.465c.019.043.019.11.034.235.23.087.471.149.713.199.354.072.753.129 1.093.161.604.061 1.273.032 1.899-.013.729-.053 1.804-.091 2.395-.588-.269-.095-.576-.075-.854-.049.051-.23.301-.176.493-.178.211-.004.423.019.624.082-.035.156-.06.316-.044.477.024.271.211.399.146.66-.039.154-.076.308-.115.462.242.163.444.406.552.773.14.476-.849 1.78-.849 1.78-1.569-.902-3.369-.836-3.369-.836s-1.798-.066-3.367.836c-.001.001-.989-1.304-.85-1.779m11.743 19.087c-.042.104-.153.159-.19.28-.094.327.115.727.041 1.062-.173.782-1.035.872-1.679.657-.159-.052-.497-.338-.634-.335-.117.004-.443.354-.549.432-.396.289-.805.549-1.245.766-.878.432-1.842.672-2.823.658-1.329.02-2.601-.428-3.699-1.16-.215-.144-.424-.295-.626-.455-.255-.199-.263-.267-.544-.08-.316.211-.777.322-1.151.279-.932-.104-.89-.818-.878-1.555.004-.159.014-.258-.06-.399-.1-.194-.232-.153-.149-.388.078-.223.378-.4.589-.469.27-.09.542-.08.816-.021.157.035.313.083.459.156.198.099.155.095.369.014.702-.264 1.204-.484 1.924-.059.473.279.811.699 1.307.946.432.216.462.886-.081 1.022-.167.041-.428-.165-.607-.209-.189-.049-.376-.086-.568-.125 1.794 1.18 4.007 1.275 5.793 0-.436.09-1.214.541-1.496.1-.375-.588.303-.777.668-1.037.494-.352.87-.826 1.506-.938.34-.059.647.004.966.125.161.061.387.26.528.254.096-.004.258-.135.35-.169.505-.189 1.131-.2 1.537.209l.134.169c.096.198.063.098-.008.27m4.148-11.708c-.209-.257-1.214.553-1.063.829 1.154 2.133.693 8.518-3.555 9.924-.56.185-1.734.181-2.05-.541-.161-.58.359-1.6.811-1.646.332-.034.814.597.964.937.05.084 1.852-2.022 1.309-2.527-1.066-.993-2.203-1.842-1.452 1.119-.901-.853-.926-3.372.105-2.635.229.163.902.592.499-.01-1.285-1.922-2.188-.004-1.461 1.91-.226-.103-.379-.258-.487-.44-.253 3.268-1.724 4.505-4.895 5.366-3.219-.895-4.562-2.164-4.796-5.36-.108.181-.261.333-.484.435.725-1.912-.176-3.832-1.463-1.91-.401.602.271.173.499.01 1.032-.737 1.007 1.782.106 2.637.75-2.963-.387-2.113-1.452-1.121-.544.506 1.258 2.613 1.308 2.527.149-.339.632-.971.964-.937.452.046.972 1.065.813 1.646-.315.723-1.49.726-2.051.541-4.247-1.406-4.71-7.791-3.554-9.924.148-.276-.854-1.086-1.063-.829-2.307 2.822-.137 9.103.151 9.519-3.161-4.563-2.601-10.681.979-10.457.717.043 2.021.419 2.937 2.306 0 0-.098-1.509.872-1.27.404.1.992.343 1.396.659v-.558l2.162-.004c-.004-.455.142-.916.48-1.203-.045-.129-.109-.26-.167-.391-.605.756-1.219 1.257-1.824 1.352-.01-.504.176-.867.428-1.185-1.248.477-2.268-.174-2.516-.88-.461-.101-1.003-.101-1.343.064-.022-.396.165-.582.373-.746-.801-.164-1.416.055-1.667.933.098-.493.186-.999.153-1.492.969-.834 2.501-.372 2.501-.372.921-1.265.604-2.592.604-2.592-.254.121-.248.431-.269.814-.077.285-.212.548-.442.701-.195.088-.409.229-.453.46-.195-.308-.127-.591.004-.921.089-.328.161-.604.371-.813.098-.165-.067-.165-.077-.099-.144.263-.298.538-.517.812-.352.363-.724.725-1.437.966-.23.044-.473-.044-.703-.263-.482-.308-.735-.627-.878-.934.21.186.461.318.89.274.889-.296 1.371-.669 1.788-1.052-1.152-.101-1.514-.506-1.581-.867.517.208.978-.066 1.472-.066.836-.165 1.15.406 1.15.406.813-.404 1.657-.219 1.974.527.242.965-.305 1.723-1.031 2.426l.089.119c.396-.493.91-.867 1.755-.889-.025.063-.064.179-.107.32.17-.119.34-.221.508-.297-.133-.225-.267-.449-.402-.672 2.018-.878 4.404-.878 6.421 0-.069.115-.139.232-.208.348.109.047.221.086.321.137.101.211.215.412.44.593-.051-.092-.104-.181-.135-.294.34.205.711-.01 1.154.123-.248-.184-.352-.371-.352-.545.371-.134.753 0 1.154.309-.352-.535-.62-1.146-.489-1.617.264-.945 1.157-1.037 2.003-.758.318-.145.616-.299 1.194-.155.411.134.813.124 1.224.032-.308.533-.822.822-1.656.75.556.525 1.152.906 1.863.875 0 0 .122-.591-.486-.742.411-.392 1.333-.242 1.339.451.006.656-.48.866-1.296 1.166-.598 0-1.152-.33-1.658-.938.093.352.104.701.031 1.051-.318-.268-.658-.525-.834-.793-.205-.227-.215-.607-.174-.947-.019-.233-.12-.367-.249-.452-.668 1.066.341 2.345.516 3.003 1.293-.749 2.824-.437 2.11.938-.238-.484-.67-.536-1.194-.393.267.166.401.402.257.764-.4-.196-.771-.206-1.121-.093 0 0-.089-.178-.238-.371.016.634-.206 1.049-.717 1.202-1.102.218-2.037-.514-2.49-1.492.092.506.01 1.021-.187 1.535-.401-.361-.689-.885-.647-1.832-.113.493-.505 1.266-.505 1.266s.119 1.086.28 1.417c.24.267.318.626.188.978h-.355c.149-.449.056-.879-.58-.936-.508-.045-1.063.459-1.722.974l5.284-.009v.576c.404-.317.992-.562 1.396-.661.97-.239.872 1.27.872 1.27.916-1.888 2.22-2.263 2.937-2.307 3.58-.223 4.141 5.895.979 10.458.29-.415 2.462-6.696.155-9.517"/><path d="m39.802 36.104c-.248-.148-1.039 1.512-.995 1.807.144.047.989-1.291 1.335-1.109.084.045.271.302.451.64v-.583c-.276-.373-.634-.661-.791-.755"/><path d="m51.093 37.462c-.091-.135-.456.312-.725.815v.926c.16-.491.344-.865.369-.907.296-.483 1.679.994 1.288.484-.276-.361-.63-.98-.932-1.318"/><path d="m41.482 31.016l-.136.414.751-.018-.324-.362z"/><path d="m51.886 36.185c.183.449.169-1.181-.143-1.185-.255.046-.939.473-1.375.796v.451c.288-.283.596-.504.715-.598.336-.24.684.245.803.536"/><path d="m47.243 40.388l-1.776 3.383-1.856-3.389-2.773-.004c.024 3.748 1.24 5.105 4.6 6.038 3.246-.88 4.621-2.175 4.692-5.852-.002-.058-.004-.113-.001-.171l-2.886-.005m-2.909 4.025c-.06.077.668.34.598.654-.457-.373-.861-.303-1.313-.566-.453-.264-.487-.581-.39-.799.093-.209.271-.522-.123-.634-.232-.066-.225-.135-.225-.135-.459-.033-.847-.409-.94-.54-.238-.33-.45-.982-.84-1.26.348.068.995.695 1.222 1.297.09.238.501.161.501.161-.046-.065-.365-.379-.267-.673.188.473.595.578.595.578.111.01.192.129.21.258.872.137 1.148.922 1.673 1.039-.28.12-.628.03-.738-.021-.583-.277.168.465.037.641m4.667-2.014c-.095.131-.482.506-.941.54 0 0 .01.068-.225.135-.392.111-.213.425-.121.634.097.218.063.535-.39.799s-.854.193-1.312.566c-.071-.314.657-.577.597-.654-.132-.176.619-.918.035-.641-.107.051-.457.142-.737.021.524-.118.801-.902 1.675-1.039.017-.129.098-.248.207-.258 0 0 .409-.105.598-.578.098.293-.223.606-.268.673 0 0 .409.077.5-.161.229-.602.875-1.229 1.221-1.297-.39.278-.599.93-.839 1.26"/><path d="m42.323 38.468c.09-.238.501-.162.501-.162-.046.066-.365.38-.267.674.188-.473.595-.578.595-.578.111-.011.192-.129.21-.258.872-.137 1.148-.922 1.673-1.039-.28-.121-.628-.03-.738.021-.583.276.168-.466.037-.641-.06-.078.668-.34.598-.654-.457.373-.861.303-1.313.566-.453.263-.487.58-.39.799.093.208.271.522-.123.634-.232.065-.225.134-.225.134-.459.034-.847.41-.94.541-.238.33-.45.982-.84 1.259.348-.068.996-.695 1.222-1.296"/><path d="m46.645 37.132c-.107-.052-.457-.143-.737-.021.524.117.801.902 1.675 1.039.017.129.098.247.207.258 0 0 .409.105.598.578.098-.294-.223-.607-.268-.674 0 0 .409-.076.5.162.229.601.875 1.229 1.221 1.296-.39-.276-.599-.929-.839-1.259-.095-.131-.482-.507-.941-.541 0 0 .01-.068-.225-.135-.392-.111-.213-.425-.121-.633.097-.219.063-.536-.39-.799-.453-.264-.854-.193-1.312-.566-.071.314.657.576.597.654-.132.175.619.917.035.641"/><path d="m39.075 36.185c.119-.291.467-.774.803-.535.118.094.427.313.715.598v-.452c-.437-.323-1.119-.749-1.373-.795-.312.003-.327 1.635-.145 1.184"/></svg>