<svg xmlns="http://www.w3.org/2000/svg" viewBox="0 0 64 64" enable-background="new 0 0 64 64"><path d="m19.904 41.289l-.65 1.016-.097.517.304.671.102-.101.063-.455.002.002.354-.423.269-.98.167-.372.894-.372.543-.218-.021-.026.479-.03.077-.073-.647-.272-.111-.081-.407.158-.434.272.618-.709.544-.32.163.611.634-.865.421.55.273-.891c-1.03-.708-1.703-1.807-1.703-3.059v-1.074h3.154v4.803c-.219-.057-.43-.13-.633-.215l.168.334-.492 1.023-.177.847.173.136-.008.028-.65 1.036-.23.846.263.149-.731 1.502-.169.853h7.384l-.167-.853-.731-1.502.262-.149-.23-.846-.649-1.036-.008-.028.173-.136-.177-.847-.493-1.023.17-.338c-.189.079-.384.15-.587.205v-4.789h3.107v1.074c0 1.253-.673 2.352-1.704 3.06l.273.89.42-.55h.002l.632.865.163-.611.547.321.617.708-.434-.272-.409-.158-.109.081-.647.272.077.073.478.03-.019.026.541.218.896.372.167.372.269.98.354.423v-.002l.063.455.102.101.306-.671-.096-.517-.651-1.016.93.705.449.074.073.229.086.019.06-.62-.269-.344-.983-.32.958.08.33-.188.404.002.076-.062-.539-.3-.492.051-.985.024-.358-.192-.938-1.621 1.003.312-.978-1.32.145.008-.757-1.621.195-.577.467.991.204-.382.785 2.21.029-.053.419.771.189-.398.797 1.551.286-.852 1.146.916c0 0-.141-2.912-.081-3.88.155-2.54 1.114-7.722.428-10.172-.322-1.157-2.661-4.001-2.661-4.001s-.145 3.45-.719 4.48c-.236.425-2.001 1.483-2.001 1.483l-.717-.226.284-.081-1.26-1.297.306-1.705c.353-.021.716.163 1.063.094.062-.02.083-.046.198-.271-.073.004 1.095-.258 1.204-.799-.326.389-.717.582-1.158.472-.598-.148-.938-.254-1.073-.229-.002.001-.004.002-.004.003.105-.093.236-.201.372-.316.413.058.387-.035.51-.198.182-.239.529-.054.595.259.037.181.097.186.271.014.913-.903.959-1.541-.017-1.646-.131-.255-.676-.199-1.077-.061l-1.412.08-1.488.42.392.634-.888 3.023-.889-3.021.394-.634-1.488-.42-1.412-.08c-.402-.138-.948-.195-1.079.061-.974.105-.928.743-.017 1.646.175.172.233.167.272-.014.065-.313.411-.499.594-.259.124.163.096.255.509.198.138.115.269.223.374.316-.002-.001-.004-.002-.004-.003-.136-.026-.478.081-1.073.229-.443.109-.832-.083-1.158-.472.107.541 1.277.803 1.202.799.115.225.137.251.2.271.347.069.711-.116 1.063-.094l.306 1.705-1.26 1.297.284.081-.717.226c0 0-1.765-1.058-2.001-1.483-.574-1.029-.713-4.481-.713-4.481s-2.339 2.844-2.661 4.001c-.686 2.451.271 7.631.426 10.172.06.968-.078 3.88-.078 3.88l1.143-.916.286.852.797-1.551.192.398.418-.771.029.053.783-2.21.206.382.465-.991.195.577-.755 1.621.143-.008-.976 1.32 1.003-.313-.938 1.622-.359.192-.985-.024-.491-.051-.542.3.077.062.405-.002.328.188.96-.08-.983.32-.271.344.062.62.086-.019.073-.229.449-.074.93-.706m7.449-12.615h3.107v3.631h-3.107v-3.631m-5.613 0h3.154v3.631h-3.154v-3.631"/><path d="m23.442 30.461l-.269.961.961-.961-.961-.96z"/><path d="m24.134 36.607l-.961-.961.269.961-.269.961z"/><path d="m28.115 30.461l.958.961-.266-.961.266-.96z"/><path d="m28.115 36.607l.958.961-.266-.961.266-.961z"/><path d="m18.756 17.793c.014.007.033.013.048.02v.352l.025-.045.797.504-.695.686-.127-.149v.559h14.591v-.557l-.125.147-.695-.686.797-.504.023.042v-.348c.016-.007.035-.013.05-.021.718-.644 1.12-1.281 1.208-1.946.278-.407-.941-1.398-2.197-2.113-1.268-.712-2.096-.84-2.396-.368-.025.044-.039.095-.054.145-1.162-.588-2.067-.81-2.932-.684l.009-1.495h.015l.01-.144-.02-.207-.805-.018v-1.233h.323l.183.175.182-.18.179-.185-.18-.185-.182-.18-.183.184h-.323v-.378l.179-.185-.179-.185-.182-.183-.182.184-.179.185.179.185v.378h-.323l-.183-.184-.182.18-.182.184.183.185.182.18.183-.175h.323v1.235l-.805.018-.021.207.012.144h.023l-.009 1.495c-.862-.124-1.767.099-2.925.684-.015-.049-.026-.101-.054-.144-.3-.475-1.131-.346-2.396.369-1.252.713-2.474 1.705-2.195 2.112.086.662.489 1.3 1.207 1.943m12.467-3.366c.239.018.525.091.803.223.24.115.438.25.551.379.111.127.123.234.02.298-.373.429-.932.857-1.681 1.298-.208.075-.477.125-.772.164.654-.789 1.013-1.567 1.079-2.362m-1.387 3.38l.716.65-.778.543-.719-.652.778-.542h.003zm-.707-3.43c-.324.698-.87 1.396-1.637 2.109-.121-.772-.242-1.544-.362-2.315.634-.078 1.319-.003 1.999.206m-3.029 3.298l.75.598-.75.597-.748-.597.748-.598m-1.028-3.504c-.121.772-.241 1.544-.362 2.316-.767-.713-1.313-1.413-1.639-2.11.682-.209 1.367-.284 2.001-.206m-2.707 3.636l.777.542-.716.651-.777-.543.716-.65m-2.187-3.158c.274-.131.561-.205.803-.223.064.795.424 1.574 1.079 2.361-.296-.039-.566-.088-.774-.164-.72-.43-1.264-.844-1.634-1.262-.016-.01-.031-.023-.047-.035-.213-.13.077-.438.573-.677"/><path d="M32,2C15.432,2,2,15.432,2,32s13.432,30,30,30s30-13.432,30-30S48.568,2,32,2z M32,4c11.98,0,22.223,7.565,26.213,18.167
		H37.95V21.89v-1.5h-1.5H15.748h-1.5v1.5v0.277H5.787C9.777,11.565,20.02,4,32,4z M15.748,37.793V21.89H36.45v15.903
		c0,5.49-4.635,9.939-10.351,9.939C20.385,47.732,15.748,43.283,15.748,37.793z M32,60C20.02,60,9.777,52.436,5.787,41.833h9.238
		c1.696,4.317,6.014,7.399,11.074,7.399c5.06,0,9.377-3.082,11.073-7.399h21.04C54.223,52.436,43.98,60,32,60z"/></svg>