<svg xmlns="http://www.w3.org/2000/svg" viewBox="0 0 64 64" enable-background="new 0 0 64 64"><path d="m50.289 43.8v-1.846h-.916v-1.845h-.914v-1.578h-.91v-1.188h-.545v-.92h-.748c-.234-.146-.482-.427-.566-.744h-.03v-3.016c.094-.384.407-.724.644-.792v-2.654-.185c-.337 0-.513.431-.528.479v-1.133c-.137-.085-.288-.076-.449-.008v.289h-.51v-1.326c-.174 0-.202.625-.602.625-.209 0-.188-.259-.069-.47.104-.188.231-.445.058-.926-.119.368-.441.484-.381.254.101-.396.396-.461.176-1.078-.078.514-.395.491-.316.192.087-.336.264-.474.045-.948-.125.539-.291.508-.291.173 0-.494.018-1.027-.596-1.224 0 0-.035-.453-.256-.453-.222 0-.258.453-.258.453-.613.197-.596.73-.596 1.224 0 .334-.166.365-.289-.173-.222.474-.042.612.045.948.075.299-.24.322-.317-.192-.22.617.073.682.175 1.078.061.23-.26.114-.379-.254-.176.481-.047.738.057.926.117.211.138.47-.07.47-.4 0-.427-.625-.602-.625v2.331h-4.667l.008-2.108c-.308.128-.36.424-.36.424v.381h-.305c0 0-.21-.006-.21-.37 0-.364.126-.609.388-.597v-.738c0 0-.688.094-.688.922v-.703c-.214 0-.242.278-.242 1h-.2v-.815c.011-.408.39-.438.401-.735 0 0 .051-.447-.063-.65-.154.598-.434.488-.434.242 0-.214.158-.413.482-.934.104-.166.039-.688-.105-.874-.056.453-.121.669-.309.669-.113 0-.206-.077-.206-.305 0-.289.188-.434.279-.697.108-.307.032-.619-.146-.793-.076.447-.055.625-.243.625-.386-.127 0-.707.081-.853.072-.278-.126-.51-.126-.51-.123.396-.161.43-.294.393-.166-.046-.145-.304.059-.512.127-.13.115-.326-.023-.482-.145.294-.376.255-.342.076l.121-.626h-.324l.042-1.248h-.384c-.039-.26-.166-.622-.557-.628-.392.006-.516.368-.556.628h-.384l.042 1.248h-.323l.111.648c-.019.167-.193.184-.332-.097-.139.157-.151.352-.023.482.203.208.225.466.057.512-.13.037-.17.004-.291-.393 0 0-.223.34-.128.51.083.146.467.726.083.853-.191 0-.168-.179-.245-.625-.18.174-.253.487-.146.793.092.263.279.408.279.697 0 .228-.093.305-.207.305-.186 0-.25-.217-.307-.669-.146.186-.21.708-.107.874.326.521.483.72.483.934 0 .246-.278.355-.431-.242-.113.204-.066.65-.066.65.012.297.391.327.404.735v.817h-.197c0-.71 0-1-.263-1v.646c-.034-.773-.684-.864-.684-.864v.738c.26-.012.385.233.385.597 0 .363-.209.37-.209.37h-.35v-.385c0 0-.076-.296-.382-.424v2.108h-4.545v-2.331c-.176 0-.201.625-.602.625-.208 0-.186-.259-.069-.47.104-.188.232-.445.058-.926-.119.368-.44.484-.381.254.103-.396.396-.461.174-1.078-.075.514-.392.491-.314.192.085-.336.264-.474.044-.948-.123.539-.291.508-.291.173 0-.494.019-1.027-.596-1.224 0 0-.033-.453-.255-.453-.222 0-.257.453-.257.453-.613.197-.595.73-.595 1.224 0 .334-.167.365-.291-.173-.22.474-.041.612.045.948.078.299-.24.322-.315-.192-.221.617.073.682.175 1.078.06.23-.262.114-.381-.254-.174.481-.046.738.058.926.116.211.139.47-.069.47-.4 0-.427-.625-.602-.625v1.326h-.454v-.289c-.181-.068-.353-.078-.505.008v1.134c-.014-.044-.189-.479-.526-.479v.185 2.654c.235.068.547.408.642.792v3.016c-.086.317-.334.598-.567.744h-.782v.92h-.542v1.188h-.91v1.578h-.914v1.845h-.92v1.845h36.579"/><path d="M32,2C15.432,2,2,15.432,2,32s13.432,30,30,30s30-13.432,30-30S48.568,2,32,2z M8.852,16.267h46.296
		C58.208,20.754,60,26.171,60,32s-1.792,11.246-4.852,15.733H8.852C5.792,43.246,4,37.829,4,32S5.792,20.754,8.852,16.267z"/></svg>