<svg xmlns="http://www.w3.org/2000/svg" viewBox="0 0 64 64" enable-background="new 0 0 64 64"><path d="M32,2C15.432,2,2,15.432,2,32s13.432,30,30,30s30-13.432,30-30S48.568,2,32,2z M5.45,32H4c0-3.102,0.515-6.084,1.45-8.875
		V32z M32,12.334V14.3h-8.26L32,24.625v2.516L21.604,14.3h-5.9L30.033,32H26.1L14.3,17.25V32h-1.967H11.35V13.112
		c0.562-0.613,1.149-1.201,1.763-1.763H32V12.334z M32,5.45h-8.876C25.915,4.515,28.897,4,32,4V5.45z M46.347,46.602
		c-4.575-1.135-9.853-3.486-9.86-10.518l0.023-14.137h19.644L56.13,35.925C56.293,41.543,52.792,45.03,46.347,46.602z"/><path d="m50.324 37.09c.111-1.169-.065-2.25-.352-2.778-.288-.529-.332-1.19-.771-1.963.326.055.507-.618.583-1.434.045-.462.012-.815.11-1.642.1-.828-.198-1.126-.402-1.296-.203-.171-.336-.227-.436-.237-.037-.013-.096-.016-.145-.022-.022-.069-.057-.144-.12-.233-.105-.148-.088-.367-.033-.608.368.467.756.743 1.064.147.116-.225.011-.54-.2-.849l.964-.004-.013-1.308h-3.651l-.012-1.676-1.335-.013.025 1.688-3.664-.014v1.335l2.966-.011c-.691 1.336-1.267 3.375-.5 3.287.261-.03.082-.01.003 0 .587-.068 1.02.062 1.173-.196l.003 3.279c.485-.392.874-.67.784-.603.056-.042.309-.239.563-.438v.003c.951-.748 2.641-2.081 2.667-1.947 0 2.483-1.392 2.431-2.662 2.771l-.022.006c-.494.134-.965.339-1.329.77l.001 1.27c-.188-.167-.39-.29-.598-.384-.204.278-.443.502-.731.465-.189-.021-.253-.105-.242-.225-.433.611-.542 1.636-1.479 2.01-.484.194-.849.684-.984 1.128l-4.476.007c.845 5.725 5.213 7.462 9.271 8.551 4.587-1.191 8.545-3.438 9.227-8.577l-5.272.007c.009-.09.017-.189.025-.266m-4.748-10.658l.002 2.079c-1.041-.005-.494-1.131-.002-2.079m2.115 1.379c-.093.008-.185.008-.264-.004-.097-.016-.385.053-.505.15v-1.772l.421-.001c-.223.418-.311.868-.023 1.028.419.228.42.39.371.599m-5.435 9.556c.562-.418 2.384-2.243 2.566-2.807.281.162.536.431.764.762l.002 2.04-3.332.005"/></svg>