<svg xmlns="http://www.w3.org/2000/svg" viewBox="0 0 64 64" enable-background="new 0 0 64 64"><path d="m13.495 27.452c1.941 0 3.515-1.573 3.515-3.517 0-.021-.005-.039-.006-.06-.593 1.351-1.938 2.297-3.509 2.297-1.569 0-2.915-.945-3.509-2.296 0 .02-.006.038-.006.059 0 1.944 1.573 3.517 3.515 3.517"/><circle cx="13.495" cy="22.977" r="2.556"/><path d="m13.495 19.781c.883 0 1.599-.715 1.599-1.598 0-.64-.399-.719-.399-.959 0-.239.239-.559-.24-.958.24.399-.159.479-.159.88 0 .397.159.397.159.718 0 .175-.143.319-.32.319s-.32-.145-.32-.319c0-.32.32-.64.32-1.119 0-.479-.081-.638-.32-1.037-.239-.401-.639-.721-.319-1.039-.479.159-.239.799-.239 1.198s-.32.638-.32 1.118c0 .479.24.559.24.879 0 .175-.144.319-.319.319-.177 0-.32-.145-.32-.319 0-.32.159-.32.159-.718 0-.401-.399-.48-.159-.88-.479.399-.24.719-.24.958 0 .24-.399.319-.399.959-.002.883.714 1.598 1.596 1.598"/><path d="m10.299 30.648h6.392v1.276h-6.392z"/><path d="m6.465 28.09h3.195v15.342h-3.195z"/><path d="m17.33 28.09h3.196v15.342h-3.196z"/><path d="m10.299 28.09l3.196 1.919 3.195-1.919z"/><path d="m13.495 43.432l3.195-1.917h-6.391z"/><path d="m10.299 39.596h6.392v1.279h-6.392z"/><path d="m13.873 32.232c-.122-.025-.249-.038-.377-.038-1.967 0-3.567 1.6-3.567 3.566 0 1.969 1.6 3.568 3.567 3.568 1.967 0 3.567-1.6 3.567-3.568 0-1.837-1.402-3.336-3.19-3.528m-3.585 3.529c0-1.768 1.438-3.208 3.208-3.208.835 0 1.514.681 1.514 1.516 0 .834-.679 1.514-1.514 1.514-1.033 0-1.873.839-1.873 1.872 0 .43.151.821.395 1.138-1.024-.538-1.73-1.6-1.73-2.832m3.207 3.209c-.104 0-.203-.021-.305-.031-.689-.142-1.209-.753-1.209-1.484 0-.833.679-1.513 1.514-1.513 1.033 0 1.874-.84 1.874-1.873 0-.43-.15-.82-.394-1.136 1.021.537 1.728 1.597 1.728 2.828 0 1.768-1.439 3.209-3.208 3.209"/><circle cx="13.495" cy="34.067" r=".639"/><circle cx="13.495" cy="37.455" r=".639"/><path d="M32,2C15.432,2,2,15.432,2,32s13.432,30,30,30s30-13.432,30-30S48.568,2,32,2z M4,32C4,20.02,11.564,9.777,22.166,5.787
		v52.426C11.564,54.223,4,43.98,4,32z M41.833,58.213V5.787C52.436,9.777,60,20.02,60,32S52.436,54.223,41.833,58.213z"/></svg>