<svg xmlns="http://www.w3.org/2000/svg" viewBox="0 0 64 64" enable-background="new 0 0 64 64"><path d="m32 2c-16.568 0-30 13.432-30 30.001 0 16.568 13.432 30 30 30s30-13.432 30-30c0-16.569-13.432-30.001-30-30.001m-26.55 30.001h-1.45c0-3.102.515-6.084 1.45-8.875v8.875m26.55-17.701h-8.26l8.26 10.325v2.516l-10.396-12.841h-5.9l14.329 17.701h-3.933l-11.8-14.751v14.751h-2.95v-18.889c.562-.613 1.149-1.201 1.763-1.763h18.887v2.951m0-8.85h-8.876c2.791-.935 5.773-1.45 8.876-1.45v1.45m4.444 15.107c3.509-1.571 8.124-1.894 10.479-1.894s6.972.323 10.48 1.894c-.069 2.324.081 4.979.073 7.711h-21.105c-.008-2.732.145-5.387.073-7.711m10.479 27.501c-2.906-1.152-5.02-2.697-6.557-4.496.155-.043 2.538.377 2.917-.246.359-.588-1.133-1.844-1.079-2.529.018-.203.244-.609.431-.691.373-.168 1.414.182 1.692-.305.853.533 2.031 1.25 2.031 1.25h7.999l1.315-2.619c.01-.152-.058-.381-.104-.475-1.454.059-2.881.104-3.902.129-.115.09-.242.332-.266.484-.622.104-.993.148-1.154.184s-.783.82-.944 1.027c-1.339.023-2.702.023-3.624-.115-.614-.092-.949-.182-1.291-.342-.04-1.369-1.191-2.496-1.556-3.75-.248-.844-.298-1.689-.371-2.559-.032-.387-.074-.6-.505-.729-.524-.152-.471-.588-.653-1.07-.241.037-.691.377-.691.635 0 .883-.807.934-1.165 1.535-.334-.408-.488-1.119-.83-1.465-.37-.375-.476-.441-.382-.992-.574-.475-.605.283-1.005.471-.116.15-.468.525-.758.971-.067-1.033-.098-2.068-.101-3.092h21.105c-.018 7.252-1.162 15.066-10.552 18.789"/><path d="m44.299 21.092c.26.162.479.445.406.85-.216 1.219.424 2.391 1.346 2.834.089.043.107.074.091.24-.02.166-.081.441-.131.512s-.075.186.086.131c-.111.205-.358.617-.432.723-.737-.09-1.341.01-1.396.784-.006.076.02.195.137.006.115-.191.243-.374.563-.424-.188.288-.248.545-.217.709.028.166.074.268.155.057.081-.213.227-.41.386-.527.06-.045.101-.057.056.076-.046.129.02.41.109.506.093.096.137.055.111-.102-.024-.154.014-.48.206-.583.276-.145.511-.07.622.122.109.189.206.01.085-.208-.121-.213-.246-.365-.446-.381.175-.311.381-.688.427-.764.044-.076.115-.111.173-.064.062.045.102.039.161-.084.062-.127.167-.5.319-.648.072-.021.193-.049.238-.09.197.285.37.602.416.672.047.07.097.102.051.246-.045.146-.198.607-.226.707-.545.021-.799.031-.974.336-.076.135.045.186.175.115.133-.068.319-.129.411-.115.096.016.143.064.046.111-.336.167-.545.377-.532.668.006.105.051.158.131.016.117-.201.327-.4.582-.457-.014.246.041.607.19.684.151.074.161-.002.105-.146-.09-.232.006-.465.115-.588.238-.262.774.102.874.191s.189.127.135-.105c-.075-.313-.518-.493-.892-.543.105-.508.386-1.531.536-1.883.221.121.394-.195.762-.061.623.232 1.557.814 1.718.943.161.131.219.102.3.031.08-.07.221 0 .332.02.107.02.209.051.066-.23-.138-.281-.479-.773-1.05-1.154.34.029.801.029.801-.059 0-.092-.53-.264-.753-.283.211-.051.534-.172.684-.34.088-.102-.018-.127-.33-.131-.965-.021-1.444-.014-1.945-.303-.805-.463-1.264-.947-1.658-1.156-.211-.109-.34-.363-.42-.584-.26-.703-.248-1.02-.861-1.25-.61-.232-1.315.051-1.634.342-.354.012-1.118.02-1.279.107-.157.092-.229.133.05.182.282.047.756.182 1.019.342"/></svg>