<svg xmlns="http://www.w3.org/2000/svg" viewBox="0 0 64 64" enable-background="new 0 0 64 64"><path d="m41.221 26.974c-.002-.011-.003-.022-.004-.033-.035-.25-.162-1.155.004.033"/><path d="m15.057 30.758c-.035-.594.049.883 0 0"/><path d="m43.584 27.445c.002.002.002.005.005.007.203.17.065.053-.005-.007"/><path d="m36.021 25.699c0 .004.001.007.001.011-.001-.017-.001-.032-.001-.046-.002-.02-.004-.037-.006-.051.004.026.006.057.006.086"/><path d="m37.078 31.938c-.001.001-.002.002-.004.003.265-.15.11-.063.004-.003"/><path d="m36.023 25.758c0-.002-.001-.028-.002-.059-.004-.041-.011-.087-.014-.125.054.729.047.51.029.268-.007-.048-.01-.088-.015-.132.002.018-.001.025.002.048"/><path d="m36.997 21.395c.177.32-.155-.285 0 0"/><path d="m37.074 31.94c-.001 0-.002.001-.002.001-.013.008-.023.014-.033.02.01-.006.018-.011.035-.021"/><path d="m40.9 43.011h3.505v.97h-3.505z"/><path d="m40.608 30.931c-.259-.616.468 1.127 0 0"/><path d="m32 2c-16.568 0-30 13.432-30 30s13.432 30 30 30 30-13.432 30-30-13.432-30-30-30m-10.905 41.398c-2.16 0-2.337-1.734-2.337-1.734h21.43l.428-1.223.431 1.223h4.262v3.154h-5.184v-1.42h-19.03m14.02-20.527c-.031-.503-.547-1.932.006-2.279.526-.33 1.087 1.615.934 1.982-.196.465-.19.821-.02 1.427.221.781.651 1.475 1.066 2.164.581.968 1.807 2.372 1.433 3.596-.611-.312-.976-1.704-1.241-2.274-.217-.467-.434-.938-.703-1.379-.066-.107-.55-.74-.568-.443.006.051.011.112.016.178.197 1.453 1.095 4.612-.338 5.361-.209-.401.04-1.023.098-1.437.113-.836-.107-1.771-.211-2.601-.232-1.873-.377-3.282-1.687-4.729-.344-.38-.791-.723-.851-1.26-.023-.211-.104-1.101.336-.849.248.142 1.926 1.558 1.037 1.605.103.153.473.981.693.938m1.983-.441c-.023-.346.078-.711-.101-1.035-.109-.199-.399-.405-.356-.666.055-.355.344-.327.483-.104.271.434.467 1.447-.026 1.805m.759.49c.684 1.325-1.482.942-.986.221.074.129.149.259.227.388.068-.181.136-.359.205-.54.431.968.153.138.554-.069m1.357 2.262c.132 1.251.332 2.517.219 3.778-.171 1.913-1.166 3.918-3.405 3.532.111-.301.791-.41 1.045-.551.002-.001.004-.003.006-.004 2.6-1.47 1.774-4.611 1.536-7.072-.065-.678-.14-1.354-.197-2.032-.045-.511-.348-1.181-.169-1.673.483-1.325.887-.05 1.033.647.107.524-.254.544-.225.966.053.805.072 1.606.157 2.409m-6.121 6.228c-.067-.173 1.114-1.012.778-.072-.306.851.935.098 1.238.032-.43.678-1.816 1.319-1.617-.038-.135.026-.266.052-.399.078m.966-4.734c-.61 1.095-2.178 1.124-3.184 1.633.107.57 2.992-.117 3.438-.107.459.012 1 .238.674.789-.336.563-1.29.602-1.859.68-.582.081-1.526.101-1.912.631-.554.756.543.898.968 1.129.952.521-.56.958-1.007.872-1.477-.29-1.745-1.118-2.679-2.082-.88 1.135-3.618 3.799-4.262 1.063-1.017.348-1.994.848-3.071.981.459-.731 1.508-1.01 2.228-1.394.939-.502 1.019-1.372 1.539-2.197.153.34.006.697.09 1.045.814-.399 1.774-1.184 1.362-2.181-.047-.111-1.195-2.429-.204-2.017.878.367.632 1.239.772 1.952.247 1.271-.308 1.985-1.251 2.712-.415.318-1.435 1.441-.169 1.431.886-.01 1.696-.947 2.167-1.605.576-.807.37-1.577.032-2.447-.248-.642-.987-2.213-.075-2.662.701 1.097 1.019 2.397 1.229 3.665.183 1.085.425 2.134 1.605 2.492-.144-.797.405-1.34 1.072-1.659-.465-.438-3.262.148-2.199-1.393.359-.521 2.372-.87 2.314-1.266-.121-.839.374-1.723 1.323-1.584.683.098 1.47.781 1.059 1.519m-10.406 1.444c.423.242.269 1.333-.185 1.492.032-.237-.124-1.669.185-1.492m1.335-4.129c.046.563-.979 1.192-1.099.409-.052-.326.344-1.339.64-1.095-.365.919-.401 1.183.459.686m-2.366-.288c-.063-.457 1.121-1.15 1.413-1.387.313-.256.488-.292.35-.653-.165-.424-.08-1.077.419-1.236 1.003-.319.282 1.118.415 1.502.183.538-2.295 1.724-2.597 1.774m7.177 1.824c.177.192.15.486.383.64.048-.227.098-.453.147-.68.229.123.185.435.425.54.086-.225.136-.455.149-.695.95.777-1.557 2.112-1.104.195m2.587-3.979c.196.836.615 2.048-.042 2.881-.526.669-1.347.063-1.761-.399-.484.632-1.466 1.554-2.255.792-.624-.604.144-1.637-.433-2.201-.257.522-.771 2.827-1.677 1.765-.501-.59-1.143-2.69-.144-3.113-.093.78-.262 1.715.225 2.408.517.732.999-1.117 1.16-1.442.332-.67 1.279-1.866 1.087-.37-.077.592-.294 1.939.306 2.347.364.248.904-.195 1.115-.463.427-.538.238-1.262.104-1.868-.11-.492-.26-1.088.042-1.545.413-.628.656.805.678 1.063.021.256.344 3.374 1.114 2.341.65-.877-1.182-2.815.054-3.348.446-.194 1.398 1.801.427 1.152m-3.181-1.04c.615.076.558 1.522.148 2.027-.038-.435-.548-2.078-.148-2.027m-10.501-.17c.036.106.223.631.597.075.058.256.2.709.417.198.768.851-1.959.609-1.014-.273m-3.073.361c-.219.094-.401-.173-.179-.357.727-.603.448 1.381.145 1.295-.308-.089.189-.622.034-.938m-1.079 1.149c.608.33-.121 2.439.642 2.545.382.052.467-1.596.626-1.894.247-.453 1.281-1.852 1.083-.497-.092.622-.566 2.418.555 2.387-.066-.993-.217-1.949-.356-2.931-.077-.524.147-1.496.608-.634.336.632.086.884.04 1.494-.052.676.185 1.329.25 1.995.555-.529-.177-2.347.319-3.144 1.135.495-.2 2.885 1.306 3.096.686.097-.027-2.233.022-2.617.057-.403.413-.619.619-.179.267.57.305 1.275.359 1.894.046.524.072 1.063-.313 1.482-.586.636-1.371.252-1.643-.461-1.348 1.218.431 3.204-.76 4.444-.187-1.033.046-2.255-.391-3.234-.234-.528-1.125-.314-1.19-1.224-.029-.42.265-1.44-.073-1.769-.177.433-.382 3.411-1.411 2.595-.757-.598-.594-2.55-.292-3.348m1.202 9.125c.209.428-.322 1.458-.828.979-.701-.667-.092-2.231.236-2.929.234.441-.134 1.25-.105 1.734.042.752.256.4.697.216m-1.139-3.243c-.037-.374 2.848-2.011 2.527-1.407-.196.368-2.5 1.69-2.527 1.407m1.852.366c.356.594-.027 1.65.197 2.33-.012-.036-.022-.067-.032-.097.009.028.017.049.032.098 0 .001 0 .001.001.003.444 1.335 2.179.919 3.124.464 1.575-.759 1.558-1.949 1.558-3.503-.563.286-.457 1.406-.729 1.903-.413.753-1.683 1.49-2.547 1.361-1.258-.188-1.899-2.358-.874-3.159.246.733-.28 2.124.872 2.255.851.098 2.627-.945 2.37-1.963-1.134.344-1.877.021-1.52-1.313.321-1.2 1.514-.336 1.937.296 1.87-1.059-1.5-5.18.455-6.286.401.689.958 1.588.467 2.277-.565.79.028 2.499.09 3.387.991-.848.236.684.991.779.535.067.697-1.226 1.002-1.192.063.251.121 1.196.584 1.041.552-.183-.102-.97.519-1.178.183.447.145 1.947-.634 1.834-.626-.092-.528-.493-1.168-.094-.543.34-.751-.048-1.196-.25-.138 1.189.264 2.495-.426 3.576-.582.912-1.729 1.335-2.743 1.529-2.58.497-3.293-2.048-2.33-4.098m24.75-1.156c.004.034.007.052.007.055.148 1.021.479 2.706-.051 3.636-.357.63-.437-.344-.447-.54-.05-.803-.06-1.607-.121-2.41-.158-2.122-.866-4.279-.856-6.407.009-2.67 2.275 1.52.978 1.293.113 1.459.287 2.923.49 4.373m1.705-3.446c.361-.473.809.092.613.295-.225.23-.471-.193-.451.391.012.336.186.9-.133 1.158-.23-.119-1.101-1.381-.941-1.603.271-.378.723.772.82.907.088-.371-.163-.808.092-1.148m.667 3.958c-.063-.055-.044-.038-.005-.007-.435-.388.116-.826.42-.393.23.328.24 1.095-.183 1.292 0-.31.038-.663-.232-.892m-1.329-.177c-.269-.407 1.452-1.502 1.75-1.699.205.313-1.241 1.437-1.75 1.699m.125 1.88c.795-1.198 1.936 1.894 2.458-.084.328-1.239-.079-2.563-.177-3.805-.072-.914-.396-1.629-.946-2.351-.567-.747-1.191-1.45-.838-2.447.958.373.968 1.176 1.476 1.923.138-.588-.325-1.333.052-1.89.445-.661.866 1.165.91 1.363.115.526-.405.688-.093 1.431.244.582.594 1.176.999 1.661-.081-.543-.999-4.586.034-4.669.3-.024.563 1.146.609 1.337.155.622-.177 1.116-.213 1.742-.069 1.175.136 2.51.849 3.473.354.476 1.87 2.254 1.095 2.836-.549-.701-.991-1.479-1.508-2.2 0 .745.183 1.624-.24 2.297-.386-.171-.165-1.448-.161-1.774.012-1.092-.701-2.016-1.296-2.856-.168 1.438.933 4.239-.352 5.343-.926.797-2.019-.946-2.376-.316-.276.485-.964 2.261-1.723 2.094-.953-.21-1.698-2.941-.598-3.277.04.647.004 1.335.262 1.946.534 1.285 1.509-1.377 1.777-1.777m5.07-8.087c.461.34.674 1.751.244 2.231-.152-.595-.753-1.772-.244-2.231m-2.849 9.937c.252-.017.814.842.484 1.063-.223.147-1.081.308-.578-.141.569-.505.029-.918.094-.922m1.888 1.227c-.04-.57 1.27-1.154 1.635-1.456.939-.773.872-2.229.803-3.314-.096-1.462-.217-2.962-.465-4.404-.144-.839-.574-2.122.215-2.779.442.377 1.209 1.428.852 1.857-.427.513.109 4.984.119 5.341.059 2.103-.554 4.755-3.159 4.755"/></svg>