<svg xmlns="http://www.w3.org/2000/svg" viewBox="0 0 64 64" enable-background="new 0 0 64 64"><path d="m18.953 21.948c1.09.094 2.881-.188 3.158-.509.098-.112-.018-.244-.327-.375-.993-.434-3.856-.376-4.947.111-.39.189.912.642 2.116.773"/><path d="m17.081 10.528c.05-.113.032-.188-.065-.188-.08 0-.211.075-.26.188-.049.094-.032.188.066.188.08 0 .211-.094.259-.188"/><path d="m16.756 40.52c-.049.094-.032.188.066.188.08 0 .211-.095.259-.188.05-.113.032-.188-.065-.188-.08 0-.211.074-.26.188"/><path d="m47.408 21.948c1.09.094 2.881-.188 3.158-.509.098-.112-.018-.244-.326-.375-.993-.434-3.857-.376-4.948.111-.39.189.913.642 2.116.773"/><path d="m45.212 10.528c-.05.094-.033.188.065.188.08 0 .211-.094.259-.188.05-.113.032-.188-.065-.188-.08 0-.211.075-.259.188"/><path d="m50.24 51.057c-.993-.435-3.857-.377-4.948.111-.39.188.913.641 2.116.771 1.09.094 2.881-.188 3.158-.509.098-.112-.017-.243-.326-.373"/><path d="m45.212 40.52c-.05.094-.033.188.065.188.08 0 .211-.095.259-.188.05-.113.032-.188-.065-.188-.08 0-.211.074-.259.188"/><path d="m18.953 51.939c1.09.094 2.881-.188 3.158-.509.098-.112-.018-.244-.327-.374-.993-.435-3.856-.377-4.947.111-.39.188.912.642 2.116.772"/><path d="m32 2c-16.568 0-30 13.432-30 30s13.432 30 30 30 30-13.432 30-30-13.432-30-30-30m8.768 18.876c.292.111.928.188 1.383.188.862 0 .862 0 .862-.603 0-.432.163-.753.636-1.279.847-.941 1.84-1.298 4.069-1.506 1.026-.094 1.921-.244 2.001-.338.212-.244-.666-.545-2.018-.676-2.311-.207-3.548-1.694-2.489-3.011.439-.545.91-.79 2.051-1.072.928-.227 1.27-.601.943-1.035-.163-.225-.375-.263-.943-.169-.684.113-2.247.152-3.126.094-.099 0-.099-.169-.26-.15-.244.037-.928.208-1.189.244-.666.094-1.139.094-1.352-.056-.276-.207-.063-.171.294-.058.261.077-.423-.244-.294-.263.115 0 .538.133.719.133.52.017 1.27-.133 1.546-.246.292-.111.063-.111.063-.282 0-.15.311-.451.701-.659.585-.319.912-.355 2.262-.28 2.23.13 2.896.601 2.896 2.013 0 .922-.666 1.598-1.984 2.049-1.857.659-1.693 1.11.504 1.336 2.229.244 3.272.864 3.272 1.956 0 1.129-1.059 1.732-3.401 1.957-1.061.113-1.84.301-2.313.564-.39.227-.57.357-.407.302.88-.302 2.898-.49 3.924-.376 2.034.207 3.01.789 3.01 1.786 0 1.336-1.481 2.126-4.068 2.145-1.97.019-3.157-.321-4.2-1.202-.521-.434-.847-.565-1.433-.565-.765 0-1.692-.396-2.019-.847-.161-.226-.095-.226.36-.094m-27.168-9.557c.52.017 1.269-.133 1.545-.246.293-.111.064-.111.064-.282 0-.15.311-.451.7-.659.586-.319.913-.355 2.263-.28 2.229.13 2.896.601 2.896 2.013 0 .922-.667 1.598-1.984 2.049-1.857.659-1.693 1.11.504 1.336 2.229.244 3.272.864 3.272 1.956 0 1.129-1.059 1.732-3.401 1.957-1.061.113-1.84.301-2.313.564-.391.227-.57.357-.407.302.88-.302 2.897-.49 3.924-.376 2.034.207 3.009.789 3.009 1.786 0 1.336-1.48 2.126-4.067 2.145-1.971.019-3.157-.321-4.2-1.202-.521-.434-.847-.565-1.433-.565-.765 0-1.692-.396-2.019-.847-.161-.227-.096-.227.359-.094.292.111.928.188 1.383.188.862 0 .862 0 .862-.603 0-.432.163-.753.636-1.279.847-.941 1.84-1.298 4.069-1.506 1.025-.094 1.921-.244 2.001-.338.212-.244-.666-.545-2.018-.676-2.311-.207-3.548-1.694-2.49-3.011.44-.545.911-.79 2.052-1.072.928-.227 1.27-.601.943-1.035-.163-.225-.375-.263-.943-.169-.684.113-2.247.152-3.127.094-.098 0-.098-.169-.259-.15-.244.037-.928.208-1.189.244-.629.089-1.077.089-1.305-.037.04-.037.078-.076.119-.114.042.012.079.022.128.037.123.037.034-.017-.079-.084.041-.038.08-.076.121-.113.143.034.293.067.384.067m5.646 35.335c-2.311-.207-3.548-1.694-2.49-3.012.44-.545.911-.789 2.052-1.072.928-.227 1.27-.601.943-1.035-.163-.225-.375-.263-.943-.168-.684.113-2.247.151-3.127.094-.098 0-.098-.17-.259-.15-.244.037-.928.208-1.189.244-.666.094-1.139.094-1.352-.056-.276-.208-.063-.171.294-.058.261.077-.423-.244-.294-.264.115 0 .537.133.719.133.52.018 1.269-.133 1.545-.246.293-.111.064-.111.064-.281 0-.15.311-.451.7-.659.586-.319.913-.355 2.263-.28 2.229.131 2.896.602 2.896 2.013 0 .922-.667 1.598-1.984 2.05-1.857.658-1.693 1.109.504 1.336 2.229.244 3.272.864 3.272 1.955 0 1.129-1.059 1.732-3.401 1.957-1.061.113-1.84.302-2.313.564-.391.227-.57.357-.407.302.88-.302 2.897-.489 3.924-.376 2.034.207 3.009.789 3.009 1.786 0 1.337-1.48 2.126-4.067 2.146-1.971.019-3.157-.321-4.2-1.203-.521-.434-.847-.564-1.433-.564-.765 0-1.692-.396-2.019-.847-.161-.227-.096-.227.359-.095.292.111.928.189 1.383.189.862 0 .862 0 .862-.604 0-.433.163-.753.636-1.279.847-.941 1.84-1.299 4.069-1.506 1.025-.094 1.921-.244 2.001-.338.213-.244-.665-.545-2.017-.676m6.854 12.715v-21.469h-21.469c-.41-1.904-.631-3.877-.631-5.9 0-2.024.221-3.997.631-5.9h21.469v-21.469c1.903-.41 3.876-.631 5.9-.631s3.997.221 5.9.631v21.469h21.469c.41 1.903.631 3.876.631 5.9 0 2.023-.221 3.996-.631 5.9h-21.469v21.469c-1.903.41-3.876.631-5.9.631s-3.997-.221-5.9-.631m23.998-6.029c-.573.145-1.247.23-2.038.236-1.97.019-3.157-.321-4.2-1.203-.521-.434-.847-.564-1.433-.564-.765 0-1.692-.396-2.019-.847-.161-.227-.096-.227.359-.095.292.111.928.189 1.383.189.862 0 .862 0 .862-.604 0-.433.163-.753.636-1.279.847-.941 1.84-1.299 4.069-1.506 1.026-.094 1.921-.244 2.001-.338.212-.244-.666-.545-2.018-.676-2.311-.207-3.548-1.694-2.489-3.012.439-.545.91-.789 2.051-1.072.928-.227 1.27-.601.943-1.035-.163-.225-.375-.263-.943-.168-.684.113-2.247.151-3.126.094-.099 0-.099-.17-.26-.15-.244.037-.928.208-1.189.244-.666.094-1.139.094-1.352-.056-.276-.208-.063-.171.294-.058.261.077-.423-.244-.294-.264.115 0 .538.133.719.133.52.018 1.27-.133 1.546-.246.292-.111.063-.111.063-.281 0-.15.311-.451.701-.659.585-.319.912-.355 2.262-.28 2.23.131 2.896.602 2.896 2.013 0 .922-.666 1.598-1.984 2.05-1.857.658-1.693 1.109.504 1.336 2.229.244 3.272.864 3.272 1.955 0 1.129-1.059 1.732-3.401 1.957-1.061.113-1.84.302-2.313.564-.39.227-.57.357-.407.302.88-.302 2.898-.489 3.924-.376 2.034.207 3.01.789 3.01 1.786 0 .002-.001.003-.001.005-.644.669-1.32 1.304-2.028 1.905"/></svg>