<svg xmlns="http://www.w3.org/2000/svg" viewBox="0 0 64 64" enable-background="new 0 0 64 64"><path d="m32 2c-16.568 0-30 13.432-30 30s13.432 30 30 30 30-13.432 30-30-13.432-30-30-30m17.344 17.374c.089.34-.408.655-.969.807-.076.02-.146.036-.216.056h-2.839c1.101-.517 1.721-.793 2.779-1.075.546-.147 1.143-.162 1.245.212m-.472-1.494c.12.33-.348.689-.896.888-1.306.476-2.041.563-4.067.92 1.784-1.023 2.386-1.431 3.706-1.913.531-.193 1.124-.26 1.257.105m-.6-1.448c.147.319-.286.719-.814.965-1.258.585-1.985.739-3.972 1.268 1.685-1.174 2.249-1.631 3.526-2.227.511-.239 1.097-.358 1.26-.006m-.721-1.389c.174.304-.225.738-.729 1.029-1.204.695-1.912.911-3.847 1.611 1.577-1.317 2.099-1.822 3.319-2.525.488-.282 1.06-.451 1.257-.115m-.844-1.321c.202.288-.157.757-.634 1.089-1.139.799-1.828 1.074-3.69 1.94 1.455-1.45 1.932-1.998 3.086-2.805.459-.324 1.015-.541 1.238-.224m-4.002 6.514h-21.414c1.56-4.409 5.766-7.568 10.709-7.568s9.149 3.159 10.705 7.568m3.05-7.757c.225.269-.095.767-.538 1.141-1.066.894-1.727 1.228-3.507 2.253 1.323-1.569 1.749-2.159 2.829-3.063.43-.362.968-.628 1.216-.331m-1.059-1.156c.248.25-.024.772-.436 1.183-.983.985-1.613 1.375-3.298 2.553 1.182-1.681 1.554-2.303 2.551-3.298.398-.4.909-.71 1.183-.438m-1.156-1.056c.269.227.042.771-.33 1.216-.896 1.064-1.486 1.51-3.063 2.829 1.031-1.776 1.351-2.43 2.255-3.509.363-.433.842-.785 1.138-.536m-1.242-.954c.288.201.109.764-.224 1.24-.799 1.139-1.35 1.633-2.803 3.087.871-1.861 1.129-2.539 1.938-3.691.322-.464.771-.859 1.089-.636m-1.319-.842c.305.177.174.751-.115 1.257-.695 1.202-1.203 1.743-2.525 3.316.706-1.929.906-2.627 1.609-3.847.28-.488.693-.92 1.031-.726m-1.391-.724c.318.149.242.733-.006 1.262-.588 1.26-1.045 1.842-2.227 3.524.536-1.984.677-2.696 1.27-3.972.238-.51.611-.977.963-.814m-1.446-.6c.33.121.304.711.104 1.257-.476 1.306-.88 1.926-1.911 3.706.361-2.022.437-2.744.918-4.067.193-.53.521-1.027.889-.896m-1.495-.469c.338.092.362.68.213 1.24-.358 1.345-.71 1.997-1.581 3.86.186-2.048.196-2.773.562-4.133.145-.543.432-1.068.806-.967m-2.249.694c.098-.555.336-1.102.719-1.035.348.062.424.647.322 1.22-.242 1.369-.534 2.052-1.238 3.983.003-2.057-.047-2.779.197-4.168m-1.46-.143c.05-.563.239-1.129.625-1.095.354.03.479.606.427 1.185-.121 1.387-.352 2.09-.886 4.076-.172-2.048-.288-2.764-.166-4.166m-.938-1.165c.352 0 .528.564.528 1.145 0 1.391-.169 2.113-.528 4.137-.354-2.023-.528-2.729-.528-4.137 0-.563.14-1.145.528-1.145m-1.563.07c.35-.03.574.515.622 1.095.121 1.385.018 2.118-.163 4.166-.526-1.986-.765-2.672-.886-4.076-.049-.561.041-1.153.427-1.185m-1.556.203c.348-.06.619.465.721 1.035.24 1.37.199 2.111.197 4.168-.699-1.934-.994-2.597-1.238-3.983-.096-.555-.062-1.153.32-1.22m-1.529.341c.341-.093.656.406.807.968.361 1.344.383 2.084.562 4.133-.864-1.865-1.218-2.499-1.581-3.86-.147-.545-.162-1.142.212-1.241m-1.495.469c.333-.119.689.35.89.896.475 1.306.563 2.041.918 4.067-1.023-1.782-1.431-2.383-1.913-3.706-.189-.528-.257-1.124.105-1.257m-1.447.6c.318-.147.718.288.964.814.588 1.26.739 1.985 1.27 3.972-1.175-1.685-1.631-2.249-2.228-3.524-.238-.511-.355-1.099-.006-1.262m-1.389.724c.305-.177.739.223 1.029.727.697 1.204.91 1.915 1.611 3.847-1.317-1.577-1.82-2.098-2.525-3.316-.28-.492-.448-1.064-.115-1.258m-1.321.842c.29-.202.757.157 1.091.636.797 1.139 1.071 1.826 1.938 3.691-1.449-1.458-1.997-1.933-2.804-3.087-.323-.463-.542-1.018-.225-1.24m-1.241.954c.27-.227.765.091 1.139.536.894 1.065 1.228 1.727 2.254 3.509-1.57-1.325-2.159-1.752-3.063-2.829-.362-.432-.629-.968-.33-1.216m-1.156 1.056c.25-.248.772.024 1.184.438.983.981 1.373 1.611 2.551 3.298-1.681-1.181-2.301-1.556-3.298-2.553-.398-.398-.71-.908-.437-1.183m-1.058 1.156c.227-.271.772-.042 1.216.33 1.065.896 1.51 1.488 2.828 3.063-1.775-1.029-2.429-1.349-3.506-2.253-.432-.362-.788-.844-.538-1.14m-.954 1.243c.201-.288.764-.109 1.24.225 1.141.798 1.635 1.351 3.086 2.805-1.861-.872-2.539-1.132-3.691-1.94-.463-.324-.859-.773-.635-1.09m-.842 1.321c.177-.305.751-.177 1.256.115 1.202.695 1.744 1.202 3.316 2.525-1.928-.706-2.625-.906-3.846-1.611-.486-.282-.92-.693-.726-1.029m-.722 1.389c.148-.318.734-.24 1.26.006 1.261.588 1.844 1.047 3.527 2.227-1.984-.536-2.699-.675-3.973-1.268-.513-.241-.978-.614-.814-.965m-.599 1.448c.121-.33.708-.304 1.254-.105 1.308.477 1.927.882 3.707 1.913-2.022-.363-2.745-.438-4.065-.92-.532-.193-1.029-.525-.896-.888m-.473 1.494c.093-.34.68-.364 1.241-.213 1.049.28 1.676.555 2.788 1.075h-2.844c-.07-.02-.144-.036-.215-.056-.545-.145-1.069-.431-.97-.806m-8.401 1.626h51.492c.246.575.471 1.162.678 1.756h-52.85c.209-.594.434-1.181.68-1.756m51.492 22h-51.492c-.246-.575-.471-1.162-.68-1.756h52.85c-.207.594-.432 1.181-.678 1.756"/></svg>