<svg xmlns="http://www.w3.org/2000/svg" viewBox="0 0 64 64" enable-background="new 0 0 64 64"><path d="m40.802 31.061l-.935-2.995-.935 2.995-2.998.009 2.42 1.862-.918 3.002 2.431-1.846 2.431 1.846-.918-3.002 2.42-1.862z"/><path d="m52.602 31.061l-.935-2.995-.936 2.995-2.998.009 2.42 1.862-.918 3.002 2.432-1.846 2.431 1.846-.918-3.002 2.42-1.862z"/><path d="m32 2c-16.568 0-30 13.432-30 30s13.432 30 30 30 30-13.432 30-30-13.432-30-30-30m-8.419 39.833l-10.646 10.646c-.488-.454-.96-.926-1.414-1.414l19.065-19.065-19.065-19.065c.454-.488.926-.959 1.413-1.414l10.646 10.646h34.633c1.152 3.061 1.787 6.373 1.787 9.833s-.635 6.772-1.787 9.833h-34.632"/></svg>