<svg xmlns="http://www.w3.org/2000/svg" viewBox="0 0 64 64" enable-background="new 0 0 64 64"><path d="M32,2C15.432,2,2,15.432,2,32s13.432,30,30,30s30-13.432,30-30S48.568,2,32,2z M32,4c9.61,0,18.104,4.868,23.148,12.267
	H8.852C13.896,8.868,22.39,4,32,4z M43.8,34.837l-3.508-1.093l-2.165,2.844l0.008-3.511L34.623,32l3.512-1.077l-0.008-3.511
	l2.165,2.844l3.508-1.093L41.624,32L43.8,34.837z M32.819,39.867c1.645,0,3.169-0.518,4.425-1.398
	c-1.782,2.063-4.4,3.364-7.322,3.364c-5.37,0-9.722-4.401-9.722-9.833s4.352-9.833,9.722-9.833c2.922,0,5.54,1.304,7.322,3.364
	c-1.256-0.879-2.78-1.397-4.425-1.397c-4.296,0-7.778,3.521-7.778,7.866S28.523,39.867,32.819,39.867z M32,60
	c-9.61,0-18.104-4.868-23.148-12.267h46.296C50.104,55.132,41.61,60,32,60z"/></svg>