<svg xmlns="http://www.w3.org/2000/svg" viewBox="0 0 64 64" enable-background="new 0 0 64 64"><path d="m52 2h-40c-5.523 0-10 4.477-10 10v40c0 5.523 4.477 10 10 10h40c5.523 0 10-4.477 10-10v-40c0-5.523-4.477-10-10-10m-34.916 44.742c-.784 0-2.457.051-3.084.258v-6.518c.68.156 2.092.26 2.979.26h7.374v-17.638h-7.165c-.836 0-2.457.104-3.032.207v-6.311c.785.154 2.353.311 3.032.311h9.203c.629 0 3.19-.104 3.556-.156 0 1.088-.051 2.898-.051 4.191v20.172c0 1.551.104 5.225.104 5.225h-12.916zm20.042 0c-.781 0-2.448.051-3.126.258v-6.518c.729.156 2.136.26 3.022.26h7.351v-17.638h-7.142c-.833 0-2.45.104-3.022.207v-6.311c.781.154 2.344.311 2.971.311h9.225c.626 0 3.18-.104 3.543-.156 0 1.088-.052 2.898-.052 4.191v20.172c0 1.551.104 5.225.104 5.225h-12.874z"/></svg>