<svg xmlns="http://www.w3.org/2000/svg" viewBox="0 0 64 64" enable-background="new 0 0 64 64"><path d="m52 2h-40c-5.524 0-10 4.477-10 10v40c0 5.523 4.477 10 10 10h40c5.523 0 10-4.477 10-10v-40c0-5.523-4.477-10-10-10m-4 28.506c-.734-.053-2.309-.105-4.145-.105h-2.045v.42c0 8.986-2.729 15.186-11.961 19.18l-4.355-4.361c6.979-2.365 10.702-5.727 10.702-14.607v-.633h-8.184v4.047c0 1.576.158 3.309.211 4.045h-5.875c.104-.736.21-2.469.21-4.045v-4.047h-2.414c-1.783 0-3.306.053-4.144.105v-5.781c.682.105 2.412.316 4.144.316h2.414v-3.154c0-1.313-.157-2.889-.21-3.572h5.928c-.105.684-.264 2.207-.264 3.627v3.1h8.184v-3.363c0-1.42-.104-2.943-.209-3.678h6.086c-.105.734-.262 2.258-.262 3.678v3.363h2.045c1.836 0 3.199-.158 4.145-.264v5.729z"/></svg>