<svg xmlns="http://www.w3.org/2000/svg" viewBox="0 0 64 64" enable-background="new 0 0 64 64"><path d="m30.561 31.056h2.838v4.892h-2.838z"/><path d="m30.561 22.048h2.838v4.928h-2.838z"/><path d="m24.008 22.048h2.758v4.928h-2.758z"/><path d="m37.193 31.056h2.916v4.892h-2.916z"/><path d="m37.193 22.048h2.916v4.928h-2.916z"/><path d="m24.008 31.056h2.758v4.892h-2.758z"/><path d="m52 2h-40c-5.523 0-10 4.478-10 10v40c0 5.523 4.477 10 10 10h40c5.523 0 10-4.477 10-10v-40c0-5.522-4.477-10-10-10m-30.062 12l4.445 1.31c-.422.925-.918 1.81-1.494 2.695h23.004v4.043h-3.605v4.928h4.984v4.08h-4.984v4.892h4.447v4.08h-33.315v-4.08h4.561v-4.892h-5.137v-4.08h5.137v-2.772c-.766.731-1.494 1.424-2.262 2.003-.844-.81-2.684-2.271-3.719-3.003 3.221-2.119 6.248-5.623 7.938-9.204m-3.145 36l-4.332-1.771c1.688-1.617 3.41-4.582 4.293-7.393l4.41 1.078c-.844 2.926-2.492 6.084-4.371 8.086m7.551-.463c0-1.846-.307-5.004-.729-7.354l4.256-.5c.461 2.348.883 5.391.922 7.199l-4.449.655m8.82.039c-.232-1.85-1.111-4.967-1.955-7.316l4.293-.73c.92 2.273 1.879 5.275 2.225 7.162l-4.563.884m10.158.385c-.805-2.041-2.836-5.428-4.523-7.893l4.371-1.385c1.725 2.348 3.873 5.58 4.83 7.699l-4.678 1.579"/></svg>