<svg xmlns="http://www.w3.org/2000/svg" viewBox="0 0 64 64" enable-background="new 0 0 64 64"><path d="m52 2h-40c-5.524 0-10 4.477-10 10v40c0 5.523 4.477 10 10 10h40c5.523 0 10-4.477 10-10v-40c0-5.523-4.477-10-10-10m-28.227 33.646v9.375c0 2.275-.382 3.357-1.679 4.09-1.26.695-3.092.811-5.766.811-.114-1.158-.726-3.01-1.26-4.205 1.488.076 3.016.076 3.513.076.534-.037.726-.193.726-.734v-8.217l-4.238 1.08-1.069-4.359c1.527-.348 3.359-.771 5.307-1.234v-6.869h-4.734v-4.242h4.734v-7.218h4.466v7.217h3.894v4.242h-3.894v5.789c1.337-.348 2.673-.695 3.971-1.041l.535 4.166c-1.489.424-2.979.85-4.506 1.273m24.356 14.198h-4.504v-1.504h-9.734v1.66h-4.315v-17.596h18.553v17.44m-4.389-19.637h-7.406c-5.307 0-6.681-1.313-6.681-5.75v-10.457h4.542v5.055c3.816-.965 7.635-2.199 10.154-3.395l3.359 3.316c-3.895 1.584-8.971 2.895-13.514 3.822v1.619c0 1.467.381 1.658 2.557 1.658h6.643c1.91 0 2.215-.617 2.482-4.436.955.693 2.863 1.428 4.123 1.658-.571 5.441-1.907 6.91-6.259 6.91"/><path d="m33.891 42.129h9.734v2.545h-9.734z"/><path d="m33.891 36.186h9.734v2.354h-9.734z"/></svg>