<svg xmlns="http://www.w3.org/2000/svg" viewBox="0 0 64 64" enable-background="new 0 0 64 64"><path d="m42.363 28.662h-14.76c-.038 1.371-.112 2.887-.258 4.4h15.019v-4.4z"/><path d="m27.603 20.184h14.761v4.402h-14.761z"/><path d="m52 2h-40c-5.523 0-10 4.477-10 10v40c0 5.523 4.477 10 10 10h40c5.523 0 10-4.477 10-10v-40c0-5.523-4.477-10-10-10m-5 40.516c0 2.598-.625 3.824-2.318 4.547-1.768.758-4.344.828-8.135.828-.258-1.262-1.142-3.318-1.841-4.51 2.576.145 5.669.109 6.479.109.883 0 1.179-.289 1.179-1.047v-5.23h-15.757c-.956 4.039-2.797 7.973-6.221 10.787-.662-.902-2.429-2.49-3.387-3.104 5.559-4.654 6.074-11.545 6.074-17.027v-11.869h23.927v26.516"/></svg>