<svg xmlns="http://www.w3.org/2000/svg" viewBox="0 0 64 64" enable-background="new 0 0 64 64"><path d="m34.607 19.897h5.725v3.177h-5.725z"/><path d="m52 2h-40c-5.523 0-10 4.478-10 10v40c0 5.523 4.477 10 10 10h40c5.523 0 10-4.477 10-10v-40c0-5.522-4.477-10-10-10m-37.307 21.934c2.605.814 6.025 2.401 7.734 3.775l-2.822 4.291c-1.58-1.373-4.957-3.133-7.605-4.205l2.693-3.861m2.905 27.595l-4.484-3.006c1.92-3.305 4.656-8.711 6.836-13.732l4.016 3.047c-1.923 4.592-4.146 9.527-6.368 13.691m34.402-23.992h-12.178v2.575h11.24v17.038c0 2.232-.43 3.391-1.883 4.078-1.453.686-3.504.729-6.41.729-.084-1.242-.598-3.047-1.154-4.248 1.582.086 3.418.086 3.975.086.557-.043.727-.215.727-.688v-12.574h-7.051v6.826h2.094v-5.066h2.949v10.17h-2.949v-1.416h-7.734v2.49h-3.033v-11.244h3.033v5.066h1.922v-6.826h-6.709v17.467h-4.486v-21.888h10.598v-2.575h-11.881v-4.463h6.793v-3.177h-5.471v-3.047l-3.162 4.033c-1.453-1.502-4.613-3.646-7.18-4.892l2.992-3.692c2.521 1.16 5.727 3.049 7.35 4.551v-1.374h5.471v-3.476h4.744v3.477h5.725v-3.477h4.916v3.477h5.557v4.421h-5.557v3.177h6.752v4.462"/></svg>