<svg xmlns="http://www.w3.org/2000/svg" viewBox="0 0 64 64" enable-background="new 0 0 64 64"><path d="m19.003 23.592h3.888v-2.098h4.154v2.098h3.889v-2.875h-11.931z"/><path d="m21.213 41.533h7.585v3.301h-7.585z"/><path d="m52 2h-40c-5.523 0-10 4.477-10 10v40c0 5.523 4.477 10 10 10h40c5.523 0 10-4.477 10-10v-40c0-5.523-4.477-10-10-10m-18.895 47.611h-4.307v-1.32h-7.585v1.709h-4.077v-11.922h15.969v11.533m2.022-25.709h-1.982v2.951h-6.099v1.631h5.564v3.067h-5.564v1.671h7.662v3.535h-19.592v-3.535h7.775v-1.671h-5.641v-3.067h5.641v-1.631h-6.023v-2.951h-1.868v-6.68h7.776v-3.222h4.346v3.223h8.004v6.679zm1.6-6.021h4.309v21.711h-4.309v-21.711m12.273 26.525c0 2.564-.457 3.848-1.982 4.584-1.486.777-3.85.932-6.975.932-.189-1.32-.84-3.455-1.486-4.777 2.211.117 4.385.078 5.146.078.646 0 .914-.232.914-.854v-29.904h4.383v29.941"/></svg>