<svg xmlns="http://www.w3.org/2000/svg" viewBox="0 0 64 64" enable-background="new 0 0 64 64"><path d="m21.425 24.492h8.065v3.462h-8.065z"/><path d="m21.425 31.691h8.065v3.635h-8.065z"/><path d="m34.137 31.691h8.254v3.635h-8.254z"/><path d="m34.137 24.492h8.254v3.462h-8.254z"/><path d="M52,2H12C6.477,2,2,6.478,2,12v40c0,5.523,4.477,10,10,10h40c5.523,0,10-4.477,10-10V12C62,6.478,57.523,2,52,2z
		 M47,40.879h-4.609v-1.645h-8.254v8.775h-4.646v-8.775h-8.065v1.816H17V20.584h12.49V15.99h4.646v4.594H47V40.879z"/></svg>