<svg xmlns="http://www.w3.org/2000/svg" viewBox="0 0 64 64" enable-background="new 0 0 64 64"><path d="m52 2h-40c-5.523 0-10 4.478-10 10v40c0 5.523 4.477 10 10 10h40c5.523 0 10-4.477 10-10v-40c0-5.522-4.477-10-10-10m-33.234 17.829h-5.106v-4.106h6.468v-3.723h4.681v3.722h5.404v4.106h-5.404v.043c1.703.942 5.32 3.21 6.341 3.894l-2.64 3.422c-.808-.813-2.296-2.009-3.701-3.122v5.562h-4.681v-5.049c-1.533 2.055-3.278 3.894-5.105 5.134-.683-1.025-2.002-2.652-3.021-3.464 2.466-1.37 4.977-3.852 6.764-6.419m27.786 10.996v4.104h-28.509v-4.104h28.509m-30.254 20.663c-.937-.855-2.853-2.398-3.958-3.123 2.979-1.498 5.957-3.852 7.659-6.248l4.767 1.498c-2.085 3.039-5.49 6.076-8.468 7.873m30.042-.172c-1.618-1.924-5.234-4.963-8.17-6.973l4.042-2.396c2.852 1.84 6.596 4.707 8.469 6.717l-4.341 2.652m4.467-9.968h-16.083v5.777c0 2.395-.512 3.508-2.342 4.191-1.745.643-4.084.684-7.191.684-.298-1.367-1.063-3.164-1.703-4.404 2.128.127 4.596.127 5.234.084.681-.041.895-.172.895-.684v-5.648h-16.212v-4.278h37.401v4.278zm-1.957-11.722c-1.744-1.241-3.617-3.208-5.318-5.305v5.305h-4.767v-5.52c-1.703 2.182-3.701 4.151-5.744 5.436-.682-1.029-2.042-2.611-2.979-3.423 2.64-1.327 5.404-3.765 7.234-6.291h-5.575v-4.106h7.063v-3.722h4.767v3.722h6.979v4.106h-5.914c1.998 2.439 4.893 4.964 7.404 6.332-1.022.815-2.428 2.397-3.15 3.466"/></svg>