<svg xmlns="http://www.w3.org/2000/svg" viewBox="0 0 64 64" enable-background="new 0 0 64 64"><path d="m22.442 42.242h19.116v4.32h-19.116z"/><path d="M52,2H12C6.477,2,2,6.478,2,12v40c0,5.523,4.477,10,10,10h40c5.523,0,10-4.477,10-10V12C62,6.478,57.523,2,52,2z
		 M47.982,52H16.018V36.805h31.965V52z M20.85,34.645v-5.14h22.299v5.14H20.85z M51.025,32.691c0,0-7.914-2.591-19.024-11.529
		c-11.112,8.938-19.026,11.529-19.026,11.529L9.777,26.6C22.031,20.641,32.001,12,32.001,12s9.969,8.641,22.222,14.6L51.025,32.691z
		"/></svg>