<svg xmlns="http://www.w3.org/2000/svg" viewBox="0 0 64 64" enable-background="new 0 0 64 64"><path d="m26.189 29.182h11.207v2.684h-11.207z"/><path d="m23.133 41.449h17.697v3.336h-17.697z"/><path d="m52 2h-40c-5.523 0-10 4.477-10 10v40c0 5.523 4.477 10 10 10h40c5.523 0 10-4.477 10-10v-40c0-5.523-4.477-10-10-10m-6.717 48h-4.453v-1.266h-17.697v1.266h-4.264v-12.461h9.472c.188-.766.415-1.57.564-2.338h-6.867v-9.393h19.698v9.393h-7.963c-.302.844-.642 1.609-.98 2.338h12.49v12.461m2.717-21.775h-4.34v-4.295h-23.584v4.295h-4.076v-8.168h4.566c-.68-1.225-1.623-2.607-2.49-3.756l3.887-1.688c1.244 1.457 2.717 3.49 3.358 4.908l-1.208.535h5.813c-.529-1.379-1.548-3.258-2.454-4.715l3.924-1.341c1.095 1.496 2.341 3.682 2.867 5.061l-2.641.996h6.188c1.208-1.646 2.642-3.986 3.358-5.787l4.832 1.533c-1.095 1.457-2.227 2.99-3.283 4.254h5.283v8.168"/></svg>