<svg xmlns="http://www.w3.org/2000/svg" viewBox="0 0 64 64" enable-background="new 0 0 64 64"><path d="m26.878 30.009h14.172v2.466h-14.172z"/><path d="m52 2h-40c-5.523 0-10 4.478-10 10v40c0 5.523 4.477 10 10 10h40c5.523 0 10-4.477 10-10v-40c0-5.522-4.477-10-10-10m-2 20.963h-21.003c-.471 1.041-.98 2.041-1.57 3.042h18.177v19.021c0 2.271-.432 3.504-2.041 4.197-1.531.732-3.77.77-6.949.77-.197-1.27-.824-3.195-1.414-4.428 2.002.117 4.281.117 4.947.117.668-.039.904-.232.904-.771v-2.309h-14.173v7.354h-4.634v-16.75c-1.57 1.695-3.259 3.234-5.183 4.504-.667-1-2.158-2.656-3.062-3.504 4.162-2.733 7.42-6.775 9.774-11.242h-8.597v-4.312h10.56c.63-1.579 1.141-3.119 1.533-4.659l4.827 1.078c-.393 1.193-.785 2.387-1.254 3.581h19.158v4.311"/><path d="m26.878 36.285h14.172v2.504h-14.172z"/></svg>