<svg xmlns="http://www.w3.org/2000/svg" viewBox="0 0 64 64" enable-background="new 0 0 64 64"><path d="m23.639 30.932h6.418v5.461h-6.418z"/><path d="m32 2c-16.527 0-30 13.474-30 30 0 16.527 13.473 30 30 30 16.523 0 30-13.473 30-30 0-16.526-13.477-30-30-30m-8.361 38.822v2.678h-4.639v-17h16v14.322h-11.361m24.361-17.965h-3.59v21.264c0 2.658-.547 4.143-2.393 4.957-1.794.82-4.484.922-8.273.922-.201-1.482-1.047-3.73-1.744-5.113 2.592.156 5.432.156 6.23.104.797-.049 1.096-.256 1.096-.971v-21.163h-23.326v-4.857h32v4.857"/></svg>