<svg xmlns="http://www.w3.org/2000/svg" viewBox="0 0 64 64" enable-background="new 0 0 64 64"><path d="m60.431 44.144v-2.683h-8.743v-4.884h-2.813v-3.91l-5.625-1.956v-10.755h-1.875v10.755l-5.625 1.956v3.91h-2.813v-7.512l-9.374-11.065-9.375 11.065v7.434l-12.188 2.902v2.065.11 20.424h12.188 18.75 10.312 8.438 1.875v-13.722c0-.52.337-.945.749-.945h.375c.412 0 .751.426.751.945v13.722h2.813v-13.722c0-.52.337-.945.749-.945h.375c.412 0 .751.426.751.945v13.722h1.874v-17.856c0 0-.604 0-1.569 0m-49.525 12.967c0 .536-.423.978-.938.978h-2.812c-.517 0-.938-.441-.938-.978v-1.956c0-.538.421-.978.938-.978h2.813c.515 0 .938.439.938.978v1.956zm0-7.822c0 .536-.423.978-.938.978h-2.812c-.517 0-.938-.441-.938-.978v-1.956c0-.538.421-.978.938-.978h2.813c.515 0 .938.439.938.978v1.956zm19.219 7.822c0 .536-.423.978-.938.978h-11.25c-.517 0-.938-.441-.938-.978v-1.956c0-.538.421-.978.938-.978h11.25c.515 0 .938.439.938.978v1.956m0-7.822c0 .536-.423.978-.938.978h-11.25c-.517 0-.938-.441-.938-.978v-1.956c0-.538.421-.978.938-.978h11.25c.515 0 .938.439.938.978v1.956m0-7.822c0 .536-.423.978-.938.978h-11.25c-.517 0-.938-.441-.938-.978v-1.956c0-.538.421-.978.938-.978h11.25c.515 0 .938.439.938.978v1.956m0-7.822c0 .536-.423.978-.938.978h-11.25c-.517 0-.938-.441-.938-.978v-1.956c0-.538.421-.978.938-.978h11.25c.515 0 .938.439.938.978v1.956m10.781 25.422c0 .536-.423.977-.938.977h-2.813c-.517 0-.938-.44-.938-.977v-1.956c0-.538.421-.978.938-.978h2.813c.515 0 .938.439.938.978v1.956m0-15.644c0 .536-.423.977-.938.977h-2.813c-.517 0-.938-.44-.938-.977v-1.956c0-.538.421-.978.938-.978h2.813c.515 0 .938.439.938.978v1.956m7.5 15.644c0 .536-.423.977-.938.977h-2.813c-.517 0-.938-.44-.938-.977v-1.956c0-.538.421-.978.938-.978h2.813c.515 0 .938.439.938.978v1.956m0-7.822c0 .536-.423.977-.938.977h-2.813c-.517 0-.938-.44-.938-.977v-1.956c0-.538.421-.978.938-.978h2.813c.515 0 .938.439.938.978v1.956"/></svg>