<svg xmlns="http://www.w3.org/2000/svg" viewBox="0 0 64 64" enable-background="new 0 0 64 64"><path d="m62 5.021v-3.021c-22.618 0-41.586 15.534-46.87 36.512-4.238.423-7.893 3.397-9.084 7.531l-.308 1.063c-.332.212-.65.451-.951.712-1.77 1.536-2.787 3.757-2.787 6.092 0 3.497 2.244 6.582 5.586 7.679.821.273 1.682.411 2.551.411h23.186c.699 0 1.41-.081 2.112-.244 4.278-.977 7.271-4.715 7.271-9.087 0-1.847-.573-3.613-1.567-5.113 1.371-10.312 10.174-18.274 20.861-18.274v-3.104c-11.474 0-21.055 8.001-23.53 18.722-.158-.103-.306-.217-.47-.312-.14-.08-.281-.156-.425-.229.001-.022.001-.044.001-.066 0-1.443-.294-2.818-.82-4.074 4.02-10 13.806-17.062 25.244-17.062v-3.023c-11.971 0-22.293 6.97-27.186 17.063-.695-.766-1.499-1.428-2.39-1.966 5.506-10.751 16.668-18.12 29.576-18.12v-3.021c-14.159 0-26.397 8.126-32.37 19.957-.871-.229-1.779-.363-2.722-.363-.167 0-.329.023-.494.031 6.262-13.379 19.836-22.649 35.586-22.649v-3.021c-17.768 0-32.954 10.958-39.221 26.479-1.717.719-3.223 1.882-4.366 3.384 5.409-18.984 22.866-32.887 43.587-32.887m-38.095 42.791c0-.014.001-.031.001-.046 0-3.052-1.574-5.738-3.959-7.305 1.358-2.431 3.965-4.081 6.961-4.081 4.393 0 7.953 3.544 7.953 7.912 0 .213-.014.42-.031.627-1.838.141-3.509.869-4.822 2.002.978-.558 2.106-.882 3.314-.882.447 0 .883.045 1.307.128.721.143 1.398.403 2.016.757 1.998 1.146 3.348 3.286 3.348 5.745 0 3.149-2.21 5.784-5.172 6.461-.481.11-.98.174-1.497.174h-.001-23.186c-.594 0-1.164-.099-1.699-.274-2.162-.711-3.724-2.733-3.724-5.119 0-1.623.722-3.074 1.86-4.062.517-.45 1.117-.8 1.777-1.029.56-.193 1.158-.306 1.785-.306 1.749 0 3.3.826 4.293 2.105l.048-.001c-1.151-2.108-3.304-3.595-5.823-3.833.938-3.25 3.944-5.635 7.515-5.635.382 0 .753.036 1.118.089.725.104 1.418.302 2.063.588 2.406 1.069 4.164 3.305 4.555 5.985"/></svg>