<svg xmlns="http://www.w3.org/2000/svg" viewBox="0 0 64 64" enable-background="new 0 0 64 64"><path d="m62 32c0-16.568-13.432-30-30-30-16.139 0-29.297 12.746-29.969 28.72-.008.196-.01.395-.014.592-.005.23-.017.458-.017.688 0 .016 0 .031 0 .047 0 .019 0 .036 0 .054 0 16.513 13.432 29.899 30 29.899s30-13.386 30-29.899c0-.017-.002-.033-.002-.049 0-.018.002-.034.002-.052m-24.01 27.351c-.525-.285-1.029-.752-1.234-1.388-.371-1.152-.084-2.046.342-3.086.34-.833-.117-1.795.109-2.667.441-1.697.973-3.536.809-5.359-.102-1.119-.35-1.17-1.178-1.816-.873-.685-.873-1.654-1.457-2.52-.529-.787.895-3.777.498-3.959-.445-.205-1.457.063-1.777-.362-.344-.458-.584-.999-1.057-1.354-.305-.229-1.654-.995-2.014-.941-1.813.271-3.777-1.497-4.934-2.65-.797-.791-1.129-1.678-1.713-2.593-.494-.775-1.242-.842-1.609-1.803-.385-1.004-.156-2.29-.273-3.346-.127-1.135-.691-1.497-1.396-2.365-1.508-1.863-2.063-4.643-4.924-4.643-1.537 0-1.428 3.348-2.666 2.899-1.4-.507-3.566 1.891-3.535 1.568.164-1.674 1.883-2.488 2.051-2.987.549-1.638-2.453-1.246-2.068-2.612.188-.672 2.098-1.161 1.703-1.562-.119-.122-1.58-1.147-1.508-1.198.271-.19 1.449.412 1.193-.37-.086-.26-.225-.499-.357-.74.607-.689 1.248-1.349 1.92-1.975 1.014-.083 2.066-.02 2.447.054 2.416.476 3.256 1.699 5.672.794 1.162-.434 5.445.319 6.059 1.537.334.666 1.578-.403 2.063-.475.52-.078 1.695.723 2.053.232.943-1.291-.604-1.827 1.223-.833 1.225.667 3.619-2.266 2.861 1.181-.547 2.485-2.557 2.54-4.031 4.159-1.451 1.594 2.871 2.028 2.982 3.468.32 4.146 2.531-.338 1.939-1.812-1.145-2.855 1.303-2.071 2.289-.257.547 1.007.963.159 1.633-.192.543-.283.688 1.25.805 1.517.385.887 1.65 1.152 1.436 2.294-.238 1.259-1.133.881-2.008 1.094-.977.237.158 1.059.016 1.359-.154.328-1.332.464-1.646.65-.924.544-.359 1.605-1.082 2.175-.496.392-.996.137-1.092.871-.113.865-1.707 1.143-1.5 1.97.057.227.516 1.923.227 2.013-.133.043-1.184-1.475-1.471-1.627-.568-.301-3.15-.055-3.482 1.654-.215 1.105 1.563 2.85 2.016 1.328.561-1.873.828 1.091.693 1.207.268.234 1.836-.385 1.371.7-.197.459.193 1.656.889 1.287.291-.154 1.041.31 1.172.061.191-.289.438-.52.742-.692.701-.41 1.75-.025 2.518.02.469.027 4.313 2.124 4.334 2.545.084 1.575 2.99 1.37 3.436 1.933 1.199 1.526.83.751-.045 2.706-.441.984-.057 2.191-1.125 2.904-.514.342-1.141.171-1.598.655-.412.437-.25.959-.5 1.464-.301.601-4.346 4.236-4.613 5.115-.133.441-1.34.825-.322 1.248.592.174-1.311 1.973-.396 2.718.223.181.369.334.479.471-.457.122-.91.233-1.369.333m-2.396-55.114c-.039.145.02.316.271.483.566.375-.162 1.208-.943.671-.779-.537-2.531.241-2.41.644.119.403.66.563 1.496.242.834-.322 1.178.048 1.318.43.096.259 0 .403-.027.752-.025.349-.996.107-1.803.162-.809.054-1.67-.162-1.645-.619.027-.456-.861-1.289-1.391-1.637-.529-.348.232-1.1.934-.537.699.564.727-.107 1.535-.321.459-.122.275-.305.119-.479.86.03 1.708.102 2.546.209m3.517 8.869c.605.164 1.656.929 1.656 1.291 0 .363-.477.817-.688.765-1.523-.371-2.807-1.874-3.514-2.697-1.234-1.435-1.156-.205-3.111-.826-.5-.16-1.293-1.711-.768-2.476s1.131-.886 1.615-.683c.484.2 1.898-.645 2.223.362.322 1.007 1.211 2.292 2.02 2.636.81.342-.04 1.464.567 1.628m.485 4.673c.242.483-1.455-.564-1.859-1.047-.402-.482-1.01-1.571-.523-2.054.484-.482 1.57 1.005 2.141 1.33 1.129.645-.001 1.289.241 1.771m-8.594-7.315c.117-.161.365.242.586.645s-.084.971-.586.885c-.502-.084-.281-1.136 0-1.53m0-4.052c0 0 .473 1.154 0 .966-.473-.188-.496-.671 0-.966m.096 3.65c-.135-.321-.166-1.64.162-2.04.484-.59 1.266.564.74 1.02-.525.457-.768 1.343-.902 1.02m-6.077 1.415c-.879-.063-.898-.823-1.02-1.226s-.85.765-1.586 0c-.736-.765.172-1.771.01-2.376-.162-.604 1.736 0 2.02 0s1.051 1.248 1.252 1.227c.203-.02 1.293.987 1.293.584 0-.402.166-1.088.93-1.168 1.172-.121.121 1.289.08 1.838-.039.549.891 1.504 1.232 1.907.344.403-.867.686-1.07.443-.201-.242-.727 0-1.172.322-.443.322-1.656-.443-2.221-.685-.566-.241 1.131-.804.252-.866m3.141-6.354c.781.269 1.225.51 1.609 0 .371-.492.654 1.073.385 1.502-.27.431-.781.324-.863 0-.08-.32-1.912-1.771-1.131-1.502m1.131 4.859c-.268-.35-.295-.752 0-1.047.297-.295.201-.644.729-.751.26-.054.295.348.295.724 0 .376.324.859 0 1.448-.323.589-.754-.026-1.024-.374m2.205-5.969c-.012.074-.061.118-.184.106-.072-.006-.152-.045-.236-.095.141-.005.279-.009.42-.011m-6.109 1.137c.619 0 .539.418 1.051.719.512.3.242-1.552.592-.854.35.697 1.389 1.664.889 1.851-.43.163-2.234.859-2.396.739s-.377-.63-.809-.739c-.432-.107-.889-1.127-1.186-1.1-.113.01-.123-.184-.049-.442.518-.166 1.041-.319 1.572-.455.058.158.146.281.336.281m13.519 30.025c-.645.666-1.756-.464-2.523-.424s-1.152-.765-1.818-.684c-.668.079.182-.847 1.111-.362.927.483 3.756.925 3.23 1.47m12.93-22.934c-.188.24-.402.408-.607.585-.605.524-1.736.484-1.898.846-.162.362-.566 1.489-1.98 1.494-1.414.004-1.01 2.131-1.131 2.738-.121.607-.443 1.325-.848.801-.404-.523-.566-.323-1.816-1.853-1.25-1.53-.77-2.375-.365-2.818.404-.442.566-1.49 0-1.329-.566.161-.889-.202-.768-.703.121-.501.727-.867 0-1.402-.727-.534-.324-2.445-.889-4.189-.566-1.745-1.334-.51-2.586-.443-1.252.067-1.455-.873-.889-1.303 5.318 1.174 10.068 3.853 13.777 7.576"/></svg>