<svg xmlns="http://www.w3.org/2000/svg" viewBox="0 0 64 64" enable-background="new 0 0 64 64"><path d="m42.256 33.869c1.188-2.404 2.877-3.59 3.914-4.123.523.699 1.23 1.262 2.092 1.588 2.43.916 5.115-.383 5.998-2.902.459-1.309.338-2.688-.221-3.842 1.143-.508 2.09-1.484 2.549-2.793.381-1.084.363-2.217.029-3.23 1.199-.492 2.197-1.49 2.674-2.846.484-1.383.322-2.844-.32-4.033 1.23-.482 2.26-1.494 2.744-2.877.885-2.52-.367-5.305-2.797-6.221-.371-.141-.748-.225-1.123-.264-.951-.215-2.199-.326-3.795-.326-15.322 0-27.529 8.781-33.377 22.541-7.615 17.926-7.182 33.193-18.623 33.193 0 2.356 1.918 4.266 4.289 4.266 2.369 0 4.291-1.91 4.291-4.266 0 2.355 1.922 4.266 4.291 4.266s4.291-1.91 4.291-4.266c0 2.355 1.922 4.266 4.291 4.266s4.291-1.91 4.291-4.266c0 2.355 1.922 4.266 4.291 4.266 2.371 0 4.291-1.91 4.291-4.266 0 2.355 1.922 4.266 4.291 4.266s4.291-1.91 4.291-4.266c0 2.355 1.922 4.266 4.291 4.266 2.371 0 4.291-1.91 4.291-4.266 0 2.355 1.922 4.266 4.291 4.266s4.219-1.957 4.219-4.312c0 0-28.793-4.481-19.744-23.819m15.613-30.068c1.844.695 2.795 2.811 2.125 4.725-.516 1.469-1.838 2.387-3.26 2.422 1.066.975 1.51 2.559.996 4.029-.504 1.43-1.771 2.344-3.152 2.42 1.01.979 1.416 2.523.914 3.955s-1.771 2.344-3.15 2.422c1.008.979 1.414 2.523.912 3.953-.672 1.916-2.711 2.902-4.557 2.205-1.844-.695 1.451-1.209 2.123-3.123.494-1.408-.568-3.18-.432-3.742.004-.01.004-.018.008-.027.002-.01.008-.018.012-.027.242-.521 2.154-1.17 2.648-2.578s-.568-3.182-.43-3.742c.002-.01.004-.02.008-.029.002-.01.008-.018.012-.025.242-.521 2.154-1.172 2.648-2.58.516-1.467-.66-3.328-.406-3.805.102-.535 2.156-1.18 2.67-2.645.672-1.916-1.535-4.505.311-3.808m-36.721 27.435c1.795-5.828 4.537-11.391 8.564-15.904 2.982-3.344 6.625-6.084 10.656-7.902 3.305-1.488 6.762-2.445 10.344-2.838 1.393-.152 2.832-.264 4.232-.139.771.066 1.418.617 1.418 1.471 0 .75-.646 1.537-1.418 1.471-1.105-.098-2.24-.037-3.344.055-.537.045-1.073.104-1.608.175-.103.015-.247.036-.298.044-.146.023-.293.047-.439.07-.336.059-.67.121-1.004.189-1.516.311-3.014.723-4.473 1.252-.479.174-.955.355-1.424.553-.111.045-.225.092-.334.141-.033.015-.051.021-.069.029-.014.007-.02.009-.038.018-.227.102-.451.205-.676.313-.973.467-1.926.98-2.846 1.549-2.115 1.307-3.729 2.576-5.48 4.355-4.289 4.357-7.191 9.918-9.029 15.881-.552 1.799-3.292 1.028-2.734-.783m7.793.782c-.289.742-.934 1.26-1.744 1.027-.68-.195-1.281-1.064-.99-1.809 2.006-5.139 4.863-10.043 9.02-13.617 3.338-2.873 7.322-4.922 11.613-5.689 1.814-.324 3.771-.572 5.615-.32.768.105 1.418.59 1.418 1.471 0 .723-.648 1.578-1.418 1.473-.99-.137-2.021-.098-3.012-.02-.354.027-.705.063-1.055.105-.026.003-.069.01-.109.015-.044.007-.087.014-.131.021-.186.029-.369.059-.555.094-.85.156-1.693.354-2.523.607-.479.146-.953.307-1.422.484-.227.086-.453.174-.678.268-.082.034-.165.069-.248.104-.049.022-.195.087-.215.097-1.016.471-2.002 1.008-2.941 1.623-2.143 1.404-4.016 3.141-5.705 5.27-2.078 2.618-3.693 5.657-4.92 8.796m5.674 0c-.262.754-.957 1.252-1.744 1.027-.703-.201-1.252-1.053-.992-1.809 1.904-5.518 5.635-9.885 10.891-12.115 2.225-.945 4.787-1.607 7.213-1.541 1.826.049 1.83 2.99 0 2.941-.618-.017-1.242.048-1.854.129-.103.016-.252.038-.306.047-.18.031-.361.064-.541.1-.363.072-.725.154-1.084.248-.828.217-1.646.484-2.439.814-.021.008-.195.083-.228.097-.087.039-.175.078-.261.12-.242.115-.482.232-.719.359-.453.24-.9.498-1.33.779-.969.633-1.605 1.129-2.443 1.975-1.893 1.903-3.264 4.225-4.163 6.829m3.305 1.173c-.705-.43-.844-1.291-.508-2.014 1.848-3.973 5.93-7.061 10.301-7.016 1.828.018 1.83 2.959 0 2.939-.096 0-.193.006-.289.012-.111.006-.225.016-.336.027-.038.004-.06.007-.083.009-.787.123-1.563.329-2.306.63-.013.006-.209.093-.237.104-.102.047-.203.095-.304.146-.219.115-.436.23-.645.361-.502.309-.879.568-1.266.928-1.029.949-1.789 2.059-2.387 3.344-.335.724-1.313.911-1.94.53"/></svg>