<svg xmlns="http://www.w3.org/2000/svg" viewBox="0 0 64 64" enable-background="new 0 0 64 64"><path d="m60.432 27.067v-2.573h-8.744v-4.682h-2.813v-3.75l-5.625-1.875v-10.312h-1.875v10.313l-5.625 1.875v3.75h-2.813v-7.203l-9.374-10.61-9.375 10.609v7.127l-12.188 2.784v1.98.105 17.294.146 1.903c2.015.605 3.76 1.854 4.991 3.531.001 0 .003 0 .004 0 4.253 0 7.701 3.529 7.701 7.885 0 2.494-1.142 4.707-2.91 6.152.004-.078.022-.15.022-.229 0-2.605-1.997-4.746-4.51-4.906-.974-2.123-2.963-3.599-5.298-3.873v1.99c2.033.341 3.63 1.978 3.956 4.055.323-.129.671-.205 1.04-.205 1.595 0 2.888 1.318 2.888 2.941 0 .246-.038.48-.094.711h4.289c.413-.457.788-.95 1.109-1.484 1.196.231 2.312.752 3.315 1.484h2.897c-1.503-1.659-3.345-2.819-5.348-3.328.24-.687.412-1.405.497-2.151.556.14 1.067.394 1.5.749.768-1.677 2.421-2.844 4.349-2.844 2.397 0 4.37 1.799 4.736 4.147.323-.13.671-.206 1.039-.206 1.596 0 2.889 1.324 2.889 2.957 0 .036-.009.071-.01.107-.128.182-.234.379-.352.568h2.344c1.801-2.24 4.552-3.679 7.645-3.679s5.844 1.44 7.645 3.68h2.349c-.148-.245-.294-.492-.46-.725h7.987c1.571 0 2.955-.807 3.79-2.033v-5.392c-.835-1.227-2.219-2.033-3.79-2.033-.589 0-1.147.123-1.663.328-.359-2.305-1.689-4.276-3.549-5.459l.615-.498c1.629-1.321 3.553-2.02 5.563-2.02.96 0 1.913.162 2.823.473v-2.037c-.9-.256-1.842-.409-2.823-.409-2.571 0-4.898.937-6.758 2.444-1.051-2.273-2.695-4.207-4.727-5.602.63-1.965 2.419-3.389 4.548-3.389 1.929 0 3.583 1.167 4.349 2.845.658-.538 1.483-.874 2.393-.874 1.229 0 2.313.604 3.019 1.523v-2.469-.146-9.46c0 0-.603 0-1.568 0m-16.713 4.933c0-.517.422-.938.938-.938h2.813c.516 0 .938.421.938.938v1.875c0 .515-.422.938-.938.938h-2.813c-.516 0-.938-.423-.938-.938v-1.875m-7.5-7.5c0-.517.422-.938.938-.938h2.813c.516 0 .938.421.938.938v1.875c0 .515-.422.938-.938.938h-2.813c-.516 0-.938-.423-.938-.938v-1.875m-19.219-9.375c0-.517.422-.938.938-.938h11.25c.516 0 .938.421.938.938v1.875c0 .515-.422.938-.938.938h-11.25c-.516 0-.938-.423-.938-.938v-1.875m0 7.5c0-.517.422-.938.938-.938h11.25c.516 0 .938.421.938.938v1.875c0 .515-.422.938-.938.938h-11.25c-.516 0-.938-.423-.938-.938v-1.875m0 7.5c0-.517.422-.938.938-.938h11.25c.516 0 .938.421.938.938v1.875c0 .515-.422.938-.938.938h-11.25c-.516 0-.938-.423-.938-.938v-1.875m-10.781 0c0-.517.422-.938.938-.938h2.813c.516 0 .938.421.938.938v1.875c0 .515-.422.938-.938.938h-2.814c-.516 0-.938-.423-.938-.938v-1.875zm0 7.5c0-.517.422-.938.938-.938h2.813c.516 0 .938.421.938.938v1.875c0 .515-.422.938-.938.938h-2.814c-.516 0-.938-.423-.938-.938v-1.875zm10.065 15.189c0 0-1.265-6.282-7.982-7.207.583-1.447 1.88-2.467 3.411-2.467.479 0 .932.108 1.351.289.477-3.287 3.041-5.807 6.157-5.807 2.506 0 4.656 1.635 5.653 3.982.854-.754 1.927-1.223 3.108-1.223.833 0 1.612.234 2.303.631-1.823 1.968-3.091 4.476-3.531 7.267-.909-.36-1.895-.576-2.936-.576-2.846.001-6.03 1.554-7.534 5.111m38.362-.357l.377 2.413 2.222-.886c.323-.129.648-.194.965-.194 1.485 0 2.696 1.235 2.696 2.755s-1.211 2.756-2.696 2.756h-9.781c-2.088-1.844-4.811-2.953-7.739-2.953-2.038 0-3.978.538-5.674 1.484-.662-.764-1.065-1.766-1.065-2.864 0-2.39 1.899-4.333 4.235-4.333 1.192 0 2.085.527 2.624.968l1.907 1.561 1.038-2.265c.949-2.075 2.996-3.416 5.216-3.416 2.839-.001 5.225 2.091 5.675 4.974m-3.966-6.973l.118.256c-.587-.147-1.196-.232-1.827-.232-3.086 0-5.731 1.869-6.959 4.552-1.054-.861-2.372-1.398-3.826-1.398-3.4 0-6.161 2.825-6.161 6.307 0 1.5.521 2.868 1.376 3.95-.263.209-.517.429-.761.66-.654-1.761-2.242-3.051-4.159-3.175-1.081-2.37-3.409-3.952-6.082-3.952-1.726 0-3.357.696-4.585 1.87.719-2.67 3.134-4.644 6.005-4.644.745 0 1.499.15 2.241.443l2.214.879.38-2.404c.908-5.756 5.735-9.935 11.478-9.935 4.491 0 8.632 2.679 10.548 6.823m2.883-11.67v-2.783c0-.498.338-.906.75-.906h.375c.412 0 .75.408.75.906v3.488c-.585-.326-1.215-.567-1.875-.705m5.418 1.832c-.247 0-.489.027-.731.06v-4.674c0-.498.338-.906.75-.906h.375c.412 0 .75.408.75.906v4.747c-.371-.079-.75-.133-1.144-.133"/></svg>