<svg xmlns="http://www.w3.org/2000/svg" viewBox="0 0 64 64" enable-background="new 0 0 64 64"><path d="m56.66 15.479c3.619-3.979 3.369-10.012-.552-13.479 0 0 .491 6.679-3.122 10.656-3.616 3.979-9.971 3.746-9.971 3.746 3.922 3.466 10.03 3.053 13.645-.923"/><path d="m10.334 20.639l1.562-3.207 3.126-1.603-3.126-1.603-1.562-3.207-1.563 3.207-3.124 1.603 3.124 1.603 1.563 3.207m0-7.215l2.344 2.405-2.344 2.405-2.344-2.405 2.344-2.405"/><path d="m32.547 15.187l1.562-3.207 3.126-1.603-3.126-1.603-1.562-3.207-1.564 3.207-3.123 1.603 3.123 1.603 1.564 3.207m0-7.215l2.344 2.405-2.344 2.404-2.344-2.404 2.344-2.405"/><path d="m53.563 22.002l-1.563 3.207-3.124 1.602 3.124 1.604 1.563 3.207 1.562-3.207 3.126-1.604-3.126-1.602-1.562-3.207m0 7.214l-2.344-2.405 2.344-2.404 2.344 2.404-2.344 2.405"/><path d="m60.432 44.434v-2.639h-8.744v-4.805h-2.813v-3.848l-5.625-1.924v-10.58h-1.875v10.58l-5.625 1.924v3.848h-2.813v-7.39l-9.375-10.885-9.374 10.885v7.313l-12.188 2.856v2.032.107 20.092h12.188 18.75 10.312 8.438 1.875v-13.498c0-.512.338-.93.75-.93h.375c.412 0 .75.418.75.93v13.498h2.813v-13.498c0-.512.338-.93.75-.93h.375c.412 0 .75.418.75.93v13.498h1.874v-17.566c0 0-.603 0-1.568 0m-49.526 12.756c0 .528-.422.962-.938.962h-2.812c-.516 0-.938-.434-.938-.962v-1.924c0-.53.422-.962.938-.962h2.813c.516 0 .938.432.938.962v1.924zm0-7.694c0 .527-.422.961-.938.961h-2.812c-.516 0-.938-.434-.938-.961v-1.924c0-.53.422-.963.938-.963h2.813c.516 0 .938.433.938.963v1.924zm19.219 7.694c0 .528-.422.962-.938.962h-11.25c-.516 0-.938-.434-.938-.962v-1.924c0-.53.422-.962.938-.962h11.25c.516 0 .938.432.938.962v1.924m0-7.694c0 .527-.422.961-.938.961h-11.25c-.516 0-.938-.434-.938-.961v-1.924c0-.53.422-.963.938-.963h11.25c.516 0 .938.433.938.963v1.924m0-7.695c0 .527-.422.961-.938.961h-11.25c-.516 0-.938-.434-.938-.961v-1.924c0-.53.422-.963.938-.963h11.25c.516 0 .938.433.938.963v1.924m0-7.696c0 .527-.422.961-.938.961h-11.25c-.516 0-.938-.434-.938-.961v-1.924c0-.53.422-.963.938-.963h11.25c.516 0 .938.433.938.963v1.924m10.781 25.009c0 .528-.422.962-.938.962h-2.813c-.516 0-.938-.434-.938-.962v-1.924c0-.53.422-.962.938-.962h2.813c.516 0 .938.432.938.962v1.924m0-15.389c0 .527-.422.961-.938.961h-2.813c-.516 0-.938-.434-.938-.961v-1.924c0-.53.422-.963.938-.963h2.813c.516 0 .938.433.938.963v1.924m7.5 15.389c0 .528-.422.962-.938.962h-2.813c-.516 0-.938-.434-.938-.962v-1.924c0-.53.422-.962.938-.962h2.813c.516 0 .938.432.938.962v1.924m0-7.695c0 .528-.422.962-.938.962h-2.813c-.516 0-.938-.434-.938-.962v-1.923c0-.53.422-.963.938-.963h2.813c.516 0 .938.433.938.963v1.923"/></svg>