<svg xmlns="http://www.w3.org/2000/svg" viewBox="0 0 64 64" enable-background="new 0 0 64 64"><path d="m34.069 31.217c2.408 5.688-3.559 9.135-8.542 6.971-3.718-1.615-4.914-5.89-4.863-9.553.125-9.143 10.706-14.02 18.702-12.586 10.271 1.842 14.676 13.554 13.064 22.734-1.745 9.949-10.88 16.469-20.38 18.199-3.293.6-1.895 5.564 1.382 4.968 14.188-2.585 24.979-14.12 24.556-28.703-.411-14.14-12.606-24.741-26.666-22.125-11.987 2.23-19.305 15.08-13.932 26.078 2.633 5.391 9.136 7.761 14.799 6.521 6.032-1.318 9.157-8.522 6.891-13.874-1.276-3.015-6.308-1.692-5.011 1.37"/><path d="m31.803 2.01c-13.791 1.136-24.689 12.374-25.739 26.017-1.043 13.554 10.749 26.096 24.454 25.614 13.97-.493 22.958-16.182 16.107-28.128-6.429-11.213-25.605-4.916-21.011 8.246 1.089 3.119 6.11 1.779 5.011-1.37-1.708-4.894 1.665-8.287 6.901-7.575 4.049.551 5.982 5.104 6.416 8.625 1.418 11.521-12.118 17.645-21.448 13.533-8.824-3.887-12.741-13.904-10.602-22.877 2.15-9.022 10.717-16.174 19.91-16.931 3.316-.275 3.343-5.429.001-5.154"/></svg>