<svg xmlns="http://www.w3.org/2000/svg" viewBox="0 0 64 64" enable-background="new 0 0 64 64"><path d="m5.268 5.897c.365.723.921 1.722 1.662 2.85.734 1.129 1.652 2.39 2.703 3.672 1.049 1.283 2.236 2.584 3.48 3.828 1.246 1.242 2.547 2.429 3.832 3.477 1.283 1.051 2.543 1.967 3.672 2.705.564.367 1.094.693 1.576.971.48.277.908.51 1.271.691.359.186.652.32.854.41.203.089.314.133.314.133s-.043-.112-.133-.314-.225-.495-.41-.854c-.182-.362-.414-.79-.691-1.271-.277-.482-.602-1.012-.971-1.576-.738-1.129-1.654-2.389-2.705-3.672-1.047-1.285-2.234-2.586-3.475-3.833-1.246-1.243-2.547-2.432-3.83-3.479-1.281-1.052-2.543-1.969-3.672-2.705-1.127-.738-2.127-1.295-2.85-1.66-.358-.187-.651-.321-.854-.41-.201-.089-.314-.132-.314-.132s.043.112.132.314c.09.203.225.496.409.855"/><path d="m41.57 20.618c-.367.564-.693 1.094-.971 1.576-.277.48-.51.908-.691 1.271-.186.359-.32.652-.41.854-.088.202-.133.314-.133.314s.113-.044.314-.133c.203-.09.494-.225.855-.41.361-.182.789-.414 1.27-.691.482-.277 1.014-.604 1.576-.971 1.129-.738 2.389-1.654 3.672-2.705 1.285-1.048 2.586-2.234 3.834-3.477 1.242-1.244 2.43-2.545 3.479-3.828 1.051-1.282 1.969-2.543 2.705-3.672.738-1.128 1.295-2.127 1.66-2.85.186-.359.32-.652.408-.855.09-.202.133-.314.133-.314s-.111.044-.314.133c-.201.089-.494.223-.855.408-.723.365-1.721.922-2.85 1.66-1.129.736-2.389 1.653-3.672 2.705-1.283 1.048-2.584 2.236-3.828 3.479-1.242 1.247-2.43 2.548-3.477 3.833-1.05 1.284-1.966 2.544-2.705 3.673"/><path d="m30.713 17.184c.275 1.319.59 2.419.842 3.188.123.385.236.688.316.895.08.205.129.315.129.315s.047-.11.129-.315c.08-.207.191-.51.316-.895.252-.77.564-1.869.84-3.188.277-1.319.52-2.859.684-4.509.166-1.649.246-3.408.246-5.168-.004-1.76-.084-3.52-.252-5.168-.012-.114-.024-.227-.035-.339h-3.855c-.014.112-.025.225-.037.339-.166 1.648-.248 3.408-.252 5.168 0 1.76.08 3.519.246 5.168.163 1.649.406 3.189.683 4.509"/><path d="m21.152 9.928c.635 1.642 1.34 3.255 2.088 4.734.744 1.481 1.523 2.831 2.254 3.964.367.566.717 1.08 1.045 1.527.326.449.623.836.881 1.15.252.314.465.557.613.721s.232.25.232.25.006-.12.006-.342c.002-.221-.002-.543-.025-.947-.018-.404-.057-.891-.115-1.442-.057-.552-.139-1.169-.246-1.834-.213-1.331-.539-2.855-.977-4.454-.436-1.6-.99-3.271-1.617-4.916-.631-1.643-1.336-3.256-2.082-4.736-.279-.555-.563-1.09-.846-1.603h-3.549c.191.95.43 1.966.717 3.014.436 1.6.992 3.27 1.621 4.914"/><path d="m37.135 21.56c.545-.602 1.277-1.479 2.066-2.572.789-1.092 1.637-2.4 2.457-3.841.824-1.438 1.611-3.015 2.328-4.621.713-1.608 1.354-3.249 1.871-4.824.432-1.305.782-2.559 1.051-3.702h-3.363c-.424.659-.854 1.363-1.275 2.104-.824 1.438-1.613 3.013-2.332 4.618-.715 1.608-1.357 3.248-1.877 4.822-.521 1.574-.926 3.079-1.209 4.397-.285 1.317-.447 2.449-.529 3.255-.043.402-.064.725-.074.945-.012.221-.012.342-.012.342s.09-.082.246-.237c.158-.155.382-.386.652-.686"/><path d="m60.396 23.208c.555-.277 1.09-.561 1.604-.844v-3.549c-.951.19-1.967.428-3.016.717-1.6.435-3.27.99-4.912 1.621-1.643.634-3.256 1.34-4.736 2.088-.265.134-.504.271-.759.405l-2.782-1.59-5.621 4.681c-1.734-2.689-4.734-4.483-8.174-4.483-4.342 0-8.012 2.842-9.271 6.765l-3.059-1.546c.584.094 1.103.161 1.527.204.4.043.723.064.943.074.223.012.342.012.342.012s-.08-.09-.236-.246c-.156-.158-.387-.383-.688-.653-.602-.544-1.479-1.276-2.572-2.064-1.092-.79-2.398-1.639-3.84-2.458-1.439-.823-3.014-1.611-4.621-2.328-1.609-.712-3.25-1.354-4.824-1.871-1.305-.433-2.558-.784-3.701-1.053v3.361c.66.426 1.361.854 2.104 1.278 1.439.824 3.014 1.613 4.619 2.332 1.607.715 3.248 1.358 4.822 1.877 1.533.509 3 .903 4.295 1.186l-4.82 2.909h-11.02v31.967h60v-30.684l-8.938-5.107c.864-.282 1.734-.588 2.599-.917 1.642-.633 3.255-1.337 4.735-2.084m-56.576 15.215l13.344-8.989-2.879 5.29 7.971 1.575-2.359 3.096c-.709-1.809-2.457-3.096-4.518-3.096-2.422 0-4.43 1.768-4.807 4.082-1.158-.964-2.648-1.545-4.273-1.545-.877 0-1.711.177-2.479.484v-.897m18.477 11.95c-2.766.491-3.615 2.742-3.758 5.271-1.186-.669-2.416-1.346-3.83-1.141-1.32.191-2.273 1.159-3.188 2.045-.352-.983-.793-2.259-1.939-2.529-1.363-.321-2.15.73-2.896 1.665-.705-.747-1.418-1.503-2.344-1.976-.08-.041-.287-.111-.521-.191v-1.519c.365.111.725.242 1.068.406.357.169.703.368 1.027.599.162.113.422.447.621.483.234.041.738-.472.951-.576.268-.13.549-.228.838-.29.676-.147 1.375-.09 2.021.156.568.219 1.207.612 1.529 1.147.24.403 1.021-.286 1.352-.428 1.303-.56 2.934-.489 4.217.077.303-.305.316-.896.461-1.281.221-.592.717-1.15 1.17-1.578 1.043-.982 2.502-1.45 3.92-1.417 2.309.055 4.283 1.834 4.871 4.019 2.082-1.359 4.766-1.46 6.965-.321-.236-.124-1.975-1.034-.003-.003.005.002.008.004.011.006-.004-.001-.007-.004-.01-.006.01.006.017.009.027.015.044.022.034.019-.002 0-.001-.001-.002-.001-.003-.001.15.082.301.174.444.267-2.742-1.261-5.57-.657-7.859 1.218-.605-2.395-2.39-4.604-5.14-4.117m37.883 6.731c-2.148-1.589-5.094-1.784-7.344-.136-.486.357-.785.93-1.271 1.262-.213.146-1.033-.602-1.232-.704-.811-.41-1.826-.52-2.713-.326-.453.098-1.291.7-1.564.218-.324-.574-.916-1.212-1.646-.816-.434.236-.732.684-1.197.281-.502-.435-.83-.865-1.465-1.123-.73-.297-1.527-.366-2.303-.232-.754.132-1.672.486-2.184 1.083-.338.397-.438.682-.932.36-1.285-.835-2.861-1.279-4.328-1.668 1.521.237 2.873.648 4.309 1.185.459.172.957-.594 1.289-.831.498-.354 1.059-.615 1.65-.771 1.328-.354 2.668-.127 3.828.599.533.333.443.352 1.008.144.248-.092.527-.145.795-.142.648.009 1.355.309 1.748.837 0-.001 1.295-.344 1.352-.35.678-.07 1.379-.032 2.041.135.773.194 1.037.677 1.705.105.553-.471 1.166-.875 1.83-1.174 2.109-.951 4.623-.81 6.625.316v1.748zm0-11.463v.122c-2.447-.768-4.92-.106-6.949 1.563-.598-2.396-2.391-4.604-5.141-4.116-2.764.487-3.617 2.742-3.758 5.27-1.186-.669-2.416-1.345-3.83-1.14-1.32.191-2.273 1.158-3.186 2.045-.352-.982-.791-2.259-1.939-2.529-1.363-.319-2.152.729-2.896 1.666-2.063-2.192-5.566-3.843-8.344-1.701-.4.309-.787.641-1.172.969-.352.301-.48.636-.885.373-.738-.48-1.555-.846-2.441-.929-.889-.085-1.502.313-2.334.449-.328.054-.408-.295-.545-.514-.182-.283-.459-.479-.789-.552-.35-.077-.744-.01-1.023.223-.141.118-.369.411-.582.314-.484-.22-.717-.804-1.186-1.047-.709-.367-1.438-.573-2.242-.54-.883.037-1.74.334-2.451.867-.334.251-.658.997-1.107.723-1.107-.676-2.32-1.131-3.559-1.498v-.089c.682.132 1.359.284 2.021.495.527.167 1.465.858 1.906.359 1.129-1.273 2.938-1.866 4.596-1.5.469.104.92.279 1.342.504.197.104.598.472.811.479.512.019.998-.314 1.52-.304.369.009.791.195 1.086.406.178.127.367.42.621.36.74-.176 1.381-.379 2.162-.329.518.034 1.045.14 1.531.323.189.072.584.384.807.285.395-.177.729-.625 1.094-.869.348-.229.711-.434 1.09-.607 1.605-.732 3.434-.875 5.129-.382.871.254 1.699.668 2.416 1.227.66.515.875-.09 1.52-.352 1.553-.628 3.479-.156 4.377 1.322 1.51-1.19 3.66-1.317 5.391-.579 1.256-6.19 9.053-5.862 10.424-.258 1.958-1.267 4.392-1.405 6.515-.509m-6.688-9.342l-11.746 3.428-8.896-4.525 13.14-10.938 4.975 4.933-9.219 3.257 11.746 3.845"/></svg>