<svg xmlns="http://www.w3.org/2000/svg" viewBox="0 0 64 64" enable-background="new 0 0 64 64"><circle cx="34.728" cy="11.091" r="1.818"/><circle cx="29.272" cy="16.545" r="1.818"/><circle cx="29.272" cy="11.091" r=".909"/><circle cx="34.728" cy="16.546" r=".909"/><path d="m50.182 28.363c0 2.703 1.968 4.939 4.546 5.373v-6.428c-1.682-.852-3.214-1.953-4.546-3.262v4.317"/><path d="m40.182 33.736c2.578-.434 4.546-2.67 4.546-5.373v-4.321c-1.334 1.312-2.864 2.419-4.546 3.271v6.423"/><path d="m31.091 29.244c-1.91-.096-3.743-.488-5.454-1.131v5.705h5.454v-4.574"/><path d="m42 39.273h-20l-1.09 5.453h-1.638v3.183h25.455v-3.183h-1.637l-1.09-5.453m-13.636 4.933l-.91-.909.91-.908.908.908-.908.909m8.182 3.249l-.909-.91.909-.908.908.908-.908.91"/><path d="m23.818 33.736v-6.424c-1.684-.852-3.214-1.959-4.546-3.271v4.321c0 2.704 1.968 4.941 4.546 5.374"/><path d="m38.363 28.113c-1.711.643-3.544 1.035-5.454 1.131v4.574h5.454v-5.705"/><path d="m9.272 33.736c2.578-.434 4.546-2.67 4.546-5.373v-4.316c-1.332 1.309-2.864 2.41-4.546 3.262v6.427"/><path d="m2 2v60h60v-60h-60m58.182 31.818v5.455h-7.272l-1.09 5.453h-1.638v3.183h10v1.817h-56.364v-1.817h10v-3.183h-1.638l-1.09-5.453h-7.272v-5.455h3.636v-5.713c-1.161.436-2.378.754-3.636.946v-1.849c4.021-.684 7.541-2.83 10-5.883v-9.319h5.454v9.33c3.001 3.725 7.582 6.125 12.728 6.125 5.144 0 9.725-2.4 12.728-6.125v-9.33h5.454v9.32c2.458 3.053 5.979 5.199 10 5.883v1.849c-1.259-.192-2.476-.511-3.636-.946v5.713h3.636zm-1.295 9.477l-.908.91-.91-.91.91-.908.908.908m-31.433 13.342c-.5 0-.908-.408-.908-.91 0-.498.408-.908.908-.908h9.092c.498 0 .908.41.908.908 0 .502-.41.91-.908.91h-9.092m8.183 2.726c0 .501-.41.91-.909.91h-5.455c-.5 0-.909-.409-.909-.91 0-.498.409-.908.909-.908h5.455c.499 0 .909.41.909.908m-10-6.363c-.501 0-.909-.408-.909-.909 0-.499.408-.909.909-.909h12.727c.499 0 .909.41.909.909 0 .501-.41.909-.909.909h-12.727m-18.101-6.805l.91-.908.908.908-.908.91-.91-.91m50.064-28.183l.908.908-.908.91-.91-.91.91-.908m-1.819-10.075l-.91-.91.91-.908.908.908-.908.91m-2.273 6.79l-.908.91-.91-.91.91-.908.908.908m-14.235 5.103l.908.908-.908.91-.91-.91.91-.908m-7.273 1.261c-4.017 0-7.272-3.257-7.272-7.272 0-4.017 3.256-7.273 7.272-7.273s7.272 3.256 7.272 7.273c0 4.015-3.255 7.272-7.272 7.272m-9.562-14.064l-.908.91-.91-.91.91-.908.908.908m-12.174 9.188l-.908.91-.91-.91.91-.908.908.908m-3.113-8.761l-.908.91-.91-.91.91-.908.908.908"/></svg>