<svg xmlns="http://www.w3.org/2000/svg" viewBox="0 0 64 64" enable-background="new 0 0 64 64"><path d="m0 0v64h64v-64h-64m55.25 46.531c-2.45.469-6.227 4.908-8.719 4.844-2.283-.059-5.467-4.878-7.75-4.844-1.746.025-4.105 3.51-5.813 3.875-1.44.31-4.355-1.188-5.813-.969-2.143.321-5.595 3.661-7.75 3.875-2.748.272-7.908-3.179-10.656-2.906-1.588.158-5.042 2.187-6.749 3.243v-8.087h60v1.752c-1.751-.371-5.326-1.055-6.75-.783m-53.25-2.906v-2.924h60v2.924h-60m0-4.844v-1.938h60v1.938h-60m0-3.859v-.984h60v.984h-60m53.534-23.024l.969.969-.969.969-.969-.969.969-.969m-1.937-3.328l.969-.969.969.969-.969.969-.969-.969m2.622-4.179l1.453-1.453 1.453 1.453-1.453 1.453-1.453-1.453m2.422 17.723l.969.969-.969.969-.969-.969.969-.969m.726-13.606l.969-.969.969.969-.969.969-.969-.969m-10.414 7.992l-1.453-1.453 1.453-1.453 1.453 1.453-1.453 1.453m.727 5.086l-.969.969-.969-.969.969-.969.969.969m.242-11.867l-1.453-1.453 1.453-1.453 1.453 1.453-1.453 1.453m-6.781 3.875l1.453 1.453-1.453 1.453-1.453-1.453 1.453-1.453m-2.422-3.391l1.453-1.453 1.453 1.453-1.453 1.453-1.453-1.453m4.844 17.922l.969.969-.969.969-.969-.969.969-.969m.566-15.196l-.969-.969.969-.969.969.969-.969.969m-1.293-5.874l.969-.969.969.969-.969.969-.969-.969m-7.508 9.929l.969.969-.969.969-.969-.969.969-.969m-2.422-3.875l1.453-1.453 1.453 1.453-1.453 1.453-1.453-1.453m2.664-3.39l-.968-.969.969-.969.969.969-.97.969m-6.539 3.39l-1.453 1.453-1.453-1.453 1.453-1.453 1.453 1.453m-.484-9.687l.969-.969.969.969-.969.969-.969-.969m1.453 13.562l-.969-.969.969-.968.969.969-.969.968m.969 3.875l-1.453 1.453-1.453-1.453 1.453-1.453 1.453 1.453m-6.055 5.086l.969.969-.969.969-.969-.969.969-.969m-1.211-5.57l-1.453-1.453 1.453-1.453 1.453 1.453-1.453 1.453m-5.57-2.802l-.969.969-.969-.969.969-.969.969.969m-.969-11.003l.969-.969.969.969-.969.969-.969-.969m.727 13.805l1.453 1.453-1.453 1.453-1.453-1.453 1.453-1.453m.484-6.286l1.453-1.453 1.453 1.453-1.453 1.453-1.453-1.453m-5.086 12.341l.969.969-.969.969-.969-.969.969-.969m-1.211-6.055l-1.453-1.453 1.453-1.453 1.453 1.453-1.453 1.453m-5.57-11.867l-.969-.969.969-.969.969.969-.969.969m1.695 10.034l-.969.969-.969-.969.969-.969.969.969m-.969 3.771l1.453 1.453-1.453 1.453-1.453-1.453 1.453-1.453m-4.117 5.085l.969.969-.969.969-.969-.969.969-.969m-1.453-3.39l.969-.969.969.969-.969.969-.969-.969m2.18-7.024l-.969-.969.969-.969.969.969-.969.969"/></svg>