<svg xmlns="http://www.w3.org/2000/svg" viewBox="0 0 64 64" enable-background="new 0 0 64 64"><path d="m32 2c-16.568 0-30 13.432-30 30 0 .018.001.035.001.053 0 .018-.001.035-.001.053 0 16.51 13.357 29.894 29.835 29.894.021 0 .043-.002.064-.002.035 0 .067.002.101.002 16.568 0 30-13.432 30-30s-13.432-30-30-30m28 30c0 2.394-.302 4.717-.866 6.934-.261-.18-.951.564-1.121-.422-.213-1.224-1.593-2.074-2.336-1.489s-2.866 2.286-2.971 3.35c-.107 1.063-1.01 2.339-1.433 1.437-.426-.904-1.698-3.723-1.646-4.467.052-.744-.586.266-1.538-1.223-.956-1.489-2.601-.214-3.928-.958-1.327-.745-2.813-1.755-3.557-2.073-.741-.32 1.327 2.977 1.593 2.552.267-.425 1.327.319 1.646.319s1.167.744.637 1.436-5.253 3.566-5.731 2.818c-.48-.748-3.29-6.541-3.769-6.186-.478.355 2.973 6.398 3.557 6.77.582.373 2.335.054 3.183-.318.85-.372-1.751 4.148-2.864 4.68-1.114.531-2.016 2.18-1.54 2.924.478.744.531 3.563-.476 3.936-1.01.371-1.381.956-1.063 1.648.317.69-.742 1.859-1.22 2.604-.479.744-2.335 2.286-2.495 2.712-.158.426-2.44.319-3.344.319-.901 0-.212-1.117-.319-2.073-.104-.958-.9-1.862-.9-2.34 0-.479-.267-1.596-.637-2.127-.371-.533-.479-1.543-.107-2.127.373-.586.637-2.286-.104-3.031-.744-.744-1.594-2.021-1.009-3.031.584-1.01-.637-.903-1.645-1.383-1.009-.479-3.079.16-4.14.32-1.062.159-2.122-.266-2.441-.799-.318-.531-1.008-1.86-1.715-2.18-.705-.318-.301-1.701.123-2.232.426-.531-.424-1.542 0-1.969.426-.425.69-1.966 1.539-2.303.85-.336.69-.567.716-1.365.027-.798.955-.798 1.113-1.223.16-.426.637-.638 1.595-.638.955 0 2.572-.559 3.342-.745s2.097-.452 1.99.293c-.106.744-.079 1.594.424 1.594.505 0 1.195.293 1.991.789.796.495.822.09.929-.469s1.22-.346 2.372.186c1.152.532 2.723.159 3.225.107.505-.055.718-1.569.585-2.074-.134-.505-.929.239-1.433-.08-.504-.318-1.195.08-1.698-.373-.505-.451-.585-1.515 0-1.541.583-.027.876-.213 1.22-.611.346-.399 1.646-.638 2.15-.24.503.399 1.248.665 1.697.213.451-.451-.9-1.328-1.194-1.568-.292-.239-.053-1.01-.344-1.01-.293 0-.532.132-.372.505.159.372-.849 1.036-1.01.665-.158-.373-.423-1.09-.821-1.09-.397 0-.928 1.808-.955 2.1-.027.293-.717.771-1.273.771-.556 0-.556.639-.265.932.292.292.079 1.462-.451 1.529-.531.068-.717-.12-.796-.573-.079-.451-.61-.398-.637-1.329s-.611-1.382-.982-1.808-1.327-1.675-1.698-1.116 1.327 1.755 1.777 2.073c.453.319.373 1.01.134 1.17s-.69 1.463-.955 1.568c-.267.106-.52-.396-.52-.396-.398-.159.556-.638.716-.877.158-.239-1.671-1.914-2.001-2.393s-1.74.398-2.376.08c-.637-.318-1.593 1.196-1.671 2.073-.081.878-1.116 1.116-2.071 1.116-.954 0-1.592-.717-1.272-1.435.318-.718-.16-1.914.398-1.994.557-.079 2.147 0 2.466-.877.318-.877-1.513-1.675-.795-1.834.715-.16 1.831-1.275 2.627-1.914.794-.638.874-1.435 1.59-1.491.718-.055-.158-1.381.479-1.779.638-.399.796 1.436 1.274 1.436.478 0 1.431-.16 2.228.239s1.035-.399 1.354-1.437c.318-1.036 1.114-1.595 2.705-2.392 1.592-.798-1.829.239-2.467-.559-.637-.798.239-2.553.638-3.792.398-1.24-1.274 1.239-2.15 2.516-.877 1.276.239 1.834.158 2.711-.079.878-1.51 1.914-1.51 1.914-.637.08-.558-1.196-.876-1.754-.319-.558-.877-.319-1.753.319-.876.638-.955-1.515-1.193-2.393-.237-.876 1.433-1.994 2.218-2.59.784-.598 2.079-3.471 3.513-5.703 1.434-2.233 3.503-1.117 4.06-.239.559.876 1.989.318 3.344 1.914 1.354 1.595-.319 2.312-1.829 1.664-1.515-.648.317 1.606 1.191 2.244.876.637 1.354-1.436 1.673-1.914.318-.479 1.511-.239 2.386-1.516.877-1.276 2.866-1.036 4.002-.896 1.137.141.854-.699.138-1.386-.53-.508.554-.063 1.83.56 8.233 4.873 13.757 13.842 13.757 24.105m-39.958-9.528c-.264-.273.267-1.348.505-1.667.24-.319-.664-.213-.609.24.053.451-.346 1.143-.903 1.329s-1.192.132-.875-.373c.317-.505.026-.957-.213-1.436-.238-.479 1.326-.771 1.646-1.063.318-.292-.503-.479-.478-.93.027-.453.213-.851.529-.904.319-.053.617-.257.903-.239.877.054.609 2.047.929 2.686.318.637 1.221 1.409 1.141 1.966-.08.559-.25.878-.9.718-.653-.16-1.698.824-2.098.638-.399-.187.69-.692.423-.965m-5.718-11.181c.797.398 1.432-.324 1.988-.479.659-.182 1.035 2.154.399 2.074-.637-.08-1.353 1.276-2.273 1.196-.921-.08-.513-.717-1.548-1.674-.222-.206-.313-.392-.321-.555.221-.213.441-.427.67-.632.358-.095.783-.081 1.085.07m24.902 40.141c.743-.159.6-1.573 1.274-1.648 1.433-.159.053 3.828-.477 4.945-.531 1.117-.745 1.063-1.25.372-.507-.69-.343-1.808 0-2.339.342-.533-.291-1.17.453-1.33"/></svg>