<svg xmlns="http://www.w3.org/2000/svg" viewBox="0 0 64 64" enable-background="new 0 0 64 64"><path d="m5.268 5.897c.366.723.922 1.722 1.662 2.85.735 1.129 1.652 2.39 2.704 3.672 1.048 1.283 2.236 2.584 3.479 3.828 1.247 1.242 2.548 2.429 3.833 3.477 1.282 1.051 2.543 1.967 3.672 2.705.564.367 1.094.693 1.575.971s.909.51 1.271.691c.359.186.652.32.854.41.202.089.314.133.314.133s-.044-.112-.134-.314c-.089-.202-.224-.495-.409-.854-.182-.362-.414-.79-.692-1.271-.276-.482-.602-1.012-.971-1.576-.737-1.129-1.654-2.389-2.704-3.672-1.048-1.285-2.234-2.586-3.476-3.833-1.245-1.243-2.546-2.432-3.83-3.479-1.281-1.052-2.542-1.969-3.671-2.705-1.126-.74-2.125-1.296-2.848-1.661-.359-.186-.652-.32-.855-.409-.202-.089-.314-.132-.314-.132s.043.112.132.314c.089.203.224.496.408.855"/><path d="m41.571 20.618c-.368.564-.694 1.094-.971 1.576-.277.48-.51.908-.692 1.271-.185.359-.319.652-.409.854-.089.202-.133.314-.133.314s.112-.044.314-.133c.202-.09.494-.225.854-.41.361-.182.79-.414 1.271-.691.482-.277 1.013-.604 1.576-.971 1.129-.738 2.389-1.654 3.672-2.705 1.284-1.048 2.586-2.234 3.833-3.477 1.243-1.244 2.431-2.545 3.479-3.828 1.051-1.282 1.968-2.543 2.705-3.672.738-1.128 1.295-2.127 1.66-2.85.185-.359.319-.652.408-.855.089-.202.133-.314.133-.314s-.111.044-.313.133c-.202.089-.495.223-.856.408-.723.365-1.721.922-2.849 1.66-1.13.736-2.39 1.653-3.672 2.705-1.284 1.048-2.584 2.236-3.829 3.479-1.241 1.247-2.429 2.548-3.476 3.833-1.05 1.284-1.966 2.544-2.705 3.673"/><path d="m30.714 17.184c.275 1.319.589 2.419.841 3.188.124.385.236.688.316.895.08.205.129.315.129.315s.048-.11.129-.315c.08-.207.192-.51.316-.895.252-.77.564-1.869.841-3.188.277-1.319.52-2.859.683-4.509.167-1.649.247-3.408.247-5.168-.004-1.76-.084-3.52-.252-5.168-.012-.114-.025-.227-.036-.339h-3.855c-.013.112-.024.225-.036.339-.167 1.648-.248 3.408-.253 5.168.001 1.76.081 3.519.247 5.168.162 1.649.406 3.189.683 4.509"/><path d="m21.153 9.928c.635 1.642 1.34 3.255 2.088 4.734.744 1.481 1.523 2.831 2.254 3.964.366.566.717 1.08 1.045 1.527.326.449.623.836.88 1.15.253.314.466.557.614.721s.232.25.232.25.006-.12.006-.342c.001-.221-.003-.543-.025-.947-.019-.404-.058-.891-.116-1.442-.056-.552-.139-1.169-.246-1.834-.213-1.331-.539-2.855-.977-4.454-.435-1.6-.99-3.271-1.616-4.916-.632-1.643-1.337-3.256-2.083-4.736-.278-.555-.562-1.09-.845-1.603h-3.549c.19.95.429 1.966.717 3.014.436 1.6.991 3.27 1.621 4.914"/><path d="m37.136 21.56c.544-.602 1.276-1.479 2.065-2.572.79-1.092 1.638-2.4 2.458-3.841.823-1.438 1.611-3.015 2.328-4.621.712-1.608 1.354-3.249 1.871-4.824.432-1.305.782-2.559 1.051-3.702h-3.363c-.425.659-.854 1.363-1.275 2.104-.824 1.438-1.613 3.013-2.333 4.618-.715 1.608-1.357 3.248-1.876 4.822-.522 1.574-.927 3.079-1.21 4.397-.285 1.317-.446 2.449-.529 3.255-.043.402-.063.725-.074.945s-.011.342-.011.342.089-.082.246-.237.382-.386.652-.686"/><path d="m58.985 19.532c-1.6.435-3.271.99-4.913 1.621-1.642.634-3.255 1.34-4.735 2.088-1.479.744-2.831 1.522-3.964 2.254-.566.365-1.079.717-1.527 1.045-.449.326-.836.623-1.149.879-.315.254-.558.467-.722.615-.163.147-.249.232-.249.232s.12.006.341.006.544-.004.947-.025c.405-.02.891-.059 1.442-.116.553-.056 1.169-.139 1.835-.246 1.332-.214 2.855-.54 4.454-.978 1.6-.434 3.271-.989 4.916-1.615 1.642-.633 3.256-1.337 4.736-2.084.554-.277 1.09-.561 1.603-.844v-3.549c-.951.191-1.966.428-3.015.717"/><path d="m8.723 24.062c1.608.715 3.248 1.358 4.822 1.877 1.573.521 3.078.926 4.396 1.209 1.317.285 2.45.447 3.256.529.401.043.724.064.944.074.222.012.342.012.342.012s-.081-.09-.236-.246c-.156-.158-.387-.383-.688-.653-.602-.544-1.479-1.276-2.572-2.064-1.092-.79-2.399-1.639-3.84-2.458-1.439-.823-3.015-1.611-4.621-2.328-1.609-.712-3.25-1.354-4.825-1.871-1.304-.433-2.558-.784-3.701-1.053v3.361c.66.426 1.362.854 2.104 1.278 1.439.825 3.013 1.614 4.619 2.333"/><path d="m32 21.95c-5.551 0-10.05 4.499-10.05 10.05h-19.95v30h60v-30h-19.95c0-5.551-4.499-10.05-10.05-10.05m-9.525 22.715c0-.47 3.456-.851 7.718-.851 4.264 0 7.719.381 7.719.851 0 .471-3.455.852-7.719.852-4.262 0-7.718-.381-7.718-.852m2.892 7.074c0-.301 2.212-.545 4.939-.545 2.729 0 4.939.244 4.939.545s-2.211.545-4.939.545c-2.727 0-4.939-.244-4.939-.545m7.156 3.391c-2.183 0-3.952-.194-3.952-.436 0-.24 1.77-.436 3.952-.436s3.952.195 3.952.436c.001.242-1.769.436-3.952.436m0-6.035c-3.41 0-6.175-.305-6.175-.681s2.765-.681 6.175-.681 6.175.305 6.175.681-2.764.681-6.175.681m11.013-8.561c0 .587-4.32 1.063-9.648 1.063s-9.648-.477-9.648-1.063c0-.588 4.32-1.064 9.648-1.064s9.648.476 9.648 1.064m-.431-4.611c0 .734-5.399 1.33-12.06 1.33-6.661 0-12.061-.596-12.061-1.33s5.399-1.33 12.061-1.33c6.661 0 12.06.595 12.06 1.33"/></svg>