<svg xmlns="http://www.w3.org/2000/svg" viewBox="0 0 64 64" enable-background="new 0 0 64 64"><path d="m29.293 26.032c-.125-.507-1.486 1.719-1.102 2.051.386.333 1.617.035 1.102-2.051"/><path d="m32 2c-16.568 0-30 13.432-30 30s13.432 30 30 30 30-13.432 30-30-13.432-30-30-30m-1.771 30.793c0 .554-1.046-.223-1.321.332-.275.554-.439-1.938-.549-2.771-.112-.83-.552 2.272-.937 2.161-.388-.11-2.315-.222-2.7-.887-.385-.664-.55-1.772 0-1.772.552 0 2.589-1.939 3.085-2.771.495-.831.991-1.054.771-2.105-.219-1.053 1.127-2.245 1.103-1.385-.057 1.884 1.267 1.385 1.762 2.881.496 1.495-.825 2.549-.882 1.994-.055-.554-.716-.332-2.037.389-1.322.72.33.221.66 1.163.331.942.716.554 1.873.886 1.155.333.552-.941.944-1.329.395-.388.323 1.718.842 1.163.518-.554 2.179.332 2.179.332 1.212.555 2.919.752 2.919.752 1.598.474 2.313 1.853 3.085 2.661.771.81-.111 1.021-1.321 0-1.212-1.019-1.267-.643-1.652-.152-.387.489-1.212-.379-1.984-.047-.77.333.331-1.218-.385-1.772-.716-.554-2.478-1.053-2.422-.442.055.608-1.379.275-2.425-.247-1.048-.524-.608.411-.608.966m8.702 15.348c.772.11 1.016-.6 1.048 0 .04.792-.221 2.049-.717 1.883-.495-.167-1.102-1.995-.331-1.883m11.566.827c-.661.273-.937.669-1.267 1.61-.331.941-1.268 1.439-1.873.941-.604-.498.33-1.385.937-1.48.605-.096.826-1.179 1.597-1.898.772-.721-.646-2.007 0-2.549.331-.277.718.997 1.212.942.497-.057 1.213.442.606.913-.606.47-.551 1.247-1.212 1.521m-8.225-40.578c.312-.558.448-1.422.503-2.238.381.159.756.328 1.128.503-1.06 1.739-2.171 2.699-1.631 1.735m-4.625-3.326c.33.749.33 3.657.33 5.235 0 1.58 2.396-.747 3.635-.83 1.238-.083-3.965 3.075-3.965 4.903s-2.149 1.828-3.471 2.742-1.321 1.163-1.321 0 1.982-1.994 3.14-2.41c1.155-.415.742-3.573 1.11-4.487.367-.913.136-6.07.542-5.153m-3.727 30.113c.771-.166 1.762.22 1.598.664-.166.443-.442.775 0 .996.439.222 1.376 1.33 1.588.832.209-.499-.078-3.043.559-2.492.387.333 1.103 2.658 2.7 4.099 1.597 1.44 1.982 3.38 1.706 4.045-.275.665-.991 1.551-1.101 2.825-.111 1.274-1.708 1.44-2.369 1.219s-1.816.222-1.816-.332c0-.555-.111-1.274-.882-1.298s-1.267-.475-1.707-1.307c-.441-.831-3.03-.11-3.415.333-.385.442-1.762.276-2.698.831-.937.554-1.433-.61-1.157-1.718.275-1.108-.991-2.271-.991-3.713 0-1.44 3.028-1.163 3.249-1.605.222-.444.44-.666.991-1.274.552-.61 1.047-1.22 1.826-.815.779.406.544-.127.842-.736.298-.612.304-.389 1.077-.554m-1.92-31.177c1.239 0 2.457.089 3.654.245-.061.432.156.732.588.653.908-.166.908 1.33.578 3.241-.331 1.912-1.652 3.822-2.808 3.906-1.157.084-1.654 1.746-1.405 2.493.248.748-.66 2.493-1.24 2.493-.577 0-.494-1.412-.577-2.992-.083-1.578-1.322-.831-2.478 0-1.157.831 1.733.831 1.238 1.163-.496.333-.413 1.081 0 2.161.414 1.08-1.321 3.325-2.065 4.072-.743.748-2.229 0-3.8.997-1.569.997.909 3.241.743 3.906-.164.666-1.487.499-2.726-.499-1.239-.997-.661 1.247.247 2.494.91 1.246.91 2.575 1.404 3.491.497.915 3.471.913 4.792 1.578s4.873.166 4.873.166c1.57-.083-2.478 2.077-3.965 1.33-1.486-.749-7.104-2.078-8.591-3.906-1.487-1.828-3.47-6.731-2.313-5.153 1.155 1.579 3.552 4.156 3.221 3.491-.33-.665-1.485-2.41-1.404-3.657.083-1.246-.578-1.662-1.072-1.246-.497.415-.331-1.413-.91-2.41-.578-.997-2.478 1.247-3.799 1.604-1.323.357-1.321 3.216-2.065 3.715-.744.497-1.982-3.407-1.901-5.153.083-1.745-.991.581-1.899-1.163-.335-.645-.952-.947-1.597-1.075 4.506-9.428 14.132-15.945 25.277-15.945"/></svg>