<svg xmlns="http://www.w3.org/2000/svg" viewBox="0 0 64 64" enable-background="new 0 0 64 64"><path d="m10.797 27.508l-8.797-7.762v9.785l6.849 3.353c.435-1.888 1.094-3.689 1.948-5.376"/><path d="M17.964,19.063L9.048,2H2v7.888l11.669,13.225C14.926,21.592,16.37,20.232,17.964,19.063z"/><path d="M54.952,2l-8.915,17.063c1.593,1.169,3.037,2.528,4.294,4.05L62,9.889V2H54.952z"/><path d="m45.92 2h-10.404l-.789 12.633c2.208.252 4.324.806 6.306 1.621l4.887-14.254"/><path d="m29.273 14.633l-.789-12.633h-10.404l4.888 14.254c1.981-.816 4.097-1.369 6.305-1.621"/><path d="m55.151 32.885l6.849-3.352v-9.787l-8.797 7.763c.855 1.686 1.513 3.488 1.948 5.376"/><path d="m55.764 38.236c0 1.389-.127 2.747-.354 4.07h-3.722v-4.682h-2.813v-3.75l-5.625-1.874v-10.312h-1.875v10.312l-5.625 1.875v3.75h-2.813v-7.203l-9.375-10.609-9.375 10.609v7.127l-5.935 1.355c-.005-.223-.017-.443-.017-.668 0-.131.008-.26.011-.39l-6.246-2.141v4.627 1.98.105.012 5.391 14.18h12.188 17.812.938 10.312 8.438 1.875v-13.156c0-.498.338-.906.75-.906h.375c.412 0 .75.408.75.906v13.156h2.813v-13.156c0-.498.338-.906.75-.906h.375c.412 0 .75.408.75.906v13.156h1.874v-17.12-9.175l-6.247 2.143c.003.129.011.257.011.388m-44.858 19.077c0 .515-.422.938-.938.938h-2.812c-.516 0-.938-.423-.938-.938v-1.875c0-.517.422-.938.938-.938h2.813c.516 0 .938.421.938.938v1.875zm0-7.5c0 .515-.422.938-.938.938h-2.812c-.516 0-.938-.423-.938-.938v-1.875c.001-.517.423-.938.938-.938h2.813c.516 0 .938.421.938.938v1.875zm19.219 7.5c0 .515-.422.938-.938.938h-11.25c-.516 0-.938-.423-.938-.938v-1.875c0-.517.422-.938.938-.938h11.25c.516 0 .938.421.938.938v1.875m0-7.5c0 .515-.422.938-.938.938h-11.25c-.516 0-.938-.423-.938-.938v-1.875c.001-.517.423-.938.939-.938h11.25c.516 0 .938.421.938.938v1.875zm0-7.5c0 .515-.422.938-.938.938h-11.25c-.516 0-.938-.423-.938-.938v-1.875c0-.517.422-.938.938-.938h11.25c.516 0 .938.421.938.938v1.875m0-7.5c0 .515-.422.938-.938.938h-11.25c-.516 0-.938-.423-.938-.938v-1.875c.001-.517.423-.938.939-.938h11.25c.516 0 .938.421.938.938v1.875zm10.781 24.375c0 .515-.422.938-.938.938h-2.813c-.516 0-.938-.423-.938-.938v-1.875c0-.517.422-.938.938-.938h2.813c.516 0 .938.421.938.938v1.875m0-15c0 .515-.422.938-.938.938h-2.813c-.516 0-.938-.423-.938-.938v-1.875c0-.517.422-.938.938-.938h2.813c.516 0 .938.421.938.938v1.875m7.5 15c0 .515-.422.938-.938.938h-2.813c-.516 0-.938-.423-.938-.938v-1.875c0-.517.422-.938.938-.938h2.813c.516 0 .938.421.938.938v1.875m0-7.5c0 .515-.422.938-.938.938h-2.813c-.516 0-.938-.423-.938-.938v-1.875c0-.517.422-.938.938-.938h2.813c.516 0 .938.421.938.938v1.875"/></svg>