<svg xmlns="http://www.w3.org/2000/svg" viewBox="0 0 64 64" enable-background="new 0 0 64 64"><path d="m62 45.556l-3.702-.427c-.061-.007-6.073-.726-8.566-3.226-3.534-3.545-1.648-11.46-1.628-11.539l.295-1.212-1.179.398c-.023.008-2.324.773-5.009.773-2.33 0-4.213-.558-5.612-1.658l5.187-5.199.274.273c.135.138.286.245.38.236.392-.037.187-.67.295-1.463l3.664-3.674.315.315 5.714-5.729c.936-.938 2.719-.672 3.984.595 1.262 1.268 1.527 3.057.592 3.994l-.017.016c-.469.471-.335 1.364.296 1.997.633.635 1.524.768 1.993.298 0-.002.002-.003.003-.004.006-.004.01-.009.013-.013 1.872-1.877 1.341-5.452-1.187-7.986-2.526-2.534-6.094-3.066-7.967-1.189l-5.713 5.729.302.304-9.7 9.726c-2.572-4.048-.775-9.729-.756-9.792l.372-1.134-1.164.248c-.018.004-1.771.372-3.977.372-2.292 0-5.424-.402-7.336-2.318-2.489-2.496-3.209-8.527-3.216-8.588l-.423-3.679-14.401 56.194c-1.133 1.135-1.92 1.923-1.922 1.926-.341.343-.245.996.217 1.458.462.463 1.112.56 1.454.217.002-.002.786-.789 1.916-1.922l56.209-14.317m-13.398-2.521c1.398 1.403 3.617 2.305 5.561 2.865l-44.866 11.428 36.87-25.154c-.364 2.89-.483 7.934 2.435 10.861m-13.719-13.757c1.751 1.756 4.217 2.646 7.328 2.646.388 0 .768-.014 1.134-.039l-35.356 24.121 24.048-35.184c-.119 2.625.356 5.959 2.846 8.456m-16.708-19.473c.56 1.953 1.46 4.187 2.863 5.594 1.819 1.824 4.746 2.788 8.465 2.788.809 0 1.557-.046 2.195-.105l-25.028 36.616 11.505-44.893"/></svg>