<svg xmlns="http://www.w3.org/2000/svg" viewBox="0 0 64 64" enable-background="new 0 0 64 64"><path d="m60.143 60.301c-.104-.095-9.315-8.63-16.702-23.418 1.429.676.15-1.14.15-1.14-.994-1.225-2.092-5.66-2.771-6.688-.008-.01-.013-.016-.019-.023 1.413-1.34 3.512-1.861 2.79-3.848-1.266-3.476-7.305 5.472-4.478.284 2.831-5.191-.129-5.801-.945-4.668-.532.739-1.596 5.74-2.41 7.295-.234.021-.469.059-.701.116-.113-.322-.205-.881-.271-1.752-.5-6.649 7.283-27.021 3.075-24.191-4.211 2.829-3.656 21.36-6.125 24.473-2.466 3.112 2.515-20.378.624-22.774-1.409-1.79-4.942-1.416-3.408 13.719 1.534 15.139-1.02 7.075-2.378 3.255-1.359-3.817-2.769-2.411-1.335 4.527 1.146 5.559-1.521-2.264-4.636-8.063-3.113-5.801-10.148-2.546-4.2 1.698 5.513 3.932 6.295 7.379 7.361 10.222-1.077.957-2.009 3.126-3.035 6.418-.295.947-.041.865.43.372-7.128 15.383-17.062 24.074-17.169 24.166l-1.99 1.719h60l-1.857-1.699m-52.985-.268c3.58-3.579 11.644-12.632 17.316-26.465l.041-.1c.011-.027.02-.049.03-.076.21.236.421.543.647.799-.973.848-1.613 1.974-1.79 3.387-.229 1.778-.098 3.281-1.322 4.645-1.729 1.923-4.219 3.969-3.721 7.098.686-1.647 1.719-2.909 2.997-4.025.762-.666 1.593-1.254 2.279-2.019 1.175-1.308 1.445-2.985 1.245-4.771-.177-1.575-.014-2.76.499-4.123.44.408.949.513 1.621-.53 1.31-2.028 2.425-1.569 4.224.317-2.062 1.973-1.462 5.563.232 7.613 1.248 1.508 3.741 3.573 2.91 5.935 2.186-1.518.209-5.072-.978-6.529-1.645-1.986-2.549-4.151-1.935-6.774.399.431.83.92 1.305 1.469.519.6.999 1.057 1.446 1.395.34 1.623 1.465 3.228 2.43 4.188-.01-.007-.018-.016-.027-.025 2.39 2.523 1.043 6.429.071 9.391 2.449-2.146 4.367-7.046 1.874-9.972-.45-.576-1.032-1.005-1.542-1.508-.394-.373-.772-.816-1.108-1.3 1.055.127 1.861-.51 2.512-1.365.147-.193.284-.368.416-.522 1.31 2.786 2.369 5.761 3.104 8.77.322 1.307.533 2.659.929 3.941.483 1.497 1.742 3.687 3.439 3.418-1.499-.736-1.864-2.968-2.015-4.583-.157-1.34-.404-2.723-.771-4.032-.786-2.804-2.158-5.863-4.125-8.037.32-.229.657-.329 1.092-.253 5.854 12.574 13.281 21.188 16.569 24.646h-49.894z"/><path d="m13.581 55.398c-1.39.946-3.507 2.406-3.733 4.391 1.479-1.131 3.241-1.809 4.782-2.837 1.475-.95 3.129-3.043 2.99-5.085-1.187 1.284-2.566 2.653-4.039 3.531"/><path d="m28.445 39.138c-.218-1.305-.098-2.573.094-3.869-1.909 2.089-1.781 5.106-.927 7.7.833 2.526.334 5.263.092 7.861 1.677-2.029 2.625-5.399 1.794-8.066-.378-1.21-.844-2.356-1.053-3.626"/><path d="m24.838 45.358c-.619 2.696-2.181 4.456-3.858 6.388-1.982 2.28-1.395 5.836.987 7.478-.44-1.106-.848-2.378-.755-3.608.049-1.345.798-2.275 1.647-3.13 1.637-1.645 3.034-4.698 1.979-7.128"/><path d="m32.238 47.718c-2.345 1.331-2.079 4.778-.777 6.813.848 1.332 2.287 2.962 2.258 4.692 1.248-1.281.27-3.904-.428-5.203-1.139-2.012-1.747-3.939-1.053-6.302"/><path d="m26.408 50.83c-2.235.826-1.268 4.109-.205 5.523.5.661 2.451 2.364 2.108 3.436 1.469-.505.085-3.472-.382-4.17-.917-1.39-2.058-2.951-1.521-4.789"/><path d="m34.832 51.867c.728 1.253 1.571 2.433 2.342 3.656.815 1.297 1.232 2.773 1.656 4.266 2.384-3.049-.941-7.724-3.998-7.922"/><path d="m44.4 55.617c-1.827-1.395-2.93-3.38-3.739-5.637-1.285 2.734.655 6.021 2.891 7.167.334.374 3.314 1.144 2.753 2.076 1.154-.217-.199-2.063-.513-2.404-.424-.461-.906-.831-1.392-1.202"/><path d="m49.272 56.385c.645 2.252 3.213 3.356 5.177 2.839-1.511-.906-3.281-1.953-3.529-4.026.001.011.001.021.001.032-.227-2.116-2.052-3.947-3.878-4.399.667 1.118 1.419 2.229 1.833 3.5.219.667.203 1.378.396 2.054"/><path d="m40.219 18.704c1.714-1.825 2.536-7.484 1.254-5.597-1.285 1.885-2.33 6.742-1.254 5.597"/><path d="m44.729 23.795c1.654-.503 4.926-6.916 3.349-5.345-1.578 1.573-5.448 5.983-3.349 5.345"/><path d="m47.155 9.711c-1.783.943-4.88 8.485-5.057 11.319-.189 3.023 6.839-12.261 5.057-11.319"/><path d="m24.055 16.352c3.223 2.239-3.358-9.783-3.838-7.396-.481 2.39 2.414 6.407 3.838 7.396"/></svg>