<svg xmlns="http://www.w3.org/2000/svg" viewBox="0 0 64 64" enable-background="new 0 0 64 64"><path d="m6.103 39.626c2.21 7.862 7.471 14.409 14.813 18.435 4.699 2.577 10.013 3.939 15.366 3.939 6.143 0 12.08-1.734 17.167-5.015l5.551-3.579-6.625.134c-.185.004-.368.005-.554.005-4.54 0-9.045-1.154-13.029-3.338-1.467-.805-2.855-1.742-4.126-2.785-.326-.268-.634-.639-.792-.904 1.49-1.257 1.604-2.507 1.424-3.354-.191-.902-.787-1.589-1.493-2.102.189-.348.323-.738.365-1.17.077-.811-.178-1.48-.545-2.023 2.346-1.375 3.021-3.477 2.784-5.234-.357-2.637-2.645-4.701-5.206-4.701-.415 0-.83.055-1.232.164-.72.193-1.362.292-1.911.292-1.081 0-1.513-.37-1.742-.649-.685-.828-.866-2.633-.461-4.597.528-2.581 1.48-5.067 2.831-7.386 2.529-4.346 6.3-7.823 10.904-10.055l5.981-2.898-6.627-.651c-1.039-.102-2.094-.154-3.139-.154-11.129 0-21.413 5.791-26.839 15.113-3.998 6.869-5.017 14.864-2.865 22.513m4.508-21.577c5.289-9.087 15.077-14.174 25.196-14.174.982 0 1.966.048 2.952.145-4.776 2.314-8.904 5.973-11.715 10.803-1.481 2.545-2.488 5.227-3.047 7.949-.655 3.184-.265 7.493 4.063 7.493.697 0 1.496-.112 2.409-.358.247-.066.492-.098.734-.098 3.22 0 5.742 5.539-.396 7.195-1.906.514 4.479 1.994-.399 4.588 0 0 5.202 1.256 2.034 3.66-1.431 1.086.194 2.939 1.014 3.612 1.348 1.106 2.821 2.107 4.416 2.982 4.422 2.424 9.224 3.573 13.95 3.573.198 0 .395-.001.592-.006-4.765 3.073-10.395 4.711-16.131 4.711-4.896 0-9.867-1.193-14.448-3.704-14.05-7.702-19.076-24.883-11.224-38.371"/><path d="m23.501 43.082c-1.187.033-2.388-.006-3.57-.254-.59-.118-1.176-.297-1.727-.559-.541-.261-1.077-.633-1.373-1.146.462.379.983.582 1.535.718.545.144 1.107.215 1.673.267 1.133.09 2.279.089 3.427.039 2.301-.084 4.592-.324 6.941-.555-1.079.491-2.223.817-3.38 1.057-1.157.244-2.339.38-3.526.433"/><path d="m29.634 44.877c.588.125 1.207.374 1.597.848-.589-.129-1.123-.13-1.669-.119-.545.021-1.09.057-1.641.113-1.105.084-2.215.227-3.418.166 1.011-.653 2.155-.977 3.334-1.1.592-.043 1.198-.041 1.797.092"/><path d="m28.462 35.755c.591-.134 1.13-.149 1.776.058-.447.51-1.023.705-1.533.848l-.702.164c-.216.066-.438.152-.746.333-.062-.323.082-.691.337-.938.259-.261.581-.378.868-.465"/><path d="m21.083 30.737c-1.611.437-3.698-.367-4.146-1.931-.448-1.564.913-3.299 2.523-3.732 1.612-.436 1.995.826 2.443 2.391.448 1.566.79 2.839-.82 3.272"/><path d="m16.354 40.199c.886-.754 1.891-1.291 2.881-1.807l2.975-1.445c.954-.512 1.934-1.003 2.589-1.914-.308 1.117-1.301 1.907-2.21 2.539-.938.643-1.942 1.146-2.922 1.654-.987.495-1.968.979-2.862 1.555-.868.579-1.729 1.293-1.811 2.443-.17-.54-.059-1.169.224-1.691.287-.522.696-.96 1.136-1.334"/></svg>