<svg xmlns="http://www.w3.org/2000/svg" viewBox="0 0 64 64" enable-background="new 0 0 64 64"><path d="m32 2c-16.568 0-30 13.432-30 30s13.432 30 30 30 30-13.432 30-30-13.432-30-30-30m2.473 30.137c.299-.221.629-.365.947-.51.65-.263 1.295-.413 1.916-.54 1.248-.24 2.42-.359 3.51-.521 1.094-.164 2.086-.35 3.039-.717.957-.359 1.891-.963 2.947-1.87.115 1.38-.521 2.827-1.639 3.833-1.117 1.012-2.566 1.531-3.914 1.722-1.361.196-2.672.102-3.898-.097-.615-.103-1.211-.229-1.793-.354-.594-.115-1.127-.274-1.793-.098.096-.344.383-.633.678-.848m-18.991 4.268c-.717.487-1.551 1.004-2.613 1.313-1.037.318-2.395.337-3.49-.211-1.094-.539-1.822-1.471-2.08-2.557 1.111.179 1.98.329 2.701.281.717-.035 1.297-.189 2.047-.397.74-.204 1.604-.499 2.646-.644.521-.063 1.094-.09 1.674.038.572.136 1.143.408 1.459.893-1.096.267-1.599.803-2.344 1.284m-1.16-12.874c1.668-.143 3.445.148 5.037 1.073.781.475 1.488 1.106 2.072 1.836.576.736 1.008 1.569 1.348 2.418.684 1.708.902 3.5.965 5.238.043 1.745-.102 3.461-.361 5.141-.133.84-.283 1.674-.471 2.497-.154.708-.209 1.328-.145 1.938.131 1.181.83 2.127 2.088 2.712 1.242.554 2.799.747 4.332.592 1.547-.139 3.1-.597 4.531-1.461-1.02 1.348-2.572 2.289-4.236 2.843-1.674.52-3.539.722-5.41.16-.924-.284-1.873-.763-2.617-1.55-.754-.771-1.256-1.809-1.443-2.837-.205-1.017-.137-2.066.031-2.97.133-.792.271-1.579.383-2.367.438-3.137.725-6.321.084-9.206-.346-1.424-.971-2.752-2.053-3.775-1.057-1.061-2.549-1.745-4.135-2.282m28.432 28.457c-2.252 1.594-4.82 2.839-7.574 3.504-2.754.669-5.605.739-8.338.355-2.738-.397-5.359-1.24-7.777-2.482 2.734.033 5.348.229 7.918.136 2.566-.068 5.076-.335 7.49-.923 2.412-.588 4.764-1.501 7.074-2.617 2.328-1.099 4.561-2.468 6.977-3.75-1.577 2.217-3.518 4.17-5.77 5.777"/></svg>