<svg xmlns="http://www.w3.org/2000/svg" viewBox="0 0 64 64" enable-background="new 0 0 64 64"><path d="m20.519 59.717l7.027-7.2c-2.498-.54-4.824-1.529-6.904-2.87l-.123 10.07"/><path d="m43.481 4.284l-7.027 7.199c2.498.541 4.824 1.529 6.904 2.871l.123-10.07"/><path d="m11.484 36.454l-7.201 7.025 10.07-.122c-1.34-2.08-2.33-4.406-2.869-6.903"/><path d="m52.516 27.547l7.199-7.027-10.07.123c1.341 2.08 2.33 4.407 2.871 6.904"/><path d="m14.355 20.642l-10.07-.123 7.199 7.027c.541-2.498 1.529-4.824 2.871-6.904"/><path d="m49.645 43.358l10.07.122-7.199-7.026c-.541 2.497-1.53 4.824-2.871 6.904"/><path d="m27.546 11.483l-7.025-7.2.121 10.07c2.08-1.341 4.408-2.33 6.904-2.87"/><path d="m36.454 52.517l7.027 7.199-.123-10.069c-2.08 1.34-4.406 2.33-6.904 2.87"/><path d="m14.751 43.962l-3.965 9.251 9.252-3.965c-2.062-1.433-3.853-3.225-5.287-5.286"/><path d="m49.248 20.039l3.965-9.252-9.251 3.965c2.062 1.434 3.852 3.225 5.286 5.287"/><path d="M11,32c0-1.278,0.133-2.524,0.352-3.741L2,31.999l9.351,3.74C11.132,34.524,11,33.278,11,32z"/><path d="m62 32l-9.354-3.741c.219 1.217.352 2.463.352 3.741 0 1.279-.133 2.525-.352 3.741l9.354-3.741"/><path d="m20.039 14.751l-9.252-3.965 3.965 9.252c1.433-2.062 3.224-3.853 5.287-5.287"/><path d="m43.962 49.248l9.251 3.965-3.965-9.251c-1.434 2.062-3.224 3.853-5.286 5.286"/><path d="m35.741 11.352l-3.74-9.352-3.742 9.352c1.217-.219 2.463-.352 3.74-.352 1.279 0 2.525.133 3.742.352"/><path d="m28.259 52.648l3.742 9.352 3.74-9.352c-1.217.219-2.463.352-3.742.352-1.277 0-2.523-.133-3.74-.352"/><path d="m31.999 13c-10.492 0-19 8.508-19 19 0 10.493 8.508 19 19 19 10.494 0 18.999-8.507 18.999-19 0-10.492-8.505-19-18.999-19m0 36c-9.374 0-17-7.626-17-17s7.626-17 17-17c9.374 0 16.999 7.626 16.999 17s-7.625 17-16.999 17"/><path d="m39.971 37.243c-5.137 3.583-10.834 3.562-15.939 0-.615-.428-1.168.314-.752 1 1.556 2.563 4.697 4.845 8.722 4.845 4.023 0 7.164-2.282 8.721-4.845.416-.685-.137-1.428-.752-1"/><path d="m29.004 31.336c.305.318.912-.268.795-.594-1.178-3.238-2.951-4.857-4.725-4.857-1.773 0-3.548 1.619-4.724 4.857-.117.326.49.912.795.594 1.141-1.205 2.506-1.684 3.929-1.684 1.424 0 2.791.479 3.93 1.684"/><path d="m38.924 25.885c-1.771 0-3.547 1.619-4.725 4.857-.117.326.492.912.795.594 1.141-1.205 2.506-1.684 3.93-1.684 1.426 0 2.791.479 3.932 1.684.305.318.91-.268.795-.594-1.178-3.238-2.952-4.857-4.727-4.857"/></svg>