<svg xmlns="http://www.w3.org/2000/svg" viewBox="0 0 64 64" enable-background="new 0 0 64 64"><path d="m55.032 17.114c-5.426-9.323-15.71-15.114-26.839-15.114-1.045 0-2.101.052-3.14.154l-6.627.651 5.981 2.898c4.604 2.231 8.375 5.708 10.904 10.054 1.351 2.32 2.303 4.805 2.831 7.387.405 1.965.224 3.768-.461 4.596-.229.279-.661.65-1.742.65-.549 0-1.191-.099-1.911-.293-.402-.107-.817-.163-1.232-.163-2.562-.001-4.849 2.065-5.206 4.701-.237 1.757.438 3.859 2.784 5.233-.367.544-.622 1.213-.545 2.024.042.433.176.821.365 1.17-.706.513-1.302 1.198-1.493 2.101-.181.848-.066 2.098 1.424 3.354-.158.266-.466.636-.792.903-1.271 1.045-2.659 1.981-4.126 2.787-3.984 2.184-8.489 3.338-13.029 3.338-.186 0-.369-.002-.554-.006l-6.624-.134 5.551 3.58c5.087 3.282 11.024 5.015 17.167 5.015 5.354 0 10.667-1.362 15.367-3.939 7.342-4.025 12.603-10.573 14.813-18.435 2.151-7.649 1.132-15.645-2.866-22.512m-12.866 39.307c-4.581 2.512-9.553 3.704-14.448 3.704-5.736 0-11.366-1.638-16.131-4.71.197.004.394.006.592.006 4.727 0 9.528-1.15 13.95-3.574 1.595-.875 3.068-1.876 4.416-2.982.819-.672 2.444-2.526 1.014-3.611-3.168-2.404 2.034-3.661 2.034-3.661-4.879-2.595 1.507-4.075-.399-4.589-6.139-1.656-3.616-7.195-.396-7.194.242 0 .487.031.734.098.913.246 1.712.358 2.409.358 4.327 0 4.718-4.31 4.063-7.493-.559-2.723-1.565-5.404-3.047-7.95-2.811-4.83-6.939-8.489-11.716-10.803.986-.097 1.97-.145 2.952-.145 10.118 0 19.906 5.087 25.195 14.175 7.853 13.488 2.827 30.668-11.222 38.371"/><path d="m40.499 43.082c1.187.033 2.388-.007 3.57-.254.59-.118 1.176-.298 1.727-.558.541-.262 1.077-.635 1.373-1.147-.462.378-.983.583-1.535.718-.545.145-1.107.215-1.673.267-1.133.089-2.279.089-3.427.038-2.301-.084-4.592-.322-6.941-.554 1.079.491 2.223.817 3.38 1.057 1.157.245 2.339.381 3.526.433"/><path d="m34.366 44.877c-.588.124-1.207.374-1.597.848.589-.13 1.123-.13 1.669-.12.545.022 1.09.059 1.641.114 1.105.085 2.215.228 3.418.166-1.011-.653-2.155-.977-3.334-1.099-.592-.045-1.198-.042-1.797.091"/><path d="m35.538 35.755c-.591-.134-1.13-.15-1.776.059.447.508 1.023.705 1.533.848l.702.164c.216.064.438.152.746.332.062-.324-.082-.691-.337-.938-.259-.261-.581-.378-.868-.465"/><path d="m42.917 30.737c1.611.436 3.698-.367 4.146-1.931.448-1.564-.913-3.299-2.523-3.732-1.612-.437-1.995.827-2.443 2.392-.448 1.564-.79 2.838.82 3.271"/><path d="m47.646 40.199c-.886-.753-1.891-1.29-2.881-1.806l-2.975-1.446c-.954-.511-1.934-1.003-2.589-1.914.308 1.116 1.301 1.907 2.21 2.539.938.643 1.942 1.146 2.922 1.654.987.495 1.968.979 2.862 1.554.868.58 1.729 1.294 1.811 2.444.17-.54.059-1.169-.224-1.691-.287-.522-.696-.96-1.136-1.334"/></svg>