<svg xmlns="http://www.w3.org/2000/svg" viewBox="0 0 64 64" enable-background="new 0 0 64 64"><path d="M32.001,2c0.001,0,0.002,0,0.003,0c-0.002,0-0.003,0-0.005,0C15.431,2,2,15.432,2,32c0,16.568,13.431,30,29.999,30
	c0.002,0,0.003,0,0.005,0c-0.001,0-0.002,0-0.003,0C48.568,62,62,48.568,62,32C62,15.432,48.568,2,32.001,2z M31.999,60
	C16.537,60,4,47.463,4,32C4,16.536,16.537,4,31.999,4c2.569,0,5.056,0.353,7.42,1.001C45.091,9.863,49,20.125,49,32
	c0,11.875-3.909,22.136-9.581,26.998C37.055,59.646,34.568,60,31.999,60z"/></svg>