<svg xmlns="http://www.w3.org/2000/svg" viewBox="0 0 64 64" enable-background="new 0 0 64 64"><path d="m19.853 43.76l1.62-2.469-2.494 1.602-.649-4.357-.649 4.359-2.495-1.604 1.618 2.467-4.4.643 4.402.644-1.62 2.467 2.493-1.602.651 4.357.649-4.357 2.494 1.602-1.62-2.469 4.405-.642z"/><path d="m51.905 43.76l1.62-2.469-2.495 1.602-.647-4.357-.652 4.357-2.494-1.602 1.618 2.467-4.399.643 4.401.644-1.62 2.467 2.494-1.602.652 4.357.647-4.357 2.495 1.602-1.623-2.469 4.408-.642z"/><path d="m35.882 43.76l1.618-2.469-2.495 1.602-.649-4.357-.648 4.357-2.494-1.602 1.618 2.467-4.401.643 4.401.644-1.618 2.467 2.492-1.602.65 4.357.651-4.357 2.493 1.602-1.623-2.469 4.406-.642z"/><path d="m11.951 55.491l1.618-2.47-2.494 1.602-.646-4.356-.653 4.358-2.492-1.604 1.618 2.468-4.402.644 4.404.645-1.62 2.467 2.492-1.603.653 4.358.648-4.358 2.492 1.603-1.62-2.469 4.406-.643z"/><path d="m44.003 55.491l1.618-2.47-2.492 1.602-.65-4.356-.649 4.356-2.494-1.602 1.618 2.468-4.401.644 4.403.645-1.62 2.467 2.492-1.603.651 4.358.65-4.358 2.492 1.603-1.62-2.469 4.404-.643z"/><path d="m27.979 55.491l1.617-2.47-2.494 1.602-.649-4.356-.648 4.356-2.494-1.602 1.618 2.468-4.403.644 4.405.645-1.62 2.467 2.494-1.603.648 4.358.652-4.358 2.491 1.603-1.62-2.469 4.403-.643z"/><path d="m40.511 5.207c5.281 0 9.561 4.215 9.561 9.412 0 .255-.017.5-.037.746-2.211.167-4.218 1.034-5.796 2.381 1.174-.662 2.531-1.048 3.983-1.048.536 0 1.063.053 1.569.151.868.171 1.683.479 2.423.9 2.402 1.363 4.024 3.909 4.024 6.834 0 3.746-2.656 6.88-6.216 7.686-.579.132-1.182.207-1.801.207h-27.865c-.715 0-1.4-.117-2.045-.328-2.598-.844-4.474-3.249-4.474-6.088 0-1.931.868-3.657 2.237-4.834.618-.532 1.342-.947 2.135-1.223.673-.229 1.393-.362 2.146-.362 2.102 0 3.965.983 5.157 2.504h.058c-1.383-2.508-3.971-4.275-6.997-4.56 1.126-3.867 4.74-6.704 9.031-6.704.457 0 .903.045 1.344.106.871.124 1.704.358 2.48.699 2.89 1.269 5.002 3.931 5.474 7.12 0-.019.002-.039.002-.056 0-3.631-1.895-6.826-4.759-8.69 1.634-2.889 4.767-4.853 8.366-4.853m0-3.207c-4.397 0-8.477 2.225-10.821 5.854-.09-.015-.181-.027-.272-.041-.671-.095-1.246-.138-1.812-.138-5.614 0-10.619 3.711-12.168 9.027l-.368 1.267c-.4.25-.783.536-1.145.845-2.127 1.827-3.349 4.47-3.349 7.247 0 4.159 2.696 7.831 6.714 9.135.986.324 2.021.489 3.066.489h27.865c.839 0 1.695-.097 2.539-.29 5.141-1.164 8.739-5.608 8.739-10.811 0-3.951-2.169-7.636-5.656-9.613-.169-.095-.339-.187-.512-.271.002-.026.002-.051.002-.08.001-6.958-5.75-12.62-12.822-12.62z"/></svg>