<svg xmlns="http://www.w3.org/2000/svg" viewBox="0 0 64 64" enable-background="new 0 0 64 64"><path d="m7 30.623l13.858 10.002-7.148 21.375 18.706-13.206 17.656 12.467 6.928-59.261-50 28.623m48.591-26.528l-.018.135-13.4 24.108h-3.3l-1.162-3.48 17.777-20.703.103-.06m-12.912 46.606l-10.263-7.246-10.263 7.246 3.921-11.726-10.264-7.244h12.685l3.922-11.725 3.921 11.725h12.685l-10.263 7.245 3.919 11.725m-6.255-29.691l-1.557-4.655 20.288-12.002-18.731 16.657m10.18 7.329l8.922-23.744-3.099 23.744h-5.823"/></svg>