<svg xmlns="http://www.w3.org/2000/svg" viewBox="0 0 64 64" enable-background="new 0 0 64 64"><path d="m39.117 38.902l.966 1.045.967-1.043-.965-1.047z"/><path d="m40.384 25.193l.965 1.046.965-1.046-.963-1.045z"/><path d="m55.476 25.193l.965 1.046.965-1.046-.965-1.045z"/><path d="m54.623 13.405l-.966 1.045.966 1.046.966-1.046z"/><path d="m47.011 32.654l.964 1.043.966-1.043-.966-1.047z"/><path d="m49.243 20.36l.964 1.044.967-1.044-.967-1.046z"/><path d="m41.821 16.721l.964 1.044.967-1.044-.967-1.044z"/><path d="m32.713 32.11l.967 1.042.965-1.042-.965-1.045z"/><path d="m30.491 45.367l.964 1.044.968-1.044-.968-1.047z"/><path d="m58.846 7.306c-1.406-1.6-3.324-2.378-5.861-2.378-1.856 0-3.627.275-5.318.762 0-.001-.001-.002-.002-.003-.308-.368-.656-.658-1.02-.906-.091-.152-.19-.3-.311-.439-.676-.778-1.728-1.242-2.813-1.242-.742 0-1.429.234-2.002.642-.184-.045-.375-.078-.587-.078-.008 0-.015.002-.022.002-.386-.39-.913-.729-1.65-.729-.688 0-1.358.307-2.049.938-.838.766-1.246 1.793-1.204 2.907l-.991-.214-.139-1.915-5.77-1.023-.488 1.555-.743-.161c-.11-1.031-.838-2.378-3.678-2.946-.264-.051-.534-.078-.802-.078-1.587 0-2.889.907-4.037 1.707-.656.457-1.275.888-1.856 1.101-1.137.416-1.754 1.397-1.573 2.498.011.06.03.121.045.181-2.206.972-4.214 2.351-5.89 4.234-.304.143-.612.308-.936.523-1.846 1.228-2.032 2.978-2.057 4.099-.235.515-.452 1.054-.653 1.611-1.784.947-2.678 2.77-2.272 4.697.09.421.245.812.44 1.173.103.274.236.529.394.767-.045.823-.073 1.612-.094 2.385-.671.668-1.31 1.424-1.861 2.132-.912 1-1.224 1.971-.949 2.907.237.813.837 1.329 1.532 1.681-.136.158-.261.334-.372.534-.507.921-.255 1.62-.062 1.956.246.422.768.924 1.86.924.06 0 .13-.012.192-.016.282 2.826.633 4.684.723 5.373l-.664.557.346.998 1.306-.092-.652.886.622 1.771-1.305.73.079 1.815 1.137.478c.092.408-.006 1.299.088 1.68l1.663.062-.618 2.032-.728-.098-.128 2.031 1.119.31 1.038 1.558.403 1.617 1.853.246c.545.473 1.567 2.137 2.143 2.381l.007.006.002-.002c.796.339 1.618.494 2.454.566.167-.021.458-.081.827-.226.268.068.56.108.883.108 8.354 0 43.096-25.684 43.54-30.09 1.326-13.222.519-21.003-2.539-24.485m-20.662-2.346c.443-.405.791-.56 1.076-.56.918 0 1.186 1.594 1.839 1.594.214 0 .471-.172.806-.63.412-.566 1.016-.802 1.617-.802 1.109 0 2.209.805 2.077 1.824 0 0-4.16 3.02-6.017 3.02-.209 0-.388-.038-.529-.123-1.533-.913-2.284-3.029-.869-4.323m-10.591 1.69c.35.165.678.297.988.395l-.688 2.097 7.008.728-.125-1.641c.535.097 1.103.121 1.596.127.396.885 1.076 1.67 1.944 2.188.36.215.786.326 1.266.326.179 0 .37-.023.567-.055-1.137.921-2.261 1.906-3.301 2.878.189-1.457-.43-2.266-.887-2.641-.353-.29-.778-.442-1.231-.442-1.234 0-2.182 1.081-3.187 2.224-.078.089-.167.191-.26.294l-1.568-2.149-7.22 4.179 2.358 1.803c-.28.412-.43.873-.398 1.399.107 1.8 2.207 2.579 4.246 3.104.227.058.465.088.709.088.516 0 1.054-.14 1.596-.382-.651 1.241-1.304 2.608-1.941 4.002l-.711-.277-1.442-.562-2.7-2.945-.482-.525-.705.063-.471.042c.717-1.718.46-3.608-.083-4.64-.267-.505-.556-1.008-.868-1.474l1.729-.807-.254-3.313-.042-.024c1.751-.833 3.805-2.363 4.557-4.06m6.339 10.002c-.084.094-.174.192-.253.284-.196.228-.396.487-.599.768-1.195 1.339-2.607 2.384-3.669 2.384-.122 0-.24-.014-.352-.042-7.861-2.023 1.283-4.295 2.439-5.091.824-.568 2.304-2.881 3.231-2.881.115 0 .222.035.317.114.904.74.173 2.687-1.114 4.464m-14.38 23.096c-.672 0-1.548-.6-2.728-2.168-.977-1.295 3.521-7.277 6.426-7.277.567 0 1.074.229 1.468.763 1.15 1.563-1.805 2.215-2.11 2.618-.89 1.17-1.136 6.064-3.056 6.064m2.933 5.406c-.004.027-.01.057-.014.084-.102.711-.207 1.378-.313 2.021l-.894-1.067 1.043-1.248.178.21m-2.484.614l-1.042 1.244-1.044-1.244 1.044-1.249 1.042 1.249m-1.483-21.838c.292 0 .569-.038.823-.111.525-.153.982-.396 1.407-.676l1.117 2.75-7.185-1.744-.928 2.188c-.97-.494-2.043-.878-3.181-1.106 1.234-.996 2.076-2.549 2.62-3.977 1.042 1.15 3.475 2.676 5.327 2.676m-1.542-6.255c.374-.45.681-3.38 1.83-3.38.561 0 1.32.697 2.387 2.718.68 1.293.61 4.565-2.252 5.399-.127.037-.27.054-.422.054-1.368 0-3.618-1.384-4.369-2.314-2.002-2.477 2.484-2.068 2.826-2.477m4.976 8.431l.771 1.899.301.738.776.147.192.036c-.239-.055-.486-.086-.742-.086-1.223 0-2.466.624-3.593 1.508l2.295-4.242m1.247 10.22c.137-.512.331-1.244.483-1.602.059-.028.124-.059.193-.091.413-.194.928-.439 1.387-.784-.627 1.399-1.146 2.473-1.508 2.965-.224.305-.541.568-.918.803.138-.441.255-.881.363-1.291m.825-7.394l2.74.513.381.071c-.262.607-.52 1.207-.764 1.776-.068-.338-.217-.71-.503-1.1-.479-.651-1.12-1.083-1.854-1.26m3.004-.926l-2.965-.555-2.02-4.972 1.105-.097 2.929 3.194 1.755.684-.804 1.746m-9.032-21.822c1.867-.684 3.49-2.72 5.4-2.72.172 0 .346.016.521.051 5.925 1.184-.102 5.585-2.496 6.287l-1.257-.705-.426.388c-1.502-.833-3.415-2.69-1.742-3.301m-1.286 2.675c.509.631 1.201 1.205 1.907 1.648l-1.928 1.757.136 1.787c-.441.702-.691 1.57-.877 2.219-.016.053-.032.111-.049.169-.024.003-.047.006-.07.009-.486.064-1.073.147-1.636.32.022-.98-.111-2.237-.81-3.083-.473-.573-1.142-.888-1.885-.888-.08 0-.162.015-.242.022 1.423-1.285 3.397-2.686 5.454-3.96m-9.437 11.597c3.095-1.46.319-4.06 2.864-5.685.563-.36 1.009-.51 1.361-.51 1.43 0 1.307 2.481 1.166 3.458-.128.163-.243.341-.326.552-.159.404-.181.825-.094 1.257-.567 1.93-1.639 4.313-3.323 5.049-.322.141-.636.204-.933.204-2.079 0-3.302-3.104-.715-4.325m1.181 25.323l.663-1.543 1.328.838-.663 1.543-1.328-.838m.769-4.216l.997-2.322c.106.021.232.023.349.033l1.838 1.159-1.06 2.472-2.124-1.342m.139 7.054l.664-1.544 1.327.839-.664 1.541-1.327-.836m2.92 8.299l-.726-.457-.408.948-1.328-.835.664-1.545.726.459.407-.95 1.328.837-.663 1.543m1.08-9.535l-1.328-.836.664-1.545 1.328.839-.664 1.542m-3.224-9.561c1.749-.387 3.951-1.33 5.344-1.988-.369 1.084-.311 1.971.189 2.635.106.141.208.265.312.395-2.072-.073-4.174-.432-5.845-1.042m5.926-3.906c-.408.256-5.242 2.621-7.269 2.621-.853 0-1.209-.42-.527-1.594.017-.01.021-.015.011-.015-.116 0-2.152.722-3.225.722-.531 0-.825-.177-.534-.705.473-.856 1.622-1.079 2.401-1.664-.102-.453-5.319-.524-2.772-3.223.001-.002 2.77-3.601 4.135-3.601 5.795.001 11.11 5.397 7.78 7.459m1.241 15.539l1.042 1.249-1.042 1.245-1.044-1.245 1.044-1.249m.641 9.201l-1.044-1.249 1.044-1.245 1.042 1.245-1.042 1.249m.696-5.038l1.043-1.249 1.043 1.249-1.043 1.247-1.043-1.247m40.859-22.055c-.757 2.91-28.525 24.415-39.24 27.896 1.468-2.148 2.996-6.257 4.091-13.935 2.287-16.046 12.684-38.643 28.632-38.643 2.023 0 3.396.535 4.45 1.734 2.637 3.002 3.311 10.518 2.067 22.948"/></svg>