<svg xmlns="http://www.w3.org/2000/svg" viewBox="0 0 64 64" enable-background="new 0 0 64 64"><path d="m25.74 13.123l-3.739-9.123-3.741 9.123c1.215-.213 2.461-.343 3.739-.343 1.28 0 2.526.13 3.741.343"/><path d="m10.78 23.999c0-1.278.13-2.524.343-3.739l-9.123 3.741 9.123 3.739c-.213-1.215-.343-2.461-.343-3.741"/><path d="m32.336 18.953l3.807-9.095-9.097 3.806c1.01.708 1.983 1.497 2.888 2.401.905.905 1.694 1.879 2.402 2.888"/><path d="m14.066 16.065c.904-.904 1.878-1.693 2.888-2.401l-9.097-3.806 3.807 9.095c.708-1.009 1.497-1.983 2.402-2.888"/><path d="m55.527 35.622c-.193-.112-.388-.22-.585-.321.001-.031.001-.062.001-.093 0-8.189-6.584-14.854-14.677-14.854-1.728 0-3.409.314-4.984.893l-2.405-.986c.114.65.184 1.314.236 1.983-.632.357-1.233.765-1.808 1.213-.283-4.9-4.335-8.789-9.306-8.789-5.154 0-9.333 4.178-9.333 9.333 0 2.737 1.194 5.18 3.072 6.885-.465.43-.903.889-1.312 1.377-.119-.112-.246-.212-.362-.328-.904-.905-1.693-1.878-2.401-2.888l-3.806 9.096 4.124-1.726c-.155.405-.296.818-.416 1.241l-.423 1.49c-.458.298-.896.632-1.31.998-2.434 2.15-3.832 5.258-3.832 8.528 0 4.896 3.088 9.215 7.684 10.751 1.13.382 2.314.575 3.51.575h31.897c.962 0 1.939-.114 2.906-.342 5.886-1.367 10.003-6.6 10.003-12.722 0-4.65-2.48-8.985-6.473-11.314m-4.375 20.358c-.662.155-1.35.245-2.06.245h-.001-31.896-.001c-.817 0-1.603-.138-2.339-.386-2.974-.994-5.122-3.826-5.122-7.166 0-2.273.994-4.305 2.561-5.688.71-.63 1.536-1.119 2.444-1.44.77-.271 1.594-.428 2.457-.428 2.405 0 4.539 1.157 5.904 2.947l.066-.001c-1.584-2.951-4.545-5.032-8.012-5.366 1.29-4.551 5.428-7.89 10.339-7.89.524 0 1.034.051 1.538.125.997.145 1.949.422 2.838.822 3.311 1.496 5.729 4.628 6.266 8.38 0-.021.002-.045.002-.064 0-4.274-2.166-8.034-5.445-10.228 1.867-3.404 5.453-5.714 9.575-5.714 6.044 0 10.942 4.961 10.942 11.078 0 .298-.02.587-.043.878-2.529.195-4.828 1.216-6.635 2.802 1.345-.781 2.898-1.235 4.561-1.235.615 0 1.215.063 1.796.181.993.199 1.925.564 2.774 1.06 2.749 1.604 4.604 4.601 4.604 8.043.002 4.409-3.038 8.098-7.113 9.045"/></svg>