<svg xmlns="http://www.w3.org/2000/svg" viewBox="0 0 64 64" enable-background="new 0 0 64 64"><path d="m35.617 13.306l.986.943.985-.943-.985-.943z"/><path d="m50.049 25.624l.985.943.986-.943-.986-.942z"/><path d="m33.903 16.435l.986.943.985-.943-.985-.942z"/><path d="m45.16 8.843l.986.943.986-.943-.986-.943z"/><path d="m47.44 11.198l.493.473.493-.473-.493-.47z"/><path d="m48.918 26.567l-.492.47.492.472.493-.472z"/><path d="m47.44 7.43l.493.47.493-.47-.493-.472z"/><path d="m52.02 29.865l1.477-1.413-1.477-1.415-1.479 1.415z"/><path d="m32.002 13.126l-1.969 1.885 1.969 1.885 1.972-1.885z"/><path d="m38.963 49.165l-2.263-2.006-3.4.031 2.304 1.996z"/><path d="m40.709 45.417l1.457-2.643-1.03-2.627-1.286 2.644z"/><path d="m40.858 34.633l2.358 1.827.092-2.901-2.579-1.811z"/><path d="m37.878 37.013l.582 2.654 1.864-2.689-.751-2.663z"/><path d="m27.567 31.585c.012.014.023.026.036.04.562.618.989 1.215 1.333 1.79l.009-.054 2.833-1.339-3.578-.742-.633.305"/><path d="m22.111 57.978c2.193.357 4.214.496 6.068.441l1.18-1.692h-1.971l.653-1.749c-1.812 1.125-4.001 2.291-5.93 3"/><path d="m7.51 50.216c.537-.041 1.115-.141 1.702-.274.403.616.861 1.199 1.343 1.767.401-1.203.9-2.37 1.312-3.271.271-.595.868-1.06 1.61-1.421l-.517-2.836-2.194-.871-1.964 1.913-.656 2.176c-.468-.102-.833-.263-1.008-.514-1.055-1.507-1.346-7.991-4.273-5.938.315-.398.804-.674 1.392-.861-.048-.756-.057-1.511-.03-2.263.583.417 1.229.784 1.89 1.062-.006.296.016.591.022.887 1.68-.098 3.591.141 4.946.361 2.066.333 3.854 4.701 4.406 6.189 1.906-.471 3.818-.557 3.818-.557s-.052.547-.156 1.356c.682.392 1.412 1.122 2.394 2.269 1.373 1.6 1.89 3.052 1.896 4.157.102-.042.199-.083.302-.124l4.369-.114 1.347-5.693 1.847 1.431.092-2.901-1.904-1.336c-.09.03-.177.061-.273.087-.128.035-.248.077-.373.115l.061 1.337-1.379-1.477-3.191 1.092-1.77 2.035c-.78.288-1.245.122-1.412-.966-.316-2.046-.027-3.111 1.419-4.232-2.164.388-4.005.322-4.625-.674-.159-.256-.156-.514-.034-.773l-.939.939-3.712-1.393.022-6.057 1.81-3.313 3.178.198 3.13 6.135-2.61 2.61c1.449-.957 4.353-1.865 7.546-2.563-.283-.291-.563-.634-.824-1.084-1.329-2.291-2.975-3.818-4.014-4.933l6.104-1.052.39-3.855 3.392.747 2.893-1.367-3.577-.742-2.701 1.306.368-3.635-2.265-1.835c1.364.241 2.948.612 4.654 1.057.314.082 2.919.309 4.076.407-4.318-2.067-8.607-2.015-11.423-1.857-1.499.085-2.889.322-4.193.664 1.597.812 2.976 1.872 2.976 1.872s-4.923 5.303-6.477 4.731c-1.5-.551-4.754-5.002-6.07-2.471-.031.115-.056.23-.066.345-.039.445.104.976.366 1.535-1.654 2.129-2.781 4.613-3.365 7.233-3.904-2.836-5.354-1.014-4.207 1.013-.266 2.316-.184 4.719.275 7.107-.028 2.211.799 5.131 2.211 6.535.036.035.078.065.118.098 1.265 2.371 2.927 4.455 4.897 6.189-.101-.715-.016-1.568.184-2.471-.964-.999-1.828-2.075-2.556-3.231"/><path d="m39.961 50.157l-3.05 1.893-1.641 2.791 2.956-.943z"/><path d="m45.581 37.887l-.525-2.063-1.856 2.726.516 2.686 1.938-2.598c-.021-.252-.043-.502-.073-.751"/><path d="m33.036 38.446l-1.032-2.628-1.286 2.644.861 2.624z"/><path d="m37.149 45.415l.092-2.901-2.58-1.81.131 2.885z"/><path d="m44.153 48.358c.749-1.746 1.217-3.602 1.434-5.469l-2.435 3.47 1.001 1.999"/><path d="m43.067 30.455c-.236-.367-.477-.715-.721-1.055l-.182 1.592 2.657 3.311c-.439-1.411-1.026-2.718-1.754-3.848"/><path d="m42.206 51.31l.889-3.58-2.348 2.435-1.128 3.794 2.578-2.63z"/><path d="m61.343 9.182c-.892-2.914-2.573-4.261-3.96-4.883-1.722-1.485-4.616-2.299-8.217-2.299-5.404 0-20.203 2.105-40.844 21.601-2.292 2.166-3.967 4.929-4.977 7.995.882-1.024 1.974-1.986 2.798-2.667.191-.158.428-.263.689-.335.787-1.333 1.733-2.573 2.88-3.656 2.653-2.506 5.224-4.733 7.705-6.714 9.13-1.018 11.833 3.649 24.6 3.548 16.313-.141 14.253-15.882 14.253-15.882-.275 15.326-16.459 14.925-25.441 12.581-8.204-2.14-13.324-.282-13.408-.251 13.833-11.044 24.876-14.338 31.745-14.338 3.535 0 5.967.873 7.104 2.008 8.905 3.292.483 31.294-9.49 44.246-2.577 3.346-6.932 9.982-18.191 9.982-2.559 0-5.475-.342-8.807-1.145-.977-.235-1.891-.55-2.777-.898.184-.045.356-.104.528-.16-.458-.885.714-1.901 2.859-2.996-.272-.275-.538-.617-.782-1.066-.419-.771-.88-1.447-1.339-2.045-.362 1.299-.821 2.355-1.389 2.566-1.558.574-6.794-.736-6.765 1.863.044.131.086.265.156.375.377.602 1.258 1.07 2.335 1.357 2.019 1.28 4.265 2.244 6.689 2.828 3.314.799 6.44 1.203 9.291 1.203 11.63 0 16.642-6.61 19.335-10.163.155-.205.305-.401.449-.588 8.326-10.812 15.947-32.347 12.971-42.067"/><path d="m36.737 25.366l2.09.16c-1.068-.912-2.164-1.645-3.262-2.233l.377.713c2.654.902 2.228 1.221.795 1.36"/><path d="m33.372 51.86l-3.05 1.893-1.641 2.791 2.955-.941z"/><path d="m36.655 27.688l3.445 1.052-1.594-2.631-2.451-.694c-.288.016-.596.029-.915.04l1.515 2.233"/><path d="m35.145 33.72l1.458-2.642-1.033-2.626-1.286 2.642z"/><path d="m35.568 34.377l-3.4.03 2.307 1.997 3.357-.02z"/></svg>