<svg xmlns="http://www.w3.org/2000/svg" viewBox="0 0 64 64" enable-background="new 0 0 64 64"><path d="m23 10.236l3.085 35.988c-1.887 1.65-3.085 4.069-3.085 6.772 0 4.972 4.03 9.004 9 9.004s9-4.032 9-9.004c0-2.703-1.198-5.121-3.083-6.771l3.083-35.989c0-10.982-18-10.982-18 0m15.751 42.76c0 3.729-3.022 6.753-6.751 6.753-3.727 0-6.749-3.024-6.749-6.753 0-2.445 1.305-4.581 3.252-5.766l-.111-2.181h-1.157l-.059-1.487h1.14l-.139-2.733h-1.285l-.063-1.485h1.271l-.14-2.733h-1.537l-.07-1.487h1.531l-.14-2.732h-1.514l-.072-1.485h1.51l-.14-2.735h-1.53l-.075-1.485h1.53l-.854-16.677c0-6.366 10.8-6.366 10.8 0l-1.901 37.22c1.947 1.185 3.253 3.321 3.253 5.766"/><path d="m34.302 47.865l1.299-26.49c0-.667-1.611-1.207-3.601-1.207-1.987 0-3.601.54-3.601 1.207l.262 5.31h2.141l.075 1.485h-2.144l.135 2.735h1.969l.072 1.485h-1.969l.135 2.732h1.77l.07 1.487h-1.768l.134 2.733h1.601l.063 1.485h-1.59l.134 2.733h1.433l.059 1.487h-1.418l.138 2.815c-1.958.881-3.323 2.845-3.323 5.131 0 3.107 2.518 5.627 5.624 5.627s5.625-2.52 5.625-5.627c-.002-2.283-1.367-4.247-3.325-5.128"/></svg>