<svg xmlns="http://www.w3.org/2000/svg" viewBox="0 0 64 64" enable-background="new 0 0 64 64"><path d="m49.682 14.323c-.156-.091-.316-.177-.479-.259 0-.025 0-.05 0-.075 0-6.61-5.408-11.989-12.057-11.989-4.135 0-7.969 2.113-10.176 5.561-.084-.013-.17-.025-.256-.039-.631-.089-1.172-.13-1.703-.13-5.279 0-9.984 3.525-11.439 8.575l-.348 1.202c-.377.24-.736.51-1.076.806-2 1.735-3.148 4.245-3.148 6.882 0 3.951 2.537 7.438 6.313 8.679.927.308 1.9.464 2.882.464h5.701l-4.301 14.053h12.547l-4.257 13.947 16.518-20.242h-11.878l2.301-7.758h9.57c.791 0 1.594-.092 2.387-.275 4.834-1.105 8.217-5.328 8.217-10.27 0-3.753-2.037-7.252-5.318-9.132m-3.592 16.432c-.545.127-1.109.198-1.693.198h-26.202c-.672 0-1.316-.11-1.922-.312-2.441-.802-4.207-3.088-4.207-5.784 0-1.834.816-3.474 2.104-4.59.582-.508 1.262-.903 2.008-1.162.633-.219 1.309-.347 2.018-.347 1.977 0 3.729.936 4.85 2.38l.055-.001c-1.301-2.383-3.732-4.063-6.58-4.331 1.059-3.673 4.457-6.369 8.492-6.369.432 0 .85.042 1.264.102.818.117 1.602.341 2.332.664 2.719 1.207 4.705 3.735 5.146 6.764 0-.018.002-.036.002-.053 0-3.449-1.779-6.484-4.475-8.255 1.535-2.748 4.48-4.611 7.865-4.611 4.965 0 8.99 4.004 8.99 8.941 0 .24-.018.474-.037.709-2.078.157-3.965.981-5.449 2.262 1.105-.631 2.381-.997 3.746-.997.506 0 .998.051 1.475.145.816.162 1.582.455 2.279.855 2.258 1.296 3.783 3.714 3.783 6.492 0 3.559-2.498 6.536-5.844 7.3"/></svg>