<svg xmlns="http://www.w3.org/2000/svg" viewBox="0 0 64 64" enable-background="new 0 0 64 64"><path d="m2 29.632c15.773-12.639 23.328.452 32.799.452 7.549 0 16.789-13.137 27.201-2.356-11.949-5.748-16.322 6.476-28.662 6.476-9.588-.001-13.19-11.333-31.338-4.572"/><path d="m62 39.706c-9.203-7.579-15.129-1.421-22.725 1.77-4.809 2.019-9.797 1.481-14.771-3.787 3.568 1.288 11.451 5.629 19.254-1.983-6.725 2.984-15.117.874-21.875-2.496-7.436-3.707-13.629-4.334-19.883 2.495 3.943-2.965 9.627-2.266 14-1.101-2.848.105-8.895.771-14 8.664 15.441-12.79 21.004 4.732 33.082 4.732 11.705 0 10.664-13.128 26.918-8.294"/><path d="M2,25.269c1.883-5.427,15.234-13.172,25.779,0.091C13.041,18.565,2,25.269,2,25.269z"/><path d="m42.135 19.833c6.189-6.839 16.084-3.106 19.865.281-3.059-.354-12.473-2.357-16.525 1.955-6.396 6.807-13.891 5.826-16.252 3.35 0 0 7.611.27 12.912-5.586"/><path d="m45.385 35.376c7.963-13.262 16.615-2.121 16.615-2.121-9.441-3.28-16.615 2.121-16.615 2.121"/></svg>