<svg xmlns="http://www.w3.org/2000/svg" viewBox="0 0 64 64" enable-background="new 0 0 64 64"><path d="m23.367 10.211l-3.365-8.211-3.368 8.211c1.095-.191 2.216-.309 3.366-.309 1.152 0 2.273.118 3.367.309"/><path d="m9.903 19.999c0-1.15.116-2.271.309-3.365l-8.212 3.367 8.211 3.365c-.192-1.094-.308-2.215-.308-3.367"/><path d="m12.861 12.859c.813-.814 1.689-1.524 2.598-2.162l-8.187-3.425 3.427 8.186c.636-.908 1.346-1.785 2.162-2.599"/><path d="m56.511 14.725c-.163-.094-.329-.182-.496-.267 0-.026 0-.052 0-.078 0-6.825-5.585-12.38-12.449-12.38-4.27 0-8.23 2.183-10.508 5.742-.088-.014-.177-.026-.266-.041-.651-.092-1.208-.134-1.758-.134-3.623 0-6.977 1.614-9.266 4.224-.57-.124-1.161-.19-1.769-.19-4.639 0-8.4 3.76-8.4 8.399 0 2.544 1.14 4.813 2.929 6.352.075.953.298 1.871.642 2.733-.804-.584-1.585-1.218-2.313-1.944-.813-.815-1.523-1.69-2.16-2.6l-3.426 8.187 8.019-3.355c.583 1.33 1.467 2.51 2.585 3.445l2.127 5.182 1.367-3.335c.852.246 1.733.379 2.627.379h27.055c.817 0 1.646-.095 2.466-.285 4.993-1.14 8.483-5.501 8.483-10.605 0-3.875-2.104-7.488-5.489-9.429m-3.711 16.967c-.563.132-1.146.205-1.747.205 0 0 0 0-.002 0h-27.055c-.694 0-1.359-.114-1.984-.322-2.521-.827-4.344-3.188-4.344-5.973 0-1.894.843-3.587 2.171-4.739.603-.524 1.303-.933 2.073-1.2.653-.226 1.353-.357 2.084-.357 2.041 0 3.851.966 5.01 2.457l.057-.001c-1.345-2.461-3.857-4.195-6.797-4.473 1.095-3.792 4.604-6.576 8.77-6.576.445 0 .879.043 1.305.104.846.121 1.653.353 2.407.686 2.808 1.247 4.858 3.857 5.314 6.984 0-.018.002-.037.002-.054 0-3.563-1.837-6.696-4.618-8.524 1.583-2.838 4.625-4.762 8.121-4.762 5.126 0 9.281 4.134 9.281 9.232 0 .248-.017.489-.035.732-2.146.162-4.096 1.014-5.629 2.336 1.141-.651 2.458-1.03 3.867-1.03.523 0 1.031.053 1.525.149.842.167 1.633.47 2.352.884 2.333 1.338 3.906 3.835 3.906 6.703 0 3.676-2.578 6.751-6.034 7.539"/><path d="m33.008 47.575c.674-1.85.719-4.382.262-7.316-2.201 1.924-3.832 3.922-4.504 5.771-.572 1.569-.086 3.189 1.086 3.616s2.586-.501 3.156-2.071"/><path d="m41.863 47.575c.672-1.85.719-4.382.262-7.316-2.203 1.924-3.832 3.922-4.506 5.771-.57 1.569-.086 3.189 1.086 3.616s2.586-.501 3.158-2.071"/><path d="m46.474 46.03c-.571 1.569-.086 3.189 1.086 3.616s2.586-.502 3.157-2.071c.673-1.85.719-4.382.262-7.316-2.203 1.924-3.833 3.922-4.505 5.771"/><path d="m24.154 47.575c.673-1.85.719-4.382.262-7.316-2.202 1.924-3.832 3.922-4.505 5.771-.571 1.569-.086 3.189 1.086 3.616s2.586-.501 3.157-2.071"/><path d="m21.815 58.28c-.571 1.569-.086 3.189 1.086 3.616s2.586-.502 3.157-2.071c.673-1.85.719-4.382.262-7.316-2.202 1.924-3.832 3.922-4.505 5.771"/><path d="m30.67 58.28c-.571 1.569-.086 3.189 1.086 3.616s2.586-.502 3.157-2.071c.673-1.85.719-4.382.262-7.316-2.202 1.924-3.832 3.922-4.505 5.771"/><path d="m39.523 58.28c-.57 1.569-.086 3.189 1.086 3.616s2.586-.502 3.158-2.071c.672-1.85.719-4.382.262-7.316-2.203 1.924-3.832 3.922-4.506 5.771"/><path d="m12.96 58.28c-.57 1.569-.086 3.189 1.086 3.616s2.586-.502 3.159-2.071c.672-1.85.719-4.382.262-7.316-2.204 1.924-3.833 3.922-4.507 5.771"/></svg>