<svg xmlns="http://www.w3.org/2000/svg" viewBox="0 0 64 64" enable-background="new 0 0 64 64"><path d="m9.534 3.038c-9.124 1.878-5.967 9.89-5.967 9.89-2.145 3.003-2.018 7.212-.048 10.305 1.682 2.64-.011 7.055 4.857 12.067.767.789-2.07 5.154 3.595 9.35 1.235.915 3.169 2.43 2.681 4.7-.608 2.827 4.987 5.43 5.974 8.551 2.066 6.54 10.126 4.564 13.818-1.084 0 0-1.308.393-1.75-.488 4.06-2.04 4.725-7.31-.575-7.813 4.751-4.116 2.557-9.545 9.641-10.751 5.744-.978 6.745-3.43 6.745-3.43 7.798.039 18.812-5.222 9.604-16.684 15.285 4.778-17.284-21.053-48.575-14.613m-3.653 13.135c1.279 1.339 2.739 2.489 4.245 3.561-1.158.302-2.283.731-3.261 1.441-.748-1.437-1.577-3.384-.984-5.002m3.083 13.322c2.19 2.464 4.852 2.989 4.852 2.989-1.918.93-4.449 1.363-4.852-2.989m6.091 16.613c0 0 1.405.033 1.434.396.204 2.69-1.434-.396-1.434-.396m2.25-.569c-4.422-1.317-2.398-2.175 3.677-.791 7.157 1.63 11.373-.268 9.452 1.114-.831.598-5.127 2.063-13.129-.323m6.191 4.157c1.259-1.878 11.961-3.218 4.272-.368-1.003.371-4.731 1.052-4.272.368m-3.035-1.752c1.549-1.581 4.841-.173 4.841-.173s-2.611.727-4.841.173m1.347 5.119c-.001.002 0 .003-.002.004-.001.001-.001 0-.002.002-.8 1.205-2.837-1.08-2.803-2.057.072-2.049 5.927-.363 5.927-.363s-2.387 1.308-3.12 2.414m2.582-.325c1.268-1.634 11.104-2.193 3.916-.072-.937.276-4.378.666-3.916.072m.156 5.059c1.649.025 3.303-.1 4.925-.413-1.005 1.171-2.856 2.764-4.925.413m3.912-2.206c-.869.152-3.992.153-3.516-.331 1.309-1.335 10.176-.84 3.516.331m-1.447-1.947c2.658-1.247 4.425-1.162 4.425-1.162s-2.004 1.601-4.425 1.162m6.583-12.418c-.6.769-4.422 2.836-10.861 1.141-12.442 1.511-11.649-4.856-10.099-3.973 2.537 1.447 5.272 2.54 8.083 3.336-1.528-.55-3.169-1.285-4.938-2.302-5.041-2.896-2.391-2.941 4.944-.06 8.645 3.396 14.601-.371 12.871 1.858m1.42-4.497c-.601.367-2.665.874-5.774.647 1.321.459 2.73.904 4.266 1.268-2.922.77-12.936.525-17.644-3.123 1.162-.578 2.296-.824 3.438-.857-2.684-1.232-5.602-2.966-8.679-5.385-6.078-4.781-2.34-4.021 6.963 1.443 10.964 6.439 20.63 4.041 17.43 6.007m2.354-2.649c-5.99.633-9.674-1.208-9.674-1.208s7.075.535 5.805-.696c-4.268-4.141-18.641 1.687-24.52-8.028 2.687-2.419 5.808-1.362 8.468.143-4.884 3.136.385 1.134 3.221 1.745.709.153 1.522.349 2.39.577-3.511-1.841-7.303-4.32-11.179-7.656-6.7-5.769-2.202-3.612 8.576 3.722 12.705 8.644 25.573 8.416 20.773 8.995-.898.108-3.628.032-7.508-.936 1.689 1.002 3.025 2.123 3.648 3.342m3.594-.713c.608.511 3.203.062 3.203.062-1.503.897-3.908 2.568-3.203-.062m-27.018-15.9c17.735 1.497 28.876 6.324 31.126 12.613-13.423-1.122-8.136-7.559-31.126-12.613m41.962 12.133c-.205-5.747-9.533-14.628-4.996-4.995 1.937 4.111-.368 7.386-2.402 4.186-9.821-15.451-30.343-9.518-39.229-14.847 8.854-4.324 43.668 7.99 34.829 3.954-25.718-11.742-37.427-5.339-37.426-8.164.002-5.285 17.496-8.284 40.919 2.014-28.771-5.656-31.715-2.624-26.893-2.137 35.205 3.558 41.196 14.086 35.198 19.989"/></svg>