<svg xmlns="http://www.w3.org/2000/svg" viewBox="0 0 64 64" enable-background="new 0 0 64 64"><path d="m23.762 29.779c0 0 3.363 3.303 7.482.244 0 0-3.898.682-7.482-.244"/><path d="m31.691 41.287c-.289-.727-.656-1.398-1.143-1.924.346 1.555.691 2.977.836 4.424.078.719.094 1.438.045 2.16-.051.723-.193 1.441-.393 2.219.502-.492.879-1.221 1.076-2.027.211-.807.236-1.676.162-2.506-.096-.826-.286-1.623-.583-2.346"/><path d="m32.979 24.406c-.617-.839-2.855-3.071-5.332-3.067-3.164 0-6.375 3.067-6.375 3.067 6.874-3.373 11.707 0 11.707 0"/><path d="m37.916 43.455c.817-1.09 1.292-2.09 1.166-3.197-.106-.93-.616-1.725-1.516-2.363-.031-.021-.061-.043-.089-.064 1.072-.516 2.429-1.461 2.517-3.258.083-1.773-.645-3.14-2.102-3.958-.714-.399-1.643-1.125-3.138-3.489-.123-.193.002-1.008.111-1.726.082-.537.173-1.14.239-1.814 1.355-3.595 2.871-10.245-2.32-14.243-.481-.371-1.174-.495-1.896-.492-.813-1.049-2.698-2.544-6.21-4.568-.774-.446-1.955-.446-2.994-.322-1.49-.69-3.036-1.011-4.578-.967-3.252-1.233-8.424-1.886-15.106 1.533v57.473h6.18c-1.507-4.201-2.29-8.621-2.616-12.92 1.041-2.479 2.261-5.238 3.599-7.992-.257 6.566.282 14.041 2.747 20.912h3.838c-.83-2.313-1.438-4.693-1.874-7.084 1.496-.418 2.952-.764 4.259-1.043 4.214 2.367 7.911 3.576 10.986 3.576 3.039 0 4.705-1.186 5.566-2.18.992-1.145 1.446-2.646 1.294-4.262.147-.074.331-.156.471-.219.604-.273 1.356-.611 1.959-1.24.799-.832 1.178-2.041 1.014-3.232-.107-.781-.476-1.812-1.507-2.861m-17.041-25.827c2.322-2.249 4.255-3.451 5.808-4.056-3.563 4.07-7.773 7.798-11.726 12.492.447-2.02.791-3.196.791-3.196l-.048-.006c1.901-1.974 3.703-3.808 5.175-5.234m-15.486 24.991c.067-3.488.371-6.762.761-9.6 1.331-1.44 2.886-3.113 4.519-4.854-.275 1.434-.561 3.104-.81 4.958-1.674 2.766-3.195 5.887-4.47 9.496m31.577 5.547c-.95.99-3.269.992-3.005 2.799.356 2.479-1.28 4.484-4.842 4.484-2.505 0-5.961-.99-10.346-3.506-2.434-1.395-4.318-3.232-5.777-5.16-.207-5.193.207-10.113.774-14.123 1.191-1.888 2.411-3.577 3.629-4.919 5.315-5.859 8.688-11.357 10.418-14.526 1.36-.323 2.336-.158 2.932.053.221.128.45.25.699.354.075.124.142.256.195.399 3.344 8.982.035 11.981 1.422 14.174 1.705 2.696 2.877 3.62 3.85 4.164.709.397 1.135.991 1.082 2.118-.078 1.607-2.846 1.863-2.932 2.326-.221 1.16.035 1.793 1.346 2.725 1.311.928.703 1.918-1.361 4.236 2.98 1.765 2.635 3.652 1.916 4.402"/><path d="m46.467 30.633c1.709 3.052-2.729 5.824-4.16 2.835-1.313-2.743 1.186-7.303 4.626-5.53 3.848 1.984 2.837 8.002.321 10.54-2.445 2.607-4.968 3.654-8.344 4.549 4.75.887 9.271-1.283 11.341-5.754 1.674-3.588 1.024-10.284-3.727-11.223-3.651-.748-6.114 3.1-5.554 6.322 1.143 6.667 8.984 2.097 5.497-1.739"/><path d="m57.188 30.345c1.185 1.756-1.314 4.282-2.78 2.248-1.636-2.216 1.14-5.849 3.527-3.627 4.272 4.542-2.665 10.383-7.63 11.643 3.858.244 8.511-1.926 9.99-5.699 1.021-2.612.502-6.829-2.497-7.954-3.323-1.297-6.06 2.771-4.455 5.61 2.034 3.602 6.233.282 3.845-2.221"/><path d="m38.91 44.152c4.363.441 8.752.873 12.429 3.564 2.83 2.07 3.841 6.988 1.295 9.703-2.521 2.703-6.09.035-5.815-3.164.326-3.807 5.795-2.709 4.668.881 2.637-4.805-6.853-6.691-5.598.783.787 4.686 7.439 5.566 9.287 1.18 4.664-11.078-8.579-15.019-16.266-12.947"/><path d="m47.835 42.934c3.872.174 13.61.27 12.455 5.865-.484 2.346-3.569 2.33-3.385-.271.108-2.051 2.849-1.607 2.389.523 2.022-3.986-5.571-3.465-3.274 1.32 1.533 3.195 5.688 1.27 5.953-1.932.621-7.443-9.642-6.66-14.138-5.505"/></svg>