<svg xmlns="http://www.w3.org/2000/svg" viewBox="0 0 64 64" enable-background="new 0 0 64 64"><path d="m23.624 45.374c-.592 1.635-.09 3.32 1.125 3.766 1.213.443 2.68-.522 3.272-2.158.696-1.925.744-4.56.271-7.616-2.282 2.002-3.97 4.082-4.668 6.008"/><path d="m37.195 46.981c.698-1.925.744-4.56.271-7.616-2.282 2.003-3.971 4.083-4.667 6.009-.594 1.635-.09 3.32 1.125 3.766 1.215.443 2.68-.523 3.271-2.159"/><path d="m46.642 39.365c-2.282 2.003-3.971 4.083-4.669 6.009-.591 1.635-.088 3.32 1.125 3.766 1.215.443 2.68-.522 3.272-2.158.697-1.925.746-4.56.272-7.617"/><path d="m14.449 45.374c-.591 1.635-.088 3.32 1.125 3.766 1.215.443 2.68-.522 3.272-2.158.697-1.925.744-4.56.271-7.616-2.281 2.002-3.969 4.082-4.668 6.008"/><path d="m16.423 58.127c-.591 1.635-.09 3.32 1.125 3.765s2.68-.521 3.272-2.156c.696-1.926.744-4.561.271-7.617-2.282 2.002-3.97 4.082-4.668 6.008"/><path d="m29.994 59.735c.699-1.926.744-4.561.271-7.617-2.28 2.003-3.97 4.083-4.667 6.009-.593 1.635-.089 3.32 1.125 3.765s2.681-.522 3.271-2.157"/><path d="m39.438 52.118c-2.28 2.003-3.97 4.083-4.665 6.009-.594 1.635-.09 3.32 1.124 3.765s2.68-.521 3.271-2.156c.698-1.926.745-4.561.27-7.618"/><path d="m7.248 58.127c-.592 1.635-.088 3.32 1.126 3.765s2.68-.521 3.271-2.156c.698-1.926.745-4.561.271-7.617-2.281 2.002-3.972 4.082-4.668 6.008"/><path d="m38.502 5.172c5.144 0 9.314 4.168 9.314 9.309 0 .25-.019.494-.037.737-2.153.165-4.11 1.023-5.649 2.355 1.146-.657 2.468-1.037 3.883-1.037.524 0 1.034.053 1.53.15.845.169 1.637.473 2.359.89 2.342 1.349 3.921 3.865 3.921 6.759 0 3.705-2.589 6.804-6.056 7.599-.565.131-1.149.207-1.753.207h-.002-27.149c-.696 0-1.364-.116-1.992-.325-2.529-.834-4.358-3.215-4.358-6.021 0-1.909.847-3.617 2.18-4.777.605-.529 1.308-.941 2.081-1.21.655-.228 1.355-.362 2.09-.362 2.049 0 3.864.974 5.027 2.478l.057-.002c-1.35-2.48-3.869-4.229-6.82-4.508 1.1-3.825 4.62-6.63 8.8-6.63.446 0 .882.042 1.309.105.85.122 1.66.354 2.416.692 2.818 1.257 4.877 3.887 5.333 7.042 0-.019.002-.04.002-.056 0-3.59-1.843-6.75-4.635-8.594 1.588-2.861 4.639-4.801 8.149-4.801m0-3.172c-4.284 0-8.259 2.2-10.546 5.789-.087-.014-.176-.026-.265-.041-.653-.094-1.212-.136-1.765-.136-5.47 0-10.345 3.67-11.854 8.928l-.36 1.25c-.389.25-.761.531-1.113.84-2.073 1.805-3.264 4.418-3.264 7.165 0 4.114 2.629 7.744 6.54 9.035.962.321 1.97.483 2.987.483h27.149c.82 0 1.651-.096 2.473-.287 5.013-1.15 8.516-5.547 8.516-10.691 0-3.908-2.111-7.55-5.509-9.507-.164-.094-.33-.183-.498-.269 0-.026 0-.052 0-.079 0-6.88-5.604-12.48-12.491-12.48z"/></svg>