<svg xmlns="http://www.w3.org/2000/svg" viewBox="0 0 64 64" enable-background="new 0 0 64 64"><path d="m59.572 12.809c-1.007-1.008-2.113-1.519-3.286-1.519-.182 0-.363.019-.545.042.052-2.148-.529-3.948-1.854-5.273-.844-.843-1.662-1.289-2.478-1.413l-.076-.076c-1.727-1.729-3.387-2.57-5.072-2.57-3.874 0-6.864 4.272-11.002 10.185-2.833 4.046-6.042 8.632-10.244 12.834s-8.786 7.411-12.831 10.244c-5.5 3.849-9.843 6.89-10.165 10.566-.146 1.677.549 3.329 2.104 5.034-.232 1.184.175 2.353 1.393 3.571 1.43 1.429 3.413 1.994 5.791 1.831-.007 1.183.483 2.299 1.499 3.314 1.606 1.606 3.859 2.42 6.697 2.42 7.519 0 18.288-5.91 27.435-15.058 13.11-13.111 18.659-28.104 12.634-34.132m-54.546 36.131c-.802-1.044-1.161-2.015-1.079-2.942.243-2.777 4.26-5.59 9.346-9.15 4.11-2.877 8.769-6.139 13.09-10.46 4.322-4.322 7.583-8.981 10.46-13.093 3.659-5.229 6.55-9.359 9.417-9.359.883 0 1.809.414 2.801 1.208-1.543.847-3.153 2.67-4.954 5.057-.804.065-1.728.313-2.289.894-1.052 1.083-.926 2.26-.751 3.32-.99 1.403-2.044 2.893-3.175 4.437-1.386.307-3.042.754-4.321 2.6-1.047 1.513-1.291 3.168-1.487 4.499-.013.088-.025.158-.038.241-.646.731-1.313 1.458-2.004 2.179-2.536-.029-4.176 2.648-5.051 4.089-.239.393-.447.826-.647 1.252-1.176.992-2.349 1.937-3.512 2.83-1.031-.051-1.792.399-2.535.91-1.081.745-1.665 1.638-2.092 2.51-5.069 3.609-9.347 6.406-11.179 8.978m36.218-33.096c.006.308-.026.613-.118.921-.296-.22-.451-.431-.398-.606.044-.147.235-.25.516-.315m-17.721 19.432c-.162.252-.338.476-.537.665-.087-.117-.124-.227-.094-.324.051-.167.285-.276.631-.341m-11.048 8.859c-.654.176-1.217.382-1.704.623-.039-.078-.059-.152-.038-.222.093-.308.77-.441 1.742-.401m-1.714 7.255c-.135.753-.679.866-.991.866-.427 0-.86-.201-1.13-.525-.167-.201-.349-.545-.258-1.045.621-3.452 1.373-4.82 4.362-5.621 2.619-.702 3.281-2.261 3.921-3.768.478-1.125.929-2.188 2.18-3.049.597-.41 1.147-.75 1.833-.75.08 0 .162.004.247.014 2.574.278 3.458-1.619 4.237-3.271.217-.46.422-.894.657-1.279 1.117-1.841 2.467-3.83 4.429-3.619.132.012.255.019.373.019 1.939-.001 2.184-1.663 2.421-3.271.19-1.295.407-2.762 1.325-4.088 1.137-1.642 2.58-1.956 3.976-2.262 1.313-.286 2.672-.583 3.445-2.04.617-1.162.431-2.269.266-3.245-.178-1.055-.317-1.888.46-2.688.418-.432 1.332-.628 2.04-.628 0 0 0 0 .001 0 .224.003.515.029.837.057.459.041.98.086 1.481.086.976 0 1.6-.181 1.963-.568.236-.254.349-.587.323-.966-.078-1.159.219-2.031.546-2.382.161-.173.284-.173.324-.173.195 0 .45.168.719.473.754.857 1.997 3.664.456 5.205-1.743 1.745-3.588 1.823-4.934 1.879-.873.037-1.563.065-1.936.575-.319.437-.214 1.01-.107 1.401.611 2.249.011 3.501-2.297 4.787-.426.237-1.127.371-1.87.513-1.898.363-4.5.86-4.179 3.778.139 1.27.132 2.257-.022 3.41-.28 2.072-2.567 2.9-4.427 2.718-2.77-.265-3.498 2.015-4.152 4.012-.533 1.627-1.036 3.163-2.422 3.645-.453.158-1.085.207-1.754.259-1.344.104-2.867.223-3.447 1.373-.274.544-.523 1.103-.772 1.661-.433.97-.881 1.972-1.455 2.857-.705 1.087-1.761 1.442-2.879 1.817-1.547.519-3.299 1.109-3.79 3.833m37.775-33.407c-.133.44-1.451.522-3.125.253.006-.54-.075-1.123-.25-1.764-.037-.136-.053-.234-.062-.315 2.064.507 3.592 1.313 3.437 1.826m-5.675 7.298c-.159.531-2.038.553-4.193.05-.648-.152-1.244-.335-1.759-.529.207-.781.859-1.197 1.84-1.485.169.034.324.052.498.092 2.155.502 3.774 1.341 3.614 1.872m-6.485 6.486c-.086.288-.679.423-1.542.409.451-.257.854-.586 1.181-.983.269.207.412.407.361.574m-5.675 5.675c-.129.431-1.399.521-3.023.271.196-.484.364-.983.522-1.467.039-.117.075-.221.113-.334 1.505.49 2.515 1.109 2.388 1.53m-6.487 4.866c-.156.519-1.947.546-4.034.08.113-.243.22-.492.34-.731.238-.471.904-.651 1.678-.75 1.294.464 2.134 1.013 2.016 1.401m-5.673 4.052c-.05.166-.284.276-.625.342.113-.135.223-.277.325-.436.059-.091.11-.187.167-.278.113.133.167.26.133.372m24.74-3.075c-14.673 14.674-24.69 15.72-28.523 15.426-.206-.154-.403-.318-.584-.5-.689-.688-.99-1.34-.948-2.049.148-2.469 4.271-5.705 9.491-9.804 3.929-3.085 8.383-6.581 12.72-10.917 4.336-4.337 7.832-8.791 10.917-12.722 4.163-5.305 7.452-9.494 9.932-9.494.65 0 1.277.311 1.918.951.947.948 1.516 2.22 1.738 3.736-.474 5.392-4.728 13.439-16.661 25.373"/></svg>