<svg xmlns="http://www.w3.org/2000/svg" viewBox="0 0 64 64" enable-background="new 0 0 64 64"><path d="m37.61 15.685l-5.609-13.685-5.611 13.685c1.822-.319 3.691-.515 5.609-.515 1.92 0 3.789.195 5.611.515"/><path d="m26.39 48.315l5.611 13.685 5.609-13.685c-1.822.319-3.691.515-5.611.515-1.918 0-3.787-.195-5.609-.515"/><path d="m62 32.001l-3.05-1.251c-.481-.445-.999-.855-1.573-1.193-.139-.081-.277-.159-.418-.232.001-.021.001-.044.001-.066 0-4.739-3.034-8.763-7.222-10.167l3.476-8.304-13.645 5.709c1.168.819 2.302 1.713 3.382 2.699-.98.359-1.905.856-2.738 1.491-2.308-1.682-5.139-2.687-8.213-2.687-7.731 0-14 6.268-14 14 0 4.22 1.871 7.997 4.825 10.56.926 1.923 2.572 3.445 4.663 4.15.808.275 1.653.415 2.508.415h10.082c-.171.125-.337.258-.509.379l13.644 5.709-2.547-6.088h2.114c.687 0 1.385-.083 2.075-.247 4.205-.985 7.145-4.756 7.145-9.168 0-1.837-.548-3.596-1.498-5.096l1.498-.613m-7.748 12.227c-.474.112-.964.177-1.472.177h-22.783-.001c-.584 0-1.145-.1-1.671-.277-2.124-.717-3.658-2.758-3.658-5.165 0-1.638.71-3.102 1.829-4.099.507-.453 1.097-.807 1.745-1.038.55-.195 1.139-.309 1.756-.309 1.718 0 3.242.835 4.217 2.124h.048c-1.132-2.127-3.247-3.627-5.723-3.867.921-3.279 3.877-5.687 7.385-5.687.374 0 .738.037 1.099.091.712.104 1.393.304 2.027.593 2.364 1.077 4.092 3.335 4.475 6.038 0-.015.002-.032.002-.046 0-3.08-1.547-5.79-3.89-7.371 1.334-2.453 3.896-4.117 6.84-4.117 4.316 0 7.815 3.575 7.815 7.983 0 .215-.014.423-.03.633-1.807.141-3.449.877-4.739 2.02.96-.563 2.07-.891 3.258-.891.439 0 .867.046 1.282.13.71.144 1.375.406 1.981.764 1.964 1.156 3.289 3.315 3.289 5.797 0 3.176-2.171 5.835-5.081 6.517"/><path d="m15.17 31.999c0-1.918.195-3.787.515-5.609l-13.685 5.611 13.685 5.609c-.32-1.822-.515-3.691-.515-5.611"/><path d="m16.496 39.568l-5.709 13.645 13.644-5.709c-1.515-1.063-2.975-2.246-4.332-3.604-1.357-1.357-2.54-2.816-3.603-4.332"/><path d="m20.1 20.098c1.356-1.355 2.816-2.539 4.331-3.602l-13.645-5.709 5.71 13.643c1.063-1.514 2.246-2.975 3.604-4.332"/></svg>