<svg xmlns="http://www.w3.org/2000/svg" viewBox="0 0 64 64" enable-background="new 0 0 64 64"><path d="m49.669 15.595c-.457-7.576-7.201-13.595-15.476-13.595-4.92 0-9.297 2.132-12.141 5.448-1.342-.366-2.759-.571-4.229-.571-8.275 0-14.983 6.229-14.983 13.91 0 2.759.876 5.324 2.368 7.487-2.004 2.462-3.208 5.518-3.208 8.842 0 8.115 7.085 14.692 15.824 14.692 3.797 0 7.26-1.264 9.984-3.336.066.435.127.88.194 1.312.65 4.244 1.219 8.321.926 12.216l7-.075c-.285-4.349-1.395-8.418-2.517-12.267 1.82.902 3.889 1.429 6.097 1.429 7.087 0 12.84-5.255 13.015-11.796 5.467-1.437 9.477-6.095 9.477-11.63 0-6.464-5.462-11.727-12.331-12.066m2.091 20.795l-2.176.572-.061 2.249c-.131 4.895-4.624 8.876-10.016 8.876-2.843 0-5.528-1.105-7.438-3.029-.773-2.71-1.469-5.396-1.912-8.114 1.6-.077 3.158-.272 4.721-.56 2.177-.409 4.314-1.022 6.337-1.896 2.02-.87 3.923-2.008 5.558-3.433 1.637-1.421 2.983-3.131 3.955-5.006-1.119 1.799-2.578 3.376-4.275 4.635-1.695 1.264-3.611 2.217-5.61 2.906-2.001.691-4.089 1.125-6.194 1.36-1.573.173-3.189.248-4.757.195-.444-3.677-.36-7.413.438-11.088.882-4.106 2.603-8.089 4.862-11.786-2.738 3.379-5.041 7.168-6.548 11.331-.875 2.399-1.447 4.914-1.767 7.467-.734-.407-1.459-.852-2.152-1.318-1.281-.867-2.496-1.836-3.592-2.924-2.188-2.157-3.928-4.866-4.451-7.952.184 3.122 1.66 6.118 3.699 8.591 1.019 1.246 2.177 2.386 3.421 3.428.92.765 1.86 1.475 2.88 2.133-.09 1.228-.127 2.457-.104 3.684.029 2.048.199 4.079.433 6.089-.741-.05-1.489-.136-2.218-.254-1.528-.249-3.038-.65-4.48-1.229-2.885-1.14-5.489-3.067-7.29-5.643 1.509 2.74 3.961 5.016 6.858 6.515 1.445.76 2.991 1.344 4.583 1.773.914.239 1.828.433 2.764.573.02.144.043.283.063.427-2.436 2.443-5.866 3.847-9.465 3.847-7.073 0-12.826-5.246-12.826-11.693 0-2.509.876-4.911 2.535-6.947l1.421-1.745-1.278-1.853c-1.202-1.743-1.837-3.743-1.837-5.784 0-6.016 5.376-10.91 11.983-10.91 1.15 0 2.307.157 3.439.465l1.832.5 1.235-1.441c2.398-2.797 5.993-4.401 9.863-4.401 6.634 0 12.116 4.733 12.481 10.775l.161 2.683 2.686.133c5.315.263 9.479 4.246 9.479 9.07 0 4.019-2.978 7.608-7.24 8.729"/></svg>