<svg xmlns="http://www.w3.org/2000/svg" viewBox="0 0 64 64" enable-background="new 0 0 64 64"><path d="m42.855 47.984c-9.725-9.258-10.787-16.832-10.787-25.209 0-6.6-4.036-11.284-8.303-12.09-.34-.064-.797-.125-1.313-.175-4.192-2.384-12.372-.296-12.372-.296-2.631-4.287-.059-6.688-.059-6.688.43-1.131-2.137-2.205-3.461-.986-3.534 3.246-.729 10.773-.729 10.773-3.181 3.614-3.128 9.308-2.946 11.681-2.439 7.428.485 12.637 4.839 17.407 6.792 7.442 20.731 19.599 36.573 19.599 4.603 0 9.363-1.025 14.158-3.49 10.971-5.636-6.165-1.545-15.6-10.526m1.442 11.516c-15.869 0-29.571-13.136-34.726-18.784-4.279-4.688-6.591-9.19-3.967-15.928 1.361-3.494 2.322-3.811 2.957-4.021.848-.28 2.826-.933 2.866-3.931.565-.509 2.897-.86 3.793-.996 2.031-.306 3.95-.595 4.531-2.506.035-.112.072-.264.095-.444.058-.001.118-.001.18-.001 1.272 0 2.611.127 3.276.253 3.038.573 6.266 4.145 6.266 9.633 0 8.438.884 16.854 11.563 27.02 4.732 4.505 11.092 6.036 15.363 6.896-3.904 1.865-8.002 2.809-12.197 2.809"/></svg>