<svg xmlns="http://www.w3.org/2000/svg" viewBox="0 0 64 64" enable-background="new 0 0 64 64"><path d="m44.26 25.462c0-7.443-6.057-13.499-13.501-13.499-7.443 0-13.499 6.056-13.499 13.499 0 7.444 6.056 13.501 13.499 13.501 7.444 0 13.501-6.057 13.501-13.501"/><path d="m42.775 46.191l.049-1.586c.002-.077.043-1.566-.146-3.609 1.952.709 3.423 1.056 3.499 1.073l1.577.368-.374-1.554c-.018-.076-.369-1.526-1.09-3.45 1.403.126 2.559.149 3.219.149.001 0 .001 0 .001 0 .285 0 .444-.004.444-.004l1.621-.048-.771-1.406c-.037-.068-.759-1.378-1.958-3.053 2.049-.348 3.499-.771 3.574-.794l1.552-.458-1.11-1.162c-.055-.057-1.096-1.14-2.694-2.453 1.889-.858 3.177-1.638 3.244-1.679l1.378-.839-1.378-.838c-.067-.042-1.355-.821-3.244-1.68 1.599-1.313 2.639-2.396 2.694-2.451l1.111-1.163-1.553-.458c-.076-.021-1.525-.445-3.574-.794 1.199-1.675 1.921-2.985 1.958-3.054l.77-1.404-1.62-.05c0 0-.164-.005-.46-.005-.659 0-1.809.024-3.203.15.72-1.924 1.071-3.373 1.089-3.449l.374-1.553-1.576.366c-.077.019-1.548.365-3.5 1.073.189-2.041.148-3.532.146-3.609l-.049-1.597-1.425.761c-.069.037-1.398.747-3.099 1.932-.353-2.021-.783-3.45-.806-3.525l-.465-1.53-1.18 1.097c-.057.053-1.154 1.078-2.484 2.654-.874-1.862-1.665-3.134-1.707-3.199l-.851-1.36-.85 1.358c-.042.066-.833 1.337-1.705 3.199-1.33-1.575-2.427-2.601-2.484-2.654l-1.18-1.098-.465 1.531c-.022.075-.453 1.504-.806 3.526-1.699-1.185-3.029-1.896-3.099-1.933l-1.426-.758-.05 1.597c-.002.077-.042 1.568.147 3.609-1.951-.708-3.423-1.055-3.5-1.073l-1.576-.366.374 1.553c.018.076.37 1.525 1.089 3.449-1.395-.126-2.544-.15-3.204-.15-.295 0-.459.005-.459.005l-1.619.05.769 1.404c.037.068.758 1.379 1.959 3.054-2.049.349-3.499.772-3.575.794l-1.553.458 1.112 1.163c.055.056 1.095 1.139 2.693 2.451-1.889.858-3.177 1.638-3.244 1.68l-1.378.838 1.378.839c.067.041 1.355.82 3.244 1.679-1.599 1.313-2.64 2.396-2.693 2.453l-1.111 1.162 1.553.458c.076.022 1.525.445 3.575.794-1.201 1.675-1.922 2.984-1.959 3.053l-.77 1.407 1.621.047c0 0 .158.004.444.004.662 0 1.817-.023 3.219-.149-.72 1.924-1.072 3.374-1.09 3.45l-.374 1.554 1.577-.368c.076-.018 1.548-.364 3.499-1.073-.189 2.041-.149 3.531-.147 3.608l.038 1.223c-6.075-2.803-12.732-2.789-12.732-2.789s13.813 4.965 22.244 18.961h4.966c8.422-12.022 24.79-20.414 24.79-20.414s-7.927.684-15.225 4.605m-14.276 9.38c-.908-1.831-2.194-3.849-4.035-5.776-1.551-1.622-3.416-2.852-5.355-3.788l1.062-.563c.069-.037 1.399-.747 3.1-1.932.354 2.022.784 3.453.807 3.527l.466 1.53 1.179-1.097c.058-.054 1.153-1.078 2.483-2.653.235.503.463.957.673 1.361l-.38 9.391m2.26-10.096c-.407-.771-.907-1.786-1.375-2.927l-.662-1.618-1.063 1.395c-.748.98-1.497 1.834-2.094 2.475-.19-.848-.405-1.957-.558-3.179l-.214-1.733-1.395 1.076c-.982.758-1.932 1.393-2.676 1.859.038-.868.12-1.995.295-3.211l.248-1.729-1.63.684c-1.146.48-2.229.851-3.07 1.112.266-.83.642-1.897 1.129-3.027l.693-1.605-1.753.243c-1.238.172-2.386.253-3.261.292.474-.732 1.117-1.667 1.886-2.636l1.091-1.375-1.757-.211c-1.236-.148-2.362-.361-3.224-.55.649-.589 1.518-1.327 2.514-2.067l1.414-1.049-1.643-.652c-1.156-.459-2.188-.952-2.969-1.354.781-.401 1.811-.894 2.968-1.353l1.644-.651-1.414-1.05c-.996-.739-1.863-1.479-2.514-2.067.862-.188 1.987-.401 3.224-.55l1.757-.212-1.091-1.374c-.768-.967-1.411-1.903-1.886-2.637.873.038 2.021.119 3.259.292l1.754.244-.693-1.606c-.487-1.13-.863-2.197-1.128-3.026.842.262 1.924.631 3.07 1.112l1.63.685-.248-1.729c-.175-1.217-.257-2.345-.295-3.214.743.467 1.69 1.102 2.675 1.86l1.395 1.076.214-1.733c.15-1.219.367-2.328.559-3.178.596.641 1.345 1.495 2.094 2.477l1.063 1.394.663-1.618c.467-1.14.967-2.157 1.375-2.929.408.771.908 1.788 1.375 2.929l.663 1.619 1.063-1.396c.749-.98 1.498-1.835 2.094-2.476.191.849.407 1.958.559 3.177l.214 1.733 1.395-1.076c.982-.757 1.931-1.392 2.675-1.859-.038.869-.12 1.996-.295 3.212l-.248 1.729 1.63-.684c1.146-.48 2.229-.851 3.07-1.111-.265.829-.641 1.896-1.128 3.026l-.692 1.606 1.753-.244c1.237-.173 2.386-.254 3.259-.292-.474.733-1.116 1.667-1.885 2.637l-1.092 1.375 1.757.211c1.236.148 2.362.361 3.224.55-.649.588-1.516 1.326-2.514 2.067l-1.414 1.05 1.643.651c1.155.458 2.186.951 2.969 1.353-.783.402-1.814.895-2.97 1.354l-1.642.652 1.414 1.049c.996.74 1.863 1.479 2.514 2.067-.861.188-1.986.401-3.224.55l-1.758.211 1.093 1.375c.767.967 1.409 1.902 1.884 2.636-.875-.039-2.021-.12-3.26-.292l-1.753-.243.693 1.605c.487 1.131.863 2.198 1.129 3.028-.84-.262-1.922-.632-3.07-1.113l-1.63-.684.248 1.729c.175 1.216.257 2.344.295 3.213-.743-.467-1.691-1.101-2.676-1.86l-1.395-1.074-.214 1.732c-.151 1.218-.367 2.328-.559 3.177-.596-.641-1.345-1.494-2.094-2.476l-1.063-1.393-.662 1.616c-.467 1.14-.968 2.156-1.376 2.928m8.178 3.17c-3.05 2.321-5.014 5.533-6.233 8.23l-.405-10.054c.291-.532.645-1.209 1.017-2.003 1.33 1.576 2.427 2.601 2.484 2.654l1.179 1.098.466-1.531c.022-.074.453-1.504.807-3.525 1.7 1.184 3.03 1.894 3.1 1.931l1.416.752c-1.316.706-2.609 1.516-3.831 2.448"/></svg>