<svg xmlns="http://www.w3.org/2000/svg" viewBox="0 0 64 64" enable-background="new 0 0 64 64"><path d="m61 38.628c0 0-12.42-2.143-21.509 5.357-1.869 1.542-3.122 3.816-3.967 6.232l-.355-8.814c7.516-.819 13.411-8.686 13.411-18.283 0-10.143-7.993-18.366-7.993-18.366s.266 8.798-10.235 15.289c-9.317 5.761-8.42 13.147-4.414 17.575-4.774-4.252-6.578-12.329 3.447-18.527 1.195-.738 2.245-1.508 3.177-2.291-6.168-5.834-5.98-12.046-5.98-12.046s-7.995 8.224-7.995 18.366c0 9.597 5.895 17.463 13.409 18.283l-.509 12.635c-1.327-4.104-3.408-8.867-6.487-11.901-6.329-6.236-22-10.137-22-10.137s18.366 12.7 25.858 30h2.307 2.291.36 2.148.034l-.004-.085c5.629-16.878 25.006-23.287 25.006-23.287"/><path d="m38.587 8.639c-2.586-3.939-5.005-6.639-5.005-6.639s-2.418 2.699-5.004 6.637c.827 2.14 2.32 4.737 5.006 7.263 2.687-2.526 4.177-5.123 5.003-7.261"/></svg>