<svg xmlns="http://www.w3.org/2000/svg" viewBox="0 0 64 64" enable-background="new 0 0 64 64"><path d="m50.254 23.485c-3.352 0-6.745 2.438-6.745 7.097v7.954h-2.705v-26.383c0-6.666-4.825-10.153-9.593-10.153-4.767 0-9.592 3.487-9.592 10.153v13.176h-3.341v-5.74c0-3.881-2.837-5.912-5.64-5.912-2.801 0-5.638 2.031-5.638 5.912v10.362 1.942c0 2.549 2.088 4.623 4.656 4.623h1.965 7.998v25.484h1.852v-27.329h-9.85-1.965c-1.549 0-2.805-1.244-2.805-2.777v-1.942-10.363c0-2.71 1.894-4.065 3.787-4.065 1.895 0 3.788 1.355 3.788 4.065v7.586h7.044v-15.022c0-5.538 3.871-8.307 7.74-8.307 3.871 0 7.741 2.769 7.741 8.307v28.229h6.408v-9.8c0-3.501 2.447-5.251 4.894-5.251 2.447 0 4.895 1.75 4.895 5.251v13.386 2.51c0 1.485-.914 2.76-2.215 3.305-.435.182-.91.281-1.412.281h-2.537-10.032v11.936h1.852v-10.09h8.181 2.537c.738 0 1.454-.144 2.129-.426 2.034-.852 3.35-2.817 3.35-5.007v-2.51-13.385c-.001-4.66-3.395-7.097-6.747-7.097"/><path d="m9.819 20.028v10.637c0 3.032 2.633 3.032 3.015 3.032h10.637v-1.086h-10.008c-.223 0-2.564-.272-2.564-2.579v-10.004c0-3.804 1.74-4.503 1.74-4.503s-2.82.577-2.82 4.503"/><path d="m12.099 28.435c0 3.031 1.665 3.031 2.048 3.031h9.324v-1.086h-8.672c-.231 0-1.62-.185-1.62-2.602v-7.75c0-3.08-.54-4.504-.54-4.504s-.54 1.423-.54 4.503v8.408"/><path d="m15.459 26.519v-6.491c0-3.926-2.82-4.503-2.82-4.503s1.74.702 1.74 4.504v7.146c0 2.059 1.666 2.059 2.048 2.059h7.044v-1.086h-6.392c-.23-.001-1.62-.051-1.62-1.629"/><path d="m49.189 47.403h-10.237v1.404h11.05c.493 0 3.895 0 3.895-3.918v-13.74c0-5.072-3.643-5.817-3.643-5.817s2.248.902 2.248 5.817v12.923c0 2.98-3.025 3.331-3.313 3.331"/><path d="m49.556 41.161c0 3.122-1.794 3.359-2.092 3.359h-8.512v1.404h9.354c.494 0 2.645 0 2.645-3.917v-10.858c0-3.979-.697-5.817-.697-5.817s-.698 1.839-.698 5.817v10.012"/><path d="m46.61 31.149v8.385c0 2.038-1.794 2.104-2.093 2.104h-5.565v1.403h6.408c.493 0 2.644 0 2.644-2.659v-9.232c0-4.912 2.25-5.817 2.25-5.817s-3.644.745-3.644 5.816"/><path d="m31.211 3.847c0 0 3.558 1.434 3.558 9.205v48.948h2.207v-48.949c0-8.024-5.765-9.204-5.765-9.204"/><path d="M30.107,62h2.209V13.052c0-6.295-1.105-9.205-1.105-9.205s-1.104,2.909-1.104,9.204V62z"/><path d="M25.449,13.051V62h2.207V13.051c0-7.775,3.555-9.204,3.555-9.204S25.449,5.027,25.449,13.051z"/></svg>