<svg xmlns="http://www.w3.org/2000/svg" viewBox="0 0 64 64" enable-background="new 0 0 64 64"><path d="m48.685 42.688c-.228-.064-5.643-1.593-9.879-1.593-1.438 0-2.57.171-3.457.524-1.329.529-2.351 1.25-3.141 2.054.16-1.569.282-3.141.339-4.714.204-.7.308-1.567.036-2.485.002-1.157-.021-2.313-.077-3.468.802.241 2.627.711 4.729.711 2.348 0 4.328-.576 5.887-1.713 3.065-2.235 2.894-8.166 2.864-8.836l-.044-.982-1.075.049c-.968.045-9.555.498-12.47 2.623-.249.182-.47.37-.679.563-.071-.458-.146-.917-.224-1.375.357-.506.678-1.158.729-1.947.074-1.113-.423-2.184-1.429-3.188.558.177 2.018.58 3.72.58 1.82 0 3.358-.453 4.573-1.348 2.393-1.764 2.259-6.355 2.235-6.873l-.043-.983-1.074.049c-.735.034-7.243.378-9.492 2.032-.75.553-1.253 1.181-1.546 1.865-.228-.726-.476-1.447-.725-2.167.252-.074 1.694-.552 2.386-1.829.306-.564.566-1.499.071-2.752-.767-1.941-4.687-4.449-5.465-4.932l-.888-.553-.596.819c-.249.343-2.409 3.412-1.563 5.556 1.148 2.906 5.015 3.645 5.478 3.724.522 1.865.99 3.74 1.362 5.629.003.018.005.035.009.053-2.956-1.59-8.183-2.698-8.867-2.838l-1.115-.229-.171 1.033c-.087.529-.785 5.233 1.628 7.44 2.099 1.922 5.027 2.325 7.114 2.325 1.226 0 2.087-.143 2.123-.148l.259-.044.079-.057c.059.63.105 1.259.15 1.888-.187.422-.309.86-.352 1.317-.09.972.178 1.846.516 2.545.007.452.035.904.033 1.356-.001.513-.025 1.025-.044 1.538-.429-.293-.913-.563-1.465-.801-1.416-.61-3.74-.907-7.104-.907-3.474 0-6.729.326-6.866.34l-1.154.117.226 1.042c.055.258 1.413 6.344 5.31 8.022 1.342.58 2.851.873 4.485.873 2.401 0 4.588-.629 5.961-1.135-.898 6.661-2.742 13.188-5.563 19.326l3.45 1.216c1.366-3.54 2.414-7.17 3.187-10.841 1.169.924 3.336 2.257 6.131 2.257 1.128 0 2.258-.221 3.355-.657 3.893-1.548 8.537-8.338 8.732-8.626l.726-1.07-1.315-.375"/></svg>