<svg xmlns="http://www.w3.org/2000/svg" viewBox="0 0 64 64" enable-background="new 0 0 64 64"><path d="m60.352 30.213c-.867-.744-8.626-7.27-14.026-7.27-6.732 0-9.982 5.871-10.762 8.976l-.118.475c-.991.571-1.939 1.235-2.812 2.015-.908.813-1.739 1.741-2.447 2.772-.056-.267-.111-.534-.179-.792-.794-2.901-2.068-5.467-3.441-7.961-1.11-1.971-2.336-3.856-3.62-5.695l.063-.127c1.344-2.712 2.531-9.261-2.588-14.628-4.169-4.373-15.032-5.624-16.256-5.75l-2.166-.228.213 2.236c.122 1.284 1.311 12.653 5.473 17.015 2.317 2.429 5.215 3.714 8.382 3.714 2.602 0 4.747-.862 5.703-1.32 1.141 1.852 2.2 3.751 3.157 5.697 1.19 2.469 2.271 5.043 2.816 7.614.131.639-.77 25.044-.77 25.044h4.454c0 0-.696-20.141-.573-20.625.52-2.013 1.652-3.906 3.144-5.448.638-.663 1.347-1.243 2.094-1.774 1.303 2.616 4.515 6.158 10.233 6.158 5.4 0 13.159-6.525 14.026-7.269l1.648-1.415-1.648-1.414"/></svg>