<svg xmlns="http://www.w3.org/2000/svg" viewBox="0 0 64 64" enable-background="new 0 0 64 64"><path d="m53.744 34.683c5.742-2.92 8.152-6.675 8.256-10.362-1.869.424-3.844-.51-4.719-2.389-.875-1.883-.357-4.083 1.121-5.357-2.838-2.196-7.148-2.53-12.893.392-2.068 1.052-3.964 2.744-5.644 4.675.923-2.419 1.546-4.938 1.546-7.339 0-6.68-2.172-10.59-5.295-12.299-.454 1.944-2.118 3.392-4.116 3.392-2 0-3.666-1.45-4.119-3.396-3.125 1.711-5.297 5.618-5.297 12.302 0 2.4.623 4.919 1.545 7.338-1.678-1.931-3.574-3.622-5.641-4.674-5.744-2.922-10.055-2.588-12.891-.392 1.477 1.274 1.996 3.475 1.121 5.357-.878 1.88-2.851 2.813-4.718 2.389.104 3.688 2.514 7.442 8.254 10.362 3.394 1.726 7.797 2.012 11.754 1.769-3.403 1.795-6.862 4.221-8.908 7.314-3.635 5.495-3.973 10.003-2.332 13.271 1.43-1.333 3.588-1.534 5.232-.343 1.643 1.191 2.223 3.373 1.539 5.241 3.498.454 7.412-1.467 11.045-6.959 2.064-3.121 3.015-7.412 3.415-11.408.401 3.996 1.351 8.287 3.415 11.408 3.633 5.492 7.547 7.413 11.045 6.959-.684-1.868-.104-4.05 1.541-5.241s3.801-.99 5.232.343c1.641-3.269 1.303-7.776-2.332-13.271-2.047-3.094-5.506-5.52-8.909-7.314 3.956.243 8.36-.043 11.753-1.768m-5.166 7.638c3.189 4.82 3.486 8.774 2.047 11.643-1.256-1.171-3.148-1.347-4.59-.302s-1.951 2.96-1.352 4.599c-3.068.398-6.502-1.288-9.688-6.105-1.812-2.739-2.646-6.504-2.996-10.01-.352 3.506-1.186 7.271-2.996 10.01-3.188 4.817-6.621 6.504-9.689 6.105.6-1.639.092-3.554-1.352-4.599-1.441-1.045-3.334-.869-4.588.302-1.439-2.868-1.143-6.822 2.045-11.643 1.59-2.405 4.153-4.347 6.794-5.854.23.541.723.939 1.327.987.879.072 1.646-.613 1.717-1.532.002-.026-.003-.051-.002-.077l3.98-1.811c.203.302.454.563.735.784l-1.856 4.116c-.023 0-.047-.005-.07-.004-.881.044-1.561.824-1.518 1.745.039.922.785 1.633 1.668 1.59.881-.044 1.561-.824 1.518-1.745-.017-.374-.153-.71-.364-.978l1.855-4.111c.257.064.521.108.796.108.238 0 .47-.026.694-.076l1.729 4.164c-.217.261-.363.591-.391.963-.07.919.588 1.722 1.467 1.793.879.072 1.646-.614 1.713-1.534.068-.92-.586-1.722-1.465-1.793-.024-.002-.048.002-.072.002l-1.732-4.169c.289-.213.539-.476.751-.771l3.935 1.943c0 .025-.005.049-.004.073.039.923.785 1.633 1.666 1.592.727-.037 1.307-.574 1.469-1.274 2.65 1.511 5.224 3.457 6.819 5.869m-6.772-6.372c-.058-.905-.793-1.6-1.663-1.558-.356.019-.676.161-.932.38l-3.932-1.941c.063-.268.104-.542.104-.829 0-.25-.026-.493-.073-.729l3.978-1.809c.25.229.565.383.922.412.879.069 1.646-.616 1.715-1.536.07-.919-.588-1.722-1.467-1.794-.879-.073-1.646.615-1.713 1.535-.002.024.002.048.002.072l-3.985 1.813c-.204-.302-.455-.563-.736-.785l1.856-4.114c.024 0 .048.005.072.004.881-.044 1.561-.824 1.521-1.745-.043-.922-.789-1.633-1.668-1.59-.881.044-1.561.824-1.521 1.745.018.372.153.706.362.974l-1.856 4.115c-.256-.065-.519-.109-.792-.109-.238 0-.471.027-.696.077l-1.729-4.162c.219-.262.366-.593.395-.966.066-.919-.59-1.722-1.469-1.793s-1.645.614-1.715 1.534c-.068.92.59 1.722 1.469 1.795.023.002.046-.002.069-.002l1.731 4.168c-.288.213-.537.475-.75.769l-3.934-1.942c0-.025.005-.05.004-.075-.041-.922-.787-1.633-1.668-1.588-.881.042-1.561.822-1.518 1.744.039.923.785 1.633 1.666 1.589.356-.018.677-.16.933-.379l3.931 1.94c-.062.269-.104.544-.104.832 0 .249.025.491.072.726l-3.978 1.811c-.25-.229-.565-.381-.921-.41-.879-.072-1.646.616-1.715 1.535-.007.1-.002.196.007.293-3.153.09-6.505-.254-9.155-1.602-5.037-2.562-7.152-5.855-7.242-9.09 1.637.371 3.369-.447 4.139-2.097.768-1.651.311-3.581-.982-4.699 2.486-1.926 6.268-2.22 11.307.344 1.813.923 3.477 2.407 4.949 4.101-.809-2.123-1.355-4.332-1.355-6.438 0-5.862 1.904-9.29 4.648-10.791.396 1.707 1.857 2.979 3.611 2.979s3.213-1.271 3.611-2.978c2.74 1.5 4.646 4.93 4.646 10.789 0 2.105-.546 4.314-1.354 6.436 1.472-1.693 3.135-3.177 4.948-4.099 5.039-2.563 8.818-2.27 11.309-.344-1.297 1.118-1.75 3.048-.982 4.699.768 1.649 2.498 2.468 4.139 2.097-.09 3.234-2.205 6.528-7.242 9.09-2.683 1.366-6.083 1.7-9.269 1.596"/></svg>