<svg xmlns="http://www.w3.org/2000/svg" viewBox="0 0 64 64" enable-background="new 0 0 64 64"><path d="m54.604 36.906c2.536-2.497 4.124-5.947 4.124-9.779 0-7.615-6.2-13.786-13.849-13.786-.052 0-.102.007-.153.008-2.12-4.909-7.016-8.349-12.724-8.349-5.707 0-10.604 3.44-12.725 8.349-.052-.001-.103-.008-.155-.008-7.646 0-13.847 6.171-13.847 13.786 0 3.832 1.588 7.282 4.124 9.779-4.205.564-7.399.573-7.399.573s.879 24.126 18.527 21.29c6.15-.989 9.687-3.824 11.474-5.811 1.786 1.986 5.322 4.821 11.476 5.811 17.646 2.835 18.523-21.29 18.523-21.29s-3.192-.009-7.396-.573m-2.665 1.353c.43 1.245.647 2.527.647 3.807 0 6.479-5.295 11.75-11.802 11.75-2.725 0-5.383-.946-7.484-2.666l-1.299-1.062-1.299 1.062c-2.102 1.72-4.76 2.666-7.484 2.666-6.507 0-11.802-5.271-11.802-11.75 0-1.279.218-2.562.647-3.807l.451-1.31-1.054-.899c-2.631-2.242-4.14-5.493-4.14-8.923 0-6.465 5.271-11.726 11.758-11.75.053.004.106.007.16.008l1.376.026.543-1.258c1.866-4.323 6.122-7.116 10.845-7.116s8.979 2.793 10.845 7.116l.543 1.258 1.376-.026c.052-.001.103-.004.159-.008 6.488.025 11.759 5.286 11.759 11.75 0 3.43-1.509 6.681-4.14 8.923l-1.056.899.451 1.31"/><path d="m21.389 23.096l1.408.138c-.055-.05-.107-.102-.163-.15-.099-.084-.191-.188-.287-.283l-1.079.148.121.147"/><path d="m24.645 24.949c-.188-.173-.376-.347-.564-.526v.554l.239.237.325-.265"/><path d="m20.302 19.375c-.011-.031-.02-.062-.029-.092l-.668.092h.697"/><path d="m19.924 17.28c-.317.06-.63.135-.937.221l.943-.129c.001-.031-.006-.061-.006-.092"/><path d="m32.04 28.562c-.013-.2-.014-.405-.004-.617-.182-.035-.362-.067-.544-.102l.548.719"/><path d="m40.434 30.815c-2.792-1.606-4.394.051-6.882-.268l.178.233c.55.722.456 1.395.066 1.851.44 1.302-.005 3.141.789 4.972 1.16 2.677 1.479 6.091.478 8.604-.374.937-.995 1.779-1.761 2.533 1.625.973 3.523 1.538 5.558 1.538 4.777 0 8.688-3.295 10.491-7.248.678-1.487.831-4.506-.523-6.651-1.657-2.616-4.955-3.584-8.394-5.564"/><path d="m22.15 26.349l.079.572.577-.47-.417-.416z"/><path d="m24.705 34.829c2.122-.607 3.17-2.643 5.43-3.574l-3.449-4.533-.069.695.46.347-.568.746-.071.707.813.984-1.508 1.231-1.237-1.5.989-.808.011-.111-1.161-.876.772-1.015-.165-1.202-.063.051-1.282 1.276-.127-.126-.69.563-.126 1.27-1.939-.191.094-.946-.423.058-.266-1.922 1.264-.175 1.23-1.614-1.328-.13-.986.808-.01-.012v.25h-1.95v-1.467l-.831-.627 1.177-1.547 1.021.769.984-.134.598-.595c-.233-.364-.445-.752-.631-1.16h-2.213l-.905.901-1.378-1.373 1.378-1.372.905.899h.766l-.26-1.864c-4.518 1.291-7.827 5.426-7.827 10.338 0 2.254 1.354 7.036 4.866 8.209 2.421.81 6.118-.486 8.705-1.228"/><path d="m28.265 21.991l-.884.12.297.36z"/><path d="m27.487 16.648l-.181.183.249.302z"/><path d="m28.758 20.319h-1.442l-.085.86 2.103-.286z"/><path d="m32.361 26.023l-.811-.985-.949-.093.208 1.504-.343.046.802 1.055c.262.085.521.17.781.259-.002.044-.012.092-.014.136.027-.605.161-1.266.361-1.951l-.035.029"/><path d="m23.133 15.219c-.112.162-.237.315-.342.482-.037.156-.062.318-.092.479l.434-.566v-.395"/><path d="m25.89 19.375h.383l.211-.279.019-.181-.582-.705-.601.598z"/><path d="m24.651 16.831l.159 1.151 2.104-2.097v-1.273h1.95v1.535l.511-.07.268 1.923-1.233.169.025.03-.206.168-.767 1.008h1.296l.905-.899.717.714 1.838.179-.144 1.468.178.133-.22.289-.004.041-.026-.003-.929 1.218-1.017-.767-1.705 1.392h.513v.687l2.778.274.99-.809.536.65c1.404-3.067 3.796-6.135 5.375-7.044.896-.514 1.852-.786 2.84-.894-1.862-3.242-5.361-5.432-9.382-5.432-2.85 0-5.434 1.105-7.364 2.898l.347.345-.904.901v.084l1.344 1.018-.773 1.013"/><path d="m23.133 17.572v-1.052l-.436-.328c-.114.632-.173 1.282-.155 1.925l.021.022.57-.567"/><path d="m33.546 37.832c-.516-1.868.126-3.582-.071-4.916-.168.112-.357.196-.56.246-.002 0-.005.002-.008.003-.093.022-.189.036-.286.044-.011.001-.02.003-.03.004-.088.006-.177.001-.266-.007-.02-.002-.038-.001-.059-.003-.08-.01-.159-.029-.237-.052-.028-.007-.057-.011-.083-.02-.074-.024-.144-.06-.216-.094-.03-.016-.063-.025-.092-.043-.071-.039-.138-.092-.205-.144-.027-.021-.057-.038-.083-.061-.092-.081-.179-.173-.26-.278l-.753-.99c-2.151 1.228-2.896 3.424-4.93 4.327-2.455 1.09-5.921 2.783-8.449 2.418-.9-.133-1.652-.584-2.33-1.208-.188.789-.297 1.608-.297 2.455 0 5.944 4.84 10.765 10.813 10.765 1.904 0 3.691-.496 5.246-1.357 1.01-.689 1.869-1.515 2.433-2.501 1.342-2.352 1.5-5.776.723-8.588"/><path d="m46.141 17.886c-.089-.026-.177-.063-.266-.088-1.864-.522-3.737-.643-5.523.075-1.795.725-4.827 3.727-6.62 6.752l.139.167-.435.354c-.521.957-.908 1.904-1.07 2.768-.063.338-.087.658-.082.968l1.145 1.503c2.604.044 3.956-1.908 7.002-.681 3.68 1.485 6.798 2.011 8.801 4.373.346.41.579.749.762 1.066 1.781-1.918 2.878-4.476 2.878-7.295-.002-4.505-2.785-8.358-6.731-9.962"/></svg>