<svg xmlns="http://www.w3.org/2000/svg" viewBox="0 0 64 64" enable-background="new 0 0 64 64"><path d="m21.606 17.794c0 0 1.719-1.396 1.282-3.142-.437-1.744-2.918-3.395-2.918-3.395s-1.44 2.512-1.003 4.257c.436 1.745 2.639 2.28 2.639 2.28"/><path d="m48.668 3.548c-2.501 1.641-2.044 5.021-2.044 5.021s.038.017.091.04c-2.308 1.161-4.425 2.665-6.333 4.373-.383.345-.749.706-1.115 1.067.442-.623.784-1.416.693-2.341-.228-2.315-3.098-4.853-3.098-4.853s-2.331 2.986-2.104 5.3c.226 2.315 2.953 3.374 2.953 3.374s.172-.105.419-.301c-.856.93-1.661 1.899-2.414 2.902.085-.413.103-.857.006-1.325-.494-2.388-3.767-4.746-3.767-4.746s-2.09 3.336-1.596 5.721c.454 2.188 2.965 3.068 3.383 3.201-.755 1.195-1.451 2.423-2.101 3.672.032-.509-.024-1.044-.243-1.586-.753-1.879-3.205-3.469-4.369-4.139 1.326-.822 2.37-2.189 2.37-2.189s-2.681-1.35-4.542-.941c-1.86.41-2.432 2.475-2.432 2.475s1.49 1.61 3.351 1.201c.122-.026.24-.08.358-.121-.073.227-.152.495-.232.795-.945-.262-2.716-.635-3.974-.195-.832.292-1.331.903-1.637 1.477 1.014-2.126 2.296-4.142 3.9-5.962.472.076 2.807.359 4.156-1.158 1.509-1.693 1.403-5.206 1.403-5.206s-3.703.533-5.211 2.227c-1.508 1.694-.439 4.123-.439 4.123s.031.006.077.013c-1.467 1.3-2.718 2.821-3.771 4.453-.216.339-.418.685-.615 1.032.202-.553.299-1.216.026-1.901-.667-1.679-3.351-3.022-3.351-3.022s-1.09 2.663-.421 4.342c.668 1.679 2.923 1.95 2.923 1.95s.109-.117.253-.313c-.444.866-.84 1.753-1.188 2.656-.022-.334-.09-.677-.27-1.019-.881-1.682-3.822-2.816-3.822-2.816s-.838 2.877.044 4.56c.824 1.574 2.936 1.725 3.207 1.737-.307 1.042-.562 2.095-.777 3.155-.083-.392-.232-.787-.518-1.158-1.281-1.665-4.682-2.387-4.682-2.387s-.34 3.253.939 4.918c1.197 1.555 3.522 1.358 3.827 1.325-.161 1.216-.29 2.436-.363 3.657-.009.181-.006.36-.014.54-.11-.561-.359-1.138-.85-1.633-1.576-1.594-5.248-1.938-5.248-1.938s.091 3.459 1.667 5.053c1.577 1.593 4.24.918 4.24.918s.073-.2.143-.517c-.01 1.128.003 2.255.056 3.379.107 1.932.273 3.857.55 5.771.262 1.912.614 3.814 1.036 5.698.087.371.177.74.268 1.108-.877-1.03-1.701-2.096-2.465-3.193-1.692-2.461-3.092-5.08-4.08-7.832-.994-2.748-1.561-5.625-1.697-8.542-.132-2.92.186-5.864.777-8.804-1.211 2.769-1.895 5.771-1.989 8.81-.112 3.039.391 6.11 1.431 9.003 1.041 2.896 2.605 5.611 4.563 8.021.973 1.212 2.049 2.342 3.199 3.393.203.181.411.356.618.533.279 1.039.583 2.069.94 3.087-.184-.908-.354-1.816-.512-2.727.853.702 1.741 1.36 2.703 1.921-.665-.608-1.292-1.242-1.901-1.887.301-1.189.681-2.345 1.133-3.468.442-1.129.964-2.219 1.545-3.273.929-1.653 2.042-3.197 3.343-4.579-.086.523-.19 1.043-.263 1.567-.311 2.097-.519 4.202-.675 6.31-.538 1.583-.996 3.196-1.182 4.843.302-.958.656-1.894 1.046-2.815-.1 2.205-.146 4.414-.021 6.617.205-2.485.481-4.96.829-7.423.064-.476.144-.949.214-1.424.767-1.58 1.633-3.113 2.564-4.604 1.914-3.022 4.142-5.855 6.646-8.458.184-.191.38-.372.564-.561 1.573-.505 3.2-.903 4.868-1.224-1.262-.055-2.537.004-3.802.168 2.062-1.977 4.278-3.813 6.625-5.51 2.979-2.147 6.164-4.055 9.465-5.839-3.575 1.236-6.996 2.899-10.175 4.917-3.148 1.982-6.046 4.332-8.606 6.973-.435.115-.87.225-1.298.368-1.646.54-3.203 1.328-4.635 2.288.14-.57.264-1.143.416-1.71.298-1.153.618-2.302.959-3.444.639.364 3.148 1.637 5.451.506 2.663-1.311 4.373-5.501 4.373-5.501s-4.649-1.069-7.313.238c-.52.255-.935.589-1.272.959.49-1.425 1.044-2.829 1.631-4.22.235.189 2.636 2.042 5.161 1.151 2.659-.938 4.777-4.684 4.777-4.684s-4.225-1.507-6.884-.569c-.771.271-1.348.73-1.786 1.242.683-1.443 1.435-2.854 2.25-4.232-.073.173-.106.278-.106.278s1.931 2.257 4.477 1.794c2.544-.463 5.061-3.531 5.061-3.531s-3.559-1.96-6.103-1.497c-1.086.198-1.867.815-2.41 1.458.108-.172.211-.345.321-.515.884-1.347 1.852-2.647 2.894-3.896-.31.439-.46.779-.46.779s1.606 2.32 4.076 2.107c2.468-.212 5.175-2.905 5.175-2.905s-3.185-2.186-5.655-1.972c-1.058.092-1.868.615-2.45 1.183 2.006-2.28 4.299-4.347 6.91-6.077.562.244 3.382 1.345 5.625-.126 2.502-1.637 3.644-6.065 3.644-6.065s-4.828-.515-7.332 1.126m-26.636 29.951c.125.225.273.422.431.608-1.06.08-3.574.387-4.894 1.535-.333.289-.57.618-.74.958.058-1.155.168-2.305.305-3.452.112.051 2.356 1.05 4.088-.122.161-.108.311-.238.454-.375.096.297.209.584.356.848m-.605-4.84c-1.001.096-2.118.328-2.904.859-.506.343-.835.785-1.05 1.241.189-1.158.446-2.303.74-3.438-.007.068-.009.112-.009.112s1.638 1.097 3.301.619c-.028.191-.055.392-.078.607m10.108 12.159c-1.929 2.228-3.63 4.629-5.016 7.182-.358.653-.682 1.324-.997 1.997.158-.926.317-1.851.493-2.772.219-1.098.448-2.194.687-3.286 1.444-1.241 3.072-2.282 4.833-3.121m-6.461 2.527c-1.933 1.767-3.435 3.922-4.442 6.229-.515 1.151-.9 2.348-1.178 3.558-.258 1.209-.44 2.438-.398 3.664-.331-.35-.651-.704-.967-1.063-.104-.64-.213-1.279-.305-1.921-.282-1.896-.505-3.797-.685-5.698-.164-1.905-.305-3.809-.346-5.714-.026-.914-.035-1.829-.028-2.742.552.15 2.693.62 4.164-.658 1.317-1.146 1.833-3.465 1.999-4.452 1.637 1.445 4.117 1.454 4.117 1.454s.164-.227.366-.6c-.422 1.407-.813 2.822-1.155 4.246-.256 1.11-.49 2.226-.71 3.342-.141.121-.295.229-.432.355m3.041-10.289c.064-.736-.037-1.537-.471-2.313-.931-1.664-3.22-2.927-4.648-3.587 1.183-1.13 1.929-2.82 1.929-2.82s-3.07-.787-4.861.041c-.768.353-1.207.961-1.472 1.544.044-.148.075-.299.12-.445.367-1.171.809-2.324 1.315-3.453-.136.388-.177.673-.177.673s1.696 1.421 3.485.795c.875-.305 1.662-1.06 2.24-1.754-.159 1.108-.174 2.321.222 3.306.924 2.302 3.846 2.811 4.293 2.876-.642 1.471-1.229 2.961-1.763 4.466-.076.22-.138.448-.212.671"/><path d="m42.649 10.704c0 0 2.659-1.2 2.744-3.523.086-2.325-2.421-5.181-2.421-5.181s-2.713 2.686-2.798 5.011c-.087 2.323 2.475 3.693 2.475 3.693"/><path d="m43.504 11.563c0 0 1.282 2.492 3.761 2.573 2.477.081 5.524-2.271 5.524-2.271s-2.866-2.544-5.344-2.623c-2.478-.081-3.941 2.321-3.941 2.321"/></svg>