<svg xmlns="http://www.w3.org/2000/svg" viewBox="0 0 64 64" enable-background="new 0 0 64 64"><path d="m54.934 29.355c-8.373-8.526-.95-13.976-.95-13.976s-7.722.009-9.843 6.332c.449-.037.897.066 1.277.371 2.861 2.3-.848 5.65-2.576 4.158-2.074-1.786-.75-3.968.845-4.442-.433-.406-.863-.81-1.289-1.2-.101 1.539-2.09 2.801-3.188 1.854-1.873-1.614-.607-3.599.843-3.954-.416-.365-.829-.723-1.239-1.072-.317 1.395-2.122 2.438-3.147 1.554-1.689-1.456-.823-3.211.427-3.803-.314-.251-.63-.504-.939-.745-.034.188-.092.371-.202.537-1.738 2.625-5.113-.766-3.973-2.352.235-.327.491-.562.758-.72-.204-.142-.408-.288-.609-.427-.044.062-.083.123-.144.185-2.473 2.485-4.102-1.73-3.303-2.397.002-.002.004-.002.006-.005-.154-.091-.305-.179-.457-.267-.047.107-.111.213-.214.317-1.952 1.961-3.247-1.238-2.703-1.888-.146-.072-.289-.14-.433-.208-.014.044-.03.086-.058.13-.843 1.305-2.292-.574-2.17-1.085-.154-.06-.31-.12-.462-.175-.591 1.373-2.517-.263-2.311-.689 0-.001.001-.002.002-.003-.16-.037-.32-.076-.476-.109-.396.813-1.399.227-1.777-.255-.158-.013-.31-.017-.464-.021.32.391.464.901.208 1.218-.902 1.116-2.263-.214-2.068-1.085-.468.088-.903.222-1.305.395.229.048.448.137.643.291 2.673 2.112-.994 5.45-2.607 4.077-.527-.449-.804-.935-.906-1.415-.153.375-.274.778-.357 1.208.852-.295 2.265 1.146 1.138 2.09-.335.28-.888.091-1.28-.287.002.157.01.319.02.483.499.333 1.23 1.523.251 1.915.033.167.069.337.108.508.027-.024.054-.05.086-.065.43-.215 2.109 1.847.59 2.394.056.161.109.32.169.484.008-.009.013-.021.022-.028.365-.313 2.485 1.277 1.135 2.18-.079.053-.158.073-.236.078.077.17.153.339.235.511.011-.017.018-.036.03-.052.528-.656 3.872.683 1.901 2.715-.135.14-.274.219-.414.261.099.176.198.354.301.532.023-.038.04-.081.067-.114.654-.813 4.796.844 2.354 3.363-.088.09-.178.16-.268.216.147.223.3.447.453.672.152-.314.391-.619.759-.894 1.559-1.162 4.888 2.275 2.31 4.046-.051.036-.107.055-.161.082-9.909-1.651-17.343-.566-17.343-.566s22.259 8.266 30.48 21.152c4.5 7.053 12.798 10.373 19.188 4.908l-.012.053c.94.992 2.464.992 3.403-.001l4.198-4.427c.736-.776.887-1.928.47-2.867 3.322-4.481 3.969-10.752-4.793-19.676m3.66 12.932c-1.279.133-3.087-3.849-1.354-4.245 2.851-.65 2.216 4.157 1.354 4.245m-5.309 7.466c-.862-1.052-1.752-2.032-2.654-2.977.77-.893 2.05-1.357 2.882-.709 1.498 1.168.862 2.794-.228 3.686m-28.259-17.856c-1.285-1.707 1.867-5.271 3.97-2.688.822 1.01-.246 2.903-1.634 3.438-.749-.228-1.491-.437-2.227-.631-.035-.042-.073-.072-.109-.119m-1.28-16.084c2.561 1.997-1.097 5.344-2.64 4.042-2.536-2.141.964-5.35 2.64-4.042m-6.002.715c-2.537-2.14.963-5.35 2.64-4.041 2.559 1.996-1.098 5.344-2.64 4.041m9.365 2.61c2.561 1.997-1.098 5.345-2.64 4.044-2.537-2.143.964-5.351 2.64-4.044m7.326 14.268c-2.537-2.14.963-5.351 2.639-4.042 2.561 1.996-1.097 5.345-2.639 4.042m5.74-.885c2.561 1.996-1.098 5.344-2.641 4.042-2.536-2.14.964-5.348 2.641-4.042m-9.034-2.362c-2.537-2.141.963-5.35 2.64-4.042 2.559 1.997-1.098 5.344-2.64 4.042m-3.264-3.606c-2.537-2.143.963-5.351 2.64-4.044 2.559 1.997-1.098 5.345-2.64 4.044m-2.366-.894c1.278 1.571-2.009 5.296-3.97 2.689-1.285-1.707 1.867-5.271 3.97-2.689m3.208 7.427c.818-1.182 2.486-1.896 3.769-.32.379.466.35 1.121.08 1.743-1.293-.531-2.577-1.002-3.849-1.423m14.827 2.73c1.798 1.402.529 3.464-.919 4.12-.86-.593-1.728-1.146-2.599-1.673-.121-1.791 2.231-3.45 3.518-2.447m6.583 10.444c-.942-.959-1.897-1.883-2.875-2.735.748-.996 2.125-1.56 3.004-.872 1.455 1.134.902 2.701-.129 3.607m.844-3.824c-2.535-2.142.965-5.35 2.641-4.043 2.56 1.996-1.098 5.343-2.641 4.043m-3.418-3.483c-2.537-2.142.963-5.351 2.639-4.043 2.56 1.996-1.098 5.344-2.639 4.043m-.891.394c1.445 1.128.908 2.686-.111 3.594-1.02-.857-2.052-1.663-3.097-2.414.671-1.182 2.24-1.936 3.208-1.18m10.485 2.646c2.56 1.997-1.098 5.344-2.64 4.042-2.536-2.14.964-5.349 2.64-4.042m-.667-7.417c2.08 3.035-1.241 4.633-2.487 2.709-2.052-3.162 1.127-4.696 2.487-2.709m-3.562-4.547c2.861 2.299-.848 5.649-2.578 4.157-2.846-2.451.703-5.663 2.578-4.157m-3.633-4.006c2.861 2.299-.848 5.649-2.576 4.157-2.846-2.451.703-5.662 2.576-4.157m-2.66 5.256c2.561 1.995-1.098 5.344-2.639 4.042-2.537-2.14.963-5.349 2.639-4.042m-3.485-3.55c2.56 1.996-1.097 5.345-2.64 4.042-2.537-2.14.964-5.35 2.64-4.042m-3.519-3.583c2.56 1.997-1.099 5.345-2.641 4.043-2.537-2.142.963-5.351 2.641-4.043m-3.492-3.555c2.56 1.996-1.098 5.344-2.64 4.042-2.537-2.141.963-5.35 2.64-4.042m-3.486-3.549c2.561 1.995-1.098 5.344-2.64 4.041-2.536-2.14.964-5.35 2.64-4.041m-3.327-3.388c2.561 1.997-1.097 5.345-2.64 4.042-2.536-2.14.965-5.35 2.64-4.042m-3.535-3.185c2.561 1.997-1.098 5.344-2.64 4.042-2.537-2.141.963-5.349 2.64-4.042m-3.484-2.628c2.322 1.813-.995 4.849-2.395 3.668-2.3-1.944.875-4.854 2.395-3.668m-3.663-1.548c1.895 1.589-.188 3.42-1.339 2.397-1.893-1.681.098-3.437 1.339-2.397m-1.652 2.831c2.828 2.27-.852 5.595-2.561 4.122-2.813-2.422.708-5.609 2.561-4.122m-5.999 4.959c-1.021-1.263.704-3.291 2.355-1.362 1.004 1.173-.795 3.292-2.355 1.362m1.52 3.731c-1.166-1.549 1.694-4.782 3.602-2.439 1.16 1.426-1.822 4.804-3.602 2.439m2.581 3.547c-1.284-1.707 1.867-5.271 3.97-2.688 1.278 1.571-2.009 5.295-3.97 2.688m3.128 3.601c-1.284-1.707 1.867-5.271 3.97-2.688 1.278 1.57-2.009 5.294-3.97 2.688m5.231 6.462c.051.063.074.134.112.201-1.077-.255-2.13-.47-3.164-.658.799-.664 2.003-.805 3.052.457m31.633 20.64c-.455-.62-.923-1.208-1.393-1.795.795-.971 2.032-1.743 2.595-1.384 1.018.651-.046 2.261-1.202 3.179m2.751-3.859c-2.39 1.345.671-5.485 1.699-3.689.505.88-.823 3.196-1.699 3.689"/></svg>