<svg xmlns="http://www.w3.org/2000/svg" viewBox="0 0 64 64" enable-background="new 0 0 64 64"><path d="m49.322 26.432c.243-1.223.38-2.487.38-3.788 0-8.959 2.504-14.558 2.53-14.613l.768-1.685-1.882.379c-.238.048-2.427.5-5.519 1.437-1.646-2.105-3.467-3.127-3.55-3.173l-.775-.415-.522.687c-.011.014-.901 1.152-3.397 2.749-1.461-2.599-1.423-4.667-1.423-4.686l.052-1.324-1.328.38c-.141.04-3.247.949-6.228 3.258-.802-.643-1.426-1.314-1.785-2.019l-.513-1.01-.956.655c-.097.066-2.163 1.507-3.876 3.689-2.498-1.291-4.213-1.962-4.365-2.02l-2.209-.849.926 2.096c.032.074 3.252 7.53.959 16.232-.391 1.48-.499 2.977-.338 4.449-2.16-2.177-3.5-3.905-3.5-3.905s-.732 17.702 18.541 17.702l-.404 7.208c-.811-1.265-2.081-2.524-4.093-3.552-4.676-2.388-15.815-.816-15.815-.816s4.035 9.326 8.71 11.714c4.611 2.356 8.668.899 10.801-.276l-.397 7.064h4.958l-.742-13.236 6.238-1.574-6.422-1.725-.27-4.787c15.673 0 18.545-17.114 18.545-17.114s-1.193 1.213-3.099 2.868m-1.602-3.788c0 2.117-.381 4.135-1.06 5.983-4.187 3.277-9.937 6.937-14.75 6.937-2.885 0-5.805-1.194-8.466-2.846-.06-.12-.124-.239-.178-.362-1.682-3.863-.088-8.41 4.488-12.803 6.436-6.179 17.679-9.473 22.007-10.561-.798 2.385-2.041 7.143-2.041 13.652m-5.997-15.578c.485.351 1.181.928 1.883 1.729-1.606.535-3.367 1.183-5.175 1.95l-.594-.252c-.172-.073-.345-.146-.518-.22 2.315-1.348 3.693-2.508 4.404-3.207m-7.66-2.45c.169 1.055.588 2.63 1.604 4.396-.181.1-.37.201-.563.303-1.788-.791-3.536-1.626-4.999-2.519 1.481-1.071 2.97-1.78 3.958-2.18m-8.564.826c2.03 2.609 6.422 4.601 10.563 6.368-1.38.658-2.758 1.387-4.091 2.191-3.105-2.604-6.289-4.637-8.928-6.109.857-1.049 1.799-1.91 2.456-2.45m-7.272 2.138c2.637 1.231 7.442 3.738 12.044 7.509-1.406.951-2.736 1.99-3.922 3.129-5.416 5.199-6.08 9.658-5.566 12.648-.653-.503-1.281-1.019-1.878-1.536-.801-2.086-.943-4.293-.373-6.455 1.72-6.528.58-12.31-.305-15.295"/></svg>