<svg xmlns="http://www.w3.org/2000/svg" viewBox="0 0 64 64" enable-background="new 0 0 64 64"><path d="m42.079 17.179l-2.005-3.601 4.701.215-2.209-3.348 4.297.074-2.328-2.965 4.465.376-2.479-3.08 3.826-1.102c-11.779-6.61-17.98 6.786-18.672 19.198-3.584-12.57-14.155-25.475-24.789-14.221l4.148-.289-1.636 3.863 4.378-1.949-1.516 3.697 4.295-1.598-.895 2.788c-5.936-1.899-11.376-.48-13.66 7.288l3.554-1.906.322 4.199 2.999-3.521.351 3.996 3.087-3.164.702 4.211 3.281-3.566 1.102 4.574 2.96-3.098.717 2.688c-8.249 1.297-14.342 5.75-9.069 14.255l.745-3.238 2.926 2.416-.623-3.914 2.813 2.273-.342-3.746 3.15 2.203-.495-4.107 3.609 2.199-.365-3.631 1.06.614c.396 1.249 1.197 2.28 2.302 2.904.317.18.658.315 1.009.421l4.792 26.413h1.524l-.173-.952 6.464-1.2-6.895-1.172-.774-4.27 6.363-1.184-6.787-1.149-.795-4.381 5.876-1.093-6.267-1.063-.82-4.52 5.592-1.04-5.964-1.012-.574-3.162c.791-.015 1.565-.206 2.285-.544.39.406.823.752 1.303 1.002l-2.167.403 6.037 1.025 1.399 4.647-5.114.952 5.691.964 1.413 4.695-5.184.964 5.769.979 1.394 4.63-5.456 1.015 6.072 1.03 1.336 4.436h1.566l-7.893-26.22c.751-.673 1.221-1.607 1.311-2.658.041-.482-.021-.968-.136-1.443l2.149-1.351-.525 3.439 3.402-2.232-.666 3.898 2.982-2.219-.506 3.547 2.68-2.268-.771 3.719 2.789-2.406.51 3.02c5.41-8.526-.439-12.442-8.263-13.12l.876-3.028 2.959 2.859 1.104-4.223 3.281 3.291.701-3.885 3.086 2.92.354-3.688 2.996 3.248.322-3.875 3.557 1.761c-3.08-9.662-11.884-8.695-19.921-3.907m-22.69-.363c-.773-.403-1.546-.763-2.315-1.07l2.853-1.148-.538 2.218m3.314 1.999c-.381-.26-.763-.51-1.146-.751l1.426-.545-.28 1.296m.729 7.842l.676-.687.26.618c-.314.019-.626.043-.936.069m16.727-1.041c-.15-.273-.33-.53-.531-.774l.263-.576 1.444 1.354c-.388-.014-.783-.005-1.176-.004m-1.118-6.421l-.977-1.863 3.602.097c-.889.546-1.766 1.138-2.625 1.766"/></svg>