<svg xmlns="http://www.w3.org/2000/svg" viewBox="0 0 64 64" enable-background="new 0 0 64 64"><path d="m40.725 51.671c-3.785.997-5.773 3.045-6.818 4.806v-4.142c2.59-.736 4.761-3.01 4.761-6.826 0-.746-.063-1.526-.163-2.32.482.634.982 1.23 1.504 1.759 1.585 1.603 3.332 2.274 4.981 2.274 5.228 0 9.471-6.733 4.448-11.816-.521-.527-1.112-1.035-1.738-1.524.784.104 1.555.166 2.293.166 9.344 0 9.344-13.494 0-13.494-.738 0-1.509.064-2.293.167.626-.488 1.216-.996 1.737-1.524 5.022-5.083.78-11.815-4.446-11.815-1.65 0-3.397.67-4.982 2.274-.521.528-1.022 1.125-1.504 1.758.1-.793.163-1.575.163-2.321-.001-4.729-3.335-7.093-6.668-7.093-3.333-.001-6.667 2.363-6.667 7.092 0 .746.063 1.527.164 2.32-.483-.633-.983-1.231-1.505-1.758-1.585-1.604-3.332-2.274-4.981-2.274-5.228 0-9.472 6.733-4.449 11.815.521.528 1.111 1.036 1.737 1.524-.783-.103-1.555-.166-2.292-.166-9.343 0-9.343 13.493-.001 13.493.001 0 0 0 .001 0 .738 0 1.51-.063 2.294-.166-.627.489-1.217.997-1.738 1.524-4.01 4.057-2.112 9.162 1.474 11.06-3.555.513-6.585 1.377-6.585 1.377s6.995 7.063 12.08 8.401c4.127 1.088 6.911.367 8.564-.479v6.237h3.81v-1.481c1.48.985 4.471 2.212 9.334.931 5.084-1.339 12.079-8.402 12.079-8.402s-9.511-2.716-14.594-1.377m-15.277-4.751c-.441-.167-.899-.323-1.401-.454-.495-.13-1.032-.222-1.598-.281.525-.328 1.042-.731 1.542-1.237.521-.528 1.022-1.125 1.505-1.759-.101.794-.164 1.574-.164 2.32.001.499.046.965.116 1.411m6.552 3.754c-2.37 0-4.762-1.598-4.762-5.165 0-.607.048-1.287.148-2.075l.893-7.053-4.291 5.631c-.478.627-.917 1.142-1.343 1.572-1.105 1.118-2.361 1.71-3.634 1.71-1.865 0-3.691-1.285-4.445-3.124-.436-1.067-.843-3.188 1.344-5.401.431-.435.938-.88 1.554-1.361l5.581-4.352-6.988.915c-.772.101-1.443.15-2.05.15-3.525 0-5.103-2.42-5.103-4.818 0-2.399 1.579-4.819 5.104-4.819.605 0 1.275.049 2.048.149l6.979.911-5.572-4.349c-.616-.48-1.125-.925-1.554-1.36-2.187-2.213-1.78-4.334-1.343-5.402.753-1.839 2.58-3.123 4.445-3.123 1.272 0 2.529.591 3.634 1.71.426.429.865.944 1.343 1.571l4.291 5.63-.893-7.052c-.1-.789-.148-1.467-.148-2.076 0-3.568 2.392-5.165 4.762-5.165 2.37 0 4.763 1.597 4.763 5.164 0 .609-.049 1.289-.148 2.077l-.895 7.066 4.293-5.646c.474-.622.912-1.136 1.343-1.571 1.104-1.118 2.362-1.709 3.634-1.709 1.864 0 3.691 1.284 4.443 3.123.438 1.067.844 3.189-1.342 5.401-.431.436-.939.881-1.555 1.361l-5.576 4.352 6.984-.914c.771-.102 1.442-.15 2.048-.15 3.525 0 5.104 2.421 5.104 4.819 0 2.399-1.578 4.819-5.104 4.819-.605 0-1.276-.049-2.048-.15l-6.978-.913 5.569 4.351c.619.484 1.128.929 1.555 1.361 2.187 2.214 1.78 4.334 1.343 5.402-.753 1.838-2.579 3.123-4.444 3.123-1.272 0-2.529-.592-3.634-1.711-.427-.43-.865-.944-1.344-1.571l-4.29-5.631.893 7.053c.1.788.148 1.468.148 2.075.001 3.567-2.391 5.165-4.762 5.165"/><circle cx="32" cy="27.301" r="9"/></svg>