<svg xmlns="http://www.w3.org/2000/svg" viewBox="0 0 64 64" enable-background="new 0 0 64 64"><path d="m47.062 47.052c-.973.972-2.11 4.343-1.207 5.247.906.904 4.277-.232 5.251-1.206.972-.973 2.11-4.344 1.206-5.248-.905-.906-4.278.233-5.25 1.207"/><path d="m38.881 38.871c.973-.973 2.111-4.344 1.207-5.248s-4.277.233-5.249 1.207c-.974.972-2.111 4.344-1.208 5.248.905.904 4.276-.234 5.25-1.207"/><path d="m46.198 39.731c-.904-.904-4.277.233-5.25 1.207-.973.972-2.111 4.344-1.207 5.248s4.277-.233 5.25-1.207c.973-.972 2.112-4.343 1.207-5.248"/><path d="m38.153 48.992c-.973.974-2.101 5.096-1.195 6 .904.904 5.219-.031 6.191-1.004s1.527-4.819.623-5.724c-.904-.903-4.646-.244-5.619.728"/><path d="m37.718 42.102c-.904-.904-4.529-.018-5.502.955s-2.355 4.84-1.451 5.744 5.112-.139 6.084-1.111c.972-.973 1.773-4.684.869-5.588"/><path d="m31.769 36.263c-.904-.904-4.553-.151-5.527.821-.973.973-1.835 4.73-.93 5.635.902.904 4.772.152 5.746-.82.972-.973 1.615-4.731.711-5.636"/><path d="m49.005 38.145c-.973.973-1.633 4.713-.729 5.616.904.905 4.752.351 5.725-.622s1.91-5.287 1.006-6.191-5.029.224-6.002 1.197"/><path d="m42.112 37.707c.904.905 4.615.107 5.59-.866.973-.973 2.016-5.18 1.111-6.084-.904-.905-4.773.478-5.746 1.451-.972.973-1.859 4.596-.955 5.499"/><path d="m41.909 31.05c.975-.974 1.725-4.842.82-5.746s-4.662-.041-5.635.932c-.975.974-1.727 4.62-.822 5.523.905.905 4.665.262 5.637-.709"/><path d="m60.306 35.467c-.414-.807-.897-1.602-1.465-2.382.1-.129.16-.254.131-.368-.752-2.979-2.869-4.178-4.645-4.28-.78-.634-1.609-1.243-2.474-1.831.114-.159.183-.31.165-.439-.334-2.435-3.264-2.91-5.199-2.505-1.023-.513-2.065-.983-3.117-1.415.634-.818-3.828-2.203-5.294-1.782-.845-.22-1.677-.397-2.498-.547 2.661-4.873 4.017-10.208 4.017-10.208s-4.286 1.931-8.36 4.957c.842-4.703.755-8.964.755-8.964s-3 2.489-5.896 5.952c-.899-4.918-2.65-9.155-2.65-9.155s-1.654 2.979-3.046 6.86c-3.221-4.182-7.113-7.36-7.113-7.36s-.041 3.066.48 6.863c-4.833-3.481-10.793-5.56-10.793-5.56s2.08 5.959 5.562 10.791c-3.798-.521-6.866-.481-6.866-.481s3.18 3.892 7.362 7.11c-3.883 1.393-6.862 3.047-6.862 3.047s4.238 1.75 9.158 2.649c-3.464 2.895-5.953 5.895-5.953 5.895s4.261.088 8.966-.755c-3.027 4.073-4.96 8.358-4.96 8.358s5.301-1.347 10.163-3.989c.153.855.336 1.719.565 2.588-.313 1.547.968 5.634 1.769 5.199.444 1.068.929 2.121 1.451 3.151-.384 1.933.103 4.81 2.515 5.14.127.018.273-.049.43-.158.595.869 1.211 1.695 1.842 2.471.104 1.773 1.304 3.888 4.281 4.64.109.027.23-.029.354-.122.788.578 1.592 1.066 2.406 1.487.496 1.351 2.645 2.019 4.363 1.468.754.124 1.516.208 2.289.208 1.157 0 2.319-.146 3.478-.428 1.432-.003 2.943-.73 3.619-1.354.977-.486 1.943-1.068 2.896-1.749 1.253.248 6.609-5.108 6.352-6.354.688-.964 1.288-1.938 1.773-2.917.634-.706 1.365-2.257 1.329-3.702.438-1.881.511-3.762.206-5.609.582-1.741-.103-3.943-1.486-4.42m-48.544-8.426c0 0 2.687-1.528 5.958-2.358-3.883-1.745-7.475-4.459-7.475-4.459s2.944-.557 6.355-.431c-2.763-3.585-4.648-7.845-4.648-7.845s4.261 1.885 7.848 4.648c-.127-3.411.43-6.355.43-6.355s2.713 3.59 4.459 7.473c.831-3.271 2.359-5.956 2.359-5.956s1.644 3.768 2.357 7.632c2.639-1.89 5.639-2.962 5.639-2.962s-.203 1.367-.699 3.15c-.064.229-.133.464-.207.704-.008.024-.014.048-.021.072-.01.028-.02.058-.028.086-1.131.388-2.868 1.084-4.295 2.097-1.119-2.154-3.349-3.82-3.349-3.82s-.758 1.684-1.186 3.635c-2.123-.92-5.644-2.74-5.644-2.74s1.821 3.52 2.741 5.642c-1.951.428-3.634 1.186-3.634 1.186s1.667 2.229 3.82 3.347c-1.013 1.427-1.709 3.164-2.097 4.294-.024.008-.049.017-.073.024-.027.008-.053.016-.079.024-.237.072-.47.141-.696.203-1.791.501-3.167.705-3.167.705s1.074-3 2.963-5.639c-3.864-.713-7.631-2.357-7.631-2.357m48.189 16.084c-1.446-.229-3.978.431-4.755 1.209-.975.973-1.764 4.691-.859 5.596.459.459 1.701.539 2.941.382-.298.456-.604.89-.914 1.296-1.344.142-2.897.678-3.482 1.263-.584.584-1.121 2.138-1.262 3.482-.431.331-.863.637-1.299.924.16-1.244.08-2.493-.38-2.954-.903-.904-4.623-.113-5.597.859-.778.779-1.438 3.311-1.209 4.756-.331.027-.665.062-.996.062-.133 0-.264-.018-.396-.021.369-1.114.341-2.607-.314-3.262-.903-.904-4.081.04-4.972.93-.218.218-.399.43-.547.637-.598-.337-1.188-.72-1.771-1.156.97-2.273 1.783-5.916 1.181-6.52-1.661-1.661-5.226.463-6.155 1.367-.43-.58-.85-1.188-1.26-1.816 1.112-1.965 2.101-4.863 1.521-5.443-.749-.75-3.13-.434-4.437.202-.535-1.138-1.025-2.3-1.457-3.468.523-1.34.83-2.838.305-3.363-.438-.439-.994-.666-1.551-.686-.092-.373-.177-.744-.254-1.113.994-.078 2.051-.444 2.588-.982.471-.47.977-1.502 1.274-2.544.594-.333 1.189-.695 1.769-1.093-.283 1.062-.334 2.105.111 2.552.903.904 4.275-.234 5.25-1.207.972-.973 2.11-4.344 1.206-5.248-.446-.445-1.491-.394-2.553-.111.397-.578.76-1.174 1.092-1.767 1.044-.298 2.075-.804 2.547-1.274.54-.54.908-1.605.983-2.603.369.075.737.153 1.11.244.014.564.242 1.129.687 1.574.53.53 2.049.213 3.396-.317 1.158.426 2.313.907 3.449 1.441-.644 1.3-.97 3.71-.214 4.464.581.583 3.503-.417 5.469-1.534.621.408 1.218.834 1.798 1.269-.902.922-3.037 4.494-1.373 6.159.603.604 4.248-.211 6.521-1.181.443.593.829 1.182 1.16 1.768-.209.148-.423.331-.642.55-.889.89-1.834 4.067-.929 4.972.652.654 2.143.682 3.257.314.014.47.003.935-.037 1.391"/></svg>