<svg xmlns="http://www.w3.org/2000/svg" viewBox="0 0 64 64" enable-background="new 0 0 64 64"><path d="m61.96 31.649c-1.213-21.086-12.106-24.169-20.888-24.17-.001 0-.001 0-.001 0-2.219.001-4.301.197-6.06.351-.015-.959.026-1.986.187-3.121.003-.016-.004-.03-.006-.045.002-.008.006-.016.006-.024 0-.353-.664-.64-1.486-.64-.82 0-1.484.287-1.484.64-.23 1.194-.555 2.326-.917 3.371-11.587.07-26.85 1.908-29.18 22.922-1.69 15.251 13.205 29.067 29.962 29.067s30.748-13.025 29.867-28.351m-26.325-20.862c.409-.036.833-.073 1.269-.108-.524.211-1.033.43-1.512.65-.035-.158-.059-.346-.091-.514.112-.009.219-.018.334-.028m-5.559.238c-.131.273-.259.535-.382.776-.272-.248-.586-.499-.933-.742.438-.015.876-.025 1.315-.034m22.571 37.301c-5.205 5.513-12.697 8.674-20.554 8.674-8.007 0-15.96-3.544-21.276-9.48-4.307-4.811-6.333-10.584-5.704-16.257 1.181-10.648 5.892-15.734 11.938-18.143 5.858-1.088 11.37.91 11.37.91s-12.529-3.11-17.442 12.988c6.183-9.639 16.823-6.802 19.622-10.355 0 6.869 4.992 3.536 7.515 6.63 3.246 3.978 4.434 11.106 8.168 12.51-3.678-7.896 2.344-7.588-6.117-18.185 4.457 2.769 6.768-.033 12.854 2.462-5.207-8.511-13.537-6.05-13.537-6.05s3.39-3.089 6.984-3.003c6.072 1.418 11.657 6.189 12.498 20.795.342 5.965-1.902 11.826-6.319 16.504"/></svg>