<svg xmlns="http://www.w3.org/2000/svg" viewBox="0 0 64 64" enable-background="new 0 0 64 64"><path fill-rule="evenodd" d="m34.76 13.734c.801-2.69 3-6.47 8.947-6.47v-2.554c-6.627 0-9.826 3.478-11.176 7.034.31-2.519.504-5.525-.099-6.843-1.126-2.466-4.095-3.575-6.631-2.478-2.532 1.097-3.673 3.985-2.545 6.451.507 1.11 2.309 2.614 4.137 3.936-9.226-3.932-24.393-1.241-24.393 16.507 0 13.43 15.781 32.683 22.668 32.683 3.125 0 4.25-1.955 6.063-1.955 1.844 0 2.438 1.951 6.436 1.951 6.892 0 22.833-19.187 22.833-32.679 0-18.994-17.37-20.743-26.24-15.583"/></svg>