<svg xmlns="http://www.w3.org/2000/svg" viewBox="0 0 64 64" enable-background="new 0 0 64 64"><path d="m61.299 29.224c-3.07-12.618-15.486-21.224-29.272-21.224-.548 0-1.098.015-1.65.042-.227-.638-.461-1.147-.711-1.627.765.056 1.525.065 2.289-.004 1.093-.1 2.162-.339 3.291-.799.014-.004.027.003.041-.002s.021-.021.035-.027c.018-.008.035-.012.053-.02l-.006-.016c.273-.182.364-.664.184-1.166-.182-.504-.562-.819-.89-.78l-.008-.022c-.024.01-.048.015-.072.025-.005.001-.011-.002-.017 0-.005.002-.008.008-.012.01-3.113 1.265-6.111.571-9.817-.267-3.128-.704-6.237-1.347-11.149-1.347-1.543 0-1.468 2.171.075 2.171 3.806 0 7.607.619 10.607 1.297.877.198 1.726.387 2.56.549.261.58.585 1.403.911 2.27-.72.094-1.439.202-2.161.345-16.18 3.189-26.424 17.582-22.879 32.143 3.07 12.619 15.486 21.225 29.272 21.225 2.125 0 4.283-.205 6.445-.631 16.182-3.191 26.426-17.584 22.881-32.145m-35.563-14.961c1.049.339 2.463.527 4.011.411l1.626.835-3.08 4.258-4.777-2.709 2.22-2.795m12.883 18.599l-5.217-3.369 3.111-4.866 5.145 3.317-3.039 4.918m5.336-4.502l4.849 3.346-2.851 4.865-4.972-3.323 2.974-4.888m-7.733 5.826l-3.193 5.04-5.24-3.377 3.192-5.035 5.241 3.372m-5.636-4.991l-5.133-3.24 3.192-4.738 5.1 3.104-3.159 4.874m-2.433 1.264l-3.176 5.023-5.042-3.322 3.132-4.946 5.086 3.245m-10.463 1.355l-4.559-3.105 3.008-4.775 4.639 2.965-3.088 4.915m-2.204 1.317l-2.731 4.806-4.233-3.192 2.549-4.717 4.415 3.103m2.555.271l4.971 3.32-2.973 4.89-4.849-3.346 2.851-4.864m7.333 3.706l5.218 3.373-3.113 4.862-5.144-3.316 3.039-4.919m8.048 3.735l5.132 3.239-3.19 4.734-5.099-3.102 3.157-4.871m2.418-1.328l3.176-5.025 5.043 3.322-3.133 4.947-5.086-3.244m10.463-1.358l4.561 3.107-3.008 4.774-4.639-2.963 3.086-4.918m2.205-1.315l2.73-4.805 4.234 3.189-2.55 4.719-4.414-3.103m4.356-5.938l2.214-4.425 3.78 3.241-1.93 4.369-4.064-3.185m-2.001-.416l-4.713-3.339 2.569-4.481 4.507 3.327-2.363 4.493m-2.593-9.284l-4.844-3.201 2.408-3.843 4.651 3.076-2.215 3.968m-2.033 1.041l-2.7 4.541-5.089-3.307 2.838-4.442 4.951 3.208m-5.401-4.615l-4.979-2.868 2.671-3.627 4.846 2.623-2.538 3.872m-1.817 1.002l-2.918 4.456-5.105-3.088 3.014-4.261 5.009 2.893m-5.4-4.177l-.822-.412c.715-.252 1.326-.554 1.8-.867l-.978 1.279m-7.689 6.483l-3.201 4.722-4.718-2.947 3.206-4.509 4.713 2.734m-10.037 1.549l-4.099-2.558 3.187-4.2 4.106 2.284-3.194 4.474m-2.178 1.313l-2.915 4.728-3.853-2.765 2.798-4.543 3.97 2.58m-4.552 5.951l-2.407 4.655-2.58-2.158c.221-1.784.66-3.544 1.308-5.252l3.679 2.755m-2.099 6.133l4.065 3.184-2.214 4.426-3.78-3.242 1.929-4.368m6.066 3.6l4.712 3.338-2.569 4.482-4.508-3.328 2.365-4.492m2.593 9.285l4.843 3.201-2.406 3.846-4.652-3.079 2.215-3.968m2.033-1.041l2.701-4.542 5.089 3.307-2.837 4.444-4.953-3.209m5.4 4.615l4.98 2.867-2.67 3.626-4.846-2.621 2.536-3.872m1.819-1.003l2.918-4.455 5.104 3.088-3.012 4.26-5.01-2.893m10.74-1.077l4.773 2.704-3.15 3.96-4.703-2.412 3.08-4.252m2.348-1.228l3.201-4.723 4.719 2.946-3.207 4.51-4.713-2.733m10.037-1.552l4.1 2.561-3.186 4.2-4.107-2.286 3.193-4.475m2.177-1.311l2.915-4.729 3.854 2.768-2.799 4.542-3.97-2.581m4.553-5.95l2.408-4.655 2.59 2.165c-.221 1.785-.658 3.545-1.305 5.253l-3.693-2.763m4.026-5.848c.339-.774.652-1.533.945-2.275.144 1.09.208 2.182.19 3.271-.366-.328-.74-.657-1.135-.996m-2.159-8.88c.189-.429.363-.841.535-1.251.506.938.95 1.906 1.323 2.908-.592-.547-1.211-1.1-1.858-1.657m-.717-3.329l-1.307 2.855-4.348-3.323 2.014-3.795c1.374 1.298 2.599 2.722 3.641 4.263m-19.605-11.317l-.738.967c-.01-.051-.021-.099-.045-.136-.268-.831-1.948-1.449-4.615-1.521-.011-.046-.021-.086-.031-.131.361-.013.722-.027 1.081-.027.904 0 1.798.049 2.684.126l1.664.722m-8.539-.465c-1.279.229-2.249.591-2.863.966-.258-.113-.525-.236-.778-.345.585-.152 1.175-.293 1.772-.411.65-.128 1.307-.229 1.965-.314-.032.033-.065.07-.096.104m-6.229 1.415l2.306 1.043c0 .024-.005.052-.003.075.008.087.043.174.091.261l-3.024 3.717-4.176-2.232 1.185-1.287c1.16-.602 2.369-1.129 3.621-1.577m-17.6 22.81c.366.325.738.652 1.13.99-.338.771-.651 1.526-.943 2.268-.141-1.086-.205-2.174-.187-3.258m3.29 9.87c-.19.432-.365.847-.539 1.26-.507-.942-.954-1.916-1.328-2.924.596.549 1.218 1.104 1.867 1.664m.712 3.339l1.313-2.865 4.347 3.322-2.021 3.811c-1.373-1.299-2.597-2.725-3.639-4.268m19.609 11.307l2.756-3.606 4.739 2.376-1.837 2.074c-.434.018-.87.032-1.303.032-.876 0-1.743-.044-2.603-.116l-1.752-.76m9.989-1.089c.747.343 1.475.663 2.181.965-.579.15-1.164.29-1.757.407-.645.127-1.293.227-1.945.313.498-.535 1.006-1.098 1.521-1.685m4.813.155l-2.604-1.177 3.2-3.936 4.176 2.233-1.233 1.341c-1.135.586-2.317 1.101-3.539 1.539"/></svg>