<svg xmlns="http://www.w3.org/2000/svg" viewBox="0 0 64 64" enable-background="new 0 0 64 64"><path d="m9.925 31.582l12.877 7.887 4.783-4.572-12.181-18.979 12.941 18.25 7.918-7.566-7.79-17.027 8.579 16.273 7.42-7.094.674-12.877.363 11.887 16.454-15.726c0 0-37.086-1.356-50.538 12.096-.238.236-.441.463-.668.695 1.982 1.269 3.277 3.336 3.277 5.678 0 3.863-3.512 6.992-7.842 6.992-1.291 0-2.508-.284-3.582-.777-3.576 11.135 9.511 15.02 14.398 18.284l5.049-4.826-12.132-8.598"/><path d="m61.242 19.711c1.006-9.802.721-17.673.721-17.673l-15.727 16.451 11.887.361-12.881.675-7.092 7.424 16.271 8.574-17.027-7.789-7.567 7.918 18.254 12.938-18.982-12.178-4.572 4.782 7.889 12.876-8.598-12.133-4.825 5.047c4.271 6.4 9.606 26.852 30.873 5.587 4.135-4.136 6.867-10.504 8.674-17.342-1.281-1.077-2.037-2.44-1.998-3.907.014-.467.113-.92.277-1.352-1.869-1.147-3.031-2.803-2.982-4.613.077-2.92 3.268-5.254 7.405-5.646"/><path d="m17.009 45.006l-7.379 7.052 2.307 2.306 7.056-7.379c-.295-.441-.585-.817-.874-1.106s-.669-.579-1.11-.873"/></svg>