<svg xmlns="http://www.w3.org/2000/svg" viewBox="0 0 64 64" enable-background="new 0 0 64 64"><path d="m53.943 35.448c6.394-12.03 6.377-22.327 3.456-27.264-1.215-2.053-2.938-3.184-4.851-3.184-.188 0-.379.011-.567.034-3.137.376-4.355 3.938-6.043 8.867-1.195 3.491-2.679 7.783-5.124 12.001-1.357-1.775-3.068-3.262-4.911-4.138.006-.003.012-.007.018-.01-.058-.023-.111-.039-.169-.063-.507-.23-1.019-.432-1.537-.564-.178-.045-.352-.08-.526-.117-13.103-3.456-17.258 13.266-10.228 11.16 2.048-.614 3.431-3.963 7.608-7.329 3.143 1.908 5.211 5.305 4.493 7.787-2.387 8.254-9.596 12.007-17.848 12.007-1.859 0-3.771-.19-5.692-.563-.759-.146-1.495-.344-2.223-.563-1.519-.457-2.974-1.051-4.345-1.776l-3.454 2.951c.856 1.35 1.821 2.618 2.878 3.801 3.841 4.305 8.941 7.406 14.845 8.551 9.261 1.795 18.278-1.621 24.4-8.291 3.388-4.271 6.648-6.051 9.438-6.588-.54 7.261-6.123 16.843-2.368 16.843.143 0 .301-.015.472-.043 6.652-1.111 10.548-9.469 10.326-14.765-.237-5.677-4.655-7.884-8.048-8.744m-12.769.867c-3.09 8.965-12.628 13.518-22.348 13.518-2.723 0-5.479-.417-8.156-1.211-.646-.289-1.278-.602-1.894-.941.594-.582 1.201-1.214 1.771-1.889.38.096.741.176 1.095.244 2.052.397 4.096.599 6.073.599 4.873 0 9.127-1.214 12.491-3.438 1.221.431 2.944.167 4.563-.85 2.376-1.492 3.586-3.994 2.704-5.59-.224-.404-.573-.693-.992-.898.391-.851.732-1.738 1.004-2.676.594-2.055-.031-4.519-1.717-6.759-.739-.984-1.752-1.994-2.976-2.85.264-.178.541-.354.825-.53.034.009.067.017.103.021 2.822.324 9.697 6.741 7.454 13.25m10.722-1.264c-5.475-.767-8.938 2.166-8.938 2.166 1.313-3.578.666-7.036-.91-9.459 6.079-9.929 6.608-20.311 10.172-20.738.11-.014.219-.02.328-.02 4.673 0 8.048 12.111-.652 28.051m.043 21.804c.175-1.193.836-3.284 1.348-4.904 1.325-4.194 3.103-9.819 1.918-14.026 2.348.954 4.639 2.796 4.788 6.352.179 4.286-2.927 11.248-8.054 12.578"/></svg>