<svg xmlns="http://www.w3.org/2000/svg" viewBox="0 0 64 64" enable-background="new 0 0 64 64"><path d="m53.59 35.824c-6.838-8.061-17.214-9.661-27.203-18.149.33-.235.529-.399.561-.426l1.373-1.151-1.072-1.429c-.126-.169-3.146-4.133-7.601-4.619-.572-.062-1.146-.094-1.708-.094-.937 0-1.847.089-2.683.259-1.158-.831-2.36-1.36-3.503-1.543.097-.663.347-1.345.751-2.059l.862-1.518-1.455-.981-1.405-.948-1.728-1.166-1.026 1.804c-1.951 3.429-1.842 6.314-1.292 8.291-.328 1.27-.264 2.782.187 4.388-.763 1.42-1.324 3.302-1.576 5.32-.541 4.43 2.112 8.259 2.225 8.419l1.242 1.764 1.617-1.436c.037-.033.286-.259.642-.641 4.58 8.111 13.154 21.059 20.999 27.051 18.259 13.954 36.595-3.686 21.793-21.136m-44.716-6.686c0 0-2.354-3.345-1.896-7.102.277-2.223.949-4.143 1.762-5.313-.642-1.771-.747-3.448-.264-4.622-.704-1.966-.702-4.462.95-7.367l1.405.948c-1.091 1.922-1.204 3.596-.891 4.966.288-.101.6-.15.929-.15 1.188 0 2.601.64 3.942 1.79.886-.277 1.958-.432 3.129-.432.484 0 .986.026 1.497.082 3.674.4 6.27 3.862 6.27 3.862s-2.937 2.461-6.321 2.461c-.238 0-.479-.012-.722-.039-.167-.018-.329-.042-.491-.065.389 2.636-.143 5.099-.143 5.099s-3.003-.003-5.51-1.501c-.021.288-.046.577-.083.873-.464 3.758-3.563 6.51-3.563 6.51"/></svg>