<svg xmlns="http://www.w3.org/2000/svg" viewBox="0 0 64 64" enable-background="new 0 0 64 64"><path d="m17.843 29.893l.774.796.775-.796-.775-.796z"/><path d="m13.374 29.435l-.774-.797-.775.797.775.795z"/><path d="m6.982 29.434l.774.796.774-.796-.774-.796z"/><path d="m21.178 33.234l.774.795.775-.795-.775-.796z"/><path d="m17.843 37.317l.774.796.775-.796-.775-.796z"/><path d="m12.6 37.317l.774.796.774-.796-.774-.796z"/><path d="m6.607 37.756l.774.797.774-.797-.774-.796z"/><path d="m15.221 33.427l.775.796.774-.796-.774-.796z"/><path d="m9.978 33.427l.774.796.774-.796-.774-.797z"/><path d="m22.18 26.36l-.775-.797-.774.797.774.796z"/><path d="m16.396 26.359l-.773-.796-.775.796.775.796z"/><path d="m10.752 25.564l-.774-.796-.775.796.775.796z"/><path d="m18.43 23.289l.774.796.775-.796-.775-.796z"/><path d="m16.23 20.285l.775.796.774-.796-.774-.796z"/><path d="m12.6 22.493l.774.796.774-.796-.774-.796z"/><path d="m15.221 41.311l.775.794.774-.794-.774-.797z"/><path d="m9.686 41.311l.774.794.774-.794-.774-.797z"/><path d="m62 10.084c-1.049.632-2.166 1.142-3.318 1.574-1.162.397-2.369.687-3.599.832-2.469.309-4.973-.107-7.327-.728-2.358-.627-4.645-1.387-7.002-1.529-2.357-.157-4.724.482-6.914 1.551 1.002-.707 2.105-1.269 3.271-1.687 1.173-.392 2.415-.589 3.659-.604 2.509-.028 4.896.743 7.217 1.333 2.319.631 4.665 1.045 7.038.923 2.371-.115 4.711-.774 6.975-1.665 0 0-8.109 1.504-14.59-3.901-6.134-5.115-12.602-.427-13.516 5.205-.754-.098-1.414-.269-1.959-.446-.059-2.264-.446-4.953-1.438-8.101l-.003.001c-.146-.492-.502-.842-.922-.842-.553 0-.999.602-.999 1.345 0 .145.03.278.061.409l-.011.005c.01.032.016.062.026.094.002.008.004.017.007.025 1.366 4.404 1.269 7.871.699 10.39-.488-.025-.979-.041-1.474-.041-14.295-.001-25.881 10.694-25.881 23.886 0 13.192 11.586 23.887 25.881 23.887 14.293 0 25.881-10.695 25.881-23.887 0-6.615-2.914-12.601-7.621-16.926 8.348-1.687 15.859-11.103 15.859-11.103m-10.738 28.029c0 11.793-10.488 21.387-23.381 21.387-12.892 0-23.381-9.594-23.381-21.387 0-1.512.175-2.987.503-4.411l.507.521.773-.797-.773-.796-.319.327c2.433-8.954 11.046-15.698 21.442-16.2-.054.792-.003 1.58-.003 1.58s-4.502-.643-4.673.553c-.167 1.173 4.24 1.871 4.24 1.871s-1.992 4.415-.896 5.011c1.152.628 3.714-3.769 3.714-3.769s4.101 3.257 4.921 2.169c.766-1.015-3.049-4.071-3.049-4.071s2.916-1.744 2.531-2.569c-.235-.506-1.369-.338-2.383-.07.054-.157.105-.346.158-.519 1.604.209 3.157.565 4.64 1.057.59.661 1.305 1.281 2.188 1.831 1.432.891 2.904 1.366 4.382 1.538 5.391 3.921 8.859 9.967 8.859 16.744m-19.535-23.623c.106-.733.19-1.519.212-2.407.525.123 1.147.23 1.855.28-.038.855.072 1.719.317 2.564-.781-.178-1.576-.325-2.384-.437"/></svg>