<svg xmlns="http://www.w3.org/2000/svg" viewBox="0 0 64 64" enable-background="new 0 0 64 64"><path d="m16.138 51.875l.268 1.39 5.188-1.048-.228-1.194z"/><path d="m47.245 50.717l-6.392-2.996-4.966 1.328 4.717 7.135-5.272-7.021-5.766 1.455 3.729 9.037-4.264-8.93-3.364.68-.595 6.576.073-6.471-3.552.707c-.156 3.328-4.146 11.887 11.243 9.306 17.058-2.859 22.073-18.271 22.159-18.541l-13.414 4.591 5.664 3.144"/><path d="m28.371 38.388c-15.399 2.581-8.396 9.541-7.005 12.636l3.575-.572-2.48-6.006 3.006 5.92 3.388-.553.646-9.824-.106 9.736 5.806-1.244 1.093-7.93-.533 7.838 5.005-1.131 3.295-4.602-2.559 4.48 13.496-4.155c-.001-.002.002-.012.002-.012s-20.957-5.533-26.629-4.581"/><path d="m14.007 43.449c-1.233-2.47-1.668-5.186-1.533-7.818.077-1.319.318-2.624.704-3.883.363-1.263.861-2.487 1.49-3.643 1.268-2.312 3.027-4.342 5.103-5.999 3.194-2.521 7.067-4.28 11.058-4.931-1.923 1.873-3.693 3.947-4.983 6.457-.723 1.443-1.279 3.067-1.298 4.873-.039 1.787.647 3.785 2.051 5.203 1.384 1.433 3.217 2.267 5.016 2.677 1.815.414 3.648.438 5.412.205 3.538-.474 6.813-1.986 9.466-4.183 1.293-1.072 2.548-2.338 3.502-3.913.961-1.557 1.563-3.504 1.445-5.498-.099-1.996-.924-3.909-2.111-5.402-1.181-1.512-2.663-2.679-4.239-3.581-1.517-.843-3.117-1.459-4.755-1.887 4.585-3.679 9.573-6.97 14.665-10.126-5.546 2.512-10.956 5.346-16.041 8.721-.429.288-.851.585-1.274.881-.941-.128-1.889-.202-2.833-.217-3.505-.072-6.969.614-10.131 1.859-1.588.613-3.085 1.394-4.5 2.266-.713.443-1.375.893-2.065 1.402l-.46.349-.502.405c-.323.268-.64.536-.945.817-2.479 2.223-4.4 4.963-5.649 7.916-.618 1.479-1.082 3.012-1.351 4.572-.246 1.563-.313 3.147-.185 4.711.227 3.129 1.351 6.188 3.221 8.707 1.878 2.52 4.536 4.422 7.442 5.431-2.527-1.686-4.518-3.887-5.72-6.371m20.93-26.537c2.561.106 5.103.669 7.168 1.811 2.152 1.129 3.645 2.869 3.836 4.633.234 1.764-.881 3.889-2.818 5.641-1.863 1.707-4.279 2.96-6.822 3.415-2.501.476-5.262.077-6.738-1.316-.733-.676-1.172-1.571-1.244-2.665-.078-1.088.203-2.313.701-3.505 1.008-2.408 2.787-4.671 4.722-6.779.386-.42.789-.828 1.195-1.235"/></svg>