<svg xmlns="http://www.w3.org/2000/svg" viewBox="0 0 64 64" enable-background="new 0 0 64 64"><path d="m44.477 11.229c-3.547 0-7.021.942-9.72 2.515.798-2.691 2.995-6.48 8.95-6.48v-2.554c-6.629 0-9.826 3.479-11.176 7.035.31-2.519.504-5.525-.099-6.844-1.126-2.466-4.095-3.575-6.631-2.478-2.532 1.097-3.673 3.985-2.545 6.452.512 1.12 2.343 2.643 4.189 3.973-2.369-1.02-5.122-1.618-7.924-1.619-8.106 0-16.521 4.87-16.521 18.089 0 13.43 15.781 32.682 22.667 32.682 3.125 0 4.25-1.953 6.063-1.953 1.844 0 2.438 1.95 6.437 1.95 6.891 0 22.833-19.187 22.833-32.679 0-13.218-8.416-18.089-16.523-18.089m-6.311 47.768c-1.563 0-2.189-.369-2.982-.836-.797-.47-1.891-1.114-3.454-1.114s-2.716.643-3.644 1.159c-.826.462-1.425.794-2.419.794-1.627 0-6.409-3.207-11.504-10.09-5.112-6.904-8.163-14.228-8.163-19.592 0-5.229 1.431-9.197 4.252-11.795 2.307-2.124 5.6-3.294 9.27-3.294 4.082 0 8.137 1.454 10.33 3.704l2.148 2.203 2.148-2.203c2.193-2.25 6.247-3.704 10.328-3.704 3.173 0 13.524 1.089 13.524 15.089 0 5.377-3.078 12.705-8.235 19.602-5.14 6.875-9.959 10.077-11.599 10.077"/></svg>