<svg xmlns="http://www.w3.org/2000/svg" viewBox="0 0 64 64" enable-background="new 0 0 64 64"><path d="m16.744 26.221c.754 2.252 1.479 4.51 2.189 6.775 2.223 1.453 4.441 2.914 6.637 4.422 1.24.854 2.475 1.721 3.689 2.631.598.447 1.189.906 1.775 1.395l.359-13.863c-1.357-3.096-3.029-6.053-4.875-8.904-1.918-2.949-4.008-5.797-6.262-8.512l2.613 13.889c1.221 6.502-2.68 2.242-2.68 2.242l-6.02-6.959c.549 1.098.949 2.262 1.371 3.41l1.204 3.474"/><path d="m10.516 27.523l7.207 4.68c-.475-1.949-.953-3.898-1.459-5.84l-.957-3.541c-.344-1.172-.664-2.355-1.135-3.486l-.77 3.111c-.426 1.713-1.254 1.777-1.559 1.738l-8.683-1.818c1.107 1.012 2.377 1.82 3.607 2.674l3.749 2.482"/><path d="m32.605 27.58l.361 13.863c.584-.488 1.176-.947 1.773-1.395 1.217-.91 2.451-1.777 3.691-2.631 2.195-1.508 4.412-2.969 6.635-4.422.711-2.266 1.438-4.523 2.191-6.775l1.199-3.475c.424-1.148.824-2.313 1.373-3.41l-6.02 6.959c0 0-3.902 4.26-2.68-2.242l2.617-13.889-.007.003c-2.253 2.714-4.344 5.561-6.261 8.509-1.84 2.852-3.514 5.809-4.872 8.905"/><path d="m31.447 25.553l.553-21.264.553 21.264c1.346-2.49 2.877-4.871 4.516-7.158 2.065-2.872 4.293-5.622 6.673-8.228l-4.832 2.413c-.275.109-1.229.246-2.492-2.16l-4.418-8.42-4.416 8.42c-1.264 2.406-2.217 2.27-2.494 2.16l-4.832-2.416c2.379 2.605 4.607 5.357 6.674 8.23 1.64 2.288 3.17 4.669 4.515 7.159"/><path d="m47.736 26.363c-.506 1.941-.984 3.891-1.457 5.84l7.205-4.68 3.75-2.482c1.229-.854 2.5-1.662 3.607-2.674l-8.684 1.818c-.301.039-1.135-.025-1.559-1.738l-.77-3.111c-.473 1.131-.791 2.314-1.135 3.486l-.957 3.541"/><path d="m12.547 35.834c2.914.123 5.834.188 8.75.227-1.262-.943-2.531-1.881-3.803-2.814l-7.264-5.313-3.609-2.689c-1.182-.922-2.408-1.803-3.461-2.877l2.576 9.137c.109.656.061 1.629-1.018 2.102l-2.718 1.198c1.715.445 3.49.568 5.248.725 1.764.136 3.531.23 5.299.304"/><path d="m41.299 47.322c-2.018-1.801-3.988-3.666-6.014-5.426-.375.324-.754.645-1.109.977-.418.395-.83.799-1.141 1.195l.175 6.729c.671.007 1.226.02 1.448.039l13.633 2.082c-1.283-.764-2.455-1.705-3.609-2.654-1.151-.955-2.272-1.944-3.383-2.942"/><path d="m56.777 35.777c-1.76.221-3.523.398-5.289.557-3.363.299-6.729.531-10.1.725-.693.523-1.389 1.041-2.074 1.57-1.119.867-2.229 1.744-3.307 2.645 1.922 1.871 3.748 3.805 5.635 5.686 1.053 1.057 2.113 2.104 3.205 3.117 1.096 1.008 2.205 2.008 3.443 2.842l-1.162-3.631c-.533-1.662 1.008-3.211 1.645-3.74 3.264-2.734 13.227-10.743 13.227-10.743-1.695.527-3.469.732-5.223.972"/><path d="m29.826 42.873c-.355-.332-.734-.652-1.109-.977-2.027 1.76-3.996 3.625-6.014 5.426-1.113.998-2.234 1.986-3.385 2.941-1.154.949-2.324 1.891-3.609 2.654l13.633-2.082c.225-.02.779-.032 1.45-.039l.175-6.729c-.313-.395-.725-.799-1.141-1.194"/><path d="m53.77 27.934l-7.264 5.313c-1.271.934-2.539 1.871-3.803 2.814 2.918-.039 5.836-.104 8.752-.227 1.768-.074 3.533-.168 5.297-.305 1.758-.156 3.533-.279 5.248-.725l-2.717-1.199c-1.078-.473-1.129-1.445-1.018-2.102l2.576-9.137c-1.053 1.074-2.281 1.955-3.463 2.877l-3.608 2.691"/><path d="m22.357 46.959c1.887-1.881 3.713-3.814 5.637-5.686-1.08-.9-2.189-1.777-3.309-2.645-.686-.529-1.381-1.047-2.072-1.57-3.373-.193-6.738-.426-10.1-.725-1.766-.158-3.531-.336-5.291-.557-1.751-.239-3.527-.444-5.222-.971 0 0 9.963 8.01 13.229 10.742.637.529 2.176 2.078 1.645 3.74l-1.164 3.631c1.238-.834 2.35-1.834 3.445-2.842 1.089-1.013 2.152-2.06 3.202-3.117"/><path d="m30.792 50.797l-.292 11.203h3l-.29-11.203c-.757-.009-1.661-.009-2.418 0"/></svg>