<svg xmlns="http://www.w3.org/2000/svg" viewBox="0 0 64 64" enable-background="new 0 0 64 64"><path d="m58.288 39.533c2.242-1.64 3.712-4.361 3.712-7.447 0-5.014-3.873-9.077-8.654-9.078-.727 0-1.427.104-2.1.281.004-.094.014-.186.014-.281 0-.012-.001-.023-.002-.035 1.529-2.416 2.734-4.969 3.476-7.66l-1.929-.531c-.506 1.834-1.242 3.607-2.166 5.316-1.046-2.349-3.311-3.979-5.945-3.979-.001 0-.001 0-.002 0-1.301 0-2.51.402-3.529 1.087.567-5.839-3.146-13.516-3.146-13.516s-.58 2.604-2.059 5.797c-5.12-4.932-13.395-7.487-13.395-7.487s4.424 6.691 5.547 14.939c-3.475-.037-6.16-.883-6.16-.883s1.24 1.677 3.192 3.479c-3.316.093-5.979 2.937-5.979 6.438 0 1.891.785 3.58 2.023 4.756-.65-.158-1.325-.252-2.021-.252-4.904 0-8.881 4.171-8.881 9.316 0 1.414.305 2.75.843 3.949-.324-.041-.652-.07-.987-.07 0 0 0 0-.001 0 0 0 0 0-.001 0-4.494.002-8.138 3.824-8.138 8.541 0 4.715 3.644 8.537 8.138 8.537 3.205 0 5.969-1.949 7.296-4.771 1.117 1.318 2.734 2.16 4.549 2.16.001 0 .001 0 .002 0 1.078 0 2.09-.295 2.97-.811.733 2.695 3.095 4.672 5.9 4.672 3.395 0 6.146-2.887 6.145-6.445.001-1.211-.323-2.34-.877-3.309.896-.531 1.692-1.23 2.343-2.061.663 1.859 2.341 3.193 4.347 3.193.001 0 .001 0 .002 0 .732 0 1.416-.191 2.033-.506.158 1.389.383 2.293.383 2.293s.971-2.213 2.76-5.098c3.004 2.828 8.938 3.057 8.938 3.057s-2.109-4.391-1.336-10.754c2.699-.736 4.621-.648 4.621-.648s-.686-1.144-1.926-2.189m-13.595-21.414c2.347 0 4.264 1.913 4.516 4.354-1.246 1.889-2.711 3.689-4.32 5.403-.066.003-.129.021-.197.021-.453 0-.886-.08-1.297-.217-.02-2.591-1.152-4.903-2.924-6.435.66-1.821 2.289-3.126 4.222-3.126m-9.32 3.212c3.322 0 6.025 2.879 6.025 6.419 0 1.251-.342 2.417-.925 3.404-1.161.559-2.153 1.435-2.87 2.528-.484.207-.989.373-1.526.441-.876-2.978-3.504-5.146-6.62-5.19-.07-.384-.111-.778-.111-1.184 0-3.54 2.704-6.418 6.027-6.418m-.984 14.956c-.748-.232-1.537-.361-2.355-.361-1.604 0-3.098.484-4.368 1.311-.433-1.588-1.229-3.012-2.33-4.129.151-.224.313-.443.503-.64.946-.993 2.197-1.539 3.521-1.539 1.326 0 2.577.546 3.523 1.539.969 1.014 1.502 2.37 1.506 3.819m-13.227-10.312c0-2.452 1.859-4.447 4.145-4.447 1.337 0 2.52.688 3.275 1.746-.778 1.297-1.236 2.829-1.236 4.476 0 .497.058.979.139 1.452-.854.247-1.64.658-2.33 1.201-2.214-.088-3.993-2.033-3.993-4.428m-11.024 32.775c-3.384 0-6.138-2.934-6.138-6.537 0-3.605 2.753-6.539 6.137-6.539h.002c3.385 0 6.138 2.934 6.138 6.539-.001 3.603-2.755 6.537-6.139 6.537m7.703-11.779c-.679-.143-1.312-.408-1.903-.744-.511-.545-1.093-1.014-1.727-1.398-1.183-1.314-1.928-3.076-1.928-5.033 0-4.033 3.087-7.316 6.881-7.316 3.443 0 6.295 2.708 6.793 6.226-1.168 1.313-1.954 2.998-2.174 4.873-1.236.719-2.405 1.385-3.489 2-.855.258-1.633.705-2.29 1.299-.054.03-.11.061-.163.093m4.142 9.168c-1.712 0-3.18-1.131-3.796-2.73.053-.391.089-.789.089-1.195 0-.623-.067-1.229-.188-1.814.531-1.775 2.066-3.074 3.895-3.076.93.002 1.779.348 2.469.908.37.863.871 1.646 1.474 2.332.097.375.165.762.165 1.17-.001 2.428-1.843 4.405-4.108 4.405m11.771 2.593c-.779.817-1.809 1.268-2.899 1.268-2.22 0-4.023-1.887-4.125-4.242.738-.957 1.219-2.139 1.332-3.436 1.18.674 2.531 1.057 3.969 1.057.001 0 .001 0 .002 0 .779 0 1.531-.119 2.246-.33.469.732.722 1.596.721 2.506.001 1.205-.441 2.334-1.246 3.177m-1.723-7.353c-3.483 0-6.318-3.016-6.318-6.725 0-3.711 2.836-6.729 6.32-6.729s6.318 3.018 6.318 6.727-2.833 6.727-6.32 6.727m10.782 0c-1.481 0-2.686-1.307-2.686-2.914 0-1.609 1.205-2.918 2.686-2.918h.002c1.48 0 2.686 1.309 2.686 2.918-.001 1.607-1.206 2.914-2.688 2.914m.585-8.152c-1.395 0-2.657-.611-3.568-1.596-.305-.861-.73-1.658-1.262-2.367-.117-.453-.199-.92-.199-1.412 0-.592.112-1.152.279-1.686 1.489-1.156 2.949-2.373 4.352-3.644.134-.012.262-.043.398-.043.461 0 .902.076 1.323.207.171 2.736 1.493 5.136 3.469 6.679-.611 2.225-2.514 3.862-4.792 3.862m9.948-4.063c-3.668 0-6.652-3.176-6.652-7.078 0-3.902 2.984-7.078 6.652-7.078 3.67.001 6.654 3.176 6.654 7.078 0 3.902-2.984 7.078-6.654 7.078"/></svg>