<svg xmlns="http://www.w3.org/2000/svg" viewBox="0 0 64 64" enable-background="new 0 0 64 64"><g fill-rule="evenodd"><path d="m19.712 40.986c1.208.028 2.174-.885 2.16-2.041-.014-1.155-2.24-4.212-2.24-4.212s-2.147 2.955-2.133 4.109 1.004 2.117 2.213 2.144"/><path d="m28.753 42.925c.014 1.154 1.005 2.116 2.213 2.144 1.208.029 2.174-.885 2.159-2.041-.015-1.155-2.24-4.211-2.24-4.211s-2.146 2.954-2.132 4.108"/><path d="m38.305 34.732c1.209.029 2.174-.885 2.159-2.041-.015-1.155-2.239-4.212-2.239-4.212s-2.148 2.955-2.135 4.109c.014 1.155 1.006 2.117 2.215 2.144"/><path d="m45.749 44.489c1.208.028 2.175-.887 2.159-2.043-.014-1.155-2.24-4.21-2.24-4.21s-2.146 2.956-2.133 4.109c.015 1.155 1.006 2.116 2.214 2.144"/><path d="m29.833 25.223c1.208.027 2.174-.887 2.159-2.042-.014-1.155-2.24-4.212-2.24-4.212s-2.147 2.957-2.133 4.11c.015 1.154 1.006 2.115 2.214 2.144"/><path d="m61.035 48.085l-27.141-43.027-1.93-3.058-1.924 3.061-27.079 43.084-.961 1.529 1.313 1.249c7.516 7.142 17.685 11.077 28.634 11.077 10.979 0 21.184-3.953 28.737-11.134l1.316-1.251-.965-1.53m-29.067-41.851l22.676 35.949-.134.101c-6.345 4.724-14.355 7.325-22.558 7.325-8.176 0-16.157-2.586-22.472-7.282l-.135-.101 22.623-35.992m21.442 47.128c-1.941 1.224-3.986 2.258-6.098 3.111l-2.006-5.272c-3.195 1.095-6.522 1.785-9.885 2.064v6.024c-2.277.19-4.567.19-6.842.008v-6.024c-3.367-.273-6.698-.957-9.894-2.047l-2.009 5.28c-2.114-.85-4.159-1.882-6.1-3.104l1.875-4.933c-1.731-.956-3.398-2.044-4.97-3.278l.902-1.435.004-.006c6.85 5.094 15.203 7.642 23.565 7.642 8.379 0 16.768-2.561 23.652-7.688l.001.003.909 1.44c-1.576 1.237-3.245 2.328-4.979 3.288l1.875 4.927"/></g></svg>