<svg xmlns="http://www.w3.org/2000/svg" viewBox="0 0 64 64" enable-background="new 0 0 64 64"><path d="m60.189 39.513c-5.653-9.221-20.461-8.227-25.465-8.16.064-.23.109-.468.109-.718 0-.225-.035-.44-.088-.649 4.999.166 19.947.811 25.447-8.232 5.887-9.682-4.279-12.654-8.842-9.4 3.373-4.916.07-14.241-9.672-8.592-9.282 5.38-8.5 19.276-8.398 24.428-.387-.191-.818-.31-1.282-.31-.433 0-.838.102-1.204.271.184-5.174.609-19.169-8.479-24.394-9.957-5.722-13.014 4.161-9.668 8.598 1.627 1.356 3.191 2.772 4.748 4.197 1.561 1.418 3.078 2.88 4.598 4.342 1.504 1.474 3.006 2.95 4.467 4.469l2.188 2.278c.709.78 1.436 1.541 2.127 2.337-.82-.672-1.602-1.381-2.402-2.068l-2.346-2.127c-1.561-1.419-3.078-2.881-4.596-4.344-1.502-1.475-3.008-2.951-4.467-4.47-1.465-1.512-2.922-3.033-4.316-4.615-5.057-3.28-14.646-.069-8.838 9.403 5.654 9.219 20.459 8.229 25.465 8.16-.064.23-.109.468-.109.718 0 .225.035.44.088.649-4.998-.166-19.947-.813-25.447 8.232-5.887 9.682 4.279 12.652 8.842 9.398-3.373 4.916-.07 14.242 9.672 8.594 9.281-5.381 8.5-19.277 8.398-24.43.387.193.818.312 1.281.312.434 0 .839-.103 1.206-.271-.185 5.171-.612 19.167 8.479 24.393 9.957 5.723 13.014-4.16 9.668-8.598-1.627-1.355-3.191-2.771-4.748-4.197-1.561-1.418-3.078-2.881-4.598-4.342-1.504-1.475-3.006-2.95-4.467-4.469l-2.188-2.279c-.707-.78-1.436-1.541-2.127-2.336.818.672 1.602 1.379 2.402 2.067l2.346 2.128c1.561 1.419 3.078 2.881 4.596 4.342 1.502 1.477 3.008 2.952 4.465 4.471 1.467 1.514 2.922 3.033 4.318 4.615 5.056 3.282 14.648.071 8.837-9.401m-31.543-5.885l-2.186 2.279c-1.461 1.518-2.963 2.994-4.467 4.469-1.52 1.461-3.037 2.924-4.598 4.342-1.557 1.425-3.121 2.84-4.748 4.197 1.395-1.582 2.852-3.102 4.316-4.615 1.459-1.519 2.963-2.994 4.467-4.471 1.516-1.463 3.035-2.923 4.596-4.342l2.344-2.128c.803-.688 1.584-1.396 2.404-2.067-.691.795-1.417 1.556-2.128 2.336m6.706-5.987l2.188-2.279c1.461-1.518 2.963-2.994 4.467-4.469 1.52-1.461 3.037-2.923 4.598-4.341 1.557-1.425 3.121-2.841 4.748-4.197-1.396 1.582-2.852 3.103-4.318 4.615-1.457 1.519-2.963 2.995-4.465 4.47-1.518 1.462-3.035 2.924-4.596 4.344l-2.346 2.125c-.801.689-1.584 1.398-2.402 2.07.69-.798 1.419-1.558 2.126-2.338"/><path d="m32 34.964l-2.5 24.305c-.016.158-.017.336 0 .5.141 1.364 1.373 2.357 2.754 2.219 1.381-.139 2.387-1.355 2.247-2.719l-2.501-24.305"/></svg>