<svg xmlns="http://www.w3.org/2000/svg" viewBox="0 0 64 64" enable-background="new 0 0 64 64"><path d="m54.712 13.381c-3.16-3.027-6.984-5.645-10.738-7.603-4.546-2.369-8.979-3.778-11.974-3.778-2.993 0-7.429 1.409-11.974 3.778-3.752 1.958-7.578 4.575-10.736 7.603-4.249 4.071-7.29 8.887-7.29 13.845 0 .699.025 1.367.061 2.014.709 12.97 8.411 15.696 19.069 16.258-.101.712-.199 1.433-.298 2.177-.855 6.379-3.64 14.325-3.64 14.325h29.613c0 0-2.782-7.944-3.638-14.326-.099-.744-.197-1.465-.298-2.177 10.66-.562 18.362-3.288 19.071-16.258.035-.646.06-1.314.06-2.013 0-4.958-3.039-9.774-7.288-13.845m5.288 13.617c0 .506-.021.982-.043 1.457-1.132-.614-2.242-1.468-3.241-2.594-3.015-3.395-4.096-7.965-2.887-11.163 3.631 3.665 6.171 7.923 6.171 12.3m-10.232 13.358c0 2.423-2.756 3.721-7.006 4.384-.895-5.938-2.428-10.443-10.763-10.443-8.336 0-9.866 4.505-10.761 10.443-4.252-.663-7.01-1.961-7.01-4.384 0-4.032 8.5-7.765 17.771-7.765 9.272.001 17.769 3.733 17.769 7.765m-17.768-36.902c2.796 0 6.933 1.314 11.174 3.528.166.086.334.181.498.271-.877 4.768-5.756 8.422-11.673 8.422-5.914 0-10.794-3.654-11.673-8.421.165-.09.334-.185.5-.271 4.241-2.214 8.38-3.529 11.174-3.529m-21.828 11.246c1.208 3.198.126 7.768-2.889 11.161-.999 1.125-2.107 1.979-3.238 2.593-.024-.475-.045-.95-.045-1.456 0-4.377 2.541-8.633 6.172-12.298"/></svg>