<svg xmlns="http://www.w3.org/2000/svg" viewBox="0 0 64 64" enable-background="new 0 0 64 64"><path fill-rule="evenodd" d="m60.854 47.761c3.066-8.962-.146-20.382-8.135-28.639-4.297-4.444-9.491-7.501-14.818-8.841 2.588-2.674 4.155-5.071 4.155-5.071s-7.451 2.564-14.433-.578c-6.191-2.783-10.722 4.439-11.762 6.293-1.718-1.415-4.072-2.775-7.021-3.133-.381-.045-.493 1.421-.122 1.5.552.118 1.064.27 1.563.435-2.397 1.523-11.186 7.795-7.305 15.625 4.419 8.906 1.577 18.751 1.577 18.751 1.265-2.673 2.319-5.479 2.817-8.407.513-2.928.474-5.91.215-8.894-.22-2.976-.61-6.066-.176-9.179.22-1.544.625-3.057 1.211-4.454.615-1.381 1.362-2.667 2.246-3.8-1.445 2.555-2.475 5.395-2.705 8.351-.239 2.952.156 5.914.41 8.944.244 3.023.259 6.201-.459 9.219-.347 1.508-.835 2.962-1.426 4.344-.625 1.363-1.323 2.673-2.134 3.876 0 0 5.049-3.688 9.218-9.26 1.245 5.482 4.16 10.971 8.588 15.545 5.908 6.106 13.5 9.61 20.83 9.61 2.432 0 4.745-.393 6.884-1.165.85.516 1.846.784 2.92.784 1.631 0 3.301-.612 4.766-1.704.625.121 1.387.082 1.846-.389.449-.472.488-1.262.371-1.911 1.788-2.555 2.159-5.638.879-7.852m-7.861 9.413c-.771 0-1.445-.226-1.953-.652l-.566-.471-.684.274c-2.021.815-4.237 1.229-6.601 1.229-6.67 0-13.623-3.229-19.072-8.863-4.75-4.911-7.641-10.927-8.408-16.711 2.7-4.452 4.419-9.739 2.905-15.182.195-.288.42-.591.732-.91.913-.946 1.723-1.296 2.05-1.34l.576.448.732-.475c2.593-1.68 5.767-2.567 9.179-2.567 6.67 0 13.618 3.232 19.076 8.866 7.52 7.775 10.488 18.495 7.383 26.673l-.244.641.42.541c1.24 1.593.654 4.441-1.318 6.486-1.219 1.26-2.791 2.013-4.207 2.013"/></svg>