<svg xmlns="http://www.w3.org/2000/svg" viewBox="0 0 64 64" enable-background="new 0 0 64 64"><path d="m60.615 35.499c.141-1.17 1.385-2.291 1.385-3.499 0-1.209-1.244-2.33-1.385-3.5-.141-1.196.799-2.583.52-3.73-.283-1.167-1.758-1.955-2.176-3.063-.422-1.121.16-2.695-.391-3.747-.553-1.059-2.17-1.468-2.844-2.446-.676-.982-.484-2.651-1.27-3.543-.785-.893-2.453-.901-3.34-1.692s-1.094-2.459-2.07-3.139c-.971-.677-2.596-.284-3.646-.842-1.045-.553-1.643-2.122-2.758-2.547-.245-.094-.51-.128-.785-.128-.757 0-1.599.259-2.361.259-.204 0-.402-.019-.592-.065-1.143-.282-2.098-1.661-3.287-1.805-.069-.008-.138-.012-.209-.012-1.102 0-2.276.98-3.406.98-1.128 0-2.306-.98-3.408-.98-.07 0-.14.004-.209.012-1.188.144-2.145 1.522-3.283 1.805-.189.047-.388.065-.592.065-.764 0-1.605-.26-2.363-.26-.275 0-.54.034-.785.128-1.113.426-1.711 1.995-2.758 2.548-1.051.558-2.672.165-3.645.842-.975.679-1.184 2.347-2.07 3.138s-2.557.799-3.342 1.692c-.785.892-.594 2.561-1.27 3.543-.672.979-2.293 1.388-2.846 2.446-.547 1.052.035 2.626-.389 3.747-.418 1.107-1.893 1.896-2.178 3.063-.279 1.147.664 2.534.52 3.73-.138 1.171-1.382 2.293-1.382 3.501 0 1.208 1.244 2.329 1.383 3.499.145 1.198-.799 2.583-.52 3.731.285 1.168 1.762 1.955 2.18 3.063.422 1.121-.16 2.695.387 3.746.553 1.061 2.174 1.469 2.846 2.447.674.982.482 2.65 1.268 3.543.787.893 2.457.9 3.344 1.693.885.789 1.094 2.457 2.07 3.137.003.002.007.004.01.006v3.049c0 1.185 6.181 1.863 13.274 2.039.048.01.093.029.142.035.068.008.137.012.208.012.101 0 .203-.016.305-.031 2.048.042 4.157.042 6.205 0 .102.015.204.031.304.031.07 0 .14-.004.209-.012.049-.006.094-.025.142-.035 7.094-.176 13.274-.854 13.274-2.039v-3.046c.004-.003.01-.005.014-.007.975-.68 1.184-2.348 2.068-3.139.887-.791 2.555-.799 3.342-1.691.785-.893.594-2.563 1.268-3.545.674-.979 2.293-1.387 2.846-2.445.551-1.051-.031-2.625.389-3.746.418-1.109 1.893-1.896 2.178-3.064.28-1.149-.661-2.536-.521-3.732m-2.057 4.001c-.191.201-.399.43-.604.674-.142-1.559-.623-2.713-1.203-2.713-.689 0-1.25 1.635-1.25 3.648 0 2.016.561 3.648 1.25 3.648.025 0 .049-.018.074-.021.002.165-.002.306-.018.359-.096.133-.518.401-.796.579-.431.274-.933.603-1.385 1.042-.111-1.682-.618-2.953-1.226-2.953-.691 0-1.25 1.633-1.25 3.648 0 1.484.305 2.757.74 3.326-.18.101-.555.229-.822.32-.697.235-1.565.528-2.287 1.173-.306.272-.543.582-.75.896v-16.308h-5.117c-.131-1.606-.623-2.805-1.213-2.805-.592 0-1.082 1.198-1.213 2.805h-8.275c-.131-1.606-.621-2.805-1.213-2.805-.59 0-1.082 1.198-1.213 2.805h-8.273c-.131-1.606-.623-2.805-1.213-2.805-.592 0-1.082 1.198-1.213 2.805h-5.121v16.305c-.206-.313-.443-.621-.748-.893-.721-.645-1.59-.938-2.287-1.174-.267-.09-.641-.218-.822-.318.436-.57.74-1.842.74-3.326 0-2.016-.559-3.648-1.25-3.648-.607 0-1.114 1.271-1.226 2.953-.452-.439-.954-.769-1.387-1.044-.266-.169-.66-.42-.78-.559-.02-.079-.026-.221-.027-.377.023.004.046.021.07.021.691 0 1.25-1.633 1.25-3.648 0-2.014-.559-3.648-1.25-3.648-.578 0-1.061 1.154-1.203 2.713-.205-.244-.414-.473-.606-.675-.23-.242-.579-.608-.629-.714-.014-.162.123-.64.214-.955.205-.714.46-1.603.344-2.566.634-.178 1.13-1.718 1.13-3.613 0-1.874-.484-3.398-1.107-3.606-.03-.697-.213-1.335-.367-1.875-.091-.315-.228-.792-.225-.907.06-.154.409-.521.639-.764.216-.227.452-.483.681-.766.199 1.241.629 2.106 1.129 2.106.691 0 1.25-1.634 1.25-3.648 0-1.745-.42-3.199-.98-3.559.152-.107.327-.219.468-.308.62-.395 1.392-.886 1.936-1.68.548-.796.732-1.696.882-2.42.066-.325.167-.816.225-.917.124-.104.593-.263.903-.368.697-.235 1.564-.528 2.285-1.171.19-.17.355-.354.505-.544-.012.207-.021.417-.021.634 0 2.015.559 3.648 1.25 3.648.689 0 1.25-1.634 1.25-3.648 0-1.358-.258-2.53-.635-3.158.16-.018.329-.033.468-.044.734-.062 1.648-.138 2.501-.591.194-.103.371-.222.539-.348-.015.225-.023.456-.023.693 0 2.015.559 3.647 1.25 3.647.689 0 1.25-1.633 1.25-3.647 0-1.125-.179-2.12-.453-2.789.014 0 .025-.001.047-.001.217 0 .528.05.857.104.451.073.963.156 1.506.156.385 0 .734-.041 1.073-.124.928-.23 1.655-.778 2.24-1.219.251-.189.623-.47.798-.536.18.026.593.203.872.322.593.253 1.317.546 2.137.623-.507.465-.878 1.831-.878 3.465 0 2.015.561 3.647 1.25 3.647.691 0 1.25-1.633 1.25-3.647 0-1.634-.369-3-.877-3.465.82-.077 1.545-.37 2.138-.624.277-.119.689-.295.869-.321.174.066.547.347.798.536.586.441 1.314.99 2.245 1.22.337.083.687.124 1.071.124.543 0 1.055-.083 1.505-.156.329-.053.64-.104.856-.104.021 0 .033.001.048.001-.274.669-.452 1.663-.452 2.788 0 2.015.559 3.647 1.25 3.647.689 0 1.25-1.633 1.25-3.647 0-.237-.009-.468-.023-.692.166.124.341.242.533.344.856.455 1.771.531 2.507.593.139.012.308.026.468.044-.378.628-.635 1.799-.635 3.158 0 2.015.559 3.648 1.25 3.648.689 0 1.25-1.634 1.25-3.648 0-.217-.01-.426-.021-.633.148.19.314.374.505.544.721.643 1.587.936 2.284 1.171.31.105.778.263.87.331.09.138.19.629.257.954.149.724.334 1.624.882 2.421.546.792 1.315 1.283 1.934 1.678.143.091.32.204.472.307-.561.359-.982 1.814-.982 3.56 0 2.015.561 3.648 1.25 3.648.502 0 .93-.865 1.129-2.105.229.282.465.538.68.764.229.242.578.608.628.717.015.163-.123.642-.214.959-.153.537-.335 1.173-.365 1.869-.622.209-1.107 1.734-1.107 3.606 0 1.894.497 3.432 1.129 3.612 0 .001 0 .001 0 .002-.113.963.141 1.847.345 2.558.091.317.228.796.224.913-.066.157-.415.524-.645.766"/><ellipse cx="32" cy="18.162" rx="1.25" ry="3.648"/><ellipse cx="32" cy="27.912" rx="1.25" ry="3.648"/><ellipse cx="26.65" cy="9.86" rx="1.25" ry="3.648"/><ellipse cx="26.65" cy="19.61" rx="1.25" ry="3.648"/><ellipse cx="26.65" cy="29.36" rx="1.25" ry="3.648"/><ellipse cx="21.301" cy="18.162" rx="1.25" ry="3.648"/><ellipse cx="21.301" cy="27.912" rx="1.25" ry="3.648"/><ellipse cx="15.951" cy="21.61" rx="1.25" ry="3.648"/><ellipse cx="15.951" cy="31.36" rx="1.25" ry="3.648"/><ellipse cx="11.6" cy="18.162" rx="1.25" ry="3.648"/><ellipse cx="10.6" cy="27.913" rx="1.25" ry="3.648"/><ellipse cx="11.6" cy="37.662" rx="1.25" ry="3.648"/><ellipse cx="37.35" cy="9.86" rx="1.25" ry="3.648"/><ellipse cx="37.35" cy="19.61" rx="1.25" ry="3.648"/><ellipse cx="37.35" cy="29.36" rx="1.25" ry="3.648"/><ellipse cx="42.701" cy="18.162" rx="1.25" ry="3.648"/><ellipse cx="42.701" cy="27.912" rx="1.25" ry="3.648"/><ellipse cx="48.051" cy="21.61" rx="1.25" ry="3.648"/><ellipse cx="48.051" cy="31.36" rx="1.25" ry="3.648"/><ellipse cx="52.4" cy="18.162" rx="1.25" ry="3.648"/><ellipse cx="53.4" cy="27.912" rx="1.25" ry="3.648"/><ellipse cx="52.4" cy="37.662" rx="1.25" ry="3.648"/></svg>