<svg xmlns="http://www.w3.org/2000/svg" viewBox="0 0 64 64" enable-background="new 0 0 64 64"><path d="m51.348 15.912c-3.332-3.347-7.33-4.796-11.498-4.796-.359 0-.721.016-1.08.038-1.036-4.662-2.475-9.154-2.475-9.154s-6.291 3.991-9.97 7.716c-4.255-3.327-9.149-6.391-9.149-6.391s-1.044 7.646-.678 13.247c-5.577-.361-13.188.692-13.188.692s3.051 4.912 6.368 9.185c-3.708 3.697-7.678 10.021-7.678 10.021s4.646 1.497 9.382 2.538c-.159 4.421 1.261 8.681 4.776 12.213 7.441 7.471 20.336 10.779 30.215 10.779 5.729-.001 10.445-1.113 12.492-3.17 5.522-5.549 4.184-31.161-7.517-42.918m6.074 41.482c-1.236 1.242-4.789 2.57-11.049 2.571-9.275 0-21.77-3.147-28.771-10.18-8.058-8.096-3.363-20.183 4.41-27.987 5.389-5.413 12.057-8.646 17.838-8.646 3.9.001 7.283 1.411 10.055 4.198 4.908 4.93 8.424 13.172 9.643 22.61 1.147 8.891-.2 15.499-2.126 17.434"/><path d="m40.172 18.321c.578.403 1.215.606 1.771.607.541 0 1.006-.19 1.271-.573.545-.775.063-2.052-1.072-2.848-.58-.405-1.215-.607-1.773-.607-.539 0-1.006.19-1.273.572-.543.776-.063 2.054 1.076 2.849"/><path d="m44.074 32.729c-.338.001-.648.1-.891.31-.715.621-.557 1.976.352 3.025.604.695 1.389 1.081 2.057 1.08.34.001.65-.099.891-.309.717-.621.557-1.975-.352-3.024-.604-.696-1.387-1.081-2.057-1.082"/><path d="m35.293 23.932c-.328-.001-.629.094-.865.294-.727.609-.592 1.968.303 3.031.602.715 1.391 1.114 2.064 1.115.33 0 .629-.097.867-.295.727-.61.59-1.966-.303-3.033-.601-.714-1.392-1.113-2.066-1.112"/><path d="m52.404 26.469c-.518-.945-1.369-1.53-2.111-1.53-.213.001-.418.047-.604.148-.832.456-.967 1.813-.301 3.032.52.945 1.367 1.529 2.111 1.529.213 0 .418-.047.604-.148.833-.455.967-1.812.301-3.031"/><path d="m54.955 38.393c-.102 0-.203.014-.303.039-.918.24-1.379 1.521-1.027 2.866.313 1.198 1.162 2.037 1.994 2.038.102 0 .203-.013.303-.038.918-.239 1.379-1.523 1.027-2.868-.312-1.196-1.164-2.037-1.994-2.037"/><path d="m53.76 51.021c-.354.001-.674.105-.918.327-.703.636-.518 1.987.414 3.019.607.671 1.381 1.038 2.041 1.039.354-.001.676-.106.922-.329.701-.636.516-1.987-.418-3.017-.606-.669-1.379-1.039-2.041-1.039"/><path d="m32.923 50.042c-.569-.384-1.189-.573-1.736-.572-.559 0-1.041.198-1.309.598-.527.788-.02 2.054 1.135 2.825.57.383 1.191.573 1.736.573.561 0 1.042-.2 1.309-.6.528-.786.02-2.053-1.135-2.824"/><path d="m21.165 46.683c-.569-.382-1.189-.571-1.735-.571-.561 0-1.042.199-1.309.597-.527.787-.02 2.055 1.134 2.825.57.382 1.191.574 1.738.573.559 0 1.041-.199 1.307-.6.526-.786.02-2.052-1.135-2.824"/><path d="m42.547 54.622c-.434-.175-.871-.259-1.275-.259-.797-.001-1.463.326-1.701.91-.354.877.404 2.013 1.691 2.531.434.175.871.258 1.275.257.797 0 1.465-.324 1.699-.908.356-.878-.4-2.012-1.689-2.531"/><path d="m45.164 44.696c-.543-.323-1.119-.481-1.633-.481-.617-.001-1.143.229-1.406.672-.486.814.09 2.053 1.283 2.763.543.322 1.119.48 1.635.48.615 0 1.141-.229 1.404-.672.485-.816-.09-2.054-1.283-2.762"/><path d="m34.568 37.753c-.602-.5-1.295-.758-1.895-.757-.465-.001-.873.155-1.138.474-.604.729-.229 2.042.839 2.928.603.498 1.297.758 1.897.758.465 0 .871-.156 1.137-.475.604-.73.231-2.043-.84-2.928"/><path d="m23.867 23.223c-.385.001-.73.119-.982.368-.676.665-.434 2.008.539 2.997.611.618 1.364.953 2.009.954.384-.001.729-.119.981-.368.676-.666.435-2.008-.539-2.996-.612-.621-1.364-.954-2.008-.955"/><path d="m22.812 34.974c-.598-.473-1.275-.716-1.863-.715-.484 0-.909.163-1.175.5-.589.741-.184 2.046.904 2.906.598.474 1.276.715 1.864.715.484 0 .908-.161 1.174-.499.587-.742.184-2.045-.904-2.907"/></svg>