<svg xmlns="http://www.w3.org/2000/svg" viewBox="0 0 64 64" enable-background="new 0 0 64 64"><path fill-rule="evenodd" d="m47.064 29.098c-3.434-5.614-3.424-14.993-11.49-15.95.781-2.23 1.773-6.657-.234-11.046-.16-.35-1.478.315-1.352.679-2-.608-8.887-2.258-12.821 2.456-4.576 5.483-12.167 7.843-12.167 7.843 2.225-.402 4.466-.961 6.612-1.828 2.148-.863 4.152-2.007 6.085-3.26 1.941-1.23 3.902-2.587 6.152-3.555 1.116-.479 2.271-.859 3.409-1.105.958-.193 1.892-.294 2.796-.332.006.016.01.032.016.048-2.043.298-4.12.853-6.039 1.786-2.076 1.002-3.949 2.312-5.917 3.578-1.964 1.26-4.11 2.468-6.387 3.267-1.133.403-2.276.719-3.406.958-1.126.215-2.241.376-3.321.443 0 0 15.468 3.828 23.642-4.09 1.288-1.248 1.735-2.975 1.882-4.26.773 3.766-.18 6.791-.963 8.354-8.793.441-7.973 10.233-11.483 16.015-2.624 4.322-7.91 10.198-7.901 16.553.012 10.898 10.225 16.348 20.43 16.348 10.207 0 20.407-5.448 20.393-16.349-.008-6.363-5.285-12.221-7.936-16.553m1.574 24.904c-3.126 3.13-8.371 4.999-14.03 4.999-8.388 0-17.42-4.18-17.432-13.354-.005-4.018 2.83-8.138 5.332-11.772.777-1.128 1.51-2.193 2.134-3.22 1.274-2.1 2.011-4.475 2.722-6.772 1.757-5.676 2.8-7.821 6.818-7.821h.012c4.216.004 5.481 2.393 7.561 8.26.763 2.153 1.551 4.38 2.752 6.343.623 1.018 1.351 2.07 2.121 3.187 2.516 3.64 5.367 7.765 5.373 11.804.003 3.3-1.128 6.109-3.363 8.346"/></svg>