<svg xmlns="http://www.w3.org/2000/svg" viewBox="0 0 64 64" enable-background="new 0 0 64 64"><path d="m62 34.1c0-3.8-1.592-6.766-4.334-9.035 1.965-5.915-3.207-4.044-1.967-6.381 1.946-3.665-3.916-8.688-6.547-8.688-.143 0-.275.015-.396.045-.541-3.521-4.098-6.205-8.86-6.205-1.292 0-2.671.197-4.104.629-.584-1.431-3.933-2.465-7.771-2.465-5.439 0-11.859 2.076-12.776 8.041-.121-.03-.254-.045-.396-.045-2.631 0-8.494 5.023-6.549 8.688 1.243 2.337-3.929.466-1.966 6.381-2.741 2.269-4.334 5.235-4.334 9.035 0 11.297 6.432 18.92 15.881 22.546-.209.301-.326.611-.326.931.001 2.443 6.468 4.423 14.445 4.423 7.979 0 14.445-1.98 14.445-4.424 0-.319-.115-.63-.326-.931 9.449-3.626 15.881-11.249 15.881-22.545m-54.084-11.713c.036-.097.267-.221.59-.386.567-.289 1.516-.774 1.869-1.894.234-.743.13-1.538-.308-2.361-.375-.707.013-1.632.405-2.284 1.259-2.095 3.635-3.432 4.35-3.466l2.066.514.333-2.166c.928-6.039 9.16-6.344 10.8-6.344 3.348 0 5.518.84 5.949 1.294l.656 1.609 1.742-.524c1.197-.361 2.385-.544 3.526-.544 3.587 0 6.483 1.896 6.884 4.509l.333 2.166 2.066-.514c.716.033 3.091 1.372 4.351 3.466.391.651.779 1.577.404 2.284-.438.824-.541 1.619-.307 2.362.352 1.118 1.302 1.604 1.869 1.893.322.165.555.289.59.386.027.073.241.782-.645 2.945l-.463 1.219.885.938c.87.923 1.363 5.889 1.063 7.419-4.11 4.188-14.272 7.092-24.924 7.092-10.651 0-20.812-2.903-24.925-7.091-.301-1.53.192-6.498 1.063-7.42l.92-.94-.498-1.217c-.886-2.163-.672-2.872-.644-2.945"/><path d="m50.023 33.764c7.43 1.986 9.094-3.588 1.676-5.447-7.373-1.85-9.068 3.482-1.676 5.447"/><path d="m39.861 37.064c5.422 5.461 9.664 1.482 4.188-3.859-5.438-5.31-9.582-1.557-4.188 3.859"/><path d="m49.607 23.188c6.654-3.861 3.883-8.975-2.676-5.031-6.515 3.911-3.931 8.876 2.676 5.031"/><path d="m39.898 13.621c7.039 3.102 9.535-2.152 2.488-5.125-7.001-2.959-9.491 2.05-2.488 5.125"/><path d="m26.936 10.322c7.23-2.627 5.402-8.148-1.742-5.424-7.107 2.705-5.442 8.045 1.742 5.424"/><path d="m14.143 21.303c6.494 4.123 9.753-.693 3.231-4.692-6.476-3.979-9.692.602-3.231 4.692"/><path d="m33.41 24.234c7.424-2.01 6.066-7.667-1.281-5.553-7.309 2.096-6.098 7.559 1.281 5.553"/><path d="m14.264 33.676c6.9-3.396 4.485-8.686-2.324-5.201-6.768 3.459-4.532 8.586 2.324 5.201"/><path d="m28.166 33.359c-7.273-2.201-9.22 3.043-1.934 5.359 7.327 2.341 9.258-3.146 1.934-5.359"/></svg>