<svg xmlns="http://www.w3.org/2000/svg" viewBox="0 0 64 64" enable-background="new 0 0 64 64"><path d="m28.563 9.536c-8.229 8.229-6.696 18.171-8.313 25.971-.575 2.766-3.038 4.829-3.038 4.829s.187.069.485.17c-1.54 1.407-3.031 2.561-4.395 2.728-.107.014-.221.02-.338.02-1.229 0-3.002-.653-4.881-.653-1.449 0-2.961.388-4.336 1.763-2.328 2.328-2.328 6.101 0 8.43 1.164 1.162 2.687 1.742 4.211 1.742.602 0 1.203-.091 1.782-.271-.64 2.045-.151 4.369 1.469 5.992 1.164 1.161 2.689 1.743 4.214 1.743 1.525 0 3.05-.581 4.214-1.745 3.33-3.331.874-7.465 1.128-9.558.168-1.364 1.319-2.855 2.728-4.396.103.303.171.486.171.486s2.063-2.463 4.827-3.039c7.799-1.62 17.742-.084 25.971-8.313 20.581-20.579-5.318-46.477-25.899-25.899m-2.022 9.68l1.049 1.049-1.049 1.049-1.05-1.049 1.05-1.049m-.338 6.407l1.05 1.049-1.05 1.05-1.049-1.049 1.049-1.05m-7.423 24.833c-.112.926.079 1.886.28 2.902.465 2.341.658 3.987-.836 5.482-.748.748-1.743 1.16-2.801 1.16s-2.053-.412-2.8-1.158c-1.043-1.045-1.417-2.57-.976-3.981.222-.71.032-1.484-.494-2.01-.381-.382-.892-.588-1.415-.588-.199 0-.399.03-.595.091-.384.12-.784.181-1.188.181-1.057 0-2.05-.411-2.796-1.156-1.544-1.545-1.544-4.057 0-5.602.816-.815 1.716-1.177 2.923-1.177.842 0 1.714.173 2.556.34.812.161 1.579.313 2.325.313.202 0 .397-.012.581-.034 2.239-.274 4.281-2.058 6.4-4.073.295.068.599.136.913.193-1.615 1.994-2.682 3.738-2.682 3.738s1.789.163 3.852-.135c-1.655 1.808-3.01 3.587-3.247 5.514m9.966-35.98l1.049-1.049 1.049 1.049-1.049 1.049-1.049-1.049m2.898 6.322l1.483 1.484-1.483 1.483-1.483-1.483 1.483-1.484m.832 8.205l-1.05-1.049 1.051-1.05 1.048 1.049-1.049 1.05m.576-19.266l1.049-1.049 1.049 1.049-1.049 1.049-1.049-1.049m1.408 6.58l1.05-1.049 1.049 1.049-1.049 1.049-1.05-1.049m2.89 7.812l-1.049-1.049 1.049-1.049 1.05 1.049-1.05 1.049m.964-18.171l1.049-1.049 1.049 1.05-1.049 1.049-1.049-1.05m3.115 13.6l-1.049-1.049 1.049-1.049 1.05 1.049-1.05 1.049m-.01-6.988l-1.483-1.484 1.483-1.484 1.483 1.484-1.483 1.484m4.327 2.114l-1.05-1.049 1.05-1.049 1.049 1.049-1.049 1.049m.644-7.148l-1.05-1.049 1.051-1.049 1.048 1.049-1.049 1.049"/></svg>