<svg xmlns="http://www.w3.org/2000/svg" viewBox="0 0 64 64" enable-background="new 0 0 64 64"><path d="m59.097 23.898l.595-1.846-24.043-9.042c.396-.817.809-1.812 1.103-2.881l24.819 5.933.429-3.108-24.82-4.654.001-.005c.334-1.829-.604-3.479-1.703-4.02-.396-.193-.823-.292-1.271-.292-.614 0-1.223.193-1.771.545-.375-.563-.924-.978-1.67-1.218-.275-.088-.561-.133-.852-.133-.406 0-.916.093-1.466.394-.073-.141-.159-.28-.267-.416-.59-.744-1.481-1.155-2.506-1.155-.978 0-2.371.486-3.456 2.803-.092.196-.182.414-.268.641l-.529-.1-.215 1.071.395.094c-.1.36-.188.736-.256 1.123l-.291-.11-.399 1.018.549.238c-.033.473-.029.946.016 1.409l-1.256.789 2.032 3.993c0 0 1.62-.878 1.661-.9.472.222.978.344 1.501.344.142 0 .289-.009.429-.026.284-.036.552-.117.813-.219.055.082.104.167.163.247.724.969 1.785 1.523 2.913 1.523.117 0 .231-.007.367-.021.037-.004.07-.017.106-.022.087.787.212 1.505.364 2.131-19.331.329-28.549 5.423-28.31 10.3.012.246.034.49.083.732.384 3.255 2.08 16.432 4.814 20.435 3.507 5.136 11.849 12.507 25.101 12.507 13.256 0 21.597-7.369 25.102-12.507 2.734-4.003 4.43-17.182 4.813-20.435.049-.242.083-.486.083-.732 0-1.586-1.049-3.086-2.903-4.428m-13.195-4.73c0 0-6.296-1.099-10.85-1.099-.001-.002-.002-.005-.003-.007-.328-.718-.521-1.756-.62-2.897l.036-.054c.018-.026.129-.192.291-.46l11.146 4.517m-11.194-6.511l-.354-.133c.023-1.066.104-2.086.215-2.915l1.208.288c-.283 1.023-.687 1.982-1.069 2.76m-1.823-7.236c.418-.289.878-.438 1.322-.438.289 0 .571.063.83.189.694.341 1.418 1.529 1.16 2.942l-2.241-.421c-.642 1.758-1.042 8.097.184 10.783.854 1.87 2.575 4.948 1.608 8.064-.252.813-.76 1.138-1.241 1.138-.715 0-1.372-.716-1.051-1.611.756-2.103-1.181-5.564-1.882-7.32-1.275-3.198-1.07-11.662 1.311-13.326m-10.479 8.194l-1.221-2.274.217-.116c.173.652.452 1.258.879 1.769.139.168.297.307.453.446l-.328.175m3.055-.22c-.099.013-.202.019-.302.019-.79 0-1.54-.377-2.111-1.061-1.521-1.822-.759-5.338.076-7.126.862-1.841 1.863-2.227 2.551-2.227.714 0 1.326.276 1.725.778.099.125.171.257.233.389-.259.24-.52.529-.778.892-.163.229-.324.491-.479.779l-.716-.026c-.03.061-.181.472-.214.543-.773 1.682-.876 3.794-.417 4.344.08.096.14.132.157.138-.027-.01-.059-.08.072-.167.044.88.238 1.77.637 2.618-.141.049-.284.088-.434.107m4.197-6.506c-.594 1.24-1.14 4.154-.174 5.478l.328.145c-.021.812 0 1.615.051 2.387-.04.008-.078.021-.119.025-.098.01-.182.016-.268.016-.809 0-1.579-.408-2.111-1.121-2.059-2.762-.907-6.481.303-8.178.863-1.208 1.697-1.462 2.246-1.462.186 0 .369.028.547.085.375.121.889.352 1.224.946-.404.49-.735 1.13-1.001 1.872l-1.026-.193m2.344 31.763c12.263 0 22.798-2.533 27.449-6.161-.099.66-.202 1.342-.311 2.034-4.36 3.688-14.854 6.293-27.142 6.293-12.368 0-22.93-2.64-27.235-6.371-.086-.674-.159-1.331-.21-1.956 4.653 3.628 15.189 6.161 27.449 6.161m-12.117-5.352l.725-.391c.283-.153 2.876-1.495 6.532-1.495 2.22 0 4.386.492 6.435 1.464l.735.349-1.251 2.167-.625-.296c-1.672-.792-3.445-1.194-5.272-1.194-3.073 0-5.267 1.15-5.288 1.162l-.6.32-1.391-2.086m35.566 15.066c-3.819 5.637-12.013 11.634-23.449 11.634-11.433 0-19.582-6.027-23.448-11.635-.9-1.305-1.906-4.393-2.696-7.838 4.825 3.625 14.701 6.117 26.141 6.117 11.371 0 21.194-2.459 26.053-6.044-.689 3.267-1.534 6.192-2.601 7.766m5.045-18.459c-.787-1.366-2.488-2.628-4.888-3.717.526.784.795 1.668.734 2.595-.142 2.235-2.316 4.786-7.998 5.236l-.736.058-.235-2.465.761-.061c4.045-.318 5.566-1.774 5.641-2.923.082-1.275-1.422-2.526-3.59-2.898-2.657-.455-4.501-.096-7.395 1.175-2.503 1.1-5.466 2.035-9.784 2.035-.664 0-1.342-.057-2.031-.153.965.348 1.934.739 2.905 1.183 1.986.907 3.948 1.366 5.831 1.366 5.395 0 8.442-4.658 8.442-4.658l2.201 1.295-.477.667c-1.848 2.582-4.44 4.279-7.498 4.907-.859.175-1.754.264-2.662.264-2.273 0-4.61-.541-6.946-1.606-5.057-2.31-9.183-2.794-11.752-2.794-3.204 0-5.042.701-5.682 1.003l-.626.294-1.244-2.168c0 0 2.765-1.654 8.339-1.591.887.011 1.781.11 2.684.23-5.383-2.544-9.531-1.993-12.788-.888-1.75.594-2.591 1.937-2.275 2.671.564 1.313 4.171 2.6 7.281 2.6.377 0 .731-.02 1.056-.06l.727-.09.365 2.451-.765.093c-.401.05-.843.074-1.312.074-3.305 0-8.51-1.278-9.731-4.12-.309-.719-.512-1.936.557-3.328-1.973.996-3.4 2.116-4.096 3.322-.332-.569-.513-1.156-.513-1.757 0-2.858 3.951-5.416 10.176-7.138l3.169-.762c4.13-.859 8.983-1.38 14.193-1.465.038.111.072.233.113.333.133.336.311.731.506 1.168.26.579.564 1.265.832 1.967-4.727 0-9.174.373-13.111 1.022 2.3.343 4.595 1.015 6.692 1.634 2.465.729 4.799 1.408 6.823 1.53-.02.474.099.937.373 1.327.402.571 1.055.913 1.745.913.786 0 1.775-.483 2.196-1.841.078-.253.117-.502.167-.752 3.549-.528 8.688-2.716 8.688-2.716s-4.327-.828-8.803-.969c-.326-1.356-.877-2.572-1.344-3.563 3.053.116 5.969.376 8.655.774l3.143.542c.166.033.324.07.488.104l11.03 4.78.14-.434c1.38 1.093 2.143 2.289 2.143 3.543.001.605-.181 1.192-.514 1.761"/></svg>