<svg xmlns="http://www.w3.org/2000/svg" viewBox="0 0 64 64" enable-background="new 0 0 64 64"><path d="m26.127 46.357c-1-.279-5.81-3.043-6.721-3.231-.188.729-.176 1.456.013 2.153 1.748.889 5.061 1.085 6.363 1.085.14 0 .257-.003.345-.007"/><path d="m40.033 47.682c-.974.078-1.936.134-2.863.14.077.306.295.613.801.879.712.375 1.34.528 1.769.528.5 0 .729-.21.505-.536-.193-.281-.261-.641-.212-1.011"/><path d="m20.479 47.953c.335.538.671 1.235 1.344 1.501 2.074.82 5.366 1.041 8.243 1.041 3.184 0 5.855-.271 5.805-.297-.719-.378-6.894-2.37-12.914-2.369-.833 0-1.665.038-2.478.124"/><path d="m14.581 46.263c-.132 1.082 1.936 3.936 1.936 3.936s1.936.985 3.871.985c-.397-.569-1.862-3.278-1.932-3.461-.921-.173-3.225-.909-3.875-1.46"/><path d="m11.917 40.602c.14-.339.338-.69.597-1.049v-2.339c-1.382.79-2.465 1.605-3.216 2.351.24.176.515.348.86.504.569.259 1.16.428 1.759.533"/><path d="m11.712 46.268c-.167.788.408 1.95 1.909 2.98.078.028.152.063.232.089-1.063-1.358-1.533-2.889-1.289-4.235-.475.338-.762.742-.852 1.166"/><path d="m17.615 43.082c-.54-.055-1.045-.078-1.516-.078-.984 0-1.816.109-2.486.309 1.001.843 2.478 1.539 4.193 1.935-.181-.799-.232-1.523-.191-2.166"/><path d="m54.368 42.087c1.825-3.692-2.045-5.661-3.014-5.661.067.088 3.872 2.951 3.014 5.661"/><path d="m50.429 45.461c.267.373.535.702.775.966.457-.312.831-.612 1.117-.895-.229-.163-.563-.315-1.006-.433-.285.124-.58.245-.886.362"/><path d="m47.483 43.313c.293.104 1.643.847 1.936.982.307-.398 3.442-3.935 2.904-3.935-.969 0-1.936 0-1.936 0s-2.433 2.552-2.904 2.953"/><path d="m45.903 46.81c-1.162.262-2.375.478-3.627.645-.081.208 1.064 1.438 1.064 1.438 1.122-.458 2.054-1.196 2.563-2.083"/><path d="m47.011 46.541c-.09.316-.213.627-.381.929-.342.622-.842 1.178-1.448 1.646.469-.146.936-.302 1.396-.466 1.071-.381 1.986-.772 2.769-1.155-.361-.433-.673-.883-.931-1.345-.456.137-.925.268-1.405.391"/><path d="m19.242 42.411c.677 2.126 2.361-.157 3.776 1.131.624.567 1.732.757 2.915.816 2.061 2.017 4.532 2.688 6.629 2.688 1.794 0 3.313-.481 4.059-1.006-1.762-.267-5.394-1.057-8.087-1.663.554.002 1.047.019 1.416.085 1.603.289 1.833-.912 3.755-.252 1.92.663 1.685-1.896 6.178-.164 1.43.552 1.082-1.7 3.478-1.072 2.393.631.667-1.819 3.672-1.625 1.724.111.707-1.927-.958-3.546 1.21.806 2.108 1.438 2.378 1.573.146-.422-.163-1.602 0-1.968-.236-.15-3.871-2.95-9.678-4.917 0 0-.278.853-.968.982 1.598.408 3.557 1.418 5.362 2.492-.372-.092-.726-.107-1.038-.016-2.585.766-5.773-4.457-9.645-4.457-3.405 0-7.105.999-10.131 2.338-1.533.272-2.959.614-4.257 1.014-.017.009-.034.018-.051.026l-.388 1.748c-1.254 1.063-1.862 2.087-1.467 2.837 1.015 1.922 2.371.831 3.05 2.956m24.855-4.016l.484.982-.484.983-.484-.983.484-.982m-3.871-2.46l.726 1.475-.726 1.478-.726-1.479.726-1.474m-2.904.491l.484.983-.484.985-.483-.985.483-.983m-2.902-3.934l.483.982-.483.984-.484-.984.484-.982m0 5.903l.483.982-.483.983-.484-.983.484-.982m-2.904-3.444l.726 1.475-.726 1.476-.726-1.476.726-1.475m-.968 5.409l.484.984-.484.984-.484-.984.484-.984m-1.935-8.36l.726 1.475-.726 1.477-.726-1.477.726-1.475m-.968 4.426l.484.983-.484.985-.484-.985.484-.983m-2.903-2.951l.484.984-.484.983-.484-.983.484-.984m0 4.92l.484.982-.484.983-.484-.983.484-.982m-2.903-2.46l.726 1.475-.726 1.478-.726-1.478.726-1.475m-2.903 1.474l.484.985-.484.982-.484-.982.484-.985"/><path d="m31.998 26.916c-5.415 0-10.441.756-14.783 2.073v-4.522c.07-.017.144-.031.212-.046v1.335c0 .838.832 1.467 1.936 1.467 1.103 0 1.936-.629 1.936-1.467v-2.396c4.952-1.622 6.753-3.361 6.753-3.361s.865-.722.554-1.583c-.029-.076 27.497-10.063 31.194-11.417 1.796-.654-.057-5.597-1.851-4.938-3.696 1.35-31.168 11.488-31.194 11.411-.312-.86-1.435-.855-1.435-.855s-1.375-.08-4.022.652v-.053c0-.838-.833-1.471-1.936-1.471-1.104 0-1.936.633-1.936 1.471v1.426c-.079.033-.164.074-.244.106-.151-.706-.916-1.212-1.903-1.212-1.103 0-1.935.63-1.935 1.47v1.621c-1.284.699-2.661 1.508-4.153 2.477-.866.559.227.646.227.646s.498-.171 1.266-.425c-.135.201-.217.431-.217.681v1.758c-.343.237-.551.45-.52.625.025.141.222.185.52.174v9.248c-5.253 2.935-8.467 6.964-8.467 11.489 0 3.814 2.278 7.286 6.141 10.041 3.296 5.025 12.714 8.659 23.859 8.659 11.146 0 20.568-3.635 23.864-8.663 3.86-2.755 6.136-6.223 6.136-10.037 0-9.188-13.179-16.384-30.002-16.384m-13.119-13.585c.08-.048.248-.108.484-.108s.404.061.484.108v12.31c-.08.046-.248.108-.484.108-.236 0-.404-.063-.484-.11v-12.308m-1.664 4.08c.069-.017.145-.038.212-.052v1.339c-.067.028-.143.059-.212.087v-1.374m0 3.267c.07-.02.143-.044.212-.065v1.618c-.069.032-.142.064-.212.098v-1.651m21.605 8.638c-1.151.053-2.297.155-3.412.361-.102-.017-.398-.146-.598-.23-.466-.201-.994-.431-1.607-.431-.051 0-.1.002-.15.005-.234-.06-.476-.091-.714-.132 2.231.013 4.402.16 6.481.427m-11.974-.184c-.545.118-1.078.243-1.581.368-1.104.273-2.148.533-2.942.533-.455 0-1.098.041-1.865.132 2.014-.47 4.154-.819 6.388-1.033m-13.501-10.656v.245c-.125-.052-.258-.093-.4-.122.133-.042.263-.083.4-.123m-2.873 16.652c.347-.222 1.447-.774 1.447-.774v-14.23c.08-.049.248-.109.484-.109s.404.061.484.109v13.785l1.909-.945v-17.843c.08-.048.248-.107.484-.107.236 0 .404.06.484.107v17.558l1.373-.396c2.199-.542 4.198-.773 5.187-.773 2.138 0 4.944-1.336 8.048-1.336.846 0 1.714.099 2.597.353.075-.024.154-.033.235-.033.658 0 1.479.66 2.239.66.047 0 .093-.002.14-.007 1.4-.263 2.899-.405 4.409-.405.532 0 1.065.018 1.596.054 2.141.146 5.746.72 8.282 2.804 4.302 1.651 6.564 3.473 6.888 5.545.178 1.139-1.275 3.757-1.531 5.152-.346 1.894-3.871 5.903-8.7 6.441-2.141.239-19.304 1.433-19.364 1.453 2.649 1.774 5.251 1.946 5.729 1.946.046 0 .072-.002.077-.003l.968 1.969c-.787.08-1.512.117-2.185.117-6.086 0-7.815-3.008-11.008-3.008-.03 0-.061 0-.091.001-.079.001-.159.003-.239.003-2.342 0-5.319-.604-8.819-2.344-2.381-1.181-3.672-2.589-3.839-4.184-.074-.714.063-1.777 1.062-2.832-3.914-1.526-1.392-3.552-.869-4.277-.043-1.843.907-3.424 2.523-4.451m21.526 22.591c-15.474 0-28.063-6.467-28.063-14.419 0-2.493 1.238-4.839 3.414-6.885-.476.817-.772 1.683-.838 2.604-.566.652-1.588 1.908-1.219 3.446.182.757.649 1.4 1.416 1.942-.344.773-.482 1.601-.396 2.434.222 2.137 1.786 3.938 4.646 5.358 3.329 1.651 6.51 2.491 9.456 2.491l.264-.002.065-.001c1.009 0 1.865.421 3.049.999 1.826.895 4.097 2.006 7.958 2.006.742 0 1.527-.04 2.333-.124l2.091-.215-.939-1.915-.969-1.966-.15-.309c5.094-.366 11.311-.82 12.569-.959 5.342-.597 9.473-4.924 9.969-7.64.078-.427.361-1.149.636-1.849.55-1.403 1.069-2.729.901-3.806-.068-.434-.195-.853-.373-1.262 1.445 1.736 2.247 3.646 2.247 5.65-.001 7.955-12.591 14.422-28.067 14.422"/></svg>