<svg xmlns="http://www.w3.org/2000/svg" viewBox="0 0 64 64" enable-background="new 0 0 64 64"><path d="m62 12.141l-6.519-4.145-.92 1.523-6.049-.188.157-1.06-7.18-3.511-1.016 6.894-1.998-1.802.721-4.631-7.553-1.354-.441 2.78.037-2.064-5.961 2.257.547-3.484-7.552-1.356-.149.863-7.595 3.794.013.774-8.542.63 3.935 7.774-3.793 2.938 4.666 9.847h-1.46l4.335 29.039c8.299 5.788 36.14 5.788 44.44 0l4.168-27.934 3.474-7.52-3.678-3.529 3.913-6.535m-5.934-1.434l3.237 2.061-2.062 3.475.478-1.035-2.859-2.389 1.206-2.112m-.688 5.024l-2.154 4.256-3.029-2.178 1.865-4.738 3.318 2.66m-7.123-4.483l2.377.066-3.072 7.729.695-7.795m-5.315-3.594l3.618 1.757-.978 10.854-2.564-1.793.988-3.851-1.771-1.459.707-5.508m-4.238 5.012l3.119 2.666-.514 2.055-2.173-1.328-.079 1.595c0 0-.925 8.072-1.501 10.714-.403 1.846-2.164 7.243-2.164 7.243s.149-4.917.271-6.552c.136-1.811.588-5.416.906-7.202.416-2.323 2.135-9.191 2.135-9.191m-6.902 7.292c.145-3.479 1.403-13.852 1.403-13.852l3.784.679c0 0-2.906 18.043-3.363 24.112-.131 1.745-.082 6.999-.082 6.999-.299.023-.603.034-.907.045l-.604-5.336c-.001 0-.362-9.487-.231-12.647m-1.075 17.969c-.124-.007-.249-.012-.372-.021l-.252-5.587.624 5.608m-1.46-30.578l.622 12.774-.078 3.63-1.404-1.208-.796-9.318-2.148-1.211-.08-3.146 3.884-1.521m-9.433-3.11l3.784.68-.773 5.699-3.669-1.807.658-4.572m-3.369 1.532c0 0 .112 6.241.252 8.316.106 1.562.654 6.227.654 6.227l-.682-3.886-2.319-.689-1.785-4.387-.126-3.546 4.006-2.035m-11.339 3.972l4.48-.319 2.415 5.597-3.328-1.052.826 5.628-4.393-9.854m3.419 18.877l-4.186-9.169 2.341-1.797 3.06 10.966h-1.215m5.382 0l-.02-.046-2.619-9.919-.319-1.938 4.012 1.22c0 0 .944 4.782 1.375 6.347.304 1.103 1.457 4.336 1.457 4.336h-3.886m3.988.305l.386 1.148 1.472 3.209c-1.118-1.29-1.781-2.772-1.858-4.357m.729-14.948l.487-4.81.274 1.451 1.338 17.74-2.099-14.381m4.655 16.274c-.125 1.364-.188 5.478-.188 5.478l-.858-1.611c0 0 .172-1.532.193-2.044.154-3.689.102-11.085-.156-14.769-.092-1.3-.672-5.17-.672-5.17l4.222 2.287.581 6.285-1.482-1.427c0 0-1.387 8.209-1.64 10.971m2.064-1.704c.113-1.376.763-5.47.763-5.47l2.597 2.286c0 0-.477 5.292-.534 7.062-.035 1.102.049 4.411.049 4.411l.072.809c-1.109-.196-2.17-.474-3.154-.835-.001 0 .038-6.205.207-8.263m9.019 29.174l-1.39-.794-.583-.328c-.059.126-.184.217-.326.214l-.363.003c-.143 0-.266-.089-.324-.217l-.582.33-1.393.792v-1.583-1.583l1.395.793.582.33c.057-.128.18-.217.322-.214l.365-.003c.143.003.266.087.325.219l.582-.332 1.39-.793.002 1.581-.002 1.585m3.56-10.851c-.051.03-.098.068-.141.113.146.52.225 1.064.226 1.631-.003 3.348-2.743 6.062-6.123 6.065-3.384.001-6.126-2.713-6.126-6.065.002-.566.081-1.11.225-1.629-.043-.047-.088-.085-.141-.113-.156-.092-.129-.007-.129-.225v-.113c0-.09.01-.108.058-.132.086-.043.173-.086.265-.113.066-.026.141-.047.218-.065.937-2.164 3.106-3.678 5.631-3.678 2.522.002 4.69 1.517 5.626 3.677.079.02.152.041.221.063.09.032.179.072.264.115.048.025.059.044.06.134l-.001.115c-.002.216.026.13-.133.22m3.564-11.457c-1.361.856-2.978 1.529-4.768 1.97l.384-.936c0 0 1.843-5.879 2.354-7.867.106-.418.287-1.265.362-1.689.329-1.872 1.03-7.533 1.03-7.533l3.99 2.736c0 0-.75 4.361-1.099 5.794-.465 1.908-2.253 7.525-2.253 7.525m7.402-12.004c-.165 1.218-.872 4.836-.872 4.836l-.287.375h-1.835c0 1.381-.46 2.687-1.266 3.865l-.213.26 1.728-6.949 3.051-5.75c0 0-.193 2.526-.306 3.363m3.906 2.075c-.161.791-.777 3.136-.777 3.136h-2.146c0 0 .667-3.263.831-4.361.129-.864.376-3.475.376-3.475l2.196 1.704c0 0-.329 2.253-.48 2.996m6.435-2.962l-2.672 6.098h-2.685c0 0 .584-1.741.725-2.336.186-.794.523-3.223.523-3.223l1.699-2.893 2.41 2.354"/><path d="m29.146 46.073c.758.067 1.389.234 1.906.498.487.244 1.213.244 1.699.002.517-.262 1.149-.433 1.906-.5.471-.04 1.277-.055 2.006.013-.912-1.68-2.701-2.819-4.761-2.819-2.062-.002-3.85 1.14-4.762 2.819.727-.065 1.535-.051 2.006-.013"/><path d="m36.045 49.909c-.687.256-1.456.246-2.137-.023-.372-.148-.699-.379-.96-.757-.457-.664-.318-1.081-.557-1.649-.203-.496-.775-.496-.985 0-.233.568-.098.985-.555 1.647-.258.38-.583.61-.96.759-.68.27-1.446.279-2.135.023-.639-.236-1.065-.702-1.254-1.414-.002.037-.002.08-.001.119 0 2.956 2.415 5.353 5.4 5.35 2.979 0 5.398-2.396 5.398-5.35.001-.039 0-.083-.001-.123-.187.719-.614 1.179-1.253 1.418m-2.555 2.177c-.407.33-.997.525-1.588.522-.593.003-1.181-.192-1.589-.522-.408-.327-.629-.789-.58-1.212.232.36.56.627.936.807.377.183.805.271 1.233.271s.854-.091 1.231-.273c.377-.177.703-.443.936-.804.05.424-.17.884-.579 1.211"/></svg>