<svg xmlns="http://www.w3.org/2000/svg" viewBox="0 0 64 64" enable-background="new 0 0 64 64"><path d="m57.11 36.22c1.203-4.322-3.473-10.585-6.021-12.143-.763-10.084-6.642-10.967-6.642-10.967-3.248-7.407-7.848-11.11-12.448-11.11s-9.2 3.703-12.449 11.11c0 0-5.879.883-6.643 10.967-2.547 1.558-7.223 7.82-6.02 12.143-5.572 3.85-6.238 14.266-2.721 15.209-.701 3.641 4.921 6.12 12.833 7.44v.976c0 2.873 30 2.873 30 0v-.976c7.909-1.321 13.53-3.801 12.829-7.44 3.523-.944 2.857-11.36-2.718-15.209m2.202 13.277l-1.799.481.353 1.828c.052.268.05.605-.355 1.096-1.347 1.631-5.229 3.013-10.51 3.926v-16.925c.505.212 1.05.411 1.685.58 7.517 2.009 9.198-3.628 1.695-5.508-3.458-.868-5.66-.168-6.305 1.024h-27.076v20.828c-5.282-.912-9.167-2.295-10.514-3.926-.405-.49-.407-.828-.355-1.096l.347-1.734c.715.479 1.625.93 2.795 1.302 7.409 2.369 9.361-3.184 1.957-5.418-6.063-1.836-8.451 1.438-4.99 3.959l-1.543-.413c-.116-.064-.602-.686-.686-2.363-.152-3.047 1.203-7.332 4.013-9.273l1.172-.81-.034-.123c1.032.646 2.997.608 5.663-.708 6.981-3.438 4.539-8.79-2.347-5.263-1.997 1.021-3.198 2.182-3.755 3.233.305-3.115 3.33-7.252 5.228-8.412l.874-.534.077-1.021c.105-1.385.317-2.547.589-3.547.296 1.127 1.381 2.502 3.476 3.829 6.57 4.172 9.866-.702 3.269-4.746-2.715-1.667-4.86-1.845-5.979-1.19 1.451-3.012 3.497-3.467 3.591-3.486l1.092-.164.443-1.01c2.763-6.3 6.632-9.913 10.616-9.913s7.854 3.613 10.617 9.914l.401 1.003 1.091.164c.178.035 4.367.954 4.987 9.147l.077 1.021.873.534c2.222 1.358 6.002 6.798 5.138 9.9l-.382 1.372 1.172.81c2.818 1.947 4.172 6.238 4.014 9.288-.088 1.669-.572 2.285-.675 2.344"/><path d="m50.604 50.927c5.482 5.521 9.773 1.498 4.235-3.904-5.498-5.372-9.693-1.574-4.235 3.904"/><path d="m42.628 24.807c-3.144 7.019 1.87 9.644 5.127 2.628 3.288-7.049-1.97-9.691-5.127-2.628"/><path d="m37.012 17.132c-7.082-2.991-9.6 2.077-2.518 5.186 7.119 3.135 9.644-2.177 2.518-5.186"/><path d="m31.862 12.097c7.313-2.658 5.463-8.244-1.765-5.486-7.186 2.734-5.503 8.136 1.765 5.486"/><path d="m30.272 27.519c-7.392 2.12-6.166 7.646 1.299 5.617 7.507-2.032 6.137-7.754-1.299-5.617"/></svg>