<svg xmlns="http://www.w3.org/2000/svg" viewBox="0 0 64 64" enable-background="new 0 0 64 64"><path d="m60.645 30.119c-.779-5.394-.904-7.261-.861-7.856.1-.226.412-.696.625-1.014.71-1.06 1.591-2.378 1.591-4.005 0-6.975-9.283-13.244-21.561-13.244-10.21 0-20.748 3.666-28.174 7.813-1.483.734-2.845 1.584-4.059 2.515-.015.011-.031.021-.047.031-.003.002-.002.006-.004.009-3.812 2.941-6.155 6.674-6.155 10.066 0 1.627.881 2.945 1.592 4.005.215.321.531.796.627 1.02.045.543-.072 2.389-.863 7.852-.053.373-.098.675-.127.884-1.447 10.604-1.188 15.665.961 18.68 1.851 2.594 4.802 3.125 8.665 3.125 1.342 0 2.863-.063 4.473-.129 2.018-.084 4.303-.178 6.834-.178s4.818.094 6.834.178c1.611.067 3.131.129 4.473.129.717 0 1.39-.027 2.042-.074l-.003.011c.197 0 .42-.024.656-.058 1.752-.184 3.248-.616 4.466-1.493 6.492-2.872 15.79-8.906 17.181-10.858 2.15-3.014 2.41-5.92.961-16.523-.03-.209-.075-.513-.127-.886m-17.334 8.421c2.326 17.021.197 19.304-7.842 19.304-2.949 0-6.695-.308-11.307-.308s-8.357.308-11.307.308c-8.037 0-10.166-2.285-7.842-19.304.207-1.501 1.232-8.08.971-9.569-.225-1.279-2.176-2.986-2.176-4.537 0-5.603 9.113-13.245 20.354-13.245s20.354 7.643 20.354 13.245c0 1.551-1.951 3.258-2.176 4.537-.262 1.489.765 8.068.971 9.569"/></svg>