<svg xmlns="http://www.w3.org/2000/svg" viewBox="0 0 64 64" enable-background="new 0 0 64 64"><path d="m60.925 36.374c0-.938-.229-1.95-.753-2.972.128-.425.22-.854.29-1.284.23-.137.455-.305.656-.528 1.34-1.493.86-4.398.455-5.997-.041-.164-.108-.313-.188-.455.123-.452.188-.924.188-1.417.001-11.978-13.265-21.721-29.573-21.721s-29.574 9.743-29.574 21.721c0 .492.066.965.188 1.417-.079.141-.146.289-.187.452-.405 1.598-.885 4.498.449 5.989.132.799.354 1.602.692 2.397-.336.824-.491 1.636-.491 2.397 0 .764.072 1.505.203 2.229-.503 1.193-.77 2.445-.77 3.73.001 8.973 5.117 19.668 29.49 19.668s29.489-10.695 29.489-19.667c0-1.284-.266-2.534-.769-3.729.132-.724.205-1.466.205-2.23m-1.351-12.653c0 5.049-11.081 8.441-27.574 8.441-16.493 0-27.574-3.393-27.574-8.441 0-10.91 12.37-19.785 27.574-19.785s27.574 8.875 27.574 19.785m-27.574 36.343c-18.241 0-27.49-5.965-27.49-17.731 0-.108.002-.217.007-.325 3.716 7.437 12.94 11.202 27.484 11.202 14.543 0 23.765-3.764 27.482-11.199.004.107.006.215.006.322 0 11.767-9.248 17.731-27.489 17.731m27.451-24.258l-.011-.021-.049.181c-2.404 5.942-9.953 10.055-24.678 10.5l-4.866 4.771c-.144-.003-.295-.003-.438-.007l-5.357-5.109c-11.277-1.17-17.314-4.941-19.431-10.111l-.061-.224-.018.038c-.022-.057-.05-.111-.071-.168 1.586 2.484 4.331 4.82 8.634 6.652 3.376 1.438 6.37 1.998 8.967 1.924l-4.148-3.956c-1.217-.31-2.491-.735-3.83-1.306-1.624-.691-3.014-1.459-4.219-2.274.326.116.667.195 1.04.195.796 0 1.566-.271 2.245-.511.206-.072.5-.176.734-.242.104.183.22.409.308.583.498.976 1.178 2.31 2.609 2.722.259.073.53.111.807.111 1.043 0 1.942-.521 2.735-.98.188-.11.438-.254.643-.357.133.163.283.368.398.525.641.87 1.519 2.062 2.968 2.251.125.017.248.024.372.024 1.238 0 2.217-.775 3.004-1.399.166-.132.383-.305.566-.435.155.146.334.33.472.472.79.813 1.774 1.827 3.225 1.827 1.451 0 2.434-1.013 3.225-1.827.138-.142.316-.326.472-.472.184.13.4.303.566.434.786.624 1.766 1.4 3.004 1.4.123 0 .248-.008.37-.023.351-.046.665-.15.951-.291l-2.366 2.321c2.572.599 5.693.626 9.406-.185 7.357-1.606 11.107-5.196 12.425-9.092-.132.709-.344 1.393-.603 2.059m-53.811-3.192c.045 0 .095.001.134.001.23 0 .47-.009.712-.016.2-.008.401-.016.598-.016.101 0 .183.003.25.006.06.201.122.458.169.654.18.743.414 1.669.971 2.415-1.177-.967-2.118-1.989-2.834-3.044m35.603 7.661c.556-.448.988-1.024 1.365-1.535.117-.157.268-.362.4-.525.204.104.452.247.641.357.792.46 1.689.98 2.733.98.276 0 .548-.038.807-.111 1.431-.412 2.112-1.747 2.609-2.723.089-.174.204-.399.308-.581.234.065.529.17.734.242.68.239 1.449.511 2.246.511.221 0 .43-.031.636-.072-1.884 1.209-4.286 2.203-7.302 2.861-1.883.412-3.594.583-5.177.596m14.589-5.095c.343-.639.52-1.343.663-1.933.047-.195.109-.453.168-.653.066-.004.147-.006.245-.006.198 0 .401.008.603.014.133.005.261.006.392.01-.533.898-1.216 1.762-2.071 2.568m3.843-4.883c-.289.321-.83.387-1.445.387-.424 0-.885-.031-1.32-.031-.591 0-1.14.057-1.504.323-.925.677-.693 3.281-1.812 3.869-.149.077-.319.11-.507.11-.941 0-2.295-.817-3.292-.818-.173 0-.334.024-.481.082-1.086.426-1.467 3.019-2.662 3.362-.086.025-.176.036-.269.036-1.052 0-2.495-1.462-3.595-1.462-.075 0-.148.007-.221.021-1.156.234-1.957 2.735-3.18 2.896-.039.004-.08.007-.119.007-1.133 0-2.482-1.984-3.654-1.984-.021 0-.043.001-.063.002-1.188.075-2.322 2.447-3.549 2.447-1.228 0-2.36-2.372-3.548-2.447-.021-.001-.043-.002-.064-.002-1.172 0-2.522 1.984-3.654 1.984-.04 0-.08-.002-.119-.007-1.223-.161-2.021-2.662-3.18-2.896-.071-.015-.145-.021-.221-.021-1.1 0-2.544 1.462-3.597 1.462-.093 0-.183-.011-.269-.036-1.196-.344-1.577-2.938-2.664-3.362-.147-.058-.309-.082-.481-.082-.996 0-2.348.817-3.289.817-.188 0-.36-.033-.51-.111-1.118-.59-.889-3.194-1.811-3.869-.367-.269-.918-.325-1.51-.325-.434 0-.89.031-1.311.031-.618 0-1.161-.065-1.45-.389-.456-.508-.425-1.689-.299-2.674 4.272 4.704 16.441 6.48 27.976 6.48 11.536 0 23.704-1.776 27.975-6.48.126.987.156 2.17-.301 2.68"/><path d="m14.977 15.57l-1.514-1.452-1.514 1.452 1.514 1.451z"/><path d="m20.927 14.636l1.513-1.452-1.513-1.452-1.514 1.452z"/><path d="m26.676 19.813l-1.513-1.452-1.514 1.452 1.514 1.451z"/><path d="m31.909 14.603l-1.008-.968-1.01.968 1.01.967z"/><path d="m48.647 18.361l1.01.967 1.01-.967-1.01-.967z"/><path d="m56.795 19.328l-1.009-.967-1.01.967 1.01.968z"/><path d="m45.136 12.216l-1.008-.968-1.01.968 1.01.968z"/><path d="m14.608 11.007l-1.008-.968-1.01.968 1.01.968z"/><path d="m9.224 15.57l-1.009-.967-1.009.967 1.009.968z"/><path d="m13.463 21.96l1.01.968 1.008-.968-1.008-.968z"/><path d="m27.18 7.136l-1.008-.968-1.009.968 1.009.968z"/><path d="m36.706 6.168l-1.008-.968-1.01.968 1.01.968z"/><path d="m20.926 8.104l-1.008-.968-1.009.968 1.009.967z"/><path d="m49.591 10.401l-1.008-.967-1.01.967 1.01.968z"/><path d="m37.212 24.013l1.513-1.452-1.513-1.452-1.515 1.452z"/><path d="m36.354 15.119l-1.513-1.451-1.514 1.451 1.514 1.452z"/><path d="m41.931 9.555l-1.513-1.451-1.515 1.451 1.515 1.452z"/><path d="m43.267 15.766l1.513 1.452 1.514-1.452-1.514-1.452z"/><path d="m52.685 13.668l-1.514-1.452-1.514 1.452 1.514 1.451z"/><path d="m46.294 23.62l1.514-1.451-1.514-1.452-1.514 1.452z"/><path d="m8.214 19.657l1.515 1.452 1.513-1.452-1.513-1.451z"/></svg>