<svg xmlns="http://www.w3.org/2000/svg" viewBox="0 0 64 64" enable-background="new 0 0 64 64"><path fill-rule="evenodd" d="m61.014 38.267c-2.49-7.07-5.729-10.222-10.502-10.222-1.721 0-3.453.403-5.128.793-.852.199-1.731.403-2.575.545-.094.016-.219.025-.325.038-2.776-3.719-6.079-10.162-4.357-19.968 2.465-1.447 5.286-2.725 8.487-3.752-.293.397-.556.829-.76 1.313-3.696 8.748 9.025 20.85 9.025 20.85s-1.28-9.151 2.15-17.329c2.128-5.078-3.287-8.535-3.287-8.535s-.063.008-.154.02l-.002-.011c-22.243 3.665-30.495 18.228-32.938 26.089-.537-.008-1.206-.075-1.977-.154-1.091-.111-2.328-.238-3.651-.238-7.437 0-11.635 4.47-12.834 13.667-.716 5.488.637 10.397 3.912 14.196 3.471 4.027 8.944 6.431 14.639 6.431 5.438 0 10.624-2.127 14.168-5.74 2.929 2.084 6.492 3.101 9.911 3.101 1.005 0 2.019-.085 3.009-.25 5.211-.872 9.789-3.927 12.247-8.172 2.199-3.796 2.524-8.179.942-12.672m-25.06-27.446c-1.108 8.82 1.62 14.921 4.26 18.779-1.603.116-3.544.333-5.381 1.081-3.156-3.212-7.267-2.951-11.104-2.707-.353.021-.711.042-1.068.062 1.573-4.727 5.36-11.804 13.293-17.215m-15.217 49.212c-5.146 0-10.075-2.154-13.184-5.76-2.896-3.36-4.088-7.731-3.448-12.643 1.382-10.597 6.56-11.958 10.916-11.958 1.226 0 2.411.122 3.457.229.611.063 1.146.108 1.645.136-.169.749-.271 1.391-.318 1.894-1.954-.225-3.888-.528-5.946-.841.862.728 1.877 1.218 2.913 1.597 1.039.385 2.125.63 3.227.756 1.1.124 2.223.121 3.323-.051 1.1-.162 2.188-.489 3.15-1.065-1.115-.02-2.162-.029-3.207-.084-.517-.033-1.026-.088-1.539-.131.04-.523.163-1.241.363-2.083.592-.025 1.182-.058 1.762-.094.994-.063 2.021-.128 2.999-.128 4.291 0 8.638.917 10.528 11.864.809 4.679-.222 8.915-2.978 12.252-3.163 3.826-8.27 6.11-13.663 6.11m37.668-10.094c-2.172 3.75-6.244 6.452-10.895 7.229-.888.149-1.794.226-2.694.226-2.968 0-6.058-.867-8.615-2.641 2.88-3.727 3.958-8.348 3.081-13.421-.714-4.131-1.805-7.016-3.145-9.028 1.674-.575 3.46-.696 4.981-.793.176-.011.327-.023.491-.035.521.641 1.008 1.198 1.422 1.652l-4.789 1.128c.928.374 1.92.486 2.894.493.979.014 1.956-.113 2.91-.348.95-.236 1.883-.59 2.742-1.085.86-.486 1.659-1.113 2.263-1.917l-2.705.856c-.395.113-.79.211-1.183.319-.113-.125-.218-.242-.355-.393-.259-.284-.571-.627-.905-1.01.644-.128 1.286-.271 1.913-.417 1.642-.382 3.193-.743 4.695-.743 2.738 0 5.911 1.06 8.68 8.918 1.382 3.927 1.111 7.735-.786 11.01"/></svg>