<svg xmlns="http://www.w3.org/2000/svg" viewBox="0 0 64 64" enable-background="new 0 0 64 64"><path d="m31.999 13c-5.822 0-11.257 1.002-15.861 2.729-.515.11-1.044.294-1.519.609-.781.334-1.529.694-2.252 1.07-.353.073-.706.237-.997.539-1.309.744-2.506 1.558-3.574 2.433-.175-.049-.357-.083-.552-.083-.55 0-1.063.226-1.446.634-.592.633-.738 1.384-.701 2.106-.057.07-.107.142-.163.212-.615.225-1.163.752-1.301 1.666-.012.078-.004.159-.01.237-1.05 1.828-1.623 3.786-1.623 5.824 0 4.288 2.522 8.229 6.72 11.323 3.713 5.097 12.723 8.701 23.28 8.701 10.558 0 19.573-3.605 23.285-8.705 4.194-3.094 6.715-7.033 6.715-11.319 0-9.913-13.459-17.976-30.001-17.976m-26.388 11.613c.513 0 1.262.61 1.558.915-.36.359-.729.918-1.009 1.602-.061.149-.113.297-.161.442-.056-.161-.167-.348-.354-.659-.303-.502-.619-1.166-.528-1.773.057-.385.248-.527.494-.527m-1.471 5.702c-.151-.545.466-.814.882-.904.458-.099.632-.079.729-.189.034.338.144.571.334.631.482.15 1.296-.826 1.856-2.113.562-1.293.641-2.434.141-2.621-.232-.086-.547.063-.871.372-.135-.966-1.131-2.665-.319-3.532.106-.114.227-.16.352-.16.321 0 .667.303.858.516.08.088.163.141.247.178 0 .021-.001.043-.001.064.044 1.307.53 2.311 1.082 2.236.391-.051.719-.61.875-1.375.426.282 1.485-.268 2.439-1.172.972-.925 1.461-1.874 1.052-2.206-.406-.334-1.558.084-2.53 1.021-.17.164-.316.332-.451.499-1.565-.119.763-1.833 1.425-2.087.091-.476.289-.613.537-.613.116 0 .245.033.377.073-.066.119-.092.234-.053.339.177.469 1.41.518 2.774.184 1.366-.336 2.361-.898 2.207-1.334-.153-.434-1.415-.604-2.804-.301-.042.009-.079.021-.12.031.982-1.068 3.173-.563 4.074-1.309.108-.091.256-.121.411-.121.198 0 .407.051.557.09.178.046.312.063.43.063.258 0 .438-.079.819-.102.034-.002.07-.004.106-.004.234 0 .498.059.594.297.453-.068.687-.064 1.08-.24-.856-.573.269-.777.854-.818-.193.121-.29.256-.243.395.131.393 1.288.625 2.632.613.38.031.797.043 1.232.027 1.411-.059 2.444-.34 2.304-.711-.084-.215-.559-.419-1.217-.55.567-.099 1.102-.146 1.231-.146.003 0 .006 0 .009 0-.459-.578-.337-.766.001-.766.5 0 1.471.408 1.747.572.017.01.033.023.05.034-.489.065-.574.76-.178 1.603.42.904 1.217 1.604 1.789 1.605.574.006.721-.662.312-1.539-.03-.064-.066-.126-.101-.189.275.347.22.473.75.666.828.301.438.531.929.971.442.111.886.277 1.304.459.214.092 1.7 1.798.982 1.798-.035 0-.073-.002-.115-.005-.399-.029-.798-.143-1.176-.266-.025-.104-.096-.194-.22-.264-.479-.268-1.552-.09-2.374.471-.486.33-.772.705-.832 1.006-.115-.047-.257-.092-.42-.131.247-.232.443-.574.533-.969.178-.791-.151-1.539-.747-1.674-.59-.133-1.209.439-1.369 1.285-.089.461-.024.889.143 1.201-.172-.002-.35 0-.529.01-1.396.07-2.414.49-2.29.86.052.152.291.266.642.342-.355.1-.734.244-1.102.445-.602.326-1.027.709-1.229 1.033-.438-.012-.96.027-1.511.139-1.35.268-2.314.867-2.176 1.262.139.398 1.314.414 2.646.109 1.069-.246 1.912-.604 2.143-.922.445-.119.958-.324 1.457-.59.95-.508 1.518-1.055 1.375-1.375.153-.006.31-.014.469-.025 1.063-.084 1.918-.281 2.206-.52.219.098.555.08.925-.004-.058.561.408 1.352-.069 1.91-.139.162-.309.227-.484.227-.305 0-.628-.191-.841-.4-.292-.287-.931-.547-1.417-.547-.143 0-.273.023-.376.074-.576.285-.924.1-1.425.469.209.016 1.254.121.781.604.037-.002.157-.007.321-.007.625 0 1.895.061 1.686.501-.279.592-1.703.73-2.233.82-.458.077-.975.15-1.485.15-.441 0-.877-.055-1.265-.209-.282-.113-.508-.204-.738-.204-.179 0-.359.056-.57.198-.356.243.296.457.748.457.36 0 .681.068.771.297.171.436-.966.881-1.204.984-.184.081-1.993.63-2.922.63-.417 0-1.459-.272-1.872.183-.164.176-.423.229-.686.229-.221 0-1.91.208-2.722.421-.287.201-.279.354.024.459.097.125.104.254.021.383-.2.348-.667.545-1.016.684-.036.014-.074.025-.11.039-.002-.01.002-.021-.001-.029-.132-.361-1.011-.35-2.047.039-.221-.363-1.09-.619-2.186-.592-.417.01-.808.068-1.156.154.236-.471.384-1.193.369-1.975-.023-1.27-.49-2.244-1.046-2.178s-.967 1.188-.912 2.508c.039.955.296 1.723.634 2.037-.217.15-.357.316-.373.494-.049.535.96.889 2.254.803.158-.012.314-.027.465-.047-.362.365-.544.717-.455.949.065.17.259.249.539.251-.262.221-.488.393-.59.468-.567.412.429.846-.232 1.35-.223.17-.514.228-.803.228-.178 0-.355-.022-.515-.052-.357-.065-.717-.189-1.048-.367.224-.492.125-1.39-.306-2.26-.526-1.061-1.357-1.691-1.829-1.363-.342.235-.389.923-.183 1.697-.144-.089-.284-.182-.415-.289-.34.084-.699.133-1.054.133-.098 0-.195-.004-.292-.012-.38-.029-1.04-.154-1.072-.648-.034-.625.489-.227-.169-.75-.197-.141-.337-.327-.419-.554m26.883-2.578l-.093-.746c.467-.08.998-.205 1.48-.436l1.466-.184.124.993-2.977.373m1.977 9.489l-.496.867-2.604-1.488.496-.867 2.604 1.488m.277-1.553c.776-1.621 1.394-2.219 2.242-2.467.495-.146.731-.609 1.08-.885l-2.499-1.428.496-.869 2.604 1.488-.391.684c.216-.099.477-.126.854.016 1.216.459 2.277-.68 2.592 1.291.313 1.971-1.951 1.855-2.327 3.064-.374 1.205-2.235.641-3.045 1.809-.812 1.168-2.56-.711-1.606-2.703m.838-13.711c.435-.105.917-.307 1.348-.577.071-.045.133-.09.195-.135.344.46.965 1.507.159 1.624-.044.006-.089.008-.133.008-.592 0-1.194-.514-1.569-.92m3.885 6.642l.496-.867 2.604 1.488-.496.867-2.604-1.488m2.241-3.455c-.945-.441-2.174.535-3.127 1.607-.953 1.07-.838-.715-.617-1.426.229-.732.405-.999.485-1.366.275-.21.488-.49.611-.823.134-.365.143-.738.078-1.092.354-.008.651-.09.895-.218.438.023 1.324-.065 2.155 1.042.889 1.187.467 2.718-.48 2.276m-12.464 6.864c.996.123 1.004 1.609.423 2.377-.581.766-1.271 3.143-2.433 3.611-1.165.467-2.17-.93-2.012-2.846.161-1.916 2.371-3.345 4.022-3.142m-2.229-.735l.946-2.482c.183-.059.324-.107.374-.129l.041-.017c.027-.012.047-.024.074-.036l.569.217-1.069 2.803-.935-.356m-2.548 1.948l-.496.869-2.604-1.488.496-.869 2.604 1.488m8.999 13.727c-14.004 0-25.627-5.899-27.667-13.571.354.196.793.34 1.354.383.133.01.27.016.407.016.078 0 .156-.002.235-.006.142.236.339.441.586.599l.074.048.079.038c.265.128.543.205.83.229.678.768 1.68 1.318 2.761 1.517.268.05.534.076.785.076.23 0 .444-.029.651-.071 1.236.771 2.675 1.469 4.291 2.072.313.313.589.896.107 1.951-.826 1.807 2.068 4.128 4.672 2.751 2.604-1.378 6.375-.942 7.789 0 1.414.939 5.415 1.23 7.514 0 2.1-1.233 3.699-2.204 7.25-2.153s6.218-3.244 8.023-4.508c.002-.002.003-.003.006-.005 3.111-1.892 4.957-4.244 4.957-6.794 0-5.125-7.483-9.447-17.724-10.827-.296-.504-.877-.948-1.752-1.324-.327-.142-.636-.261-.934-.359-.272-.506-.678-.833-1.304-1.073-.072-.106-.174-.242-.313-.397-.149-.167-.313-.329-.484-.488 14.417.639 25.808 7.532 25.808 15.919 0 8.809-12.562 15.977-28.001 15.977m15.139-15.7c-.621-.205-1.33-.947-2.51-.646s-3.295 1.008-2.559-1.166c.443-1.314 1.258-4.631 3.621-4.568 2.362.063 1.884 2.805 1.884 2.805s.184 3.782-.436 3.575m-2.262 2.121l.124.992-2.977.371-.124-.992 2.977-.371m3.023-7.266l2.977-.371.124.992-2.977.371-.124-.992"/><path d="m27.364 18.361c1.401.33 2.642.346 2.784.021.145-.324-.875-.912-2.294-1.295-1.416-.385-2.681-.375-2.808.004-.128.38.916.94 2.318 1.27"/><path d="m18.058 26.073c-1.299.449-2.198 1.219-2.041 1.646.158.434 1.3.332 2.575-.152 1.273-.484 2.218-1.139 2.078-1.535-.136-.392-1.319-.408-2.612.041"/><path d="m14.067 29.257c.292-.109.484-.501.555-1.023.067.033.139.053.214.047.538-.039 1.076-1.047 1.211-2.236.006-.055.006-.105.011-.158.022.042.046.084.084.113.396.311 1.485-.211 2.478-1.074.234-.205.438-.41.613-.609.148.271.339.434.558.422.121-.008.239-.068.354-.164.047.063.103.111.173.139.492.182 1.389-.633 2.039-1.75.178-.307.314-.604.414-.881.537.084 1.336-.54 1.842-1.396.148-.25.249-.494.313-.723.141.68.489 1.225.889 1.43-.4.111-.838.293-1.257.55-1.059.641-1.585 1.475-1.205 1.766.379.293 1.518-.055 2.575-.682 1.058-.633 1.633-1.317 1.256-1.624-.115-.092-.31-.133-.547-.135.293-.293.446-.852.354-1.5-.13-.924-.716-1.703-1.307-1.713-.418-.008-.711.393-.797.969-.067-.113-.165-.195-.293-.242.292-.156.449-.326.394-.492-.135-.402-1.398-.662-2.816-.508-1.385.148-2.377.666-2.274 1.096-.002-.002-.002-.004-.004-.006-.387-.322-1.571-.057-2.61.684-.831.59-1.309 1.291-1.272 1.709-.171.028-.347.063-.524.107-1.362.332-2.309 1.028-2.139 1.479.171.453 1.376.461 2.716.092 1.335-.369 2.318-.947 2.168-1.366-.05-.141-.234-.245-.499-.313.313-.152.639-.34.959-.563.882-.619 1.409-1.273 1.309-1.654.351.322 1.463.412 2.691.248.246-.033.476-.076.694-.121-.275.232-.537.545-.74.918-.085.156-.148.311-.202.461-.406-.002-.971.393-1.465 1.029-.081-.816-.398-1.398-.837-1.416-.579-.02-1.123.994-1.206 2.28-.008.121-.007.236-.007.352-.51.127-1.152.469-1.74.988-.585.518-.976 1.086-1.121 1.53-.045-.831-.347-1.428-.789-1.438-.505-.011-.998.77-1.176 1.814-.308-.512-.697-.8-1.039-.703-.547.156-.746 1.271-.455 2.471s.937 1.993 1.457 1.796"/></svg>