<svg xmlns="http://www.w3.org/2000/svg" viewBox="0 0 64 64" enable-background="new 0 0 64 64"><path d="m61.995 45.61c-.081-23.56-20.094-43.53-43.703-43.605l-1.456-.005-.35 1.414-13.748 55.6-.738 2.986 2.985-.744 55.605-13.841 1.41-.352-.005-1.453m-27.784 6.462c-.848-2.271-2.758-4.182-5.629-3.454-2.371.6-3.969 3.361-3.332 5.684l-20.712 5.156 12.086-48.882c18.81 2.854 33.932 17.972 36.792 36.715l-19.205 4.781"/><path d="m14.924 40.602c1.539 0 2.985-.596 4.071-1.68 1.083-1.085 1.682-2.527 1.683-4.063-.001-1.534-.6-2.976-1.683-4.06-.431-.429-1.188-.431-1.617 0-.444.445-.444 1.168.001 1.613.653.651 1.014 1.523 1.014 2.448s-.358 1.796-1.012 2.447c-1.312 1.306-3.602 1.306-4.909.002-.431-.435-1.184-.435-1.616 0-.446.443-.444 1.167.001 1.611 1.084 1.084 2.529 1.682 4.067 1.682"/><path d="m31.521 25.182c-.167.717-.174 1.446-.013 2.161.409 1.837 1.856 3.296 3.688 3.722.557.128 1.113-.22 1.242-.774.121-.534-.239-1.112-.775-1.238-1.471-.341-2.475-1.921-2.127-3.405.171-.736.621-1.362 1.264-1.765.648-.401 1.41-.526 2.148-.356.269.062.548.017.781-.13.234-.146.399-.375.459-.645.035-.15.037-.305.004-.456-.084-.384-.391-.691-.775-.782-1.275-.297-2.596-.078-3.709.619-1.114.69-1.892 1.774-2.187 3.049"/><path d="m40.643 42.759c-.674-.181-1.364-.21-2.049-.083-1.754.322-3.185 1.638-3.652 3.354-.139.52.17 1.058.692 1.196.504.134 1.063-.185 1.2-.689.373-1.376 1.904-2.268 3.296-1.89.694.187 1.274.632 1.632 1.255.357.622.453 1.345.266 2.036-.068.253-.033.518.096.74.131.228.342.389.596.458.143.039.287.045.432.016.368-.066.67-.344.77-.706.322-1.192.16-2.443-.459-3.521-.622-1.073-1.622-1.844-2.82-2.166"/><path d="m36.85 35.548c-1.297-3.796-5.461-5.841-9.312-4.568-3.849 1.275-5.923 5.388-4.63 9.18 1.294 3.802 5.46 5.843 9.314 4.568 3.843-1.272 5.917-5.385 4.628-9.18"/><path d="m40 39.026c.777 2.279 3.281 3.508 5.6 2.742 2.31-.768 3.553-3.236 2.781-5.517-.779-2.279-3.285-3.508-5.594-2.746-2.314.768-3.56 3.237-2.787 5.521"/><path d="m17.935 23.396c1.062 3.107 4.47 4.778 7.62 3.733 3.143-1.042 4.841-4.407 3.786-7.51-1.063-3.101-4.468-4.772-7.618-3.731-3.142 1.04-4.84 4.405-3.788 7.508"/><path d="m20.609 45.582c-1.096-3.196-4.606-4.919-7.848-3.852-3.234 1.077-4.981 4.538-3.896 7.732 1.087 3.206 4.594 4.923 7.845 3.849 3.236-1.075 4.982-4.536 3.899-7.729"/></svg>