<svg xmlns="http://www.w3.org/2000/svg" viewBox="0 0 64 64" enable-background="new 0 0 64 64"><path d="m41.666 11.71c-2.629 0-5.34.509-8.02 1.57.131-1.304.727-1.404.727-4.187 0-1.226-.966-1.915-1.869-1.958-1.757-2.401-3.528-2.448-4.217-2.354-.524-.818-1.86-2.521-3.992-2.726-9.977-.951-20.249 10.542-20.249 10.542s5.028-1.897 10.257-1.695c-5.167 6.446-12.303 10.13-12.303 10.13 2.253-.852 4.539-1.883 6.769-3.244 2.234-1.359 4.356-3.008 6.424-4.766 2.071-1.734 4.178-3.614 6.522-5.107 1.164-.741 2.354-1.377 3.512-1.857 1.152-.462 2.27-.805 3.316-1.002-2.213.705-4.521 1.765-6.695 3.272-2.178 1.501-4.191 3.313-6.294 5.093-2.1 1.771-4.369 3.519-6.721 4.827-1.172.657-2.343 1.217-3.49 1.689-1.142.446-2.265.828-3.343 1.095 0 0 2.103.217 5.207-.063-1.743 3.272-2.757 7.243-2.757 11.705 0 15.467 9.003 23.823 19.888 27.055 2.695.801 2.627 2.219 5.445 2.27.078 0 .158.001.239.001 3.902 0 10.464-1.593 14.007-2.911 10.004-3.723 17.971-11.866 17.971-26.416-.001-12.455-9.467-20.963-20.334-20.963m-13.182-5.904c.537-.056 1.742.037 3.058 1.578-.343.236-.577.636-.577 1.222 0 2.353-1.078 3.371-1.311 4.569-1.217-.516-2.421-.902-3.607-1.167 1.777-2.153 2.295-4.9 2.437-6.202m14.498 50.471c-3.461 1.288-9.634 2.723-12.96 2.723l-.186-.001c-.683-.013-.747-.059-1.372-.502-.691-.488-1.639-1.159-3.272-1.645-6.626-1.966-17.742-7.724-17.742-24.179 0-4.734 1.292-9.034 3.64-12.277 3.892-.797 8.429-2.445 12.344-5.772 2.246.205 4.539.925 6.836 2.164l.94.508c1.841 2.164 3.229 4.468 4.356 6.809 1.622 3.506 2.648 7.106 3.081 10.686.423 3.576.253 7.129-.701 10.508-.988 3.367-2.833 6.52-5.847 9.205 4.188-1.578 7.253-4.691 8.916-8.209 1.718-3.533 2.172-7.488 1.707-11.41-.485-3.927-1.879-7.881-4.269-11.541-1.476-2.28-3.39-4.515-5.731-6.354l.322-.163c2.784-1.404 5.685-2.116 8.621-2.116 9.881 0 17.333 7.723 17.334 17.963.001 14.582-8.709 20.884-16.017 23.603"/></svg>