<svg xmlns="http://www.w3.org/2000/svg" viewBox="0 0 64 64" enable-background="new 0 0 64 64"><path d="m24.752 47.107c.054.462.109.926.165 1.389-.936-.157-1.869-.338-2.795-.546.011.073.022.149.034.225 1.219.271 2.447.501 3.683.685-.064-.611-.13-1.221-.194-1.83-1.268-.188-2.528-.421-3.778-.701.012.073.022.147.035.223.945.21 1.894.397 2.85.555"/><path d="m29.549 47.68c.025.46.049.918.073 1.377-.946-.07-1.892-.164-2.832-.285.007.072.013.147.02.22 1.239.161 2.482.273 3.729.343-.024-.605-.049-1.212-.074-1.815-1.277-.07-2.554-.188-3.825-.351.008.072.015.147.021.22.96.123 1.922.219 2.888.291"/><path d="m34.38 47.809c-.006.458-.014.918-.021 1.375-.948.02-1.898.01-2.848-.023.004.072.006.146.008.219 1.246.046 2.498.046 3.744 0 .018-.604.033-1.21.05-1.815-1.281.047-2.562.047-3.843 0 .003.073.005.147.007.219.966.035 1.934.043 2.903.025"/><path d="m40.142 47.168c-1.271.162-2.547.28-3.824.351-.004.073-.008.146-.011.221.967-.054 1.932-.135 2.894-.241-.037.462-.074.922-.112 1.382-.943.103-1.889.183-2.836.235-.003.072-.007.146-.01.219 1.247-.069 2.49-.182 3.729-.343.055-.608.111-1.216.17-1.824"/><path d="m44.915 46.328c-1.25.28-2.512.514-3.777.701-.008.074-.017.147-.023.223.956-.145 1.909-.313 2.857-.507-.067.466-.135.931-.202 1.396-.931.19-1.865.356-2.804.495-.008.072-.017.147-.024.223 1.236-.184 2.464-.413 3.683-.685.097-.615.193-1.231.29-1.846"/><path d="m22.255 48.801c.916.204 1.837.383 2.764.538.054.462.109.926.165 1.389-.907-.151-1.811-.327-2.709-.528.013.074.024.147.035.222 1.182.264 2.372.486 3.567.664-.064-.611-.13-1.219-.195-1.828-1.229-.181-2.449-.409-3.663-.681.014.074.025.15.036.224"/><path d="m26.869 49.612c.931.119 1.863.213 2.798.282.025.458.05.917.075 1.375-.917-.065-1.832-.158-2.744-.274.007.073.014.146.02.219 1.2.155 2.406.266 3.611.333-.023-.605-.049-1.212-.073-1.817-1.24-.067-2.477-.181-3.708-.34.007.073.013.147.021.222"/><path d="m31.529 49.774c.002.073.003.147.006.221.938.034 1.876.043 2.814.024-.006.458-.013.916-.019 1.376-.92.017-1.839.009-2.759-.024.002.072.005.144.007.219 1.207.043 2.418.043 3.626 0 .016-.605.032-1.21.049-1.815-1.241.044-2.484.044-3.724-.001"/><path d="m39.934 49.39c-1.231.159-2.468.272-3.707.34-.004.073-.006.147-.009.221.937-.052 1.871-.129 2.803-.231-.037.46-.074.919-.112 1.381-.911.102-1.829.176-2.746.227-.005.074-.007.146-.01.221 1.207-.067 2.412-.178 3.611-.333.055-.61.113-1.219.17-1.826"/><path d="m44.562 48.576c-1.213.271-2.435.5-3.663.681-.008.073-.016.147-.022.221.928-.137 1.852-.299 2.77-.488-.067.464-.135.932-.202 1.395-.901.186-1.807.346-2.717.48-.006.073-.015.146-.022.221 1.195-.178 2.385-.4 3.566-.664.095-.615.192-1.231.29-1.846"/><path d="m22.61 51.046c.887.199 1.778.373 2.674.521.057.465.111.929.166 1.392-.877-.146-1.751-.315-2.62-.512.013.075.024.149.035.223 1.144.258 2.293.471 3.451.641-.065-.607-.13-1.217-.194-1.826-1.19-.176-2.374-.396-3.548-.659.013.073.023.147.036.22"/><path d="m27.077 51.832c.899.116 1.803.208 2.709.273.025.46.05.919.074 1.379-.888-.063-1.772-.153-2.655-.268.008.073.014.148.021.221 1.159.149 2.325.256 3.493.32-.025-.605-.05-1.21-.074-1.813-1.199-.067-2.396-.178-3.589-.331.006.074.012.147.021.219"/><path d="m31.588 51.987c.002.073.003.145.005.217.907.032 1.817.041 2.724.024-.007.458-.012.918-.018 1.376-.891.017-1.781.009-2.669-.022.002.072.004.146.005.219 1.171.041 2.341.041 3.511 0 .015-.605.03-1.21.048-1.813-1.202.042-2.404.042-3.606-.001"/><path d="m39.726 51.613c-1.192.153-2.389.264-3.59.331-.003.071-.006.145-.009.217.907-.05 1.812-.127 2.716-.226-.038.461-.075.923-.112 1.383-.884.099-1.771.172-2.659.221-.003.072-.006.146-.009.219 1.167-.064 2.333-.171 3.492-.32.058-.61.114-1.215.171-1.825"/><path d="m44.207 50.825c-1.174.264-2.357.483-3.547.659-.006.073-.015.146-.023.219.899-.133 1.793-.289 2.684-.475-.068.468-.136.933-.204 1.4-.87.177-1.747.332-2.627.463-.009.073-.016.146-.023.219 1.158-.17 2.309-.383 3.45-.641.097-.614.192-1.228.29-1.844"/><path d="m22.964 53.296c.857.192 1.72.36 2.587.505.054.463.11.927.165 1.389-.849-.141-1.692-.307-2.532-.494.012.075.024.149.035.225 1.104.248 2.216.454 3.334.62-.064-.609-.13-1.22-.194-1.829-1.15-.17-2.295-.382-3.431-.638.013.074.025.147.036.222"/><path d="m27.284 54.057c.871.112 1.745.2 2.621.264.025.457.049.917.072 1.377-.856-.063-1.712-.149-2.564-.26.006.077.014.149.021.225 1.12.144 2.247.246 3.375.31-.025-.605-.05-1.211-.074-1.818-1.159-.063-2.318-.168-3.473-.317.007.072.016.145.022.219"/><path d="m31.647 54.196c.002.073.004.146.006.217.877.034 1.756.041 2.635.024-.007.458-.012.916-.02 1.376-.859.017-1.72.007-2.58-.022.002.072.004.147.006.221 1.13.041 2.261.041 3.392 0 .016-.604.032-1.21.047-1.815-1.159.04-2.325.04-3.486-.001"/><path d="m39.519 53.836c-1.153.149-2.312.254-3.473.317-.003.073-.006.147-.009.219.877-.047 1.752-.119 2.626-.217-.038.46-.075.922-.111 1.382-.854.095-1.712.164-2.57.213-.003.072-.006.147-.009.222 1.128-.063 2.255-.166 3.376-.31.055-.609.113-1.217.17-1.826"/><path d="m43.853 53.073c-1.135.256-2.279.468-3.43.638-.008.072-.016.147-.023.221.87-.129 1.734-.281 2.594-.458-.067.463-.134.931-.202 1.394-.842.174-1.689.324-2.539.449-.009.074-.018.149-.024.224 1.118-.166 2.231-.372 3.334-.62.096-.616.193-1.231.29-1.848"/><path d="m23.318 55.546c.828.186 1.663.348 2.5.488.054.461.109.923.165 1.387-.819-.137-1.635-.296-2.445-.477.013.074.025.149.035.222 1.066.239 2.14.439 3.22.599-.064-.607-.132-1.219-.196-1.828-1.111-.164-2.217-.37-3.314-.615.012.073.024.15.035.224"/><path d="m27.491 56.278c.841.108 1.687.194 2.531.257.025.457.049.917.074 1.377-.827-.062-1.653-.144-2.477-.25.007.074.015.147.021.22 1.081.139 2.168.239 3.258.3-.024-.605-.051-1.212-.074-1.817-1.121-.06-2.24-.162-3.354-.306.007.072.014.147.021.219"/><path d="m31.706 56.405c.002.073.004.148.006.221.849.03 1.698.04 2.545.022-.007.458-.013.916-.018 1.374-.831.017-1.662.009-2.491-.021.002.072.004.146.005.219 1.092.039 2.183.039 3.274 0 .016-.604.033-1.209.048-1.815-1.122.042-2.246.042-3.369 0"/><path d="m39.311 56.059c-1.114.144-2.233.246-3.354.306-.003.075-.006.148-.009.223.848-.049 1.694-.118 2.537-.211-.038.46-.075.921-.112 1.381-.824.092-1.652.161-2.48.206-.003.072-.006.146-.01.219 1.089-.061 2.178-.161 3.259-.3.055-.609.113-1.217.169-1.824"/><path d="m42.465 57.112c-.813.166-1.632.311-2.451.432-.008.075-.017.147-.024.221 1.08-.159 2.154-.359 3.22-.599.096-.612.192-1.229.29-1.845-1.097.245-2.203.451-3.314.615-.008.075-.016.147-.022.223.838-.125 1.675-.271 2.506-.443-.069.466-.137.93-.205 1.396"/><path d="m54.964 31.171c-.199-1.771-1.179-3.319-2.92-4.613.562-1.883 1.335-5.919-.973-9.187-2.132-3.021-4.758-4.401-7.073-5.619-.94-.494-1.83-.961-2.67-1.52-.608-.404-1.438-1.062-1.485-1.645-.057-.707.747-1.667 1.365-2.483l1.521-2.005-2.347-.95c-.121-.046-3.019-1.149-6.625-1.149-5.913 0-10.349 2.929-12.647 8.297-.049-.007-.084-.009-.124-.011-.149-.009-.3-.013-.448-.013 0 0 0 0-.002 0-3.64 0-7.295 2.61-9.541 6.813-2.75 5.147-2.649 11.136.258 15.256.625.888 1.354 1.669 2.174 2.331.364 1.404 1.024 2.517 1.907 3.413l.519 4.051c.069 1.105.683 2.539 2.979 3.62l1.972 10.736c.314 5.507 9.215 5.507 12.587 5.507 3.372 0 12.274 0 12.588-5.508l1.969-10.734c2.297-1.081 2.91-2.516 2.98-3.621l.478-3.728c.291-.263.563-.545.813-.853.412-.378 3.125-3.006 2.745-6.385m-31.133-20.375c.769-1.974 2.133-3.779 3.937-5.022 1.152-.813 2.459-1.363 3.8-1.693.746-.115 1.484-.167 2.19-.167 3.278 0 5.91 1.017 5.91 1.017-.748.989-1.462 1.965-1.778 2.937-.327 1.003-.046 2.097 2.744 4.542.873.765 1.839 1.501 2.798 2.282 1.905 1.57 3.871 3.296 5.338 5.503 2.1 3.159 1.137 6.642 1.098 6.762-.583-2.129-1.805-3.75-3.282-5.201-1.627-1.603-3.544-3.021-5.455-4.598-.953-.795-1.921-1.613-2.836-2.558-.902-.945-1.813-1.999-2.369-3.399-.269-.695-.423-1.499-.316-2.285.097-.791.441-1.509.888-2.071.208-.251.434-.475.664-.684-1.066.849-1.829 1.832-2.244 2.909-.74 1.813-.742 3.861-.297 5.859.455 2.004 1.353 3.964 2.648 5.779 1.286 1.835 2.984 3.487 5.074 5.156-2.753-.065-5.489-1.196-7.643-3.013-2.157-1.816-3.741-4.317-4.354-7.081-.62-2.731-.264-5.873 1.607-8.312.782-1.019 1.84-1.832 3-2.356-.285.064-.573.122-.851.203-1.781.475-3.36 1.321-4.577 2.441-2.465 2.232-3.391 5.606-2.895 8.771.474 3.183 2.358 6.147 5.265 8.054 1.309.887 2.808 1.529 4.417 2.004-2.045.24-4.184.376-6.235-.335-1.867-.647-3.324-1.933-4.495-3.505-1.269-1.702-2.094-3.692-2.41-5.754-.309-2.064-.111-4.206.659-6.185m25.152 31.172c-.036 1.026-1.041 1.825-2.768 2.422l-.001.004h-.013c-2.746.945-7.318 1.378-12.812 1.378-5.493 0-10.068-.433-12.813-1.378h-.015c0 0 3.025 2.574 12.828 2.574 9.783 0 12.813-2.564 12.824-2.573l-2.18 11.888c-.069 2.659-3.83 3.804-10.645 3.804-6.816 0-10.576-1.145-10.645-3.804l-2.185-11.894c-1.726-.597-2.729-1.395-2.765-2.421l-.293-2.319c3.877 2.008 9.849 2.021 16.056 2.021 6.286 0 11.907-.024 15.706-1.873l-.279 2.171m1.891-5.799c-.004-.01-.008-.017-.012-.025-2.635 3.594-9.379 3.612-17.307 3.612-9.491 0-17.3-.013-18.37-6.172-.846-.588-1.636-1.348-2.33-2.332-5.109-7.24.855-19.066 7.682-19.064.1 0 .203.003.305.008-.66 1.997-1.119 4.22-.587 6.36-2.129 5.324-.063 11.49 4.991 14.114.994.515 2.07.928 3.178 1.287l.01.03c0 0-6.999 3.247-12.47.487.001 0 .001.001.001.001 3.518 4.999 9.693 1.974 12.955 2.035 3.561.065 6.149 2.06 14.233.187 5.356-1.241 7.084-1.716 7.855-.658-.083.084-.134.13-.134.13m-3.358-5.442c-1.462-.28-2.967-.307-4.478-.219-1.505.092-9.211 2.606-14.911-.352-1.586-.823-3.101-1.759-4.281-2.986-1.186-1.232-2.107-2.64-2.729-4.131-.547-1.396-.957-2.876-.83-4.343.395 1.442 2.564 4.43 5.227 6.688 4.984 4.229 15.881 2.379 17.593 2.546 1.701.164 3.429.526 4.996 1.283 1.549.75 2.958 1.951 3.469 3.456-1.181-1.094-2.591-1.676-4.056-1.942"/><path d="m20.598 13.001c-1.392.116-2.735.729-3.894 1.557-1.152.843-2.094 1.938-2.82 3.144-1.429 2.421-2.026 5.325-1.462 8.17.287 1.416.876 2.814 1.796 4.02.917 1.206 2.159 2.196 3.536 2.826 2.783 1.271 5.829 1.211 8.43.405-2.69-.546-5.183-1.274-7.006-2.612-1.835-1.309-2.904-3.161-3.325-5.246-.417-2.086-.211-4.364.528-6.508.754-2.147 2.008-4.197 4.217-5.756"/></svg>