<svg xmlns="http://www.w3.org/2000/svg" viewBox="0 0 64 64" enable-background="new 0 0 64 64"><path d="m27.877 22.417l-1.5-1.475-1.5 1.475 1.5 1.476z"/><path d="m24.42 17.471l-1 .981 1 .986 1-.986z"/><path d="m28.303 20.666l1 .985 1-.985-1-.982z"/><path d="m26.877 26.198l1 .986 1-.986-1-.981z"/><path d="m21.314 23.401l-1 .984 1 .983 1-.983z"/><path d="m28.877 18.944l-.5-.49-.5.49.5.494z"/><path d="m21.586 16.116l-.5-.49-.5.49.5.494z"/><path d="m21.086 17.469l-.5-.49-.5.49.5.493z"/><path d="m28.803 23.893l.5.492.5-.492-.5-.492z"/><path d="m21.814 25.86l.5.492.5-.492-.5-.492z"/><path d="m26.377 28.465l.5.494.5-.494-.5-.49z"/><path d="m50.402 24.431l1.5-1.477-1.5-1.474-1.5 1.474z"/><path d="m49.443 18.99l-1-.983-1 .983 1 .984z"/><path d="m41.756 16.368l1 .984 1-.984-1-.984z"/><path d="m46.979 28.957l-1-.982-1 .982 1 .985z"/><path d="m53.326 22.187l1-.984-1-.983-1 .983z"/><path d="m47.461 22.171l-1-.983-1 .983 1 .984z"/><path d="m52.902 19.482l-.5-.492-.5.492.5.492z"/><path d="m48.943 15.876l-.5-.492-.5.492.5.492z"/><path d="m52.826 24.429l.5.494.5-.494-.5-.49z"/><path d="m46.979 26.971l.5.493.5-.493-.5-.491z"/><path d="m42.756 19.102l.5.491.5-.491-.5-.492z"/><path d="m48.402 29.216l.5.494.5-.494-.5-.489z"/><path d="m35.805 7.177l-1-.983-1 .983 1 .984z"/><path d="m35.957 11.1l1-.983-1-.984-1 .984z"/><path d="m32.805 13.437l1 .983 1-.983-1-.984z"/><path d="m37.406 6.547l-.5-.489-.5.489.5.494z"/><path d="m39.914 8.608l-.5-.489-.5.489.5.495z"/><path d="m34.305 9.101l-.5-.491-.5.491.5.493z"/><path d="m32.305 11.592l.5.492.5-.492-.5-.492z"/><path d="m29.803 6.194l-.5-.492-.5.492.5.492z"/><path d="m32.805 5.21l-.5-.492-.5.492.5.492z"/><path d="m62 26.427c0-4.17-2.159-7.281-5.811-9.513-2.342-2.422-5.505-4.121-9.08-4.705-2.134-5.923-8.088-10.209-15.109-10.209-6.899 0-12.768 4.136-14.998 9.898-2.287-2.57-4.426-4.987-4.828-5.485-.955-1.187-3.105-3.235-5.752-3.235-5.955 0-5.834 3.909 0 4.174 1.67.076 4.527 2.755 7.205 5.729-2.245.858-4.228 2.185-5.83 3.846-3.642 2.23-5.797 5.336-5.797 9.5 0 14.606 12.179 22.674 27.648 23.413-.41 1.541-.894 2.904-1.461 4-6.124.482-10.633 2.09-10.633 4.005.001 2.296 6.469 4.155 14.446 4.155 7.979 0 14.445-1.859 14.445-4.155 0-1.914-4.5-3.521-10.617-4.003-.556-1.094-1.032-2.458-1.438-4.004 15.45-.75 27.61-8.817 27.61-23.411m-3.69-.194c-1.986 5.453-12.25 8.002-24.843 8.184 1.35-2.197 2.143-4.732 2.143-7.446 0-2.874-.881-5.552-2.381-7.836 2.553-3.148 6.59-5.195 11.141-5.195 7.441-.001 13.526 5.451 13.94 12.293m-26.31-22.266c5.807 0 10.791 3.321 12.899 8.03-.178-.005-.352-.025-.53-.025-4.983 0-9.43 2.162-12.36 5.529-2.933-3.371-7.391-5.529-12.378-5.529-.171 0-.338.019-.508.024 2.108-4.706 7.074-8.029 12.877-8.029m-26.31 22.266c.414-6.842 6.499-12.293 13.94-12.293 7.708 0 13.979 5.846 13.979 13.031 0 2.771-.939 5.337-2.527 7.451-12.84-.115-23.377-2.657-25.392-8.189m33.144 12.456c-4.262.322-8.549.26-12.779-.252-4.229-.502-8.412-1.418-12.379-2.885 4.18.676 8.34 1.146 12.512 1.355 4.168.192 8.342.17 12.484-.178 4.143-.321 8.268-.937 12.27-1.978 1.988-.546 3.967-1.176 5.799-2.092.92-.447 1.793-.983 2.561-1.644.75-.659 1.408-1.5 1.527-2.549.102 1.056-.432 2.113-1.131 2.926-.703.828-1.568 1.5-2.465 2.097-1.816 1.17-3.805 2.029-5.832 2.723-4.065 1.39-8.313 2.108-12.567 2.477"/></svg>