<svg xmlns="http://www.w3.org/2000/svg" viewBox="0 0 64 64" enable-background="new 0 0 64 64"><path d="m61.262 28.304c-.15-.474-.291-.922-.4-1.363-.174-.694-.172-1.516-.171-2.312.003-1.796.007-4.256-2.497-5.41-.168-.077-.625-.645-.889-1.825-.054-.241-.086-.487-.12-.747-.119-.912-.281-2.16-1.534-3.235-.633-.542-1.361-.935-2.064-1.314-.547-.295-1.113-.601-1.436-.889-.032-.061-.092-.37-.131-.574-.109-.566-.259-1.341-.777-2.097-1.286-1.863-3.109-2.372-4.725-2.624-1.052-.165-1.764-.472-2.537-1.093l-.199-.16c-1.101-.886-2.47-1.989-4.478-1.989l-.141.002c-.741.021-1.408.171-1.997.304-.479.108-.931.21-1.299.21-.188-.004-.56-.205-.857-.366-.643-.346-1.522-.822-2.637-.822-.076 0-.152.002-.228.006-1.245.073-2.137.714-2.788 1.183-.246.176-.478.343-.651.424-.019.009-.057.013-.113.013-.173 0-.426-.044-.694-.091-.404-.07-.861-.15-1.38-.15-.126 0-.252.005-.378.015-2.109.169-3.091 1.934-3.619 2.881-.021.038-.05.07-.077.104-13.824 2.01-20.445 9.198-20.445 9.198 4.792 1.626 12.489-1.432 12.489-1.432-7.337 3.234-9.978 8.275-9.978 8.275s9.843-2.181 16.583-5.254c.125.188.248.378.409.553.427.463 1.202 1.017 2.468 1.017.663 0 1.298-.149 1.86-.281.334-.079.711-.167.93-.177.372.191.68.398 1.004.617.762.514 1.624 1.095 3.124 1.381.328.19 1 .917 1.369 1.314.608.657 1.088 1.176 1.654 1.486 1.74.946 2.655 1.722 2.848 2.014.28.425.762 1.956 1.012 3.213.087.431-.323 1.49-.622 1.758-.883.601-1.86 1.531-2.723 2.352-.326.31-.636.604-.912.854-.1.089-.154.115-.329.115-.271 0-.653-.082-1.058-.17-.572-.123-1.221-.263-1.936-.263-.468 0-.919.062-1.339.185-.581.17-1.076.41-1.512.623-.464.227-.865.422-1.159.423-.419 0-.895-.138-1.446-.298-.616-.178-1.314-.38-2.103-.438-.096-.006-.198-.01-.301-.01-2.066 0-4.361 1.541-5.923 2.834-.607.503-1.313.729-2.208 1.015-.485.156-1.036.332-1.602.57-2.428 1.018-3.084 3.357-3.434 4.637-.105.101-.441.264-.646.363-.587.284-1.318.639-1.78 1.4-1.038 1.714-.111 3.455.707 4.99.456.856.973 1.826 1.316 2.938.805 2.609 1.727 3.504 3.793 3.684.501.043.974.084 1.752.488.166.09.51.488.788.809.627.725 1.407 1.627 2.624 2.115.601.238 1.235.354 1.947.354.435 0 .842-.042 1.201-.079.287-.029.558-.058.783-.058.291 0 .422.044.538.114.098.065.324.349.474.537.554.691 1.481 1.85 3.121 1.85.22 0 .444-.022.667-.066.942-.185 1.689-.743 2.29-1.192.203-.152.49-.367.674-.471.918.295 1.692.434 2.42.434.984 0 1.695-.26 2.266-.467.533-.194.953-.348 1.743-.348.057 0 .115.001.174.002.295.01.759.164 1.207.313.707.236 1.508.504 2.405.504.996 0 1.882-.329 2.632-.978.5-.431.925-.908 1.3-1.329.684-.766 1.128-1.233 1.555-1.271 2.818-.25 4.107-1.741 5.145-2.939.57-.659 1.063-1.229 1.814-1.654 4.299-2.432 5.666-7.127 6.18-8.895.193-.662.365-1.344.531-2.003.523-2.076 1.064-4.223 2.44-6.672 1.366-2.438.628-4.781.036-6.665m-1.719 5.763c-.6 1.067-1.042 2.074-1.404 3.043l-.933-.933-1.005 1.006 1.005 1.004.845-.843c-.764 2.105-1.125 4.005-1.643 5.787-.565 1.938-1.809 5.811-5.295 7.783-2.629 1.486-2.802 4.051-6.171 4.349-1.761.155-2.617 1.91-3.954 3.063-.433.374-.889.507-1.359.507-1.142 0-2.37-.782-3.558-.815-.078-.003-.154-.004-.229-.004-2.073 0-2.597.814-4.009.814-.513 0-1.143-.107-2.009-.4-.143-.049-.284-.07-.424-.07-1.166 0-2.218 1.519-3.333 1.738-.1.02-.194.028-.286.028-1.163 0-1.626-1.528-2.585-2.106-.51-.309-1.026-.395-1.547-.395-.655 0-1.317.137-1.983.137-.404 0-.81-.051-1.216-.211-1.416-.57-2.121-2.246-3.241-2.846-2.97-1.544-3.501.529-4.608-3.059-.979-3.173-3.038-5.063-2.209-6.431.439-.724 2.239-.812 2.622-2.204.396-1.449.878-2.814 2.345-3.43 1.513-.636 2.972-.786 4.293-1.877 1.065-.883 3.165-2.39 4.681-2.39.054 0 .107.002.159.006 1.261.09 2.404.739 3.679.739.008 0 .015 0 .022 0 1.198-.005 2.101-.8 3.212-1.124.261-.076.524-.106.789-.106 1.003 0 2.024.433 2.993.433.565 0 1.112-.146 1.629-.61.982-.882 2.352-2.311 3.468-3.072.831-.568 1.61-2.452 1.374-3.627-.204-1.029-.737-3.045-1.281-3.869-.618-.939-2.42-2.036-3.524-2.637-.763-.417-2.346-2.783-3.513-2.99-1.81-.322-2.321-1.172-3.831-1.906-.211-.103-.45-.143-.707-.143-.875 0-1.958.459-2.829.459-.408 0-.769-.101-1.041-.396-.971-1.055-.864-2.858-1.587-4.085-.118-.2-.161-.274-.161-.274 0 0 .071.12.148.252-.861-1.478-.66-2.56.041-3.036-.002-.002-.003-.002-.005-.004.971-.811 2.188-.97 2.841-2.146.471-.846 1.04-1.824 2.09-1.908.074-.006.146-.009.22-.009.696 0 1.386.241 2.074.241.314 0 .628-.05.942-.197.924-.432 1.657-1.364 2.724-1.426.038-.002.076-.003.113-.003 1.231 0 2.154 1.16 3.414 1.19.027 0 .054.001.081.001 1.135 0 2.216-.484 3.348-.516.03-.001.06-.001.089-.001 1.408 0 2.408.884 3.457 1.723 1.063.854 2.112 1.285 3.453 1.496 1.409.22 2.587.589 3.433 1.816.672.978.311 2.208 1.208 3.01.958.855 2.556 1.394 3.528 2.227.963.828.775 1.765 1.046 2.974.263 1.176.856 2.62 1.946 3.122 2.168.998.976 3.884 1.621 6.469.57 2.286 1.792 4.459.547 6.682"/><path d="m23.119 38.525c-.32 1.176-.983 2.42-1.954 3.533-.972 1.113-2.093 1.91-3.173 2.338 1.501 1.064 3.576.82 4.876-.668 1.298-1.484 1.365-3.697.251-5.203"/><path d="m31.527 46.701c-.971 1.115-2.091 1.91-3.172 2.338 1.503 1.064 3.576.82 4.875-.664 1.298-1.488 1.364-3.699.251-5.207-.32 1.176-.981 2.422-1.954 3.533"/><path d="m24.614 54.705c-.971 1.113-2.091 1.908-3.172 2.336 1.502 1.064 3.576.82 4.875-.664 1.298-1.486 1.365-3.699.25-5.205-.319 1.174-.981 2.42-1.953 3.533"/><path d="m39.119 53.227c-.971 1.113-2.092 1.908-3.173 2.338 1.502 1.063 3.576.818 4.874-.664 1.3-1.488 1.365-3.701.252-5.207-.319 1.175-.982 2.419-1.953 3.533"/><path d="m51.691 45.52c-.971 1.113-2.092 1.908-3.172 2.338 1.503 1.063 3.577.818 4.875-.664 1.298-1.488 1.365-3.701.252-5.207-.32 1.173-.982 2.419-1.955 3.533"/><path d="m39.123 33.92c-.319 1.178-.982 2.42-1.955 3.535-.971 1.111-2.093 1.908-3.173 2.336 1.504 1.064 3.577.82 4.876-.666 1.298-1.484 1.366-3.697.252-5.205"/><path d="m46.594 36.893c-.321 1.178-.982 2.422-1.955 3.535-.972 1.111-2.092 1.908-3.174 2.336 1.502 1.064 3.578.82 4.877-.664 1.299-1.487 1.367-3.7.252-5.207"/><path d="m49.757 24.822c-.32 1.176-.979 2.42-1.954 3.535-.973 1.111-2.092 1.908-3.172 2.336 1.5 1.064 3.577.82 4.875-.666 1.297-1.484 1.366-3.697.251-5.205"/><path d="m42.425 15.52c-.319 1.174-.982 2.42-1.954 3.531-.972 1.115-2.092 1.912-3.171 2.34 1.502 1.063 3.576.818 4.874-.666 1.299-1.487 1.367-3.7.251-5.205"/><path d="m51.795 19.172c1.299-1.486 1.369-3.697.254-5.205-.319 1.176-.982 2.42-1.953 3.535-.973 1.111-2.094 1.908-3.174 2.336 1.502 1.062 3.577.818 4.873-.666"/><path d="m41.954 11.73c1.3-1.484 1.367-3.697.254-5.205-.321 1.176-.982 2.42-1.955 3.533s-2.092 1.91-3.174 2.336c1.503 1.067 3.577.823 4.875-.664"/><path d="m30.816 10.443c-1.115.961-2.337 1.588-3.466 1.854 1.34 1.271 3.429 1.326 4.92.043 1.49-1.283 1.869-3.465.972-5.117-.477 1.119-1.305 2.256-2.426 3.22"/><path transform="matrix(.7078.7064-.7064.7078 34.149 1.7366)" d="m14.265 41.436h1.421v1.421h-1.421z"/><path transform="matrix(-.7076-.7066.7066-.7076-7.737 95.4391)" d="m15.167 48.61h1.421v1.421h-1.421z"/><path transform="matrix(.7069.7073-.7073.7069 36.9059-8.7556)" d="m28.307 39.445h1.422v1.423h-1.422z"/><path transform="matrix(-.7075-.7068.7068-.7075 34.3144 105.0553)" d="m38.19 44.715h1.42v1.421h-1.42z"/><path transform="matrix(-.7071-.7071.7071-.7071 48.7705 89.8303)" d="m42.278 34.104h1.423v1.422h-1.423z"/><path transform="matrix(-.7068-.7075.7075-.7068 66.9809 96.1736)" d="m52.711 33.494h1.422v1.423h-1.422z"/><path transform="matrix(-.7068-.7075.7075-.7068 56.4576 104.4524)" d="m49.166 39.814h1.422v1.423h-1.422z"/><path transform="matrix(-.7078-.7064.7064-.7078 43.0435 120.1484)" d="m45.661 50.461h1.421v1.421h-1.421z"/><path transform="matrix(-.7069-.7073.7073-.7069 16.6598 115.7703)" d="m31.604 53.723h1.422v1.422h-1.422z"/><path transform="matrix(-.7069-.7073.7073-.7069-7.2586 104.3596)" d="m17.281 52.973h1.422v1.422h-1.422z"/><path transform="matrix(-.7069-.7073.7073-.7069-15.6174 92.1499)" d="m10.572 48.599h1.422v1.422h-1.422z"/><path transform="matrix(-.7078-.7064.7064-.7078 33.2253 37.6341)" d="m23.686 11.235h1.421v1.421h-1.421z"/><path transform="matrix(.7068.7075-.7075.7068 32.1742-31.5244)" d="m53.403 22.338h1.422v1.422h-1.422z"/><path transform="matrix(.7078.7064-.7064.7078 30.5763-24.2749)" d="m43.92 24.112h1.421v1.421h-1.421z"/><path transform="matrix(.7071.7071-.7071.7071 24.047-30.121)" d="m47.672 13.256h1.423v1.423h-1.423z"/><path transform="matrix(-.7071-.7071.7071-.7071 49.4494 54.1779)" d="m35.234 16.136h1.423v1.423h-1.423z"/><path transform="matrix(.7078.7064-.7064.7078 15.4164-25.3126)" d="m37.595 5.268h1.421v1.42h-1.421z"/><path transform="matrix(.7076.7066-.7066.7076 13.0951-18.5962)" d="m28.308 5.815h1.421v1.421h-1.421z"/><path transform="matrix(-.7069.7073-.7073-.7069 74.1778 63.6507)" d="m23.191 46.482h1.422v1.422h-1.422z"/><path transform="matrix(-.7068-.7075.7075-.7068 74.2081 86.9271)" d="m54.409 27.373h1.422v1.423h-1.422z"/><path transform="matrix(.7071.7071-.7071.7071 19.9033-29.5625)" d="m44.925 8.533h1.423v1.423h-1.423z"/></svg>