<svg xmlns="http://www.w3.org/2000/svg" viewBox="0 0 64 64" enable-background="new 0 0 64 64"><path d="m61.3 27.991c-.463-2.989-2.297-12.947-6.459-15.575-.068-.042-.127-.081-.177-.114.048-.54.104-1.395-.111-2.649-.599-3.492-5.124-7.653-23.281-7.653-18.197 0-22.73 4.161-23.328 7.651-.219 1.278-.167 2.12-.127 2.641-.064.05-.146.111-.251.186-2.087 1.488-5.042 7.881-5.27 11.4-.1 1.546.269 2.719 1.095 3.486.103.096.216.17.326.253-.856 2.28-1.717 5.344-1.717 8.458 0 4.122.866 7.474 4.245 11.08 3.377 3.606 3.028 3.36 3.377 5.114.352 1.754 3.123 9.731 21.625 9.731 0 0 0 0 .002 0 18.502 0 21.589-7.948 21.623-9.73.027-1.354.435-2.12 1.408-3.204.711.55 1.461.869 2.297.869.678 0 1.672-.223 2.566-1.282 3.336-3.958 3.301-13.269 2.157-20.662m-30.058 28.053c-13.896 0-21.681-5.621-21.681-6.133 0-.511 7.785 4.279 21.681 4.279 13.892 0 21.677-4.79 21.677-4.279 0 .512-7.785 6.133-21.677 6.133m26.421-8.64c-.347.412-.709.595-1.086.595-3.079 0-7.105-12.257-11.436-12.257-6.261 0-4.728-12.934-11.883-12.934-1.926 0-10.222 6.403-12.778 6.403-2.557 0-2.94-6.403-6.006-6.403-3.717 0-6.51 3.61-8.609 3.61-.412 0-.798-.139-1.159-.473-1.891-1.755 2.148-10.584 3.983-11.891 1.835-1.311.667-1.182 1.162-4.075.496-2.895 5.654-6.043 21.421-6.043 15.762 0 20.898 3.271 21.374 6.043.495 2.894-.745 2.871 1.162 4.075 5.285 3.336 8.863 27.412 3.855 33.35"/><path d="m31.249 16.766c-11.895 0-21.001-3.797-21.001-3.285 0 .513 9.106 4.892 21.001 4.892 11.893 0 21.001-4.379 21.001-4.892 0-.512-9.108 3.285-21.001 3.285"/><path d="m16.614 9.664c2.648.987 8.198 1.667 14.635 1.667 6.438 0 11.987-.68 14.635-1.667 1.055-.395 1.662-.833 1.662-1.3 0-1.639-7.296-2.968-16.297-2.968-9 0-16.296 1.329-16.296 2.968 0 .467.607.906 1.661 1.3"/></svg>