<svg xmlns="http://www.w3.org/2000/svg" viewBox="0 0 64 64" enable-background="new 0 0 64 64"><path d="m61.306 57.777l-13.229-13.301c3.681-4.485 5.891-10.225 5.891-16.481 0-14.358-11.633-25.995-25.984-25.995s-25.984 11.637-25.984 25.994c0 14.356 11.634 25.994 25.984 25.994 6.298 0 12.07-2.242 16.569-5.971l13.232 13.309c1.036 1.043 2.423.793 3.396-.186.97-.981 1.161-2.32.125-3.363m-17.569-47.965c2.46 2.134 4.486 4.755 5.919 7.719-1.492-.346-2.966-.494-4.399-.492-.601-.883-2.417-3.532-5.882-5.657 1.367-.642 2.82-1.18 4.362-1.57m-17.508-5.816c.581-.042 1.165-.071 1.756-.071 2.688 0 5.271.448 7.685 1.262-1.451 1.021-2.744 2.173-3.896 3.403-.908-.135-1.823-.217-2.739-.222-1.815-.02-3.633.234-5.394.715.628-1.737 1.493-3.451 2.588-5.087m4.644 22.107c2.406 3.981-2.73 6.752-5.036 7.028.496-2.757 3.642-3.329 5.036-7.028-3.253 3.503-10.64 7.318-15.2 1.863 1.206-4.387 5.852-6.955 7.259-7.716-.034 1.184.284 2.173.729 2.972.494.871 1.141 1.525 1.804 2.006.859.881 2.91 1.372 5.408.875-2.012-1.02 6.176-4.408 8.16 3.744-.139 1.1-.437 1.939-.827 2.728-.395.778-.909 1.491-1.551 2.131-1.277 1.292-3.049 2.167-4.84 2.499 4.121-5.046 2.879-10.364-.942-11.102m.701 11.897c-.006.019-.01.037-.016.057-1.342 2.636-3.514 4.943-6.297 6.594-3.504-1.153-6.647-3.525-8.646-6.707 3.026.261 5.896-.347 8.26-1.615.346-.293.677-.604 1.002-.919.15.392.369.756.681 1.058 1.29 1.252 2.962 1.887 5.016 1.532m-13.437-24.847c3.154-2.242 7.003-3.439 10.822-3.395-2.229 2.42-3.6 5.249-4.059 8.017l-.002.001c-.017.098-.022.195-.038.293-.004.037-.01.075-.014.112-1.999.582-4.04 1.6-5.809 3.083-.401-1.054-.706-2.178-.893-3.362-.218-1.5-.231-3.104-.007-4.749m-1.286-6.493c-.387 2.053-.474 4.074-.284 5.991-.545.43-1.075.876-1.571 1.356-.737.721-1.387 1.443-2.006 2.238-.524.672-1.001 1.382-1.444 2.114-.907-1.726-1.643-3.615-2.148-5.646 2.042-2.486 4.579-4.549 7.453-6.053m-2.58 28.296c-1.448-.458-2.889-1.129-4.273-2.022-.594-3.694-.158-7.542 1.256-11.018.963 2.017 2.224 3.737 3.659 5.125-.003.007-.007.013-.01.021-.928 2.468-1.184 5.281-.632 7.894m-10.346-6.962c0-2.38.351-4.678.994-6.85 1.147 1.656 2.454 3.106 3.858 4.356-.5 2.545-.563 5.176-.159 7.741-1.531-.565-3.044-1.309-4.502-2.258-.121-.981-.191-1.976-.191-2.989m10.174 19.65c-2.667-1.89-4.934-4.303-6.645-7.098 1.278.174 2.54.224 3.759.149.692 1.225 1.492 2.385 2.403 3.443.323.382.662.746 1.01 1.1.337.344.682.675 1.037.997.181.161.371.313.556.47-.688.337-1.392.654-2.12.939m2.436-2.703c-.333-.297-.651-.605-.965-.923-.322-.329-.637-.671-.938-1.022 1.532-.003 2.995-.19 4.374-.527 1.774 1.539 3.842 2.727 6.049 3.452.633.209 1.28.368 1.933.501-1.062.992-2.271 1.894-3.618 2.666-1.672-.621-3.27-1.456-4.737-2.479-.736-.51-1.435-1.072-2.098-1.668m5.92 6.475c.253-.215.483-.445.726-.669 4.987 1.796 10.938.45 10.938.45s-4.879 1.883-11.664.219m11.399-1.248c.841-1.365 1.497-2.781 1.97-4.205.324-.104.648-.201.967-.324 1.125-.426 2.331-1.041 3.539-1.869l2.662 2.678c-2.709 1.941-5.871 3.234-9.138 3.72m2.311-5.779c1.389-3.055 1.876-6.355 1.455-9.416 1.45-1.493 2.498-4.009 2.329-6.961 2.353 2.109 4.092 5.3 4.799 8.947-2.013 3.484-5.078 6.102-8.583 7.43m1.511-23.031c-.292.027-.57.076-.847.128-1.458-1.638-3.314-2.88-5.401-3.519.139-.156.273-.315.421-.466 1.942-1.994 4.669-3.504 7.876-4.165-.001 0-.001-.001-.002-.001.001 0 .002 0 .003 0 4.341 2.645 6.057 7.161 7.132 11.321-2.903-2.449-6.306-3.572-9.182-3.298m10.095 12.479c.831-3 .998-6.164.62-8.791 1.257.674 2.481 1.491 3.64 2.469.004.16.013.318.013.479 0 3.474-.747 6.771-2.072 9.752-.62-1.407-1.36-2.709-2.196-3.89.002-.003.003-.006.004-.009-.002.001-.008-.008-.009-.01"/></svg>