<svg xmlns="http://www.w3.org/2000/svg" viewBox="0 0 64 64" enable-background="new 0 0 64 64"><path d="m54.125 16.057c-.138-1.934.63-3.752-.898-5.282-.801-.799-1.683-.97-2.618-.97-.688 0-1.405.091-2.142.091-.174 0-.349-.008-.523-.021-2.634-4.826-2.947-9.874-5.753-7.07-3.13 3.131-5.076 11.744-1.85 17.324-2.358-1.657-5.228-2.64-8.331-2.64-8.019 0-14.517 6.498-14.517 14.516 0 3.11.986 5.985 2.652 8.348-5.579-3.241-14.208-1.294-17.34 1.836-2.807 2.808 2.242 3.12 7.07 5.755.139 1.934-.632 3.752.898 5.282.802.8 1.683.971 2.618.971.688 0 1.403-.091 2.139-.091.174 0 .351.008.527.021 2.632 4.824 2.947 9.872 5.753 7.068 3.13-3.131 5.075-11.756 1.84-17.334 2.364 1.67 5.243 2.659 8.358 2.659 8.018 0 14.516-6.498 14.516-14.516 0-3.107-.984-5.979-2.646-8.341 5.58 3.222 14.188 1.272 17.315-1.853 2.808-2.806-2.242-3.119-7.068-5.753m-3.517-4.339c.723 0 .993.138 1.266.41.441.442.451.895.369 2.176-.055.862-.118 1.841.119 2.922.573 2.614 2.247 4.165 3.968 5.084-1.604.579-3.555.973-5.626.973-3.099 0-5.725-.919-7.396-2.59-3.236-3.237-3.064-9.059-1.624-13.034.918 1.725 2.47 3.406 5.093 3.982.52.113 1.071.168 1.689.168.436 0 .839-.025 1.229-.049.328-.023.636-.042.913-.042m-37.215 40.565c-.722 0-.992-.139-1.266-.411-.441-.442-.451-.894-.369-2.174.056-.864.118-1.843-.119-2.924-.574-2.614-2.248-4.165-3.97-5.084 1.604-.579 3.556-.973 5.626-.973 3.1 0 5.726.92 7.397 2.591 3.235 3.237 3.064 9.058 1.624 13.033-.917-1.725-2.47-3.405-5.091-3.979-.521-.115-1.074-.171-1.694-.171-.436 0-.838.027-1.228.051-.325.022-.633.041-.91.041m24.695-8.967c1.396-7.466-4.118-9.729-5.965-11.161 1.821 2.736 1.532 6.466-.889 8.885-1.567 1.57-3.687 2.24-5.729 2.022-2.01-1.184-3.675-2.887-4.789-4.939 7.613 1.387 9.82-4.386 11.255-6.099-.001-.004-.002-.008-.003-.011-2.752 1.92-6.559 1.665-9.008-.785-1.568-1.566-2.231-3.688-2.007-5.733 1.183-2.003 2.882-3.665 4.93-4.778-1.419 7.613 4.348 9.812 6.073 11.241 0 0-.001-.002 0-.002-1.89-2.746-1.618-6.532.827-8.978 1.574-1.572 3.699-2.244 5.747-2.021 2.01 1.19 3.674 2.9 4.785 4.96-7.615-1.423-9.85 4.289-11.288 6.049-.003.01-.007.019-.01.028.006.008.01.016.015.021 2.755-1.932 6.571-1.682 9.026.773 1.563 1.564 2.229 3.679 2.009 5.721-1.19 2.021-2.909 3.692-4.979 4.807"/></svg>