<svg xmlns="http://www.w3.org/2000/svg" viewBox="0 0 64 64" enable-background="new 0 0 64 64"><path fill-rule="evenodd" d="m62 26.932c0-10.582-13.434-19.932-30-19.932s-30 9.35-30 19.932c0 1.143.094 2.247.259 3.32-.165 1.004-.259 2.026-.259 3.066 0 13.078 13.43 23.682 30 23.682 16.566 0 30-10.604 30-23.682 0-1.09-.102-2.161-.282-3.212.18-1.027.282-2.084.282-3.174m-4.957-2.182l-6.172 2.076c-.995.334-1.559-1.324-.563-1.66l6.172-2.074c.995-.334 1.559 1.324.563 1.658m-4.059 10.123l-6.49-.297c-1.047-.049-.955-1.803.092-1.754l6.49.297c1.047.049.955 1.803-.092 1.754m-7.224-18.9l6.15 2.139c.992.346.421 2.002-.571 1.658l-6.149-2.141c-.993-.344-.422-2.002.57-1.656m-9.727-3.928l6.26-1.801c1.01-.291 1.494 1.391.486 1.684l-6.26 1.801c-1.009.292-1.496-1.393-.486-1.684m-12.562-.457l6.049 2.41c.975.389.332 2.018-.645 1.629l-6.047-2.41c-.976-.389-.334-2.018.643-1.629m-.305 12.547c.67-.734 1.186-2.648 2.227-3.182 1.914-.982 3.613 2.473 6.289 2.473 1.383 0 4.254-2.443 5.475-2.156 2.045.482 1.154 1.779 2.414 2.865 1.313 1.131 3.502 1.609 3.502 3.109 0 1.031-.188 2.004-.622 2.882-2.365-2.136-6.126-3.501-10.45-3.501-4.326 0-8.087 1.365-10.454 3.501-.434-.877-.622-1.852-.622-2.882-.001-1.234 1.325-2.109 2.241-3.109m8.834 9.99c-4.75 0-7.617-.935-9.243-2.405 1.981-1.864 5.379-3.095 9.243-3.095 3.861 0 7.258 1.231 9.239 3.095-1.625 1.47-4.491 2.405-9.239 2.405m8.51 4.734l-5.758 3.023c-.929.49-1.754-1.059-.824-1.547l5.758-3.025c.928-.488 1.752 1.061.824 1.549m-15.086 1.543l-6.508.281c-1.049.047-1.127-1.705-.078-1.75l6.508-.283c1.05-.045 1.127 1.705.078 1.752m-13.542-23.134l6.297-1.652c1.016-.266 1.454 1.43.438 1.697l-6.297 1.652c-1.015.265-1.455-1.43-.438-1.697m5.602 15.841l-6.17 2.076c-.996.336-1.561-1.322-.564-1.658l6.17-2.076c.996-.336 1.56 1.324.564 1.658m-9.935-10.654l5.848 2.863c.943.463.178 2.039-.766 1.576l-5.848-2.863c-.941-.463-.178-2.039.766-1.576m24.451 32.545c-12.044 0-22.335-5.918-26.279-14.197.757.012 1.794-.672 2.68-.672 2.232 0 2.615 4.857 5.271 4.857 3.984 0 2.102 3.336 7.617 3.336 2.947 0 4.227-2.73 5.744-2.73 3.818 0 3.629 5.09 7.256 5.09 3.801 0 3.604-6.021 7.063-6.021 3.375 0 4.078 3.104 6.732 3.104 2.811 0 2.105-9.201 5.225-9.201 3.594 0 5.602-1.422 6.354-2.746.071-.126.134-.256.202-.384-1.379 10.964-13.347 19.564-27.865 19.564"/></svg>