<svg xmlns="http://www.w3.org/2000/svg" viewBox="0 0 64 64" enable-background="new 0 0 64 64"><path d="m15.451 5.453v7.898l-1.592 1.578h11.139v-11.054l-1.591 1.578z"/><path d="m42.946 14.929c-.022-.121-.053-.24-.066-.361-1.335.203-2.685-.256-3.617-1.218-.332-.342-.613-.745-.821-1.208-.467-1.045-.47-2.177-.11-3.175-.203-.02-.404-.059-.604-.108-.579-.143-1.119-.41-1.59-.782-.511-.403-.939-.925-1.224-1.563-.164-.366-.251-.744-.306-1.123l-.063.062h-7.957v7.897l-1.591 1.579h11.14 6.809"/><path d="m15.451 16.509v7.896l-1.592 1.58h11.139v-11.056l-1.591 1.58z"/><path d="m26.589 16.509v7.896l-1.591 1.58h11.14v-11.056l-1.592 1.58z"/><path d="m49.906 32.019c-.233-.173-.496-.326-.771-.471v-13.328h-1.859c-.544.035-1.084-.039-1.592-.211-.808-.272-1.531-.78-2.052-1.5h-5.904v7.896l-1.59 1.58h11.138l-1.592 1.579h-7.956v3.023c-.524.054-1.055.115-1.59.183v-4.785l-1.592 1.579h-7.957v4.922c-.536.12-1.067.242-1.591.365v-6.866l-1.591 1.579h-7.956v7.826c-.598.177-1.134.338-1.592.479v-9.883-11.057-11.054h11.139 9.535v-1.875h-20.674-1.859v1.875 56.25 1.875h1.859 33.416 1.859v-1.875-16.836c1.976-4.571 4.906-8.213.772-11.27m-1.475 8.109c-1.448 2.984-3.346 6.895-2.411 11.457-5.341-.162-7.493-3.03-10.199-6.635-2.662-3.545-5.813-7.742-12.553-9.62 5.999-1.501 13.392-2.997 19.024-2.997 3.881 0 5.653.709 6.456 1.303 1.893 1.399 1.63 2.479-.317 6.492m-34.572 19.997v-23.617c.334.018.647.048.968.075 1.927.264 6.377 1.084 10.024 3.316 1.749 1.229 3.125 2.691 4.316 4.24.581.909 1.177 1.742 1.779 2.503 3.374 5.063 6.03 10.116 14.469 10.116-.748-.912-1.238-2.075-1.548-3.379.806.137 1.677.213 2.636.213.249 0 .511-.011.771-.021v6.554h-33.415"/></svg>