<svg xmlns="http://www.w3.org/2000/svg" viewBox="0 0 64 64" enable-background="new 0 0 64 64"><path d="m17.854 43.835c-1.708-.831-3.376-.966-3.723-.303-.345.668.76 1.88 2.47 2.711 1.708.834 3.374.971 3.723.303.344-.661-.759-1.879-2.47-2.711"/><path d="m26.165 8.08c-2.651 0-5.079 1.181-5.473 2.842-.46 1.939 1.959 3.771 5.473 3.771 3.517 0 5.934-1.831 5.474-3.771-.394-1.661-2.823-2.842-5.474-2.842"/><path d="m49.323 15.775c-2.649 0-5.078 1.181-5.472 2.844-.46 1.938 1.957 3.769 5.472 3.769 3.517 0 5.934-1.83 5.475-3.769-.396-1.663-2.824-2.844-5.475-2.844"/><path d="m61.974 20.392c-.039-.753-.225-1.51-.608-2.247-1.755-3.364-6.961-5.449-12.042-5.449-4.005 0-8.077 1.299-10.484 3.494v-3.494h-.025c-.039-.752-.225-1.51-.608-2.246-1.754-3.365-6.96-5.45-12.042-5.45-5.081 0-10.29 2.085-12.04 5.449-.384.736-.57 1.494-.608 2.246h-.027v8.529c-.947.271-2.106.671-3.68 1.237-2.044.738-7.683 7.766-7.683 7.766 3.786-.219 7.615.43 11.257 1.528.951.281 1.89.598 2.818.937.89-3.19 3.373-6.624 1.541-9.492 3.076 2.827.135 7.078.888 10.453 1.788.755 3.535 1.597 5.242 2.488.532.279 1.055.57 1.58.856 1.931-3.251 3.424-6.976 2.484-10.781 1.908 3.782 1.113 8.186-.185 12.075 1.967 1.137 3.9 2.31 5.816 3.48.238.143.478.283.717.426.853-2.994 2.551-5.973 3.201-8.992.16 3.309-1.051 7.157-.736 10.422.534.303 1.066.609 1.61.893 1.621.862 3.289 1.618 5.125 2.076-1.9.205-3.834-.205-5.67-.718-1.834-.555-3.61-1.257-5.327-2.042-3.45-1.548-6.723-3.335-10.001-5.039-3.275-1.714-6.545-3.367-9.903-4.844-3.366-1.46-6.817-2.701-10.458-3.727-.042.882.199 1.866.636 2.825-.679 1.167-1.285 3.213-.046 4.969.099.139.195.269.288.392.046.062.1.134.147.199-.326 1.329.31 2.458.7 3.149.107.189.269.477.298.585.043.257.029.5.01.807-.084 1.426.152 2.888 2.43 3.917.556.25 2.497.962 4.102.962.238 0 .461-.016.67-.045.83 1.016 1.884 1.866 3.002 2.387 1.345.625 2.764.859 4.016 1.066.032.006.063.011.095.016.786.999 1.752 1.226 2.329 1.361.329.077.425.105.536.187.759.558 2.772 1.853 5.064 1.853.319 0 .633-.026.934-.078.229-.04.432-.089.61-.142.119.225.256.406.386.548.841.919 1.987.937 2.671.948.158.002.397.006.478.024.731.231 1.925.296 3.801.374.188.008.399.017.615.026.119 1.113.769 1.733 1.384 2.072.441.245.921.37 1.423.37 1.021 0 1.878-.508 2.605-1.198.453.355 1.006.545 1.601.545.279 0 .563-.042.847-.127 1.875-.566 2.479-2.175 2.842-3.136.073-.195.178-.473.255-.62 2.319-.964 3.749-2.592 4.255-4.843.106-.472.174-.952.202-1.44.376-.408.666-.93.847-1.542.225-.764.288-1.7.084-2.549.397-1.011.364-2.061-.11-3.044-.334-.691-.915-1.438-2.084-2.204.038-.239.052-.479.073-.718 7.511-.25 11.918-3.968 11.859-7.857h.019v-9.875h-.026zm-35.809-.936c-8.401 0-12.952-4.771-10.946-9.007 1.468-3.1 6.224-5.063 10.946-5.063 4.723 0 9.477 1.963 10.944 5.063 2.006 4.236-2.545 9.007-10.944 9.007m23.859 24.539c.592.605.451 2.883-.71 3.145.046.688-.002 1.37-.153 2.043-.398 1.774-1.528 2.824-3.192 3.484-1.474.581-1.025 3.106-2.785 3.638-.1.03-.19.044-.273.044-1.073 0-.828-2.338-.715-2.909-.613.574-2.117 3.562-3.491 3.562-.155 0-.308-.037-.458-.12-.837-.463-.027-1.547-.271-1.996 1.396-1.221 2.096-2.662 1.563-3.216-.17-.177-.453-.229-.795-.196.244-.482.298-.904.082-1.168-.483-.593-2.092-.171-3.587.939-1.497 1.112-2.313 2.492-1.83 3.085.039.047.094.079.146.113-.646-.044-1.197-.104-1.491-.196-.868-.274-2.078.143-2.385-.655.212-.061.376-.161.465-.313.378-.649-.67-1.908-2.343-2.811-1.671-.905-3.33-1.108-3.708-.458-.376.647.67 1.906 2.343 2.811.021.012.042.02.063.031-.033.001-.064.008-.097.008-1.362 0-2.858-.713-3.884-1.466-.751-.552-1.42-.467-1.986-.767.292-.061.513-.179.613-.371.347-.664-.754-1.88-2.465-2.711-1.709-.832-3.378-.967-3.723-.303-.194.371.078.915.643 1.467-.13-.051-.268-.087-.395-.146-.522-.243-1.024-.584-1.48-.987.421-.033.729-.167.856-.412.347-.664-.756-1.88-2.468-2.711-1.708-.834-3.376-.967-3.721-.303-.221.424.149 1.068.886 1.696-.824-.189-1.586-.47-1.869-.598-1.922-.868-1.019-1.608-1.296-3.251-.171-1.02-1.328-2.009-.998-2.998.3-.9-.215-1.347-.77-2.132-.403-.571-.397-1.211-.271-1.757.533.632 1.142 1.2 1.82 1.631.246.155.885.454 1.799.85-.326.612-.504 1.604-.435 2.72.113 1.821.834 3.272 1.618 3.237.778-.035 1.322-1.537 1.208-3.36-.039-.642-.157-1.231-.325-1.732 1.034.422 2.229.898 3.545 1.412-.021.027-.045.052-.066.08-1.113 1.468-1.501 3.016-.867 3.461.635.444 2.052-.385 3.166-1.853.166-.219.31-.438.442-.657 2.623 1 5.527 2.076 8.454 3.12-1.362.139-2.356.607-2.369 1.2-.015.748 1.519 1.401 3.425 1.462 1.778.057 3.233-.422 3.438-1.093.512.175 1.02.347 1.521.515-1.232.168-2.103.619-2.113 1.176-.01.515.721.979 1.793 1.243-.519.782-.681 1.493-.343 1.844.532.557 2.095.014 3.493-1.212.041-.037.076-.074.116-.111.022.082.053.158.104.223.487.594 2.091.172 3.586-.938.044-.032.081-.067.124-.1 1.89.542 3.509.944 4.691 1.141-.015.031-.031.058-.046.089-.47 1.007-.813 3.533-.104 3.565.777.037 1.918-.776 2.691-2.434.373-.799.573-1.58.605-2.214.433-.446.909-1.007 1.396-1.648.08.135.177.246.307.303.714.314 1.92-.777 2.69-2.434.773-1.659.822-3.256.104-3.568-.008-.004-.019-.002-.026-.005.007-.022.017-.045.024-.067 1.054.901 1.312 1.91.484 3.039m-.701-16.841c-8.399 0-12.952-4.772-10.944-9.01 1.468-3.099 6.224-5.063 10.944-5.063 4.723 0 9.479 1.964 10.946 5.063 2.006 4.238-2.545 9.01-10.946 9.01"/></svg>