<svg xmlns="http://www.w3.org/2000/svg" viewBox="0 0 64 64" enable-background="new 0 0 64 64"><path d="m61.514 59.17l-4.947-4.947c4.257-5.273 4.389-12.531.064-16.857-2.141-2.141-4.999-3.189-7.98-3.191-2.25.002-4.57.605-6.704 1.787 2.746-4.959 2.353-10.926-1.404-14.681-2.142-2.141-5.001-3.192-7.983-3.192-2.25 0-4.568.605-6.701 1.786 2.746-4.96 2.35-10.925-1.406-14.681-2.141-2.143-5.001-3.194-7.983-3.194-3.044 0-6.213 1.102-8.877 3.253l-1.48-1.479c-.646-.648-1.697-.648-2.344 0-.648.646-.648 1.695 0 2.344l1.481 1.481c-4.256 5.275-4.39 12.531-.063 16.857 2.141 2.141 5 3.191 7.981 3.191 2.25 0 4.569-.604 6.702-1.786-2.745 4.959-2.35 10.926 1.407 14.682 2.141 2.141 4.998 3.191 7.98 3.191 2.251 0 4.57-.605 6.704-1.787-2.746 4.961-2.352 10.926 1.405 14.682 2.142 2.143 5 3.193 7.981 3.193 3.044 0 6.213-1.102 8.878-3.254l4.945 4.945c.646.648 1.697.648 2.344 0 .648-.646.648-1.697 0-2.343m-48.346-33.523c-2.554 0-4.886-.925-6.566-2.605-3.546-3.546-3.412-9.55.074-14.018l.764.763c.646.646 1.697.646 2.344 0 .646-.648.646-1.697 0-2.346l-.763-.76c2.197-1.712 4.834-2.681 7.45-2.681 2.554 0 4.886.926 6.567 2.606 3.888 3.889 3.365 10.738-1.166 15.269-2.399 2.397-5.571 3.772-8.704 3.772m16.088 16.087c-2.554 0-4.885-.924-6.566-2.605-1.849-1.848-2.767-4.428-2.584-7.264.156-2.412 1.094-4.756 2.658-6.754l.763.763c.648.648 1.697.648 2.346 0 .646-.646.646-1.695 0-2.344l-.762-.762c2.197-1.711 4.833-2.681 7.45-2.681 2.554 0 4.886.926 6.567 2.607 1.85 1.848 2.767 4.427 2.584 7.262-.189 2.934-1.521 5.776-3.75 8.004-2.399 2.399-5.572 3.774-8.706 3.774m24.792 12.315c-2.396 2.398-5.568 3.773-8.701 3.773-2.555 0-4.886-.926-6.567-2.607-1.849-1.848-2.767-4.428-2.584-7.264.156-2.41 1.094-4.754 2.657-6.752l.764.762c.646.646 1.697.646 2.344 0 .646-.648.646-1.697 0-2.344l-.761-.76c2.196-1.713 4.833-2.682 7.45-2.684 2.554 0 4.886.926 6.567 2.605 3.887 3.892 3.363 10.742-1.169 15.271"/></svg>