<svg xmlns="http://www.w3.org/2000/svg" viewBox="0 0 64 64" enable-background="new 0 0 64 64"><path d="m46.32 20.691c-.191-1.096-.358-2.048-.484-2.766.018-.073.04-.148.04-.215 0-.388-.096-.768-.275-1.134-.001-.001-.002-.01-.002-.01h-.002c-1.287-2.607-6.885-4.566-13.597-4.566s-12.311 1.959-13.598 4.566h-.001l-.001.005c-.181.368-.277.749-.277 1.139 0 .088.022.175.032.263-.124.711-.288 1.646-.475 2.718-9.326 2.83-15.68 8.322-15.68 14.633 0 9.193 13.458 16.676 30 16.676s30-7.483 30-16.676c0-6.311-6.354-11.803-15.68-14.633m-14.32 2.729c6.526 0 11.223-2.384 13.039-4.252 1.118 6.401 2.49 14.287 2.612 15.102-.088 2.751-6.491 5.789-15.651 5.789s-15.563-3.038-15.651-5.789c.12-.798 1.438-8.375 2.542-14.7 1.877 2.239 7.03 3.85 13.109 3.85m0 26.577c-15.733 0-28.488-6.864-28.488-15.334 0-5.621 5.641-10.529 14.033-13.198-.147.847-.306 1.753-.467 2.679-3.419 1.215-6.209 3.103-7.753 5.953-1.931 3.564-.353 8.43 5.5 11.78 3.607 2.066 11.253 5.516 16.111 6.294 4.858.774 9.394-2.065 13.224-2.944 6.215-1.417 10.235-4.33 10.579-8.852.343-4.515 2.608-7.418-3.243-10.763-.668-.382-2.313-.906-4.566-1.426-.164-.94-.324-1.861-.475-2.72 8.393 2.668 14.033 7.577 14.033 13.198 0 8.469-12.755 15.333-28.488 15.333"/></svg>