<svg xmlns="http://www.w3.org/2000/svg" viewBox="0 0 64 64" enable-background="new 0 0 64 64"><path d="m57.77 24.233c-4.217-5.481-9.342-9.155-19.889-14.075-5.955.296-14.948 9.657-14.948 9.657s5.322-8.225 12.055-11.046c-5.528-2.507-11.672-4.452-17.766-4.742-2.67 1.154-5.021 2.604-7.215 4.741-.04.04 2.133-3.497 4.769-4.768-10.221.18-12.776 3.359-12.776 3.359s2.157 2.712 2.756 3.707c1.456 2.418 2.635 4.633 3.754 7.12-.001-.006-.004-.012-.006-.019 1.732-4.844 8.819-10.654 8.766-10.613-4.215 3.741-6.866 9.238-7.713 13.077 0 0-.006-.013-.008-.016.697 1.713 1.397 3.598 2.153 5.771-.002-.011-.006-.021-.008-.031 2.764-7.012 12.522-15.19 12.522-15.19s-8.689 10.081-11.422 18.437l-.001-.003c1.485 4.474 6.21 20.104 6.763 21.388 2.544 5.901 8.329 9.013 15.097 9.013 3.664 0 7.614-.911 11.497-2.786 14.168-6.838 20.806-21.038 11.62-32.981m-12.489 31.176c-3.505 1.693-7.181 2.588-10.628 2.588-6.289 0-11.123-2.845-13.261-7.804-3.633-8.434 1.865-16.721 7.116-22.188 4.857-5.05 11.089-8.064 16.668-8.064 4.42 0 8.228 1.907 11.009 5.515 3.368 4.376 4.537 9.276 3.381 14.169-1.507 6.378-6.714 12.131-14.285 15.784"/></svg>