<svg xmlns="http://www.w3.org/2000/svg" viewBox="0 0 64 64" enable-background="new 0 0 64 64"><path d="m58.961 27.12c-.614-.566-1.544-1.421-1.658-1.844-.129-.478.237-1.678.505-2.554.553-1.814 1.18-3.871.131-5.674-1.06-1.825-3.172-2.303-5.035-2.725-.882-.2-2.089-.473-2.421-.805-.332-.332-.605-1.54-.806-2.422-.422-1.864-.899-3.976-2.726-5.036-.644-.373-1.395-.562-2.23-.562-1.162 0-2.322.354-3.443.695-.851.259-1.731.528-2.314.528-.132 0-.206-.015-.239-.024-.425-.115-1.279-1.043-1.845-1.658-1.309-1.421-2.791-3.032-4.941-3.039h-.003-.003-.005c-2.144 0-3.629 1.601-4.939 3.014-.565.61-1.42 1.531-1.837 1.642-.033.008-.104.022-.229.022-.582 0-1.464-.275-2.317-.541-1.127-.351-2.292-.714-3.461-.714-.825 0-1.566.186-2.203.553-1.83 1.054-2.308 3.167-2.729 5.032-.199.878-.471 2.082-.799 2.41-.326.326-1.529.598-2.408.796-1.864.422-3.977.9-5.032 2.729-1.042 1.807-.402 3.858.162 5.668.272.873.645 2.067.52 2.541-.11.417-1.031 1.271-1.64 1.835-1.346 1.248-3.021 2.8-3.015 4.953.005 2.149 1.617 3.631 3.039 4.94.615.566 1.543 1.42 1.657 1.844.129.477-.237 1.678-.504 2.553-.553 1.816-1.181 3.873-.132 5.678 1.059 1.824 3.171 2.303 5.034 2.725.882.199 2.09.473 2.421.805.333.332.606 1.541.806 2.422.422 1.863.9 3.977 2.726 5.035.642.375 1.394.564 2.231.564 1.162 0 2.322-.355 3.444-.697.852-.26 1.733-.529 2.317-.527.132 0 .206.014.238.023.422.113 1.277 1.043 1.843 1.658 1.308 1.422 2.79 3.033 4.941 3.037 2.156 0 3.642-1.602 4.951-3.014.565-.609 1.42-1.531 1.838-1.643.03-.008.101-.021.225-.021.581 0 1.463.275 2.316.541 1.128.352 2.295.717 3.465.717.823 0 1.563-.186 2.2-.553 1.83-1.057 2.308-3.17 2.729-5.033.198-.879.471-2.082.799-2.41.327-.326 1.531-.6 2.41-.797 1.863-.422 3.976-.9 5.029-2.729 1.042-1.807.403-3.857-.16-5.666-.272-.873-.645-2.068-.519-2.545.11-.416 1.031-1.27 1.641-1.834 1.346-1.248 3.021-2.801 3.016-4.951-.008-2.15-1.619-3.633-3.041-4.942m-3.551 11.216c-.591 2.23 2.005 5.773.88 7.723-1.141 1.98-5.516 1.508-7.122 3.113-1.604 1.604-1.132 5.979-3.111 7.123-.354.203-.761.285-1.202.285-1.737 0-4.018-1.258-5.781-1.258-.258 0-.504.027-.736.088-2.152.57-3.935 4.59-6.267 4.59-.002 0-.004 0-.007 0-2.339-.006-4.107-4.043-6.267-4.627-.239-.064-.493-.092-.759-.092-1.758-.002-4.027 1.225-5.761 1.225-.452 0-.867-.084-1.228-.293-1.983-1.152-1.509-5.531-3.121-7.143-1.609-1.611-5.99-1.139-7.14-3.119-1.136-1.957 1.44-5.516.838-7.748-.581-2.158-4.621-3.929-4.626-6.268-.007-2.337 4.02-4.118 4.588-6.271.589-2.228-2.007-5.771-.882-7.722 1.141-1.979 5.516-1.508 7.122-3.111 1.604-1.605 1.132-5.982 3.112-7.122.354-.205.762-.286 1.205-.286 1.736 0 4.014 1.254 5.778 1.254.258 0 .506-.027.739-.089 2.151-.566 3.933-4.588 6.266-4.588.002 0 .003 0 .005 0 2.341.008 4.108 4.044 6.269 4.627.239.065.495.093.762.093 1.757 0 4.023-1.223 5.757-1.223.452 0 .867.083 1.228.292 1.983 1.151 1.509 5.531 3.121 7.143 1.611 1.61 5.989 1.137 7.142 3.121 1.136 1.953-1.441 5.515-.838 7.744.583 2.16 4.621 3.93 4.628 6.271.004 2.334-4.023 4.118-4.592 6.268"/><path d="m44.119 43.668c-2.355 1.613-5.001 2.652-7.712 3.061-2.709.4-5.479.203-8.054-.6-2.582-.787-4.939-2.168-6.96-3.943-2.013-1.77-3.708-3.973-4.756-6.576-1.05-2.584-1.432-5.549-.889-8.404.521-2.859 1.957-5.549 3.997-7.625 2.025-2.068 4.721-3.387 7.5-3.637 2.772-.295 5.534.395 7.781 1.75 1.116.662 2.16 1.549 2.977 2.443.873.98 1.464 2.004 1.869 3.156.789 2.283.597 4.854-.47 6.938-.537 1.039-1.271 1.969-2.155 2.73-.767.637-1.777 1.17-2.816 1.375-2.1.492-4.423-.137-6.041-1.672-1.487-1.34-2.011-3.805-1.072-5.818.234-.512.534-.953.949-1.412.284-.332.761-.699 1.239-.916.982-.457 2.203-.539 3.323-.146.559.193 1.093.527 1.55.93.43.381.787.91.991 1.502.432 1.186.261 2.68-.614 3.857l.354.354c1.308-.967 2.107-2.746 1.892-4.549-.104-.898-.431-1.783-.988-2.564-.535-.752-1.233-1.365-2.04-1.846-1.61-.967-3.665-1.248-5.563-.699-.962.279-1.823.703-2.671 1.391-.708.57-1.374 1.332-1.884 2.15-1.034 1.65-1.549 3.66-1.371 5.652.169 1.992.994 3.941 2.364 5.48 1.274 1.459 2.976 2.557 4.835 3.184 1.861.633 3.89.744 5.828.371 1.943-.406 3.761-1.256 5.291-2.621 1.408-1.246 2.532-2.811 3.294-4.527 1.554-3.43 1.567-7.443.126-10.838-1.42-3.441-4.281-5.998-7.443-7.375-3.189-1.41-6.773-1.617-9.996-.801-3.228.822-6.119 2.643-8.208 5.068-2.121 2.379-3.657 5.242-4.506 8.324-.851 3.078-1.04 6.404-.355 9.662.681 3.244 2.277 6.408 4.681 8.84 4.778 4.93 12.279 6.82 18.783 5.139 3.262-.814 6.265-2.51 8.59-4.799 2.34-2.275 4.021-5.102 4.933-8.068l-.447-.225c-1.744 2.509-3.775 4.689-6.136 6.304"/></svg>