<svg xmlns="http://www.w3.org/2000/svg" viewBox="0 0 64 64" enable-background="new 0 0 64 64"><path d="m60.739 38.577l-7.669-7.67c-.835-.836-1.913-1.26-2.951-1.26-.909 0-1.788.325-2.449.986l-3.98 3.98c1.869-4.802 1.143-10.119-2.359-13.621-2.259-2.26-5.277-3.369-8.424-3.369-1.828 0-3.701.379-5.494 1.121 3.771-4.094 6.179-8.073 2.529-11.722-1.729-1.73-10.374-3.384-17.063-3.384-2.41 0-4.551.222-6.037.726l-1.855-1.851c-.684-.684-1.792-.684-2.475 0-.684.684-.684 1.791 0 2.475l1.849 1.849c-1.901 5.614.309 20.753 2.661 23.105 1.271 1.271 2.581 1.808 3.922 1.808 2.518 0 5.145-1.891 7.819-4.357-2.028 4.884-1.349 10.36 2.23 13.938 2.26 2.26 5.277 3.369 8.425 3.369 1.729 0 3.494-.35 5.197-1.013l-3.983 3.983c-1.416 1.415-1.293 3.831.275 5.397l7.67 7.67c.836.838 1.913 1.263 2.951 1.263.909 0 1.787-.325 2.448-.986l7.281-7.282 5.862 5.864c.684.684 1.792.684 2.475 0 .684-.682.684-1.791 0-2.475l-5.863-5.863 7.281-7.282c1.418-1.414 1.294-3.832-.273-5.399m-49.795-8.827c-.552 0-1.414-.127-2.507-1.22-.683-.726-1.989-5.044-2.558-10.955-.418-4.341-.242-7.346.107-9.112l.398.398c.684.684 1.793.684 2.477 0 .683-.684.683-1.792 0-2.476l-.392-.389c.995-.2 2.423-.356 4.41-.356 7.326 0 14.634 1.841 15.648 2.798 1.097 1.097 1.223 1.96 1.222 2.514-.004 2.754-3.623 6.35-7.122 9.828l-.926.922-.924.928c-3.479 3.5-7.079 7.12-9.833 7.12m18.475 12.95c-2.726 0-5.216-.988-7.011-2.784-1.976-1.974-2.955-4.728-2.761-7.755.166-2.571 1.168-5.072 2.838-7.201l.884.884c.684.684 1.791.684 2.475 0 .684-.683.684-1.791 0-2.475l-.883-.882c2.341-1.828 5.154-2.863 7.945-2.863 2.725 0 5.215.988 7.011 2.784 4.147 4.147 3.595 11.449-1.23 16.277-2.553 2.552-5.931 4.015-9.268 4.015m30.18-.138l-17.036 17.038c-.331.331-.745.4-1.034.4-.547 0-1.106-.246-1.536-.676l-7.671-7.671c-.407-.406-.646-.919-.673-1.442-.013-.259.021-.749.398-1.126l7.281-7.281 1.025 1.025c.684.684 1.791.684 2.475 0s.684-1.791 0-2.475l-1.024-1.025 7.281-7.281c.33-.331.745-.4 1.034-.4.549 0 1.108.246 1.537.674l7.67 7.67c.406.407.646.92.672 1.443.013.259-.022.75-.399 1.127"/></svg>