<svg xmlns="http://www.w3.org/2000/svg" viewBox="0 0 64 64" enable-background="new 0 0 64 64"><path d="m52.634 27.574c.051-.521-.027-1.089-.116-1.65-.052-.323-.115-.725-.101-.893.026-.303.182-.834.332-1.348.24-.821.488-1.671.458-2.341-.038-.862-.471-1.975-.889-3.051-.252-.648-.513-1.318-.599-1.736-.057-.273-.064-.775-.072-1.26-.016-.977-.031-1.987-.387-2.691-.352-.697-1.148-1.307-1.919-1.897-.414-.317-.883-.677-1.067-.906-.131-.161-.321-.567-.49-.925-.33-.702-.671-1.428-1.184-1.848-.635-.521-1.667-.778-2.665-1.028-.598-.149-1.275-.318-1.569-.49-.236-.137-.639-.558-.993-.93-.606-.635-1.233-1.292-1.913-1.561-.392-.155-.883-.225-1.595-.225-.318 0-.654.014-.98.027-.477.02-.944.048-1.253 0-.226-.035-.654-.186-1.031-.319-.705-.246-1.432-.502-2.054-.502-.583.003-1.258.252-1.91.493-.361.133-.812.299-1.021.325-.273.033-.712-.029-1.187-.086-.853-.104-1.757-.178-2.337.002-.621.193-1.201.716-1.762 1.223-.3.27-.673.606-.859.696-.298.143-.971.257-1.565.357-.948.161-1.929.326-2.576.743-.658.424-1.226 1.261-1.774 2.07-.31.457-.63.929-.855 1.147-.186.18-.599.442-.997.697-.714.455-1.452.926-1.847 1.481-.335.471-.472 1.111-.616 1.789-.074.35-.188.88-.276 1.019-.072.092-.361.299-.554.436-.499.357-1.015.726-1.247 1.257-.299.686-.193 1.597-.091 2.479.038.328.077.667.072.857-.007.291-.063.688-.119 1.114-.122.914-.247 1.859-.112 2.554.104.528.427 1.075.769 1.653.195.331.464.783.511.98.044.182.007.681-.02 1.045-.019.251-.032.502-.037.749-1.263.61-2.137 1.847-2.137 3.286 0 2.034 1.733 3.688 3.865 3.688h.058l.059-.003c.021-.002.573-.032 1.506-.078l16.512 28.027 16.513-28.027c.933.046 1.484.076 1.506.078l.059.003h.058c2.132 0 3.865-1.654 3.865-3.688-.001-1.121-.539-2.115-1.367-2.792m-17.318-22.819c.419.065 1.013.048 1.652.022.299-.013.604-.026.896-.026.577 0 .782.057.845.081.27.107.83.694 1.201 1.083.489.513.952.998 1.434 1.277.458.266 1.069.442 1.729.61.087 1.383.601 1.538.601 3.175 0 1.789-1.293 1.789-1.293 3.577s1.4 1.789 1.4 3.577c0 1.789-.551 1.789-.551 3.576 0 1.789.473 1.789.473 3.577 0 .465-.071.808-.173 1.096-2.529-.09-5.541-.174-8.657-.209.021-.247.035-.523.035-.887 0-1.789 1.228-1.789 1.228-3.577 0-1.787-1.541-1.787-1.541-3.576 0-1.789.817-1.789.817-3.577s-.818-1.789-.818-3.577c0-1.789.543-1.789.543-3.578 0-1.526-.585-1.759-.759-2.902.334.114.655.214.938.258m-14.947 6.224c0-1.547-.421-1.76-.535-2.944.221-.292.434-.542.596-.646.3-.193 1.177-.341 1.817-.45.797-.135 1.549-.262 2.104-.528.447-.215.878-.604 1.334-1.014.304-.274.812-.732 1.014-.797.015-.004.098-.027.313-.027.214 0 .473.024.739.053-.417 1.032-1.557 1.31-1.557 2.777 0 1.789 1.588 1.789 1.588 3.578 0 1.789.113 1.789.113 3.577s-1.102 1.789-1.102 3.577c0 1.789.433 1.789.433 3.576 0 1.789-1.353 1.789-1.353 3.577 0 .39.022.681.052.939-2.207.047-4.287.112-6.084.179.154-.293.263-.641.263-1.118 0-1.789.207-1.789.207-3.577 0-1.787-1.279-1.787-1.279-3.576 0-1.789-.322-1.789-.322-3.577s1.659-1.79 1.659-3.579m11.631 47.103l-14.265-24.211c3.48-.15 8.91-.337 14.265-.337 5.357 0 10.785.187 14.265.337l-14.265 24.211m18.135-25.985c0 0-9.125-.52-18.135-.52s-18.135.52-18.135.52c-1.031 0-1.865-.774-1.865-1.731s.834-1.733 1.865-1.733c0 0 9.125-.52 18.135-.52s18.135.52 18.135.52c1.031 0 1.865.776 1.865 1.733s-.834 1.731-1.865 1.731"/></svg>