<svg xmlns="http://www.w3.org/2000/svg" viewBox="0 0 64 64" enable-background="new 0 0 64 64"><path d="m59.896 23.918c-.245-.771-.443-1.315-.476-1.514-.369.098-.807.156-1.29.156-.775 0-1.67-.15-2.594-.525-2.065-.838-3.416-2.459-3.786-4.514-.233.066-.546.1-.909.1-1.17 0-2.865-.353-4.116-1.137-2.388-1.496-2.862-5.666-2.862-5.666-2.705-.783-4.739-3.965-4.414-6.672-2.425-.652-4.821-2.146-7.45-2.146-2.633 0-5.033 1.502-7.461 2.15-2.514.672-5.342.592-7.54 1.863-2.232 1.293-3.568 3.793-5.379 5.604-1.813 1.813-4.313 3.148-5.604 5.379-1.273 2.201-1.191 5.027-1.863 7.541-.648 2.428-2.152 4.831-2.152 7.462 0 2.632 1.504 5.033 2.152 7.462.672 2.512.59 5.34 1.863 7.539 1.291 2.232 3.791 3.568 5.604 5.379 1.811 1.811 3.146 4.313 5.379 5.604 2.198 1.275 5.026 1.193 7.54 1.865 2.428.65 4.828 2.152 7.461 2.152 2.635 0 5.035-1.502 7.465-2.152 2.512-.672 5.34-.59 7.538-1.865 2.232-1.291 3.568-3.793 5.379-5.604 1.813-1.811 4.313-3.146 5.604-5.379 1.273-2.199 1.191-5.027 1.863-7.539.648-2.43 2.152-4.83 2.152-7.462 0-2.631-2.104-8.081-2.104-8.081m-1.025 7.426c-.124.816-.739 1.691-1.393 2.617-.711 1.01-1.518 2.156-1.883 3.527-.248.926-.39 1.85-.527 2.744-.215 1.395-.417 2.711-.979 3.684-.575.992-1.619 1.826-2.724 2.709-.702.561-1.428 1.139-2.097 1.809-.669.668-1.249 1.395-1.81 2.098-.883 1.104-1.716 2.146-2.71 2.723-.971.563-2.286.766-3.679.979-.895.139-1.82.281-2.745.529-.892.238-1.741.57-2.563.895-1.324.52-2.575 1.01-3.763 1.01s-2.438-.492-3.763-1.012c-.82-.322-1.669-.654-2.559-.893-.927-.248-1.853-.391-2.747-.529-1.394-.213-2.709-.416-3.682-.979-.993-.574-1.826-1.619-2.707-2.723-.562-.703-1.142-1.43-1.811-2.098-.669-.67-1.395-1.248-2.097-1.809-1.104-.883-2.148-1.717-2.723-2.709-.563-.973-.766-2.289-.98-3.684-.138-.895-.279-1.818-.526-2.742-.238-.895-.573-1.746-.896-2.57-.517-1.322-1.007-2.57-1.007-3.753 0-1.186.49-2.436 1.01-3.758.323-.823.657-1.674.896-2.566.247-.926.389-1.85.526-2.745.215-1.394.417-2.711.979-3.684.575-.993 1.619-1.826 2.724-2.708.702-.561 1.428-1.14 2.097-1.809s1.249-1.395 1.811-2.097c.882-1.104 1.715-2.147 2.706-2.722.973-.563 2.289-.765 3.683-.98.895-.138 1.82-.28 2.745-.528.892-.238 1.742-.571 2.563-.894 1.324-.519 2.574-1.009 3.76-1.009.342 0 .691-.002 1.047-.005.357-.002.72-.005 1.085-.005 1.136 0 2.301.023 3.36.153.388 2.682 2.187 5.234 4.596 6.449.369 1.652 1.312 4.502 3.575 5.92 1.488.933 3.28 1.339 4.637 1.425.824 1.919 2.393 3.436 4.484 4.285 1.041.423 2.15.654 3.217.671.511 1.626 1.238 4.358.87 6.784"/><path transform="matrix(.7071.7071-.7071.7071 21.9298-31.2868)" d="m47.759 9.856h1.945v1.945h-1.945z"/><path transform="matrix(.7061.7081-.7081.7061 28.7806-33.8336)" d="m54.657 17.261h.987v.989h-.987z"/><path transform="matrix(-.7071.7071-.7071-.7071 94.8851-12.8671)" d="m49.614 12.724h.986v.987h-.986z"/><path transform="matrix(.7061.7081-.7081.7061 17.941-28.9584)" d="m43.364 6.64h.987v.989h-.987z"/><path transform="matrix(-.7081-.7061.7061-.7081 82.2279 74.6644)" d="m56.053 19.843h.987v.986h-.987z"/><path transform="matrix(.7061.7081-.7081.7061 29.3431-35.1889)" d="m56.571 17.261h.987v.989h-.987z"/><path d="m20.66 24.613c.62-1.076 1.413-3.979 1.115-4.662-.436-1.002-2.106-2.971-3.198-2.977-3.124-.014-6.06 2.426-6.77 3.646-.967 1.662.501 4.844 2.455 5.654 2.927 1.217 4.638 1.398 6.398-1.661"/><path d="m42.575 32.059c-.929.252-2.952 1.406-3.162 1.943-.312.787-.474 2.779.121 3.381 1.703 1.717 4.646 1.99 5.702 1.711 1.439-.381 2.376-2.928 1.752-4.441-.937-2.268-1.775-3.303-4.413-2.594"/><path d="m21.051 42.998c-1.967.813-2.866 1.541-2.25 3.828.218.807 1.219 2.561 1.685 2.744.683.27 2.412.41 2.933-.105 1.49-1.479 1.727-4.029 1.484-4.947-.331-1.248-2.54-2.061-3.852-1.52"/><path d="m51.095 25.518c-1.249.33-2.062 2.54-1.52 3.852.813 1.967 2.699 2.301 4.794 1.191 1.771-.938 1.892-4.145 1.375-4.667-1.477-1.49-3.732-.619-4.649-.376"/><path transform="matrix(-.7071-.7071.7071-.7071 30.8358 44.9367)" d="m23.308 14.665h2.834v2.834h-2.834z"/><path transform="matrix(.7072-.707.707.7072-18.8106 21.5993)" d="m15.255 32.093h2.834v2.834h-2.834z"/><path transform="matrix(-.7071-.7071.7071-.7071 30.9551 102.4861)" d="m35.286 43.415h2.834v2.834h-2.834z"/><path transform="matrix(.707.7072-.7072.707 37.9364-13.0358)" d="m32.79 37.354h3.819v3.819h-3.819z"/><path transform="matrix(-.7071-.7071.7071-.7071 39.8626 36.1796)" d="m25.516 7.925h3.817v3.818h-3.817z"/><path transform="matrix(-.7071-.7071.7071-.7071 40.9239 109.5919)" d="m41.742 44.903h2.834v2.834h-2.834z"/><path transform="matrix(-.7071-.7071.7071-.7071 62.2934 96.3223)" d="m49.679 33.843h2.834v2.834h-2.834z"/><path transform="matrix(.7071.7071-.7071.7071 29.9551-23.0875)" d="m42.14 23.908h1.414v1.414h-1.414z"/><path transform="matrix(-.7071-.7071.7071-.7071-2.0167 75.692)" d="m13.961 37.557h1.414v1.414h-1.414z"/></svg>