<svg xmlns="http://www.w3.org/2000/svg" viewBox="0 0 64 64" enable-background="new 0 0 64 64"><path d="m32.749 46.92c8.648 0 15.674-6.633 15.973-14.92-.299-8.287-7.325-14.92-15.973-14.92-8.647 0-15.675 6.633-15.97 14.92.294 8.287 7.322 14.92 15.97 14.92"/><path d="m32.75 10c-12.15 0-22.001 9.85-22.001 22 0 12.149 9.852 22 22.001 22 12.149 0 22-9.851 22-22 0-12.15-9.851-22-22-22m-.001 38c-8.837 0-16.001-6.921-16.001-15.461 0-.182.025-.359.031-.539-.006-.18-.031-.358-.031-.539 0-8.54 7.165-15.461 16.001-15.461 8.837 0 16 6.921 16 15.461 0 .181-.021.359-.026.539.006.18.026.357.026.539-.001 8.54-7.163 15.461-16 15.461"/><path d="m3.481 7.421c.24-.941.715-.011.715-.011s.166 9.74 1.246 9.846c1.08.106.248-10.022 1.526-10.216 1.188-.189.51 10.377 1.592 10.27 1.078-.114 1.26-9.85 1.26-9.85s.48-.929.717.005c2.928 11.51.559 16.215.559 16.215s-.4.989-1.35.994c-.089-.005-.022 27.336-.028 31.012.002 1.787-5.5 1.732-5.497-.047.004-3.676.111-31.014.025-31.012-.953 0-1.352-.988-1.352-.988s-2.36-4.702.587-16.218"/><path d="m55.62 7c1.238-.003 6.374 3.7 6.38 17.462.006 4.401-2.395 4.4-2.391 7.153.004 2.748.019 24.606.019 24.606s-2.634 1.807-4.592-.084l-.036-48.746c.002.001-.005-.392.62-.391"/></svg>