<svg xmlns="http://www.w3.org/2000/svg" viewBox="0 0 64 64" enable-background="new 0 0 64 64"><path d="m15.061 22.125c.937 7.962 8.162 14.941 16.945 14.941 9.42 0 17.055-8.024 17.055-16.683 0-.074-.005-.146-.006-.217-9.718-1.319-22.099 5.742-33.994 1.959"/><path d="m54 20.445c0-11.403-5.708-18.443-5.709-18.445h-32.583c0 0-5.708 7.052-5.708 18.445 0 10.828 9.256 20.886 20.895 21.489-.136 6.288-.671 12.836-2.211 15.104-2.169 3.196-9.771 1.554-9.771 4.962h26.177c0-3.409-7.605-1.766-9.774-4.962-1.54-2.268-2.075-8.815-2.211-15.104 11.636-.602 20.895-10.661 20.895-21.489m-22 18.809c-9.794 0-17.85-7.781-18.894-16.658-.076-.644-.121-1.29-.121-1.941 0-9.85 4.933-15.944 4.933-15.944h28.163c.001.003 4.846 5.989 4.927 15.702.001.08.007.159.007.242 0 9.653-8.513 18.599-19.015 18.599"/></svg>