<svg xmlns="http://www.w3.org/2000/svg" viewBox="0 0 64 64" enable-background="new 0 0 64 64"><path d="m61.771 46.935c-1.145-3.814-4.768-7.328-7.641-9.301-4.277-2.942-9.396-4.408-14.204-6.286l.001-.001c-.525-.205-1.063-.432-1.658-.684-3.57-1.509-6.08-3.55-7.58-5.016.178-.283.374-.56.614-.802 1.212-1.22 1.05-2.229.845-2.722-.303-.728-.991-1.145-1.68-1.294.06-.431.122-.983.057-1.585-.129-1.199-1.064-1.944-2.44-1.944-.326 0-.568.042-.614.05l-1.07.198.287 1.05c.131.476.021.84-.218 1.552-.061.18-.125.381-.188.593-.813-.402-1.737-.82-2.113-1.202 0 0 .236-.422-.084-.75-.324-.32-1.307.342-2.928 1.973-1.625 1.631-2.279 2.621-1.959 2.945.32.33.74.088.74.088.23.231.475.672.72 1.167-.266.079-.556.186-.881.306-.555.206-1.184.438-1.62.487l-1.821.203 1.157 1.421c.182.229.424.69.396.945-.054.479.123.789.28.966.214.238.513.37.842.37.277 0 .541-.093.826-.249.009.09.021.181.039.271.083.443.472 1.474 2.276 1.474 1.097 0 2.562-.364 3.864-.774 1.518 1.652 3.461 4.208 4.898 7.676.248.596.443 1.121.65 1.648l.013-.013c1.868 4.857 3.328 9.992 6.243 14.323 1.943 2.891 5.32 6.543 9.193 7.746.58.18 1.797.539 2.633-.297l11.826-11.885c.833-.839.473-2.06.299-2.647m-34.796-24.666c.201-1.77 1.045-2.594.678-3.934 0 0 .182-.034.433-.034.523 0 1.349.146 1.446 1.051.14 1.295-.458 2.426.128 2.426.019 0 .04-.001.062-.004.053-.006.106-.009.161-.009.952 0 2.223.856.712 2.376-1.602 1.615-1.918 4.209-1.918 4.209s-2.396-1.115-1.148-3.906c0 0 1.201-.408.807-.807-.402-.397-1.558.396-1.361-1.368m-4.823 7.891c-.706 0-1.204-.181-1.294-.658-.191-1.019.416-2.156.416-2.156-.619.187-1.857 1.318-2.264 1.318-.097 0-.146-.065-.129-.223.094-.82-.613-1.689-.613-1.689 1.055-.118 2.573-.922 3.157-.922.018 0 .034 0 .05.002.547.047.555.84.555.84.893-.422 1.818-.604 2.59-.604.52 0 .971.083 1.295.229.095.042.194.101.294.155.15 1.08.763 1.863 1.34 2.343-1.427.534-3.885 1.365-5.397 1.365m14.98 5.906l-.164.705-.696.163-1.822 1.223-.802-1.941-1.708 1.707c-.032-.08-.066-.161-.101-.244-1.401-3.379-3.255-5.917-4.782-7.638.668-.234 1.229-.452 1.594-.599l.853.396.166-1.366c.002-.013.121-.907.538-1.903 1.584 1.515 4.111 3.51 7.673 5.016.095.04.188.079.278.117l-1.721 1.721 1.918.802-1.224 1.841m8.518 23.482c-2.506-1.607-4.592-3.691-6.201-6.195 4.668-4.67 9.336-9.336 14.004-14.004 2.504 1.607 4.588 3.693 6.197 6.197-4.668 4.668-9.334 9.334-14 14.002"/><path d="m18.534 22.656c.232-1.184-7.908-.656-10.365-.305-5.149.734-4.506 6.713.201 3.504 4.191-2.857 10.093-2.84 10.164-3.199"/><path d="m24.239 12.468c.229.287 4.27-8.049 2.941-7.453-1.217.547-3.121 7.226-2.941 7.453"/><path d="m21.217 20.351c.334-1.063-5.527-17.403-7.139-18.176-1.615-.777-3.91.723 2.602 10.92 2.789 4.367 3.893 9.295 4.537 7.256"/><path d="m16.901 24.285c-1.922.396-5.088 3.66-3.402 3.029 1.683-.627 4.611-3.275 3.402-3.029"/><path d="m23.065 18.337c1.266-1.201 4.389-4.584 2.752-4.145-1.291.35-4.02 5.343-2.752 4.145"/><path d="m21.76 8.267c-.953 1.242-.695 7.696.096 9.811.844 2.257.855-11.056-.096-9.811"/><path d="m11.577 20.285c3.943-1.863-11.489-2.164-9.377-.389 2.113 1.779 7.64 1.211 9.377.389"/><ellipse transform="matrix(-.3743-.9273.9273-.3743-12.9722 46.5858)" cx="9.231" cy="27.669" rx=".929" ry="1.312"/><ellipse transform="matrix(-.749-.6626.6626-.749 38.0954 37.6362)" cx="26.177" cy="11.602" rx=".452" ry=".826"/><path d="m11.917 28.076c-.438.309-.607.822-.379 1.146.229.322.771.334 1.209.025.436-.309.605-.822.377-1.146-.231-.324-.772-.334-1.207-.025"/><ellipse transform="matrix(.3437.9391-.9391.3437 16.9998-14.7675)" cx="19.065" cy="4.778" rx="1.614" ry="1.076"/><ellipse transform="matrix(.1883.9821-.9821.1883 25.6669-18.3745)" cx="23.95" cy="6.341" rx=".819" ry=".547"/><path d="m7.189 17.046l1.01.678c.834.561 1.895.531 2.684.008l2.182 1.459c1.113.748 2.623.441 3.359-.668l.676-1.008c.738-1.121.426-2.633-.676-3.375l-2.172-1.451c.201-.945-.168-1.973-1.023-2.541l-1.012-.68c-1.111-.744-2.623-.439-3.365.674l-2.342 3.535c-.737 1.115-.43 2.631.679 3.369"/></svg>