<svg xmlns="http://www.w3.org/2000/svg" viewBox="0 0 64 64" enable-background="new 0 0 64 64"><path d="m57.248 8.516c-2.156-5.308-8.281-7.894-13.683-5.777-4.12 1.617-6.622 5.504-6.624 9.611h-1.78-7.44l-3.427-3.367c-2.547-2.504-6.68-2.505-9.228 0l-9.066 8.906 1.384 1.36 9.066-8.907c1.784-1.753 4.676-1.752 6.46 0l2.043 2.008h-2.321c4.678 10.872-9.544 30.563 7.001 33.872-.011.005-.024.01-.014.014 5.057 1.752 4.787 5.931 3.136 9.865-1.749 4.167-5.938 4.927-5.977 4.951-.124.072-.197.3-.179.537.023.236.13.411.259.411h8.303 8.303c.128 0 .237-.175.257-.411.021-.237-.056-.465-.179-.537-.04-.024-4.226-.784-5.976-4.951-1.651-3.935-1.92-8.113 3.135-9.865.012-.004-.003-.009-.014-.014 12.04-2.407 7.791-13.489 6.385-23.536 1.427.053 2.887-.172 4.298-.726 5.401-2.116 8.032-8.136 5.878-13.444m-22.087 36.417c-20.91 0-6.216-20.987-10.509-31.657h1.244l8.318 8.172c-2.004-.602-4.11-1.093-6.411-1.093-.343 0-.688.011-1.041.034-.073 3.786-1.135 8.093-1.513 11.946-.594 6.073.518 11.021 9.911 11.021 7.82 0 9.899-3.431 10.035-8.083.101-3.494-.893-7.677-1.381-11.619-.141.006-.28.008-.421.008-1.707 0-3.383-.398-5.091-.915l-9.641-9.472h6.498 1.82c.09.974.317 1.951.705 2.906 1.331 3.281 4.18 5.518 7.437 6.252 1.297 10.474 5.868 22.5-9.96 22.5m7.781-14.908l.26-.255c.22 1.453.4 2.852.456 4.155-.087.002-.176.004-.266.004-2.104 0-4.268-.707-6.559-1.456-2.647-.864-5.648-1.845-9.028-1.845-.272 0-.543.006-.816.019.131-.937.287-1.897.448-2.894.316-1.953.641-3.959.782-5.893 2.724.077 5.227.896 7.649 1.689.241.079.479.153.719.23l6.355 6.246m-2.51-5.187c.674.135 1.352.245 2.043.293.1.68.209 1.354.317 2.026l-2.36-2.319m2.742-4.481c.272-.035.454-.271.654-.281.055-.003.49-.876 1.014-1.991-.003.233-.006.466-.002.703-.359.858-.631 1.546-.67 1.762-.033.198.239.313.303.504.029.089.226.161.521.219.016.156.033.313.05.472-2.957-.739-5.528-2.801-6.746-5.8-.355-.877-.565-1.774-.652-2.669h.589c.029.919.11 1.666.238 1.762.216.162.518.121.665.251.078.067 3.511-1.175 5.578-2.013h.515c-1.93.737-5.452 2.102-5.909 2.412-.167.117-.058.386-.151.563-.252.472 3.562 4.159 4.003 4.106m7.949 1.001c-1.359.534-2.767.739-4.139.673-.025-.198-.048-.396-.071-.593 1.527.044 3.231-.043 3.381-.231.17-.211.126-.502.26-.646.103-.11-2.66-7.141-2.829-6.896-.145.209-.352.078-.487-.015.127-.444.271-.88.451-1.3h-1.559c.004-.157.171-.32.191-.383 0 0-6.414-2.746-7.175-2.874-.203-.036-.321.229-.517.289-.271.086-.397 1.55-.407 2.968h-.622c.002-3.852 2.347-7.494 6.209-9.009 5.063-1.985 10.808.438 12.827 5.415 2.019 4.975-.448 10.619-5.513 12.602"/><path d="m50.52 3.654c-.167-.507-5.552-.496-5.824-.155-.167.211-.124.504-.258.647-.103.111 2.663 7.142 2.83 6.897.191-.278.499.05.591.078 0 0 2.828-6.226 2.961-6.966.035-.196-.237-.312-.3-.501"/><path d="m56.487 9.602c-.217-.164-.517-.123-.668-.252-.112-.1-7.353 2.585-7.102 2.746.287.187-.052.485-.083.575 0 0 6.417 2.745 7.176 2.876.205.034.323-.231.518-.293.521-.161.511-5.39.159-5.652"/><path d="m43.527 4.294c-.486-.244-4.287 3.459-4.231 3.887.036.265.276.442.289.636.01.149 7.082 3.223 7.023 2.934-.066-.329.391-.305.477-.349 0 0-2.536-6.346-2.979-6.96-.121-.165-.398-.059-.579-.148"/><path d="m48.566 13.059c.067.329-.391.308-.477.352 0 0 2.537 6.343 2.981 6.959.118.162.395.057.575.146.487.243 4.287-3.461 4.231-3.888-.033-.264-.278-.44-.288-.636-.008-.147-7.08-3.22-7.022-2.933"/><path d="m48.147 11.345c.34-.067.318.378.362.462 0 0 6.533-2.462 7.168-2.894.167-.114.058-.386.15-.562.251-.472-3.563-4.16-4.003-4.107-.272.034-.455.271-.655.283-.15.008-3.315 6.874-3.022 6.818"/></svg>