<svg xmlns="http://www.w3.org/2000/svg" viewBox="0 0 64 64" enable-background="new 0 0 64 64"><path d="m59.595 35.879c3.831-7.298-3.956-12.359-14.137-14.841.766-1.741.988-4.02-1.172-6.196-2.77-2.785-.929-6.842-.929-6.842s-5.814 5.363-2.143 9.061c1.354 1.363 2.059 2.56 2.396 3.561-2.768-.576-5.664-.97-8.519-1.174.855-2.324.938-5.243-1.756-8.038-3.688-3.831-1.232-9.41-1.232-9.41s-7.753 7.374-2.858 12.458c1.787 1.854 2.728 3.486 3.184 4.854-3.034-.091-5.954.042-8.548.405.309-1.495.051-3.214-1.598-4.874-2.77-2.785-.928-6.843-.928-6.843s-5.815 5.363-2.143 9.061c1.15 1.158 1.824 2.192 2.211 3.093-.438.096-.863.2-1.272.313-12.642-1.183-18.156 1.429-15.637 6.553-4.396 4.396-2.744 9.413 2.757 13.252 2.87 11.821 3.609 21.728 25.225 21.728 19.288 0 21.953-7.89 24.342-17.988 7.168-1.427 5.641-4.863 2.757-8.133m-1.787-1.181c-2.401 5.12-12.821 8.974-25.312 8.974-12.49 0-22.91-3.854-25.312-8.974-.051-.152-.1-.31-.149-.464 1.144-2.902 4.862-5.42 10.084-7.106-1.227 1.186-1.482 2.957 1.747 3.578.924.178 3.461-.438 2.352-3.586-.155-.44-.408-.735-.719-.913 3.588-.821 7.661-1.294 11.997-1.294.486 0 .963.017 1.442.028-2.502.888-4.543 3.624.566 4.431 1.128.178 4.225-.438 2.871-3.586-.131-.304-.321-.535-.55-.71 4.787.352 9.124 1.274 12.63 2.603-3.083-.172-6.503 1.728-1.026 4.403 1.175.574 4.745 1.101 4.254-2.375-.037-.263-.129-.497-.26-.706 2.803 1.477 4.758 3.268 5.533 5.233-.049.155-.099.309-.148.464"/><path d="m25.837 36.841c3.233 0 5.389-2.923 7.078-4.067 2.36-1.6 8.294-2.224 3.068-2.35-4.957-.119-11.077 3.905-15.167 3.628-6.772-.46.164 2.789 5.021 2.789"/><path d="m32.823 42.813c1.142.22 4.281-.542 2.908-4.435-1.551-4.405-10.94 2.889-2.908 4.435"/><path d="m15.047 33.178c-1.091-1.54-2.673-3.493-3.328-2.476-.895 1.391-1.177 4.19-.527 4.314 5.096.977 4.739-.591 3.855-1.838"/><path d="m44.672 33.802c.919-1.138-.916-3.877-2.094-3.398-1.844.75-2.907.242-3.717 1.38-1.897 2.665 4.562 3.563 5.811 2.018"/><path d="m44.098 37.063c-1.322-.583-1.01 1.37-2.963-.197-1.398-1.122-4.406 1.708-2.422 3.63 2.208 2.139 2.796.106 3.724.277 1.886.347 5.129-2.18 1.661-3.71"/><path d="m22.116 37.731c-.689-.678-1.613.14-2.135 1.138-.517-.254-.938-.313-.938-.313-.395-1.126-1.57-1.898-1.57-1.898s.107 1.171.262 1.742c-1.298-.461-1.338-2.781-1.338-2.781s-.871.521-.792 1.406c-1.429-1.153-2.646-.614-2.646-.614s1.813 1.02 2.063 1.708c-1.018.079-1.612.431-1.958 1.25.001.007 2.012-.957 3.5-.261-.587.48-.295 1.679-.295 1.679 1.385-1.468 2.491-1.311 3.376-1.048-.107.449-.1.859.09 1.108 1.535 2.018 6.882 1.564 8.318.072 1.739-1.805-3.093-.389-5.937-3.188"/><path d="m25.893 30.13c-.455.914-.458 1.604.068 2.322.007.002.212-2.218 1.573-3.138.111.75 1.289 1.114 1.289 1.114-.942-3.336 1.808-3.51 1.795-4.707-1.458.123-2.286 1.183-2.286 1.183-1.169-.239-2.436.372-2.436.372s1.061.509 1.63.67c-1.062.877-3.074-.28-3.074-.28s0 1.016.8 1.401c-1.723.635-1.885 1.955-1.885 1.955s1.806-1.031 2.526-.892"/><path d="m51.444 34.686c.414-.786-.19-1.603-.19-1.603s-.929 2.127-2.304 2.054c.362-.468.912-1.508.912-1.508s-1.382.263-2.18 1.15c0 0-1.296-.359-2.54.409.702.97 3.016-.527 4.243 2.715 0 0 .73-.993.373-1.662 1.642-.071 3.128 1.591 3.133 1.585-.006-.89-.418-1.442-1.329-1.906.496-.539 2.562-.784 2.562-.784s-.916-.965-2.68-.45"/></svg>