<svg xmlns="http://www.w3.org/2000/svg" viewBox="0 0 64 64" enable-background="new 0 0 64 64"><path d="m44.741 22.333c1.183-1.779 2.299-4.717-.455-7.491-2.768-2.785-.928-6.842-.928-6.842s-5.814 5.363-2.142 9.061c2.133 2.147 2.663 3.886 2.663 5.086-2.891-.599-6.106-.982-9.532-1.104 1.394-2.474 2.35-6.148-1.009-9.634-3.69-3.829-1.234-9.409-1.234-9.409s-7.753 7.374-2.856 12.458c2.603 2.702 3.411 4.927 3.529 6.55-.259-.003-.516-.008-.777-.008-3.113 0-6.082.216-8.827.612.967-1.792 1.52-4.344-.889-6.77-2.768-2.784-.927-6.842-.927-6.842s-5.814 5.363-2.143 9.061c1.947 1.96 2.554 3.576 2.646 4.757-9.403 1.599-15.862 5.386-15.86 9.934.003.238.025.475.055.652.267 2.676 1.586 11.966 7.348 19.847l-1.02 2.8 7.044 2.563c.041.024.086.046.127.069.594.764 1.484 1.615 2.824 2.4 1.344.786 4.542 1.917 9.62 1.917 5.08 0 8.28-1.131 9.622-1.916 1.338-.784 2.227-1.635 2.82-2.396 2.636-1.535 4.677-3.426 6.036-5.263 5.862-7.913 7.198-17.325 7.461-19.97.036-.232.058-.467.063-.748 0-4.084-5.288-7.564-13.259-9.374m-23.883 25.856v-.539c.563.261.852.901.637 1.496-.229.625-.922.949-1.549.721s-.951-.922-.723-1.549c.115-.317.351-.555.635-.684v.555h1m35.14-16.458c-.001.142-.017.282-.044.474-.257 2.566-1.526 11.527-7.085 19.029-2.759 3.729-8.639 7.713-16.869 7.713-3.443 0-6.469-.703-9.033-1.787l1.688-4.641-3.42-6.195-.377.145v-7.891c3.268.699 7.072 1.104 11.14 1.104 10.61 0 19.465-2.73 21.539-6.365-2.074-3.633-10.929-6.365-21.539-6.365s-19.463 2.732-21.542 6.365c1.199 2.096 4.66 3.888 9.402 5.032v8.507l-5.227 2.016-.395 1.084c-4.804-7.216-5.95-15.331-6.198-17.806-.022-.139-.037-.279-.04-.443 0-3.057 5.115-6.263 13.416-7.79-.032.051-.057.083-.057.083s.038-.037.093-.09c3.108-.568 6.648-.91 10.55-.91 14.356 0 24 4.501 24.003 8.628l-.005.103"/></svg>