<svg xmlns="http://www.w3.org/2000/svg" viewBox="0 0 64 64" enable-background="new 0 0 64 64"><path d="m59 18.579h-12.92c.009-1.917-1.601-3.702-3.96-4.534l4.112-10.606c.012-.029.023-.061.033-.09.2-.594-.018-1.184-.486-1.318-.468-.141-1.008.229-1.207.82l-3.914 10.824c-.084-.014-.166-.031-.252-.043-3.473-.461-6.574 1.211-6.93 3.736-.058.409-.032.815.054 1.211h-28.53c0 0 19.095 21.373 25.78 24.184-.027 2.113-.17 9.716-.851 12.981-3.679 3.238-11.407 5.379-11.461 5.402-.162.064-.264.27-.238.482s.173.372.344.372h26.852c.171 0 .318-.158.344-.369.027-.211-.071-.418-.236-.484-.051-.023-7.807-2.227-11.451-5.404-.663-3.267-.803-10.9-.829-12.995 6.712-2.865 25.746-24.169 25.746-24.169m-25.013-1.145c.224-1.586 1.392-2.738 2.61-2.576 1.217.162 2.025 1.578 1.801 3.162-.027.193-.069.38-.123.559h-4.271c-.063-.36-.072-.747-.017-1.145m-1.987 23.308c-4.143 0-21.861-19.833-21.861-19.833h24.799c.679.628 1.558 1.143 2.568 1.484l-1.194 3.304c-2.596-.967-5.288-.492-6.458 1.329-1.387 2.16-.104 5.373 2.869 7.175.142.086.29.145.434.221l-1.846 5.105.818.289 1.928-4.972c2.628 1.019 5.376.55 6.561-1.294 1.389-2.16.104-5.373-2.869-7.175-.111-.067-.228-.112-.341-.174l1.354-3.491c.119.021.236.045.358.062 2.51.335 4.82-.451 6.045-1.863h8.698c-.001 0-17.717 19.833-21.863 19.833m7.869-11.058c1.043.633 1.182 2.244.311 3.601-.872 1.359-2.424 1.945-3.466 1.311-1.044-.631-1.183-2.244-.312-3.601.871-1.356 2.424-1.942 3.467-1.311"/></svg>