<svg xmlns="http://www.w3.org/2000/svg" viewBox="0 0 64 64" enable-background="new 0 0 64 64"><path d="m60.263 3.957l-.213-.215c-2.316-2.322-6.072-2.322-8.389 0l-10.054 10.086c-10.008-6.223-23.317-4.987-32.006 3.729-10.136 10.17-10.134 26.652 0 36.816 10.135 10.168 26.565 10.17 36.703 0 8.621-8.646 9.902-21.859 3.861-31.871l10.098-10.131c2.316-2.325 2.316-6.09 0-8.414m-20.124 38.756c-4.096 9.107-13.667 13.658-21.376 10.164-7.715-3.496-10.646-13.715-6.553-22.822 4.095-9.111 13.664-13.66 21.376-10.166 7.711 3.494 10.645 13.715 6.553 22.824m15.471-30.572c-2.053 0-3.717-1.67-3.719-3.731 0-2.059 1.666-3.729 3.719-3.729s3.719 1.67 3.719 3.729c-.002 2.06-1.666 3.731-3.719 3.731"/><circle cx="22.952" cy="35.965" r="8"/></svg>