<svg xmlns="http://www.w3.org/2000/svg" viewBox="0 0 64 64" enable-background="new 0 0 64 64"><path d="m49.498 3.237l-5.023 11.54 9.598-8.291z"/><path d="m57.999 18.517v-4.829l-9.107 2.797z"/><path d="m43.587 2h-4.911l2.653 9.723z"/><path d="m61.957 40.713c.221-2.905-.423-8.551-1.436-11.442-.76-2.174-3.894-1.965-6.515-1.356l-.406-2.298c1.981-.659 3.264-2.5 2.931-4.384-.316-1.813-2.045-3.129-4.108-3.129-.284 0-.573.025-.856.075-.096.017-.188.036-.282.06-1.289-1.042-3.369-1.48-5.459-1.109-.618.108-1.221.288-1.798.534-.838-.616-1.88-.984-2.968-1.073-.206-3.275-2.838-6.087-6.458-6.724-1.281-.227-2.59-.154-3.792.206-.888-1.528-2.495-2.631-4.396-2.966-1.768-.315-3.597.107-4.933 1.108-.63-.271-1.299-.468-1.993-.59-2.274-.402-4.53.078-5.913 1.218-.115-.029-.229-.054-.346-.073-.304-.055-.615-.082-.921-.082-2.2 0-4.048 1.403-4.391 3.337-.194 1.114.12 2.241.89 3.171.6.724 1.422 1.259 2.358 1.544l-.449 2.551c-2.86-.663-6.275-.891-7.105 1.479-1.102 3.154-1.804 9.308-1.563 12.474.24 3.171 1.901 6.696 4.648 8.84l-1.4 7.939c-.763 4.327 25.948 9.037 26.712 4.712l.73-4.144 1.735 9.836c.7 3.97 25.204-.352 24.504-4.32l-1.283-7.285c2.518-1.968 4.04-5.202 4.263-8.109m-18.162-20.698l.547-.289c.576-.304 1.192-.515 1.83-.627 1.665-.293 3.363.105 4.109.935l.457.51.642-.244c.19-.072.365-.121.532-.151 1.298-.227 2.478.445 2.652 1.432.178 1.012-.723 2.02-2.004 2.247-.039.007-.079.007-.117.009l-1.228.103 1.557 8.835-17.435 3.075.126-.714c1.62-.374 2.89-1.587 3.169-3.173.051-.283.066-.57.049-.859 1.233-.547 2.118-1.617 2.347-2.912.04-.228.058-.461.053-.696 1.625-.913 2.752-2.458 3.069-4.253.193-1.106.045-2.213-.355-3.228m-33.447-6.094c-.391-.472-.555-1.021-.461-1.55.198-1.124 1.525-1.896 2.995-1.632.189.033.383.088.593.168l.642.246.461-.512c.842-.938 2.693-1.379 4.563-1.047.724.127 1.404.357 2.025.686l.644.339.521-.507c.907-.882 2.334-1.281 3.734-1.037 1.559.274 2.817 1.265 3.286 2.584l.359 1.011.983-.43c1.098-.479 2.333-.624 3.564-.404 2.928.515 4.995 2.876 4.812 5.492l-.049.682.618.293c1.821.861 2.866 2.75 2.543 4.591-.241 1.366-1.2 2.521-2.562 3.092l-.777.325.188.82c.059.256.067.488.028.713-.14.789-.813 1.416-1.718 1.598l-1.105.222.352 1.07c.101.306.126.602.077.881-.194 1.094-1.408 1.842-2.732 1.61-1.307-.23-2.208-1.329-2.012-2.447.059-.332.221-.643.479-.923l1.247-1.346-21.823-3.848 1.698-9.623-1.237-.104c-.045-.002-.093-.003-.14-.012-.731-.128-1.369-.484-1.796-1.001m-4.826 19.939c-.203-2.881-.087-7.198.843-9.901.424-1.234 2.036-1.267 3.689-.927l-2.633 14.934c-1.116-1.159-1.796-2.628-1.899-4.106m25.135 17.536c-.62 3.51-23.572-.536-22.951-4.048l3.655-20.738 18.722 3.301c-.057.17-.101.343-.132.519-.385 2.184 1.213 4.295 3.567 4.745l-2.861 16.221m5.055 5.968l-2.085-11.818 1.338-7.581 18.458-3.274 3.343 18.962c.567 3.22-20.487 6.934-21.054 3.711m21.315-12.319l-2.414-13.699c1.516-.311 2.994-.28 3.382.852.854 2.479.961 6.439.773 9.082-.092 1.354-.717 2.701-1.741 3.765"/><path d="m28.029 22.874c-1.002.075-1.665.736-1.665 1.524 1.078-1.188 2.285-.903 2.285-.903.743-1.63 2.82-2.258 4.365-.854.568-.742 2.078-.753 2.853-.205-.254-1.198-1.996-1.507-2.776-.787-1.425-1.451-4.426-1.28-5.062 1.225"/><path d="m26.071 14.225c1.769-1.113 3.702-.134 4.146 1.6 0 0 1.238-.07 2.088 1.286.14-.775-.395-1.542-1.366-1.79-.185-2.576-3.105-3.266-4.767-2.085-.639-.845-2.408-.844-2.873.292.858-.406 2.345-.132 2.772.697"/></svg>