<svg xmlns="http://www.w3.org/2000/svg" viewBox="0 0 64 64" enable-background="new 0 0 64 64"><path d="m17.466 8.315c-1.45 2.342 2.449 3.718 3.148 1.547 3.127-.323 2.225-4.255.074-3.771.936-1.59-2.063-3.439-2.342-.548-1.815-1.516-4.072 2.665-.88 2.772m.612-1.386c1.021.752 1.192.344 1.128-.623-.097-1.655.838-1.59.655.086-.097.881-.269.924.935 1.268 1.118.312.721 1.289-.43.634-1.149-.666-1.031-.806-1.117.612-.086 1.408-.709 1.161-.688.043.032-1.364.483-1.063-.709-1.472-1.17-.409-1.052-1.494.226-.548"/><path d="m29.746 9.115c-2.466 1.128.614 5.426 2.353 2.228 1.636 2.606 5.024-.723 3.191-2.469 1.266-3.34-3.178-4.303-3.788-1.875-1.135-1.717-4.538.442-1.756 2.116m3.396-1.487c.885-.983 1.683-.108.426.747-1.263.858-1.35.662.043 1.432 1.391.769.816 1.281-.298.722-1.377-.691-.835-1.01-1.86.013-1.01 1.006-2.052.357-.444-.492 1.285-.675.959-1.044-.051-1.446-1.729-.688-1.177-1.618.424-.623.844.523.8.714 1.76-.353"/><path d="m46.101 11.14c-1.057-3.518-5.299-1.665-4.278.707-2.005-.741-3.439 3.072-.111 2.8-1.313 2.404 3.906 4.124 3.322.439 2.973 1.18 3.664-3.593 1.067-3.946m-2.097 3.67c-.197 1.435-1.458 1.52-.671-.141.627-1.326.127-1.437-.95-1.168-1.848.461-1.978-.636-.043-.768 1.02-.07 1.104.114 1.223-1.341.109-1.342 1.307-1.094.813.363-.494 1.464-.688 1.355.936 1.161 1.62-.193 1.472.573.208.773-1.561.25-1.316-.337-1.516 1.121"/><path d="m57.929 21.432c.464-3.96-1.272-8.544-6.921-9.505 1.868-5.763-5.366-8.958-8.427-5.763-2.259-3.697-5.966-3.735-8.704-3.104 1.79.43 3.26 2.777 1.923 3.953 4.44 1.004 2.095 7.78-1.646 6.084-.021 3.149-5.89 3.087-5.464-.619-5.509-.991-2.033-9.725 2.066-7.218.248-.649.547-1.138.876-1.492-.775.312-1.252.575-1.252.575s-3.859-4.256-9.054-1.296c.345.443.537 1.02.459 1.754 4.835-.495 2.826 5.695.494 4.728.871 3.944-5.372 4.782-5.437 1.118-2.504 1.247-4.664-3.449-1.559-4.599-.417-1.564.186-2.686 1.161-3.351-2.326.261-4.726 2.461-4.637 8.772-6.89.621-6.91 9.994-3.884 11.754l7.769 38.777h26.72l12.621-8.98 2.229-25.326c.084-1.093-.073-2.05-.433-2.748.387-.7.695-1.497.896-2.354-.253.725-.729 1.351-1.346 1.725-.323-.32-.718-.501-1.126-.501-.221 0-.584.062-.938.346-.07-.22-.159-.417-.265-.591 1.249-.396 2.218-2.112 1.077-3.2 1.214-3.205-3.048-4.127-3.634-1.798-1.088-1.646-4.354.424-1.686 2.031-.336.153-.554.372-.694.618.492-.132 1.009.094 1.403.605.124-.103.286-.212.502-.327 1.233-.649.92-1.002-.048-1.387-1.659-.661-1.13-1.552.406-.598.811.501.769.685 1.689-.339.85-.943 1.614-.105.408.717-1.211.823-1.295.636.041 1.374 1.334.738.783 1.229-.285.693-1.321-.664-.802-.969-1.785.013-.209.208-.417.338-.604.413.164.37.28.809.315 1.32.317-.16.631-.457.908-.966.043.068.092.117.137.177-.488.295-.92.968-1.119 2.13l-1.78 30.123-3.47 2.226 1.847-33.692c.3-2.258-.554-3.767-1.489-4.031.035-.16.063-.322.113-.479-1.138.462-2.506.286-3.352-1.135-.429.206-.838.323-1.229.377 1.596.514 2.785 1.82 2.527 3.919l-1.91 37.608-7.175.037.024-34.304.002-3.341c.163-2.735 2.513-4.118 4.782-4.165-2.941-1.345-3.688-7.047.149-7.338-1.625-5.456 5.813-4.434 5.229-1.554 4.27-1.817 6.594 5.185 2.468 6.016.346.462.471.951.445 1.424.743-.366 1.613-.387 2.519.166 1.893-4.962 6.923-.152 4.836 1.683 1.662.375 2.325 1.595 2.312 2.845m-42.161-1.708c-.693-.729-1.632-1.198-2.628-1.407-.102-.046-.216-.095-.347-.146-1.84-.735-1.289-2.412.417-1.352.899.557.853.761 1.875-.375.942-1.046 1.792-.117.453.795-1.345.914-1.436.707.046 1.526 1.248.69 1.001 1.178.184.959m12.975-1.192c-.123-.184-.257-.371-.414-.562-1.039-3.461-4.296-1.868-5.015.559.496.187.955.448 1.352.783.529-.089.994-.149 1.07-1.085.111-1.369 1.335-1.116.831.371-.209.622.162.808.648.878-.64.615-1.07 1.45-1.151 2.501-.014.001-.027.004-.041.005.011.122.021.244.021.372l2.496 37.646h-6.624l-4.781-35.874-.236-1.771c-.018-.27-.007-.521.02-.765-.043.012-.091.02-.134.031-.063-.266-.144-.519-.248-.754.2-.034.393-.074.57-.124.245-.693.685-1.247 1.244-1.66-.14-.374-.449-.809-.978-1.313 1.347-3.561-3.384-4.582-4.034-1.999-1.21-1.827-4.835.472-1.871 2.255-.175.08-.325.159-.465.238-1.008.166-1.922.612-2.53 1.334-1.47-3.162.599-7.801 4.072-5.679 2.102-5.508 7.685-.169 5.368 1.867 1.064 1.014 1.625 1.878 1.827 2.615.247-.074.501-.131.761-.169.437-.292.993-.5 1.722-.556-1.659-5.572 5.937-4.527 5.34-1.587 1.66-.707 2.902.42 3.35 2.087-.74-.021-1.488.096-2.17.356m25.637 7.859c.135-1.093.499-1.574.874-1.574.562 0 1.145 1.076 1.013 2.789l-2.151 24.479-1.906 1.223 2.17-26.917"/></svg>