<svg xmlns="http://www.w3.org/2000/svg" viewBox="0 0 64 64" enable-background="new 0 0 64 64"><path d="m59.694 23.829c-.832-5.036-12.096-2.818-13.332-2.56v-3.362c2.754-.638 4.796-2.858 4.796-5.499 0-3.141-2.876-5.696-6.413-5.696-.035 0-.068 0-.103.001-1.605-1.663-4.218-2.657-7.133-2.657-.766 0-1.519.071-2.249.211-1.522-1.438-3.644-2.267-5.908-2.267h-.001-.007c-2.364 0-4.555.897-6.076 2.422-1.334-.57-2.789-.867-4.285-.867-4.772 0-8.787 2.954-9.848 7.053-3.076 1.326-5.135 4.261-5.135 7.507 0 2.274.994 4.42 2.717 5.963-.021.179-.03.358-.03.538 0 1.664.794 3.203 2.115 4.25-.032.232-.049.468-.049.703 0 2.809 2.257 5.136 5.188 5.545v22.932c0 5.272 32.422 5.272 32.422 0v-8.341c6.304-.067 11.216-5.568 12.57-10.811.956-3.692 1.414-11.11.761-15.065m-15.403 30.555c0 4.279-28.278 4.279-28.278 0v-19.303c2.774-.492 4.887-2.722 4.94-5.407h23.338v24.71m.454-38.23c-.155 0-.303-.025-.454-.039v11.615h-25.873c.354.542.571 1.165.571 1.839 0 2.024-1.85 3.672-4.133 3.672-2.286 0-4.139-1.647-4.139-3.672 0-.572.159-1.107.42-1.591-1.462-.566-2.486-1.858-2.486-3.362 0-.461.105-.896.279-1.302-1.791-1.136-2.966-3.04-2.966-5.199 0-2.872 2.067-5.286 4.897-6.055.39-3.686 3.874-6.563 8.115-6.563.002 0 .003 0 .005 0 1.807 0 3.47.528 4.822 1.412 1.009-1.757 3.108-2.967 5.539-2.967.002 0 .005 0 .007 0 2.208 0 4.139.998 5.23 2.497.887-.28 1.879-.441 2.929-.441 2.824 0 5.243 1.136 6.263 2.753.313-.06.638-.097.973-.097 2.456 0 4.447 1.678 4.447 3.753.001 2.071-1.99 3.747-4.446 3.747m9.907 22.746c-.821 3.256-4.05 6.09-8.29 6.141v-19.108c1.028-.262 8.85-2.145 9.368 1.093.543 3.386-.228 8.511-1.078 11.874"/><path d="m24.917 20.963c-.846-3.331-4.837-3.559-6.731-1.63-1.038-.957-3.355-.547-3.693 1.047 1.029-.729 3.039-.714 3.795.272 2.054-1.866 4.816-1.031 5.805 1.138 0 0 1.606-.378 3.04 1.201-.001-1.048-.882-1.928-2.216-2.028"/><path d="m27.388 8.142c-2.208-1.57-6.097-.653-6.339 2.773-1.294.33-2.005 1.35-1.819 2.382 1.131-1.805 2.778-1.711 2.778-1.711.589-2.307 3.161-3.609 5.514-2.129.569-1.102 2.547-1.466 3.688-.927-.617-1.51-2.971-1.511-3.822-.388"/></svg>