<svg xmlns="http://www.w3.org/2000/svg" viewBox="0 0 64 64" enable-background="new 0 0 64 64"><g fill-rule="evenodd"><path d="m47.384 44.207c4.841-.655 8.772-4.719 8.776-9.125l-17.685 2.409c.093 4.382 4.079 7.366 8.909 6.716"/><path d="m29.634 38.7c-4.853.66-8.625 4.729-8.441 9.042l17.409-2.35c-.093-4.34-4.111-7.354-8.968-6.692"/><path d="m43.354 13.903c-.043-.27-.091-.54-.162-.812l2.341.042-2.765-3.192 1.924-2.669-4.4-.462-.506-4.037-2.906 1.764-3.479-2.537-.186 2.09c-.606-.116-1.21-.187-1.803-.187-2.064 0-3.94.72-5.423 2.079-3.274 3.005-4.437 7.943-4.438 11.26 0 .696.05 1.488.194 2.274-10.809 4.791-19.745 10.678-19.745 10.678v31.806l60-7.77c0 0 0-30.086 0-32.32 0-3.509-12.229-7.149-18.646-8.007m-16.006-6.464c1.181-1.083 2.593-1.553 4.065-1.553 2.344 0 4.84 1.189 6.798 2.983 3.177 2.916 4.625 7.179 1.565 9.991-2.615 2.4-7.181 3.457-10.679 3.457-2.035 0-3.71-.358-4.429-1.018-1.973-1.811-1.477-10.045 2.68-13.86m30.034 45.389l-53.382 6.912v-6.95l53.388-7.036c-.002 2.905-.004 5.436-.006 7.074m.007-9.075l-53.389 7.036v-5.994c1.376 2.89 4.714 4.633 8.488 4.123 4.783-.646 8.516-4.663 8.327-9.017l-16.815 2.29v-1.367l53.396-6.841c-.002 3.118-.004 6.577-.007 9.77m.007-11.77l-53.396 6.841v-6.892l53.4-7.023c0 1.242-.002 3.865-.004 7.074"/><path d="m28.448 17.74l.712.662.712-.662-.712-.661z"/><path d="m40.093 13.683l-.71-.662-.712.662.712.661z"/><path d="m36.691 14.344l-.712-.661-.71.661.71.662z"/><path d="m32.7 14.344l.71-.661-.71-.662-.713.662z"/><path d="m37.176 10.991l-.711-.661-.712.661.712.662z"/><path d="m35.098 8.153l-.712-.662-.711.662.711.662z"/><path d="m31.987 11.263l.712-.662-.712-.662-.711.662z"/><path d="m29.035 14.138l.711-.661-.711-.663-.713.663z"/><path d="m32.162 17.329l.711.661.713-.661-.713-.662z"/><path d="m38.838 17.434l-.712-.663-.712.663.712.661z"/><path d="m35.269 20.756l.71-.662-.71-.662-.711.662z"/><path d="m29.872 20.756l.712.661.712-.661-.712-.662z"/><path d="m25.436 19.432l.712.662.711-.662-.711-.661z"/><path d="m26.373 16.005l-.711-.661-.71.661.71.662z"/><path d="m28.563 9.477l-.713-.662-.712.662.712.662z"/><path d="m26.859 12.507l-.711-.661-.711.661.711.662z"/><path d="m31.5 7.306l-.712-.661-.711.661.711.662z"/></g></svg>