<svg xmlns="http://www.w3.org/2000/svg" viewBox="0 0 64 64" enable-background="new 0 0 64 64"><path d="m53.762 19.385c-.935-1.678-1.988-3.573-2.145-4.208.059-.675.438-1.845.775-2.882.623-1.919 1.267-3.903 1.011-5.528-.546-3.514-5.216-4.767-9.407-4.767-4.189 0-8.86 1.253-9.407 4.77-.249 1.628.396 3.613 1.018 5.532.337 1.035.716 2.201.777 2.874-.157.635-1.206 2.518-2.134 4.185-4.408 7.922-12.614 22.667-5.384 34.736.649 1.084 1.567 1.993 2.664 2.749.363 2.874 5.798 5.154 12.471 5.154 6.664 0 12.107-2.28 12.473-5.154 1.097-.755 2.015-1.665 2.664-2.749 7.221-12.076-.974-26.801-5.376-34.712m3.842 33.721c-2.006 3.347-7.805 5.02-13.602 5.02-5.798 0-11.596-1.673-13.602-5.02-8.861-14.791 7.938-34.814 7.796-37.923-.099-2.101-2.139-6.05-1.823-8.115.331-2.129 3.977-3.193 7.623-3.193s7.293 1.064 7.623 3.193c.325 2.065-1.723 6.015-1.813 8.115-.143 3.13 16.655 23.113 7.798 37.923"/><path d="m50.369 7.367c-.581-3.777-12.164-3.777-12.745 0-.709 4.563 13.456 4.561 12.745 0"/><path d="m14 38c-5.973 0-12 1.663-12 5.377v12.179c0 1.269.714 2.291 1.876 3.096.253 1.864 4.681 3.348 10.124 3.348 5.44 0 9.867-1.483 10.122-3.347 1.164-.804 1.878-1.829 1.878-3.097v-12.178c0-3.715-6.027-5.378-12-5.378m10.154 5.378v12.178c0 1.942-4.546 3.518-10.154 3.518-5.607 0-10.154-1.575-10.154-3.518v-12.178-.001c0-1.942 4.547-3.517 10.154-3.517 5.608 0 10.154 1.575 10.154 3.518"/><path d="m22.593 42.481c-.466-.311-.98-.477-1.494-.609.487.216.972.455 1.376.786.195.166.372.37.426.589.057.215-.037.418-.201.586-.235.24-.551.414-.884.559-1.574-.729-4.472-1.219-7.798-1.219-3.293 0-6.167.48-7.75 1.197-.081-.036-.166-.063-.245-.103-.225-.11-.44-.241-.61-.401-.17-.162-.273-.349-.249-.543.019-.197.174-.408.359-.576.188-.172.409-.316.639-.443.461-.253.954-.455 1.454-.639-.521.098-1.04.229-1.541.439-.25.105-.497.228-.73.396-.225.169-.468.385-.556.748-.039.168-.019.379.047.536.064.165.16.3.263.417.209.23.447.398.69.545.486.29 1.002.482 1.518.654 2.077.651 4.223.846 6.355.887 2.133.006 4.279-.154 6.368-.703.522-.143 1.042-.303 1.545-.527.497-.23 1.01-.479 1.408-.957.094-.124.178-.269.221-.438.044-.177.033-.352-.025-.514-.124-.317-.36-.51-.586-.667"/></svg>