<svg xmlns="http://www.w3.org/2000/svg" viewBox="0 0 64 64" enable-background="new 0 0 64 64"><path transform="matrix(.7071-.7071.7071.7071-15.5873 23.4133)" d="m15.984 29.311h8.969v2.423h-8.969z"/><path d="m23.48 38.223l5.518-5.515-1.715-1.713-6.342 6.341.887.887.826.826 2.787 2.787 3.614-3.613z"/><path d="m54.619 38.223h-22.137l-5.326 5.328 2.786 2.787 6.343-6.344 1.713 1.713-6.343 6.344 2.788 2.787 6.342-6.344 1.713 1.715-6.342 6.342 2.786 2.787 6.343-6.342 1.713 1.711-6.26 6.263c1.006.555 2.293.418 3.146-.437l12.648-12.648c1.035-1.033 1.035-2.713 0-3.748l-1.913-1.914"/><path d="m60.986 39.57l-26.763-26.763c-.676-.676-1.563-1.014-2.448-1.014s-1.772.338-2.448 1.014l-1.705 1.705c1.533-1.531 2.641-2.906 1.107-4.438l-3.374-3.374c-1.502-1.502-2.851-.467-4.346 1.017-1.634-.761-4.752 1.177-8.104.641-.656-.107-1.547-1.75-3.898-4.102-2.82-2.818-4.789-2.662-6.102-1.348-1.311 1.311-1.469 3.279 1.35 6.1 2.352 2.35 3.996 3.242 4.102 3.898.534 3.354-1.404 6.471-.642 8.104-1.483 1.495-2.519 2.844-1.017 4.345l3.373 3.375c1.533 1.531 2.908.424 4.441-1.111l-1.707 1.707c-1.352 1.352-1.354 3.545 0 4.897l26.765 26.763c.676.676 1.561 1.014 2.447 1.014.887 0 1.773-.339 2.448-1.016l16.52-16.52c1.353-1.351 1.353-3.542.001-4.894m-37.3-33.083l5.23 5.23-.762.762-5.23-5.23.762-.762m-2.698 2.697l5.23 5.23-.764.764-5.23-5.23.764-.764m-2.701 2.701l5.23 5.23-.764.762-5.23-5.23.764-.762m-2.699 2.699l5.23 5.23-.762.762-5.23-5.23.762-.762m-2.699 2.698l5.232 5.23-.764.764-5.23-5.23.762-.764m-.932 11.394l-5.23-5.23.763-.766 5.23 5.23-.763.766m-2.531-7.931l.764-.764 5.23 5.232-.764.764-5.23-5.232m50.144 22.306l-16.52 16.521c-.276.276-.643.428-1.033.428s-.757-.152-1.032-.428l-26.765-26.764c-.275-.276-.428-.642-.428-1.033s.152-.758.429-1.035l16.52-16.52c.276-.276.644-.428 1.034-.428s.758.152 1.034.428l26.764 26.763c.275.278.427.644.427 1.035s-.152.756-.43 1.033"/></svg>