<svg xmlns="http://www.w3.org/2000/svg" viewBox="0 0 64 64" enable-background="new 0 0 64 64"><path d="m30.296 35.47c-.698 0-1.339.247-1.833.655-.495-.408-1.136-.655-1.835-.655-.698 0-1.338.246-1.832.654-.494-.408-1.135-.654-1.833-.654s-1.339.246-1.834.655c-.494-.409-1.135-.655-1.833-.655-.699 0-1.34.247-1.834.655-.495-.408-1.135-.655-1.833-.655s-1.338.246-1.833.654c-.494-.408-1.134-.654-1.833-.654-1.563 0-2.834 1.233-2.834 2.75 0 .664.244 1.273.649 1.75-.405.476-.649 1.086-.649 1.751 0 .664.244 1.273.649 1.749-.405.476-.649 1.086-.649 1.751 0 .664.244 1.273.649 1.749-.405.477-.649 1.087-.649 1.751 0 1.516 1.271 2.749 2.834 2.749.699 0 1.339-.246 1.833-.654.495.408 1.135.654 1.833.654s1.338-.246 1.833-.654c.494.408 1.135.654 1.834.654.698 0 1.339-.246 1.833-.654.495.408 1.136.654 1.834.654s1.339-.246 1.833-.654c.494.408 1.134.654 1.832.654.699 0 1.34-.246 1.835-.654.494.408 1.135.654 1.833.654 1.563 0 2.833-1.233 2.833-2.749 0-.664-.243-1.274-.649-1.751.406-.476.649-1.085.649-1.749 0-.665-.243-1.275-.649-1.751.406-.476.649-1.085.649-1.749 0-.665-.244-1.275-.649-1.751.405-.477.649-1.086.649-1.75 0-1.517-1.271-2.75-2.833-2.75m1.833 6.251c0 .965-.819 1.748-1.833 1.748 1.014 0 1.833.785 1.833 1.752 0 .966-.819 1.749-1.833 1.749 1.014 0 1.833.784 1.833 1.751 0 .966-.819 1.749-1.833 1.749s-1.833-.783-1.833-1.749c0 .966-.821 1.749-1.835 1.749-1.011 0-1.832-.783-1.832-1.749 0 .966-.822 1.749-1.833 1.749-1.013 0-1.834-.783-1.834-1.749 0 .966-.82 1.749-1.833 1.749s-1.835-.783-1.835-1.749c0 .966-.819 1.749-1.832 1.749-1.012 0-1.832-.783-1.832-1.749 0 .966-.822 1.749-1.834 1.749-1.013 0-1.834-.783-1.834-1.749 0-.967.821-1.751 1.834-1.751-1.013 0-1.834-.783-1.834-1.749 0-.967.821-1.752 1.834-1.752-1.013 0-1.834-.783-1.834-1.748 0-.968.821-1.752 1.834-1.752-1.013 0-1.834-.781-1.834-1.749 0-.967.821-1.75 1.834-1.75 1.012 0 1.834.783 1.834 1.75 0-.967.82-1.75 1.832-1.75 1.013 0 1.832.783 1.832 1.75 0-.967.822-1.75 1.835-1.75s1.833.783 1.833 1.75c0-.967.821-1.75 1.834-1.75 1.011 0 1.833.783 1.833 1.75 0-.967.821-1.75 1.832-1.75 1.014 0 1.835.783 1.835 1.75 0-.967.819-1.75 1.833-1.75s1.833.783 1.833 1.75c0 .968-.819 1.749-1.833 1.749 1.014 0 1.833.784 1.833 1.752"/><circle cx="21.129" cy="43.471" r="2.061"/><ellipse cx="14.937" cy="20.53" rx="7.981" ry="7.966"/><path d="m56.475 16.597c.104-.304.249-.839-.066-1.386-.317-.543-.853-.683-1.169-.743-.06-.317-.199-.852-.74-1.167-.221-.129-.463-.193-.721-.193-.265 0-.49.068-.667.13-.225-.25-.615-.645-1.221-.645-.219 0-.433.053-.636.157-.269.141-.452.332-.589.483-.188-.061-.426-.126-.688-.126-.489 0-.915.231-1.17.635-.163.259-.224.521-.266.721-1.457.366-1.4 1.382-1.308 1.805.023.106.052.206.079.302.001.004.002.009.003.013-1.004.996-.594 1.799-.245 2.198-.693.873-.311 1.574.007 1.934.005.006.01.012.015.017-.454.537-.543 1.082-.264 1.624.071.14.162.255.259.355-.457.531-.543 1.078-.254 1.63.141.268.335.451.487.588-.253.859-.08 1.483.514 1.856.26.162.522.224.723.266.225.898.712 1.354 1.447 1.354.115 0 .234-.013.354-.039.106-.022.211-.051.31-.078.003-.001.006-.002.009-.003.248.26.642.633 1.239.633.245 0 .615-.068.982-.396.087-.079.163-.156.235-.23.002-.001.003-.002.004-.003.207.054.419.099.642.099.351 0 1.195-.127 1.462-1.3.002-.006.003-.012.005-.018.007-.002.014-.003.021-.005.195-.044.797-.181 1.122-.744s.144-1.152.083-1.347c-.002-.006-.004-.013-.006-.02.005-.005.01-.01.016-.014.388-.364.586-.765.589-1.191.003-.424-.179-.751-.388-1.006.739-.896.344-1.615.021-1.979 0-.001-.001-.002-.002-.002.191-.211.381-.509.407-.912h.003v-.102-.1h-.004c-.027-.377-.195-.661-.372-.868.077-.092.153-.198.219-.325.323-.622.161-1.247-.481-1.858m-1.053 4.098c-.075.285.38.555.535.73.621.701-1.029.975-.309 1.676.406.393.633.654.151 1.105-.381.355-.437.559-.282 1.061.15.486.024.707-.474.82-.51.117-.659.268-.776.775-.091.399-.252.521-.487.521-.151 0-.333-.051-.547-.109-.079-.022-.15-.032-.216-.032-.342 0-.505.279-.784.53-.114.102-.219.143-.316.143-.244 0-.447-.256-.646-.461-.155-.159-.304-.211-.458-.211-.203 0-.415.091-.662.143-.053.012-.102.017-.146.017-.466 0-.429-.607-.586-.966-.179-.406-.727-.297-1.052-.5-.373-.234-.018-.789.014-1.105.046-.443-.482-.617-.661-.957-.248-.473.544-.729.646-1.115.082-.313-.522-.619-.647-.863-.204-.396.374-.693.566-.953.271-.371-.244-.652-.456-.891-.417-.473.203-.768.456-1.109.243-.332-.263-.6-.454-.814-.351-.396.035-.682.317-.959.366-.359.159-.686.063-1.117-.136-.617.554-.557.943-.729.406-.178.296-.725.499-1.049.079-.126.194-.168.324-.168.256 0 .569.165.778.188.02.002.038.003.057.003.4 0 .575-.489.901-.659.063-.032.121-.046.177-.046.365 0 .603.61.938.698.041.011.082.017.125.017.27 0 .56-.2.824-.2.075 0 .148.017.218.057.361.211.192.801.471 1.078.277.275.867.111 1.076.469.241.418-.357.904-.043 1.328.191.258.776.557.569.955-.163.314-.583.461-.646.826.117.363.689.518.69.93.002.418-.59.562-.69.943"/><path d="m52.869 15.568c-.274-.061-.519-.699-.955-.721-.485-.023-.688.518-1.051.725-.244.104-.793-.26-1.129-.066-.411.23-.242.854-.429 1.221.25-.232.289-.783.53-.936.404-.037.759.293 1.18.207.284-.076.704-.656.84-.656.331 0 .554.576.91.668.338.107.938-.355 1.141-.221.301.238.275.688.56.953-.174-.342-.013-.988-.396-1.209-.358-.238-.815.078-1.201.035"/><path d="m52.869 19.568c-.273-.059-.519-.699-.955-.723-.485-.023-.688.52-1.051.727-.256.086-.793-.258-1.129-.068-.411.232-.242.855-.429 1.223.25-.232.289-.785.53-.936.404-.035.758.293 1.18.209.284-.078.704-.658.84-.658.33 0 .555.576.91.668.338.107.938-.357 1.141-.223.301.24.275.689.56.955-.175-.342-.012-.986-.396-1.209-.357-.238-.815.078-1.201.035"/><path d="m52.869 17.568c-.274-.059-.519-.699-.955-.721-.485-.023-.688.518-1.051.725-.244.102-.793-.258-1.129-.068-.411.232-.242.855-.429 1.225.25-.234.289-.787.53-.938.404-.037.758.293 1.18.207.284-.074.704-.656.84-.656.331 0 .554.576.91.668.338.107.938-.357 1.141-.223.301.24.275.689.56.955-.174-.344-.013-.988-.396-1.209-.358-.238-.815.078-1.201.035"/><path d="m50.567 24.719c-.912-1.061-.35-3.107 1.257-2.914 1.303.158 1.73 2.375.275 2.217-.562-.061-.976-.908-.334-1.191.609-.287.747.416.672.777.787-.58-.426-1.553-1.123-.99-.653.525-.425 1.512.258 1.881 1.945 1.049 2.96-2.465.771-3.002-1.967-.48-3.172 2.119-2.105 3.592 1.084 1.498 3.53 1.057 4.068-.691-.585.307-.885.971-1.713 1.096-.761.11-1.528-.195-2.026-.775"/><path d="m44.482 14.892c-4.834-1.48-10.002-1.48-14.837 0-2.096.709-.798 3.67.943 3.08 4.22-1.293 8.731-1.293 12.95 0 1.742.59 3.04-2.371.944-3.08"/><path d="m44.482 19.495c-4.834-1.48-10.002-1.48-14.837 0-2.096.707-.798 3.668.943 3.078 4.22-1.293 8.731-1.293 12.95 0 1.742.59 3.04-2.371.944-3.078"/><path d="m44.482 24.097c-4.834-1.48-10.002-1.48-14.837 0-2.096.707-.798 3.67.943 3.078 4.22-1.293 8.731-1.293 12.95 0 1.742.592 3.04-2.371.944-3.078"/><path d="m60.625 7h-57.248c-.76 0-1.377.615-1.377 1.373v47.254c0 .758.617 1.373 1.377 1.373h57.248c.76 0 1.375-.615 1.375-1.373v-47.254c0-.758-.615-1.373-1.375-1.373m-54.496 6.869c0-1.512 1.239-2.748 2.752-2.748h12.11c1.513 0 2.754 1.236 2.754 2.748v13.322c0 1.512-1.241 2.748-2.754 2.748h-12.11c-1.513 0-2.752-1.236-2.752-2.748v-13.322m30 36.262c0 1.512-1.238 2.75-2.752 2.75h-24.496c-1.513 0-2.752-1.238-2.752-2.75v-13.322c0-1.512 1.239-2.748 2.752-2.748h24.496c1.514 0 2.752 1.236 2.752 2.748v13.322m21.742 0c0 1.512-1.238 2.75-2.752 2.75h-12.109c-1.514 0-2.752-1.238-2.752-2.75v-13.322c0-1.512 1.238-2.748 2.752-2.748h12.109c1.514 0 2.752 1.236 2.752 2.748v13.322m0-22.94c0 1.512-1.238 2.748-2.752 2.748h-24.494c-1.516 0-2.754-1.236-2.754-2.748v-13.322c0-1.512 1.238-2.748 2.754-2.748h24.494c1.514 0 2.752 1.236 2.752 2.748v13.322"/><path d="m54.844 37.123c0-1.063-1.257-1.801-1.926-1.922-.477-.088-1.635.096-1.918.258-.283-.162-1.447-.486-1.936-.488-.521 0-1.781.326-2.064.488-.283-.162-1.344-.338-1.789-.258-.669.121-1.926.859-1.926 1.922-1.064 0-1.928.861-1.928 1.924s.863 1.922 1.928 1.922c0 1.063 1.256 1.803 1.926 1.924.444.082 1.506-.096 1.789-.26.283.164 1.544.34 2.064.338.488 0 1.652-.174 1.936-.338.283.164 1.441.348 1.918.26.67-.123 1.926-.861 1.926-1.924 1.064 0 1.928-.859 1.928-1.922s-.864-1.924-1.928-1.924m-8.28 4.424h-1v-5h1v5m3 0h-1v-5h1v5m3 0h-1v-5h1v5"/><path d="m54.844 46.123c0-1.063-1.257-1.801-1.926-1.922-.477-.088-1.635.096-1.918.258-.283-.162-1.447-.486-1.936-.488-.521 0-1.781.326-2.064.488-.283-.162-1.344-.338-1.789-.258-.669.121-1.926.859-1.926 1.922-1.064 0-1.928.861-1.928 1.924s.863 1.922 1.928 1.922c0 1.063 1.256 1.803 1.926 1.924.444.082 1.506-.096 1.789-.26.283.164 1.544.34 2.064.338.488 0 1.652-.174 1.936-.338.283.164 1.441.348 1.918.26.67-.123 1.926-.861 1.926-1.924 1.064 0 1.928-.859 1.928-1.922s-.864-1.924-1.928-1.924m-8.28 4.424h-1v-5h1v5m3 0h-1v-5h1v5m3 0h-1v-5h1v5"/></svg>