<svg xmlns="http://www.w3.org/2000/svg" viewBox="0 0 64 64" enable-background="new 0 0 64 64"><path d="m61 62c0-11.146-1.444-18.922-3.953-24.355-.004.008-.009.014-.013.021 2.299-3.967 4.128-9.42 3.354-15.806-1.523-12.571-11.398-19.86-25.163-19.86-12.593 0-24.484 4.969-25.297 11.619h-1.135c-2.785 0-4.585 1.763-4.585 4.491 0 1.575.615 2.812 1.657 3.59-.388.241-.752.527-1.077.873-1.536 1.628-2.005 4.423-1.168 6.954.814 2.458 2.661 4.199 5.123 4.896-3.602 5.423-5.743 14.002-5.743 27.577h58m-4.594-23.296c.04.4.064.816.064 1.254 0 17.733-10.618 20.993-23.719 20.993-13.1 0-23.72-3.26-23.72-20.993 0-1.857.368-3.381 1.052-4.632 2.107 4.154 6.442 6.837 12.002 6.837 3.489 0 6.263-.969 7.988-2.521.565.299 1.199.479 1.879.479.702 0 1.359-.189 1.94-.506 1.722 1.567 4.511 2.548 8.021 2.548.712 0 1.396-.058 2.063-.143-2.098 1.227-3.52 3.548-3.52 6.209 0 3.934 3.103 7.135 6.914 7.135s6.912-3.201 6.912-7.135c0-1.855-.695-3.543-1.823-4.813 1.142-.989 2.586-2.588 3.947-4.712m-41.731-10.357c.9 1.28 2.81 1.876 6.008 1.876.007 0 .012 0 .018 0-.011.037-.021.074-.03.111-.049.198-.072.397-.071.594.002.791.386 1.563 1.04 2.165.49.451 1.132.808 1.878 1.006.388.104.781.156 1.169.156.001 0 .001 0 .001 0 .524 0 1.027-.098 1.472-.28.297.215.623.405.966.581.04.021.077.042.118.062.343.17.707.318 1.088.448.035.012.071.022.107.034.817.268 1.707.444 2.646.515l-.044.371c-.372 3.115-3.971 5.21-8.954 5.21-6.491 0-11.309-3.839-12.273-9.781-.21-1.289.275-3.488 1.61-5.197.64-.819 1.711-1.806 3.309-2.125-.019.052-.037.104-.055.152-.389 1.085-.974 2.723-.003 4.102m24.677-1.317c-.342-.483-1.295-1.41-2.213-1.959-1.383-.828-3.168-1.266-5.097-1.266-1.968 0-3.801.431-5.176 1.317-.966.623-2.082 1.748-2.442 2.389.328-.631.53-1.341.53-2.107 0-1.066-.366-2.037-.969-2.803h16.029c-.603.767-.969 1.737-.969 2.803.001.575.115 1.12.307 1.626m-14.645 2.336c.032.009.062.023.094.033.009-.074.026-.146.04-.218.435-2.48 3.485-4.408 7.201-4.408 3.822 0 6.95 2.04 7.238 4.626.032-.01.062-.024.095-.033.318-.084.634-.125.937-.125 1.07 0 1.958.507 2.161 1.327.261 1.049-.706 2.211-2.156 2.597-.314.083-.625.122-.921.122-.616 0-1.174-.17-1.575-.471-1.374 1.244-3.575 1.865-5.775 1.865-2.207 0-4.412-.623-5.782-1.864-.402.3-.96.47-1.577.47-.296 0-.606-.039-.921-.122-1.45-.386-2.417-1.548-2.156-2.597.203-.82 1.093-1.327 2.163-1.327.299 0 .615.04.934.125m22.665 12.696c3.278 0 5.945 2.767 5.945 6.168 0 3.4-2.667 6.167-5.945 6.167-3.279 0-5.947-2.767-5.947-6.167 0-3.402 2.668-6.168 5.947-6.168m3.775.198c-1.047-.708-2.29-1.129-3.626-1.158 2.135-.861 3.924-2.204 5.241-3.936-.367 1.589-.899 3.285-1.615 5.094m.729-5.526c-2.271 2.879-5.799 4.462-9.962 4.462-4.983 0-8.582-2.095-8.954-5.21l-.044-.362c.482-.032.949-.098 1.404-.184.011-.002.021-.003.032-.005.432-.084.846-.191 1.245-.32.045-.014.09-.029.135-.044.382-.129.747-.276 1.092-.444.041-.021.08-.043.121-.064.347-.178.678-.37.979-.588.445.184.947.281 1.472.281.389 0 .781-.053 1.17-.156.745-.198 1.388-.555 1.877-1.006.654-.603 1.039-1.374 1.041-2.165.001-.197-.023-.396-.072-.594 0 0 0-.001 0-.001-.009-.038-.02-.074-.03-.11 3.159-.008 5.049-.604 5.943-1.876.97-1.379.386-3.017-.002-4.101-.017-.048-.035-.1-.054-.152.554.113 1.083.315 1.582.606 1.738 3.261 2.083 7.307 1.025 12.033m-1.207-14.133c.323.439.625.909.902 1.407-.67-.429-1.432-.783-2.299-.885-.544-.064-.804-.087-1.037.026-.991.482 3.202 4.97-2.327 5.917 1.109-.815 1.838-2.147 1.838-3.661 0-1.066-.366-2.037-.969-2.803h3.892zm-45.011-4.491c0-.914.306-3.04 3.135-3.04h5.123c5.573.092 16.67.597 28.371 2.948 2.222.447 4.374 1.562 6.1 3.131h-39.594c-2.829 0-3.135-2.125-3.135-3.039m-.662 10.959c-.675-2.039-.335-4.249.846-5.5.505-.536 1.12-.896 1.823-1.085.356.07.729.116 1.128.116h8.428c-.603.767-.969 1.737-.969 2.803 0 1.513.729 2.846 1.837 3.661-5.524-.947-1.347-5.408-2.323-5.915-.229-.119-.459-.107-1.031-.026-4.276.609-6.301 5.841-5.876 8.448.082.504.2.991.334 1.47-2.019-.557-3.533-1.971-4.197-3.972"/></svg>