<svg xmlns="http://www.w3.org/2000/svg" viewBox="0 0 64 64" enable-background="new 0 0 64 64"><path d="m2 2v60h60v-60h-60m50.25 30l-8.644 1.304 14.072 7.039-15.523-2.576 6.228 6.136-7.761-4.026 7.248 13.967-11.044-11.208 1.431 8.623-3.91-7.817-1.329 8.81v7.874h-2.038v-7.888l-1.327-8.796-3.912 7.817 1.433-8.623-11.044 11.207 7.246-13.966-7.759 4.025 6.228-6.136-15.524 2.577 14.072-7.039-8.643-1.304 8.645-1.304-14.074-7.039 15.522 2.576-6.227-6.135 7.759 4.025-7.245-13.967 11.044 11.208-1.433-8.622 3.912 7.817 2.347-15.559 2.347 15.558 3.91-7.817-1.431 8.625 11.044-11.21-7.248 13.969 7.761-4.026-6.227 6.135 15.522-2.576-14.073 7.039 8.645 1.303"/><path d="m36.096 29.024l4.831-9.311-7.364 7.474-1.563-10.374-1.565 10.374-7.362-7.474 4.831 9.311-10.349-1.717 9.383 4.693-9.383 4.694 10.349-1.718-4.831 9.311 7.362-7.473 1.565 10.374 1.563-10.374 7.364 7.473-4.831-9.311 10.347 1.718-9.38-4.694 9.38-4.693z"/></svg>