<svg xmlns="http://www.w3.org/2000/svg" viewBox="0 0 64 64" enable-background="new 0 0 64 64"><path d="m51.429 15.856c4.558-4.299-.715-9.875-10.687-6.421-.587.204-1.133.419-1.648.642.977-1.876 2.42-3.924 4.58-5.885 0 0-4.034 1.449-5.898 1.082-2.312-.455-3.037-3.274-3.037-3.274s-2.405 5.238-3.63 9.349c-1.754-3.532-3.697-6.969-3.697-6.969s-1.037 2.404-2.936 3.318c-1.531.74-7.829 1.378-7.829 1.378 2.1 1.074 3.903 2.401 5.433 3.774-1.609-.426-3.446-.746-5.547-.898-8.344-.605-11.621 2.372-10.505 5.313l-4.028.129 2.192 8.219 1.362.387c3.232 10.949 2.45 23.098 2.44 23.235l-.055.792.754.222c12.073 3.556 23.042 11.751 23.042 11.751s14.222-9.412 22.042-11.753l.684-.205.014-.72c.004-.17.346-15.334 4.271-25.218.276-.039.536-.07.759-.084l.827-.05.083-.832c.003-.033.341-4.796 1.586-6.739l-10.572-.543m-46.842 3.844l6.483 1.759v4.063l-5.381-1.528-1.102-4.294m10.074 30.512c-1.487-.575-3.044-1.126-4.681-1.63.128-2.822.313-12.549-2.233-21.96l4.71 1.338c.912 4.023 2.426 12.311 2.204 22.252m7.893-35.169c8.094.586 9.517 4.764 9.517 4.764s-4.931 1.803-7.978 1.803c-9.942 0-11.378-7.28-1.539-6.567m9.988 5.379l8.126.921-10.13 2.451-5.786-1.293 7.79-2.079m-9.729 3.661l6.76 1.51v5.184l-6.979-1.947.219-4.747m8.041 34.937c-1.476-1.096-3.936-2.787-7.202-4.6.259-4.777.29-17.541.291-23.198l6.911 1.963v25.835m9.046-4.356c-2.992 1.766-5.558 3.451-7.1 4.496v-26.87c1.836-.674 4.812-1.753 8.162-2.917-.587 5.658-.954 20.424-1.062 25.291m3.28-27.832c0 0-9.738 3.125-11.659 3.834v-5.086l11.811-2.858-.152 4.11m-1.2-7.461c-4.559 1.168-9.408.344-9.408.344s-.909-4.465 6.451-7.014c8.946-3.099 12.483 4.229 2.957 6.67m6.711-1.699l5.796.326-3.481.843-4.157-.41c.673-.234 1.284-.49 1.842-.759m3.856 30.9c-1.447.473-2.973 1.092-4.511 1.793.011-4.684.297-15.066 2.467-24.145 2.231-.688 4.299-1.275 5.987-1.672-3.227 8.986-3.838 20.96-3.943 24.024m6.038-26.431c0 0-3.201.938-5.245 1.502l.514-3.468 5.565-1.346c-.456 1.255-.834 3.312-.834 3.312"/></svg>