<svg xmlns="http://www.w3.org/2000/svg" viewBox="0 0 64 64" enable-background="new 0 0 64 64"><path d="m24.105 15.023c1.324 0 2.396-1.142 2.396-2.543 0-1.401-1.072-2.536-2.396-2.536-1.323 0-2.398 1.135-2.398 2.536 0 1.402 1.075 2.543 2.398 2.543"/><path d="m34.714 22.631c-.563.008-.563 1.054 0 1.043 2.089-.043 3.751-2.043 3.787-4.553.027-1.77-.865-3.271-2.104-4.026 1.229-.751 2.078-2.252 2.104-4.035.038-2.509-1.754-4.509-3.787-4.553-.563-.01-.563 1.036 0 1.053 1.611.036 2.885 1.562 2.914 3.5.028 1.937-1.346 3.472-2.914 3.508-.563.01-.563 1.036 0 1.045 1.611.036 2.885 1.571 2.914 3.508.028 1.939-1.346 3.474-2.914 3.51"/><path d="m45.739 14.568c-.563.018-.563 1.028 0 1.045 1.006.036 1.783.964 1.809 2.178.026 1.205-.843 2.143-1.809 2.179-.562.018-.563 1.061 0 1.043 1.486-.044 2.643-1.437 2.682-3.222.025-1.148-.503-2.128-1.262-2.697.743-.567 1.236-1.547 1.262-2.705.038-1.786-1.253-3.178-2.682-3.222-.563-.018-.562 1.036 0 1.054 1.006.026 1.783.964 1.809 2.168.026 1.215-.843 2.144-1.809 2.179"/><path d="m40.159 21.621c-.562.01-.563 1.063 0 1.045 1.862-.045 3.33-1.813 3.368-4.045.025-1.539-.729-2.839-1.786-3.527 1.047-.686 1.76-1.988 1.786-3.525.037-2.24-1.563-4.008-3.368-4.053-.563-.018-.562 1.036 0 1.045 1.382.036 2.469 1.347 2.497 3.008.028 1.66-1.155 2.964-2.497 3-.562.01-.562 1.036 0 1.045 1.382.036 2.469 1.339 2.497 3.008.029 1.66-1.155 2.963-2.497 2.999"/><path d="m61.538 30.514c-.348-.606-1.054-1.328-2.459-1.328-3.09 0-5.951 1.808-7.685 4.788-3.468-2.311-8.484-4.788-14.047-4.788-9.616 0-17.519 3.267-20.069 7.863-.248-.255-.477-.42-.657-.42-.54 0-1.015.324-1.305.814l-8.234 2.503v-24.106l8.183 2.407c.283.544.782.91 1.356.91.218 0 .504-.234.812-.585 2.701 4.462 10.482 7.61 19.915 7.61 5.562 0 10.577-2.479 14.046-4.792 1.732 2.982 4.595 4.792 7.686 4.792 1.404 0 2.11-.722 2.457-1.328 1.434-2.509-.84-7.872-1.729-9.769.89-1.894 3.163-7.25 1.731-9.758-.349-.605-1.055-1.327-2.46-1.327-3.09 0-5.951 1.809-7.685 4.788-3.467-2.31-8.485-4.788-14.046-4.788-9.616 0-17.519 3.267-20.069 7.863-.248-.255-.477-.419-.657-.419-.541 0-1.015.324-1.306.817l-8.233 2.501v-3.797c1.009-.587 1.694-1.669 1.694-2.922 0-1.875-1.516-3.403-3.387-3.403s-3.39 1.528-3.39 3.403c0 1.253.687 2.335 1.696 2.922v49.035h3.386v-18.975l8.187 2.416c.285.539.781.901 1.353.901.218 0 .504-.233.812-.585 2.701 4.462 10.482 7.608 19.915 7.608 5.562 0 10.577-2.479 14.046-4.792 1.732 2.982 4.594 4.792 7.686 4.792 1.404 0 2.11-.723 2.457-1.328 1.434-2.508-.84-7.87-1.729-9.767.887-1.892 3.16-7.249 1.729-9.756m-24.19-24.482c5.568 0 10.608 2.745 13.857 5.047l.915.649.48-1.05c1.314-2.866 3.797-4.646 6.479-4.646.618 0 .758.244.817.348.759 1.327-.722 5.614-2.016 8.235l-.232.471.232.471c1.257 2.547 2.768 6.93 2.015 8.245-.059.105-.199.349-.816.349-2.684 0-5.165-1.782-6.479-4.651l-.481-1.051-.915.65c-3.248 2.304-8.289 5.052-13.856 5.052-3.304 0-6.438-.43-9.18-1.17 1.782-1.397 3.102-3.518 3.705-5.99.763-3.117.213-6.581-1.375-9.188-.328-.543-1.087-.018-.753.528 1.474 2.428 1.956 5.481 1.287 8.382-.586 2.536-2.093 4.652-4.022 5.867-.021.013-.03.033-.048.047-4.194-1.334-7.272-3.432-8.278-5.838.485-.796.85-1.488.85-1.488s-.41-.78-.941-1.637c1.485-4.261 9.459-7.632 18.755-7.632m-22.326 7.393c.021.957.623 1.734 1.398 1.852 0 .016.004.031.004.047-.757.113-1.346.858-1.397 1.782l-6.37-1.813 6.365-1.868m.005 28.864l-6.37-1.813 6.364-1.868c.021.956.624 1.735 1.399 1.854 0 .016.004.03.004.047-.756.113-1.345.854-1.397 1.78m42.854-2.488l-.231.471.23.471c1.295 2.624 2.775 6.917 2.016 8.244-.059.104-.199.349-.816.349-2.684 0-5.166-1.782-6.479-4.651l-.481-1.049-.915.648c-3.248 2.305-8.289 5.052-13.856 5.052-3.306 0-6.442-.432-9.186-1.172 1.785-1.391 3.107-3.513 3.711-5.989.763-3.114.213-6.578-1.375-9.185-.328-.545-1.087-.018-.753.526 1.474 2.429 1.956 5.481 1.287 8.384-.586 2.535-2.093 4.65-4.022 5.864-.021.014-.03.033-.048.048-4.195-1.334-7.272-3.431-8.278-5.836.485-.797.85-1.488.85-1.488s-.41-.779-.941-1.638c1.486-4.259 9.46-7.631 18.756-7.631 5.569 0 10.608 2.745 13.856 5.047l.915.648.481-1.049c1.314-2.866 3.797-4.647 6.479-4.647.618 0 .758.244.817.348.757 1.326-.723 5.614-2.017 8.235"/><ellipse cx="24.105" cy="37.669" rx="2.398" ry="2.54"/><path d="m38.501 36.244c.038-2.508-1.754-4.507-3.787-4.553-.563-.008-.563 1.036 0 1.054 1.611.028 2.885 1.563 2.914 3.499.028 1.939-1.346 3.475-2.914 3.51-.563.008-.563 1.035 0 1.044 1.611.036 2.885 1.571 2.914 3.509.028 1.938-1.346 3.473-2.914 3.5-.563.019-.563 1.062 0 1.054 2.089-.046 3.751-2.045 3.787-4.554.027-1.775-.865-3.273-2.103-4.027 1.229-.753 2.078-2.254 2.103-4.036"/><path d="m48.421 37.576c.038-1.786-1.253-3.179-2.682-3.225-.563-.018-.562 1.027 0 1.054 1.006.028 1.783.956 1.809 2.171.026 1.214-.843 2.143-1.809 2.178-.563.018-.563 1.025 0 1.044 1.006.036 1.783.964 1.809 2.179.026 1.205-.843 2.143-1.809 2.178-.562.018-.563 1.063 0 1.045 1.486-.045 2.643-1.438 2.682-3.223.025-1.149-.504-2.13-1.263-2.699.743-.568 1.238-1.549 1.263-2.702"/><path d="m43.527 36.754c.037-2.241-1.563-4.009-3.368-4.053-.563-.018-.562 1.035 0 1.043 1.382.037 2.469 1.34 2.497 3.01.028 1.661-1.155 2.965-2.497 3-.562.008-.562 1.035 0 1.044 1.382.036 2.469 1.339 2.497 2.999.028 1.671-1.155 2.975-2.497 3.011-.562.008-.563 1.061 0 1.043 1.862-.044 3.33-1.812 3.368-4.054.025-1.533-.729-2.832-1.784-3.518 1.045-.685 1.758-1.987 1.784-3.525"/></svg>