<svg xmlns="http://www.w3.org/2000/svg" viewBox="0 0 64 64" enable-background="new 0 0 64 64"><path d="m25.841 40.424c-1.591.391-3.181.783-4.772 1.176-.071.018-.133.01-.196.004l2.494 12.168c.056-.037.112-.074.188-.094 1.588-.391 3.175-.781 4.764-1.172l-2.478-12.082"/><path d="m20.041 12.24c.008-.002.014.001.021 0l-.953-4.648-4.967 1.191.959 4.675c1.646-.407 3.294-.812 4.94-1.218"/><path d="m23.893 55.004c-.098.023-.189.023-.271.008l.951 4.641 4.967-1.189-.946-4.617c-1.569.385-3.134.77-4.701 1.157"/><path d="m20.337 13.577c-1.64.403-3.277.807-4.917 1.21-.017.004-.029-.001-.046.001l.644 3.137c-1.536-.653-6.053-1.991-14.018.298 0 0 6.082.739 11.318 2.607-2.45.253-5.59 1.077-9.092 3.201 0 0 6.644-1.007 13.324 1.373l.305 1.488c.02-.006.03-.02.051-.025 1.637-.403 3.271-.805 4.907-1.208l-2.476-12.082"/><path d="m30.396 52.045c-.12.023-.227.006-.323-.029l1.597 9.984 5.014-.938-1.589-9.934c-1.566.306-3.133.61-4.699.917"/><path d="m28.293 9.15c.031-.006.058.003.088.002l-1.109-6.935-5.014.937 1.112 6.955c1.642-.319 3.281-.639 4.923-.959"/><path d="m47.783 37.336c-3.428-1.609-7.047-6.764-10.058-11.533l-2.99 6.103c-.915-.533-1.609-1.143-2.123-1.713 8.48-11.149 11.486-28.193 11.486-28.193s-2.289 5.086-9.92 11.686c-1.609 1.392-3.033 3.104-4.282 4.936l-1.302-8.139c-1.656.323-3.313.646-4.969.969-.015.003-.025-.002-.04-.001l2.025 12.648.298 1.864c-.852 1.945-1.51 3.735-1.979 5.134l-.84-4.097c-1.615.397-3.229.794-4.845 1.191-.044.011-.08.001-.121.003l2.488 12.137c.04-.02.071-.047.119-.059 1.612-.398 3.225-.795 4.836-1.191l-.404-1.973c.789-.467 1.544-1 2.275-1.57l.271 1.689c.032-.012.056-.033.093-.041 1.637-.318 3.274-.639 4.911-.957l-.77-4.814c.571.589 1.304 1.191 2.23 1.724l-2.097 4.605c-1.312.256-2.624.512-3.938.768-.082.016-.154.008-.227-.004l1.966 12.287c.055-.031.107-.064.181-.078 1.605-.314 3.214-.627 4.82-.939l-1.343-8.396c1.949 2.951 6.119 8.146 12.851 11.188 9.793 4.426 11.955 8.412 11.955 8.412l3.66-13.732c0 0-2.799-4.555-14.217-9.914m9.573 19.566c-1.927-1.693-5.089-3.904-10.159-6.193-7.313-3.305-11.435-9.438-12.731-11.639l3.84-8.516c2.795 4.125 5.477 7.145 8.641 8.631 8.141 3.822 11.669 7.186 12.858 8.527l-2.449 9.19"/></svg>