<svg xmlns="http://www.w3.org/2000/svg" viewBox="0 0 64 64" enable-background="new 0 0 64 64"><path d="m50.245 25.553l1.208.167c6.916.959 11.574-1.293 10.352-5.004-1.223-3.709-1.223-9.782 0-13.491 1.223-3.711-3.436-5.963-10.352-5.004l-5.537.769c-3.914.542-7.414 2.363-9.723 4.759-.59-1.621-1.827-.518-4.192-.518s-3.603-1.104-4.193.518c-2.308-2.396-5.809-4.217-9.722-4.759l-5.537-.769c-6.917-.959-11.576 1.293-10.354 5.004 1.225 3.709 1.225 9.782 0 13.491-1.223 3.711 3.437 5.963 10.354 5.004l1.207-.167c-1.651 6.498-4.99 14.339-11.756 20.447h13v16c0 0 11.145-15.834 13.212-40.953.69.596 1.867-.132 3.789-.132 1.921 0 3.098.727 3.788.132 2.067 25.119 13.211 40.953 13.211 40.953v-16h13c-6.766-6.108-10.105-13.949-11.755-20.447m-32.432-2.406l-5.537.769c-.968.134-1.904.202-2.785.202-3.064 0-4.764-.794-5.332-1.536-.189-.245-.814-.797-.271-1.316 6.43-6.149 23.231-3.101 23.231-3.101-1.949 2.466-5.431 4.445-9.306 4.982m28.376 0c-3.875-.537-7.357-2.517-9.307-4.982 0 0 16.803-3.049 23.23 3.101.545.52-.082 1.071-.27 1.316-.568.742-2.268 1.536-5.332 1.536-.881 0-1.818-.068-2.785-.202l-5.536-.769"/></svg>