<svg xmlns="http://www.w3.org/2000/svg" viewBox="0 0 64 64" enable-background="new 0 0 64 64"><path d="m41.663 45.487c1.357-3.265.137-5.288-.756-6.764-.854-1.416-1.471-2.436-.713-5.023 1.834-6.238-1.941-12.814-2.104-13.091l-3.119 2.048c.029.055 3.037 5.396 1.721 9.885-1.27 4.319.113 6.61 1.123 8.282.766 1.265 1.051 1.737.488 3.089-1.961 4.709-.531 7.103.512 8.85.91 1.523 1.512 2.531.215 5.674l3.362 1.563c2.082-5.042.604-7.516-.477-9.321-.885-1.488-1.422-2.385-.252-5.192"/><path d="m28.356 40.625c.969-1.7 2.295-4.028.92-8.31-1.437-4.473 1.426-9.839 1.475-9.93 0 0 .002-.004.002-.004l-1.333-.82-1.841-1.139c-.156.283-3.766 6.963-1.777 13.148.824 2.563.232 3.604-.586 5.039-.855 1.502-2.027 3.559-.586 6.785 1.238 2.771.725 3.684-.127 5.194-1.033 1.836-2.447 4.351-.242 9.333l3.322-1.656c-1.379-3.107-.801-4.131.072-5.679.998-1.776 2.369-4.208.291-8.86-.595-1.334-.324-1.815.41-3.101"/><path d="m55.424 43.55c.557-3.488-1.107-5.172-2.322-6.4-1.162-1.176-2.002-2.026-1.871-4.717.068-1.393-.128-2.735-.465-3.996 2.359.865 4.864 1.458 7.479 1.709 2.335-2.774 3.755-6.434 3.755-10.448 0-8.67-6.625-15.698-14.794-15.698-3.396 0-6.52 1.221-9.016 3.262-1.869-1.08-3.972-1.653-6.166-1.653-2.206 0-4.319.578-6.195 1.668-2.499-2.05-5.629-3.277-9.035-3.277-8.167 0-14.794 7.028-14.794 15.698 0 4.014 1.42 7.674 3.756 10.447 3.158-.303 6.158-1.103 8.93-2.289-.439 1.422-.702 2.969-.623 4.576.133 2.69-.709 3.541-1.871 4.717-1.215 1.229-2.879 2.912-2.322 6.4.48 3-.252 3.747-1.465 4.986-1.475 1.506-3.49 3.568-2.652 8.951l3.639-.739c-.525-3.358.297-4.198 1.541-5.468 1.424-1.457 3.377-3.451 2.574-8.482-.23-1.443.156-1.837 1.197-2.889 1.377-1.393 3.259-3.298 3.04-7.791-.145-2.921 1.414-5.744 2.626-7.479 4.296-3.126 7.636-7.364 9.515-12.266-.631-1.266-1.42-2.427-2.34-3.458 1.362-.669 2.881-1.054 4.48-1.054 1.589 0 3.095.378 4.448 1.035-.926 1.036-1.722 2.204-2.356 3.477 2.189 5.71 6.362 10.516 11.723 13.712.953 1.67 1.82 3.82 1.713 6.032-.221 4.493 1.662 6.398 3.038 7.791 1.041 1.052 1.428 1.445 1.199 2.889-.805 5.031 1.15 7.025 2.572 8.482 1.244 1.27 2.066 2.109 1.541 5.468l3.639.739c.84-5.383-1.178-7.445-2.65-8.951-1.216-1.237-1.947-1.984-1.468-4.984m-49.909-17.386c-.989-1.972-1.515-4.187-1.515-6.466 0-7.553 5.74-13.698 12.794-13.698 3.825 0 7.384 1.815 9.788 4.873-12.024 2.467-18.363 10.648-21.067 15.291m31.903-15.29c2.404-3.059 5.963-4.874 9.788-4.874 7.054 0 12.794 6.145 12.794 13.698 0 2.278-.526 4.494-1.515 6.466-2.704-4.642-9.043-12.824-21.067-15.29"/><path transform="matrix(.7069.7074-.7074.7069 31.1497-4.8001)" d="m19.366 33.182h4.001v4.001h-4.001z"/><path transform="matrix(-.7071-.7071.7071-.7071 44.8674 130.5202)" d="m47.466 53.968h4v3.999h-4z"/><path transform="matrix(-.7069-.7074.7074-.7069.1901 90.1315)" d="m16.771 43.026h4v4h-4z"/><path transform="matrix(-.7071.7071-.7071-.7071 76.0807 26.0391)" d="m30.648 26.777h4v4h-4z"/><path transform="matrix(-.7071-.7071.7071-.7071-12.359 106.8163)" d="m13.943 53.968h4v3.999h-4z"/><path transform="matrix(.7069.7074-.7074.7069 46.0076-19.9378)" d="m45.059 43.54h4v4h-4z"/><path transform="matrix(-.7071-.7071.7071-.7071 16.4655 117.8847)" d="m30.648 53.532h4v4h-4z"/><path transform="matrix(.707.7072-.7072.707 38.1369-20.8508)" d="m42.231 33.599h4v4h-4z"/><path transform="matrix(-.7071-.7071.7071-.7071 26.4782 97.1258)" d="m31.355 41.079h4v4h-4z"/></svg>