<svg xmlns="http://www.w3.org/2000/svg" viewBox="0 0 64 64" enable-background="new 0 0 64 64"><path d="m37.188 54.428c-.206-.104-.425-.209-.638-.313.528.765.997 1.653 1.327 2.671.726-.266 1.461-.623 2.184-1.069-.871-.295-1.829-.77-2.873-1.289"/><path d="m33.333 53.336c-.395.217-.846.35-1.333.35-.528 0-1.017-.15-1.433-.401-.971.884-2.061 2.187-2.618 3.939-.005.015-.012.024-.017.038 1.6.245 3.05-.021 4.067-.867 1.004.836 2.431 1.104 4.008.875-.585-1.757-1.7-3.069-2.674-3.934"/><path d="m22.359 54.17c.781 0 2.131-.673 3.561-1.385 1.055-.526 2.194-1.09 3.388-1.544-.004-.052-.018-.102-.018-.155 0-.283.061-.553.148-.809-.501-.292-1.115-.564-1.894-.746-.67-.157-1.684-.344-2.705-.344-2.915 0-3.288 1.428-3.288 2.672.001 2.311.608 2.311.808 2.311"/><path d="m34.692 51.242c1.192.453 2.332 1.017 3.387 1.543 1.43.712 2.778 1.385 3.563 1.385.198 0 .806 0 .806-2.311 0-1.244-.373-2.672-3.288-2.672-1.021 0-2.035.187-2.705.344-.775.182-1.39.455-1.892.75.087.255.147.521.147.805 0 .054-.014.103-.018.156"/><path d="m27.308 54.184c-.164.082-.336.163-.498.244-1.044.52-2 .994-2.873 1.288.705.435 1.422.786 2.131 1.051.01-.03.026-.053.036-.083.299-.945.725-1.772 1.204-2.5"/><path d="m51.905 58.271v-3.36h.477v-3.729h-.477v-.401c1.983-2.793 1.672-6.666 1.672-6.666s-.677-.049-1.672.021v-.954h-2.095v-13.336h-.002c0-3.346-2.277-6.056-5.088-6.056-2.809 0-5.086 2.71-5.087 6.056v6.463c-.296.662-.907 2.558-.95 6.861-.004.001-.007.002-.012.004-.056-5.678-1.105-7.171-1.105-7.171s-.229.326-.479 1.241v-4.68-1.42-10.478-1.421-11.19h-.001c-.001-3.345-2.277-6.055-5.088-6.055-2.81 0-5.088 2.71-5.088 6.056 0 .008.001.015.001.023v11.166 1.421 10.479 1.42 4.674c-.245-.895-.469-1.223-.476-1.232v-.002l-.002-.001v.003c-.015.022-1.051 1.533-1.107 7.168-.003-.002-.007-.003-.011-.004-.043-4.289-.651-6.189-.948-6.858v-3.747-1.42-11.191c-.001-3.345-2.28-6.055-5.089-6.055-2.81 0-5.089 2.71-5.089 6.055v11.189 1.42 10.617h-2.095v.954c-.996-.069-1.673-.021-1.673-.021s-.312 3.875 1.673 6.667v.4h-.477v3.729h.477v3.36h-2.094v3.73h33.413c-.602 0-1.129-.286-1.451-.725-2.022-.08-4.572-.861-5.675-3.354h-8.638c-1.135 2.378-3.628 3.129-5.612 3.211-.322.436-.85.723-1.45.723-.984 0-1.78-.765-1.78-1.708 0-.942.796-1.708 1.78-1.708.65 0 1.214.339 1.524.838 1.028-.057 2.406-.343 3.3-1.355h-12.315v-3.011h7.181c-.433-.694-.654-1.708-.654-3.052 0-2.874 1.901-4.521 5.218-4.521 1.213 0 2.389.215 3.16.396 1.108.258 1.979.663 2.669 1.101.339-.185.725-.29 1.133-.322-.549-.854-1.227-1.695-2.042-2.477-.777-.746-1.609-1.371-2.457-1.885h9.394c-.848.514-1.679 1.139-2.456 1.885-.816.781-1.494 1.623-2.041 2.477.407.031.792.137 1.131.322.688-.438 1.562-.843 2.668-1.101.772-.181 1.948-.396 3.161-.396 3.315 0 5.218 1.647 5.218 4.521 0 1.344-.222 2.357-.654 3.052h7.184v3.011h-12.429c.888 1.132 2.33 1.451 3.404 1.507.309-.503.874-.845 1.528-.845.983 0 1.779.766 1.779 1.709 0 .942-.796 1.707-1.779 1.707h10.588v-3.729h-2.095m-29.697-39.84c.796 2.031.059 4.444-1.647 5.392-1.708.947-3.737.068-4.533-1.963l6.18-3.429m-4.218 27.751c-1.466-1.211-3.361-1.729-4.895-1.94v-.092h5.639c-.424.574-.666 1.268-.744 2.032m5.377-7.097c-.129.915-.228 2.072-.26 3.532-.008-.001-.016-.001-.023-.002-.116-5.184-1.086-6.588-1.102-6.609v-.002l-.002-.001v.003c-.015.021-.991 1.438-1.101 6.664h-.021c-.109-5.227-1.087-6.643-1.103-6.664v-.003l-.002.001v.002c-.015.021-.991 1.438-1.101 6.664h-.021c-.111-5.269-1.103-6.667-1.103-6.667s-.991 1.398-1.102 6.667h-.022c-.109-5.269-1.102-6.667-1.102-6.667s-.044.063-.113.207v-3.646h8.177v6.521zm0-7.94h-8.177v-7.596c.927 1.49 2.41 2.461 4.088 2.461s3.162-.971 4.089-2.461v7.596m11.563-24.614c.793 2.031.057 4.444-1.649 5.392-1.708.947-3.735.068-4.533-1.963l6.182-3.429m1.157 31.955c-.324-1.884-.748-2.483-.748-2.483s-.985 1.386-1.103 6.606h-.023c-.116-5.221-1.1-6.606-1.1-6.606s-.985 1.386-1.103 6.606h-.023c-.116-5.221-1.101-6.606-1.101-6.606s-.985 1.386-1.102 6.606h-.023c-.116-5.221-1.102-6.606-1.102-6.606s-.425.601-.749 2.485v-5.924h8.176v5.922zm0-7.341h-8.176v-10.479h8.176v10.479m0-11.9h-8.176v-7.594c.928 1.489 2.41 2.459 4.087 2.459 1.679 0 3.162-.971 4.089-2.462v7.597m11.564 9.075c.794 2.031.057 4.445-1.649 5.391-1.708.947-3.735.069-4.532-1.961l6.181-3.43m-3.407 7.683c0 0-.998 1.409-1.104 6.724h-.021c-.104-5.314-1.102-6.724-1.102-6.724s-.985 1.387-1.102 6.612c-.008 0-.016.001-.023.002-.032-1.458-.132-2.613-.26-3.527v-5.65c.927 1.49 2.409 2.46 4.087 2.46 1.679 0 3.162-.971 4.089-2.462v2.772c-.069-.144-.112-.207-.112-.207s-.999 1.409-1.104 6.724h-.021c-.104-5.271-1.086-6.699-1.103-6.721v-.002l-.001-.001v.003c-.015.021-.998 1.449-1.102 6.721h-.021c-.102-5.315-1.1-6.724-1.1-6.724m6.662 8.237c-1.534.212-3.432.73-4.897 1.943-.078-.766-.319-1.46-.745-2.033h5.643v.09z"/></svg>