<svg xmlns="http://www.w3.org/2000/svg" viewBox="0 0 64 64" enable-background="new 0 0 64 64"><path d="m59.123 48.933c-7.229 0-13.138-5.549-17.309-11.258 1.038.369 2.11.558 3.216.558.001 0 .001 0 .001 0 3.195 0 5.473-1.581 5.568-1.648l2.36-1.666h-2.878c-4.386 0-8.042-3.171-10.729-6.627.437.089.88.149 1.334.149 0 0 0 0 .001 0 2.223 0 3.817-1.106 3.885-1.154l2.36-1.666h-2.878c-3.25 0-5.905-2.681-7.815-5.541l1.112.593-.464-2.741-.558-3.291 2.364-2.332 1.968-1.941-2.72-.4-3.266-.481-1.462-2.995-1.213-2.492-1.216 2.493-1.46 2.995-3.266.481-2.719.4 1.968 1.941 2.364 2.331-.559 3.291-.465 2.741 1.115-.594c-1.909 2.859-4.565 5.542-7.815 5.542h-2.879l2.362 1.666c.06.042 1.351.929 3.218 1.115-1.842.5-3.21 2.189-3.21 4.21 0 .192.032.376.056.562-1.688 1.066-3.552 1.745-5.574 1.745h-2.878l2.361 1.666c.095.067 2.373 1.648 5.568 1.648 1.105 0 2.179-.188 3.217-.558-4.171 5.709-10.079 11.258-17.309 11.258h-2.879l2.361 1.664c.138.099 3.441 2.391 8.092 2.391 2.098 0 4.119-.471 6.048-1.387.21.186.437.35.68.492-.864 1.918-1.981 4.327-3.241 6.879l-.557 1.151 1.26.166c0 0 .141.019.399.019 1.565 0 6.663-.661 10.67-8.591.298.916.268 10.283.268 10.283h8.042c0 0-.032-9.367.267-10.284 4.008 7.932 9.105 8.592 10.671 8.592.258 0 .398-.019.398-.019l1.271-.167-.567-1.15c-.828-1.678-1.592-3.288-2.267-4.747.796-.392 1.447-1.021 1.879-1.8 1.259.367 2.55.563 3.874.563 4.652 0 7.955-2.292 8.094-2.391l2.358-1.664h-2.877m-18.101-14.492c0 1.658-1.328 3.003-2.969 3.003-1.639 0-2.968-1.345-2.968-3.003 0-1.659 1.329-3.005 2.968-3.005 1.641.001 2.969 1.346 2.969 3.005m-9.022 5.862c1.64 0 2.968 1.345 2.968 3.005 0 1.659-1.328 3.004-2.968 3.004-1.641 0-2.968-1.345-2.968-3.004 0-1.661 1.327-3.005 2.968-3.005m-2.968-14.574c0-1.659 1.327-3.004 2.968-3.004 1.64 0 2.968 1.345 2.968 3.004 0 1.658-1.328 3.003-2.968 3.003-1.641-.001-2.968-1.346-2.968-3.003m-2.779-14.402l3.971-.584 1.776-3.643 1.777 3.643 3.971.584-2.874 2.835.678 4.002-3.552-1.889-3.552 1.889.68-4.002-2.875-2.835m-5.46 21.284c0-1.659 1.33-3.004 2.969-3.004 1.64 0 2.968 1.345 2.968 3.004 0 1.658-1.328 3.003-2.968 3.003-1.639 0-2.969-1.344-2.969-3.003m3.509 15.71c0 1.658-1.33 3.003-2.968 3.003-1.64 0-2.968-1.345-2.968-3.003 0-1.66 1.328-3.005 2.968-3.005 1.638 0 2.968 1.345 2.968 3.005m19.614 4.983c-1.64 0-2.968-1.344-2.968-3.003s1.328-3.003 2.968-3.003c1.641 0 2.969 1.344 2.969 3.003s-1.328 3.003-2.969 3.003"/></svg>