<svg xmlns="http://www.w3.org/2000/svg" viewBox="0 0 64 64" enable-background="new 0 0 64 64"><path d="m38.026 30.765c.669-.069 1.338-.158 2.005-.265v-4.701c-1.024.489-2.092.791-3.154 1.025-2.693.563-5.432.629-8.146.345-1.368-.173-2.685-.399-4.049-.884-.27-.102-.538-.216-.805-.344v4.226c4.682.767 9.443 1.092 14.149.598"/><path d="m56.299 41.987v-17.079-.067c0-1.988-1.366-3.839-3.703-5.407v-7.509c0-.735-.583-1.343-1.342-1.458.557-.236.951-.723.951-1.309 0-.813-1.652-3.437-1.652-3.437s-1.654 2.623-1.654 3.437c0 .578.385 1.061.931 1.301-.802.08-1.431.703-1.431 1.466v5.385c-1.365-.525-2.865-.991-4.49-1.377.075-.188.123-.386.123-.596 0-.983-2-4.154-2-4.154s-1.83 2.904-1.984 4.014c-1.959-.289-4.044-.457-6.195-.525v-7.205c0-.661-.512-1.213-1.188-1.334.461-.215.783-.631.783-1.126-.001-.712-1.448-3.007-1.448-3.007s-1.447 2.295-1.447 3.007c0 .489.314.901.766 1.118-.713.092-1.266.655-1.266 1.342v7.206c-2.103.07-4.142.236-6.06.518-.188-1.135-1.981-3.979-1.981-3.979s-2 3.17-2 4.154c0 .197.045.383.111.56-1.682.397-3.229.881-4.633 1.429v-5.415c0-.734-.584-1.342-1.344-1.457.557-.236.953-.724.953-1.31 0-.813-1.654-3.437-1.654-3.437s-1.654 2.623-1.654 3.437c0 .578.386 1.061.932 1.301-.803.081-1.432.704-1.432 1.466v7.574c-2.267 1.552-3.592 3.374-3.592 5.328v16.878.27c-3.582 2.076-5.699 4.63-5.699 7.393 0 6.969 13.432 12.617 30 12.617s30-5.648 30-12.617c0-2.764-2.118-5.318-5.701-7.396m-6.574-32.044c0-.407.828-1.719.828-1.719s.828 1.312.828 1.719c0 .203-.098.381-.249.512-.046-.004-.091-.013-.138-.013h-.992c-.013 0-.024.003-.037.003-.146-.13-.24-.303-.24-.502m-.327 1.982c0-.262.276-.482.604-.482h.992c.326 0 .602.221.602.482v10.797c0 .123-.057.219-.116.284l-.368.188c-.041.007-.081.011-.117.011h-.992c-.327 0-.604-.222-.604-.483v-10.797zm-7.367 2.284c0 0 1.002 1.585 1.002 2.077 0 .491-.449.89-1.002.89s-1-.398-1-.89c0-.492 1-2.077 1-2.077m-10.754-8.516c0-.355.723-1.502.723-1.502s.725 1.146.725 1.502c0 .167-.078.313-.197.427-.048-.005-.094-.014-.143-.014h-.867c-.018 0-.034.004-.052.005-.114-.111-.189-.255-.189-.418m-.224 1.774c0-.195.213-.36.465-.36h.867c.253 0 .467.165.467.36v9.448c0 .083-.037.148-.078.195l-.305.157c-.027.004-.056.006-.084.006h-.867c-.252 0-.465-.164-.465-.358v-9.448m-9.041 6.769c0 0 1 1.586 1 2.078 0 .49-.447.89-1 .89s-1-.399-1-.89c0-.492 1-2.078 1-2.078m-9.393-4.28c0-.405.826-1.717.826-1.717s.828 1.312.828 1.717c0 .204-.098.383-.25.514-.046-.004-.09-.013-.137-.013h-.992c-.012 0-.023.003-.035.003-.145-.13-.24-.305-.24-.504m-.328 1.982c0-.261.276-.481.604-.481h.992c.327 0 .604.221.604.481v10.798c0 .123-.058.217-.117.282l-.368.189c-.042.007-.081.011-.118.011h-.992c-.327 0-.604-.221-.604-.482v-10.798zm-1.104 11.643c.033-.17.099-.325.158-.483.066.242.196.459.373.638-.078.571.062 1.15.367 1.651.649 1.043 1.76 1.773 2.892 2.353 1.585.789 3.291 1.292 5.035 1.688v-10.179c0-.265.127-.497.313-.688-.288.056-.578.098-.864.162-1.345.306-2.713.711-3.971 1.296v-.529c.015-.007.029-.015.044-.021 1.228-.549 2.509-.952 3.808-1.26 2.603-.598 5.257-.957 7.928-1.046.935-.035 1.872-.03 2.81-.007.097.492.479.886.98 1.041-1.253-.128-2.515-.202-3.778-.213-1.479-.004-2.965.059-4.439.208.589.114 1.035.532 1.035 1.057v1.832c.018-.009.035-.018.053-.026.686-.298 1.365-.47 2.051-.6 1.369-.252 2.74-.307 4.105-.229 1.372.095 2.712.285 4.052.856.33.15.659.333.964.609.289.253.628.744.492 1.306-.145.524-.506.79-.814.994-.317.202-.647.33-1.002.44-1.357.393-2.73.389-4.073.218-.673-.107-1.329-.231-1.969-.54-.297-.162-.649-.359-.753-.777-.057-.461.34-.701.616-.847l.072.131c-.264.16-.526.422-.45.664s.375.41.653.527c.573.229 1.245.312 1.88.36 1.285.069 2.612-.053 3.784-.456.526-.169 1.18-.601 1.206-.9.082-.214-.438-.64-.99-.827-1.125-.414-2.458-.54-3.719-.587-1.276-.029-2.566.069-3.794.34-.609.136-1.213.318-1.734.567-.221.105-.437.236-.63.375v1.517c.372.258.839.472 1.323.642 1.137.389 2.449.607 3.705.741 2.545.269 5.159.183 7.659-.286 1.229-.242 2.446-.587 3.467-1.171v-3.602c-.402-.24-.827-.46-1.276-.648-1.157-.485-2.412-.806-3.689-1.075-1.108-.22-2.231-.39-3.36-.522h.68c.125 0 .249-.015.37-.045l.544-.264.104-.071c.153-.138.268-.301.344-.479.514.063 1.027.125 1.539.213 1.319.231 2.652.521 3.958 1.015.283.106.563.229.841.361.126-.501.638-.887 1.28-.887h1.199c.736 0 1.334.496 1.334 1.106v10.406c3.086-.913 6.008-2.354 8.468-4.521l.104.107c-1.798 1.965-4.084 3.494-6.544 4.568-.665.287-1.342.544-2.027.779v.837c0 .304-.148.581-.389.78l-.6.288c-.109.023-.227.039-.346.039h-1.199c-.653 0-1.172-.397-1.287-.913-.633.127-1.27.236-1.908.324-4.763.653-9.605.425-14.306-.44-.017.282-.15.54-.374.729l-.6.287c-.109.024-.227.04-.346.04h-1.199c-.738 0-1.334-.496-1.334-1.107v-.821c-1.87-.511-3.719-1.16-5.432-2.131-1.165-.685-2.331-1.519-3.032-2.784-.342-.628-.511-1.39-.362-2.11m43.112 23.756c0 3.881-9.536 8.221-22.299 8.221-12.764 0-22.301-4.34-22.301-8.221v-3.974c.984-.053 1.77-.766 1.77-1.645v-3.855c0-1.214 1.119-2.198 2.5-2.198s2.502.984 2.502 2.198v4.756c0 1.412 1.303 2.558 2.908 2.558 1.607 0 2.91-1.146 2.91-2.558v-4.859c0-1.271 1.172-2.3 2.617-2.3 1.447 0 2.619 1.029 2.619 2.3v3.098c0 .707.65 1.279 1.455 1.279.803 0 1.453-.572 1.453-1.279v-2.458c0-.918.848-1.662 1.893-1.662 1.043 0 1.889.744 1.889 1.662v4.22c0 1.412 1.305 2.558 2.91 2.558 1.607 0 2.91-1.146 2.91-2.558v-4.73c0-1.2 1.107-2.174 2.473-2.174s2.473.974 2.473 2.174v3.452c0 .706.65 1.278 1.455 1.278.803 0 1.455-.572 1.455-1.278v-2.417c0-.629.578-1.139 1.293-1.139.717 0 1.297.51 1.297 1.139v3.695c0 1.412 1.301 2.558 2.908 2.558.32 0 .622-.057.91-.141v2.3"/></svg>