<svg xmlns="http://www.w3.org/2000/svg" viewBox="0 0 64 64" enable-background="new 0 0 64 64"><path d="M32,30.774c0,0-1.712-10.722-1.712-11.469s0.768-1.354,1.712-1.354s1.712,0.606,1.712,1.354S32,30.774,32,30.774z"/><path d="M32,33.277c0,0,1.712,10.721,1.712,11.469S32.944,46.1,32,46.1s-1.712-0.605-1.712-1.354S32,33.277,32,33.277z"/><path d="m30.748 32.025c0 0-10.721 1.712-11.468 1.712-.748 0-1.354-.767-1.354-1.712 0-.944.606-1.711 1.354-1.711.747 0 11.468 1.711 11.468 1.711"/><path d="m33.252 32.025c0 0 10.721-1.711 11.469-1.711.747 0 1.354.767 1.354 1.711 0 .945-.606 1.712-1.354 1.712-.748 0-11.469-1.712-11.469-1.712"/><path d="m31.114 31.141c0 0-8.791-6.37-9.318-6.899-.529-.528-.416-1.499.253-2.167.668-.668 1.638-.781 2.167-.253.527.528 6.898 9.319 6.898 9.319"/><path d="m32.886 32.911c0 0 8.791 6.37 9.318 6.899.529.529.416 1.499-.253 2.168-.668.668-1.638.781-2.167.252-.527-.529-6.898-9.319-6.898-9.319"/><path d="m31.114 32.911c0 0-6.371 8.79-6.898 9.319-.529.529-1.499.416-2.167-.252-.669-.669-.782-1.639-.253-2.168.527-.529 9.318-6.899 9.318-6.899"/><path d="m32.886 31.141c0 0 6.371-8.791 6.898-9.319.529-.528 1.499-.415 2.167.253.669.668.782 1.639.253 2.167-.527.529-9.318 6.899-9.318 6.899"/><path d="m31.156 29.938c0 0-8.815-17.252-9.319-18.5s-.203-2.546.673-2.9c.877-.354 1.995.371 2.499 1.619.504 1.246 6.147 19.781 6.147 19.781"/><path d="m32.844 34.115c0 0 8.815 17.251 9.319 18.5.504 1.247.203 2.545-.673 2.898-.877.355-1.995-.369-2.499-1.617s-6.147-19.781-6.147-19.781"/><path d="m29.911 32.87c0 0-17.252 8.815-18.5 9.319-1.248.505-2.546.203-2.9-.674-.354-.875.371-1.995 1.619-2.499 1.247-.504 19.781-6.146 19.781-6.146"/><path d="m34.089 31.182c0 0 17.252-8.815 18.5-9.319 1.248-.505 2.546-.202 2.9.674.354.876-.371 1.995-1.619 2.499-1.247.503-19.781 6.146-19.781 6.146"/><path d="m29.926 31.146c0 0-18.433-5.965-19.671-6.491-1.238-.525-1.943-1.656-1.574-2.527.369-.869 1.674-1.148 2.912-.622 1.238.524 18.333 9.64 18.333 9.64"/><path d="m34.074 32.906c0 0 18.433 5.965 19.671 6.49 1.238.526 1.943 1.658 1.574 2.527-.369.871-1.674 1.15-2.912.623-1.238-.525-18.333-9.64-18.333-9.64"/><path d="m31.12 34.1c0 0-5.965 18.433-6.491 19.672-.526 1.238-1.657 1.943-2.527 1.574-.87-.37-1.148-1.674-.624-2.912.527-1.239 9.642-18.334 9.642-18.334"/><path d="m32.88 29.952c0 0 5.965-18.433 6.491-19.671.526-1.239 1.657-1.943 2.527-1.574s1.149 1.672.624 2.911c-.527 1.239-9.642 18.334-9.642 18.334"/><path d="m32.006 47.068c0 0 1.714 12.484 1.714 13.354s-.766 1.578-1.711 1.578-1.711-.705-1.711-1.576 1.708-13.356 1.708-13.356"/><path d="m31.995 15.955c0 0-1.715-11.668-1.715-12.481s.766-1.474 1.711-1.474 1.711.659 1.711 1.473c0 .814-1.707 12.482-1.707 12.482"/><path d="m42.659 42.65c0 0 10.04 7.616 10.654 8.231.617.616.574 1.656-.094 2.325-.668.668-1.709.711-2.324.096-.616-.614-8.236-10.652-8.236-10.652"/><path d="m20.651 20.658c0 0-9.463-7.038-10.039-7.613-.575-.576-.5-1.584.168-2.252.668-.669 1.677-.744 2.252-.168.576.574 7.619 10.033 7.619 10.033"/><path d="m42.659 21.349c0 0 7.62-10.036 8.236-10.651.615-.616 1.656-.573 2.324.096.668.668.711 1.709.094 2.324-.614.614-10.654 8.231-10.654 8.231"/><path d="m20.651 43.341c0 0-7.043 9.46-7.619 10.034-.575.576-1.584.5-2.252-.168-.668-.669-.743-1.677-.168-2.252.576-.575 10.039-7.614 10.039-7.614"/><path d="m47.068 31.994c0 0 12.484-1.714 13.355-1.714.871-.001 1.577.766 1.577 1.71.001.945-.704 1.712-1.575 1.712-.871.001-13.357-1.708-13.357-1.708"/><path d="m15.956 32.006c0 0-11.67 1.713-12.482 1.714-.815 0-1.474-.767-1.474-1.711 0-.945.659-1.712 1.474-1.712.812 0 12.482 1.709 12.482 1.709"/><circle cx="20.728" cy="5.096" r="1.84"/><circle cx="43.544" cy="5.096" r="1.84"/><circle cx="20.209" cy="59.025" r="1.841"/><circle cx="43.025" cy="59.025" r="1.841"/><circle cx="4.912" cy="43.209" r="1.84"/><circle cx="4.912" cy="20.393" r="1.84"/><circle cx="58.841" cy="43.728" r="1.841"/><circle cx="58.841" cy="20.912" r="1.84"/></svg>