<svg xmlns="http://www.w3.org/2000/svg" viewBox="0 0 64 64" enable-background="new 0 0 64 64"><path d="m38.874 5.013l.511-1.669c.169-.548-.14-1.13-.688-1.298-.547-.168-1.129.139-1.298.688l-5.397 17.63-5.398-17.63c-.168-.549-.75-.855-1.299-.688s-.855.75-.688 1.298l.511 1.669c-6.43 6.668-17.594.675-23.128 9.734 2.044 6.739 4.163 13.455 6.207 20.192 5.269-8.624 15.634-3.929 22.163-9.253l-11.118 36.314h2.173l10.576-34.54 10.576 34.54h2.172l-11.118-36.312c6.531 5.321 16.895.63 22.162 9.252 2.044-6.737 4.163-13.453 6.207-20.192-5.534-9.06-16.698-3.068-23.126-9.735m-18.569 21.867c-3.776.467-7.947.982-11.265 3.938-.668-2.178-1.342-4.354-2.015-6.529-.95-3.071-1.901-6.144-2.837-9.22 2.492-3.403 6.156-3.777 10.356-4.206 3.766-.385 7.922-.813 11.241-3.7l4.751 15.518c-2.499 3.236-6.105 3.689-10.231 4.199m36.67-2.591c-.673 2.176-1.347 4.352-2.015 6.529-3.317-2.956-7.488-3.472-11.265-3.938-4.125-.51-7.731-.963-10.231-4.197l4.751-15.519c3.318 2.887 7.475 3.314 11.24 3.699 4.2.429 7.864.803 10.356 4.206-.935 3.077-1.886 6.149-2.836 9.22"/><path d="m48.614 14.114c-2.406-1.16-5.045.164-5.891 2.956-.848 2.792.416 5.992 2.823 7.147 2.405 1.157 5.043-.166 5.891-2.956.847-2.789-.416-5.991-2.823-7.147"/><path d="m15.387 14.114c-2.406 1.155-3.67 4.357-2.823 7.147.848 2.79 3.484 4.113 5.891 2.956 2.406-1.155 3.671-4.355 2.823-7.147-.847-2.792-3.484-4.116-5.891-2.956"/></svg>