<svg xmlns="http://www.w3.org/2000/svg" viewBox="0 0 64 64" enable-background="new 0 0 64 64"><path d="m24.207 25.814c0-3.122-4.554-3.122-4.554 0 0 1.153 4.554 1.153 4.554 0"/><path d="m9.792 25.814c0 1.152 4.555 1.152 4.555 0 0-3.122-4.555-3.122-4.555 0"/><path d="m19.847 28.929c0 0-1.398.491-2.836.491-1.505 0-2.854-.475-2.854-.475 0 3.093 5.69 3.078 5.69-.016"/><path d="m60.312 58c0-1.521-.161-2.915-.431-4.212 1.488-2.074 2.502-6.729 1.98-11.346-.17-1.491-3.805-7.463-8.093-10.504 1.022-.651 1.883-1.496 2.502-2.529.511-.134.866-.286 1.002-.457 9.889-12.485 2.502-18.34-6.075-19.75.412-1.037.652-2.037.652-2.711 0-5.987-9.699-5.989-9.699 0 0 .674.24 1.674.652 2.711-8.522 1.443-15.979 7.49-6.092 19.75.153.19.556.354 1.132.497.631.963 1.487 1.77 2.503 2.409-4.337 3.014-8.036 9.079-8.207 10.584-.521 4.615.492 9.27 1.981 11.345-.271 1.296-.432 2.691-.432 4.213h-3.377c0-1.521-.161-2.915-.431-4.212 1.488-2.074 2.502-6.729 1.98-11.346-.167-1.471-3.704-7.299-7.914-10.376 2.064-1.169 3.592-2.981 3.903-5.504 1.327-.239 2.152-1.274 2.152-2.772 0-1.398-.916-2.192-2.029-2.479l-.02-3.021c0-1.717-1.697-4.357-4.97-5.895-.381-.858-1.054-1.664-1.934-2.292.701-1.335 1.123-2.743 1.123-3.611 0-5.988-10.342-5.99-10.342 0 0 .868.422 2.276 1.123 3.609-.911.651-1.604 1.491-1.978 2.386-3.014 1.395-4.901 3.682-4.901 5.803l-.021 2.987c-.245.056-.502.14-.751.27-.837.44-1.3 1.237-1.3 2.243 0 1.501.828 2.537 2.156 2.773.328 2.41 1.882 4.222 4.016 5.419-4.262 3.054-7.864 8.976-8.033 10.46-.521 4.615.492 9.27 1.981 11.345-.27 1.296-.432 2.692-.432 4.213h-1.688v4h60v-4h-1.688m-53.221-32.408c0 0-.134.023-.333.023-.59 0-1.758-.205-1.758-1.825 0-1.476 1.406-1.608 1.912-1.608.111 0 .179.007.179.007v-1.584c2.911-.936 6.41-1.401 9.908-1.401 3.499 0 6.997.466 9.91 1.396v1.59c0 0 .027-.001.077-.001.376 0 2.014.087 2.014 1.603 0 1.62-1.168 1.825-1.758 1.825-.199 0-.333-.023-.333-.023 0 4.814-4.786 7.105-9.655 7.105-5.037-.002-10.163-2.455-10.163-7.107m12.935 17.29h-6.051c.515-.133-.009-1.035-.669-2.057.724-2.802 2.744-6.062 3.446-7.143.167.005.334.015.501.015.001 0 .002 0 .003 0 .712 1.098 2.717 4.341 3.437 7.128-.66 1.022-1.182 1.924-.667 2.057m-10.097 15.118h-3v-2.917c.886-.716 1.907-1.477 3-2.176v5.093m-3-9.162v-.152l-.041.118c-.604-.472-1.115-1.105-1.409-1.855-.658-1.678 6.199-5.808 7.653-3.58 1.379 2.113-1.352 2.395-1.352 2.395.124 4.285-2.862 4.592-4.851 3.074m8.715 9.162h-3v-6.585c.996-.453 2.007-.796 3-.969v7.554m5.711 0h-3v-7.554c.993.173 2.004.515 3 .968v6.586m5.716 0h-3v-5.093c1.093.699 2.114 1.46 3 2.175v2.918m1.45-11.052c-.293.75-.805 1.385-1.408 1.856l-.042-.119v.154c-1.988 1.517-4.974 1.209-4.849-3.077 0 0-2.733-.281-1.354-2.395 1.455-2.226 8.312 1.904 7.653 3.581m9.189-21.356c0 0-.125.023-.312.023-.554 0-1.648-.205-1.648-1.825 0-.553.194-.901.451-1.142.111.201.401.287.818.287 2.45 0 9.285-3.002 9.98-3.525.695.524 7.525 3.523 9.976 3.523.401 0 .686-.08.806-.265.266.238.469.582.469 1.121 0 1.62-1.095 1.825-1.648 1.825-.187 0-.312-.023-.312-.023 0 4.814-4.487 7.106-9.052 7.106-4.722.001-9.528-2.453-9.528-7.105m9.528 8.106c.006 0 .013-.001.019-.001.713 1.1 2.717 4.342 3.437 7.128-.66 1.021-1.183 1.924-.667 2.057h-6.051c.515-.133-.009-1.035-.669-2.057.724-2.801 2.743-6.06 3.446-7.142.161.005.323.015.485.015m-7.309 24.302h-3v-2.917c.886-.716 1.907-1.477 3-2.176v5.093m-3-9.162v-.152l-.041.118c-.604-.472-1.115-1.105-1.409-1.855-.658-1.678 6.199-5.808 7.653-3.58 1.379 2.113-1.352 2.395-1.352 2.395.124 4.285-2.862 4.592-4.851 3.074m8.715 9.162h-3v-6.585c.996-.453 2.007-.796 3-.969v7.554m5.711 0h-3v-7.554c.993.173 2.004.515 3 .968v6.586m5.716 0h-3v-5.093c1.093.699 2.114 1.46 3 2.175v2.918m1.45-11.052c-.293.75-.805 1.385-1.408 1.856l-.042-.119v.154c-1.988 1.517-4.974 1.209-4.849-3.077 0 0-2.733-.281-1.354-2.395 1.455-2.226 8.312 1.904 7.653 3.581"/><path d="m53.757 25.815c0-3.123-4.271-3.123-4.271 0 0 1.152 4.271 1.152 4.271 0"/><path d="m40.242 25.815c0 1.151 4.271 1.151 4.271 0 0-3.123-4.271-3.123-4.271 0"/><path d="m49.67 28.929c0 0-1.868-.668-2.2-.49-.141.074-.461.482-.461.482s-.331-.408-.467-.482c-.344-.187-2.208.507-2.208.507 0 3.092 5.336 3.077 5.336-.017"/></svg>