<svg xmlns="http://www.w3.org/2000/svg" viewBox="0 0 64 64" enable-background="new 0 0 64 64"><path d="m52 22.547c0-11.348-8.844-20.547-19.752-20.547-10.91 0-19.752 9.199-19.752 20.547 0 10.767 7.965 23.034 18.101 24.259-.711.179-.649 1.237.204 1.237-.248 0-.494 0-.742 0-1.4 0-1.4 1.912 0 1.912.489 0 .977 0 1.466 0-.102 1.614-.547 3.322-1.835 4.389-2.139 1.768-4.891.717-7.379.643-3.014-.092-5.559 1.193-7.74 3.191-.758.693-1.602 1.709-2.291 2.477-.785.875.252 1.924 1.059.965 1.547-1.844 2.574-3.129 4.635-4.295 2.582-1.461 4.963-.732 7.762-.58 3.207.172 6.104-1.355 7.016-4.65.146-.529.226-1.374.259-2.139.463 0 .928 0 1.39 0 1.4 0 1.4-1.912 0-1.912-.234 0-.469 0-.703 0 .854 0 .916-1.059.203-1.237 10.133-1.226 18.099-13.494 18.099-24.26"/></svg>