<svg xmlns="http://www.w3.org/2000/svg" viewBox="0 0 64 64" enable-background="new 0 0 64 64"><path d="m39.668 47.588c1.553-1.529.715-5.041-1.822-9.098.922-.144 1.784-.364 2.436-.701 2.346-1.211 3.93-3.418 5.129-5.701 1.289-2.449 2.154-5.141 3.836-7.371.284-.377.568-.715.851-1.033 3.629.435 6.526 1.215 6.526 1.215s.746-1.893 1.107-2.813c-1.361-.491-2.806-.892-4.286-1.187.892-.507 1.474-.665 1.474-.665s-.699-1.891-1.049-2.836c-1.682.711-3.047 1.76-4.19 3.016-4.272-.239-8.574.612-11.968 3.244-2.552 1.98-4.276 4.725-5.898 7.471-1.515-1.483-3.062-2.797-4.581-3.927.306-.503.634-.955.987-1.304 2.133-2.1 4.947-3.443 6.793-5.846 3.88-5.046 1.042-12.956-2.15-17.052-.572.551-1.518 1.354-2.23 1.988 3.393 3.475 5.766 9.559 3.107 14.105-1.486 2.541-4.232 4.135-6.152 6.318-.332.379-.629.859-.898 1.389-5.021-3.601-9.629-5.05-11.455-3.252-.185.182-.324.399-.442.634l-.007-.007-.049.143c-.068.155-.13.316-.172.492l-12.565 36.19 36.662-12.818-.01-.01c.394-.127.741-.314 1.016-.584m-30.375 8.744l-3.06-1.426 2.065-5.95 9.471 4.412-8.476 2.964m16.951-5.927l-15.879-7.399 2.065-5.949 11.866 5.956c-7.083-4.61-9.801-11.907-9.801-11.907l.706-2.033c1.255 3.175 4.016 7.129 7.81 10.861 3.826 3.766 7.881 6.494 11.122 7.713l-7.889 2.758m6.099-18.74c1.658-2.377 3.367-4.776 5.743-6.483 2.262-1.626 5.934-1.923 9.415-1.728-1.176 2.054-2.045 4.333-2.825 6.522-.943 2.65-2.207 5.398-4.617 7.023-.65.438-1.561.758-2.534.995-1.337-2.049-3.091-4.215-5.182-6.329"/><path d="m23.033 22c1.002 0-2.002-3-1.5-5.631 1.924-.148 6.322.719 3.762-2.797 2.896.51 4.396-1.652 1.662-3.701.91.064 2.324-1.652 1.309-1.869-3.252-.689-4.525 1.07-2.461 3.607-2.17-.404-3.939.605-2.309 2.871-6.266-.781-2.701 7.52-.463 7.52"/><path d="m44.545 19.334c.939-.424-.654-3.225-1.172-3.941 3.963-.424 3.813-1.605 1.328-4.135 6.756.227.209-3.613 1.127-5.133.795-1.318 3.234.064 3.008-.67-.762-2.455-7.99-.795-3.416 3.789-3.992.078-4.375 1.383-1.4 4.088-5.182.057-.954 6.668.525 6.002"/><path d="m61.697 29.225c-1.582.443-1.826.277-1.615 1.852-3.654-1.682-7.52-4.021-5.174 2.176-4.15-2.471-3.943-.307-4.719 3.254-1.01-.787-2.445-2.861-2.445-2.861l-1.52 1.291c0 0 2.785 3.928 4.16 3.705 1.209-.195 1.867-2.48 1.934-4.494 3.85 1.625 5.693 1.842 3.932-2.91 3.078 1.729 6.852 3.254 5.447-2.013"/><path transform="matrix(.7071.7071-.7071.7071 11.859-.0989)" d="m4.049 12.266h4v4h-4z"/><path transform="matrix(-.7074.7069-.7069-.7074 33.4641 32.54)" d="m7.996 21.197h4.001v4.001h-4.001z"/><path transform="matrix(.7071.7071-.7071.7071 11.9931-9.2976)" d="m15.22 7.828h4v4.001h-4z"/><path transform="matrix(-.7074-.7069.7069-.7074 51.1108 108.4769)" d="m46.01 41.658h4.001v4h-4.001z"/><path transform="matrix(-.7071-.7071.7071-.7071 33.4656 120.5768)" d="m39.705 51.358h4v4h-4z"/><path transform="matrix(-.7074-.7069.7069-.7074 53.0902 133.1713)" d="m52.112 53.596h4.001v4h-4.001z"/><path transform="matrix(-.7071-.7071.7071-.7071 67.0066 113.1691)" d="m54.942 40.707h4v4h-4z"/><path transform="matrix(.7071.7071-.7071.7071 24.3657-33.1677)" d="m50.22 10.828h4v4.001h-4z"/></svg>