<svg xmlns="http://www.w3.org/2000/svg" viewBox="0 0 64 64" enable-background="new 0 0 64 64"><path d="m51.854 45.361c-2.653 0-5.933.328-9.959 1.211-1.594.35-2.999.496-4.233.496-6.223 0-8.104-3.709-8.104-3.709l-.548-.232-2.346 5.531c-7.901 1.016-10.093-4.471-10.093-4.471h.646 1.734v-1.832-1.494c3.271-.255 5.67-.997 5.786-1.034l.571-.179.348-.513c.266-.396 6.514-9.806 3.345-20.149-2.144-6.99-6.968-9.214-10.029-9.914v-1.633h-1.735-.77c.452-.207.77-.674.77-1.22 0-.584-.365-1.077-.871-1.257l-.002-2.962h-.837v2.963c-.506.181-.87.673-.87 1.257 0 .546.317 1.013.771 1.22h-.771-1.737l.001 1.619c-3.08.688-7.933 2.898-10.088 9.928-3.185 10.398 3.768 19.826 4.065 20.223l.33.44.51.169c.105.035 2.251.739 5.25 1.011v1.525 1.832h1.736.881c0 0 2.175 6.236 10.676 5.372l-2.403 5.667.546.229c0 0 5.103 4.369 13.883 4.369 1.531 0 3.176-.133 4.925-.445 2.142-.382 4.052-.538 5.743-.538 7.603 0 10.772 3.159 10.772 3.159l2.253-13.848c0 0-2.412-2.791-10.146-2.791m-36.304-7.805c-1.517-.019-2.956-.094-4.104-.228-1.103-.133-1.652-.273-1.923-.373.271-.097.82-.239 1.923-.373 1.147-.131 2.587-.21 4.104-.228v1.202m5.743.416c.682-.09 1.217-.197 1.594-.313.241-.077.805-.253.805-.703 0-.449-.563-.629-.805-.7-.377-.119-.912-.224-1.594-.317-1.316-.172-3.054-.27-4.904-.278v-24.32h-.839v24.324c-1.698.021-3.282.112-4.504.272-.679.094-1.215.198-1.593.317-.241.071-.805.251-.805.7 0 .45.563.626.805.703.378.116.914.224 1.593.313 1.222.163 2.806.256 4.504.276v4.107h-.825v-3.257c-3.653-.093-6.465-1.027-6.465-1.027s-6.712-8.933-3.775-18.519c2.237-7.3 7.699-8.679 10.173-8.922l-.001-1.356h2.579v1.361c2.504.262 7.895 1.679 10.113 8.917 2.938 9.586-3.106 18.521-3.106 18.521s-3.105.977-7.026 1.038v3.246h-.828v-4.103c1.85-.007 3.588-.106 4.904-.28m-4.904-.412v-1.21c1.664.008 3.257.089 4.503.232 1.104.134 1.656.276 1.925.373-.269.1-.82.24-1.925.373-1.246.145-2.839.225-4.503.232m41.866 21.152c-1.983-.937-5.028-1.871-9.28-1.871-1.926 0-3.977.191-6.095.569-1.539.274-3.078.414-4.573.414-5.583 0-9.558-1.941-11.408-3.081l3.326-7.833c1.547 1.115 3.933 2.158 7.437 2.158 1.453 0 3.021-.183 4.662-.543 3.524-.772 6.73-1.164 9.53-1.164 4.495 0 6.911 1.015 7.98 1.648l-1.579 9.703"/><path d="m33.068 53.097c-1.15.508-1.72 1.459-1.266 2.125.451.667 1.751.794 2.905.288 1.152-.509 1.72-1.462 1.268-2.126-.453-.67-1.753-.796-2.907-.287"/><path d="m48.439 48.243c-1.675.738-2.493 2.13-1.829 3.107.665.977 2.559 1.172 4.233.434 1.675-.736 2.493-2.128 1.828-3.106-.661-.977-2.559-1.172-4.232-.435"/><path d="m38.685 50.166c-.879.387-1.313 1.11-.97 1.617.343.505 1.334.599 2.213.212.882-.389 1.316-1.112.972-1.617-.344-.506-1.335-.601-2.215-.212"/><path d="m43.419 53.836c-1.201.531-1.776 1.546-1.289 2.265.49.721 1.862.875 3.063.348 1.202-.529 1.78-1.545 1.289-2.264-.49-.724-1.862-.877-3.063-.349"/><path d="m53.097 55.05c.469.691 1.597.922 2.52.517.925-.407 1.291-1.297.822-1.988-.471-.69-1.599-.922-2.523-.518-.924.407-1.29 1.295-.819 1.989"/></svg>