<svg xmlns="http://www.w3.org/2000/svg" viewBox="0 0 64 64" enable-background="new 0 0 64 64"><path d="m49.246 12.613c-1.651-1.542-3.493-2.768-5.44-3.686-2.438-8.832-14.197-9.219-17.452-1.16-2.278.374-4.366.761-5.458.968-9.722 1.714-18.896 9.671-18.896 24.923v19.455c0 7.831 9.295 8.887 18.388 8.887h9.128c3.299 0 6.619-.145 9.519-.695 11.747-1.423 17.707-4.708 17.707-9.77v-.219c3.087-.915 5.258-2.44 5.258-4.928v-15.307c0-10.49-5.863-16.624-12.754-18.468m-10.593-5.378c-1.424-.28-2.861-.422-4.284-.422-.772 0-1.847.091-3.062.234 2.096-1.951 5.322-1.887 7.346.188m7.249 45.878c0 4.827-4.9 6.886-16.387 6.886h-9.128c-11.487 0-16.387-2.059-16.387-6.886v-19.455c0-15.995 10.86-23.279 20.951-23.279 5.217 0 10.636 1.953 14.656 6.043v2.238c-.452.068-.832.39-.91.823l-.549 3.154c-.109.624.029 1.239.37 1.645.242.287.57.445.926.445h1.245c.356 0 .687-.158.929-.447.34-.405.478-1.02.368-1.643l-.551-3.154c-.075-.432-.453-.754-.906-.822v-1.239c3.245 3.79 5.373 9.16 5.373 16.236v19.455m-6.224-33.442c.007-.012.044-.039.095-.039h.589c.047 0 .083.024.089.024 0 0 0 0 .001-.001l.551 3.154c.064.371-.028.684-.15.829-.075.09-.139.09-.162.09h-1.245c-.023 0-.085 0-.16-.09-.122-.145-.216-.458-.151-.829l.543-3.138m15.063 31.864c0 3.255-4.073 5.235-8.585 6.43l-.015.007c1.108-1.225 1.761-2.804 1.761-4.858v-19.456c0-14.317-8.085-22.203-17.117-24.534l.019.001c1.438-.187 2.717-.312 3.565-.312 9.812 0 20.372 7.281 20.372 23.267v19.455m2.927-6.715c0 1.08-.338 1.949-.927 2.656v-15.395c0-4.331-.723-8.072-1.973-11.251 1.782 2.657 2.899 6.104 2.899 10.387v13.603z"/><path d="m10.024 35.622h2.134v1h-2.134z"/><path d="m13.003 35.622h2.134v1h-2.134z"/><path d="m15.98 35.622h2.134v1h-2.134z"/><path d="m18.961 35.622h2.133v1h-2.133z"/><path d="m21.938 35.622h2.134v1h-2.134z"/><path d="m24.917 35.622h2.135v1h-2.135z"/><path d="m27.895 35.622h2.134v1h-2.134z"/><path d="m30.874 35.622h2.135v1h-2.135z"/><path d="m33.853 35.622h2.132v1h-2.132z"/><path d="m36.831 35.622h2.133v1h-2.133z"/><path d="m10.024 42.837h2.134v1h-2.134z"/><path d="m13.003 42.837h2.134v1h-2.134z"/><path d="m15.98 42.837h2.134v1h-2.134z"/><path d="m18.961 42.837h2.133v1h-2.133z"/><path d="m21.938 42.837h2.134v1h-2.134z"/><path d="m24.917 42.837h2.135v1h-2.135z"/><path d="m27.895 42.837h2.134v1h-2.134z"/><path d="m36.831 42.837h2.133v1h-2.133z"/><path d="m10.941 28.221c-3.106 0-5.634 2.545-5.634 5.675v16.006c0 3.129 2.527 5.674 5.634 5.674h27.106c3.105 0 5.633-2.545 5.633-5.674v-16.006c0-3.13-2.527-5.675-5.633-5.675h-27.106m30.74 12.859h-6.213c.396-.363.646-.832.646-1.35 0-.519-.249-.988-.646-1.352h6.214v2.702zm-7.234 5.6c.065.37-.028.682-.149.826-.076.091-.14.091-.163.091h-1.244c-.023 0-.086 0-.162-.09-.121-.145-.215-.457-.15-.828l.545-3.139c.007-.012.044-.039.094-.039h.591c.046 0 .082.023.088.023 0 0 0 0 .001 0l.549 3.156m-.933-8.02c.867 0 1.6.49 1.6 1.07 0 .473-.489.88-1.14 1.016v-1.758h-.922v1.758c-.649-.137-1.139-.544-1.139-1.016 0-.58.733-1.07 1.601-1.07m-1.954 2.42h-24.252v-2.701h24.252c-.397.363-.646.833-.646 1.352-.001.517.248.986.646 1.349m6.488 12.496h-27.107c-2.004 0-3.634-1.648-3.634-3.674v-6.065h1.871v-1h-1.87v-.756h25.744v.448c-.242.036-.455.144-.619.308h-1.559v1h1.185l-.465 2.67c-.109.624.029 1.238.37 1.644.241.288.571.446.927.446h1.244c.357 0 .687-.159.93-.448.34-.405.478-1.02.367-1.642l-.466-2.67h1.019v-1h-1.392c-.163-.164-.377-.271-.619-.308v-.448h7.707v.756h-1.871v1h1.871v6.065c0 2.026-1.63 3.674-3.633 3.674m3.633-19.68v1.726h-1.871v1h1.871v.756h-34.373v-.756h1.871v-1h-1.871v-1.726c0-2.026 1.63-3.675 3.634-3.675h27.106c2.003.001 3.633 1.65 3.633 3.675"/></svg>