<svg xmlns="http://www.w3.org/2000/svg" viewBox="0 0 64 64" enable-background="new 0 0 64 64"><path d="M49,25.5V28h-1v-3.5h-2V28h-1v-0.5h-1v-1h1v-2h-1.246V12.75C43.754,6.421,38.92,2,32,2S20.248,6.421,20.248,12.75V24.5H19
		v2h1v1h-1V28h-1v-3.5h-2V28h-1v-2.5h-2v6h2V29h1v9.988c0,10.573,5.916,15.693,13,16.784V57h1v2.073C23.239,59.514,18,62,18,62h28
		c0,0-5.238-2.486-12-2.927V57h1v-1.228c7.086-1.091,13-6.211,13-16.784V29h1v2.5h2v-6H49z M21.748,12.75
		c0-5.532,4.119-9.25,10.252-9.25s10.254,3.718,10.254,9.25V24.5H21.748V12.75z M46,39.178c0,9.063-4.969,13.539-11,14.615V52h-6
		v1.793c-6.031-1.076-11-5.553-11-14.615V29h1v0.5h1v1h-1v2h1.998V38c0,6.221,4.76,11,11.002,11c6.244,0,11.004-4.779,11.004-11
		v-5.5H45v-2h-1v-1h1V29h1V39.178z"/><path d="m23.957 21.501c-.725.056-1.313.585-1.313 1.171-.004.586.6 1.066 1.336 1.071.738.005 1.328-.518 1.318-1.164-.011-.645-.612-1.134-1.341-1.078"/><path d="m29.303 21.254c-.746.02-1.342.589-1.33 1.264.01.674.617 1.223 1.355 1.226.736.001 1.332-.562 1.33-1.257-.004-.696-.615-1.252-1.355-1.233"/><path d="m34.699 21.254c-.744-.019-1.352.537-1.355 1.232-.004.696.596 1.258 1.33 1.257.736-.003 1.346-.552 1.354-1.226.011-.673-.583-1.244-1.329-1.263"/><path d="m40.045 21.501c-.73-.056-1.332.433-1.344 1.078-.008.646.582 1.169 1.32 1.164s1.336-.485 1.336-1.071c-.003-.586-.587-1.115-1.312-1.171"/><path d="m23.92 17.766c.713-.133 1.297-.743 1.285-1.391-.008-.646-.605-1.044-1.309-.853-.701.191-1.252.854-1.252 1.439-.001.587.563.934 1.276.805"/><path d="m29.232 14.617c-.764.063-1.363.692-1.354 1.366.01.676.623 1.166 1.379 1.124.754-.046 1.365-.625 1.361-1.319.001-.693-.628-1.235-1.386-1.171"/><path d="m34.742 17.107c.756.042 1.371-.448 1.379-1.124.01-.674-.59-1.304-1.352-1.366-.758-.064-1.387.478-1.389 1.171-.001.694.61 1.274 1.362 1.319"/><path d="m40.105 15.522c-.705-.191-1.299.207-1.311.853-.01.647.574 1.258 1.287 1.391.713.13 1.277-.218 1.275-.804-.001-.584-.549-1.248-1.251-1.44"/><path d="m26.564 18.151c-.736.083-1.322.688-1.313 1.326s.613 1.111 1.352 1.07c.736-.044 1.332-.618 1.322-1.297s-.624-1.181-1.361-1.099"/><path d="m32 17.863c-.756 0-1.367.582-1.361 1.274.006.693.613 1.245 1.361 1.245s1.357-.552 1.363-1.245c.004-.692-.605-1.274-1.363-1.274"/><path d="m37.438 18.151c-.738-.082-1.352.421-1.363 1.1-.008.679.586 1.253 1.324 1.297.736.041 1.342-.433 1.352-1.07.007-.638-.579-1.244-1.313-1.327"/><path d="m26.461 11.762c-.738.174-1.311.873-1.303 1.512.01.638.604 1.017 1.342.885.738-.134 1.342-.762 1.332-1.441-.008-.68-.635-1.13-1.371-.956"/><path d="m32 13.664c.771-.002 1.395-.532 1.4-1.226.006-.692-.619-1.294-1.4-1.294-.779 0-1.402.602-1.398 1.294.003.694.63 1.224 1.398 1.226"/><path d="m37.539 11.762c-.734-.174-1.361.276-1.371.955-.01.68.598 1.309 1.334 1.441.738.133 1.33-.247 1.34-.885.01-.638-.563-1.337-1.303-1.511"/><path d="m23.859 11.787c.688-.27 1.262-.969 1.252-1.616-.008-.645-.6-.954-1.275-.625-.676.327-1.189 1.122-1.191 1.706-.004.587.527.801 1.214.535"/><path d="m29.188 10.47c.768-.091 1.4-.685 1.396-1.379s-.648-1.221-1.422-1.11c-.779.11-1.387.797-1.377 1.469.012.675.631 1.108 1.403 1.02"/><path d="m34.814 10.47c.768.088 1.391-.345 1.4-1.021.01-.672-.6-1.358-1.375-1.469s-1.418.416-1.42 1.11c-.005.695.626 1.289 1.395 1.38"/><path d="m40.143 11.787c.686.266 1.217.052 1.215-.535-.002-.584-.516-1.379-1.191-1.706-.678-.33-1.268-.02-1.277.625-.011.647.565 1.347 1.253 1.616"/><path d="m26.396 7.77c.738-.226 1.352-.907 1.342-1.586-.008-.678-.643-1.076-1.381-.812-.738.264-1.301 1.06-1.293 1.697.01.639.594.923 1.332.701"/><path d="m32 6.946c.791-.002 1.434-.512 1.438-1.205.005-.693-.637-1.317-1.438-1.317s-1.441.624-1.436 1.317c.004.693.645 1.203 1.436 1.205"/><path d="m37.604 7.77c.74.223 1.322-.062 1.332-.7s-.555-1.434-1.293-1.697c-.738-.265-1.371.134-1.381.812-.01.677.607 1.359 1.342 1.585"/></svg>