<svg xmlns="http://www.w3.org/2000/svg" viewBox="0 0 64 64" enable-background="new 0 0 64 64"><path d="m18.49 34.333v-1.597c.151-.07.319-.146.479-.22l13.031 5.97 30-13.743-30-13.743-30 13.743 13.63 6.243c-.071.197-.122.404-.122.629v1.352l-2.38-1.09v4.62c0 1.368.367 2.596.997 3.7v10.271c0 3.375 5.75 3.375 5.75 0v-5.556c10.852 4.821 30.996 2.024 30.996-8.416v-4.62l-18.871 8.645-13.51-6.188m.385 16.136c0 .357-.232.678-.598.904v-12.677l-.197.134v12.652l-.59.181v-12.602l-.195.035v12.596h-.59v-12.596l-.197-.035v12.603l-.588-.181v-12.653l-.197-.134v12.677c-.365-.227-.598-.547-.598-.904v-11.983c0-1.146.588-2.102 1.383-2.391 0-1.494 0-2.987 0-4.48 0-.305.152-.533.361-.628.414-.19 10.414-4.771 15-6.873.059-.026.113-.039.164-.039.478 0 .634 1.05.098 1.296-.414.19-10.174 4.661-14.641 6.706 0 1.339 0 2.678 0 4.018.796.287 1.385 1.243 1.385 2.391v11.983"/></svg>