<svg xmlns="http://www.w3.org/2000/svg" viewBox="0 0 64 64" enable-background="new 0 0 64 64"><path d="m30.381 14.757c-11.967 0-21.668 9.681-21.668 21.621 0 11.942 9.701 21.622 21.668 21.622 11.966 0 21.666-9.68 21.666-21.622 0-11.94-9.699-21.621-21.666-21.621m1.286 18.828c0 .709-.574 1.284-1.285 1.284s-1.287-.575-1.287-1.284v-14.3c0-.708.576-1.285 1.287-1.285s1.285.576 1.285 1.285v14.3"/><path d="m59.912 25.526c-2.09-5.429-5.762-10.268-10.499-13.738-4.709-3.474-10.489-5.527-16.393-5.761-5.881-.257-11.847 1.308-16.88 4.461-5.012 3.129-9.07 7.78-11.504 13.226-2.434 5.396-3.205 11.557-2.216 17.44.661 4.018 2.194 7.893 4.418 11.331h2.968c-2.12-3.169-3.578-6.778-4.218-10.503-.86-4.94-.328-10.129 1.512-14.709 1.856-4.664 5.048-8.723 9.055-11.597 4.039-2.913 8.917-4.558 13.816-4.692 4.941-.16 9.885 1.241 13.958 3.876 4.145 2.662 7.416 6.594 9.311 11.018 1.957 4.518 2.466 9.543 1.594 14.291-.859 4.643-3.047 8.906-6.32 12.315h9.299c1.747-3.036 3-6.362 3.646-9.815 1.067-5.696.558-11.694-1.547-17.143"/></svg>