<svg xmlns="http://www.w3.org/2000/svg" viewBox="0 0 64 64" enable-background="new 0 0 64 64"><path d="m56.164 22.098l-6.465 6.465c-.288.286-.753.288-1.041 0l-13.22-13.222c-.288-.287-.288-.752 0-1.04l6.465-6.465-5.835-5.836-34.068 34.068 5.833 5.834 6.265-6.262c.287-.288.752-.288 1.041 0l13.221 13.222c.286.287.286.755 0 1.04l-6.262 6.264 5.834 5.834 34.068-34.066-5.836-5.836m-22.082-15.377l1.972-1.971c.263-.262.683-.262.944 0l1.973 1.971c.262.262.262.685 0 .946l-1.973 1.972c-.262.26-.682.26-.944 0l-1.972-1.972c-.26-.262-.26-.685 0-.946m-5.874 5.875l1.972-1.972c.26-.262.686-.262.945 0l1.97 1.972c.263.26.263.685 0 .945l-1.97 1.972c-.26.262-.686.262-.945 0l-1.972-1.972c-.261-.26-.261-.685 0-.945m-5.854 5.854l1.971-1.97c.262-.262.686-.262.947 0l1.97 1.97c.262.262.262.685 0 .947l-1.97 1.97c-.262.262-.686.262-.947 0l-1.971-1.97c-.262-.262-.262-.685 0-.947m-12.717 18.55l-1.971 1.973c-.262.262-.686.26-.947 0l-1.971-1.973c-.261-.26-.261-.684 0-.946l1.971-1.97c.262-.262.686-.262.947 0l1.971 1.97c.26.262.26.686 0 .946m5.875-5.873l-1.971 1.97c-.262.262-.686.262-.947 0l-1.972-1.97c-.26-.262-.26-.686 0-.947l1.972-1.972c.262-.261.686-.261.947 0l1.971 1.972c.261.261.261.685 0 .947m.967-6.803l1.971-1.97c.262-.262.687-.262.947 0l1.971 1.97c.26.262.26.685 0 .947l-1.971 1.97c-.261.262-.686.262-.947 0l-1.971-1.97c-.262-.262-.262-.685 0-.947m1.78 8.197c-.288-.287-.288-.754 0-1.041l13.22-13.223c.287-.287.754-.287 1.041 0l13.222 13.223c.287.287.287.754 0 1.041l-13.222 13.221c-.287.287-.754.287-1.041 0l-13.22-13.221m11.567 24.668l-1.972 1.971c-.262.262-.685.262-.946 0l-1.971-1.971c-.262-.262-.262-.685 0-.946l1.971-1.972c.262-.26.685-.26.946 0l1.972 1.972c.26.262.26.685 0 .946m5.875-5.875l-1.973 1.97c-.26.262-.686.262-.945 0l-1.972-1.97c-.262-.261-.262-.686 0-.945l1.972-1.973c.26-.26.686-.26.945 0l1.973 1.973c.26.26.26.685 0 .945m5.854-5.854l-1.971 1.97c-.262.263-.687.263-.946 0l-1.972-1.97c-.261-.262-.261-.685 0-.946l1.972-1.971c.26-.262.685-.262.946 0l1.971 1.971c.261.261.261.684 0 .946m5.873-5.876l-1.97 1.973c-.262.26-.685.26-.946 0l-1.971-1.973c-.262-.26-.262-.685 0-.946l1.971-1.97c.262-.263.685-.263.946 0l1.97 1.97c.261.261.261.686 0 .946m5.855-5.854l-1.97 1.971c-.262.262-.685.262-.946 0l-1.973-1.971c-.262-.262-.262-.687 0-.947l1.973-1.972c.262-.26.685-.26.946 0l1.97 1.972c.263.261.263.686 0 .947m3.906-3.904c-.262.262-.687.262-.949 0l-1.97-1.972c-.262-.262-.262-.685 0-.944l1.97-1.973c.263-.262.688-.262.949 0l1.971 1.973c.26.26.26.683 0 .944l-1.971 1.972"/></svg>