<svg xmlns="http://www.w3.org/2000/svg" viewBox="0 0 64 64" enable-background="new 0 0 64 64"><path d="m34.684 43.248c-.231-.641-.95-.976-1.59-.744l-.351.128c-.639.233-.973.954-.74 1.592l1.556 4.276c.232.639.95.975 1.588.743l.352-.13c.639-.231.975-.951.741-1.592l-1.556-4.273m.314 4.927l-.073.026c-.119.043-.259-.021-.302-.14l-1.522-4.186c-.044-.119.021-.259.142-.304l.074-.026c.12-.043.26.021.303.142l1.523 4.184c.042.119-.024.26-.145.304"/><path d="m38.19 41.771l-.822.301c-.075.026-.109.102-.084.176l.978 2.683-1.941-2.342c-.043-.059-.146-.082-.22-.056l-.611.222c-.074.027-.108.103-.082.179l1.927 5.294c.025.071.1.109.176.081l.822-.301c.075-.025.108-.102.082-.176l-.874-2.406 1.858 2.06c.042.056.146.081.219.055l.594-.216c.072-.026.107-.103.082-.176l-1.927-5.294c-.026-.077-.103-.11-.177-.084"/><path d="m42.914 45.111l-1.054.385-.453-1.249.915-.333c.073-.027.108-.104.082-.177l-.3-.824c-.026-.075-.104-.11-.177-.082l-.915.333-.385-1.056 1.054-.382c.075-.028.111-.104.082-.18l-.298-.822c-.026-.075-.103-.11-.177-.083l-2.007.73c-.073.026-.109.103-.082.177l1.925 5.295c.027.075.103.108.177.083l2.007-.731c.075-.026.109-.103.081-.177l-.299-.824c-.025-.073-.1-.109-.176-.083"/><path d="m62 41.071l-.869-2.389c-.006.002-.011.005-.018.008-.144.053-.289.076-.433.076-.519 0-1.005-.319-1.193-.836-.239-.659.099-1.386.758-1.628.006-.001.013-.003.019-.006l-.868-2.387c-.006.001-.012.005-.018.007-.143.053-.289.077-.434.077-.519 0-1.006-.32-1.194-.837-.239-.659.101-1.386.759-1.628.007-.001.013-.003.019-.005l-.868-2.389c-.006.002-.013.005-.018.008-.144.052-.29.076-.434.076-.519 0-1.005-.319-1.192-.834-.24-.659.1-1.389.758-1.629.005-.003.013-.004.019-.006l-.868-2.388c-.007.001-.014.004-.02.006-.143.052-.289.077-.434.077-.497 0-.965-.296-1.168-.775-.221.026-.439.039-.659.039-1.396 0-2.731-.533-3.753-1.462-.002-1.209.377-2.412 1.133-3.407-.396-.529-.319-1.28.186-1.718l-1.634-1.946c-.005.003-.008.008-.014.014-.237.198-.526.296-.813.296-.363 0-.723-.154-.974-.454-.45-.538-.382-1.336.156-1.789.005-.003.01-.008.015-.013l-1.632-1.945c-.005.004-.009.009-.014.012-.238.2-.528.298-.815.298-.363 0-.722-.154-.974-.453-.45-.538-.38-1.338.156-1.79.006-.004.011-.007.016-.012l-1.632-1.946c-.006.004-.011.008-.015.013-.238.199-.527.297-.816.297-.361 0-.72-.154-.97-.452-.452-.539-.382-1.339.155-1.79.005-.005.011-.008.016-.011l-1.633-1.948c-.005.004-.011.009-.016.013-.236.199-.526.297-.813.297-.343 0-.682-.138-.931-.406-.796.403-1.662.601-2.525.601-1.602 0-3.19-.682-4.301-2.006l-28.51 23.939c1.993 2.376 1.683 5.92-.692 7.914l10.283 12.264 4.557 12.525c.634-.23 1.281-.34 1.92-.34 2.292 0 4.444 1.416 5.273 3.697l34.974-12.738c-.913-2.51.075-5.252 2.232-6.64-.19-.633.138-1.313.761-1.551m-11.923-13.439l5.345 14.695c.293.81-.125 1.706-.934 2.001l-30.166 10.986c-.808.293-1.703-.125-1.997-.932l-2.313-6.358c1.009.305 1.945.892 2.673 1.761l9.189-7.716 1.316-.48c.543-.198.863-.748.805-1.302l.674-.565.38 1.044c.026.074.103.109.178.083l.886-.324c.075-.027.11-.104.083-.178l-.531-1.46.218-.185.829 1.164c.042.057.099.037.095-.034l-.142-1.785.139-.117.706 1.938c.026.073.104.109.178.083l.886-.324c.076-.025.111-.102.084-.176l-.858-2.357.723-.605.968 2.66c.026.073.103.109.178.083l.821-.301c.075-.027.109-.104.084-.179l-1.11-3.054 1.233-1.037 1.301 3.573c.025.073.112.107.177.083l.822-.299c.074-.028.109-.104.083-.178l-1.443-3.968 8.081-6.785c.149.153.28.329.359.545m-44.926-1.309l26.002-21.834c1.256.898 2.771 1.392 4.35 1.392.807 0 1.611-.133 2.375-.388.343.127.709.193 1.081.193.069 0 .139-.002.208-.007l.003.003c-.23.94-.026 1.976.643 2.771.599.715 1.476 1.124 2.407 1.124.071 0 .141-.002.21-.007l.003.003c-.229.941-.024 1.976.643 2.773.599.713 1.477 1.122 2.409 1.122.069 0 .139-.002.208-.007l.003.003c-.229.94-.024 1.975.642 2.771.599.714 1.478 1.124 2.411 1.124.069 0 .138-.003.207-.007l.024.028c-.091.399-.104.814-.037 1.222-1.192 2.136-1.256 4.687-.208 6.859l-26 21.831c-1.256-.898-2.771-1.393-4.352-1.393-1.12 0-2.221.254-3.221.73l-10.674-12.726c1.575-2.209 1.83-5.13.663-7.58m54.213 15.365c-1.852 1.599-2.782 3.974-2.542 6.373l-31.893 11.618c-1.375-1.997-3.675-3.251-6.169-3.251-.241 0-.479.012-.718.034l-2.8-7.694c.922-.628 1.97-.959 3.025-.98l2.592 7.129c.589 1.617 2.383 2.452 3.998 1.864l30.164-10.987c1.616-.588 2.452-2.382 1.864-3.999l-5.345-14.695c-.143-.393-.366-.726-.631-1.014l.286-.24c-.252-.3-.455-.622-.635-.955.896.41 1.866.666 2.884.692.334.282.725.493 1.15.615v.001c-.089.135-.169.276-.238.425-.354.762-.392 1.617-.104 2.403.347.954 1.133 1.666 2.077 1.942l.002.007c-.536.806-.698 1.848-.345 2.825.35.953 1.135 1.666 2.078 1.942l.002.005c-.536.806-.697 1.848-.343 2.826.349.953 1.133 1.665 2.077 1.942l.013.035c-.219.345-.373.731-.449 1.137"/><path d="m17.281 44.214c1.105 1.318 3.077 1.49 4.395.385l24.59-20.649c1.317-1.107 1.489-3.078.385-4.396l-10.046-11.981c-1.105-1.318-3.076-1.491-4.393-.385l-24.592 20.649c-1.317 1.105-1.489 3.079-.384 4.396l10.045 11.981m-8.658-15.181l24.591-20.65c.657-.552 1.646-.466 2.197.192l10.045 11.979c.553.66.466 1.646-.192 2.199l-24.592 20.65c-.659.552-1.643.466-2.195-.192l-10.046-11.981c-.552-.659-.466-1.644.192-2.197"/><path d="m20.124 30.807c.043.067.119.082.179.03l.688-.574c.06-.052.066-.136.023-.202l-.623-.866.469-.392.742.765c.059.053.142.061.203.01l.685-.575c.063-.051.061-.129.002-.183l-4.816-4.595c-.058-.054-.149-.055-.209-.004l-.996.836c-.06.051-.076.141-.031.206l3.684 5.544m-1.893-4.723l1.858 1.925-.346.291-1.572-2.166.06-.05"/><path d="m22.988 28.402c.051.06.136.068.195.017l1.131-.95c.521-.437.589-1.228.152-1.748l-2.201-2.625c-.438-.521-1.227-.591-1.746-.153l-1.134.949c-.059.051-.065.134-.015.194l3.618 4.316m-1.906-4.557c.098-.082.25-.069.333.03l2.139 2.55c.082.099.067.25-.028.331l-.242.203-2.442-2.912.24-.202"/><path d="m25.779 26.06c.05.06.134.067.194.017l.724-.607c.061-.051.066-.135.017-.194l-1.683-2.006 2.003 1.377c.06.039.105.002.077-.064l-1.009-2.213 1.682 2.007c.05.06.135.067.194.018l.724-.607c.062-.051.067-.135.018-.195l-3.619-4.315c-.051-.06-.133-.068-.194-.018l-.641.538c-.061.051-.068.148-.039.215l1.352 2.824-2.544-1.825c-.058-.041-.157-.049-.216.001l-.641.538c-.061.052-.067.136-.018.195l3.619 4.314"/><path d="m29.398 23.021c.05.061.133.067.194.018l.671-.563c.061-.051.067-.136.017-.196l-3.618-4.315c-.05-.06-.134-.067-.195-.017l-.67.563c-.062.05-.068.136-.018.195l3.619 4.315"/><path d="m27.751 18.192c.052.061.137.066.196.017l.526-.442 2.968 3.538c.051.061.142.063.195.018l.67-.563c.061-.052.066-.135.018-.195l-2.969-3.539.536-.449c.061-.051.067-.133.016-.194l-.563-.671c-.049-.061-.134-.068-.193-.018l-1.945 1.634c-.06.05-.066.136-.018.194l.563.67"/><path d="m26.284 28.518c-.437-.521-1.228-.591-1.747-.155l-.287.242c-.521.437-.589 1.228-.152 1.748l2.924 3.485c.436.522 1.226.591 1.746.155l.286-.242c.521-.437.59-1.229.152-1.748l-2.922-3.485m1.98 4.522l-.061.051c-.097.081-.251.068-.331-.029l-2.861-3.412c-.082-.097-.068-.25.029-.333l.061-.05c.098-.083.252-.07.334.029l2.86 3.41c.08.098.066.251-.031.334"/><path d="m29.268 25.946c-.05-.062-.134-.067-.193-.018l-.67.564c-.062.051-.069.134-.018.195l1.834 2.187-2.624-1.538c-.061-.039-.166-.026-.227.023l-.498.418c-.061.052-.066.133-.016.195l3.619 4.314c.049.06.132.069.192.017l.671-.563c.061-.051.067-.133.017-.193l-1.644-1.962 2.45 1.298c.059.039.166.027.225-.022l.483-.406c.06-.05.067-.133.017-.193l-3.618-4.316"/><path d="m31.6 23.809l-1.636 1.373c-.06.051-.066.134-.017.194l3.618 4.316c.052.06.134.067.195.017l1.634-1.374c.063-.05.069-.134.018-.193l-.563-.673c-.049-.06-.133-.067-.194-.017l-.859.722-.854-1.018.747-.628c.06-.05.066-.132.017-.192l-.563-.672c-.051-.062-.135-.069-.194-.018l-.746.626-.722-.859.859-.721c.062-.053.068-.135.018-.196l-.563-.67c-.051-.061-.135-.068-.195-.017"/></svg>