<svg xmlns="http://www.w3.org/2000/svg" viewBox="0 0 64 64" enable-background="new 0 0 64 64"><path d="m20.727 44.978l5.639 5.476-1.332 7.733 6.969-3.649 6.967 3.649-1.33-7.733 5.637-5.476-7.791-1.129-3.482-7.036-3.486 7.036-7.791 1.129m11.275-2.251l1.738 3.516 3.895.562-2.816 2.735.664 3.865-3.48-1.826-3.482 1.826.664-3.865-2.814-2.735 3.891-.562 1.74-3.516"/><path d="m42 2h-5-10-5-5v17.992h.004l6.099 10.066h-.103l.002 2h6.215c.112 1.07.813 1.959 1.783 2.328v.664c-6.986.514-12.5 6.332-12.5 13.45 0 7.456 6.045 13.5 13.5 13.5 7.457 0 13.5-6.044 13.5-13.499 0-7.118-5.512-12.937-12.5-13.45v-.664c.97-.369 1.671-1.258 1.783-2.328h6.219l-.002-2h-.102l6.096-10.066h.006v-17.993h-5m-20 24.309v-23.309h5v27.059h-2.728l-2.272-3.75m22.5 22.192c0 6.903-5.594 12.499-12.5 12.499-6.904 0-12.5-5.596-12.5-12.499 0-6.904 5.596-12.501 12.5-12.501 6.906 0 12.5 5.597 12.5 12.501m-11.5-15.077v-.104c0-1.553-2-1.553-2 0v.104c-.483-.291-.825-.784-.914-1.365h3.828c-.089.581-.431 1.074-.914 1.365m4-3.365v-27.059h5v23.309l-2.271 3.75h-2.729"/></svg>