<svg xmlns="http://www.w3.org/2000/svg" viewBox="0 0 64 64" enable-background="new 0 0 64 64"><path d="m52 18.719c0-17.588-17.883-16.664-17.883-16.664.031.004.06.009.091.013-.687-.041-1.386-.068-2.106-.068-.004 0-.016 0-.016 0s-.962.001-2.396.104c-1.134-.037-17.69-.275-17.69 16.711 0 7.552 5.762 16.579 12.332 24.424-4.788 4.521-8.453 7.528-8.453 7.528l4.896 11.139c0 0 5.101-4.183 11.178-10.325 6.119 6.195 11.272 10.419 11.272 10.419l4.898-11.137c0 0-3.712-3.041-8.549-7.605 6.61-7.872 12.426-16.949 12.426-24.539m-6.325-3.067c-2.005 6.232-7.784 13.593-13.733 19.962-6.045-6.47-11.909-13.951-13.82-20.232 2.222-2.727 7.498-4.649 13.67-4.649 6.373 0 11.798 2.049 13.883 4.919"/></svg>