<svg xmlns="http://www.w3.org/2000/svg" viewBox="0 0 64 64" enable-background="new 0 0 64 64"><circle cx="42.748" cy="13.407" r=".912"/><circle cx="49.271" cy="10.602" r="1.509"/><circle cx="46.96" cy="18.062" r="1.588"/><circle cx="55.844" cy="12.073" r=".723"/><circle cx="53.799" cy="18.644" r=".566"/><path d="m0 0v64h18.23 1.12 21.036 18.135 5.479v-64h-64m59.886 48.922h-21.054v-4.111h21.054v4.111m-16.495-9.534c0-1.602 1.12-2.935 2.617-3.276-.003-.058-.017-.111-.017-.169 0-1.859 1.507-3.367 3.368-3.367 1.859 0 3.366 1.508 3.366 3.367 0 .031-.009.061-.01.094 1.494.344 2.61 1.676 2.61 3.273 0 .289-.048.565-.116.834 1.499.341 2.62 1.676 2.62 3.277 0 .133-.015.262-.032.39h-16.887c-.012-.103-.023-.205-.023-.312 0-1.602 1.121-2.937 2.62-3.277-.069-.269-.116-.545-.116-.834m5.968-15.388c-5.318 0-9.63-4.311-9.63-9.628 0-5.319 4.312-9.629 9.63-9.629 5.317 0 9.627 4.311 9.627 9.629 0 5.317-4.309 9.628-9.627 9.628m-31.265 38c-.213-3.261-.41-6.993-.588-9.636-.01-.137-.018-.273-.026-.41-.515-3.465-1.272-6.93-2.271-10.293-.512-1.728-1.135-3.402-1.808-5.059-2.308-5.062-5.191-11.383-7.046-15.45-1.636-3.59 1.35-6.669 1.35-6.669-.111 1.042-.138 1.83-.016 2.659.318-.813.609-1.274.609-1.274-.111 1.056-.138 1.851-.01 2.692.326-.849.631-1.332.631-1.332-.105.985-.135 1.745-.034 2.525.317-.81.607-1.268.607-1.268-.104.985-.135 1.744-.033 2.524.315-.809.605-1.268.605-1.268-.096.913-.129 1.63-.053 2.351.307-.768.578-1.199.578-1.199-.089.849-.123 1.531-.065 2.203.302-.756.57-1.181.57-1.181-.109 1.042-.137 1.83-.014 2.66.317-.814.607-1.274.607-1.274-.111 1.056-.137 1.851-.009 2.691.326-.849.63-1.33.63-1.33-.104.985-.135 1.744-.033 2.524.316-.81.606-1.268.606-1.268-.104.985-.134 1.744-.033 2.523.315-.809.606-1.268.606-1.268-.098.912-.129 1.631-.054 2.35.306-.766.578-1.197.578-1.197s-.41 2.921-.246 6.471c.535 1.246 1.05 2.502 1.509 3.778.713 1.972 1.291 3.988 1.796 6.022.009.031.016.063.022.094-.02-.428-.041-.857-.061-1.285-.05-1.131-.072-2.265-.107-3.396-.285-5.74-.671-13.482-.912-18.319-.197-3.941 3.715-5.701 3.715-5.701-.486.929-.803 1.651-.994 2.467.596-.639 1.035-.958 1.035-.958-.494.939-.811 1.667-1.002 2.498.616-.669 1.076-1.005 1.076-1.005-.46.878-.768 1.572-.961 2.334.593-.636 1.03-.954 1.03-.954-.46.877-.769 1.571-.962 2.334.593-.637 1.03-.955 1.03-.955-.426.813-.722 1.467-.917 2.165.567-.6.98-.901.98-.901-.397.757-.682 1.378-.876 2.023.56-.591.966-.887.966-.887-.485.928-.803 1.65-.994 2.467.596-.64 1.035-.959 1.035-.959-.492.94-.81 1.669-1.002 2.498.616-.669 1.078-1.004 1.078-1.004-.462.878-.77 1.572-.963 2.334.593-.636 1.031-.955 1.031-.955-.461.878-.77 1.571-.963 2.333.593-.635 1.031-.953 1.031-.953-.427.813-.723 1.467-.918 2.164.567-.6.98-.9.98-.9s-1.458 2.563-2.616 5.92c.033 1.941.092 3.883.174 5.824.125 2.928.292 5.854.483 8.777.006.094.012.192.018.289.03.215.059.434.086.654.082-1.404.188-2.807.316-4.206.491-5.315 1.329-10.593 2.52-15.795.426-1.862.935-3.7 1.497-5.522-.006.01-.014.02-.019.03 1.387-5.597 3.279-13.242 4.456-17.995.948-3.831 5.202-4.387 5.202-4.387-.734.748-1.247 1.349-1.665 2.075.755-.44 1.269-.62 1.269-.62-.743.757-1.258 1.364-1.68 2.102.782-.462 1.32-.65 1.32-.65-.694.708-1.189 1.283-1.594 1.958.75-.439 1.262-.618 1.262-.618-.693.708-1.189 1.284-1.596 1.958.752-.438 1.264-.618 1.264-.618-.642.654-1.113 1.197-1.502 1.809.715-.411 1.197-.58 1.197-.58-.598.611-1.049 1.122-1.422 1.685.707-.404 1.182-.571 1.182-.571-.734.748-1.244 1.349-1.664 2.075.755-.44 1.27-.62 1.27-.62-.744.757-1.259 1.365-1.681 2.103.782-.463 1.321-.651 1.321-.651-.695.708-1.189 1.282-1.596 1.958.752-.438 1.264-.618 1.264-.618-.695.707-1.189 1.283-1.596 1.958.752-.438 1.263-.617 1.263-.617-.642.654-1.113 1.196-1.503 1.809.717-.412 1.199-.581 1.199-.581s-1.911 1.819-3.876 4.455c-.497 1.443-.976 2.894-1.407 4.357-1.495 5.069-2.498 10.302-3.182 15.539-.168 1.296-.313 2.596-.44 3.895.437-2.147.966-4.276 1.594-6.377.266-.889.567-1.764.881-2.635-.006.007-.013.014-.019.022.018-.042.036-.087.054-.128.901-2.481 1.973-4.898 3.086-7.294 1.493-3.53 2.981-7.048 4.082-9.652 1.538-3.634 5.824-3.518 5.824-3.518-.843.624-1.439 1.137-1.969 1.788.815-.316 1.351-.413 1.351-.413-.853.631-1.456 1.15-1.988 1.813.845-.334 1.406-.437 1.406-.437-.797.59-1.375 1.081-1.883 1.684.811-.315 1.344-.411 1.344-.411-.795.588-1.375 1.08-1.881 1.682.811-.314 1.344-.412 1.344-.412-.738.547-1.288 1.007-1.768 1.551.771-.294 1.273-.384 1.273-.384-.686.508-1.211.944-1.667 1.44.761-.29 1.257-.378 1.257-.378-.844.624-1.443 1.136-1.969 1.788.813-.316 1.35-.413 1.35-.413-.854.632-1.457 1.149-1.988 1.813.844-.336 1.404-.437 1.404-.437-.795.591-1.375 1.081-1.881 1.683.811-.314 1.344-.41 1.344-.41-.798.589-1.375 1.08-1.881 1.683.811-.314 1.344-.411 1.344-.411-.738.545-1.289 1.008-1.768 1.551.771-.293 1.273-.385 1.273-.385s-2.614 1.801-5.216 4.482c-.294.721-.577 1.449-.845 2.186-1.43 3.938-2.408 8.061-3.08 12.191-.492 3.036-.793 7.279-.936 10.978h-1.316zm22.293 0v-11.078h18.135v11.078h-18.135"/><path d="m50.882 54.583c.009-.047.014-.094.014-.144 0-.745 0-1.347-1.536-1.347-1.537 0-1.537.602-1.537 1.347 0 .05.004.097.013.144-1.549.361-1.549 1.367-1.549 2.551 0 1.489 2.114 2.695 3.073 2.695 1.09 0 3.07-1.206 3.07-2.695 0-1.184 0-2.19-1.548-2.551"/><path d="m46.455 42.05c-.025.115-.039.236-.039.361 0 .415.151.794.4 1.088.23-.289.367-.653.367-1.05 0-.144-.018-.284-.052-.416.632-.146 1.126-.646 1.265-1.28-.096-.017-.195-.027-.296-.027-.533 0-1.009.248-1.317.635-.308-.363-.768-.595-1.283-.595-.131 0-.258.016-.38.044.161.634.684 1.125 1.335 1.24"/><path d="m50.319 40.731c.163.635.685 1.125 1.337 1.242-.025.115-.04.234-.04.359 0 .415.151.794.399 1.088.23-.289.367-.652.367-1.049 0-.145-.018-.283-.051-.417.631-.145 1.127-.646 1.264-1.278-.096-.019-.194-.027-.295-.027-.533 0-1.009.248-1.316.634-.309-.364-.77-.596-1.283-.596-.132.001-.259.016-.382.044"/><path d="m49.055 37.938c-.025.115-.039.236-.039.36 0 .415.151.795.4 1.089.23-.289.367-.653.367-1.051 0-.143-.018-.283-.051-.415.631-.146 1.127-.647 1.264-1.28-.096-.017-.194-.027-.295-.027-.534 0-1.009.248-1.318.635-.307-.365-.768-.595-1.282-.595-.132 0-.259.016-.38.042.161.637.683 1.127 1.334 1.242"/></svg>