<svg xmlns="http://www.w3.org/2000/svg" viewBox="0 0 64 64" enable-background="new 0 0 64 64"><path d="m26.89 32.291c-1.036 0-4.113 0-7.592 0 0-13.585 0-27.127 0-27.766 0-3.366-5.215-3.366-5.215 0 0 3.341 0 15.644 0 27.766-3.479 0-6.557 0-7.593 0-2.446 0-4.49 2.318-4.49 5.095 0 2.779 2.043 5.098 4.49 5.098 1.036 0 4.114 0 7.593 0 0 9.2 0 16.527 0 16.992 0 3.365 5.215 3.365 5.215 0 0-2.332 0-9.034 0-16.992 3.479 0 6.556 0 7.592 0 2.449 0 4.491-2.318 4.491-5.098 0-2.778-2.042-5.095-4.491-5.095"/><path d="m49.739 55.861h-12.367c-3.847 0-3.847 6.138 0 6.138h12.367c3.848 0 3.848-6.138 0-6.138"/><path d="m51.614 45.089h-14.242c-3.847 0-3.847 6.139 0 6.139h14.242c3.848 0 3.848-6.139 0-6.139"/><path d="m53.489 34.317h-16.117c-3.847 0-3.847 6.138 0 6.138h16.117c3.848 0 3.848-6.138 0-6.138"/><path d="m55.364 23.545h-17.992c-3.847 0-3.847 6.138 0 6.138h17.992c3.848 0 3.848-6.138 0-6.138m0 4.138h-17.992c-.77 0-.885-.67-.885-1.068 0-.399.115-1.069.885-1.069h17.992c.771 0 .885.67.885 1.069 0 .398-.114 1.068-.885 1.068"/><path d="m57.239 12.774h-19.867c-3.847 0-3.847 6.138 0 6.138h19.867c3.848 0 3.848-6.138 0-6.138m0 4.138h-19.867c-.77 0-.885-.67-.885-1.068 0-.399.115-1.069.885-1.069h19.867c.771 0 .885.67.885 1.069 0 .398-.114 1.068-.885 1.068"/><path d="m59.114 2.001h-21.742c-3.847 0-3.847 6.138 0 6.138h21.742c3.848 0 3.848-6.138 0-6.138m0 4.138h-21.742c-.77 0-.885-.67-.885-1.069 0-.398.115-1.068.885-1.068h21.742c.771 0 .885.67.885 1.068 0 .399-.114 1.069-.885 1.069"/></svg>