<svg xmlns="http://www.w3.org/2000/svg" viewBox="0 0 64 64" enable-background="new 0 0 64 64"><path d="m58.954 22.625h-4.055c3.073-2.015 5.101-5.46 5.101-9.375 0-6.213-5.101-11.25-11.392-11.25-3.963 0-7.451 2.002-9.49 5.036-2.041-3.034-5.528-5.036-9.492-5.036-6.289 0-11.389 5.037-11.389 11.25 0 3.915 2.027 7.36 5.099 9.375h-4.056c-.577 0-1.043.463-1.043 1.033v2.311l-13.202-3.344c-.57 0-1.035.463-1.035 1.033v18.561c0 .57.465 1.031 1.035 1.031l13.202-3.344v2.313c0 .57.466 1.031 1.043 1.031h16.729l-7.331 16.875h-3.898v1.875h6.354l7.035-16.875v15h-2.847v1.875h8.542v-1.875h-2.848v-15l7.19 16.875h6.1v-1.875h-3.797l-7.331-16.875h15.776c.573 0 1.046-.461 1.046-1.031v-18.561c0-.57-.473-1.033-1.046-1.033m-53.056 2.154l1.898.48v15.355l-1.898.48v-16.315m50.306 1.596v11.25h-15.187v-11.25h15.187m-7.596-16.875c2.098 0 3.799 1.679 3.799 3.75s-1.701 3.75-3.799 3.75-3.795-1.679-3.795-3.75 1.698-3.75 3.795-3.75m-9.49 9.964c.842 1.253 1.932 2.329 3.199 3.161h-6.4c1.27-.832 2.358-1.908 3.201-3.161m-9.493-9.964c2.097 0 3.799 1.679 3.799 3.75s-1.702 3.75-3.799 3.75c-2.095 0-3.794-1.679-3.794-3.75s1.699-3.75 3.794-3.75m-7.591 17.813h15.186v3.75h-15.186v-3.75m0 5.625h15.186v3.75h-15.186v-3.75m35.014 8.437h-35.859c-.582 0-1.054-.419-1.054-.938 0-.517.472-.938 1.054-.938h35.858c.581 0 1.054.421 1.054.938.001.519-.472.938-1.053.938"/><path d="m41.966 27.313h13.289v9.375h-13.289z"/></svg>