<svg xmlns="http://www.w3.org/2000/svg" viewBox="0 0 64 64" enable-background="new 0 0 64 64"><path d="m31.293 41.217c-.846.372-1.754.586-2.705.586-4.42 0-8.016-4.397-8.016-9.801 0-5.405 3.596-9.804 8.016-9.804.955 0 1.869.216 2.719.593 2.247 1.25 3.956 3.631 4.626 6.521h5.893c0-.003-.001-.006-.001-.01-.029-.211-.047-.425-.082-.633-.086-.516-.195-1.021-.32-1.52-.002-.01-.004-.021-.006-.03-1.768-7.022-7.24-12.157-13.707-12.157-7.895 0-14.314 7.643-14.314 17.039 0 9.393 6.42 17.035 14.314 17.035 6.467 0 11.938-5.133 13.707-12.152.006-.021.008-.044.014-.065.121-.487.229-.981.313-1.485.037-.214.055-.435.084-.65.006-.04.01-.081.016-.121h-5.885c-.652 2.952-2.379 5.389-4.666 6.654"/><path d="m60.172 33.268c.918.004.918-2.66 0-2.664-.086 0-.213 0-.359 0l2.187-11.336-4.022 2.1-2.845 9.237c-.668 0-1.381 0-2.131 0l2.806-8.104-4.354 2.272-2.688 5.832c-.688 0-1.386 0-2.09 0l2.726-4.939 1.505-.785c-2.651-13.116-12.445-22.881-24.096-22.881-13.682 0-24.811 13.458-24.811 30s11.129 30 24.811 30c11.685 0 21.502-9.821 24.117-22.994l-1.526-.796-2.726-4.939c.705 0 1.402 0 2.09 0l2.689 5.833 4.353 2.271-2.807-8.104c.755 0 1.468 0 2.132 0l2.845 9.237 4.022 2.1-2.188-11.338c.12 0 .241 0 .36-.002m-21.529 17.012c-3.086 2.79-6.9 4.442-11.023 4.442-10.251.001-18.589-10.193-18.589-22.722 0-12.531 8.338-22.725 18.588-22.725 4.123 0 7.936 1.652 11.023 4.442 3.616 3.429 6.172 8.393 7.038 14.068l-.171.089-2.092 2.729c-4.787 0-9.37 0-11.902 0-.391-1.47-1.369-2.516-2.523-2.516-1.496 0-2.709 1.75-2.709 3.913 0 2.159 1.213 3.911 2.709 3.911 1.188 0 2.185-1.11 2.551-2.644 2.672 0 7.199 0 11.875 0l2.092 2.733.186.097c-.849 5.721-3.413 10.731-7.053 14.183m20.371-17.624c-3.109 0-26.896 0-29.117-.001-.879.001-.879-1.437 0-1.437.18 0 .359 0 .537 0 3.109 0 26.898 0 29.117 0 .881.002.881 1.438 0 1.437-.178.001-.358 0-.537.001"/></svg>