<svg xmlns="http://www.w3.org/2000/svg" viewBox="0 0 64 64" enable-background="new 0 0 64 64"><path d="m62 26v-9h-23.649c0 .828-.672 1.5-1.5 1.5s-1.5-.672-1.5-1.5h-33.351v9c2.209 0 4 2.687 4 6s-1.791 6-4 6v9h33.351c0-.828.672-1.5 1.5-1.5s1.5.672 1.5 1.5h23.649v-9c-2.209 0-4-2.687-4-6s1.791-6 4-6m-25.149 15.214c-.828 0-1.5.672-1.5 1.5 0 .549.299 1.025.739 1.286h-28.09v-24h28.09c-.44.262-.739.737-.739 1.286 0 .828.672 1.5 1.5 1.5s1.5-.672 1.5-1.5c0-.549-.299-1.024-.739-1.286h18.388v24h-18.389c.44-.261.739-.737.739-1.286.001-.828-.671-1.5-1.499-1.5m-2.291 4.786h-31.56v-7.134c2.309-.632 4-3.422 4-6.866s-1.691-6.234-4-6.866v-7.134h31.56c.176.4.457.741.803 1h-28.363v13 13h28.362c-.345.259-.627.6-.802 1m22.44-14c0 3.444 1.691 6.234 4 6.866v7.134h-21.858c-.176-.4-.457-.741-.803-1h18.661v-13-13h-18.661c.346-.259.627-.6.803-1h21.858v7.134c-2.309.632-4 3.422-4 6.866"/><circle cx="36.851" cy="25.571" r="1.5"/><circle cx="36.851" cy="29.857" r="1.5"/><circle cx="36.851" cy="34.143" r="1.5"/><circle cx="36.851" cy="38.429" r="1.5"/><path d="m47.876 38.579c-.067-.152-.213-.258-.379-.258h-.426c-.166 0-.309.106-.378.258l-.678-.394-1.625-.938v1.876 1.877l1.625-.938.678-.393c.069.151.212.257.378.257h.426c.166 0 .312-.105.379-.257l.68.393 1.623.938v-1.876-1.876l-1.623.938-.68.393"/><path d="m47.284 34.937c.691.004 1.379-.228 1.853-.621.479-.388.737-.934.676-1.438-.271.431-.65.742-1.09.956s-.938.32-1.438.322c-.5-.001-.997-.107-1.437-.32-.442-.214-.82-.527-1.092-.958-.059.503.199 1.05.677 1.437.474.393 1.163.625 1.851.622"/><path d="m40.237 28.128c.06.037.114.081.165.134-.17.616-.262 1.265-.262 1.936 0 3.974 3.198 7.196 7.144 7.196 3.946 0 7.145-3.223 7.145-7.196 0-.671-.09-1.319-.262-1.936.051-.053.105-.099.165-.134.183-.105.15-.007.15-.264v-.136c0-.107-.012-.128-.067-.156-.1-.052-.203-.1-.309-.138-.078-.027-.163-.053-.256-.075-1.092-2.564-3.621-4.359-6.566-4.359-2.944 0-5.473 1.795-6.565 4.358-.091.023-.179.049-.257.076-.105.038-.208.086-.308.138-.056.028-.067.049-.067.156v.136c0 .257-.03.158.15.264m7.047-4.279c2.403 0 4.491 1.356 5.554 3.348-.848-.077-1.788-.061-2.338-.012-.884.077-1.622.277-2.226.59-.565.285-1.415.285-1.979 0-.604-.313-1.343-.513-2.227-.59-.549-.049-1.489-.065-2.337.012 1.063-1.992 3.151-3.348 5.553-3.348m-6.296 6.206c.22.848.717 1.396 1.462 1.68.802.303 1.698.292 2.493-.027.435-.176.817-.451 1.119-.9.533-.788.372-1.279.647-1.958.238-.588.911-.588 1.151 0 .272.679.114 1.17.646 1.958.304.449.685.725 1.121.9.792.319 1.688.33 2.49.027.746-.284 1.245-.833 1.465-1.681 0 .048.001.095.001.144 0 3.503-2.82 6.347-6.3 6.347-3.479 0-6.3-2.844-6.3-6.347.001-.05.003-.096.005-.143"/><path d="m11.511 25.571h2.681v-.959h-2.681v-1.173h2.922v-.977h-4.05v5.521h4.184v-.992h-3.056z"/><path d="m16.515 23.35l1.039 4.634h1.121l1.046-4.634c0 .104-.001.254-.004.448-.002.193-.003.344-.003.451v3.734h1.075v-5.521h-1.66l-.998 4.342-1.005-4.342h-1.679v5.521h1.075v-3.734c0-.107-.002-.258-.005-.451-.001-.194-.002-.344-.002-.448"/><path d="m24.299 28.137c.789 0 1.393-.215 1.809-.645.558-.526.836-1.286.836-2.276 0-1.012-.278-1.771-.836-2.278-.416-.429-1.02-.644-1.809-.644s-1.392.215-1.809.644c-.561.507-.84 1.267-.84 2.278 0 .99.279 1.75.84 2.276.417.43 1.02.645 1.809.645m-1.094-4.36c.271-.338.637-.507 1.094-.507s.82.17 1.088.508c.269.339.402.817.402 1.438 0 .621-.134 1.101-.402 1.438-.268.338-.631.506-1.088.506s-.822-.168-1.094-.506c-.272-.337-.408-.816-.408-1.438 0-.622.136-1.102.408-1.439"/><path d="m30.632 27.422c.158-.275.237-.646.237-1.116v-3.844h-1.154v3.862c0 .268-.023.456-.073.568-.082.19-.252.285-.507.285-.258 0-.426-.086-.505-.26s-.123-.474-.132-.901v-.128h-1.09v.128c0 .649.119 1.162.359 1.538.238.376.709.563 1.41.563.701.001 1.185-.231 1.455-.695"/><path d="m31.997 22.462h1.146v5.521h-1.146z"/><path d="m19.859 28.602c-.789 0-1.392.215-1.809.644-.561.508-.84 1.267-.84 2.278 0 .991.279 1.75.84 2.276.417.43 1.02.645 1.809.645s1.393-.215 1.81-.645c.557-.526.835-1.285.835-2.276 0-1.012-.278-1.771-.835-2.278-.417-.43-1.021-.644-1.81-.644m1.088 4.359c-.268.338-.63.507-1.088.507-.457 0-.821-.169-1.094-.507-.271-.337-.408-.815-.408-1.438s.137-1.102.408-1.438c.272-.338.637-.506 1.094-.506.458 0 .82.169 1.088.508.27.339.403.816.403 1.437.001.622-.133 1.1-.403 1.437"/><path d="m26.767 32.62l-2.192-3.849h-1.209v5.52h1.075v-3.917l2.247 3.917h1.154v-5.52h-1.075z"/><path d="m30.086 31.88h2.682v-.96h-2.682v-1.173h2.922v-.976h-4.05v5.52h4.185v-.992h-3.057z"/><path d="m21.986 39.536c-.122-.172-.281-.293-.479-.357-.116-.037-.261-.058-.436-.061h-1.214v2.815h1.214c.425 0 .74-.176.943-.525.151-.26.227-.577.227-.951 0-.147-.018-.303-.054-.466-.035-.163-.102-.314-.201-.455m-.433 1.498c-.108.273-.304.41-.581.41h-.544v-1.837h.544c.268 0 .446.077.536.229.09.154.136.374.136.66 0 .209-.031.388-.091.538"/><path d="m23.274 40.704h1.368v-.49h-1.368v-.598h1.49v-.498h-2.065v2.816h2.134v-.506h-1.559z"/><path d="m26.448 39.567c.206 0 .361.062.465.183.06.069.106.171.145.306h.589c-.01-.176-.074-.35-.193-.524-.217-.312-.559-.467-1.028-.467-.35 0-.639.116-.865.348-.26.267-.391.645-.391 1.137 0 .455.114.813.344 1.073.229.26.544.39.944.39.324 0 .59-.097.797-.289.207-.191.336-.441.387-.748h-.585c-.038.145-.087.255-.146.327-.105.135-.26.202-.462.202-.196 0-.358-.079-.486-.236s-.191-.393-.191-.709c0-.315.06-.561.182-.732.119-.175.284-.261.494-.261"/><path d="m29.909 39.275c-.024.083-.06.148-.106.198-.068.072-.157.121-.268.145-.068.016-.188.027-.359.034v.372h.651v1.909h.558v-2.77h-.454c0 .025-.008.063-.022.112"/><path d="m31.18 39.69h1.38c-.136.13-.303.362-.503.693-.311.537-.474 1.053-.489 1.55h.565c0-.159.03-.363.094-.611.063-.248.132-.459.211-.63.097-.22.219-.432.364-.638.146-.205.259-.348.341-.429v-.425h-1.956l-.007.49"/></svg>