<svg xmlns="http://www.w3.org/2000/svg" viewBox="0 0 64 64" enable-background="new 0 0 64 64"><path d="m33.126 44.979c-2.951-2.363-7.736-2.363-10.687 0-2.948 2.364-2.948 6.195 0 8.559 2.95 2.364 7.735 2.364 10.687 0 2.949-2.364 2.949-6.195 0-8.559"/><path d="m21.786 41.57c2.287-2.841 1.513-6.43-1.727-8.014-3.241-1.583-7.72-.564-10.007 2.277-2.284 2.841-1.512 6.43 1.727 8.014 3.242 1.585 7.722.565 10.007-2.277"/><path d="m18.683 28.018c2.189-2.446 1.66-5.713-1.183-7.297-2.842-1.585-6.919-.887-9.109 1.559-2.19 2.446-1.66 5.712 1.182 7.296 2.842 1.585 6.921.887 9.11-1.558"/><path d="m20.7 19.308c2.718 1.582 6.669.98 8.823-1.341 2.155-2.322 1.7-5.485-1.017-7.066-2.717-1.582-6.668-.981-8.822 1.34-2.156 2.322-1.701 5.485 1.016 7.067"/><path d="m43.646 15.271c2.42-1.237 2.689-3.667.6-5.43-2.087-1.763-5.746-2.19-8.167-.954-2.422 1.236-2.69 3.667-.601 5.43 2.089 1.763 5.748 2.19 8.168.954"/><path d="m52.475 33.199c-2.164-.636-4.031-1.186-4.544-2.459-.297-.738-.181-1.822.323-3.221 5.366-5.02 13.394-13.109 13.168-16.396-.09-1.314-2.184-3.196-3.557-3.196l-.108.004c-1.486.102-3.757 2.068-6.183 4.73-.21-.605-.455-1.198-.781-1.761-2.545-4.385-8.14-6.9-15.349-6.9-5.605 0-11.846 1.545-18.045 4.468-7.957 3.752-13.9 11.576-15.14 19.934-.922 6.206.18 15.592 10.658 25.075 4.646 4.207 11.962 6.523 20.597 6.523.002 0 .002 0 .003 0 6.932 0 13.955-1.543 19.271-4.23 5.941-3.005 9.212-7.161 9.212-11.704 0-8.066-5.506-9.685-9.525-10.867m5.39-23.772c.631 0 2.027 1.31 2.06 1.798.191 2.783-9.723 12.647-16.35 18.529l-1.13-.983-.739-.645c4.932-7.358 13.366-18.509 16.159-18.699m-18.599 21.633l1.522-1.745 1.731 1.51-1.519 1.744-1.734-1.509m12.62 22.924c-5.046 2.552-11.74 4.016-18.369 4.016h-.002c-8.14 0-14.978-2.133-19.256-6.006-9.824-8.889-10.873-17.576-10.024-23.299 1.146-7.714 6.648-14.943 14.019-18.418 5.933-2.798 11.878-4.277 17.19-4.277 6.383 0 11.473 2.207 13.618 5.904.462.795.772 1.645.952 2.535-4.478 5.283-9.026 12.053-9.895 13.359l-2.777 3.184c-1.458-.015-2.918.622-3.368 2.161-1.658 5.655-5.351 9.162-5.351 9.162s9.361-1.85 11.152-3.952c.97-1.138 1.44-2.498 1.429-3.738l2.908-3.334c.388-.341.965-.854 1.676-1.496-.004.624.082 1.194.286 1.702.875 2.172 3.284 2.88 5.835 3.63 3.977 1.17 8.09 2.379 8.09 8.949.001 3.75-2.882 7.272-8.113 9.918"/><path d="m54.121 39.807c-2.95-2.363-7.736-2.363-10.686 0s-2.949 6.195 0 8.559 7.735 2.363 10.686 0 2.95-6.196 0-8.559m-1.453 7.394c-2.147 1.721-5.633 1.721-7.779 0-2.147-1.721-2.147-4.51 0-6.23 2.146-1.721 5.632-1.721 7.779 0s2.147 4.509 0 6.23"/></svg>