<svg xmlns="http://www.w3.org/2000/svg" viewBox="0 0 64 64" enable-background="new 0 0 64 64"><path d="m59.352 26.85h-2.117c0-.226-.099-.425-.253-.567-.094-3.357-.85-6.549-2.144-9.45v-4.617c0-1.457-1.188-2.645-2.648-2.645h-2.12c.002-.43-.348-.777-.777-.777-.05 0-.094.02-.142.028-4.476-4.226-10.509-6.822-17.151-6.822-7.155 0-13.604 3.012-18.161 7.83h-1.769c-1.461 0-2.648 1.186-2.648 2.645v3.783c-1.455 3.052-2.303 6.444-2.404 10.025-.152.143-.25.342-.25.566h-2.12c-1.46.001-2.648 1.188-2.648 2.647v5.791c0 1.457 1.188 2.643 2.648 2.643h4.863c1.113 2.284 2.566 4.371 4.29 6.201h-1.989c-1.463 0-2.65 1.186-2.65 2.645v5.791c0 1.459 1.189 2.643 2.65 2.643h3.603l-3.415 6.79h2.594l3.419-6.832c1.265-.198 2.239-1.282 2.239-2.602v-1.546l.835-1.545c1.971.958 4.079 1.679 6.299 2.093-.564.485-.931 1.195-.931 1.997v5.789c0 1.459 1.188 2.646 2.648 2.646h5.793c1.459 0 2.648-1.188 2.648-2.646v-5.789c0-.802-.366-1.511-.932-1.997 2.231-.416 4.352-1.142 6.332-2.108l.543 1.005v1.841c0 1.375 1.062 2.497 2.409 2.62l3.51 7.074h2.594l-3.516-7.051h3.445c1.459.002 2.648-1.188 2.648-2.645v-5.789c.002-1.461-1.189-2.646-2.648-2.646l-1.483.001c1.617-1.766 2.982-3.765 4.041-5.94h4.864c1.463 0 2.648-1.186 2.648-2.643v-5.791c.001-1.459-1.185-2.646-2.647-2.646m-55.793 5.541v-2.895c0-.602.488-1.088 1.09-1.088h2.394c.075 1.36.263 2.689.547 3.982h-4.031zm48.63-21.264c.602 0 1.092.488 1.092 1.09v1.665c-.595-.963-1.251-1.885-1.968-2.755h.876m-1.678 3.983l-5.206.001v-.002l2.942-2.942c.834.914 1.592 1.898 2.264 2.943m-4.115-3.983h.062l-1.153 1.153v-.063c0-.602.49-1.09 1.091-1.09m-13.396-6.102c1.015.046 2.005.181 2.979.358.001.014.009.025.009.04v2.895h-2.988v-3.293m0 8.832h1.896c1.459 0 2.648-1.184 2.648-2.643v-5.486c2.972.771 5.7 2.139 8.044 3.982-1.064.344-1.843 1.331-1.843 2.507v1.623l-6.708 6.708c-1.143-.895-2.525-1.492-4.038-1.68v-5.011zm4.484 13.16c0 1.656-.735 3.139-1.894 4.148l-1.381-2.547c.326-.452.522-1.002.522-1.602 0-1.521-1.232-2.754-2.754-2.754-1.52 0-2.752 1.232-2.752 2.754 0 .626.218 1.197.569 1.659l-1.375 2.538c-1.191-1.01-1.948-2.515-1.948-4.197 0-3.041 2.465-5.506 5.506-5.506s5.507 2.466 5.507 5.507m-3.825 5.242c-.53.17-1.094.264-1.681.264-.561 0-1.101-.085-1.61-.24l1.37-2.538c.081.007.158.024.24.024.108 0 .212-.02.317-.032l1.364 2.522m-5.645-26.835c0-.015.008-.026.009-.04.973-.178 1.962-.313 2.977-.359v3.293h-2.986v-2.894m-1.559.304v5.487c0 1.459 1.188 2.643 2.648 2.643h1.897v5.004c-1.519.181-2.907.776-4.056 1.669l-6.433-6.433v-1.623c0-1.336-1.001-2.431-2.287-2.608 2.386-1.921 5.178-3.346 8.231-4.139m-8.592 5.659c.602 0 1.092.488 1.092 1.088v.065l-1.153-1.153h.061m-2.109.78l3.201 3.202h-5.619c.711-1.14 1.516-2.215 2.418-3.202m-4.774.308c0-.6.49-1.088 1.092-1.088h.409c-.535.669-1.035 1.365-1.501 2.087v-.999m-.033 8.175c.343.161.721.258 1.125.258h5.791c1.461 0 2.648-1.184 2.648-2.643v-1.34l5.014 5.014c-.903 1.146-1.507 2.538-1.694 4.061h-13.806c.083-1.854.409-3.644.922-5.35m.586 11.741h-.848c-.325-1.287-.537-2.616-.624-3.982h.38c.602 0 1.092.486 1.092 1.088v2.894m.89 4.631c.41-.466.667-1.068.667-1.735v-5.791c0-.556-.174-1.07-.468-1.496h11.204c.183 1.527.783 2.923 1.686 4.074l-9.758 9.759c-1.316-1.439-2.434-3.06-3.331-4.811m6.272 12.135l-.279.515-7.695-.002v-2.895c0-.6.49-1.088 1.092-1.088h3.589c1.025.912 2.128 1.739 3.294 2.474v.996zm1.845-3.404c-.252-.155-.508-.306-.753-.47-.336-.488-.835-.848-1.414-1.024-.411-.326-.818-.658-1.205-1.012l9.759-9.759c.061.048.129.084.191.13l-6.578 12.135m1.973 1.08l6.559-12.15c.613.233 1.256.407 1.929.487v13.805c-3.034-.136-5.899-.896-8.488-2.142m13.475 9.628h-7.975v-2.896c0-.6.488-1.088 1.09-1.088h5.793c.602 0 1.092.488 1.092 1.088v2.896m-2.988-7.486v-13.812c.683-.085 1.334-.264 1.954-.506l6.566 12.162c-2.599 1.252-5.475 2.019-8.52 2.156m10.644-3.318c-.049.03-.101.057-.149.087l-6.596-12.167c.051-.038.107-.068.157-.107l9.777 9.777c-.24.22-.498.419-.748.627-1.136.023-2.088.762-2.441 1.783m8.286-.231c.602 0 1.092.488 1.092 1.09v2.895h-7.54l-.437-.806v-.276c1.376-.844 2.664-1.816 3.848-2.902h3.037zm-3.683-3.593l-9.782-9.782c.892-1.147 1.487-2.534 1.668-4.051h11.245c-.294.426-.468.94-.468 1.496v5.791c0 .667.257 1.271.667 1.735-.898 1.751-2.015 3.372-3.33 4.811m5.067-9.442h-.846v-2.895c0-.602.488-1.088 1.09-1.088h.38c-.086 1.366-.298 2.696-.624 3.983m-13.186-6.391c-.188-1.513-.783-2.895-1.678-4.037l5.296-5.295v1.338c0 1.459 1.189 2.645 2.65 2.645h5.793c.289 0 .563-.059.823-.145.54 1.749.877 3.589.962 5.494h-13.846m20.315 6.391h-4.032c.284-1.293.472-2.622.547-3.982h2.394c.602 0 1.092.486 1.092 1.088v2.894z"/></svg>