<svg xmlns="http://www.w3.org/2000/svg" viewBox="0 0 64 64" enable-background="new 0 0 64 64"><path d="m60.131 21.423h-24.472l24.279-2.656 1.878-.206-.224-1.876-1.53-12.849-.183-1.524-1.527-.12-2.22-.173-.244-.019-.24.044-51.923 9.565-1.725.318.207 1.744.404 3.397v2.031 12.595 1.755l.477.029v15.016 1.508l1.473.32 52.982 11.516.746.162.646-.408 2.191-1.383.874-.55v-1.032-35.333-1.871h-1.869m-4.146-17.539l2.22.174 1.37 11.494-1.739-2.536-6.791-8.222 4.94-.91m-13.405 2.47l9.299 11.413-8.489.929-8.431-10.938 7.621-1.404m-14.521 2.675l7.692 10.503-6.908.756-7.046-10.105 6.262-1.154m-11.981 2.206l6.482 9.74-5.731.626-5.988-9.401 5.237-.965m-5.461 15.844l-2.77-3.601.096-.184h3.251 1.469l-2.046 3.785m1.064 3.165c0 .55-.393.973-.874.946-.479-.027-.863-.488-.863-1.029s.385-.965.863-.945c.481.018.874.479.874 1.028m-7.165-12.998l-.453-3.797 1.961-.361 5.554 9.089-1.146.125-2.766.303-.588-1-2.562-4.359m1.958 5.554c0 .525-.359.952-.799.957-.437.002-.787-.414-.787-.931 0-.519.351-.945.787-.957.439-.011.799.406.799.931m-.799 6.213c.439.018.799.457.799.982 0 .525-.359.929-.799.903-.437-.024-.787-.463-.787-.98 0-.518.35-.922.787-.905m54.456 15.454l-1.867.482-43.419-5.381v4.129l43.419 6.875 1.867-.797v1.365l-1.867.814-53.307-8.87v-.948l8.956 1.414v-4.098l-8.956-1.11v-.948l53.307 6.174 1.867-.468v1.367m0-8.235l-1.867.311-53.307-3.89v-.923l9.713.62-1.161-1.51 4.27-7.546h5.096l-5.473 9.183 5.727.369 6.006-9.552h6.882l-6.614 9.957 6.905.445 7.319-10.402h8.458l-8.145 10.895 8.485.547 5.937-7.888 1.769-3.007v12.391"/></svg>