<svg xmlns="http://www.w3.org/2000/svg" viewBox="0 0 64 64" enable-background="new 0 0 64 64"><path d="m41.219 14.918c-1.229-.545-3.592-1.625-5.17-1.625-1.387 0-4.023 1.035-5.254 1.605-1.092.504-1.254.943-1.041 1.629.219.705 1.047 1.102 1.834.924 0 0 3.199-1.512 4.373-1.512 1.195-.004 4.463 1.531 4.463 1.531.787.182 1.617-.223 1.838-.924.211-.687.049-1.142-1.043-1.628"/><path d="m47.104 17.451c0 0 3.199-1.51 4.373-1.512 1.197 0 4.465 1.531 4.465 1.531.787.182 1.617-.223 1.834-.924.215-.688.051-1.143-1.041-1.629-1.225-.545-3.592-1.625-5.166-1.627-1.393.002-4.023 1.037-5.256 1.607-1.094.506-1.256.943-1.043 1.627.22.706 1.046 1.107 1.834.927"/><path d="m26.371 46.23c-4.119 1.498-8.297.398-7.719 1.992.58 1.594 5.703 5.281 9.82 3.783 4.117-1.5 5.672-7.617 5.092-9.211-.582-1.593-3.076 1.938-7.193 3.436"/><path d="m20.801 36.096c-.035-.695-.332-1.057-1.486-1.135-1.293-.092-3.799-.291-5.23.23-1.262.459-3.313 2.271-4.244 3.197-.822.82-.828 1.271-.406 1.824.43.568 1.316.654 1.971.232 0 0 2.408-2.43 3.473-2.82 1.086-.396 4.561-.082 4.561-.082.775-.095 1.398-.735 1.361-1.446"/><path d="m33.414 29.83c-1.295-.092-3.803-.291-5.232.23-1.264.459-3.314 2.271-4.244 3.195-.824.822-.826 1.273-.408 1.828.432.566 1.316.654 1.975.23 0 0 2.402-2.43 3.471-2.818 1.086-.398 4.563-.084 4.563-.084.775-.096 1.395-.736 1.359-1.447-.035-.696-.332-1.056-1.484-1.134"/><path d="m57.381 49.066c-1.33.283-2.27 1.182-3.066 2.018-1.588 1.725-2.768 3.617-4.254 5.09-1.436 1.502-3.109 2.617-5.166 2.848-1.963.275-4.061-.473-5.242-2.393-.557-.936-.9-2.066-.844-3.172.039-1.107.441-2.17 1.113-2.988.018-.021.04-.037.058-.059.563.689 1.324 1.206 2.06 1.48 1.008.408 1.998.545 2.969.695 1.914.24 3.9.42 5.869.047.98-.189 1.941-.553 2.787-1.115.834-.574 1.555-1.32 2.098-2.18 1.109-1.711 1.559-3.791 1.479-5.83-.098-2.045-.637-4.086-1.619-5.934-.488-.92-1.105-1.824-1.846-2.596 4.312-5.653 8.226-12.977 8.225-21.193 0-4.076-.443-7.973-1.254-11.557-4.408 2.908-10.445 4.701-17.109 4.701-6.836 0-13.012-1.889-17.443-4.928-.678 2.924-1.098 6.065-1.243 9.339-.023 0-.046-.007-.069-.007-.676 0-1.287.273-1.731.717-1.216-.778-2.695-1.213-4.229-1.168-1.189.047-2.576.48-3.439 1.668-.432.57-.645 1.281-.686 1.941-.057.668.074 1.297.244 1.875.184.576.436 1.109.723 1.604.295.486.531.879.725 1.35.376.888.553 1.881.403 2.857-.634-.177-1.262-.493-1.819-.9-1.393-.994-2.523-2.344-3.119-3.871-.592-1.52-.719-3.092-.352-4.578.379-1.484 1.215-2.844 2.234-4.057 1.023-1.219 2.275-2.279 3.672-3.121 1.402-.816 2.961-1.477 4.695-1.438l.045-.195c-1.701-.697-3.701-.424-5.408.23-1.738.658-3.305 1.746-4.59 3.123-1.271 1.385-2.225 3.145-2.533 5.08-.164.959-.145 1.957.047 2.908.211.949.611 1.836 1.131 2.609 1.043 1.551 2.432 2.725 3.809 3.807.616.456 1.242.921 1.973 1.282-.248.705-.653 1.357-1.188 1.878-.717.723-1.674 1.164-2.617 1.326-1.963.305-3.645-.789-4.561-2.41-.998-1.664-1.184-3.588-.975-5.574.16-2.004.777-4.041 1.053-6.275.117-1.104.197-2.352-.357-3.51-.266-.572-.725-1.043-1.229-1.345-.5-.314-1.047-.486-1.588-.586l-.065.189c.949.498 1.74 1.217 1.928 2.109.213.881.016 1.867-.238 2.855-.543 1.98-1.326 4.047-1.627 6.328-.127 1.137-.148 2.336.105 3.516.242 1.176.732 2.318 1.398 3.297.664 1.006 1.617 1.908 2.797 2.379 1.172.488 2.494.461 3.617.09 1.961-.656 3.408-2.206 4.104-4.024.842.323 1.899.402 2.823.007 1-.406 1.73-1.146 2.285-1.908.547-.777.98-1.586 1.324-2.42.372-.908.668-1.833.895-2.772.105.014.209.032.318.032.04 0 .078-.01.118-.012.228 2.385.778 4.696 1.55 6.905-2.104 1.38-4.455 2.586-7.03 3.524-3.832 1.394-7.671 2.055-11.233 2.055-2.228 0-4.346-.258-6.287-.759.438 3.599 1.335 7.375 2.714 11.164 5.837 16.035 27.47 22.886 27.47 22.886s4.299-6.775 6.56-15.638c0 .01-.003.018-.004.026-.076 1.01.172 2.131.717 3.215.027.056.069.102.099.155-.063.082-.136.157-.196.241-1.379 1.912-1.791 4.605-.746 7.104.52 1.23 1.459 2.406 2.701 3.109 1.232.719 2.648.955 3.934.869 1.268-.066 2.537-.396 3.656-.965 1.125-.561 2.07-1.375 2.887-2.242 1.607-1.777 2.691-3.834 3.879-5.627.607-.877 1.252-1.705 2.111-2.104.852-.428 2-.213 3.09.289l.104-.184c-.473-.408-1.006-.771-1.623-1.002-.61-.238-1.319-.326-1.971-.18m-35.121-30.789c-.84 1.438-1.783 2.83-2.906 3.59-.504.335-1.124.497-1.816.43.241-1.07.246-2.207.016-3.305-.117-.559-.33-1.146-.508-1.625-.174-.475-.305-.953-.393-1.416-.18-.93-.123-1.785.277-2.383.393-.609 1.217-1.002 2.137-1.145 1.152-.164 2.384-.026 3.575.374-.133.303-.21.635-.21.987 0 .88.468 1.645 1.163 2.077-.445.822-.877 1.633-1.335 2.416m18.916 25.795c.017-.094.039-.188.057-.282 1.345 1.209 2.209 1.878 2.209 1.878s1.298-1.001 3.199-2.787c.249.631.351 1.255.213 1.768-.188.746-.83 1.365-1.705 1.824-.434.23-.91.434-1.418.596-.514.162-1.137.367-1.668.637-.395.198-.761.438-1.111.698-.206-1.318-.048-2.837.224-4.332m.527-2.571c.08-.374.162-.746.24-1.125.262-.091.515-.216.738-.401.281-.233.492-.522.637-.841.861.565 1.623 1.242 2.248 1.997-.836.798-1.566 1.454-2.126 1.938-.47-.407-1.066-.939-1.737-1.568m12.367-3.376c.57 1.723.865 3.502.855 5.221-.006 1.715-.271 3.398-1.004 4.82-.746 1.418-1.963 2.52-3.531 3.219-1.578.701-3.475.855-5.338.533-.922-.146-1.84-.469-2.58-.969-.624-.42-1.033-.956-1.273-1.536.431-.244.896-.434 1.375-.56.518-.145 1.004-.199 1.605-.262.605-.078 1.215-.211 1.811-.434.586-.234 1.182-.537 1.676-1.029.498-.477.912-1.133 1.057-1.891.271-1.308-.164-2.581-.804-3.592 1.679-1.665 3.251-3.284 5.175-5.783.398.732.711 1.497.976 2.263m-22.78 21.426c-4.859-1.853-20.121-8.561-24.692-21.122-.964-2.649-1.695-5.319-2.186-7.969 1.253.169 2.548.254 3.875.254 3.884 0 8.005-.752 11.919-2.176 5.18-1.887 9.723-4.817 13.064-8.391 1.294 2.305 2.42 4.768 3.36 7.352 4.564 12.536-2.814 27.506-5.34 32.052m7.408-32.176c-.063-.188-.116-.376-.184-.562-1.352-3.712-3.049-7.113-4.975-10.108-1.39 1.872-3.183 3.637-5.278 5.223-.721-2.188-1.184-4.474-1.318-6.819.246-.383.393-.835.393-1.323 0-.512-.157-.985-.425-1.379.064-2.466.287-4.885.686-7.227 4.576 2.431 10.162 3.748 16.042 3.748 5.712 0 11.172-1.251 15.684-3.561.449 2.72.677 5.541.677 8.418.002 11.136-8.117 21.056-13.382 26.318-.912-.858-1.968-1.511-3.071-1.912.032-.683-.194-1.4-.686-1.992-.726-.874-1.826-1.226-2.79-.992-.033-.981-.113-1.964-.244-2.946 1.092-.258 2.314-.47 3.614-.47 4.535 0 8.207 2.551 8.207.793 0-1.754-3.674-7.148-8.205-7.148-1.771 0-3.404.831-4.745 1.939"/></svg>