<svg xmlns="http://www.w3.org/2000/svg" viewBox="0 0 64 64" enable-background="new 0 0 64 64"><path d="m57.939 6.061c-4.755-4.755-12.237-5.388-17.413-1.616l-1.253-1.253-1.38 1.379-.929.929-1.164 1.165 1.222 1.221c-2.019 2.671-2.787 6.019-2.361 9.298l-.604 1.267-2.578 3.189-25.31 31.291-.833.833 1.299 1.299-4.635 5.893 1.044 1.044 5.896-4.635 1.298 1.298.832-.832 31.29-25.31 3.188-2.576 1.27-.604c3.278.424 6.625-.343 9.295-2.36l1.223 1.223 1.165-1.165.93-.93 1.379-1.379-1.254-1.254c3.771-5.177 3.137-12.661-1.617-17.415m-46.501 49.46c-.097.097-.251.097-.348 0l-2.612-2.611c-.097-.095-.095-.251 0-.347.096-.096.251-.096.347 0l2.613 2.611c.096.097.095.252 0 .347m2.782-3.237c-.692.691-1.813.691-2.504 0-.235-.234-.384-.521-.459-.82l3.422-.002c-.075.301-.225.588-.459.822m-2.962-1.681c.075-.3.225-.585.458-.82.692-.692 1.813-.692 2.504 0 .234.235.384.521.459.822l-3.421-.002m5.472-2.347c-.271.271-.712.271-.984-.001-.271-.272-.271-.713 0-.983.272-.272.713-.273.985-.001.272.27.272.712-.001.985m8.272-5.78l-3.478-3.479 7.12-7.119 3.479 3.479-7.121 7.119m8.459-10.165c-.979-.001-1.771-.792-1.77-1.771 0-.332.097-.641.257-.906l2.418 2.42c-.264.16-.572.258-.905.257m1.514-.866l-2.419-2.419c.266-.159.572-.256.904-.256.979 0 1.771.792 1.771 1.77 0 .332-.097.64-.256.905m7.456-.243l-9.633-9.632 1.337-1.652 9.947 9.95-1.651 1.334m5.691-3.717l-11.611-11.61c-.085-2.234.479-4.451 1.728-6.323l16.209 16.209c-1.873 1.25-4.091 1.809-6.326 1.724m8.989-1.837l-18.757-18.758.929-.929 18.758 18.758-.93.929m1.038-3.58l-16.216-16.216c4.393-2.98 10.633-2.385 14.617 1.599 3.983 3.983 4.579 10.225 1.599 14.617"/><path d="m56.7 37.766c-.64-3.503-3.933-4.175-3.933-4.175l-6.165 11.389c-.184-1.319-1.221-2.711-2.817-3.576-2.291-1.241-4.868-.918-5.753.718-.886 1.637.253 3.968 2.545 5.21 2.293 1.239 4.868.918 5.753-.719l4.92-9.088c.521-.008 1.297.303 2.363 1.524 2.233 2.56 5.265 2.849 5.265 2.849s-1.623-1.088-2.178-4.132"/><path d="m12.955 28.799c3.805.306 7.065-1.651 7.283-4.369l1.207-15.091c.691-.319 1.915-.363 4.069.645 4.507 2.103 8.74.699 8.74.699s-2.821-.499-5.366-4.247c-2.931-4.319-7.742-3.27-7.742-3.27l-1.514 18.916c-1.027-1.661-3.24-2.913-5.892-3.125-3.804-.304-7.064 1.653-7.281 4.372-.217 2.717 2.689 5.167 6.496 5.47"/><path transform="matrix(-.7071-.7071.7071-.7071 13.586 84.8863)" d="m23.146 39.384h2.454v.492h-2.454z"/><path transform="matrix(-.7069-.7073.7073-.7069 15.1247 84.2361)" d="m23.788 38.739h2.455v.492h-2.455z"/><path transform="matrix(-.7071-.7071.7071-.7071 16.6895 83.5966)" d="m24.43 38.096h2.456v.492h-2.456z"/><path transform="matrix(-.7061.7081-.7081-.7061 71.5712 45.6917)" d="m26.058 36.47h.491v2.456h-.491z"/><path d="m22.6 38.897l2.503 2.502 5.945-5.944-2.503-2.503-5.945 5.945m2.503 2.155l-2.154-2.154 2.625-2.625 2.153 2.154-2.624 2.625"/></svg>