<svg xmlns="http://www.w3.org/2000/svg" viewBox="0 0 64 64" enable-background="new 0 0 64 64"><path d="m61.876 44.196l-4.394-22.105c-.966-5.144-5.386-9.037-10.714-9.087v-.004h-29.431c-5.375-.002-9.853 3.914-10.825 9.093l-4.387 22.103c-.082.39-.13.79-.125 1.205-.005 3.092 2.461 5.599 5.504 5.599 1.962 0 3.683-1.039 4.661-2.607l7.24-9.039c1.158 1.094 2.711 1.763 4.418 1.765 3.578-.002 6.479-2.949 6.479-6.591l3.5-.001c0 3.639 2.904 6.59 6.482 6.59 1.678 0 3.203-.647 4.355-1.704l7.195 8.98c.977 1.564 2.7 2.607 4.657 2.607 3.043 0 5.512-2.507 5.509-5.601.003-.415-.045-.815-.124-1.203m-40.955-23.01c.703-.716 1.506-.507 1.789.465l-.004 3.126c-.279.973-1.082 1.183-1.783.468l-.719-.73c-.703-.716-.703-1.883 0-2.6l.717-.729m-5.117-3.427l3.072-.003c.955.282 1.16 1.102.455 1.817l-.712.728c-.704.716-1.856.716-2.56 0l-.718-.729c-.704-.715-.499-1.534.463-1.813m-2.047 7.483c-.705.718-1.511.508-1.79-.465l.004-3.126c.275-.973 1.081-1.182 1.784-.466l.716.729c.703.717.705 1.885 0 2.6l-.714.728m5.119 3.429l-3.076.003c-.958-.286-1.163-1.101-.458-1.817l.718-.729c.703-.715 1.853-.715 2.559-.001l.715.73c.702.716.495 1.531-.458 1.814m4.942 10.268c-2.396.002-4.343-1.973-4.343-4.413 0-2.438 1.947-4.416 4.348-4.416 2.395.003 4.339 1.978 4.339 4.415.003 2.442-1.944 4.418-4.344 4.414m20.263-19.406c.996.002 1.805.825 1.805 1.839.002 1.019-.807 1.844-1.809 1.839-1 .003-1.809-.82-1.809-1.837.001-1.016.809-1.839 1.813-1.841m-3.797 19.408c-2.396 0-4.34-1.977-4.342-4.415.002-2.438 1.945-4.416 4.342-4.416 2.401.002 4.346 1.978 4.344 4.416 0 2.438-1.942 4.413-4.344 4.415m3.963-10.208c-1 0-1.81-.826-1.81-1.841-.001-1.017.81-1.841 1.81-1.841s1.808.824 1.811 1.841c0 1.016-.813 1.841-1.811 1.841m5.045-11.037c.999-.001 1.809.822 1.811 1.839-.002 1.014-.812 1.839-1.811 1.839-1 0-1.809-.825-1.809-1.839-.002-1.018.805-1.843 1.809-1.839m.168 9.197c-.998.001-1.808-.822-1.805-1.838-.003-1.017.807-1.842 1.807-1.839.998-.002 1.81.82 1.81 1.836-.001 1.018-.812 1.842-1.812 1.841"/></svg>