<svg xmlns="http://www.w3.org/2000/svg" viewBox="0 0 64 64" enable-background="new 0 0 64 64"><path d="m32 5c-16.569 0-30 13.469-30 30.086 0 8.547 3.562 16.256 9.267 21.734 0 0 4.067 1.049 5.429.415 1.532 1.132 3.01 1.765 4.3 1.765 0 0 0 0 .001 0 .606 0 1.157-.138 1.64-.408.914-.515 1.689-1.013 1.923-1.91.042-.162.062-.324.065-.491.427-.073.898-.3 1.49-.633 3.072-1.729 4.257-3.304-2.375-15.165-6.632-11.859-8.59-11.666-11.664-9.938-.589.331-1.015.62-1.3.945-.316-.193-.652-.285-1.043-.285-.624 0-1.224.269-2.051.733-1.13.635-1.789 1.947-1.953 3.77-.011-.177-.025-.353-.025-.532 0-7.046 2.761-13.442 7.25-18.173.657.363 1.362.637 1.905.534 3.468-.656 7.998-5.639 17.141-5.639 9.145 0 13.673 4.982 17.141 5.639.544.103 1.25-.17 1.906-.534 4.49 4.731 7.251 11.127 7.251 18.173 0 .182-.015.357-.025.535-.163-1.823-.823-3.137-1.953-3.772-.827-.465-1.427-.733-2.052-.733-.391 0-.727.092-1.043.285-.285-.325-.711-.614-1.301-.945-3.074-1.729-5.032-1.922-11.664 9.938-6.632 11.861-5.447 13.436-2.373 15.165.591.332 1.063.559 1.488.633.004.167.024.329.066.491.233.897 1.008 1.396 1.922 1.91.483.269 1.033.407 1.641.407 1.291 0 2.77-.633 4.302-1.764 1.362.633 5.428-.416 5.428-.416 5.706-5.478 9.266-13.187 9.266-21.734 0-16.617-13.431-30.086-30-30.086m-23.4 28.488c.264-.147.878-.493 1.134-.493.39 0 1.345 1.869 2.452 4.033.93 1.82 2.204 4.313 4.039 7.593 1.832 3.277 3.288 5.666 4.352 7.41 1.274 2.093 2.281 3.745 2.169 4.176-.034.129-.379.381-1.025.744-.199.111-.441.168-.723.168h-.001c-.937 0-2.202-.584-3.612-1.713.392-4.836-5.042-8.532-8.632-13.021-.572-1.6-.953-3.121-1.113-4.49-.262-2.238.107-3.926.96-4.407m47.762 4.407c-.16 1.369-.542 2.893-1.113 4.492-3.591 4.488-9.023 8.186-8.633 13.02-1.41 1.129-2.676 1.713-3.612 1.713-.282 0-.524-.057-.724-.168-.646-.363-.991-.614-1.025-.744-.111-.43.895-2.08 2.168-4.171 1.064-1.745 2.521-4.136 4.354-7.415 1.833-3.277 3.106-5.77 4.036-7.588 1.107-2.167 2.063-4.038 2.454-4.038.257 0 .871.346 1.134.493.854.48 1.222 2.167.961 4.406"/></svg>