<svg xmlns="http://www.w3.org/2000/svg" viewBox="0 0 64 64" enable-background="new 0 0 64 64"><path d="m62 35.966c-14.094 0-25.912-12.332-29.188-22.409v-4.399c2.887-3.125 5.77 1.088 8.65-2.037-2.881 1.767-5.764-3.806-8.65-2.04v-.561c.433-.242.723-.667.723-1.154 0-.755-.687-1.366-1.535-1.366-.85 0-1.537.611-1.537 1.365 0 .5.305.932.756 1.17v8.926c-3.232 10.095-15.082 22.505-29.219 22.505 0 2.078 2.131 3.796 4.914 4.112l-4.914 21.922h8.174l3.393-25.265c.065-.25.104-.507.104-.77 10.008 0 16.345-17.398 17.933-22.304h.365c-.342 15.512-6.649 22.304-6.649 22.304h-11.65c0 2.303 2.613 4.17 5.836 4.17s5.834-1.867 5.834-4.17l-.992 14.775c-5.01 6.039-7.098 6.322-7.098 6.322 1.672 4.938 4.121 4.938 4.121 4.938 5.369 0 10.605-21.864 10.605-21.866-.019.028-.035.054-.054.083l.063-.132.047.095c.234.966 5.348 21.82 10.595 21.82 0 0 2.449 0 4.121-4.938 0 0-2.087-.283-7.097-6.32l-.991-14.776c0 2.303 2.609 4.17 5.832 4.17s5.836-1.867 5.836-4.17h-11.648c0 0-6.306-6.792-6.647-22.304h.365c1.588 4.905 7.923 22.304 17.931 22.304 0 .263.038.52.104.77l3.393 25.264h8.174l-4.916-21.922c2.785-.316 4.916-2.034 4.916-4.112"/></svg>