<svg xmlns="http://www.w3.org/2000/svg" viewBox="0 0 64 64" enable-background="new 0 0 64 64"><path d="m60.352 51.271c-.243-.232-1.311-1.457-1.476-5.144-.246-5.458-2.141-6.42-4.592-7.111-.406-.115-.792-.225-1.176-.386-1.139-.477-2.395-2.309-3.086-3.556.395-1.518.941-4.704-.334-7.642 1.706-.049 3.842-.301 6.481-2.419 6.822-5.471.867-12.89.867-12.89-.386 4.101-4.71 3.773-9.02 7.229-1.331 1.067-2.276 2.315-2.97 3.578-.969-.422-2.049-.742-3.26-.94-.938-.154-1.865-.233-2.752-.233-3.044-.001-5.27.91-7.058 1.641-.728.298-1.367.548-1.979.721v-22.119h-4v19.868c-1.052-2.404-4.033-2.508-4.033-2.508.023-1.513 4.028-1.218 1.737-2.646-3.815-2.379-7.631-1.585-7.631-1.585.563-1.077 6.098-3.246.264-3.005-3.804.158-5.74 1.124-6.666 2.228-2.728.049-4.285 1.208-4.456 1.343l-1.982 1.576 2.019 1.528.55.417c-.064.265-.075.541-.022.806-.675 3.158-1.597 6.003-2.171 6.557-1.348 1.056-1.899 2.585-1.454 4.074.583 1.95 2.695 3.19 4.4 3.263l.038.002h.037c.385 0 .688-.1.957-.272.138.113.273.194.383.25.345.171.704.258 1.072.258 1.568 0 2.613-1.461 2.928-3.132.066-.054.136-.113.208-.176.389 2.073 1.188 4.347 2.767 6.213-.118.226-.234.405-.323.491-6.806 3.41-7.671 4.196-7.622 9.941.002.367.006.763.006 1.19 0 4.87-1.122 6.791-1.133 6.81l-.915 1.364 1.183 1.107c.491.485 1.8 1.301 5.05 1.301h1.368l.402-1.364c.019-.061.169-.585.351-1.436.602.397 1.753.848 3.919.848h1.369l.403-1.365c.044-.148 1.068-3.679.802-7.828-.037-.573.05-.981.259-1.215.577-.643 2.277-.643 2.917-.643 1.007 0 1.871-.282 2.613-.699 0 0 .178-.073.409-.148v16.587h4v-12.437c.282.024.572.039.868.039 1.928 0 4.186-.492 4.758-1.866.236-.584.072-1.238-.504-1.95-.336-.421-.834-.894-1.483-1.403-.3-.235-.601-.453-.884-.648.816-.192 1.653-.442 2.511-.747 1.552 2.047 3.946 4.308 6.964 4.308.719 0 2.012 0 2.455.118.133.325.299 1.171.447 1.925l.031.165c.779 3.982 2.904 6.909 2.994 7.031l1.848 2.515 1.299-2.863 1.574-3.471.134-.295c1.159 3.533 2.907 5.937 2.997 6.059l1.846 2.51 1.299-2.859 1.967-4.331.879-1.94-1.648-.589m-23.853-27.333c.773-.152 1.61-.246 2.537-.246.758 0 1.576.063 2.465.208 7.075 1.158 7.438 6.271 7.021 9.232h-12.023v-9.194m-10.499-1.276v.969c-.431-.271-1.124-.718-1.434-.949.24-.083.927-.048 1.434-.02m-.91 7.288l.431-.161v3.344h-8.949l6.323-2.361c.62-.014 1.379-.212 2.195-.822m-16.157-13.618c.137.442 2.007.711 3.372.849l-.253 3.225c-.271.038-.516.155-.706.334l-1.277-.13c.987-.465 1.796-1.052 1.935-1.387.3-.736-1.815.708-4.036-.754l-1.63-1.234c-.001-.001.893-.701 2.595-.903m-2.306 15.65c0 0-.001 0 0 0-1.756-.073-4.065-2.171-1.89-3.875 1.113-.873 2.074-4.301 2.653-6.821.23.011.473-.003.728-.044l2.84.295c-.005.043-.013.085-.013.13 0 .388.176.73.449.965l-2.91 7.131.02.008c-.627.516-1.751 2.211-1.877 2.211m3.586-2.027c0 1.075-.519 2.264-1.175 2.264-.087 0-.178-.022-.269-.068-.228-.114.639-1.356.447-2.087l.037.015 2.894-7.093 1.174 3.384c-1.154 2.365-3.108 3.585-3.108 3.585m3.907 1.111c-.434-1.906-.458-3.7-.412-4.793l.409-.141-1.18-3.404c.342-.229.566-.619.566-1.062 0-.468-.254-.874-.63-1.095l.26-3.317c1.8 7.756 7.059 4.975 7.059 4.975-2.103 3.719.336 5.45.548 5.03.716-1.426 1.095-1.155 1.247-.351.053.283-.063.772-.208 1.296l-7.659 2.862m3.833 17.182c.135 2.096-.093 4.022-.328 5.346-.694.011-1.645-.078-2.796-.423.274-1.009.535-2.534.535-4.711 0-1.112-.028-1.96.009-2.649 1.009-.358 2.329-.364 3.002-.364.175 0 .337-.019.505-.028-.619.578-1.015 1.464-.927 2.829m5.025-3.922c-.158 0-.336.002-.521.006.607-.354 1.119-.751 1.526-1.122.309.15.669.299 1.071.437-.579.398-1.271.679-2.076.679m.693-3.581c0 0-1.82 2.769-5.296 2.769-2.17 0-6.589.104-6.281 4.904.166 2.567-.105 4.932-.393 6.582-.798.047-1.991-.024-3.495-.5.335-1.26.65-3.146.65-5.819 0-5.729-.594-5.805 6.618-9.417 1.021-.51 1.665-2.653 1.665-2.653-.242-.216-.461-.447-.67-.684h9.066c.134 2.623 2.108 4.759 4.665 5.137v1.153c-.489.049-.961.082-1.391.082-3.583 0-5.138-1.554-5.138-1.554m10.432 6.422c-.095.126-.361.33-.939.51-.634.201-1.449.312-2.295.312-.301 0-.59-.02-.868-.047v-2.732c.389-.283.753-.525 1.017-.698.346.226.874.572 1.4.971 1.349 1.017 1.628 1.54 1.685 1.684m8.126-1.806c-2.068 0-3.859-1.561-5.125-3.102.525-.229 1.057-.471 1.596-.738.318.312.664.627 1.043.937.934.979 2.174 2.073 3.656 2.914-.349-.008-.732-.011-1.17-.011m6.038 7.612c-.491-1.044-.996-2.368-1.287-3.858-.24-1.219-.396-2.037-.656-2.593.612.137 1.246.221 1.904.221.311 0 .678 0 1.055.005.114 1.903.51 3.134.916 3.91-.38.727-1.005 1.664-1.932 2.315m3.859-2.782c-.197-.22-.804-1.098-.976-3.338.222.032.395.075.477.132.198.232.454 1.541.679 2.693l.04.208c.026.134.059.265.087.399l-.307-.094m3.627 4.084c-.607-1.298-1.23-2.935-1.592-4.775-.877-4.493-.836-4.692-5.934-4.692-5.096 0-8.867-5.791-8.867-5.791-2.978 1.641-5.472 2.525-7.541 2.95v-.903c2.556-.376 4.531-2.513 4.666-5.137h11.875c.656 1.205 2.208 3.725 4.057 4.497 2.452 1.029 4.355.204 4.607 5.795.113 2.529.621 4.146 1.142 5.164-.471.908-1.252 2.088-2.413 2.892"/><path d="m9.931 22.286c0-.4-.472-.727-1.048-.727-.577 0-1.042.326-1.042.727s.465.726 1.042.726c.575 0 1.048-.325 1.048-.726"/><ellipse transform="matrix(-.5098-.8603.8603-.5098-17.712 49.5922)" cx="5.273" cy="29.842" rx=".72" ry=".472"/></svg>