<svg xmlns="http://www.w3.org/2000/svg" viewBox="0 0 64 64" enable-background="new 0 0 64 64"><path d="m60.753 18.617c-.203-1.227-1.329-2.081-2.593-1.875l-3.589.604 2.869-7.242c.663-1.482.353-1.741-.078-1.955-.429-.217-.816-.305-1.477 1.176l-3.35 7.514-.897.15-.135-.831c1.161-.933 2.179-2.273 2.301-3.731.557-.235 1.159-.779.965-2.031-.205-1.312-.873-1.516-1.261-1.519-.692-3.889-2.05-5.388-6.585-4.724-4.571.67-5.587 2.608-5.074 6.578-.147.074-.26.17-.334.256-.284.333-.37.828-.263 1.516.199 1.279.979 1.589 1.536 1.642.567 1.373 1.969 2.348 3.384 2.878l.14.861-.899.151-5.534-6.021c-1.09-1.186-1.427-.975-1.767-.629-.343.344-.554.688.538 1.875l5.902 6.85 1.486 4.944-.879.147c-.27 0-.509-.214-.555-.498l-.894-5.523-4.836.821c-1.198.205-2.021 1.341-1.861 2.55l.317 6.721-1.276.486c-.314-.316-.779-.459-1.229-.308-.482.163-.798.604-.832 1.092l-1.561.594-2.936-5.857c-.389-.768-1.159-1.245-2.013-1.245-.356 0-.712.088-1.029.253l-3.247 1.692 1.194 2.386c-.188.493-.274 1.209.024 2.256.183.638.316 1.106.416 1.456l-.129.066-1.701-5.002.79-8.958c.192-1.617-.183-1.768-.658-1.837-.472-.071-.868-.04-1.055 1.576l-.955 8.199-.815.425-.435-.867c.778-1.156 1.309-2.585 1.071-3.916.479-.371.922-1.051.412-2.211-.399-.908-1.004-1.29-1.604-1.138-1.667-3.586-3.363-4.69-7.58-2.883-4.247 1.819-4.731 3.954-3.216 7.66-.105.093-.183.192-.232.283-.218.399-.183.917.109 1.581.444 1.008 1.114 1.22 1.599 1.22.1 0 .202-.01.307-.027.992 1.31 2.789 1.853 4.341 1.938l.429.859-.814.425-7.064-4.02c-1.394-.794-1.651-.484-1.87-.051-.225.434-.323.828 1.068 1.621l7.544 4.615 3.002 4.333-.713.373c-.271.141-.611.02-.75-.256l-2.505-4.995-4.371 2.284c-1.018.539-1.306 1.547-1.181 3.016 0 0 .406 6.984.627 9.658.048.582.71.895 1.231 1.09-2.815 2.223-5.421 4.557-7.723 6.975v7.828c2.332-2.238 4.829-4.521 7.5-6.775v6.834h3.75v-9.881c3.461-2.695 7.201-5.291 11.25-7.648v17.529h3.75v-19.592c3.521-1.828 7.268-3.457 11.25-4.814v24.406h3.75v-25.582c3.564-1.018 7.309-1.816 11.25-2.334v27.916h3.75v-28.311c1.233-.104 2.479-.189 3.75-.236v-4.933l-1.247-9.903m-49.36 6.8l-.211-.349-.385.137c-.131.046-.251.07-.354.07-.112 0-.41 0-.683-.622-.116-.264-.154-.437-.163-.545.064.074.125.134.186.182.318.247.702.285.776.29l.969.064-.51-.826c-.002-.004-.239-.391-.463-.953-.193-.534-.645-1.785-.528-1.997.047-.086.554-.199.89-.274.677-.151 1.7-.38 3.016-.958s2.176-1.178 2.746-1.574c.332-.231.676-.471.801-.471.208 0 .895 1.313 1.113 1.73.268.556.392.991.393.995l.265.942.608-.767c.046-.058.276-.366.311-.774.005-.074.002-.157-.009-.253.077.083.18.232.292.489.292.663.104.927-.296 1.138l-.361.191.115.392c.635 2.163-1.661 4.789-2.763 5.272-.365.161-.968.257-1.614.257-1.412.001-3.345-.467-4.141-1.786m5.015 3.166l-.207-.412c.527-.048.994-.151 1.348-.308.512-.225 1.104-.694 1.655-1.309l.228.455c.24.484-.241 1.228-1.072 1.663-.835.435-1.71.396-1.952-.089m.066 18.337c-.979.51-2.176.113-2.674-.883-.025-.049-.033-.102-.039-.156l3.472-1.813c.039.037.076.074.101.123.501.995.112 2.217-.86 2.729m13.892-7.295c-.979.508-2.175.111-2.672-.887-.019-.037-.021-.076-.029-.115l3.488-1.822c.025.029.056.055.074.092.503.994.114 2.216-.861 2.732m-19.755 5.645c-.057.029-.092.082-.237-.014l-.585-9.615c-.007-.273.058-.426.189-.496l2.564-1.338 1.594 3.178c.442.875 1.318 1.418 2.288 1.418.404 0 .81-.1 1.173-.287l8.768-4.578c1.252-.646 1.754-2.21 1.118-3.488l-1.605-3.207 1.501-.782c.099-.054.251-.04.331.118l3.906 7.794c.058.115-21.005 11.297-21.005 11.297m22.966-11.713c-.008-.033-.605-1.346-.605-1.346l1.544-.586c.304.22.689.312 1.069.185.413-.14.683-.487.78-.888l1.024-.39.037.78.013.115c.038.231.115.444.214.645-1.368.463-2.727.957-4.076 1.485m20.978-16.17l.426 2.618c-.312.415-.584 1.062-.609 2.108-.018.682-.029 1.178-.039 1.544l-.208.035-.011-5.19.441-1.115m-10.931-3.882l-.114-.392-.527.038c-.298 0-.626-.063-.741-.805-.042-.269-.038-.452-.018-.567.043.088.087.159.133.22.242.323.605.459.676.482l.918.31-.279-.928c-.001-.004-.131-.438-.202-1.041-.049-.563-.165-1.885.001-2.065.002-.002.052-.052.421-.052.148 0 .318.007.51.015.266.011.572.022.923.022.751 0 1.483-.058 2.238-.175 1.42-.222 2.405-.58 3.057-.817.373-.136.695-.253.859-.253.225 0 .526 1.336.668 1.962.116.605.125 1.059.125 1.063l.017.976.782-.582c.06-.045.361-.284.498-.669.024-.071.043-.151.057-.246.057.105.116.28.157.547.111.716-.139.922-.578 1.023l-.398.092.011.408c.059 2.254-2.834 4.203-4.022 4.388-.103.017-.218.023-.343.023-1.424.001-4.251-.994-4.829-2.977m7.027 3.648c.087.537-.597 1.099-1.52 1.254-.921.155-1.738-.152-1.831-.684l-.064-.395c.431.094.848.154 1.214.154.182 0 .349-.012.497-.035.475-.074 1.054-.309 1.646-.659l.058.365m-8.256 17.622c-1.02.17-1.979-.492-2.233-1.49l3.878-.656c.072 1.031-.628 1.969-1.645 2.146m15.037-2.484c-1.037.172-2.014-.513-2.248-1.546l3.89-.658c.106 1.054-.605 2.022-1.642 2.204m2.538-4.384l-20.267 3.427-.04.004c-.097 0-.205-.067-.242-.197l-.412-8.731-.012-.112c-.025-.154.071-.3.213-.323l2.848-.484.573 3.535c.229 1.402 1.543 2.375 2.953 2.142l9.718-1.643c1.392-.232 2.341-1.571 2.115-2.986l-.575-3.544 1.689-.282c.104 0 .224.08.248.229l1.402 8.637c.026.154-.07.304-.211.328"/><circle cx="45.805" cy="11.913" r=".922"/><circle cx="50.254" cy="11.219" r=".921"/><path d="m50.084 14.291c.056-.151-.069-.287-.168-.183-.824.875-1.864 1.032-2.91.453-.125-.068-.202.098-.104.226.365.476 1.011.852 1.745.736s1.234-.667 1.437-1.232"/><circle cx="13.093" cy="23.318" r=".922"/><circle cx="17.215" cy="21.507" r=".921"/><path d="m17.839 24.519c.015-.16-.141-.26-.209-.133-.573 1.057-1.537 1.476-2.696 1.185-.139-.034-.171.146-.044.244.476.366 1.195.563 1.876.264.68-.299 1.022-.961 1.073-1.56"/></svg>