<svg xmlns="http://www.w3.org/2000/svg" viewBox="0 0 64 64" enable-background="new 0 0 64 64"><path d="m59.939 59.705l-4.398-15.86c-.17-.607-.658-1.044-1.244-1.2-.799-2.857-3.133-11.039-7.691-25.657-3.797-12.173-13.678-16.155-21.791-14.703-8.028 1.438-13.218 7.881-12.62 15.667l.495-.036v2.64c-.326-.271-.776-.438-1.272-.433-.981.009-1.769.684-1.759 1.505.003.191.205.439.505.706-3.688 2.453-6.282 9.456-6.16 17.697.076 5.248 2.581 9.951 5.007 13.301-2.85 1.352-4.758 3.926-4.716 6.862.019 1.344.936 1.806 2.187 1.806 2.743 0 7.093-2.223 7.093-2.223s4.3 2.08 7.049 2.08c1.305 0 2.26-.469 2.239-1.851-.041-2.937-2.023-5.471-4.911-6.765 2.329-3.396 4.696-8.15 4.62-13.398-.115-8.082-2.809-14.913-6.458-17.417.389-.331.661-.642.657-.869-.012-.824-.82-1.483-1.803-1.472-.495.005-.939.182-1.258.46v-2.705l.521-.038c-.607-7.913 5.066-12.522 10.958-13.577 7.216-1.292 16.029 2.329 19.461 13.333 3.258 10.446 5.377 17.595 6.609 21.858-1.981-2.452-5.514-3.358-8.557-1.986-3.54 1.593-5.071 5.657-3.42 9.077.184.38.402.732.645 1.063l-5.426 5.242h-1.637v2.43h5.841v-2.43h-.719l3.696-3.57c1.996 1.326 4.643 1.632 6.995.572 1.534-.692 2.689-1.85 3.374-3.215l3.918 14.133c.254.914 1.225 1.455 2.17 1.211l.547-.143c.946-.245 1.506-1.183 1.253-2.095m-42.295-9.809c-.375.23-.845.375-1.375.369-1.268-.012-2.249-.725-2.303-1.66-.025-.521-1.082-.51-1.093.013-.018.897-.982 1.711-2.242 1.698-.547-.005-1.036-.147-1.426-.377-.69-1.152-1.341-2.448-1.881-3.841.674.327 1.476.515 2.344.495 1.63-.037 2.995-.711 3.703-1.686.743.971 2.124 1.658 3.742 1.619.866-.021 1.66-.223 2.322-.55-.505 1.421-1.126 2.743-1.791 3.92m2.297-5.57c-.488.805-1.556 1.398-2.84 1.391-1.756-.01-3.149-1.005-3.207-2.285-.021-.524-1.103-.516-1.105.008-.014 1.243-1.377 2.354-3.133 2.344-1.293-.008-2.387-.553-2.896-1.35-.342-1.172-.573-2.395-.657-3.655.818.722 1.979 1.187 3.291 1.155 1.73-.041 3.181-.841 3.897-1.987.752 1.14 2.223 1.952 3.95 1.911 1.311-.029 2.458-.5 3.254-1.221-.046 1.27-.243 2.505-.554 3.689m.875 15.526c-.055.004-.119.006-.192.006-1.646 0-4.644-1.15-6.144-1.874l-.93-.449-.919.47c-1.014.516-4.318 1.995-6.149 1.995-.054 0-.103-.002-.145-.004.047-1.984 1.398-3.838 3.564-4.864l2.172-1.03-1.397-1.928c-.248-.342-.501-.709-.756-1.094.234.034.476.053.726.046 1.201-.033 2.217-.499 2.799-1.194.606.697 1.636 1.178 2.835 1.145.247-.008.485-.035.714-.076-.248.396-.495.774-.736 1.127l-1.34 1.955 2.185.979c2.197.983 3.604 2.806 3.713 4.79m-1.174-27.238c-1.13 1.29-2.719 2.282-4.57 2.733-2.664.648-5.486.23-7.741-1.115-.507-.303-.981.403-.477.703 2.427 1.449 5.623 1.928 8.482 1.189 1.772-.455 3.334-1.318 4.539-2.463.329 1.619.544 3.39.62 5.281-.362 1.176-1.66 2.112-3.268 2.105-1.884-.009-3.395-1.176-3.451-2.672-.017-.521-1.017-.512-1.022.01-.01 1.455-1.485 2.747-3.372 2.737-1.615-.008-2.945-.867-3.334-2.051.071-6.153 1.751-11.722 4.375-14.356.533-.535 1.071-.89 1.609-1.101.67.394 1.222.679 1.222.679s.465-.253 1.055-.612c2.102.949 4.189 4.213 5.333 8.933m27.544 14.102c-.959.433-2.01.399-2.909.019l2.823-2.727-1.743-1.685-2.857 2.761c-.004-.008-.01-.013-.013-.02-.825-1.711-.06-3.744 1.709-4.541 1.771-.797 3.874-.057 4.7 1.653.826 1.711.059 3.742-1.71 4.54"/><path d="m10.693 27.064c-1.128.01-2.034.688-2.019 1.516.016.83.939 1.492 2.067 1.484 1.125-.01 2.031-.691 2.017-1.52-.016-.829-.937-1.491-2.065-1.48"/></svg>