<svg xmlns="http://www.w3.org/2000/svg" viewBox="0 0 64 64" enable-background="new 0 0 64 64"><path d="m61.338 41.881c-1.663-3.873-5.663-4.015-11.069-3.241.041-9.028 1.562-17.65 4.452-27.072 1.344-3.374-8.67-9.501-22.72-9.567-14.05.066-24.065 6.192-22.721 9.566 2.873 9.365 4.384 18.047 4.438 27.07-5.399-.771-9.394-.627-11.057 3.243-3.622 7.197 7.826 20.12 29.339 20.12 21.514 0 32.961-12.923 29.338-20.119m-48.856 5.962c0 0 1.357-4.745 1.14-7.254 11.804 10.624 24.954 10.624 36.757 0 .045 2.56 1.139 7.254 1.139 7.254-11.62 11.057-27.415 11.057-39.036 0"/></svg>