<svg xmlns="http://www.w3.org/2000/svg" viewBox="0 0 64 64" enable-background="new 0 0 64 64"><path d="m32.749 25.682c1.236-.72 1.659-2.312.947-3.558-.716-1.246-2.296-1.674-3.532-.954-1.236.72-1.662 2.313-.947 3.56s2.296 1.672 3.532.952"/><path d="m48.836 36.524c.227-.946.237-2.568-.284-3.119-.521-.547-2.384.158-2.997-.283-.126-.091-.227-.239-.32-.408.702-1.192 1.208-2.474 1.043-3.551-.257-1.673-1.387-3.518-2.248-4.724l.006-.011-.409-.537c-1.69-2.217-3.772-4.103-5.567-5.046l-.804-.421c-1.757-3.25-10.429-14.023-12.482-16.035-.192-.188-.326-.299-.392-.321-.47-.15-1.134-.041-1.836.215-1.333.489-2.799 1.512-3.295 2.31-.658 1.056-.834 2.723-1.114 4.264-.192 1.048-.431 2.04-.902 2.742-.367.545-1.087 1.019-1.923 1.471-2.058 1.111-4.827 2.097-4.85 3.71-.008.513.896 1.961 2.201 3.737l-1.215.962 2.867 3.325 1.037-.845c.443.538.891 1.074 1.337 1.593l-1.079.855 2.868 3.325 1.155-.939c.55.56 1.037 1.019 1.423 1.334l-.057.177c-.153.478-.346.977-.555 1.482l-.558-.337-2.086 3.565.844.487c-.368.683-.747 1.361-1.128 2.032l-.668-.405-1.864 3.19.713.411c-.093.165-.195.341-.286.504l-.015-.014-.604 1.135c0 .001 0 .001-.001.002l-.365.686.006.006c-.171.335-.333.662-.479.975-1.163 2.512-2.287 5.654-.642 7.682.62.763 1.833 1.473 3.047 1.874.033.594.143 1.128.351 1.471l-4.426 2.55c-4.429 2.578-8.169-.153-10.283-2.148.142.937.452 1.862.951 2.73 1.754 3.063 5.793 5.279 10.312 2.65 3.154-1.832 48.737-28.119 48.737-28.119v-3.779l-13.164 7.59m-3.372-.699l1.14 1.986-9.709 5.599-1.115-1.95 9.684-5.635m-19.668-15.552l.18-.142.778.994-.18.142-.778-.994m.771 2.174l-1.613 1.283-.114-.141 1.615-1.286.112.144m-.566-.722l-1.52 1.21-.78-.994 1.522-1.211.778.995m-2.88-.259l-.117-.143 1.652-1.314.115.145-1.65 1.312m.252 4.28l.089.112 4.132-3.288-.567-.724.754-.6-1.685-2.149-.753.599-.568-.725-4.132 3.289.076.097-2.477 1.962c-.449-.526-.902-1.068-1.351-1.615l2.338-1.904.122.155 4.134-3.29-.567-.722.753-.599-1.687-2.152-.753.601-.566-.724-4.132 3.289.045.057-2.362 1.871c-.744-1.009-1.335-1.878-1.633-2.443.485-.414 1.625-.979 2.353-1.338.292-.145.583-.29.866-.435 1.765-.082 7.218-.975 9.942-8.606 3.562 4.229 9.161 11.506 9.862 13.099.159 1.899-.863 5.72-1.767 6.614-1.061.834-7.983 2.486-11.095 2.486-.163 0-.277-.006-.353-.012-.3-.214-.728-.609-1.226-1.11l2.208-1.795m-1.687-10.374l.179-.143.778.995-.178.142-.779-.994m.771 2.172l-1.631 1.299-.116-.144 1.634-1.299.113.144m-.566-.721l-1.522 1.209-.779-.994 1.522-1.21.779.995m-2.902-.246l-.116-.143 1.672-1.33.114.145-1.67 1.328m-.22 25.923l-.158.264 4.354 2.671.46-.764.794.486 1.368-2.266-.793-.486.46-.761-4.356-2.671-.268.443-1.409-.853c.386-.68.772-1.371 1.147-2.067l1.664.958-.179.292 4.868 2.985.515-.853.887.545 1.529-2.533-.888-.544.513-.852-4.867-2.984-.299.495-1.946-1.177c.167-.392.325-.781.466-1.164.037 0 .076.001.115.001 3.075 0 11.471-1.663 13.145-3.312 1.365-1.347 2.289-4.442 2.594-6.862 1.058.8 2.175 1.894 3.165 3.11-1.439 2.818-1.972 6.547-1.582 11.103-.844.547-2.012 1.1-3.147 1.636-1.227.58-2.384 1.126-3.163 1.679-1.499 1.061-3.412 2.961-5.436 4.973-1.616 1.606-3.279 3.26-4.898 4.666l-1.288-1.193-5.225-4.843c.161-.293.335-.598.507-.902l1.351.78m5.42-.466l-.672-.412.083-.156.68.417-.091.151m.238.98l.188.116-.633 1.048-.188-.115.633-1.049m-.606-.371l-.633 1.049-.586-.36.578-1.08.641.391m-.999 1.658l-.093.152-.547-.334.085-.159.555.341m5.265-7.368l-.75-.46.094-.176.759.466-.103.17m.266 1.095l.21.13-.706 1.171-.212-.13.708-1.171m-.677-.414l-.707 1.171-.654-.402.646-1.206.715.437m-1.117 1.853l-.103.169-.61-.373.093-.177.62.381m-2.55 11.313c.006-.005.012-.01.018-.015l.879-.731-.018-.017c.502-.441 1.008-.905 1.513-1.379l2.897-1.685.361.628-5.881 3.391.231-.192"/></svg>