<svg xmlns="http://www.w3.org/2000/svg" viewBox="0 0 64 64" enable-background="new 0 0 64 64"><path d="m42.532 23.004c-1.853 0-3.638.275-5.334.759-.302-.924-.609-1.789-.902-2.611-.857-2.407-1.535-4.309-1.437-6.106.028-.543.3-1.213.612-1.988.5-1.237 1.121-2.777 1.129-4.727.009-2.511-.959-4.012-1.771-4.829-.965-.969-2.228-1.502-3.559-1.502-2.14 0-4.41 1.435-5.054 4.531-.388-1.337-1.044-2.258-1.632-2.85-1.071-1.076-2.474-1.667-3.952-1.667-2.206 0-4.538 1.382-5.434 4.342-.332-1.36-.971-2.28-1.542-2.854-.965-.969-2.229-1.502-3.56-1.502-2.524 0-5.24 1.988-5.24 6.356 0 1.978.716 3.506 1.29 4.735.354.754.658 1.406.686 1.924.095 1.78-.62 3.668-1.525 6.059-.856 2.262-1.828 4.825-2.465 8.14-1.161 6.024-1.698 13.826 2.33 16.781 1.076.791 2.737 1.226 4.676 1.226.708 0 1.511-.07 2.332-.215.535 1.997 1.458 3.675 2.936 4.761 1.2.881 3.059 1.366 5.234 1.366 1.571 0 3.556-.277 5.292-.96 3.356 5.865 9.654 9.827 16.89 9.827 10.752 0 19.468-8.73 19.468-19.499 0-10.768-8.716-19.497-19.468-19.497m-11.262-19.034c.805 0 1.574.327 2.166.923.788.792 1.202 1.979 1.197 3.431-.005 1.571-.526 2.859-.985 3.996-.157.391-.308.771-.435 1.148h-3.583c-.153-.4-.336-.802-.528-1.213-.544-1.16-1.105-2.359-1.105-3.898 0-3.031 1.644-4.387 3.273-4.387m2.064 14.451h-3.847c.246-.863.417-1.703.472-2.538h2.942c.046.834.203 1.675.433 2.538m-6.933-7.619c.259.865.607 1.624.918 2.289.354.754.658 1.406.686 1.924.095 1.78-.62 3.668-1.525 6.059-.199.525-.404 1.073-.608 1.638-.808-2.298-1.394-4.196-1.295-6.012.036-.642.347-1.412.706-2.304.406-1.005.88-2.192 1.118-3.594m-5.77-6.817c.951 0 1.859.386 2.558 1.088.921.927 1.405 2.308 1.4 3.994-.007 1.812-.604 3.288-1.129 4.59-.172.427-.334.842-.476 1.253h-4.362c-.167-.436-.367-.873-.576-1.321-.594-1.27-1.266-2.708-1.266-4.486 0-3.536 1.935-5.118 3.851-5.118m2.487 16.555h-4.652c.282-.981.479-1.936.542-2.883h3.614c.051.946.232 1.9.496 2.883m-9.432-5.494c.029-.543.3-1.213.613-1.988.242-.598.511-1.27.727-2.022.281 1.322.795 2.438 1.24 3.389.406.871.758 1.622.791 2.238.098 1.815-.532 3.717-1.395 6.023-.181-.528-.362-1.04-.538-1.534-.859-2.407-1.536-4.308-1.438-6.106m-6.863-6.69c0-3.031 1.644-4.386 3.272-4.386.805 0 1.574.327 2.166.923.789.792 1.203 1.979 1.198 3.431-.006 1.571-.526 2.859-.986 3.996-.157.391-.307.771-.434 1.148h-3.582c-.153-.4-.336-.802-.528-1.213-.545-1.16-1.106-2.36-1.106-3.899m5.338 10.065h-3.848c.246-.863.417-1.703.472-2.538h2.941c.047.834.205 1.675.435 2.538m-.374 26.643c-.629.107-1.276.187-1.939.187-1.501 0-2.782-.309-3.513-.845-2.494-1.83-3.049-7.094-1.562-14.819.607-3.147 1.545-5.626 2.374-7.814.12-.316.238-.628.353-.936h5.425c.112.321.228.646.346.978.419 1.175.867 2.439 1.281 3.842-.747 2.061-1.493 4.382-2.031 7.173-.751 3.891-1.269 8.434-.734 12.234m11.276-2.563c0 2.813.606 5.48 1.676 7.896-1.27.475-2.822.766-4.39.766-1.734 0-3.218-.357-4.071-.985-2.879-2.112-3.529-8.142-1.828-16.974.692-3.588 1.761-6.41 2.704-8.901.131-.344.258-.683.383-1.017h6.45c.123.351.25.707.378 1.068.729 2.046 1.535 4.326 2.162 7.059-2.178 3.149-3.464 6.966-3.464 11.088m5.01-13.024c-.36-1.355-.75-2.605-1.145-3.762.448-1.442.936-2.738 1.391-3.942.12-.316.238-.628.353-.936h5.425c.112.321.228.646.346.978.29.813.595 1.667.892 2.582-2.803 1.119-5.276 2.871-7.262 5.08m4.722 8.745c-1.629 0-2.951-1.322-2.951-2.956 0-1.632 1.322-2.956 2.951-2.956 1.629 0 2.951 1.324 2.951 2.956 0 1.633-1.322 2.956-2.951 2.956m9.243 9.973c-1.902 0-3.442-1.544-3.442-3.449 0-1.902 1.54-3.448 3.442-3.448s3.443 1.546 3.443 3.448c0 1.905-1.541 3.449-3.443 3.449m2.951-14.488c-1.629 0-2.951-1.324-2.951-2.954 0-1.634 1.322-2.958 2.951-2.958 1.63 0 2.952 1.324 2.952 2.958 0 1.63-1.322 2.954-2.952 2.954"/></svg>