<svg xmlns="http://www.w3.org/2000/svg" viewBox="0 0 64 64" enable-background="new 0 0 64 64"><path d="m57.664 7.506c-6.849-6.848-19.377-5.427-27.978 3.177-5.041 5.04-7.596 11.421-7.488 17.225-.406 6.216-1.52 12.215-4.461 15.693l-1.017-1.018-1.569 1.568.435.435-10.549 10.549-.435-.435-1.567 1.567 5.73 5.733 1.569-1.567-.435-.434 10.55-10.549.435.434 1.566-1.567-.877-.882c3.476-2.939 9.467-4.052 15.677-4.461 5.806.113 12.193-2.441 17.238-7.486 8.607-8.604 10.027-21.132 3.176-27.982m1.182 11.171l-1.438-1.436 1.116-1.114c.181.828.287 1.68.322 2.55m-.787-4.17l-1.692 1.693-3.174-3.175 2.518-2.519c1.044 1.182 1.824 2.533 2.348 4.001m-29.209 14.42l3.982-3.984 3.177 3.176-3.984 3.982-3.175-3.174m2.135 4.22l-2.523 2.52c-1.045-1.184-1.826-2.534-2.348-4.004l1.693-1.691 3.178 3.175m12.962-19.316l3.98-3.982 3.175 3.177-3.983 3.983-3.172-3.178m6.347 8.438l-3.985 3.992-3.179-3.174 3.989-3.991 3.175 3.173m-4.218-4.217l-3.989 3.989-3.175-3.175 3.989-3.99 3.175 3.176m-5.033 5.035l-3.99 3.989-3.177-3.177 3.991-3.989 3.176 3.177m-3.176-5.265l-3.167-3.168 3.989-3.99 3.165 3.167-3.987 3.991m-1.043 1.045l-3.992 3.988-3.166-3.168 3.987-3.991 3.171 3.171m.229 10.298l3.174 3.173-3.982 3.984-3.173-3.177 3.981-3.98m1.047-1.046l3.987-3.989 3.175 3.175-3.992 3.99-3.17-3.176m8.209.229l3.162 3.169-3.99 3.989-3.169-3.168 3.997-3.99m1.041-1.044l3.989-3.989 3.169 3.167-3.989 3.99-3.169-3.168m.814-9.251l3.984-3.984 3.174 3.173-3.979 3.984-3.179-3.173m6.504-8.591l-2.52 2.52-3.178-3.177 1.691-1.691c1.472.521 2.823 1.303 4.007 2.348m-5.626-2.816l-1.114 1.114-1.435-1.435c.87.036 1.722.141 2.549.321m-4.591-.275l2.432 2.433-3.981 3.983-3.17-3.167 3.021-3.021c.569-.105 1.136-.18 1.698-.228m-4.557.999l-1.204 1.206-.513-.513c.568-.26 1.141-.49 1.717-.693m-3.106 1.391l.856.857-3.991 3.991-1.481-1.485c1.441-1.353 2.998-2.476 4.616-3.363m-5.661 4.409l1.484 1.484-3.99 3.989-.857-.858c.887-1.618 2.01-3.173 3.363-4.615m-4.062 6.005l.512.513-1.206 1.206c.202-.578.432-1.15.694-1.719m-1.465 4.575l3.021-3.02 3.168 3.168-3.982 3.981-2.436-2.435c.049-.56.124-1.126.229-1.694m1.161 5.176l-1.114 1.114c-.182-.826-.285-1.68-.32-2.549l1.434 1.435m-4.274 13.761c-1.094-1.094.33-5.334 1.316-7.855.684 1.399 1.569 2.699 2.702 3.832 1.134 1.134 2.435 2.02 3.837 2.705-2.521.985-6.763 2.41-7.855 1.318m7.019-5.975l2.52-2.521 3.175 3.176-1.695 1.691c-1.467-.522-2.818-1.303-4-2.346m5.623 2.812l1.115-1.115 1.436 1.437c-.871-.035-1.723-.14-2.551-.322m4.594.276l-2.436-2.436 3.982-3.982 3.17 3.167-3.022 3.024c-.567.105-1.132.179-1.694.227m4.552-.998l1.205-1.205.514.512c-.569.259-1.142.49-1.719.693m3.112-1.395l-.857-.858 3.989-3.988 1.483 1.483c-1.441 1.353-2.997 2.477-4.615 3.363m5.659-4.407l-1.484-1.483 3.989-3.99.859.857c-.888 1.617-2.01 3.174-3.364 4.616m4.062-6.005l-.513-.512 1.205-1.205c-.202.576-.432 1.149-.692 1.717m1.464-4.578l-3.021 3.022-3.166-3.17 3.982-3.982 2.434 2.436c-.049.562-.123 1.127-.229 1.694"/><path d="m13 24c2.938 0 5.701-1.144 7.779-3.221 2.078-2.078 3.221-4.841 3.221-7.779s-1.146-5.701-3.224-7.778c-2.077-2.077-4.839-3.222-7.777-3.222s-5.699 1.144-7.776 3.222c-2.078 2.077-3.223 4.84-3.223 7.778s1.144 5.702 3.222 7.779c2.078 2.077 4.84 3.221 7.778 3.221m6.481-17.481c1.668 1.668 2.605 3.866 2.673 6.213-2.244-.1-4.46-1.003-6.17-2.714-1.712-1.71-2.615-3.926-2.714-6.171 2.345.068 4.544 1.005 6.211 2.672m-12.962-.001c1.529-1.529 3.503-2.448 5.629-2.643.107 2.524 1.115 5.017 3.038 6.939 1.923 1.923 4.417 2.931 6.94 3.038-.194 2.127-1.114 4.101-2.644 5.63-1.528 1.528-3.503 2.448-5.63 2.643-.106-2.523-1.116-5.016-3.038-6.938-1.923-1.923-4.414-2.932-6.938-3.038.193-2.128 1.113-4.102 2.643-5.631m3.498 9.464c1.711 1.711 2.614 3.927 2.714 6.171-2.347-.068-4.545-1.004-6.213-2.671-1.667-1.667-2.604-3.866-2.671-6.213 2.244.1 4.46 1.003 6.17 2.713"/></svg>