<svg xmlns="http://www.w3.org/2000/svg" viewBox="0 0 64 64" enable-background="new 0 0 64 64"><path d="m61.863 12.932c-3.86-4.52-7.643-5.662-7.643-5.662-.108.047-.187.108-.281.162-1.511-1.016-3.442-2.32-4.333-2.953-1.044-.744-3.356-2.479-5.365-2.479-1.108 0-2.123.527-2.784 2.038-.473 1.08-1.079 2.696-1.675 4.352-.176-.254-.414-.452-.715-.555-.918-.313-2.019.34-2.454 1.459-.437 1.115-.045 2.275.875 2.584.005.002.01.001.015.003.153.367.418.657.771.818-.057.163-.111.318-.161.468-.128-.106-.27-.197-.434-.254-.919-.311-2.019.342-2.454 1.459-.437 1.117-.045 2.275.875 2.586.005.002.011.001.016.003.104.252.266.464.465.629-1.08 3.092-2.212 6.262-3.342 9.275-.052-.025-.101-.056-.156-.075-.918-.311-2.019.342-2.455 1.459-.436 1.117-.046 2.275.875 2.586.005.002.01.001.016.003.031.075.072.144.111.212-.164.413-.327.819-.489 1.221-.109-.079-.226-.147-.358-.193-.918-.311-2.019.342-2.454 1.458-.436 1.117-.045 2.275.875 2.586.005.002.01.002.015.004.044.104.096.201.156.293-.154.342-.306.672-.457.992-.128-.107-.27-.197-.435-.254-.916-.311-2.019.342-2.454 1.459-.434 1.115-.045 2.273.873 2.584-.802 1.254-1.507 1.982-2.07 1.982-.306 0-.569-.211-.784-.664-3.275-6.865 9.287-14.68 5.518-21.137.072-.43 0-.776-.103-1.012-.624-1.441-3.073-1.744-5.017-1.744-2.873 0-6.663.654-10.396 1.796-6.059 1.854-10.814 4.593-11.832 6.817-.33.719-.225 1.271-.079 1.607.415.957 1.636 1.406 2.978 1.604 1.646 1.195 3.83 3.548 1.968 6.871-8.267 14.75-1.845 24.68 7.525 24.68 3.526 0 7.469-1.414 11.206-4.5.152-.012.304-.053.443-.141.205-.131.404-.281.605-.426.017.037.019.076.042.111.189.303.511.467.841.467.18 0 .363-.049.527-.152 10.522-6.678 14.06-30.409 15.759-41.813.261-1.743.466-3.12.638-4.019.104-.542-.247-1.066-.785-1.171-.132-.027-.264-.024-.388.001.02-.109.035-.195.054-.297.782-2.533 1.521-3.914 2.251-3.914 1.794 0 5.309 2.512 6.692 3.473-.023.224-.018.373-.018.373.307.529 1.856 3 4.273 3.693 0 0 1.573-1.652 3.862-.875.392.136 1.832.804 1.251.122m-58.815 15.513c-.095-.22-.072-.478.07-.788.753-1.646 4.849-4.331 11.22-6.279 3.644-1.114 7.328-1.753 10.107-1.753 2.262 0 3.797.428 4.108 1.145.095.22.073.477-.07.787-.751 1.646-4.847 4.332-11.221 6.28-3.643 1.114-7.327 1.753-10.106 1.753-2.261-.001-3.798-.428-4.108-1.145m39.969-19.944c-.056-.023-.106-.059-.168-.07-.541-.108-1.059.249-1.162.792-.153.8-.346 1.988-.586 3.474-1.617 10.02-5.915 36.635-15.897 42.969-.452.287-.589.879-.327 1.342-3.373 2.695-6.939 3.992-10.267 3.992-3.813 0-7.025-1.77-8.809-4.854-2.625-4.535-1.842-11.216 2.148-18.333.873-1.557 1.069-3.1.584-4.586-.349-1.069-1.012-1.946-1.724-2.645.117.003.234.008.348.008 2.874 0 6.662-.654 10.395-1.796 5.54-1.694 9.979-4.128 11.48-6.233.886 2.355-.571 5.02-2.926 8.786-2.367 3.787-4.814 7.701-2.952 11.605.51 1.07 1.271 1.23 1.678 1.23.771 0 1.624-.555 2.737-2.219.077.047.158.088.246.117.92.313 2.019-.34 2.455-1.457.394-1.006.11-2.037-.618-2.461.172-.363.351-.744.534-1.146.906.256 1.959-.383 2.383-1.473.405-1.033.092-2.096-.685-2.494.174-.428.354-.874.538-1.333.918.306 2.012-.346 2.447-1.459.436-1.117.042-2.275-.876-2.586-.002-.001-.004-.001-.006-.001 1.05-2.785 2.222-6.023 3.533-9.766.785-.016 1.587-.608 1.944-1.524.384-.983.125-1.998-.569-2.438.018-.051.035-.099.053-.15l.101-.295c.075-.22.163-.473.25-.724.648-.17 1.257-.707 1.556-1.471.323-.83.189-1.679-.275-2.19.632-1.768 1.289-3.532 1.787-4.67.557-1.278 1.294-1.442 1.874-1.442 1.586 0 3.633 1.466 4.615 2.17l.179.127c.654.465 1.946 1.347 3.843 2.623-.057.153-.157.333-.327.524-2.517-1.738-5.044-3.297-6.749-3.297-1.025 0-1.877.869-2.785 3.354"/><path d="m16.821 27.207c5.99-1.833 10.318-4.53 9.67-6.028-.649-1.496-6.031-1.226-12.022.604-5.988 1.833-10.316 4.532-9.668 6.028.648 1.498 6.031 1.226 12.02-.604"/></svg>