<svg xmlns="http://www.w3.org/2000/svg" viewBox="0 0 64 64" enable-background="new 0 0 64 64"><path d="m17.646 30.533v-16.887c0 0 8.156 3.938 3.759 12.631-.146.29 1.12.602 1.284.322 8.971-15.383-2.893-14.334-5.043-24.6h-4.375v23.479c-.834-.266-2.311-.414-3.27-.414-10.668 0-10.668 10.936 0 10.936 3.91 0 7.645-2.448 7.645-5.467"/><path d="m53.646 2h-4.378v23.479c-.834-.266-2.311-.414-3.27-.414-10.666 0-10.666 10.936 0 10.936 3.912 0 7.647-2.449 7.647-5.468v-16.887c0 0 8.154 3.939 3.758 12.631-.145.29 1.119.602 1.283.322 8.974-15.381-2.889-14.332-5.04-24.599"/><path d="m26.271 28v23.479c-.836-.266-2.313-.414-3.27-.414-10.668 0-10.668 10.936 0 10.936 3.91 0 7.645-2.448 7.645-5.468v-16.887c0 0 8.154 3.938 3.758 12.632-.145.288 1.119.601 1.283.32 8.972-15.38-2.891-14.331-5.041-24.598h-4.375"/></svg>