<svg xmlns="http://www.w3.org/2000/svg" viewBox="0 0 64 64" enable-background="new 0 0 64 64"><path d="m30.626 35.591l-.232.061-.18.16-.149.13c-.141.125-.283.25-.42.384l-14.229 13.906-.188.185-.072.255c-.603 2.126-.002 4.402 1.569 5.941 1.167 1.142 2.721 1.771 4.374 1.771 1.655 0 3.21-.63 4.378-1.773l11.11-10.858c1.173-1.146 1.818-2.676 1.818-4.307s-.647-3.161-1.822-4.308c-1.156-1.131-2.699-1.754-4.345-1.754-.543.001-1.086.07-1.612.207m-10.183 11.113c.395-.384.8-.78 1.209-1.18l6.876 6.718-1.21 1.182-6.875-6.72m4.83-4.72c.401-.392.8-.782 1.207-1.18l6.875 6.72-1.208 1.18-6.874-6.72m-7.855 13.92c-1.373-1.345-1.794-3.251-1.309-4.963.226-.22.477-.466.715-.698l6.693 6.541c-.757.391-1.583.608-2.419.608-1.333.001-2.665-.495-3.68-1.488m19.375-12.093l-6.694-6.543c.081-.077.16-.155.239-.233.174-.17.357-.323.537-.483.446-.115.905-.174 1.363-.174 1.324 0 2.643.485 3.651 1.471 1.653 1.612 1.937 4.043.904 5.962"/><path d="m48.595 15.1c-5.007-4.893-13.965-13.1-17.723-13.1-.54 0-.978.16-1.301.477-.35.341-.526.824-.526 1.437 0 1.135.66 2.79 1.826 4.767 1.249 6.481 2.074 17.552-4.756 24.227-.079.079-.159.156-.239.233l-6.186-6.046-.904.885-2.311-2.257.905-.885-2.105-2.063-3.62 3.541 2.104 2.057.905-.883 2.313 2.26-.904.886 6.185 6.042c-.406.397-.808.789-1.207 1.18l-6.146-6.008-.907.886-2.351-2.299.906-.884-2.104-2.058-3.623 3.539 2.104 2.058.905-.885 2.35 2.298-.905.882 6.149 6.01c-.41.4-.813.795-1.208 1.181l-6.181-6.042-.908.884-2.315-2.264.907-.886-2.104-2.057-3.62 3.539 2.104 2.057.902-.882 2.313 2.261-.904.882 6.187 6.046c-1.873 1.83-3.363 3.286-4.254 4.156-1.729 1.691-1.643 3.154-1.643 3.154s-1.483-.08-3.199 1.584l4.221 4.123c1.7-1.677 1.633-3.127 1.633-3.127.194 0 1.247-.052 2.518-1.011.441 1.451 1.246 2.82 2.416 3.964 1.878 1.834 4.343 2.751 6.809 2.751 1.98 0 3.955-.602 5.631-1.785l2.12 2.075 3.618-3.539-2.028-1.981 1.209-1.182 2.03 1.983 3.616-3.54-2.026-1.982 1.207-1.181 2.03 1.985 3.618-3.537-2.125-2.077c2.719-3.677 2.396-8.849-.988-12.156-.698-.683-1.479-1.236-2.31-1.666 3.213-1.17 6.719-1.575 10.034-1.575 2.985 0 5.804.329 8.129.725 2.164 1.255 3.966 1.96 5.187 1.96h.001c.616 0 1.104-.171 1.45-.509.328-.32.494-.753.494-1.289 0-3.689-8.399-12.448-13.405-17.339m-1.855 15.459c-3.903.001-7.395.552-10.374 1.637l-2.126.775 2.011 1.038c.765.395 1.461.896 2.071 1.493 1.623 1.587 2.518 3.697 2.518 5.942 0 2.247-.895 4.359-2.518 5.947l-11.106 10.858c-1.63 1.592-3.802 2.47-6.115 2.47s-4.485-.878-6.115-2.469c-1.009-.987-1.756-2.211-2.16-3.543l-.412-1.358-1.134.854c-.67.505-1.236.694-1.565.765l-1.967-1.921c.096-.417.39-1.183 1.294-2.066l17.768-17.365c6.408-6.263 6.441-15.997 5.454-22.771 2.256 3.265 5.558 7.119 9.496 10.967 3.857 3.772 7.721 6.95 11.016 9.15-1.853-.235-3.895-.403-6.036-.403m14.073 2.46c-.153.15-.408.226-.757.226 0 0 0 0-.001 0-2.578 0-9.453-4.171-17.604-12.142-8.15-7.964-12.414-14.676-12.414-17.19 0-.335.076-.579.228-.728.134-.131.332-.193.607-.193 2.451 0 8.817 4.791 17.029 12.816 8.208 8.021 13.107 14.237 13.106 16.63.001.263-.063.453-.194.581"/><path d="m47.45 16.231c-6.978-6.825-13.14-11.871-14.557-10.486-1.42 1.386 3.097 8.04 10.08 14.867 6.983 6.823 13.79 11.234 15.209 9.85 1.42-1.386-3.744-7.406-10.732-14.231"/></svg>