<svg xmlns="http://www.w3.org/2000/svg" viewBox="0 0 64 64" enable-background="new 0 0 64 64"><path d="m56.317 35.6c0-5.583 2.754-9.11 2.781-9.145l1.902-2.391-2.917-.828c-5.104-1.429-7.014-8.277-8.317-15.465-.229-1.266-.357-2.54-.375-3.786l-.032-1.985h-35.001l-.028 1.989c-.017 1.213-.144 2.487-.378 3.785-1.507 8.305-3.497 14.113-8.313 15.462l-2.639.74 1.504 2.313c.016.026 2.253 3.624 2.253 9.669 0 11.405-2.512 23.483-2.537 23.604l-.513 2.438h56.438l-.666-2.536c-.031-.121-3.162-12.174-3.162-23.864m-50.144-10.418c5.981-1.675 8.205-8.565 9.744-17.046.254-1.409.391-2.788.409-4.118h3.6c-.067.448-.102.904-.102 1.368 0 5.722 5.39 10.36 12.033 10.36 6.65 0 12.039-4.638 12.039-10.36 0-.464-.034-.92-.103-1.368h3.6c.021 1.33.152 2.708.408 4.118.3 1.654.628 3.245 1.003 4.751l-41.258 38.895c.617-4.461 1.208-10.2 1.208-15.823 0-6.808-2.581-10.777-2.581-10.777m7.799 34.799l39.158-37.595c1.196 1.327 2.639 2.297 4.42 2.796 0 0-3.229 3.97-3.229 10.418 0 12.108 3.229 24.382 3.229 24.382h-43.578z"/></svg>