<svg xmlns="http://www.w3.org/2000/svg" viewBox="0 0 64 64" enable-background="new 0 0 64 64"><circle cx="17.067" cy="56.547" r="1.844"/><path transform="matrix(-.7074-.7068.7068-.7074 11.4686 85.7713)" d="m19.964 38.784h7.049v3.456h-7.049z"/><path transform="matrix(.7072-.707.707.7072-26.5507 26.4823)" d="m16.973 41.776h3.456v7.048h-3.456z"/><path transform="matrix(.7071.7071-.7071.7071 39.2524 4.1172)" d="m11.927 48.455h5.458v1.97h-5.458z"/><path d="m20.935 52.026c-.896.9-.898 2.359.002 3.258.899.9 2.359.9 3.26 0 .898-.9.898-2.359 0-3.258-.901-.9-2.361-.9-3.262 0"/><path d="m59.897 12.03l-.496-.495c3.267-3.104 3.558-3.941.281-7.216-3.277-3.28-4.115-2.986-7.218.28l-.494-.495c.433-.53.614-1.058.135-1.537-.59-.589-1.25-.19-1.903.463-.652.652-1.049 1.311-.461 1.898.48.479 1.006.301 1.537-.132l.516.516c-.753.803-1.628 1.742-2.678 2.821l-.588-.588c.434-.531.611-1.057.134-1.537-.589-.586-1.249-.191-1.899.459-.654.654-1.051 1.313-.461 1.902.479.479 1.006.298 1.537-.136l.595.595c-.115.116-.218.223-.337.342-.916.916-1.708 1.713-2.391 2.433l-.617-.618c.432-.531.611-1.057.131-1.535-.588-.588-1.248-.193-1.898.459-.652.654-1.051 1.313-.461 1.9.48.48 1.006.302 1.537-.132l.643.645c-1.969 2.182-2.646 3.573-1.898 5.143l-12.867 12.141c-1.586-1.542-3.384-2.817-6.171-2.604-6.663.504-2.295 8.092-10.83 8.66-3.052.201-5.95.871-8.046 2.972-5.33 5.328-3.626 12.642 1.934 18.204 5.559 5.56 12.874 7.261 18.203 1.934 2.779-2.777 2.686-7.816 3.615-10.827 1.199-3.891 7.463-2.574 7.176-6.902-.025-.408-.125-.666-.281-.82-.779-.779-2.963 1.078-4.276-.236-.412-.41-.736-1.135-.906-2.34l15.841-16.787c1.57.749 2.963.07 5.146-1.899l.643.643c-.434.532-.611 1.059-.135 1.539.588.588 1.25.191 1.902-.463.652-.65 1.049-1.311.459-1.9-.479-.478-1.005-.298-1.536.135l-.617-.616c.721-.683 1.517-1.475 2.433-2.392.119-.119.227-.221.344-.337l.591.594c-.433.532-.612 1.058-.131 1.538.588.588 1.247.191 1.899-.461.648-.652 1.047-1.313.459-1.9-.478-.479-1.004-.3-1.535.132l-.587-.587c1.078-1.051 2.017-1.926 2.819-2.677l.517.515c-.435.531-.612 1.058-.132 1.537.588.586 1.247.191 1.898-.462.654-.652 1.05-1.313.462-1.9-.48-.481-1.006-.301-1.537.131m-27.67 30.605c-.09.039-.182.076-.281.117-1.775.73-4.211 1.729-5.078 4.541-.318 1.027-.516 2.166-.725 3.375-.412 2.382-.881 5.081-2.339 6.54-2.039 2.039-4.439 2.875-7.139 2.49-2.643-.375-5.464-1.945-7.941-4.424-2.478-2.477-4.048-5.296-4.422-7.938-.386-2.699.453-5.1 2.489-7.139 1.398-1.398 3.443-2.117 6.631-2.329 5.936-.393 7.287-3.85 8.181-6.137.698-1.789.934-2.393 2.671-2.525 1.807-.137 3.018.598 4.394 1.918l-4.325 4.082 4.452 4.454.08-.085c.272.814.653 1.467 1.162 1.976.684.685 1.454.986 2.19 1.084m15.546-28.209c-.5.5-1.313.5-1.813 0-.5-.502-.5-1.315 0-1.815.5-.502 1.313-.502 1.813 0 .502.499.502 1.313 0 1.815m1.643-5.273c.502-.5 1.314-.5 1.817 0 .498.502.498 1.314-.002 1.814-.503.502-1.315.5-1.813 0-.504-.499-.504-1.312-.002-1.814m1.987 8.9c-.502.5-1.315.5-1.815 0-.502-.502-.5-1.314-.002-1.816.504-.5 1.315-.5 1.817.002.502.499.502 1.312 0 1.814m1.469-12.355c.502-.502 1.313-.5 1.814.002.5.5.502 1.311 0 1.813s-1.313.5-1.814 0c-.5-.5-.502-1.313 0-1.815m1.986 8.898c-.502.502-1.314.502-1.813 0-.5-.502-.504-1.312-.002-1.815.5-.498 1.313-.5 1.816 0 .499.501.501 1.315-.001 1.815m3.455-3.456c-.5.5-1.313.502-1.813.002-.502-.502-.502-1.314 0-1.814.5-.504 1.313-.502 1.814 0s.503 1.31-.001 1.812"/></svg>