<svg xmlns="http://www.w3.org/2000/svg" viewBox="0 0 64 64" enable-background="new 0 0 64 64"><path d="m62 5.457v-1.88c-8.225-2.898-15.881-1.403-23.325 1.29-.837-1.587-2.34-2.774-4.23-2.838-2.232-.076-4.376 1.277-5.521 3.152-.798 1.305-1.004 2.667-.896 4.052-5.972 2.534-11.917 4.845-18.028 5.201-5.726.572-5.278.511-8 .841 0 10.99 0 21.982 0 32.974l7.999.899c0-.004 0-.007 0-.01 9.059 3.32 19.625 2.242 29.772 2.909.63 1.728 1.293 3.596.8 5.286-.599 2.041-2.741 3.279-4.803 3.023 2.395-.758 3.599-3.611 2.2-5.77-1.177-1.817-3.837-2.277-5.547-.967-3.594 2.754-.218 7.645 3.315 8.284 2.29.416 4.623-.562 6.001-2.425 1.528-2.066 1.351-4.32.753-6.687-.045-.177-.093-.353-.138-.529 7.058.711 13.83 2.53 19.648 7.592v-1.891c-5.945-5.526-12.91-7.236-20.172-7.712-.466-1.767-2.177-8.056-2.177-8.056s1.61-.469 3.418-2.221c6.31-.274 12.62.533 18.931 4.161v-1.925c-5.682-3.523-11.363-4.5-17.045-4.352 1.98-2.793 2.849-6.35 1.849-9.74 5.065-.094 10.131 1.043 15.196 4.625v-1.926c-5.275-3.678-10.55-4.708-15.824-4.454-2.051-4.154-7.871-5.748-11.805-3.285-.209-.756-.418-1.513-.627-2.269 9.419-2.458 18.837-4.31 28.256.541v-1.92c-9.555-4.305-19.108-2.433-28.662-.074-.013-.042-.022-.085-.037-.127-.068-.207.875-1.137 1.017-1.313.936-1.17 1.842-2.371 2.667-3.621 1.444-2.186 2.785-4.838 2.335-7.542-.008-.046-.024-.09-.033-.136 7.263-2.386 14.72-3.681 22.713-1.16m-30.208.238c.872-.832 2.351-1.431 3.515-.873.435.208.763.542 1.001.941-1.887.742-3.764 1.537-5.634 2.338.071-.871.371-1.697 1.118-2.406m-.394 20.711c-.284.59-.495 1.213-.625 1.854-.088.43-.124.867-.138 1.305-1.577.445-3.155.887-4.733 1.289.022-1.131.236-2.259.673-3.303.997-2.383 2.963-4.178 4.676-6.039.299 1.076.524 2.201.909 3.25-.005-.011-.007-.017.004.014.163.439-.555 1.193-.766 1.63m1.36.561c.172.619.343 1.239.513 1.858-.455.127-.912.254-1.368.382.153-.789.429-1.555.855-2.24m-22.759-11.373c6.209-.315 12.229-2.469 18.264-4.83.095.421.2.844.327 1.267.434 1.446.844 2.895 1.248 4.35.148.541.297 1.08.444 1.619.029.1.14.498.161.492-.269.543-.903 1.055-1.306 1.508-.156.175-.316.349-.477.523-6.22 1.541-12.44 2.897-18.661 2.497 0-2.057 0-5.063 0-7.426m0 9.08c5.563.488 11.127-.6 16.689-2.006-.757.868-1.459 1.778-1.994 2.799-.967 1.84-1.445 3.93-1.381 6.008-4.438.984-8.876 1.506-13.314.756 0-2.356 0-4.876 0-7.557m0 8.971c4.485.803 8.971.305 13.456-.656.472 2.893 2.03 5.51 4.265 7.344-5.907 1.049-11.814 1.79-17.721.646 0-1.958 0-5.047 0-7.334m0 14.257c0-1.49 0-4.307 0-5.748 6.525 1.238 13.051.412 19.575-.566.451.244.916.465 1.398.649 1.975.756 4.088.945 6.172.634.711 2.405 1.285 4.848 1.984 7.258-9.936-.285-20.25 1.118-29.129-2.227m34.258-19.213c.939 3.4-.312 7.098-2.871 9.397-.927.092-1.854.205-2.782.335-.801-2.902-1.603-5.807-2.403-8.709 2.639-.647 5.276-1.186 7.915-1.444.048.14.101.277.141.421m-8.888-4.117c2.851-1.429 6.146-.359 7.893 2.056-2.497.324-4.995.875-7.491 1.523-.213-.769-.425-1.536-.636-2.306-.198-.712-.486-.911.234-1.273m-1.677 5.783c.778 2.821 1.556 5.642 2.334 8.463-1.496.251-2.993.529-4.489.811-2.105-.932-3.882-2.615-4.837-4.754-.351-.783-.58-1.621-.703-2.473 1.58-.391 3.16-.818 4.74-1.248.063.371.144.74.256 1.102.123.395.684.461.895.1.185-.315-.015-1.004-.091-1.49.632-.173 1.265-.343 1.895-.511m-1.244-14.242c-.42-1.52-.837-3.037-1.258-4.553-.16-.583-.313-1.184-.419-1.783 2.005-.792 4.015-1.58 6.036-2.308.013.18.018.359.011.532-.135 3.09-2.509 5.843-4.37 8.112"/></svg>