<svg xmlns="http://www.w3.org/2000/svg" viewBox="0 0 64 64" enable-background="new 0 0 64 64"><path d="m61.943 24.748c-.333-2.271-.682-4.508-1.02-6.673l-.175-1.133-21.278-14.942-.467.207c-1.095.488-2.185.982-3.274 1.476l-.796.361-3.047-1.878-.423.173c0 0-3.629 1.477-5.438 2.219l-.804.331 1.118 3.074-1.42.653-2.974-2.447-6.748 3.724 1.4 2.554-2.014.928-2.646-2.773-6.767 3.698.313.754c.269.643.585 1.328.942 2.047l-.245.112c-1.108.504-2.216 1.008-3.329 1.505l-.851.381.405.839c14.605 30.315 30.68 38.536 31.356 38.871l.107.046c3.992 1.368 8.003 2.378 11.919 3.001l.908.144.13-.911c.488-3.439 1.206-6.854 2.141-10.175.902-3.202 2.023-6.364 3.325-9.389l.126-.283c1.248-2.866 2.698-5.691 4.31-8.398l.051-.085c1.513-2.534 3.191-4.999 4.987-7.325l.235-.305-.057-.381m-27.394 32.425c-.011-.004-.022-.007-.033-.011-.956-.502-16.226-8.881-30.077-37.174.831-.373 1.658-.75 2.487-1.128l1.164-.528c4.706 8.566 13.277 18.421 13.277 18.421s4.731 4.4 8.364 5.247c.591-.748 1.578-1.801 2.509-2.755 2.521 2.533 5.065 4.949 7.658 7.178.001 0 .001.001.002.001-1.829 3.416-3.606 6.993-5.351 10.749m5.51-11.042c0 0-.001 0-.002-.002-2.566-2.209-5.089-4.605-7.591-7.114 1.129-1.15 2.116-2.103 2.116-2.103-2.215-1.987-5.75-7.3-5.75-7.3l-13.796-14.454 3.555-1.638c3.396 3.051 7.245 6.968 10.986 10.609.835.881 1.618 1.703 2.307 2.428 2.027 1.989 6.284 5.267 6.284 5.267s.803-.719 1.748-1.62c2.053 2.03 4.061 3.991 6.011 5.844-2.029 3.212-3.977 6.565-5.868 10.083m6.041-10.357c-1.926-1.845-3.909-3.79-5.938-5.807.715-.688 1.478-1.448 2.022-2.071-1.701-1.761-3.663-6.913-3.663-6.913l-12.962-10.669 2.674-1.229c6.053 5.239 12.452 10.015 17.596 14.733.642-.705 1.302-1.393 1.952-2.089 1.636 1.626 3.201 3.233 4.675 4.827.001.001.001.002.001.003-2.214 2.952-4.326 6.014-6.357 9.215m6.542-9.46c-.001-.001-.002-.002-.002-.003-1.465-1.588-3.021-3.188-4.65-4.805.684-.729 1.356-1.47 2.05-2.19-1.239-1.605-2.256-6.295-2.256-6.295l-11.988-7.383.677-.306c.933-.422 1.863-.845 2.798-1.262l19.811 13.912.058.365c-2.266 2.574-4.43 5.22-6.498 7.967"/></svg>