<svg xmlns="http://www.w3.org/2000/svg" viewBox="0 0 64 64" enable-background="new 0 0 64 64"><path d="m59.504 7.033l.538-.811.624.624 1.334-1.922-.66-.66.658-.992-1.271-1.269-.991.656-.658-.659-1.927 1.331.626.626-.811.536-.224 1.266-.536.355-1.339-1.34.562-.562-1.827-.84-.947.949.838 1.827.562-.562 1.175 1.176-1.844 1.225-2.198-2.197-.814.813 2.507 2.509-11.793 10.951c-2.028-1.899-5.074-4.303-8.26-4.303-2.608 0-4.794 1.558-6.496 4.626-.3.539-.502 1.169-.696 1.778-.576 1.798-1.074 2.946-2.865 3.105l-14.89-14.89-4.896 2.021 1.437 1.438.868.868 1.152 1.153v-.001l14.736 14.736c-.203.399-.512.781-.962 1.117-1.359 1.018-2.5 1.535-3.393 1.535-.481 0-1.188-.135-1.757-1.299-.266-.541-.823-1.119-1.588-1.119-1.661 0-2.015 2.467-2.131 3.274-.066.452-.472 1.521-2.807 1.677-2.84.191-5.026 1.79-6.001 4.384-1.317 3.511-.516 9.473 5.687 15.675 3.97 3.971 8.357 6.156 12.353 6.158.001 0 .001 0 .002 0 4.232 0 7.326-2.589 7.697-6.441.236-2.443 1.346-2.789 1.679-2.837 1.299-.187 3.051-.586 3.26-1.905.113-.717-.318-1.43-1.104-1.815-.708-.348-1.116-.777-1.247-1.315-.224-.921.273-2.207 1.499-3.855.316-.423.681-.736 1.095-.95l12.43 12.43 2.245 2.245 2.023 2.023 1.437 1.437 2.023-4.896-14.825-14.824c.171-1.922 1.488-2.346 3.104-2.863.61-.195 1.24-.396 1.78-.697 2.716-1.507 4.253-3.404 4.565-5.64.495-3.535-2.21-6.96-4.302-9.181l11.197-12.06.428.428.777-1.17 1.313 1.313-.561.562 1.827.84.947-.949-.84-1.827-.561.561-1.477-1.478.805-1.212 3.014 3.015.813-.814-2.94-2.942.822-.146m-31.995 15.733c.174-.542.338-1.054.542-1.424 1.349-2.431 2.912-3.613 4.777-3.613 2.445 0 5.014 2.006 6.814 3.678l-10.751 9.985-4.496-4.496c2.028-.792 2.667-2.734 3.114-4.13m5.928 18.024l-3.26-3.26.814-.815.069.069.557-.6 4.504 4.504c-.369-.067-.758-.116-1.174-.116-.532 0-1.034.078-1.51.218m-13.408 4.67l8.005-8.006.738.738-8.005 8.005-.738-.737m4.792-10.742c.04-.115.067-.253.081-.396l.539.539-.459.459c.036-.209-.011-.43-.161-.602m.993.516l.736.736-8.004 8.006-.736-.736 8.004-8.006m2.584-1.111l-.814.814-.736-.736.814-.815.736.737m2.222 2.221l-.815.814-.737-.737.814-.815.738.738m-1.925-.295l-.739-.739.814-.815.739.739-.814.815m-1.772.294l.739.739-8.005 8.005-.738-.737 8.004-8.007m2.221 2.22l.54.54c-.144.014-.282.042-.398.082-.171-.15-.393-.197-.603-.161l.461-.461m-1.923-5.619l.068.069-.814.814-3.206-3.206c.259-.901.269-1.825.127-2.659l4.425 4.425-.6.557m-18.353-19.508l11.754 11.754-.53-.037.842 1.572c.038.07.527 1.014.583 2.146l-14.042-14.043 1.393-1.392m-4.485 27.423c.701-1.868 2.225-2.975 4.29-3.112 3.871-.261 4.516-2.635 4.621-3.359.074-.519.16-.886.238-1.141.964 1.614 2.303 1.97 3.292 1.97 1.998-.001 3.935-1.451 4.59-1.942.508-.38.889-.804 1.193-1.247l1.044 1.044c-2.612-.179-6.126 6.441-7.656 4.912-.382-.385-.284-.721-.179-.905.218.027.44-.028.605-.193.284-.285.284-.742 0-1.024-.282-.282-.739-.282-1.022 0-.239.242-.263.605-.092.884-.209.306-.612 1.089.113 1.813 2.482 2.483 7.122-6.042 8.702-4.461.103.102.112.254.097.387-.163.013-.323.074-.448.199-.282.282-.282.739 0 1.022.174.174.413.229.639.188l-6.973 6.975-.65-.65c0 0-1.237 2.065-1.518 2.814-.254.671-.294 2.169-.64 2.796-.854 1.543-4.212 4.536-5.741 5.856-4.871-5.261-5.509-10.153-4.505-12.826m26.38 1.829c-.584.786-2.363 3.177-1.808 5.462.24.991.867 1.792 1.865 2.387-.256.078-.623.163-1.143.237-.693.101-2.983.727-3.357 4.596-.277 2.877-2.477 4.663-5.739 4.663h-.001c-1.912 0-5.714-.665-10.26-4.908 1.319-1.528 4.314-4.892 5.857-5.745.628-.348 2.127-.388 2.797-.642.75-.28 2.814-1.518 2.814-1.518l-.65-.65 6.974-6.975c-.041.225.014.464.188.638.282.284.74.284 1.024 0 .123-.123.185-.284.197-.445.131-.018.283-.006.385.094 1.583 1.581-6.941 6.225-4.459 8.709.725.724 1.508.32 1.813.111.278.171.642.147.882-.095.284-.282.284-.739 0-1.021-.282-.282-.74-.284-1.022 0-.165.165-.221.39-.193.604-.185.108-.521.208-.903-.177-1.529-1.53 5.091-5.045 4.91-7.659l1.1 1.1c-.471.323-.897.734-1.271 1.234m4.436-.135c1.159.068 2.133.574 2.141.579l1.578.858-.039-.544 11.684 11.683-1.394 1.393-2.246-2.246h-.001l-11.723-11.723m11.096-10.733c-.223 1.591-1.425 3.001-3.573 4.192-.37.206-.882.37-1.425.544-1.408.451-3.341 1.087-4.128 3.112l-4.557-4.557 9.986-10.754c1.829 1.957 4.068 4.817 3.697 7.463"/></svg>