<svg xmlns="http://www.w3.org/2000/svg" viewBox="0 0 64 64" enable-background="new 0 0 64 64"><path d="m58.384 8h-52.77c-1.995 0-3.614 2.011-3.614 4.493v39.012c0 2.482 1.619 4.495 3.614 4.495h52.77c1.997 0 3.616-2.013 3.616-4.495v-39.012c0-2.482-1.619-4.493-3.616-4.493m-36.738 44.584c-.378 0-.756 0-1.134 0-.346-2.755-3.79-5.034-7.802-5.032-4.005-.002-6.753 2.276-5.885 5.032-.379 0-.756 0-1.134 0-4.21-13.379-4.21-27.792 0-41.17.262 0 .523 0 .785 0-.45 1.478-.852 2.969-1.203 4.468 5.02 0 10.04 0 15.059 0 .154-1.499.33-2.99.526-4.468.263 0 .524 0 .787 0-1.657 13.378-1.657 27.791.001 41.17m18.331 0c-.378 0-.755 0-1.132 0 .262-2.755-2.839-5.034-6.845-5.032-4.008-.002-7.106 2.276-6.845 5.032-.378 0-.755 0-1.133 0-1.276-13.379-1.276-27.792 0-41.17.263 0 .524 0 .787 0-.128 1.478-.24 2.969-.339 4.468 5.019 0 10.04 0 15.059 0-.099-1.499-.213-2.99-.339-4.468.262 0 .523 0 .786 0 1.276 13.378 1.276 27.791.001 41.17m18.332 0c-.378 0-.755 0-1.134 0 .868-2.755-1.882-5.034-5.887-5.032-4.01-.002-7.458 2.276-7.8 5.032-.378 0-.756 0-1.134 0 1.657-13.379 1.657-27.792 0-41.17.262 0 .523 0 .786 0 .197 1.478.373 2.969.525 4.468 5.021 0 10.039 0 15.061 0-.352-1.499-.753-2.99-1.205-4.468.263 0 .524 0 .787 0 4.211 13.378 4.211 27.791.001 41.17"/><path d="m56.234 26.942c-.046.033-.142.099-.234.159-.334-.238-.923-.632-2.077-1.028-.679-.233-1.413-.352-2.183-.352-1.478 0-2.828.434-3.736.819-.171-.185-.412-.299-.678-.299h-1.354c-.518 0-.938.433-.938.969v5.543c0 .536.42.968.938.968h1.354c.415 0 .779-.282.898-.692.1-.345.397-1.391 2.504-1.391.034 0 .071 0 .105.001-2.779 2.909-3.319 6.395-3.344 6.566-.042.278.037.563.217.776.178.213.438.336.71.336h6.634c.519 0 .938-.433.938-.969 0-6.042 3.45-9.594 3.727-9.868.197-.179.322-.439.322-.73 0-.535-.418-.969-.936-.969h-.004-2.346c-.182.001-.363.057-.517.161m-1.183 11.408h-6.634c0 0 .659-4.518 4.609-7.357 0 0-1.071-.322-2.298-.322-1.364 0-2.921.398-3.402 2.084h-1.354v-5.543h1.354v.74c0 0 2.047-1.262 4.414-1.262.617 0 1.257.086 1.887.303 1.807.623 1.986 1.17 2.336 1.17.163 0 .364-.121.789-.411h2.346c0-.001-4.047 3.837-4.047 10.598"/><path d="m38.564 26.782h-.004-2.346c-.183 0-.364.056-.518.16-.046.033-.142.099-.234.159-.334-.238-.923-.632-2.077-1.028-.679-.233-1.413-.352-2.183-.352-1.478 0-2.828.434-3.736.819-.171-.185-.412-.299-.678-.299h-1.354c-.518 0-.938.433-.938.969v5.543c0 .536.42.968.938.968h1.354c.415 0 .779-.282.898-.692.1-.345.397-1.391 2.504-1.391.034 0 .071 0 .105.001-2.779 2.909-3.319 6.395-3.345 6.566-.041.278.038.563.218.776.178.213.438.336.71.336h6.634c.519 0 .938-.433.938-.969 0-6.042 3.45-9.594 3.727-9.868.197-.179.322-.439.322-.73.001-.534-.417-.968-.935-.968m-4.05 11.568h-6.634c0 0 .659-4.518 4.609-7.357 0 0-1.071-.322-2.298-.322-1.364 0-2.921.398-3.402 2.084h-1.354v-5.543h1.354v.74c0 0 2.047-1.262 4.414-1.262.617 0 1.257.086 1.887.303 1.807.623 1.986 1.17 2.336 1.17.163 0 .364-.121.789-.411h2.346c0-.001-4.047 3.837-4.047 10.598"/><path d="m18.027 26.782h-.004-2.346c-.183 0-.364.056-.518.16-.046.033-.144.099-.234.159-.334-.238-.923-.632-2.077-1.028-.679-.233-1.413-.352-2.185-.352-1.476 0-2.828.434-3.734.819-.171-.185-.412-.299-.678-.299h-1.353c-.518 0-.938.433-.938.969v5.543c0 .536.42.968.938.968h1.354c.415 0 .779-.282.898-.692.098-.345.397-1.391 2.504-1.391.034 0 .071 0 .105.001-2.779 2.909-3.319 6.395-3.345 6.566-.041.278.038.563.218.776.178.213.438.336.71.336h6.634c.517 0 .938-.433.938-.969 0-6.042 3.45-9.594 3.727-9.868.197-.179.322-.439.322-.73 0-.534-.418-.968-.936-.968m-4.05 11.568h-6.634c0 0 .659-4.518 4.609-7.357 0 0-1.071-.322-2.298-.322-1.364 0-2.921.398-3.402 2.084h-1.354v-5.543h1.354v.74c0 0 2.047-1.262 4.412-1.262.619 0 1.259.086 1.889.303 1.807.623 1.986 1.17 2.336 1.17.163 0 .364-.121.789-.411h2.346c-.001-.001-4.047 3.837-4.047 10.598"/></svg>