<svg xmlns="http://www.w3.org/2000/svg" viewBox="0 0 64 64" enable-background="new 0 0 64 64"><path d="m43.3 19.355c-.894-.524-1.767-.789-2.457-.789-.686 0-1.188.265-1.34.789-.31 1.049.896 2.749 2.686 3.798.896.526 1.768.788 2.456.788.686 0 1.188-.262 1.344-.788.307-1.049-.897-2.749-2.689-3.798"/><path d="m29.13 48.144c-.645-.231-1.554-.277-2.576-.084-2.04.391-3.744 1.591-3.807 2.682-.032.545.354.962 1.002 1.191.647.231 1.557.275 2.576.081 2.041-.388 3.746-1.587 3.809-2.681.032-.545-.354-.961-1.004-1.189"/><path d="m39.002 45.923c-.646-.229-1.558-.277-2.576-.082-2.039.389-3.742 1.586-3.805 2.68-.03.546.355.961 1.002 1.191s1.558.275 2.576.083c2.043-.39 3.742-1.588 3.807-2.681.028-.546-.356-.96-1.004-1.191"/><path d="m48.466 43.989c-.645-.229-1.558-.275-2.578-.081-2.037.389-3.742 1.587-3.803 2.681-.03.545.354.961 1.002 1.191.646.23 1.558.275 2.578.081 2.041-.389 3.742-1.587 3.805-2.679.03-.547-.356-.962-1.004-1.193"/><path d="m21.38 26.28c-.54.424-1.065 1.17-1.449 2.136-.762 1.932-.66 4.01.227 4.647.446.318 1.004.217 1.544-.207.543-.424 1.068-1.17 1.45-2.135.762-1.931.661-4.012-.227-4.649-.445-.318-1.004-.217-1.545.208"/><path d="m10.38 22.931c-.543.424-1.068 1.168-1.45 2.134-.764 1.931-.663 4.012.229 4.647.442.319 1 .216 1.543-.208.54-.424 1.065-1.169 1.447-2.135.764-1.93.662-4.011-.227-4.649-.444-.317-1.002-.215-1.542.211"/><path d="m61.692 35.723l-6.555-19.768c-.99-2.986-4.104-6.103-7.092-7.093l-19.77-6.555c-1.234-.409-2.343-.407-3.197-.004-.924.251-1.98.649-3.062 1.153-1.479.689-3.303 1.736-4.077 2.647-.084.073-.169.149-.253.233l-13.259 13.262c-2.061 2.06-2.978 5.98-2.087 8.925l5.762 19.084c.105.349.235.678.387.979.464 1.412 2.366 3.391 2.95 3.975.586.585 2.568 2.492 3.98 2.955.3.149.629.279.976.384l19.083 5.762c.74.225 1.553.338 2.418.338.001 0 0 0 .001 0 2.479 0 5.032-.952 6.504-2.424l13.262-13.263c.084-.084.16-.168.234-.253.912-.777 1.959-2.601 2.646-4.075.507-1.087.905-2.146 1.156-3.071.404-.859.402-1.959-.007-3.191m-50.183 14.044c-.727-.884-1.112-1.539-1.189-1.811l-.074-.184c-.112-.216-.211-.459-.29-.724l-5.764-19.085c-.679-2.245.055-5.449 1.603-6.996l13.262-13.263c.068-.069.14-.129.209-.189l.128-.134c.226-.286.839-.752 1.719-1.27.839.265 1.553 1.057 1.94 2.343l5.762 19.085c.784 2.593-.042 6.159-1.845 7.962l-13.26 13.262c-.722.721-1.488 1.034-2.201 1.004m45.107-5.16l-.137.133c-.059.068-.117.137-.186.205l-13.26 13.263c-1.11 1.11-3.175 1.855-5.136 1.855h-.001c-.675 0-1.301-.085-1.859-.254l-19.083-5.762c-.264-.08-.507-.178-.724-.291l-.185-.072c-.271-.076-.926-.463-1.81-1.19-.031-.714.28-1.479 1.003-2.202l13.259-13.261c1.804-1.804 5.368-2.63 7.962-1.846l19.083 5.763c1.288.389 2.08 1.104 2.344 1.943-.516.878-.984 1.489-1.27 1.716m3.314-6.48l-.076.2c-.094.357-.223.753-.372 1.163-.537.103-1.197.047-1.962-.207l-19.769-6.555c-2.688-.89-5.59-3.792-6.478-6.479l-6.555-19.769c-.253-.765-.31-1.424-.207-1.962.408-.147.801-.276 1.157-.37l.203-.079c.173-.09.396-.136.663-.136.332 0 .713.071 1.134.21l19.769 6.555c2.388.792 5.072 3.478 5.863 5.865l6.556 19.768c.248.754.276 1.407.074 1.796"/></svg>