<svg xmlns="http://www.w3.org/2000/svg" viewBox="0 0 64 64" enable-background="new 0 0 64 64"><path d="m21.841 12.898c-.512.074-.574.684-.471 1.415.104.729.334 1.301.846 1.229.513-.073.843-.725.738-1.453-.102-.732-.6-1.264-1.113-1.191"/><path d="m31.432 15.176c-.846-2.212.956-4.181.956-4.181-1.185.169-2.197 1.56-1.996 2.984.141.988 1.04 1.197 1.04 1.197"/><path d="m54.541 48.05l-11.012-2.023-2.859-4.617-2.99-13.35 4.986-.374 1.799 3.548c-.26.206-.473.462-.615.764-.252.532-.273 1.124-.061 1.672l.314.808c.232.594.707 1.048 1.299 1.272.938 1.606 2.211 1.959 3.148 1.959.484 0 1.002-.094 1.539-.279 1.27-.436 1.844-1.171 2.102-1.711.365-.765.363-1.637-.01-2.593-.873-2.242-1.355-3.479-2.924-3.479-.035 0-.074.01-.109.01l-2.746-5.426c-.602-1.171-1.764-1.271-2.611-1.281-1.582.022-5.82.192-7.197.251l-1.351.231-.686-4.824c2.656-4.298 3.361-9.415.898-13.594-.975-1.654-5.698-5.021-12.96-1.396-2.726 1.363-3.667 4.231-3.059 5.754-.775 1.93-.58 3.875-.465 4.931l.018.168c-.069.17-.305.568-1.088 1.496-.838.992-.511 1.853-.332 2.176.427.773 1.38 1.141 2.192 1.229.03.293.125.698.501 1.003.069.056.142.103.215.141-.038.195-.039.398.002.601.082.379.326.83.987 1.113.06.604.256 1.327.846 1.859.617.558 1.488.758 2.597.602.827-.118 1.833-.459 3.005-.987.058.329.063.657.052.975l-1.461.25c-.559.079-1.055.323-1.434.706l-4.119 4.191-3.969-1.331c.025-.313-.01-.634-.125-.939-.213-.556-.639-.995-1.201-1.239l-.826-.362c-.303-.134-.625-.202-.957-.202-.305 0-.607.06-.889.171-.473-.134-.914-.198-1.338-.198-1 0-2.375.373-3.244 2.156-.563 1.136-.436 2.035-.227 2.589.301.804.957 1.431 1.947 1.863 1.574.691 2.441 1.072 3.225 1.072.656 0 1.117-.245 1.498-.651l6.025 2.018c1.057.351 2.113.099 2.902-.688.566-.56 1.758-1.872 2.572-2.777l.768 9.922-7.787 5.104-2.33 11.399c-.232-.043-.447-.059-.676-.059-1.689 0-3.197 1.127-3.531 2.75l8.404 1.547c.115.018.232.029.344.029.848 0 1.604-.564 1.77-1.381l2.16-10.457 7.219-4.594h2.258l4.457 6.239 12.076 2.198c-.381 1.845.902 3.61 2.854 3.969l1.637-7.931c.188-.92-.448-1.814-1.427-1.993m-32.28 12.368c-.066.317-.371.548-.725.548-.047 0-.098-.006-.145-.014l-7.091-1.305c.467-.578 1.207-.942 2.021-.942.164 0 .332.015.496.044l5.574 1.025-.13.644m26.997-29.736c.83 0 1.113.725 1.928 2.81.846 2.172-1.102 2.844-1.455 2.966-.439.151-.832.218-1.18.218-1.328 0-2.02-.974-2.418-1.808-.453-.044-.861-.322-1.031-.755l-.314-.811c-.234-.599.09-1.263.727-1.481l1.781-.615c.921-.317 1.518-.524 1.962-.524m-5.449-6.7c1.049-.011 1.416.271 1.639.706l2.617 5.174c-.332.1-.693.221-1.127.371l-1.525.523-2.104-4.154-5.855.438-.631-2.815c1.536-.064 5.48-.221 6.986-.243m-19.051-.35c-2.229.316-2.28-1.25-2.24-2.229-2.015-.25-.505-1.503.296-2.064-.179.153-.415.373-.643.611-.524.55-.28.889.682.222.455-.313 1.521-1.548 1.521-1.548s-2.008.834-2.977.973c-.921.131-.338-.545-.813-1.333-.06.021-.128.036-.204.046-.876.124-2.66-.473-1.666-1.653.485-.571 1.398-1.665 1.346-2.187-.103-1.062-.445-3.369.734-5.429 1.354-.763 3.597-1.816 5.229-1.518 2.823.516 1.407 3.706 2.743 5.872l.486-.068c1.13-4.896 4.985-3.661 4.758-.153-.267 4.13-2.279 3.548-2.279 3.548s-.249 3.9-2.285 5.023c-2.163 1.191-3.657 1.74-4.688 1.887m7.833-5.358c.327.359.669.614.952.77l.648 4.567-3.714.636c1.187-1.694 2.049-4.059 2.114-5.973m-19.242 14.095c-.553 0-1.357-.354-2.785-.98-2.225-.972-1.354-2.749-1.195-3.067.588-1.207 1.441-1.565 2.279-1.565.51 0 1.016.133 1.449.289.219-.169.494-.261.777-.261.174 0 .35.034.516.108l.832.365c.611.266.879.954.598 1.533l-.797 1.626c-.666 1.36-.959 1.952-1.674 1.952m14.768 8.007l-.898-11.628-.84.943c-.025.027-2.504 2.813-3.365 3.669-.508.502-1.129.654-1.795.432l-5.748-1.925c.17-.306.336-.644.516-1.008l.678-1.379 4.59 1.537 4.59-4.671c.268-.271.592-.365.834-.398l9.079-1.615 3.592 16.043h-11.233m26.803 9.464l-1.387 6.719c-.25-.171-.469-.384-.641-.635-.359-.517-.488-1.131-.363-1.735l1.082-5.257.73.133c.201.036.369.144.479.3.1.142.135.311.1.475"/></svg>