<svg xmlns="http://www.w3.org/2000/svg" viewBox="0 0 64 64" enable-background="new 0 0 64 64"><path d="m10.213 18.436c.661-.804.268-2.783.268-2.783s-1.298 1.025-1.886 3.179c0-.001.959.405 1.618-.396"/><path d="m4.339 25.691c-.068.526.375 2.866.846 1.349.468-1.519-.846-1.349-.846-1.349"/><path d="m59.183 48.074c-.767-.482-1.81-1.303-2.852-2.592.074-1.691-.677-2.786-.787-2.933l-.321-.43-.526-.119c-.164-.038-.334-.058-.503-.084-.439-1.002-.834-2.135-1.146-3.436l-.225-.939c.459-1.871.382-3.822-.107-5.523 1.978-.075 3.832.434 2.822 2.935-2.13 5.275 6.462 9.69 6.462 9.69s-4.725-7.389-1.146-12.885c2.139-3.285-4.744-5.207-9.413-2.502-1.147-1.695-2.776-2.77-4.644-3.041 1.131-1.705 1.094-3.555-.025-5.929l.105-.099-.287-.303-.182-.36-.121.054c-1.178-1.152-6.408-5.877-12.717-5.562l-.467-1.142c.594-.728.959-1.737.976-2.977.644.03 1.062-.087 1.077-.479.162-3.932-3.026-7.249-7.12-7.414-4.094-.163-7.545 2.89-7.709 6.821 0 .018.01.029.012.046-.001.001-.004.001-.006.002-.505.362-1.886 1.555-1.878 2.187-1.513-.575-3.206-.93-5.11-.955-1.235-2.137-2.621-3.121-2.621-3.121-.088.539-.119 1.018-.129 1.458-.962-.534-1.683-.7-1.818-.727l-1.625-.314-.115 1.637c-.129 1.836.344 3.461.629 4.246-.586 2.084-2.944 6.899-4.248 9.563-.736 1.503-1.127 2.307-1.275 2.69-.773 2.005 1.789 4.024 3.385 5.05l.492.316.576-.108c.241-.045.449-.126.631-.223.188.227.438.399.725.495.191.063.391.097.593.097 1.05 0 1.729-.813 2.386-1.599.447-.535.953-1.141 1.473-1.423 1.102-.598 2.018-1.196 2.753-1.802-.303.868-.683 1.58-.776 1.751-2.148 3.902-1.019 8.992-.346 11.229-1.953 1.063-5.063 1.835-6.256 2.069l-.971.19-.184.964c-2.015 10.555 1.956 14.407 4.501 15.765 1.376.731 2.518.844 2.644.854l1.396.117.179-1.378.549-4.245.216-1.673-1.701.039c-.077 0-.691-.005-1.33-.175-.479-.128-1.08-.369-1.234-.808-.307-.869-.019-2.893.369-4.541.564.038 1.123.059 1.674.059.806 0 1.568-.048 2.305-.119-.103.121-.186.215-.24.271-1.077 1.122-.986 2.245-.838 2.815.311 1.182 1.337 1.992 2.158 2.244.525.159 3.803.491 9.746.989l.606.05.464-.391c.008-.006 1.05-.868 2.299-1.351.525-.203.994-.305 1.396-.305.068 0 .137.003.205.01l2.532.244-1.06-2.293c-.138-.298-1.41-2.948-3.439-3.957l-.768-.382-.711.478c-.025.018-.628.423-1.382.986-.448.336-1.026.785-1.562 1.252l-.445-.129c.896-.934 2.277-2.171 4.162-3.394.471-.033.951-.055 1.447-.055.58 0 1.156.031 1.734.072-.59.42-.93.755-1.002 1-.219.725.332 1.272.938 1.474l.102.021c.029.004.733.085 1.844.085 1.05 0 2.571-.078 4.227-.398 2.396 3.127 5.428 3.869 7.733 3.869 1.251 0 2.421-.212 3.405-.483-1 5.083.568 8.65 1.727 10.463.803 1.252 1.546 1.916 1.627 1.988l.442.389.59-.026c2.525-.111 3.174-3.599 3.313-4.664l.107-.829-.669-.508c-.323-.244-.606-.505-.843-.771-.686-.769-1.025-1.619-1.143-2.507.435.422.88.837 1.352 1.228.78.653 1.607 1.241 2.451 1.743l1.471.873.639-1.577c.037-.091.893-2.228.955-4.697l.027-1.118-1.084-.312c0-.001-.629-.195-1.522-.761m-6.607-6.237c-.121.004-.246.005-.365.01-.215.009-.428.02-.641.02-.327 0-.645-.018-.996-.141.545-.566.972-1.192 1.334-1.843.201.697.426 1.345.668 1.954m-7.926-14.707c-2.189 1.916-7.857 3.929-7.914 3.949l-.573.202.313.513c.977 1.603 1.287 2.574 1.387 3.035-.369.282-1.186.726-2.68.904-.082-.158-.179-.332-.291-.532-.67-1.198-1.791-3.202-1.246-4.518 1.077-2.583 6.267-6.974 6.845-7.457l5.441-2.414c1.422 3.087.601 4.673-1.282 6.318m-11.254-.098c.217-.172 1.793-1.023 3.566-1.963-.75.723-1.536 1.525-2.243 2.338-.26.013-.514.021-.755.021-.34 0-.641-.014-.924-.033.106-.137.222-.248.356-.363m-.652-.744c-.327.279-.579.557-.784.972-.487-.096-.841-.229-1.116-.376l3.293-4.899 4.657 1.009c-2.147 1.118-5.679 2.978-6.05 3.294m-.369-12.691l.383 1.068c-.063.099-.451.523-.539.65.05-.204.132-1.506.156-1.718m1.355 1.387c5.374-.26 10.072 3.646 11.571 5.03l-5.135 2.277-6.485-1.413-3.728 5.545h-6.833c.028-.24.047-.503.048-.813l.005-.747c1.405-.138 3.903-.302 5.599-.397l.381-.021 1.349-6.258c1.784-.949 2.859-2.573 3.228-3.203m-5.71 5.689c-.343-.712-.737-1.457-1.195-2.209.173.041.354.067.549.067.619 0 1.296-.213 2.144-.522l-.264 1.225-1.234 1.439m.794.599l-.173.801c-.058-.138-.103-.263-.165-.406l.338-.395m.62-12.241c.079.015.161.033.239.049-.068.356-.043.743.119 1.096.273.594.877.556.877.556-.387-.503-.481-1.059-.466-1.544.647.134 1.298.276 1.911.405.006.013.006.023.01.036l-1.059 2.86-2.114-3.02c.132-.138.298-.288.483-.438m-1.682.468l2.735 3.909.525 2.504c0 0-.92.775-1.273.964-.541.29-1.796.673-2.366.673-.571 0-.954-.283-1.247-1.027-.294.206-.817.257-1.027.186-.34-.115-.271-.495-.115-.854.157-.25.318-.472.424-.604-.084.13-.192.312-.29.503-.226.443-.01.61.47.013.227-.28.665-1.255.665-1.255s-1.3 1.009-2.003 1.04c-.248.011-.245-.377-.631-.765-.145.091-.404.146-.67.146-.546 0-1.118-.236-.775-.882.229-.43.658-1.249.549-1.567-.146-.427-.545-.829-.788-1.496 1.917-.43 4.266-1.059 5.817-1.488m-6.807 1.697c.171.521.414.908.611 1.216.058.092.117.185.16.263-.009.029-.023.068-.039.109-.713-.503-1.478-.959-2.307-1.343.392-.03.932-.117 1.575-.245m-12.448-2.057c0 0 1.921.372 3.769 2.581 0 0 .609-.157 1.615-.157 1.652 0 4.375.452 7.211 2.696-.037.393.076.7.184.872.297.482.881.759 1.604.776 1.633 1.762 3.232 4.234 4.631 7.649-1.301.079-3.225.207-4.48.334-.083-.184-.197-.354-.346-.501-.32-.315-.747-.49-1.203-.49l-.518-.002h-.004-.006c-.438 0-.846.16-1.152.438-1.15.213-1.883.927-2.051 1.992-.271-.054-.543-.104-.811-.166.143-1.015.063-2.021-.477-2.825.002-.002.006-.007.006-.008-.666-1.442-1.224-2.8-2.088-4.031-.818-1.17-1.725-2.232-2.684-3.164-.985-.954-2.049-1.535-2.504-1.955.004.002-.064.294-.143.565.061-.207.109-.398.143-.565.002.001-.851-1.849-.696-4.039m13.676 15.42l-.006 1.046c-.007 1.465-.007 1.55-1.73 1.55-.104 0-.216-.001-.334-.001-1.395-.004-1.389-1.149-1.389-1.354.006-1.251.918-1.493 1.613-1.539.113-.226.352-.38.627-.38.001 0 .003 0 .004 0l.521.002c.386-.001.696.302.694.676m-15.851 4.812c0 0-3.279-2.107-2.813-3.316.434-1.131 4.537-8.951 5.523-12.247-.014.049-.028.1-.043.144.436.408 1.389.907 2.211 1.701.516.5 1.088 1.163 1.684 1.979-.545.773-2.193 2.877-6.271 6.649-.627-.815-1.194-1.358-1.517-1.542l-.308.63c.229.137.455.294.89.726.622.618 1.77 2.313 2.435 4.146.082-.04.225-.043.355-.035-1.308.077-1.503 1.044-2.146 1.165m5.378-2.5c-1.495.81-2.415 2.844-3.156 2.844-.042 0-.084-.008-.125-.021-.373-.123.466-1.236.346-1.455.002 0 .015.002.015.002-.494-1.343-1.127-2.474-1.742-3.371.719-.664 1.342-1.261 1.921-1.826.593.271 1.712.754 3.382 1.36.692.253 1.37.476 2.038.681-.633.546-1.495 1.143-2.679 1.786m3.179-2.255c-.844-.25-1.636-.513-2.323-.764-1.488-.541-2.524-.979-3.143-1.255 2.221-2.2 3.371-3.606 3.908-4.339.859 1.263 1.754 2.82 2.6 4.669-.11.466-.404 1.034-1.042 1.689m7.726 23.125l3.378.983c.519-.514 1.22-1.079 1.851-1.56.509.559 1.153 1.42 1.774 2.657-1.392.591-2.47 1.491-2.47 1.491s-8.802-.737-9.436-.929c-.633-.194-1.951-1.365-.692-2.676.306-.317.759-.891 1.267-1.563 1.789-.328 3.424-.806 5.021-1.278.982-.291 1.914-.565 2.875-.804-2.453 2.006-3.568 3.679-3.568 3.679m8.156-5.668c-1.594 0-3.204.154-4.834.555-3.828.939-7.26 2.479-12.043 2.479-.875 0-1.797-.052-2.773-.168 0 0-1.364 4.554-.65 6.578.352 1.002 1.332 1.491 2.234 1.729.02.005.037.007.055.012-.266.855-.63 2.207-.877 3.798-.019-.009-.035-.016-.054-.025-2.329-1.241-5.575-4.695-3.759-14.217 0 0 5.318-1.04 7.719-2.887 0 0-2.598-6.633-.115-11.141.438-.798.929-1.901 1.181-3.036.302.068.59.12.882.176.059 1.344.973 2.205 2.375 2.209l.336.001c1.303 0 2.006-.175 2.373-.73h6.357c.512.645 1.871 2.637.722 4.401-1.284 1.971.96 5.011 4.607 5.897l.254 1.354c-.124.84-.404 1.941-1.021 3.187-.986-.099-1.973-.172-2.969-.172m3.616 3.12c-.861 0-1.469-.052-1.662-.071-.091-.039-.298-.138-.281-.204.218-.347 2.064-1.452 3.648-2.278l.324-.169-1.069-5.7c.697-.005 1.835-.13 2.796-.74l.751 8.688c-1.759.389-3.404.474-4.507.474m20.445 10.818c-.369.815-1.078 2.053-2.17 2.752-1.329-2.123-2.828-6.155-.723-12.012 0 0-2.544 1.445-5.593 1.445-2.126 0-4.493-.724-6.418-3.111l-.653-7.519c.442-.129.889-.279 1.34-.479 3.604-1.597 1.927-4.935 1.742-7.34 1.139-.583 2.223-1.231 2.967-1.883.104-.09.182-.182.277-.272.094-.005.188-.017.279-.017 1.854.001 3.363 1.009 4.379 2.514 0 .001-.002.001-.002.002.416.618.75 1.32.989 2.07 0 0 .001 0 .002 0 1.042 3.268.31 7.456-3.059 9.665 1.317 1.288 2.352 1.49 3.39 1.49.475 0 .951-.042 1.456-.042.422 0 .864.029 1.342.139 0 0 .929 1.241.29 3.168-.569 1.731-2.645 6.093.165 9.43m2.525-3.076c-.052-.043-.108-.08-.161-.125-.805-.668-1.533-1.404-2.225-2.157.17-.988.498-1.98.842-2.923.063-.171.109-.31.162-.454.867.907 1.717 1.572 2.431 2.022.054.033.102.061.153.092-.334 1.64-.795 2.778-1.202 3.545"/><path d="m24.221 12.981c.308-.142.393-.612.192-1.05-.202-.438-.615-.678-.922-.537-.307.142-.232.537-.031.976.203.438.454.753.761.611"/></svg>