<svg xmlns="http://www.w3.org/2000/svg" viewBox="0 0 64 64" enable-background="new 0 0 64 64"><path d="m57.264 2l-.811 1.221c-.086.127-1.912 2.75-4.903 2.858.26-1.33.471-2.692.626-4.079h-40.352c.155 1.387.366 2.749.626 4.08-2.993-.108-4.819-2.731-4.905-2.858l-.809-1.222-4.736 5.212.891.945c.054.058 5.379 5.815 5.379 15.906 0 4.825 1.561 6.624 2.869 7.284.486.244 1.008.365 1.547.365 1.23 0 2.551-.624 3.748-1.813 1.598-1.588 2.91-4.202 3.817-6.392 2.271 2.652 4.881 4.57 7.698 5.524v16.588c-6.676 2.061-11.599 8.381-11.599 8.381v2h-4.533v6h40.367v-6h-4.535v-2c0 0-4.924-6.322-11.6-8.38v-16.587c2.818-.953 5.429-2.872 7.7-5.524.907 2.189 2.22 4.804 3.817 6.391 1.195 1.188 2.518 1.812 3.746 1.812.541 0 1.063-.119 1.549-.365 1.309-.658 2.867-2.458 2.867-7.284 0-10.091 5.324-15.849 5.379-15.905l.893-.947-4.736-5.211m-42.401 25.916c-.99.982-2.045 1.371-2.754 1.014-.936-.473-1.473-2.246-1.473-4.866 0-8.798-3.607-14.599-5.287-16.821l1.207-1.329c1.168 1.228 3.414 2.998 6.49 2.816 1.222 4.811 3.118 9.112 5.496 12.551-.797 2.111-2.105 5.073-3.679 6.635m27.137 32.584h-20v-3h20v3m-.006-7.604h-20c-.001 0 3.354-5.826 10.005-5.826 6.634 0 9.996 5.826 9.995 5.826m-12.045-7.746v-15.609c.675.113 1.358.177 2.051.177.691 0 1.375-.063 2.049-.177v15.609c-.672-.107-1.353-.184-2.049-.184-.697.001-1.378.077-2.051.184m2.051-18.095c-9.448 0-13.021-12.153-14.5-22.392h29c-1.479 10.238-5.052 22.392-14.5 22.392m21.363-2.993c0 2.621-.537 4.395-1.473 4.866-.711.359-1.766-.029-2.754-1.012-1.572-1.563-2.883-4.523-3.68-6.634 2.379-3.439 4.275-7.741 5.497-12.552 3.077.18 5.32-1.588 6.487-2.817l1.207 1.328c-1.676 2.223-5.284 8.024-5.284 16.821"/></svg>