<svg xmlns="http://www.w3.org/2000/svg" viewBox="0 0 64 64" enable-background="new 0 0 64 64"><path d="m55.131 25.669c.284-.051.567-.101.852-.15.196-.033.392-.076.565-.166.201-.096.34-.249.467-.414.128-.16-.146-.331-.273-.172-.109.143-.193.244-.354.32-.15.076-.32.103-.488.133-.277.048-.554.096-.829.146-.213.035-.15.339.06.303"/><ellipse cx="38.514" cy="27.585" rx=".509" ry=".436"/><ellipse cx="31.278" cy="26.585" rx=".508" ry=".436"/><path d="m30.833 28.042c-1.829-1.399-2.667-2.913-2.667-2.913s.167 2.071 2.667 2.913"/><path d="m49.151 26.65c-2.201.818-4.03.774-4.03.774s2.034.86 4.03-.774"/><circle cx="34.885" cy="12.138" r="1.28"/><circle cx="41.104" cy="12.858" r="1.28"/><path d="m39.736 16.909c.129-.183.012-.409-.159-.307-1.427.867-2.878.691-4.063-.471-.144-.14-.309.056-.225.263.313.772 1.039 1.514 2.063 1.633 1.027.119 1.904-.437 2.384-1.118"/><path d="m47.14 37.825c-1.247-1.183-3.858-2.115-7.841-2.771-.111-.179-.189-.362-.209-.415l-.142-.388c.001 0 .002 0 .003 0 .233-1.736.709-2.331 1.291-3.028.615-.737 1.299-1.558 1.787-3.435 1.527.579 4.289 1.579 6.041 1.94.598.144 1.382.22 2.301.22 1.338 0 2.777-.159 3.907-.323.563.579 1.312.579 1.604.579.574 0 1.324-.114 2.362-.271 1.007-.154 1.758-.565 2.235-1.221.313-.432.649-1.181.468-2.295-.296-1.733-1.431-2.715-3.207-2.793-.26-.313-.657-.53-1.18-.53-.099 0-.206.008-.322.027l-1.422.273-.024.005-.024.006c-.868.213-1.478.891-1.592 1.689-.031 0-.063 0-.094 0-.539 0-1.061-.072-1.565-.142-.476-.065-.925-.127-1.366-.127-.069 0-.139.001-.205.005-.986-1.043-3.055-1.888-4.461-2.319-.537-.571-2.006-1.942-3.962-2.224-.364-.052-.691-.082-.981-.108-.201-.018-.432-.039-.601-.065 2.146-.686 4.555-2.186 5.329-4.504.751-.069 1.794-.483 1.994-2.204.103-.887-.021-1.514-.381-1.917-.152-.172-.352-.29-.573-.359.565-5.606-.647-8.171-7.047-8.972-6.45-.808-8.502 1.479-9.265 7.138-.479.116-1.07.551-1.234 1.967-.154 1.336.354 2.247 1.437 2.603.198 2.052 1.729 3.888 3.426 5.114-.239.088-.525.136-.889.136-.316 0-.643-.029-.957-.058-.142-.013-.278-.025-.407-.034-.241-.017-.475-.025-.699-.025-2.998 0-5.019 1.452-6.01 4.316-1.012.888-1.889 1.928-2.674 3.173l-.188.292c-.723 1.127-1.346 2.101-1.331 4.511.009 1.141.006 2.812.003 3.816-1.049.582-.955 1.85-.824 3.613.127 1.678 1.26 2.72 2.955 2.72.12 0 .215-.006.272-.009 1.003-.061 1.78-.414 2.307-1.006.116 1.16.671 2.352 2.028 3.624.016.123.021.331.026.479.017.581.063 1.341.464 1.993-7.48 2.664-16.069 5.003-25.703 6.479v9h60v-34c0 0-5.195 4.515-14.86 9.825m6.062 12.573c0 .281-.15.635-.249 1-.729.096-1.747.23-2.967.391-.285-.389-.503-.755-.52-1.074-.016-.318.006-.619.056-.91 2.33.049 3.68.266 3.68.593m-2.409-7.848c.059 1.841-.592 3.13-1.222 4.378-.581 1.15-1.181 2.34-1.103 3.84.041.815.627 1.538 1.246 2.304.394.486.801.989 1.045 1.5-.406.29-1.862.729-2.863.729-.264 0-.363-.035-.369-.035 0 0 0 0 0 .001-1.023-.728-1.279-1.91-.855-3.953.285-1.38.078-2.483-.089-3.37-.196-1.041-.325-1.729.298-2.473l.535-.639-.816-.172c-.498-.104-1.917-.527-2.461-1.161-.094-.245.074-1.552.686-2.695.322-.603.686-.999 1.035-1.132 2.839.775 4.868 2.412 4.933 2.878m-22.172 11.7c.012-.084.154-.32.258-.492.264-.438.623-1.035.695-1.779.052-.542.082-1.07.115-1.621.098-1.67.207-3.563.994-6.646.32-1.258 1.23-2.008 2.436-2.008.87 0 1.697.409 2.105 1.043.359.557.373 1.241.039 1.979-.424.936-.998 1.91-1.553 2.852-.92 1.561-1.871 3.175-2.195 4.711-.388 1.832.33 3.146.854 4.107.25.458.471.861.481 1.16-.38.208-1.718.562-2.743.562-.365 0-.494-.052-.502-.052-.148-.156-.299-.982-.398-1.53-.141-.77-.299-1.641-.586-2.286m3.867-.17c-.099-.473-.119-.993.006-1.586.102-.48.291-.977.511-1.48 4.956-.674 9.375-1.04 12.796-1.166.006.395-.014.808-.107 1.264-.084.404-.156.833-.193 1.268-3.719.487-8.282 1.085-13.013 1.7m-1.309-40.615l-.005-.408-.402-.076c-.58-.11-1.155-.387-1.014-1.604.047-.408.178-1.087.525-1.123.025.277.068.488.131.652.188.476.608.772.656.805l.805.549-.023-.975c0-.006-.014-.652.117-1.509.426-2.305.648-2.936 1.033-2.936.266 0 .698.138 1.246.313.965.31 2.288.733 4.253.96 1.647.191 3.314.121 4.36.038.357-.027.657-.051.91-.051.39 0 .495.064.542.113.275.288.234 1.65.17 3.005-.068.874-.23 1.496-.231 1.502l-.247.944.91-.35c.053-.021.527-.212.822-.636.098-.142.188-.337.276-.603.075.023.106.06.122.078.072.08.227.35.135 1.137-.136 1.173-.711 1.331-1.255 1.331l-.509-.02-.099.396c-.778 3.128-5.43 4.739-7.228 4.533-1.759-.204-5.956-2.774-6-6.065m-6.218 24.707c-.013.945-.315 2.152-2.146 2.262-.044.002-.118.007-.21.007-.559 0-1.834-.16-1.958-1.794-.157-2.135-.192-2.645.825-2.827.002-.63.01-3.038-.001-4.535-.015-2.308.593-3.041 1.364-4.264.813-1.29 1.695-2.294 2.69-3.129.722-2.304 2.205-3.894 5.147-3.894.202 0 .412.008.628.023.425.03.926.094 1.436.094.642 0 1.288-.127 1.827-.524.902.519 1.791.851 2.5.933.142.017.295.025.457.025.388 0 .841-.052 1.326-.149.255.843 1.077.668 2.532.877 2.074.299 3.548 2.112 3.548 2.112 2.395.682 4.3 1.804 4.562 2.518.204-.059.425-.082.661-.082.813 0 1.807.269 2.932.269.375 0 .766-.03 1.168-.11l-.079-.459c-.09-.527.283-1.014.835-1.149l1.396-.269c.058-.009.11-.014.158-.014.522 0 .541.51.541.541.131-.01.267-.016.404-.016 1.026 0 2.178.333 2.455 1.955.051.312.342 2.033-1.866 2.371-1.02.155-1.719.26-2.212.26-.644 0-.935-.18-1.122-.665-1.129.183-2.838.409-4.389.409-.769 0-1.498-.056-2.099-.2-2.414-.498-6.975-2.316-6.975-2.316-.837 4.79-2.72 3.568-3.311 7.541-7.843-.337-9.668-.96-9.742-.987l-.086-.031c.349-2.301-.688-2.22.007-6.156-.689 2.086-3.137 3.104-3.647 3.296l-.894-1.283c0 0 .482 1.71.636 3.103l-.329 3.716.405-.023c.021-.002.043-.002.063-.002.496 0 .91.346.991.809l.146 1.205c.026.401-.527.552-.574.552m.057-3.471l.344-3.874c.42-.191 1.001-.496 1.59-.927.037.436.104.783.163 1.102.099.522.176.951.075 1.69l-.269.981c-.196.767-.441 1.457-.688 2.127-.229-.523-.668-.925-1.215-1.099m1.143 5.416c-.024-.499.052-1.003.183-1.523.428-.541 2.285-2.551 6.022-2.129 0 0-2.7-1.958-4.912-1.102.085-.248.167-.506.246-.769 1.832-.178 7.211 1.583 10.704.901.094.162.203.332.345.482.259.04.52.084.781.13-1.386-.016-1.5 1.524-1.5 1.524 1.437-1.103 4.15-.871 4.716-.809.304.086.596.176.881.27-1.451-.049-2.05 1.633-2.05 1.633 1.398-1.073 3.813-.679 4.424-.557.345.232.615.48.789.743-.272-.091-.544-.175-.812-.245l-.119-.031-.119.027c-1.177.272-1.871 1.695-2.18 2.519-.16.428-.342 1.062-.407 1.651-.218.875-.268 1.709-.061 2.252.726 1.903 1.449 1.268 1.889.095.135.057.257.104.384.15-.002.008-.006.019-.007.026-.187 1.035-.69 1.426-1.366 1.426-2.068 0-5.746-3.656-6.84-3.656-.079 0-.145.019-.194.059-.654.525.732 2.279.297 2.672-.338.302-1.056.651-1.94.941.15-.266.279-.53.419-.797.513-.553.83-1.26.83-2.041 0-.307-.062-.598-.149-.881-.07-.307-.174-.604-.349-.875-.598-.927-1.727-1.502-2.946-1.502-.387 0-.797.073-1.198.217-2.19.662-2.875 3.03-2.875 4.572 0 .223.042.408.104.572-.029.162-.061.328-.085.482-.151-.11-.291-.234-.415-.377-.685-.793-.186-2.332-.646-2.75-.038-.035-.066-.068-.103-.104.039-.588.376-3.773 3.034-4.793.001.003-3.422-.266-4.775 1.597m-12.47 14.772c5.106-1.39 10.172-2.434 14.902-3.211-.007.068-.009.137-.016.205-.049.518-.318.964-.556 1.358-.271.448-.526.872-.339 1.319.019.043.032.093.049.138-8.202 1.063-16.243 2.091-20.695 2.624 1.46-.771 3.908-1.686 6.655-2.433m5.23 5.968c-2.011-.101-9.401-.328-12.201-1.412l21.565-2.406c.164.879.318 1.529.719 1.824.232.172.584.253 1.104.253.412 0 3.527-.265 3.717-1.254.092-.478-.065-.938-.296-1.409l12.47-1.391c.226.374.53.721.951 1.02.211.15.512.219.947.219 1.008 0 3.264-.484 3.777-1.246.133-.197.158-.426.093-.637l3.546-.395c1.557.668 2.921.707 2.921.781-.001 2.157-16.782 7.196-39.313 6.053"/></svg>