<svg xmlns="http://www.w3.org/2000/svg" viewBox="0 0 64 64" enable-background="new 0 0 64 64"><path d="m58.75 5.229c-2.051-2.052-6.152-3.229-11.254-3.229-8.9 0-21.966 3.558-31.942 13.541-14.246 14.259-16.499 37.03-10.304 43.23 2.05 2.052 6.152 3.229 11.253 3.229.001 0 .001 0 .002 0 8.9 0 21.964-3.558 31.94-13.542 14.246-14.258 16.5-37.028 10.305-43.229m-11.254-1.293c.996 0 1.943.056 2.846.149.643.181 1.154.438 1.494.778 3.514 3.517-.016 19.003-12.406 31.407-12.395 12.404-27.983 15.99-31.496 12.473-2.84-2.842.169-18.986 12.564-31.391 8.116-8.122 17.742-12.259 24.272-13.297.943-.075 1.859-.119 2.726-.119m-.418 43.154c-8.688 8.693-19.794 12.291-28.139 12.877 8.12-2.886 18.803-8.732 28.168-21.84 5.426-7.594 9.814-15.992 12.951-21.548-.05 8.891-3.826 21.35-12.98 30.511"/><path d="m15.433 40.89c-1.683-1.684-1.303-7.581 1.792-13.633-4.437 7.116-5.616 14.038-3.906 15.749 1.71 1.713 8.627.532 15.738-3.908-6.049 3.096-11.94 3.476-13.624 1.792"/><path d="m43.516 12.784c1.684 1.684 1.307 7.58-1.791 13.633 4.438-7.116 5.617-14.037 3.906-15.75-1.709-1.711-8.627-.531-15.738 3.91 6.048-3.098 11.941-3.477 13.623-1.793"/></svg>