<svg xmlns="http://www.w3.org/2000/svg" viewBox="0 0 64 64" enable-background="new 0 0 64 64"><path d="m59.37 29.514c.136-.166.271-.332.396-.499 2.277-3.057 4.019-9.015-6.785-9.015-3.025 0-6.932.672-10.992 1.791-.066-6.444-3.186-12.142-7.975-15.752-.14-.119-.275-.241-.43-.343.021.021.039.045.061.066-3.282-2.358-7.295-3.762-11.646-3.762-1.947 0-3.823.292-5.603.811-.008-.002-.017-.005-.025-.007.006.002.012.006.019.009-3.31.966-6.267 2.757-8.625 5.147 0-.002 0-.004-.002-.006 0 .002.001.005.002.007-3.452 3.499-5.609 8.265-5.74 13.537-.006-.012-.012-.023-.018-.035.005.02.011.04.016.061-.002.158-.023.314-.023.476 0 6.836 3.436 12.865 8.668 16.473-.004-.001-.01-.001-.014-.001.005.001.011.001.016.003 3.222 2.218 7.122 3.525 11.329 3.525 1.312 0 2.59-.135 3.831-.376-.001.001-.001.001-.001.001 2.633 3.248 4.149 6.227 4.956 8.807-1.598 1.826-3.53 3.715-5.878 5.584-.488.391-.547 1.076-.127 1.531.42.457 1.156.512 1.646.119 1.914-1.523 3.557-3.054 4.988-4.558.69 4.394-.6 7.142-.699 7.344-.225.446-.1.978.307 1.294.215.168.483.254.75.254.236 0 .471-.066.674-.198 3.322-2.179 6.115-4.315 8.476-6.382.64 3.192.173 5.189.161 5.234-.115.434.066.887.457 1.146.203.134.439.2.676.2.223 0 .445-.059.641-.176 2.858-1.732 5.399-3.487 7.623-5.261.189 2.391-.234 3.881-.285 4.049-.18.575.176 1.176.795 1.345.107.029.218.043.327.043.504 0 .971-.307 1.119-.781.069-.219.791-2.672.158-6.445.859-.765 1.672-1.532 2.415-2.303.018.24.105.479.296.668.443.437 1.181.458 1.651.049.053-.047 2.992-2.717 3.011-7.453.935-1.825 1.55-3.662 1.841-5.51.86-5.439-1.397-9.278-2.438-10.711m-6.389-6.445c4.767 0 4.052 1.564 2.654 3.208-3.021 3.554-11.29 7.463-18.773 9.074-.002.001-.004.003-.005.005 2.519-2.801 4.251-6.31 4.869-10.199 4.105-1.266 8.189-2.088 11.255-2.088m-2.055 12.71c-.267 1.924-1.05 4.799-3.167 8.296-1.234-1.655-2.757-3.371-4.627-5.121 2.694-.857 5.36-1.933 7.794-3.175m-13.907 4.732c-.193.483-.422 1.01-.686 1.569-.371-.417-.756-.836-1.166-1.259.607-.088 1.227-.192 1.852-.31m-4.926-3.616c-1.098-.432-2.127-1.004-3.094-1.668-.002-.002-.004-.004-.006-.006.18-.11.366-.209.542-.326.738-.499 1.427-1.071 2.078-1.682.2.137.409.262.632.369 1.04.476 2.141.531 3.189.355-.99 1.114-2.104 2.116-3.341 2.958m7.906-14.895c0 4.423-1.61 8.473-4.268 11.61-1.133.08-2.25-.056-3.155-.644-.142-.088-.274-.186-.403-.287.717-.735 1.373-1.528 1.949-2.378 2.426-3.642 3.401-8.051 3.254-12.303-.069-2.134-.415-4.255-1.063-6.281-.133-.399-.287-.79-.445-1.179 2.578 3.116 4.131 7.111 4.131 11.462m-18-18c5.071 0 9.65 2.116 12.925 5.501.299.785.526 1.6.718 2.404.465 2.001.646 4.061.618 6.102-.082 4.07-1.078 8.167-3.331 11.495-.506.773-1.087 1.486-1.719 2.151-.537-.746-.928-1.629-1.243-2.519-.52-1.537-.886-3.154-1.2-4.789l-.97-4.939c-.718-3.288-1.579-6.651-3.327-9.658-.867-1.496-1.98-2.873-3.338-3.948-.775-.594-1.62-1.085-2.502-1.473 1.093-.207 2.217-.327 3.369-.327m-3.856.427c2.362 1.362 4.173 3.464 5.343 5.856 1.448 2.926 2.225 6.164 2.908 9.421.729 3.251 1.219 6.611 2.532 9.833.399.951.921 1.934 1.642 2.744-.836.785-1.752 1.485-2.732 2.094-.914-.682-1.805-1.396-2.656-2.155-2.407-2.179-4.63-4.569-6.702-7.08-2.09-2.499-4.028-5.127-5.818-7.851-.886-1.368-1.74-2.758-2.501-4.201-.558-1.025-1.059-2.081-1.451-3.184 2.466-2.707 5.733-4.665 9.435-5.477m-14.143 17.573c0-4.556 1.715-8.709 4.515-11.883.234 1.112.612 2.2 1.007 3.265.623 1.545 1.362 3.04 2.181 4.486 1.632 2.9 3.559 5.62 5.67 8.188 2.134 2.546 4.457 4.954 7.085 7.021.808.64 1.652 1.237 2.526 1.79-1.156.634-2.379 1.162-3.649 1.554-.021.007-.043.011-.063.017-.803-.527-1.662-.953-2.523-1.324-2.47-1.057-4.986-1.808-7.318-2.905-2.346-1.055-4.506-2.45-6.302-4.274-1.168-1.183-2.152-2.549-3.022-4.008-.068-.635-.107-1.276-.107-1.927m.423 3.845c.53.999 1.14 1.962 1.879 2.839 1.744 2.114 4.076 3.697 6.528 4.828 2.467 1.129 5.05 1.832 7.514 2.646.566.196 1.127.4 1.674.631-2.789.709-5.707.98-8.641 1.005-4.499-2.466-7.828-6.8-8.954-11.949m17.576 14.155c-2.823 0-5.486-.672-7.867-1.836 3.108.275 6.277.152 9.363-.634.113.068.232.129.344.202.75.473 1.387 1.114 1.877 1.877-1.2.254-2.443.391-3.717.391m2.381-2.723c1.355-.4 2.674-.942 3.918-1.637.116.063.229.131.344.191 1.019.504 2.086.951 3.186 1.229-1.766 1.156-3.744 2.007-5.865 2.486-.335-.853-.885-1.642-1.583-2.269m3.96 3.838c.683.045 1.417.068 2.206.068.553 0 1.126-.02 1.714-.057 1.108 1.064 2.083 2.113 2.939 3.137-.718 1.265-1.603 2.637-2.697 4.074-.862-2.217-2.182-4.642-4.162-7.222m5.409 17.103c.287-1.793.35-4.278-.406-7.265 1.377-1.651 2.486-3.238 3.387-4.717 1.762 2.46 2.864 4.744 3.535 6.734-1.845 1.698-3.993 3.452-6.516 5.248m8.38-7.048c-.854-2.161-2.167-4.572-4.161-7.135.826-1.605 1.391-3.012 1.762-4.118.291-.072.583-.146.875-.224 2.502 2.221 4.397 4.379 5.815 6.414-1.134 1.593-2.544 3.289-4.291 5.063m1.493 7.557c.02-1.297-.119-3.057-.688-5.149 1.939-1.863 3.528-3.657 4.823-5.358 1.213 2.131 1.923 4.086 2.318 5.783-1.879 1.583-4.028 3.159-6.453 4.724m8.387-6.457c-.552-1.844-1.438-3.896-2.808-6.09 2.854-4.33 3.819-7.92 4.101-10.297 3.108 3.72 4.214 6.824 4.367 9.267-1.276 2.383-3.166 4.76-5.66 7.12m7.479-12.305c-.074.462-.18.924-.301 1.385-.789-2.258-2.26-4.801-4.741-7.601 1.23-.806 2.345-1.659 3.313-2.548.928 1.442 2.415 4.523 1.729 8.764"/><path d="m38.052 33.895c-.002.002-.004.006-.006.008.012-.005.025-.01.039-.015-.012.003-.022.004-.033.007"/></svg>