<svg xmlns="http://www.w3.org/2000/svg" viewBox="0 0 64 64" enable-background="new 0 0 64 64"><path d="m45.93 31.975c-5.379-.921-8.908-3.184-8.908-3.184s2.869 4.191 8.908 3.184"/><path d="m49.133 40.608c.492.054.953-.427 1.025-1.072.072-.647-.268-1.213-.762-1.267-.492-.054-.951.426-1.023 1.072-.072.646.268 1.215.76 1.267"/><path d="m27.303 40.561c.627.074 1.19-.359 1.265-.972.074-.611-.369-1.164-.996-1.237l-.269 2.209"/><path d="m61 36.323c-1.871 0-3.053-1.024-4.551-2.323-1.773-1.537-3.945-3.419-7.836-3.711.252-6.196-1.553-10.34-7.5-17.655l-.262-.324-.42-.041c-1.841-.181-3.554-.269-5.238-.269-4.855 0-7.805.731-12.604 1.912-.6.147-1.203.314-1.799.479-1.479.41-2.875.798-3.922.798-.046 0-.093-.001-.139-.003-.537-.019-1.197-.214-1.896-.421-.87-.258-1.856-.549-2.891-.584-.084-.003-.169-.004-.254-.004-2.875 0-5.857 1.629-7.033 2.491-1.255.918-2.894 4.349-2.615 5.477.11.447.455.769.899.842.953.154 1.917.237 2.871.249-.065.15-.092.32-.076.517.021.247.164.841 1.054 1.029.404.084.873.127 1.395.127 2.831 0 7.851-1.373 10.119-4.312 2.342-.16 4.568-.303 6.799-.303 4.234 0 6.639.539 9.924 1.738-.273 3.109-.152 4.471.896 6.759-1.18 2.69-.377 4.942.688 6.365-.076.007-.154.011-.23.011-.951 0-1.633-.527-1.949-.834-.535-1.035-1.211-2.013-2.045-2.768-2.146-1.946-5.445-4.351-8.965-4.763-.645-.075-1.297-.114-1.939-.114-7.017 0-12.857 4.506-13.587 10.482-.218 1.783.039 3.555.704 5.223h-6.598v19.607h60v-25.677h-1m-33.824-7.259c1.887.984 3.513 2.3 4.528 3.22 2.674 2.421 3.434 7.128 3.321 8.062-.041.333-.309 1.11-.775 2.047h-1.667c.317-.397.277-1.278.4-2.286.175-1.431.621-2.556-.39-2.672-1.018-.12-1.979.942-2.153 2.374-.139 1.135.267 2.148.944 2.584h-4.733c-.187-.918-.665-1.631-1.38-1.917l.182-2.237c1.15-.396 2.086-1.836 2.222-3.631.132-1.701-.499-3.194-1.487-3.82l.988-1.724m-6.432 9.612c.807-6.618 3.604-9.067 5.1-9.922l-1.174 1.784c-1.215.322-2.219 1.812-2.361 3.673-.145 1.917.658 3.58 1.86 4.03l-.142 2.162c-.85.225-1.674.958-2.245 1.989h-1.178c-.057-1.095-.03-2.316.14-3.716m-5.877 16.461c-3.146-1.164-6.284-.844-9.562-.656 2.51-1.042 5.445-1.463 8.13-.992 1.996.363 3.697 1.411 5.61 1.998 1.468.49 3.177.588 4.72.4-2.922 1.375-6.1.283-8.898-.75m2.082-8.131c2.482-1.066 5.466-1.455 8.126-.994 1.998.356 3.697 1.421 5.614 1.998 1.278.641 3.317.57 4.719.402-2.911 1.381-6.115.281-8.899-.75-3.134-1.162-6.294-.869-9.56-.656m21.203 8.131c-3.145-1.166-6.286-.846-9.562-.656 2.507-1.042 5.449-1.465 8.128-.992 1.998.355 3.697 1.419 5.613 1.998 1.275.639 3.318.572 4.717.4-2.913 1.379-6.105.283-8.896-.75m11.643-7.475c-3.133-1.16-6.295-.869-9.563-.656 2.488-1.064 5.465-1.455 8.131-.994 1.996.359 3.693 1.423 5.611 1.998 1.277.641 3.316.57 4.719.402-2.92 1.375-6.105.281-8.898-.75m11.205-5.269h-8.578c.266-1.838.854-8.814-5.236-10.336 4.834 2.174 5.17 8.592 5.17 10.336h-13.157c-1.172-2.73-2.574-4.477-3.766-5.576-.092-.299-.195-.604-.311-.91.365.14.779.24 1.254.24.604 0 1.287-.152 2.039-.553 0 0-3.541-2.603-1.395-6.803-1.164-2.414-1.291-3.56-.975-6.962 2.387 1.202 3.902 2.587 3.902 2.587s-1.904-4.566-7.256-4.174c-2.531-.696-4.808-.929-7.594-.929-2.416 0-4.848.168-7.346.338-1.812 2.792-6.665 4.277-9.572 4.277-.447 0-.847-.035-1.184-.105-1.529-.323 4.045-1.543 2.955-2.053 0 0-1.522.486-3.927.486-.869 0-1.853-.063-2.922-.236-.515-.084 1.007-3.73 2.152-4.567 1.092-.801 3.853-2.296 6.434-2.296.073 0 .146.001.219.004 1.72.058 3.379.955 4.785 1.006.059.002.117.003.176.003 1.639 0 3.836-.783 5.963-1.307 4.46-1.096 7.435-1.881 12.362-1.882 1.596 0 3.293.083 5.139.264 6.059 7.455 7.703 11.396 7.225 17.986 7.592 0 8.426 6.073 13.443 6.073v5.089z"/></svg>