<svg xmlns="http://www.w3.org/2000/svg" viewBox="0 0 64 64" enable-background="new 0 0 64 64"><path d="m13.895 39.35h-2.52c-1.754.23 1.685 1.96 1.685 1.96s1.685-1.239 1.685-1.614c-.001-.375-.85-.346-.85-.346"/><path d="m26.766 51.159c-.466.269-.93.875-1.03 1.346l-.19.894c-.1.472.009 1.028.241 1.236.232.209.545 0 .694-.461l.86-2.661c.151-.464-.109-.624-.575-.354"/><path d="m38.883 50.143c-.465.271-.93.875-1.029 1.348l-.191.892c-.1.472.01 1.028.242 1.238.232.208.545.001.695-.463l.859-2.659c.148-.466-.111-.625-.576-.356"/><path d="m52.625 43.558c-2.826 0-5.355 1.235-7.074 3.182l-.646-.286c.207-.189.43-.385.689-.59.41-.322.566-.688.574-1.051l12.426-5.883c.035-.781-.178-1.552-.602-2.211 1.729-2.172 1.758-4.762 1.758-4.904v-1.475h-1.5c-2.23 0-3.977.048-6.145.673-1.482.428-2.537.888-3.318 1.386.221-1.014.082-2.19-.785-3.442 0 0-5.709-5.956-12.273-7.799 1.965-1.562 2.613-3.287 2.613-6.885 0-6.768-5.597-12.273-12.477-12.273-6.879 0-12.476 5.505-12.476 12.272 0 .49.032.925.087 1.322-.005.002-.012.004-.017.006-1.198.428 1.03 6.574 2.308 6.636 1.832 4.296 4.56 5.27 6.648 5.27 1.069 0 2.205-.282 3.319-.792l.342 4.041-2.033 1.078-.094-.084-1.413-1.268-.43-.387h-.581c-4.539 0-8.794 2.188-11.383 5.851l-.205.288c-1.218 1.707-2 2.915-1.781 4.1.097.521.391.97.83 1.263.401.27.97.646 1.618 1.074-2.185.159-4.181.982-5.775 2.272l1.386.142c-2.539 1.648-4.215 4.479-4.215 7.695 0 5.094 4.197 9.221 9.375 9.221 4.079 0 7.539-2.565 8.829-6.143.001.029.001.06.002.089 0 1.53 1.204 2.747 2.74 2.747.087 0 .176-.003.267-.012l.038-.002.038-.006 18.366-2.505 1.428-.194-.141-1.41c-.014-.135-.016-.27-.02-.406-.006-.223-.014-.447-.037-.672-.063-.582-.078-1.254-.061-1.934l.486.201c-.037.337-.061.678-.061 1.025 0 5.094 4.197 9.221 9.375 9.221s9.376-4.126 9.376-9.22-4.197-9.221-9.375-9.221m-7.756-4.788c4.592-2.287 1.193-4.477 7.658-6.342 1.986-.572 3.58-.613 5.723-.613 0 0 0 3.746-3.215 5.475-6.537 3.516-11.785 3.834-11.785 3.834s-.059-1.519 1.619-2.354m-6.668 5.592c.576.497 1.004 1.156 1.186 1.915-1.242.205-1.855 1.041-2.24 1.568-.012.018-.02.025-.031.041l1.085-3.524m-12.819-19.663c-1.012.548-2.037.839-2.968.839-2.376 0-3.855-1.9-4.767-3.986 3.711-1.563 8.254-4.11 10.052-5.979.176.05.358.085.55.085 1.102 0 1.994-.879 1.994-1.961 0-1.083-.893-1.961-1.994-1.961-.928 0-1.7.625-1.923 1.47-2.677-.134-7.309.712-10.907 1.764-.019-.217-.031-.444-.031-.697 0-5.682 4.7-10.305 10.476-10.305 5.777 0 10.477 4.623 10.477 10.305 0 4.682-.797 5.097-6.999 8.33-1.144.596-2.458 1.281-3.96 2.096m-1.009 12.437c.09-.222.136-.438.153-.657l6.07-2.73c.69-.369 1.011-1.143.843-1.848h.01l-.145-1.701 4.137 3.615c-.129-.018-.256-.045-.387-.045-.252 0-.498.033-.73.1-1.014.289-2.478.854-3.895 1.4-.784.303-1.525.588-2.074.781-1.199.418-1.977 1.377-1.977 2.44v.188c-.932-.215-1.852-.397-2.756-.568.343-.269.587-.575.751-.975m9.621-1.613l-1.04 4.082-1.77.416c-1.052-.359-2.168-.686-3.307-.979v-.552c0-.466.461-.87.981-1.052 1.309-.458 3.564-1.384 5.136-1.915m-14.317-2.603l.743-.311c.142-.061.288-.088.433-.088.413 0 .803.23.975.619l.641 1.473c.953 2.183.953 2.183-1.975 3.409-.401.169-.75.237-1.053.237-1.194 0-1.661-1.07-1.761-1.301-.771-1.76.375-2.646 1.335-3.128.024-.383.268-.746.662-.91m-3.614 19.859c0 .212-.035.414-.063.619l1.913-.126c-.063.817-.281 1.591-.625 2.294l-1.578-1.039c-.162.387-.386.737-.643 1.063l1.723.834c-.459.659-1.04 1.229-1.71 1.682l-.847-1.695c-.318.243-.657.461-1.033.617l1.071 1.537c-.732.355-1.539.58-2.394.645l.128-1.882c-.208.028-.414.062-.629.062-.199 0-.388-.033-.581-.057l.147 1.88c-.856-.056-1.666-.271-2.401-.618l1.057-1.553c-.394-.158-.75-.379-1.081-.631l-.847 1.695c-.67-.454-1.251-1.023-1.71-1.682l1.723-.833c-.257-.326-.481-.677-.643-1.063l-1.578 1.039c-.344-.703-.562-1.477-.625-2.294l1.913.126c-.028-.205-.063-.407-.063-.619 0-.197.035-.383.059-.572l-1.912.145c.056-.841.275-1.637.628-2.359l1.578 1.039c.155-.371.367-.71.61-1.025l-1.73-.818c.465-.683 1.06-1.272 1.749-1.737l.848 1.695c.331-.254.687-.474 1.081-.633l-1.057-1.553c.716-.338 1.501-.553 2.333-.614l-.128 1.882c.208-.027.414-.063.629-.063s.421.035.629.063l-.127-1.882c.652.049 1.274.194 1.859.417l-1.659 3.344c-.226-.057-.458-.098-.701-.098-1.554 0-2.813 1.238-2.813 2.768s1.259 2.766 2.813 2.766c1.553 0 2.813-1.236 2.813-2.766 0-.8-.349-1.514-.899-2.019l2.145-3.017c.514.401.984.855 1.357 1.391l-1.723.834c.247.313.468.645.627 1.015l1.563-1.054c.361.721.59 1.514.655 2.355l-1.913-.125c.026.205.062.407.062.62m25.33.864c.039.357.021.715.057 1.064l-18.368 2.506c-.046.004-.092.006-.136.006-.8 0-1.24-.633-1.24-1.295 0 0-.098-6.318-.956-7.871-.439-.795-2.773-2.322-2.809-2.346 0 0-6.095-3.979-8.11-5.331-.745-.499.669-2.354 1.543-3.589 1.668-2.361 4.17-4.112 7.092-4.842-.31.248-.563.553-.725.908-1.137.729-1.61 1.592-1.756 2.402-.291.262-.58.545-.86.867-.392.448-1.699 2.363 0 2.363.332 0 .986.044 1.861.133.631.716 1.48 1.117 2.455 1.117.527 0 1.08-.121 1.643-.357.129-.054.243-.102.363-.152 3.213.525 7.029 1.342 10.084 2.486.297.111.564.219.806.324l-1.556 6.113-.705-.174c-.499-.125-.997-.134-1.471-.056.09-.108.033-.271-.223-.461l-6.418-4.747c-.441-.326-.803-.229-.803.217s.359 1.078.797 1.408l4.144 3.115c.439.33 1.249.6 1.8.6h.156c-1.08.357-1.948 1.215-2.232 2.365l8.163 2.017c.947.233 1.898-.312 2.123-1.224l.307-1.228c2.166-.263 1.76-2.276 3.551-2.276.691 0 1.299.103 1.83.244-.427 1.42-.599 3.889-.407 5.694m-.651-9.03l-.652-.287 3.65-1.768c.531-.056 1.572-.197 2.982-.524l-1.502.937c-.199-.209-.352-.336-.352-.336l-4.126 1.978m8.178 2.84l.496.994-1.109-.49c.199-.174.392-.355.613-.504m8.393 5.326c0 .212-.035.414-.063.619l1.912-.126c-.063.817-.281 1.591-.625 2.294l-1.578-1.039c-.162.387-.385.737-.643 1.063l1.723.833c-.459.66-1.039 1.23-1.709 1.682l-.848-1.694c-.318.242-.656.46-1.031.616l1.07 1.537c-.732.355-1.539.58-2.395.645l.127-1.882c-.207.028-.414.062-.629.062-.199 0-.389-.033-.58-.057l.146 1.88c-.855-.056-1.666-.271-2.4-.618l1.057-1.553c-.395-.158-.75-.379-1.082-.631l-.846 1.695c-.67-.452-1.25-1.022-1.709-1.682l1.723-.834c-.258-.325-.48-.676-.643-1.063l-1.578 1.039c-.344-.703-.563-1.477-.625-2.294l1.057.069 3.623 1.5c.496.433 1.143.703 1.857.703 1.553 0 2.813-1.236 2.813-2.766 0-1.385-1.035-2.521-2.385-2.725l-2.799-1.237c.189-.114.387-.218.594-.302l-1.057-1.553c.717-.338 1.502-.553 2.332-.614l-.127 1.882c.207-.027.414-.063.629-.063s.422.035.629.063l-.127-1.882c.83.062 1.615.276 2.332.614l-1.057 1.553c.377.152.721.361 1.043.601l.828-1.702c.695.457 1.295 1.043 1.768 1.721l-1.723.833c.246.313.467.646.627 1.016l1.563-1.054c.361.721.59 1.514.654 2.355l-1.911-.123c.027.204.063.406.063.619"/></svg>