<svg xmlns="http://www.w3.org/2000/svg" viewBox="0 0 64 64" enable-background="new 0 0 64 64"><path d="m48.279 42.588l1.252 1.254-.947.949-1.548-1.547c-.379.239-.741.51-1.088.811l12.864 12.863c.301-.348.572-.709.811-1.088l-1.549-1.547.951-.949 1.254 1.254c1.443-3.336.809-7.355-1.918-10.082s-6.746-3.36-10.082-1.918m1.252 3.152l.95-.949 1.897 1.899-.947.95-1.9-1.9m2.848 2.848l.951-.947 1.896 1.897-.947.948-1.9-1.898m4.748 4.746l-1.9-1.898.95-.949 1.897 1.898-.947.949"/><path d="m44.188 46.092l1.549 1.549-.95.947-1.254-1.254c-1.443 3.337-.81 7.357 1.917 10.083s6.746 3.359 10.083 1.916l-1.253-1.253.947-.95 1.549 1.548c.378-.238.74-.51 1.088-.811l-12.866-12.864c-.3.348-.57.71-.81 1.089m10.091 10.09l-.949.948-1.898-1.897.947-.949 1.9 1.898m-2.847-2.848l-.95.949-1.897-1.898.947-.949 1.9 1.898m-2.848-2.848l-.951.949-1.896-1.897.947-.95 1.9 1.898"/><path d="m50.42 25.346c0-.506-.201-.992-.561-1.35l-2.066-2.068c-.01-.085-.027-.168-.028-.255-.01-.725.264-1.401.769-1.906l13.466-13.468-.109-.401c-.257-.937-.722-1.746-1.381-2.403-.656-.658-1.463-1.123-2.4-1.383l-.403-.112-13.47 13.471c-.572.572-1.394.801-2.188.713l-2.041-2.04c-.744-.746-1.955-.746-2.699 0l-34.478 34.478c-.754.754-1.379 2.2-.077 4.808.71 1.42 1.903 3.004 3.36 4.461.964.963 4.328 4.109 7.145 4.109 1.07 0 1.745-.45 2.123-.828l34.477-34.477c.36-.358.561-.843.561-1.349m-5.17-8.863l11.758-11.758c.489.218.951.516 1.354.918.402.402.698.864.916 1.353l-11.757 11.758c-.515.514-.868 1.145-1.049 1.833-.011-.004-.022-.009-.033-.013l-3.011-3.012c-.005-.01-.009-.02-.013-.03.689-.18 1.321-.535 1.835-1.049m-40.73 33.15l34.138-34.139 4.566 4.564c0 0-22.164 22.165-29.554 29.555-.681.681-2.181 1.372-3.144 1.302-1.395-.104-6.006-1.282-6.006-1.282m9.852 9.851c0 0-1.178-4.61-1.281-6.009-.071-.96.621-2.462 1.301-3.142 7.387-7.391 29.554-29.555 29.554-29.555l4.563 4.566-34.137 34.14"/></svg>