<svg xmlns="http://www.w3.org/2000/svg" viewBox="0 0 64 64" enable-background="new 0 0 64 64"><path d="m54.85 10.68c-.174.228-.299.389-.547.506-.229.118-.484.156-.736.193-.416.065-.834.131-1.252.198-.316.051-.24.547.08.494.428-.069.855-.133 1.281-.2.295-.049.592-.106.859-.243.305-.151.516-.393.719-.654.197-.253-.207-.545-.404-.294"/><path d="m31.923 50.079l-2.463 3.335-5.763-7.799.001-.002-4.797-6.487-16.901 22.874h21.117 12.688 11.902l-12.295-16.64-3.489 4.719m-13.02.347l-3.555-4.813 3.555-4.812 3.558 4.812-3.558 4.813m16.509 2.697l-2.25-3.044 2.25-3.044 2.248 3.044-2.248 3.044"/><ellipse cx="54.811" cy="32.504" rx=".859" ry=".865"/><ellipse cx="54.811" cy="42.16" rx=".859" ry=".867"/><path d="m11.539 28.242c-.234-.099-.475-.199-.666-.369-.211-.175-.295-.361-.408-.623-.133-.293-.594-.109-.463.184.133.305.279.591.539.813.227.198.498.328.773.445.396.17.797.338 1.195.51.297.128.492-.332.195-.459-.388-.169-.776-.337-1.165-.501"/><path d="m31.875 19.272c0 0-1.289 1.482-2.5 2.715-1.205 1.232-2.66 2.545-2.66 2.545.936.955 2.873.576 4.299-.877 1.423-1.45 1.794-3.429.861-4.383"/><path d="m60.393 15.805c.213-.64.295-1.362.191-2.169-.326-2.569-1.898-4.032-4.445-4.146-.334-.546-.934-.895-1.615-.895-.104 0-.209.009-.316.026l-2.114.359-.027.005-.027.006c-1.355.31-2.246 1.57-2.07 2.933l.033.251-13.768 3.263c-.254-.55-.576-1.112-.99-1.693.807-1.621-1.475-3.974-1.77-4.267-.199-.184-.383-.334-.573-.496.249-.442.262-1.068.02-1.795-.424-1.269-1.503-2.581-2.578-2.581-.28 0-.551.09-.783.264-.062.046-.121.096-.184.144-2.798-2.545-7.074-2.778-10.946-.889-.155-.222-.315-.44-.509-.64-.934-.959-2.177-1.485-3.501-1.485-1.323 0-2.566.526-3.501 1.482-1.915 1.966-1.916 5.167 0 7.134.212.218.444.405.685.577-1.715 3.805-1.51 7.962.797 10.771-.057.074-.116.145-.172.219-.321.429-.348.961-.077 1.5.526 1.043 2.17 2.028 3.384 2.028.363 0 .628-.089.829-.206.16.196.311.387.493.593.209.214 2.088 2.098 3.631 2.098.266 0 .51-.054.729-.159.518.384 1.027.679 1.533.934l-1.825 3.153-6.072-2.362.046-.119c.498-1.272-.058-2.709-1.293-3.34l-.025-.013-.025-.012-1.957-.867c-.254-.108-.512-.161-.777-.161-.503 0-.972.194-1.315.526-.425-.088-.826-.132-1.212-.132-1.33 0-3.122.533-4.107 3.071-.971 2.521-.047 4.626 2.468 5.641 2.079.832 3.223 1.291 4.17 1.291.9 0 1.473-.37 1.939-1.031l10.098 3.937 3.93-6.614 1.418 1.163 10.137 8.423.023-.032 1.609 2.165c1.582 2.104 3.066 2.944 4.82 2.938 2.254-.006 7.236 0 7.236 0v-6.248l-5.102.032-2.121-2.734-.703-.909c.498.17 1.008.259 1.547.257 2.252-.004 6.379-.016 6.379-.016v-6.284l-4.246.084-1.119-1.443 1.035-1.519-4.422-4.602h-.002l-4.162-4.331 11.725-1.603c.332.842.893 1.366 1.971 1.517-.053.344-.092.7-.092 1.086v10.811h3.154v.008l2.848-.008-.02 9.654h-.016c-1.182.003-2.223-.513-2.891-1.314-.006-.099-.064-1.394.596-2.484l-.914-.216c-.16.232-.27.465-.344.685.049-.39.172-.874.48-1.383l-.912-.219c-.543.785-.418 1.615-.352 1.902h-1.631v3.029h3.154v.009l2.848-.007-.02 9.654-.018-.002c-1.182.004-2.223-.511-2.891-1.313-.008-.325.018-1.441.598-2.4l-.914-.217c-.16.234-.27.466-.346.685.049-.39.174-.877.482-1.385l-.912-.216c-.494.714-.434 1.47-.369 1.817h-1.613v9.463c0 7.015 9.275 7.015 9.275 0v-36.553c.002-1.855-.654-3.203-1.605-4.078m-46.428 13.483l-.938 2.414c-.812 2.086-1.151 2.956-2.202 2.956-.753 0-1.872-.447-3.792-1.216-3.121-1.26-2.096-3.896-1.912-4.372.736-1.897 1.964-2.437 3.173-2.437.587 0 1.169.127 1.688.288.01-.054.01-.106.031-.158.14-.332.463-.526.808-.526.123 0 .248.024.368.077l1.957.866c.768.392 1.135 1.299.819 2.108m20.017-17.536c.314.54.498 1.075.377 1.46-.135-.419-.33-.843-.58-1.257l.203-.203m-21.921-1.479c-.146-.11-.294-.217-.425-.351-1.542-1.585-1.542-4.163 0-5.746.745-.761 1.734-1.181 2.785-1.181 1.051 0 2.04.42 2.783 1.182.129.133.231.281.339.426-1.07.624-2.097 1.406-3.036 2.359-1.002 1.018-1.812 2.142-2.446 3.311m4.621 13.363c-.168.211-.334.424-.5.637l-.328.326.021.021c-.093.068-.226.096-.34.096-.831 0-2.135-.774-2.49-1.48-.144-.284-.053-.404-.016-.454 4.895-6.472 10.66-12.231 17.132-17.116.059-.044.115-.063.182-.063.451 0 1.278.847 1.629 1.898.17.512.167.942-.012 1.076-.323.244-.641.498-.958.75-.614-.309-1.24-.485-1.839-.485-1.941.001-4.059 1.394-7.818 5.14-3.761 3.746-5.159 5.858-5.159 7.791.001.605.178 1.24.496 1.863m12.999-13.872v8.975c-.569.223-1.066.25-1.367-.05-.086-.084-.168-.168-.25-.251-.158-.164-.315-.317-.475-.462v-7.89c.572-.25 1.092-.382 1.572-.382.17 0 .343.025.52.06m-8.775 17.291c-.4.354-1.256-.036-2.043-.576l.238-.236c.598.387 1.222.651 1.824.795l-.019.017m-.557-1.118v-9.68c.482-.52 1.002-1.064 1.607-1.667.17-.17.32-.312.484-.471v11.997c-.243.109-.459.186-.604.186-.456 0-.969-.136-1.487-.365m1.367 1.215c.039.002.082.012.121.012.955 0 2.301-1.002 3.242-1.938 1.506-1.502 2.83-3.688 1.602-4.911-.088-.087-.176-.172-.262-.256-.4-.387-.779-.752-.781-1.036 0-.138.092-.301.277-.486.188-.185.35-.278.488-.276.285.002.652.379 1.041.778.082.086.168.174.256.262 1.227 1.222 3.422-.096 4.928-1.597.92-.917 1.897-2.218 1.94-3.167 2.688 3.95 1.105 6.956-2.333 10.463-2.586 2.639-4.521 3.765-6.471 3.765-1.3-.001-2.628-.538-4.048-1.613m6.818 4.931l-2.739-2.247c2.225-.003 4.18-1.271 5.875-2.782l4.374 4.393-7.51.636m14.388-7.813l3.508 3.651-1.916 2.808-3.014.255-6.234-5.535 7.656-1.179m16.623-9.069c-2.289-1.267-5.48-.394-6.49 2.627-1.328-.143-1.455-1.013-1.768-3.457l-.326-2.571c-.111-.863.465-1.654 1.303-1.846l2.107-.359c.051-.009.102-.012.152-.012.434 0 .813.306.881.737.008.057-.006.106-.01.161.137-.007.275-.012.416-.012 1.586 0 3.432.532 3.781 3.289.026.206.098.792-.046 1.443"/></svg>