<svg xmlns="http://www.w3.org/2000/svg" viewBox="0 0 64 64" enable-background="new 0 0 64 64"><path d="m42.333 10.215c-1.037-2.738-2.075-5.476-3.111-8.215-3.829.55-7.941.34-12.055.131 1.037 2.738 2.074 5.476 3.111 8.215 4.114.209 8.228.418 12.055-.131"/><path d="m33.392 18.56c-1.038-2.737-2.074-5.476-3.113-8.213-4.113-.209-8.227-.417-12.052.13 1.036 2.739 2.073 5.478 3.111 8.215 3.825-.55 7.938-.34 12.054-.132"/><path d="m55.774 13.753c-1.036-2.739-2.074-5.478-3.111-8.215-2.966 2.822-6.504 4.128-10.33 4.677 1.039 2.738 2.074 5.476 3.111 8.214 3.827-.548 7.368-1.855 10.33-4.676"/><path d="m11.011 23.362l-3.114-8.212c2.965-2.819 6.502-4.124 10.33-4.674-1.039-2.737-2.076-5.476-3.114-8.213-3.824.548-7.364 1.855-10.33 4.676l-1.074-2.832-1.709.598 21.704 57.295h1.96l-11.539-30.425c2.963-2.815 6.5-4.121 10.324-4.67-1.036-2.738-2.075-5.477-3.111-8.214-3.824.548-7.36 1.854-10.327 4.671"/><path d="m33.392 18.56c1.037 2.739 2.073 5.477 3.111 8.215 4.114.209 8.227.418 12.053-.131-1.037-2.737-2.074-5.476-3.111-8.214-3.827.548-7.939.339-12.053.13"/><path d="m24.449 26.905c1.036 2.738 2.075 5.477 3.112 8.215 3.826-.549 7.939-.34 12.054-.132-1.039-2.737-2.075-5.476-3.112-8.214-4.113-.208-8.227-.417-12.054.131"/><path d="m58.889 21.967c-2.966 2.821-6.507 4.127-10.333 4.676 1.039 2.739 2.074 5.477 3.111 8.215 3.827-.549 7.367-1.855 10.333-4.678-1.038-2.738-2.075-5.475-3.111-8.213"/></svg>