<svg xmlns="http://www.w3.org/2000/svg" viewBox="0 0 64 64" enable-background="new 0 0 64 64"><path d="m59.284 4.714c-1.014-1.013-3.697-2.714-10.262-2.714-2.741 0-5.859.307-9.27.912-3.228.572-6.327 1.385-9.213 2.413-6.229 2.221-11.512 5.47-15.698 9.658-4.19 4.192-7.438 9.474-9.654 15.701-1.031 2.889-1.843 5.988-2.413 9.211-2.141 12.084.643 16.993 2.494 18.843 1.218 1.218 4.259 3.262 10.936 3.262h.001c2.369 0 5.029-.26 7.904-.769 3.236-.574 6.335-1.387 9.208-2.413 6.231-2.22 11.514-5.469 15.702-9.657 4.188-4.191 7.437-9.475 9.655-15.703 1.025-2.879 1.836-5.979 2.411-9.21 2.478-13.974-.753-18.483-1.801-19.534m-26.243 20.118c-.987-.988.544-2.52 1.532-1.532.767.766 1.532 1.533 2.299 2.299 1.133-1.131 2.172-2.17 3.064-3.064-.766-.767-1.534-1.533-2.3-2.299-.988-.988.545-2.52 1.534-1.533.766.767 1.532 1.533 2.298 2.3.653-.653 1.135-1.135 1.377-1.377.986-.989 2.518.543 1.532 1.531-.242.243-.725.724-1.378 1.378.766.766 1.53 1.532 2.296 2.298.989.987-.543 2.519-1.529 1.532-.767-.766-1.532-1.532-2.299-2.298-.894.893-1.933 1.933-3.063 3.064.767.766 1.531 1.531 2.298 2.298.988.988-.546 2.52-1.531 1.533-.767-.766-1.533-1.532-2.299-2.298-.99.991-2.023 2.023-3.064 3.065.766.766 1.531 1.532 2.297 2.297.987.989-.543 2.519-1.531 1.532-.766-.767-1.532-1.532-2.297-2.298-1.042 1.042-2.074 2.074-3.064 3.064.766.766 1.532 1.531 2.297 2.298.988.987-.545 2.519-1.532 1.533-.767-.767-1.532-1.533-2.297-2.299-1.131 1.132-2.172 2.172-3.064 3.064.766.766 1.531 1.532 2.297 2.299.988.987-.543 2.519-1.531 1.53-.767-.767-1.532-1.532-2.297-2.297-.655.652-1.136 1.135-1.379 1.377-.987.987-2.518-.544-1.532-1.533.243-.243.725-.724 1.378-1.377-.767-.767-1.533-1.532-2.297-2.298-.988-.988.543-2.521 1.529-1.533.767.767 1.533 1.533 2.299 2.3.893-.894 1.932-1.933 3.063-3.064-.766-.767-1.533-1.533-2.299-2.299-.986-.988.546-2.521 1.533-1.533.766.767 1.533 1.533 2.299 2.298.99-.989 2.022-2.022 3.063-3.064-.766-.766-1.533-1.532-2.297-2.297-.989-.989.544-2.52 1.529-1.533.766.767 1.533 1.533 2.299 2.3 1.042-1.042 2.075-2.075 3.066-3.065-.766-.766-1.532-1.532-2.299-2.299m-9.276 34.462c-.414.074-.813.131-1.217.193-3.615-2.093-7.055-4.731-10.176-7.855-3.122-3.12-5.761-6.563-7.853-10.176.063-.403.118-.795.193-1.218.474-2.678 1.129-5.257 1.933-7.7 1.94 5.356 5.28 10.557 9.773 15.05 4.49 4.492 9.689 7.833 15.046 9.774-2.434.8-5.011 1.454-7.699 1.932m33.454-27.691c-1.942-5.356-5.282-10.554-9.775-15.046-4.49-4.493-9.69-7.833-15.048-9.775 2.441-.802 5.02-1.457 7.701-1.933.414-.074.81-.129 1.215-.194 3.614 2.094 7.056 4.732 10.18 7.854 3.122 3.126 5.762 6.57 7.855 10.187-.063.399-.123.794-.197 1.208-.477 2.684-1.132 5.263-1.931 7.699"/></svg>