<svg xmlns="http://www.w3.org/2000/svg" viewBox="0 0 64 64" enable-background="new 0 0 64 64"><path d="m58.891 6.624l.982-2.731-5.146-1.893-3.134 8.706c-.059-1.162-.798-2.075-2.077-2.45-.363-.106-.717-.16-1.049-.16-.832 0-1.932.328-2.641 1.817-.087.047-.166.105-.244.164-3.725-.57-8.243-.981-13.592-.981-5.342 0-9.854.411-13.575.979-.079-.059-.157-.117-.244-.163-.708-1.488-1.808-1.816-2.639-1.816-.332 0-.685.054-1.049.16-.549.16-1.006.42-1.358.771-.289.289-.678.836-.723 1.666l-3.129-8.693-5.146 1.893.983 2.731-3.11 1.144 5.113 14.207 3.111-1.146.983 2.731 4.499-1.657 1.005 4.091 8.004 11.35-.002 9.145h.025l-2.391 1.797c-1.531 1.16-2.143 2.248-2.143 3.531 0 1.648 0 6.471 0 6.471h-.008c-1.375 0-2.49 2.209-2.49 3.701v.011h7.006v-8.631l3.816-3.01h.025c.479-.416 1.088-.668 1.752-.668 0 0 2.539 0 3.385 0 .865 0 1.891.781 1.891.781l3.703 2.896v8.632h7.006v-.012c0-1.492-1.113-3.701-2.49-3.701h-.01c0 0 0-4.822 0-6.471 0-1.283-.611-2.371-2.141-3.531l-2.391-1.797h.025v-9.146l7.985-11.345 1.021-4.096 4.502 1.659.982-2.731 3.111 1.146 5.116-14.207-3.109-1.144m-35.178 54.376h-4.833c.295-.902.902-1.713 1.317-1.713h3.516v1.713m16.572-1.713h3.516c.414 0 1.02.808 1.315 1.713h-4.831v-1.713m-.478-37.912c.054-.023.541-.252.779-.737.099-.163.176-.408.256-.822.533-.031.781.465.781 1.524 0 1.196-.473 1.775-1.533 1.874l-.307.028-.039.306c-.494 3.801-5.687 6.213-7.744 6.213-2.061 0-7.251-2.412-7.745-6.213l-.04-.306-.307-.028c-1.059-.099-1.531-.678-1.531-1.874 0-1.013.24-1.526.712-1.526.021 0 .044.001.067.002.077.408.154.655.239.789.253.519.742.747.797.771l.636.282-.098-.688c-.001-.008-.104-.751-.067-1.727.228-3.378.457-3.66 1.106-3.66.325 0 .779.087 1.351.2 1.121.221 2.657.522 4.88.522s3.759-.302 4.881-.522c.571-.113 1.025-.2 1.35-.2.649 0 .879.282 1.105 3.649.037.986-.066 1.729-.068 1.737l-.098.688.637-.282m-25.041-12.159c.284-.083.538-.12.767-.12.896 0 1.394.569 1.697 1.173-1.397.237-2.673.492-3.82.757-.117-1.369 1.11-1.739 1.356-1.81m2.683 15.594l-2.672-10.879c-.432-.049-.648-.391-.921-1.213 1.052-.234 2.191-.463 3.442-.674l-.169-.644c-.206-.795.659-1.093.967-.18l.261.821c.146.5-.135 1.023-.629 1.166l-.08.023 2.693 10.928-2.892.652m9.383 6.991l-5.284-6.928-2.75-11.158c.141-.135.262-.291.358-.468.251-.456.309-.984.161-1.486l-.008-.028c1.873-.265 3.938-.483 6.193-.634-2.163 1.461-2.899 4.087-2.947 8.056-.473.202-.948.756-.948 2.186 0 1.816.99 2.429 1.93 2.601.566 2.993 3.726 5.277 6.342 6.174v.925c-.138.183-.628.491-1.13.762h-1.917zm5.168 2.553c-1.209 0-2.263-.655-2.848-1.63.814-.42 1.727-1.021 1.727-1.612v-.712c.405.086.784.133 1.121.133.334 0 .709-.046 1.111-.131v.71c0 .591.916 1.193 1.732 1.613-.583.973-1.636 1.629-2.843 1.629m5.164-2.553h-1.918c-.504-.271-.996-.579-1.135-.763v-.921c2.617-.895 5.783-3.181 6.35-6.177.942-.171 1.933-.784 1.933-2.601 0-1.673-.651-2.149-1.188-2.261-.039-3.973-.677-6.552-2.803-7.986.012.001.021.001.033.002 2.278.15 4.362.373 6.252.64l-.009.028c-.146.499-.089 1.026.161 1.483.098.177.219.334.361.469l-2.739 11.111-5.298 6.976m12.057-17.87l-2.674 10.879-2.891-.65 2.693-10.928-.08-.023c-.494-.143-.777-.666-.631-1.166l.266-.828c.337-.938 1.16-.556.963.187l-.169.646c1.251.211 2.39.44 3.442.675-.272.818-.487 1.159-.919 1.208m-2.453-3.66c.303-.604.802-1.175 1.699-1.175.229 0 .484.037.768.12.244.071 1.472.441 1.354 1.813-1.148-.265-2.424-.52-3.821-.758"/><path d="m29.898 21.521c0-.813-.649-1.446-1.454-1.446-.804 0-1.455.633-1.455 1.446 0 .813.651 1.445 1.455 1.445.805 0 1.454-.633 1.454-1.445"/><path d="m35.555 20.074c-.806 0-1.455.633-1.455 1.446 0 .813.649 1.445 1.455 1.445.804 0 1.455-.633 1.455-1.445 0-.813-.652-1.446-1.455-1.446"/><path d="m34.321 25.946c-1.495 1.175-3.157 1.175-4.646 0-.179-.135-.342.091-.219.316.454.858 1.37 1.58 2.542 1.58 1.174 0 2.09-.722 2.543-1.58.123-.225-.04-.45-.22-.316"/></svg>