<svg xmlns="http://www.w3.org/2000/svg" viewBox="0 0 64 64" enable-background="new 0 0 64 64"><path d="m62 45.283l-2.047-4.159-5.036 2.913-.159-.149c.04-.025.081-.045.12-.073 0 0 4.599-2.725 4.713-2.807 1.647-1.193 1.566-4.324-.18-6.994-1.748-2.672-4.503-3.869-6.15-2.678l-4.36 2.6c-.122.06-.24.129-.353.21-.767.554-.936 1.824-.755 3.19l-.141-.133v-3.813l-4.379-6.938-2.547-1.684c0 0 .364-.201.497-.294 1.899-1.377 1.808-4.986-.208-8.066-2.015-3.077-5.191-4.462-7.091-3.086l-8.839 5.271.068 1.134-.608.333-5.519-2.142v-1.245l7.669-4.047-3.975-3.626-20.72 7.758 6.138 5.664 6.857-3.619v1.766l3.641 2.727-1.768.967-2.34-.535-3.629 2.072v.605l-5.439 3.24c-.16.077-.315.169-.463.275-1.976 1.43-.915 6.5.712 8.988 1.706 2.604 3.879 4.22 5.768 4.22.639 0 1.246-.185 1.791-.579l5.689-3.389c.159-.077.314-.167.465-.276.342-.248.621-.565.85-.929l4.949 3.72 6.562 1.486c-.1.055-.2.109-.294.178-1.746 1.262-.81 5.739.627 7.937 1.506 2.298 3.425 3.724 5.091 3.724.564 0 1.099-.163 1.579-.511l4.761-2.836 5.355 2.406 13.098-8.776m-3.375-3.018l1.709 3.667-1.1.736-1.9-3.633 1.291-.77m-37.527-32.293l3.455 3.378-1.318.696-3.797-3.453 1.66-.621m-10.199 10.53l-5.712-4.456 2.443-.915 5.052 4.431-1.783.94m38.236 14.453c.249-.181.553-.272.903-.272 1.028 0 2.609.832 3.823 2.688 1.557 2.378 1.477 4.877.43 5.634-.097.07-.199.116-.305.156l-1.467-1.379c.309.037.605-.033.877-.229.878-.634.834-2.3-.096-3.719-.93-1.423-2.395-2.059-3.271-1.425-.611.441-.611 1.377-.245 2.384l1.464-.826c.893-.452 2.078.783 1.481 1.701l-1.484.915-2.183-2.053c-.457-1.549-.494-3.166.073-3.575m-.151 12.751l-3.84 2.375c.561-1.172.577-2.793.029-4.48l3.811 2.105m-3.96-3.555l-.347.213c-.191-.396-.412-.788-.664-1.173-.164-.251-.338-.485-.516-.714l.045-.025c.894-.453 2.079.783 1.482 1.699m-16.633-26.996l14.33 9.553 4.391 6.933-1.172.709-4.473-6.99-14.306-9.476 1.23-.729m9.069 13.62c.116-.009.216-.085.303-.204-.421 1.755-1.562 2.642-3.746 2.642-2.859 0-6.415-1.51-6.415-4.516 0-3.007 2.318-5.443 5.178-5.443 2.496 0 4.578 1.855 5.069 4.325-.095-.139-.211-.225-.355-.214-2.879.209-6.68.181-6.801 1.261-.122 1.082 2.234 2.476 6.767 2.149m-21.353-10.891v-1.668l1.92-1.013v1.402l11.594 4.498-3.39 1.625-10.124-4.844m-1.559 6.01c-.778-.25-1.535-.305-2.223-.153l1.078-.616 1.145.769m-3.071 16.234c-1.52 0-3.41-1.443-4.931-3.767-1.493-2.284-2.256-6.695-.962-7.632.379-.274.836-.414 1.359-.414 1.712 0 3.823 1.467 5.25 3.648 1.958 2.992 2.182 6.552.488 7.774-.362.264-.755.391-1.204.391m13.744-6.291l-4.71-3.332c-.298-.922-.738-1.858-1.325-2.755-.379-.58-.798-1.103-1.238-1.57l9.594 6.45 10.876 4.349-1.645.994-11.552-4.136m11.986 18.163c-1.281 0-2.952-1.284-4.255-3.271-1.407-2.152-1.899-5.841-.878-6.579.314-.228.694-.342 1.131-.342 1.475 0 3.297 1.271 4.536 3.164 1.694 2.592 1.905 5.662.458 6.708-.298.216-.623.32-.992.32m10.064-4.81l4.064 2.818-1.127.756-4.271-2.75 1.334-.824"/><path d="m6.933 32.876c-1.145.827-.673 2.974.542 4.83 1.215 1.855 2.713 2.718 3.857 1.889 1.145-.828 1.088-3.003-.125-4.858-1.216-1.858-3.129-2.689-4.274-1.861"/><path d="m33.197 45.95c-1.013.729-.595 2.624.476 4.265 1.072 1.638 2.395 2.397 3.405 1.666 1.012-.731.962-2.651-.11-4.289-1.073-1.64-2.76-2.372-3.771-1.642"/></svg>