<svg xmlns="http://www.w3.org/2000/svg" viewBox="0 0 64 64" enable-background="new 0 0 64 64"><path d="m32.001 27.927l-3.246 9.989h-10.504l8.498 6.174-3.248 9.988 8.5-6.172 8.498 6.172-3.248-9.988 8.498-6.174h-10.504l-3.244-9.989m2.838 15.12l1.752 5.396-4.59-3.336-4.594 3.336 1.756-5.396-4.592-3.336h5.676l1.754-5.396 1.754 5.396h5.674l-4.59 3.336"/><path d="m44.657 26.519v-8.698c0-.364-.199-.67-.481-.86l9.824-14.961h-18.835l-3.164 4.746-3.164-4.746h-18.837l9.823 14.96c-.282.19-.48.497-.48.861v8.698c-4.481 3.668-7.343 9.239-7.343 15.481 0 11.045 8.955 20 20 20 0 0 0 0 .001 0 .681 0 1.354-.035 2.017-.102 10.097-1.011 17.982-9.533 17.982-19.898 0-6.242-2.862-11.813-7.343-15.481m-3.831-23.519h6.328l-8.825 13.239-3.164-4.746 5.661-8.493m.667 17.985l.973-1.458c.052.125.082.261.082.404v4.219c0 .277-.118.517-.297.7-3-1.798-6.499-2.85-10.251-2.85-3.753 0-7.251 1.053-10.251 2.851-.179-.184-.297-.423-.297-.701v-4.219c0-.143.03-.28.082-.404l.973 1.459h6.33 6.328 6.328zm-24.647-17.985h6.328l11.324 16.985h-6.328l-11.324-16.985m15.154 56c-9.388 0-17-7.611-17-17s7.612-17 17-17 17 7.611 17 17-7.612 17-17 17"/></svg>