<svg xmlns="http://www.w3.org/2000/svg" viewBox="0 0 64 64" enable-background="new 0 0 64 64"><path d="m54.115 13.85c-.293-.05-.572-.075-.837-.075-.307 0-.649.063-.989.162-.356-.221-.762-.4-1.264-.485-.271-.047-.522-.067-.755-.067-.599 0-1.112.138-1.548.402l-6.504-2.218c-.285-.099-.574-.068-.828.047-.571-1.354-2.184-2.775-4.47-2.964-1.624-.133-3.025-.021-4.248.241l-20.028-6.799-.002.006c-.481-.142-1.227-.248-2.027.526-1.256 1.222-4.064 4.982-3.554 6.017.509 1.038 8.104 3.091 7.728-2.856-.029-.461-.098-.869-.189-1.241l15.436 5.264c-2.662 1.363-3.853 3.527-4.022 4.63-.695 4.538 1.723 8.785 5.57 11.624l1.356 5.556c-.14.695-.196 1.525-.131 2.361l.585 10.414h.203l-5.211 13.927h-.011c-.264.97-.424 2.557-.424 2.573 0 .595.483 1.076 1.081 1.076h7.057c0-1.331-.986-3.425-2.268-3.62 0 0 2.654-5.258 4.553-9.131.186-.375.502-.683.943-.683.542 0 .828.458.992.965 1.906 5.843 2.607 8.849 2.607 8.849-.094.964-.146 2.557-.146 2.573 0 .595.484 1.076 1.082 1.076h7.055c0-1.419-1.125-3.577-2.531-3.646v-.004l-3.266-13.962h.46l-1.77-10.526 6.68-2.152c.894-.301 1.413-.833 1.632-1.653l2.563-8.18c1.609-.189 1.862-1.611 2.264-4.08.339-2.079-.742-3.591-2.824-3.947m-14.09 16.177c-.129-.196-.272-.441-.41-.722l5.98-1.969 2.309-7.308 1.124.188c.202.373.49.682.806.869l-1.992 6.35-7.817 2.592m7.33-12.744c.045-.272.24-.49.508-.567l.279-.08.01-.037 1.166.397-.016.015c-.191.269-.327.579-.383.915l-.146.898c-.019.111-.025.222-.025.332l-.934-.157c-.396-.066-.668-.436-.604-.823l.145-.893m-.394 2.421l-2.161 6.84-.657.229c.044-.068.1-.13.137-.204.331-.675.25-1.381.091-1.931.479-.481.536-.964.475-1.326-.034-.193-.106-.369-.209-.528.052-.059.099-.125.14-.2.223-.399.163-.787.089-1.056.684-.364 1.392-1.022 1.495-1.851.043-.348.027-1.219-1.057-1.796-1.016-.538-1.364-.806-1.482-.931l-.043-.154c-.137-.485-.333-1.174-.666-1.918l3.777 1.289c-.264.252-.455.58-.518.952l-.145.894c-.113.675.198 1.323.734 1.691m-16.807 1.396c-1.434-3.003 1.523-5.443 4.238-1.541l.452-.11c.412-2.373-1.956-4.677.347-6.124 1.3-.817 3.559-.704 5.022-.52.09.053.18.105.27.159 1.625 1.394 2.123 3.428 2.396 4.363.138.475 1.325 1.115 1.952 1.448 1.29.685-.068 1.838-.883 2.037-.071.017-.137.027-.197.03-.14.859.609 1.248-.245 1.457-.899.221-2.959.195-2.959.195s1.372.71 1.881.824c1.081.247 1.176-.136.521-.437-.282-.129-.569-.236-.78-.311.902.213 2.67.78.986 1.709.378.847.886 2.24-1.188 2.747-.956.233-2.463.278-4.785-.007-2.188-.269-3.777-3.608-3.777-3.608s-1.566 1.221-3.251-2.311m3.041 3.98c.871 1.976 2.961 4.121 4.901 5.036l-4.487-.015-.979-4.01c.192-.235.405-.578.565-1.011m1.715 35.89h-5.877c-.043 0-.078-.022-.088-.056.025-.254.107-.943.225-1.588l4.553.022c.422.11.922.844 1.187 1.622m13.361-1.618l.06.003c.487.023 1.089.8 1.392 1.646h-5.869c-.051 0-.091-.034-.092-.052.004-.133.031-.871.074-1.597h4.435m2.883-29.574c-.115.429-.328.76-.986.981l-7.495 2.416 1.72 10.214-10.055.006-.533-9.481c-.145-1.86.201-2.454.357-2.623.094-.102.195-.145.342-.145h5.199l.193-.036c.033-.01.066-.021.184-.047l8.561-2.838 2.141-6.824c0 0 2.515.425 2.852.466l-2.48 7.911m4.807-12.142c-.422 2.588-.533 3.277-1.655 3.277-.407 0-3.547-.531-3.547-.531-.663-.11-1.118-.738-1.008-1.396l.146-.896c.078-.475.421-.841.856-.966.249-1.053.822-2.35 2.524-2.35.207 0 .43.02.67.06.366.063 2.405.405 2.014 2.802"/><path d="m41.296 19.027c.476-.115.478-.699.312-1.376-.165-.678-.436-1.193-.91-1.078-.477.116-.727.76-.563 1.438.166.677.685 1.133 1.161 1.016"/><path d="m33.557 20.533c-.322-1.323-1.702-2.188-2.804-1.919 0 0 2.277 1.095 2.31 3.337 0 0 .718-.5.494-1.418"/></svg>