<svg xmlns="http://www.w3.org/2000/svg" viewBox="0 0 64 64" enable-background="new 0 0 64 64"><path d="m43.702 26.116c.011 0 .021 0 .032 0 .99.864 2.269 1.357 3.592 1.357.169 0 .338-.009.508-.025.834.807 1.95 1.273 3.145 1.273 1.17 0 2.283-.462 3.119-1.255.96-.057 1.834-.523 2.423-1.249.685-.158 1.327-.463 1.888-.896.026.001.054.001.08.001 1.936 0 3.512-1.589 3.512-3.542 0-1.667-1.147-3.068-2.688-3.443-.92-1.187-2.345-1.909-3.884-1.909-1.27 0-2.473.501-3.374 1.361-.046-.002-.093-.003-.138-.003-.297 0-.589.037-.872.107-.994-.931-2.31-1.466-3.718-1.466-.151 0-.301.006-.45.019-.619-.646-1.485-1.036-2.438-1.036-1.853 0-3.363 1.502-3.397 3.362-.907.775-1.475 1.929-1.475 3.178-.002 2.298 1.855 4.166 4.135 4.166m-.49-6.373c-.188-.253-.304-.564-.304-.904 0-.844.685-1.527 1.529-1.527.764 0 1.393.562 1.507 1.294.426-.177.892-.276 1.382-.276 1.42 0 2.638.825 3.232 2.012.322-.396.807-.653 1.357-.653.309 0 .594.087.847.227.521-.94 1.514-1.585 2.665-1.585 1.256 0 2.331.757 2.803 1.837.084-.014.17-.026.258-.026.906 0 1.642.734 1.642 1.641s-.735 1.64-1.642 1.64c-.241 0-.468-.054-.673-.146-.561.706-1.415 1.166-2.388 1.166-.018 0-.036-.006-.057-.006-.173.653-.764 1.137-1.472 1.137-.208 0-.408-.042-.589-.118-.464.813-1.328 1.367-2.332 1.367-1.05 0-1.951-.606-2.395-1.484-.393.146-.813.236-1.258.236-1.198 0-2.252-.587-2.911-1.482-.227.074-.463.125-.713.125-1.253 0-2.267-1.014-2.267-2.264.003-1.086.763-1.986 1.779-2.211"/><path d="m44.609 23.675c.216 0 .421-.043.616-.105.568.753 1.481 1.249 2.517 1.249.382 0 .747-.076 1.086-.199.384.738 1.162 1.25 2.071 1.25.867 0 1.614-.468 2.015-1.152.156.064.329.1.509.1.611 0 1.122-.406 1.272-.956.018 0 .033.005.049.005.841 0 1.578-.389 2.063-.982.177.077.373.123.58.123.625 0 1.149-.395 1.341-.94-.206.088-.432.141-.674.141-.229 0-.444-.046-.64-.123-.533.594-1.345.98-2.269.98-.019 0-.036-.004-.056-.004-.164.55-.725.957-1.398.957-.199 0-.389-.037-.56-.1-.441.685-1.263 1.151-2.218 1.151-.999 0-1.854-.512-2.276-1.251-.374.123-.773.2-1.195.2-1.139 0-2.144-.495-2.769-1.249-.216.063-.44.105-.679.105-.427 0-.824-.113-1.159-.305.313.651.988 1.105 1.774 1.105"/><path d="m7.279 16.356c.119 0 .238-.006.356-.017.813.688 1.781 1.149 2.818 1.342.737 1.032 1.937 1.685 3.251 1.685.012 0 .023 0 .035 0 1.05 1.102 2.512 1.749 4.052 1.749 1.597 0 3.079-.674 4.129-1.824.33.051.658.076.985.076 1.801 0 3.48-.685 4.761-1.912.104.008.21.011.313.011 2.781 0 5.043-2.274 5.043-5.07 0-1.643-.807-3.15-2.071-4.085.006-.09.009-.18.009-.271 0-2.228-1.799-4.04-4.011-4.04-1.251 0-2.374.571-3.111 1.488-.308-.041-.618-.063-.933-.063-1.923 0-3.71.791-4.996 2.147-.454-.162-.936-.247-1.429-.247-.16 0-.319.009-.478.027-1.146-1.216-2.745-1.928-4.44-1.928-2.013 0-3.87.988-5.01 2.598-1.953.349-3.442 2.07-3.442 4.136 0 2.315 1.87 4.198 4.169 4.198m0-6.495c.122 0 .242.017.359.036.661-1.511 2.167-2.57 3.924-2.57 1.612 0 3.002.901 3.731 2.218.354-.195.753-.317 1.187-.317.771 0 1.449.361 1.899.915.833-1.662 2.537-2.815 4.525-2.815.686 0 1.338.14 1.935.386.159-1.024 1.039-1.812 2.109-1.812 1.182 0 2.142.958 2.142 2.139 0 .477-.162.911-.426 1.267 1.423.313 2.487 1.576 2.487 3.089 0 1.751-1.42 3.17-3.173 3.17-.351 0-.681-.071-.997-.176-.924 1.254-2.4 2.076-4.077 2.076-.622 0-1.21-.127-1.761-.332-.621 1.229-1.883 2.079-3.354 2.079-1.404 0-2.615-.776-3.263-1.914-.254.106-.533.166-.824.166-.992 0-1.819-.679-2.063-1.592-.027.001-.053.008-.079.008-1.36 0-2.557-.645-3.342-1.632-.288.129-.604.205-.941.205-1.27 0-2.3-1.027-2.3-2.296s1.032-2.298 2.302-2.298"/><path d="m8.815 13.381c.289 0 .561-.061.809-.168.676.814 1.704 1.348 2.874 1.348.022 0 .045-.007.068-.008.209.756.92 1.314 1.773 1.314.249 0 .49-.049.71-.135.557.938 1.598 1.579 2.807 1.579 1.265 0 2.349-.703 2.883-1.717.473.169.98.274 1.515.274 1.441 0 2.712-.68 3.506-1.715.272.085.558.145.859.145 1.307 0 2.396-.884 2.664-2.062-.496.307-1.097.492-1.751.492-.335 0-.65-.06-.951-.146-.879 1.034-2.284 1.714-3.882 1.714-.592 0-1.151-.104-1.676-.273-.593 1.014-1.791 1.717-3.193 1.717-1.339 0-2.489-.642-3.105-1.58-.242.087-.509.136-.787.136-.945 0-1.731-.56-1.962-1.314-.027.002-.05.008-.076.008-1.296 0-2.433-.534-3.183-1.348-.274.105-.576.168-.896.168-.35 0-.676-.078-.971-.204.067.989.917 1.775 1.965 1.775"/><path d="m45.664 39.056l-10.106-17.023-1.5-2.526-1.642 2.434-5.646 8.362-7.895 5.524-.409.286-.215.456-3.929 8.3-4.059 2.051-8.263 12.018v3.062h60v-4.114l-6.271-10.744-10.065-8.086m-34.141 9.352l4.206-2.125 3.272 8.229-7.478-6.104m16.514 8.251l1.402-8.588-10.438-2.146 11.685-3.819-2.571-10.436 5.842-8.653-1.558 7.166 4.207 5.724-5.142-.238 7.479 5.414-5.608 3.652-5.298 11.924m19.942-4.465l-10.75 4.465 7.479-5.964 5.176-5.826 4.405 3.539-6.31 3.786"/></svg>