<svg xmlns="http://www.w3.org/2000/svg" viewBox="0 0 64 64" enable-background="new 0 0 64 64"><path d="M49.542,37.086c-6.881,0-12.457,5.574-12.457,12.459C37.085,56.422,42.661,62,49.542,62S62,56.422,62,49.545
		C62,42.66,56.423,37.086,49.542,37.086z"/><path d="m38.247 31.628c5.113-8.004 23.753-29.628 23.753-29.628h-10.277l-33.474 39.161c-.688.828-1.711 1.303-2.809 1.303-.913 0-1.807-.332-2.517-.933-1.623-1.372-1.875-3.775-.562-5.354 1.658-1.99 1.349-5.007-.688-6.727-.886-.748-2.003-1.161-3.146-1.161-1.384 0-2.679.601-3.551 1.647-4.628 5.557-3.762 13.996 1.933 18.813 2.475 2.097 5.597 3.251 8.79 3.251 2.945 0 5.758-.997 8.016-2.776l.024-.01c2.339-1.088 13.304-15.864 14.501-17.578.003-.002.005-.006.007-.008m-10.22-.197c.927-1.131 1.985-2.386 2.613-3.127 1.165 4.256-1.389 10.154-3.825 14.474 1.303-3.564 2.33-7.974 1.212-11.347m-1.23 13.345c2.832-4.669 6.463-12.141 4.58-17.341l20.795-24.454h1.464c-2.907 3.191-13.093 14.614-15.105 20.209-.64 1.779-1.081 7.022-1.157 7.975-3.143 4.273-7.493 9.967-10.577 13.611"/></svg>