<svg xmlns="http://www.w3.org/2000/svg" viewBox="0 0 64 64" enable-background="new 0 0 64 64"><path d="m58.25 19.813v-4.688c0-1.036-.839-1.875-1.875-1.875h-2.813v-10.312c.001-.519-.418-.938-.937-.938s-.938.419-.938.938v6.132c-.996-.895-2.309-1.444-3.75-1.444-.593 0-1.172.093-1.724.274-1.227-1.343-2.979-2.149-4.839-2.149-2.602 0-4.87 1.504-5.924 3.759-2.446.155-4.389 2.194-4.389 4.678 0 2.585 2.103 4.688 4.688 4.688h11.251v.938c-2.062 0-3.75 1.687-3.75 3.75v6.563c-2.724 0-5.676 0-7.5 0-1.664 0-2.813.829-2.813 2.567v-10.71c0-1.046-.597-2.505-1.326-3.243l-6.723-6.812c-.703-.714-1.837-.732-2.57-.067-1.234-.893-2.745-1.425-4.381-1.425-1.915 0-3.752.744-5.132 2.039-.471-.109-.949-.164-1.431-.164-2.642 0-4.991 1.595-6.016 3.942-1.939.574-3.358 2.372-3.358 4.496 0 2.585 2.103 4.688 4.688 4.688h7.5v8.438h-8.438c-2.062 0-3.75 1.687-3.75 3.75v24.374h12.188 18.75 1.875v-26.281c0-.498.339-.906.751-.906h.375c.412 0 .749.408.749.906v26.281h2.812v-26.281c0-.498.339-.906.751-.906h.375c.412 0 .749.408.749.906v26.281h1.875 8.438 10.312v-38.437c0-2.064-1.687-3.75-3.75-3.75m-47.344 36.562c0 .515-.421.938-.938.938h-2.812c-.515 0-.938-.423-.938-.938v-1.875c0-.517.423-.938.938-.938h2.813c.517 0 .938.421.938.938v1.875zm0-7.5c0 .515-.421.938-.938.938h-2.812c-.515 0-.938-.423-.938-.938v-1.875c0-.517.423-.938.938-.938h2.813c.517 0 .938.421.938.938v1.875zm0-7.5c0 .515-.421.938-.938.938h-2.812c-.515 0-.938-.423-.938-.938v-1.875c0-.517.423-.938.938-.938h2.813c.517 0 .938.421.938.938v1.875zm-4.218-17.812c-1.553 0-2.813-1.26-2.813-2.813s1.26-2.813 2.813-2.813h.096c.434-2.141 2.325-3.75 4.592-3.75.72 0 1.394.176 2.003.465 1.022-1.415 2.681-2.34 4.56-2.34 1.121 0 2.161.331 3.038.896l-5.462 5.533c-.729.738-1.326 2.197-1.326 3.243v1.578h-7.501zm23.437 32.812c0 .515-.421.938-.938.938h-11.25c-.515 0-.938-.423-.938-.938v-1.875c0-.517.423-.938.938-.938h11.25c.517 0 .938.421.938.938v1.875m0-7.5c0 .515-.421.938-.938.938h-11.25c-.515 0-.938-.423-.938-.938v-1.875c0-.517.423-.938.938-.938h11.25c.517 0 .938.421.938.938v1.875m0-7.5c0 .515-.421.938-.938.938h-11.25c-.515 0-.938-.423-.938-.938v-1.875c0-.517.423-.938.938-.938h11.25c.517 0 .938.421.938.938v1.875m0-7.5c0 .515-.421.938-.938.938h-11.25c-.515 0-.938-.423-.938-.938v-1.875c0-.517.423-.938.938-.938h11.25c.517 0 .938.421.938.938v1.875m0-7.5c0 .515-.421.938-.938.938h-11.25c-.515 0-.938-.423-.938-.938v-1.875c0-.517.423-.938.938-.938h11.25c.517 0 .938.421.938.938v1.875m5.625-9.375c-1.553 0-2.813-1.26-2.813-2.813s1.26-2.813 2.813-2.813c.359 0 .697.073 1.013.196.356-2.234 2.279-3.946 4.612-3.946 1.879 0 3.486 1.111 4.235 2.706.641-.512 1.443-.83 2.328-.83 2.071 0 3.75 1.679 3.75 3.75h-2.813c-1.034 0-1.875.839-1.875 1.875v1.875h-11.25m15.469 41.25c0 .515-.421.938-.938.938h-2.813c-.515 0-.938-.423-.938-.938v-1.875c0-.517.423-.938.938-.938h2.813c.517 0 .938.421.938.938v1.875m0-6.562c0 .515-.421.938-.938.938h-2.813c-.515 0-.938-.423-.938-.938v-1.875c0-.517.423-.938.938-.938h2.813c.517 0 .938.421.938.938v1.875m0-6.563c0 .515-.421.938-.938.938h-2.813c-.515 0-.938-.423-.938-.938v-1.875c0-.517.423-.938.938-.938h2.813c.517 0 .938.421.938.938v1.875m0-6.562c0 .515-.421.938-.938.938h-2.813c-.515 0-.938-.423-.938-.938v-1.875c0-.517.423-.938.938-.938h2.813c.517 0 .938.421.938.938v1.875m0-6.563c0 .515-.421.938-.938.938h-2.813c-.515 0-.938-.423-.938-.938v-1.875c0-.517.423-.938.938-.938h2.813c.517 0 .938.421.938.938v1.875m0-6.562c0 .515-.421.938-.938.938h-2.813c-.515 0-.938-.423-.938-.938v-1.875c0-.517.423-.938.938-.938h2.813c.517 0 .938.421.938.938v1.875m7.5 32.812c0 .515-.421.938-.938.938h-2.813c-.515 0-.938-.423-.938-.938v-1.875c0-.517.423-.938.938-.938h2.813c.517 0 .938.421.938.938v1.875m0-6.562c0 .515-.421.938-.938.938h-2.813c-.515 0-.938-.423-.938-.938v-1.875c0-.517.423-.938.938-.938h2.813c.517 0 .938.421.938.938v1.875m0-6.563c0 .515-.421.938-.938.938h-2.813c-.515 0-.938-.423-.938-.938v-1.875c0-.517.423-.938.938-.938h2.813c.517 0 .938.421.938.938v1.875m0-6.562c0 .515-.421.938-.938.938h-2.813c-.515 0-.938-.423-.938-.938v-1.875c0-.517.423-.938.938-.938h2.813c.517 0 .938.421.938.938v1.875m0-6.563c0 .515-.421.938-.938.938h-2.813c-.515 0-.938-.423-.938-.938v-1.875c0-.517.423-.938.938-.938h2.813c.517 0 .938.421.938.938v1.875m0-6.562c0 .515-.421.938-.938.938h-2.813c-.515 0-.938-.423-.938-.938v-1.875c0-.517.423-.938.938-.938h2.813c.517 0 .938.421.938.938v1.875"/></svg>