<svg xmlns="http://www.w3.org/2000/svg" viewBox="0 0 64 64" enable-background="new 0 0 64 64"><path d="m32 2c-16.57 0-30 13.432-30 30.001 0 16.571 13.43 29.999 30 29.999 16.568 0 30-13.428 30-29.999 0-16.569-13.432-30.001-30-30.001m27.957 28.467c-4.51-4.582-14.244-11.716-31.352-12.001-.102-2.957.295-5.729.878-8.134 12.628.281 22.294 5.654 27.823 9.697 1.518 3.196 2.449 6.721 2.651 10.438m-28.273-26.459c.105-.001.211-.008.316-.008 9.709 0 18.275 4.968 23.3 12.493-5.874-3.706-14.543-7.615-25.325-7.958.552-1.836 1.179-3.376 1.709-4.527m-12.487 3.103c3.186-1.646 6.725-2.696 10.473-3.007-2.35 5.518-5.678 17.083 1.359 27.939-1.953 3.829-4.594 6.645-7.444 8.712-8.853-16.066-6.09-28.736-4.388-33.644m-10.088 8.794c2.074-2.941 4.699-5.466 7.726-7.424-1.73 6.158-3.118 18.228 5.249 33.292-2.51 1.565-5.105 2.61-7.481 3.307-6.139-11.201-6.256-22.384-5.494-29.175m-5.109 16.096c0-4.556 1.101-8.856 3.039-12.662-.311 6.968.592 16.567 5.764 26.216-1.898.447-3.569.674-4.837.79-2.516-4.199-3.966-9.105-3.966-14.344m5.067 16.035c5.94-.716 17.664-3.599 23.563-15.154 4.293-.224 8.051.657 11.263 2.094-9.485 15.701-21.845 19.641-26.942 20.618-3.096-1.982-5.777-4.553-7.884-7.558m20.625 11.861c-3.706-.305-7.208-1.332-10.367-2.943 6.198-1.581 17.343-6.414 26.202-21.188 2.609 1.391 4.813 3.117 6.604 4.827-6.604 10.871-16.174 16.557-22.439 19.304m4.066.042c6.168-3.226 13.956-8.789 19.686-18.022 1.286 1.369 2.293 2.659 3.021 3.681-4.52 8.1-12.942 13.733-22.707 14.341m-1.202-28.863c-2.34-3.604-3.456-7.299-3.819-10.801 18.174.361 27.756 8.938 31.234 12.916-.159 3.778-1.071 7.363-2.589 10.613-3.632-4.805-11.969-13.388-24.826-12.728"/></svg>