<svg xmlns="http://www.w3.org/2000/svg" viewBox="0 0 64 64" enable-background="new 0 0 64 64"><path d="m59.836 58.25l-3.447-21.553 3.24-17.822h.496c.651 0 1.287-.295 1.635-.896.494-.855.199-1.955-.655-2.448l-.785-.453.011-.062-.102.01-22.604-13.026h-11.25l-23.479 24.783c-.855.493-1.149 1.593-.657 2.448.494.854 1.597 1.148 2.452.655l2.789-3.104 1.998 5.327-3.486 26.141h-3.992v3.75h60v-3.75h-2.164m-5.32-21.73l-.029.158 3.451 21.572h-2.5l-3.416-6.833 1.541-12.854-3.024 9.89-2.601-5.202 3.213 15h-2.742l-3.263-12.236 4.377-27.141 8.201.001-3.208 17.645m-14.871-29.739v-1.968l4.543 3.75h3.534l3.028 3.75-4.039-1.84h-3.029l-6.057-3.691h2.02zm-28.247 25.11l-2.505-6.681 17.482-19.46 21.321 12.671-4.467 27.69 3.237 12.139h-21.966l-1.331-5.99 3.412-.77 1.113-.25-1.019-2.282.145-.867.479-2.899.15-.904-.902-.169-2.792-.524.745-4.095h-9.643l-.567 2.316-2.262-.425-.941-.177-.156.944-.48 2.899-.149.904.901.169 2.109.396.427 3.235-2.569.542-1.112.251.461 1.043 1.101 2.49.312.705.752-.17 1.648-.371.527 3.996h-6.975l3.514-26.356m14.207 16.946l.77 1.739-13.899 3.135-1.101-2.49 12.232-2.76 1.998.376m-14.23-3.626l.479-2.898 14.521 2.727-.479 2.898-14.521-2.727"/><path d="m55.438 24.5h-4.374l-1.251 7.5h4.372z"/><path d="m24.5 32l-1.875-7.5h-7.5l1.875 7.5z"/><path d="m41.375 35.75l1.875-7.5-3.75-3.75h-7.5l-1.875 7.5h7.5l3.75 3.75m-1.367-9.416l2.204 2.203-1.345 5.379-2.204-2.203 1.345-5.379"/><path d="m40.438 52.625l-1.108-7.655 1.108-5.47h-9.206l-2.044 6.563 2.044 6.562z"/></svg>