<svg xmlns="http://www.w3.org/2000/svg" viewBox="0 0 64 64" enable-background="new 0 0 64 64"><path d="m3.875 40.438c0 1.036.84 1.875 1.875 1.875.479 0 .91-.185 1.241-.479.449.303.99.479 1.571.479s1.122-.177 1.571-.479c.331.295.763.479 1.241.479 1.035 0 1.875-.839 1.875-1.875 0-1.034-.84-1.875-1.875-1.875-.057 0-.111.012-.167.017-.383-1.098-1.417-1.892-2.646-1.892-.925 0-1.739.453-2.252 1.144-.157-.122-.347-.206-.561-.206-.519 0-.938.419-.938.938 0 .083.027.157.048.234-.582.317-.983.929-.983 1.64"/><path d="m50.75 19.125c4.722 0 8.563-3.841 8.563-8.563 0-4.721-3.841-8.562-8.563-8.562s-8.563 3.841-8.563 8.563c.001 4.721 3.841 8.562 8.563 8.562m0-15.125c3.625 0 6.563 2.939 6.563 6.563 0 3.626-2.938 6.563-6.563 6.563s-6.563-2.937-6.563-6.563c.001-3.624 2.938-6.563 6.563-6.563"/><path d="m11.375 9.75h6.057c.68 1.123 1.913 1.875 3.318 1.875h3.75c2.137 0 3.875-1.738 3.875-3.875s-1.738-3.875-3.875-3.875h-.432c-.679-1.123-1.913-1.875-3.318-1.875h-9.375c-2.137 0-3.875 1.738-3.875 3.875s1.738 3.875 3.875 3.875m0-5.75h9.375c1.035 0 1.875.84 1.875 1.875h1.875c1.035 0 1.875.84 1.875 1.875 0 1.036-.84 1.875-1.875 1.875h-3.75c-1.035 0-1.875-.839-1.875-1.875h-7.5c-1.035 0-1.875-.839-1.875-1.875 0-1.035.84-1.875 1.875-1.875"/><path d="m33.875 14.438h3.75c2.137 0 3.875-1.738 3.875-3.875s-1.738-3.875-3.875-3.875h-3.75c-2.137 0-3.875 1.738-3.875 3.875s1.738 3.875 3.875 3.875m0-5.75h3.75c1.035 0 1.875.84 1.875 1.875 0 1.036-.84 1.875-1.875 1.875h-3.75c-1.035 0-1.875-.839-1.875-1.875 0-1.035.84-1.875 1.875-1.875"/><path d="m56.375 43.25v-4.93c1.604.118 3.45.104 5.625-.103v-2.229c-.625.081-1.262.137-1.906.175.054-.404-.024-.862-.287-1.355l-1.168-2.195c.577-.395.731-1.107.294-1.929l-1.353-2.544c.64-.239.865-.856.479-1.58l-1.723-3.236c-.494-.931-1.302-.931-1.797 0l-1.723 3.236c-.387.725-.161 1.341.479 1.58l-1.353 2.544c-.438.821-.282 1.535.294 1.929l-1.168 2.195c-.049.09-.072.177-.109.266-.638-.206-1.272-.436-1.897-.704-.062-.026-.125-.05-.187-.075v-4.302c1.614-.418 2.813-1.872 2.813-3.617 0-2.071-1.679-3.75-3.75-3.75h-31.875c-.728 0-1.401.216-1.977.575l-5.511-5.149c-.749-.7-1.736-1.05-2.724-1.05-2.138-.001-3.851 2.102-3.851 2.102v2.717c1.447-1.547 2.775-2.82 3.852-2.82.523 0 1.005.182 1.358.512l5.527 5.164c-.263.512-.425 1.084-.425 1.698 0 1.745 1.198 3.199 2.813 3.617v5.077c-1.2-.232-2.292-.544-3.188-.947-2.427-1.092-5.755-2.144-9.937-2.113v2.094c2.947-.172 6.956.871 9.117 1.844 1.213.546 2.611.912 4.008 1.16v9.893h-13.125v15h15v-11.25h1.875v-3.75h-1.875v-9.633c.689.075 1.364.134 1.984.167-1.256 1.887-1.381 4.947 5.806 9.273 11.04 6.647.353 15.193.353 15.193h15.943c0 0 4.497-11.633-11.254-17.091-6.811-2.36-7.888-5.384-7.728-7.336 3.575-.085 6.929-.617 9.114-1.469 2.517-.98 5.019-1.859 7.964-1.859h.103c2.522.017 5.164.521 7.715 1.458v11.297h-1.875v3.75h1.875v11.25h15v-15h-13.125v-10.537c1.583.662 3.337 1.295 5.625 1.647v5.14h1.875m-48.75 12.188h-3.75v-1.875h3.75v1.875m7.5 1.875h-3.75v-1.875h3.75v1.875m41.25-4.688h3.75v1.875h-3.75v-1.875m-3.75 5.625h3.75v1.875h-3.75v-1.875m-36.562-30.937c-.519 0-.938-.419-.938-.938s.419-.938.938-.938.937.419.937.938-.419.938-.937.938m5.048 8.278c-1.397 0-2.791-.078-4.111-.234v-5.231h1.568l5.709 5.333c-1.031.083-2.095.132-3.166.132m25.889-2.008c-2.46-.832-5.064-1.32-7.701-1.338-.039 0-.078 0-.116 0-3.333 0-6.109.99-8.689 1.996-.993.387-2.274.694-3.701.92-.179-.219-.36-.428-.551-.605l-4.743-4.431h25.501v3.458m.938-6.27c-.519 0-.938-.419-.938-.938s.419-.938.938-.938.938.419.938.938-.42.938-.938.938"/></svg>