<svg xmlns="http://www.w3.org/2000/svg" viewBox="0 0 64 64" enable-background="new 0 0 64 64"><path d="m32 27.315c-1.131 0-3.346-.766-6.525-1.594v-1.88c0-1.06-.857-1.918-1.922-1.918-1.057 0-1.914.858-1.914 1.918v.993c-.793-.16-1.633-.308-2.502-.445v-8.51c0-1.593-1.287-2.88-2.875-2.88-1.59 0-2.877 1.287-2.877 2.88v7.896c-3.41-.182-7.213-.072-11.385.569v37.656h60v-35.142c-3.341-.797-12.121-2.354-15-2.354-3.865 0-10.157 2.811-15 2.811m-.046 1.873c-1.536.002-3.064.11-4.585.175-.656.028-1.281.052-1.895.078v-1.854c3.342.826 5.835 1.598 6.48 1.601m-10.315-2.464v2.876h-2.502v-3.333c.851.138 1.687.293 2.502.457m-17.764-.499c1.981-.164 5.355-.632 8.41-.605.364.003.732.021 1.1.035v5.532c-.904.222-1.878.475-2.928.762-.153-.63-.717-1.101-1.391-1.101-.799 0-1.441.646-1.441 1.441v.46c-1.162.339-2.406.714-3.75 1.13v-7.654m6.627 7.786c1.003-.249 1.967-.479 2.883-.688v3.284h-2.883v-2.596m-6.627 1.835c.767-.243 1.865-.598 3.228-.962.18-.048.345-.09.522-.137v3.298c0 .795.643 1.439 1.441 1.439h4.318v5.032c-1.274-.181-2.608-.205-4.023.028-1.99.328-4.045 1.069-5.486 1.582v-10.28m56.25 24.279h-56.25v-12.007c2.219-.819 6.075-2.427 8.41-2.054.328.053.702.136 1.1.234v1.821c0 2.88 1.287 2.88 2.877 2.88 1.57 0 2.845-.005 2.872-2.792.874.332 1.675.646 2.294.89 4.124 1.629 7.978 3.148 10.339 3.148.124 0 .242-.004.356-.011 1.411-.094 3.957-.51 6.9-1.03-.119.946-.203 1.891-.289 2.779-.241.083-.485.165-.729.249-.67.229-.385 1.346.293 1.114.387-.131.772-.256 1.159-.387 2.565 2.016 4.313 2.54 7.59 2.296 3.388-.253 5.378-.802 7.896-3.203.527-.5-.253-1.317-.776-.817-.983.936-1.883 1.539-2.831 1.957-.357-.582-.714-1.162-1.069-1.742-.385-.625-1.335-.046-.95.583.316.516.634 1.032.95 1.548-.946.272-1.981.417-3.219.519-.575.047-1.172.109-1.768.129.334-.62.665-1.238.998-1.858.352-.65-.601-1.232-.948-.584-.429.798-.858 1.597-1.287 2.395-.537-.065-1.059-.199-1.544-.46-.617-.329-1.201-.748-1.769-1.186 1.747-.583 3.497-1.147 5.266-1.639 3.269-.905 6.664.16 9.989-.768.685-.19.394-1.307-.293-1.113-2.538.707-5.104.283-7.644.427-.207-.563-.41-1.125-.615-1.688-.007-.021-.021-.031-.029-.05 1.23-.213 2.41-.409 3.469-.571.367.525.734 1.05 1.1 1.573.416.595 1.372.019.951-.583-.271-.39-.546-.779-.818-1.168.292-.041.57-.076.83-.107.576.03 1.133.061 1.619.073.201.005.338-.088.425-.218.033 0 .066-.001.099-.001 1.983 0 3.844.281 5.047.516v10.906zm-19.146-8.048c.234-.456.479-.912.74-1.354.281-.052.561-.102.846-.153.021-.003.045-.008.067-.012-.565.487-1.118.995-1.653 1.519m4.154-1.971c.407-.072.812-.145 1.214-.216.003.056.004.111.027.174.179.494.36.988.54 1.483-.404.054-.808.13-1.209.234-1.344.352-2.675.763-4 1.198 1.081-1.043 2.213-2.037 3.428-2.873m14.992-2.795c-1.284-.234-3.098-.482-5.047-.482-.192 0-.386.003-.58.007-.975.025-2.574.233-4.491.536.249-.363.499-.726.747-1.087.417-.606-.537-1.182-.949-.584-.438.64-.879 1.278-1.318 1.919-1.62.271-3.388.587-5.159.907.408-.435.85-.819 1.338-1.12 3.076-1.888 6.242-2.912 9.745-2.265.692.127.989-.986.291-1.115-3.504-.647-6.101.242-9.221 1.698.222-.411.441-.823.661-1.235.348-.651-.601-1.234-.949-.583-.503.938-1.003 1.875-1.505 2.813-.785.577-1.451 1.303-2.04 2.11-.378.068-.752.137-1.125.203.279-1.096.688-2.114 1.334-2.91 1.481-1.828 3.183-2.988 5.076-3.685.693.465 1.384.927 2.078 1.391.599.402 1.149-.599.553-.999-.406-.271-.813-.543-1.22-.816 1.069-.252 2.19-.396 3.371-.42.709-.014.709-1.17 0-1.156-1.538.031-3.151 0-4.629.489-2.115.698-3.972 2.339-5.564 3.899-1.18 1.156-1.798 2.733-2.168 4.417-3.153.563-5.926 1.027-7.354 1.12-.075.005-.153.008-.233.008-2.131 0-6.247-1.82-10.339-3.292-.756-.271-1.518-.572-2.291-.872v-12.767h4.416c1.064 0 1.922-.862 1.922-1.923v-.202c2.49-.217 4.566-.253 6.525-.253 6.127 0 23.244 5.09 28.125 6.58v9.669m0-11.628c-5.532-1.681-21.848-6.473-28.08-6.494 2.789-.008 5.819-.81 8.75-1.585 2.378-.63 4.625-1.225 6.205-1.225 2.597 0 9.41 1.511 13.125 2.405v6.899"/><path d="m7.625 49.344c-1.555 0-2.813.839-2.813 1.873s1.258.938 2.813.938c1.553 0 2.813.097 2.813-.938s-1.26-1.873-2.813-1.873"/><path d="m20.097 56.456c-1.555 0-2.813.838-2.813 1.873 0 1.034 1.258.938 2.813.938 1.553 0 2.813.097 2.813-.938-.001-1.035-1.261-1.873-2.813-1.873"/><path d="m29.188 53.093c-1.555 0-2.813.839-2.813 1.873 0 1.035 1.258.938 2.813.938 1.553 0 2.813.098 2.813-.938-.001-1.034-1.261-1.873-2.813-1.873"/><path d="m46.531 10.436c0 3.62 2.944 6.564 6.564 6.564 3.617 0 6.561-2.944 6.561-6.564 0-3.617-2.943-6.561-6.561-6.561-3.619 0-6.564 2.943-6.564 6.561m6.565-4.686c2.584 0 4.686 2.103 4.686 4.686 0 2.586-2.102 4.689-4.686 4.689-2.586 0-4.689-2.104-4.689-4.689-.001-2.583 2.103-4.686 4.689-4.686"/><path d="m45.487 9.224c.339-2.695 1.739-4.61 3.984-5.817.35-.185.042-.742-.302-.559-2.373 1.272-3.906 3.357-4.265 6.206-.05.404.533.582.583.17"/><path d="m61.071 12.717c.108-.402-.474-.572-.582-.174-.81 2.984-2.457 5.199-5.29 6.11-.371.119-.21.743.159.623 3.037-.974 4.844-3.358 5.713-6.559"/><path d="m49.551 18.351c.333.223.632-.338.306-.559-2.06-1.376-3.085-3.111-3.528-5.652-.073-.411-.654-.238-.582.171.471 2.711 1.617 4.577 3.804 6.04"/><path d="m54.517 3.126c1.704-.154 3.382 1.681 4.248 3.09.21.348.732.021.519-.328-.975-1.588-2.835-3.584-4.767-3.408-.387.036-.387.681 0 .646"/><path d="m45.669 18.219c1.84 1.731 3.889 2.496 6.324 2.531.39.006.39-.641 0-.646-2.274-.035-4.179-.723-5.896-2.344-.29-.273-.719.184-.428.459"/><path d="m58.112 20.333c1.592-.68 2.705-2.607 3.388-4.21.157-.376-.36-.706-.52-.326-.606 1.425-1.606 3.304-3.031 3.913-.356.15-.199.778.163.623"/><path d="m44.691 12.71c-1.022-2.339-1.406-6.48.565-8.38.289-.277-.138-.733-.429-.457-2.191 2.114-1.794 6.563-.655 9.164.166.376.683.048.519-.327"/><path d="m61.396 8.651c.006.416.608.416.604 0-.035-2.653-.841-4.778-2.687-6.564-.289-.278-.716.177-.428.457 1.734 1.677 2.479 3.617 2.511 6.107"/></svg>