<svg xmlns="http://www.w3.org/2000/svg" viewBox="0 0 64 64" enable-background="new 0 0 64 64"><path d="m52.75 18.875c4.652 0 8.438-3.785 8.438-8.438s-3.786-8.437-8.438-8.437-8.438 3.785-8.438 8.438 3.786 8.437 8.438 8.437m0-15c3.625 0 6.563 2.938 6.563 6.563 0 3.624-2.938 6.563-6.563 6.563s-6.563-2.938-6.563-6.563c.001-3.625 2.938-6.563 6.563-6.563"/><path d="m11.375 9.5h6.129c.648 1.121 1.861 1.875 3.246 1.875h3.75c2.067 0 3.75-1.683 3.75-3.75s-1.683-3.75-3.75-3.75h-.504c-.648-1.121-1.861-1.875-3.246-1.875h-9.375c-2.067 0-3.75 1.683-3.75 3.75s1.683 3.75 3.75 3.75m0-5.625h9.375c1.035 0 1.875.839 1.875 1.875h1.875c1.035 0 1.875.839 1.875 1.875 0 1.034-.84 1.875-1.875 1.875h-3.75c-1.035 0-1.875-.841-1.875-1.875h-7.5c-1.035 0-1.875-.841-1.875-1.875 0-1.036.84-1.875 1.875-1.875"/><path d="m33.875 14.188h3.75c2.067 0 3.75-1.683 3.75-3.75s-1.683-3.75-3.75-3.75h-3.75c-2.067 0-3.75 1.683-3.75 3.75s1.683 3.75 3.75 3.75m0-5.625h3.75c1.035 0 1.875.839 1.875 1.875 0 1.034-.84 1.875-1.875 1.875h-3.75c-1.035 0-1.875-.841-1.875-1.875 0-1.037.84-1.875 1.875-1.875"/><path d="m17.938 13.25h-3.75c-2.067 0-3.75 1.683-3.75 3.75s1.683 3.75 3.75 3.75h3.75c2.067 0 3.75-1.683 3.75-3.75s-1.683-3.75-3.75-3.75m0 5.625h-3.75c-1.035 0-1.875-.841-1.875-1.875 0-1.036.84-1.875 1.875-1.875h3.75c1.035 0 1.875.839 1.875 1.875 0 1.034-.84 1.875-1.875 1.875"/><path d="m45.836 32c.492-2.209-.303-4.694-2.265-6.34-1.088-.916-2.367-1.428-3.647-1.556l.262-.179-.055-.028c.091-.004.177-.019.27-.019 2.946.015 5.389 1.656 5.908 3.816.068-.316.107-.646.109-.984.012-2.728-2.358-4.952-5.303-4.967-1.023-.004-1.979.26-2.795.721.313-.882.408-1.869.224-2.878-.524-2.895-3.124-4.847-5.809-4.358-.333.06-.649.153-.949.278 2.214.137 4.256 2.258 4.779 5.156.023.128.023.255.042.385-.38-1.129-1.075-2.189-2.077-3.03-2.726-2.293-6.657-2.097-8.78.438-.265.314-.484.646-.668.996 2.167-1.59 5.71-1.194 8.439 1.102.068.057.132.111.195.166-.233-.124-.482-.234-.741-.327-2.682-.963-5.577.276-6.469 2.769-.109.306-.185.618-.227.931 1.188-1.794 3.775-2.882 6.64-1.639.813.354 1.373.861 1.758 1.394-.689.865-1.301 1.733-1.841 2.599l-.008-.002c0 0-.038.057-.083.149-1.135 1.845-1.955 3.673-2.54 5.407h-28.205v30h60v-30h-16.164m-4.584-4.905c1.644 1.381 2.648 3.171 2.939 4.905h-2.271c.485-1.368.395-2.975-.413-4.393-.139-.241-.29-.465-.453-.676.067.053.134.109.198.164m-.91 4.905h-5.064c.667-2.643 1.496-4.386 2.193-5.49.644.231 1.337.68 1.897 1.529.835 1.265 1.115 2.683.974 3.961m-7.302-4.047c.224.186.549.357 1.031.493.514.143.977.088 1.376-.041-.316.768-.626 1.657-.911 2.69l-2.829-.39c.372-.901.813-1.822 1.333-2.752m-.178 4.741c.554.075.997-.082 1.352-.313-.203.883-.386 1.853-.541 2.918l-3.274-.449c.215-.956.496-1.961.866-2.998.231.374.694.717 1.597.842m-3.081 7.588c.284.427.811.793 1.788.793.828 0 1.345-.528 1.653-1.054-.054 1.057-.086 2.171-.086 3.365 0 0-.696.599-1.625.599-.465 0-.986-.15-1.51-.599.001.001-.227-1.182-.22-3.104m3.502-1.297h-3.464c.051-.91.16-1.929.356-3.029.215.401.676.786 1.641.918.773.105 1.339-.229 1.728-.609-.106.851-.194 1.755-.261 2.72m1.889-14.251c.358.861.362 1.591.362 1.591s.393-.079.953-.03c-.179.301-.363.641-.548 1.016l-2.16-.603c.419-.657.885-1.316 1.393-1.974m16.516 24.428c-1.343 4.814-8.815 4.4-19.688 4.4-10.873 0-18.345.414-19.688-4.4-1.389-4.979 6.976-10.398 16.645-11.374-.087.881-.122 1.686-.126 2.399-3.615 1.228-6.206 4.252-6.206 5.928 0 1.813 2.956.266 4.688.967 1.691.688 2.13 1.934 4.688 1.934 2.59 0 2.991-1.232 4.688-1.934 1.696-.699 4.688.918 4.688-.967 0-1.827-3.076-5.252-7.207-6.207.041-.766.096-1.493.162-2.187 9.965.775 18.779 6.342 17.356 11.441"/></svg>