<svg xmlns="http://www.w3.org/2000/svg" viewBox="0 0 64 64" enable-background="new 0 0 64 64"><path d="m55.323 8.66c-3.411-3.403-9.273-6.66-16.109-6.66-5.605 0-11.863 2.188-17.968 8.275-6.812 6.794-10.291 14.948-6.23 23.8 1.731 6.125-.516 10.404-2.296 12.32-2.485 2.673-10.72 9.906-10.72 9.906s.588 1.643 2.545 3.51c1.846 1.762 3.044 1.996 3.044 1.996s7.129-8.026 9.732-10.476c1.889-1.776 6.312-4.272 12.781-2.353 2.509 1.104 4.962 1.617 7.343 1.617 5.944 0 11.441-3.146 16.255-7.947 13.553-13.515 7.832-27.798 1.623-33.988m-48.292 50.752c-.25-.213-2.305-2.295-2.544-2.629 3.334-2.944 16.038-14.881 16.038-14.881l1.466 1.465c0 0-11.792 12.475-14.96 16.045"/><path d="m54.138 46.275c-4.342 0-7.863 3.521-7.863 7.863s3.521 7.862 7.863 7.862 7.861-3.52 7.861-7.861-3.52-7.864-7.861-7.864m0 13.725c-3.232 0-5.863-2.629-5.863-5.861s2.631-5.863 5.863-5.863 5.861 2.631 5.861 5.863-2.629 5.861-5.861 5.861"/></svg>