<svg xmlns="http://www.w3.org/2000/svg" viewBox="0 0 64 64" enable-background="new 0 0 64 64"><path d="m53.563 18.875c4.652 0 8.438-3.785 8.438-8.438s-3.786-8.437-8.438-8.437-8.438 3.785-8.438 8.438 3.785 8.437 8.438 8.437m0-15c3.624 0 6.563 2.938 6.563 6.563s-2.939 6.562-6.563 6.562c-3.625 0-6.563-2.937-6.563-6.562s2.938-6.563 6.563-6.563"/><path d="m11.375 9.5h6.129c.648 1.121 1.861 1.875 3.246 1.875h3.75c2.067 0 3.75-1.683 3.75-3.75s-1.683-3.75-3.75-3.75h-.504c-.648-1.121-1.861-1.875-3.246-1.875h-9.375c-2.067 0-3.75 1.683-3.75 3.75s1.683 3.75 3.75 3.75m0-5.625h9.375c1.034 0 1.875.84 1.875 1.875h1.875c1.034 0 1.875.84 1.875 1.875s-.841 1.875-1.875 1.875h-3.75c-1.036 0-1.875-.84-1.875-1.875h-7.5c-1.036 0-1.875-.84-1.875-1.875s.839-1.875 1.875-1.875"/><path d="m33.875 14.188h3.75c2.067 0 3.75-1.683 3.75-3.75s-1.683-3.75-3.75-3.75h-3.75c-2.067 0-3.75 1.683-3.75 3.75s1.683 3.75 3.75 3.75m0-5.625h3.75c1.034 0 1.875.84 1.875 1.875s-.841 1.875-1.875 1.875h-3.75c-1.036 0-1.875-.84-1.875-1.875s.839-1.875 1.875-1.875"/><path d="m17.938 13.25h-3.75c-2.067 0-3.75 1.683-3.75 3.75s1.683 3.75 3.75 3.75h3.75c2.067 0 3.75-1.683 3.75-3.75s-1.683-3.75-3.75-3.75m0 5.625h-3.75c-1.036 0-1.875-.84-1.875-1.875s.839-1.875 1.875-1.875h3.75c1.034 0 1.875.84 1.875 1.875s-.841 1.875-1.875 1.875"/><path d="m46.603 36.975c.536.102.829-.055 1.599-.524 1.063-.652 2.525-1.546 4.931-1.085l.321.061c1.231-6.415-8.98-10.38-9.458-10.524.478 2.701 1.207 7.132 1.688 11.472.301.362.523.525.919.6"/><path d="m33.659 33.671c.507.712.71.964 1.229 1.063.515.1.798-.06 1.542-.532.059-.038.124-.077.183-.117 1.987-3.689 4.16-7.313 5.53-9.537-.65-.083-11.49-.064-12.777 6.283l.314.061c2.305.439 3.272 1.791 3.979 2.779"/><path d="m57.931 32c-1.683-6.203-9.454-9.379-10.639-9.828-1.641-.854-4.618-1.35-6.209-1.422-4.688-.213-14.617.489-16.346 9.23l-.144.733-.011.049-.006.052c-.061.434-.073.821-.062 1.186h-22.514v30h60v-30h-4.069m-31.497-.927c0 0 0 0 .143-.729 1.454-7.352 10.403-7.917 14.507-7.719 1.395.067 4.053.508 5.439 1.261 0 0 11.292 4.07 9.698 12.126-.143.728-.143.728-.143.728-.267 1.04-.646 1.591-1.014 1.591-.249 0-.491-.254-.689-.778 0 0 0 0-.706-.135-.388-.074-.739-.106-1.063-.106-2.336 0-3.194 1.7-5.113 1.7-.212 0-.438-.021-.68-.067-2.729-.521-2.289-3.275-5.773-3.942-.385-.073-.733-.105-1.055-.105-2.338 0-3.196 1.702-5.117 1.702-.211 0-.437-.021-.679-.066-2.729-.523-2.29-3.277-5.772-3.943-.711-.135-.711-.135-.711-.135-.312.335-.581.494-.796.494-.439-.003-.644-.677-.476-1.877m15.146 6.062l-2.908 14.721c-.088.455-.488.77-.933.77-.059 0-.117-.006-.177-.017-.515-.098-.846-.593-.743-1.106l2.904-14.705 1.857.337m18.545 22.99h-43.361c-18.839-14.558 2.766-19.705 21.646-21.52l-2.511 12.715c-.099.494.002.998.283 1.416.281.417.709.699 1.204.793.116.022.235.033.353.033.9 0 1.68-.642 1.854-1.526l2.718-13.763c.156-.012.312-.022.467-.034.027.036.055.067.083.104.69.872 1.635 2.067 3.602 2.442.348.066.695.101 1.031.101 1.411 0 2.415-.573 3.221-1.034.676-.388 1.165-.666 1.893-.666.178 0 .369.016.571.049.671.857 1.498.971 1.887.971.882 0 2.031-.479 2.695-2.572 1.493-.013 2.365-.004 2.365-.004v22.495z"/></svg>