<svg xmlns="http://www.w3.org/2000/svg" viewBox="0 0 64 64" enable-background="new 0 0 64 64"><path d="m62 24.051v-2.816l-30.012-19.235-29.988 19.234v2.816l1.635-1.049.94 1.273-2.575 1.654v1.875h2.617v1.842h-2.617v2.355h5.75v1.195h.75v19.555h-.75v1.75h-.5v1.875h-1.75v1.875h-1.75v1.875h-1.75v1.875h60v-1.875h-1.75v-1.875h-1.75v-1.875h-1.75v-1.875h-.5v-1.75h-.75v-19.555h.75v-1.195h5.75v-2.355h-2.617v-1.842h2.617v-1.875l-2.576-1.651.941-1.273 1.635 1.047m-52.193 27.969h-.708v-18.041h.708v18.041m1.364 0h-.707v-18.041h.707v18.041m1.364 0h-.707v-18.041h.707v18.041m1.365 0h-.708v-18.041h.708v18.041m8.266.791h-.75v1.689h-6.166v-1.75h-.75v-19.555h.75v-1.195h6.166v1.195h.75v19.616m1.307-.791h-.707v-18.041h.707v18.041m1.365 0h-.708v-18.041h.708v18.041m1.364 0h-.708v-18.041h.708v18.041m1.364 0h-.707v-18.041h.707v18.041m8.267.791h-.75v1.689h-6.167v-1.689h-.75v-19.616h.75v-1.195h6.167v1.195h.75v19.616m1.307-.791h-.707v-18.041h.707v18.041m1.365 0h-.708v-18.041h.708v18.041m1.364 0h-.708v-18.041h.708v18.041m1.364 0h-.707v-18.041h.707v18.041m8.267.73h-.75v1.75h-6.167v-1.689h-.75v-19.616h.75v-1.195h6.167v1.195h.75v19.555m1.307-.73h-.708v-18.041h.708v18.041m1.364 0h-.707v-18.041h.707v18.041m1.364 0h-.707v-18.041h.707v18.041m1.365 0h-.708v-18.041h.708v18.041m2.483-22.375h-50.766v-1.842h50.766v1.842m-50.301-3.717l24.906-16.446 24.93 16.445h-49.836zm50.655-2.733l-25.749-16.504-25.726 16.502-.94-1.273 26.666-17.106 26.689 17.107-.94 1.274"/><path d="m32.352 22.875c-.041-.088-.125-.152-.225-.152h-.252c-.1 0-.185.064-.225.152l-.402-.232-.966-.553v1.105 1.105l.966-.553.402-.23c.04.09.125.152.225.152h.252c.098 0 .184-.063.225-.152l.402.23.964.553v-1.105-1.105l-.964.553-.402.232"/><path d="m32.854 20.08c-.26.127-.557.188-.853.189-.296 0-.591-.063-.853-.188-.262-.129-.486-.313-.648-.564-.035.295.117.619.403.846.281.23.689.367 1.099.365.408.002.817-.133 1.098-.365.285-.227.438-.551.402-.846-.161.253-.387.438-.648.563"/><path d="m28.104 16.266c-.055.014-.105.029-.152.045-.063.021-.125.051-.182.08-.035.018-.043.029-.043.092v.082c0 .15-.018.092.09.154.037.021.069.047.098.08-.1.361-.153.744-.153 1.139 0 2.34 1.897 4.238 4.238 4.238s4.238-1.898 4.238-4.238c0-.395-.054-.777-.154-1.141.03-.031.063-.057.099-.078.109-.063.09-.004.09-.154v-.082c0-.063-.006-.074-.041-.092-.059-.029-.12-.059-.182-.08-.047-.016-.098-.031-.152-.045-.648-1.51-2.148-2.568-3.896-2.568-1.749-.001-3.25 1.058-3.898 2.568m7.633 1.588c0 .027.001.055.001.084.001 2.064-1.674 3.738-3.738 3.738-2.063 0-3.739-1.674-3.739-3.738 0-.029.001-.055.001-.084.133.5.428.822.871.99.475.178 1.006.172 1.477-.018.26-.102.486-.266.666-.529.315-.465.22-.754.383-1.152.143-.346.541-.346.684 0 .162.398.068.688.383 1.152.18.264.407.428.665.529.472.189 1.003.195 1.478.018.442-.168.736-.49.868-.99m-3.737-3.655c1.426 0 2.666.799 3.295 1.973-.502-.047-1.061-.037-1.387-.008-.524.045-.963.162-1.32.346-.336.168-.839.168-1.174 0-.359-.184-.798-.301-1.322-.346-.325-.029-.883-.039-1.386.008.629-1.174 1.868-1.973 3.294-1.973"/></svg>