<svg xmlns="http://www.w3.org/2000/svg" viewBox="0 0 64 64" enable-background="new 0 0 64 64"><path d="m48.743 46.094c-7.322 0-13.258 2.232-13.258 4.982v5.943c0 2.752 5.936 4.98 13.258 4.98 7.323.001 13.257-2.228 13.257-4.979v-5.943c0-2.751-5.934-4.983-13.257-4.983"/><path d="m37.278 43.6l7.971-13.412 16.751-28.188h-1.736l-15.527 26.112-1.975-1.214c3.26-4.852 13.103-21.029 15.455-24.898h-1.744c0 0-14.149 23.311-15.86 25.338-3.25 3.85-6.392 6.222-9.186 7.652-3.331 1.704-6.167 2.066-8.081 1.934-5.492-.373-12.109-1.699-18.502-3.168-1.889-.404-4.067 9.428-2.016 10.076 10.016 3.164 20.436 3.206 26.897 2.697.001 0 .001 0 .002 0 1.799-.143 3.307-.324 4.395-.496 1.752-.273 3.145-2.41 3.156-2.433m-27.489.285l1.015-6.896c.84.165 1.641.315 2.425.457l-1.76 6.708c-.561-.088-1.129-.167-1.68-.269m6.474.856c-1.115-.093-2.217-.209-3.3-.354l1.752-6.681c.701.119 1.376.227 2.034.324l-.486 6.711m3.683.206c-.729-.023-1.449-.063-2.167-.106l.479-6.595c1.083.145 2.11.262 3.086.351l-1.398 6.35m2.497.054c-.322 0-.635-.017-.956-.021l1.38-6.264c.132.008.27.021.4.027.231.014.474.021.728.021.646 0 1.434-.056 2.326-.201l-2.052 6.404c-.607.015-1.215.034-1.826.034m5.516-.198c-.696.051-1.402.083-2.108.114l2.154-6.726c.318-.086.631-.164.969-.275l-1.015 6.887"/></svg>