<svg xmlns="http://www.w3.org/2000/svg" viewBox="0 0 64 64" enable-background="new 0 0 64 64"><path d="m58 8h-4v-3.199c0-1.541-1.158-2.801-2.57-2.801h-12.864c-1.408 0-2.566 1.26-2.566 2.801v3.199h-24.059l-5.941 12h4.125v8h-.668l-3.332 4 3.332 4h.73v2.148c0 .543.419.982.938.982 1.551 0 2.813 1.324 2.813 2.951s-1.262 2.951-2.813 2.951-2.813-1.324-2.813-2.951c0-.543-.42-.982-.938-.982-.519 0-.938.439-.938.982.002 2.714 2.104 4.919 4.689 4.919 2.584 0 4.688-2.205 4.688-4.918 0-2.375-1.613-4.363-3.75-4.818v-1.264h.729l3.333-4-3.333-4h-.667v-8h23.875v7.199c0 1.328.861 2.441 2 2.727v32.074h2.625v-6l8.75 3-8.75 3h11.375v-32.075c1.14-.285 2-1.398 2-2.726v-7.199h4v-3h-2.078l2.078-3.945v-5.055m-47.357 9l2.336-4.799 2.526 4.799h-4.862m4.422-6h4.153l-2.076 3.945-2.077-3.945m3.714 6l2.077-3.945 2.078 3.945h-4.155m3.715-6h4.153l-2.077 3.945-2.076-3.945m3.715 6l2.076-3.945 2.076 3.945h-4.152m3.714-6h4.153l-2.076 3.945-2.077-3.945m6.077 6h-2.363l2.076-3.945.287.545v3.4m13.375 39l-8.75-3 8.75-3v6m-8.75-6v-6l8.75 3.002-8.75 2.998m8.75-6l-8.75-3 8.75-3v6m-8.75-6v-5.998l8.75 2.998-8.75 3m8.75-5.998l-5.835-2.002h5.835v2.002m1.5-16.754c0 .963-.676 1.752-1.5 1.752h-9.002c-.824 0-1.498-.789-1.498-1.752v-8.49c0-.969.674-1.758 1.498-1.758h9.002c.824 0 1.5.789 1.5 1.758v8.49m3.41-.303l-.285-.542v-3.403h2.361l-2.076 3.945"/></svg>