<svg xmlns="http://www.w3.org/2000/svg" viewBox="0 0 64 64" enable-background="new 0 0 64 64"><path d="m56.886 34.956v-2.273c1.019.292 2.151.732 2.151.732 2.516 0 3.654-1.822 2.528-4.049l-1.592-3.15c.787-.566.996-1.592.4-2.771l-1.846-3.651c.873-.344 1.18-1.229.653-2.271l-2.349-4.646c-.673-1.336-1.775-1.336-2.45 0l-2.35 4.646c-.526 1.041-.22 1.928.654 2.271l-1.846 3.651c-.596 1.18-.385 2.205.399 2.771l-1.591 3.15c-1.126 2.227.012 4.049 2.527 4.049 0 0 1.134-.44 2.152-.732v1.934c-1.986-.367-3.777-.924-5.273-1.518-2.302-.915-6.169-2.443-9.557-2.467-.025 0-12.577-12.092-12.577-12.092l-15.011-13.791-9.908 6.137v22.652c3.18 1.174 10.812 2.842 17.85 2.842 3.809 0 7.549-.496 11.117-1.477.889-.245 1.759-.566 2.681-.905 1.857-.685 3.778-1.392 5.776-1.392h.064c3.071.021 6.725 1.473 8.906 2.339 1.702.677 3.672 1.3 5.936 1.655v3.904h2.556v-3.654c1.584.086 3.277.045 5.114-.213v-1.807c-1.782.247-3.494.259-5.114.126m-40.003-20.523v2.73l-2.688-1.461-3.08 1.622-.929-2.87-4.19 1.559 1.097-3.152-2.828-.987 7.516-4.723 8.423 7.929-3.321-.647"/><path d="m22 9.898h6.537c.692 1.18 1.985 1.975 3.463 1.975h4c2.205 0 4-1.771 4-3.949 0-2.177-1.795-3.949-4-3.949h-.537c-.692-1.18-1.985-1.975-3.463-1.975h-10c-2.205 0-4 1.772-4 3.949 0 2.178 1.795 3.949 4 3.949m0-5.923h10c1.104 0 2 .884 2 1.975h2c1.104 0 2 .884 2 1.975 0 1.091-.896 1.975-2 1.975h-4c-1.104 0-2-.884-2-1.975h-8c-1.104 0-2-.884-2-1.975 0-1.091.896-1.975 2-1.975"/><path d="m32 15.822c0 2.178 1.795 3.949 4 3.949h4c2.205 0 4-1.771 4-3.949 0-.687-.194-1.321-.507-1.884.688.551 1.554.896 2.507.896h4c2.205 0 4-1.771 4-3.949 0-2.177-1.795-3.949-4-3.949h-4c-2.205 0-4 1.772-4 3.949 0 .686.194 1.322.507 1.885-.688-.552-1.554-.897-2.507-.897h-4c-2.205 0-4 1.773-4 3.949m14-6.911h4c1.104 0 2 .884 2 1.975 0 1.091-.896 1.975-2 1.975h-4c-1.104 0-2-.884-2-1.975 0-1.091.896-1.975 2-1.975m-10 4.937h4c1.104 0 2 .884 2 1.975s-.896 1.975-2 1.975h-4c-1.104 0-2-.884-2-1.975s.896-1.975 2-1.975"/><path d="m18.875 41.492c-.366 0-.712.072-1.047.175-.725-2.391-2.851-4.124-5.36-4.124-1.312 0-2.517.478-3.474 1.272-.509-.768-1.349-1.272-2.307-1.272-1.555 0-2.813 1.325-2.813 2.962 0 .49.124.944.322 1.351-1.293.623-2.196 1.99-2.196 3.586 0 2.18 1.679 3.948 3.751 3.948 1.204 0 2.263-.608 2.949-1.536.997.951 2.316 1.536 3.768 1.536 1.365 0 2.617-.514 3.592-1.366.688.83 1.688 1.366 2.815 1.366 2.071 0 3.75-1.769 3.75-3.949s-1.679-3.949-3.75-3.949"/><path d="m30.708 36.802l-7.313 14.256 1.278 6.514 13.198 4.428 15.601-2.707 1.489-8.163-6.976-14.328h-17.277m-3.323 20.115l-1.405-.471-1.015-5.172 5.574-10.863c-1.354 5.297-4.114 13.406-4.114 13.406l.96 3.1m9.877 3.314l-3.891-1.305 1.121-4.358c-1.512-3.349-2.582-10.839-3.054-14.669l2.603 5.605 3.769 8.113-.548 6.614m14.919-2.217l-13.423 2.329.515-6.209.76-.109 13.225-1.908-1.077 5.897m-12.341-5.458l-.818.117-3.915-8.429-2.769-5.961h14.704l6.02 12.364-13.222 1.909"/></svg>