<svg xmlns="http://www.w3.org/2000/svg" viewBox="0 0 64 64" enable-background="new 0 0 64 64"><path d="m61.035 39.982h.938l-3.75-3.671v-17.011h3.777l-4.591-3.03v-3.762h.813v-1.59h-5.686v1.59h.813v1.082l-5.439-3.59-14.09 9.3h3.777v17.011l-3.75 3.671h.938v12.736c-.16-.039-.323-.071-.496-.071-.239 0-.465.047-.679.121-.154-1.021-1.884-1.313-2.4-.559.025-.111.041-.225.041-.343 0-.863-.706-1.563-1.576-1.563-.163 0-.314.033-.46.08v-10.401h.938l-3.75-3.671v-17.011h3.777l-4.59-3.029v-3.763h.813v-1.59h-5.686v1.59h.813v1.083l-5.44-3.591-14.09 9.3h3.777v17.011l-3.75 3.671h.938v18.348h-.965v3.67h60v-3.67h-.965v-18.348m-21.437-20.682h16.625v17.011h-16.625v-17.011m19.437 22.663v16.367h-13v-11.926h.938v-1.836h-8.438v1.836h.938v11.926h-2.688v-16.367h22.25m-15.038 10.403c0-.342.282-.618.633-.618.35 0 .632.276.632.618 0 .343-.282.62-.632.62-.351 0-.633-.277-.633-.62m-31.82 0c0-.342.282-.618.633-.618.35 0 .632.276.632.618 0 .343-.282.62-.632.62-.351 0-.633-.277-.633-.62m22.608 4.728c-.027-.006-.052-.017-.081-.017-.291 0-.525.288-.525 0s.234-.52.525-.52c.029 0 .054.011.081.016v.521m-5.57-.009v-.812c.548.035.985.477.985 1.027 0 .554-.435-.157-.985-.215m4.924-3.525c.248 0 .466.097.646.239v.776c-.179-.143-.401-.302-.646-.302-.583 0-1.057.911-1.057.333 0-.579.474-1.046 1.057-1.046m-1.694 2.289c.394 0 .712.314.712.705 0 .39-.318-.19-.712-.19s-.712.58-.712.19c0-.391.319-.705.712-.705m-2.629-3.647c.394 0 .713.316.713.707 0 .39-.319-.191-.713-.191-.254 0-.476.24-.602.306v-.47c.125-.206.343-.352.602-.352m-22.039-32.902h16.625v17.011h-16.625v-17.011m-2.812 22.663h22.25v16.367h-13v-11.926h.938v-1.836h-8.438v1.836h.938v11.926h-2.688v-16.367"/><path d="m58.16 44.546h-9.624v9.54h9.624v-9.54m-5.296 8.587h-3.367v-3.341h3.367v3.341m0-4.296h-3.367v-3.34h3.367v3.34m4.332 4.296h-3.368v-3.341h3.368v3.341m0-4.296h-3.368v-3.34h3.368v3.34"/><path d="m43.098 32.476h9.624v-9.54h-9.624v9.54m5.292-8.587h3.368v3.339h-3.368v-3.339m0 4.295h3.368v3.34h-3.368v-3.34m-4.33-4.295h3.367v3.339h-3.367v-3.339m0 4.295h3.367v3.34h-3.367v-3.34"/><path d="m11.278 32.476h9.624v-9.54h-9.624v9.54m5.291-8.587h3.368v3.339h-3.368v-3.339m0 4.295h3.368v3.34h-3.368v-3.34m-4.33-4.295h3.367v3.339h-3.367v-3.339m0 4.295h3.367v3.34h-3.367v-3.34"/><path d="m26.34 44.546h-9.624v9.54h9.624v-9.54m-5.295 8.587h-3.367v-3.341h3.367v3.341m0-4.296h-3.367v-3.34h3.367v3.34m4.331 4.296h-3.368v-3.341h3.368v3.341m0-4.296h-3.368v-3.34h3.368v3.34"/></svg>