<svg xmlns="http://www.w3.org/2000/svg" viewBox="0 0 64 64" enable-background="new 0 0 64 64"><path d="m61.994 36.026v-16.982c0-.242-.098-.459-.247-.625-1.57-3.728-10.717-6.096-21.111-6.939v-4.792l3.635-1.875-3.635-1.875v-.469c0-.259-.205-.469-.455-.469-.249 0-.454.21-.454.469v8.941c-2.395-.172-4.843-.265-7.271-.275v-4.447l3.636-1.875-3.636-1.875v-.469c-.001-.259-.206-.469-.455-.469s-.454.21-.454.469v8.666c-2.43.01-4.877.103-7.271.275v-4.722l3.635-1.875-3.635-1.875v-.469c-.001-.259-.206-.469-.455-.469-.25 0-.455.21-.455.469v9.011c-11.229.91-21.001 3.602-21.339 7.862-.005.035-.021.065-.021.103v16.582h-.006v14.255h22.494l-2.813 7.5h-.938l2.345-6.563h-6.095l-2.812 6.563h-.938l2.813-6.563h-6.561l-2.813 6.563h-.937l2.812-6.563h-6.557v10.781h60v-25.974h-.006m-1.854-16.732c-.049.248-.161.346-.212.385-.364.289-.843.565-1.384.834-1.163-1.705-4.405-3.205-8.973-4.293l1.34-1.383c5.594 1.27 8.861 2.989 9.229 4.457m-39.955 2.862l-.878 1.785c-2.306-.208-4.437-.481-6.329-.814 7.599-3.167 28.785-3.067 37.59-.304-1.827.334-3.84.623-6.001.859l-.75-1.526h-23.632m23.515 1.615c-3.462.349-7.261.566-11.245.623v-1.3h10.913l.332.677m-12.153-.677v1.308c-.4.004-.795.012-1.198.012 0 0-.002 0-.004 0-3.632 0-7.049-.143-10.165-.396l.453-.923h10.914zm14.53-3.502c.063.012.127.024.191.034l2.461-2.538c4.229.985 7.348 2.339 8.78 3.886-.894.359-1.928.7-3.115 1.014-2.104-.966-4.946-1.788-8.317-2.396m-13.622-6.582c7.147.027 13.141.696 17.707 1.665l-1.334 1.375c-4.507-.997-10.186-1.603-16.373-1.633v-1.407m0 5.417v-3.037c5.833.029 11.204.596 15.527 1.531l-2.489 2.567c.193.027.375.064.559.099-4.07-.732-8.896-1.157-14.071-1.16.159 0 .317-.002.474 0m-.576 0c-9.828.006-18.378 1.539-22.911 3.804-1.065-.298-2.012-.62-2.79-.967 1.301-1.673 4.571-3.137 9.084-4.185l2.45 2.526c.261-.041.509-.098.777-.136l-2.48-2.559c4.33-.934 9.704-1.496 15.538-1.521v3.037c.11.001.222.001.332.001m-.332-5.417v1.407c-6.188.026-11.87.629-16.383 1.623l-1.324-1.365c4.566-.969 10.559-1.638 17.707-1.665m-18.457 1.827l1.33 1.373c-4.84 1.146-8.194 2.758-9.182 4.583-.557-.317-.995-.652-1.303-1.001-.025-.029-.094-.107-.096-.35.178-1.5 3.468-3.292 9.251-4.605m24.299 30.353v.872h-1.753v-6.562h-7.271v6.563h-1.884v-.974c0-.499-.378-.91-.861-.937-15.033-.818-21.796-3.55-21.796-5.228v-2.294c5.362 3.447 18.608 4.441 21.792 4.633l.044-1.109c-10.49-.633-18.72-2.505-21.836-4.774v-3.437c5.362 3.447 18.608 4.441 21.792 4.633l.044-1.109c-10.49-.633-18.72-2.505-21.836-4.774v-3.437c5.362 3.447 18.608 4.441 21.792 4.633l.044-1.109c-10.49-.633-18.72-2.505-21.836-4.774v-3.909c4.668 3.068 16.401 4.193 26.521 4.193.001 0 .003 0 .003 0 11.367-.001 24.607-1.408 29.828-4.535v3.859c-2.99 2.844-10.79 4.787-21.833 5.278l.032 1.108c5.608-.248 16.966-1.229 21.801-5.04v3.34c-2.99 2.844-10.79 4.787-21.833 5.278l.032 1.109c5.608-.248 16.966-1.229 21.801-5.04v3.34c-2.99 2.844-10.79 4.787-21.833 5.278l.032 1.109c5.608-.248 16.966-1.229 21.801-5.04v1.627c0 3.242-8.807 5.771-21.913 6.292-.489.019-.874.434-.874.937m24.605 6.029h-6.563l2.813 6.563h-.937l-2.813-6.563h-6.562l2.812 6.563h-.938l-2.813-6.563h-6.093l2.343 6.563h-.938l-2.813-7.5h22.5v.937z"/><path d="m37.045 32.865c-.275-.991-1.317-1.803-2.318-1.803h-5.453c-1 0-2.042.812-2.317 1.803l-.818 2.957c-.05.179-.063.349-.058.511.331-.357.795-.583 1.311-.583h9.089c.586 0 1.103.294 1.437.741.026-.208.013-.433-.053-.669l-.82-2.957"/><path d="m5.627 28.721l-.907-.43c-.245-.117-.449.022-.446.313l.011 1.246c.003.29.207.622.453.739l.907.431c.246.118.449-.021.446-.313l-.011-1.247c0-.289-.207-.622-.453-.739"/><path d="m21.061 32.165l-.955-.051c-.263-.014-.47.137-.462.334l.068 1.438c.009.198.23.372.494.385l.956.053c.262.014.47-.137.462-.335l-.068-1.437c-.009-.198-.232-.372-.495-.387"/><path d="m12.887 30.983l-.938-.17c-.259-.048-.465.08-.458.282l.048 1.468c.007.202.223.405.48.453l.94.17c.259.048.464-.08.458-.282l-.048-1.468c-.007-.202-.223-.405-.482-.453"/><path d="m57.933 31.171l.907-.43c.245-.117.449-.449.452-.738l.011-1.248c.004-.289-.2-.43-.445-.313l-.908.428c-.247.117-.454.451-.454.74l-.012 1.249c-.001.289.202.431.449.312"/><path d="m42.414 34.474l.955-.053c.264-.014.487-.188.495-.385l.068-1.438c.009-.197-.199-.348-.462-.333l-.956.052c-.263.014-.484.186-.493.384l-.068 1.438c-.008.198.199.348.461.335"/><path d="m50.617 33.337l.94-.17c.258-.049.474-.252.48-.453l.048-1.469c.007-.201-.199-.328-.457-.281l-.939.171c-.259.047-.476.25-.482.453l-.049 1.468c-.005.202.201.328.459.281"/></svg>