<svg xmlns="http://www.w3.org/2000/svg" viewBox="0 0 64 64" enable-background="new 0 0 64 64"><path d="m13.29 34.813h7.493v-7.5h-7.493v7.5m4.12-6.75h2.623v2.624h-2.623v-2.624m0 3.375h2.623v2.626h-2.623v-2.626m-3.372-3.375h2.622v2.624h-2.622v-2.624m0 3.375h2.622v2.626h-2.622v-2.626"/><path d="m30.337 34.813h5.245v-7.5h-5.245v7.5m2.998-6.75h1.5v2.624h-1.5v-2.624m0 3.375h1.5v2.626h-1.5v-2.626m-2.248-3.375h1.497v2.624h-1.497v-2.624m0 3.375h1.497v2.626h-1.497v-2.626"/><path d="m35.235 46.103h-7.492v7.501h7.492v-7.501m-4.121 6.75h-2.623v-2.624h2.623v2.624m0-3.374h-2.623v-2.626h2.623v2.626m3.372 3.374h-2.624v-2.624h2.624v2.624m0-3.374h-2.624v-2.626h2.624v2.626"/><path d="m61.404 49.878c-.064.02-.527.157-.969.473-.264-.189-.521-.307-.707-.379v-.862-.62l-.597.17c-.063.017-.527.155-.969.473-.44-.317-.902-.456-.966-.473l-.597-.17v.619.493l-.543.152c-.063.021-.527.157-.969.474-.125-.088-.248-.159-.366-.221v-13.463c.075.051.137.083.217.139 4.388 3.047 5.003-2.106 4.523-3.925-.914-3.476 1.608-4.323 2.303-7.216 1.233-5.146-2.868-7.952-1.601-12.864 1.271-4.911-2.917-15.705-8.317-7.969-1.784 2.557-3.973-2.034-6.794 1.916-2.822 3.948-1.358 7.36-.49 9.938 1.729 5.124-1.734 6.785.537 11.075 2.271 4.288-.992 6.355 3.285 8.747 1.395.779 2.107.753 2.59.476v4.191l-11.457-3.169v-15.258h2.809l-8.43-5.37v-5.88h.938v-1.875h-1.874-4.684v1.875h.938v2.896l-7.493-4.771-18.735 13.125h2.809v15.759l-3.795 3.071h3.795v16.795h-3.746v3.75h59.849v-3.75h-1.281v-4.528h.185c.661 0 1.199-.537 1.199-1.199v-2.193-.62l-.597.168m-3.561-29.84c1.038 0 1.882.843 1.882 1.884 0 1.039-.844 1.884-1.882 1.884-1.042 0 .593-.845.593-1.884 0-1.041-1.635-1.884-.593-1.884m-1.63-10.114c.701 0 1.27.568 1.27 1.27s-.568 1.27-1.27 1.27c-.7 0 .343-.568.343-1.27s-1.043-1.27-.343-1.27m-.016 20.67c.776 0 1.405.629 1.405 1.406 0 .779-.629 1.406-1.405 1.406-.778 0 0-.627 0-1.406 0-.777-.778-1.406 0-1.406m-27.919-7.969h9.365v15h-9.365v-15m-20.608 0h18.733v15h-18.733v-15m11.744 30.316c-.305 0-.549-.246-.549-.551 0-.303.244-.548.549-.548.304 0 .55.245.55.548 0 .305-.246.551-.55.551m19.037 5.309h-17.757v-10.254h.733v-1.465h-1.464-7.318v1.465h.73v10.254h-5.705v-16.795h30.781v16.795m6.602-5.397h-.92v-2.624h.828v2.171c0 .161.034.313.092.453m-.92-3.374v-2.626h1.499v2.626h-1.499m1.297.727c0 0 .663.189 1.095.638.434-.448 1.097-.638 1.097-.638v2.194c0 .404-.327.733-.731.733h-.73c-.404 0-.729-.329-.729-.733v-2.194zm.912 8.044h-6.016v-16.795h1.555 5.307v8.411c-.185.075-.424.191-.663.362-.048-.034-.097-.061-.146-.09v-4.036h-5.245v7.501h5.208v4.647m-4.458-8.771v-2.626h1.498v2.626h-1.498m1.498.75v2.624h-1.498v-2.624h1.498m3.806 8.021h-.48v-2.959c.112.201.276.364.48.474v2.485m1.12 0h-.364v-2.333h.364v2.333m.164-2.802h-.732c-.403 0-.731-.325-.731-.73v-1.141c.386-.039.708-.258.896-.576.068.053.14.096.201.159.432-.448 1.096-.635 1.096-.635v2.192c0 .406-.327.731-.73.731m.945 2.802h-.354v-2.513c.142-.082.258-.188.354-.316v2.829m-.2-6.218c-.395-.01-.714-.33-.714-.728v-2.195c0 0 .664.188 1.097.638.433-.449 1.097-.638 1.097-.638v2.195c0 .404-.328.731-.731.731h-.294v-.132l-.455.129m1.759 6.218h-1.194v-5.745h.184c.299 0 .564-.121.775-.303v.32c0 .257.098.481.235.676v5.052m0-9.705l-.408.115c-.063.017-.527.155-.968.473-.188-.136-.374-.23-.537-.306v-7.372h1.913v7.09m5.678 3.855v-.83c.069.298.241.546.487.711-.144.071-.296.153-.451.265-.02-.013-.039-.023-.059-.037.005-.036.023-.07.023-.109m-5.343-33.873c0 .778.775 1.406 0 1.406-.776 0-1.406-.628-1.406-1.406 0-.776.63-1.406 1.406-1.406.775 0 0 .63 0 1.406m-.039-10.508c1.05 0-.512.854-.512 1.905s1.562 1.904.512 1.904c-1.052 0-1.905-.853-1.905-1.904s.854-1.905 1.905-1.905m-4.425 6.733c0-.776.631-1.406 1.406-1.406.774 0-.234.63-.234 1.406 0 .779 1.009 1.407.234 1.407-.775 0-1.406-.628-1.406-1.407m3.588 13.157c-1.55 0-2.81-1.26-2.81-2.813s1.26-2.813 2.81-2.813c1.553 0-.613 1.26-.613 2.813s2.165 2.813.613 2.813m1.985 30.341h-.364v-4.528h.364v4.528m.981-5.728c0 .405-.327.73-.73.73h-.73c-.404 0-.731-.325-.731-.73v-2.192c0 0 .663.187 1.097.636.432-.449 1.096-.636 1.096-.636v2.192zm.592-.122v-2.194c0 0 .663.189 1.096.639.433-.449 1.097-.639 1.097-.639v2.194c0 .404-.326.733-.731.733h-.729c-.405.001-.733-.328-.733-.733m.915 5.85h-.186v-4.647c.001 0 .001 0 .002 0h.184v4.647m1.599 0h-1.234v-2.987c.201.385.591.656 1.053.656h.182v2.331zm-.182-2.8c-.404 0-.732-.328-.732-.733v-1.144c.381-.045.698-.264.883-.579.072.056.149.098.215.166.433-.448 1.097-.638 1.097-.638v2.194c0 .405-.328.733-.731.733h-.184-.365-.183zm1.656 2.8h-1.109v-2.331h.184c.381 0 .706-.191.926-.469v2.8zm-.183-6.214c-.404 0-.729-.327-.729-.731v-2.195c0 0 .661.188 1.094.637.433-.448 1.097-.637 1.097-.637v2.195c0 .404-.327.731-.731.731h-.183-.364-.184m2.454 6.214h-1.906v-5.745h.183c.121 0 .231-.034.342-.068v.086c0 .662.538 1.199 1.2 1.199h.182v4.528zm1.279-5.728c0 .405-.327.73-.73.73h-.185-.364-.182c-.404 0-.731-.325-.731-.73v-.344c.236-.221.39-.527.39-.874v-.82c.219.102.49.257.707.481.432-.449 1.096-.636 1.096-.636v2.193z"/></svg>