<svg xmlns="http://www.w3.org/2000/svg" viewBox="0 0 64 64" enable-background="new 0 0 64 64"><path d="m41.817 7.459c.059.017.124.029.183.047v-4.12c-2.941-.881-6.358-1.386-10.001-1.386s-7.058.505-9.999 1.386v4.12c.058-.018.122-.029.18-.046-6.073 1.776-10.18 5.144-10.18 9.013v31.056c0 3.872 4.114 7.242 10.196 9.018-.063-.02-.134-.032-.196-.051v4.12c2.941.88 6.356 1.384 9.999 1.384s7.06-.504 10.001-1.385v-4.12c-.064.02-.135.032-.199.051 6.084-1.775 10.199-5.146 10.199-9.018v-31.055c0-3.869-4.108-7.238-10.183-9.014m-17.714 1.449c2.622-.442 5.281-.636 7.936-.653 2.659.011 5.315.204 7.94.647 2.619.442 5.225 1.067 7.697 2.102-2.612-.432-5.216-.725-7.82-.943-2.604-.2-5.211-.325-7.813-.307-2.608-.009-5.211.117-7.818.317-2.604.218-5.208.504-7.82.933 2.472-1.035 5.079-1.656 7.698-2.096m-1.394 4.397c3.091-.44 6.212-.633 9.329-.65 3.122.011 6.241.202 9.333.645 3.089.43 6.161 1.083 9.127 2.104-3.079-.454-6.158-.714-9.231-.944-3.074-.2-6.151-.324-9.225-.306-3.078-.009-6.152.117-9.229.316-3.074.229-6.153.482-9.231.934 2.965-1.022 6.038-1.673 9.127-2.099m.018 4.454c3.089-.396 6.203-.563 9.312-.574 3.114.017 6.224.19 9.313.591 3.087.387 6.159.978 9.147 1.896-3.085-.352-6.164-.552-9.237-.738-3.075-.159-6.15-.265-9.22-.25-3.077-.009-6.149.091-9.224.247-3.073.187-6.152.379-9.235.741 2.982-.941 6.056-1.531 9.144-1.913m-.059 4.483c3.086-.349 6.19-.494 9.29-.508 3.106.014 6.208.16 9.294.51 3.085.337 6.158.858 9.166 1.676-3.088-.245-6.168-.377-9.24-.514-3.074-.109-6.146-.189-9.216-.174-3.074-.009-6.145.07-9.22.179-3.072.137-6.151.263-9.24.509 3.007-.824 6.081-1.345 9.166-1.678m27.83 5.812l-9.243-.107c-3.073-.025-6.146-.063-9.215-.049-3.072-.009-6.143.026-9.217.051l-9.241.105c3.037-.634 6.113-1.034 9.194-1.279 3.081-.262 6.173-.364 9.262-.375 3.093.016 6.183.122 9.265.387 3.081.248 6.155.647 9.195 1.267m-10.561 27.038c-2.622.442-5.28.636-7.935.653-2.66-.011-5.317-.204-7.94-.647-2.619-.441-5.226-1.067-7.697-2.102 2.612.432 5.216.725 7.819.943 2.604.2 5.211.325 7.813.307 2.608.009 5.211-.117 7.817-.317 2.604-.218 5.208-.504 7.821-.933-2.472 1.035-5.079 1.656-7.698 2.096m1.393-4.397c-3.091.44-6.212.633-9.329.65-3.122-.011-6.241-.202-9.333-.645-3.089-.43-6.16-1.083-9.126-2.104 3.077.454 6.157.714 9.23.944 3.075.2 6.151.324 9.225.306 3.079.009 6.152-.117 9.229-.316 3.072-.229 6.153-.482 9.231-.934-2.965 1.022-6.037 1.673-9.127 2.099m-.017-4.454c-3.089.396-6.202.563-9.311.574-3.115-.017-6.224-.19-9.313-.591-3.087-.387-6.158-.978-9.146-1.896 3.085.352 6.164.552 9.237.738 3.074.159 6.149.265 9.22.25 3.077.009 6.147-.091 9.224-.247 3.072-.187 6.151-.379 9.235-.741-2.984.941-6.06 1.531-9.146 1.913m.059-4.483c-3.086.349-6.19.494-9.292.508-3.105-.014-6.207-.16-9.293-.511-3.085-.336-6.158-.857-9.165-1.675 3.088.245 6.167.376 9.239.514 3.074.109 6.147.189 9.217.174 3.073.009 6.144-.07 9.219-.179 3.073-.137 6.152-.263 9.24-.509-3.007.824-6.08 1.345-9.165 1.678m-27.83-5.812l9.241.107c3.075.025 6.146.063 9.217.049 3.071.009 6.142-.026 9.217-.051l9.241-.105c-3.038.634-6.113 1.034-9.194 1.279-3.082.262-6.174.365-9.264.376-3.091-.016-6.183-.122-9.264-.387-3.08-.249-6.154-.648-9.194-1.268m18.458-3.196c-6.179-.024-12.359-.16-18.537-.75 6.178-.59 12.358-.726 18.537-.75 6.18.021 12.358.156 18.537.75-6.179.594-12.357.729-18.537.75"/></svg>