<svg xmlns="http://www.w3.org/2000/svg" viewBox="0 0 64 64" enable-background="new 0 0 64 64"><path d="m62 59.526c0-.743-.427-1.373-1.027-1.724.201-.344.328-.737.328-1.168 0-1.262-1.019-2.286-2.272-2.286-.047 0-.097.014-.145.02v-.283c0-.645-.522-1.17-1.164-1.17-.163 0-.313.043-.453.106v-.827h1.782v-5.348h-1.291v-4.456h1.291v-5.349h-1.291v-4.457h1.291v-5.349h-1.291v-4.457h1.291v-5.348h-1.291v-4.457h1.291v-8.022h-11.803v-2.951h-31.475v3.842h-3.074v-.891h-8.914v44.569h-1.783v2.674h1.783v9.806h1.168.614 7.345.892 2.674.892 2.674.892 5.135 4.457 31.474v-.983h-.657c.4-.371.657-.9.657-1.491m-22.562-46.552h4.457v4.457h-4.457v-4.457m0 9.804h4.457v4.457h-4.457v-4.457m0 9.806h4.457v4.457h-4.457v-4.457m0 9.806h4.457v4.457h-4.457v-4.457m-8.914-29.416h4.457v4.457h-4.457v-4.457m0 9.804h4.457v4.457h-4.457v-4.457m0 9.806h4.457v4.457h-4.457v-4.457m0 9.806h4.457v4.457h-4.457v-4.457m-14.048 18.627h-2.674v-7.039h2.674v7.039m3.565 0h-2.674v-7.039h2.674v7.039m6.026 0h-5.135v-7.039-.892h-.892-2.674-.892-2.674-.89v.892 7.039h-7.345v-8.822h7.131 13.371v8.822m0-18.627v4.457 2.674h-13.371v-8.468h13.371v1.337m0-9.806v4.457 1.337h-13.371v-7.131h13.371v1.337m0-9.806v4.457 1.337h-13.371v-7.131h13.371v1.337m0-9.804v4.457 1.337h-13.371v-7.131h13.371v1.337m0-4.012h-13.371v-2.229h13.371v2.229m4.457 52.055h-2.95v-.983h2.95v-7.839h4.457v7.839h4.457v-7.839h4.457v7.839h4.08c.202.475.609.833 1.109.983h-18.56m17.829-5.754v-3.068h4.457v1.367c-.108-.022-.211-.058-.327-.058-.695 0-1.289.413-1.571 1.007-.236-.079-.487-.133-.751-.133-.735 0-1.383.35-1.808.885m1.346 4.087c-.321 0-.578.323-.578 0 0-.326.257-.586.578-.586.326 0 .584.26.584.586 0 .323-.258 0-.584 0m.624-3.148c-.644 0-1.166 1.024-1.166.371 0-.647.522-1.173 1.166-1.173.651 0 1.17.525 1.17 1.173 0 .654-.518-.371-1.17-.371m2.534 3.144c-.642 0-1.164.899-1.164.251 0-.641.522-1.168 1.164-1.168.647 0 1.158.527 1.158 1.168.001.648-.51-.251-1.158-.251m1.464-4.673c0-.44.35-.792.784-.792.439 0 .789.352.789.792 0 .436-.35-.22-.789-.22-.434 0-.784.655-.784.22m1.368 2.887c-.321 0-.578.324-.578 0 0-.319.257-.58.578-.58.328 0 .584.261.584.58 0 .324-.255 0-.584 0m.594-10.713h-8.914v-4.457h8.914v4.457m0-9.806h-8.914v-4.457h8.914v4.457m0-9.806h-8.914v-4.457h8.914v4.457m0-9.804h-8.914v-4.457h8.914v4.457m.995 42.233c-.435 0-.784.655-.784.22 0-.44.35-.792.784-.792.439 0 .787.352.787.792 0 .435-.347-.22-.787-.22m.203-3.788c-.322 0-.578.424-.578.101 0-.33.256-.588.578-.588.317 0 .584.258.584.588 0 .323-.266-.101-.584-.101m1.391 1.791c0-.322.258-.585.584-.585.321 0 .577.263.577.585 0 .323-.256-.095-.577-.095-.326 0-.584.418-.584.095m1.116 2.081c-.322 0-.586.33-.586 0 0-.318.264-.583.586-.583.319 0 .578.265.578.583 0 .33-.258 0-.578 0"/></svg>