<svg xmlns="http://www.w3.org/2000/svg" viewBox="0 0 64 64" enable-background="new 0 0 64 64"><path d="m19.424 28.652h9.625v-9.631h-9.625v9.631m5.292-8.67h3.368v3.371h-3.368v-3.371m0 4.336h3.368v3.373h-3.368v-3.373m-4.33-4.336h3.367v3.371h-3.367v-3.371m0 4.336h3.367v3.373h-3.367v-3.373"/><path d="m35.914 55.31h9.624v-9.634h-9.624v9.634m5.292-8.67h3.368v3.37h-3.368v-3.37m0 4.336h3.368v3.37h-3.368v-3.37m-4.331-4.336h3.367v3.37h-3.367v-3.37m0 4.336h3.367v3.37h-3.367v-3.37"/><path d="m62 58.549c0-.425-.169-.808-.441-1.092.273-.353.441-.793.441-1.274 0-1.161-.942-2.104-2.103-2.104-.239 0-.466.048-.679.122-.252-.536-.792-.91-1.425-.91-.371 0-.707.133-.976.347.025-.112.041-.228.041-.347 0-.871-.706-1.578-1.576-1.578-.776 0-1.419.563-1.551 1.301-.182-.152-.413-.25-.671-.25-.58 0-1.051.471-1.051 1.054v-12.958h4.364l-6.735-7.5h-9.976v-19.045h6.102l-7.7-4.404v-5.635h1.138v-2.276h-2.274-5.685v2.276h1.138v2.383l-8.145-4.659-21.529 12.315h6.102v19.045l-6.809 7.5h4.364v11.296c-.283-.273-.667-.443-1.092-.443-.776 0-1.419.563-1.551 1.301-.182-.152-.413-.25-.671-.25-.579 0-1.05.47-1.05 1.053v8.183h60v-1.875h-1.576c.87 0 1.576-.707 1.576-1.576m-58.16-3.681c.291 0 .525.234.525.525s-.234-.088-.525-.088-.525.379-.525.088.234-.525.525-.525m-.899 2.106c-.29 0-.525.291-.525 0 0-.289.235-.525.525-.525.291 0 .526.236.526.525.001.291-.235 0-.526 0m1.805 1.575c-.581 0-1.052.811-1.052.229 0-.58.471-1.051 1.052-1.051s1.052.471 1.052 1.051c0 .581-.471-.229-1.052-.229m.668-4.399c-.393 0-.712.586-.712.192s.319-.713.712-.713c.394 0 .713.319.713.713s-.319-.192-.713-.192m5.395-39.835h26.855v19.045h-26.855v-19.045m-2.766 43.516c-.394 0-.712.586-.712.192 0-.395.318-.713.712-.713s.712.318.712.713c0 .394-.318-.192-.712-.192m.637-1.774c0-.584.473-1.057 1.056-1.057.584 0 1.058.473 1.058 1.057s-.474-.335-1.058-.335c-.583 0-1.056.919-1.056.335m1.622 2.495c-.291 0-.525.29-.525 0 0-.291.234-.525.525-.525s.525.234.525.525c0 .29-.234 0-.525 0m15.068-4.537c-.351 0-.633-.282-.633-.634 0-.35.282-.631.633-.631.35 0 .632.281.632.631 0 .351-.282.634-.632.634m1.473 5.985v-11.676h.844v-1.684h-10.108v1.685h.842v11.675h-7.393c.564-.24.961-.8.961-1.451 0-.425-.169-.808-.441-1.092.273-.354.441-.793.441-1.274 0-1.161-.942-2.104-2.103-2.104-.239 0-.466.048-.679.122-.169-.359-.475-.635-.844-.784v-12.557h41.646v19.14h-23.166m27.008-5.132c.291 0 .525.234.525.525s-.234-.088-.525-.088-.525.379-.525.088.234-.525.525-.525m-.899 2.106c-.29 0-.525.291-.525 0 0-.289.235-.525.525-.525.291 0 .526.236.526.525.001.291-.235 0-.526 0m1.804 1.575c-.58 0-1.051.811-1.051.229 0-.58.471-1.051 1.051-1.051.582 0 1.053.471 1.053 1.051 0 .581-.471-.229-1.053-.229m.669-4.399c-.393 0-.712.586-.712.192s.319-.713.712-.713c.394 0 .713.319.713.713s-.32-.192-.713-.192m2.628 3.681c-.393 0-.711.586-.711.192 0-.395.318-.713.711-.713.395 0 .713.318.713.713 0 .394-.319-.192-.713-.192m.637-1.774c0-.584.474-1.057 1.057-1.057.584 0 1.058.473 1.058 1.057s-.474-.335-1.058-.335c-.583 0-1.057.919-1.057.335m1.623 2.495c-.291 0-.525.29-.525 0 0-.291.234-.525.525-.525s.525.234.525.525c0 .29-.234 0-.525 0"/></svg>