<svg xmlns="http://www.w3.org/2000/svg" viewBox="0 0 64 64" enable-background="new 0 0 64 64"><path d="m6.219 22.625h3.75v5.625h-3.75z"/><path d="m11.844 22.625h3.75v5.625h-3.75z"/><path d="m20.281 22.625h3.75v5.625h-3.75z"/><path d="m25.906 22.625h3.75v5.625h-3.75z"/><path d="m34.344 22.625h3.75v5.625h-3.75z"/><path d="m39.969 22.625h3.75v5.625h-3.75z"/><path d="m48.406 22.625h3.75v5.625h-3.75z"/><path d="m54.031 22.625h3.75v5.625h-3.75z"/><path d="m6.219 33.875h3.75v5.625h-3.75z"/><path d="m11.844 33.875h3.75v5.625h-3.75z"/><path d="m20.281 33.875h3.75v5.625h-3.75z"/><path d="m25.906 33.875h3.75v5.625h-3.75z"/><path d="m34.344 33.875h3.75v5.625h-3.75z"/><path d="m39.969 33.875h3.75v5.625h-3.75z"/><path d="m48.406 33.875h3.75v5.625h-3.75z"/><path d="m54.031 33.875h3.75v5.625h-3.75z"/><path d="m16.063 48.875h5.625v5.625h-5.625z"/><path d="m27.313 47h3.75v4.688h-3.75z"/><path d="m42.313 48.875h5.625v5.625h-5.625z"/><path d="m49.813 48.875h5.625v5.625h-5.625z"/><path d="m8.563 48.875h5.625v5.625h-5.625z"/><path d="m32.938 47h3.75v4.688h-3.75z"/><path d="m30.146 11.078c.163.041.365.054.642.054 1.018 0 1.646-.553 1.646-1.481 0-.835-.54-1.333-1.496-1.333-.389 0-.651.04-.791.081v2.679z"/><path d="m37.529 11.401c0 1.778.778 3.031 2.061 3.031 1.295 0 2.035-1.32 2.035-3.085 0-1.63-.728-3.03-2.048-3.03-1.295 0-2.048 1.319-2.048 3.084"/><path d="m62 17.938v-13.125c0-.516-.422-.938-.938-.938h-.938v-1.875h-56.249v1.875h-.937c-.516 0-.938.422-.938.938v13.125c0 .516.422.938.938.938v39.374c-.516 0-.938.422-.938.938v1.875c0 .515.422.937.938.937h58.125c.515 0 .937-.422.937-.937v-1.875c0-.516-.422-.938-.938-.938v-39.375c.516 0 .938-.422.938-.937m-57.187 12.187v-9.375h54.375v9.375h-54.375m54.375 1.875v9.375h-54.375v-9.375h54.375m-18.75 26.25v-11.25h-1.875v11.25h-1.875v-4.688h-3.75v4.688h-1.875v-4.688h-3.75v4.688h-1.875v-11.25h-1.875v11.25h-1.875v-1.875h-15v-9.375h15v-3.75h20.625v3.75h15v9.375h-15v1.875h-1.875m11.303-49.69v-1.725h6.509v1.725h-2.312v7.354h-1.922v-7.354h-2.275m-4.38 3.542c-1.407-.525-2.323-1.361-2.323-2.68 0-1.549 1.206-2.735 3.203-2.735.954 0 1.658.215 2.161.458l-.427 1.657c-.339-.176-.943-.431-1.771-.431-.831 0-1.231.404-1.231.875 0 .579.478.835 1.57 1.28 1.496.592 2.199 1.428 2.199 2.707 0 1.522-1.095 2.815-3.418 2.815-.967 0-1.923-.269-2.399-.554l.389-1.697c.517.284 1.308.567 2.124.567.879 0 1.344-.392 1.344-.983-.001-.566-.402-.888-1.421-1.279m-3.714-.821c0 2.976-1.683 4.782-4.158 4.782-2.513 0-3.982-2.034-3.982-4.621 0-2.721 1.621-4.754 4.12-4.754 2.602 0 4.02 2.087 4.02 4.593m-9.316-1.684c0 .889-.276 1.643-.779 2.155-.652.66-1.62.957-2.751.957-.252 0-.479-.015-.654-.041v3.246h-1.897v-8.957c.591-.107 1.419-.188 2.587-.188 1.183 0 2.023.243 2.59.728.54.457.904 1.211.904 2.1m-10.934-1.927h1.103c0 5.152-4.197 9.33-9.375 9.33s-9.375-4.178-9.375-9.33h4.413c0 .95.205 1.85.567 2.666.184-2.563 2.324-4.586 4.945-4.586 2.743 0 4.965 2.211 4.965 4.938 0 1.078-.352 2.072-.94 2.885 2.189-1.074 3.697-3.311 3.697-5.903"/><path d="m15.676 7.395c-1.823 0-3.309 1.476-3.309 3.293 0 1.819 1.485 3.293 3.309 3.293 1.827 0 3.31-1.474 3.31-3.293-.001-1.817-1.483-3.293-3.31-3.293"/></svg>