<svg xmlns="http://www.w3.org/2000/svg" viewBox="0 0 64 64" enable-background="new 0 0 64 64"><path d="m17.318 12.088l-3.77 13.529h1.825l1.223-4.394h3.344l1.225 4.394h1.824l-3.771-13.529h-1.9m-.25 7.446l1.2-4.312 1.2 4.312h-2.4"/><path d="m21.639 13.779h3.839v11.838h1.762v-11.838h3.839v-1.691h-9.44z"/><path d="m37.82 23.478l-3.037-11.39h-2.357v13.529h1.685v-9.504l2.537 9.504h2.344l2.535-9.504v9.504h1.686v-13.529h-2.356z"/><path d="m50.666 2h-37.333c-5.155 0-9.333 4.192-9.333 9.365v28.095c0 3.046 1.459 5.737 3.704 7.445l-3.704 15.095h40.59l-3.232-13.175h9.309c5.156 0 9.334-4.192 9.334-9.365v-28.095c-.001-5.173-4.179-9.365-9.335-9.365m-42.469 33.999c0-1.289 1.041-2.334 2.326-2.334h27.545c1.283 0 2.326 1.045 2.326 2.334v.875c0 .974-.596 1.807-1.441 2.156l-.814-3.316h-27.688l-.814 3.316c-.845-.35-1.44-1.183-1.44-2.156v-.875m8.741 4.089l-.456 3.603h-2.604l-.384 2.27h2.701l-.558 4.392c-.341 2.701 1.789 5.047 4.785 5.047 2.996 0 5.374-2.346 5.316-5.047l-.217-10.264c-.018-.792.773-1.416 1.764-1.416.991 0 1.847.624 1.915 1.416l.867 10.264h.001c.096 1.134-.823 2.08-2.056 2.08l.156 2.967c2.996 0 5.125-2.346 4.783-5.047l-.557-4.392h2.701l-.385-2.27h-2.603l-.456-3.603c-.131-1.036-.847-1.922-1.844-2.501h4.75l3.74 20.213h-28.005l3.738-20.213h4.751c-.996.579-1.712 1.465-1.843 2.501m2.453 0c.067-.792.923-1.416 1.914-1.416l.057-1.085h3.286c-.935.579-1.557 1.465-1.578 2.501l-.217 10.264c-.023 1.134-1.042 2.08-2.273 2.08-1.233 0-2.152-.946-2.056-2.08l.867-10.264m22.816 20.039h-35.825l5.531-22.54h1.237l-4.311 21.471h30.911l-4.311-21.471h1.236l5.532 22.54m6.293-32.8c0 1.378-1.113 2.493-2.488 2.493h-35.265c-1.372 0-2.485-1.115-2.485-2.493v-16.948c0-1.379 1.113-2.495 2.485-2.495h35.265c1.375 0 2.488 1.116 2.488 2.495v16.948m10.566 10.668h-4.434c-1.031 0-1.867-.84-1.867-1.873v-2.81c0-1.035.836-1.873 1.867-1.873h4.434v6.556m0-9.775h-4.434c-1.031 0-1.867-.837-1.867-1.872v-2.81c0-1.034.836-1.873 1.867-1.873h4.434v6.555m0-9.773h-4.434c-1.031 0-1.867-.838-1.867-1.873v-2.81c0-1.033.836-1.873 1.867-1.873h4.434v6.556"/></svg>