<svg xmlns="http://www.w3.org/2000/svg" viewBox="0 0 64 64" enable-background="new 0 0 64 64"><path d="m63 60h-6v-18.242c3.656 1.955 3.766 5.918 3.766 5.918.697-5.52-1.842-7.643-3.823-8.463-.03-.227-.073-.447-.128-.666 4.02-3.277 7.185-1.914 7.185-1.914-3.598-4.347-6.668-2.432-8.414-.492-1.1-1.307-2.747-2.141-4.586-2.141h-5v-8c0-3.308-2.691-6-6-6h-1v-6c0-1.077-.531-2.36-1.293-3.121l-1.586-1.587c-.761-.76-2.045-1.292-3.121-1.292v-1.442c2.666 1.533 3.332-1.534 6 0 0-1.705 0-3.41 0-5.115-2.668-1.533-3.334 1.534-6 0v-.443c0-.55-.451-1-1-1-.551 0-1 .45-1 1v7c-1.076 0-2.36.532-3.121 1.292l-1.586 1.587c-.762.761-1.293 2.044-1.293 3.121v6h-1c-3.309 0-6 2.692-6 6v8h-5c-1.839 0-3.486.834-4.588 2.141-1.744-1.94-4.815-3.856-8.412.492 0 0 3.164-1.363 7.186 1.916-.055.217-.098.438-.128.664-1.981.82-4.521 2.943-3.823 8.463 0 0 .109-3.965 3.766-5.918v18.242h-6.001c-.551 0-1 .451-1 1v2c0 .551.449 1 1 1h62c.549 0 1-.449 1-1v-2c0-.549-.451-1-1-1m-8.972-18.961c.167-.047.316-.102.493-.143.336.063.646.145.947.234.075.635.159 1.443.234 2.449h-1.727c.027-.821.044-1.673.053-2.54m-.061 2.889c.757.959 1.393.625 1.774.215.057.836.104 1.781.139 2.834h-2.055c.056-.979.105-1.989.142-3.049m-.967-2.563c.008-.002.017-.006.025-.01-.025 1.818-.09 3.537-.177 5.15-.174-.296-.483-.505-.848-.505h-3.639c.23-.936.75-2.023 1.832-3h1.807c.549 0 1-.449 1-1v-.635m-42 .002v.633c0 .551.449 1 1 1h1.807c1.081.977 1.601 2.064 1.831 3h-3.638c-.367 0-.675.209-.849.504-.088-1.611-.151-3.33-.177-5.148.009.003.017.007.026.011m-2.469-.236c.3-.09.61-.172.945-.234.178.043.327.096.495.143.01.867.026 1.719.051 2.541h-1.726c.076-1.007.159-1.815.235-2.45m-.273 3.012c.383.41 1.019.744 1.775-.217.035 1.061.084 2.07.142 3.051h-2.058c.035-1.053.084-1.998.141-2.834m-.156 3.326c.434.424 1.187.828 2.098-.047.063 1.037.135 2.018.213 2.949h-2.343c-.002-1.035.008-2.008.032-2.902m-.03 3.367c.462.467 1.322.947 2.356-.266.1 1.158.206 2.227.313 3.197h-2.605c-.035-1.029-.056-2.007-.064-2.931m.075 3.217c.43.451 1.414 1.174 2.647.182.068.596.138 1.139.205 1.652v.113c0 .078.027.148.045.223.046.336.088.648.132.941h-2.873c-.069-1.086-.119-2.119-.156-3.111m.365 5.947c-.078-.914-.143-1.795-.198-2.652.382.443 1.497 1.441 2.91.139.24 1.613.419 2.513.419 2.513h-3.131m13.488-11.937l-1.236.937.469-1.525-1.233-.946 1.525-.006.475-1.523.475 1.523 1.525.006-1.232.945.468 1.526-1.236-.937m2 14.937l1.333-1h13.334l1.333 1h-16m4.236-14l-1.236-.937-1.236.937.469-1.525-1.233-.946 1.525-.006.475-1.523.475 1.523 1.525.006-1.232.945.468 1.526m-.236 1v10h-3v-10h3m5.236-1l-1.236-.937-1.236.937.469-1.525-1.233-.946 1.525-.006.475-1.523.475 1.523 1.525.006-1.232.945.468 1.526m-.236 1v10h-2v-10h2m5.236-1l-1.236-.937-1.236.937.469-1.525-1.233-.946 1.525-.006.475-1.523.475 1.523 1.525.006-1.232.945.468 1.526m.764 1v10h-3v-10h3m1.764-1l.469-1.525-1.233-.946 1.525-.006.475-1.523.475 1.523 1.525.006-1.232.945.468 1.526-1.236-.937-1.236.937m11.236 4h-4c-.551 0-1 .451-1 1v2c0 .551.449 1 1 1h3.833c-.255 1.764-.452 2.775-.458 2.805l-.04.195h-8.335v-10h2v-6h-26v6h2v10h-8.338l-.039-.195c-.007-.029-.202-1.041-.457-2.805h3.834c.549 0 1-.449 1-1v-2c0-.549-.451-1-1-1h-4c-.115 0-.222.029-.324.066-.108-1.012-.215-2.115-.31-3.311.175.147.39.245.634.245h4c.549 0 1-.449 1-1v-2c0-.414-.258-.771-.618-.922.177-1.191.021-2.213-.352-3.084.534-.017.97-.455.97-.994v-2c0-.549-.451-1-1-1h-4c-.146 0-.283.035-.409.094-.11-.047-.222-.096-.327-.139 4.877-4.582 8.736-1.15 8.736-1.15-.594-.787-1.205-1.365-1.821-1.805h1.821v-10c0-2.2 1.799-4 4-4h3v-8c0-.55.318-1.318.707-1.708l1.586-1.585c.389-.389 1.156-.707 1.707-.707h2c.549 0 1.318.318 1.707.708l1.586 1.585c.389.389.707 1.157.707 1.707v8h3c2.199 0 4 1.8 4 4v10h1.82c-.615.439-1.227 1.018-1.82 1.805 0 0 3.858-3.432 8.734 1.15-.105.043-.217.092-.326.139-.125-.059-.262-.094-.408-.094h-4c-.551 0-1 .451-1 1v2c0 .539.434.977.969.994-.373.871-.528 1.893-.353 3.084-.36.151-.616.508-.616.922v2c0 .551.449 1 1 1h4c.242 0 .459-.098.633-.244-.096 1.195-.201 2.299-.309 3.311-.103-.038-.21-.067-.324-.067m3.486 7h-3.131c0 0 .179-.9.418-2.512 1.414 1.301 2.528.303 2.911-.141-.055.858-.12 1.739-.198 2.653m.209-2.836h-2.873c.041-.289.084-.596.129-.926.021-.078.049-.154.049-.238v-.123c.067-.51.136-1.051.205-1.645 1.232.994 2.216.271 2.646-.18-.037.993-.087 2.026-.156 3.112m.167-3.396h-2.606c.109-.971.216-2.039.314-3.199 1.033 1.213 1.894.736 2.355.27-.006.923-.028 1.899-.063 2.929m-2.276-3.397c.078-.932.151-1.912.215-2.951.909.875 1.663.473 2.096.051.023.893.033 1.865.03 2.9h-2.341"/><path d="m21.119 42.422v-2.027h1.836v2.027h1.111v-4.842h-1.111v1.859h-1.836v-1.859h-1.119v.225 4.617z"/><path d="m27.943 37.5c-1.455 0-2.398 1.086-2.398 2.535 0 1.381.855 2.465 2.318 2.465 1.44 0 2.422-.963 2.422-2.549 0-1.338-.828-2.451-2.342-2.451m-.021 4.131c-.746 0-1.199-.668-1.199-1.617 0-.939.438-1.645 1.191-1.645.771 0 1.193.748 1.193 1.617 0 .942-.431 1.645-1.185 1.645"/><path d="m31.17 38.498h1.324v3.924h1.117v-3.924h1.348v-.918h-3.789z"/><path d="m37.404 40.373h1.813v-.891h-1.813v-1.003h1.922v-.899h-3.045v4.842h3.147v-.899h-2.024z"/><path d="m42.039 37.58h-1.119v4.842h3.08v-.92h-1.961z"/><path d="m34 24h-4c-.551 0-1 .45-1 1v8c0 .551.449 1 1 1h4c.549 0 1-.449 1-1v-8c0-.55-.451-1-1-1"/><path d="m30 20c.549 0 1-.45 1-1v-4c0-.55-.451-1-1-1-.551 0-1 .45-1 1v4c0 .55.449 1 1 1"/><path d="m34 14c-.551 0-1 .45-1 1v4c0 .55.449 1 1 1 .549 0 1-.45 1-1v-4c0-.55-.451-1-1-1"/><path d="m23 28h3c.549 0 1-.449 1-1v-2c0-.55-.451-1-1-1h-3c-.551 0-1 .45-1 1v2c0 .55.449 1 1 1"/><path d="m27 33v-2c0-.549-.451-1-1-1h-3c-.551 0-1 .451-1 1v2c0 .551.449 1 1 1h3c.549 0 1-.449 1-1"/><path d="m38 28h3c.549 0 1-.449 1-1v-2c0-.55-.451-1-1-1h-3c-.551 0-1 .45-1 1v2c0 .55.449 1 1 1"/><path d="m38 34h3c.549 0 1-.449 1-1v-2c0-.549-.451-1-1-1h-3c-.551 0-1 .451-1 1v2c0 .551.449 1 1 1"/></svg>