<svg xmlns="http://www.w3.org/2000/svg" viewBox="0 0 64 64" enable-background="new 0 0 64 64"><path d="m54.5 41.375v-1.875h1.406c3.365 0 6.094-2.616 6.094-4.688 0 0-1.875.938-4.688.938-3.097 0-7.5-1.679-7.5-3.75v-5.625-1.875h1.406c3.365 0 6.094-2.616 6.094-4.688 0 0-1.875.938-4.688.938-3.097 0-7.5-1.679-7.5-3.75v-5.625-1.875h1.406c3.365 0 6.094-2.617 6.094-4.688 0 0-1.875.938-4.688.938-3.097 0-7.5-1.679-7.5-3.75h-8.436-8.438c0 2.071-4.403 3.75-7.5 3.75-2.813 0-4.688-.938-4.688-.938 0 2.071 2.729 4.688 6.094 4.688h1.406v1.875 5.625c0 2.071-4.403 3.75-7.5 3.75-2.813 0-4.688-.938-4.688-.938 0 2.071 2.729 4.688 6.094 4.688h1.406v1.875 5.625c0 2.071-4.403 3.75-7.5 3.75-2.811 0-4.686-.937-4.686-.937 0 2.071 2.729 4.687 6.094 4.687h1.406v1.875 5.625l-7.5 15h60l-7.5-15v-5.625m.761 9.222l.452.867h-2.228l1.55 2.602h2.033l.451.869h-6.888l1.452 2.602h6.79l.453.867h-2.598l-1.694 3.036h-.903l1.693-3.036h-6.323l-1.693 3.036h-.903l1.693-3.036h-7.904l1.694 3.036h-.903l-1.694-3.036h-6.322l1.692 3.036h-.902l-1.694-3.036h-6.323l1.693 3.036h-.903l-1.693-3.036h-4.742l-1.694 3.036h-.902l1.692-3.036h-7.227l-1.693 3.036h-.905l1.693-3.036h-6.888l.453-.867h3.049l1.451-2.602h-3.146l.451-.869h5.646l-1.549-2.602h-2.741l.452-.867h3.839l1.808-3.036h.902l-1.807 3.036h8.13l-1.806-3.036h.902l1.807 3.036h6.324l-1.808-3.036h.903l1.807 3.036h4.518l1.807-3.036h.903l-1.808 3.036h6.324l1.807-3.036h.902l-1.806 3.036h8.131l-1.808-3.036h.902l1.808 3.036h3.841m-27.502-43.206c1.056-.841 1.72-2.11 4.241-2.11 2.525 0 3.089 1.223 4.241 2.109 2.74 2.109 4.95 2.101 5.304 2.109h-19.091c.354-.007 2.649.001 5.305-2.108m-7.946 3.984h6.563v3.75h1.875v-3.75h2.813v3.75h1.875v-3.75h2.813v3.75h1.875v-3.75h6.563v5.625h-12.19-12.187v-5.625m12.187 7.593l7.605 5.532h-15.21l7.605-5.532m-15 7.407v3.75h1.875v-3.75h5.625v3.75h.938v-3.75h1.875v3.75h.938v-3.75h1.875v3.75h.938v-3.75h1.875v3.75h.938v-3.75h1.875v3.75h.938v-3.75h1.875v3.75h.935v-3.75h5.625v3.75h1.875v-3.75h1.875v5.501h-33.75v-5.501h1.875m8.333 10.313c1.664-1.12 2.706-2.813 6.667-2.813 3.968 0 4.854 1.632 6.667 2.813 4.306 2.812 7.776 2.801 8.333 2.812h-30c.557-.011 4.162 0 8.333-2.812m-13.02 4.687v3.75h1.875v-3.75h6.094v3.75h.938v-3.75h1.875v3.75h.938v-3.75h1.875v3.75h.938v-3.75h1.875v3.75h.938v-3.75h1.875v3.75h.938v-3.75h1.875v3.75h.938v-3.75h1.875v3.75h.938v-3.75h1.875v3.75h.938v-3.75h1.875v3.75h.938v-3.75h6.094v3.75h1.875v-3.75h1.875v5.032h-43.13v-5.032h1.875"/><path d="m10.529 54.935l-1.452 2.601h7.904l-1.452-2.601z"/><path d="m18.901 54.065l-1.549-2.601h-5.42l1.549 2.601z"/><path d="m33.354 54.065l-1.548-2.601h-5.936l-1.549 2.601z"/><path d="m23.419 54.065l1.548-2.601h-6.711l1.55 2.601z"/><path d="m46.002 54.065h8.13l-1.549-2.601h-5.032z"/><path d="m45.099 54.065l1.548-2.601h-7.615l1.549 2.601z"/><path d="m39.679 54.065l-1.549-2.601h-5.42l1.549 2.601z"/><path d="m43.533 54.935l1.452 2.601h6.196l-1.452-2.601z"/><path d="m37.63 54.935l-1.452 2.601h7.904l-1.452-2.601z"/><path d="m22.757 54.935l1.452 2.601h3.839l1.453-2.601z"/><path d="m16.434 54.935l1.452 2.601h5.42l-1.452-2.601z"/><path d="m30.403 54.935l-1.452 2.601h6.323l1.453-2.601z"/></svg>