<svg xmlns="http://www.w3.org/2000/svg" viewBox="0 0 64 64" enable-background="new 0 0 64 64"><path d="m17 37.9h2v10h-2z"/><path d="m20 37.9h2v10h-2z"/><path d="m45 37.9h2v10h-2z"/><path d="m42 37.9h2v10h-2z"/><path d="M62,24.051v-2.815L31.989,2L2,21.235v2.815l1.607-1.031l0.879,1.313L2,25.928v1.876h1.313v1.842H2v1.877h2.82v1.95H5.5
		v22.742H4.82v2.035H3.5v1.875H2V62h60v-1.875h-1.5V58.25h-1.32v-2.035H58.5V33.473h0.68v-1.95H62v-1.877h-1.313v-1.842H62v-1.876
		l-2.487-1.595l0.879-1.313L62,24.051z M31.989,4.814L59.128,22.21l-0.878,1.313L31.989,6.691L5.75,23.522l-0.879-1.313
		L31.989,4.814z M56.918,25.928H7.082L31.989,9.482L56.918,25.928z M13.5,56.215V54.5H17v-1.875h9.074V52.07h0.556v-9.808
		c0-7.103,10.74-7.214,10.74,0v9.808h0.556v0.555H47V54.5h3.5v1.715v0.16h-37V56.215z M16,48.9v-12h7v12H16z M41,48.9v-12h7v12H41z
		 M6.5,33.473h6v22.742h-6V33.473z M57.5,56.215h-6V33.473h6V56.215z M59.188,29.646H4.813v-1.842h54.375V29.646z"/><path d="m31.106 11.901v.897c-1.537.353-2.681 1.57-2.681 3.031 0 1.732 1.604 3.142 3.574 3.142.985 0 1.787.705 1.787 1.571 0 .867-.802 1.572-1.787 1.572s-1.787-.705-1.787-1.572h-1.787c0 1.461 1.144 2.679 2.681 3.031v.897h1.787v-.897c1.537-.353 2.681-1.57 2.681-3.031 0-1.732-1.604-3.142-3.574-3.142-.985 0-1.787-.704-1.787-1.571s.802-1.572 1.787-1.572 1.787.705 1.787 1.572h1.787c0-1.461-1.144-2.679-2.681-3.031v-.897h-1.787"/><path d="m7.099 34.384h.708v20.98h-.708z"/><path d="m11.192 34.384h.708v20.98h-.708z"/><path d="m9.828 34.384h.707v20.98h-.707z"/><path d="m8.464 34.384h.707v20.98h-.707z"/><path d="m52.099 34.384h.708v20.98h-.708z"/><path d="m56.192 34.384h.708v20.98h-.708z"/><path d="m54.828 34.384h.707v20.98h-.707z"/><path d="m53.464 34.384h.707v20.98h-.707z"/><path d="m27.416 42.678v9.393h9.168v-9.393c0-6.711-9.168-6.609-9.168 0m4.139-3.793v3.652h-3.082c.122-2.199 1.537-3.424 3.082-3.652m.001 12.064h-3.091v-3.047h3.091v3.047m0-4.359h-3.091v-3.047h3.091v3.047m4.122 4.359h-3.092v-3.047h3.092v3.047m.48-6.124v2.591h-1.296v-2.591h1.296m-.48-.25h-.815-.25v.25 1.765h-2.026v-3.047h3.092v1.032zm-3.092-2.038v-3.659c1.547.212 2.962 1.426 3.082 3.659h-3.082"/><path d="m35.695 46.467c0-.103-.083-.186-.185-.186s-.185.083-.185.186c0 .061.029.115.074.149l-.077.494h.374l-.077-.494c.047-.034.076-.089.076-.149"/><path d="m35.512 46.032c.292 0 .53-.238.53-.531 0-.294-.238-.533-.53-.533-.296 0-.533.239-.533.533 0 .293.237.531.533.531"/></svg>