<svg xmlns="http://www.w3.org/2000/svg" viewBox="0 0 64 64" enable-background="new 0 0 64 64"><ellipse cx="45.594" cy="53.243" rx=".469" ry=".461"/><path d="m61.063 58.313h-1.875l-.375-7.745-.376-7.743-.375-7.744-.374-7.743-.375-7.744h-.173c.433-.498.704-1.138.704-1.844 0-.825-.364-1.597-.973-2.128.023-.162.035-.324.035-.484 0-2.124-1.816-3.882-3.959-3.762-.129-.28-.285-.55-.47-.807.014-.125.021-.25.021-.379 0-2.991-2.467-5.424-5.499-5.424-.217 0-.434.015-.658.046-1.023-1.732-2.893-2.812-4.966-2.812-1.336 0-2.622.468-3.649 1.308-1.124-.85-2.489-1.308-3.93-1.308-1.279 0-2.525.375-3.586 1.07-1.974-1.427-4.901-1.379-6.845.162-2.212-1.438-5.187-1.618-7.57-.424-1.226-.536-2.524-.808-3.87-.808-5.294 0-9.601 4.242-9.601 9.457s4.307 9.458 9.601 9.458c3.153 0 6.05-1.497 7.852-4.031 2.568-.188 4.836-1.638 6.062-3.853 1.088.216 2.159.093 3.161-.314 1.224 1.321 2.961 2.091 4.797 2.091 1.868 0 3.614-.784 4.838-2.137 1.163.635 2.494.865 3.845.586.306.443.672.837 1.087 1.168.498 2.223 2.504 3.85 4.841 3.85.709 0 1.401-.148 2.04-.436.516.499 1.159.84 1.865.985.115.284.277.542.473.77h-1.097l-.375 7.744-.376 7.743-.375 7.744-.374 7.743-.375 7.745v-18.438h-11.25l-11.25-9.219v9.219l-11.25-9.219v9.219l-11.25-9.219v13.828 4.148.922 4.149 4.609h-1.876c-.517.001-.938.416-.938.923v1.843c0 .507.421.922.938.922h37.5 7.5 13.125c.514 0 .937-.415.937-.922v-1.843c0-.507-.423-.922-.937-.922m-9.518-42.279l-.553-.904-.871.605c-.509.353-1.102.539-1.715.539-1.486 0-2.748-1.096-2.935-2.548l-.059-.452-.379-.252c-.499-.333-.908-.807-1.185-1.373l-.389-.798-.839.292c-1.375.478-2.579.196-3.593-.6l-.853-.673-.599.91c-.834 1.269-2.247 2.027-3.779 2.027-1.479 0-2.864-.717-3.706-1.916l-.533-.759-.797.474c-.951.566-1.979.707-3.124.296l-.903-.324-.361.888c-.846 2.08-2.865 3.429-5.145 3.437l-.55.002-.293.465c-1.4 2.218-3.815 3.543-6.459 3.543-4.191 0-7.601-3.346-7.601-7.458 0-4.11 3.409-7.455 7.601-7.455 1.208 0 2.37.277 3.453.822l.489.246.471-.279c2.009-1.191 4.688-.97 6.462.506l.734.61.644-.704c.708-.774 1.668-1.201 2.704-1.201.979 0 1.899.376 2.59 1.059l.657.649.699-.604c.824-.712 1.878-1.104 2.968-1.104 1.235 0 2.389.484 3.247 1.364l.76.778.712-.823c.725-.838 1.768-1.319 2.86-1.319 1.545 0 2.915.913 3.491 2.325l.335.823.857-.237c.36-.1.659-.146.941-.146 1.93 0 3.499 1.536 3.499 3.424 0 .164-.027.321-.057.512l-.069.454.299.349c.319.371.532.783.634 1.224l.24 1.04 1.021-.307c.204-.062.371-.09.526-.09.999 0 1.813.792 1.813 1.766 0 .185-.037.377-.114.59l-.32.879.856.377c.313.139.516.439.516.767 0 .466-.393.844-.875.844-.455 0-.826-.333-.863-.775l-.076-.917-.991.001c-.615-.019-1.171-.34-1.493-.869m.966 17.547l.23-4.743h3.517l.229 4.743h-3.976m-.749 15.487l.229-4.743h5.017l.23 4.743h-5.476m-4.074 12.16h-7v-.82h7v.82m.125-12.134v7.22h-.313v-7.22h.313m-5.938 8.719v-8.22h4.625v8.22h-4.625m-.25 2.094v-1.094h5.125v1.094h-5.125m-25.094-10.352h10.313v3.228h-10.313v-3.228m-.937 3.227h-8.781v-3.228h8.781v3.228m12.187-3.227h9.844v3.228h-9.844v-3.228m0-.922v-3.227h9.844v3.227h-9.844m-.937 0h-10.313v-3.227h10.313v3.227m-11.25 0h-8.781v-3.227h8.781v3.227"/><path d="m22.529 8.597c-.095-.085-.258-.188-.366-.245-.102-.068-.253-.133-.411-.196-.174-.07-.348-.117-.522-.155-.12-.521-.387-1.027-.815-1.438-.244-.252-.523-.445-.875-.629-.122-.065-.278-.135-.479-.21-.19-.069-.36-.12-.543-.162-1.323-.303-2.792.067-3.71.894-.011-.004-.018-.011-.027-.014-.117-.045-.368-.136-.54-.158-.373-.064-.756-.058-1.111.015-.705.16-1.294.592-1.502 1.124.473-.38 1.051-.563 1.592-.545.271.001.528.059.757.151.133.053.169.073.326.16.088.052.178.13.257.203l.346.317.431-.358c.762-.635 1.871-.881 2.851-.669.117.022.247.06.352.092.091.028.218.076.368.149.185.097.419.229.597.376.374.298.643.697.808 1.137l.134.352.333-.002c.231-.001.482.002.698.037.205.021.492.119.699.201.448.193.854.496 1.17.904-.068-.488-.368-.969-.818-1.331"/><path d="m49.973 11.327c-.048-.078-.13-.168-.217-.26-.095-.101-.197-.188-.304-.267.087-.389.066-.815-.091-1.226-.084-.247-.212-.464-.392-.697-.061-.082-.146-.178-.257-.291-.107-.105-.206-.194-.315-.278-.8-.615-1.912-.819-2.8-.544-.005-.006-.009-.012-.014-.018-.065-.067-.205-.206-.315-.274-.232-.159-.493-.273-.757-.335-.528-.11-1.065 0-1.377.296.441-.112.892-.056 1.253.124.183.084.339.204.464.336.074.077.091.102.17.209.043.063.078.144.108.217l.134.322.406-.109c.719-.194 1.549-.017 2.144.43.072.052.148.117.209.171.053.047.123.12.201.215.095.123.21.285.283.44.157.318.213.671.184 1.02l-.022.28.227.102c.156.071.326.15.46.241.132.078.296.233.409.354.242.27.42.599.503.974.113-.349.064-.767-.125-1.152-.038-.088-.116-.208-.169-.28"/></svg>