<svg xmlns="http://www.w3.org/2000/svg" viewBox="0 0 64 64" enable-background="new 0 0 64 64"><path d="m14.188 29.656h-5.625c-.775 0-1.406.631-1.406 1.406v3.75c0 .775.631 1.406 1.406 1.406h5.625c.775 0 1.406-.631 1.406-1.406v-3.75c0-.775-.631-1.406-1.406-1.406m-3.282 5.625h-2.343c-.258 0-.469-.211-.469-.469v-3.75c0-.258.211-.469.469-.469h2.344v4.688zm3.75-.468c0 .258-.211.469-.469.469h-2.344v-4.688h2.344c.258 0 .469.211.469.469v3.75"/><path d="m14.188 39.5h-5.625c-.775 0-1.406.631-1.406 1.406v3.75c0 .775.631 1.406 1.406 1.406h5.625c.775 0 1.406-.631 1.406-1.406v-3.75c0-.775-.631-1.406-1.406-1.406m-3.282 5.625h-2.343c-.258 0-.469-.211-.469-.469v-3.75c0-.258.211-.469.469-.469h2.344v4.688zm3.75-.469c0 .258-.211.469-.469.469h-2.344v-4.688h2.344c.258 0 .469.211.469.469v3.75"/><path d="m14.188 48.875h-5.625c-.775 0-1.406.631-1.406 1.406v3.75c0 .775.631 1.406 1.406 1.406h5.625c.775 0 1.406-.631 1.406-1.406v-3.75c0-.775-.631-1.406-1.406-1.406m-3.282 5.625h-2.343c-.258 0-.469-.211-.469-.469v-3.75c0-.258.211-.469.469-.469h2.344v4.688zm3.75-.469c0 .258-.211.469-.469.469h-2.344v-4.688h2.344c.258 0 .469.211.469.469v3.75"/><path d="m48.406 31.063v3.75c0 .775.631 1.406 1.406 1.406h5.625c.775 0 1.406-.631 1.406-1.406v-3.75c0-.775-.631-1.406-1.406-1.406h-5.625c-.775-.001-1.406.63-1.406 1.406m4.688-.469h2.344c.258 0 .469.211.469.469v3.75c0 .258-.211.469-.469.469h-2.344v-4.688m-.938 4.687h-2.344c-.258 0-.469-.211-.469-.469v-3.75c0-.258.211-.469.469-.469h2.344v4.688"/><path d="m55.438 39.5h-5.625c-.775 0-1.406.631-1.406 1.406v3.75c0 .775.631 1.406 1.406 1.406h5.625c.775 0 1.406-.631 1.406-1.406v-3.75c0-.775-.631-1.406-1.406-1.406m-3.282 5.625h-2.344c-.258 0-.469-.211-.469-.469v-3.75c0-.258.211-.469.469-.469h2.344v4.688m3.75-.469c0 .258-.211.469-.469.469h-2.344v-4.688h2.344c.258 0 .469.211.469.469v3.75"/><path d="m55.438 48.875h-5.625c-.775 0-1.406.631-1.406 1.406v3.75c0 .775.631 1.406 1.406 1.406h5.625c.775 0 1.406-.631 1.406-1.406v-3.75c0-.775-.631-1.406-1.406-1.406m-3.282 5.625h-2.344c-.258 0-.469-.211-.469-.469v-3.75c0-.258.211-.469.469-.469h2.344v4.688m3.75-.469c0 .258-.211.469-.469.469h-2.344v-4.688h2.344c.258 0 .469.211.469.469v3.75"/><path d="m22.499 36.348c-.527-.178-.76-.28-.76-.512 0-.188.194-.35.597-.35.399 0 .691.102.854.172l.207-.663c-.243-.097-.582-.183-1.044-.183-.967 0-1.549.475-1.549 1.094 0 .527.443.862 1.124 1.072.491.155.686.286.686.512 0 .237-.225.393-.65.393-.394 0-.776-.112-1.025-.226l-.188.679c.23.113.692.221 1.16.221 1.123 0 1.651-.517 1.651-1.126 0-.512-.34-.846-1.063-1.083"/><path d="m26.276 35.492c.327 0 .589.063.776.134l.188-.651c-.163-.076-.527-.162-1.007-.162-1.239 0-2.236.689-2.236 1.929 0 1.035.729 1.815 2.145 1.815.498 0 .881-.08 1.051-.156l-.141-.641c-.182.064-.491.119-.771.119-.825 0-1.311-.459-1.311-1.186.001-.808.572-1.201 1.306-1.201"/><path d="m30.254 36.268h-1.525v-1.396h-.928v3.631h.928v-1.52h1.525v1.52h.923v-3.631h-.923z"/><path d="m33.788 34.813c-1.208 0-1.991.813-1.991 1.901 0 1.035.71 1.849 1.924 1.849 1.197 0 2.01-.723 2.01-1.912-.001-1.004-.686-1.838-1.943-1.838m-.017 3.098c-.62 0-.996-.502-.996-1.213 0-.706.364-1.234.989-1.234.638 0 .99.561.99 1.213 0 .706-.359 1.234-.983 1.234"/><path d="m38.144 34.813c-1.209 0-1.992.813-1.992 1.901 0 1.035.71 1.849 1.924 1.849 1.198 0 2.011-.723 2.011-1.912-.001-1.004-.688-1.838-1.943-1.838m-.019 3.098c-.62 0-.996-.502-.996-1.213 0-.706.364-1.234.989-1.234.639 0 .99.561.99 1.213 0 .706-.358 1.234-.983 1.234"/><path d="m41.622 34.872h-.929v3.631h2.557v-.69h-1.628z"/><path d="m38.563 26.375c0-3.625-2.938-6.563-6.563-6.563s-6.563 2.938-6.563 6.563 2.938 6.563 6.563 6.563 6.563-2.938 6.563-6.563m-11.25 0c0-2.588 2.099-4.688 4.688-4.688s4.688 2.1 4.688 4.688c0 2.589-2.099 4.688-4.688 4.688s-4.688-2.099-4.688-4.688"/><path d="m32.938 27.313v-3.75c0-.516-.422-.938-.938-.938s-.938.422-.938.938v2.813h-.938c-.516 0-.938.422-.938.938s.422.938.938.938h1.876c.516-.002.938-.424.938-.939"/><path d="m61.063 58.25h-.938v-30h.634c1.055 0 1.53-.755 1.059-1.677l-3.077-6.021c-.472-.922-1.721-1.677-2.775-1.677h-15.859l-7.17-5.804v-2.29c3.75 2.992 7.5-6.446 11.25-3.453-3.75-5.294-7.5 1.841-11.25-3.453v-.937c.001-.516-.421-.938-.937-.938s-.938.422-.938.938v10.134l-7.17 5.804h-15.857c-1.055 0-2.304.755-2.775 1.677l-3.077 6.021c-.472.922.004 1.677 1.059 1.677h.634v30h-.938c-.516-.001-.938.421-.938.937v1.875c0 .515.422.937.938.937h58.125c.515 0 .937-.422.937-.937v-1.875c0-.516-.422-.938-.937-.938m-44.063 0h-11.25v-30h7.5 1.437c.018.163.05.318.1.459.245.685.957 1.416 2.214 1.416v28.125zm25 2.594h-20v-1.5h20v1.5m-15.625-2.594v-11.25h5.156v11.25h-5.156m6.094 0v-11.25h5.156v11.25h-5.156m12.656 0h-5.625v-11.25h1.875v-1.881c0 0-6.443-3.893-8.487-5.348-.509-.362-1.267-.362-1.775 0-2.044 1.455-8.487 5.348-8.487 5.348v1.881h1.874v11.25h-5.625v-30h-1.875c-.516 0-.611-.269-.214-.596l14.49-11.934c.199-.163.462-.245.724-.245s.524.082.724.245l14.49 11.934c.397.327.302.596-.214.596h-1.875v30m13.125 0h-11.25v-28.125c1.257 0 1.969-.731 2.214-1.416.05-.141.082-.296.1-.459h1.437 7.5v30z"/><path d="m29.246 52.156h1.348v.681h-1.348z"/><path d="m33.406 52.156h1.348v.681h-1.348z"/></svg>