<svg xmlns="http://www.w3.org/2000/svg" viewBox="0 0 64 64" enable-background="new 0 0 64 64"><path d="m49.813 30.125h-35.625c-2.063 0-3.75 1.688-3.75 3.75h43.125c0-2.062-1.688-3.75-3.75-3.75"/><path d="m30.749 11.75h-3.123v-6h-3.126v9h6.249v6h3.126v-15h-3.126z"/><path d="m19.501 5.75h-6.251v3.001h6.251v2.998h-3.127c-.8 0-1.602.293-2.211.879-.611.586-.917 1.355-.913 2.124v5.998h9.375v-3.001h-6.251v-2.998h3.125l.001-.001c.799.001 1.599-.292 2.209-.878.611-.586.916-1.354.916-2.123v-2.998c0-.768-.305-1.536-.916-2.122-.61-.586-1.408-.879-2.208-.879"/><path d="m61.063 58.25h-3.75v-24.375c0-4.136-3.364-7.5-7.5-7.5h-16.875v-1.875h5.625v-16.875c0-3.094-2.532-5.625-5.625-5.625h-18.75c-3.094 0-5.625 2.531-5.625 5.625v16.875h5.625v1.875c-4.136 0-7.5 3.364-7.5 7.5v24.375h-3.75c-.516 0-.938.422-.938.938v1.875c0 .515.422.937.938.937h58.125c.515 0 .937-.422.937-.937v-1.875c0-.516-.422-.938-.937-.938m-50.625-35.625v-15c0-2.067 1.682-3.75 3.75-3.75h18.75c2.068 0 3.75 1.683 3.75 3.75v15h-26.25m7.5 1.875h11.25v1.875h-11.25v-1.875m-9.375 9.375c0-3.094 2.531-5.625 5.625-5.625h3.75 11.25 3.75 16.875c3.094 0 5.625 2.531 5.625 5.625v24.375h-15.938v-2.813h12.188 1.875v-1.875-7.5-1.875h-1.875-12.188v-2.813h14.063v-3.75h-43.125v3.75h14.062v2.813h-12.187-1.875v1.875 7.5 1.875h1.875 12.187v2.813h-15.937v-24.375m15.937 19.688h-12.187v-7.5h12.187v7.5m6.563 4.687h-4.688v-15h4.688v15m6.562 0h-4.688v-15h4.688v15m1.875-4.687v-7.5h12.188v7.5h-12.188m-15 7.5l.469-.938h14.063l.469.938h-15.001"/></svg>