<svg xmlns="http://www.w3.org/2000/svg" viewBox="0 0 64 64" enable-background="new 0 0 64 64"><path d="m61.063 58.25h-4.688v-1.875h.469c.258 0 .469-.211.469-.469v-2.813c0-.258-.211-.469-.469-.469h-.469v-1.874h.469c.258 0 .469-.211.469-.469v-2.813c0-.258-.211-.469-.469-.469h-.469v-1.875h.469c.258 0 .469-.211.469-.469v-2.813c0-.258-.211-.469-.469-.469h-.469v-1.873h.469c.258 0 .469-.211.469-.469v-2.813c0-.258-.211-.469-.469-.469h-.469v-1.875h.469c.258 0 .469-.211.469-.469v-2.813c0-.258-.211-.469-.469-.469h-.469v-1.873h.469c.258 0 .469-.211.469-.469v-2.813c0-.258-.211-.469-.469-.469h-.469v-1.875h.469c.258 0 .469-.211.469-.469v-2.813c0-.258-.211-.469-.469-.469h-.469v-1.873h5.625l-4.687-15h-50.625l-4.688 15h5.625v1.875h-.469c-.258 0-.469.211-.469.469v2.813c0 .258.211.469.469.469h.469v1.874h-.469c-.258 0-.469.211-.469.469v2.813c0 .258.211.469.469.469h.469v1.875h-.469c-.258 0-.469.211-.469.469v2.813c0 .258.211.469.469.469h.469v1.875h-.469c-.258 0-.469.211-.469.469v2.813c0 .258.211.469.469.469h.469v1.875h-.469c-.258 0-.469.211-.469.469v2.813c0 .258.211.469.469.469h.469v1.871h-.469c-.258 0-.469.211-.469.469v2.813c0 .258.211.469.469.469h.469v1.875h-.469c-.258 0-.469.211-.469.469v2.813c0 .258.211.469.469.469h.469v1.875h-4.687c-.516-.002-.938.42-.938.936v1.875c0 .515.422.937.938.937h58.125c.515 0 .937-.422.937-.937v-1.875c0-.516-.422-.938-.937-.938m-51.563-1.875h.469c.258 0 .469-.211.469-.469v-2.813c0-.258-.211-.469-.469-.469h-.469v-7.5h.469c.258 0 .469-.211.469-.469v-2.813c0-.258-.211-.469-.469-.469h-.469v-7.5h.469c.258 0 .469-.211.469-.469v-2.813c0-.258-.211-.469-.469-.469h-.469v-7.5h.469c.258 0 .469-.211.469-.469v-2.813c0-.258-.211-.469-.469-.469h-.469v-1.871h16.013c-.64-1.104-1.012-2.383-1.012-3.75 0-4.142 3.358-7.5 7.5-7.5s7.5 3.358 7.5 7.5c0 1.367-.372 2.646-1.012 3.75h16.011v1.875h-.469c-.258 0-.469.211-.469.469v2.813c0 .258.211.469.469.469h.469v7.5h-.469c-.258 0-.469.211-.469.469v2.813c0 .258.211.469.469.469h.469v7.5h-.469c-.258 0-.469.211-.469.469v2.813c0 .258.211.469.469.469h.469v7.5h-.469c-.258 0-.469.211-.469.469v2.813c0 .258.211.469.469.469h.469v1.875h-2.813v-15h-9.141l-10.546-4.691-10.547 4.687h-9.141v15h-2.812v-1.875m40.313 1.875h-5.625v-9.375h5.625v9.375m-7.5 0h-5.625v-9.375h5.625v9.375m-7.5 0h-5.625v-9.375h5.625v9.375m-9.141-15l6.328-2.812 6.328 2.813h-12.656zm1.641 5.625v9.375h-5.625v-9.375h5.625m-7.5 9.375h-5.625v-9.375h5.625v9.375"/><circle cx="32.001" cy="13.25" r="5.625"/><path d="m19.813 24.5h-7.5v13.125h7.5v-13.125m-1.875 11.25h-3.75v-3.75h3.75v3.75m0-5.625h-3.75v-3.75h3.75v3.75"/><path d="m51.688 24.5h-7.5v13.125h7.5v-13.125m-1.875 11.25h-3.75v-3.75h3.75v3.75m0-5.625h-3.75v-3.75h3.75v3.75"/><path d="m24.5 22.625h15v3.75h-15z"/><path d="m30.125 35.75h3.75v-3.75h5.625v-3.75h-15v3.75h5.625z"/></svg>