<svg xmlns="http://www.w3.org/2000/svg" viewBox="0 0 64 64" enable-background="new 0 0 64 64"><path d="m54.4 36.267h-1.067v-10.667h-10.666v10.667h-1.067v2.133h12.8v-2.133m-5.334-1.067v1.066h-2.133v-1.066c0-1.767-1.434-3.2-3.2-3.2 1.767 0 3.2-1.434 3.2-3.2v-2.133h2.133v2.133c0 1.767 1.434 3.2 3.2 3.2-1.766 0-3.2 1.434-3.2 3.2"/><path d="m22.4 36.267h-1.067v-10.667h-10.666v10.667h-1.067v2.133h12.8v-2.133m-5.334-1.067v1.066h-2.133v-1.066c0-1.767-1.434-3.2-3.2-3.2 1.767 0 3.2-1.434 3.2-3.2v-2.133h2.133v2.133c0 1.767 1.434 3.2 3.2 3.2-1.766 0-3.2 1.434-3.2 3.2"/><path d="m38.4 36.267h-1.067v-10.667h-10.666v10.667h-1.067v2.133h12.8v-2.133m-5.334-1.067v1.066h-2.133v-1.066c0-1.767-1.434-3.2-3.2-3.2 1.767 0 3.2-1.434 3.2-3.2v-2.133h2.133v2.133c0 1.767 1.434 3.2 3.2 3.2-1.766 0-3.2 1.434-3.2 3.2"/><path d="m54.4 52.267h-1.067v-10.667h-10.666v10.667h-1.067v2.133h12.8v-2.133m-5.334-1.067v1.066h-2.133v-1.066c0-1.767-1.434-3.2-3.2-3.2 1.767 0 3.2-1.434 3.2-3.2v-2.133h2.133v2.133c0 1.767 1.434 3.2 3.2 3.2-1.766 0-3.2 1.434-3.2 3.2"/><path d="m38.4 52.267h-1.067v-10.667h-10.666v10.667h-1.067v2.133h12.8v-2.133m-5.334-1.067v1.066h-2.133v-1.066c0-1.767-1.434-3.2-3.2-3.2 1.767 0 3.2-1.434 3.2-3.2v-2.133h2.133v2.133c0 1.767 1.434 3.2 3.2 3.2-1.766 0-3.2 1.434-3.2 3.2"/><path d="M41.6,4.267C41.6,1.91,39.338,0,36.548,0C34.535,0,32.813,1,32,2.438C31.188,1,29.465,0,27.452,0
		C24.662,0,22.4,1.91,22.4,4.267c0,4.267,9.6,12.8,9.6,12.8S41.6,8.533,41.6,4.267z"/><path d="m60.8 57.6v-38.4h-8.533v-2.134h-20.267-20.267v2.134h-8.533v38.4h-3.2v6.4h64v-6.4h-3.2m-37.333 4.266h-14.934v-2.133h14.934v2.133m-5.334-10.666c0-.59.478-1.066 1.067-1.066.589 0 1.066.477 1.066 1.066s-.478 1.066-1.066 1.066c-.59.001-1.067-.476-1.067-1.066m40.534 6.4h-37.334v-16h-10.666v16h-5.334v-36.267h53.334v36.267"/></svg>