<svg xmlns="http://www.w3.org/2000/svg" viewBox="0 0 64 64" enable-background="new 0 0 64 64"><path d="m13.829 7.563c1.201-.03 2.745.415 3.635.796 1.098.47 2.054-1.126.947-1.601-2.188-.938-4.624-1.408-6.963-.743-2.237.636-2.541 3.346-.666 4.56 1.758 1.138 4.059.202 5.863 1.091.715.353.215 1.021-.299 1.222-.544.212-1.152.229-1.728.233-1.192.008-2.687-.182-3.708-.813-1.028-.637-1.969.968-.947 1.6 1.8 1.113 4.552 1.31 6.597.851 2.048-.458 3.184-2.881 1.449-4.399-1.517-1.329-3.883-.735-5.697-1.163-.524-.123-1.323-.534-.755-1.182.453-.519 1.666-.438 2.272-.452"/><path d="m47.938 5.707c-.511 0-.938.422-.938.927 0 2.471 0 4.941 0 7.413 0 1.195 1.875 1.195 1.875 0 0-.922 0-1.845 0-2.767 2.186.037 5.377.011 5.598-2.485.312-3.537-4.17-3.088-6.535-3.088m4.57 3.147c-.591.739-2.357.668-3.633.599 0-.633 0-1.266 0-1.899 1.635.002 4.563.131 3.633 1.3"/><path d="m30.125 6.634c0 .926 0 1.853 0 2.779-1.875 0-3.75 0-5.625 0 0-.927 0-1.854 0-2.779 0-1.195-1.875-1.195-1.875 0 0 2.471 0 4.941 0 7.413 0 1.195 1.875 1.195 1.875 0 0-.927 0-1.854 0-2.78 1.875 0 3.75 0 5.625 0 0 .927 0 1.854 0 2.78 0 1.195 1.875 1.195 1.875 0 0-2.472 0-4.942 0-7.413 0-1.196-1.875-1.196-1.875 0"/><path d="m39.5 5.707c-2.585 0-4.688 2.078-4.688 4.633 0 2.556 2.103 4.634 4.688 4.634s4.688-2.078 4.688-4.634c0-2.555-2.103-4.633-4.688-4.633m0 7.413c-1.551 0-2.813-1.247-2.813-2.78 0-1.532 1.262-2.78 2.813-2.78s2.813 1.248 2.813 2.78c0 1.533-1.262 2.78-2.813 2.78"/><ellipse cx="6.688" cy="10.34" rx=".938" ry=".927"/><ellipse cx="57.313" cy="10.34" rx=".938" ry=".927"/><path d="m16.527 37.465c-2.646 0-4.89 1.766-5.61 4.182h11.222c-.723-2.417-2.965-4.182-5.612-4.182"/><path d="m60.125 2h-56.25c-1.031 0-1.875.834-1.875 1.854v12.974 1.853 8.341c0 1.368.774 2.55 1.891 3.192v28.204h-.891v3.582h58v-3.583h-.891v-28.204c1.117-.643 1.891-1.824 1.891-3.192v-8.341-14.826c0-1.02-.844-1.854-1.875-1.854m-56.719 25.021v-8.341h4.688v8.341c0 1.277-1.051 2.316-2.344 2.316s-2.344-1.039-2.344-2.316m18.977 16.298v15.098h-11.71v-15.098h-1.673c0-4.156 3.37-7.526 7.527-7.526 4.156 0 7.526 3.37 7.526 7.526h-1.67m30.944 9.201h-25.091v-16.727h25.091v16.727m4.923-21.06h-52.5v-.733c2.071 0 3.75-1.659 3.75-3.706 0 2.047 1.679 3.706 3.75 3.706s3.75-1.66 3.75-3.706c0 2.047 1.679 3.706 3.75 3.706s3.75-1.659 3.75-3.706c0 2.047 1.679 3.706 3.75 3.706s3.75-1.66 3.75-3.706c0 2.047 1.679 3.706 3.75 3.706s3.75-1.659 3.75-3.706c0 2.047 1.679 3.706 3.75 3.706s3.75-1.66 3.75-3.706c0 2.047 1.679 3.706 3.75 3.706s3.75-1.659 3.75-3.706c0 2.047 1.679 3.706 3.75 3.706v.733m-39.844-4.439v-8.341h4.688v8.341c0 1.277-1.051 2.316-2.344 2.316s-2.344-1.039-2.344-2.316m15 0v-8.341h4.688v8.341c0 1.277-1.051 2.316-2.344 2.316s-2.344-1.039-2.344-2.316m15 0v-8.341h4.688v8.341c0 1.277-1.051 2.316-2.344 2.316s-2.344-1.039-2.344-2.316m11.719-11.121c0 .509-.422.927-.938.927h-4.687-7.5-7.5-7.5-7.5-7.5-7.5-4.687c-.516 0-.938-.418-.938-.927v-11.12c0-.511.422-.927.938-.927h54.375c.516 0 .938.416.938.927v11.12z"/><path d="m19.036 47.501c-.46 0-.836.493-.836 1.099v1.65c0 .604.302 1.396.669 1.759l.333.328c.369.364.671.167.671-.44v-3.297c0-.606-.376-1.099-.837-1.099"/></svg>