<svg xmlns="http://www.w3.org/2000/svg" viewBox="0 0 64 64" enable-background="new 0 0 64 64"><path d="m32 49.813v1.875c0 .517.422.938.938.938h27.188v-3.75h-27.188c-.516-.001-.938.421-.938.937"/><path d="m60.125 43.25h-27.187c-.516 0-.938.422-.938.938v1.875c0 .515.422.937.938.937h27.188v-3.75z"/><path d="m61.063 58.25h-.938v-3.75h-27.187c-.516 0-.938.423-.938.938v2.813h-1.875v-15.938c0-.516.422-.938.938-.938h29.063v-3.75c0-1.032-.844-1.875-1.875-1.875h-13.126v-13.125c0-3.102-2.523-5.625-5.625-5.625h-4.688v-7.5c0-4.142-3.358-7.5-7.5-7.5s-7.5 3.358-7.5 7.5v7.5h-4.688c-3.101 0-5.624 2.523-5.624 5.625v13.125h-.937c-.516 0-1.172.351-1.457.78l-2.711 4.064c-.285.43-.52 1.202-.52 1.718v15.938h-.937c-.516 0-.938.423-.938.938v1.875c0 .516.422.937.938.937h11.25 7.5 39.375c.515 0 .937-.421.937-.937v-1.875c0-.515-.422-.938-.937-.938m-38.438-5.625v5.625h-.938v-5.625h-3.281v1.875c.258 0 .469.212.469.469v.938c0 .259-.211.469-.469.469v1.875h-.938v-1.875c-.258 0-.469-.21-.469-.469v-.938c0-.257.211-.469.469-.469v-1.875h-3.281v5.625h-.937v-5.625-.938h.938 7.5.938v.938zm4.688-49.219c3.36 0 6.094 2.734 6.094 6.094 0 3.36-2.733 6.094-6.094 6.094s-6.094-2.734-6.094-6.094c0-3.36 2.733-6.094 6.094-6.094m-15.938 19.219c0-2.063 1.688-3.75 3.75-3.75h4.688 15 4.687c2.063 0 3.75 1.688 3.75 3.75v13.125h-16.875c-1.031 0-1.875.843-1.875 1.875v20.625h-.938v-7.219h-11.25v7.219h-.938v-22.5-13.125zm-4.687 18.281c0-.257.211-.469.469-.469h.938c.258 0 .469.212.469.469v4.688c0 .257-.211.469-.469.469h-.939c-.258 0-.469-.212-.469-.469v-4.688zm0 8.438c0-.257.211-.469.469-.469h.938c.258 0 .469.212.469.469v4.688c0 .259-.211.469-.469.469h-.939c-.258 0-.469-.21-.469-.469v-4.688z"/><path d="m13.719 34.813h.938c.258 0 .469-.212.469-.469v-4.688c0-.257-.211-.469-.469-.469h-.938c-.258 0-.469.212-.469.469v4.688c0 .257.211.469.469.469"/><path d="m17.469 34.813h.938c.258 0 .469-.212.469-.469v-4.688c0-.257-.211-.469-.469-.469h-.938c-.258 0-.469.212-.469.469v4.688c0 .257.211.469.469.469"/><path d="m21.219 34.813h.938c.258 0 .469-.212.469-.469v-4.688c0-.257-.211-.469-.469-.469h-.938c-.258 0-.469.212-.469.469v4.688c0 .257.211.469.469.469"/><path d="m24.969 34.813h.938c.258 0 .469-.212.469-.469v-4.688c0-.257-.211-.469-.469-.469h-.938c-.258 0-.469.212-.469.469v4.688c0 .257.211.469.469.469"/><path d="m28.719 34.813h.938c.258 0 .469-.212.469-.469v-4.688c0-.257-.211-.469-.469-.469h-.938c-.258 0-.469.212-.469.469v4.688c0 .257.211.469.469.469"/><path d="m13.719 42.313h.938c.258 0 .469-.212.469-.469v-4.688c0-.257-.211-.469-.469-.469h-.938c-.258 0-.469.212-.469.469v4.688c0 .257.211.469.469.469"/><path d="m17.469 42.313h.938c.258 0 .469-.212.469-.469v-4.688c0-.257-.211-.469-.469-.469h-.938c-.258 0-.469.212-.469.469v4.688c0 .257.211.469.469.469"/><path d="m21.219 42.313h.938c.258 0 .469-.212.469-.469v-4.688c0-.257-.211-.469-.469-.469h-.938c-.258 0-.469.212-.469.469v4.688c0 .257.211.469.469.469"/><path d="m13.719 49.813h.938c.258 0 .469-.212.469-.469v-4.688c0-.257-.211-.469-.469-.469h-.938c-.258 0-.469.212-.469.469v4.688c0 .257.211.469.469.469"/><path d="m17.469 49.813h.938c.258 0 .469-.212.469-.469v-4.688c0-.257-.211-.469-.469-.469h-.938c-.258 0-.469.212-.469.469v4.688c0 .257.211.469.469.469"/><path d="m21.219 49.813h.938c.258 0 .469-.212.469-.469v-4.688c0-.257-.211-.469-.469-.469h-.938c-.258 0-.469.212-.469.469v4.688c0 .257.211.469.469.469"/><path d="m13.719 27.313h.938c.258 0 .469-.212.469-.469v-4.688c0-.257-.211-.469-.469-.469h-.938c-.258 0-.469.212-.469.469v4.688c0 .257.211.469.469.469"/><path d="m17.469 27.313h.938c.258 0 .469-.212.469-.469v-4.688c0-.257-.211-.469-.469-.469h-.938c-.258 0-.469.212-.469.469v4.688c0 .257.211.469.469.469"/><path d="m21.219 27.313h.938c.258 0 .469-.212.469-.469v-4.688c0-.257-.211-.469-.469-.469h-.938c-.258 0-.469.212-.469.469v4.688c0 .257.211.469.469.469"/><path d="m24.969 27.313h.938c.258 0 .469-.212.469-.469v-4.688c0-.257-.211-.469-.469-.469h-.938c-.258 0-.469.212-.469.469v4.688c0 .257.211.469.469.469"/><path d="m28.719 27.313h.938c.258 0 .469-.212.469-.469v-4.688c0-.257-.211-.469-.469-.469h-.938c-.258 0-.469.212-.469.469v4.688c0 .257.211.469.469.469"/><path d="m32.469 34.813h.938c.258 0 .469-.212.469-.469v-4.688c0-.257-.211-.469-.469-.469h-.938c-.258 0-.469.212-.469.469v4.688c0 .257.211.469.469.469"/><path d="m32.469 27.313h.938c.258 0 .469-.212.469-.469v-4.688c0-.257-.211-.469-.469-.469h-.938c-.258 0-.469.212-.469.469v4.688c0 .257.211.469.469.469"/><path d="m36.219 34.813h.938c.258 0 .469-.212.469-.469v-4.688c0-.257-.211-.469-.469-.469h-.938c-.258 0-.469.212-.469.469v4.688c0 .257.211.469.469.469"/><path d="m36.219 27.313h.938c.258 0 .469-.212.469-.469v-4.688c0-.257-.211-.469-.469-.469h-.938c-.258 0-.469.212-.469.469v4.688c0 .257.211.469.469.469"/><path d="m39.969 34.813h.938c.258 0 .469-.212.469-.469v-4.688c0-.257-.211-.469-.469-.469h-.938c-.258 0-.469.212-.469.469v4.688c0 .257.211.469.469.469"/><path d="m39.969 27.313h.938c.258 0 .469-.212.469-.469v-4.688c0-.257-.211-.469-.469-.469h-.938c-.258 0-.469.212-.469.469v4.688c0 .257.211.469.469.469"/><path d="m25.75 11.063v2.344c0 .43.353.781.781.781h1.563c.429 0 .781-.352.781-.781v-2.344h2.344c.43 0 .781-.352.781-.781v-1.563c0-.43-.352-.781-.781-.781h-2.344v-2.344c0-.43-.353-.781-.781-.781h-1.563c-.429 0-.781.352-.781.781v2.344h-2.344c-.43 0-.781.352-.781.781v1.563c0 .43.352.781.781.781h2.344"/></svg>