<svg xmlns="http://www.w3.org/2000/svg" viewBox="0 0 64 64" enable-background="new 0 0 64 64"><path d="m29.042 12.915h-10.001l-1.185 1.184c-1.072-1.032-2.274-1.932-3.558-2.685-.919-.54-1.879-.997-2.866-1.389-.84-2.3-1.354-4.733-1.554-7.157-.038-.472-.365-.868-.867-.868-.444 0-.908.396-.869.868.181 2.19.593 4.358 1.241 6.454-2.119-.63-4.321-1-6.515-1.181-.472-.038-.868.425-.868.869 0 .503.397.83.868.869 2.468.203 4.931.684 7.253 1.527.28.705.583 1.401.922 2.082.658 1.317 1.455 2.568 2.403 3.696.199.237.411.469.633.694l-1.165 1.165v10l29.159 32.957 19.927-19.926-32.958-29.159m-14.367 3.04c-.806-.945-1.523-2.145-2.121-3.326-.038-.076-.071-.155-.108-.231.928.469 1.825 1.006 2.672 1.631.499.366 1.015.813 1.512 1.297l-1.318 1.318c-.221-.222-.435-.452-.637-.689m.074 12.392v-8.547l3.125-3.125c.101.121.208.241.304.362.017.021.014.018.022.028.007.01.005.007.021.029.045.06.089.121.133.181.086.117.169.237.251.357.167.245.327.495.48.749.094.157.17.324.258.485-.089.07-.183.133-.264.213-1.203 1.205-1.203 3.164 0 4.367.583.584 1.358.905 2.184.905.825 0 1.601-.321 2.184-.905 1.204-1.204 1.204-3.163 0-4.368-.648-.649-1.565-.923-2.454-.85-.109-.201-.218-.402-.331-.595-.455-.777-.982-1.503-1.558-2.189l.696-.696h8.548l30.978 27.408-17.17 17.169-27.407-30.978m5.43-7.675c.029.085.063.17.091.257.057.182.114.367.153.554.227 1.101 1.906.651 1.68-.44-.06-.288-.14-.573-.234-.856.098.055.199.106.281.188.49.49.49 1.287 0 1.775-.475.474-1.301.475-1.775 0-.401-.402-.454-1.002-.196-1.478"/></svg>