<svg xmlns="http://www.w3.org/2000/svg" viewBox="0 0 64 64" enable-background="new 0 0 64 64"><path d="m49.666 4.16c-1.082-1.333-2.739-2.16-4.326-2.16-3.597 0-6.107 2.366-6.107 5.753 0 .985.314 2.061.922 2.956h-16.309c.607-.896.923-1.971.923-2.956 0-3.387-2.512-5.753-6.109-5.753-1.586 0-3.244.827-4.326 2.159-.852 1.049-1.741 2.884-1.135 5.665 1.081 4.962 2.159 14.166 2.17 14.258l.115.985 1.382-.193v4.143c-.375 1.27-.558 2.631-.558 4.155 0 4.404 1.661 10.354 4.115 14.768l1.034 2.054 2.867 2.848c.174.547.314 1.111.318 1.279.003.19-.113.644-.264 1.105h-1.023l-.675 2.903h-1.113v3.871h20.865v-3.871h-1.114l-.676-2.903h-1.021c-.148-.459-.267-.916-.264-1.104.004-.168.145-.732.318-1.281l2.867-2.848 1.027-2.043c2.465-4.444 4.121-10.384 4.121-14.778 0-1.525-.184-2.888-.559-4.158v-4.14l1.382.193.114-.985c.012-.092 1.091-9.296 2.172-14.258.607-2.781-.281-4.616-1.133-5.664m-7.967 9.453h2.042l-.929 2.903h-1.113v-2.903m.106 5.806h.337l.816-1.936h.567l.929-2.903h.809c-.103 1.418-.212 3.266-.308 5.547-.854.017-1.828.558-1.828 2.04 0 .395-.195.774-.582 1.133-.305-.165-.627-.32-.962-.464-.241-.903-.255-1.198-.255-1.253 0-.303.223-1.249.477-2.164m4.353 9.71c.268.857.445 1.815.518 2.89h-29.351c.072-1.075.249-2.033.517-2.89h28.316m-6.74-15.516h1.143v2.903h-1.143v-2.903m-2.282 0h1.141v2.903h-1.141v-2.903m-2.282 0h1.141v2.903h-1.141v-2.903m-2.284 0h1.141v2.903h-1.141v-2.903m-2.281 0h1.141v2.903h-1.141v-2.903m-2.283 0h1.141v2.903h-1.141v-2.903m-2.282 0h1.141v2.903h-1.141v-2.903m-2.285 0h1.143v2.903h-1.143v-2.903m17.633 4.839c0 0-.718 2.37-.718 3.132 0 .423.22 1.282.416 1.968 1.534.592 2.837 1.444 3.831 2.642h-25.203c.994-1.198 2.297-2.05 3.831-2.642.196-.686.416-1.545.416-1.968 0-.762-.718-3.132-.718-3.132h18.145m-18.655 4.384c-.335.144-.657.299-.962.464-.387-.358-.583-.738-.583-1.133 0-1.482-.975-2.023-1.827-2.04-.096-2.282-.207-4.129-.308-5.547h.809l.929 2.903h.567l.816 1.936h.337c.255.915.477 1.86.477 2.164 0 .056-.014.351-.255 1.253m-.116-6.32h-1.113l-.929-2.903h2.042v2.903m-6.453-7.129c-.281-.787-.33-1.684-.04-2.521.278-.845.946-1.548 1.723-1.96.903-.45 1.931-.29 2.72.172.396.242.75.562.999.985.255.446.342.879.372 1.321.022.44-.005.893-.179 1.344-.087.223-.208.45-.397.633-.215.209-.421.312-.636.393-.428.161-.933.215-1.391.055-.455-.155-.851-.523-.966-1.004-.132-.485.166-.996.515-1.208.09-.061.193-.117.317-.138.127-.022.27.034.342.123.143.183.171.389.187.586-.056-.185-.145-.38-.282-.484-.133-.108-.281-.024-.409.102-.278.267-.363.603-.238.892.256.605 1.068.724 1.646.414.567-.232.696-.932.619-1.635-.056-.729-.375-1.246-.973-1.587-.561-.35-1.301-.442-1.845-.186-.644.295-1.153.806-1.447 1.442-.284.643-.35 1.406-.196 2.138.139.728.484 1.476 1.172 1.894-.8-.233-1.314-1.013-1.613-1.771m9.221 49.71h-1.614l.676-2.903h.938v2.903m2.133 0h-1.066v-2.903h1.066v2.903m2.132 0h-1.066v-2.903h1.066v2.903m2.135 0h-1.069v-2.903h1.068v2.903zm2.131 0h-1.068v-2.903h1.068v2.903m2.132 0h-1.066v-2.903h1.066v2.903m2.133 0h-1.066v-2.903h1.066v2.903m2.002-2.904l.677 2.903h-1.613v-2.903h.936m2.85-8.698h-21.423c-.501-.903-.963-1.878-1.392-2.896h24.196c-.426 1.01-.883 2-1.381 2.896m1.773-3.863h-24.98c-1.359-3.518-2.227-7.399-2.227-10.46 0-.064.004-.123.005-.185h29.424c0 .062.005.121.005.185 0 3.06-.867 6.943-2.227 10.46m3.66-34.247c-.297.76-.811 1.541-1.61 1.773.687-.418 1.033-1.167 1.172-1.894.154-.733.087-1.495-.196-2.138-.294-.637-.804-1.147-1.447-1.442-.543-.257-1.285-.164-1.844.186-.598.344-.918.858-.974 1.589-.077.701.052 1.401.62 1.635.577.308 1.39.187 1.645-.418.125-.287.041-.625-.238-.89-.127-.126-.275-.21-.408-.102-.137.104-.227.299-.283.484.016-.197.044-.403.188-.586.072-.089.215-.146.342-.123.124.019.227.078.317.138.351.211.647.72.516 1.208-.116.48-.512.847-.966 1.004-.459.161-.965.108-1.392-.053-.217-.084-.422-.186-.637-.396-.189-.184-.311-.41-.397-.633-.174-.45-.202-.904-.18-1.342.029-.442.114-.877.372-1.321.247-.425.602-.743.998-.987.789-.461 1.816-.622 2.72-.172.777.412 1.446 1.115 1.724 1.96.288.838.24 1.735-.042 2.52"/><path d="m42.973 34.894l1.021 1.012 1.02-1.012-1.021-1.015z"/><path d="m42.973 41.294l1.021 1.015 1.02-1.015-1.021-1.013z"/><path d="m36.976 41.294l1.02 1.015 1.022-1.015-1.022-1.013z"/><path d="m31.581 21.583l-1.668-1.659-1.668 1.659 1.668 1.658z"/><path d="m40.996 36.065l-2.043 2.029 2.043 2.028 2.041-2.028z"/><path d="m39.93 21.583l-1.668-1.659-1.668 1.659 1.668 1.658z"/><path d="m27.406 21.583l-1.668-1.659-1.669 1.659 1.669 1.658z"/><path d="m35.755 21.583l-1.669-1.659-1.667 1.659 1.667 1.658z"/><path d="m34.998 36.065l-2.042 2.029 2.044 2.028 2.039-2.028z"/><path d="m30.979 41.294l1.02 1.015 1.022-1.015-1.022-1.013z"/><path d="m27.023 34.894l-1.021-1.015-1.021 1.015 1.021 1.012z"/><path d="m18.984 41.294l1.022 1.015 1.019-1.015-1.02-1.013z"/><path d="m23.004 36.065l-2.041 2.029 2.042 2.028 2.04-2.028z"/><path d="m21.025 34.894l-1.02-1.015-1.021 1.015 1.022 1.012z"/><path d="m24.981 41.294l1.021 1.015 1.021-1.015-1.021-1.013z"/><path d="m33.021 34.894l-1.022-1.015-1.02 1.015 1.02 1.012z"/><path d="m29.001 36.065l-2.042 2.029 2.043 2.028 2.04-2.028z"/><path d="m39.018 34.894l-1.022-1.015-1.02 1.015 1.02 1.012z"/></svg>