<svg xmlns="http://www.w3.org/2000/svg" viewBox="0 0 64 64" enable-background="new 0 0 64 64"><path d="m55.693 26.207c6.678-6.676 8.35-16.715 3.58-21.48-4.768-4.77-14.803-3.098-21.48 3.578-5.478 5.481-6.711 12.556-3.387 17.709l-1.762 1.762c-.66.662-.869 1.594-.646 2.437l-12.016 12.012-5.145 3.359c0 0-4.477 4.475-9.846 9.846-.486.484-2.434 1.254-2.434 1.254-.631.295-.744.939-.252 1.43l3.58 3.58c.492.492 1.135.381 1.43-.25 0 0 .77-1.949 1.254-2.434 5.371-5.371 9.848-9.846 9.848-9.846l3.355-5.146 12.016-12.016c.843.223 1.775.014 2.436-.646l1.762-1.761c5.155 3.325 12.229 2.093 17.707-3.388m-15.644-16.542l1.326 1.325-1.791 1.791-1.264-1.265c.391-.483.803-.96 1.264-1.421.15-.149.311-.285.465-.43m11.005-5.106l1.06 1.06-1.79 1.791-1.791-1.791.853-.851c.565-.107 1.121-.172 1.668-.209m-4.308 11.802l-1.791 1.789-1.791-1.791 1.789-1.787 1.793 1.789m-.896-2.685l1.791-1.791 1.787 1.791-1.787 1.791-1.791-1.791m-1.789 5.369l-1.791 1.791-1.791-1.789 1.791-1.791 1.791 1.789m0 5.371l-1.791 1.789-1.791-1.787 1.791-1.793 1.791 1.791m-.897-2.686l1.791-1.789 1.791 1.789-1.791 1.789-1.791-1.789m4.477.895l1.787 1.793-1.789 1.789-1.791-1.789 1.793-1.793m-.002-1.789l-1.789-1.791 1.791-1.789 1.787 1.791-1.789 1.789m.894-4.475l1.791-1.789 1.789 1.789-1.789 1.789-1.791-1.789m2.686-2.685l1.791-1.791 1.789 1.791-1.789 1.791-1.791-1.791m4.476.894l1.789 1.791-1.789 1.789-1.789-1.791 1.789-1.789m.895-.894l1.791-1.791 1.061 1.061c-.037.547-.102 1.104-.21 1.67l-.851.851-1.791-1.791m-.895-.895l-1.789-1.793 1.789-1.789 1.789 1.789-1.789 1.793m-2.685-2.685l-1.791-1.791 1.791-1.791 1.789 1.791-1.789 1.791m-.897.894l-1.789 1.791-1.791-1.791 1.791-1.789 1.789 1.789m-4.472-.894l-1.791-1.791 1.791-1.789 1.787 1.789-1.787 1.791m-.895.894l-1.791 1.791-1.791-1.793 1.791-1.789 1.791 1.791m-2.685 2.686l-1.791 1.789-1.789-1.789 1.789-1.791 1.791 1.791m-2.686 2.685l-1.791 1.789-1.791-1.789 1.791-1.789 1.791 1.789m-2.686 2.684l-1.789 1.789-1.744-1.741c.002-.033.004-.065.006-.098l1.738-1.739 1.789 1.789m.895.896l1.791 1.789-1.791 1.791-1.791-1.791 1.791-1.789m1.791 7.161l-.945.945c-.771-.354-1.493-.832-2.162-1.417l1.316-1.317 1.791 1.789m.895.896l.791.789c-.445-.057-.883-.148-1.313-.268l.522-.521m2.638.848l-1.744-1.744 1.791-1.791 1.791 1.791-1.738 1.738c-.033.002-.067.004-.1.006m2.733-.85l.26.26c-.246.083-.493.154-.74.221l.48-.481m.894-.894l1.789-1.789 1.137 1.135c-.747.515-1.51.948-2.281 1.3l-.645-.646m0-5.372l1.789-1.789 1.789 1.789-1.789 1.791-1.789-1.791m2.686-2.685l1.789-1.789 1.791 1.789-1.791 1.791-1.789-1.791m4.474.896l.989.989c-.45.713-.958 1.404-1.508 2.071l-1.271-1.271 1.79-1.789m.893-.894l1.793-1.791.086.086c-.307.826-.68 1.651-1.12 2.462l-.759-.757m2.685-8.057l.129-.128c.011.1.031.195.04.296l-.169-.168m-.892-.894l-1.791-1.791 1.305-1.306c.548.682.951 1.48 1.211 2.372l-.725.725m-2.686-2.686l-1.789-1.791.725-.725c.891.26 1.689.663 2.37 1.21l-1.306 1.306m-2.685-2.685l-.167-.167c.101.008.195.029.294.041l-.127.126m-6.264.894l-1.791 1.791-.757-.757c.81-.44 1.636-.813 2.462-1.121l.086.087m-2.685 2.686l-1.791 1.791-1.271-1.271c.668-.551 1.358-1.06 2.072-1.509l.99.989m-5.372 5.371l-1.789 1.791-.646-.646c.352-.771.784-1.535 1.3-2.282l1.135 1.137m-2.685 2.685l-.479.479c.065-.247.137-.492.22-.739l.259.26m0 5.369l-.521.522c-.119-.429-.211-.866-.268-1.311l.789.789m.896.895l1.789 1.791-1.316 1.319c-.586-.669-1.064-1.392-1.419-2.163l.946-.947m15.586 3.056l-1.266-1.265 1.789-1.791 1.326 1.328c-.144.154-.279.313-.43.463-.46.461-.936.874-1.419 1.265"/><path d="m39.344 39.344c-1.924 1.926-1.924 5.049 0 6.973l6.971-6.973c-1.924-1.924-5.045-1.924-6.971 0"/><path d="m49.801 42.828l-1.742-1.74-6.973 6.971 1.742 1.742 5.229 12.199 1.744-1.742-1.045-2.438 1.744-1.744 1.479 2.004 1.744-1.744-1.48-2.002 1.744-1.744 1.914 1.568 1.742-1.742-1.914-1.568 2.092-2.092 2.438 1.045 1.741-1.742-12.199-5.231m.699 2.791l-.525.525-1.918-1.572 2.443 1.047m-4.881 4.883l-1.047-2.443 1.482 2.006-.435.437m2.613-2.615l-.436.436-1.482-2.008 1.918 1.572m-.523 7.492l-1.043-2.436.871-.871 1.479 2-1.307 1.307m3.051-3.051l-1.479-2 .873-.873 1.912 1.566-1.306 1.307m3.049-3.049l-1.912-1.566 1.047-1.047 2.434 1.043-1.569 1.57"/></svg>