<svg xmlns="http://www.w3.org/2000/svg" viewBox="0 0 64 64" enable-background="new 0 0 64 64"><path d="m15.241 22c0-1.004-.833-1.818-1.861-1.818-1.027 0-1.863.814-1.863 1.818v5.454h3.725v-5.454z"/><path d="m52.483 22c0-1.004-.834-1.818-1.863-1.818-1.026 0-1.861.814-1.861 1.818v5.454h3.725v-5.454z"/><path d="m59 7.96c-.62-1.124-1.241-1.985-1.861-2.716.62-.819 1.241-1.506 1.861-1.932-2.481-1.396-4.965 1.394-7.447 0v-.403c0-.5-.419-.909-.933-.909-.511 0-.931.409-.931.909v9.091l-6.517 6.364h1.861v10.908h-3.724v-7.272h1.862l-10.24-10v-4.04c2.484 1.396 4.967-1.394 7.449 0-.621-1.124-1.241-1.985-1.863-2.716.622-.819 1.242-1.506 1.863-1.932-2.482-1.396-4.965 1.394-7.449 0v-.403c0-.5-.418-.909-.931-.909-.511 0-.931.409-.931.909v9.091l-10.242 10h1.862v7.272h-3.724v-10.908h1.861l-6.515-6.364v-4.04c2.482 1.396 4.965-1.394 7.448 0-.62-1.124-1.242-1.985-1.862-2.716.62-.819 1.242-1.506 1.862-1.932-2.483-1.396-4.966 1.394-7.448 0v-.403c0-.5-.419-.909-.931-.909s-.932.409-.932.909v9.091l-6.518 6.364h1.861v10.908c-1.538 0-2.791 1.224-2.791 2.728v3.636c0 .979.494 2.146 1.203 2.838l.546.533c.028.041.103.217.114.3l-.002 19.965c0 1.504 1.253 2.728 2.794 2.728h14.897 1.861v-1.818-1.817h.93v1.817c0 0 .603.909.932.909s.931-.909.931-.909v-1.817h1.863v1.817c0 0 .602.909.931.909s.931-.909.931-.909v-1.817h1.863v1.817c0 0 .602.909.931.909s.932-.909.932-.909v-1.817h.93v1.817 1.818h1.862 14.896c1.541 0 2.794-1.224 2.794-2.728v-20c.009-.049.084-.225.137-.291l.521-.508c.709-.691 1.203-1.858 1.203-2.837v-3.636c0-1.504-1.253-2.728-2.793-2.728v-10.908h1.862l-6.516-6.364v-4.04c2.482 1.396 4.966-1.393 7.447 0m-34.447 14.04h14.896v7.981c-.567.5-.932 1.215-.932 2.019v2.728h-1.86v-2.728c0-1.184-.781-2.183-1.862-2.56v-1.986c0-1.506-1.25-2.727-2.794-2.727-1.542 0-2.794 1.221-2.794 2.727v1.986c-1.081.377-1.862 1.376-1.862 2.56v2.728h-1.86v-2.728c0-.804-.364-1.519-.931-2.019v-7.981zm-14.898-3.636h7.447v11.617c-.566.5-.93 1.215-.93 2.019v2.728h-1.862v-2.728c0-1.504-1.253-2.728-2.794-2.728h-1.861v-10.908m17.689 38.182h-.93v-1.818h.93v1.818m0-3.637h-.93v-1.818h.93v1.818m0-3.637h-.93c0-.639.119-1.248.325-1.818h.604v1.818zm3.725 7.274h-1.863v-1.818h1.863v1.818m0-3.637h-1.863v-1.818h1.863v1.818m0-3.637h-1.863v-1.818h1.863v1.818m-1.863-3.636v-1.08c.567-.32 1.194-.545 1.863-.655v1.735h-1.863m5.588 10.91h-1.863v-1.818h1.863v1.818m0-3.637h-1.863v-1.818h1.863v1.818m0-3.637h-1.863v-1.818h1.863v1.818m-1.863-3.636v-1.736c.669.11 1.297.335 1.863.655v1.08h-1.863zm3.725 5.455h.93v1.818h-.93v-1.818m0-1.819v-1.818h.604c.206.57.325 1.18.325 1.818h-.929m0 7.274v-1.818h.93v1.818h-.93m20.483-24.546v3.636c0 .5-.297 1.199-.659 1.553l-.545.532c-.029.03-.056.073-.086.108-.16-.125-.354-.211-.572-.211h-3.724c-.512 0-.933.409-.933.908v1.818c0 .5.421.91.933.91h3.724v6.199h-3.259c-.511 0-.931.41-.931.91v1.817c0 .5.42.909.931.909h3.259v8.182c0 .5-.418.909-.932.909h-7.565c.513 0 .932-.409.932-.909v-1.818c0-.5-.419-.908-.932-.908h-3.724c-.511 0-.932.408-.932.908v1.818c0 .5.421.909.932.909h-3.608v-10.908c0-4.015-3.334-7.272-7.448-7.272-4.113 0-7.447 3.257-7.447 7.272v10.909h-1.59c.511 0 .932-.409.932-.909v-1.818c0-.5-.421-.908-.932-.908h-3.725c-.513 0-.931.408-.931.908v1.818c0 .5.418.909.931.909h-9.583c-.512 0-.932-.409-.932-.909v-2.727h3.259c.513 0 .931-.41.931-.91v-1.817c0-.5-.418-.909-.931-.909h-3.258v-7.273h3.259c.513 0 .931-.408.931-.908v-1.818c0-.5-.418-.909-.931-.909h-3.259v-2.728c0-.5-.296-1.198-.658-1.552l-.545-.532c-.362-.354-.659-1.053-.659-1.553v-3.636c0-.5.421-.909.931-.909h3.725c.514 0 .932.409.932.909v3.636c0 .5.42.91.932.91h3.723c.514 0 .931-.41.931-.91v-3.636c0-.5.421-.909.933-.909h3.724c.513 0 .931.409.931.909v3.636c0 .5.421.91.933.91h3.723c.513 0 .931-.41.931-.91v-3.636c0-.5.421-.909.932-.909h3.725c.513 0 .932.409.932.909v3.636c0 .5.42.91.931.91h3.724c.513 0 .932-.41.932-.91v-3.636c0-.5.42-.909.931-.909h3.724c.513 0 .933.409.933.909v3.636c0 .5.42.91.931.91h3.723c.514 0 .933-.41.933-.91v-3.636c0-.5.419-.909.931-.909h3.724c.503 0 .922.409.922.909m-2.794-13.636v10.908h-1.861c-1.541 0-2.794 1.224-2.794 2.728v2.728h-1.862v-2.728c0-.804-.363-1.519-.93-2.019v-11.617h7.447"/><path d="m14.775 47.454h-3.723c-.512 0-.933.41-.933.91v1.817c0 .5.421.909.933.909h3.723c.513 0 .931-.409.931-.909v-1.817c0-.5-.418-.91-.931-.91"/><path d="m21.002 52h-3.724c-.512 0-.932.409-.932.909v1.818c0 .5.42.908.932.908h3.724c.512 0 .932-.408.932-.908v-1.818c0-.5-.42-.909-.932-.909"/><path d="m22.963 44.728h-3.725c-.513 0-.931.409-.931.908v1.818c0 .5.418.91.931.91h3.725c.511 0 .932-.41.932-.91v-1.818c0-.499-.421-.908-.932-.908"/><path d="m20.362 41.937c.512 0 .932-.41.932-.91v-1.817c0-.5-.42-.909-.932-.909h-3.725c-.511 0-.932.409-.932.909v1.817c0 .5.421.91.932.91h3.725"/><path d="m48.294 53.818v1.817c0 .5.42.91.931.91h3.724c.513 0 .932-.41.932-.91v-1.817c0-.5-.419-.909-.932-.909h-3.724c-.511 0-.931.409-.931.909"/><path d="m49.689 45.359v-1.818c0-.499-.418-.909-.931-.909h-3.725c-.511 0-.931.41-.931.909v1.818c0 .5.42.909.931.909h3.725c.513.001.931-.409.931-.909"/><path d="m45.034 48.818h-3.724c-.511 0-.931.409-.931.909v1.818c0 .5.42.908.931.908h3.724c.513 0 .933-.408.933-.908v-1.818c0-.499-.42-.909-.933-.909"/><path d="m41.776 41.255v-1.818c0-.5-.419-.91-.932-.91h-3.724c-.511 0-.931.41-.931.91v1.818c0 .499.42.908.931.908h3.725c.512 0 .931-.409.931-.908"/></svg>