<svg xmlns="http://www.w3.org/2000/svg" viewBox="0 0 64 64" enable-background="new 0 0 64 64"><path d="m59.522 25.844c-.54-.654-1.098-1.331-1.227-1.722-.131-.389-.088-1.254-.048-2.09.092-1.865.205-4.187-1.166-5.623-1.32-1.383-3.565-1.556-6.952-.482-1.058.335-2.081.718-3.07 1.135 1.707-3.283 3.047-6.879 1.473-7.991-1.334-.944-3.766.604-6.108 2.677.012-.358.03-.713.03-1.078 0-4.426-1.463-6.67-4.349-6.67-1.377 0-2.82.532-4.095 1-.81.299-1.648.607-2.081.607-.432 0-1.27-.309-2.08-.607-1.273-.468-2.717-1-4.094-1-2.886 0-4.349 2.244-4.349 6.669 0 .322.018.636.026.953-2.299-2.01-4.659-3.477-5.967-2.552-1.612 1.14-.169 4.883 1.595 8.228-1.024-.438-2.09-.839-3.191-1.187-3.387-1.073-5.63-.902-6.952.482-1.371 1.437-1.258 3.757-1.167 5.622.04.836.083 1.701-.048 2.09-.129.391-.688 1.068-1.228 1.724-1.323 1.608-2.973 3.609-2.335 5.758.485 1.633 2.198 2.895 5.238 3.855.241.076.482.13.725.201-1.928 1.271-3.255 2.628-2.854 3.832.594 1.774 4.415 1.675 8.099 1.131-1.032 1.053-2.026 2.202-2.956 3.448-1.863 2.495-2.497 4.483-1.939 6.079.747 2.14 3.308 2.82 5.365 3.367.836.223 1.7.452 2.048.699.346.244.836.97 1.31 1.673 1.182 1.75 2.651 3.928 4.98 3.928 1.697 0 3.415-1.197 5.252-3.657.552-.739 1.063-1.493 1.541-2.253.65 2.506 1.618 4.504 3.053 4.504 1.5 0 2.487-2.184 3.137-4.845.516.837 1.072 1.667 1.678 2.479 1.838 2.462 3.556 3.657 5.253 3.657 2.331 0 3.799-2.178 4.979-3.928.474-.701.962-1.427 1.307-1.671.348-.246 1.213-.477 2.049-.698 2.059-.548 4.619-1.229 5.365-3.367.557-1.598-.077-3.586-1.938-6.081-.878-1.177-1.813-2.271-2.784-3.276 3.559.492 7.134.523 7.704-1.188.417-1.245-1.018-2.656-3.054-3.964.309-.087.618-.159.925-.256 3.04-.961 4.753-2.222 5.239-3.855.635-2.149-1.014-4.15-2.339-5.757m-33.766-19.913c1.03 0 2.302.469 3.424.882 1.058.39 1.973.727 2.75.727.778 0 1.693-.337 2.751-.727 1.121-.413 2.393-.882 3.424-.882.722 0 2.413 0 2.413 4.738 0 8.988-3.933 16.582-8.588 16.582-4.654 0-8.588-7.594-8.588-16.582 0-4.738 1.692-4.738 2.414-4.738m-17.792 27.871c-2.314-.731-3.686-1.618-3.966-2.563-.346-1.166.94-2.728 1.974-3.982.712-.864 1.326-1.61 1.568-2.34.245-.731.199-1.688.145-2.794-.073-1.497-.164-3.359.636-4.196.37-.389.954-.578 1.784-.578.844 0 1.914.203 3.181.604 6.189 1.957 11.194 5.447 13.063 9.106.73 1.43.9 2.754.505 3.936-.884 2.648-4.64 4.294-9.8 4.294-2.873-.001-6.015-.515-9.09-1.487m17.891 21.386c-1.406 1.885-2.687 2.881-3.7 2.881-1.298 0-2.448-1.704-3.371-3.074-.624-.924-1.162-1.723-1.797-2.171-.632-.447-1.575-.698-2.669-.988-1.615-.43-3.625-.964-4.035-2.136-.321-.921.254-2.403 1.663-4.291 4.179-5.601 9.834-9.363 14.07-9.363 1.149 0 2.132.284 2.923.842 1.065.755 1.737 1.967 1.996 3.603.638 4.014-1.31 9.646-5.08 14.697m6.145-18.964c-2.144 0-3.881-1.734-3.881-3.874 0-2.139 1.737-3.873 3.881-3.873 2.145 0 3.882 1.734 3.882 3.873 0 2.139-1.737 3.874-3.882 3.874m20.277 9.07c1.409 1.888 1.983 3.372 1.663 4.291-.409 1.172-2.42 1.706-4.036 2.137-1.095.29-2.038.542-2.671.99-.633.447-1.17 1.244-1.792 2.167-.925 1.37-2.073 3.075-3.373 3.075-1.014 0-2.294-.996-3.701-2.881-3.771-5.054-5.718-10.687-5.08-14.699.26-1.635.932-2.846 1.997-3.6.791-.559 1.773-.842 2.923-.842 4.235.001 9.891 3.763 14.07 9.362m7.726-14.241c-.28.944-1.652 1.831-3.968 2.563-3.076.973-6.22 1.488-9.095 1.488-5.158 0-8.911-1.646-9.795-4.294-.396-1.182-.225-2.507.506-3.937 1.868-3.659 6.873-7.148 13.063-9.105 1.267-.401 2.337-.604 3.181-.604.83 0 1.414.189 1.785.577.799.838.708 2.701.636 4.197-.056 1.107-.102 2.063.144 2.796.242.729.856 1.475 1.567 2.336 1.036 1.255 2.322 2.817 1.976 3.983"/></svg>