<svg xmlns="http://www.w3.org/2000/svg" viewBox="0 0 64 64" enable-background="new 0 0 64 64"><path d="m61.631 11.6c.66-1.588.355-2.105-.283-2.744-.852-.854-2.883-1.621-4.221.023-.564.698-.92 1.442-1.098 2.134.207 1.088 3.798.023 3.017-.528-.853-.598-.246-.655-.087-.638.465.047 1.844.479.559 1.765-.872.872-2.721.654-3.619.494-.617-.11-1.529-.336-2.402-.727-5.074-2.264-20.518-9.631-33.047 2.898l-.459.465 4.771 4.773c0 0 10.26-10.486 26.82-2.973 3.359 1.521 5.903.33 7.629-1.366l-.023.032-8.723 26.148c-.195-.245-.47-.478-.67-.499-.681-.064-3.034.752-3.034.752s2.34-.83 2.271-1.505c-.029-.292-.833-.828-.833-.828-2.276 1.105-5.326 1.438-5.944 1.496l-19.375-19.375.804-.804-4.778-4.772-.801.8-7.865-7.864.009-.009-.28-3.281-7.969-3.467 3.469 7.967 3.258.279 7.876 7.876-.778.779 4.772 4.778.781-.782 19.375 19.374c-.045.501-.362 3.64-1.492 5.966 0 0 .533.803.822.832.674.064 1.502-2.265 1.502-2.265s-.814 2.343-.748 3.022c.02.194.24.46.478.653l-26.1 8.705-.043.03c1.7-1.726 2.896-4.272 1.371-7.636-7.512-16.561 2.972-26.82 2.972-26.82l-4.771-4.771-.465.459c-12.532 12.531-5.16 27.973-2.9 33.049.391.873.619 1.783.73 2.4.161.893.377 2.729-.489 3.596-1.276 1.275-1.706-.097-1.754-.554-.012-.16.04-.76.637.084.549.781 1.611-2.819.506-2.993-.691.178-1.432.532-2.125 1.098-1.645 1.336-.879 3.367-.027 4.219.639.639 1.154.945 2.742.285.251-.104.544-.245.856-.41l29.966-9.993c.002.114.015.209.055.25.459.461.813.819 1.145 1.151.26-.517.566-1.253.883-2.097l1.311-.437c-.465 1.312-.957 2.5-1.432 3.303.104.104.205.206.316.319.684.688 1.689-2.303 2.186-3.979l1.002-.334.187.187c.208.209.712.04 1.126-.372.414-.414.582-.921.374-1.126l-.176-.176.335-1.004c1.686-.5 4.654-1.502 3.967-2.184-.113-.111-.213-.21-.318-.314-.796.475-1.98.963-3.291 1.425l.438-1.312c.841-.314 1.573-.617 2.083-.876-.336-.333-.696-.69-1.163-1.151-.037-.037-.122-.052-.225-.056l10.01-30.013c.159-.301.295-.586.397-.831m-55.173-2.147l.129-2.037-2.89-3.719 3.719 2.885 2.039-.129-1.376.881.869 1.609-1.612-.867-.878 1.377m35.853 40.695c.278-.425.527-.93.527-.93s-.115.382-.226.829l-.301.101m2.649-.882c.234-.68.468-1.392.686-2.103l.856.855c-.086.273-.172.547-.261.819l-1.281.429m2.218-.569c0-.001.001-.001 0 0l.494.491-.494-.491m1.567-1.432l-.057-.057.057.057m.082-.997c-.272.088-.546.175-.819.26l-.86-.86c.713-.218 1.427-.449 2.107-.684l-.428 1.284m.355-3.406c0 0 .531-.261.964-.547l-.106.315c-.461.112-.858.232-.858.232"/></svg>