<svg xmlns="http://www.w3.org/2000/svg" viewBox="0 0 64 64" enable-background="new 0 0 64 64"><path d="m51.69 25.192c1.354 0 2.783.208 4.31.675-2.866-7.73-5.732-15.46-8.6-23.192-1.525-.467-2.957-.675-4.308-.675-11.338 0-17.248 14.644-28.585 14.644-1.354 0-2.783-.209-4.31-.675l-2.197.784 16.493 45.247h2.613l-8.261-22.738c1.523.467 2.907.574 4.259.574 11.34-.001 17.249-14.644 28.586-14.644m-33.696 11.767l-6.803-18.662c7.842 1.958 13.375-2.842 18.903-7.454 4.178-3.485 8.063-6.847 12.997-6.847.902 0 1.838.112 2.791.336l7.012 18.909c-.404-.032-.806-.047-1.204-.047-6.404 0-11.073 3.964-15.588 7.797-4.146 3.52-8.063 6.846-12.998 6.846-.902.001-3.194-.157-5.11-.878"/></svg>