<svg xmlns="http://www.w3.org/2000/svg" viewBox="0 0 64 64" enable-background="new 0 0 64 64"><path d="m56 13.728c0-6.467-5.355-11.728-11.938-11.728-5.25 0-9.836 3.414-11.376 8.202-.228-.016-.456-.024-.684-.024-.229 0-.458.008-.687.024-1.542-4.788-6.127-8.202-11.377-8.202-6.583 0-11.938 5.261-11.938 11.728 0 5.521 3.919 10.175 9.169 11.407-.472 1.308-.854 2.773-1.038 4.619-.233 2.35.694 4.793 2.609 6.878 1.374 1.496 3.117 2.662 4.815 3.306-.7 1.045-1.351 2.222-1.868 3.648-6.78 3.612-9.44 11.831-1.105 15.758 7.125 3.342 16.613 1.634 24.308 2.656-6.79-1.566-14.443-1.229-20.967-3.631-4.063-1.482-6.805-5.483-3.345-9.097-.039.603-.063 1.229-.063 1.896 0 1.756.857 3.218 2.489 4.264 0 .017 0 .033 0 .049 0 1.627 1.387 2.951 3.092 2.951h1.475c.964 0 1.864-.434 2.442-1.145 1.323.086 2.652.086 3.976 0 .577.711 1.477 1.145 2.44 1.145h1.476c1.705 0 3.092-1.324 3.092-2.992 0-.003 0-.006 0-.008 1.632-1.046 2.489-2.509 2.489-4.264 0-5.523-1.38-8.752-3.04-11.231 1.696-.643 3.438-1.808 4.812-3.304 1.916-2.085 2.844-4.527 2.611-6.878-.184-1.845-.565-3.309-1.037-4.62 5.249-1.232 9.168-5.886 9.168-11.407m-37.387 8.168c-3.773-.218-6.774-3.272-6.774-6.994 0-3.863 3.233-7.006 7.208-7.006 3.089 0 5.795 1.914 6.792 4.677-2.635 2.012-5.059 5.14-7.226 9.323m22.952 29.272c0 1.244-.673 2.203-2.058 2.93l-.678.356.203.731c.029.104.043.186.043.295 0 .582-.525 1.055-1.172 1.055h-1.476c-.467 0-.888-.252-1.075-.641l-.285-.598-.665.057c-1.591.137-3.215.137-4.807 0l-.667-.057-.285.598c-.187.389-.608.641-1.075.641h-1.475c-.646 0-1.172-.473-1.172-1.096 0-.068.014-.149.042-.254l.203-.731-.678-.356c-1.384-.727-2.057-1.686-2.057-2.93 0-5.189 1.226-8.114 3.101-10.733.182.021.366.05.542.054.2.102.597.412.894.644 1.088.85 2.731 2.133 5.029 2.133 2.295 0 3.938-1.282 5.026-2.132.297-.232.694-.543.895-.645.176-.004.359-.033.541-.054 1.879 2.618 3.106 5.544 3.106 10.733m-3.776-12.574c-1.449 0-2.988 2.775-5.788 2.775-2.803 0-4.34-2.775-5.791-2.775-3.033 0-8.628-4.002-8.168-8.654.265-2.666 1.208-5.213 2.04-7.054.063-.033.044-.035.016-.03 1.353-2.759 5.021-8.355 8.478-9.9.647-.289 2.541-.882 3.425-.882.884 0 2.777.593 3.423.881 3.47 1.55 7.155 7.178 8.495 9.931-.096 0-.045.003.002.005.828 1.841 1.771 4.386 2.036 7.049.46 4.652-5.136 8.654-8.168 8.654m7.599-16.698c-2.189-4.24-4.568-7.309-7.227-9.325.999-2.762 3.703-4.675 6.791-4.675 3.975 0 7.209 3.143 7.209 7.006 0 3.723-3 6.776-6.773 6.994"/><path d="m32.001 33.389c-.51 0-2.214.045-2.77.623-.395.411-.089 1.434.962 2.313.665.557 1.298.731 1.807.731s1.143-.175 1.807-.731c1.052-.88 1.356-1.902.963-2.313-.555-.578-2.26-.623-2.769-.623"/><ellipse cx="25.429" cy="27.333" rx="2.88" ry="2.844"/><ellipse cx="38.57" cy="27.333" rx="2.879" ry="2.844"/><path d="m32.975 37.941c-.282.012-.543.092-.792.189-.243.111-.476.242-.68.424-.198.172-.404.398-.46.693.258-.104.51-.129.741-.215.237-.07.459-.162.683-.249.218-.099.436-.194.646-.306.22-.09.401-.248.678-.28-.198-.242-.552-.272-.816-.256"/></svg>