<svg xmlns="http://www.w3.org/2000/svg" viewBox="0 0 64 64" enable-background="new 0 0 64 64"><path d="m61.879 24.135c-.101-.957-.256-1.882-.461-2.746-.366-1.526-.75-2.454-1.076-3.159-.297-.628-.588-1.143-.953-1.686-.609-.892-1.147-1.457-1.595-1.895-1.022-.972-1.938-1.567-2.7-2.024-1.763-1.031-3.391-1.648-4.753-2.115-3.239-1.085-6.304-1.677-8.876-2.113-4.395-.729-8.799-1.133-13.107-1.473 2.779-1.948 13.35-2.749 13.35-3.157-.001-.605-9.991-1.767-18.884-1.767-4.6 0-7.524.794-9.064 2.659-1.055 1.276-1.472 2.875-1.276 4.888.023.243.057.471.103.691.006.03.013.06.021.088.459 1.789 1.937 3.247 4.392 4.331.803.356 1.61.612 2.41.835.608.232 1.218.457 1.825.686 3.131 1.136 6.273 2.161 9.395 3.266 3.119 1.104 6.223 2.272 9.255 3.669 1.692.786 3.362 1.645 4.979 2.623-.308.289-.665.591-1.091.915-5.075 3.557-12.633 8.115-16.907 9.737-.456.016-.916.035-1.383.058-4.633.215-9.974 1.841-13.94 4.242-2.564 1.554-4.532 3.405-5.852 5.456-1.582-.208-3.255 1.36-3.691 3.143 0 0 .583-.119 1.435-.11-.077.159-.144.325-.187.496-.181.742.083 1.281.565 1.633-.066.594-.086 1.194-.059 1.802.264 5.902 4.344 8.892 12.125 8.892 3.177 0 6.562-.463 9.548-.87l1.305-.176c5.149-.688 11.215-1.518 13.915-6.387 3.351-1.083 7.343-3.01 10.716-6.474 2.614-2.411 5.137-5.194 7.111-8.753.977-1.775 1.797-3.769 2.277-5.926.021-.092.03-.188.05-.278.036-.098.081-.192.114-.289.738-2.073 1.114-4.414 1.082-6.762-.019-.749-.059-1.378-.118-1.95m-2.711 8.07c-.66 1.877-1.6 3.498-2.664 4.899-2.145 2.802-4.735 4.819-7.402 6.482-2.679 1.653-5.473 2.936-8.305 3.998-.194.072-.39.136-.584.206.243 9.007-6.03 10.253-13.721 11.279-3.235.431-7.096 1.031-10.613 1.031-5.415 0-10.016-1.424-10.269-7.079-.416-9.326 12.11-14.314 19.956-14.679.561-.025 1.11-.049 1.654-.066 1.007-.363 2.181-.89 3.443-1.513 4.701 1.183 10.383 3.384 12.561 6.692 0 0-1.258-6.35-6.262-10.167.826-.493 1.646-.996 2.451-1.5 4.834.829 10.908 2.65 13.365 5.89 0 0-1.762-6.561-7.32-9.963.637-.528 1.139-1.029 1.536-1.507 3.835-.477 9.001-.021 11.319 1.033 0 0-3.522-4.635-10.061-5.129-2.219-1.188-4.479-2.093-6.732-2.876-3.173-1.089-6.359-1.922-9.543-2.688-3.184-.768-6.367-1.446-9.533-2.234-1.58-.414-3.194-.729-4.708-1.398-2.413-1.067-3.119-2.237-3.333-3.071-.028-.136-.053-.293-.072-.486-.03-.305-.036-.597-.029-.883 1.579-.753 3.253-1.272 4.539-1.023 0 0-1.655-1.096-3.854-1.314.535-.772 1.416-1.404 2.754-1.88 1.033.628 1.911 1.36 2.362 2.192 0 0-.14-1.217-.787-2.634.789-.172 1.699-.305 2.723-.402.617.644 1.106 1.321 1.335 2.01 0 0 .052-.898-.176-2.103.8-.053 1.599-.096 2.398-.125.454.532.813 1.082 1 1.641 0 0 .04-.689-.099-1.666.6-.017 1.199-.026 1.799-.03.236.347.438.696.556 1.053 0 0 .019-.427-.036-1.062.021 0 .043-.001.063-.001.602 0 1.203.015 1.803.025.174.279.326.563.421.846 0 0 .016-.328-.018-.839.577.014 1.153.034 1.731.057.098.183.184.366.246.55 0 0 .01-.207-.002-.542.521.023 1.041.043 1.561.071.098.187.186.372.247.56 0 0 .01-.209-.002-.543 1.662.098 3.324.226 4.984.389-3.426.109-10.548 1.068-15.367 2.112-5.955 1.289-7.06 4.61-7.06 4.61 1.48-1.359 2.648-1.716 4.41-2.184.686.095 1.373.176 2.062.235-.997 1.925-.911 3.936-.911 3.936.482-1.391 2.118-2.719 3.737-3.713.851.064 1.702.135 2.556.204-1.256 2.425-1.131 4.959-1.131 4.959.604-1.742 2.643-3.406 4.668-4.651.648.062 1.297.142 1.945.211-1.521 2.549-1.382 5.406-1.382 5.406.65-1.881 2.975-3.67 5.149-4.939.577.079 1.153.158 1.73.248-1.121 3.205-1.121 5.923-1.121 5.923.771-1.907 2.524-3.714 4.64-5.307 1.052.212 2.104.453 3.161.729-1.797 3.55-2.016 6.92-2.016 6.92 1.04-2.146 3.389-4.06 6.072-5.643 1.038.4 2.086.87 3.162 1.501.412.246.828.517 1.256.835-4.68 1.57-6.149 5.328-6.149 5.328 2.041-1.707 5.785-1.41 9.313-1.561.029.06.058.111.088.175.288.623.624 1.436.95 2.795.161.681.315 1.521.419 2.502.059.561.092 1.164.108 1.775.03 2.151-.316 4.254-.971 6.093"/><path d="m9.912 52.046c-.344-.11-.771.29-1.035 1.175-.265.887-.242 1.832.102 1.94.345.107.88-.663 1.145-1.549.265-.884.132-1.46-.212-1.566"/><path d="m6.787 51.809c-.225-.009-.42.314-.442.913-.021.598.141 1.186.366 1.195.226.007.43-.565.45-1.165.022-.598-.15-.935-.374-.943"/><path d="m19.039 44.542c-2.979 0-5.394 3.438-5.394 6.655 0 0 .93-.444 2.393-.784-.068.296-.115.595-.115.892 0 1.858 1.395 2.977 3.114 2.977s3.114-1.118 3.114-2.977c0-.315-.053-.633-.129-.945.791.184 1.598.445 2.406.838.002-3.218-2.414-6.656-5.389-6.656"/></svg>