<svg xmlns="http://www.w3.org/2000/svg" viewBox="0 0 64 64" enable-background="new 0 0 64 64"><path d="m39.72 10.084c-.051-.299-.084-.606-.084-.921 0-.637.117-1.246.322-1.812-.55-.746-1.422-1.235-2.412-1.235-1.664 0-3.014 1.362-3.014 3.047 0 .882.375 1.669.965 2.226 1.385-.351 2.791-.775 4.223-1.305"/><ellipse cx="44.864" cy="9.165" rx="3.016" ry="3.049"/><path d="m8.157 10.442c.012-.126.021-.255.021-.39 0-.897-.279-1.626-.623-1.626-.345 0-.623.729-.623 1.626 0 .09.004.176.01.262.368.021.774.065 1.215.128"/><ellipse cx="11.785" cy="11.254" rx="1.246" ry="2.4"/><path d="m7.147 33.293c.129-1.022-.375-2.974-.375-2.974l-4.768 2.363 4.036 3.408c.001.001.979-1.777 1.107-2.797"/><path d="m7.106 39.814c-.209-1.014-1.33-2.687-1.33-2.687l-3.776 3.933 4.965 1.8c0-.001.352-2.034.141-3.046"/><path d="m10.766 48.404c0 0-.347-2.108-.891-3.021-.545-.912-2.193-2.132-2.193-2.132l-2.332 5.209 5.416-.056"/><path d="m6.381 44.348c-.164-.385-.316-.775-.459-1.175l-2.292-.845c.43 1.524.994 2.979 1.709 4.345l1.042-2.325"/><path d="m61.104 38.237l-2.637-2.958c.204-1.339.306-2.682.322-4.014l3.211-2.218-3.448-2.144c-.145-1.23-.348-2.438-.602-3.605l2.504-3.288-3.627-.829c-.352-1.068-.734-2.081-1.133-3.03l1.703-2.808-3.206-.346c-.763-1.407-1.521-2.531-2.187-3.309.012-.175.028-.349.028-.525.001-3.949-3.215-7.163-7.168-7.163-1.308 0-2.563.349-3.658 1.003-1.097-.654-2.353-1.003-3.66-1.003-3.952 0-7.168 3.214-7.168 7.163 0 .43.039.857.117 1.278-1.813.239-3.67.361-5.545.361-3.337 0-6.377-.386-8.684-.766-.425-2.346-2.065-4.046-4.078-4.046-.754 0-1.459.239-2.067.667-.568-.489-1.268-.773-2.034-.773-1.533 0-2.804 1.144-3.271 2.775-.475.154-.97.409-1.389.834-.657.664-.963 1.555-.912 2.647.032.677.228 1.467.908 2.344-.121.851-.047 1.782.081 2.377.958 4.479 13.557 9.372 25.619 12.234 2.271.539 4.432.94 6.471 1.208-.12.751-.3 1.499-.576 2.235-.479-.377-1.092-.589-1.779-.589-2.361 0-6.123 2.991-6.123 5.479 0 .924.349 1.771.919 2.462-.498.302-1.011.587-1.537.859-1.184-1.888-3.017-2.972-5.257-2.973h-.001c-2.319 0-4.794 1.14-6.792 3.126-.243.242-.466.494-.682.752-.217-.252-.434-.52-.647-.812l-1.639-2.789c-1.37-2.333-1.593-5.177-1.372-6.442l1.771.58v-2.615c0-2.211-1.669-3.943-3.8-3.943 0 0 0 0-.001 0-1.162 0-2.291.523-3.178 1.475-.736.789-1.503 2.09-1.925 4.208l2.331-1.169c.707-1.88 1.815-2.64 2.773-2.639 1.017 0 1.861.843 1.861 2.068-.138-.045-.268-.066-.39-.066-1.988 0-1.958 5.719.245 9.469-.001 0-.001 0-.002-.001.896 1.968 2.559 4.326 4.049 5.355.447.309.893.594 1.335.859.389.234.774.444 1.16.646.04.021.081.046.122.067.963.499 1.914.894 2.85 1.201-1.099 1.813-1.685 3.817-1.629 5.786.014.489-.688 1.163-1.5 1.791-.285-.146-.563-.303-.841-.46l-5.022 1.851.116-1.148c-4.965-.2-3.151-1.103-.815-2.589.319.307.648.605.986.896l.239-2.364c-.574-.561-1.118-1.153-1.625-1.781l-2.37.024c.446.633.914 1.249 1.428 1.834-.058.037-.127.082-.176.112-1.576.99-3.207 2.014-2.674 3.748.565 1.845 2.726 2.037 7.521 2.037.034 0 .066.001.1.001-1.123.835-1.901 1.747-1.49 3.05.593 1.879 2.963 2.085 7.855 2.085.26 0 .514.005.761.01.259.006.512.011.758.011 2.592 0 4.278-.808 5.313-2.69.213.017.427.028.642.042l1.051 2.255 1.328-2.216c.826-.021 1.645-.075 2.457-.161l1.38 1.942.88-2.259c1.01-.183 2.006-.413 2.985-.688l1.973 1.642v-2.271c.177-.063.356-.12.532-.187.229.383.883 1.2 2.323 1.2.711 0 1.462-.189 2.33-.409.831-.209 1.774-.447 2.513-.447.383 0 .582.064.682.117 4.605 2.464 6.357 2.969 7.57 2.969 1.324 0 2.016-.676 2.31-1.078.479-.657.569-1.408.471-2.174.325-.212.621-.505.839-.909.85-1.578-.252-3.121-1.646-5.074-.867-1.217-1.852-2.596-2.572-4.14-.155-.334-.312-.655-.468-.97-.004-.016-.008-.029-.012-.045.235-.326.458-.661.683-.995l3.021.14-1.318-3.039c.516-1.039.953-2.096 1.303-3.168l3.603-1.15m-56.65-26.182c-.062-1.303.673-1.754 2.066-1.754.017 0 .034 0 .051 0-.002-.081-.005-.16-.005-.248 0-1.267.681-2.294 1.522-2.294.84 0 1.522 1.027 1.522 2.294 0 .234-.009.438-.022.627.125.024.256.049.386.073.161-1.631 1.085-2.888 2.214-2.888 1.242 0 2.248 1.518 2.248 3.389 0 .131-.004.247-.007.368 2.995.55 6.552 1.056 10.522 1.056 2.557 0 5.285-.211 8.141-.755-.487-.805-.773-1.747-.773-2.76 0-2.919 2.342-5.288 5.229-5.288 1.426 0 2.717.579 3.66 1.515.942-.936 2.232-1.515 3.658-1.515 2.887 0 5.229 2.369 5.229 5.288 0 1.105-.335 2.13-.907 2.979.506.94.827 2.104.894 3.509.28 5.896-3.976 6.688-9.197 7.345-.304.038-.685.057-1.133.057-7.67-.001-35.035-5.429-35.298-10.998m25.133 15.22c-14.611-3.468-23.633-8.22-24.183-10.794-.016-.074-.017-.156-.03-.234.533.368 1.168.748 1.912 1.137l.005.463.409-.253c.568.283 1.196.571 1.893.864l.055.665.492-.44c.627.252 1.304.508 2.036.766l.392 1.353.997-.882c.695.227 1.433.457 2.216.688l.601 1.712 1.323-1.165c.364.1.731.198 1.111.298.457.12.92.238 1.389.354l.888 2.27 2.113-1.564c1.11.246 2.229.479 3.34.697l.212 2.358 2.063-1.93c.801.144 1.586.275 2.355.398l1.184 2.978 1.789-2.545c.971.127 1.892.231 2.732.308l1.441 2.884 1.566-2.736c.477-.004.89-.024 1.24-.068.488-.062.998-.128 1.514-.201l1.541 2.783 1.078-3.272c.777-.19 1.54-.428 2.258-.741l2.317 2.046-.348-3.232c.448-.366.854-.784 1.2-1.272l3.053.746-2.063-2.877c.176-.624.292-1.311.328-2.081l.902-.112-.896-.877c-.002-.069.004-.129.002-.198-.021-.433-.07-.849-.133-1.256 2.157 2.286 3.664 6.344 1.99 9.273-1.64 2.871-5.521 5.237-12.721 5.237-3.174-.004-7-.465-11.563-1.548m13.408 6.578l-7.945-1.354c4.916-.77 7.945 1.354 7.945 1.354m-7.742 5.561c.518.268 2.197 1.807 2.197 1.807l-2.508-1.236c.118-.178.221-.369.311-.571m-2.014-5.589c1.514 0 .525 2.117.525 3.386 0 1.268-.459 2.518-1.972 2.518s-2.737-1.028-2.737-2.3c.001-1.269 2.673-3.604 4.184-3.604m-17.543 8.554c1.583-1.645 3.659-2.728 5.545-2.727 1.363.001 2.613.579 3.5 1.89-2.856 1.11-6.007 1.584-9.045.837m1.886.32c0 0 2.207.807 2.126 3.619-.89-1.797-2.126-3.619-2.126-3.619m8.886 11.078c-.535 0-.889.13-.926.541-.504 5.358-2.223 5.807-4.611 5.807-.48 0-.988-.019-1.52-.019-13.714 0 .336-2.697.207-7.264-.143-4.96 4.639-9.547 8.589-9.546 2.136 0 4.028 1.343 4.767 4.693 1.139 5.172-.734 6.151-2.884 6.151-1.311.002-2.724-.364-3.622-.363m28.844 2.5c.61 1.664.722 2.686-.422 2.686-1.023 0-3.054-.821-6.631-2.734-.479-.256-1.034-.352-1.621-.352-1.754 0-3.785.856-4.843.856-1.101 0-1.146-.927 1.274-4.709 3.406-5.326.359-13.451 2.827-14.782.284-.153.565-.227.839-.227 2.094 0 3.885 4.278 5.244 10.101.182.361.363.731.543 1.118 2.235 4.789 6.696 8.019 2.79 8.043m-1.268-13.739c-.275.5-.568.981-.869 1.452-1.719-6.091-3.744-8.85-6.439-8.85-.611 0-1.211.156-1.783.464-2.141 1.154-2.105 3.792-2.065 6.847.036 2.746.082 6.165-1.468 8.587-1.212 1.896-1.993 3.313-2.218 4.465-3.487 1.351-7.163 2.032-10.77 2.032-.493 0-.985-.018-1.476-.044.146-.533.271-1.111.366-1.753.111.016.226.032.338.049.735.107 1.568.229 2.43.229 1.771 0 3.126-.547 4.028-1.626 1.215-1.45 1.453-3.606.752-6.79-.221-1.003-.527-1.839-.889-2.546.031-.019.063-.037.094-.057.413-.264.814-.543 1.209-.832.092-.064.184-.126.273-.192 1.595-1.196 3.041-2.577 4.324-4.036.075-.085.147-.171.222-.257.424-.491.829-.988 1.214-1.49.053-.068.107-.134.158-.202.422-.561.82-1.12 1.192-1.682.056-.083.104-.166.159-.25.304-.467.588-.929.855-1.388.041-.07.091-.143.131-.214l-.008-.001c0-.001.001-.001.002-.002.001.002.004.002.006.003.036-.062.062-.12.097-.183.309-.549.6-1.091.852-1.613.121-.25.236-.52.349-.803.209-.495.386-.999.548-1.504 6.169-.996 8.827-3.958 9.915-5.864.169-.295.313-.603.436-.92 1.316 5.894 1.403 12.844-1.965 18.971"/><path d="m2.835 38.252c.025.238.069.469.101.703l1.747-1.849c-.027-.338-.047-.666-.061-.983l-1.963-1.672c-.025 1.118.024 2.373.176 3.801"/><path d="m14.587 50.292c-.851-.74-2.918-1.405-2.918-1.405l-.626 6.192 5.443-2.004c0 0-1.05-2.043-1.899-2.783"/></svg>