<svg xmlns="http://www.w3.org/2000/svg" viewBox="0 0 64 64" enable-background="new 0 0 64 64"><path d="m60.48 33.547c.838-1.453 1.277-3.084 1.277-4.759 0-2.583-1.04-4.931-2.729-6.673.239-.351.465-.717.666-1.105.873-1.682 1.374-3.683 1.396-5.729.059-3.959-1.396-7.86-3.826-10.335-1.221-1.257-2.633-2.137-4.17-2.6-1.524-.457-3.124-.436-4.59-.084-2.637.605-5.088 2.329-6.93 4.804-1.351-.395-2.774-.612-4.245-.612-2.109 0-4.16.431-6.103 1.278-1.942-.848-3.993-1.278-6.103-1.278-1.285 0-2.526.176-3.717.474-1.829-2.398-4.232-4.07-6.817-4.665-1.466-.352-3.066-.373-4.591.084-1.537.463-2.949 1.343-4.168 2.6-2.432 2.473-3.886 6.374-3.828 10.333.023 2.047.523 4.048 1.396 5.729.871 1.681 2.112 3.029 3.549 3.85.614.343 1.259.595 1.921.747-1.331 2.227-2.048 4.763-2.048 7.367 0 4.533 2.083 8.705 5.73 11.511.713 3.826 3.724 6.819 7.493 7.696v3.928c0 3.248 2.278 5.892 5.079 5.892 2.801 0 5.08-2.644 5.08-5.892v-.032c.401.048.806.076 1.216.076s.815-.028 1.216-.076v.032c0 3.248 2.278 5.892 5.078 5.892 2.802 0 5.081-2.644 5.081-5.892v-3.931c.055-.013.111-.027.167-.041.642 1.529 2.049 2.565 3.673 2.565 1.33 0 2.502-.702 3.242-1.769.473 2.408 2.281 4.208 4.44 4.208 2.521 0 4.57-2.445 4.57-5.452v-5.95c1.928-1.782 3.115-4.297 3.115-7.045 0-1.834-.523-3.6-1.52-5.146m-8.123-26.838c1 .26 2.004.814 2.827 1.611 1.698 1.585 2.814 4.252 2.814 6.949 0 3.398-1.743 7.503-6.013 6.956-.969-.124-1.89-.857-2.524-1.821-.648-.972-.987-2.263-.987-3.521 0-3.443 2.615-4.215 3.923-3.716.837.359 1.552 1.434 1.552 2.567 0 1.413 2.023 1.304 2.023-.148 0-2.892-2.597-6.184-6.264-4.954-4.74 1.59-3.63 7.473-3.63 7.473-.708-1.922-1.772-3.49-3.18-4.729 1.442-5.729 5.774-7.624 9.459-6.667m-27.233 1.712c1.969 0 3.881.431 5.682 1.281l.421.198.421-.198c1.801-.851 3.713-1.281 5.682-1.281 1.078 0 2.124.143 3.131.389-.432.765-.808 1.573-1.127 2.418-2.177-.858-4.808-1.289-7.915-1.289-3 0-5.56.396-7.692 1.195-.332-.862-.723-1.687-1.172-2.464.83-.162 1.689-.249 2.569-.249m-4.54 6.422c.616 3.892 4.524 3.339 4.367 1.356-.079-.981-.279-1.94-.517-2.872-.067-.265-.151-.521-.228-.78 1.872-.716 4.233-1.134 7.212-1.134 3.105 0 5.535.456 7.443 1.227-.067.229-.142.455-.201.688-.238.932-.438 1.891-.518 2.872-.155 1.953 3.634 2.511 4.332-1.2 2.328 2.382 3.008 5.615 3.176 8.639 1.326.273 2.447.66 3.284 1.16 1.247 1.794 1.819 4.789 1.702 8.439-.254.006-.506.009-.753.009-1.978 0-3.741-.173-5.229-.492-2.122 6.974-7.245 11.896-13.236 11.896-6.004 0-11.133-4.945-13.246-11.94-1.446.297-3.132.45-5.006.45-.319 0-.644-.005-.973-.014-.094-3.69.531-6.668 1.76-8.396.845-.497 1.948-.869 3.235-1.132.176-3.105.895-6.43 3.385-8.824.003.015.008.031.011.048m-12.448 6.741c-1.87-1.144-3.104-3.744-3.041-6.314.036-2.697 1.116-5.364 2.814-6.949.823-.797 1.833-1.335 2.828-1.611 3.144-.874 7.394 1.313 9.397 6.49-1.327 1.112-2.35 2.515-3.082 4.205.003-.227.002-.453-.009-.681-.078-1.605-.534-3.166-1.43-4.273-1.19-1.47-2.982-2.881-5.714-1.846-1.665.631-2.778 2.73-2.778 4.981 0 1.507 2.023 1.655 2.023.148 0-1.212.746-2.145 1.553-2.567 1.216-.637 3.922.043 3.922 3.716 0 1.259-.36 2.536-.987 3.521-1.876 2.951-4.869 1.569-5.496 1.18m20.096 34.524h-6.219v-3.672c.102.003.202.014.304.014.403 0 .815-.026 1.231-.079 1.21 1.533 2.847 2.652 4.684 3.261v.476m12.59 0h-6.219v-.477c1.837-.608 3.473-1.728 4.684-3.26.417.052.828.078 1.229.078.103 0 .204-.012.306-.015v3.674m7.897-5.771h-2.033c.266-.207.523-.425.768-.658.425.055.834.082 1.239.082.009 0 .018-.002.026-.002v.578m8.197 1.352h-5.195v-2.402c.834-.262 1.637-.619 2.381-1.092 1.009-.206 1.951-.565 2.814-1.039v4.533m-3.369-5.39l-.199.036-.168.111c-1.326.881-2.878 1.347-4.487 1.347-.452 0-.915-.042-1.415-.13l-.523-.092-.365.388c-1.51 1.604-3.65 2.524-5.872 2.524-.479 0-.98-.048-1.49-.141l-.628-.113-.361.522c-1.486 2.15-3.961 3.434-6.621 3.434-2.66 0-5.135-1.284-6.62-3.434l-.362-.524-.627.115c-.508.094-1.009.142-1.491.142-3.957 0-7.346-2.874-7.883-6.686l-.058-.412-.336-.245c-3.336-2.431-5.249-6.136-5.249-10.167 0-2.619.845-5.155 2.389-7.287.134-.023.269-.043.404-.076.093-.023.184-.058.276-.085-.828 1.956-1.223 4.558-1.144 7.659l.036 1.399 1.401.037c.343.01.682.015 1.013.015 1.438 0 2.779-.086 4.002-.258 2.59 7.18 8.076 11.748 14.249 11.748 6.155 0 11.635-4.547 14.232-11.693 1.293.191 2.711.289 4.233.289.258 0 .52-.003.785-.009l1.399-.031.045-1.397c.104-3.192-.302-5.857-1.164-7.848.185.067.372.127.562.174 1.612.39 3.204.048 4.636-.751.57-.326 1.098-.755 1.596-1.235 1.268 1.373 2.046 3.18 2.046 5.164 0 1.508-.45 2.973-1.302 4.236l-.391.579.417.558c.993 1.332 1.518 2.9 1.518 4.532 0 3.717-2.726 6.916-6.483 7.605"/><ellipse cx="23.675" cy="27.805" rx="3.345" ry="3.209"/><ellipse cx="39.16" cy="27.805" rx="3.348" ry="3.209"/><path d="m47.294 26.302c-.417-.249-.958-.448-1.595-.598-.006 1.769-.203 3.475-.549 5.098.886.166 1.93.241 3.094.217.068-2.039-.254-3.714-.95-4.717"/><path d="m17.683 30.782c-.345-1.633-.542-3.348-.545-5.127-.616.145-1.144.34-1.564.585-.693.977-1.043 2.653-.993 4.733 1.158.033 2.206-.033 3.102-.191"/><path d="m29.512 40.697c-1.627-3.374-1.831-3.376-5.29-3.972l5.29 3.972"/><path d="m33.322 40.697l5.292-3.972c-3.461.596-3.663.598-5.292 3.972"/></svg>