<svg xmlns="http://www.w3.org/2000/svg" viewBox="0 0 64 64" enable-background="new 0 0 64 64"><path d="m6.057 26.956c3.493-.502 6.612-1.196 8.217-2.636 1.63-1.463 2.292-4.186 2.727-7.156-3.493.503-6.408 1.439-8.215 2.633-1.351 1.648-2.292 4.185-2.729 7.159"/><path d="m50.359 26.956c-.436-2.974-1.377-5.511-2.73-7.159-1.807-1.193-4.721-2.13-8.213-2.633.434 2.971 1.096 5.693 2.727 7.156 1.605 1.44 4.724 2.134 8.216 2.636"/><path d="m35.945 20.252c1.207 0 2.184-.975 2.184-2.178s-.977-2.178-2.184-2.178c-1.203 0-2.186.975-2.186 2.178s.983 2.178 2.186 2.178"/><ellipse cx="20.473" cy="18.074" rx="2.184" ry="2.178"/><path d="m23.598 26.074c-.686.51-.83 2.261-.32 3.908.516 1.647 1.484 2.567 2.17 2.059.688-.512.834-2.264.32-3.91-.514-1.649-1.484-2.568-2.17-2.057"/><path d="m30.649 28.132c-.514 1.646-.369 3.397.318 3.91.688.51 1.656-.41 2.169-2.06.514-1.647.369-3.398-.318-3.907-.687-.512-1.661.407-2.169 2.057"/><path d="m62 24.842c-.051-1.545-.973-3.58-2.547-5.767-2.252 1.397-3.807 2.919-4.377 4.288.045 1.367.775 3.117 2.029 5.016-.508 1.871-1.26 3.63-2.076 5.214-2.475-1.641-5.785-2.479-9.322-2.479-1.135 0-2.803.269-4.482.269-1.258 0-2.518-.156-3.574-.681.736-1.134 2.053-3.279 2.85-5.298.25.318.516.607.795.87 2.566 2.417 7.572 3.453 12.131 4.147l.992.151-.137-.996c-.652-4.699-2.051-8.531-4.045-11.081l-.164-.155c-.197-.136-.42-.265-.633-.396 9.395-.974 4.939-20.59-8.953-14.916 9.195-1.916 13.621 10.351 6.803 10.351-4.037 0-7.066-4.428-11.135-6.544-.693-1.97-2.246-2.454-3.602-2.454-.973 0-1.963.227-2.837.426-.596.136-1.158.265-1.505.265s-.909-.129-1.505-.265c-.873-.2-1.864-.426-2.837-.426-1.356 0-2.907.484-3.603 2.453-4.07 2.115-7.099 6.545-11.138 6.545-6.818 0-2.388-12.267 6.804-10.351-13.892-5.674-18.345 13.941-8.953 14.916-.214.131-.436.26-.632.396l-.165.155c-1.994 2.55-3.392 6.382-4.044 11.081l-.138.996.994-.151c4.556-.694 9.561-1.729 12.128-4.146.281-.263.545-.553.796-.871.975 2.472 2.733 5.139 3.248 5.897-.82 1.77-2.013 5.162-2.013 9.99 0 5.473 2.876 7.785 5.229 8.769v4.939h-.002c.001 2.407 1.682 4.414 3.921 4.891.896 1.273 2.359 2.11 4.023 2.11 2.734 0 4.945-2.236 4.945-5.001v-6.207h10.438c.248 0 .486-.018.732-.023v4.23c0 2.407 1.68 4.413 3.92 4.891.896 1.273 2.359 2.11 4.023 2.11 2.734 0 4.945-2.236 4.945-5.001v-15.533c0-2.923-1.168-5.235-3.068-6.929.955-1.82 1.838-3.881 2.4-6.1 1.691-1.197 2.861-2.449 3.341-3.595m-45.122-1.328l-.45-1.887-.937 1.698c-.42.763-.876 1.369-1.396 1.856-2.094 1.97-6.283 2.941-10.318 3.598.652-3.878 1.886-7.138 3.516-9.27.897-.605 1.994-1.163 3.244-1.665 2.425-.269 4.087-.881 5.444-1.602.819-.173 1.658-.334 2.534-.469l.332-.05.183-.281c.447-.689.95-1.316 1.479-1.909 1.319-.619 2.91-1.049 5.238-1.049 2.449 0 2.908-4.686.491-6.246.044.01.089.02.132.029.71.163 1.324.303 1.839.303.516 0 1.129-.14 1.839-.303.041-.01.086-.02.129-.029-2.416 1.563-1.957 6.246.494 6.246 2.327 0 3.917.43 5.236 1.049.529.593 1.033 1.22 1.48 1.909l.182.281.332.05c.877.135 1.717.296 2.535.47 1.355.72 3.018 1.332 5.441 1.601 1.252.502 2.35 1.06 3.246 1.665 1.631 2.132 2.863 5.392 3.516 9.27-4.035-.656-8.227-1.628-10.318-3.599-.52-.486-.977-1.094-1.396-1.855l-.936-1.697-.449 1.886c-.398 1.664-1.559 3.781-2.467 5.277-.471-2.075-1.76-4.508-3.424-6.286-1.701-1.817-3.582-2.778-5.441-2.778-1.855 0-3.734.958-5.432 2.77-1.668 1.779-2.96 4.216-3.433 6.297-.907-1.497-2.068-3.615-2.465-5.28m15.039 10.715c-1.046.253-2.349.566-3.708.566s-2.66-.314-3.707-.566c-.896-.217-1.59-.344-2.111-.289-.979-.828-1.644-1.936-1.734-3.355-.108-1.67 1.064-4.768 3.215-7.063.981-1.047 2.531-2.295 4.338-2.295 1.811 0 3.363 1.253 4.347 2.304 2.147 2.295 3.315 5.388 3.204 7.055-.09 1.42-.756 2.528-1.734 3.354-.523-.054-1.214.073-2.11.289m1.653 1.193c-.398.864-2.478 2.412-5.361 2.412-2.854 0-4.921-1.518-5.352-2.42.328.04.8.153 1.293.272 1.123.271 2.521.608 4.059.608 1.538 0 2.936-.337 4.059-.607.479-.115.935-.225 1.302-.265m-8.189 18.077h-1.5v-2.945c.883.213 1.5.238 1.5.238v2.707m24.058 0h-1.5v-2.799c.508-.039 1.012-.082 1.5-.147v2.946m8.389-12.033v14.033h-6.889v-4.946-1.713l-1.699.227c-1.125.15-2.314.226-3.533.226h-10.437-1.5v1.5 4.707h-6.89v-4.707-1.455l-1.454-.044c-.276-.009-6.773-.295-6.773-8.002 0-3.481.66-6.147 1.305-7.936.354.618.821 1.148 1.357 1.614-.016.123-.041.241-.026.382.19 1.842 3.255 3.982 6.921 3.982s6.73-2.141 6.921-3.982c.014-.135-.012-.248-.025-.368.891-.781 1.576-1.762 1.916-2.966 1.125.559 2.496.864 4.203.864.988 0 1.951-.085 2.801-.159.635-.057 1.234-.109 1.682-.109 6.032-.001 12.12 2.737 12.12 8.852m-1.224-17.821c.422-.764 1.275-1.629 2.439-2.485.805 1.304 1.305 2.489 1.428 3.397-.42.753-1.285 1.634-2.439 2.485-1.016-1.646-1.339-2.752-1.428-3.397"/></svg>