<svg xmlns="http://www.w3.org/2000/svg" viewBox="0 0 64 64" enable-background="new 0 0 64 64"><path d="m32.439 24.585c.273-2.849.279-3.1-5.158-3.678-5.436-.577-5.478-.333-5.748 2.52-.273 2.853 1.943 5.426 4.955 5.746 3.012.321 5.676-1.734 5.951-4.588m-1.765-.745c-.182 1.901-1.959 3.27-3.966 3.058-2.011-.215-3.485-1.93-3.306-3.831.17-1.747.213-2.026 3.026-1.762-.513.313-.867.922-.867 1.633 0 1.023.729 1.854 1.632 1.854.903 0 1.633-.831 1.633-1.854 0-.584-.241-1.1-.611-1.441 2.634.325 2.623.632 2.459 2.343"/><path d="m47.08 20.907c-5.437.579-5.43.83-5.156 3.678.275 2.854 2.938 4.908 5.949 4.587 3.01-.32 5.23-2.893 4.956-5.744-.273-2.853-.315-3.097-5.749-2.521m.575 5.99c-2.011.212-3.784-1.156-3.964-3.058-.168-1.722-.178-2.021 2.508-2.349-.277.334-.451.781-.451 1.276 0 1.023.73 1.855 1.634 1.855.901 0 1.631-.832 1.631-1.855 0-.617-.268-1.16-.675-1.499 2.418-.198 2.463.139 2.62 1.798.183 1.903-1.298 3.618-3.303 3.832"/><path d="m25.541 7.395c-1.258-1.072-4.164-1.438-5.497-1.438 0 0-1.622 4.715 1.5 5.882.789-1.385 1.668-2.487 2.614-3.358.447-.413.91-.77 1.383-1.086"/><path d="m52.813 11.84c3.123-1.168 1.504-5.883 1.504-5.883-1.333 0-4.238.363-5.495 1.438 1.474.988 2.832 2.408 3.991 4.445"/><path d="m31.051 10.833l-1.78-1.836-1.109 1.836 1.109 1.174z"/><path d="m37.172 10.573l-.098-1.427-1.65.443.704 1.252z"/><path d="m41.477 15.779l-1.78-1.836-1.109 1.836 1.109 1.174z"/><path d="m51.145 12.848l-1.778-1.834-1.109 1.834 1.109 1.173z"/><path d="m36.535 19.695l-1.183-1.222-.741 1.222.741.784z"/><path d="m46.677 9.366l-1.185-1.223-.736 1.223.736.782z"/><path d="m21.438 35.797l.739.782 1.184-.782-1.184-1.224z"/><path d="m23.398 13.954l1.057.293.63-1.313-1.681-.445z"/><path d="m43.658 52.534l2.76.666.149-3.416-2.788.596z"/><path d="m30.543 49.995l1.108 1.172 1.777-1.172-1.777-1.837z"/><path d="m26.531 52.676l1.111 1.172 1.777-1.172-1.777-1.838z"/><path d="m20.477 44.928l1.183 1.224.74-1.224-.74-.782z"/><path d="m14.381 17.122l-1.462-1.567-1.422.759.648 2.04z"/><path d="m8.143 37.139l.421 1.332 1.465-.805-.956-1.025z"/><path d="m57.677 36.934c.981-2.431-.555-13.855-.876-15.814-.432-2.604-1.039-4.926-1.813-6.918 4.786-3.227 2.112-11.194 1.989-11.549l-.224-.653h-.688c-1.969 0-7.937.529-10.79 2.811-2.32-.594-4.721-.646-6.995-.646l-1.102.001-1.321-.002c-2.008 0-4.146.039-6.279.511-.168.039-.338.081-.506.125-2.86-2.273-8.814-2.8-10.777-2.8h-.688l-.224.65c-.122.355-2.799 8.33 1.994 11.553-.631 1.611-1.135 3.374-1.535 5.359-.475 2.363-2.137 14.939-1.159 17.369.357.891 1.048 1.694 1.94 2.42-.333.489-.694 1.125-.982 1.955-.22.629-.372 1.303-.454 2.012-2.52-.365-4.913-1.87-5.163-4.68-.257-2.547.989-5.011 2.192-7.392.413-.815.837-1.659 1.198-2.493 1.994-4.618 2.326-8.585 1.047-12.486l-.111-.345c-.515-1.61-1.222-3.817-3.383-4.428-1.48-.417-3.118.147-4.071 1.38-.735.951-.989 2.157-.693 3.313.219.854.578 1.604.927 2.33.425.892.831 1.733.918 2.672.196 2.102-.623 4.27-1.346 6.182-.167.441-.339.883-.511 1.322-1.417 3.636-2.883 7.394-1.834 11.589 1.059 4.233 4.712 7.388 9.305 8.034.287.041 1.118.06 1.77.06.079 0 .157-.001.237-.001.051.182.104.364.165.551.369 1.172.883 2.389 1.531 3.62.769 1.466 3.088 2.515 5.09 3.054.461 2.203 1.08 3.696 1.893 4.539 1.316 1.373 3.925 1.861 5.927 1.861 1.031 0 3.342-.132 4.904-1.221 1.563 1.089 3.872 1.221 4.903 1.221 2.002 0 4.612-.488 5.938-1.859.735-.766 1.313-2.055 1.763-3.941.045-.192.088-.395.132-.602 2.002-.537 4.318-1.588 5.091-3.055.09-.175.176-.346.261-.516l.072-.147c.621-1.274 1.1-2.521 1.414-3.703.376-1.405.543-2.758.489-4.017-.092-2.282-.851-3.855-1.501-4.809.888-.724 1.579-1.529 1.936-2.417m-43.585 9.007c-2.919-.99-5.146-3.246-5.867-6.129-.897-3.598.394-6.908 1.76-10.414.173-.445.348-.893.518-1.34.758-2.006 1.702-4.502 1.464-7.052-.121-1.282-.62-2.323-1.102-3.329-.321-.671-.625-1.304-.796-1.973-.199-.781.133-1.364.35-1.643.482-.625 1.289-.912 2.025-.703 1.163.326 1.644 1.828 2.067 3.154l.114.356c1.122 3.425.811 6.957-.984 11.112-.336.781-.73 1.563-1.148 2.389-1.331 2.63-2.706 5.352-2.393 8.447.256 2.875 2.138 4.761 4.419 5.731l-.744.398.317.996m6.975 5.704c-.595-1.131-1.065-2.24-1.399-3.305-.129-.404-.229-.791-.315-1.165l-.179-.771-.79.021c-.322.01-.649.014-.956.014-.823 0-1.393-.026-1.5-.039-.479-.067-.945-.168-1.396-.299l1.133-.623-.701-.75c1.001.366 2.059.571 3.083.608l.975.035.022-.979c.02-.887.16-1.709.417-2.447.222-.639.496-1.135.744-1.5.962.57 2.035 1.078 3.148 1.527.045 2.243.123 5.014.324 7.661.107 1.442.242 2.702.403 3.836-1.59-.543-2.728-1.283-3.013-1.824m15.384 7.216c-.208.238-.529.447-.928.623l-.762-1.315.215 1.521c-.738.232-1.656.369-2.656.373l-.334-2.221-.333 2.202c-.862-.046-1.671-.188-2.349-.405l.242-1.697-.814 1.485c-.422-.182-.773-.395-1.006-.636-.405-.42-.991-1.458-1.479-4.016-.273-1.42-.491-3.198-.647-5.287-.174-2.313-.256-4.731-.303-6.799 1.632.552 3.242.984 4.585 1.305.041.041.083.083.125.122 1.329 1.219 3.915 1.952 6.94 1.989-.183 1.98-.242 4.461-.25 6.235.014 1.959.082 3.916.309 5.875l-.555.646m12.349-9.935c-.192 2.83-.493 5.126-.896 6.824-.451 1.893-.939 2.698-1.272 3.042-.231.241-.585.454-1.008.636l-.813-1.486.244 1.699c-.682.215-1.487.358-2.352.404l-.333-2.202-.335 2.222c-.998-.004-1.916-.142-2.655-.373l.216-1.521-.762 1.316c-.396-.178-.721-.385-.926-.623l-.561-.647c.229-1.958.298-3.915.313-5.872-.013-1.775-.07-4.255-.254-6.234 3.026-.036 5.614-.771 6.947-1.993.041-.037.078-.075.122-.119 1.343-.317 2.952-.751 4.585-1.304-.042 1.888-.115 4.094-.26 6.231m6.089-1.251c-.09.335-.199.679-.318 1.025l.074-1.693-1.879.402-.082 1.452 1.686.404c-.217.574-.473 1.16-.762 1.756l-.07.143c-.078.16-.158.318-.24.48-.286.539-1.427 1.28-3.018 1.824.184-1.298.334-2.769.445-4.412.171-2.472.24-5.018.281-7.082 1.113-.451 2.189-.959 3.152-1.529.492.723 1.082 1.955 1.156 3.793.043 1.064-.101 2.221-.425 3.437m.361-11.657l.909-1.902c-.012.885-.088 1.638-.271 2.093-1.033 2.567-6.945 4.767-12.131 5.969 0 0-1.424 2.003-6.576 2.003s-6.575-2.003-6.575-2.003c-5.19-1.204-11.103-3.405-12.133-5.969-.453-1.124.819-14.06 1.261-16.263.439-2.187 1.009-4.074 1.742-5.773l.369-.854-.834-.402c-3.559-1.725-2.503-7.077-2.001-8.965 2.964.121 7.462.96 9.144 2.613l.405.396.545-.161c.297-.088.594-.171.894-.235 1.942-.431 3.958-.467 5.86-.467l2.424.002c2.397 0 4.735.055 6.97.709l.545.16.401-.398c1.677-1.657 6.184-2.497 9.153-2.618.504 1.886 1.566 7.229-1.996 8.962l-.83.404.364.85c.868 2.02 1.544 4.464 2.007 7.27.303 1.819 1.278 11.318 1.267 12.604l-2.489-.656-.008 2.196 1.584.435"/><path d="m40.982 33.963c2.213-.807 2.854-1.739 2.025-2.115-1.17-.529-4.756-.57-5.828-.57-1.068 0-4.654.041-5.822.57-.834.376-.188 1.309 2.022 2.115 1.19.434 2.327.605 3.302.648v4.868c-2.069-.081-3.381-.638-4.105-.95-.354-.154-.568-.246-.789-.246-.188 0-.359.07-.472.195-.086.098-.129.219-.129.361 0 1.277 2.856 2.443 5.995 2.443 3.135 0 5.994-1.166 5.996-2.441 0-.367-.299-.559-.602-.559-.219 0-.434.092-.788.246-.727.313-2.038.869-4.106.95v-4.868c.975-.043 2.11-.214 3.301-.647"/></svg>