<svg xmlns="http://www.w3.org/2000/svg" viewBox="0 0 64 64" enable-background="new 0 0 64 64"><path d="m10.213 15.655c.661-.818.268-2.833.268-2.833s-1.298 1.044-1.885 3.235c0 .001.958.415 1.617-.402"/><path d="m4.34 23.041c-.069.536.375 2.918.845 1.373.468-1.547-.845-1.373-.845-1.373"/><path d="m59.182 45.825c-.766-.491-1.809-1.326-2.852-2.639.074-1.722-.677-2.836-.787-2.985l-.32-.437-.525-.123c-.165-.038-.335-.059-.504-.085-.439-1.02-.834-2.173-1.145-3.497l-.225-.956c.459-1.905.381-3.891-.107-5.623 1.977-.076 3.832.441 2.822 2.987-2.131 5.371 6.461 9.865 6.461 9.865s-4.726-7.521-1.146-13.115c2.138-3.345-4.744-5.301-9.414-2.547-1.334-2.006-3.312-3.187-5.568-3.188-.264 0-.533.017-.801.05-1.326.159-2.637.349-3.906.53-2.666.383-5.186.746-7.2.746-3.526 0-3.897-1.152-4.056-1.644-.06-.184-.122-.356-.183-.537l.877.474c-.12-2.133-1.829-4.693-1.829-4.693l1.75.271c-.402-2.283-3.427-4.23-3.427-4.23l1.435-.261c-1.071-1.85-4.086-3.105-4.086-3.105l1.894-.123c-.954-1.303-4.399-2.261-4.399-2.261l1.459-.952c-3.194-1.289-5.737-.644-5.737-.644l.665-1.438c-2.313-.137-4.132.906-4.983 1.511-1.235-2.174-2.62-3.176-2.62-3.176-.089.549-.12 1.036-.129 1.484-.963-.545-1.684-.713-1.819-.741l-1.625-.319-.115 1.666c-.13 1.869.343 3.522.628 4.322-.586 2.121-2.944 7.022-4.248 9.734-.736 1.53-1.127 2.348-1.275 2.739-.773 2.04 1.789 4.096 3.384 5.14l.493.322.577-.11c.241-.046.449-.128.63-.227.188.23.438.406.725.504.191.064.391.099.592.099 1.05 0 1.729-.828 2.386-1.628.447-.544.953-1.161 1.473-1.448 1.101-.608 2.017-1.218 2.753-1.834-.303.884-.683 1.608-.776 1.782-2.148 3.973-1.019 9.153-.345 11.431-1.953 1.082-5.064 1.868-6.257 2.106l-.97.194-.185.98c-2.013 10.742 1.958 14.664 4.503 16.046 1.375.744 2.517.858 2.643.869l1.396.119.178-1.402.549-4.321.216-1.702-1.702.039c-.077 0-.691-.005-1.331-.178-.479-.13-1.079-.376-1.233-.822-.307-.885-.019-2.944.369-4.622.564.039 1.124.06 1.673.06.806 0 1.568-.049 2.306-.121-.103.123-.187.219-.24.276-1.078 1.142-.987 2.285-.838 2.865.311 1.203 1.336 2.028 2.158 2.285.525.162 3.803.5 9.746 1.007l.605.051.465-.397c.008-.007 1.049-.884 2.299-1.375.524-.207.994-.311 1.396-.311.068 0 .136.003.204.01l2.532.249-1.061-2.334c-.138-.304-1.408-3.001-3.438-4.028l-.767-.389-.711.486c-.025.018-.629.431-1.383 1.004-.447.342-1.025.799-1.562 1.274l-.444-.131c.896-.95 2.277-2.21 4.161-3.455.472-.033.951-.056 1.448-.056 2.245 0 4.438.323 6.822.737 2.498 4.521 6.107 5.496 8.752 5.496 1.251 0 2.421-.216 3.406-.492-1 5.174.568 8.805 1.727 10.65.803 1.274 1.545 1.95 1.627 2.023l.446.394.589-.026c2.526-.113 3.175-3.663 3.313-4.748l.107-.844-.67-.517c-.322-.249-.605-.514-.842-.785-.687-.783-1.025-1.648-1.143-2.552.434.429.879.852 1.352 1.249.779.665 1.606 1.264 2.45 1.774l1.472.889.639-1.605c.037-.092.893-2.268.954-4.781l.028-1.139-1.085-.316c.002 0-.628-.199-1.521-.774m-6.607-6.349c-.121.004-.245.006-.364.011-.216.009-.429.02-.642.02-.327 0-.644-.018-.995-.144.545-.576.971-1.213 1.333-1.875.202.708.427 1.367.668 1.988m-46.253-12.689c0 0-3.279-2.146-2.813-3.376.434-1.151 4.537-9.111 5.524-12.467-.015.05-.029.102-.043.146.435.415 1.389.924 2.21 1.731.517.509 1.088 1.184 1.685 2.015-.545.788-2.194 2.929-6.272 6.769-.626-.83-1.194-1.383-1.517-1.569l-.308.642c.229.139.455.299.89.738.622.629 1.77 2.354 2.435 4.22.083-.041.224-.044.355-.036-1.309.08-1.503 1.064-2.146 1.187m5.378-2.545c-1.495.824-2.415 2.895-3.156 2.895-.042 0-.084-.008-.125-.021-.373-.126.466-1.259.346-1.481.002 0 .014.002.014.002-.494-1.367-1.127-2.518-1.742-3.432 3.842-3.61 5.582-5.753 6.285-6.729.859 1.285 1.753 2.871 2.599 4.753-.221.953-1.185 2.334-4.221 4.013m10.904 21.244l3.378 1.001c.52-.523 1.22-1.099 1.852-1.588.508.568 1.152 1.445 1.773 2.705-1.391.602-2.469 1.518-2.469 1.518s-8.802-.75-9.436-.945c-.632-.197-1.951-1.39-.692-2.724.305-.323.759-.906 1.266-1.592 1.79-.334 3.425-.819 5.021-1.301.983-.296 1.915-.575 2.876-.818-2.452 2.041-3.569 3.744-3.569 3.744m11.124-5.593c-.983-.102-1.971-.176-2.966-.176-1.594 0-3.205.157-4.834.564-3.828.956-7.26 2.523-12.044 2.523-.875 0-1.796-.053-2.773-.171 0 0-1.364 4.636-.651 6.696.353 1.02 1.333 1.518 2.235 1.761.019.005.036.007.055.012-.266.871-.63 2.246-.878 3.866-.018-.01-.035-.017-.053-.026-2.329-1.263-5.575-4.779-3.759-14.471 0 0 5.318-1.059 7.718-2.938 0 0-2.597-6.751-.115-11.34.906-1.678 2.052-4.669.801-6.565.001-.002.005-.007.006-.008-.667-1.469-1.224-2.851-2.088-4.104-.818-1.191-1.724-2.272-2.684-3.221-.985-.972-2.048-1.563-2.504-1.99.004.002-.065.299-.143.575.061-.211.11-.405.143-.575 0 0-.853-1.883-.698-4.112 0 0 1.921.379 3.768 2.627 0 0 .61-.16 1.616-.16 3.184.001 10.329 1.604 14.635 14.962.119.368.297.676.502.957-.01-.005-.021-.008-.031-.012 0 0 2.296 2.522.902 4.7-1.324 2.07 1.101 5.304 4.95 6.09.017.733-.091 2.442-1.11 4.536m18.202 4.586c0 0-2.545 1.471-5.594 1.471-2.667 0-5.721-1.126-7.793-5.35-.899-.159-1.803-.308-2.709-.442.137-.191.799-1.275 1.135-4.628 1.152-.049 2.381-.32 3.637-.889 4.653-2.1.482-7.165 2.117-9.309.833-.117 1.674-.232 2.521-.335.213-.025.422-.038.626-.038 1.854.001 3.364 1.026 4.38 2.559-.001.001-.002.001-.003.002.417.629.75 1.344.989 2.107h.002c1.043 3.326.311 7.59-3.059 9.838 1.318 1.312 2.352 1.518 3.39 1.518.476 0 .952-.043 1.456-.043.422 0 .865.029 1.342.141 0 0 .929 1.264.291 3.226-.57 1.761-2.646 6.201.164 9.598-.369.83-1.079 2.09-2.171 2.802-1.329-2.163-2.828-6.268-.721-12.228m3.031 3.97c.169-1.006.497-2.016.842-2.975.063-.175.109-.315.161-.463.867.924 1.718 1.601 2.431 2.059.054.034.102.062.154.094-.335 1.67-.796 2.828-1.203 3.608-.052-.044-.108-.082-.16-.127-.806-.679-1.535-1.429-2.225-2.196"/></svg>