<svg xmlns="http://www.w3.org/2000/svg" viewBox="0 0 64 64" enable-background="new 0 0 64 64"><path d="m31.238 26.684c0-1.062-.836-1.917-1.867-1.917s-1.865.855-1.865 1.917c0 .452.159.864.416 1.193.975-.339 2.396-.775 3.275-.796.027-.128.041-.261.041-.397"/><path d="m29.371 28.62c.799.235 1.994.212 2.242 1.913.473-1.344-.115-2.687-2.242-1.913"/><path d="m59.639 7c-.947 0-1.622.537-2.404 1.159-1.077.856-2.553 2.029-4.65 2.029-1.164 0-2.439-.834-3.465-1.504-.978-.64-1.822-1.191-2.814-1.191-.924 0-2.123.553-2.461 2.112-.459 2.115.977 4.295 1.872 5.406.347.431.75.868 1.193 1.281-4.957 1.642-16.24 4.134-39.056 4.134-4.005 0-5.453 3.882-5.664 5.959-.043.359-.411 3.573.012 6.266 1.462 9.353 8.849 19.349 25.196 19.349.623 0 1.213-.006 1.781-.017.952 1.877 2.227 3.214 3.41 2.947 1.01-.229 1.75-1.584 2.17-3.326.547-.074 1.051-.164 1.537-.262 1.368 3.041 3.487 5.658 6.114 5.658.281 0 .561-.031.833-.093 3.888-.878 5.198-7.426 4.77-12.405 6.587-6.497 8.327-21.283 8.707-25.76 4.649-2.179 5.28-5.747 5.28-8.684 0-2.837-1.807-3.058-2.361-3.058m-32.241 43c-16.232 0-22.041-10.113-23.221-17.659-.4-2.548 0-5.734 0-5.734v-.002c.443-.01.886-.021 1.328-.029.026 3.039.545 6.152 1.669 9.002 1.126 2.904 2.897 5.549 5.153 7.639 2.246 2.105 4.93 3.657 7.749 4.725 2.824 1.076 5.783 1.704 8.753 2.047-.463.005-.929.011-1.431.011m1.432-.013c-2.951-.489-5.861-1.26-8.588-2.456-2.725-1.188-5.256-2.831-7.306-4.95-2.06-2.107-3.604-4.684-4.531-7.463-.929-2.752-1.273-5.645-1.156-8.569 1.006-.01 2.011-.001 3.014.028-.117 3.452.689 6.883 2.222 9.906 1.57 3.104 3.912 5.771 6.703 7.739 2.789 1.98 5.996 3.272 9.289 3.943 2.264.47 4.566.633 6.862.602.067.225.141.45.217.676-1.743.323-3.879.501-6.726.544m-10.946-13.372c1.736 2.972 4.233 5.43 7.118 7.173 2.885 1.748 6.17 2.786 9.496 2.983.117.007.234.003.353.008.114.596.263 1.217.447 1.85-2.272-.072-4.532-.337-6.726-.894-3.211-.804-6.273-2.207-8.866-4.226-2.597-2.009-4.697-4.638-6.041-7.606-1.314-2.898-1.91-6.113-1.665-9.244 1.116.069 2.227.172 3.33.322-.053 3.392.865 6.764 2.554 9.634m-.827-9.349c.18.033.361.06.54.098.9.178 1.78.423 2.649.703.014 4.618 2.783 9.595 7.238 12.994 2.168 1.654 4.564 2.808 7.099 3.473.022.479.063.979.142 1.518.014.097.035.199.051.298-.08-.008-.162-.009-.243-.018-3.241-.338-6.374-1.493-9.065-3.291-2.689-1.795-4.945-4.238-6.439-7.075-1.421-2.679-2.11-5.711-1.972-8.7m37.757-9.898c-.086 2.465-1.46 17.51-7.213 24.599v-.001c-.623.768-1.209 1.333-1.691 1.727.668 4.582-.564 10.689-3.106 11.264-.13.028-.261.043-.394.043-2.439 0-5.072-4.892-5.707-9.239-.1-.679-.139-1.301-.135-1.879-.422-.041-.799-.1-1.132-.164-2.632-.604-5.117-1.75-7.346-3.452-4.101-3.13-6.685-7.639-6.831-11.855.908.332 1.808.701 2.696 1.114 1.036.444 2.081 1.023 3.298 1.133 1.236.076 2.331-.546 3.188-1.277-.973.576-2.068 1.059-3.141.846-1.065-.173-2.041-.785-3.049-1.313-2.008-1.111-4.213-1.95-6.479-2.413-2.267-.461-4.575-.639-6.868-.582-2.261.048-4.511.27-6.727.675.017-.158.468-4.165 3.674-4.165 35.545 0 43.586-5.932 43.586-5.932-2.357 0-6.121-4.254-5.642-6.465.083-.383.257-.537.507-.537 1.049 0 3.449 2.695 6.279 2.695 4.045 0 6.248-3.188 7.055-3.188.249-.002.364.292.364 1.057 0 3.237-.863 5.736-5.186 7.309"/></svg>