<svg xmlns="http://www.w3.org/2000/svg" viewBox="0 0 64 64" enable-background="new 0 0 64 64"><path d="m29.271 43.377c1.191.771 2.869-.619 3.757-3.105.665-1.869.69-3.825.157-5.009-.178-.399-.416-.712-.715-.906-1.189-.771-2.871.618-3.753 3.104-.555 1.559-.664 3.178-.376 4.359.171.712.484 1.268.93 1.557"/><path d="m61.989 16.74l-.027-.933-.919-.021c-2.791-.073-4.992.396-6.369 1.333l-.172.117-.11.179c-.735 1.195-1.156 3.005-1.228 5.255-.972.828-2.078 1.61-3.287 2.343-2.303-1.407-5.07-2.233-8.049-2.233h-1.107c-.002 0-.004-.001-.006-.001-.063-.639-.133-1.267-.217-1.871.473-.291.68-.639.68-.639-.285.044-.531.051-.767.04-.022-.149-.05-.295-.074-.442 2.064-.235 3.759-.771 4.765-1.853 1.719-1.851 1.979-5.959 1.88-10.63-4.24-.139-7.722.528-9.806 1.977-.162.273-.316.571-.459.893-.221-.302-.45-.594-.688-.871.719-1.472 1.15-3.79.803-7.383 0 0-1.758 2.943-4.467 4.376-.024.013-.043.027-.066.041-2.174-1.132-4.766-1.692-7.799-1.692-2.855 0-5.377.656-7.538 1.911-.127-.089-.25-.18-.401-.259-2.71-1.434-4.468-4.377-4.468-4.377-.39 4.036.199 6.473 1.08 7.894-.235.286-.463.583-.683.893-.202-.523-.418-1.012-.667-1.427-2.085-1.449-5.565-2.116-9.805-1.977-.099 4.671.163 8.779 1.881 10.63 1.03 1.109 2.785 1.644 4.919 1.869-.028.138-.053.28-.08.42-.276.026-.572.021-.917-.033 0 0 .241.402.793.703-.402 2.368-.609 4.971-.609 7.8 0 2.502.873 4.945 2.56 7.274.069 1.038.212 2.532.334 3.12-.151.322-.309.796-.309 1.451v15.492c0 3.248 2.64 5.891 5.884 5.891 3.239 0 5.875-2.643 5.875-5.891v-5.129h4.289v5.12c0 3.254 2.642 5.9 5.889 5.9 3.248 0 5.89-2.646 5.89-5.901l-.004-6.728c.388.249.84.463 1.348.626v2.055c0 .665.383 1.203.855 1.203.477 0 .859-.538.859-1.203v-1.717c.242.021.482.045.734.045s.492-.024.734-.045v1.717c0 .665.385 1.203.859 1.203.473 0 .857-.538.857-1.203v-2.055c.264-.085.498-.195.732-.306v2.968c0 3.01 2.443 5.459 5.449 5.459s5.453-2.449 5.453-5.459v-16.75c0-3.305-1.366-6.317-3.596-8.627 1.099-.731 2.13-1.501 3.046-2.32 2.019-.119 3.649-.566 4.731-1.3l.174-.118.109-.18c1.128-1.825 1.292-4.61 1.232-6.624m-22.968-5.19c1.459-1.015 3.896-1.481 6.864-1.384.07 3.271-.112 6.147-1.317 7.444-.867.933-2.473 1.281-4.389 1.375-.43-2.237-1.032-4.204-1.814-5.902.185-.587.401-1.107.656-1.533m-14.521-5.326c3.26 0 6.744.561 9.533 3.191-5.016 5.501-8.26 12.428-3.123 18.831.004.006.007.01.012.015 1.868 2.11 3.494 3.143 3.494 3.143-.768.021-1.647.124-2.738.256-1.865.225-4.188.504-7.17.504-2.984 0-5.308-.279-7.175-.504-1.089-.132-1.969-.234-2.737-.256 1.135-.72 2.456-1.87 3.495-3.157 5.032-6.231 2.045-12.994-2.762-18.429 2.392-2.352 5.474-3.594 9.171-3.594m10.201 27.137c1.139 0 1.711 0 1.711 2.75 0 6.433-3.561 9.177-11.904 9.177-8.35 0-11.912-2.744-11.912-9.177 0-2.75.573-2.75 1.713-2.75.71 0 1.624.11 2.781.25 1.819.22 4.31.52 7.417.52 3.104 0 5.596-.3 7.414-.52 1.157-.139 2.071-.25 2.78-.25m-30.27-15.752c-1.205-1.296-1.387-4.173-1.315-7.444 2.967-.097 5.405.369 6.864 1.384.339.567.616 1.288.828 2.133-.744 1.578-1.343 3.353-1.794 5.313-2.004-.078-3.686-.421-4.583-1.386m6.521 15.787c-.219-.419-.413-.842-.571-1.266.43.068.866.106 1.312.096-.332.314-.574.706-.741 1.17m-.59-12.13c.375-.042.794-.14 1.269-.324.351-.137.687-.225 1.017-.292-.307.475-.494 1.058-.494 1.694 0 1.578 1.115 2.857 2.491 2.857s2.49-1.279 2.49-2.857c0-.237-.032-.463-.08-.684 1.205.857 1.88 1.888 1.88 1.888s-1.783 2.94-5.112 2.006c-2.96-.83-3.4-3.666-3.461-4.288m18.278 34.834v-7.086h-8.289v7.096h-7.759v-1.697c2.25-.539 3.878-2.133 3.878-4.02 0-1.885-1.629-3.479-3.878-4.017v-3.297c2.739 3.623 7.795 4.177 11.917 4.177 2.347 0 4.992-.188 7.346-1.013.815 1.9 2.527 3.252 4.561 3.441l.005 6.415h-7.781zm6.538-30.547c-3.33.934-5.112-2.006-5.112-2.006s.675-1.03 1.88-1.888c-.047.221-.08.447-.08.684 0 1.578 1.115 2.857 2.49 2.857 1.376 0 2.492-1.279 2.492-2.857 0-.637-.188-1.219-.495-1.694.33.067.667.155 1.017.292.475.185.894.282 1.27.324-.064.623-.503 3.459-3.462 4.288m3.451 6.578c-.158.425-.353.848-.571 1.268-.168-.466-.409-.858-.741-1.172.445.011.882-.028 1.312-.096m15.668 3.778v.138c-2.547.285-4.539 2.572-4.539 5.378 0 2.81 1.988 5.12 4.539 5.402v5.832h-6.902v-7.076l-1.506.869c-1.006.58-5.537.699-8.441.595l-.028-.001v-5.716c.574-1.295.923-2.866.97-4.775 1.895-2.477 2.863-5.089 2.863-7.771 0-1.418-.053-2.748-.131-4.037h.707c6.874 0 12.468 5.007 12.468 11.162m4.928-13.77c-.854.5-2.229.81-3.905.875l-.225.009c.03-1.886.325-3.426.835-4.381.896-.527 2.358-.839 4.13-.888-.028 1.889-.318 3.416-.835 4.385"/><path d="m20.283 37.461c-.883-2.486-2.563-3.876-3.753-3.104-.893.579-1.254 2.216-1.002 4.05.083.609.232 1.241.454 1.863.886 2.488 2.567 3.878 3.756 3.107 1.041-.676 1.359-2.786.826-4.97-.076-.315-.168-.632-.281-.946"/></svg>