<svg xmlns="http://www.w3.org/2000/svg" viewBox="0 0 64 64" enable-background="new 0 0 64 64"><path d="m56 13.641c0-6.419-5.356-11.641-11.938-11.641-5.25 0-9.835 3.388-11.376 8.14-.228-.016-.456-.024-.684-.024-.229 0-.458.008-.687.024-1.543-4.752-6.128-8.14-11.377-8.14-6.583 0-11.938 5.222-11.938 11.641 0 5.455 3.885 10.057 9.1 11.305-1.628 3.754-4.579 11.734-4.579 20.273 0 .158.007.305.009.457-.379.316-.75.641-1.095.998-.703.73-1.344 1.547-1.853 2.486-.252.471-.472.975-.633 1.508-.16.533-.261 1.102-.277 1.68-.016.582.057 1.17.216 1.729.158.559.399 1.084.694 1.553.589.943 1.363 1.67 2.164 2.264.401.297.819.566 1.232.803.421.244.847.463 1.284.668.875.406 1.787.73 2.71.969 1.851.48 3.707.635 5.518.717 1.813.082 3.602.094 5.389.146 1.788.047 3.57.123 5.352.256 1.785.131 3.563.314 5.34.549-1.745-.4-3.504-.752-5.275-1.053-1.768-.301-3.552-.547-5.335-.766-1.784-.221-3.57-.402-5.322-.646-1.748-.248-3.466-.566-5.033-1.139-.785-.285-1.53-.635-2.236-1.047-.35-.207-.698-.432-1.025-.666-.335-.238-.641-.482-.928-.742-.573-.516-1.042-1.084-1.323-1.668-.282-.582-.373-1.156-.292-1.732s.336-1.168.724-1.736c.132-.193.294-.379.455-.564.887 4.176 3.093 6.426 6.834 7.053.739 1.016 1.965 1.656 3.319 1.656h1.475c1.42 0 2.7-.723 3.423-1.818 1.248-.098 2.593-.184 3.97-.184 1.265 0 2.513.074 3.772.17.72 1.105 2.003 1.832 3.433 1.832h1.476c1.336 0 2.551-.629 3.294-1.625 5.179-.775 7.505-4.561 7.505-12.105 0-8.547-2.951-16.523-4.579-20.274 5.212-1.251 9.097-5.852 9.097-11.307m-44.161 1.165c0-3.863 3.233-7.006 7.207-7.006 3.09 0 5.794 1.914 6.793 4.678-2.635 2.011-5.06 5.139-7.228 9.322-3.772-.219-6.772-3.273-6.772-6.994m37.721 30.413c0 8.066-2.672 10.072-6.818 10.346-.233.861-1.063 1.502-2.061 1.502h-1.476c-1.082 0-1.967-.756-2.104-1.732-1.615-.133-3.327-.268-5.102-.268-1.844 0-3.621.145-5.291.283-.144.969-1.025 1.717-2.103 1.717h-1.475c-1.001 0-1.837-.646-2.064-1.516-4.037-.322-6.626-2.391-6.626-10.332 0-9.559 2.548-16.237 5.092-21.003 1.708-3.199 5.745-9.833 9.042-11.342 2.075-.949 4.616-1.033 6.849-.001 3.293 1.522 7.337 8.146 9.044 11.346 2.544 4.766 5.093 11.445 5.093 21m-4.172-23.419c-2.19-4.24-4.568-7.31-7.228-9.327 1-2.761 3.704-4.673 6.792-4.673 3.975 0 7.208 3.143 7.208 7.006 0 3.721-2.999 6.775-6.772 6.994"/><path d="m32.001 33.152c-.51 0-2.214.045-2.77.619-.395.408-.089 1.422.962 2.295.665.553 1.298.727 1.808.727s1.144-.174 1.807-.727c1.052-.873 1.357-1.887.962-2.295-.555-.574-2.26-.619-2.769-.619"/><ellipse cx="25.429" cy="27.143" rx="2.881" ry="2.823"/><ellipse cx="38.57" cy="27.143" rx="2.88" ry="2.823"/><path d="m32.975 37.67c-.283.014-.543.092-.792.189-.242.111-.476.24-.679.42-.198.172-.405.395-.461.688.259-.102.51-.127.741-.213.236-.068.459-.16.683-.246.219-.1.436-.193.646-.303.219-.09.4-.248.678-.279-.197-.242-.552-.272-.816-.256"/></svg>