<svg xmlns="http://www.w3.org/2000/svg" viewBox="0 0 64 64" enable-background="new 0 0 64 64"><path d="m19.546 12.38c1.189-2.317 2.626-3.925 4.205-5.038-1.438-.933-3.956-1.26-5.177-1.26 0 0-1.449 4.622.972 6.298"/><path d="m52.702 12.379c2.419-1.677.974-6.297.974-6.297-1.224 0-3.74.327-5.18 1.259 1.58 1.113 3.017 2.721 4.206 5.038"/><path d="m44.185 11.011c-1.765-6.479-14.381-6.604-16.122.042 3.496-2.921 12.628-2.919 16.122-.042"/><path d="m30.604 13.605c2.875-2.399 8.166-2.394 11.041-.029-1.192-4.366-9.865-4.459-11.041.029"/><path d="m60 29.812l-.033-1.314c-.162-6.495-3.774-10.028-4.559-10.72-.255-1.051-.532-2.063-.861-2.987 4.293-3.622 1.754-11.912 1.64-12.274l-.164-.517h-.557c-2.758 0-7.945.778-10.631 2.847-2.461-.679-5.027-.739-7.455-.739l-1.256.002-1.256-.002c-2.429 0-4.996.061-7.457.739-2.684-2.069-7.872-2.847-10.628-2.847h-.558l-.162.516c-.114.362-2.656 8.652 1.638 12.275-.329.923-.605 1.935-.861 2.985-.219.193-.665.618-1.19 1.263-.189-1.94-.734-3.792-1.675-5.61-.725-1.399-2.123-2.235-3.739-2.235-1.506 0-2.927.742-3.62 1.89-.675 1.12-.619 2.47.157 3.801 2.56 4.387 1.463 7.051-.197 11.085-.611 1.483-1.302 3.165-1.892 5.137-1.602 5.361-.093 8.863 1.455 10.855 2.141 2.757 5.872 4.484 9.768 4.532.38 1.306.876 2.609 1.507 3.963.874 1.878 3.057 3.235 5.833 4.184.4 1.561.894 2.778 1.503 3.409 1.389 1.437 4.13 1.95 6.23 1.95 2.114 0 3.951-.469 5.145-1.284 1.193.815 3.029 1.282 5.143 1.284h.001c2.103 0 4.843-.513 6.231-1.951.609-.631 1.102-1.848 1.502-3.408 2.777-.948 4.961-2.307 5.836-4.185 4.001-8.589 1.979-13.563.606-15.617l1.714 1.944.469-1.105c1.541-3.639 1.244-6.846.785-8.775l1.588.909m-42.643-26.342c2.477.1 7.216.817 9.372 2.728l.321.284.415-.128c2.377-.728 4.961-.788 7.404-.788l1.256.002 1.256-.002c2.442 0 5.025.061 7.403.788l.415.128.32-.284c2.156-1.91 6.895-2.628 9.371-2.728.478 1.858 1.766 8.099-1.672 10.481l-.466.323.198.521c.424 1.12.786 2.374 1.098 3.731.086 1.03.366 5.166-.26 8.895-1.551 5.286-4.648 6.121-7.281 5.69-.529-1.822-1.564-4.006-3.062-6.634 3.493 2.112 9.333.049 8.806-5.302-.281-2.86-.324-3.106-5.947-2.527-5.625.58-5.619.831-5.336 3.689.093.928.355 1.719.739 2.381.196 2.081-.239 4.418-.804 5.875-2.476-.576-7.123-.553-9.559-.003-.436-1.373-.8-4.165-.731-6.053.331-.624.561-1.354.646-2.2.281-2.858.289-3.109-5.336-3.689-5.623-.579-5.666-.333-5.947 2.527-.531 5.384 5.383 7.438 8.869 5.262-1.355 2.48-2.298 4.668-2.785 6.618-2.697.55-5.988-.136-7.602-5.638-.623-3.723-.346-7.852-.26-8.889.312-1.357.673-2.612 1.099-3.733l.197-.521-.466-.323c-3.437-2.381-2.148-8.622-1.671-10.481m24.065 41.692l-.723-1.327c0 0-.533 1.841-2.115 2.756l-.016-1.755c0 0-.566 1.385-2.084 2.357-.084-1.214-.203-2.216-.359-2.801-.158.588-.277 1.595-.361 2.814-1.533-.974-2.104-2.371-2.104-2.371l-.016 1.755c-2.894-2.271-2.461-4.937-2.461-4.937-2.207-.047-7.313-3.879-1.512-14.356-.279 1.814.549 3.929.549 3.929l.018.005c.202.694 2.135 2.079 5.218 2.257.063 1.506.307 3.287.507 4.327-1.422.846-3.014 2.14-4.779 3.839 4.334-.94 7.934-5.246 11.07-2.927.673 1.08 1.406 3.294-.832 6.435m-14.299-22.276c1.02 0 1.844-.839 1.844-1.873 0-.337-.095-.624-.248-.866 1.055.261 1.015.689.886 1.734-.552 4.468-8.489 3.811-7.937-.657.198-1.614.23-1.756 4.156-1.432-.336.284-.545.7-.545 1.221 0 1.034.826 1.873 1.844 1.873m15.306 15.856c-.101 0-.159-.004-.159-.004-1.152-2.095-2.853-2.512-5.059-1.572-.162-.963-.349-2.429-.408-3.68 3.068-.185 4.984-1.563 5.188-2.254l.019-.006c0 0 .86-1.65.808-3.929 4.674 8.372 2.951 11.445-.389 11.445m5.687-15.856c1.018 0 1.843-.839 1.843-1.873 0-.606-.286-1.065-.724-1.347 1.13.076 1.194.5 1.325 1.558.553 4.468-7.385 5.125-7.938.657-.198-1.616-.203-1.758 3.754-2.087.176-.015.334-.026.496-.04-.366.285-.6.714-.6 1.259.001 1.034.826 1.873 1.844 1.873m-28.652 10.796c1 1.068 2.241 1.61 3.688 1.61.809 0 1.673-.179 2.592-.517-.183 1.597-.012 3.03.557 4.335.531 1.22 1.294 2.076 2.044 2.677-2.226-.865-3.501-1.798-3.524-1.815l-1.061-.8-.3 2.541c-4.608-2.557-5.154-6.721-5.176-6.905l-.188-1.68-2.509 2.845c-1.479-4.647.228-8.324.247-8.363l.89-1.867c.296 2.984 1.041 6.122 2.74 7.939m-5.653-4.765l.024-.015c-.458 1.931-.757 5.138.786 8.775l.468 1.105 1.744-1.977c-.72 1.086-1.718 3.146-1.748 6.266-1.864-.413-3.293-1.402-4.087-2.852-1.016-1.852-.859-4.221.429-6.498.958-1.691 1.749-3.285 2.384-4.804m2.896-3.354l-2.828 1.621c.362-3.227 1.668-5.537 2.705-6.911-.054 1.387-.063 3.297.123 5.29m-8.357-11.5c.334-.554 1.092-.927 1.886-.927.501 0 1.42.15 1.944 1.163.372.717.712 1.494.982 2.349-.697.516-1.746 1.412-2.941 2.871 0 0 1.425 1.113 3.479 1.84-.023.357-.075.738-.129 1.121-.259.6-.492 1.263-.69 1.976-.949.342-2.229.925-3.524 1.926 1.185-3.239 1.628-6.233-.834-10.454-.293-.498-.558-1.227-.173-1.865m.091 14.625c.253-.616.496-1.211.721-1.797.388.365 1.335 1.201 2.518 1.89-.418.956-.914 1.967-1.488 3.035-.713.05-1.769.194-3.167.549.462-1.353.962-2.573 1.416-3.677m4.319 17.378c-2.033-.605-3.833-1.75-5.016-3.273-1.826-2.35-2.217-5.514-1.131-9.147.085-.283.176-.55.265-.822.076.662.407 1.913 1.808 2.301-.286.998-.401 1.992-.337 2.951-.499.354-1.197.76-2.165 1.121 0 0 1.144 1.57 2.722 1.239.098.235.195.471.319.696.21.384.466.734.741 1.07-.181.463-.453 1.015-.871 1.586 0 0 1.304.324 2.192-.327.481.355 1.005.669 1.577.922.014.455-.006 1.026-.104 1.683m6.484 5.591c-.184-.393-.353-.778-.511-1.163.653.173 1.245.19 1.245.19-.775-.703-1.4-1.385-1.913-2.005-.153-.469-.296-.938-.417-1.406l-.199-.776c0 0-2.735.235-4.467-.376.39-.132 1.153-.484 1.501-1.208.497.12 1.008.219 1.544.268l.862.079c1.834 2.283 5.076 3.713 5.076 3.713-2.75-3.846-3.9-7.197-4.375-9.151.159-.493.338-.907.517-1.256.728 1.239 1.851 2.606 3.57 3.775.146 3.802.45 8.413 1.091 12.05-1.792-.759-3.038-1.688-3.524-2.734m16.11 7.136c-.663.767-2.38 1.264-4.374 1.264-2.078 0-3.994-.536-4.764-1.335-.297-.306-.564-.875-.806-1.644 2.149-2.725 6.722-4.645 6.722-4.645-3.613-2.411-6.371-1.477-7.723-.679-.107-.88-.205-1.806-.29-2.764 3.06-3.041 6.634-2.66 6.634-2.66-2.866-3.183-5.576-2.673-6.965-2.066-.014-.256-.025-.51-.037-.766.006.003.009.005.014.007l.947.428.25-2.119c1.012.59 2.715 1.43 4.984 2.051.353 1.164 1.114 2.575 2.75 3.857l2.426 1.904.01-1.069c.082.049.167.096.254.143l.291.155c-.121 3.158-.046 7.046.223 9.306l-.546.632m12.49-7.069c-1.354-.786-4.113-1.701-7.727.71 0 0 4.57 1.925 6.72 4.648-.24.768-.508 1.334-.804 1.64-.771.799-2.686 1.335-4.765 1.335h-.001c-1.994 0-3.71-.497-4.373-1.264l-.545-.631c.27-2.263.344-6.157.223-9.317l.27-.145c.086-.047.17-.093.253-.142l.005.588 2.256-1.304c.503-.291.924-.644 1.273-1.013l.621 1.141 1.166-1.635c1.26.091 3.608.564 5.714 2.654-.085.948-.181 1.865-.286 2.735m-4.356-7.073c.248-.47.442-.923.586-1.355 1.389-.509 2.484-1.059 3.21-1.481l.249 2.119.949-.428c.004-.002.01-.005.015-.008-.013.264-.023.528-.038.792-1.061-.471-2.889-.882-4.971.361m10.713 4.01c-.517.624-1.146 1.313-1.93 2.023 0 0 .588-.018 1.24-.188-.158.381-.318.762-.504 1.161-.488 1.045-1.732 1.974-3.527 2.733.641-3.638.944-8.249 1.09-12.052 1.72-1.169 2.842-2.535 3.57-3.774.179.348.359.761.52 1.253-.476 1.953-1.625 5.307-4.379 9.155 0 0 2.775-1.225 4.646-3.214-.152.894-.382 1.855-.726 2.903m2.459-12.688l-2.499-2.831-.197 1.664c-.022.187-.567 4.351-5.177 6.907l-.301-2.54-1.059.799c-.021.016-1.099.812-3.008 1.612.047-.646 0-1.235-.115-1.754.715-.293 1.472-.814 2.012-1.737.521-.892.702-1.94.566-3.188.777.253 1.516.388 2.211.388.002 0 .002 0 .003 0 1.446 0 2.687-.543 3.687-1.61 1.699-1.817 2.443-4.956 2.739-7.941l.892 1.869c.018.037 1.726 3.714.246 8.362m-1.121-10.409c.188-1.992.178-3.904.125-5.292 1.037 1.375 2.343 3.685 2.705 6.912l-2.83-1.62"/></svg>