<svg xmlns="http://www.w3.org/2000/svg" viewBox="0 0 64 64" enable-background="new 0 0 64 64"><path d="m61.989 16.547l-.027-.933-.919-.021c-2.791-.073-4.992.396-6.369 1.333l-.172.117-.11.179c-.735 1.195-1.156 3.005-1.228 5.255-1.106.943-2.379 1.832-3.791 2.65-1.272-.799-2.77-1.407-4.342-1.797.029-.018.064-.035.094-.053l.178-.113.115-.177c1.376-2.108 2.035-5.487 1.904-9.769l-.028-.932-.919-.021c-1.072-.025-2.094.001-3.061.072 1.989-2.096 3.374-5.356 3.211-10.337 0 0-2.908 8.135-9.72 8.844-.216-.249-.438-.501-.671-.756l-.134-.149c-1.298-1.464-2.868-2.501-11.29-2.501-8.136 0-9.742 1.233-10.995 2.844-.083.107-.166.213-.254.316-.082.096-.155.191-.236.287-7.245-.269-10.328-8.885-10.328-8.885-.164 5.015 1.243 8.283 3.252 10.378-1.005-.071-2.07-.095-3.199-.063l-.919.026-.021.933c-.102 4.217.598 7.672 1.97 9.727l.117.175.178.111c.799.499 1.806.906 3.001 1.212.087 1.508 1.065 3.018 2.099 4.614 1.166 1.8 2.358 3.66 2.444 5.614-.863 1.624-.868 3.398-.868 4.718 0 .704.099 1.331.28 1.896v14.775c0 3.244 2.559 5.884 5.703 5.884 3.14 0 5.693-2.64 5.693-5.884v-7.082h4.157v7.072c0 3.25 2.56 5.894 5.706 5.894 2.966 0 5.409-2.347 5.682-5.337 2.314-.023 4.189-1.968 4.189-4.359v-3.322c.865-.052 1.729-.154 2.578-.359v4.05c0 3.007 2.369 5.453 5.281 5.453 2.914 0 5.285-2.446 5.285-5.453v-16.725c0-3.152-1.178-6.122-3.34-8.488 1.313-.834 2.513-1.736 3.581-2.69 2.019-.119 3.649-.566 4.731-1.3l.174-.118.109-.18c1.125-1.826 1.289-4.61 1.229-6.625m-52.781 7.736c0-.175.006-.351.013-.527l.034-.836-.808-.167c-1.221-.253-2.221-.6-2.976-1.032-.979-1.595-1.514-4.207-1.532-7.453 3.086-.008 5.569.409 7.275 1.214l.743.351.194-.286c2.944.587 5.52.083 5.799-.392.902-1.531.3-4.877-1.705-4.591 1.053-.63 3.183-1.158 8.466-1.158 6.48 0 8.407.639 9.293 1.314-.213-.039-.424-.078-.643-.131-2.154-.527-2.816 2.989-1.887 4.566.297.503 3.178 1.039 6.342.269l.102.152.725-.293c1.693-.684 4.016-1.046 6.758-1.059.002 3.253-.516 5.881-1.485 7.497-.74.431-1.729.781-2.94 1.042l-.784.169.026 1.352c0 1.013-.855 2.433-1.761 3.937-.87 1.445-1.811 3.026-2.308 4.71-.05-.042-.096-.087-.148-.128-.354-1.492-1.156-2.612-2.286-3.179-1.464-.731-3.314-.421-4.985.83-1.217-.12-2.564-.181-4.014-.181-1.45 0-2.797.061-4.012.18-1.67-1.25-3.519-1.563-4.986-.828-1.124.563-1.921 1.676-2.278 3.152-.507-1.735-1.515-3.311-2.445-4.745-.92-1.418-1.787-2.758-1.787-3.749m3.681 15.161c0-2.195.145-3.978 1.968-5.268l.328-.232.071-.4c.188-1.059.657-1.824 1.319-2.156.256-.129.54-.193.845-.193.73 0 1.576.369 2.383 1.039l.314.262.404-.045c1.244-.14 2.655-.21 4.193-.21 1.536 0 2.947.07 4.195.21l.404.045.315-.262c1.143-.949 2.362-1.277 3.227-.846.662.332 1.13 1.097 1.318 2.156l.071.4.328.232c1.824 1.29 1.969 3.072 1.969 5.268 0 2.293-.913 4.529-11.828 4.529-10.911.001-11.824-2.236-11.824-4.529m27.535 12.86h-2.225v-3.27h2.225v3.27m13.142-16.356v16.724h-6.688v-6.71l-1.272.426c-1.347.451-2.734.68-4.122.68h-5.222v9.039h-7.539v-9.039h-8.033v9.049h-7.521v-12.221c2.345 1.617 6.411 2.046 11.546 2.046 8.264 0 13.767-1.104 13.767-6.497 0-1.248-.005-2.906-.737-4.456.074-1.922 1.233-3.863 2.365-5.743.928-1.539 1.801-3.003 1.996-4.402 2.434.168 4.873.977 6.678 2.242l.491.345.024-.013.648.587c2.334 2.113 3.619 4.934 3.619 7.943m5.659-14.002c-.854.5-2.229.81-3.905.875l-.225.009c.03-1.886.325-3.426.835-4.381.896-.527 2.358-.839 4.13-.888-.028 1.889-.318 3.416-.835 4.385"/><path d="m42.93 20.804c.713-1.093 1.043-2.917.975-5.138-1.846-.043-3.395.177-4.497.618.871 1.713 1.378 3.408 1.612 5.234.771-.167 1.423-.404 1.91-.714"/><path d="m5.424 15.667c-.053 2.267.309 4.095 1.018 5.157.532.332 1.235.576 2.065.737.314-1.597.929-3.271 1.944-5.083-1.146-.598-2.907-.874-5.027-.811"/><ellipse cx="33.193" cy="22.569" rx="3.611" ry="3.909"/><ellipse cx="16.231" cy="22.569" rx="3.612" ry="3.909"/><path d="m28.275 41.747c1.572.788 3.797-.633 4.965-3.173 1.172-2.541.846-5.24-.727-6.028-1.573-.787-3.795.635-4.967 3.174-1.173 2.542-.845 5.24.729 6.027"/><path d="m21.158 41.747c1.571-.787 1.898-3.485.727-6.025-1.167-2.541-3.393-3.963-4.964-3.176-1.575.789-1.9 3.487-.729 6.028 1.17 2.54 3.394 3.961 4.966 3.173"/></svg>