<svg xmlns="http://www.w3.org/2000/svg" viewBox="0 0 64 64" enable-background="new 0 0 64 64"><path d="m15.407 22.607c.819-.208 1.694-.321 2.628-.321.917 0 1.786.272 2.611.736l.624-1.33c-1.222-.655-2.269-1.581-3.094-2.682-.906.951-2.031 1.694-3.306 2.126l.537 1.471"/><ellipse cx="32.47" cy="52.639" rx="2.334" ry="2.58"/><ellipse cx="23.809" cy="47.922" rx="1.729" ry="2.967"/><ellipse cx="21.579" cy="36.216" rx="1.384" ry="1.989"/><path d="m11.373 26.328c-4.432 6.493 8.823 9.495 7.417 0-1.477 4.891-7.969 4.963-7.417 0"/><path d="m16.434 13.685c0-2.484-2.015-4.497-4.501-4.497-2.479 0-4.499 2.013-4.499 4.497 0 2.489 2.02 4.503 4.499 4.503 2.486 0 4.501-2.015 4.501-4.503"/><path d="m59.033 41.9c-.711.841-1.563 1.574-2.53 2.16-.963.58-2.072 1.004-3.27 1.078-1.195.069-2.436-.285-3.451-.94-1.025-.669-1.818-1.524-2.496-2.52-1.354-1.979-1.814-4.491-1.525-6.839.316-2.353 1.315-4.611 2.975-6.384.842-.868 1.865-1.613 3.061-2.052 1.186-.439 2.549-.541 3.789-.182 1.309.354 2.418 1.303 3.021 2.441.615 1.136.834 2.403.729 3.628-.111 1.217-.51 2.462-1.424 3.424-.908.955-2.422 1.429-3.715.81-1.215-.645-1.853-2.013-1.544-3.297.173-.64.605-1.182 1.198-1.42.291-.125.649-.168.945-.048.293.118.504.335.641.577-.955-.869-1.932.265-2.039 1.05-.127.882.498 1.847 1.26 2.145.369.151.797.116 1.215-.017.405-.135.755-.385 1.039-.719.574-.67.85-1.645.872-2.595.017-.955-.197-1.924-.659-2.699-.455-.779-1.177-1.324-1.999-1.52-1.776-.458-3.675.36-4.993 1.805-2.701 2.846-3.592 7.609-1.549 11.084 1.006 1.725 2.615 3.227 4.646 3.3 2.03.113 4.094-.938 5.803-2.27 3.243-4.168 3.741-10.847 1.913-14.881-2.707-5.967-7.984-6.869-7.984-6.869-1.634-.361-3.295-.362-4.799.121-1.505.458-2.832 1.342-3.93 2.438-1.09 1.108-1.999 2.404-2.687 3.819-.707 1.403-1.237 2.906-1.587 4.454-.748 3.09-.842 6.34-.496 9.55.338 3.007 1.119 5.974 2.162 8.905 5 2.061 9.64 3.067 11.07 3.717 3.976 1.807 5.029 4.535 2.247 4.816-13.308 1.346-23.096 2.03-29.929 2.03-6.763 0-10.63-.67-12.142-2.029-8.541-7.677-9.363-28.842.08-34.35l-.747-2.041c-4.535-.006-8.204-3.665-8.204-8.174 0-4.515 3.676-8.173 8.216-8.173 2.35 0 4.462.985 5.959 2.556 1.724-2.296 4.469-3.789 7.572-3.789 5.227 0 9.457 4.211 9.457 9.406 0 5.194-4.23 9.407-9.457 9.407-.677 0-1.336-.074-1.973-.208l-.996 2.125c2.059 2.176 3.745 5.498 5.02 8.677 0-.001 0-.001 0-.001-1.547.818-2.672 3.265-2.672 6.158 0 3.563 1.705 6.449 3.805 6.449 1.196 0 2.261-.938 2.957-2.4 2.758 2.498 6.188 4.339 9.486 5.718-1.625-2.595-2.785-5.512-3.396-8.565-.679-3.342-.677-6.851.101-10.227.813-3.341 2.41-6.646 5.139-8.944 1.342-1.146 2.996-1.969 4.736-2.247 1.742-.269 3.52.038 5.008.804-3.478-5.588-9.537-8.473-15.881-8.328-.779-5.542-5.558-9.824-11.334-9.824-2.924 0-5.657 1.08-7.754 3.017-1.687-1.161-3.678-1.784-5.777-1.784-5.633 0-10.216 4.564-10.216 10.173 0 4.839 3.415 8.904 7.97 9.926-3.083 2.758-5.059 7.241-5.639 12.906-.925 9.027 2.037 18.576 7.203 23.221 1.982 1.781 6.013 2.541 13.479 2.541 6.799 0 16.374-.648 30.132-2.039 2.716-.275 3.227-2.124 3.318-2.685.349-2.122-1.544-4.399-4.938-5.942-.255-.115-.58-.234-.94-.355 5.939-3.309 6.448-9.079 6.448-9.079"/><path d="m25.421 19.23c3.039 0 5.501-2.463 5.501-5.502 0-3.038-2.463-5.498-5.501-5.498-3.03 0-5.499 2.46-5.499 5.498.001 3.039 2.469 5.502 5.499 5.502"/></svg>