<svg xmlns="http://www.w3.org/2000/svg" viewBox="0 0 64 64" enable-background="new 0 0 64 64"><path d="m55 46.934c0-3.309-2.613-6-5.826-6-.835 0-1.627.186-2.346.513.687-4.363-3.457-9.421-3.457-13.167 0-1.154-.17-2.244-.506-3.254.972-1.781 2.566-4.501 5.184-8.643 2.646-4.188-.157-13.81-1.713-14.369-.956-.346-9.035 6.096-9.281 11.458-.102 2.231-.213 4.104-.326 5.696-2.047-.751-4.588-1.168-7.659-1.168-3.069 0-5.61.417-7.658 1.169-.112-1.593-.225-3.465-.326-5.696-.245-5.363-8.325-11.804-9.282-11.458-1.556.559-4.359 10.181-1.713 14.369 2.617 4.141 4.213 6.859 5.185 8.641-.338 1.011-.508 2.101-.508 3.256 0 5.004-7.434 12.352-.809 17.252 1.197.886 2.72 1.733 4.491 2.449.16 5.228.612 11.015 2.202 12.695 1.608 1.698 6.883 1.822 8.412.031.002.011.003.022.006.033.002-.012.003-.022.005-.034 1.528 1.792 6.804 1.668 8.411-.03.357-.378.652-.98.904-1.72 2.121 1.472 11.084.03 11.67-2.214.384-1.474.577-2.808.637-4.023 2.475-.694 4.303-3.021 4.303-5.786m-15.62-32.845c.768-4.259 4.626-7.173 5.573-6.83 1.539.553 2.249 5.464.844 8.527-1.627 3.551-2.747 6.067-3.53 7.876-.825-1.533-2.129-2.818-3.944-3.775.297-1.603.646-3.512 1.057-5.798m-27.037 1.698c-1.402-3.063-.695-7.974.843-8.527.948-.344 4.808 2.57 5.574 6.83.412 2.285.76 4.194 1.057 5.798-1.813.957-3.117 2.242-3.942 3.774-.784-1.808-1.905-4.326-3.532-7.875m25.331 33.384c-1.038 3.604-6.771 7.056-8.251 7.893.005-.207.011-.414.013-.621-.011-1.433-.076-2.865-.365-4.298-.29 1.433-.356 2.865-.366 4.298.001.207.008.414.012.621-1.549-.877-7.76-4.618-8.36-8.4 2.568.814 5.533 1.336 8.713 1.336 3.162 0 6.109-.518 8.668-1.324-.02.161-.043.327-.064.495m-8.604-.138c-9.341 0-17.109-6.734-15.457-10.725.462-1.115 1.958-1.671 3.822-1.865.225.146.455.267.689.361 1.052.422 2.152.438 3.195.281 1.043-.186 2.049-.514 2.991-.988-1.01.246-2.019.463-3.029.467-1.001.029-2.011-.111-2.881-.535-.216-.105-.421-.234-.601-.379-.088-.074-.173-.15-.237-.223l-.034-.045c.001 0 .002.004.001.004-.001-.001-.008-.014-.013-.022l-.07-.169c-.188-.488-.336-1.02-.439-1.549-.213-1.057-.257-2.159-.013-3.161.225-.984.783-1.926 1.46-2.645.679-.729 1.56-1.17 2.485-1.141.227.01.471.041.686.1.24.064.465.143.684.246.441.203.845.506 1.192.889.716.75 1.181 1.805 1.438 2.916-.029-.673-.182-1.34-.424-1.974 1.057-2.267 2.3-4.277 3.261-5.573.902-1.221 1.683-1.221 2.585 0 .959 1.296 2.203 3.307 3.26 5.574-.244.633-.395 1.3-.424 1.973.258-1.111.723-2.164 1.438-2.916.348-.383.752-.686 1.193-.889.219-.104.442-.182.684-.246.215-.059.458-.09.686-.1.926-.029 1.805.412 2.484 1.141.676.719 1.236 1.66 1.461 2.645.244 1.004.199 2.104-.014 3.161-.103.529-.25 1.061-.439 1.549l-.071.172c-.005.009-.011.02-.011.021-.002-.002 0-.006 0-.006l-.035.045c-.061.072-.146.148-.235.223-.18.145-.383.273-.6.379-.871.424-1.88.564-2.882.535-1.01-.004-2.02-.221-3.029-.467.943.475 1.949.803 2.991.988 1.042.156 2.144.141 3.196-.281.234-.095.463-.215.688-.361 1.865.195 3.359.752 3.822 1.865 1.653 3.991-6.114 10.725-15.454 10.725m12.605 4.011c-.692.299-1.331.718-1.909 1.225-.182.169-.358.348-.531.533.037-.297.069-.601.1-.908.012-.012.02-.025.029-.037.548-.646 1.254-1.154 2.021-1.501 1.557-.682 3.328-.652 4.835-.072-1.613.008-3.159.138-4.545.76m8.976-2.414c-.335-3.593-1.98-5.859-3.39-7.158.566-.333 1.214-.538 1.912-.538 2.145 0 3.884 1.79 3.884 4 .001 1.67-.994 3.097-2.406 3.696"/><ellipse cx="36.918" cy="32.034" rx="2.551" ry="3.206"/><ellipse cx="21.225" cy="32.034" rx="2.551" ry="3.206"/><path d="m36.895 41.877c-.887.447-1.914.629-2.906.59-1.002-.061-1.951-.322-2.712-.822-.761-.48-1.321-1.17-1.483-1.93l-.218-1.015c.531-.074 1.134-.276 1.757-.692 1.317-.877 1.7-1.895 1.204-2.305-.695-.574-2.83-.619-3.467-.619-.638 0-2.773.045-3.469.619-.494.41-.111 1.428 1.205 2.305.625.417 1.229.618 1.76.692l-.221 1.015c-.164.758-.721 1.449-1.484 1.93-.744.5-1.742.76-2.688.82-1.045.037-2.026-.141-2.929-.59-.894-.432-1.636-1.139-2.015-2.037.052.961.687 1.896 1.598 2.543.242.175.515.325.799.459.942 1.404 3.469 4.094 7.442 4.094 3.979 0 6.505-2.694 7.444-4.097.281-.134.551-.284.798-.458.909-.645 1.544-1.58 1.599-2.541-.377.9-1.12 1.605-2.014 2.039m-5.227 2.607h-5.195v-1.363c.414-.134.818-.293 1.197-.506.547-.314 1.023-.732 1.4-1.213.375.48.853.898 1.4 1.213.372.212.779.371 1.197.505v1.364z"/></svg>