<svg xmlns="http://www.w3.org/2000/svg" viewBox="0 0 64 64" enable-background="new 0 0 64 64"><path d="m62 32.15c0-2.852-.239-6.468-1.421-9.975 2.317-4.364 1.584-18.64-.675-19.975-2.075-1.228-11.511 3.4-15.704 7.534-1.515-.201-3.146-.314-4.927-.314-1.759 0-3.371.111-4.87.307-4.207-4.024-13.723-8.691-15.671-7.54-2.38 1.409-3.09 15.251-.725 19.882-1.213 3.54-1.458 7.201-1.458 10.081 0 1.313 1.556 3.711 4.192 6.147-.004-.004-.008-.008-.013-.012-.557.564-3.272 3.702-1.785 10.008-.662.031-1.313-.002-1.931-.117-1.328-.244-2.639-.828-3.893-1.738-1.105-.803-2.153-1.826-3.204-3.129-.445-.564-.919-1.182-1.338-1.85-.431-.688-.802-1.35-1.104-1.963-.714-1.444-1.154-2.792-1.306-4.005-.083-.662-.077-1.277.021-1.832.094-.543.282-1.021.546-1.383.254-.35.565-.586.932-.705.307-.102.647-.111.985-.031.77.176 1.554.838 2.1 1.773.546.924.918 2.141 1.079 3.52.086.744.467 1.414 1.073 1.886.607.471 1.364.686 2.135.607.216-.021.429-.066.633-.133 1.287-.422 2.08-1.634 1.929-2.942-.012-.09-.025-.178-.043-.264l-.006-.031c-.473-2.146-1.233-3.92-2.329-5.424-.695-.943-1.497-1.725-2.385-2.324-1.044-.707-2.226-1.16-3.411-1.307-1.299-.168-2.668.055-3.801.621-1.105.541-2.056 1.439-2.674 2.523-.53.926-.843 1.98-.929 3.133-.067.938.013 1.924.242 2.936.372 1.629 1.046 3.204 2.123 4.96.43.695.915 1.396 1.483 2.141l.206.268c.442.572.9 1.164 1.398 1.727 1.281 1.469 2.568 2.623 3.931 3.531 1.636 1.094 3.421 1.803 5.165 2.049 1.011.151 2.068.136 3.13-.006.307.826.676 1.692 1.127 2.607.68 1.378 3.219 2.639 5.723 3.189.412 1.721.959 3.076 1.694 3.8.337.332.805.608 1.347.841l-.018.03.979.322.002-.009c.783.221 1.662.355 2.56.408l-.003.028h.67c.021 0 .042 0 .063 0h.3l-.001-.006c1.02-.015 2.021-.136 2.895-.378l.003.019.975-.332-.021-.033c.52-.231.965-.512 1.279-.857.314.346.76.626 1.279.857l-.021.033.975.332.003-.019c.872.242 1.874.363 2.893.378l-.001.006h.302c.021 0 .042 0 .063 0h.668l-.004-.026c.898-.053 1.779-.188 2.563-.409l.001.01.977-.322-.017-.03c.541-.231 1.01-.509 1.347-.841.734-.724 1.281-2.079 1.694-3.8 2.503-.55 5.043-1.812 5.724-3.189 4.798-9.721.808-14.387.099-15.106 2.63-2.434 4.181-4.827 4.181-6.137m-5.83-23.326c.544.321 1.111 4.099 1.044 7.279-1.719-2.018-4.049-3.748-7.186-4.943 2.551-1.507 5.589-2.663 6.142-2.336m-6.676 14.378c-.423.47-.76 1.619-.76 3.45 0 4.926 2.436 4.926 2.436 0 0-2.114-.448-3.315-.961-3.615 4.062-.731 6.236 2.563 6.236 2.563s-.188 4.262-4.594 5.406c-4.408 1.145-6.77-2.457-6.77-2.457s.191-4.13 4.413-5.347m-16.027 5.347c0 0-2.362 3.602-6.77 2.457-4.406-1.145-4.594-5.406-4.594-5.406s2.175-3.295 6.236-2.563c-.512.3-.96 1.501-.96 3.615 0 4.926 2.434 4.926 2.434 0 0-1.831-.336-2.98-.759-3.45 4.222 1.217 4.413 5.347 4.413 5.347m-11.001-19.736c.5-.296 3.51.864 6.061 2.345-3.111 1.186-5.432 2.896-7.146 4.891-.083-3.171.493-6.887 1.085-7.236m1.226 45.48c.061-.657.992-.378 2.414-.014.107.687.228 1.339.363 1.951-1.71-.463-2.843-1.201-2.777-1.937m6.127 6.533c-.731-.329-1.188-.745-1.188-1.205 0-.618.804-.48 2.03-.262l-.842 1.467m3.369.683c-.964-.043-1.84-.18-2.564-.391l.263-1.719c.743.131 1.632.267 2.585.295l-.284 1.815m.881.012l-.285-1.813c.004 0 .008.001.011.001 1.077 0 2.077-.163 2.904-.31l.263 1.72c-.809.235-1.801.38-2.893.402m3.667-.679l-.89-1.468c1.275-.228 2.112-.385 2.112.247.001.467-.47.889-1.222 1.221m1.537-5.963l-4.429-9.307c-.003 0-.005-.001-.008-.002 1.436.276 2.918.433 4.437.433 1.517 0 2.997-.156 4.431-.432l-4.431 9.308m1.539 5.963c-.752-.331-1.224-.754-1.224-1.221 0-.632.837-.475 2.111-.247l-.887 1.468m3.666.679c-1.092-.021-2.084-.167-2.892-.4l.261-1.721c.828.146 1.828.31 2.907.31.003 0 .005 0 .007 0l-.283 1.811m.88-.012l-.285-1.814c.955-.028 1.844-.164 2.588-.295l.265 1.719c-.727.21-1.603.348-2.568.39m3.371-.682l-.841-1.468c1.227-.219 2.03-.356 2.03.262 0 .46-.458.876-1.189 1.206m3.349-4.597c.136-.611.257-1.265.362-1.951 1.424-.364 2.356-.644 2.415.014.068.736-1.065 1.474-2.777 1.937m-12.805-11.012c-9.209 0-18.13-7.62-18.131-7.62 0 0 8.36-2.701 11.497-5.084 1.979-1.504 4.169-6.486 6.634-6.486s4.654 4.982 6.635 6.486c3.137 2.383 11.498 5.084 11.498 5.084s-8.922 7.62-18.133 7.62"/><path d="m43.33 39.894c-.826-.059-1.607-.318-2.236-.814-.627-.477-1.09-1.159-1.225-1.911l-.044-.247c.449-.111.947-.362 1.464-.86 1.172-1.127 1.514-2.436 1.07-2.965-.617-.738-2.518-.795-3.086-.795-.566 0-2.469.057-3.088.795-.439.529-.098 1.838 1.074 2.965.517.498 1.015.749 1.462.86l-.044.247c-.137.75-.596 1.435-1.227 1.911-.613.494-1.436.754-2.215.813-.863.039-1.672-.139-2.416-.582-.737-.43-1.35-1.13-1.663-2.021.044.953.567 1.88 1.317 2.519.744.639 1.764 1.016 2.723 1.057 1.041.057 2.047-.234 2.922-.822.451-.313.846-.727 1.154-1.203.311.477.703.889 1.156 1.201.861.588 1.906.881 2.9.824 1.006-.045 1.986-.418 2.742-1.057.75-.641 1.273-1.565 1.318-2.519-.313.891-.926 1.591-1.662 2.021-.73.442-1.578.622-2.396.583"/></svg>