<svg xmlns="http://www.w3.org/2000/svg" viewBox="0 0 64 64" enable-background="new 0 0 64 64"><path d="m62 20.068c-1.628-4.158-4.755-6.221-4.755-6.221 1.153-.584 2.839-.188 2.839-.188-2.346-3.313-7.732-4.201-7.732-4.201.684-.556 2.961-.883 2.961-.883-3.457-2.229-8.367-1.416-8.367-1.416.28-1.063 1.515-1.75 1.515-1.75-4.83-1.396-9.589.581-9.589.581.123-1.081 1.543-2.04 1.543-2.04-2.129-.586-8.275 1.063-8.275 1.063.581-1.375-.607-2.707-.607-2.707-2.223 1.583-6.426 1.447-6.426 1.447.282-.807 1.209-1.753 1.209-1.753-3.369 0-5.481.626-6.814 1.462-.96.13-1.841.366-2.635.676-.546.09-1.201.316-1.693.851-.404.262-.762.546-1.077.845-.203-.179-.411-.46-.482-.902 0 0-1.052 1.509-.75 2.661-.114.299-.186.599-.208.896-.032-.01-.063-.021-.094-.029-.729-.23-1.637-.518-2.414-.518-.655 0-1.293.143-1.877.417-.66-.83-1.674-1.337-2.752-1.337-1.941-.001-3.52 1.573-3.52 3.507 0 1.741 1.283 3.18 2.953 3.451l.683 1.623.65-1.291.912-.275h3.407c.384.135.851.391 1.356.893.487.483.872.957 1.333 1.285h-4.941l-1.218-.367-.395-.785-.581 1.152h-1.566c-1.43 0-2.593 1.161-2.593 2.588 0 .787.361 1.484.917 1.959-.515 1.671.028 3.899 2.81 5.355-.87-.969-.624-2.802-.624-2.802.877 2.394 2.876 2.417 3.905 2.251-2.197 2.393-3.305 5.965-3.305 10.703 0 9.803 4.301 14.772 12.785 14.772 3.786 0 8.407-.992 14.128-3.034 4.062-1.447 7.927-2.213 11.18-2.213 4.285 0 7.278 1.376 7.278 3.346 0 2.128-2.394 5.234-13.539 8.07-.508-.576-1.251-.994-2.1-1.066-3.014-.256-4.07 1.104-5.594.9 0 0 .881.586 2.073.691 0 0-2.251 1.236-6.024.553 0 0 2.61 2.48 5.752 1.766 0 0-.313.777-1.16 1.387 0 0 1.888.559 3.582-.705 0 0 .229.471-.905 1.264 2.579-.17 4.001-.925 4.641-1.836.345-.011.69-.022 1.025-.036.038.252.139.433.139.433.195-.184.452-.34.743-.476 1.693-.086 3.262-.21 4.707-.376-.305.44-.755.92-.755.92 4.378-.396 6.194-1.832 6.194-1.832.16.639-.844 1.529-.844 1.529 4.302-.264 5.494-3.313 5.494-3.313.849.404.71 1.172.71 1.172 3.503-1.75 3.7-5.295 3.7-5.295.8.209 1.747.895 1.747.895 1.009-4.25-1.13-6.707-1.13-6.707.287.299 1.717.373 1.717.373-.055-3.547-2.809-4.938-2.809-4.938.863-1.008 2.685-.094 2.685-.094-1.821-4.625-6.697-4.156-6.697-4.156.556-.781 2.747-1.438 2.747-1.438-2.314-1.572-7.979-.781-7.979-.781 4.814-1.203 6.149-4.596 6.149-4.596.231.637.085 2.736.085 2.736 3.564-2.938 2.762-6.686 2.762-6.686 1.174.357 1.744 1.967 1.744 1.967 2.593-5.094-.25-8.364-.25-8.364 1.4.002 2.316-1.033 2.316-1.033m-43.874-11.22c0 1.016-.83 1.838-1.852 1.838-1.022 0-1.852-.822-1.852-1.838 0-.077.014-.151.023-.227.676-.156 1.492-.795 2.812-1.326.521.326.869.896.869 1.553m-14.645 1.681c0-1.107.914-2.008 2.037-2.008.793 0 1.499.446 1.84 1.165l.376.791.713-.5c.501-.351 1.089-.536 1.7-.536.551 0 1.339.249 1.972.449.599.188.951.296 1.246.296.152 0 .275-.03.38-.074.325.646.885 1.147 1.573 1.396-.752-.038-1.606-.259-2.63-.822-2.193-1.207-4.006-.631-4.664-.076-.658.557.158 1.715 1.184 1.051 1.353-.875 2.367.199 4.221.813.082.027.155.041.234.064h-8.144c-1.123-.001-2.038-.901-2.038-2.009m7.987 3.508h6.347c-.133.056-.259.102-.403.17-1.778.77-2.774 2.424-4.576.824-.558-.496-.995-.799-1.368-.994m8.052 1.44c-.15.427-.552.738-1.038.738h-2.139c1.156-.427 2.289-.68 3.177-.738m-16.039 3.326c0-.6.499-1.088 1.111-1.088h13.889c1.345 0 2.44-1.031 2.567-2.341.171-.278.158-.819-.172-1.234-.39-.939-1.316-1.603-2.396-1.603h-1.432c1.74-.644 2.744-2.109 4.559-1.752-1.273-.736-2.239-.419-3.273.004.479-.509.779-1.189.779-1.941 0-.741-.292-1.412-.76-1.918.925-.253 2.044-.419 3.439-.378 0 0-2.176-1.579-5-.735 0 0-.005-.016-.008-.027 1.138-.553 2.63-.944 4.475-.944 4.186 0 7.592 3.375 7.592 7.522 0 4.149-3.406 7.524-7.592 7.524h-13.639c-1.247-1.873-2.909-1.642-3.937-.499-.117-.173-.202-.368-.202-.59m3.164 3.462c1.273 1.704 3.543 1.062 3.543 1.062s-.948-.158-1.801-1.935h12.873c2.239 0 4.288-.815 5.872-2.157.976.608 2.069.779 2.069.779-.703-1.148-.496-1.881-.32-2.21.134-.016.266-.031.401-.046 2.213 1.282 4.836-.076 4.836-.076-.14-.093-.267-.188-.391-.285 1.108-.059 2.218-.097 3.3-.097 4.209 0 11.27.554 11.27 4.263 0 3.089-2.156 4.654-6.41 4.655-2.528 0-5.657-.571-9.301-1.697-3.574-1.104-8.881-2.571-13.657-2.571-4.188 0-7.379 1.11-9.583 3.291-1.627-.942-2.701-2.976-2.701-2.976m35.359 10.547c-3.725 0-7.22-.52-9.496-.955-.592-.113-1.271-.26-2.014-.419-2.684-.578-6.358-1.368-9.548-1.368-6.476 0-7.835 3.371-7.835 6.2 0 2.146.543 3.843 1.615 5.044 2.708 3.035 8.659 2.822 17.902-.661 3.981-1.502 7.803-2.264 11.358-2.264 7.989 0 13.568 4.043 13.568 9.832 0 6.136-3.214 9.836-19.356 10.43-.003-.019-.002-.038-.005-.057 9.655-2.492 14.361-5.588 14.361-9.453 0-2.943-3.438-4.846-8.76-4.846-3.418 0-7.454.795-11.672 2.299-5.56 1.983-10.021 2.948-13.636 2.948-7.605 0-11.303-4.342-11.303-13.272 0-8.627 3.841-12.82 11.744-12.82 4.579 0 9.741 1.431 13.226 2.507 3.783 1.169 7.057 1.762 9.732 1.762 6.865-.001 7.891-3.856 7.891-6.155 0-3.824-4.289-5.763-12.75-5.763-1.523 0-3.096.069-4.648.178-.89-1.323-.854-2.505-.854-2.505 4.117 2.104 6.111-1.959 6.111-1.959-4.031.668-6.173-1.813-6.173-1.813 3.054.445 4.052-1.866 4.181-2.205 9.93.711 21.911 3.713 21.911 14.065.002 7.464-5.231 11.25-15.55 11.25m-24.059 3.764c-4.566.891-1.296-2.594-1.296-2.594.479 2.203 3.164 1.219 3.164 1.219-.803-3.266 3.688-2.844 3.688-2.844-.957 1.656.756 2.703.756 2.703 1.79-1.547 6.536-1.363 6.536-1.363-1.382.691-2.199 2.754-2.199 2.754 3.857.078 6.102-.625 6.102-.625-1.688 2.459-4.145 3.018-4.145 3.018-.485-1.475-3.331-1.408-3.331-1.408.006 2.078-4.66 3.625-4.66 3.625-.016-2.188-1.837-2.922-1.837-2.922-2.33 3.859-3.478 1.533-3.478 1.533 1.518-1.221.7-3.096.7-3.096"/><ellipse cx="16.274" cy="8.848" rx=".926" ry=".92"/><path d="m5.887 8.753c-.532-.263-1.645 1.388-1.111 1.648 1.383.688 2.5-.963 1.111-1.648"/></svg>