<svg xmlns="http://www.w3.org/2000/svg" viewBox="0 0 64 64" enable-background="new 0 0 64 64"><path d="m50.06 4.788c-2.129-1.285-3.509-.818-4.228-.318-.792-.505-1.59-.93-2.378-1.225-2.114-.791-5.543-1.245-9.408-1.245s-7.295.454-9.408 1.245c-.789.295-1.587.72-2.379 1.225-.721-.498-2.101-.96-4.224.322-4.831 2.921-15.184 1.764-9.056 14.349.938 1.923 1.667 3.294 2.31 4.108-.058 4.848 1.047 10.71 3.28 15.047-.781 1.26-1.952 3.748-1.855 7.185-5.409-1.305-9.714-7.673-9.714-7.673 0 7.954 6.191 11.56 10.358 11.599.381 1.292.938 2.664 1.75 4.117.853 1.525 3.449 2.585 5.659 3.103.463 1.67 1.048 2.814 1.772 3.521 1.407 1.371 4.102 1.852 6.295 1.852.134 0 .267-.001.396-.004 2.002-.055 3.695-.494 4.817-1.232 1.122.738 2.814 1.178 4.814 1.232 2.254.052 5.197-.394 6.692-1.849.714-.696 1.296-1.848 1.76-3.519 2.212-.518 4.816-1.576 5.672-3.105 3.889-6.953 2.143-12.222.928-14.547 2.315-4.451 3.181-10.78 2.965-15.827.624-.825 1.334-2.161 2.235-4.013 6.13-12.586-4.223-11.427-9.053-14.348m-33.193 47.815c-3.215-5.749-2.181-10.062-1.119-12.32.876 1.271 1.88 2.315 3.01 3.048.128.268.351.689.671 1.196.143 4.215.422 7.489.865 9.967-1.803-.548-3.106-1.318-3.427-1.891m3.309-11.808c-1.626-1.6-1.626-4.2 0-5.797l6.421-6.303c.742-.729 1.67-1.314 2.713-1.758-.35.374-.563.85-.563 1.488 0 1.766 4.217 3.331 5.3 3.331 1.081 0 5.3-1.565 5.3-3.331 0-.639-.214-1.115-.563-1.489 1.045.444 1.974 1.03 2.719 1.758l6.416 6.304c1.627 1.597 1.626 4.197.001 5.796-.786.77-1.83 1.192-2.941 1.192-1.011 0-1.957-.365-2.714-1.006l-.054-.048c-.038-.033-.077-.063-.176-.138l-5.718-5.611-.703-.69c-.389-.382-.959-.602-1.565-.602-.605 0-1.176.22-1.563.601l-.905.888-5.577 5.46c-.041.03-.082.062-.121.096l-.042.037c-.757.646-1.706 1.014-2.72 1.014-1.115-.001-2.161-.424-2.945-1.192m9.531.125c.432 2.359 2.49 3.416 4.34 3.416 1.849 0 3.907-1.057 4.338-3.416.13-.704.003-1.605-.364-2.687l2.524 2.479.609.598-2.382 2.339c-1.102 1.079-2.823 1.698-4.725 1.698-1.902 0-3.627-.619-4.73-1.697l-2.38-2.338 3.134-3.074c-.368 1.077-.493 1.979-.364 2.682m1.685-3.332h1.838l.816 4.756.816-4.756h1.838c.59 1.354.834 2.437.701 3.163-.331 1.809-1.924 2.617-3.354 2.617-1.433 0-3.024-.809-3.355-2.617-.133-.727.11-1.809.7-3.163m1.907 21.264c-.637.694-2.218 1.157-4.124 1.21-2.233.058-4.383-.465-5.217-1.279-1.238-1.207-2.046-5.128-2.411-11.653 1.881 1.85 4.8 3.762 9.178 4.426-.372-.512-.616-1.309-.616-2.215 0-.179.017-.352.036-.521.312.084.625.174.935.24-.007.093-.016.186-.016.281 0 1.274.54 2.272 1.23 2.398.46.034.928.061 1.412.07-.029.706-.048 1.411-.051 2.117.011 1.434.058 2.867.214 4.302l-.57.624m10.835-.07c-.834.814-2.986 1.333-5.216 1.279-1.907-.053-3.487-.516-4.122-1.21l-.576-.627c.155-1.434.199-2.867.207-4.301-.004-.706-.023-1.412-.054-2.118 6.067-.083 9.895-2.397 12.175-4.639-.363 6.5-1.172 10.407-2.414 11.616m7.094-6.18c-.322.574-1.631 1.348-3.441 1.895.451-2.49.736-5.771.878-9.947.095-.149.183-.293.259-.426.377-.225.743-.438 1.131-.674.979-.596 1.837-1.432 2.59-2.436.883 2.351 1.481 6.403-1.417 11.588m-2.241-10.789c-5.77 3.517-10.206 5.697-14.492 5.697-3.928 0-7.993-1.845-13.083-4.855.542.185 1.113.3 1.706.3 1.122 0 2.18-.362 3.063-1.005l2.424 2.379c1.291 1.262 3.274 1.986 5.442 1.986 2.166 0 4.148-.725 5.437-1.987l2.425-2.38c.885.644 1.943 1.007 3.067 1.007 1.381 0 2.679-.525 3.653-1.48 2.007-1.974 2.007-5.183 0-7.154l-5.363-5.27c.994.722 2.235 1.155 3.584 1.155 3.248 0 5.891-2.49 5.891-5.551 0-3.062-2.643-5.552-5.891-5.552s-5.892 2.49-5.892 5.552c0 1.213.42 2.333 1.123 3.247-1.937-1.815-4.849-2.86-8.038-2.86-3.197 0-6.117 1.051-8.048 2.877.712-.917 1.137-2.043 1.137-3.264 0-3.062-2.644-5.552-5.892-5.552-3.248 0-5.89 2.49-5.89 5.552 0 3.061 2.642 5.551 5.89 5.551 1.357 0 2.605-.439 3.604-1.169l-5.381 5.283c-1.977 1.941-1.997 5.077-.081 7.058-3.905-3.048-6.039-11.258-6.084-17.644.773-.733 1.614-2.558 2.788-5.591.955-2.468.964-4.354 1.183-6.04 2.297-3.134 5.328-6.02 8.089-7.053 1.865-.697 5.113-1.114 8.688-1.114s6.821.417 8.687 1.114c2.763 1.033 5.795 3.921 8.093 7.057.218 1.685.229 3.568 1.181 6.032 1.254 3.238 2.126 5.088 2.943 5.713.199 6.793-1.734 15.383-5.963 17.961m-.789-13.358c.782 0 1.507-.219 2.125-.58-.886.84-2.115 1.362-3.473 1.362-2.697 0-4.891-2.057-4.891-4.583 0-2.527 2.193-4.584 4.891-4.584 1.358 0 2.588.523 3.475 1.363-.619-.362-1.344-.581-2.127-.581-2.234 0-4.044 1.703-4.044 3.802 0 2.1 1.81 3.801 4.044 3.801m-28.303-7.602c-.783 0-1.507.219-2.126.581.886-.841 2.115-1.363 3.473-1.363 2.697 0 4.892 2.057 4.892 4.584 0 2.526-2.194 4.583-4.892 4.583-1.357 0-2.586-.522-3.473-1.362.619.361 1.343.58 2.126.58 2.233 0 4.042-1.701 4.042-3.801 0-2.099-1.809-3.802-4.042-3.802"/><path d="m28.039 31.623l-.899-.843-.898.845.898.843z"/><path d="m25.899 33.946l-.898-.845-.898.845.898.845z"/><path d="m26.916 34.791l.897.845.899-.845-.899-.845z"/><path d="m43.989 33.946l-.898-.845-.899.845.899.845z"/><path d="m41.85 31.625l-.898-.845-.898.843.898.845z"/><path d="m41.177 34.791l-.899-.845-.898.845.898.845z"/></svg>