<svg xmlns="http://www.w3.org/2000/svg" viewBox="0 0 64 64" enable-background="new 0 0 64 64"><path d="m60.52 28.301c-.069-.153-.146-.292-.219-.437 4.609-4.403-1.62-11.837-1.62-11.837s-1.718 4.913-2.096 8.352c-.067-.017-.134-.042-.202-.055-3.227-.593-6.942-.869-11.691-.869-2.188 0-4.288.056-6.319.109-1.754.046-3.411.09-4.899.09-5.346 0-6.173-.683-6.299-.891.003-2.608-.513-5.073-1.498-7.208 1.705-2.439 1.725-5.856 1.169-7.313-.463-1.215-1.337-1.347-1.692-1.347-.247 0-.485.057-.711.169-.333.164-.869.432-1.492.774 2.421-1.95 5.655-2.113 5.655-2.113-5.606-2.074-8.751.31-10.331 2.929 1.351-4.638 6.625-6.645 6.625-6.645-7.261-.252-9.841 3.978-10.547 7.586-1.264.45-2.48 1.211-3.599 2.278-2.384 2.277-2.838 4.017-3.319 5.857-.504 1.93-1.131 4.332-4.548 8.751-1.14 1.476-.937 2.769-.713 3.409.536 1.539 2.196 2.635 4.795 3.169.043.009.094.016.14.024-.147 3.9 4.968 5.674 4.968 5.674s-1.681-2.97-.458-7.052c.005-.003.009-.005.014-.008.515-.282 1.202-.382 1.931-.487.794-.115 1.764-.256 2.668-.723.484 4.172 1.908 10.475 6.025 15.569.189.959.741 5.104-1.4 14.047l-.454 1.897h1.874 3.209 1.023l.352-1.002 2.974-8.477.116-.328-.034-.348c-.121-1.282-.103-2.717.025-3.516 1.249.347 2.781.517 4.653.517 5.347 0 11.872-1.417 14.397-2.018 1.303 1.935 3.464 3.61 4.741 4.503-.416 1.585-1.01 4.673-.928 9.17l.028 1.499h1.437 3.397 1.271l.179-1.313c.328-2.413 1.999-10.956 2.016-11.042l.085-.433-.15-.413c-1.036-2.858-1.032-4.379-.999-4.826 2.762-5.367 2.184-11.858.451-15.672m-.821 21.039c0 0-1.101 5.616-1.704 9.098h-3.713c.148-5.113 1.188-7.764 1.188-7.764s-4.452-2.743-5.775-5.587c0 0-8.563 2.233-15.1 2.233-1.89 0-3.609-.187-4.904-.668-.095-.036-.184-.053-.267-.053-1.481 0-.963 5.397-.963 5.397l-2.261 6.44h-3.463c2.033-9.569.853-13.104.853-13.104-6.574-7.876-6.127-19.282-6.127-19.282-.813 4.579-4.162 3.006-6.511 4.294-1.823 1-2.459 1.295-3.072 1.295-.198 0-.395-.031-.627-.079-3-.616-4.761-2.137-3.227-4.119 6.735-8.713 3.253-10.18 7.716-14.44.782-.746 1.589-1.295 2.401-1.679-.084 1.699.214 3.001.498 3.179 1.23.771 3.972.222 3.562-1.566-.18-.782-.25-1.516-.238-2.206.795.122 1.568.389 2.296.794 1.559-1.463 3.839-2.599 4.809-3.079.028-.015.056-.021.083-.021.71.001 1.127 4.588-1.239 6.922 1.116 2.005 1.799 4.539 1.799 7.399 0 2.023 3.136 2.437 7.76 2.437 3.208 0 7.129-.199 11.219-.199 3.816 0 7.781.175 11.438.847 3.751.688 6.286 10.666 2.532 17.646-.001-.001-.467 1.726 1.037 5.865"/><ellipse cx="12.97" cy="19.409" rx="1.485" ry="1.494"/><path d="m5.136 27.635c-.145.211-.251.721-.052.87.201.152.635-.113.779-.322.146-.209.101-.502-.101-.653-.201-.152-.482-.104-.626.105"/><path d="m10.461 27.465c-.178.569-.408 1.114-.708 1.615-.589 1.015-1.463 1.801-2.474 2.471.58-.151 1.143-.417 1.64-.794.496-.375.924-.861 1.253-1.408.644-1.102.905-2.444.656-3.67-.062.62-.198 1.214-.367 1.786"/><path d="m24.653 10.136c-.515.226-4.039 2.019-4.564 3.685-.356 1.126-.194 1.092.185.694.384-.403 1.413-.676.99-.403-.422.274-.655.603-.183.443.467-.153 1.243-.199.591.063-.65.259-1.499.894-1.305 1.2.197.299.583.236.936.077 3.916-1.735 3.951-6.022 3.35-5.759"/></svg>