<svg xmlns="http://www.w3.org/2000/svg" viewBox="0 0 64 64" enable-background="new 0 0 64 64"><path d="m60.931 41.725c-1.308-.935-3.411-1.246-5.493-1.386 1.629-.784 2.55-.628 3.566-.565 1.801-2.715 2.347-4.279 2.347-4.279s-12.507-6.014-22.106-2.668c-3.009 1.049-5.563 2.396-7.592 3.908-.033-.589-.123-1.162-.279-1.712 2.089-1.537 6.528-4.886 7.754-6.425 4.446-5.59-4.949-14.404-6.057-16.412.727 2.17 4.316 10.684 3.032 12.457-2.36 3.258-5.076 5.417-6.988 6.677-.727-.69-1.566-1.272-2.511-1.683-3.038 6.355-9.256 10.107-9.256 10.105.001 0-1.594-1.25-2.781-3.094-.5 3.25.932 5.104 2.614 6.596-.508.365-.92.693-1.132.93-2.555 2.857 5.655 6.787 6.816 7.701-.893-1.008-5.419-5.332-4.897-6.236.175-.305.636-.673 1.231-1.058 1.157.552 2.458.87 3.84.87 1.124 0 2.194-.212 3.179-.585-.072.938.04 1.861.375 2.743.542 1.426 1.589 2.584 3.007 3.452.523 4.017 2.82 8.238 3.137 9.487-.082-1.278-.611-5.203-.713-8.404 1.437.447 3.096.676 4.91.682.515 1.62 1.347 3.654 2.7 5.885-.071-1.121-.273-3.768-.447-5.998 2.191-.207 4.551-.707 7.023-1.568 1.855-.646 3.557-1.63 5.098-2.793-1.82 3.99-7.033 11.875-8.191 13.648 2.015-2.137 15.886-14.742 10.91-18.303-1.313-.939-3.43-1.25-5.521-1.388 2.575-.127 5.811-.17 7.313.901.458.328.742.737.885 1.209.705-.109.942-.175 1.695-.355 2.574-.619-6.776 13.51-8.377 15.961 2.013-2.136 15.881-14.742 10.909-18.3m-9.865 4.173c.361-.087.773.828.719 1.25-10.422 3.02-14.205-1.878-14.205-1.878l.029-.019c1.518.687 6.145 2.403 13.457.647"/><path d="m28.253 26.415c1.956-1.111 3.272-3.148 3.272-5.485 0-2.253-1.224-4.229-3.066-5.364-1.503-2.894-4.137-5.15-7.349-6.24.402-.534.813-1.056 1.248-1.552.821-.945 1.718-1.818 2.701-2.414.98-.604 2.009-.854 2.97-.705.082.014.171.02.257.018.77-.018 1.381-.629 1.359-1.365-.015-.74-.653-1.326-1.423-1.308l-.098.004c-1.702.037-3.272.816-4.347 1.785-1.1.973-1.877 2.1-2.559 3.229-.399.665-.751 1.34-1.089 2.018-1.075-.274-2.201-.428-3.365-.428-1.165 0-2.291.153-3.365.428-.338-.678-.689-1.353-1.088-2.018-.682-1.129-1.461-2.256-2.565-3.229-1.073-.969-2.639-1.748-4.341-1.785l-.106-.004c-.082 0-.163.004-.247.018-.761.117-1.28.805-1.154 1.533.125.728.841 1.222 1.602 1.103.958-.148 1.985.102 2.97.705.981.596 1.877 1.469 2.697 2.414.436.496.847 1.018 1.25 1.552-3.211 1.089-5.845 3.345-7.348 6.238-1.844 1.135-3.069 3.113-3.069 5.367 0 2.346 1.326 4.391 3.295 5.499 3.497 6.181 11.561 11.382 11.558 11.38 0 .002 7.932-5.204 11.4-11.394m-3.389-11.208c3.189 0 5.774 2.563 5.774 5.723 0 3.164-2.585 5.725-5.774 5.725-3.189 0-5.774-2.561-5.774-5.725 0-3.16 2.585-5.723 5.774-5.723m-16.204 11.447c-3.189 0-5.772-2.561-5.772-5.725 0-3.16 2.583-5.723 5.772-5.723 3.189 0 5.774 2.563 5.774 5.723 0 3.165-2.585 5.725-5.774 5.725"/><ellipse cx="24.864" cy="20.932" rx="3.968" ry="3.936"/><path d="m8.66 16.996c-2.188 0-3.969 1.762-3.969 3.934 0 2.174 1.78 3.938 3.969 3.938 2.192 0 3.971-1.764 3.971-3.938-.001-2.172-1.779-3.934-3.971-3.934"/></svg>