<svg xmlns="http://www.w3.org/2000/svg" viewBox="0 0 64 64" enable-background="new 0 0 64 64"><path d="m61.339 45.458c.082-4.336-1.342-8.522-2.133-10.505-.715-7.881-5.752-13.836-12.12-14.079-1.868-6.206-6.999-9.774-14.525-9.774-.876 0-1.875.097-2.977.289-1.654-.969-3.177-1.389-4.97-1.389-1.894 0-4.093.493-6.811 1.232-6.065 1.65-10.617 12.115-12.804 17.145-.186.426-.349.801-.489 1.114-3.259 6.232-2.754 11.276-1.753 14.411 1.447 4.538 4.572 7.482 7.013 8.725 1.667.849 3.588 1.298 5.553 1.298 4.04 0 7.51-1.863 9.286-4.984.525-.924.625-1.78.297-2.547-.494-1.149-1.638-1.436-2.395-1.625-.386-.098-.785-.197-1.072-.365-.288-.168-.576-.471-.854-.763-.521-.549-1.236-1.301-2.344-1.302-.001 0-.001 0-.001 0-.618 0-1.483.241-2.199 1.348-.259-.026-.623-.152-.909-.32-.878-.514-1.517-1.451-1.753-2.572-.203-.966-.129-2.074.212-3.285.274.086.563.131.86.131.053 0 .105-.001.158-.004 1.053.792 3.243 2.438 6.523 2.438 1.317 0 2.68-.271 4.066-.8.003.003.006.008.008.011v22.714h1.664 1.039 10.945v-10.276l.972.15c.605.096 1.195.188 1.777.277v9.849h3.496.932 11.982v-17.792c.658-1.775 1.064-3.707 1.216-5.669.586 2.075 1.093 4.7.978 7.381-.658 1.08-1.139 2.103-1.371 2.974-.027 1.123.326 2.473.994 3.801 1.074-1.523 1.851-3.004 2.17-4.196.02-.91-.218-1.968-.661-3.041m-46.392-9.781c-.019 0-.037.004-.052.011-.153.065-.303.096-.444.096-.767 0-1.297-.864-.757-1.45.74-.803.618-1.451.026-1.974-.072.38-.197.757-.4 1.114-1.616 2.842-2.225 5.504-1.763 7.702.344 1.633 1.304 3.015 2.634 3.793.532.312 1.273.581 1.946.581.569 0 1.089-.194 1.388-.722.259-.454.488-.632.715-.632.587 0 1.17 1.173 2.257 1.81 1.51.882 3.416.394 2.492 2.018-1.57 2.76-4.618 4.044-7.667 4.044-1.646 0-3.293-.375-4.707-1.094-4.134-2.105-10.106-9.871-4.429-20.672 1.615-3.595 6.38-15.719 12.106-17.277 2.773-.755 4.715-1.167 6.321-1.167 1.714 0 3.048.468 4.603 1.491 1.126-.229 2.288-.392 3.345-.392 7.432 0 13.458 3.824 13.458 13.597 0 9.773-6.025 13.597-13.458 13.597-3.293 0-5.402-1.2-6.734-3.186-1.799.916-3.359 1.252-4.695 1.252-3.675 0-5.647-2.54-6.185-2.54m41.265 8.033l-.061.159v16.273h-1.133c-.079-1.136-.711-2.024-1.487-2.024s-1.405.889-1.483 2.024h-.031c-.078-1.136-.71-2.024-1.486-2.024s-1.406.889-1.484 2.024h-.031c-.078-1.136-.71-2.024-1.487-2.024-.201 0-.392.063-.567.17v-7.291l-.828-.092c-1.712-.188-3.803-.517-6.016-.865l-3.125-.485v10.588h-1.133c-.078-1.136-.71-2.024-1.486-2.024-.775 0-1.407.889-1.485 2.024h-.03c-.078-1.136-.709-2.024-1.486-2.024-.776 0-1.405.889-1.483 2.024h-.031c-.078-1.136-.71-2.024-1.488-2.024-.16 0-.313.049-.459.119v-16.42c1.396.797 3.357 1.418 6.124 1.418 8.623 0 15.029-5.18 15.029-15.195 0-2.126-.465-3.874-1.023-5.216 5.367.854 9.4 6.715 9.4 14.058-.004 2.359-.427 4.72-1.23 6.827"/><path d="m17.126 23.484c-1.817.451-2.866 2.271-2.35 4.06.299 1.033 1.059 1.816 1.993 2.22.632-.75 1.477-1.421 2.492-1.916.73-.355 1.475-.586 2.198-.701.04-.403.013-.823-.108-1.242-.517-1.789-2.41-2.874-4.225-2.421"/><path d="m33.579 37.541c6.465 0 10.172-3.999 10.172-10.969 0-6.971-3.707-10.968-10.172-10.968-1.39 0-2.411.356-3.12 1.089-1.348 1.392-1.262 3.793-1.154 6.833.031.875.064 1.806.064 2.776 0 1.585-.39 3.15-.732 4.53-.523 2.103-.975 3.918.049 5.223.795 1.013 2.35 1.486 4.893 1.486m-3.586-6.373c.362-1.458.773-3.11.773-4.866 0-.987-.034-1.934-.065-2.825-.096-2.71-.172-4.851.763-5.817.434-.447 1.125-.665 2.116-.665 3.277 0 8.775 1.244 8.775 9.576s-5.498 9.576-8.775 9.576c-2.022 0-3.298-.32-3.793-.951-.605-.769-.23-2.28.206-4.028"/></svg>