<svg xmlns="http://www.w3.org/2000/svg" viewBox="0 0 64 64" enable-background="new 0 0 64 64"><path d="m62 51.651c0-22.23-14.581-35.651-30.001-35.651-15.293 0-29.999 13.42-29.999 35.651h4.355c-1.146 1.877-2.368 6.289-2.368 9.49 0 1.18 1.576 1.108 1.576 0 0-3.229 1.354-7.602 2.564-9.49h1.108c.301.146.613.288.932.428-1.07 2.059-2.127 6.084-2.127 9.063 0 1.18 1.575 1.108 1.575 0 0-2.736.974-6.296 2.006-8.468.647.245 1.322.479 2.027.7-.845 2.188-1.556 5.328-1.556 7.768 0 1.18 1.576 1.108 1.576 0 0-2.295.685-5.17 1.515-7.318.052.014.107.025.158.04 1.096 5.349 6.085 6.994 16.719 6.994 10.594 0 15.523-1.638 16.604-6.995.051-.014.104-.025.154-.039.83 2.148 1.515 5.023 1.515 7.318 0 1.108 1.575 1.18 1.575 0 0-2.439-.71-5.579-1.555-7.768.704-.222 1.379-.455 2.026-.7 1.032 2.172 2.006 5.731 2.006 8.468 0 1.108 1.575 1.18 1.575 0 0-2.979-1.058-7.004-2.127-9.063.318-.14.631-.281.932-.428h1.108c1.21 1.889 2.563 6.262 2.563 9.49 0 1.108 1.576 1.18 1.576 0 0-3.201-1.223-7.613-2.368-9.49h4.356m-39.752 5.588c-.909.723-2.883-.088-4.411-1.812-1.525-1.72-2.026-3.704-1.113-4.431.909-.723 2.884.088 4.408 1.81 1.527 1.724 2.027 3.713 1.116 4.433m-1.919-9.547c0-2.688 2.219-4.863 4.957-4.863 2.739 0 4.959 2.176 4.959 4.863 0 2.682-2.22 4.859-4.959 4.859-2.739.001-4.957-2.177-4.957-4.859m14.309 8.967c-.746.588-1.717.813-2.639.82-.922-.008-1.893-.234-2.639-.822-.761-.563-1.142-1.539-.932-2.355.175.826.669 1.461 1.332 1.826.663.366 1.451.521 2.238.515.787.005 1.574-.149 2.236-.515s1.157-1 1.333-1.826c.213.816-.168 1.795-.929 2.357m-.882-8.967c0-2.688 2.218-4.863 4.957-4.863s4.958 2.176 4.958 4.863c0 2.682-2.219 4.859-4.958 4.859s-4.957-2.177-4.957-4.859m12.407 7.736c-1.525 1.726-3.499 2.534-4.412 1.812-.91-.721-.41-2.709 1.117-4.433 1.525-1.72 3.502-2.532 4.412-1.808.908.725.408 2.709-1.117 4.429m2.647-5.738c-.864-7.91-8.06-13.918-16.81-13.918s-15.946 6.008-16.81 13.918h-11.242c.007-.281.018-.564.031-.85.028-.01.053-.035.08-.048 2.331-.93 3.955-3.444 3.955-6.321 0-1.826-.639-3.536-1.771-4.794-.001-.002-.002-.006-.004-.008.416-1.119.889-2.217 1.412-3.277.006.004.017.004.023.007 1.79 1.105 3.789 1.69 5.848 1.69 6.824 0 12.376-6.382 12.376-14.228 0-1.033-.099-2.059-.29-3.061 0 0 .001-.002.001-.003 1.844-.5 3.744-.766 5.647-.824l.744 17.505.744-17.503c1.851.056 3.695.308 5.488.782.001.023.008.045.01.069.323 4.235 3.442 7.57 7.235 7.57 1.4 0 2.766-.47 3.932-1.326.014-.008.032-.014.044-.023 1.219 1.131 2.361 2.385 3.409 3.742-.006.009-.012.024-.018.035-1.313 1.871-2.033 4.187-2.033 6.617 0 5.669 3.914 10.298 8.809 10.556.055.006.107.02.162.021.148 1.213.238 2.443.27 3.674h-11.242z"/><ellipse cx="25.285" cy="47.689" rx="3.408" ry="3.341"/><ellipse cx="38.713" cy="47.689" rx="3.408" ry="3.341"/></svg>