<svg xmlns="http://www.w3.org/2000/svg" viewBox="0 0 64 64" enable-background="new 0 0 64 64"><path d="m14.616 42.705l.969.967.97-.967-.97-.966z"/><path d="m7.054 46.754l.97.967.97-.967-.97-.967z"/><path d="m12.49 46.286l1.938 1.931 1.941-1.931-1.941-1.932z"/><path d="m49.239 21.314c1.102 0 1.998-1.342 1.998-3.003 0-1.658-.896-3.001-1.998-3.001-1.104 0-2 1.343-2 3.001 0 1.661.897 3.003 2 3.003"/><path d="m37.396 15.31c-1.104 0-1.999 1.343-1.999 3.001 0 1.661.896 3.003 1.999 3.003 1.106 0 2-1.342 2-3.003 0-1.658-.894-3.001-2-3.001"/><path d="m47.806 27.508c0-.266-.227-.406-.449-.406-.164 0-.327.068-.592.18-.584.247-1.676.707-3.445.707-1.773 0-2.864-.46-3.449-.707-.266-.111-.426-.18-.59-.18-.143 0-.27.053-.353.143-.066.073-.099.161-.099.264 0 .935 2.141 1.784 4.49 1.784 2.347-.001 4.487-.85 4.487-1.785"/><path d="m26.758 41.344l.972.965.969-.965-.969-.967z"/><path d="m24.299 47.721l.97.966.97-.966-.97-.966z"/><path d="m23.234 43.672l1.94 1.932 1.939-1.932-1.939-1.933z"/><path d="m5.882 49.027l.971.966.969-.966-.969-.966z"/><path d="m60.217 38.785c.001-.052.007-.102.007-.154 0-2.764-1.443-5.93-3.865-8.582.213-.197.441-.384.639-.591 2.043-2.136 3.063-4.583 2.949-7.079-.186-4.082-2.158-10.88-7.839-14.06.562-.534 1.036-1.181 1.378-1.901.7.048 1.41-.246 1.874-.849.743-.964.57-2.352-.38-3.102-.953-.753-2.324-.576-3.066.385-.738.966-.568 2.354.381 3.106.105.083.217.149.332.21-.35.68-.836 1.257-1.381 1.71-1.752-.814-3.822-1.299-6.26-1.299-.734 0-1.499.045-2.275.134-.983.113-1.965.369-2.922.737-.424-.788-1.021-1.5-1.752-2.055.184-.686.039-1.447-.457-2.025-.793-.926-2.169-1.024-3.08-.226-.912.8-1.014 2.195-.225 3.119.79.925 2.168 1.024 3.082.226.101-.088.188-.186.269-.287.559.452 1.007 1.008 1.335 1.599-2.877 1.334-5.459 3.735-7.077 6.727-2.335 4.317-2.419 9.088-.237 13.437 1.09 2.174 2.666 3.867 4.63 5.036-.453.787-.808 1.578-1.08 2.361-.244-.569-.623-1.158-1.213-1.745-2.09-2.084-5.808-3.325-6.849-2.285-.869.863-.146 3.579 1.327 5.666-1.328.196-2.558.575-3.657 1.148-1.067-.264-2.185-.41-3.268-.41-3.63 0-6.432 1.185-8.391 2.976l-.076-.002c-.119-.004-.237-.008-.353-.008-2.168 0-4.277 1.123-5.993 2.776-2.794 1.939-4.724 5.033-4.724 8.25 0 2.226 1.358 3.648 3.266 4.543 1.362.994 3.163 1.639 5.083 1.931-.358.994-.422 1.906-.031 2.296.746.744 3.412-.146 4.912-1.638.219-.219.391-.438.54-.656.543-.069 1.095-.16 1.647-.295.48.129.99.227 1.518.305-.459 1.212-.561 2.341-.087 2.813.875.872 4-.169 5.755-1.919.438-.437.749-.876.957-1.304.19-.059.381-.102.569-.174 1.051.386 2.217.634 3.496.717-.523 1.418-.622 2.729-.066 3.281 1.043 1.037 4.759-.202 6.849-2.284.787-.784 1.23-1.575 1.423-2.313 1.985.873 4.283 1.355 6.829 1.355 2.342 0 4.988-.219 7.332-1.213.108.152.221.307.368.453 1.509 1.502 4.53 2.05 5.573 1.011 1.041-1.038.492-4.051-1.016-5.55-.055-.055-.113-.088-.17-.138 1.049-1.886 1.688-4.407 1.688-7.782 0-.104-.016-.213-.021-.318 1.141.271 2.395.201 3.03-.431.959-.958.754-3.865-1.227-5.633m-27.231-11.493c-1.954-3.897-1.877-8.177.216-12.05 2.075-3.837 5.875-6.6 9.68-7.038.719-.083 1.426-.125 2.104-.125 10.131 0 13.236 9.398 13.463 14.368.094 2.076-.783 4.142-2.535 5.974-2.878 3.01-7.691 4.956-12.262 4.956-2.844 0-8.01-.791-10.666-6.085m-21.024 28.311c-.344.343-.651.751-.918 1.179-3.514-.422-6.752-2.161-6.752-5.054 0-3.577 3.425-8.413 7.151-9.36-.045.064-.08.134-.124.199-2.485 3.009-2.673 7.104-.602 10.271.451.875 1.029 1.666 1.719 2.358-.158.12-.316.249-.474.407m8.813-.311c-.435.434-.826.951-1.155 1.497-1.294-.146-2.429-.47-3.409-.931-.103-.302-.263-.566-.466-.769-.373-.373-.943-.617-1.608-.583-1.902-1.68-2.814-4.02-2.814-6.272 0-4.334 3.196-8.998 10.214-8.998.489 0 .987.037 1.482.1-.328.271-.644.559-.938.873-.024.025-.045.056-.07.082-4.774 3.753-5.037 10.508-.495 14.387-.245.17-.493.367-.741.614m11.076-.49c-.594.591-1.115 1.314-1.539 2.069-1.037-.02-1.986-.148-2.847-.377l-.965-.396c-.246-.102-.473-.229-.705-.35-.113-.419-.315-.786-.587-1.057-.413-.412-1.037-.682-1.761-.678-1.42-1.499-2.288-3.496-2.434-5.76-.232-3.621 1.47-6.922 4.441-8.614l1.071-.61c.934-.351 1.984-.578 3.158-.652.658.594 1.316.969 1.939 1.152-3.496 4.344-3.283 10.547 1.27 14.447-.346.221-.693.479-1.041.826m23.564-2.548c-1.112-.24-2.223.236-2.936.949-.64.636-1.101 1.592-1.019 2.581-2.036.878-4.427 1.101-6.802 1.101-2.585 0-4.896-.525-6.82-1.495-.131-.52-.377-.973-.711-1.305-.514-.512-1.297-.847-2.207-.81-1.078-1.1-1.902-2.426-2.416-3.953-1.201-3.578-.386-7.435 1.985-10.211-.779 7.41 9.378 9.821 13.843 9.286 1.908-.229 3.58-.921 4.956-1.722 1.349-.451 2.583-1.068 3.628-1.845.008.112.018.225.018.335.001 3.107-.569 5.394-1.519 7.089m2.212-10.192l-.724.658c-2.023 1.841-5.579 2.983-9.277 2.983-4.549 0-11.315-1.99-11.315-7.473 0-.367.032-.749.099-1.167l.183-1.143c.208-.611.462-1.229.799-1.852.579.256 1.189.456 1.813.631 3.957 2.277 12.305 1.508 15.498-3.08.217-.157.442-.306.648-.471 2.123 2.358 3.373 5.114 3.373 7.481 0 1.35-.412 2.484-1.097 3.433"/><path d="m53.487 48.353l.969.965.972-.965-.972-.966z"/><path d="m51.271 40.023l.968.966.969-.966-.969-.965z"/><path d="m53.019 36.153l1.94 1.933 1.938-1.933-1.938-1.931z"/><path d="m33.621 45.487l.97.966.97-.966-.97-.966z"/><path d="m36.118 48.577l.968.966.97-.966-.97-.966z"/><path transform="matrix(-.7082-.706.706-.7082 40.5817 91.9493)" d="m38.609 36.904h1.369v1.369h-1.369z"/></svg>