<svg xmlns="http://www.w3.org/2000/svg" viewBox="0 0 64 64" enable-background="new 0 0 64 64"><path d="m62 29.167l-.327-1.213c-.09-.329-1.794-6.409-6.707-9.129 4.475-3.601 5.453-8.119 5.502-8.357l.269-1.319-1.083-.753c-.291-.202-2.982-1.982-7.537-1.982-3.678 0-7.488 1.16-11.326 3.448-3.697 2.204-4.594 5.703-5.385 8.789-1.006 3.932-1.824 7.056-7.806 8.482-.436-.053-.921-.124-1.463-.215l2.124-2c0 0-4.656 1.5-6.412.003-.1-.085-.211-.27-.203-.667.016-.726.992-7.256.994-9.148 4.165-.976 6.219-5.271 4.447-6.351-1.251-.764-2.824 1.219-5.736 1.859.027-.383.035-.79-.006-1.242-.227-2.526 3.335-3.503 2.903-4.805-.561-1.689-5.144-.647-7.347 3.071-.261.442-.467.945-.61 1.465-.096-.369-.221-.752-.403-1.162-1.025-2.31 2.176-4.398 1.197-5.522-1.295-1.486-5.063 1.135-5.949 5.393-.176.86-.15 1.831.07 2.696-.088-.077-.161-.153-.257-.231-1.628-1.298.027-4.048-1.194-4.556-1.74-.727-3.314 2.85-2.366 6.347.2.736.606 1.473 1.126 2.036-3.282.371-5.704 3.53-5.811 3.674l-.704.934 1.141-.131c.013-.002.279-.03.689-.03.573 0 1.359.068 2.132.3-1.081 1.144-2.095 2.536-2.73 4.167-1.465 3.758 1.86 1.811 2.537 1.893 0 0 .321.462.725.77-.004.225-.021.436-.021.665 0 2.933.607 11.413.633 11.772l.182 2.524 1.508-1.931c2.675 7.763 8.889 14.146 16.18 15.771.91 1.119 2.32 2.298 3.919 2.797-2.45 3.485-6.984 3.83-6.984 4.721h13.886c0-.921-2.468-.701-4.164-4.698 1.734-.585 3.303-2.302 4.338-4.013 4.563-2.061 8.415-5.941 10.926-10.631 2.637.883 4.91 1.008 5.094 1.016l1.451.063.467-1.419c.076-.23 1.578-4.879.965-9.325 3.662-.733 6.088-2.888 6.209-2.997l.917-.829m-55.251-11.096c-.88-.35-1.803-.483-2.534-.513.958-.968 2.749-2.428 4.808-2.483-.32.561-.615 1.166-.884 1.815-.446.344-.916.739-1.39 1.181m1.663 8.274c0-5.458 1.335-9.306 3.244-11.716.068-.054.139-.104.207-.168.548-.515 1.906-1.326 2.732-1.554.616-.169 2.162-.101 3.132.587.892.637 1.547 1.753 2.849 1.808.041.002.079-.004.12-.003-.037 1.815-.97 8.055-.988 8.91-.019.841.243 1.57.756 2.11.42.442.992.749 1.71.918l-2.159 1.482 1.771 2.147-4.604-.493.684 4.097-4.182-3.104-.576 4.729-2.416-2.999-1.824 2.336c-.188-2.816-.456-7.208-.456-9.087m26.516 25.228l-.297.129-.164.286c-1.192 2.085-2.853 3.54-4.037 3.54-1.321 0-3.026-1.054-4.147-2.561l-.224-.301-.36-.073c-7.158-1.438-13.236-7.949-15.461-15.729l.477-.609 3.759 4.665.727-5.965 5.38 3.996-1.053-6.315 6.516.699c-2.584 1.981-3.816 4.976-3.247 8.088.665 3.629 3.632 6.326 7.558 6.872.908.126 1.807.189 2.674.189 6.772 0 9.977-3.809 10.109-3.972l.377-.459-.217-.559c-.529-1.364-1.602-2.396-2.484-3.061 1.992-1.629 3.151-3.834 3.209-3.945l.496-.956-.964-.433c-.964-.433-3.321-.742-5.056-.922.604-.832.996-1.519 1.021-1.565l.653-1.149-1.254-.324c-.07-.019-1.743-.444-4.081-.444-2.904 0-5.485.635-7.67 1.888-.326.188-.623.399-.918.614l-3.346-4.06.881-.604c2.041.369 3.803.688 4.914.688 4.137 0 8.021-1.21 11.143-2.183 2.222-.691 4.141-1.29 5.55-1.29 1.007 0 2.692 0 2.692 4.811-.001 8.887-5.534 17.724-13.156 21.014m1.541-15.569c1.456.11 3.724.349 5.166.626-.642.919-1.707 2.201-3.074 2.952l-1.688.93 1.727.855c.02.01 1.748.879 2.613 2.302-.987.898-3.628 2.815-8.186 2.815-.781 0-1.593-.058-2.414-.172-3.744-.521-5.508-3.059-5.912-5.262-.486-2.659.819-5.234 3.409-6.72 1.894-1.085 4.157-1.636 6.728-1.636.855 0 1.613.064 2.211.14-.331.468-.744 1-1.195 1.466l-1.493 1.544 2.108.16m15.993-4.77c1.603 4.387-.391 10.441-.391 10.441s-1.973-.09-4.296-.819c1.435-3.23 2.247-6.76 2.247-10.297 0-2.923-.48-6.811-4.632-6.811-1.696 0-3.741.638-6.11 1.375-1.877.585-3.904 1.211-6.048 1.626 5.401-4.245 2.722-11.694 8.528-15.157 4.104-2.446 7.617-3.179 10.355-3.179 4.094 0 6.453 1.641 6.453 1.641s-1.3 6.354-8.643 9.476c7.474.065 9.877 8.961 9.877 8.961s-3.035 2.743-7.34 2.743"/><ellipse cx="6.905" cy="16.349" rx=".65" ry=".326"/><circle cx="12.335" cy="16.675" r="1.5"/></svg>