<svg xmlns="http://www.w3.org/2000/svg" viewBox="0 0 64 64" enable-background="new 0 0 64 64"><path d="m60.329 45.938c-.724-1.639-1.473-3.334-1.473-4.535 0-.965.706-2.881 1.329-4.572 1.381-3.742 2.808-7.612.615-9.873-.607-.627-1.378-.959-2.228-.959-2.248 0-4.234 2.332-6.534 5.031-1.007 1.18-2.673 3.135-3.389 3.451-1.506-.08-2.855-1.863-4.052-3.439-.411-.545-.805-1.063-1.206-1.513.068-.522.459-1.578.682-2.179.629-1.699 1.172-3.166.492-4.426-.329-.613-.893-1.039-1.584-1.203-1.32-.311-2.518-.461-3.66-.461-2.511 0-4.15.736-5.469 1.326-.842.379-1.451.651-2.088.651-.229 0-.465-.034-.725-.103-3.339-.883-6.627-1.331-9.771-1.331-.462 0-.908.016-1.345.041 1.579-.693 2.689-2.3 2.689-4.169 0-1.164-.435-2.26-1.211-3.096.291-.895.438-1.829.438-2.784 0-4.85-3.839-8.796-8.559-8.796s-8.56 3.946-8.56 8.796c0 5.336 4.677 9.623 9.995 8.668.677.889 1.65 1.481 2.725 1.672-2.106.383-3.861 1.086-5.333 2.021-.059-2.809-2.296-5.078-5.05-5.078-2.79 0-5.06 2.327-5.06 5.188s2.27 5.188 5.06 5.188c.061 0 .117-.017.177-.019-1.721 3.035-2.622 6.513-3.399 9.528-.214.829-.434 1.677 3.777 5.788-.388.166-.642.418-.784.594-.385.479-.525 1.105-.387 1.717 1.443 6.396 7.207 11.336 15.418 13.209 2.109.485 4.224.729 6.286.729 5.076 0 8.56-1.494 11.255-3.36.494.655 1.015 1.276 1.529 1.808 2.482 2.563 4.819 1.169 5.922.033 1.103-1.139.553-1.59-1.932-4.15-.398-.412-.852-.826-1.328-1.229 1.957-1.838 3.512-3.287 5.555-3.645.061-.011.123-.016.189-.016 1.104 0 2.77 1.373 4.108 2.477 1.662 1.369 3.231 2.662 4.966 2.662.912 0 1.738-.356 2.393-1.03 2.29-2.362.822-5.683-.473-8.612m-44.329-26.989l-.354-.663-.729.192c-4.385 1.154-8.288-2.327-8.289-6.682 0-3.804 2.985-6.897 6.655-6.897 3.67 0 6.655 3.094 6.655 6.897 0 .934-.177 1.838-.525 2.689l-.269.659.558.443c.641.507 1.008 1.27 1.008 2.089 0 1.453-1.131 2.636-2.521 2.636-.902 0-1.741-.522-2.189-1.363m-8.94 8.609c-1.74 0-3.156-1.476-3.156-3.29s1.416-3.291 3.156-3.291 3.156 1.476 3.156 3.291c0 .769-.265 1.467-.69 2.027-.13.139-.257.28-.381.424-.558.515-1.283.839-2.085.839m52.372 25.673c-.305.315-.647.45-1.021.45-2.301 0-5.788-5.139-9.074-5.139-.174 0-.347.015-.519.045-2.692.471-4.601 2.318-6.751 4.336-2.154-1.516-4.416-2.512-5.16-1.744-.697.718.104 2.808 1.414 4.895-2.468 1.709-5.595 3.027-10.175 3.027-1.945 0-3.929-.236-5.856-.678-6.622-1.512-12.582-5.551-13.986-11.777-.026-.115.042-.166.187-.166 1.263 0 8.347 3.979 8.347 3.979s-11.478-9.771-11.155-11.021c1.052-4.08 2.201-8.33 4.819-11.389.169-.162.319-.34.466-.525 2.218-2.313 5.414-3.822 10.303-3.822 3.083 0 6.249.466 9.282 1.27.438.115.836.165 1.213.165 2.368 0 3.79-1.978 7.557-1.978.918 0 1.977.117 3.221.41 1.66.392-2.096 5.639-.777 7.002 1.656 1.709 3.67 5.811 6.989 5.811 2.489 0 7.136-8.484 9.818-8.484.315 0 .604.117.858.381 2.226 2.295-2.48 9.77-2.48 13.125-.001 3.879 4.865 9.367 2.48 11.827"/><ellipse cx="18.889" cy="38.602" rx="4.761" ry="4.746"/></svg>