<svg xmlns="http://www.w3.org/2000/svg" viewBox="0 0 64 64" enable-background="new 0 0 64 64"><path d="m62 37.128c0-2.365-.884-4.598-2.502-6.352.216-.794.325-1.604.325-2.416 0-4.802-4.051-8.906-9.092-9.499.09-.503.146-1.017.146-1.543 0-5.045-4.26-9.148-9.496-9.148-1.192 0-2.379.219-3.486.639-2.095-4.168-6.423-6.809-11.3-6.809s-9.206 2.642-11.302 6.811c-1.107-.421-2.295-.641-3.487-.641-5.236 0-9.496 4.104-9.496 9.148 0 2.732 1.257 5.183 3.235 6.86-2.23 2.684-3.545 6.069-3.545 9.262 0 4.464 2.083 8.573 5.729 11.337.72 3.759 3.723 6.702 7.483 7.568v3.83c0 3.212 2.283 5.824 5.089 5.824 2.807 0 5.091-2.609 5.094-5.819.395.046.795.072 1.199.072.403 0 .803-.026 1.197-.072.003 3.21 2.285 5.819 5.09 5.819 2.809 0 5.094-2.612 5.094-5.824v-3.818c.342-.077.676-.177 1.004-.288.593 1.61 2.06 2.758 3.782 2.758 1.326 0 2.495-.687 3.238-1.732.485 2.363 2.284 4.131 4.438 4.131 2.526 0 4.582-2.419 4.582-5.392v-5.567c4.041-1.219 6.981-4.852 6.981-9.139m-57.69-19.81c0-3.941 3.363-7.148 7.496-7.148 1.229 0 2.452.293 3.535.847l.976.499.408-1.018c1.556-3.887 5.524-6.498 9.87-6.498s8.313 2.61 9.87 6.496l.407 1.017.976-.498c1.083-.553 2.304-.845 3.534-.845 4.133 0 7.496 3.207 7.496 7.148s-3.363 7.147-7.496 7.147c-2.404 0-4.604-1.065-6.036-2.923l-.663-.859-.802.729c-1.981 1.802-4.568 2.794-7.286 2.794-2.721 0-5.309-.992-7.287-2.795l-.803-.73-.663.859c-1.434 1.858-3.634 2.925-6.036 2.925-4.134.001-7.496-3.205-7.496-7.147m40.749 15.639c-.007 0-.015 0-.022 0-1.891 0-3.592-.156-5.064-.467l-.669-.141-.202.653c-2.097 6.781-7.006 11.163-12.506 11.163-5.516 0-10.431-4.398-12.521-11.205l-.199-.65-.666.135c-1.47.298-3.177.431-5.082.428.022-2.635.544-5.074 1.422-6.679.664.156 1.353.248 2.063.262-.314.107-.606.226-.851.367-.691.959-1.042 2.607-.991 4.652 1.157.03 2.203-.033 3.098-.189-.333-1.545-.523-3.167-.54-4.846 2.469-.129 4.743-1.148 6.417-2.891 2.227 1.721 4.977 2.657 7.848 2.657 2.869 0 5.618-.937 7.846-2.655 1.674 1.74 3.947 2.76 6.418 2.889-.018 1.687-.209 3.315-.543 4.865.884.163 1.927.237 3.09.213.068-2.003-.253-3.649-.949-4.635-.281-.166-.635-.3-1.02-.421.799-.004 1.57-.112 2.312-.296.833 1.601 1.315 4.077 1.311 6.791m-21.663 23.219h-6.183v-3.574c.096.003.191.013.288.013.401 0 .813-.025 1.229-.076 1.208 1.502 2.836 2.601 4.667 3.199v.438zm12.58 0h-6.184v-.438c1.829-.599 3.459-1.697 4.666-3.199.416.051.826.076 1.228.076.098 0 .192-.014.29-.017v3.578m5.92-5.671c.645-.5 1.234-1.073 1.743-1.728.396.085.794.143 1.192.18v1.548h-2.935m11.125 1.329h-5.16v-3.059c1.6-.332 3.111-1.028 4.375-2.07.266-.005.525-.027.785-.052v5.181m-.989-7.129c-.002 0-.003 0-.004 0l-.528-.013-.292.26c-2.045 1.828-4.98 2.509-7.711 1.729l-.701-.2-.405.607c-1.47 2.208-3.977 3.525-6.705 3.525-.479 0-.981-.047-1.489-.139l-.629-.113-.368.524c-1.48 2.109-3.95 3.368-6.605 3.368-2.656 0-5.127-1.259-6.607-3.367l-.367-.523-.628.113c-.51.092-1.012.139-1.492.139-3.946 0-7.326-2.813-7.862-6.544l-.061-.422-.347-.249c-3.324-2.382-5.231-6.012-5.231-9.96 0-2.794 1.193-5.774 3.205-8.126.293.157.593.303.904.43-.996 1.991-1.553 4.872-1.475 7.886l.018.711.711.02c2.031.051 3.869-.055 5.482-.323 2.398 7.088 7.737 11.629 13.749 11.629 5.993 0 11.326-4.522 13.731-11.58 1.621.284 3.468.403 5.485.363l.711-.015.023-.711c.104-3.158-.402-6.042-1.367-8.026 2.242-.947 4.035-2.702 4.976-4.885 4.221.323 7.669 3.646 7.669 7.548 0 .796-.135 1.592-.401 2.365l-.209.606.464.442c1.499 1.433 2.324 3.333 2.324 5.354 0 4.178-3.562 7.577-7.968 7.577"/><ellipse cx="18.855" cy="28.36" rx="3.344" ry="3.153"/><ellipse cx="34.329" cy="28.361" rx="3.343" ry="3.154"/><path d="m19.403 37.128l5.286 3.902c-1.627-3.315-1.829-3.317-5.286-3.902"/><path d="m28.495 41.03l5.289-3.902c-3.459.585-3.659.587-5.289 3.902"/></svg>