<svg xmlns="http://www.w3.org/2000/svg" viewBox="0 0 64 64" enable-background="new 0 0 64 64"><path d="m52.703 37.509c4.143-5.537 6.802-13.174 6.796-16.26.012-.1.021-.197.025-.279.117-2.681-6.126 6.794-12.516 11.879.871-3.064 1.356-6.727 1.356-11.07 0-26.371-32.73-26.371-32.73 0 0 4.344.485 8.006 1.357 11.07-6.39-5.084-12.633-14.56-12.517-11.879.003.082.014.18.025.279-.006 3.086 2.654 10.723 6.796 16.26-5.713.045-10.456-.366-9.046.794.073.06.163.126.259.193 1.825 1.606 7.811 4.229 13.94 5.319-.126.183-.254.362-.378.556-4.176 6.462-13.637 9.31-10.354 10.462.917.398 2.276.612 3.877.612 2.823 0 6.392-.671 9.592-2.169-2.565 4.656-5.574 7.976-3.069 8.622.22.057.469.083.74.087.127.01.257.015.39.015 4.492 0 12.205-5.049 14.754-11.712 2.549 6.663 10.261 11.712 14.753 11.712.134 0 .263-.005.391-.015.27-.004.52-.03.739-.087 2.505-.646-.504-3.966-3.069-8.622 3.2 1.498 6.769 2.169 9.592 2.169 1.601 0 2.96-.214 3.877-.612 3.283-1.152-6.178-4-10.354-10.462-.125-.193-.252-.373-.379-.556 6.129-1.09 12.115-3.713 13.94-5.319.097-.067.187-.134.259-.193 1.41-1.16-3.333-.749-9.046-.794m4.848-11.618c-1.167 3.607-3.338 8.132-6.083 11.6-1.247-.025-2.52-.079-3.771-.179 3.675-2.398 7.222-7.473 9.854-11.421m-17.254 2.005c1.657 0 3 1.344 3 2.999 0 1.656-1.343 3-3 3-1.655 0-3-1.344-3-3 0-1.655 1.345-2.999 3-2.999m-11.745 9.481c.586.247 1.677.707 3.451.707 1.771 0 2.861-.46 3.446-.707.265-.111.428-.18.592-.18.223 0 .449.141.449.406 0 .934-2.14 1.783-4.487 1.783-2.351 0-4.492-.85-4.492-1.783 0-.103.032-.19.099-.264.084-.09.21-.143.353-.143.164.001.324.07.589.181m-3.638-9.481c1.657 0 3 1.344 3 2.999 0 1.656-1.343 3-3 3-1.655 0-3-1.344-3-3 0-1.655 1.345-2.999 3-2.999m-18.465-2.005c2.631 3.948 6.179 9.023 9.854 11.421-1.251.1-2.524.153-3.771.179-2.745-3.469-4.917-7.993-6.083-11.6m1.166 14.289c2.923.42 6.275.841 9.407.841.681 0 1.317-.024 1.925-.064-.615.541-1.229 1.191-1.829 1.952-3.41-.559-6.839-1.619-9.503-2.729m1.98 14.265c-.759 0-1.457-.051-2.063-.147.484-.241 1.041-.499 1.543-.73 2.846-1.315 6.744-3.115 9.499-6.188 1.479-1.649 3.059-2.836 4.568-3.479-.653 1.066-1.221 2.365-1.644 3.917-.373 1.371-.909 2.687-1.515 3.927-3.409 1.909-7.481 2.7-10.388 2.7m36.476 6.511c-4.004-.483-10.818-4.965-13.137-11.025l-.934-2.442-.935 2.441c-2.318 6.061-9.133 10.542-13.136 11.025.494-.742 1.654-1.917 2.558-2.833 2.025-2.052 4.546-4.604 6.24-7.753 1.391-2.581 3.195-4.404 5.082-5.136l.016-.006c.043-.003.307-.003.35 0l.016.006c1.887.731 3.691 2.555 5.082 5.135 1.694 3.149 4.215 5.702 6.24 7.754.904.917 2.064 2.092 2.558 2.834m8.855-7.389c.502.231 1.06.489 1.543.73-.606.097-1.305.147-2.063.147-2.908 0-6.979-.791-10.389-2.7-.605-1.24-1.142-2.556-1.515-3.927-.423-1.552-.99-2.851-1.644-3.917 1.51.643 3.089 1.829 4.568 3.479 2.757 3.073 6.654 4.873 9.5 6.188m-8.044-10.659c-.6-.761-1.213-1.411-1.828-1.952.607.04 1.244.064 1.925.064 3.132 0 6.483-.421 9.407-.841-2.664 1.111-6.094 2.171-9.504 2.729"/></svg>