<svg xmlns="http://www.w3.org/2000/svg" viewBox="0 0 64 64" enable-background="new 0 0 64 64"><path d="m50.278 35.107c-2.174 0-4.518.206-6.764.501-.002-.004-.004-.007-.006-.011 4.648-1.074 11.45-3.208 14.166-6.887 4.306-5.829 5.872-12.616 2.496-16.236-1.182-1.267-2.712-1.87-4.387-1.87-3.111 0-6.722 2.084-9.521 5.876-.107.146-.213.306-.318.462-1.531-4.211-4.905-7.535-9.152-8.989.313-.868.893-1.712 1.688-2.355.08.101.167.199.268.287.914.799 2.293.699 3.083-.226.79-.924.688-2.319-.224-3.119-.912-.8-2.289-.7-3.082.226-.496.577-.641 1.34-.457 2.025-.984.748-1.746 1.774-2.137 2.898-1.253-.344-2.568-.544-3.931-.544-1.362 0-2.677.2-3.931.545-.39-1.124-1.152-2.15-2.136-2.898.184-.686.038-1.448-.458-2.025-.793-.926-2.17-1.025-3.082-.226-.911.8-1.014 2.195-.224 3.119.79.925 2.169 1.024 3.083.226.101-.088.188-.187.268-.287.795.643 1.375 1.486 1.688 2.355-4.247 1.454-7.622 4.778-9.152 8.99-.106-.156-.212-.317-.319-.463-2.799-3.792-6.409-5.876-9.521-5.876-1.675 0-3.205.604-4.387 1.87-3.376 3.62-1.81 10.407 2.496 16.236 2.716 3.679 9.518 5.813 14.166 6.887-.016.028-.028.059-.043.087-2.41-.334-4.961-.575-7.313-.575-5.227 0-9.469 1.188-8.99 5.174.842 7.001 3.712 9.415 7.276 9.415 2.964 0 6.405-1.672 9.557-3.767 1.843 7.147 6.036 10.894 10.348 11.247.551 2.222-.198 4.821-.198 4.821s3.226-2.316 3.109-5.083c3.668-1.019 7.037-4.582 8.69-10.664 3.013 1.942 6.251 3.447 9.062 3.447 3.563 0 6.437-2.416 7.28-9.417.477-3.986-3.764-5.176-8.991-5.176m-18.278-25.962c7.084 0 12.848 5.763 12.848 12.847s-5.764 12.846-12.848 12.846-12.847-5.763-12.847-12.847 5.763-12.846 12.847-12.846m-20.578 38.553c-1.081 0-4.37 0-5.291-7.653-.096-.802.132-1.176.341-1.411.406-.458 1.871-1.524 6.664-1.524 2.193 0 4.585.225 6.867.537.007 2.253.191 4.308.521 6.171-3.123 2.163-6.453 3.88-9.102 3.88m-3.488-20.176c-4.008-5.427-5.095-11.054-2.642-13.684.764-.819 1.747-1.234 2.924-1.234 2.574 0 5.605 1.94 7.911 5.064.422.571.832 1.243 1.23 1.974-.123.767-.204 1.548-.204 2.349 0 4.479 2.003 8.492 5.149 11.217.031.118.067.246.098.36-.15.103-.292.209-.431.317-4.759-1.015-11.625-3.099-14.035-6.363m30.045 24.571c-3.93-.552-8.029-.552-11.959 0-1.079-1.224-2.016-2.814-2.709-4.795 5.617-.394 11.76-.394 17.377 0-.693 1.98-1.629 3.571-2.709 4.795m3.847-10.164c-6.295.51-13.357.51-19.652 0-.107-1.037-.174-2.122-.174-3.284 0-.763.249-1.438.673-2.035 5.996 1.369 12.658 1.369 18.654 0 .424.596.673 1.272.673 2.035 0 1.162-.067 2.247-.174 3.284m.202-8.044c-.138-.108-.279-.215-.43-.316.03-.113.065-.241.097-.358 3.148-2.725 5.152-6.738 5.152-11.219 0-.802-.082-1.583-.205-2.351.398-.729.809-1.401 1.23-1.973 2.306-3.123 5.337-5.063 7.911-5.063 1.177 0 2.16.415 2.924 1.234 2.453 2.63 1.366 8.257-2.642 13.684-2.404 3.256-9.275 5.343-14.037 6.362m15.256 6.159c-.924 7.656-4.214 7.656-5.295 7.656-2.504 0-5.615-1.535-8.585-3.53.375-1.979.593-4.171.595-6.602 2.103-.271 4.271-.461 6.279-.461 4.793 0 6.257 1.066 6.664 1.524.209.237.438.611.342 1.413"/><path d="m39.267 26.104c1.658 0 3.001-1.566 3.001-3.501s-1.343-3.499-3.001-3.499c-1.653 0-2.999 1.564-2.999 3.499s1.345 3.501 2.999 3.501"/><path d="m27.732 22.603c0-1.935-1.343-3.499-3.001-3.499-1.653 0-2.999 1.564-2.999 3.499s1.346 3.501 2.999 3.501c1.659 0 3.001-1.567 3.001-3.501"/><path d="m27.511 30.374c0 .935 2.142 1.784 4.492 1.784 2.348 0 4.487-.85 4.487-1.784 0-.266-.227-.406-.449-.406-.164 0-.327.068-.592.18-.585.247-1.676.707-3.446.707-1.774 0-2.865-.46-3.451-.707-.265-.111-.425-.18-.59-.18-.143 0-.269.053-.353.143-.066.073-.098.16-.098.263"/></svg>