<svg xmlns="http://www.w3.org/2000/svg" viewBox="0 0 64 64" enable-background="new 0 0 64 64"><ellipse cx="18.63" cy="34.553" rx="3" ry="5"/><path d="m45.373 39.406c1.658 0 3.002-2.237 3.002-5s-1.344-5-3.002-5c-1.654 0-2.998 2.237-2.998 5s1.344 5 2.998 5"/><path d="m61.78 12.47l-.13-1.577-1.521-.181c-.129-.016-3.18-.372-6.801-.372-4.598 0-7.906.552-10.047 1.683-1.078-.67-2.162-1.246-3.242-1.742-1.839-5.683-8.339-7.281-8.339-7.281.723 1.552.445 4.635.445 4.635-2.004-2.968-6.045-2.072-6.045-2.072 1.857 1.271 1.729 3.041 1.729 3.041-2.066-.817-4.879.87-4.879.87.516.149 1.007.357 1.477.604-1.291.564-2.592 1.244-3.883 2.06-2.358-1.269-6.217-1.91-11.504-1.91-2.753 0-4.842.179-4.929.186l-1.527.134-.177 1.57c-.444 3.947-1.504 17.044 3.517 19.856-.588 2.348-.885 4.741-.885 7.146 0 19.394 14.41 21.88 26.963 21.88 12.554 0 26.964-2.486 26.964-21.88 0-2.477-.314-4.941-.938-7.354 4.713-2.898 4.068-15.472 3.752-19.296m-4.686 26.65c0 16.816-11.234 19.946-25.091 19.946s-25.092-3.129-25.092-19.946c0-3.108.529-6.052 1.448-8.788-.287.074-.555.115-.798.115-.284 0-.535-.055-.746-.173-4.296-2.407-2.548-17.934-2.548-17.934s2.066-.18 4.772-.18c3.956 0 9.277.384 11.506 2.27 1.906-1.308 3.864-2.331 5.766-3.042 3.911 3.417 5.691 9.608 5.691 9.608.842-5.368 3.927-8.152 6.042-9.467 1.73.68 3.5 1.604 5.232 2.773 1.99-1.633 6.311-2.029 10.051-2.029 3.555 0 6.586.359 6.586.359s1.255 15.24-2.941 17.53c-.215.117-.47.171-.756.171-.184 0-.382-.022-.591-.065.934 2.755 1.469 5.721 1.469 8.852"/><path d="m56.491 16.432c0 0-6.767-.803-9.687.64 3.057 2.758 5.785 6.249 7.662 10.305.071-.018.139-.041.2-.075 2.604-1.421 1.825-10.87 1.825-10.87"/><path d="m9.545 26.976c.048.026.103.044.157.061 1.936-4.047 4.713-7.522 7.812-10.246-2.799-1.517-9.549-.931-9.549-.931s-1.083 9.626 1.58 11.116"/><path d="m45.753 47.514c-.741-6.617-5.968-10.807-13.75-10.807-7.783 0-13.01 4.189-13.75 10.807-8.49 1.462-5.955-19.069-5.955-19.069-7.916 21.077.13 25.906 7.163 25.697.443.614.991 1.122 1.666 1.509 1.709.981 4.021 1.183 6.97 1.182.604 0 1.228-.008 1.866-.015 1.331-.016 2.752-.016 4.082 0 .639.007 1.262.015 1.867.015 3.57 0 6.887-.276 8.642-2.69 7.031.206 15.069-4.626 7.156-25.697-.002-.002 2.534 20.53-5.957 19.068m-9.843 7.868c-.6 0-1.218-.006-1.852-.015-.67-.008-1.356-.017-2.056-.017-.699 0-1.387.009-2.057.017-.633.009-1.251.015-1.851.015-2.729.001-4.843-.17-6.287-.998-.967-.556-2.252-1.7-2.252-5.22 0-8.115 6.43-11.007 12.446-11.007 6.017 0 12.447 2.892 12.447 11.007.001 5.32-2.634 6.218-8.538 6.218"/><ellipse cx="26.137" cy="47.504" rx="3.001" ry="5.5"/><ellipse cx="37.869" cy="47.504" rx="3.001" ry="5.5"/></svg>