<svg xmlns="http://www.w3.org/2000/svg" viewBox="0 0 64 64" enable-background="new 0 0 64 64"><path d="m39.749 39.719c0-6.447-4.737-10.612-12.069-10.612-7.333 0-12.071 4.165-12.071 10.612 0 6.856 5.571 6.856 8.9 6.856.493 0 5.847 0 6.341 0 3.328 0 8.899 0 8.899-6.856m-22.725 0c0-6.125 4.77-9.198 10.656-9.198 5.884 0 10.654 3.073 10.654 9.198 0 4.976-3.148 5.442-7.484 5.442-1.002 0-5.34 0-6.341 0-4.338 0-7.485-.467-7.485-5.442"/><ellipse cx="22.926" cy="38.416" rx="2.61" ry="4.743"/><ellipse cx="32.434" cy="38.416" rx="2.607" ry="4.743"/><path d="m45.875 22.618c.057-.015.123-.015.172-.04 2.108-1.114 1.478-8.521 1.478-8.521s-5.478-.624-7.843.508c2.47 2.157 4.673 4.884 6.193 8.053"/><path d="m15.933 14.344c-2.268-1.191-7.734-.735-7.734-.735s-.877 7.548 1.28 8.716c.039.021.093.019.137.032 1.566-3.165 3.811-5.882 6.317-8.013"/><ellipse cx="15.257" cy="28.198" rx="2.343" ry="4.244"/><ellipse cx="40.102" cy="28.087" rx="2.344" ry="4.243"/><path d="m60.104 25.341c-.284-.322-.626-.56-.982-.736-.343-.162-.699-.271-1.06-.336.908-.929 1.91-1.779 2.938-2.6-1.139.682-2.24 1.435-3.262 2.304-.084.073-.164.153-.248.227-1.817 0-3.762.59-5.219 3.203-1.594-.846-3.076-1.158-3.076-1.158 3.746-2.636 3.238-12.332 2.982-15.324l-.131-1.537-1.532-.176c-.104-.013-2.601-.295-5.558-.295-3.648 0-6.326.416-8.121 1.269-.891-.526-1.787-.976-2.679-1.362-1.066-5.232-6.722-6.82-6.722-6.82.585 1.314.36 3.932.36 3.932-1.623-2.519-4.897-1.758-4.897-1.758 1.504 1.078 1.398 2.581 1.398 2.581-1.673-.693-3.953.737-3.953.737.667.202 1.282.523 1.853.923-1.264.475-2.545 1.092-3.814 1.854-1.976-.971-5.045-1.445-9.313-1.445-2.246 0-3.953.142-4.024.147l-1.538.129-.179 1.532c-.36 3.09-1.198 13.206 2.792 15.788-.439 1.783-.661 3.601-.661 5.425 0 6.578 2.135 10.722 5.377 13.319.001.004 0 .006 0 .01.346 2.308.939 4.115 1.665 5.319v5.016c0 .024.005.046.006.069 0 1.528 0 6.422 0 6.422 4.424 0 5.462-3.572 5.462 0 3.034 0 5.482-2.186 5.482-6.491v-1.632h7.294v1.632c0 4.306 2.447 6.491 5.481 6.491 0-3.572 1.038 0 5.463 0 0 0 0-4.87 0-6.411.001-.027.007-.053.007-.08v-.092c.908.305 2.199.602 3.336.602 0 0 0-1.294 0-2.617-.001 0-.002 0-.002 0 1.559-.199 2.965-.451 4.192-.771v.509c0 3.387 1.927 5.106 4.313 5.106 0-2.81.816 0 4.296 0 0 0 0-3.902 0-5.077 0-.011.006-.019.006-.029v-7.45c.606-1.831.785-3.93.785-6.265 0-6.25-2.256-9.696-5.441-11.547.637-1.322 2.008-2.265 2.959-2.275-.375.467-.722.97-.947 1.571-.124.344-.211.726-.178 1.139.029.408.217.851.548 1.148.326.3.737.454 1.131.514.397.058.792.03 1.165-.06.75-.177 1.421-.585 1.945-1.137.254-.271.498-.584.67-.961.174-.375.264-.833.197-1.285-.063-.453-.28-.874-.566-1.191m-52.759 6.504c0-2.437.429-4.745 1.173-6.89-.497.217-1.08.048-1.251-.046-3.483-1.887-2.066-14.06-2.066-14.06s1.674-.141 3.867-.141c3.206 0 7.52.301 9.327 1.78 1.792-1.189 3.638-2.071 5.405-2.625 2.657 2.969 3.881 7.403 3.881 7.403.637-4.257 2.861-6.258 4.551-7.187 1.509.54 3.066 1.315 4.584 2.308 1.612-1.279 5.111-1.591 8.142-1.591 2.883 0 5.342.282 5.342.282s1.018 11.947-2.385 13.743c-.175.092-.922.116-1.09.083.755 2.159 1.189 4.483 1.189 6.938 0 13.183-9.104 15.638-20.333 15.638-11.231.002-20.336-2.453-20.336-15.635m49.389 7.581c0 2.485-.213 4.233-.689 5.671l-.088.289v7.731c-.109.198-.962.677-2.429.677-1.468 0-2.319-.479-2.421-.655v-2.951c0 0-5.582 1.767-11.299 1.767v3.555c0 .622-1.568 1.344-3.589 1.344-2.022 0-3.589-.722-3.589-1.344v-3.517h-11.065v3.517c0 .622-1.568 1.344-3.59 1.344s-3.589-.722-3.589-1.344v-5.54c0 0-1.282-1.82-1.377-3.368 4.218 2.288 9.624 2.767 14.671 2.767 10.345 0 22.219-1.991 22.219-17.522 0-1.149-.261-3.413-.261-3.413 4.885 1.34 7.096 4.826 7.096 10.992m2.276-11.362c-.369.424-.857.76-1.395.912-.527.156-1.164.16-1.473-.171-.558-.599-.248-2.396.869-3.337 2.846-.238 2.684 1.81 1.999 2.596"/></svg>