<svg xmlns="http://www.w3.org/2000/svg" viewBox="0 0 64 64" enable-background="new 0 0 64 64"><path d="m55.59 15.035c-9.147-5.504-19.768-1.202-21.923 9.3-.184.893-.394 2.654-.296 4.437-2.382.852-5.058 1.764-7.922 1.764-.404 0-.772-.025-1.124-.063l3.256-2.222-2.06-.2c-.032-.003-3.284-.344-3.238-2.456.018-.825.268-2.097.532-3.444.176-.896.354-1.823.497-2.738 5.573-.6 6.628-8.83 6.628-8.83s-3.294 1.652-6.691 2.519c.032-.52.04-1.069-.007-1.683-.266-3.424 3.388-6.509 3.388-6.509s-6-.877-8.57 4.161c-.306.6-.545 1.28-.711 1.984-.112-.5-.258-1.02-.471-1.576-1.198-3.126 1.396-7.479 1.396-7.479s-5.906 1.536-6.938 7.305c-.207 1.166-.179 2.479.08 3.653-.103-.104-.188-.21-.301-.314-1.897-1.758-1.391-6.172-1.391-6.172s-3.867 3.861-2.761 8.599c.179.767.503 1.531.917 2.191-2.831.836-4.142 3.68-4.205 3.821l-.715 1.603 1.744-.203c0 0 .229-.024.58-.024.567 0 1.696.078 2.594.566-1.796 2.994-3.754 6.351-4.917 8.631-1.496 2.935-1.516 7.794 1.896 8.105 1.215.111 2.607-.393 3.552-1.533l.194 3.578 1.218-1.549c1.423 4.439 4.185 8.109 7.697 10.34-3.087.295-5.863-2.623-6.292-2.113l8.035 9.586c.479-.57-1.344-2.371.137-6.451.456.209.919.402 1.394.564.363 2.064 2.604 4.564 5.017 5.283-2.259 3.387-6.643 3.693-6.643 4.533h12.967c0-.863-2.358-.658-3.943-4.508 2.667-.869 4.971-4.729 5.247-6.934 4.635-2.959 7.738-8.219 8.515-14.211 1.585 2.182.559 6.336.559 6.336s7.22-3.418 4.397-11.626c4.141 0 6.952 7.304 6.952 7.304s2.83-7.039.78-13.296c3.731-.378 7.162 4.99 7.162 4.99s1.919-10.127-6.212-15.019m-47.196 7.133c-1.063-.592-2.337-.709-3.11-.709-.423 0-.695.031-.695.031s1.259-2.802 3.951-3.36c.508.547 1.089.924 1.696 1.011-.542.883-1.173 1.917-1.842 3.027m1.178 9.783c.148-4.798 1.795-12.322 2.361-13.403 1.178-2.254 4.741-3.395 7.088-1.543.927.731 1.606 1.998 2.777 2.354-.138.865-.303 1.726-.456 2.505-.289 1.474-.539 2.746-.56 3.701-.042 1.939 1.413 3.03 2.847 3.568l-2.987 2.037 1.804 2.175-4.504-.48.667 3.974-4.005-2.953-.55 4.48-2.363-2.914-1.805 2.297c.001-.001-.359-4.347-.314-5.798m22.751 17.535l-.404.244.047.475c-.059 1.92-2.785 5.971-4.843 5.971-2.216 0-4.881-2.799-4.881-4.557v-.557l-.534-.16c-5.084-1.533-9.171-6.152-10.745-12.096l.747-.951 3.403 4.197.667-5.438 4.922 3.631-.953-5.682 6.209.66-2.854-3.439c.684.164 1.454.25 2.346.25 3.26 0 6.312-1.093 8.764-1.971 2.35-.843 4.382-1.57 5.354-.885.719.506 1.082 1.923 1.082 4.212-.002 6.823-3.192 12.989-8.327 16.096"/><ellipse cx="8.068" cy="19.469" rx=".589" ry=".303"/><ellipse cx="14.321" cy="19.469" rx="2" ry="1.5"/></svg>