<svg xmlns="http://www.w3.org/2000/svg" viewBox="0 0 64 64" enable-background="new 0 0 64 64"><path d="m57.907 25.12c-3.965-7.041-11.125-10.465-21.892-10.465h-.21c-1.921-3.833-6.707-6.68-11.536-6.68-1.092 0-2.146.146-3.148.429-1.766-1.774-4.091-2.866-6.206-2.866-.324 0-.639.032-.944.083l-.167-.115c-2.396-1.663-4.56-2.506-6.431-2.506-2.016 0-3.638.952-4.567 2.683-1.552 2.887-.813 7.601 1.797 11.463l.198.293c-1.543 3.857-.334 9.558 1.936 11.947v.546c0 16.376 17.344 25.315 30.501 25.814 6.428 3.411 12.958 5.254 15.017 5.254 2.187 0 3.518-.512 3.867-.664.008-.002.014-.006.021-.009.051-.022.081-.037.081-.037s-.003-.003-.003-.004c.622-.31.906-1.157 1.006-2.277l.002.002c0 0 0-.015.001-.037.015-.161.025-.327.031-.498.055-.673.199-1.882.578-3.048 2.758-1.242 4.161-3.158 4.161-5.756 0-8.457-.495-17.165-4.093-23.552m-50.534-20.25c1.245 0 2.833.537 4.765 1.782l-.115.426c-.562 2.079-1.816 3.597-3.667 5.674-.505.567-.951 1.149-1.382 1.713-.133.173-.261.332-.391.499-.445.382-.726.581-.751.599-2.986-4.874-2.59-10.693 1.541-10.693m-1 13.779c.271-.284.688-.681 1.19-1.178 3.809-2.205 5.332-5.921 6.351-8.42.186-.457.36-.887.52-1.229l.184-.394c.099-.008.196-.021.298-.021 1.401 0 3.024.698 4.361 1.841l-.199.674c-.23.781-.508 1.576-.806 2.374-2.832 6.213-8.346 13.606-10.586 15.298-1.405-1.995-2.2-6.05-1.313-8.945m2.289 12.456c.879-.843 2.06-2.102 3.356-3.65.775-.803 1.491-1.635 2.155-2.506 2.011-2.638 5.693-8.002 7.756-14.288l.187-.57c.707-.159 1.429-.244 2.153-.244 4.236 0 8.529 2.566 10.008 5.985-2.164 5.166-5.935 10.987-7.115 12.761-1.037.761-1.685 1.399-1.861 1.553-1.221 1.066-1.489 2.461-1.251 2.706-1.225 2.505-2.052 6.406-.704 9.796 1.72 4.326 5.629 7.977 10.06 10.855-11.659-1.815-24.017-9.784-24.744-22.398m36.602 14.875c-5.404-2.599-9.874-4.372-11.334-8.366-1.02-2.771-1.803-5.821-2.192-7.95.674-.145 1.338-.251 1.96-.292 12.262-.825 22.553 12.559 23.302 19.033-1.802-.565-8.324-.785-11.736-2.425m-9.852-20.564c-.944.065-1.831.231-2.667.455 1.238-2.117 3.008-5.439 4.453-9.319 19.403.495 22.56 13.132 22.885 28.83-2.377-11.295-16.171-20.559-24.671-19.966"/></svg>