<svg xmlns="http://www.w3.org/2000/svg" viewBox="0 0 64 64" enable-background="new 0 0 64 64"><path d="m57.766 48.54v-6.732c1.408-1.889 2.234-4.141 2.234-6.561 0-2.764-1.17-5.34-3.089-7.397.511-1.403.771-3.235.276-5.586 1.14-.472 1.93-1.432 1.93-2.551 0-1.582-1.563-2.864-3.489-2.864-1.929 0-3.491 1.282-3.491 2.864s1.563 2.866 3.491 2.866c.043 0 .083-.009.124-.01.354 1.687.261 3.045-.03 4.146-2.392-2.005-5.59-3.299-9.078-3.466-.577-1.857-1.44-3.627-2.563-5.186.748-1.159 1.141-2.474 1.141-3.844 0-4.072-3.477-7.386-7.748-7.386-.909 0-1.816.155-2.668.453-1.732-3.241-5.189-5.286-9.074-5.286s-7.342 2.045-9.072 5.288c-.853-.298-1.76-.453-2.669-.453-4.272 0-7.748 3.313-7.748 7.386 0 1.372.392 2.687 1.139 3.845-2.156 2.992-3.382 6.756-3.382 10.447 0 7.008 2.122 14.456 6.052 14.456.182 0 .354-.013.528-.023 1.216 1.286 2.608 2.406 4.125 3.338v5.285c-1.187.53-1.937 1.294-1.937 2.147 0 .853.75 1.617 1.937 2.147v1.279c0 3.585 2.122 4.857 3.938 4.857 1.819 0 3.942-1.272 3.942-4.857v-1.28c1.187-.53 1.937-1.294 1.937-2.146s-.75-1.616-1.937-2.146v-2.38c1.04.162 2.092.248 3.146.248 1.059 0 2.109-.092 3.146-.253v2.383c-1.187.53-1.937 1.294-1.937 2.147 0 .853.75 1.617 1.937 2.147v1.279c.001 3.587 2.123 4.859 3.94 4.859s3.941-1.272 3.941-4.859l-.003-1.276c1.188-.53 1.939-1.295 1.939-2.148 0-.855-.755-1.622-1.949-2.152l-.013-5.344c.559-.356 1.104-.731 1.629-1.143.669.416 1.375.768 2.104 1.068v2.394c-.766.391-1.241.915-1.241 1.495 0 .581.476 1.105 1.241 1.495v1.12c0 2.91 1.746 3.943 3.242 3.943s3.243-1.033 3.243-3.943v-1.12c.764-.39 1.239-.915 1.239-1.495s-.476-1.104-1.239-1.494v-1.291c1.52-.065 2.974-.344 4.325-.81v2.101c-.764.39-1.24.914-1.24 1.494s.477 1.105 1.24 1.495v1.12c0 2.91 1.747 3.943 3.243 3.943 1.497 0 3.245-1.033 3.245-3.943v-1.121c.763-.39 1.238-.914 1.238-1.494s-.473-1.104-1.235-1.495m-51.762-20.027c0-4.975 2.384-8.52 3.409-9.813l.496-.625-.5-.621c-.759-.943-1.161-2.062-1.161-3.232 0-2.97 2.576-5.386 5.743-5.386.958 0 1.872.216 2.716.642l.972.49.409-1.007c1.204-2.968 4.276-4.961 7.644-4.961 3.367 0 6.44 1.993 7.646 4.96l.409 1.007.972-.49c.832-.42 1.771-.642 2.714-.642 3.167 0 5.744 2.416 5.744 5.386 0 1.17-.402 2.287-1.162 3.232l-.499.621.495.625c1.024 1.294 3.408 4.84 3.408 9.813 0 7.718-2.357 12.456-4.047 12.456-1.611 0-4.047 0-4.047-7.623 0-.579-.004-1.179-.01-1.793.123-.123.242-.243.359-.359 2.021-2.021 3.48-3.479 3.48-8.628 0-1-.176-1.92-.523-2.734l-.364-.854-.882.3c-2.43.825-5.095.022-6.583-1.884l-.661-.847-.801.718c-1.535 1.378-3.541 2.137-5.648 2.137s-4.114-.759-5.65-2.137l-.799-.718-.662.847c-1.488 1.906-4.149 2.71-6.585 1.884l-.881-.3-.364.855c-.347.813-.522 1.733-.522 2.733 0 5.152 1.46 6.611 3.481 8.63.117.117.237.237.36.361-.006.612-.01 1.211-.01 1.789 0 7.623-2.436 7.623-4.048 7.623-1.69.001-4.048-4.738-4.048-12.455m30.293 1.267c-.213.213-.436.435-.666.67l-.289.297v.005c-.585.611-1.299 1.399-2.075 2.43-.665.884-1.161 1.831-1.642 2.746-1.214 2.318-2.19 4.167-5.41 4.335v-1.416c1.468-.312 4.664-1.741 4.664-3.331 0-2.262-2.303-2.7-5.146-2.7-2.842 0-5.147.438-5.147 2.7 0 1.591 3.196 3.02 4.665 3.331v1.416c-3.221-.168-4.198-2.018-5.413-4.336-.479-.916-.976-1.862-1.64-2.745-.775-1.03-1.488-1.817-2.072-2.427v-.006l-.28-.286c-.005-.005-.011-.012-.016-.017-.229-.233-.449-.454-.66-.665-1.927-1.925-2.895-2.892-2.895-7.216 0-.404.036-.777.107-1.127 2.615.538 5.321-.271 7.141-2.055 1.779 1.307 3.949 2.017 6.211 2.017s4.432-.71 6.21-2.017c1.821 1.784 4.523 2.592 7.142 2.055.072.35.107.723.107 1.127-.002 4.322-.969 5.289-2.896 7.215m-15.715 27.363c0 1.067-.252 2.857-1.938 2.857-1.683 0-1.934-1.79-1.934-2.857v-.69c.606.104 1.256.164 1.936.164s1.33-.06 1.937-.164v.69zm0-6.163c-.607-.104-1.258-.164-1.937-.164s-1.329.06-1.936.164v-3.61c1.24.59 2.539 1.063 3.873 1.405v2.205m14.172 6.163c0 1.067-.251 2.857-1.937 2.857-1.684 0-1.935-1.79-1.935-2.857v-.69c.607.104 1.257.164 1.937.164.678 0 1.327-.06 1.934-.164l.001.69m-.014-6.164c-.604-.104-1.247-.162-1.921-.162-.68 0-1.329.06-1.937.164v-2.204c1.33-.347 2.615-.838 3.85-1.442l.008 3.644m3.5-8.403l-.59.499c-3.322 2.813-7.555 4.363-11.918 4.363-4.748 0-9.442-1.878-12.875-5.065 2.185-1.118 3.186-3.873 3.24-8.623.163.202.326.407.496.633.567.753 1.024 1.626 1.466 2.471 1.332 2.543 2.843 5.426 7.672 5.426 4.828 0 6.337-2.882 7.67-5.425.441-.845.899-1.718 1.467-2.472.171-.228.336-.434.499-.636.073 6.451 1.89 9.222 6.044 9.222 3.931 0 6.051-7.448 6.051-14.456 0-1.081-.116-2.166-.319-3.238 5.999.54 10.853 4.887 10.853 9.973 0 5.532-5.26 10.032-11.723 10.032-2.686 0-5.313-.803-7.4-2.261l-.633-.443m6.707 10.073c0 .887-.215 1.943-1.238 1.943s-1.238-1.057-1.238-1.943v-.535c.396.056.806.095 1.238.095.434 0 .843-.039 1.238-.095v.535m-1.238-4.79c-.433 0-.843.039-1.238.095v-1.148c.805.203 1.632.342 2.477.412v.736c-.396-.056-.805-.095-1.239-.095m9.572-2.285c.897-.47 1.73-1.022 2.479-1.652v4.032c-.396-.056-.806-.095-1.239-.095s-.844.039-1.24.095v-2.38m2.48 7.075c0 .887-.216 1.943-1.24 1.943s-1.239-1.057-1.239-1.943v-.535c.396.056.807.095 1.24.095s.843-.039 1.239-.095v.535"/><path d="m17.893 21.57c-1.872 0-3.39 1.41-3.39 3.153 0 1.742 1.518 3.154 3.39 3.154 1.869 0 3.386-1.412 3.386-3.154 0-1.743-1.517-3.153-3.386-3.153"/><ellipse cx="33.57" cy="24.724" rx="3.388" ry="3.154"/></svg>