<svg xmlns="http://www.w3.org/2000/svg" viewBox="0 0 64 64" enable-background="new 0 0 64 64"><path d="m32.001 46.351c-.669 0-2.907.06-3.638.832-.518.548-.115 1.912 1.265 3.087.873.742 1.704.975 2.373.975.67 0 1.503-.232 2.375-.975 1.38-1.175 1.782-2.539 1.263-3.087-.729-.773-2.968-.832-3.638-.832"/><ellipse cx="23.37" cy="38.271" rx="4.026" ry="3.938"/><ellipse cx="40.631" cy="38.271" rx="4.025" ry="3.938"/><path d="m33.301 52.512c-.36.033-.695.142-1.019.272-.317.145-.621.313-.892.537-.267.217-.544.485-.647.848.308-.167.632-.234.931-.363.307-.11.6-.239.896-.36l.87-.389c.296-.107.561-.289.913-.289-.271-.28-.71-.289-1.052-.256"/><path d="m62 20.101c0-7.775-6.344-14.101-14.141-14.101-6.658 0-12.408 4.714-13.798 11.12-.665-.121-1.35-.193-2.061-.193-.712 0-1.397.072-2.062.193-1.388-6.406-7.139-11.12-13.797-11.12-7.797 0-14.141 6.326-14.141 14.101 0 7.261 5.556 13.275 12.651 14.021.001-.002.002-.004.003-.006-.891 2.115-1.661 4.398-1.969 7.554-.265 2.712.828 5.563 3.077 8.029 2.467 2.704 6.013 4.592 8.625 4.592.46 0 1.224.607 1.964 1.195 1.412 1.119 3.169 2.514 5.65 2.514 2.479 0 4.235-1.394 5.646-2.514.74-.588 1.505-1.195 1.965-1.195 2.611 0 6.157-1.887 8.622-4.59 2.25-2.467 3.345-5.318 3.08-8.031-.307-3.148-1.076-5.432-1.966-7.549 7.096-.746 12.652-6.759 12.652-14.02m-36.606-1.73c-4.327 3.159-7.324 8.179-9.123 11.733-4.422-.47-7.877-4.083-7.877-8.469 0-4.704 3.971-8.531 8.852-8.531 3.625 0 6.802 2.142 8.148 5.267m23.995 23.484c.211 2.166-.708 4.492-2.586 6.551-2.348 2.572-5.456 3.959-7.19 3.959-1.137 0-2.126.785-3.171 1.615-1.236.981-2.639 2.094-4.44 2.094-1.805 0-3.206-1.113-4.442-2.094-1.046-.83-2.035-1.615-3.171-1.615-1.735 0-4.845-1.388-7.191-3.961-1.878-2.059-2.796-4.384-2.584-6.548.336-3.454 1.287-5.814 2.315-8.126 1.635-3.68 6.609-14.877 15.073-14.877 8.458 0 13.437 11.197 15.073 14.877 1.066 2.403 1.976 4.673 2.314 8.125m-10.782-23.483c1.346-3.125 4.521-5.268 8.146-5.268 4.882 0 8.854 3.827 8.854 8.53 0 4.386-3.455 7.998-7.877 8.47-1.8-3.553-4.798-8.572-9.123-11.732"/></svg>