<svg xmlns="http://www.w3.org/2000/svg" viewBox="0 0 64 64" enable-background="new 0 0 64 64"><path d="m26.411 40.537c.633-.092 1.326-.016 2.02.23.691.244 1.379.645 2.02 1.139.641.496 1.242 1.08 1.787 1.73.541.65 1.048 1.35 1.416 2.145-.164-.869-.498-1.707-.882-2.516-.393-.807-.861-1.586-1.426-2.314-.566-.725-1.23-1.408-2.037-1.963-.803-.557-1.77-.975-2.824-1.117l-.096-.012c-.111-.014-.227-.014-.342.004-.711.104-1.203.787-1.104 1.527.1.739.759 1.253 1.468 1.147"/><path d="m56.998 34.502c.451-.619.934-1.203 1.453-1.707.514-.494 1.09-.922 1.578-1.082.123-.039.244-.102.352-.182.564-.422.693-1.234.289-1.822s-1.189-.725-1.752-.307l-.086.064c-.854.635-1.367 1.379-1.822 2.119-.441.746-.789 1.512-1.09 2.291-.295.779-.537 1.57-.717 2.381-.164.799-.32 1.633-.205 2.443.092-.801.438-1.521.783-2.221.36-.692.77-1.354 1.217-1.977"/><path d="m52.801 42.75c-.318.848-.492 1.844-.129 2.654-.113-.873.299-1.646.77-2.277.488-.633 1.102-1.146 1.756-1.561 1.316-.82 2.805-1.227 4.24-1.252.145-.002.299-.027.441-.076.783-.27 1.209-1.146.951-1.961-.258-.813-1.102-1.258-1.885-.988l-.063.021c-1.813.617-3.424 1.693-4.639 3.092-.6.702-1.11 1.485-1.442 2.348"/><path d="m20.415 15.93c-2.002 0-3.626 1.547-3.626 3.444 0 1.901 1.624 3.442 3.626 3.442.252 0 .496-.025.734-.071.438-1.642 1.225-3.421 2.639-4.614-.526-1.283-1.834-2.201-3.373-2.201"/><path d="m23.254 59.432c.092-.012.234-.029.441-.057-.105.014-.302.039-.441.057"/><path d="m46.535 59.432c.09-.012.232-.029.436-.057-.108.016-.301.039-.436.057"/><path d="m57.713 48.57c-2.367 0-2.719-1.57-4.285-1.57s-1.918 1.57-4.285 1.57c-.363 0-.666-.045-.947-.107 4.238-4.109 8.766-11.678 7.158-24.779.195-.379.342-.823.434-1.326.43-2.341 1.875-4.164 3.148-5.773 1.576-1.991 3.363-4.249 1.16-6.477-2.553-2.584-8.813-2.768-13.064-1.265-5.126-4.417-11.456-6.843-17.897-6.843-8.617 0-17.594 5.229-20.439 11.903-1.591 3.732-1.097 7.49 1.368 10.758-6.725.578-7.045 2.016-7.156 2.517-.281 1.268 1.15 2.004 1.621 2.246 3.635 1.873 6.794 2.424 9.447 2.27-.612.48-1.152 1.084-1.331 1.84-.174.734.007 1.486.537 2.234 1.161 1.637 2.565 2.205 4.087 2.205 1.771 0 3.704-.77 5.6-1.527 1.918-.764 3.895-1.543 5.832-1.664 1.643 2.682 3.734 4.707 5.642 4.707.582 0 1.049-.145 1.432-.391 1.654 3.607-1.545 7.5-4.007 9.453-2.145-.105-2.545-1.553-4.055-1.551-1.566 0-1.916 1.57-4.285 1.57-2.367 0-2.719-1.57-4.286-1.57-1.566 0-1.918 1.57-4.285 1.57s-2.718-1.57-4.285-1.57-1.919 1.57-4.287 1.57c-2.366 0-4.285-1.57-4.285-1.57v15h60v-15c0 0-1.92 1.57-4.287 1.57m-35.593-13.947c-3.639 1.451-5.772 2.166-7.297.018-.289-.406-.244-.6-.229-.664.051-.213.328-.676 1.622-1.379.901-.49 1.306-1.086 1.458-1.617.291-.1.567-.207.838-.318-.102.342-.26.717-.519 1.004-.657.73-1.72 1.418-1.724 2.232-.001.535.305 1.059 1.166 1.139 2.698.254 6.725-4.447 6.489-8.495.566-.813 1.207-1.517 1.912-2.089-.043.416-.064.86-.064 1.336 0 2.119.76 4.738 1.914 7.121-1.955.28-3.853 1.028-5.566 1.712m-1.92-4.787c1.016-.586 1.822-1.213 2.414-1.74-.123 3.205-2.449 4.893-3.26 4.477-.735-.38.178-1.178.846-2.737m15.48 3.668c-.33 2.73-.57 4.018-1.336 4.018-2.263 0-6.572-7.014-6.572-11.732 0-1.297.182-2.301.541-2.988.191-.369.129-.817-.158-1.121-.287-.301-.736-.395-1.125-.232-2.074.873-3.873 2.484-5.205 4.663-.018.017-.033.032-.049.048-1.934 1.99-7.393 6.121-16.319 1.523-.1-.051-.184-.098-.256-.141 1.132-.445 4.061-.902 6.971-1.05.393-.02.737-.266.88-.626s.057-.77-.22-1.046c-3.035-3.037-3.828-6.549-2.291-10.155 2.556-6 10.723-10.698 18.594-10.698 6.136 0 12.177 2.393 17.011 6.737.287.259.701.329 1.061.182 3.9-1.604 9.574-1.31 11.455.593.873.882.527 1.582-1.305 3.896-1.346 1.699-3.02 3.814-3.539 6.633-.072.396-.184.709-.332.929-.133.196-.189.434-.158.667 1.313 10.119-1.037 18.32-6.797 23.718-.072.068-.148.131-.225.195-.425-.285-.847-.517-1.449-.517-1.566 0-1.92 1.57-4.287 1.57-.289 0-.547-.025-.781-.066 2.238-1.91 3.762-4.305 4.426-7.057 1.039-4.316-.025-9.408-2.92-13.971l-.217-.332c-.453-.684-1.051-1.586-1.266-2.917-.01-.242-.035-.498-.082-.764-.09-.514-.57-.865-1.1-.811-.525.059-.914.512-.885 1.031.014.248.037.486.07.715.016.859-.271 1.46-.393 1.715-.004.006-.041.084-.043.09-1.115 2.475-1.44 5.151-1.699 7.301m1.345 3.764c.334-1.006.484-2.254.641-3.531.232-1.936.496-4.105 1.313-6.182.15.252.297.471.424.662l.197.301c2.613 4.119 3.586 8.668 2.668 12.477-.637 2.646-2.139 4.85-4.453 6.578-.456-.309-.893-.573-1.53-.573-.158 0-.295.025-.432.055 3.057-3.858 2.967-7.094 1.172-9.787m-1.619 16.156c-4.873 2.455-13.035-1.869-18.457-1.494 6.975-3.19 11.657 2.365 18.457 1.494m-30.099 4.447c7.016-3.092 11.641 2.379 18.459 1.494-4.866 2.424-13.055-1.824-18.459-1.494m23.283 0c7.013-3.104 11.644 2.385 18.458 1.494-4.835 2.436-13.073-1.822-18.458-1.494m11.642-5.941c6.984-3.172 11.654 2.361 18.461 1.494-4.892 2.447-13.021-1.871-18.461-1.494"/></svg>