<svg xmlns="http://www.w3.org/2000/svg" viewBox="0 0 64 64" enable-background="new 0 0 64 64"><path d="m61.562 25.909c-.438-.787-1.103-1.27-1.631-1.549.081-.994.06-2.611-.771-3.598-.685-.814-1.748-1.046-3.016-.605-.308-1.268-1.022-2.929-2.669-2.929-.712 0-1.451.339-2.235 1.03-.545-.601-1.361-1.23-2.393-1.23-1.065 0-2.029.654-2.864 1.945-2.254 3.483-3.532 7.704-3.913 12.695-.955-.741-1.937-1.579-2.93-2.548-.672-.655-1.365-1.206-2.072-1.672-.242-.414-.482-.831-.719-1.254-1.947-3.461-3.956-7.031-9.086-8.714 2.039-1.193 4.343-1.733 4.372-1.739l3.769-.864-3.725-1.037c-.093-.026-2.211-.607-5.089-.67 1.175-.81 2.163-1.285 2.179-1.292l3.459-1.648-3.829-.217c0 0-.211-.012-.589-.012-2.93 0-12.661.657-15.988 9.034-1.543 1.139-2.805 2.647-3.777 4.415-1.484.001-3.846.324-6.045 2.024l4.423 2.231c-.061.249-.135.49-.187.745l-4.236 1.125c1.191.937 2.753 1.494 3.878 1.8-.029.477-.066.947-.066 1.436 0 11.883 5.748 19.139 16.707 21.334v6.723c-.328.057-2.114-.098-2.843-.098-1.813 0-3.284 1.23-3.284 1.23h8.199v-7.496c1.771.238 3.659.359 5.668.359.335 0 .661-.014.99-.023v6.027c-.327.057-2.115-.098-2.843-.098-1.813 0-3.283 1.23-3.283 1.23h8.198v-7.291c14.306-1.441 21.78-12.719 21.78-16.793 0-.602-.144-1.102-.423-1.484-.287-.393-.706-.627-1.192-.699.943-.641 1.916-1.215 2.856-1.758 2.555-1.473 4.763-2.746 5.428-4.916.366-1.183.293-2.242-.208-3.149m-12.53 11.976c-1.724 1.775-5.694 5.141-11.044 5.141-2.246 0-4.54-.594-6.816-1.762-3.878-1.99-5.694-5.234-4.859-8.678.69-2.84 3.047-4.824 5.732-4.824 1.893 0 3.87.954 5.72 2.761 4.611 4.502 9.032 6.543 11.267 7.362m2.803 3.574c-3.089 5.277-10.591 11.441-21.576 11.441-14.917 0-22.48-6.76-22.48-20.09 0-5.431 1.978-9.933 5.425-12.348l.249-.176.107-.286c2.029-5.454 7.299-7.229 11.018-7.79-.528.413-1.063.879-1.556 1.394l-1.898 1.978 2.727-.325c1.158-.139 2.463-.159 3.589-.086-1.061.507-2.174 1.171-3.089 2.014l-1.384 1.276 1.842.402c.292.064.583.128.881.203 4.586 1.166 6.554 3.926 8.321 6.991-.654-.166-1.311-.257-1.965-.257-3.596 0-6.739 2.601-7.645 6.325-.821 3.383.29 8.018 5.871 10.885 2.559 1.313 5.154 1.979 7.717 1.979 8.231 0 13.352-6.711 13.564-6.996l.266-.355c.421.016.851.025 1.298.027.085.384-.056 1.698-1.282 3.794m8.056-12.975c-.439 1.432-2.337 2.525-4.533 3.792-1.577.91-3.327 1.955-4.91 3.314-.93-.07-1.768-.188-2.565-.328-1.111-.52-2.456-1.246-3.932-2.234.231-5.197 1.438-9.51 3.686-12.991.431-.665.871-1.046 1.212-1.046.543 0 1.198.858 1.412 1.247l.675 1.249.934-1.07c1.018-1.167 1.517-1.226 1.607-1.226.36 0 .837 1.275.928 2.48l.116 1.576 1.363-.802c.81-.476 1.262-.547 1.459-.547.19 0 .255.059.311.124.41.485.387 1.949.24 2.783l-.142.872.849.243c.009.002.869.256 1.246.95.228.422.244.965.044 1.614"/><circle cx="14.551" cy="25.424" r="2.5"/></svg>