<svg xmlns="http://www.w3.org/2000/svg" viewBox="0 0 64 64" enable-background="new 0 0 64 64"><path d="m61.976 9.177c-5.653-.186-10.295.704-13.073 2.636-.218.365-.422.762-.613 1.19-.295-.403-.6-.792-.917-1.161.958-1.96 1.534-5.051 1.07-9.842 0 0-2.343 3.925-5.955 5.834-.032.017-.057.037-.088.054-2.9-1.509-6.356-2.256-10.4-2.256-3.808 0-7.168.874-10.05 2.548-.17-.119-.334-.239-.535-.346-3.613-1.909-5.957-5.834-5.957-5.834-.52 5.382.266 8.631 1.439 10.525-.313.382-.618.778-.911 1.19-.269-.698-.558-1.35-.889-1.903-2.779-1.932-7.42-2.821-13.073-2.636-.131 6.229.217 11.706 2.509 14.174 1.373 1.479 3.713 2.191 6.559 2.492-.037.185-.071.373-.106.56-.368.034-.763.028-1.223-.044 0 0 .321.536 1.058.938-.536 3.156-.813 6.628-.813 10.398 0 3.528 1.284 6.968 3.796 10.232.252 12.595 10.477 14.074 18.198 14.074 7.719 0 17.941-1.479 18.193-14.071 2.514-3.264 3.798-6.705 3.798-10.234 0-3.857-.222-7.345-.663-10.484.631-.387.907-.852.907-.852-.38.059-.709.067-1.022.053-.03-.2-.065-.394-.098-.59 2.752-.313 5.012-1.027 6.352-2.471 2.292-2.469 2.639-7.946 2.507-14.174m-13.512 19.948c0-.849-.251-1.626-.659-2.259.439.09.889.207 1.355.389.632.246 1.19.377 1.691.433-.082.83-.668 4.61-4.614 5.717-4.439 1.245-6.816-2.675-6.816-2.675s.9-1.373 2.507-2.517c-.063.294-.106.597-.106.912 0 2.104 1.486 3.81 3.32 3.81s3.322-1.706 3.322-3.81m-16.464-21.493c4.347 0 8.993.747 12.712 4.254-6.688 7.335-11.043 16.595-4.165 25.108 1.898 2.352 3.636 3.736 5.262 4.496-.073-.001-.141-.008-.216-.008-1.087 0-2.367.154-3.987.35-2.497.301-5.604.676-9.604.676-4 0-7.107-.375-9.604-.676-1.621-.195-2.901-.35-3.988-.35-.076 0-.143.007-.216.008 1.625-.76 3.363-2.145 5.262-4.496 6.711-8.309 2.727-17.325-3.682-24.572 3.188-3.133 7.296-4.79 12.226-4.79m-15.803 19.234c-.409.633-.659 1.41-.659 2.259 0 2.104 1.487 3.81 3.321 3.81s3.32-1.705 3.32-3.81c0-.315-.043-.618-.106-.912 1.606 1.144 2.507 2.517 2.507 2.517s-2.377 3.92-6.816 2.675c-3.946-1.106-4.532-4.887-4.614-5.717.501-.056 1.06-.187 1.691-.433.468-.182.916-.299 1.356-.389m-10.956-4.053c-1.606-1.729-1.85-5.564-1.754-9.925 3.956-.129 7.207.492 9.152 1.846.452.756.821 1.717 1.104 2.844-.991 2.103-1.791 4.47-2.393 7.083-2.669-.105-4.912-.562-6.109-1.848m10.235 19.43c-.755.54-1.194 1.355-1.431 2.401-.005.022-.014.04-.019.063-.507-.865-.918-1.738-1.234-2.619.869.169 1.761.241 2.684.155m16.526 17.757c-11.361 0-16.209-3.751-16.209-12.541 0-3.798.897-3.976 2.616-3.976.968 0 2.194.148 3.749.336 2.551.307 5.725.689 9.844.689s7.293-.383 9.842-.689c1.555-.188 2.781-.336 3.749-.336 1.718 0 2.614.178 2.614 3.976 0 8.79-4.846 12.541-16.205 12.541m17.973-15.29c-.004-.021-.012-.036-.018-.058-.236-1.05-.676-1.868-1.432-2.409.923.086 1.814.014 2.686-.154-.316.881-.729 1.756-1.236 2.621m2.932-20.065c-.574-2.982-1.377-5.605-2.419-7.869.245-.782.533-1.475.874-2.043 1.945-1.354 5.196-1.975 9.152-1.846.094 4.361-.15 8.196-1.756 9.925-1.156 1.244-3.296 1.709-5.851 1.833"/><path d="m21.374 45.142c-1.583 1.027-1.914 4.547-.735 7.86 1.179 3.315 3.423 5.167 5.007 4.14s1.914-4.547.732-7.861c-1.178-3.315-3.418-5.168-5.004-4.139"/><path d="m42.628 45.142c-1.586-1.028-3.827.824-5.004 4.139-1.18 3.314-.851 6.837.732 7.861 1.586 1.027 3.824-.824 5.006-4.138 1.18-3.316.849-6.835-.734-7.862"/></svg>