<svg xmlns="http://www.w3.org/2000/svg" viewBox="0 0 64 64" enable-background="new 0 0 64 64"><path d="m46.922 18.793c-.181.298-.207.686-.135 1.117 2.486 1.604 4.496 3.586 5.473 5.877.385.067.73.031 1.002-.158 2.43-1.697 3.138-10.054 3.138-10.054s-7.84.526-9.478 3.218"/><path d="m7.602 15.576c0 0 .708 8.356 3.135 10.054.272.189.619.226 1.003.158.977-2.291 2.986-4.274 5.472-5.877.072-.431.046-.819-.134-1.117-1.638-2.693-9.476-3.218-9.476-3.218"/><path d="m25.113 35.898l6.887 4.37c-1.559-3.444-3.576-3.762-6.887-4.37"/><path d="m32 40.268l6.887-4.369c-3.313.607-5.326.925-6.887 4.369"/><path d="m61.264 10.373c-.741-.804-1.943-.907-2.909-.907-3.382 0-12.61 1.838-15.376 6.387-.005.008-.01.016-.016.024-.6-.245-1.213-.474-1.836-.688-2.999-8.059-9.715-11.153-10.01-11.286l-4.241-1.903 1.72 4.26c.124.308.231.674.324 1.073-1.373-.633-2.639-.746-3.365-.746-.555 0-.926.06-1.026.079l-3.483.643 2.5 2.469c.307.303.555.621.754.935-1.8.282-3.182 1.281-3.355 1.411l-2.008 1.503c-3.853-2.933-10.524-4.161-13.29-4.161-.965 0-2.168.103-2.91.908-.596.646-.929 1.659-.616 4.5.342 3.097 2.083 11.731 5.979 14.452.353.247.753.428 1.183.537.272 2.567 1.585 5.142 3.923 7.677 1.171 1.27 1.354 3.711 1.547 6.295.164 2.189.354 4.656 1.189 6.951-.936 1.369-1.726 3.178-1.899 5.496-.164 2.195.625 3.527 1.314 4.258.891.94 2.146 1.46 3.534 1.46 1.271 0 2.582-.455 3.634-1.338 1.359.732 2.775 1.125 4.229 1.125h.001c.558 0 1.124-.057 1.682-.166 2.526-.504 5.037-1.609 7.116-3.094 1.168-.219 2.224-.541 3.166-.961 2.191-.482 3.908-1.883 4.938-3.934 2.162-2.818 3.248-6.313 4.158-9.283.843-2.754 1.639-5.355 2.98-6.811 2.338-2.535 3.652-5.111 3.924-7.678.43-.108.83-.29 1.184-.538 3.895-2.719 5.636-11.353 5.978-14.45.312-2.84-.021-3.852-.617-4.499m-27.176 46.93c-1.789 1.199-3.902 2.088-6.023 2.512-.436.086-.877.131-1.31.131h-.001c-1.019 0-2.026-.24-3.006-.713.479-.797.804-1.76.891-2.889.102-1.303.438-2.533.973-3.672 1.377.5 2.808 1.158 4.154 2.246 1.391 1.125 2.853 1.924 4.324 2.383l-.002.002m7.912-4.526c-.996 1.232-2.236 2.275-3.83 3.02-.386.076-.789.119-1.212.119-1.94 0-4.071-.859-6.002-2.422-.167-.135-.337-.254-.505-.377.332-.713.626-1.443.844-2.184.344-1.168.569-2.357.715-3.547.278-2.379.271-4.77-.01-7.119.048 2.363-.184 4.725-.685 7.006-.407 1.807-1.032 3.555-1.934 5.123-1.731-1.045-3.464-1.598-5.036-2.096-3.335-1.055-5.348-1.691-5.348-6.135 0-1.65 2.595-6.287 4.23-8.822l.145-.225v-.27c0-8.781 2.822-13.05 8.627-13.05 5.802 0 8.621 4.27 8.621 13.05l.018.178c.768 3.883 2.221 11.74 2.221 13.678 0 1.581-.306 2.956-.859 4.073m12.816-24.955c-.313.22-.685.319-1.096.319-.232 0-.48-.039-.735-.098-.668-1.052-1.784-1.743-3.051-1.743-2.044 0-3.702 1.799-3.702 4.017s1.658 4.017 3.702 4.017c.428 0 .831-.094 1.214-.238-.475.721-1.052 1.457-1.743 2.207-2.353 2.553-3.093 7.248-4.72 11.523-.308-3.447-1.986-12.033-2.189-13.064-.027-12.234-5.719-14.806-10.496-14.806-4.756 0-10.418 2.546-10.5 14.628-.859 1.354-4.377 7.049-4.377 9.582 0 1.885.347 3.258.928 4.299-.217.182-.444.385-.678.613-1.234-4.582-.193-9.973-2.778-12.775-.629-.684-1.153-1.354-1.602-2.012.341.111.695.191 1.07.191 2.046 0 3.704-1.8 3.704-4.019 0-2.217-1.658-4.017-3.704-4.017-1.19 0-2.238.621-2.916 1.568-.304.081-.595.126-.868.126-.412 0-.783-.1-1.096-.319-3.919-2.737-6.068-15.117-5.059-16.211.187-.203.734-.302 1.52-.302 3.477 0 11.613 1.945 13.766 5.489.283.466.344 1.062.242 1.731 1.851-.925 3.833-1.664 5.774-2.198-1.022-1.167-2.141-2.132-3.349-2.742 0 0 1.481-1.109 3.151-1.109.584 0 1.19.136 1.765.502 0 0-.068-2.48-2.121-4.506 0 0 .257-.047.681-.047 1.256 0 3.975.418 5.768 3.737 0 0-.064-4.311-.984-6.587 0 0 6.721 3.016 9.315 11.069 1.591.497 3.185 1.126 4.692 1.88-.102-.669-.041-1.265.242-1.731 2.154-3.544 10.291-5.489 13.767-5.489.785 0 1.333.099 1.521.302 1.011 1.096-1.14 13.475-5.058 16.213"/></svg>