<svg xmlns="http://www.w3.org/2000/svg" viewBox="0 0 64 64" enable-background="new 0 0 64 64"><path d="m60.257 33.522c0-3.28 3.898-5.849 0-10.456 0 0-4.286 4.062-6.392 5.785-.142 1.339-.636 7.683.362 11.088 1.885.995 6.029 4.039 6.029 4.039 3.923-4.634.001-6.947.001-10.456"/><path d="m2.273 33.377c0 0 .762.651 1.053 1.317.275.632-1.821.864-1.216 1.865 1.688 2.784 6.671 6.944 11.915 9.276 2.281-4.309 3.48-9.234 3.48-14.386 0-4.486-.93-8.856-2.698-12.777-9.746 4.484-12.534 14.705-12.534 14.705m14.448-.759c0 3.475-2.655 6.293-5.932 6.293-3.277 0-5.93-2.818-5.93-6.293 0-3.476 2.653-6.294 5.93-6.294 3.277 0 5.932 2.819 5.932 6.294"/><path d="m49.851 41.366c.084-.047.164-.09.247-.138-.679-3.236-1.021-6.55-1.021-9.874 0-1.342.067-2.729.188-4.135.736.533 1.431 1.01 2.08 1.402 1.178-3.206.423-7.415-2.125-10.425-1.762-2.085-4.015-3.156-6.134-3.156-1.712 0-3.337.7-4.548 2.132-.459.542-.822 1.159-1.104 1.82.026-.252.044-.506.044-.764 0-4.546-4.221-8.229-9.425-8.229-4.861 0-8.861 3.212-9.37 7.339 1.033-.202 2.03-.35 2.996-.454 1.579 4.045 2.483 8.427 2.665 12.895-.137.27-.264.542-.376.821-.397.998-.654 2.066-.684 3.168-.026.994.172 2.05.74 2.952-.497 3.835-1.51 7.542-3.05 10.977-.92-.082-1.699-.194-2.252-.343.866 2.261 3.039 4.464 5.928 5.706 1.477.637 2.951.94 4.291.94 2.618 0 4.727-1.156 5.369-3.24.264-.856.244-1.78 0-2.71 1.842 2.102 5.082 3.501 8.783 3.501 5.739 0 10.393-3.357 10.393-7.497 0-1.405-.546-2.716-1.479-3.84-.367.181-1.133.604-2.156 1.152m-12.579-21.991c1.119.49 2.205 1.063 3.255 1.682-.993 2.406-1.671 4.961-2.055 7.596-.236-.252-.478-.497-.729-.729-1.724-1.574-3.974-2.473-6.215-2.469-.013 0-.025.001-.037.001.922-2.467 2.07-4.819 3.453-7.007.799.288 1.577.597 2.328.926m-3.058 27.997c-1.322.175-2.937.307-4.63.391-.463-2.519-.704-5.09-.704-7.68 0-.391.022-.778.04-1.166 1.367.369 2.686.951 4 1.618.944.454 1.892.984 3.102 1.211.601.108 1.295.082 1.922-.163.379-.142.714-.35 1.015-.584.372 1.618.857 3.198 1.469 4.719-2.099.769-4.24 1.392-6.214 1.654"/><ellipse cx="10.79" cy="32.618" rx="4.078" ry="4.326"/></svg>