<svg xmlns="http://www.w3.org/2000/svg" viewBox="0 0 64 64" enable-background="new 0 0 64 64"><path d="m7.285 10.349c.378-.265.605-.574.511-.692-.095-.117-.477.003-.855.267-.378.266-.606.575-.511.692.095.118.478-.002.855-.267"/><ellipse cx="15.884" cy="11.09" rx="1.406" ry=".964"/><path d="m4.506 13.048l.039.392c2.466-.001 5.613 1.193 7.957.24-1.932.626-5.537-.632-7.996-.632"/><path d="m61.963 41.979c-.107-.775-.416-1.605-.893-2.424-.596-3.449-2.332-6.361-3.158-7.595-.631-1.295-1.516-2.481-2.631-3.537-.666-3.125-3.604-12.191-8.422-12.191-2.028 0-3.928 1.438-5.67 4.284-1.465-2.877-3.688-5.889-6.572-5.889-3.8 0-6.441 5.127-7.825 8.719-1.079.559-1.948 1.563-2.793 2.539-.341.396-.876 1.014-1.317 1.408-.197-1.652.073-4.285 1.648-8.431 1.596-4.197 1.697-7.739.295-10.243-1.33-2.375-5.69-6.618-9.644-6.619-.719 0-1.397.138-2.018.411l-1.109.488-.027 1.241c-.002.111.004.292.048.519-.133.104-.253.216-.359.338l-1.09 1.243.258.317c-.623.074-1.204.131-1.712.155-2.979.142-4.13 1.655-4.891 2.657-.254.334-.456.599-.654.72-1.038.633-1.561 1.644-1.397 2.704.039.251.115.49.224.712-.135.486-.149 1.018-.024 1.553.322 1.381 1.464 2.346 2.776 2.346.289 0 .578-.047.86-.139.424-.138.81-.208 1.146-.208.504 0 .84.152 1.265.344 1.252.565 2.42.907 3.51 1.044-3.294 3.89-4.348 7.93-3.583 14.284 1.026 8.518 5.921 14.928 13.193 13.886.283.717.66 1.375 1.129 1.934l.002 7.502-.803 5.949h.403 3.767 1.857 1.893 7.498l-1.026-4.622c.01-.112.036-.22.036-.336v-6.322c.902-1.192 1.48-2.706 1.658-4.334 2.211-.026 4.388-.183 6.455-.431.18 1.188.685 1.773 1.457 2.559l.061.063.001 7.477-.805 5.946h.362 3.437 2.188 1.933 7.125l-1.025-4.622c.01-.112.035-.22.035-.336v-8.528l.211.272 1.369-2.522c.525-.97 1.188-2.41 1.354-3.771l.031-.259-.037-.255m-35.076 13.701c-1.123.094-1.949.35-2.527.627l.041-8.526-.271-.281c-.44-.462-.786-1.043-1.03-1.692.229-.14.459-.291.688-.459.46-.063.923-.156 1.386-.304-.002.093-.004.187-.004.279 0 2.024.618 3.944 1.717 5.396v4.96m22.884.023c-.938.109-1.637.343-2.155.585l.041-8.508-.617-.64c-.563-.568-.821-.838-.922-1.438.635-.1 1.269-.201 1.866-.321.509.7 1.111 1.277 1.787 1.708v8.614m9.208-10.38c-.641-.837-1.051-1.718-1.156-2.483.074-.615.314-1.359.678-2.16-.191-1.644-.746-3.205-1.338-4.486v.41c.002.078.014.153.014.233.021.241.012.474-.014.702v2.314c.002.08.01.16.01.24 0 .082-.008.161-.01.242v16.055c-.686-.158-1.582-.283-2.758-.283-1.178 0-2.073.125-2.76.283v-10.52c-1.16-.372-2.141-1.345-2.75-2.656-3.682.875-8.031 1.25-11.854 1.25-.373 0-.741-.022-1.106-.063.035.302.06.607.06.923 0 1.899-.673 3.588-1.716 4.676v6.394c-.686-.158-1.582-.283-2.757-.283-1.178 0-2.074.125-2.76.283v-6.394c-1.043-1.089-1.715-2.775-1.715-4.677 0-1.757.576-3.332 1.488-4.421-.02-.018-.04-.031-.061-.049 0 .002 0 .002-.002.002-.701.625-1.383 1.119-2.046 1.514-7.175 5.381-14.527 2.6-16.536-10.08-1.386-8.747 3.527-13.247 5.552-16.561 0 0-.782.863-2.622.863-.953 0-2.19-.232-3.748-.935-.505-.229-1.138-.526-2.061-.526-.484 0-1.047.082-1.712.298-.102.033-.2.048-.294.048-.938 0-1.425-1.533-.461-2.038l-.046-.394c-.574-.133-1.001-.758-.116-1.299 1.49-.905 1.479-2.955 4.676-3.107 1.352-.064 3.052-.332 4.813-.55-.375-.208-.705-.288-1.37-.296.509-.459 1.057-.556 1.427-.556.269 0 .445.051.445.051s-1.099-.546-1.467-.999c.429-.489 1.822-.512 2.082-.512.027 0 .042 0 .042 0-1.346-.813-1.329-1.593-1.329-1.593.401-.176.832-.256 1.281-.256 3.014 0 6.859 3.583 8.019 5.653 1.043 1.861 1.008 4.833-.415 8.579-2.111 5.554-2.179 9.03-1.313 11.212.291.154.574.223.854.223 2.107 0 3.852-3.963 5.797-4.654.107-.037.215-.064.32-.1.863-2.417 3.391-8.287 6.374-8.287 3.057 0 5.629 6.15 6.431 8.449 1.153-2.758 3.32-6.843 5.813-6.843 3.697 0 6.693 9.933 6.693 11.205 0 .021-.003.041-.003.063 1.181 1.007 2.116 2.188 2.743 3.515.691 1.016 2.504 3.94 2.988 7.31.445.687.738 1.382.826 2.002-.103.842-.509 1.926-1.13 3.069"/></svg>