<svg xmlns="http://www.w3.org/2000/svg" viewBox="0 0 64 64" enable-background="new 0 0 64 64"><path d="m61.082 37.384c-1.196-.581-2.273-.999-3.256-1.295 2.805-1.55 4.828-3.071 3.481-3.726-1.333-.647-2.552-.912-3.665-.904 1.53-1.929 2.322-3.55 1.249-4.071-3.712-1.803-6.187.719-7.786 4.01-1.471-9.845-5.472-15.804-12.133-18.047 3.709-5.164 7.271-7.787 7.309-7.814l1.707-1.242-2.045-.529c-.053-.014-1.312-.334-3.268-.334-3.402 0-8.461.936-13.235 5.396-.055.051-.108.102-.161.152-.388-2.887-.325-4.706-.325-4.728l.087-2.252-1.729 1.448c-.188.157-4.369 3.729-5.716 10.511-1.75-.524-3.552-.79-5.374-.79-1.933 0-3.176.311-3.228.324l-2.059.523 1.718 1.249c.021.014 1.93 1.413 4.412 4.189-2.058 3.019-3.443 6.962-4.183 11.917-1.6-3.278-4.07-5.783-7.772-3.984-1.073.521-.281 2.143 1.248 4.071-1.112-.008-2.332.257-3.664.904-1.347.654.676 2.176 3.48 3.726-.981.296-2.059.714-3.256 1.295-3.664 1.78 4.503 2.585 9.331 2.894-.002.231-.007.459-.007.693 0 8.04 4.087 11.531 9.797 12.983v6.237c-.371.07-.716.164-1.025.28-.619-.231-1.375-.401-2.203-.401-2.061 0-3.732 1.03-3.732 1.545 0 .514 16.28.514 16.28 0 0-.515-1.672-1.545-3.733-1.545-.826 0-1.584.169-2.203.401-.31-.116-.655-.21-1.027-.281v-5.764c2.387.373 4.969.487 7.604.487 2.636 0 5.22-.114 7.608-.487v5.764c-.372.071-.718.165-1.027.281-.619-.232-1.376-.401-2.204-.401-2.061 0-3.733 1.03-3.733 1.545 0 .514 16.28.514 16.28 0 0-.515-1.672-1.545-3.732-1.545-.827 0-1.584.17-2.203.401-.309-.116-.653-.21-1.024-.28v-6.238c5.71-1.451 9.797-4.943 9.797-12.982 0-.236-.011-.459-.012-.692 4.824-.309 12.998-1.113 9.332-2.894m-29.083 15.536c-4.702 0-8.629-.374-11.59-1.578.506-2.981 5.604-5.416 11.591-5.416 5.989 0 11.086 2.434 11.594 5.415-2.963 1.205-6.891 1.579-11.595 1.579m12.524-2.014c-.802-3.416-6.007-5.977-12.523-5.977-6.515 0-11.72 2.562-12.522 5.979-3.354-1.704-5.236-4.722-5.236-9.937 0-9.584 1.647-16.645 4.896-20.982l.479-.641-.522-.605c-1.328-1.541-2.531-2.729-3.452-3.568.184-.007.376-.011.578-.011 1.982 0 3.939.353 5.817 1.047l1.165.431.173-1.228c.573-4.068 2.334-7.01 3.654-8.714.088 1.229.267 2.856.622 4.773l.445 2.393 1.367-2.015c.393-.578.832-1.093 1.342-1.569 4.297-4.014 8.826-4.856 11.868-4.856.217 0 .424.005.619.013-1.65 1.504-4.213 4.132-6.764 7.926l-.793 1.178 1.38.345c8.506 2.124 12.641 10.657 12.641 26.085.002 5.212-1.88 8.229-5.234 9.933"/><path d="m31.999 32.377c-2.36 0-4.28 2.562-4.28 5.712v.323l.296.131c.018.008.123.054.262.112.282 1.995 1.992 3.309 3.723 3.309 1.731 0 3.443-1.313 3.724-3.308.14-.06.246-.105.264-.113l.295-.131v-.323c-.002-3.151-1.923-5.712-4.284-5.712m.001 6.3c-.89-.001-2.457-.574-3.273-.913.116-2.449 1.539-4.39 3.272-4.39 1.734 0 3.159 1.941 3.275 4.391-.815.338-2.384.912-3.274.912"/><path d="m41.211 24.099c-.85-.222-1.791-.078-2.525.36-.748.416-1.316 1.058-1.75 1.752.652-.484 1.313-.917 2.002-1.189.689-.269 1.408-.335 2.09-.149.688.167 1.332.566 1.939 1.035.604.478 1.174 1.036 1.773 1.592-.361-.738-.795-1.455-1.379-2.057-.574-.608-1.298-1.117-2.15-1.344"/><path d="m25.314 24.459c-.734-.438-1.675-.582-2.525-.36-.851.228-1.576.736-2.149 1.344-.585.602-1.018 1.318-1.38 2.057.6-.556 1.17-1.114 1.773-1.592.608-.469 1.252-.868 1.941-1.035.68-.186 1.399-.119 2.088.149.689.272 1.351.705 2.002 1.189-.434-.694-1.002-1.336-1.75-1.752"/><path d="m23.163 30.5c-1.27 0-2.298 1.448-2.298 2.802 0 1.355 1.028 1.947 2.298 1.947 1.267 0 2.295-.592 2.295-1.947 0-1.354-1.029-2.802-2.295-2.802"/><path d="m40.838 30.5c-1.27 0-2.297 1.448-2.297 2.802 0 1.355 1.027 1.947 2.297 1.947 1.267 0 2.297-.592 2.297-1.947 0-1.354-1.031-2.802-2.297-2.802"/></svg>