<svg xmlns="http://www.w3.org/2000/svg" viewBox="0 0 64 64" enable-background="new 0 0 64 64"><path d="m14.846 22.828c-1.545 0-2.796 1.644-2.796 3.181s1.25 2.208 2.796 2.208c1.542 0 2.799-.671 2.799-2.208s-1.257-3.181-2.799-3.181"/><path d="m62 32.829c0-.677-.152-1.234-.453-1.657-.365-.513-.93-.795-1.59-.795-13.459 0-15.656-4.104-17.984-8.449-1.377-2.572-2.799-5.227-6.305-7.168 1.752-3.832 3.598-6.095 3.617-6.118l1.504-1.826-2.332.229c-.191.019-4.453.468-8.811 3.498-3.354-6.049-9.293-7.875-9.557-7.954l-1.981-.589.833 1.919c.014.032 1.226 2.867 1.671 7.344-.291-.13-.594-.251-.906-.36-3.359-1.185-6.489-1.785-9.303-1.785-3.436 0-5.194.921-5.267.96l-1.552.832 1.526.879c.034.02 3.28 1.903 7.887 5.621-1.987 2.041-3.524 4.643-4.564 7.541-.087-.005-.165-.019-.256-.019-3.326 0-6.177 4.429-6.177 8.056v1.916l1.82-.506.041-.012c.599.828 1.785 1.508 3.211 1.559.723 5.959 4.176 10.605 9.786 13.516l-3.042 3.998c-.348-.164-.688-.293-1.011-.387-.374-.541-.899-1.115-1.581-1.6-1.7-1.209-3.679-1.4-3.98-1.006-.303.396 13.113 9.943 13.416 9.549.299-.395-.473-2.164-2.171-3.373-.682-.486-1.405-.799-2.051-.984-.187-.27-.416-.545-.68-.816l3.321-4.369c3.93 1.578 8.711 2.426 14.196 2.426.389 0 .77-.016 1.152-.029v7.406c-.381.068-.736.158-1.053.268-.633-.221-1.409-.383-2.256-.383-2.111 0-3.822.982-3.822 1.473s16.67.49 16.67 0-1.711-1.473-3.822-1.473c-.848 0-1.621.162-2.256.383-.316-.109-.67-.199-1.049-.268v-7.563c16.526-1.719 25.161-15.063 25.161-19.884m-58.56.159c0-3.124 2.498-6.594 4.738-6.594 2.242 0 2.009 1.596 2.009 4.719l-6.747 1.875m5.53 2.637c1.438-.541 1.938-1.631 2.077-3.232l.581-.162v-1.117c0-.277.002-.541.004-.795.014-2.014.024-3.471-.976-4.493-.121-.124-.258-.227-.398-.324 1.073-2.936 2.716-5.514 4.835-7.422l.846-.761-.876-.726c-3.032-2.507-5.542-4.273-7.136-5.326.655-.113 1.481-.199 2.477-.199 2.599 0 5.517.564 8.674 1.678.777.274 1.48.622 2.09 1.035l1.58 1.072-.088-1.929c-.152-3.31-.736-5.952-1.227-7.655 2.014 1.041 5.166 3.203 7.006 7.146l.51 1.093.943-.738c2.323-1.817 4.737-2.78 6.44-3.278-.807 1.265-1.83 3.068-2.797 5.332l-.371.869.846.402c3.561 1.694 4.879 4.158 6.277 6.767 2.488 4.647 5.061 9.454 19.643 9.454.02 0 .041 0 .061 0 .146.178.238 1.346-.766 3.527-.957 2.078-2.885 4.895-5.803 7.531-1.094.217-2.326.516-3.699.848-2.576.625-5.535 1.334-8.758 1.807-.135.023-.266.041-.4.063 3.777-1.143 5.504-3.215 6.404-4.363 2.311-1.463 3.576-3.404 3.631-3.49l1.727-2.688-2.455.566c.242-.576.328-1.025.346-1.125l.586-3.346-2.67 2.1c-.033.025-.068.051-.107.074-.016-.447-.082-.742-.098-.805l-.633-2.549-1.645 2.049c-.029.037-.061.073-.096.109-2.691-2.112-6.893-3.35-11.512-3.35-8.719 0-9.838 4.584-9.838 8.578 0 3.031 1.912 7.287 6.908 8.623-1.998-.148-3.248-.385-3.248-.385-3.375-.471-6.465-1.219-9.144-1.865-2.878-.697-5.135-1.23-6.736-1.195-1.649-2.11-2.678-4.596-3.015-7.405m37.524-.17c.207 0 1.598-.025 2.443-.689 0 0-.295 1.686-1.65 2.639 0 0 .572.227 1.359.227.266 0 .557-.027.859-.096 0 0-1.205 1.873-3.418 3.209-1.115 1.424-3.674 4.859-11.611 4.859-6.903 0-8.971-5.037-8.971-7.752 0-4.02 1.285-7.278 8.538-7.278 4.912 0 9.188 1.498 11.438 3.712.475-.275.889-.588 1.186-.959 0 0 .232.941-.197 2.129-.001-.001.007-.001.024-.001m-13.221 15.492c-9.233 0-16.315-2.506-20.422-6.912 1.455.129 3.415.598 5.647 1.139 4.335 1.049 9.731 2.354 15.722 2.354 5.988 0 11.387-1.307 15.725-2.357.66-.16 1.277-.309 1.871-.447-4.371 3.415-10.531 6.223-18.543 6.223"/></svg>