<svg xmlns="http://www.w3.org/2000/svg" viewBox="0 0 64 64" enable-background="new 0 0 64 64"><path d="m11.18 15.074c1.493-2.916 3.297-4.938 5.28-6.338-1.807-1.171-4.966-1.582-6.499-1.582 0 0-1.817 5.811 1.219 7.92"/><path d="m52.818 15.072c3.032-2.109 1.219-7.918 1.219-7.918-1.536 0-4.693.41-6.502 1.581 1.985 1.401 3.789 3.421 5.283 6.337"/><path d="m42.121 12.833c-2.216-8.148-18.058-8.305-20.243.054 4.389-3.675 15.856-3.671 20.243-.054"/><path d="m25.068 16.096c3.608-3.017 10.254-3.009 13.863-.036-1.497-5.491-12.386-5.607-13.863.036"/><path d="m62 37.031l-.043-1.689c-.202-8.092-4.651-12.531-5.698-13.467-.322-1.333-.685-2.596-1.1-3.765 5.384-4.57 2.193-14.991 2.05-15.446l-.208-.664h-.716c-3.463 0-9.974.977-13.354 3.57-3.063-.846-6.236-.92-9.236-.92l-1.695.003-1.697-.003c-3 0-6.174.074-9.236.92-3.381-2.593-9.893-3.57-13.355-3.57h-.715l-.209.664c-.144.455-3.334 10.876 2.05 15.446-.416 1.169-.777 2.431-1.1 3.764-1.044.934-5.496 5.372-5.697 13.468l-.041 1.689 1.981-1.137c-.571 2.436-.929 6.451.998 11.004l.602 1.42 2.579-2.93c.793 2.372 2.894 6.396 8.313 8.848l1.216.551.314-2.663c1.269.738 3.385 1.785 6.201 2.562.444 1.469 1.406 3.25 3.466 4.867l3.113 2.447.012-1.356c.084.049.17.097.257.143l.934.5.935-.5c.086-.046.172-.094.256-.143l.006.735 2.895-1.672c.617-.357 1.137-.787 1.57-1.239l.785 1.443 1.811-2.546c.861-1.21 1.42-2.344 1.763-3.389 1.726-.634 3.078-1.322 3.989-1.853l.313 2.663 1.217-.551c5.419-2.452 7.519-6.476 8.313-8.848l2.578 2.93.602-1.42c1.926-4.553 1.568-8.569.998-11.005l1.983 1.139m-53.55-33.141c3.113.127 9.042 1.028 11.74 3.416l.411.364.532-.163c2.958-.906 6.151-.982 9.169-.982l1.698.002 1.695-.003c3.018 0 6.211.076 9.17.982l.531.163.411-.364c2.698-2.388 8.628-3.289 11.74-3.416.604 2.353 2.209 10.153-2.093 13.143l-.598.416.253.669c.527 1.393.981 2.943 1.369 4.63.103 1.208.489 6.661-.362 11.482-1.907 6.24-5.571 7.387-8.769 6.967-.475-2.217-1.486-4.829-3.029-7.847 4.403 1.657 10.539-1.035 9.931-7.213-.355-3.599-.408-3.907-7.467-3.18-7.064.73-7.057 1.046-6.701 4.641.104 1.048.386 1.949.789 2.727-.217 2.437-.603 5.894-1.154 7.592-3.082-.64-8.44-.609-11.463.009-.68-1.844-1.033-5.128-1.207-7.494.435-.799.734-1.739.844-2.833.354-3.595.362-3.91-6.701-4.641-7.059-.728-7.113-.419-7.466 3.18-.616 6.232 5.635 8.918 10.046 7.167-1.374 2.858-2.286 5.474-2.719 7.828-3.289.569-7.19-.399-9.175-6.92-.845-4.808-.462-10.237-.359-11.458.389-1.688.843-3.242 1.371-4.637l.253-.669-.597-.416c-4.294-2.983-2.694-10.789-2.093-13.142m38.607 24.395c1.277 0 2.314-1.054 2.314-2.354 0-.761-.359-1.339-.91-1.693 1.418.096 1.5.629 1.665 1.959.693 5.619-9.272 6.444-9.966.827-.251-2.033-.255-2.211 4.711-2.626.221-.019.422-.034.624-.05-.459.359-.753.896-.753 1.583 0 1.3 1.035 2.354 2.315 2.354m-26.361 0c1.28 0 2.313-1.054 2.313-2.354 0-.423-.118-.785-.309-1.089 1.322.329 1.272.865 1.111 2.182-.692 5.617-10.661 4.792-9.966-.827.249-2.03.29-2.208 5.22-1.802-.422.359-.684.882-.684 1.536.002 1.3 1.037 2.354 2.315 2.354m-16.603 5.368c.455-3.99 2.058-6.86 3.346-8.585-.065 1.735-.074 4.104.156 6.576l-3.502 2.009m13.724 16.105l-1.36-1.028-.377 3.2c-5.751-3.211-6.434-8.42-6.461-8.651l-.241-2.16-3.157 3.587c-1.835-5.821.296-10.42.318-10.468l1.088-2.257c.379 3.729 1.316 7.631 3.435 9.898 1.259 1.348 2.822 2.031 4.646 2.031 0 0 .001 0 .003 0 .963 0 1.985-.198 3.07-.578-.117 2.012.159 3.808.843 5.376.641 1.471 1.548 2.519 2.451 3.271-2.698-1.069-4.229-2.201-4.258-2.221m20.835 6.543l-.908-1.669c0 0-.669 2.316-2.658 3.466l-.019-2.207c0 0-.811 2.04-3.082 3.256-2.271-1.216-3.081-3.256-3.081-3.256l-.02 2.207c-3.634-2.854-3.09-6.207-3.09-6.207s-9.929-2.711-2.192-18.547c-.282 2.811.983 5.434.983 5.434l.022.007c.255.873 2.682 2.613 6.551 2.837.081 1.895.387 4.133.636 5.441-1.783 1.063-3.783 2.69-6 4.828 5.443-1.186 9.962-6.599 13.899-3.681.848 1.354 1.768 4.143-1.041 8.091m1.262-8.072c-.127 0-.199-.006-.199-.006-1.447-2.633-3.582-3.159-6.352-1.979-.202-1.208-.438-3.052-.512-4.625 3.851-.233 6.254-1.964 6.512-2.834l.025-.008c0 0 .846-2.141.822-5.368 7.325 12.745 1.091 14.82-.296 14.82m17.861-3.524l-3.156-3.587-.24 2.16c-.007.057-.671 5.407-6.463 8.65l-.377-3.207-1.361 1.037c-.026.02-1.363 1.014-3.742 2.017.053-.794-.004-1.519-.136-2.147.901-.372 1.853-1.032 2.532-2.197.625-1.069.893-2.39.822-3.958.922.287 1.801.438 2.631.438 1.824 0 3.388-.685 4.646-2.032 2.124-2.272 3.062-6.189 3.438-9.926l1.086 2.283c.024.048 2.156 4.648.32 10.469m-1.375-13.059c.229-2.473.221-4.843.156-6.578 1.29 1.726 2.893 4.596 3.349 8.587l-3.505-2.009"/></svg>