<svg xmlns="http://www.w3.org/2000/svg" viewBox="0 0 64 64" enable-background="new 0 0 64 64"><path d="m50.871 27.006c-3.367-3.504-7.342-5.637-11.928-5.771v5.928l8.6 3.431 3.328-3.588"/><ellipse cx="15.821" cy="11.261" rx="2.407" ry="2.502"/><path d="m5.666 12.09l.678-.333.254-.789-.677.333z"/><path d="m59.861 42.678c-.406-.375-1.088-.755-1.764-.947-1.016-5.321-3.201-10.023-6.189-13.574l-3.634 3.904 1.768 9.456c-.456.035-.901.078-1.317.121l-1.566-9.571-8.904-3.762-8.908 3.762-1.566 9.581c-.413-.048-.859-.077-1.32-.096l1.777-9.491-2.121-2.274c.04-.386.078-.735.101-.886.099-.329.187-.644.279-.967l2.469 2.66 8.617-3.438v-5.92c-3.923.114-7.407 1.7-10.442 4.346 2.317-9.028 2.083-15.22-.721-18.41-1.798-2.046-4.952-3.172-8.88-3.172-5.716 0-12.905 2.527-14.968 7.209-.668 1.517-1.34 4.598 1.656 8.208l.979 1.179.327-.182c.223 3.285 2.02 6.849 8.763 6.849.395 0 .506.121.566.188.93 1.018.734 4.96.59 7.839-.205 4.109-.399 7.989 1.452 10.016.216.237.459.431.716.603.251 1.261.806 2.312 1.701 3.185-.775 2.189-1.353 4.495-1.516 6.454-.7.532-1.568 2.401-1.568 5.557 0 1.127 4.939 1.219 5.645.127.393.036.813.056 1.272.056 3.145 0 6.844-.813 7-.849l.952-.211-.238-.981c-.184-.753-.283-1.585-.33-2.451 2.289-.035 4.921-.536 4.921-.536-.301-1.066-.338-2.328-.246-3.594.967.021 1.975.032 3.035.032 1.102 0 2.146-.013 3.146-.036-.419 1.063-.537 2.022-.092 2.579.991 1.233 6.051 1.56 6.051 1.56-.049-.626.028-1.303.168-1.983.012.019.021.037.033.057.832 1.261 1.791 2.319 2.757 3.088.147.85.53 1.936 1.288 3.156.449.726 3.537-1.629 3.824-2.812 2.031-1.731 4.138-5.263 5.129-7.051l.67-1.209-1.323-.24c-.988-.179-1.84-.477-2.551-.887.822-.866 1.334-1.895 1.559-3.126.227.261.451.542.665.861 1.154 1.723 2.106 3.697 2.374 2.743.27-.954-.513-5.267-2.086-6.72m-3.99 4.971c-.09-.114-.18-.229-.26-.351-.47-.726-.703-1.516-.811-2.233h2.314c-.13.987-.502 1.849-1.243 2.584m-38.116-4.534c-1.905-4.525 2.236-17.804-3.458-17.804-5.505 0-6.911-2.543-6.911-5.649 0 0 .477.224 1.365.224 1.421 0 3.894-.573 7.147-3.559-.223-.005-.441-.007-.657-.007-6.294 0-9.593 1.822-9.593 1.822-5.849-7.048 3.91-12.192 11.892-12.192 3.11 0 5.951.781 7.492 2.536 3.698 4.207.837 15.056-.631 19.911-.001.004-.002.013-.004.017-1.428 1.813-2.675 4.516-4.58 5.153-1.735.581-1.306 5.426 2.592 7.478-.243.794-.516 1.498-.821 2.07h-3.833m5.399 16.22c-.879 0-1.497-.071-1.946-.166-.52-1.015-1.074-1.865-1.577-2.504-.032-4.22 2.806-11.08 4.631-13.141.295-.02.769-.044 1.333-.044 2.174 0 3.852.339 4.734.94-.576 2.121-2.305 9.151-1.482 14.292-1.271.238-3.645.623-5.693.623m7.805-8.815c.147-.941.314-1.834.48-2.631.088.255.186.507.301.751.341.69.78 1.317 1.308 1.82.07.067.145.129.217.192-.821-.034-1.577-.08-2.306-.132m11.516.159c-1.299.042-2.699.064-4.227.064-1.525 0-2.926-.022-4.224-.064-.19-.23-.378-.461-.552-.7-.404-.559-.767-1.137-1.061-1.76-.272-.546-.481-1.132-.659-1.735.138-.582.259-1.062.354-1.418h12.972c-.074.407-.158.805-.26 1.19-.192.687-.426 1.347-.731 1.963-.294.623-.659 1.201-1.062 1.76-.173.239-.361.469-.55.7m.757-.027c.072-.063.146-.125.217-.192.527-.503.968-1.13 1.309-1.82.128-.273.236-.558.331-.845.077.914.228 1.826.478 2.722-.738.054-1.502.101-2.335.135m10.748 6.395c-1.152-.576-2.201-.866-2.846-.918-.675-.593-1.385-1.378-2.033-2.36-.965-1.464-3.014-5.284-1.874-9.987 1.05-.142 3.273-.411 5.011-.411.222 0 .428.005.617.013-.07 1.199.036 3.196 1.186 4.984.935 1.454 2.354 2.475 4.232 3.049-1.558 2.611-3.263 4.836-4.293 5.63"/></svg>