<svg xmlns="http://www.w3.org/2000/svg" viewBox="0 0 64 64" enable-background="new 0 0 64 64"><ellipse cx="14.189" cy="26.701" rx="4.097" ry="4.24"/><ellipse cx="31.999" cy="26.701" rx="5.386" ry="5.574"/><path d="m21.111 36.207c.666-.175 1.367-.11 2.04.142.672.256 1.319.663 1.954 1.12-.423-.656-.979-1.258-1.709-1.652-.717-.41-1.633-.547-2.465-.337-.831.214-1.539.693-2.099 1.265-.571.567-.994 1.241-1.347 1.938.585-.523 1.143-1.05 1.732-1.499.594-.444 1.222-.819 1.894-.977"/><path d="m16.604 38.729c-.111-.182-.183-.408-.281-.652-.107.241-.139.509-.08.785.048.279.245.549.501.704.26.149.548.202.813.173.267-.022.514-.097.74-.23-.507-.125-.971-.162-1.295-.37-.163-.095-.286-.23-.398-.41"/><path d="m25.842 37.794c-.078.137-.188.239-.339.341-.153.1-.348.169-.562.268.21.107.447.141.694.094.25-.037.493-.215.634-.444.133-.233.179-.49.147-.725-.024-.235-.097-.451-.226-.647-.132.445-.173.843-.348 1.113"/><path d="m22.489 37.896c-.404-.2-.894-.244-1.342-.148-.448.103-.852.321-1.179.605-.336.278-.599.608-.853.945.392-.184.721-.441 1.071-.632.352-.189.7-.358 1.065-.431.361-.085.733-.068 1.106.022.375.089.736.277 1.116.47-.242-.347-.574-.643-.984-.831"/><path d="m60.195 42.42l-8.918-4.676c.367-1.426.598-2.906.684-4.426l10.039-1.318-10.039-1.32c-.086-1.518-.316-2.998-.684-4.424l8.92-4.675-9.707 2.218c-.557-1.453-1.256-2.837-2.08-4.133l6.568-7.247-8.02 5.219c-1.027-1.283-2.188-2.455-3.463-3.491l3.512-8.523-5.381 7.154c-1.491-.98-3.101-1.795-4.806-2.412l.379-8.366-2.376 7.745c-1.86-.485-3.811-.745-5.823-.745-.018 0-.035.001-.053.001l-2.148-7.001.32 7.082c-2.248.183-4.403.687-6.422 1.469l-3.707-4.927 2.281 5.533c-2.205 1.03-4.218 2.401-5.975 4.044l-4.275-2.783 3.352 3.699c-1.787 1.869-3.261 4.04-4.34 6.43l-4.23-.969 3.799 1.992c-.969 2.455-1.525 5.117-1.588 7.902l-4.014.528 4.014.527c.164 4.978 1.327 7.24 1.588 7.902l-3.799 1.992 4.056-.929c-.861.618-1.707 1.343-2.358 1.993-1.781 1.779-.979 2.719.096 3.793 1.073 1.074 2.012 1.875 3.793.096.43-.43.838-1.002 1.201-1.631.557.744 1.142 1.466 1.782 2.137l-3.353 3.7 4.276-2.783c1.757 1.643 3.77 3.014 5.976 4.045l-2.281 5.533 3.707-4.926c2.019.781 4.174 1.285 6.422 1.467l-.321 7.084 2.148-7.002c.018 0 .035.002.053.002 2.012 0 3.963-.26 5.823-.746l2.376 7.746-.378-8.367c1.705-.615 3.314-1.43 4.806-2.412l5.381 7.154-3.512-8.521c.119-.097.223-.21.34-.309.492.569.988 1.104 1.455 1.572 2.746 2.746 4.195 1.508 5.852-.148.4-.4.775-.788 1.076-1.186l2.76 1.797-2.305-2.543c.482-1.051.294-2.244-1.383-3.92-.615-.616-1.42-1.206-2.309-1.738.533-.932 1.115-2.082 1.506-3.178l9.707 2.219m-28.196-23.827c4.326 0 7.834 3.632 7.834 8.108 0 4.479-3.508 8.109-7.834 8.109-4.327 0-7.832-3.631-7.832-8.109 0-4.476 3.505-8.108 7.832-8.108m-17.81 1.94c3.291 0 5.959 2.762 5.959 6.168s-2.668 6.168-5.959 6.168-5.957-2.762-5.957-6.168 2.666-6.168 5.957-6.168m33.02 21.918c-2.721-1.232-5.67-1.771-6.72-.723-1.129 1.13.236 3.803 2.089 6.262-.117.1-.225.214-.344.312l-.8.649-.909.6c-1.377.908-2.852 1.648-4.383 2.201l-.908.327-.917.239c-1.715.449-3.49.678-5.276.682l-.038-.002h-.056-.731l-.936-.076c-2.015-.162-3.986-.612-5.861-1.338l-.671-.26-.629-.295c-1.998-.934-3.834-2.176-5.457-3.693l-.414-.387-.43-.45c-1.65-1.727-2.982-3.701-3.961-5.868l-.211-.471-.183-.463c-.03-.076-.068-.168-.115-.278-.122-.286-.317-.747-.523-1.425 1.215-.231 2.425-.412 3.854-.586h-.049c.023 0 .043-.002.066-.003.719-.087 1.453-.164 2.202-.229 2.962-.649 3.352-2.481 6.026-3.029 2.551-.521 4.618 2.289 8.629 3.072l-.086.001c6.604.55 12.875 1.682 18.694 3.391-.291.64-.628 1.279-.952 1.84"/></svg>