<svg xmlns="http://www.w3.org/2000/svg" viewBox="0 0 64 64" enable-background="new 0 0 64 64"><circle cx="20.657" cy="28.136" r="3"/><circle cx="43.343" cy="28.136" r="3"/><path d="m62 14.983c0-7.159-5.557-12.983-12.388-12.983-4.242 0-8.174 2.303-10.43 5.992-2.165-.55-4.574-.827-7.182-.827-2.61 0-5.019.277-7.185.827-2.254-3.688-6.186-5.992-10.426-5.992-6.831 0-12.389 5.824-12.389 12.983 0 4.908 2.649 9.32 6.687 11.515-.024.629.009 1.205.082 1.728l-.791-.153.595 2.851c.045.215.471 2.133 1.77 4.084.239.425.606.89 1.121 1.419.145.153.313.322.491.483l2.222 2.033c-1.104 1.307-3.415 4.122-4.615 6.171-2.989 5.11-2.774 8.405.676 10.37.904.516 1.782.779 2.64.814.356 1.809 1.212 3.214 2.565 4.185 1.421 1.021 3.352 1.517 5.9 1.517 3.673 0 5.85-1.116 7.105-2.679 1.147.193 2.336.3 3.552.3 1.206 0 2.389-.107 3.533-.3.35.438.757.826 1.225 1.162 1.423 1.021 3.352 1.517 5.901 1.517 5.791 0 7.879-2.768 8.465-5.701.857-.036 1.735-.3 2.639-.815 3.449-1.965 3.664-5.26.674-10.371-1.199-2.051-3.515-4.87-4.617-6.174l2.227-2.029c.18-.164.352-.334.515-.509.491-.504.857-.967 1.097-1.393 1.299-1.951 1.725-3.87 1.77-4.085l.595-2.851-.79.153c.072-.522.105-1.1.081-1.729 4.036-2.192 6.685-6.604 6.685-11.513m-40.657 45.081c-3.678 0-6.661-1.087-6.659-5.836-.002-4.747 2.98-8.596 6.659-8.596 3.68 0 6.66 3.849 6.66 8.596 0 4.75-2.982 5.836-6.66 5.836m21.316 0c-3.68 0-6.662-1.085-6.66-5.834-.002-4.749 2.98-8.598 6.66-8.598 3.676 0 6.658 3.849 6.658 8.598 0 4.748-2.982 5.834-6.658 5.834m10.037-13.998c3.413 5.835 1.143 7.129.052 7.75-.45.256-.927.443-1.433.512 0-.032.002-.065.002-.098 0-5.809-3.884-10.533-8.658-10.533-2.39 0-4.689 1.2-6.311 3.292-1.516 1.958-2.35 4.529-2.35 7.242 0 1.234.188 2.322.537 3.275-.83.105-1.673.179-2.536.179-.864 0-1.705-.076-2.531-.185.392-1.063.534-2.198.534-3.272 0-5.808-3.885-10.531-8.66-10.531-2.389 0-4.688 1.2-6.31 3.292-1.516 1.957-2.35 4.528-2.349 7.24 0 .035.004.066.004.102-.508-.068-.985-.258-1.437-.515-1.091-.621-3.363-1.915.049-7.749 1.202-2.053 3.72-5.074 4.655-6.172 3.906 2.426 9.591 4.804 16.043 4.804s12.137-2.378 16.043-4.804c.939 1.099 3.456 4.12 4.656 6.171m-.433-20.415c-.189.885-.411 1.454-.411 1.454l1.392-1.368c.449 3.474-1.209 5.079-1.209 5.079l1.433-.276c0 0-.368 1.764-1.536 3.487-.143.273-.435.645-.852 1.072-.129.138-.264.273-.406.403l-.002-.009c-2.801 2.632-9.666 6.946-17.801 7.241 3.697-.232 5.813-2.098 5.813-8.659 0-5.548-4.504-7.655-6.683-7.655s-6.683 2.107-6.683 7.655c0 6.562 2.115 8.427 5.813 8.659-8.135-.295-15-4.609-17.801-7.241l-.001.009c-.143-.13-.278-.266-.408-.403-.416-.428-.709-.799-.851-1.072-1.168-1.725-1.536-3.487-1.536-3.487l1.433.276c0 0-1.657-1.605-1.21-5.079l1.391 1.368c0 0-.222-.57-.412-1.454-4.45-1.25-7.736-5.546-7.736-10.668 0-6.102 4.652-11.047 10.389-11.047 4.166 0 7.751 2.616 9.405 6.383 2.296-.786 5.002-1.218 8.206-1.218 3.202 0 5.909.433 8.204 1.217 1.656-3.766 5.24-6.382 9.408-6.382 5.735 0 10.388 4.945 10.388 11.047 0 5.123-3.288 9.419-7.737 10.668"/><path d="m14.498 13.92c1.657-.922 3.619-.281 3.619-.281s-.071-.97-1.521-.932c1.338-1.04 3.207-.422 3.207-.422l-.003.01c.075-.053.16-.098.236-.148-.999-2.265-3.149-3.835-5.647-3.835-3.453 0-6.247 2.986-6.247 6.672 0 2.675 1.478 4.975 3.608 6.037.061-.231.131-.464.217-.694l1.542 1.036c0 0-.468-1.326-.038-2.232l.665.475c0 0-1.208-3.04-.109-4.318.613 1.844 1.338 1.816 1.338 1.816s-.888-1.38-.195-1.958c.706 1.038 1.291.362 1.263.051-.039-.416.14-1.002-1.935-1.277"/><path d="m49.612 8.312c-2.5 0-4.649 1.57-5.648 3.835.078.052.163.097.24.15l-.006-.012c0 0 1.867-.618 3.205.422-1.449-.038-1.52.932-1.52.932s1.961-.641 3.618.281c-2.073.275-1.896.861-1.937 1.275-.027.312.561.987 1.266-.051.694.578-.195 1.958-.195 1.958s.728.027 1.338-1.816c1.1 1.278-.107 4.318-.107 4.318l.666-.475c.43.906-.039 2.232-.039 2.232l1.541-1.036c.086.23.154.462.216.694 2.128-1.063 3.608-3.362 3.608-6.037 0-3.684-2.798-6.67-6.246-6.67"/><path d="m21.343 49.44c-2.599 0-4.708 2.718-4.707 6.074-.001 3.356 2.107 4.124 4.707 4.124 2.6 0 4.707-.768 4.707-4.124 0-3.354-2.108-6.074-4.707-6.074"/><path d="m42.659 49.44c-2.602 0-4.709 2.72-4.707 6.076-.002 3.356 2.107 4.124 4.707 4.124s4.706-.768 4.706-4.126c0-3.354-2.106-6.074-4.706-6.074"/></svg>