<svg xmlns="http://www.w3.org/2000/svg" viewBox="0 0 64 64" enable-background="new 0 0 64 64"><path d="m60.112 33.324c-1.156-.515-2.199-.884-3.148-1.145 2.712-1.37 4.669-2.715 3.366-3.293-1.288-.572-2.466-.806-3.542-.799 1.479-1.703 2.244-3.135 1.207-3.596-3.586-1.592-5.977.632-7.523 3.536-1.412-8.699-5.254-13.979-11.646-15.993 3.541-4.463 6.91-6.731 6.945-6.755l1.854-1.233-2.165-.512c-.341-.081-8.438-1.903-15.898 4.465-.065.055-.13.111-.192.168-.367-2.51-.313-4.094-.312-4.113l.078-2.054-1.633 1.25c-.182.139-4.225 3.294-5.547 9.3-4.573-1.262-8.147-.457-8.309-.42l-2.175.508 1.859 1.238c.019.013 1.837 1.234 4.185 3.62-1.965 2.673-3.289 6.155-3.998 10.515-1.546-2.896-3.935-5.107-7.513-3.519-1.038.461-.272 1.893 1.207 3.596-1.075-.007-2.254.227-3.542.799-1.303.578.654 1.923 3.366 3.292-.95.262-1.992.631-3.149 1.146-3.542 1.573 4.362 2.282 9.027 2.556-.002.207-.014.399-.014.611 0 1.248.128 2.405.376 3.463l-2.153.815-2.707-4.805c0 0-2.423 1.692-2.423 4.968 0 11.664 11.06 21.067 26.007 21.067 14.948 0 26.007-9.403 26.007-21.067 0-3.275-2.424-4.968-2.424-4.968l-2.706 4.805-2.155-.816c.247-1.057.378-2.214.378-3.462 0-.21-.009-.405-.011-.611 4.664-.275 12.566-.984 9.023-2.557m-6.366 9.843l.815-1.448 1.264-2.243c.149.42.248.905.248 1.457 0 10.729-10.574 19.135-24.073 19.135s-24.074-8.406-24.074-19.135c0-.552.099-1.037.249-1.457l1.264 2.243.815 1.448 1.555-.59 5.063-1.92 6.066 5.475.927.838 1.144-.502 6.757-2.956 4.992 3.603 1.197.865 1.148-.927 7.96-6.422 5.13 1.946 1.553.59m-7.035-4.735l-8.823 7.116-5.888-4.249-7.769 3.399-6.942-6.267-2.186.828c-.176-.845-.27-1.77-.27-2.769 0-8.433 1.584-14.641 4.707-18.451l.538-.657-.582-.618c-1.187-1.259-2.27-2.251-3.13-2.979 1.531-.034 3.672.123 6.032.92l1.09.369.176-1.137c.554-3.595 2.27-6.188 3.541-7.677.088 1.087.262 2.518.602 4.198l.431 2.121 1.293-1.735c.378-.508.8-.958 1.287-1.374 4.432-3.784 9.187-4.343 11.921-4.281-1.601 1.355-3.971 3.622-6.332 6.83l-.873 1.187 1.436.329c8.208 1.875 12.199 9.384 12.199 22.957 0 .999-.092 1.926-.269 2.77l-2.189-.83"/><path d="m31.999 29.966c-2.281 0-4.138 2.596-4.138 5.785 0 2.733 2.147 4.425 4.138 4.425s4.14-1.691 4.14-4.425c0-3.189-1.857-5.785-4.14-5.785m0 .967c1.589 0 2.896 1.788 3.125 4.105-.639-.683-1.792-1.677-3.124-1.677-1.331 0-2.485.995-3.124 1.677.228-2.317 1.535-4.105 3.123-4.105m0 8.276c-1.389 0-2.863-1.104-3.118-2.913.64.682 1.792 1.669 3.119 1.669 1.328 0 2.479-.987 3.119-1.669-.255 1.808-1.73 2.913-3.12 2.913"/><path d="m40.903 23.304c-.82-.197-1.73-.069-2.439.316-.723.37-1.274.935-1.693 1.549.631-.429 1.27-.81 1.936-1.051.666-.236 1.361-.296 2.021-.132.665.148 1.288.5 1.874.915.585.42 1.135.915 1.715 1.404-.35-.652-.768-1.285-1.334-1.815-.554-.538-1.255-.986-2.08-1.186"/><path d="m25.537 23.62c-.71-.386-1.616-.514-2.44-.316-.822.2-1.524.648-2.078 1.187-.565.53-.984 1.163-1.332 1.815.578-.489 1.13-.984 1.713-1.404.588-.415 1.211-.767 1.876-.915.658-.164 1.353-.104 2.02.132.667.241 1.304.622 1.935 1.051-.419-.615-.97-1.18-1.694-1.55"/><path d="m23.458 28.958c-1.228 0-2.222 1.278-2.222 2.475 0 1.197.994 1.722 2.222 1.722 1.225 0 2.219-.524 2.219-1.722 0-1.197-.994-2.475-2.219-2.475"/><path d="m40.544 28.958c-1.229 0-2.223 1.278-2.223 2.475 0 1.197.994 1.722 2.223 1.722 1.225 0 2.22-.524 2.22-1.722 0-1.197-.995-2.475-2.22-2.475"/></svg>