<svg xmlns="http://www.w3.org/2000/svg" viewBox="0 0 64 64" enable-background="new 0 0 64 64"><path d="m49.82 7.161c-2.482-1.601-4.053-.913-4.816-.292-.855-.576-1.713-1.059-2.564-1.398-2.342-.934-6.149-1.471-10.44-1.471-4.293 0-8.098.537-10.441 1.472-.851.339-1.711.823-2.566 1.399-.765-.62-2.333-1.304-4.813.295-5.379 3.464-16.902 2.091-10.081 17.023 1.096 2.397 1.94 4.091 2.681 5.033-.068 8.66 2.785 19.998 8.45 23.68 6.743 4.382 11.984 7.098 17.27 7.098 5.284 0 10.526-2.716 17.268-7.099 5.746-3.732 7.855-15.274 7.539-23.797.719-.961 1.541-2.615 2.594-4.92 6.82-14.932-4.702-13.559-10.081-17.023m-1.142 44.064c-6.436 4.182-11.387 6.775-16.178 6.775-4.792 0-9.744-2.593-16.18-6.775-4.797-3.118-7.44-13.468-7.521-21.474.891-.793 1.851-2.993 3.213-6.745 1.109-3.058 1.07-5.362 1.349-7.431 2.558-3.673 5.896-7.031 8.94-8.246 2.083-.832 5.71-1.329 9.699-1.329 3.989 0 7.614.497 9.7 1.329 3.045 1.215 6.385 4.575 8.941 8.25.277 2.066.24 4.369 1.348 7.422 1.453 4 2.447 6.236 3.389 6.881.196 8.094-1.978 18.275-6.7 21.343"/><path d="m24.249 30.731c0-3.591-2.916-6.512-6.5-6.512s-6.5 2.921-6.5 6.512c0 3.592 2.916 6.514 6.5 6.514s6.5-2.922 6.5-6.514m-10.57 3.696c.729.511 1.613.814 2.57.814 2.485 0 4.5-2.018 4.5-4.51 0-2.49-2.015-4.509-4.5-4.509-.958 0-1.841.305-2.571.816 1.007-1.114 2.457-1.819 4.071-1.819 3.032 0 5.5 2.473 5.5 5.512 0 3.04-2.468 5.514-5.5 5.514-1.614 0-3.063-.705-4.07-1.818"/><path d="m46.25 24.219c-3.584 0-6.5 2.921-6.5 6.512 0 3.592 2.916 6.514 6.5 6.514s6.5-2.922 6.5-6.514c0-3.59-2.916-6.512-6.5-6.512m0 12.026c-3.031 0-5.5-2.474-5.5-5.514 0-3.039 2.469-5.512 5.5-5.512 1.615 0 3.064.705 4.072 1.819-.73-.511-1.613-.816-2.572-.816-2.484 0-4.5 2.019-4.5 4.509 0 2.492 2.016 4.51 4.5 4.51.957 0 1.842-.304 2.57-.814-1.006 1.113-2.455 1.818-4.07 1.818"/><path d="m41.055 34.777c-2.143-2.231-5.443-3.511-9.058-3.511-3.612 0-6.91 1.279-9.047 3.512l-7.146 7.479c-2.206 2.309-2.206 6.064 0 8.375 1.074 1.123 2.506 1.742 4.031 1.742 1.255 0 2.443-.426 3.426-1.199l2.717 2.845c1.428 1.487 3.623 2.339 6.023 2.339 2.399 0 4.592-.853 6.016-2.34l2.721-2.846c.982.775 2.172 1.201 3.426 1.201 1.525 0 2.957-.619 4.033-1.743 2.203-2.31 2.203-6.065 0-8.374l-7.142-7.48m-3.76 18.55c-1.234 1.291-3.166 2.031-5.293 2.031-2.13 0-4.063-.74-5.301-2.03l-2.703-2.831 2.666-2.789 1.058-1.105c-.476 1.39-.646 2.537-.495 3.413.473 2.761 2.738 3.996 4.773 3.996 2.036 0 4.301-1.235 4.774-3.995.15-.878-.02-2.025-.496-3.418l3.725 3.896-2.708 2.832m10.178-3.387c-.883.924-2.059 1.434-3.309 1.434-1.137 0-2.203-.441-3.057-1.217l-.053-.049c-.041-.039-.084-.074-.201-.168l-6.346-6.639-.799-.837c-.424-.442-1.045-.696-1.708-.696s-1.284.254-1.706.695l-.801.838-6.419 6.699c-.044.035-.088.071-.131.11l-.05.047c-.853.775-1.919 1.217-3.058 1.217-1.25 0-2.425-.51-3.308-1.434-1.842-1.929-1.842-5.065 0-6.993l7.146-7.478c1.948-2.035 4.983-3.203 8.324-3.203 3.343 0 6.382 1.168 8.335 3.202l7.141 7.479c1.841 1.928 1.841 5.066 0 6.993"/><path d="m32 32.511c-3.257 0-5.898.508-5.898 3.143 0 2.094 4.692 3.951 5.898 3.951 1.204 0 5.899-1.857 5.899-3.951-.001-2.635-2.641-3.143-5.899-3.143"/><path d="m25.313 39.001l-1-1.002-1 1.004 1 1.002z"/><path transform="matrix(-.7071-.7071.7071-.7071 7.9133 86.7934)" d="m21.225 41.05h1.414v1.416h-1.414z"/><path d="m24.063 42.761l1 1.002 1-1.004-1-1.002z"/><path d="m38.686 39.001l1 1.004 1-1.002-1-1.004z"/><path transform="matrix(-.7064-.7078.7078-.7064 42.2268 101.0307)" d="m41.359 41.051h1.416v1.414h-1.416z"/><path d="m37.936 42.759l1 1.004 1-1.002-1-1.004z"/></svg>