<svg xmlns="http://www.w3.org/2000/svg" viewBox="0 0 64 64" enable-background="new 0 0 64 64"><ellipse cx="44.729" cy="26.339" rx="3.25" ry="3.934"/><path d="m39.597 46.444c-1.438-.964-3.472.778-4.546 3.888-1.074 3.114-.773 6.42.667 7.383 1.44.967 3.477-.773 4.547-3.887 1.069-3.111.772-6.418-.668-7.384"/><path d="m24.371 46.444c-1.441.967-1.741 4.272-.668 7.384 1.071 3.113 3.107 4.854 4.548 3.888 1.438-.964 1.737-4.27.665-7.382-1.071-3.111-3.105-4.853-4.545-3.89"/><path d="m57.979 2.012c-5.433-.12-9.816.679-12.362 2.237-.629.924-1.131 2.081-1.504 3.429-5.349-4.616-16.164-5.075-24.268-.302-.373-1.206-.842-2.251-1.416-3.079-2.64-1.586-7.048-2.312-12.417-2.162-.128 5.107.719 9.227 2.379 11.621 1.02.612 2.31 1.094 3.812 1.45-1.615 2.99-2.583 6.607-2.583 10.907 0 0 1.103-1.38 3.139-3.192-.167 7.313-2.826 12.398-2.826 12.398s2.106-.464 4.603-2.38c-1.274 6.382-4.985 11.078-4.985 11.078s3.31-.883 6.772-3.432c-1.229 7.681-7.667 14.226-7.667 14.226s5.295-1.55 9.918-5.212c-.375 1.539-.379 3.103-.379 4.414 0 6.628 5.513 7.986 13.788 7.986s13.788-1.358 13.788-7.986c0-1.233-.001-2.689-.313-4.139.01-3.039 1.262-8.099 2.654-12.473.738 1.107 1.003 2.62 1.003 2.62s6.864-9.433 4.697-20.421c-.376-1.902-1.022-3.355-1.807-4.472 1.462-.364 2.702-.847 3.673-1.44 1.685-2.481 2.462-6.626 2.301-11.676m-44.167 10.699c-1.317-.198-2.423-.535-3.229-1.019-.937-1.35-1.412-3.671-1.343-6.55 3.028-.086 5.511.324 6.998 1.219.477.688.834 1.631 1.062 2.768-1.287 1.03-2.462 2.223-3.488 3.582m18.17 47.321c-9.859 0-11.787-2.207-11.787-6.019 0-2.811.154-5.276 2.056-6.987l.267-.239.049-.352c.201-1.436.71-2.51 1.395-2.946.23-.146.469-.217.731-.217.673 0 1.476.458 2.263 1.29l.357.376.518-.074c1.23-.175 2.627-.263 4.152-.263 1.527 0 2.924.088 4.154.263l.518.074.357-.376c1.096-1.155 2.18-1.59 2.992-1.073.686.436 1.193 1.509 1.394 2.944l.05.353.266.239c1.902 1.71 2.057 4.177 2.057 6.988-.001 3.812-1.929 6.019-11.789 6.019m11.343-14.211c-.325-1.884-1.095-3.258-2.235-3.984-1.51-.961-3.461-.587-5.171 1.016-2.39-.29-5.479-.29-7.87 0-1.709-1.603-3.659-1.978-5.175-1.015-1.14.729-1.909 2.102-2.235 3.984-.502.498-.897 1.034-1.214 1.594-.91-6.112-4.049-15.801-4.049-18.9 0-2.544-.138-5.178.486-8.076 3.076-2.2 7.206-4.452 12.219-5.547 0 0-3.498 3.937-7.993 7.669-.274-.092-.559-.156-.858-.156-1.796 0-3.25 1.761-3.25 3.935s1.454 3.934 3.25 3.934c1.793 0 3.25-1.76 3.25-3.934 0-1.272-.506-2.391-1.279-3.109 3.859-1.303 10.451-3.975 15.115-8.246 0 0 .816 4.595-8.523 7.64 0 0 16.491-.43 19.33-6.629 1.791 4.088 1.463 7.862 1.463 12.521 0 .624-.129 1.524-.332 2.599-1.568 3.775-3.641 10.289-4.451 15.229-.15-.18-.307-.355-.478-.525m10.135-34.214c-.946.58-2.353.967-4.079 1.144-.766-.41-1.537-.644-2.256-.748-.144-.387-.316-.783-.542-1.198.132-1.89.551-3.439 1.252-4.474 1.427-.873 3.875-1.317 6.91-1.249.091 2.819-.344 5.138-1.285 6.525"/></svg>