<svg xmlns="http://www.w3.org/2000/svg" viewBox="0 0 64 64" enable-background="new 0 0 64 64"><path d="m32 10c-18.224 0-30 10.75-30 27.387 0 6.971 2.046 11.558 6.255 14.023 3.671 2.15 8.7 2.59 15.12 2.59 1.333 0 2.707-.018 4.115-.034 2.939-.037 6.08-.037 9.02 0 1.407.016 2.781.034 4.114.034 11.695 0 21.376-1.25 21.376-16.613 0-16.637-11.775-27.387-30-27.387m8.624 42c-1.325 0-2.69-.018-4.09-.034-1.478-.019-2.991-.037-4.534-.037s-3.057.019-4.535.037c-1.399.016-2.765.034-4.09.034-6.095 0-10.827-.395-14.109-2.316-3.593-2.104-5.266-6.012-5.266-12.297 0-18.718 14.464-25.387 28-25.387s28 6.669 28 25.387c0 13.564-8.031 14.613-19.376 14.613"/><path d="m19.051 20.044c-3.926 0-7.102 6.088-7.102 13.604 0 7.518 3.176 13.607 7.102 13.607 3.921 0 7.096-6.09 7.096-13.607-.001-7.516-3.175-13.604-7.096-13.604"/><path d="m44.936 20.044c-3.926 0-7.102 6.088-7.102 13.604 0 7.518 3.176 13.607 7.102 13.607 3.921 0 7.096-6.09 7.096-13.607-.001-7.516-3.176-13.604-7.096-13.604"/></svg>