<svg xmlns="http://www.w3.org/2000/svg" viewBox="0 0 64 64" enable-background="new 0 0 64 64"><path d="m18.137 21.824c-5.645 1.549-9.088 7.132-8.092 10.944.998 3.813 4.766-.53 10.411-2.08 5.643-1.551 11.024.281 10.028-3.532-.997-3.813-6.702-6.883-12.347-5.332"/><path d="m13.768 20.047c1.701-.632 1.918-4.417 1.012-6.969-.906-2.55-3.02-4.103-4.721-3.469-1.7.635-2.344 3.217-1.438 5.767.906 2.551 3.445 5.306 5.147 4.671"/><path d="m20.708 18.078c1.803-.162 2.967-3.759 2.736-6.465-.23-2.704-1.879-4.763-3.682-4.604-1.803.163-3.079 2.486-2.848 5.19.232 2.704 1.989 6.041 3.794 5.879"/><path d="m28.678 10.164c-1.809 0-3.275 2.2-3.275 4.914 0 2.716 1.467 6.195 3.275 6.195 1.81 0 3.276-3.479 3.276-6.195.001-2.715-1.466-4.914-3.276-4.914"/><path d="m3.318 17.127c-1.568.926-1.766 3.584-.439 5.936 1.324 2.35 4.293 4.612 5.86 3.685 1.568-.927 1.141-4.693-.184-7.043-1.325-2.352-3.671-3.505-5.237-2.578"/><path d="m45.865 44.529c-5.645-1.551-11.352 1.52-12.348 5.332-.998 3.813 4.385 1.981 10.029 3.532 5.645 1.55 9.412 5.893 10.408 2.08.998-3.812-2.446-9.394-8.089-10.944"/><path d="m50.234 42.755c1.699.632 4.24-2.123 5.146-4.674.906-2.551.262-5.133-1.438-5.767-1.701-.635-3.813.919-4.719 3.47s-.69 6.336 1.011 6.971"/><path d="m43.295 40.782c1.803.162 3.561-3.174 3.791-5.878s-1.043-5.028-2.846-5.19c-1.803-.16-3.451 1.9-3.684 4.605-.23 2.705.936 6.301 2.739 6.463"/><path d="m35.322 43.978c1.811 0 3.277-3.479 3.277-6.195 0-2.714-1.467-4.914-3.277-4.914s-3.277 2.2-3.277 4.916c0 2.714 1.469 6.193 3.277 6.193"/><path d="m60.683 39.832c-1.568-.927-3.912.226-5.236 2.577-1.323 2.351-1.751 6.117-.186 7.044 1.568.927 4.537-1.335 5.861-3.685 1.324-2.351 1.127-5.009-.439-5.936"/></svg>