<svg xmlns="http://www.w3.org/2000/svg" viewBox="0 0 64 64" enable-background="new 0 0 64 64"><path d="m28.871 19.341c0-1.135-.877-2.051-1.951-2.051-1.075 0-1.951.916-1.951 2.051 0 1.131.876 2.05 1.951 2.05 1.074 0 1.951-.919 1.951-2.05"/><path d="m13.023 23.066c-1.189 1.078-1.167 2.22-.612 2.436 1.068.42 1.303-1.312 2.9-1.783 1.599-.468 5.054 1.445 8.188 3.211 3.133 1.763 6.102-.491 7.61-2.618 1.503-2.133 4.172-1.972 4.172-1.972-1.366-.446-3.234-.755-5.757 2.168-2.524 2.93-5.132 1.097-9.077-1.287-3.953-2.376-6.235-1.234-7.424-.155"/><path d="m61.598 30.051c-4.335.596-5.861-3.863-5.861-3.863 4.978 2.423 6.263-5.064 6.263-5.064-6.328.698-8.127-1.938-8.127-1.938 4.363 1.973 6.175-6.07 6.175-6.07-6.667 2.649-5.569-2.493-12.707-2.493 0-2.55 3.031-5.78 3.031-5.78-8.007-2.072-11.066 3.784-11.066 3.784-2.979-2.731-.581-6.627-.581-6.627-5.287 0-8.574 5.371-10.298 9.399-.628.406-1.224.872-1.802 1.368-.027-.534.053-1.392.561-2.62 0 0-3.828 2.201-4.049 4.522-1.199 1.073-1.988 2.63-2.064 4.384-.899-.587-1.903-.975-2.953-1.152.935-1.481 1.281-3.405 1.264-4.979-.023-2.735 2.109-4.382 2.109-4.382-1.295.551-2.899 1.539-3.214 5.605-.15 1.955-.929 3.022-2.178 3.686-.897.09-1.771.333-2.589.731-1.217-1.592-3.06-2.56-5.022-2.56-3.579 0-6.49 3.099-6.49 6.908 0 3.809 2.911 6.907 6.489 6.907h19.552c-3.261 1.609-3.256 2.412-7.998.843-6.942-2.294-9.464 1.681-11.098 2.215 0 0 3.313-.956 6.341.979h-8.472c-2.655 0-4.814 2.297-4.814 5.122 0 1.507.625 2.849 1.601 3.788-.855 4.375 2.747 8.711 2.747 8.711-.84-2.773-.602-4.121-.602-4.121 2.67 4.031 7.771 2.717 7.771 2.717-3.432-.949-5.32-4.912-5.32-4.912 1.405 2.906 5.175 2.389 5.175 2.389s-1.514-.275-2.954-3.447h15.544c9.3 4.746 7.046 17.603 7.046 17.603h6.834c.017-.753.034-2.233-.092-4.409h-5.045c-.03-.847-.104-1.764-.245-2.721h5.065c-.484-4.417-1.658-9.344-4.435-10.859 8.561.544 16.069-1.503 16.829-15.207-.938 7.915-7.267 14.042-14.947 14.042h-27.468c-1.386-1.473-4.148-2.378-5.267-1.319-.476-.617-.774-1.396-.774-2.253 0-1.963 1.507-3.57 3.352-3.57h25.129c1.854 0 3.354-1.595 3.354-3.569 0-1.976-1.5-3.57-3.354-3.57h-23.455c-2.775 0-5.026-2.4-5.026-5.356 0-2.96 2.251-5.356 5.026-5.356 2.011 0 3.733 1.266 4.536 3.088 1.091-.818 2.409-1.303 3.842-1.303 2.309 0 4.311 1.262 5.512 3.155.124-.518.279-1.021.449-1.518-.186-.51-.299-1.059-.299-1.637 0-1.214.45-2.311 1.181-3.129 1.966 1.475 8.634-2.417 12.813 1.081 0 0-.76-2.262-2.27-2.665 0 0 .652-.544 2.133-.656 0 0-1.557-2.089-4.414-.063 0 0 .2-1.388 1.249-2.126 0 0-2.351.008-3.944 1.703 0 0-.299-.182-.205-.882 1.643-1.093 4.195-2.19 7.9-2.19 8.198 0 14.318 6.42 15.01 14.612 6.17 13.215 2.298 36.973 2.298 36.973h4.066c.294-3.843-.855-8.619-.855-8.619 1.608-1.707 3.329 2.162 3.329 2.162 0-5.996-2.483-10.488-2.483-10.488 1.308-1.388 2.935 1.237 2.935 1.237 0-4.923-2.891-7.573-2.891-7.573 1.536-1.628 2.562-.388 2.562-.388 0-3.727-3.537-4.999-3.537-4.999 3.445.215 4.192-3.281 4.192-3.281m-28.671.07c.541.355.906.988.906 1.715 0 1.113-.848 2.018-1.89 2.018h-9.766c-1.334-.449-2.181-.936-2.181-.936 7.973.98 8.448-2.294 12.931-2.797"/><path d="m3.664 32.045c-1.035.256-1.749 1.033-1.593 1.734.155.701 1.121 1.062 2.155.806 1.037-.257 2.588-1.981 2.588-1.981s-2.113-.815-3.15-.559"/><path d="m9.033 31.431c0 0-1.101-1.113-1.809-1.253-.708-.139-1.35.139-1.432.617-.085.479.42.981 1.127 1.117.708.138 2.114-.481 2.114-.481"/><path d="m8.151 21.058c-.56.883-1.974 1.094-1.007 1.601.959.511 2.195.21 2.75-.676.557-.887.228-2.015-.736-2.524-.964-.511-.45.715-1.007 1.599"/></svg>