<svg xmlns="http://www.w3.org/2000/svg" viewBox="0 0 64 64" enable-background="new 0 0 64 64"><path d="m58.436 26.53c.21-.236.428-.469.621-.715 1.789-2.265 2.746-5.052 2.623-7.645l-.191-4.005-1.713 3.626c-.125.265-.254.522-.389.773l-.261-3.604-1.63 3.262c-.231.465-.485.898-.75 1.319-.254-7.42-1.653-16.66-3.375-17.339-3.584-1.411-9.58 4.843-13.177 9.164-2.727-1.042-5.502-1.643-8.192-1.643-2.691 0-5.468.601-8.195 1.644-3.596-4.321-9.593-10.576-13.178-9.165-1.721.679-3.12 9.92-3.374 17.339-.265-.42-.519-.854-.751-1.318l-1.629-3.263-.261 3.604c-.135-.251-.265-.509-.39-.773l-1.713-3.626-.19 4.005c-.123 2.593.834 5.38 2.625 7.646.192.245.41.478.62.714-2.217 3.516-3.566 7.143-3.566 10.413 0 9.2 25.898 25.057 30.002 25.057 4.1 0 29.998-15.857 29.998-25.057 0-3.27-1.348-6.897-3.564-10.413m-34.483 22.996c1.209-.78 5.09-1.058 8.047-1.058 2.955 0 6.836.277 8.049 1.059.143.092.168.173.162.281-.02.432-.682 1.571-3.039 2.795-2.071 1.073-3.956 1.297-5.172 1.297-1.217 0-3.1-.225-5.167-1.297-2.36-1.223-3.022-2.363-3.043-2.795-.005-.108.02-.189.163-.282m34.438-30.856c.094 1.299-.154 2.609-.631 3.832 1.141-1.188 2.121-2.59 2.92-4.283.119 2.506-.879 5.041-2.41 6.979-1.537 1.957-3.508 3.393-5.523 4.516-.125.069-.253.128-.378.195 2.016 1.422 4.51 3.598 7.622 6.713-.193 4.199-5.247 9.103-11.049 13.187 1.377-1.453 2.628-3.023 3.637-4.739-1.285 1.856-2.843 3.496-4.533 4.961-1.217 1.051-2.512 2.008-3.863 2.863-.771.462-1.537.902-2.287 1.318-1.738.895-3.577 1.623-5.414 1.867-1.016.127-2.071.046-2.688-.413-.146-.103-.265-.227-.364-.355 1.253-.15 2.791-.523 4.436-1.374 2.381-1.237 3.783-2.716 3.846-4.058.027-.587-.215-1.092-.666-1.461 1.172-2.731 1.672-6.04 2.027-9.217-7.461-2.909-3.289-16.325-1.26-19.821 0 0 .672 2.425 2.087 5.343.604-1.223 1.218-2.225 1.7-2.843 0 0 .477 2.417 1.697 5.333.109-.058.22-.116.328-.175 1.506-.811 2.959-1.617 4.268-2.621 1.314-1 2.461-2.217 3.436-3.908.074.891-.053 1.789-.316 2.648 1.325-1.19 2.454-2.636 3.378-4.487m-5.485-13.459c1.023.913 2.141 6.93 2.695 12.814l-1.143 1.983c-.156.272-.326.523-.496.775-.335-2.425.008-4.421.008-4.421-.461.194-1.094.558-1.773 1.04-.254-1.963-.139-3.456-.139-3.456-.709.429-1.82 1.374-2.842 2.579-.652-.504-1.32-.988-2-1.449.694-3.261 2.321-6.78 5.69-9.865m-41.811 0c3.37 3.085 4.995 6.605 5.689 9.868-.68.461-1.347.944-2 1.447-1.021-1.204-2.133-2.15-2.842-2.579 0 0 .115 1.493-.14 3.456-.679-.482-1.313-.846-1.772-1.04 0 0 .343 1.996.008 4.421-.17-.252-.34-.503-.496-.775l-1.144-1.983c.555-5.885 1.672-11.902 2.697-12.815m-7.775 13.008c.8 1.693 1.78 3.096 2.921 4.283-.477-1.223-.726-2.533-.632-3.832.925 1.852 2.053 3.297 3.381 4.486-.264-.859-.391-1.758-.315-2.648.975 1.691 2.12 2.908 3.436 3.908 1.308 1.004 2.761 1.811 4.267 2.621.108.059.22.117.329.175 1.22-2.916 1.696-5.333 1.696-5.333.483.618 1.096 1.62 1.701 2.843 1.415-2.918 2.086-5.343 2.086-5.343 2.03 3.496 6.203 16.913-1.26 19.822.355 3.177.857 6.485 2.028 9.216-.45.369-.694.875-.666 1.463.063 1.342 1.467 2.82 3.851 4.056 1.641.851 3.178 1.224 4.43 1.374-.1.129-.219.253-.363.355-.617.459-1.673.54-2.689.413-1.83-.243-3.662-.968-5.396-1.858-.758-.42-1.53-.864-2.311-1.33-1.35-.855-2.642-1.812-3.857-2.86-1.69-1.465-3.248-3.104-4.533-4.961 1.009 1.715 2.259 3.286 3.637 4.739-5.805-4.085-10.86-8.989-11.051-13.189 3.112-3.115 5.606-5.29 7.621-6.712-.125-.066-.251-.125-.376-.194-2.016-1.123-3.986-2.559-5.524-4.516-1.532-1.937-2.53-4.472-2.411-6.978"/><path d="m17.19 39.049c2.4 0 4.464-1.42 5.414-3.464-.434-.726-1.04-1.198-1.7-1.585 0-.001 0-.001 0-.001-.164-.095-.329-.189-.498-.276-.941-.492-1.961-.861-2.979-1.266-.469-.183-.942-.368-1.416-.558-.19-.076-.381-.156-.571-.233-.273-.112-.548-.228-.821-.344-.763-.325-1.524-.668-2.279-1.048-.704.605-1.123 1.494-1.123 2.794 0 3.303 2.673 5.981 5.973 5.981m-4.607-7.542c.326.155.653.288.979.433-.137.321-.212.694-.212 1.129 0 2.125 1.72 3.846 3.84 3.846 1.436 0 2.67-.8 3.326-1.97.347.213.663.438.912.721-.897 1.464-2.505 2.384-4.238 2.384-2.742 0-4.974-2.234-4.974-4.98.001-.748.164-1.233.367-1.563"/><path d="m49.383 31.322c-.275.116-.549.231-.823.344-.189.078-.38.156-.569.232-.474.189-.947.376-1.418.559-1.018.404-2.037.773-2.979 1.266-.168.087-.333.182-.498.276 0 0 .001 0 .001.001-.66.387-1.267.859-1.7 1.585.949 2.044 3.014 3.464 5.414 3.464 3.301 0 5.973-2.678 5.973-5.98 0-1.3-.418-2.188-1.122-2.794-.756.379-1.517.722-2.279 1.047m-2.572 6.727c-1.733 0-3.342-.92-4.238-2.384.248-.281.564-.508.912-.721.656 1.17 1.891 1.97 3.326 1.97 2.119 0 3.84-1.721 3.84-3.846 0-.435-.076-.808-.212-1.129.326-.145.653-.277.979-.433.203.33.365.815.365 1.562 0 2.746-2.23 4.981-4.972 4.981"/></svg>