<svg xmlns="http://www.w3.org/2000/svg" viewBox="0 0 64 64" enable-background="new 0 0 64 64"><path d="m62 17c0-6.627-5.373-12-12-12-4.755 0-8.852 2.773-10.794 6.784-2.356-.522-4.776-.784-7.194-.784-2.426 0-4.852.263-7.215.789-1.942-4.014-6.039-6.789-10.797-6.789-6.626 0-12 5.372-12 12 0 3.386 1.409 6.438 3.666 8.62-2.956 5.296-3.721 10.696-3.623 11.913.003.043.013.094.018.139.447 4.238 6.828 21.328 29.699 21.328.084 0 .169 0 .254 0 23.264-.139 29.582-17.408 29.936-21.467.106-1.232-.625-6.61-3.598-11.927 2.248-2.18 3.648-5.227 3.648-8.606m-29.997 40h-.243c-9.285 0-16.665-2.891-21.934-8.59-1.873-2.025-3.222-4.172-4.144-6.064 5.314 3.059 14.615 7.152 26.32 7.152 11.726 0 21.035-4.109 26.342-7.168-2.949 6.025-10.408 14.576-26.341 14.67m27.954-19.641c-.039.457-.236 1.154-.6 2.01-4.455 2.879-14.361 8.129-27.355 8.129-12.988 0-22.896-5.244-27.357-8.125-.371-.861-.571-1.555-.608-2.002-.065-.883.612-5.827 3.375-10.776l.75-1.344-1.106-1.068c-1.971-1.906-3.056-4.456-3.056-7.183 0-5.514 4.486-10 10-10 3.86 0 7.308 2.169 8.997 5.66l.689 1.425 1.546-.344c2.209-.492 4.491-.741 6.78-.741 2.282 0 4.557.248 6.762.736l1.543.343.689-1.424c1.689-3.488 5.136-5.655 8.994-5.655 5.515 0 10 4.486 10 10 0 2.722-1.08 5.268-3.041 7.171l-1.104 1.07.75 1.341c2.772 4.957 3.424 9.897 3.352 10.777"/><path d="m26.287 32c-1.43 0-4.287 4-4.287 4s2.857-1.334 4.287-1.334c1.428 0 4.285 1.334 4.285 1.334s-2.859-4-4.285-4"/><path d="M37.713,32c-1.428,0-4.285,4-4.285,4s2.857-1.334,4.285-1.334C39.143,34.666,42,36,42,36S39.143,32,37.713,32z"/><path d="m22.42 14.64l-.293-1.05-.876.649c-1.696 1.259-4.407 2.011-7.25 2.011-2.843 0-5.553-.751-7.25-2.01l-.875-.648-.293 1.049c-.221.784-.333 1.577-.333 2.359 0 4.825 3.925 8.75 8.75 8.75s8.75-3.925 8.75-8.75c0-.782-.111-1.576-.33-2.36m-8.42 9.61c-3.998 0-7.25-3.252-7.25-7.25 0-.31.021-.623.063-.937.934.525 2.02.938 3.2 1.224.062 2.151 1.816 3.882 3.988 3.882 2.17 0 3.927-1.729 3.989-3.883 1.179-.286 2.263-.697 3.196-1.223.041.313.063.626.063.937.001 3.998-3.251 7.25-7.249 7.25"/><path d="m58.75 16.999c0-.782-.111-1.575-.33-2.359l-.293-1.05-.876.649c-1.696 1.259-4.407 2.011-7.251 2.011-2.842 0-5.553-.751-7.25-2.01l-.877-.649-.293 1.051c-.219.784-.33 1.577-.33 2.357 0 4.825 3.926 8.75 8.75 8.75 4.825 0 8.75-3.925 8.75-8.75m-8.75 7.25c-3.997 0-7.25-3.252-7.25-7.25 0-.31.021-.622.064-.936.934.525 2.018.937 3.197 1.223.063 2.155 1.819 3.881 3.988 3.881 2.168 0 3.926-1.726 3.988-3.881 1.18-.286 2.266-.697 3.199-1.223.041.313.063.626.063.936.001 3.998-3.251 7.25-7.249 7.25"/></svg>