<svg xmlns="http://www.w3.org/2000/svg" viewBox="0 0 64 64" enable-background="new 0 0 64 64"><path d="m59.493 2.23c-2.521-1.54-14.401 4.915-21.723 11.242-1.854-.232-3.837-.367-5.992-.367-2.005 0-3.858.118-5.603.32-7.326-6.313-19.154-12.731-21.669-11.195-3.017 1.842-3.347 19.21-.788 28.854-1.29 4.39-1.565 8.841-1.565 12.4 0 4.495 13.266 18.516 29.625 18.516 16.36 0 29.625-14.021 29.625-18.516 0-3.345-.242-7.479-1.342-11.609 2.797-9.451 2.534-27.751-.568-29.645m-14.391 29.295c-.551.629-.99 2.163-.99 4.61 0 6.583 3.174 6.583 3.174 0 0-2.825-.584-4.43-1.252-4.831 5.295-.978 8.129 3.426 8.129 3.426s-.243 5.695-5.989 7.225c-5.745 1.528-8.823-3.283-8.823-3.283s.247-5.521 5.751-7.147m-20.895 7.147c0 0-3.079 4.812-8.825 3.283-5.744-1.529-5.987-7.225-5.987-7.225s2.836-4.403 8.128-3.426c-.667.401-1.252 2.006-1.252 4.831 0 6.583 3.175 6.583 3.175 0 0-2.447-.439-3.981-.99-4.609 5.503 1.625 5.751 7.146 5.751 7.146m-14.673-27.353c.731-.448 4.87 1.364 8.942 3.841-4.57 1.644-7.879 4.154-10.265 7.104-.125-5.243.473-10.427 1.323-10.945m22.244 49.632c-12.006 0-23.636-10.186-23.637-10.186 0 0 10.898-3.611 14.989-6.796 2.581-2.01 5.435-8.671 8.648-8.671 3.213 0 6.068 6.661 8.649 8.671 4.09 3.185 14.989 6.796 14.989 6.796-.001.001-11.632 10.186-23.638 10.186m23.994-38.143c-2.367-3.124-5.715-5.797-10.417-7.544 4.127-2.529 8.368-4.398 9.11-3.944.881.534 1.49 6.064 1.307 11.488"/><path d="m37.067 53.835c-1.078-.081-2.098-.427-2.916-1.089-.818-.638-1.422-1.55-1.596-2.554l-.055-.324c.583-.149 1.233-.492 1.905-1.155 1.528-1.51 1.973-3.257 1.397-3.963-.808-.988-3.284-1.064-4.024-1.064-.739 0-3.217.076-4.024 1.064-.573.706-.13 2.453 1.399 3.963.671.663 1.321 1.006 1.903 1.155l-.056.324c-.177 1.003-.776 1.917-1.597 2.553-.801.661-1.873 1.006-2.89 1.087-1.123.05-2.179-.188-3.149-.78-.961-.573-1.76-1.507-2.167-2.696.056 1.271.738 2.51 1.718 3.364.97.854 2.297 1.356 3.548 1.412 1.279.072 2.511-.283 3.603-.98-.01.107-.022.213-.022.323 0 1.406.777 2.546 1.734 2.546s1.735-1.14 1.735-2.546c0-.111-.013-.218-.022-.325 1.082.696 2.355 1.053 3.577.98 1.308-.058 2.586-.558 3.572-1.412.978-.854 1.661-2.092 1.719-3.362-.405 1.189-1.205 2.123-2.167 2.698-.955.592-2.059.833-3.125.781"/></svg>