<svg xmlns="http://www.w3.org/2000/svg" viewBox="0 0 64 64" enable-background="new 0 0 64 64"><path d="m12.577 22.009c1.127 0 2.038-1.215 2.038-1.215s-.911-2.226-2.038-2.226c-1.125 0-1.595 2.226-1.595 2.226s.47 1.215 1.595 1.215"/><path d="m61.943 29.514c-.201-2.96-1.21-4.996-2.574-6.236l-.396-.481c-.875-1.059-2.156-1.643-3.606-1.643-1.819 0-3.745.918-5.153 2.455-1.455 1.588-2.252 3.691-2.273 5.97-2.051-6.753-7.807-11.924-16.25-14.315-2.471-.701-4.947-1.067-7.361-1.088l-.882-.008c-.324-.296-.686-.549-1.091-.754.008-.065.016-.119.023-.186.349-3.223-2.171-6.228-2.171-6.228s-1.043.753-1.985 2.014c-.815-1.042-1.62-1.663-1.62-1.663s-2.332 2.625-2.35 5.655c-4.624 1.828-8.951 8.125-8.512 13.318.035.405.31.889.773 1.388-2.682.562-5.184 1.94-4.354 3.764.249.546.877.924 1.68 1.188-.036.282.005.578.146.889.95 2.088 7.354 1.764 8.313 1.703.234.259.466.502.695.729 4.073 5.219 7.46 5.684 9.712 4.637.949 2.752 1.542 5.423 2.275 7.645-3.621.993-6.125 2.902-6.125 4.033 0 .656 1.871.945 4.058 1.062-1.5.874-2.401 1.833-2.401 2.512 0 1.58 10.84 1.037 10.84 1.037 5.988 0 10.841-1.275 10.841-2.856 0-.597-.061-1.092-.166-1.512l.213-.083c.343-.256.759-.546 1.197-.862 3.119.662 6.716-.401 10.68-3.974 5.188-4.675 8.348-10.375 7.824-18.11m-44.687-15.521c.261-2.405 2.565-4.057 2.565-4.057s1.881 2.241 1.619 4.646c-.486 4.455-1.414 4.222-2.566 4.059-1.156-.162-2.104-.191-1.618-4.648m-4.607 3.32c1.837 0 3.325 3.629 3.325 3.629s-1.488 1.983-3.325 1.983c-1.836 0-2.601-1.983-2.601-1.983s.765-3.629 2.601-3.629m11.787 7.344l-2.973 2.381.947.849h-2.135l.422 1.523-1.772-.478c.004.091.024.178.024.27 0 .658-.119 1.281-.307 1.866-1.78.093-3.668.042-5.374-1.063-.761-.492-2.271-.597-3.864-.396-.009-.137-.036-.269-.036-.408 0-3.011 2.145-5.452 4.79-5.452.786 0 1.517.236 2.172.618l.443-.359-.607-.565h.958l-.527-.518 1.965-.917-1.066-.428c0 0 1.295-4.156 3.692-1.037 0 0 2.701 1.125 4.527.476 1.822-.647-1.283 1.896-2.429 1.905.602 0 2.085.001 2.085.001l-2.777 1.731h1.842zm11.826 29.293c-7-1.966-16.996.515-8.208-2.755 1.098-.407-2.287-3.2-2.344-8.771-.061-6.118 4.643-11.151 9.869-11.558-2.488 2.105-4.109 5.488-4.109 9.315-.001 6.383 6.95 14.376 4.792 13.769m14.951-22.457c.361 8.023-3.255 13.25-6.512 16.508-1.01 2.6-2.881 3.491-3.041 3.611.109-.142 3.607-4.613 3.607-11.721 0-12.196-9.703-19.198-20.08-22.274-.162-.922-.858-2.386-.867-2.4 2.143.019 4.529.319 7.107 1.051 8.818 2.498 16.341 8.687 16.341 19.03 0 .9-.048 1.809-.133 2.714.9-2.229 1.449-4.849 1.311-7.926-.219-4.859 3.405-7.892 6.419-7.892.601 0 1.172.133 1.689.384-3.204.68-6.07 3.838-5.841 8.915"/></svg>