<svg xmlns="http://www.w3.org/2000/svg" viewBox="0 0 64 64" enable-background="new 0 0 64 64"><path d="m27.725 38.222l-.055-.027c-.004-.002-.009-.004-.014-.007l-.17-.066c-.004-.002-.006-.003-.011-.004-.093-.033-.171-.059-.245-.08-.146-.041-.309-.076-.49-.104-.323-.049-.66-.058-1.004-.031-.663.057-1.332.261-1.936.589-.597.324-1.15.783-1.6 1.326-.233.282-.433.578-.598.882-.097.179-.174.34-.236.493-.031.074-.064.159-.099.257-.001.004-.001.007-.003.01l-.059.189c-.001.005-.003.009-.004.015l-.016.064c-.038.143.016.309.129.385.069.047.13.095.211.095h.001c.023 0 .05-.017.072-.024.243-.064.489-.129.727-.166.255-.043.505-.071.749-.084.514-.029 1.013.005 1.479.096.467.085.937.237 1.402.449.218.098.438.213.655.342.208.12.417.258.623.404.049.036.104.054.159.054.084 0 .166-.041.225-.119l.037-.05c.08-.109.09-.264.022-.383l-.026-.047c-.004-.006-.005-.01-.008-.014l-.087-.135c-.003-.004-.005-.008-.006-.011-.05-.073-.095-.13-.138-.186-.08-.104-.179-.216-.295-.333-.204-.205-.434-.392-.688-.56-.484-.315-1.034-.537-1.64-.66-.43-.087-.869-.132-1.305-.132-.135 0-.264.005-.383.012.322-.299.752-.645 1.25-.912.506-.272 1.039-.48 1.581-.613.267-.066.546-.116.831-.151.277-.035.562-.057.849-.06.159-.004.288-.148.288-.326v-.076c.003-.132-.067-.251-.174-.301"/><path d="m22.789 45.093c.854.245 2.135.221 2.401 1.996.507-1.402-.124-2.805-2.401-1.996"/><path d="m60.635 24.476c-.895-.261-1.803-.394-2.696-.394-2.181 0-3.866.763-4.917 1.425-1.237-.7-3.301-1.614-5.652-1.614-1.156 0-2.271.219-3.313.649l-1.323.546.157 1.455c.479 4.446 5.763 7.399 9.147 8.159.325 1.724.424 3.987-.381 5.101-.246.339-.721.79-2.006.79-3.385 0-4.203-1.404-6.068-5.465-1.318-2.869-2.959-6.438-6.494-10.076-2.978-3.064-7.047-5.206-11.403-6.096 1.249-3.729 2.907-8.159 5.515-8.41 6.335-.613 7.489-2.288-.479-3.608 0 0 6.828-6.349-4.043-1.93 0 0 .01-6.412-3.454-.513 0 0-5.478-5.267-3.092-.299 0 0-10.463-2.658-2.639 1.76 0 0-11.187 2.15.81 3.356 3.095.312 3.605 5.148 3.884 9.208-.336-.016-.672-.026-1.008-.026-4.546 0-8.698 1.438-11.689 4.051-7.052 6.156-9.403 16.981-5.852 26.937 2.545 7.135 14.152 12.518 26.997 12.518 2.911 0 5.669-.283 8.252-.815.042 0 .083.005.125.005 1.71 0 3.367-.456 4.792-1.319.119-.072.229-.147.332-.224 5.704-2.208 10.166-5.906 12.859-10.866 3.016-5.556 2.057-11.517 1.228-14.555 2.216-1.301 3.776-4.35 3.776-7.895v-1.457l-1.365-.398m-32.81-12.702c-.007.005-.014.011-.021.016l-.016.011c-.671.504-1.131 1.407-1.514 2.278-.383.889-.691 1.821-.977 2.762-.566 1.884-1.031 3.804-1.482 5.727.336-1.948.688-3.894 1.143-5.823.231-.964.487-1.925.826-2.87.358-.93.73-1.905 1.582-2.651.148-.13.371-.112.498.041.127.15.109.379-.039.509m-4.175.045l-.002-.016c-.021-.198.119-.377.313-.398.193-.022.367.122.389.32 0 .009.002.018.002.025.063 1.76-.033 3.477-.19 5.198-.163 1.717-.41 3.424-.73 5.111.204-1.707.333-3.421.379-5.134.039-1.706.014-3.436-.161-5.106m-2.24-4.969c-3.413-3.347 3.22-.327 3.22-.327 6.399-2.807 2.622 1.179 2.622 1.179 2.313-.101 6.793.654.698 1.303-1.627.172-2.048 1.684-3.793 1.468-1.894-.235-1.866-1.925-3.451-2.153-7.559-1.094.704-1.47.704-1.47m.279 4.105l-.006-.016c-.074-.186.012-.396.192-.473.18-.076.386.012.46.197.003.009.006.018.009.025.265.833.427 1.641.567 2.47.137.824.232 1.654.296 2.483.124 1.661.117 3.325.005 4.976-.005-1.654-.115-3.307-.355-4.935-.12-.813-.271-1.62-.463-2.415-.19-.787-.416-1.59-.705-2.312m8.947 49.115c-11.542 0-22.847-4.714-25.212-11.203.223-.088.472-.156.746-.207 1.843 2.886 4.566 4.94 7.39 6.52 2.868 1.583 5.944 2.69 9.086 3.425 3.528.811 7.169 1.14 10.771.942.207.127.416.247.629.36-1.134.098-2.273.163-3.41.163m-10.786-7.002c1.641.781 3.357 1.353 5.103 1.768 1.474.35 2.966.588 4.466.741.449.707.959 1.357 1.519 1.948-3.665-.314-7.282-1.195-10.667-2.637-1.803-.776-3.546-1.709-5.132-2.854-1.203-.881-2.356-1.884-3.186-3.069.953.15 1.97.33 3.04.525 1.227 1.393 3.257 2.801 4.857 3.578m-2.348-3.118c3.07.563 6.592 1.16 10.413 1.559.091.854.333 1.865.731 2.691.061.127.13.249.195.373-1.223-.189-2.436-.42-3.623-.743-1.67-.456-3.296-1.06-4.811-1.843-.925-.49-2.121-1.405-2.905-2.037m-3.04 3.135c1.71 1.16 3.544 2.068 5.426 2.813 3.772 1.474 7.761 2.276 11.762 2.413.032.001.063 0 .096.001.382.338.782.648 1.196.932-3.42.013-6.84-.456-10.128-1.342-3.058-.837-6.026-2.038-8.735-3.668-2.449-1.488-4.735-3.345-6.304-5.697.717.006 1.525.072 2.406.179 1.04 1.905 2.657 3.244 4.281 4.369m30.63 4.06c-.125-.413-.352-.717-.623-.943 3.19-1.234 6.174-3.019 8.801-5.247-2.201 2.713-5.02 4.737-8.178 6.19m8.248-6.272c-2.771 2.229-5.895 3.957-9.2 5.094-.362-.214-.745-.338-1.026-.423-.585-.179-1.068-.358-1.438-.64 1.473-.317 2.926-.717 4.343-1.218 3.146-1.115 6.108-2.723 8.696-4.783-.429.688-.88 1.353-1.375 1.97m-12.426.876c4.432-.352 9.055-1.201 13.751-2.836-2.646 1.96-5.628 3.449-8.761 4.445-1.516.481-3.066.84-4.632 1.11-.271-.411-.406-.981-.356-1.856.013-.214.012-.538-.002-.863m14.916-18.781c0 0 3.227 7.719-.361 14.636-5.303 1.983-10.533 2.918-15.512 3.236-.436.025-.879.047-1.27.063.173.311.377 1.18.354 1.596-.339 5.913 6.006 4.378 3.809 5.709-1.173.711-2.491 1.053-3.837 1.053-3.345 0-6.853-2.112-8.683-5.916-.398-.827-.572-2.063-.553-2.652-.576-.049-1.154-.081-1.721-.136-4.326-.443-8.256-1.16-11.594-1.776-1.887-.349-3.607-.665-5.141-.887-.009-.019-.019-.034-.027-.052l-.071.038c-2.106-.301-3.854-.414-5.19-.172 1.16-.352 2.373-.389 3.569-.337 1.603.09 3.21.336 4.835.58 1.626.219 3.277.472 4.974.429.846-.021 1.711-.125 2.532-.415.815-.29 1.584-.842 1.972-1.609-1.214 1.236-2.918 1.222-4.482 1.12-1.597-.137-3.207-.429-4.839-.669-1.633-.223-3.301-.431-4.995-.336-1.543.08-3.206.45-4.423 1.462-.016.005-.036.01-.053.017-2.713-8.52-1.055-18.141 5.583-23.936 2.784-2.432 6.551-3.591 10.472-3.591.379 0 .761.035 1.142.056.058.79.125 1.499.223 2.078-1.53.021-2.696.398-2.728.932-.035.616 1.459 1.205 3.335 1.315 1.875.11 3.424-.301 3.46-.917.027-.487-.91-.955-2.232-1.184.221-.529.449-1.18.693-1.903 3.975.76 7.826 2.667 10.688 5.613 7.92 8.15 5.745 16.108 13.893 16.108 6.748 0 3.908-9.555 3.908-9.555-2.495 0-8.389-2.801-8.801-6.637.885-.365 1.768-.509 2.611-.509 3.148 0 5.734 2.011 5.734 2.011s1.854-1.822 4.835-1.822c.673 0 1.403.093 2.183.32-.001 3.642-1.977 6.639-4.292 6.639"/></svg>