<svg xmlns="http://www.w3.org/2000/svg" viewBox="0 0 64 64" enable-background="new 0 0 64 64"><path d="m62 13.802c0-6.519-5.377-11.802-12-11.802-4.465 0-8.346 2.404-10.41 5.962-2.529-.686-5.131-1.044-7.716-1.044-2.509 0-5.032.345-7.488 1.003-2.073-3.535-5.941-5.921-10.385-5.921-6.628 0-12.001 5.283-12.001 11.802 0 3.506 1.572 6.635 4.041 8.796-1.918 3.815-3.041 8.256-3.041 13.256 0 5.886 1.482 8.198 3.358 11.127.648 1.012 1.317 2.057 2.013 3.377 3.781 7.18 12.788 11.641 23.504 11.642.002 0 .001 0 .002 0 10.712 0 19.72-4.462 23.501-11.643.736-1.396 1.465-2.491 2.168-3.549 1.854-2.781 3.454-5.183 3.454-10.951 0-4.994-1.131-9.431-3.061-13.243 2.481-2.161 4.061-5.298 4.061-8.812m-30.05 45.316c-7.752 0-12.24-1.59-12.24-9.715 0-5.984 7.972-8.468 12.24-8.468 4.267 0 12.24 2.483 12.24 8.468-.001 8.125-4.489 9.715-12.24 9.715m23.925-13.387c-.699 1.048-1.488 2.235-2.271 3.721-2.201 4.178-6.41 7.335-11.764 9.071 2.447-1.63 3.85-4.433 3.85-9.12 0-7.026-8.949-9.943-13.74-9.943-4.791 0-13.741 2.917-13.741 9.943 0 4.784 1.466 7.6 4.007 9.214-5.499-1.714-9.828-4.908-12.07-9.165-.734-1.394-1.458-2.523-2.096-3.52-1.771-2.764-3.05-4.76-3.05-10.078 0-16.881 13.664-26.969 26.874-26.969 13.333 0 27.126 10.089 27.126 26.972 0 5.181-1.311 7.15-3.125 9.874"/><path d="m39.047 52.827c-.289 0-.57.102-1.039.271-.918.328-2.539.906-5.074 1.029v-2.643c2.355-.204 6.853-1 6.853-2.677 0-2.481-3.531-2.96-7.886-2.96-4.354 0-7.889.48-7.889 2.96 0 1.699 4.621 2.494 6.949 2.686v2.634c-2.536-.125-4.156-.702-5.071-1.029-.466-.169-.749-.271-1.04-.271-.246 0-.471.078-.617.215-.115.105-.174.24-.174.394 0 1.396 3.761 2.669 7.891 2.669 4.125 0 7.884-1.272 7.886-2.665 0-.404-.395-.613-.789-.613"/><path d="m38.219 27.424c-7.228 7.227 8.039 22.494 15.268 15.264 3.568-3.566 3.043-9.877-1.172-14.09-4.219-4.217-10.528-4.744-14.096-1.174m11.476 6.476c0 2.762-2.238 5-5 5s-5-2.238-5-5 2.238-5 5-5 5 2.239 5 5"/><circle cx="44.695" cy="33.9" r="2.5"/><path d="m11.688 28.596c-4.215 4.217-4.741 10.523-1.172 14.094 7.226 7.229 22.492-8.037 15.264-15.268-3.567-3.568-9.877-3.043-14.092 1.174m7.617 10.304c-2.762 0-5-2.238-5-5s2.238-5 5-5 5 2.238 5 5-2.238 5-5 5"/><circle cx="19.305" cy="33.9" r="2.5"/></svg>