<svg xmlns="http://www.w3.org/2000/svg" viewBox="0 0 64 64" enable-background="new 0 0 64 64"><ellipse cx="43.683" cy="34.572" rx="3" ry="4"/><ellipse cx="20.32" cy="34.572" rx="3" ry="4"/><path d="m61.849 14.185c-.643-4.615-5.408-7.664-10.438-6.843-2.585.422-3.755 3.781-4.183 7.569-3.07-1.232-6.655-2.283-9.667-2.978-2.043-3.036-6.737-4.933-6.737-4.933.338 1.206-.654 2.17-.654 2.17-1.66-1.459-4.969-1.964-4.969-1.964 1.273.992.936 2.521.936 2.521-2.293-.575-4.211-.466-4.211-.466 1.422.704 2.313 1.836 2.873 3.072-2.622.672-5.496 1.562-8.025 2.576-.428-3.788-1.598-7.146-4.183-7.568-5.029-.82-9.797 2.228-10.44 6.844-.801 5.763 1.691 8.517 4.816 9.786-1.691 4.784-1.383 10.928-1.383 18.267 0 8.586 11.828 14.762 26.418 14.762 14.588 0 26.414-6.176 26.414-14.763 0-7.338.307-13.482-1.385-18.266 3.126-1.268 5.619-4.022 4.818-9.786m-53.631 7.128c-1.865-.592-3.475-2.04-3.01-5.381.342-2.462 2.887-4.091 5.568-3.651 1.46.238 2.072 2.231 2.266 4.393-.453.26-.882.521-1.251.787-1.547 1.111-2.695 2.404-3.573 3.852m23.785 34.296c-21.474 0-23.959-12.733-22.836-15.401.712-1.691 3.504-.311 6.542.479-.853-.411-1.312-.887-1.41-1.091-.416-.865-1.82-4.614-.702-8.043.758-2.323 3.548-6.387 7.637-4.725 3.625 1.475 4.062 6.073 4.062 6.073.134.597.193 1.197.209 1.786 1.959-5.029 2.506-11.301 4.589-14.031 1.332-1.751 2.484-1.751 3.816 0 2.082 2.729 2.63 8.999 4.587 14.028.016-.589.074-1.188.208-1.783 0 0 .438-4.599 4.063-6.073 4.089-1.662 6.88 2.402 7.637 4.725 1.118 3.429-.285 7.178-.701 8.043-.099.204-.558.68-1.411 1.091 3.037-.789 5.83-2.169 6.542-.479 1.122 2.666-1.362 15.401-22.832 15.401m23.778-34.296c-.879-1.447-2.027-2.741-3.574-3.853-.369-.265-.796-.526-1.248-.786.194-2.162.807-4.155 2.267-4.394 2.682-.439 5.225 1.189 5.568 3.651.464 3.343-1.148 4.79-3.013 5.382"/><path d="m38.455 47.99c-.732.448-1.58.629-2.398.591-.826-.061-1.607-.322-2.236-.823-.627-.481-1.09-1.171-1.225-1.931l-.156-.887c.947-.064 2.055-.338 3.219-1.041 2.132-1.292 2.751-2.786 1.951-3.386-1.125-.849-4.58-.912-5.607-.912-1.032 0-4.484.063-5.612.912-.799.6-.18 2.094 1.95 3.386 1.165.703 2.273.977 3.223 1.041l-.158.887c-.137.759-.596 1.449-1.227 1.93-.613.501-1.436.762-2.215.822-.863.038-1.672-.142-2.416-.589-.738-.435-1.35-1.14-1.664-2.04.045.962.568 1.897 1.318 2.544.744.646 1.764 1.025 2.723 1.067 1.041.058 2.047-.236 2.922-.831.451-.316.846-.734 1.154-1.216.311.481.703.898 1.156 1.214.861.595 1.906.89 2.9.832 1.006-.044 1.986-.422 2.742-1.067.75-.646 1.273-1.581 1.318-2.543-.312.901-.926 1.606-1.662 2.04"/></svg>