<svg xmlns="http://www.w3.org/2000/svg" viewBox="0 0 64 64" enable-background="new 0 0 64 64"><path d="m61.801 12.077l-.068-.83-.812-.096c-.13-.015-3.229-.377-6.915-.377-4.885 0-8.373.633-10.389 1.882-.897-.578-1.801-1.088-2.703-1.546-2.008-6.336-9.261-8.11-9.261-8.11.802 1.715.495 5.123.495 5.123-2.221-3.281-6.697-2.291-6.697-2.291 2.057 1.405 1.914 3.363 1.914 3.363-2.288-.904-5.404.961-5.404.961.584.169 1.141.405 1.672.687-1.144.551-2.293 1.19-3.434 1.936-2.199-1.408-6.195-2.121-11.898-2.121-2.803 0-4.92.18-5.008.188l-.815.071-.094.827c-.192 1.707-1.739 16.75 3.143 19.48.211.117.442.201.692.25-.738 2.609-1.111 5.283-1.111 7.967-.001 18.997 13.594 21.559 26.893 21.559s26.894-2.562 26.894-21.56c0-2.742-.388-5.469-1.154-8.127.177-.049.344-.115.5-.2 4.773-2.598 3.698-17.362 3.56-19.036m-4.504 17.242c-.131.07-.428.067-.722.008l-1.708-.345.568 1.675c.969 2.857 1.461 5.813 1.461 8.783 0 17.158-11.965 19.524-24.896 19.524s-24.894-2.365-24.894-19.524c0-2.946.484-5.881 1.441-8.721l.601-1.785-1.794.469c-.393.104-.727.111-.865.035-2.671-1.493-2.781-10.643-2.206-16.623.859-.053 2.317-.123 4.019-.123 5.641 0 9.632.747 11.236 2.102l.576.486.62-.424c1.603-1.097 3.247-1.985 4.862-2.664 4.395 3.761 6.395 10.702 6.395 10.702.949-6.042 4.473-9.121 6.816-10.541 1.426.629 2.869 1.426 4.278 2.375l.608.41.569-.465c1.471-1.203 4.931-1.865 9.743-1.865 2.471 0 4.712.173 5.865.28.39 5.868.032 14.811-2.573 16.231"/><path d="m17.048 16.444c-2.888-1.563-9.854-.959-9.854-.959s-1.118 9.914 1.63 11.449c.05.028.106.046.163.063 1.998-4.169 4.864-7.749 8.061-10.553"/><path d="m47.276 16.732c3.156 2.84 5.972 6.437 7.909 10.613.072-.019.142-.043.205-.076 2.686-1.464 1.883-11.194 1.883-11.194s-6.982-.827-9.997.657"/><path d="m32.001 36.938c-8.698 0-14.319 5.042-14.319 12.846 0 3.316 1.007 5.506 3.079 6.692 1.769 1.015 4.161 1.222 7.209 1.222.624 0 1.267-.008 1.926-.016 1.372-.018 2.839-.018 4.21 0 .659.008 1.303.016 1.927.016 5.421 0 10.288-.605 10.288-7.914-.001-7.804-5.622-12.846-14.32-12.846m4.031 19.233c-.618 0-1.256-.007-1.909-.015-.691-.009-1.4-.017-2.122-.017s-1.431.008-2.123.017c-.653.008-1.29.015-1.908.015-2.812.001-4.988-.174-6.474-1.024-.994-.569-2.314-1.745-2.314-5.362 0-8.346 6.622-11.32 12.819-11.32s12.819 2.975 12.819 11.32c0 5.464-2.711 6.386-8.788 6.386"/><ellipse cx="25.947" cy="48.073" rx="3.324" ry="6.23"/><ellipse cx="38.055" cy="48.073" rx="3.322" ry="6.23"/><ellipse cx="16.181" cy="34.648" rx="2.984" ry="5.575"/><path d="m47.818 28.929c-1.646 0-2.982 2.494-2.982 5.574 0 3.079 1.336 5.574 2.982 5.574 1.65 0 2.986-2.495 2.986-5.574.001-3.08-1.335-5.574-2.986-5.574"/></svg>