<svg xmlns="http://www.w3.org/2000/svg" viewBox="0 0 64 64" enable-background="new 0 0 64 64"><path d="m32.251 54.932c3.34-.656 4.524-3.533 4.524-5.797 0-1.029-.228-1.973-.626-2.705 3.028-1.451 3.39-3.803 3.39-4.838 0-1.191-.426-2.389-1.178-3.393 1.277-.922 2.024-2.654 2.024-4.852 0-.842-.121-1.77-.377-2.579 4.35.11 11.744.358 14.41.476 2.876.128 4.633-.946 5.601-1.868 1.258-1.199 1.979-2.921 1.979-4.725 0-1.853-.749-3.61-2.055-4.824-.977-.908-2.73-1.95-5.538-1.758-4.634.317-16.587 1.166-23.131 1.633 3.931-1.538 5.359-4.539 5.359-6.78 0-1.642-.7-3.091-1.972-4.082-1.177-.918-2.941-1.105-4.29-.458-4.337 2.079-8.924 3.534-11.688 3.707-2.881.18-11.766 7.032-14.213 9.562-2.045 2.112-2.474 6.237-2.474 9.325 0 8.354 3.578 20.307 9.678 22.781 6.588 2.669 12.196 2.819 20.577 1.175m-21.208-3.703c-6.442-5.25-7.471-20.929-4.105-26.377 2.045-3.31 8.959-9.148 13.875-9.961 9.401-1.556 8.974-5.6 12.745-4.348 2.232.741 3.403 6.188-3.969 7.938-1.896.451-6.567 3.81-6.567 3.81s25.088-1.877 30.334-1.61c7.679.389 7.498 8.364 1.624 8.549-3.089.098-19.083 0-19.083 0s2.488.956 2.488 4.119c0 3.742-3.955 3.975-3.955 3.975s3.023.861 3.023 3.521c0 3.723-5.686 4.949-5.686 4.949s3.649.93 3.649 3.816c0 2-1.272 3.5-3.419 3.922-7.973 1.564-16.377 1.425-20.954-2.303"/><path d="m29.901 46.805l1.396-1.012c-.558-.418-1.256-.527-1.915-.461-.663.076-1.25.326-1.727.574-.483.252-.874.51-1.301.779-.423.285-.892.555-1.453.975 1.115.838 2.672.576 3.682.01.518-.272.918-.572 1.318-.865"/><path d="m32.067 38.58l1.396-1.014c-.558-.418-1.256-.525-1.915-.459-.663.076-1.25.326-1.727.574-.483.252-.874.508-1.301.779-.423.285-.892.553-1.453.973 1.115.838 2.672.576 3.682.012.518-.273.918-.572 1.318-.865"/><path d="m33.597 30.72l1.396-1.014c-.558-.417-1.256-.526-1.915-.459-.664.076-1.25.326-1.728.574-.483.252-.873.509-1.3.779-.424.284-.893.553-1.454.974 1.115.837 2.673.575 3.683.011.517-.272.916-.572 1.318-.865"/></svg>