<svg xmlns="http://www.w3.org/2000/svg" viewBox="0 0 64 64" enable-background="new 0 0 64 64"><path d="m5.946 30.785c-2.999 7.189 2.213 15.866 9.784 17.387-5.9-3.962-9.584-10.327-9.784-17.387"/><path d="m15.73 48.172c0 0-.137-.029-.184-.039.023.006.078.015.184.039"/><path d="m2 44.261c.489 6.02 8.039 9.878 13.457 7.412-5.578-1.198-9.278-2.295-13.457-7.412"/><path d="m46.504 22.794c3.512-7.168-1.475-16.036-9.055-17.963 5.799 4.233 9.239 10.824 9.055 17.963"/><path d="m48.865 17.848c4.192-3.709 2.502-11.088-2.332-13.49 2.33 4.565 3.151 8.421 2.332 13.49"/><path d="m60.519 14.345c-.966-.731-2.106-1.116-3.303-1.116-7.206 0-8.498 9.386-10.097 13.05 0 0-7.389-15.469-9.959-20.573-2.65-5.265-8.307-4.177-9.964-1.311-3.936-4.079-11.373-.786-10.425 4.173-5.104-.392-7.167 4.643-6.034 7.871-3.945-.122-5.789 4.757-4.455 8.25.069.182 7.073 13.966 8.959 18.662.219.545.44 1.128.672 1.742 1.525 4.032 3.614 9.554 8.84 13.989 2.25 1.909 5.365 2.918 9.011 2.918 6.426 0 13.581-3.189 18.229-8.126 4.163-4.421 6.158-9.848 5.77-15.695-.348-5.256 1.324-10.208 2.667-14.188 1.457-4.319 2.607-7.731.089-9.646m-5.947 23.66c.813 11.628-10.842 21.439-20.73 21.439-3.021 0-6.15-.488-8.105-2.147-5.606-4.758-7.013-10.646-8.638-14.684-1.941-4.831-6.705-14.114-9.014-18.784-.945-1.912.634-5.981 3.384-5.981l7.931 16.868 3.005 1.804c0 0-6.882-14.998-9.061-20.167-1.272-3.018.92-6.662 3.874-6.187l9.846 21.016 3.006 1.808-11.476-24.233c-.046-4.295 5.831-4.362 7.197-1.854 3.457 6.348 9.947 20.279 9.947 20.279l3.004 1.807-10.773-22.843c2.104-2.754 5.816-2.368 7.416.975 1.922 4.015 10.061 21.454 10.061 21.454-8.035 3.012-13.52 11.743-7.777 20.35-4.557-9.41 3.516-16.06 8.285-18.258 1.805-.833 2.469-2.408 2.469-2.408-.002 0-.003.001-.004.001.629-1.139.592-2.662 1.342-5.127 1.625-5.335 3.854-8.162 7.125-8.162.754 0 1.704.564 2.14 1.207 2.203 3.251-5.21 11.023-4.454 21.827"/></svg>