<svg xmlns="http://www.w3.org/2000/svg" viewBox="0 0 64 64" enable-background="new 0 0 64 64"><path d="M32,7C15.434,7,2,24.271,2,30.232s13.434,23.232,30,23.232c4.615,0,8.985-1.343,12.892-3.405L55.58,57V41.686
		C59.597,37.286,62,32.751,62,30.232C62,24.271,48.568,7,32,7z M32,45.384c-8.283,0-15-6.784-15-15.151
		c0-8.369,6.717-15.151,15-15.151c8.285,0,15,6.782,15,15.151C47,38.6,40.285,45.384,32,45.384z"/><path d="m32 21.142c-.975 0-1.911.161-2.79.45 1.086.927 1.79 2.295 1.79 3.843 0 2.788-2.238 5.05-5 5.05-1.113 0-2.132-.38-2.963-1.002-.019.248-.037.496-.037.749 0 5.02 4.029 9.091 9 9.091s9-4.071 9-9.091c0-5.021-4.029-9.09-9-9.09"/></svg>