<svg xmlns="http://www.w3.org/2000/svg" viewBox="0 0 64 64" enable-background="new 0 0 64 64"><path d="m54.866 39.484h.01c-.145-3.37-.726-14.861-2.125-21.197-.404-1.837-2.112-3.952-4.275-6.631-1.738-2.154-3.708-4.597-5.178-7.188-1.176-2.07-2.91-2.911-4.635-2.244-1.928.743-3.492 3.337-3.613 6.868-1.963-2.18-3.245-2.227-4.596-1.347-1.91 1.242-2.753 4.988-.857 9.107.9 1.956 2.327 3.093 3.584 4.095.945.753 1.76 1.403 2.137 2.227l.359.824c-.92-.448-1.779-.855-2.545-1.218-1.861-.881-3.219-1.272-4.407-1.272-1.608 0-2.77.707-4.24 1.604-1.846 1.123-4.372 2.66-9.434 3.938-1.505.379-2.557 1.132-3.039 2.178-.482 1.045-.37 2.29.333 3.703.006.013.013.024.019.037-4.484 1.111-2.452 6.611-3.194 11.97-.195 1.405-.412 2.504.527 3.973 5.87 9.175 12.971 13.089 23.743 13.089 4.305 0 7.343-.104 10.242-1.486 3.62-1.724 10.213-10.454 11.193-17.545.174-1.247.163-2.41-.009-3.485m-16.83-34.069c.824-2.396 2.95-2.178 3.826-.584 1.513 2.754 3.559 5.505 5.346 7.719 1.839 2.276 3.697 4.588 4.002 5.967.97 4.393 1.42 12.34 1.72 17.219-1.907-2.5-5.293-4.846-7.585-6.338-.313-1.932-.913-5.3-1.933-9.8-.679-3.011-4.3-4.765-5.263-8.967-.444-1.948-.606-3.782-.113-5.216m-6.718 9.542c-.522-1.056-1.108-5.043.372-6.146 1.377-1.027 2.48.978 3.459 2.563.459 2.916 2.217 5.51 3.454 6.99.964 1.153 1.796 2.147 2.037 3.301.299 1.426.707 3.765.996 5.468-.918-.525-1.812-1.014-2.675-1.469-.514-1.232-1.359-3.166-2.58-5.646-.902-1.839-3.793-2.497-5.063-5.061m10.866 42.603c-2.579 1.232-5.243 1.341-9.441 1.341-9.549 0-19.031-4.753-22.003-11.438-.505-1.134-.019-2.744-.019-4.885 0-5.124.125-8.155 2.72-8.155 1.246 0 5.18 3 5.18 10.614l9.46 4.271c2.76-2.83 10.607-7.285 10.607-7.285-1.234-1.569-.567-6.044-.567-6.044-2.587-.333-8.089-2.94-9.985-6.587-2.421 2.087-13.666 5.972-14.392 1.063-.215-1.453 1.09-1.965 1.604-2.094 5.355-1.352 7.943-2.908 9.786-4.03 1.343-.819 2.612-1.5 3.658-1.5.877 0 2.235.439 3.814 1.188 4.487 2.122 11.959 5.462 18.604 11.28.619.543 1.406 1.734 1.657 2.5 2.265 6.925-7.102 18.047-10.683 19.761m-5.638-15.45c-1.803.953-6.012 3.288-8.536 5.579l-7-4.512c0-3.818-.829-6.58-2.039-8.367 3.063-.197 6.852-.999 8.775-2.028 1.358 1.416 4.813 4.635 8.59 5.146-.142 1.109-.235 2.797.21 4.182"/></svg>