<svg xmlns="http://www.w3.org/2000/svg" viewBox="0 0 64 64" enable-background="new 0 0 64 64"><path d="m52.321 53.758c6.1-2.475 9.678-14.428 9.678-22.781 0-3.088-.429-7.213-2.474-9.325-2.447-2.529-11.332-9.382-14.213-9.562-2.764-.173-7.351-1.628-11.688-3.707-1.349-.647-3.113-.46-4.29.458-1.271.991-1.972 2.44-1.972 4.082 0 2.241 1.429 5.242 5.359 6.78-6.544-.467-18.497-1.315-23.131-1.633-2.808-.192-4.562.85-5.538 1.758-1.306 1.214-2.055 2.972-2.055 4.824 0 1.804.722 3.525 1.979 4.725.968.922 2.725 1.996 5.601 1.868 2.666-.118 10.061-.366 14.41-.476-.256.809-.377 1.737-.377 2.579 0 2.197.747 3.93 2.024 4.852-.752 1.004-1.178 2.201-1.178 3.393 0 1.035.361 3.387 3.39 4.838-.398.732-.626 1.676-.626 2.705 0 2.264 1.185 5.141 4.524 5.797 8.384 1.643 13.992 1.493 20.577-1.175m-20.322-.227c-2.146-.422-3.419-1.922-3.419-3.922 0-2.887 3.649-3.816 3.649-3.816s-5.686-1.227-5.686-4.949c0-2.66 3.023-3.521 3.023-3.521s-3.955-.232-3.955-3.975c0-3.163 2.488-4.119 2.488-4.119s-15.994.098-19.083 0c-5.874-.185-6.055-8.16 1.624-8.549 5.246-.267 30.334 1.61 30.334 1.61s-4.672-3.358-6.567-3.81c-7.372-1.75-6.201-7.196-3.969-7.938 3.771-1.252 3.344 2.792 12.745 4.348 4.916.813 11.83 6.651 13.875 9.961 3.366 5.448 2.338 21.127-4.104 26.377-4.576 3.729-12.98 3.868-20.955 2.303"/><path d="m34.097 46.805l-1.396-1.012c.558-.418 1.256-.527 1.915-.461.663.076 1.25.326 1.727.574.483.252.874.51 1.301.779.423.285.892.555 1.453.975-1.115.838-2.672.576-3.682.01-.518-.272-.918-.572-1.318-.865"/><path d="m31.931 38.58l-1.396-1.014c.558-.418 1.256-.525 1.915-.459.663.076 1.25.326 1.727.574.483.252.874.508 1.301.779.423.285.892.553 1.453.973-1.115.838-2.672.576-3.682.012-.518-.273-.918-.572-1.318-.865"/><path d="m30.401 30.72l-1.396-1.014c.558-.417 1.256-.526 1.915-.459.664.076 1.25.326 1.728.574.483.252.873.509 1.3.779.424.284.893.553 1.454.974-1.115.837-2.673.575-3.683.011-.517-.272-.916-.572-1.318-.865"/></svg>