<svg xmlns="http://www.w3.org/2000/svg" viewBox="0 0 64 64" enable-background="new 0 0 64 64"><path d="m61.492 31.367c-1.025-1.583-10.049-15.639-17.449-17.913-.962-.301-2.035-.454-3.191-.454-2.451 0-5.316.685-8.516 2.035-.114.044-.227.088-.335.13h-.001-.001c-.108-.042-.221-.086-.335-.13-3.199-1.35-6.064-2.035-8.516-2.035-1.156 0-2.229.153-3.191.455-7.4 2.274-16.425 16.33-17.449 17.913-.76 1.174-.631 1.724.145 2.802.914 1.268 1.688 2.629 2.447 4.112 3.054 5.961 6.514 12.718 26.899 12.718h.001.001c20.385 0 23.845-6.757 26.898-12.719.761-1.483 1.534-2.845 2.448-4.112.775-1.078.905-1.628.145-2.802m-29.491 17.258c-.001 0-.001 0 0 0-.001 0-.001 0-.002 0-21.422 0-22.468-7.368-26.007-13.598 1.438-.147 2.9-.63 4.443-1.299 5.668 4.633 12.236 2.349 21.563 2.349h.002.001c9.327 0 15.895 2.284 21.563-2.349 1.543.669 3.005 1.151 4.443 1.299-3.538 6.23-4.584 13.598-26.006 13.598m-15.938-17.614c4.203-2.021 9.318-4.074 15.937-4.074h.001c6.618 0 11.733 2.053 15.937 4.074h-31.875m42.824 1.696c-5.684 0-13.207-8.146-26.886-8.146h-.001-.001c-13.679 0-21.202 8.146-26.886 8.146-.229 0-.457-.013-.682-.041 0 0 9.375-14.844 16.189-16.938.735-.23 1.576-.353 2.527-.353 2.053 0 4.613.574 7.684 1.874.383.147.775.305 1.167.475 0 0 .001 0 .001 0 0 0 .001 0 .001 0 .392-.17.784-.328 1.167-.475 3.07-1.3 5.631-1.874 7.684-1.874.951 0 1.792.123 2.527.353 6.814 2.095 16.189 16.938 16.189 16.938-.223.028-.451.041-.68.041"/></svg>