<svg xmlns="http://www.w3.org/2000/svg" viewBox="0 0 64 64" enable-background="new 0 0 64 64"><path d="m2 31.428c0 8.802 3.74 21.572 15.002 21.572s15-12.77 15-21.572c0-27.237-30.002-27.237-30.002 0m12.768 20.006c-9.586 0-11.969-11.785-11.969-19.346 0-26.029 23.936-26.029 23.935 0-.001 7.56-2.38 19.346-11.966 19.346"/><path d="m32.002 31.428c0 8.802 3.737 21.572 15.001 21.572 11.261 0 14.997-12.77 14.997-21.572 0-27.237-29.998-27.237-29.998 0m12.767 20.006c-9.588 0-11.968-11.785-11.968-19.346 0-26.029 23.934-26.029 23.934 0-.001 7.56-2.381 19.346-11.966 19.346"/><path d="m2.799 32.246c0 6.211 4.354 10.965 9.727 10.965 5.372 0 9.724-4.754 9.724-10.965-.001-15.275-19.451-15.275-19.451 0"/><path d="m32.801 32.246c0 6.211 4.353 10.965 9.726 10.965 5.371 0 9.723-4.754 9.723-10.965-.001-15.275-19.449-15.275-19.449 0"/></svg>