<svg xmlns="http://www.w3.org/2000/svg" viewBox="0 0 64 64" enable-background="new 0 0 64 64"><path d="m9.069 32.252c.655 3.34 3.532 4.524 5.797 4.524 1.029 0 1.972-.228 2.705-.626 1.45 3.028 3.802 3.39 4.837 3.39 1.191 0 2.389-.426 3.393-1.178.923 1.277 2.654 2.024 4.852 2.024.843 0 1.771-.121 2.58-.377-.11 4.35-.358 11.744-.476 14.41-.128 2.876.946 4.633 1.868 5.601 1.197 1.258 2.919 1.98 4.723 1.98 1.853 0 3.61-.749 4.824-2.055.908-.977 1.95-2.73 1.758-5.538-.317-4.634-1.166-16.587-1.633-23.131 1.538 3.931 4.539 5.359 6.78 5.359 1.642 0 3.091-.7 4.082-1.972.918-1.177 1.105-2.941.458-4.29-2.079-4.337-3.534-8.924-3.707-11.688-.18-2.881-7.032-11.766-9.562-14.213-2.112-2.043-6.237-2.472-9.325-2.472-8.354 0-20.307 3.578-22.781 9.678-2.668 6.585-2.818 12.193-1.173 20.574m3.703-21.208c5.249-6.442 20.928-7.471 26.376-4.105 3.31 2.045 9.148 8.959 9.961 13.875 1.556 9.401 5.6 8.974 4.348 12.745-.741 2.232-6.188 3.403-7.938-3.969-.451-1.896-3.81-6.567-3.81-6.567s1.877 25.088 1.61 30.334c-.389 7.679-8.364 7.498-8.549 1.624-.098-3.089 0-19.083 0-19.083s-.956 2.488-4.12 2.488c-3.741 0-3.974-3.955-3.974-3.955s-.862 3.023-3.522 3.023c-3.723 0-4.949-5.686-4.949-5.686s-.929 3.649-3.815 3.649c-2 0-3.501-1.272-3.923-3.419-1.563-7.973-1.425-16.377 2.305-20.954"/><path d="m17.195 29.902l1.013 1.396c.418-.558.526-1.256.46-1.915-.076-.663-.326-1.25-.574-1.727-.252-.483-.509-.874-.779-1.301-.285-.423-.554-.892-.974-1.453-.838 1.115-.576 2.672-.011 3.682.272.518.572.918.865 1.318"/><path d="m25.419 32.068l1.014 1.396c.418-.558.526-1.256.459-1.915-.075-.663-.325-1.25-.573-1.727-.252-.483-.509-.874-.779-1.301-.285-.423-.554-.892-.974-1.453-.838 1.115-.576 2.672-.011 3.682.273.518.572.918.864 1.318"/><path d="m33.28 33.598l1.014 1.396c.417-.558.526-1.256.459-1.915-.076-.664-.326-1.25-.574-1.728-.252-.483-.509-.873-.779-1.3-.284-.424-.553-.893-.974-1.454-.837 1.115-.575 2.673-.011 3.683.272.517.572.916.865 1.318"/></svg>