<svg xmlns="http://www.w3.org/2000/svg" viewBox="0 0 64 64" enable-background="new 0 0 64 64"><path d="m61.971 42.634c-.632-6.334-2.045-11.643-2.358-25.352-.223-9.706-12.006-10.453-15.069-7.164-3.471-4.255-12.762-4.354-16.229.94-2.693-1.48-9.901-1.799-12.879 1.873 0 0-8.835-1.411-12.836 13.321-1.437 5.289.12 12.302.41 13.756 2.023 10.147 10.502 8.19 12.209 7.2 2.892 7.44 10.375 6.101 13.385 3.913.174 4.414 3.771 6.535 6.065 5.699 6.722-2.451 12.33-2.783 16.764-2.607 2.127.083 3.797-.938 4.741-2.779 3.325-1.733 6.148-5.279 5.797-8.8m-15.525.998c1.008-5.798-1.179-14.392-.4-20.936-3.16 4.926-.82 18.871-2.146 24.525-1.085 4.62-9.646 3.175-12.294-2.375-.918-8.487.424-13.407-1.889-22.15.218 10.57-1.415 12.539-.325 22.813-2.524 2.592-11.239.768-11.679-3.621-.587-5.858.628-10.459-1.099-16.139 0 5.369-1.062 8.233-.541 16.18.003.049-1.556 1.24-3.869 1.24-9.471 0-8.646-14.027-7.087-18.926 2.256-7.098 8.207-11.233 11.281-9.611 1.527-3.561 10.239-3.875 11.74-.539 1.296-6.143 13.705-5.645 17.005-.166 2.214-4.44 12.358-3.112 12.464 3.388.235 14.059 2.284 20.641 2.203 26.796-3.471 4.281-9.605 3.902-13.364-.479"/></svg>