<svg xmlns="http://www.w3.org/2000/svg" viewBox="0 0 64 64" enable-background="new 0 0 64 64"><path d="m54.462 20.73c-2.257-11.378-10.206-18.73-20.252-18.73h-.001c-.319 0-.642.008-.965.022-8.765.4-14.499 3.021-18.043 8.248-3.43 5.056-4.793 12.452-4.42 23.982.07 2.199-.366 4.967-.828 7.896-.992 6.296-2.02 12.806 1.443 16.778 1.779 2.04 4.491 3.074 8.063 3.074.823 0 1.71-.054 2.638-.162 4.771-.556 6.583-3.039 8.336-5.44 1.93-2.644 4.119-5.641 11.198-8.46 11.606-4.624 14.788-17.344 12.831-27.208m-13.714 25.069c-14.304 5.697-10.811 12.803-18.926 13.747-.852.099-1.639.146-2.362.146-13.453 0-6.038-16.378-6.332-25.515-.688-21.252 4.685-29.14 20.226-29.85.287-.013.572-.02.855-.02 20.354.001 25.812 33.816 6.539 41.492"/><path d="m46.284 26.901c-.284-3.004-1.08-5.972-2.414-8.75-1.366-2.747-3.265-5.387-6.079-7.249-1.394-.931-3.048-1.621-4.824-1.863-1.771-.257-3.614-.048-5.272.5-1.519.51-3.03 1.18-4.43 2.13-1.396.945-2.665 2.193-3.607 3.683-.914 1.504-1.484 3.211-1.637 4.896-.134 1.689.044 3.334.501 4.856.665 2.268 1.749 4.335 3.188 6.09-1.148-.3-2.297-.45-3.451-.499l-.121.397c1.24.748 2.467 1.461 3.519 2.26.519.4.992.829 1.341 1.25.357.426.52.856.535 1.144.008.291-.088.535-.301.902-.199.362-.535.782-.94 1.193-.822.825-1.843 1.659-2.907 2.519-1.066.903-2.168 1.711-3.332 3.078-.291.372-.613.752-.92 1.489-.142.371-.295.899-.2 1.588.087.692.519 1.342.901 1.671.401.359.709.504 1.051.653.28.115.498.173.709.236.439.119.885.209 1.332.269 1.798.232 3.586-.079 5.094-.749 1.524-.658 2.775-1.669 3.855-2.74 1.078-1.084 1.967-2.278 2.781-3.491.813-1.216 1.515-2.482 2.143-3.799.617-1.32 1.199-2.693 1.565-4.19.363-1.476.49-3.111.211-4.696-.539-3.22-2.911-6.054-5.793-7.497-2.243-1.15-4.822-1.479-7.145-1.022.266-1.318.766-2.521 1.549-3.518 1.379-1.842 3.541-3.199 5.996-4.258 1.089-.482 2.234-.736 3.395-.682 1.159.059 2.329.414 3.427 1.021 2.194 1.238 4.019 3.351 5.374 5.705 1.378 2.359 2.332 5.009 2.813 7.741.491 2.727.516 5.572-.188 8.272-.691 2.688-2.196 5.223-4.507 6.966l.24.343c1.279-.771 2.422-1.785 3.355-2.972.929-1.189 1.642-2.542 2.157-3.959 1.029-2.845 1.292-5.916 1.036-8.918m-22.527-3.761c1.217.472 2.327 1.068 3.299 1.798 1.977 1.452 3.249 3.421 4.105 5.619.229.551.418 1.131.563 1.734.087.296.137.62.199.912.053.376.09.612.117.959.096 1.281-.051 2.636-.504 3.899-.891 2.536-2.814 4.716-5.109 6.02-2.086 1.185-4.358 1.762-6.255 1.493.655-.57 1.431-1.207 2.169-1.861 1.072-.97 2.18-2.005 3.146-3.353.479-.679.942-1.432 1.26-2.371.313-.923.388-2.144-.029-3.194-.403-1.055-1.157-1.763-1.863-2.252-.523-.367-1.061-.635-1.599-.85-.969-2.358-1.62-4.778-1.812-7.116-.054-.718-.05-1.422.006-2.106.803.179 1.571.393 2.307.669"/></svg>