<svg xmlns="http://www.w3.org/2000/svg" viewBox="0 0 64 64" enable-background="new 0 0 64 64"><path d="M32,12C12.123,12,2,32,2,32s10.123,20,30,20c19.879,0,30-20,30-20S51.879,12,32,12z M32,48.664C15.436,48.664,7,32,7,32
			s8.436-16.668,25-16.668C48.566,15.332,57,32,57,32S48.566,48.664,32,48.664z"/><path d="m31.9 46.5c-7.995 0-14.5-6.505-14.5-14.5s6.505-14.5 14.5-14.5 14.5 6.505 14.5 14.5-6.504 14.5-14.5 14.5m0-26c-6.341 0-11.5 5.159-11.5 11.5 0 6.341 5.159 11.5 11.5 11.5 6.341 0 11.5-5.159 11.5-11.5 0-6.341-5.159-11.5-11.5-11.5"/><path d="m39.398 31.994c0 4.148-3.359 7.51-7.496 7.51-4.146 0-7.504-3.361-7.504-7.51 0-4.141 3.358-7.49 7.504-7.49 4.137 0 7.496 3.35 7.496 7.49"/></svg>