<svg xmlns="http://www.w3.org/2000/svg" viewBox="0 0 64 64" enable-background="new 0 0 64 64"><path d="m46.721 36.295c-.27-1.481-.569-3.018-.862-4.518-.758-3.883-1.541-7.898-1.541-9.76-.001-13.844-3.8-20.017-12.32-20.017-8.519 0-12.318 6.173-12.318 20.018 0 1.864-.784 5.883-1.543 9.77-.291 1.496-.59 3.03-.859 4.508-5.749.479-10.278 5.261-10.278 11.071 0 5.403 5.273 9.986 9.056 10.894.407.098.879.146 1.445.146 1.072 0 2.505-.185 3.628-.411 3.017 2.592 6.83 4.004 10.869 4.004 4.041 0 7.854-1.413 10.87-4.005 1.124.226 2.558.411 3.631.411.567 0 1.039-.048 1.445-.146 3.782-.906 9.056-5.489 9.056-10.893 0-5.81-4.531-10.594-10.279-11.072m.702 19.721c-.243.058-.563.083-.924.083-1.261 0-3.015-.3-3.857-.52.861-.457 1.938-.931 3.095-1.176 6.127-1.306 3.467-4.175-.632-2.868-3.218 1.026-4.245 4.929-4.305 5.163-2.431 1.868-5.478 2.994-8.802 2.994-3.322 0-6.367-1.124-8.797-2.99-.049-.193-1.07-4.135-4.307-5.167-4.098-1.307-6.758 1.563-.631 2.868 1.155.245 2.232.72 3.094 1.176-.84.219-2.597.52-3.856.52-.36 0-.681-.025-.923-.083-2.73-.655-7.306-4.341-7.306-8.648 0-4.861 4.01-8.804 8.956-8.804.322 0 .64.018.952.051.976-5.87 2.771-13.418 2.771-16.597 0-14.921 4.497-17.71 10.046-17.71 5.554 0 10.047 2.789 10.047 17.71 0 3.178 1.796 10.727 2.772 16.598.313-.034.632-.052.954-.052 4.946 0 8.956 3.942 8.956 8.804.002 4.307-4.574 7.993-7.303 8.648"/></svg>