<svg xmlns="http://www.w3.org/2000/svg" viewBox="0 0 64 64" enable-background="new 0 0 64 64"><path d="m54.255 25.75c-2.854-1.952-4.644-4.562-6.075-8.581-.532-1.494-1.859-2.46-3.381-2.46-1.636 0-3.132 1.055-4.104 2.894-.6 1.135-.893 2.237-.986 3.28-1.008-1.838-3.056-2.229-4.027-.922 0 0-7.986-6.071-10.71-8.004-3.62-2.566-8.415.276-8.295 3.211-4.571-2.478-9.589 1.897-8.043 6.482-1.768-.324-6.29 4.363-1.536 7.963-3.293.338-4.572 5.494-.745 7.841 0 0 .018.713.069 1.063-2.522.766-3.392 5.534-.953 7.039 0 0 17.59 11.232 23.645 14.611 3.29 1.836 8.955 2.557 14.002.918 4.901-.508 9.059-3.106 12.4-7.736 9.195-12.742 1.911-25.429-1.261-27.599m-1.077 26.357c-3.829 5.38-9.328 5.938-13.536 5.938-6.869 0-11.065-3.293-11.065-3.293l-18.852-14.076c-3.569-2.464-1.42-6.39 1.084-6.318l14.997 10.219 1.846.115c0 0-13.395-9.616-17.732-13.001-2.532-1.976-1.7-5.75 1.578-6.5l18.756 13.464 1.844.115-20.035-15.538c-4.233-3.094.015-8.928 4.119-5.957 4.733 3.426 18.972 14.285 18.972 14.285l1.846.116-18.745-15.527c-.162-2.396 3.025-4.479 5.573-2.573 5.124 3.833 20.504 15.32 20.504 15.32-.396-1.109-.594-1.943-.594-1.943s-2.922-4.858-1.339-8.395c1.39-3.102 4.202-2.598 4.769-.931 1.507 4.438 3.068 7.072 6.191 9.292 3.988 2.835 8.066 13.605-.181 25.188"/><path d="M46.041 2.889 37.431 2 40.369 14.26z"/><path d="m53.165 5.264l-4.375 10.193 10.205-2.734z"/><path d="m29.111 3.549l-6.21 5.133 8.944 5.828z"/></svg>