<svg xmlns="http://www.w3.org/2000/svg" viewBox="0 0 64 64" enable-background="new 0 0 64 64"><path d="m48.693 18.242c1.874-1.396 2.17-6.521-.704-7.863.925-1.615.987-3.917.091-5.733-.83-1.682-2.336-2.646-4.131-2.646h-7.961-1.075-10.052c-9.819 0-11.343 9.207-11.844 12.231-1.199 7.259-1.939 17.426 1.345 24.647.849 1.865 1.908 3.441 2.933 4.966 2.626 3.907 4.895 7.28 3.151 14.371-.326 1.324.42 2.571 1.947 3.253 2.662 1.188 6.863.488 9.406-3.152 2.558-3.657 2.584-10.144.063-15.422-1.322-2.768-1.071-3.946-.804-4.403.257-.438.688-.501.72-.505h14.404c5.741 0 5.147-8.412 2.747-9.666 3.247-.51 4.96-8.828-.236-10.078m-15.969 11.71h15.284c.973 0 1.833 6.521-1.827 6.521h-14.765c-2.725.001-4.125-6.521 1.308-6.521m-1.566-25.673c-.898 1.604-1.555 3.662-.467 5.515-4.643 1.298-4.305 7.514-2 8.566-3.404 1.301-4.039 8.421.077 9.953-2.825 2.017-2.169 8.317 1.017 9.354-.015.021-1.473 1.82.7 5.876 2.482 4.634 2.292 10.723.063 13.911-2.007 2.871-5.282 3.782-7.001 2.82-.405-.226-.69-.749-.557-1.334 2.509-10.968-2.769-13.797-5.678-21.238-2.475-6.332-2.621-13.616-1.459-22.242.697-5.182 2.917-11.181 10.811-11.181h4.494m15.405 5.513c-.294-.061-.604-.097-.935-.097h-13.348c-1.091-1.334.222-5.416 3.291-5.416h10.379c1.339 0 1.973 4.585.613 5.513m-.934 8.217h-13.99c-2.927 0-4.088-5.951.968-5.951h14.782c1.41 0 2.692 5.951-1.76 5.951m.542 9.358h-15.654c-3.729 0-4.515-6.698 1.482-6.698h16.897c1.692 0 3.385 6.698-2.725 6.698"/></svg>