<svg xmlns="http://www.w3.org/2000/svg" viewBox="0 0 64 64" enable-background="new 0 0 64 64"><path d="m51.943 46.004c-.036-.338-.107-.732-.2-1.078-.089-.346-.209-.676-.327-1.002-.512-1.291-1.146-2.51-1.945-3.643l-.003-.061-.029.016-.024-.035-.022.064c-.008.004-.014.01-.021.014l-.004-.006c0 0-7.9 2.262-16.603 2.262-8.702 0-16.601-2.262-16.601-2.262l-.104.199c-.043-.064-.081-.129-.125-.191l-.003-.061-.029.016-.025-.035-.022.064c-1.248.738-2.34 1.717-3.171 2.957-.355.645-.757 1.379-.673 2.213.118.76.253 1.477.653 2.195.132.17.217.379.609.461.024.033.345-.018.419-.078.117-.061.209-.131.292-.203.278-.252.467-.529.643-.811-.11.766-.214 1.537-.183 2.32.049 1.02.133 2.104.651 3.037l.086-.029c-.026-1.016.091-1.988.159-2.984.091-.99.048-1.996.104-3 .018-.32.046-.643.067-.961.008.027.013.055.021.082-.033.943-.071 1.885-.073 2.832-.01 1.336-.043 2.686.152 4.023.101.668.219 1.336.412 1.988.19.65.419 1.309.81 1.869l.082-.041c-.28-1.299-.321-2.604-.411-3.916-.074-1.311-.24-2.623-.328-3.947-.033-.576-.048-1.154-.074-1.73.194.256.397.496.611.73.245.25.459.523.825.715.158.092.597.188.778-.256.108-.248.119-.438.137-.633.024-.383-.008-.74-.05-1.096-.035-.338-.106-.73-.198-1.076-.089-.348-.209-.676-.328-1.004-.262-.66-.557-1.301-.889-1.922 6.393 1.369 11.679 10.574 13.639 19.898.704.066 1.417.1 2.136.1.721 0 1.433-.033 2.139-.1 1.764-8.398 6.228-16.697 11.766-19.268-.153.193-.309.383-.448.592-.355.645-.754 1.377-.671 2.213.116.76.252 1.475.652 2.195.133.168.219.377.609.459.026.033.346-.018.42-.078.117-.061.208-.131.291-.203.277-.25.466-.525.64-.807-.109.766-.212 1.535-.182 2.316.049 1.02.133 2.104.651 3.037l.087-.029c-.026-1.016.09-1.988.158-2.984.091-.99.048-1.996.104-3 .019-.322.046-.645.068-.967.008.029.014.057.021.084-.033.943-.071 1.889-.073 2.836-.011 1.338-.042 2.686.153 4.023.101.668.22 1.336.412 1.99.19.648.42 1.309.813 1.867l.08-.041c-.28-1.299-.322-2.604-.413-3.916-.075-1.311-.241-2.623-.328-3.947-.034-.576-.05-1.154-.075-1.732.194.256.399.498.612.734.245.248.458.521.826.713.158.092.597.186.778-.256.109-.248.119-.439.136-.633.027-.381-.007-.737-.047-1.092m-37.964.428c-.15.307-.318.611-.494.838-.043.055-.086.102-.121.131-.076.033.068.037-.082.053.037.033-.148-.039-.235-.145-.429-.465-.714-1.207-.745-1.895-.021-.34.133-.631.327-.916.191-.283.418-.545.65-.805.835-1.016 1.701-2.037 2.498-3.17-.021.063-.035.123-.055.186-.116.344-.217.688-.319 1.031l-.041.08c.005 0 .011 0 .017 0-.268.893-.514 1.787-.746 2.666-.085.346-.181.686-.273 1.01-.075.287-.235.633-.381.936m3.005-2.155l.33.945c.112.309.19.588.259.93.065.324.126.65.161.955.019.148.022.311.016.385.099-.053.082.055-.043.014-.526-.156-1.085-.67-1.423-1.207-.129-.197-.186-.422-.219-.652-.011-.268-.026-.533-.035-.801.007-.15.015-.301.019-.449.008-.836-.003-1.688-.037-2.549.082.008.166.021.248.031.222.812.463 1.615.724 2.398m30.534 2.155c-.15.307-.318.609-.494.836-.042.057-.087.104-.121.133-.077.031.068.037-.082.053.036.033-.149-.039-.236-.145-.429-.463-.715-1.205-.744-1.893-.021-.34.132-.633.326-.918.191-.283.417-.545.649-.805.432-.523.87-1.053 1.304-1.594.252-.068.506-.127.762-.17-.252.857-.488 1.713-.711 2.557-.084.346-.181.688-.272 1.012-.077.287-.236.631-.381.934m3.726 1.074c-.527-.156-1.086-.67-1.424-1.207-.131-.201-.188-.43-.22-.666-.011-.258-.025-.514-.034-.77.007-.156.016-.313.02-.467.007-.838-.004-1.689-.039-2.549.079-.008.158-.008.237-.012.226.828.471 1.645.737 2.441l.33.945c.113.309.189.586.259.93.066.322.126.65.161.955.018.148.022.311.017.385.097-.052.08.054-.044.015"/><path d="m14.242 15.538c-1.409 1.171-1.129 5.974-.734 7.911.355 1.742 1.913 5.312 3.34 6.05 3.324 1.722 12.047.565 14.416-2.605.071-.096.12-.244.15-.417h.958c.029.174.077.322.148.417 2.371 3.17 11.093 4.327 14.417 2.605 1.426-.738 2.983-4.308 3.339-6.05.393-1.937.675-6.74-.733-7.911-.086-.072-.185-.127-.285-.179-.301-.894-.713-2.746-.713-6.271 0-3.942 1.015-6.67 1.027-6.718l-1.312-.37c-.046.202-1.068 2.961-1.068 7.088 0 3.111.303 4.959.587 6.035-2.079.146-4.967 1.648-6.381 2.37-2.511 1.283-7.479 4.737-8.877 7.447-.06.116-.106.291-.138.487h-.979c-.032-.196-.079-.371-.14-.487-1.396-2.71-6.364-6.164-8.876-7.447-1.415-.722-4.3-2.223-6.379-2.37.283-1.076.585-2.923.585-6.035 0-4.127-1.023-6.886-1.065-7.088l-1.313.37c.01.048 1.027 2.776 1.027 6.718 0 3.522-.411 5.375-.713 6.269-.102.053-.201.109-.288.181"/></svg>