<svg xmlns="http://www.w3.org/2000/svg" viewBox="0 0 64 64" enable-background="new 0 0 64 64"><path d="m61.598 16.767c-3.738-7.449-6.259-11.599-7.494-12.334-.977-.578-2.666-.74-5.817-.999-2.359-.193-5.293-.434-6.608-.949l-1.24-.485-.858 1.022c-.065.075-3.171 3.627-7.58 3.627-4.437 0-7.554-3.591-7.585-3.628l-.863-1.011-1.233.476c-1.315.516-4.248.756-6.606.948-3.152.259-4.842.421-5.816.998-1.239.736-3.76 4.886-7.496 12.335l-.402.8.352.825c3.3 7.753 11.082 9.458 11.412 9.527l1.032.215-1.054 28.042-.043 1.152.983.575c9.328 5.461 25.305 5.461 34.634 0l.983-.575-.044-1.152-1.054-28.042 1.032-.215c.33-.069 8.112-1.774 11.413-9.527l.354-.825-.402-.8m-5.034 2.923c-2.139 2.742-4.77 4.259-7.835 4.523l-1.651-2.618 1.303 34.653c-9.059 5.303-23.703 5.304-32.763 0l1.302-34.653-1.594 2.555c-3.063-.264-5.696-1.783-7.832-4.522-1.242-1.593-1.991-3.21-2.347-4.089l-.063.12c1.627-3.139 4.748-8.978 5.759-9.579 1.231-.73 7.502-.688 10.964-1.476.353.364 1.523 1.521 3.043 2.54 1.059.71 2.153 1.277 3.251 1.685 1.385.514 2.776.774 4.144.774.013 0 .027 0 .04 0 1.655-.008 3.28-.395 4.832-1.155 1.713-.838 3.354-2.146 4.89-3.882 3.422.829 9.896.771 11.149 1.514 1.007.6 4.112 6.402 5.744 9.549-.359.885-1.105 2.485-2.336 4.061"/></svg>