<svg xmlns="http://www.w3.org/2000/svg" viewBox="0 0 64 64" enable-background="new 0 0 64 64"><path d="m18.811 7.785l.124.194c-2.045.273-3.916.557-5.368.801-1.841.31-5.796 1.776-8.428 2.802l-.016-.189-3.123 1.015.898 12.334 3.335.284-.02-.236 8.688.672c.154 10.261-1.067 22.453-1.897 29.581-.175-.04-.291-.067-.291-.067l-.228 4.485c0 0 8.357 2.369 19.507 2.539v-4.64l.006-43.565-9.56-11.795-3.627 5.785m-14.977 16.033l-.779-10.701 1.175-.383.911 11.196-1.307-.112m27.158 37.161c-8.498-.235-15.258-1.734-17.467-2.281l.126-2.489c2.708.575 9.74 1.914 17.341 2.131v2.639m-1.866-6.068c-1.294 0-2.346-.979-2.346-2.186s1.052-2.186 2.346-2.186c1.295 0 2.346.979 2.346 2.186s-1.051 2.186-2.346 2.186m0-7.973c-1.294 0-2.346-.979-2.346-2.187 0-1.206 1.052-2.185 2.346-2.185 1.295 0 2.346.979 2.346 2.185 0 1.208-1.051 2.187-2.346 2.187m0-7.972c-1.294 0-2.346-.979-2.346-2.186 0-1.207 1.052-2.187 2.346-2.187 1.295 0 2.346.979 2.346 2.187 0 1.206-1.051 2.186-2.346 2.186m0-7.974c-1.294 0-2.346-.978-2.346-2.185 0-1.208 1.052-2.187 2.346-2.187 1.295 0 2.346.979 2.346 2.187 0 1.208-1.051 2.185-2.346 2.185m2.346-10.158c0 1.207-1.051 2.186-2.346 2.186-1.294 0-2.346-.979-2.346-2.186s1.052-2.186 2.346-2.186c1.295 0 2.346.979 2.346 2.186m-.898-7.207l-4.605 3.532-5.976-9.378 2.549-4.064 8.032 9.91"/><path d="m58.879 11.393l-.016.189c-2.632-1.024-6.588-2.492-8.428-2.802-1.452-.244-3.323-.527-5.368-.801l.124-.194-3.627-5.785h-19.126l4.981 6.143h9.164l-4.585 5.652 1.091.836v42.704 4.636c10.603-.301 18.428-2.51 18.428-2.51l-.228-4.485c0 0-.113.027-.29.068-.83-7.129-2.053-19.321-1.898-29.582l8.685-.672-.02.236 3.336-.284.898-12.334-3.121-1.015m-17.419-7.677l2.549 4.065-5.977 9.378-4.61-3.533 8.038-9.91m8.891 52.496l.126 2.485c-2.114.521-8.395 1.913-16.388 2.238v-2.631c7.123-.268 13.668-1.533 16.262-2.092m9.815-32.394l-1.308.111.914-11.194 1.173.382-.779 10.701"/></svg>