<svg xmlns="http://www.w3.org/2000/svg" viewBox="0 0 64 64" enable-background="new 0 0 64 64"><path d="m61.443 34.824c-3.959-3-9.118-5.679-15.253-6.981l-.216-3.902c0 0-.771-.227-1.474-.387-.758-6.712-3.146-10.428-11.951-10.428-1.171 0-2.211.077-3.162.209-.231-.529-.551-.928-.981-1.143-.255-.128-.537-.192-.838-.192-1.792 0-3.768 2.244-4.969 3.877-1.603-1.572-3.092-2.526-4.305-2.818-.239-.236-.501-.415-.79-.498-.155-.045-.317-.068-.481-.068-1.969 0-3.781 3.136-4.82 5.36-3.055-2.172-5.617-2.689-6.759-1.381-1.156 1.324-.686 4.117 1.286 7.702-3.319 2.021-5.062 4.236-4.678 5.975.387 1.772 2.769 2.656 6.5 2.409-.064 1.268-.07 3.095.253 4.631-2.106 2.041-3.737 4.341-4.821 6.919-4.189 9.969 10.352 11.678 24.733-1.797 15.024-14.077 37.071-4.194 32.726-7.487m-44.562-.685l-.024-.016c-.26-.178-1.291-.946-1.291-.946l-.253.573c-1.882 4.262-3.542 5.543-4.371 5.305-.909-.264-1.684-2.531-1.364-7l.042-.582-.584.056c-3.35.312-5.737-.324-6.014-1.591-.294-1.33 1.523-3.355 4.627-5.159l.425-.247-.244-.425c-1.862-3.251-2.505-5.994-1.637-6.987.811-.933 3.208-.153 5.91 1.885l.501.377.253-.572c1.023-2.319 1.998-3.757 2.796-4.546l.024-.024c-.543 1.295-.296 3.462.75 6.235-3.486 1.173-5.406 2.79-5.287 4.472.121 1.687 2.24 2.929 5.845 3.441-.551 2.529-.572 4.496-.104 5.751m5.098 1.3c-.438.501-1.323.522-2.485.1 0 0 1.373-.041 2.807-2.018.113.879.004 1.545-.322 1.918m7.417-1.902c-.896.666-3.08-.516-5.36-2.87l-.42-.434-.345.495c-2.023 2.902-3.651 3.937-4.498 3.937-.147 0-.275-.028-.393-.087-.829-.415-1.246-2.585-.309-6.496l.129-.54-.554-.065c-3.267-.383-5.433-1.403-5.517-2.601-.086-1.211 1.915-2.633 5.097-3.624l.51-.159-.197-.495c-1.478-3.689-1.362-5.915-.593-6.485.169-.125.374-.186.63-.186 1.107 0 2.874 1.142 4.728 3.054l.42.433.344-.494c1.927-2.758 3.909-4.342 4.895-3.848.828.413 1.245 2.581.309 6.495l-.13.54.555.065c3.265.38 5.431 1.401 5.517 2.599.083 1.211-1.918 2.634-5.1 3.625l-.511.159.199.496c1.48 3.69 1.366 5.915.594 6.486m3.274-6.638c-.82.113-1.797.285-2.699.444-.021-.056-.035-.107-.057-.164 3.015-1.016 4.852-2.364 5.219-3.798 5.214.225 8.872 1.054 9.911 1.322.058.734.102 1.537.133 2.431-4.072-.738-8.288-.819-12.507-.235"/></svg>