<svg xmlns="http://www.w3.org/2000/svg" viewBox="0 0 64 64" enable-background="new 0 0 64 64"><path d="m59.451 23.094c.799-2.432-1.172-5.092-3.195-5.189-.387-3.792-4.869-4.707-6.356-3.394-.857-1.539-4.386-2.859-6.566 1.114l-5.429 9.896c-.839-7.581-5.045-5.897-5.045-5.897-4.179-2.777-7.376 1.43-6.862 5.816l-5.384-9.815c-1.626-3.024-5.3-3.108-6.566-1.114-1.743-1.623-6.684-1.045-6.357 3.394-2.111-.212-4.27 2.283-3.194 5.189-1.636.269-3.504 2.847-1.854 5.994.06.113 4.633 8.12 5.905 10.843.146.314.295.651.453 1.006 1.083 2.442 2.566 5.788 5.871 8.367 1.418 1.109 3.209 1.696 5.174 1.696 3.176 0 6.443-1.487 8.964-4.079 1.145-1.176 2.071-2.529 2.775-4.006 2.41 5.263 7.678 8.076 12.039 8.076 2.022 0 3.839-.584 5.254-1.688 3.305-2.58 4.787-5.927 5.871-8.371.156-.353.305-.688.45-1.001 1.271-2.723 5.845-10.73 5.889-10.812 1.681-3.097.105-5.735-1.837-6.025m-39.405 25.927c-1.468 0-3.92-.527-5.024-1.389-3.376-2.635-3.942-5.96-5.044-8.32-1.321-2.83-6.165-10.887-6.165-10.887-.872-1.639-.143-4.231 1.539-3.86l5.984 9.636 1.569.388c0 0-5.423-8.424-7.162-11.657-.87-1.616.794-3.846 2.553-3.289l7.135 12.069 1.569.39-7.894-13.327c-1.37-2.907 2.876-4.781 4.214-2.34l6.694 12.657 1.256.313-6.269-12.928c-.383-1.692 2.677-2.685 4.152-.187l6.63 13.293c-3.493 1.779-7.348 7.263-3.583 12.453-2.379-5.422 1.451-9.906 3.953-11.547 1.594-1.045.992-2.678.93-4.798-.098-3.332.871-5.319 2.76-5.319 1.578 0 1.93 2.888.976 8.207-.643 3.583-.058 6.798-.913 11.341-1.111 5.892-5.689 9.101-9.86 9.101m39.509-20.879c-1.562 2.7-4.727 8.09-5.963 10.957-1.426 3.305-4.571 9.901-10.237 9.901-4.333 0-10.431-3.348-11.022-8.854-.319-2.97-.159-7.398.519-11.938.306-2.057 1.099-5.413.259-6.99 2.128-.866 3.383 1.233 3.746 7.341.028.467.046 1.391.936 1.931 2.557 1.554 6.332 6.125 3.953 11.547 3.766-5.19-.297-11.566-3.789-13.346l6.736-12.359c1.541-2.685 4.614-1.528 4.381-.015l-6.811 12.938 1.434-.738c0 0 4.793-9.115 6.538-12.217 1.214-2.155 5.339.016 3.915 2.597-1.896 3.437-6.998 13.298-6.998 13.298l1.362-.484 6.967-12.395c1.349-.077 2.969 1.85 1.962 3.6-1.661 2.884-6.402 11.672-6.402 11.672l1.404-.534 6.352-10.098c1.34.17 1.861 2.277.758 4.186"/></svg>