<svg xmlns="http://www.w3.org/2000/svg" viewBox="0 0 64 64" enable-background="new 0 0 64 64"><path d="m54.861 22.635c-.156-.087-.339-.128-.545-.128-.682 0-1.645.441-2.979 1.095-.518.253-1.059.514-1.62.757-.149 1.766-.598 3.726-1.37 5.879.924.417 1.764.927 2.416 1.528-1.328.588-2.799.258-3.101.235-.999 2.399-2.092 4.369-2.691 5.384h4.273c0 0 4.056-6.15 5.155-8.4.57-1.164.973-2.21 1.193-3.107.216-.871.266-1.615.135-2.15-.114-.491-.373-.816-.866-1.093m-3.212 7.258c-.272-.217-.565-.424-.879-.623.37-1.235.638-2.426.804-3.561.226-.107 1.704-.831 2.209-1.032-.017.181-1.795 4.626-2.134 5.216"/><path d="m13.384 31.766c.621-.574 1.412-1.065 2.285-1.474-.784-2.176-1.24-4.153-1.39-5.934-.561-.243-1.101-.504-1.618-.757-1.335-.653-2.298-1.095-2.98-1.095-.207 0-.387.041-.544.128-.493.277-.751.603-.868 1.092-.127.535-.081 1.279.136 2.15.222.897.622 1.943 1.195 3.107 1.097 2.25 5.154 8.4 5.154 8.4h4.272c-.599-1.013-1.688-2.979-2.687-5.373-.248.017-1.951.219-2.955-.244m-.988-1.791c-.355-.617-2.162-5.11-2.181-5.3.5.201 1.99.929 2.208 1.033.17 1.158.445 2.376.827 3.642-.303.199-.589.408-.854.625"/><path d="m61.76 22.278c-.514-2.147-3.762-8.565-11.482-5.041-.545-.978-3.529-5.975-10.427-3.802.002-.059.003-2.173.003-2.173h-3.215l-1.724-2.262h-6.04l-1.602 2.263h-3.128c0 0 .001 2.114.003 2.172-7.589-2.172-10.279 3.556-10.428 3.803-8.504-3.618-10.958 2.851-11.479 5.041-.626 2.612-.04 5.702 1.79 9.445.726 1.481 5.37 8.981 5.825 9.741-.365.436-.586.996-.586 1.607 0 .808.388 1.528.984 1.986v5.447c-.597.459-.984 1.18-.984 1.988 0 1.377 1.124 2.498 2.506 2.504.002 0 .002.002.004.002h.008.467 39.486.476.008c1.388 0 2.519-1.125 2.519-2.506 0-.816-.395-1.542-1.002-2v-5.423c.607-.457 1.002-1.184 1.002-1.998 0-.616-.226-1.181-.596-1.617.456-.759 5.094-8.25 5.817-9.73 1.833-3.744 2.419-6.833 1.795-9.447m-9.542 30.722h-40.437c-.285 0-.518-.229-.518-.506 0-.281.232-.507.518-.507h40.437c.286 0 .517.226.517.507-.001.277-.231.506-.517.506m0-9.422h-40.429c-.286 0-.517-.228-.517-.506 0-.28.23-.507.517-.507h40.429c.286 0 .517.227.517.507-.001.279-.231.506-.517.506m.116-2.986h-40.668c-1.4-2.352-4.843-7.716-5.838-9.746-1.615-3.308-2.153-5.958-1.641-8.104.389-1.634 3.029-7.092 10.512-2.837 1.774-4.692 6.642-6.505 12.659-2.851-.708-1.468-1.213-2.844-1.213-3.792h11.708c0 .948-.504 2.324-1.211 3.792 5.902-3.529 10.355-2.186 12.658 2.851 7.979-4.349 10.123 1.203 10.514 2.837.511 2.146-.027 4.796-1.643 8.104-.993 2.029-4.436 7.393-5.837 9.746"/><path d="m36.074 15.84c-1.054.99-2.49 1.601-4.074 1.601-1.577 0-3.006-.605-4.061-1.586.253 2.031 1.977 3.602 4.066 3.602 2.097-.001 3.823-1.579 4.069-3.617"/><path d="m44.265 29.172c0 0 2.035-4.011 1.134-7.677-.836-3.401-3.411-2.417-5.934-1.122-1.583.813-3.379 1.648-5.362 1.89v6.103c1.066.182 2.075.488 2.903.955-.832.47-1.84.775-2.903.955v7.109h2.894c-.726-1.145-1.671-2.797-1.671-3.648 0-1.381 1.114-2.5 2.488-2.5s2.488 1.119 2.488 2.5c0 .852-.945 2.504-1.671 3.648h1.418c.215-.365 2.668-4.543 3.484-6.408-.956-.421-1.828-.942-2.502-1.57.998-.516 3.234-.235 3.234-.235m-8.165-4.596v-.678c1.607-.438 6.759-2.784 6.795-2.79.988 1.761.423 4.542-.042 6.024 0 .001-3.499-1.861-6.753-2.556"/><path d="m18.601 21.495c-.802 3.104 1.139 7.688 1.139 7.688s1.955-.23 3.379.223c-.704.654-1.622 1.193-2.629 1.623.812 1.845 3.246 5.99 3.46 6.355h1.419c-.726-1.145-1.67-2.797-1.67-3.648 0-1.381 1.113-2.5 2.488-2.5s2.488 1.119 2.488 2.5c0 .852-.946 2.504-1.671 3.648h2.899v-7.117c-1.066-.184-2.074-.488-2.91-.947.832-.465 1.842-.771 2.91-.953v-4.123-1.982c-1.984-.24-3.799-1.052-5.369-1.889-2.275-1.212-5.058-2.269-5.933 1.122m9.301 3.08c-3.25.694-6.756 2.551-6.756 2.551-.465-1.48-1.263-4.619-.042-6.018.037.006 5.188 2.353 6.798 2.79v.677"/></svg>