<svg xmlns="http://www.w3.org/2000/svg" viewBox="0 0 64 64" enable-background="new 0 0 64 64"><path d="m48.29 15.672v-13.672h-32.581v13.672c-6.099 29.382-2.873 44.629-2.732 45.264l.235 1.064 17.208-5.339-.203-.907c-3.734-16.68 1.191-28.667 2.402-31.256h.288c.98 2.765 4.587 14.673.874 31.256l-.202.907 17.208 5.337.235-1.063c.141-.634 3.368-15.881-2.732-45.263m1.432 39.505c-.184-.501-.408-1.049-.679-1.626-.931-1.981-1.976-3.464-2.335-3.312-.357.151.104 1.881 1.034 3.863.35.743.715 1.416 1.054 1.959-.551-.393-1.251-.828-2.043-1.257-1.984-1.073-3.752-1.68-3.945-1.356-.191.318 1.209 1.42 3.14 2.476l-9.508-3.336c.784-4.572 1.046-8.729.995-12.389.587.462 1.453 1.02 2.459 1.564 1.983 1.074 3.75 1.681 3.944 1.355.194-.323-1.256-1.457-3.24-2.531-.603-.325-1.178-.602-1.702-.829.49.034 1.039.054 1.629.052 1.971-.008 3.564-.237 3.563-.51-.001-.276-1.598-.495-3.566-.486-.478.002-.933.017-1.349.042.336-.101.688-.214 1.058-.343 1.847-.65 3.261-1.387 3.161-1.645-.102-.257-1.681.059-3.525.71-1.021.359-1.896.742-2.471 1.058-.218-5.627-1.143-9.938-1.889-12.577.633 1.118 1.254 1.925 1.432 1.839.193-.095-.208-1.201-.896-2.471-.054-.1-.107-.193-.161-.289.24.143.491.285.754.428 1.983 1.073 3.75 1.68 3.944 1.355.193-.325-1.256-1.458-3.24-2.53-.729-.396-1.429-.727-2.032-.972 1.054.204 2.42.399 3.922.547 3.379.336 6.151.306 6.192-.065.04-.371-2.666-.944-6.046-1.278-2.341-.232-4.39-.29-5.442-.179v-14.115h6.329c-.009 1.144.192 3.756 2.038 5.576 1.062 1.047 2.279 1.653 3.992 1.818v.052l.018.165c-.404.282-.934.722-1.486 1.248-1.06 1.012-1.796 1.95-1.643 2.096.154.146 1.138-.557 2.198-1.568.416-.396.778-.779 1.061-1.11.004.016.007.03.01.046-.345.419-.755.981-1.175 1.625-.917 1.41-1.512 2.64-1.328 2.749.185.107 1.078-.946 1.996-2.356.259-.398.489-.778.687-1.128 3.663 18.327 3.589 31.023 3.091 37.635m-18.868-33.796v-13.052h2.667v14.158h-1.862c-.474-.184-.805-.611-.805-1.106m-7.491-13.604v-3.767h.669v3.768h-.2c-.001-.008-.001-.015-.001-.019l-.202.019h-.266zm.089.552c.001 1.094-.197 3.625-1.93 5.335-.99.975-2.201 1.541-3.834 1.7l.012-7.035h5.752m.98-4.319h6.957v3.777h-6.957v-3.777m16.254 0v3.768h-.197l-.201-.019c0 .004-.001.011-.002.019h-.269v-3.768h.669m5.605 11.35c-1.589-.163-2.712-.729-3.695-1.696-1.732-1.71-1.932-4.241-1.929-5.335h5.624v7.031m-14.501-11.35h7.827v3.777h-7.827v-3.777m14.501 3.777h-5.202v-3.777h5.202v3.777m-23.329-3.777v3.777h-5.261l.007-3.777h5.254m4.002 35.384c-.62-.209-1.668-.428-2.873-.581-1.95-.247-3.564-.226-3.602.046-.039.273 1.512.695 3.465.942.584.074 1.13.121 1.62.147-.55.161-1.158.365-1.798.614-2.113.822-3.706 1.77-3.557 2.115s1.983-.041 4.095-.862c1.032-.403 1.935-.833 2.576-1.21-.18 3.56-.025 7.578.687 11.977l-10.076 3.535c.089-.047.174-.089.264-.137 1.984-1.073 3.435-2.208 3.241-2.532-.195-.323-1.96.283-3.945 1.356-.65.352-1.233.707-1.729 1.042.303-.504.62-1.093.926-1.744.93-1.982 1.392-3.712 1.033-3.863-.359-.152-1.405 1.33-2.335 3.312-.272.58-.499 1.132-.682 1.636-.503-6.643-.576-19.449 3.17-38.003.203.361.441.757.713 1.174.919 1.41 1.813 2.465 1.997 2.356.184-.109-.41-1.339-1.329-2.748-.037-.056-.072-.107-.108-.162 1.023.963 1.955 1.622 2.103 1.48.154-.146-.581-1.084-1.641-2.096-.555-.528-1.086-.969-1.492-1.251v-.21c1.756-.161 3.065-.77 4.133-1.822 1.844-1.82 2.046-4.433 2.036-5.576h6.597v13.052c0 .541.303 1.019.766 1.3-.701.121-1.998.643-3.416 1.411-1.983 1.072-3.435 2.206-3.24 2.531.194.323 1.961-.283 3.945-1.356.476-.258.919-.519 1.318-.771-.177.28-.362.594-.546.932-.688 1.27-1.089 2.376-.897 2.471.17.082.74-.643 1.343-1.68-1.035 2.797-2.334 7.313-2.762 13.175"/><ellipse cx="33.598" cy="5.389" rx="1.276" ry="1.138"/></svg>