<svg xmlns="http://www.w3.org/2000/svg" viewBox="0 0 64 64" enable-background="new 0 0 64 64"><path d="m62 32.252c0 0-.017-.038-.047-.105-.045-.353-.146-.574-.335-.723-1.213-2.565-5.233-10.563-10.638-16.047-1.496-1.519-5.822 1.914-7.828 3.969-2.006 2.055-1.029 5.529.182 4.134 1.498-1.725 5.268-7.137 6.666-6.452 1.381.676 4.977 5.914 8.988 13.905-1.49-.103-4.142-.201-7.242-.201-4.498 0-8.086.644-11.621 1.265-3.506.614-5.842 1.047-8.125 1.047-2.285 0-4.619-.433-8.125-1.047-3.537-.621-7.123-1.265-11.621-1.265-3.1 0-5.751.098-7.242.2 4.01-7.99 7.607-13.229 8.988-13.904 1.398-.685 5.166 4.727 6.664 6.452 1.211 1.396 2.189-2.079.182-4.134-2.006-2.055-6.33-5.488-7.828-3.969-5.403 5.483-9.422 13.482-10.635 16.047-.189.148-.291.371-.336.723-.03.067-.047.105-.047.105l.031-.011c-.031.324-.031.747-.031 1.31 0 3.338.383 3.919.545 4.117.219.27.834.643 1.033.928.293.418.398 1.709.539 2.454 1.117 5.904 2.658 7.95 11.449 7.95 8.184 0 12.217-2.43 13.756-8.432.115-.448.318-2.367.443-2.813.049-.176.211-.439.637-.505.568-.054 1.086-.079 1.598-.079s1.027.025 1.598.079c.424.065.588.329.637.505.123.446.328 2.365.443 2.813 1.539 6.002 5.572 8.432 13.756 8.432 8.791 0 10.332-2.046 11.447-7.95.141-.745.248-2.036.541-2.454.199-.285.813-.658 1.033-.928.162-.198.545-.779.545-4.117 0-.563 0-.985-.031-1.31l.031.011m-34.178 6.026c-.105.483-.242 1.049-.432 1.763-1.102 4.158-3.535 6.93-11.824 6.93-8.033 0-8.746-1.676-9.502-6.383-.281-1.757-.887-3.701-.195-5.334.385-.908 1.047-2.183 3.371-2.183 1.697 0 10.094.111 15.256 1.223 1.506.327 3.957.893 3.326 3.984m30.112 2.31c-.756 4.707-1.467 6.383-9.5 6.383-8.291 0-10.723-2.771-11.824-6.93-.189-.714-.326-1.279-.434-1.763-.629-3.092 1.822-3.657 3.328-3.984 5.162-1.111 13.559-1.223 15.256-1.223 2.322 0 2.986 1.274 3.369 2.183.693 1.633.088 3.577-.195 5.334"/></svg>