<svg xmlns="http://www.w3.org/2000/svg" viewBox="0 0 64 64" enable-background="new 0 0 64 64"><path d="m54.607 22.309c0-.022.004-.045.004-.067v-.897c0-3.401-2.64-6.159-5.897-6.159h-2.146c.51-.28.861-.832.861-1.475 0-1.428-1.188-1.699-2.07-1.699h-5.029l-2.034-2.118c.18-.43.284-.901.284-1.4-.001-1.93-1.499-3.494-3.347-3.494-1.566 0-2.871 1.129-3.235 2.646-.364-1.517-1.669-2.646-3.234-2.646-1.848 0-3.346 1.564-3.346 3.492 0 .499.104.972.283 1.4l-2.034 2.118h-5.029c-.882 0-2.068.271-2.068 1.699 0 .643.352 1.194.86 1.475h-2.146c-3.258 0-5.898 2.758-5.898 6.159v.897c0 .144.022.281.032.422-4.722 7.201-9.055 19.744-6.805 26.311 1.149 3.358 7.694 5.926 10.456 6.874 1.191.408 2.324.659 3.944.964 3.168 1.441 8.588 2.189 14.988 2.189 6.399 0 12.044-.848 15.212-2.288 1.391-.259 2.572-.537 3.65-.852 2.516-.736 9.308-3.408 10.498-6.886 2.252-6.571-1.794-19.582-6.754-26.665m-29.158-7.414l2.834-2.96c.159.023.316.05.48.05 1.565 0 2.87-1.129 3.234-2.646.364 1.517 1.669 2.646 3.235 2.646.164 0 .321-.026.48-.05l2.835 2.96c.117.122.252.214.392.29h-13.882c.14-.077.275-.168.392-.29m-20.949 33.407c-1.895-5.529 2.107-17.91 6.73-24.771-2.145 7.565-5.169 22.356 1.177 29.914-3.699-1.414-7.319-3.424-7.907-5.143m42.008 6.515c-2.881 1.31-8.466 2.145-14.507 2.145-6.042 0-11.585-.813-14.466-2.122-13.516-6.141-3.704-32.94-3.704-32.94 6.053-1.191 30.206-1.226 36.333.014 0 0 9.732 26.682-3.656 32.903m12.966-6.514c-.64 1.872-4.675 4.04-7.935 5.2 6.586-7.733 3.221-23.155 1.072-30.526 4.687 6.36 8.914 19.338 6.863 25.326"/><path d="m31.999 23.364c-4.418 0-7.999 3.578-7.999 8 0 4.417 3.581 8 7.999 8s8.001-3.583 8.001-8c0-4.422-3.583-8-8.001-8m0 14c-3.314 0-5.999-2.688-5.999-6 0-3.315 2.685-6 5.999-6 3.313 0 6.001 2.685 6.001 6 0 3.313-2.687 6-6.001 6"/><path d="m31.404 30.767c.049-1.647.297-2.903.595-2.903-1.931 0-3.499 1.568-3.499 3.501 0-.302 1.258-.55 2.904-.598"/><path d="m31.999 27.863c.301 0 .55 1.256.599 2.903 1.647.049 2.902.297 2.902.598 0-1.932-1.568-3.501-3.501-3.501"/><path d="m31.404 31.961c-1.646-.049-2.904-.298-2.904-.597 0 1.932 1.568 3.499 3.499 3.499-.298 0-.546-1.256-.595-2.902"/><path d="m32.598 31.961c-.049 1.646-.298 2.902-.599 2.902 1.933 0 3.501-1.567 3.501-3.499 0 .299-1.255.548-2.902.597"/></svg>