<svg xmlns="http://www.w3.org/2000/svg" viewBox="0 0 64 64" enable-background="new 0 0 64 64"><ellipse cx="15.171" cy="18.652" rx="1.38" ry="1.666"/><path d="m60.5 44.863c-1.151-1.811-2.897-4.22-4.263-4.598-.754-.56-1.919-1.01-3.167-1.479-.208-.079-.422-.16-.636-.242.017-.503-.138-.867-.482-1.108-2.104-1.469-4.238-3.641-6.288-6.084.055-.144.087-.3.087-.468 0-.631-.425-1.142-.948-1.142-.151 0-.289.013-.438.015-.597-.756-1.181-1.527-1.754-2.307.098-.179.169-.382.169-.612 0-.632-.425-1.143-.947-1.143-.049 0-.22.001-.481.011-.681-.965-1.338-1.925-1.967-2.861.041-.127.068-.262.068-.405 0-.632-.424-1.144-.946-1.144-.051 0-.097.004-.146.004-.646-.985-1.248-1.919-1.807-2.792.03-.113.059-.229.059-.353 0-.631-.426-1.142-.947-1.142-.023 0-.043.002-.066.002-2.436-3.804-2.879-4.378-3.554-4.378-.446 0-.86.03-1.263.071-.152-.273-.307-.538-.458-.815-.471-.862-1.477-1.893-3.586-1.893-3.195 0-7.579 2.373-10.152 3.958-2.439-1.035-4.513-1.571-6.146-1.571-1.667 0-2.443.543-2.768.872-.02.017-.044.027-.063.047-1.798 1.964-2.955 5.636-3.698 9.273-1.184 3.767-1.313 6.834-1.294 8.248-.065.081-.131.164-.188.28-.691 1.435-.55 7.004.422 8.213 2.493 3.113 5.044 5.131 7.745 7.268 3.055 2.417 6.213 4.916 9.925 9.371 3.198 3.84 9.856 6.041 18.269 6.041 11.208 0 23.209-3.979 23.209-9.9 0-6.518-.703-7.206-1.5-7.237m-1.101 1.006c-2.167 3.361-12.228 5.173-21.086 5.173-2.957 0-5.567-.204-7.352-.576-2.472-.515-4.801-1.367-6.985-2.421 2.051-2.684 5.763-3.101 9.545-3.101 1.469 0 2.985.066 4.592.138 1.641.072 3.338.146 5.016.146 4.05 0 9.149-.402 12.964-3.471.683.412 2.04 2.105 3.306 4.112m-11.894-9.167c.579.604 1.125 1.177 1.594 1.688.641.7 2.009 1.215 3.455 1.76.748.282 1.501.571 2.096.864-3.364 2.408-7.681 2.757-11.521 2.757-1.567 0-3.163-.068-4.717-.137-.003-1.593-.235-3.213-.628-4.205 2.267-1.332 5.526-2.615 9.721-2.727m-4.362-4.62c.808.883 1.579 1.704 2.313 2.475-3.784.427-6.751 1.706-8.867 3.011-.765-1.077-1.514-2.123-2.242-3.124 2.003-1.108 4.868-2.131 8.796-2.362m-1.893-2.116c-3.617.449-6.302 1.535-8.223 2.686-.604-.818-1.197-1.61-1.775-2.373 2.922-1.403 6.275-1.951 8.41-2.163.54.643 1.067 1.254 1.588 1.85m-11.365-1.467c-.757-.974-1.488-1.898-2.195-2.771 2.106-.91 4.944-1.767 8.469-2.044.604.812 1.205 1.582 1.801 2.333-2.347.339-5.387 1.041-8.075 2.482m8.245-4.905c.441.66.896 1.33 1.366 2.008-.517-.643-1.039-1.313-1.563-2.002.066-.002.13-.006.197-.006m-2.798-4.286c.416.649.854 1.329 1.318 2.044-.122.006-.238.02-.359.028-.477-.666-.954-1.353-1.433-2.059.16-.004.313-.011.474-.013m-9.125 4.63c-.732-.867-1.441-1.689-2.113-2.437 2.16-.935 5.162-1.823 9.057-2.104.486.734.973 1.449 1.459 2.141-3.545.44-6.351 1.421-8.403 2.4m5.636-9.839c.354.364 1.155 1.574 2.052 2.964-.168.008-.337.015-.502.025-.607-.958-1.214-1.945-1.812-2.973.089-.003.17-.014.262-.016m-5.104-2.641c1.13 0 1.883.371 2.301 1.134.888 1.628 1.796 3.164 2.711 4.633-4.056.441-7.114 1.515-9.263 2.563-2.104-2.175-3.882-3.676-5.319-4.468 2.41-1.5 6.663-3.862 9.57-3.862m-17.968 2.762c.154-.11.629-.376 1.669-.376.806 0 2.096.175 3.987.837-2.538.286-3.942 2.278-5.074 3.922-.728 1.054-1.412 2.049-2.052 2.083-.392-.5.308-3.557 1.47-6.466m-2.955 6.561c.052.28.14.524.27.718.268.395.684.61 1.172.61 1.454 0 2.351-1.302 3.301-2.682 1.136-1.646 2.309-3.348 4.481-3.348 1.214 0 3.314 1.556 6.095 4.419-.695.402-1.23.769-1.634 1.068-.111-.035-.227-.06-.347-.06-.763 0-1.381.746-1.381 1.666s.618 1.666 1.381 1.666c.668 0 1.225-.573 1.353-1.335.478-.351 1.199-.829 2.188-1.344.686.755 1.409 1.589 2.159 2.476-.791.444-1.412.852-1.86 1.175-.118-.04-.24-.067-.369-.067-.762 0-1.38.745-1.38 1.666s.618 1.666 1.38 1.666c.657 0 1.204-.556 1.344-1.299.511-.362 1.283-.865 2.332-1.402.743.909 1.513 1.87 2.306 2.888-.813.542-1.571 1.167-2.242 1.885-.037-.004-.072-.013-.11-.013-.765 0-1.382.746-1.382 1.666 0 .919.617 1.666 1.382 1.666.747 0 1.354-.722 1.374-1.62.672-.72 1.455-1.335 2.311-1.857.605.794 1.224 1.615 1.857 2.465-.914.665-1.568 1.292-2.021 1.784-.031-.002-.061-.011-.092-.011-.761 0-1.38.747-1.38 1.667 0 .919.619 1.666 1.38 1.666.754 0 1.362-.73 1.377-1.635.419-.446 1.08-1.061 2.031-1.713.745 1.021 1.507 2.079 2.281 3.17-.842.607-1.492 1.169-1.946 1.605-.064-.011-.127-.023-.192-.023-.764 0-1.381.747-1.381 1.666 0 .92.617 1.666 1.381 1.666.714 0 1.297-.661 1.365-1.505.431-.408 1.082-.966 1.949-1.571.291.824.415 2.112.409 3.354-1.173-.048-2.319-.089-3.435-.089-4.296 0-8.523.517-10.877 3.889-6.256-3.347-11.164-8.306-14.379-11.942.072-3.244-.73-5.271-1.533-7.21-.67-1.622-1.302-3.158-1.37-5.412.135-.681.284-1.363.452-2.029m-.437 7.996c.613 1.481 1.191 2.925 1.378 4.912-.265-.313-.513-.608-.741-.88-1.011-1.202-1.545-1.826-1.935-2.134-.003-.884.058-2.396.398-4.297.262.859.584 1.636.9 2.399m33.412 31.765c-7.977 0-14.224-2.01-17.143-5.513-3.809-4.573-7.173-7.234-10.141-9.583-2.634-2.083-5.121-4.052-7.512-7.034-.488-.646-.687-4.63-.399-6.178.346.381.827.952 1.297 1.512 3.895 4.636 13.017 15.49 25.77 18.147 1.879.391 4.597.606 7.65.606 6.852 0 18.482-1.165 21.975-5.351.125.828.248 2.313.248 4.95 0 4.42-10.365 8.444-21.745 8.444"/></svg>