<svg xmlns="http://www.w3.org/2000/svg" viewBox="0 0 64 64" enable-background="new 0 0 64 64"><path d="M38.399 10.918 44.768 2 19.231 2 25.6 10.918z"/><path d="M57.384,6.459H46.308l0.689,2h10.387C58.802,8.459,60,9.4,60,10.514v47.432C60,59.059,58.802,60,57.384,60H34.546
		l5.917-4.758l-2.769-27.314l10.151-17.01l-9.109,12.646c0.622-3.282-2.12-10.146-2.12-10.146S33.153,14.77,32,14.77
		s-4.616-1.352-4.616-1.352s-2.719,7.213-1.963,10.436l-9.267-12.936l10.146,17.01L23.54,55.242L29.537,60H6.616
		C5.198,60,4,59.059,4,57.945V10.514C4,9.4,5.198,8.459,6.616,8.459h10.387l0.689-2H6.616C4.067,6.459,2,8.273,2,10.514v47.432
		C2,60.184,4.067,62,6.616,62h50.768C59.933,62,62,60.184,62,57.945V10.514C62,8.273,59.933,6.459,57.384,6.459z"/></svg>