<svg xmlns="http://www.w3.org/2000/svg" viewBox="0 0 64 64" enable-background="new 0 0 64 64"><path d="m44.887 52.955c-1.899 0-4.536 2.559-6.443 2.559-2.31 0-4.46-2.559-6.443-2.559s-4.135 2.559-6.442 2.559c-1.906 0-4.543-2.559-6.443-2.559-1.841 0-5.085 1.507-6.115 2.01.002.417.038.851.062 1.277 1.521-.758 3.795-1.754 5.251-1.754 2.017 0 4.817 2.774 6.843 2.774 2.454 0 4.739-2.774 6.845-2.774s4.391 2.774 6.845 2.774c2.026 0 4.828-2.774 6.844-2.774 1.46 0 3.747 1.004 5.268 1.763l.041-1.286c-1.028-.502-4.273-2.01-6.113-2.01"/><path d="m38.311 59.869c-2.263 0-4.368-2.559-6.31-2.559-1.941 0-4.047 2.559-6.311 2.559-1.865 0-4.449-2.559-6.309-2.559-1.787 0-4.92 1.631-5.96 2.2.134.763.29 1.533.497 2.326 0 0 3.962-2.395 6.028-2.395 1.776 0 4.244 2.558 6.026 2.558 2.161 0 4.174-2.558 6.028-2.558s3.868 2.559 6.029 2.559c1.781 0 4.251-2.558 6.025-2.558 2.064 0 6.028 2.395 6.028 2.395.208-.793.364-1.563.497-2.326-1.038-.567-4.174-2.2-5.959-2.2-1.861 0-4.444 2.558-6.309 2.558"/><path d="m18.771 51.783c1.949 0 4.656 2.559 6.614 2.559 2.371 0 4.58-2.559 6.615-2.559s4.245 2.559 6.615 2.559c1.96 0 4.665-2.559 6.617-2.559 1.631 0 4.345 1.092 5.734 1.732-.615-11.442-8.839-18.949-11.486-24.406h.521v-1-4-1h-.609c1.265-3.444 3.636-8.011 2.501-12.723 0 0-.248.001-.666.024v-8.41h-1.216v8.517c-2.137.241-5.636.938-8.011 2.964-2.375-2.027-5.876-2.723-8.013-2.964v-8.517h-1.213v8.411c-.417-.023-.666-.024-.666-.024-1.137 4.712 1.235 9.278 2.501 12.723h-.611v1 4 1h.522c-2.646 5.457-10.864 12.965-11.481 24.405 1.39-.642 4.099-1.732 5.732-1.732m20.231-27.549v3.75h-1.352c0 .001 0 .001 0 .002 2.644 4.923 3.567 13.285 3.567 13.285l-4.896 1.758c0 0-.004-6.952-1.668-14.18.328-.328.537-.89.637-1.538l2.03 4.475c-.174-1.7-1.22-3.6-1.987-4.832.084-.941-.039-1.985-.35-2.72h4.019m-8.707-.632c.697-.697 3.137-.697 3.835 0 .707.706 1.158 4.134 0 5.291-.694.693-3.142.693-3.835 0-1.277-1.277-.649-4.642 0-5.291m-3.27 4.382h-2.027v-3.75h4.443c-.292.688-.421 1.65-.365 2.545-.929 1.312-1.596 2.724-1.878 3.304l1.939-2.758c.07.454.193.867.375 1.186-.932 3.082-1.756 8.409-1.756 8.409l-3.788-.875c0 0 .924-4.538 3.057-8.061"/></svg>