<svg xmlns="http://www.w3.org/2000/svg" viewBox="0 0 64 64" enable-background="new 0 0 64 64"><path d="m59.969 33.413c-.705-2.323-1.751-4.265-3.315-5.837-.647-.65-1.388-1.231-2.22-1.758-.509-.832-1.213-1.529-2.051-2.03v-.926c0-1.127-.867-2.041-1.936-2.041h-.137c-1.234-10.501-7.255-18.821-18.311-18.821-11.054 0-17.075 8.32-18.31 18.821h-.138c-1.069 0-1.935.914-1.935 2.041v.925c-.839.501-1.544 1.199-2.054 2.031-.83.526-1.57 1.108-2.217 1.758-1.563 1.57-2.607 3.508-3.313 5.827-2.087 4.793-2.065 11.42-2.023 20.43.006 1.343.012 2.743.012 4.206 0 1.175.973 2.132 2.168 2.132.373 0 .719-.103 1.025-.266 1.477.468 3.73.882 7.141 1.242 5.19.549 12.166.853 19.645.853s14.455-.304 19.643-.853c3.411-.36 5.665-.774 7.141-1.242.307.163.651.266 1.024.266 1.196 0 2.169-.957 2.169-2.132 0-.844.003-1.667.006-2.471l.008-1.755c.039-8.993.058-15.612-2.022-20.4m-7.586-7.256v-1.258c1.22.928 2.013 2.391 2.013 4.037 0 1.647-.793 3.11-2.013 4.038v-.997c0-.08-.013-.156-.022-.233.685-.741 1.111-1.722 1.111-2.808 0-1.072-.419-2.04-1.089-2.779m0 9.393v-1.464c.719-.43 1.34-1.002 1.824-1.682.057.053.12.104.172.158.005.005.008.011.013.016v5.213c0 .642-.644 1.162-1.438 1.162h-7.688c-.795 0-1.438-.521-1.438-1.162v-6.446c.505 1.147 1.359 2.103 2.426 2.741v1.464c0 1.127.867 2.041 1.938 2.041h2.258c1.066 0 1.933-.914 1.933-2.041m-6.129-9.395c-.67.738-1.09 1.708-1.09 2.781 0 1.086.428 2.066 1.111 2.807-.01.078-.023.154-.023.234v.997c-1.219-.929-2.012-2.391-2.012-4.038s.794-3.109 2.014-4.038v1.257m3.451 3.782h-1.516c-.632 0-1.188.323-1.541.816-.334-.489-.529-1.077-.551-1.708 1.349.25 2.551.547 3.608.892m-.387-7.461c.766 0 1.385.62 1.385 1.385 0 .764-.619 1.384-1.385 1.384s-1.385-.62-1.385-1.384c.001-.765.62-1.385 1.385-1.385m-17.319-16.712c5.928 0 13.568 3.255 15.3 15.297-.618.34-1.045 1.015-1.045 1.802v.08c-3.728-.678-8.376-.996-14.255-.996-5.878 0-10.526.318-14.253.996v-.08c0-.787-.43-1.463-1.047-1.803 1.733-12.041 9.374-15.296 15.3-15.296m-14.276 25.98c.684-.741 1.112-1.722 1.112-2.808 0-1.072-.419-2.041-1.089-2.779v-1.258c1.219.928 2.012 2.391 2.012 4.037 0 1.647-.793 3.11-2.012 4.038v-.997c0-.08-.014-.156-.023-.233m-.373-.991c-.354-.493-.91-.816-1.541-.816h-1.534c1.063-.344 2.274-.639 3.626-.89-.022.63-.217 1.217-.551 1.706m-2.67-8.277c.768 0 1.385.62 1.385 1.385 0 .764-.617 1.384-1.385 1.384-.765 0-1.385-.62-1.385-1.384 0-.765.62-1.385 1.385-1.385m-1.128 15.115h2.257c1.07 0 1.938-.914 1.938-2.041v-1.464c1.067-.64 1.923-1.597 2.428-2.745v6.45c0 .642-.644 1.162-1.438 1.162h-7.688c-.795 0-1.438-.521-1.438-1.162v-5.213c.005-.005.008-.011.013-.016.052-.056.113-.107.169-.161.483.681 1.105 1.255 1.825 1.685v1.464c-.003 1.127.864 2.041 1.934 2.041m-1.935-12.693v1.257c-.671.738-1.091 1.708-1.091 2.781 0 1.09.431 2.075 1.12 2.817-.009.075-.031.146-.031.224v.997c-1.22-.929-2.013-2.391-2.013-4.038s.794-3.109 2.015-4.038m20.383 35.255c-13.613 0-22.11-.917-25.668-1.839.012-.091.027-.182.027-.275 0-1.283-.005-2.518-.011-3.708l-.002-.519c-.022-5.1-.038-9.36.32-12.821.287.569.976.972 1.782.972h12.884c1.064 0 1.926-.698 1.926-1.559v-12.046c2.571-.213 5.477-.32 8.74-.32 3.265 0 6.168.109 8.74.321v12.045c0 .86.863 1.559 1.928 1.559h12.884c.807 0 1.495-.402 1.782-.972.358 3.459.343 7.718.32 12.817l-.004.707c-.006 1.133-.009 2.306-.009 3.523 0 .094.016.185.027.275-3.556.923-12.053 1.84-25.666 1.84"/></svg>