<svg xmlns="http://www.w3.org/2000/svg" viewBox="0 0 64 64" enable-background="new 0 0 64 64"><path d="m59.462 28.726l-.27.347c-7.362-10.796-8.062-22.31-8.062-22.31l-7.912-2.324-2.397-2.439h-17.964l-2.703 2.578-7.438 2.185c0 0-.691 11.335-7.895 22.058l-.265-.342-2.556 3.22 10.939 14.264 1.298-4.962-.341-.441c1.463-4.962 4.003-14.562 4.614-23.3l.915 4.671-.856-.109 1.369 6.135.677.084c.262.628.534 1.249.823 1.859.183.383.287.755.333 1.125l-1.169 3.527.434-.021c-.022.061-.806 2.297-.806 2.297l.472-.063c-2.412 6.018-6.571 14.244-6.099 22.998 0 0 7.915 2.237 17.318 2.237 9.006 0 17.32-2.237 17.32-2.237.475-8.786-3.99-17.338-6.4-23.368v-7.641c.265-.131.493-.293.691-.488.202-.198.742-.726.644-1.43-.06-.429-.313-.692-.577-.883.966-1.792 1.677-4.132 1.677-4.132l-.856.109.915-4.671c.627 8.922 3.261 18.742 4.707 23.605l-.346.445 1.382 4.884 10.922-14.242-2.538-3.225m-46.936 15.181l-9.355-12.197 1.378-1.735 8.684 11.235-.707 2.697m10.706-21.581l-2.418-.239c5.956-9.888 19.938-19.01 19.967-19.03l1.292 1.185c-7.174 5.254-14.039 11.707-18.841 18.084m16.112-19.395l-2.919 2.145h-10.121l-2.277-2.145h15.317m-16.498.158l7.458 7.025-1.531 1.405-7.497-7.063 1.57-1.367m-.13 28.438l16.199-.771v1.983l-16.561.797c.21-.679.354-1.341.362-2.009m16.187-3.074l.012.933-17.645-2.201c-.409-1.021-.778-2.061-1.107-3.117l16.86 2.204c-1.707 1.349.85 2.293 1.88 2.181m-2.875 1.51l-13.406.637c-.071-.362-.176-.727-.354-1.102-.207-.436-.401-.88-.593-1.325l14.353 1.79m2.887 3.711v1.87c-2.288-.337-3.642-.322-5.758-.297-.659.009-1.395.018-2.259.018-2.092 0-5.959.062-9.316.45.084-.231.167-.457.249-.678.07-.188.137-.37.203-.554l16.881-.809m-16.961 26.548v-23.612c1.108-.121 2.377-.217 3.738-.286v24.334l-3.738-.436m20.94-32.624c-.267.262-.613.415-.972.51v8.297 12.893h-1.382v-13.068-7.999c-.305-.018-.518-.052-.518-.052s-.395-1.844.552-2.769c.272-.267.465-.372.615-.372.373 0 .492.64.948 1.069.641.606 1.703.565.757 1.491m.045-2.48c-.828-.754-1.42-1.136-1.763-1.136-.34 0-.679.123-.997.309-2.02-.958-2.125 1.178-2.125 1.178l-18.188-2.377-.12-.282c7.736.917 16.518 1.062 24.235.117-.138.336-.859 1.769-1.042 2.191m7.77 16.393l8.758-11.285 1.365 1.732-9.369 12.217-.754-2.664"/></svg>