<svg xmlns="http://www.w3.org/2000/svg" viewBox="0 0 64 64" enable-background="new 0 0 64 64"><path d="m61.667 53.369c-.193-3.913-3.1-9.341-7.112-14.925 2.038.953 3.792 1.287 3.916 1.311.063.011.123.016.185.016.472 0 .891-.33.98-.804.101-.533-.257-1.046-.8-1.146-.047-.01-4.6-.877-7.141-3.841-1.929-2.246-3.045-4.931-4.126-7.525-1.673-4.022-3.404-8.182-8.117-10.738-2.416-1.309-4.977-.707-5.603-.529.056-.409-.143-.823-.539-1.014-1.466-.706-2.91-1.034-4.284-1.09l-2.208-1.59c-5.84-4.23-13.109-9.494-17.48-9.494-1.052 0-1.929.292-2.607.867-2.823 2.396-4.274 8.854-4.194 13.529-.521 1.675-.552 3.98-.533 5.457.063 4.775 12.114 14.258 13.915 14.049.557-.064 1.17-.424 1.842-.773.531 1.183 1.051 2.512 1.6 3.921.031.079.063.159.094.238.226.749.457 1.487.686 2.212 1.838 5.838 2.814 9.534-.129 11.853-2.555 2.014-8.958.589-11.208-.132-.524-.169-1.09.114-1.262.631-.171.516.117 1.071.643 1.24.238.077 3.972 1.253 7.646 1.253 2.027 0 4.036-.358 5.432-1.457 2.091-1.646 2.716-3.778 2.601-6.19.184.317.369.611.561.845 5.54 6.794 21.599 12.457 29.72 12.457 3.869 0 7.412-1.868 7.806-5.082.125-1.035.004-2.258-.284-3.549m-11.064-14.624c-.093.026-.24.053-.472.053-2.168 0-6.607-2.175-8.135-3.014l-1.432-.786-.055 1.613c-.096 2.863-.685 6.418-1.374 6.938-.131.098-.674.416-2.215.416-1.5 0-3.15-.304-4.008-.604l-.419-.146c-2.411-.842-4.547-1.593-6.833-3.144 2.956-.634 7.701-7.558 7.923-10.161.05-.581-.022-1.254-.173-1.978.883-.438 1.907-.786 3.037-.921 1.812 2.471 3.915 4.339 6.354 4.339.532 0 1.066-.09 1.59-.271.351-.121.617-.361.781-.678 3.182 3.944 5.379 7.269 5.431 8.344m-13.138-13.742c-.25-.376-.494-.765-.734-1.158.764.137 1.553.372 2.366.763.299.145.625.113.898-.028.34.339.685.685 1.028 1.036-1.221-.435-2.415-.613-3.558-.613m3.821 2.852c.417.2.89.078 1.18-.248.39.679.709 1.324.832 1.732-.165.031-.329.046-.495.046-1.286 0-2.55-.915-3.739-2.269.718.142 1.46.372 2.222.739m-2.8-10.416c4.095 2.222 5.618 5.883 7.234 9.761.121.292.244.586.367.88-1.013-1.115-2.029-2.199-3.035-3.236l-.001.001-.015-.018c-1.701-1.754-3.368-3.368-4.944-4.802-.093-.195-.237-.367-.448-.469-.046-.022-.093-.037-.139-.059-.505-.451-.997-.88-1.478-1.287.185-.471-.011-1.009-.479-1.234-.058-.027-.114-.046-.171-.072.82-.086 2.003-.063 3.109.535m-2.081 3.735c.279.251.562.508.848.772-.585-.112-1.162-.179-1.726-.192-.2-.366-.393-.727-.58-1.084.477.118.964.289 1.458.504m-2.048 2.577c.286.501.583.995.888 1.481-.848.179-1.647.447-2.388.781-.203-.565-.439-1.145-.706-1.731.678-.254 1.416-.446 2.206-.531m-1.001-1.824c-.731.133-1.43.333-2.087.587-.307-.569-.627-1.134-.964-1.683.701-.222 1.462-.363 2.27-.397.251.487.511.985.781 1.493m-2.128-4.072c.119.219.243.452.371.695-.847.107-1.652.312-2.408.584-.234-.334-.471-.658-.707-.967.841-.236 1.763-.358 2.744-.312m-4.423-2.629c1.158.233 2.187.359 1.73-.053-.045-.04-.1-.087-.148-.13.3-.008.604.002.916.028l.674.854c-1.007.083-1.964.304-2.851.621-.409-.438-.801-.805-1.168-1.095.273-.087.555-.163.847-.225m-7.915 7.881c-1.041 2.707-1.296 5.383-1.119 7.988-.487-.626-1.148-1.293-2.081-2.085-.313-.266-.646-.532-.985-.802l-.146-.18.047.103c-.799-.627-1.657-1.267-2.556-1.931-3.067-2.271-6.543-4.847-7.171-6.983-.999-3.39.15-10.846 2.392-13.985-.686 2.338.026 6.408.797 8.112.767 1.693 3.864 4.417 5.694 4.871 1.347.334 4.09-.621 6.44-1.629.023.046.046.093.075.138-.137.149-.268.298-.384.445-.337.431-.259 1.047.179 1.382.09.068.188.118.29.152-.524 1.643-1.16 3.593-1.472 4.404m1.196 10.414c-.551-3.183-.575-6.469.675-9.719.498-1.296 1.723-5.165 2.176-6.606.081-.019.157-.033.239-.053.471-.112.956-.229 1.298-.229.111 0 .158.01.158.006.188.143.383.313.584.501-1.323.753-2.391 1.678-3.082 2.553-.338.429-.26 1.046.177 1.38.183.14.399.207.612.207.299 0 .594-.131.791-.38.463-.587 1.477-1.515 2.863-2.246.262.326.523.672.783 1.037-1.344.757-2.43 1.694-3.131 2.58-.34.43-.26 1.047.176 1.381.184.139.398.206.613.206.299 0 .594-.131.791-.38.439-.556 1.372-1.421 2.65-2.132.354.571.694 1.158 1.013 1.751-1.245.734-2.249 1.622-2.911 2.461-.34.429-.262 1.047.177 1.381.182.139.398.206.611.206.299 0 .594-.131.791-.38.389-.491 1.165-1.223 2.221-1.878.284.631.529 1.242.726 1.822-.979.654-1.781 1.392-2.337 2.096-.34.429-.26 1.047.176 1.38.185.14.398.207.613.207.299 0 .594-.131.791-.381.257-.325.688-.757 1.253-1.201.021.235.025.456.009.656-.165 1.935-4.276 7.745-6.218 8.374-.332-.158-1.58-.934-5.288-4.6m39.489 21.287c-.237 1.008-.844 1.655-1.908 2.042-1.114.405-2.516.609-4.166.609 0 0 0 0-.002 0-8.489 0-21.964-5.488-27.459-10.032-1.695-1.4-3.133-4.805-4.41-8.054 3.693 3.428 6.768 4.5 10.195 5.697l.418.146c.987.346 2.873.717 4.678.717 1.551 0 2.705-.275 3.43-.82 1.395-1.052 1.894-4.595 2.071-6.883 1.96.973 5.46 2.535 7.709 2.535.744 0 1.35-.169 1.803-.502.249-.184.558-.521.644-1.1 4.693 6.475 7.749 12.457 6.997 15.645"/></svg>