<svg xmlns="http://www.w3.org/2000/svg" viewBox="0 0 64 64" enable-background="new 0 0 64 64"><path d="m56.607 18.232c-.018-.018-.037-.033-.055-.052 5.029-5.441 4.458-11.746 4.458-11.746l-3.155-2.434c-4.95 2.821-6.996 8.02-7.683 10.29-4.255-1.503-10.063-2.168-18.174-2.168-13.281 0-20.41 1.771-24.606 6.11-5.479 5.668-5.442 15.283-5.379 31.21.007 1.749.014 3.575.014 5.479-.001 4.42 18.779 5.079 29.973 5.079s29.974-.659 29.974-5.078c0-1.904.007-3.729.014-5.479.062-15.928.099-25.543-5.381-31.211m1.026-8.646c-.691 2.769-2.199 4.878-3.78 6.435-.036-.022-.075-.042-.112-.064 1.252-2.805 2.652-4.887 3.892-6.371m-48.84 10.083c3.734-3.862 10.675-5.51 23.206-5.51 12.532 0 19.473 1.648 23.208 5.51 2.264 2.341 3.466 5.599 4.106 9.928-.604-2.754-1.538-5.049-3.002-6.912-3.459-4.408-11.185-6.461-24.313-6.461-13.127 0-20.852 2.053-24.312 6.461-1.463 1.861-2.396 4.154-3 6.903.643-4.325 1.845-7.579 4.107-9.919m37.997 18.215h.887c.225 0 .407.151.43.287l.828 4.984c.096.585-.013 1.186-.276 1.531-.139.177-.303.267-.489.267h-1.871c-.187 0-.349-.09-.486-.267-.267-.345-.376-.946-.277-1.531l.827-4.983c.022-.136.202-.288.427-.288m.939-1.902v-3.615h-.989v3.615h-.701c-.892-.367-1.512-1.122-1.512-2.002 0-.933.691-1.733 1.671-2.071h2.068c.979.338 1.672 1.139 1.672 2.071 0 .88-.62 1.635-1.513 2.002h-.696m-42.52 13.686c.005 1.547.012 3.159.012 4.843 0 .248-.159.448-.355.448-.195 0-.353-.2-.353-.448 0-1.683-.008-3.294-.013-4.839-.051-12.87-.083-21.374 3.849-26.379 3.415-4.354 11.36-6.13 23.65-6.13 12.292 0 20.237 1.775 23.652 6.13 3.932 5.005 3.899 13.509 3.849 26.379-.006 1.545-.013 3.156-.013 4.839 0 .248-.157.448-.354.448-.196 0-.354-.2-.354-.448 0-1.684.007-3.296.012-4.843.049-12.646.081-21.001-3.643-25.742-3.27-4.166-11.066-5.863-23.149-5.863s-19.88 1.697-23.147 5.863c-3.726 4.741-3.694 13.096-3.643 25.742m43.002-18.777c-.313-.08-.637-.136-.978-.136s-.665.056-.978.136h-39.327c.091-.465.19-.913.301-1.346h2.599v-1.019h-2.316c.487-1.561 1.136-2.891 2.001-3.993 2.921-3.723 10.277-5.532 22.486-5.532 12.212 0 19.567 1.81 22.488 5.532.865 1.103 1.514 2.433 2.002 3.993h-2.393v1.019h2.675c.11.433.211.881.302 1.346h-8.862m-41.461 1.018h37.737c-.532.563-.866 1.279-.866 2.071 0 .761.308 1.45.803 2.002h-38.121c.101-1.467.247-2.821.447-4.073m43.229 0h7.271c.2 1.252.347 2.605.447 4.073h-7.654c.495-.552.803-1.241.803-2.002 0-.792-.334-1.508-.867-2.071m-44.429 23.751c.325-.25.539-.673.539-1.149 0-1.471-.006-2.888-.009-4.253l-.002-.593c-.02-4.859-.033-9.066.164-12.666h39.762c.065.021.133.038.199.056-.373.185-.663.521-.734.942l-.827 4.984c-.148.886.03 1.758.474 2.336.309.398.728.618 1.183.618h1.871c.454 0 .874-.22 1.185-.62.442-.576.621-1.448.473-2.334l-.828-4.983c-.07-.422-.359-.759-.734-.944.066-.018.134-.033.198-.055h9.297c.196 3.598.183 7.802.163 12.658l-.004.813c-.005 1.299-.009 2.646-.009 4.041 0 .477.214.899.538 1.149-3.407 1.122-12.241 2.304-26.449 2.304-14.209 0-23.044-1.183-26.45-2.304"/><path d="m11.048 28.526h3.086v1.019h-3.086z"/><path d="m15.354 28.526h3.083v1.019h-3.083z"/><path d="m19.658 28.526h3.083v1.019h-3.083z"/><path d="m23.964 28.526h3.085v1.019h-3.085z"/><path d="m28.269 28.526h3.083v1.019h-3.083z"/><path d="m32.571 28.526h3.087v1.019h-3.087z"/><path d="m36.876 28.526h3.084v1.019h-3.084z"/><path d="m41.182 28.526h3.086v1.019h-3.086z"/><path d="m45.486 28.526h3.084v1.019h-3.084z"/><path d="m49.791 28.526h3.084v1.019h-3.084z"/><path d="m6.744 38.345h3.083v1.019h-3.083z"/><path d="m11.048 38.345h3.086v1.019h-3.086z"/><path d="m15.354 38.345h3.083v1.019h-3.083z"/><path d="m19.658 38.345h3.083v1.019h-3.083z"/><path d="m23.964 38.345h3.085v1.019h-3.085z"/><path d="m28.269 38.345h3.083v1.019h-3.083z"/><path d="m32.571 38.345h3.087v1.019h-3.087z"/><path d="m36.876 38.345h3.084v1.019h-3.084z"/><path d="m41.182 38.345h3.086v1.019h-3.086z"/><path d="m49.791 38.345h3.084v1.019h-3.084z"/><path d="m54.097 38.345h3.083v1.019h-3.083z"/></svg>