<svg xmlns="http://www.w3.org/2000/svg" viewBox="0 0 64 64" enable-background="new 0 0 64 64"><path d="m12.678 17.103c0-1.038-.837-1.845-1.872-1.845-1.034 0-1.873.807-1.873 1.845 0 1.037.839 1.844 1.873 1.844 1.035-.001 1.872-.807 1.872-1.844"/><path d="m19.961 18.946c1.034 0 1.873-.807 1.873-1.844 0-1.038-.839-1.845-1.873-1.845-1.037 0-1.874.807-1.874 1.845 0 1.038.837 1.844 1.874 1.844"/><path d="m18.657 23.154c.156-.288-.053-.576-.283-.403-1.927 1.498-4.066 1.498-5.984 0-.23-.173-.439.115-.281.403.584 1.095 1.764 2.016 3.273 2.016s2.691-.921 3.275-2.016"/><path d="m53.194 18.946c1.035 0 1.873-.807 1.873-1.844 0-1.038-.838-1.845-1.873-1.845s-1.872.807-1.872 1.845c0 1.038.837 1.844 1.872 1.844"/><path d="m45.913 17.103c0-1.038-.837-1.845-1.874-1.845-1.034 0-1.873.807-1.873 1.845 0 1.037.839 1.844 1.873 1.844 1.037-.001 1.874-.807 1.874-1.844"/><path d="m51.892 23.154c.158-.288-.051-.576-.281-.403-1.918 1.498-4.058 1.498-5.984 0-.23-.173-.439.115-.282.403.583 1.095 1.765 2.016 3.274 2.016s2.689-.921 3.273-2.016"/><path d="m61.359 44.42l-.097-.471c-.003-.014-.004-.025-.007-.039l-.097-.472h-.001l-2.77-13.539c-.226-1.104-1.037-1.821-2.068-1.827-.483-.002-4.224 0-4.224 0v-.283c3.197-1.297 6.742-4.059 7.418-7.599 1.214-.218 2.487-1.001 2.487-3.318 0-1.824-.613-2.529-1.221-2.788-.103-8.483-2.652-12.193-12.264-12.081-9.519.057-11.667 3.608-11.752 11.984-.692.143-1.53.75-1.53 2.885 0 2.318 1.274 3.101 2.487 3.318.688 3.598 4.338 6.392 7.575 7.661v.221h-4.219c-.631 0-1.261.443-1.772 1.246l-7.304 11.833-7.304-11.833c-.512-.803-1.142-1.246-1.772-1.246h-4.219v-.221c3.237-1.27 6.887-4.063 7.575-7.661 1.213-.218 2.487-1 2.487-3.318 0-2.135-.838-2.742-1.529-2.885-.086-8.376-2.234-11.927-11.753-11.984-9.612-.112-12.161 3.598-12.263 12.081-.609.259-1.222.964-1.222 2.788 0 2.317 1.273 3.1 2.485 3.318.677 3.54 4.221 6.302 7.418 7.599v.283c0 0-3.739-.002-4.224 0-1.03.006-1.843.723-2.068 1.827l-2.77 13.539-.097.472c-.003.014-.004.025-.007.039l-.096.471.009.001c-.207 1.229-.143 1.987.203 2.483.354.507.926.6 1.23.648.175.028.345.049.509.049 1.084 0 1.705-.864 2.141-2.975l.984-3.709.132 2.021v19.062h6.511v-2.741l-.014-.016.002-.807c.021-8.444.532-10.165.734-10.913h.443c.211.773.721 2.51.739 10.911l.002.806-.017.019v2.741h6.511v-19.068l.4-6.908 5.831 7.477c.094 1.98 1.54 3.023 2.983 3.023h.001c.752 0 1.455-.27 1.979-.759.549-.513.845-1.224.882-2.053 0-.009 6.002-7.688 6.002-7.688l.4 6.908v19.068h6.511v-2.741l-.017-.019.002-.806c.019-8.401.528-10.138.739-10.911h.443c.202.748.715 2.469.734 10.913l.002.807-.014.016v2.741h6.511v-19.062l.132-2.021.984 3.709c.436 2.11 1.057 2.975 2.141 2.975.164 0 .334-.021.509-.049.305-.049.877-.142 1.23-.648.346-.496.41-1.254.203-2.483l.011-.001m-22.714-24.73l-.051-.39-.395-.036c-1.365-.126-1.974-.863-1.974-2.392 0-1.352.318-1.985 1.006-1.943.102.526.202.841.329 1.047.306.62.935.911 1.004.942l.819.36-.126-.879c-.002-.01-.136-.958-.088-2.218.293-4.295.587-4.657 1.422-4.657.42 0 1.004.113 1.739.257 1.445.281 3.422.666 6.286.666 2.862 0 4.839-.385 6.283-.666.737-.144 1.32-.257 1.74-.257.836 0 1.132.362 1.425 4.671.048 1.246-.086 2.194-.088 2.204l-.126.878.818-.359c.071-.031.7-.322 1.026-.982.11-.171.209-.487.308-1.007.03-.002.06-.003.087-.003.608 0 .917.654.917 1.946 0 1.528-.608 2.266-1.973 2.392l-.391.036-.052.39c-.635 4.851-7.32 7.928-9.973 7.928-2.651 0-9.336-3.077-9.972-7.928m12.534 8.434v.446c0 .539-1.063 1.143-2.484 1.143-1.42 0-2.481-.604-2.481-1.143v-.396c.886.274 1.715.427 2.404.427.73.001 1.616-.171 2.561-.477m-45.769-8.434l-.052-.39-.394-.036c-1.364-.126-1.973-.863-1.973-2.392 0-1.292.309-1.946.917-1.946.027 0 .057.001.087.003.1.52.198.836.308 1.007.326.66.955.951 1.026.982l.818.359-.126-.878c-.002-.01-.136-.958-.088-2.204.293-4.309.589-4.671 1.425-4.671.42 0 1.003.113 1.74.257 1.444.281 3.421.666 6.283.666 2.864 0 4.841-.385 6.286-.666.736-.144 1.319-.257 1.739-.257.836 0 1.129.362 1.422 4.657.048 1.26-.086 2.208-.088 2.218l-.126.879.819-.36c.069-.031.698-.322 1.004-.942.127-.206.228-.521.329-1.047.688-.042 1.007.592 1.007 1.943 0 1.528-.609 2.266-1.975 2.392l-.391.036-.052.391c-.637 4.851-7.321 7.928-9.973 7.928-2.652-.001-9.337-3.078-9.972-7.929m12.377 8.485v.396c0 .539-1.062 1.143-2.481 1.143-1.422 0-2.484-.604-2.484-1.143v-.446c.944.306 1.831.478 2.562.478.688-.001 1.517-.154 2.403-.428m-13.193 18.427c-.115.017-.227-.016-.347-.036-.34-.055-.482-.112-.563-.229-.127-.182-.226-.636-.039-1.754l1.899.308.093.015c-.416 1.692-.849 1.696-1.043 1.696m8.757 14.398h-4.493v-1.341c.418-.327 1.284-.54 2.247-.54.962 0 1.828.213 2.245.54v1.341zm8.399 0h-4.491v-1.341c.417-.327 1.283-.54 2.246-.54s1.828.213 2.245.539v1.342m7.882-18.315l-7.322-9.39-.53 9.129h-12.953l-.501-7.725-2.453 9.23-.732-.119-1.304-.21 2.764-13.502c.153-.752.661-1.023 1.085-1.025.534-.002 4.218-.002 4.218-.002.359.952 1.726 1.643 3.402 1.643 1.676 0 3.041-.689 3.399-1.641h4.219c.257 0 .617.307.915.773l7.437 12.08-1.644.759m3.632 2.352c-.336.314-.794.486-1.287.486h-.001c-.922 0-1.852-.592-1.978-1.904l.513-.236 1.459-.674.338.202 1.521.908c-.051.5-.244.917-.565 1.218m13.477 15.963h-4.491v-1.342c.417-.326 1.282-.539 2.245-.539s1.829.213 2.246.54v1.341m8.401 0h-4.492v-1.341c.417-.327 1.283-.54 2.245-.54.963 0 1.829.213 2.247.54v1.341m.532-26.301l-.501 7.725h-12.951l-.531-9.129-7.322 9.39-1.644-.759 7.437-12.08c.298-.467.658-.773.915-.773h4.219c.358.951 1.724 1.641 3.399 1.641 1.678 0 3.043-.69 3.402-1.643 0 0 3.684 0 4.218.002.424.002.932.273 1.085 1.025l2.763 13.502-1.304.211-.732.119-2.453-9.231m4.642 11.637c-.081.117-.224.175-.563.229-.12.021-.231.053-.347.036-.194 0-.627-.004-1.043-1.697l.093-.015 1.899-.308c.187 1.119.089 1.573-.039 1.755"/></svg>