<svg xmlns="http://www.w3.org/2000/svg" viewBox="0 0 64 64" enable-background="new 0 0 64 64"><circle cx="11.633" cy="20.308" r="2.25"/><circle cx="22.369" cy="20.308" r="2.25"/><path d="m13.066 27.655c.703 1.285 2.121 2.434 3.934 2.434 1.814 0 3.232-1.148 3.936-2.434.188-.346-.063-.719-.34-.504-2.316 1.801-4.887 1.789-7.189 0-.28-.214-.53.159-.341.504"/><path d="m46.998 2c-6.267 0-6.877 2.506-6.877 2.506s-8.121-.233-8.121 12.166c0-12.398-8.121-12.166-8.121-12.166s-.61-2.506-6.877-2.506c-9.706 0-15.002 6.332-15.002 14.672v45.328h60v-45.328c0-8.34-5.296-14.672-15.002-14.672m-41.506 15.213c5.443-.061 13.566-6.017 15.604-7.578.96 1.661 4.126 6.744 7.351 7.57.013.002 1.326.27 1.326 2.569 0 2.839-1.859 3.363-1.934 3.384l-.379.093-.002.39c-.028 4.799-6.637 9.487-10.457 9.487-3.779 0-10.543-4.78-10.543-9.484l-.005-.382-.367-.102c-.075-.021-1.858-.546-1.858-3.386 0-1.952 1.029-2.469 1.264-2.561m3.758 32.906l.262.02.139-.08c.039-.022 3.537-2.083 3.665-6.362 3.898 3.661 13.267 4.501 15.521 4.651v1.278l.065.498h.499c.447 0 1.197.127 1.197.978 0 .804-.312 1.179-.983 1.179-.103 0-.175-.011-.186-.013l-.593-.113v.604c0 3.23-4.983 5.736-9.27 5.736-4.517 0-9.666-3.055-9.666-5.736l-.004-.592-.584.101c-.013.002-.087.012-.193.012-.683 0-1.001-.375-1.001-1.179 0-.652.38-.982 1.132-.982m-.299-3.96c0-.715 0-1.183 0-1.183 0-3.959 4.18-7.146 10.407-7.146 6.441 0 10.409 3.187 10.409 7.146v1.183c0-3.96-3.968-7.146-10.409-7.146-6.227.001-10.407 3.186-10.407 7.146m-.784 14.841c.531-1.525 2.287-2.65 4.585-3.374 1.953 1.122 4.415 1.868 6.815 1.868 2.361 0 4.854-.687 6.796-1.833 2.241.724 3.946 1.838 4.47 3.339h-22.666m23.316-6.718c-.174-.499-.382-.979-.618-1.415.278-.219.494-.545.618-.977v2.392m0-3.854c-.111-.332-.296-.598-.539-.793v-3.798c0-5.451-4.416-9.837-11.586-9.837-6.932 0-11.582 4.386-11.582 9.837 0 .63 0 2.351 0 3.747-.392.313-.657.801-.657 1.518 0 .993.396 1.584.928 1.896-.983 1.886-1.507 4.482-.502 6.25.049.088.148.198.279.318-.321.44-.547.92-.682 1.434h-4.125v-26.226c0-1.154 2.97-2.362 7.8-2.952 2.073 1.419 4.376 2.306 6.185 2.306 1.81 0 4.127-.907 6.204-2.36 5.111.566 8.278 1.815 8.278 3.007v15.653zm4.071-33.223c3.225-.826 6.391-5.909 7.351-7.57 2.037 1.562 10.16 7.518 15.604 7.578.235.092 1.265.609 1.265 2.562 0 2.84-1.783 3.365-1.858 3.386l-.367.102-.005.382c0 4.704-6.764 9.484-10.543 9.484-3.82 0-10.429-4.688-10.457-9.487l-.002-.39-.379-.093c-.074-.021-1.934-.545-1.934-3.384-.001-2.3 1.312-2.568 1.325-2.57m-3.037 37.033v-1.75c.15.211.324.389.53.51-.202.387-.376.808-.53 1.24m1.733-4.119l.262.02.139-.08c.039-.022 3.537-2.083 3.665-6.362 3.898 3.661 13.267 4.501 15.521 4.651v1.278l.065.498h.499c.447 0 1.197.127 1.197.978 0 .804-.312 1.179-.983 1.179-.103 0-.175-.011-.186-.013l-.593-.113v.604c0 3.23-4.983 5.736-9.27 5.736-4.517 0-9.666-3.055-9.666-5.736l-.004-.592-.584.101c-.015.003-.089.014-.194.014-.683 0-1.001-.375-1.001-1.179.001-.654.381-.984 1.133-.984m-.299-3.96c0-.715 0-1.183 0-1.183 0-3.959 4.18-7.146 10.407-7.146 6.441 0 10.409 3.187 10.409 7.146v1.183c0-3.96-3.968-7.146-10.409-7.146-6.227.001-10.407 3.186-10.407 7.146m-.784 14.841c.531-1.525 2.287-2.65 4.585-3.374 1.953 1.122 4.415 1.868 6.815 1.868 2.361 0 4.854-.687 6.796-1.833 2.241.724 3.946 1.838 4.47 3.339h-22.666m27.816 0h-4.123c-.137-.52-.363-1.006-.69-1.448.123-.114.219-.22.266-.304 1.027-1.809.456-4.487-.57-6.381.428-.336.732-.896.732-1.766 0-.684-.264-1.154-.653-1.467v-3.798c0-5.451-4.416-9.837-11.586-9.837-6.932 0-11.582 4.386-11.582 9.837 0 .63 0 2.351 0 3.747-.095.076-.182.163-.26.26v-15.069c0-1.191 3.167-2.44 8.278-3.007 2.077 1.453 4.395 2.36 6.204 2.36 1.809 0 4.111-.887 6.185-2.306 4.83.59 7.8 1.798 7.8 2.952v26.227z"/><circle cx="52.367" cy="20.308" r="2.25"/><circle cx="41.631" cy="20.308" r="2.25"/><path d="m43.064 27.655c.703 1.285 2.121 2.434 3.936 2.434 1.813 0 3.23-1.148 3.934-2.434.189-.346-.061-.719-.34-.504-2.303 1.789-4.873 1.801-7.189 0-.278-.214-.528.159-.341.504"/><circle cx="49.062" cy="49.796" r="1.75"/><circle cx="39.915" cy="49.796" r="1.75"/><path d="m41.049 54.782c.615 1.073 1.854 2.028 3.44 2.028 1.589 0 2.825-.955 3.44-2.028.164-.285-.055-.596-.297-.418-2.025 1.501-4.271 1.491-6.287 0-.241-.177-.46.133-.296.418"/><circle cx="24.062" cy="49.796" r="1.75"/><circle cx="14.915" cy="49.796" r="1.75"/><path d="m16.049 54.782c.615 1.073 1.854 2.028 3.44 2.028 1.589 0 2.825-.955 3.44-2.028.164-.285-.055-.596-.297-.418-2.025 1.501-4.271 1.491-6.287 0-.241-.177-.46.133-.296.418"/></svg>