<svg xmlns="http://www.w3.org/2000/svg" viewBox="0 0 64 64" enable-background="new 0 0 64 64"><circle cx="12.109" cy="40.309" r="2.25"/><circle cx="22.84" cy="40.309" r="2.25"/><path d="m13.544 47.656c.701 1.285 2.118 2.43 3.932 2.43s3.23-1.145 3.931-2.43c.189-.346-.061-.719-.34-.506-2.313 1.803-4.881 1.791-7.185 0-.278-.212-.528.161-.338.506"/><path d="m46.999 22c-6.266 0-6.877 2.506-6.877 2.506s-8.122-.233-8.122 12.164c0-12.396-8.122-12.164-8.122-12.164s-.611-2.506-6.877-2.506c-9.703 0-15.001 6.33-15.001 14.67v18.104.402 6.824h30 30v-6.824-.402-18.104c0-8.34-5.298-14.67-15.001-14.67m-41.106 14.711c6.02 0 15.828-7.83 15.828-7.83s3.707 6.912 7.285 7.83c0 0 1.735.318 1.735 3.063 0 3.299-2.313 3.869-2.313 3.869-.029 4.977-6.826 9.984-10.95 9.984-4.129 0-11.039-5.008-11.039-9.984 0 0-2.229-.57-2.229-3.869 0-2.614 1.683-3.063 1.683-3.063m25.607 24.289h-28.501v-6.227c0-1.012 2.589-2.305 7.511-2.939 2.289 1.703 4.929 2.793 6.968 2.793 1.972 0 4.52-1.043 6.759-2.686 4.435.66 7.264 1.873 7.264 2.832v6.227zm3.494-24.289c3.578-.918 7.285-7.83 7.285-7.83s9.809 7.83 15.828 7.83c0 0 1.683.449 1.683 3.063 0 3.299-2.229 3.869-2.229 3.869 0 4.977-6.91 9.984-11.039 9.984-4.124 0-10.921-5.008-10.95-9.984 0 0-2.313-.57-2.313-3.869 0-2.745 1.735-3.063 1.735-3.063m26.007 24.289h-28.501v-6.227c0-.959 2.829-2.172 7.264-2.832 2.239 1.643 4.787 2.686 6.759 2.686 2.039 0 4.679-1.09 6.968-2.793 4.922.635 7.511 1.928 7.511 2.939v6.227z"/><circle cx="51.891" cy="40.309" r="2.25"/><circle cx="41.16" cy="40.309" r="2.25"/><path d="m42.594 47.656c.7 1.285 2.117 2.43 3.931 2.43s3.23-1.145 3.932-2.43c.189-.346-.061-.719-.338-.506-2.304 1.791-4.872 1.803-7.185 0-.28-.212-.53.161-.34.506"/><path d="m31.997 25.998c1.201-1.082 17.977-9.818 14.539-18.92-3.195-8.457-13.578-4.662-14.539-.438-1.32-4.502-11.443-7.859-14.533.441-3.44 9.253 13.334 17.558 14.533 18.917"/></svg>