<svg xmlns="http://www.w3.org/2000/svg" viewBox="0 0 64 64" enable-background="new 0 0 64 64"><path d="m61.099 42.38l-6.088-12.269h5.696c0 0 0-14.251 0-16.343 0-15.691-25.525-15.691-25.525 0 0 2.092 0 16.343 0 16.343h5.032l-8.555 8.499-8.121-8.499h5.026c0 0 0-14.251 0-16.343 0-15.691-25.524-15.691-25.524 0 0 2.092 0 16.343 0 16.343h6.149l-6.514 12.219c-.708 1.234-.868 2.364-.438 3.102.259.446.713.702 1.247.702.002 0 .005 0 .006 0 .959-.004 1.988-.806 2.75-2.14l3.086-5.297c-.243 3.494-.397 7.036-.483 9.34l-.018.52h1.736l.002 9.885c-.455.17-.826.395-1.068.676l-.122.141v2.741h6.408v-2.742l-.12-.141c-.244-.281-.618-.51-1.075-.678l.002-9.883h3.039l.002 9.887c-.453.168-.823.395-1.065.674l-.123.141v2.742h6.407v-2.742l-.122-.141c-.244-.279-.613-.506-1.068-.674v-9.887h1.76l-.042-.539c-.194-2.507-.665-8.162-1.282-12.924l6.934 6.388c.109 1.744 1.346 2.665 2.58 2.665s2.471-.921 2.58-2.665l7.605-7.007c-.008.073-.017.148-.024.223-.196 1.734-.418 3.701-.798 5.662-1.218 6.321-3.444 10.295-3.467 10.334l-.424.748h5.415l.004 6.998c-.458.17-.829.396-1.073.678l-.122.141v2.742h6.407v-2.742l-.121-.141c-.242-.279-.612-.506-1.065-.674l-.002-7.002h3.04l.007 6.998c-.458.168-.832.396-1.076.678l-.122.141v2.742h6.409v-2.742l-.123-.141c-.243-.281-.614-.508-1.069-.676v-7h3.751.858l-.424-.748c-.021-.039-2.251-4.02-3.473-10.338-.177-.914-.32-1.827-.441-2.724l3.867 6.745.011-.004c.859 1.412 1.558 2.008 2.349 2.008.32 0 .604-.102.861-.212.278-.12.795-.343.983-.909.207-.628-.043-1.494-.832-2.879m-51.6-5.966l-4.125 7.08c-.69 1.207-1.447 1.639-1.887 1.64-.001 0-.002 0-.003 0-.178 0-.304-.067-.383-.206-.187-.318-.168-1.038.448-2.113l6.652-12.474c-.279 1.608-.512 3.764-.702 6.073m5.283 23.242v1.344h-4.41v-1.344c.41-.326 1.26-.539 2.207-.539.944 0 1.795.213 2.203.539m-3.22-11.099h2.026l-.002 9.633c-.316-.047-.653-.072-1.007-.072-.356 0-.696.025-1.016.074l-.001-9.635m4.242-18.608c-2.707 0-2.845-1.633-2.845-1.959v-.511l-.026.001v-.111c0 0 .001 0 .003 0-3.786-.475-6.301-2.178-6.9-6.939-1.742-.126-2.258-1.316-2.258-2.77 0-3.804 2.698-1.875 2.698-1.875-.196-5.378 2.151-5.822 2.151-5.822 10.949 0 16.502 5.822 16.502 5.822s2.703-1.93 2.703 1.875c0 1.453-.516 2.644-2.266 2.77-.573 4.584-2.934 6.328-6.483 6.877h-.536v.5c0 .654-1.037 2.142-2.743 2.142m4.854 18.608v9.633c-.319-.047-.658-.072-1.015-.072s-.696.025-1.015.074l-.002-9.635h2.032m1.19 11.099v1.344h-4.408v-1.344c.408-.326 1.259-.539 2.203-.539.946 0 1.795.213 2.205.539m7.663-19.088l-7.631-7.03c-.268-1.863-.558-3.497-.862-4.616l9.914 10.375-1.421 1.271m2.095 2.578c-.752 0-1.51-.523-1.593-1.687l.524-.47 1.105-.988 1.557 1.451c-.08 1.169-.839 1.694-1.593 1.694m15.105 16.51v1.344h-4.408v-1.344c.409-.326 1.26-.539 2.205-.539s1.795.213 2.203.539m-3.217-8.215h2.027l.002 6.75c-.319-.049-.659-.074-1.016-.074-.354 0-.692.025-1.01.072l-.003-6.748m10.285 8.215v1.344h-4.408v-1.344c.407-.326 1.256-.539 2.202-.539.945 0 1.796.213 2.206.539m-3.217-8.215h2.025v6.748c-.318-.047-.658-.072-1.014-.072-.353 0-.689.025-1.006.072l-.005-6.748m.251-24.072h-.497v.86c-.011.55-.986 1.163-2.373 1.163-1.358 0-2.372-.618-2.372-1.171v-.854h-.498c-3.78-.476-6.296-2.179-6.892-6.938-1.751-.126-2.266-1.316-2.266-2.77 0-3.804 2.703-1.875 2.703-1.875s5.553-5.822 16.503-5.822c0 0 2.345.443 2.15 5.822 0 0 2.699-1.93 2.699 1.875 0 1.453-.518 2.644-2.26 2.77-.596 4.761-3.111 6.464-6.897 6.94m10.168 17.574c-.035.105-.148.186-.43.307-.184.078-.334.131-.467.131-.363 0-.843-.473-1.426-1.405l1.762-.759c.602 1.129.614 1.564.561 1.726"/><circle cx="43.124" cy="17.128" r="1.89"/><circle cx="52.359" cy="17.128" r="1.888"/><path d="m50.758 22.874c-1.943 1.512-4.102 1.502-6.035 0-.232-.18-.443.133-.282.424.588 1.078 1.778 2.041 3.3 2.041 1.523 0 2.715-.963 3.305-2.041.155-.291-.054-.604-.288-.424"/><circle cx="11.387" cy="17.128" r="1.889"/><circle cx="20.623" cy="17.128" r="1.888"/><path d="m19.309 23.298c.156-.291-.054-.604-.288-.424-1.942 1.512-4.102 1.502-6.035 0-.232-.18-.442.133-.282.424.588 1.078 1.779 2.041 3.301 2.041 1.522 0 2.714-.963 3.304-2.041"/></svg>