<svg xmlns="http://www.w3.org/2000/svg" viewBox="0 0 64 64" enable-background="new 0 0 64 64"><path d="m31.997 26c1.201-1.082 17.977-9.818 14.539-18.92-3.195-8.459-13.578-4.664-14.539-.439-1.32-4.502-11.443-7.859-14.533.443-3.44 9.252 13.334 17.557 14.533 18.916"/><path d="m22.31 42.559c1.244 0 2.25-1.008 2.25-2.25 0-1.246-1.006-2.25-2.25-2.25s-2.25 1.004-2.25 2.25c0 1.242 1.005 2.25 2.25 2.25"/><path d="m20.836 47.656c.186-.346-.061-.719-.331-.506-1.126.9-2.315 1.346-3.505 1.346s-2.379-.445-3.505-1.346c-.271-.213-.517.16-.331.506.684 1.285 2.066 2.43 3.836 2.43s3.152-1.145 3.836-2.43"/><path d="m13.94 40.309c0-1.246-1.006-2.25-2.25-2.25s-2.25 1.004-2.25 2.25c0 1.242 1.006 2.25 2.25 2.25s2.25-1.008 2.25-2.25"/><path d="m52.31 42.559c1.244 0 2.25-1.008 2.25-2.25 0-1.246-1.006-2.25-2.25-2.25s-2.25 1.004-2.25 2.25c0 1.242 1.005 2.25 2.25 2.25"/><path d="m54.508 50.947c2.281-1.771 4.195-4.184 4.68-7.008 1.361-.216 2.812-1.107 2.812-3.921 0-2.482-.891-3.221-1.645-3.406-.079-10.171-2.5-14.507-13.355-14.612-10.855.105-13.276 4.441-13.355 14.611-.754.186-1.645.924-1.645 3.407 0 2.814 1.451 3.705 2.813 3.922.484 2.824 2.398 5.236 4.68 7.008-4.287.644-7.493 1.919-7.493 3.827 0-1.908-3.206-3.184-7.492-3.828 2.281-1.771 4.195-4.184 4.68-7.008 1.361-.216 2.812-1.107 2.812-3.921 0-2.482-.891-3.221-1.645-3.406-.079-10.171-2.5-14.507-13.355-14.612-10.855.105-13.276 4.441-13.355 14.611-.754.186-1.645.924-1.645 3.407 0 2.814 1.451 3.705 2.813 3.922.484 2.824 2.398 5.236 4.68 7.008-4.287.644-7.493 1.919-7.493 3.827v7.225h30 30v-7.225c0-1.908-3.206-3.183-7.492-3.828m-48.815-7.525l-.049-.406-.387-.029c-1.577-.121-2.313-1.064-2.313-2.969 0-1.74.449-2.549 1.307-2.453.104.605.221 1.027.364 1.314.351.697 1.013 1.078 1.088 1.119l.818.453-.132-.967c-.002-.012-.154-1.158-.098-2.736.319-5.021.631-5.695 1.696-5.695.485 0 1.148.139 1.991.314 1.618.336 3.832.795 7.02.807 3.188-.012 5.401-.471 7.02-.807.843-.176 1.506-.314 1.991-.314 1.065 0 1.377.674 1.696 5.695.057 1.578-.096 2.725-.098 2.736l-.132.967.818-.453c.075-.041.737-.422 1.088-1.119.144-.287.261-.709.364-1.314.857-.096 1.307.713 1.307 2.453 0 1.904-.735 2.848-2.313 2.969l-.387.029-.049.406c-.722 5.867-8.199 9.611-11.307 9.697-3.103-.086-10.581-3.83-11.303-9.697m25.807 17.578h-28.524v-6.225c0-1.174 2.938-2.402 7.7-2.982 2.226 1.449 4.618 2.291 6.324 2.326 1.706-.035 4.099-.877 6.324-2.326 4.761.58 8.176 1.993 8.176 3.592v5.615m4.193-17.578l-.049-.406-.387-.029c-1.577-.121-2.313-1.064-2.313-2.969 0-1.74.449-2.549 1.307-2.453.104.605.221 1.027.364 1.314.351.697 1.013 1.078 1.088 1.119l.818.453-.132-.967c-.002-.012-.154-1.158-.098-2.736.319-5.021.631-5.695 1.696-5.695.485 0 1.148.139 1.991.314 1.618.336 3.832.795 7.02.807 3.188-.012 5.401-.471 7.02-.807.843-.176 1.506-.314 1.991-.314 1.065 0 1.377.674 1.696 5.695.057 1.578-.096 2.725-.098 2.736l-.132.967.818-.453c.075-.041.737-.422 1.088-1.119.144-.287.261-.709.364-1.314.857-.096 1.307.713 1.307 2.453 0 1.904-.735 2.848-2.313 2.969l-.387.029-.049.406c-.722 5.867-8.199 9.611-11.307 9.697-3.103-.086-10.581-3.83-11.303-9.697m25.331 17.578h-28.524v-5.615c0-1.599 3.415-3.012 8.176-3.592 2.226 1.449 4.618 2.291 6.324 2.326 1.706-.035 4.099-.877 6.324-2.326 4.762.58 7.7 1.809 7.7 2.982v6.225"/><path d="m50.836 47.656c.186-.346-.061-.719-.331-.506-1.126.9-2.315 1.346-3.505 1.346s-2.379-.445-3.505-1.346c-.271-.213-.517.16-.331.506.684 1.285 2.066 2.43 3.836 2.43s3.152-1.145 3.836-2.43"/><path d="m43.94 40.309c0-1.246-1.006-2.25-2.25-2.25s-2.25 1.004-2.25 2.25c0 1.242 1.006 2.25 2.25 2.25s2.25-1.008 2.25-2.25"/></svg>