<svg xmlns="http://www.w3.org/2000/svg" viewBox="0 0 64 64" enable-background="new 0 0 64 64"><path d="m54.509 30.995c2.29-1.775 4.217-4.207 4.7-7.055 1.353-.221 2.791-1.115 2.791-3.921 0-2.482-.894-3.223-1.646-3.405-.079-10.17-2.48-14.507-13.239-14.612-10.853-.107-13.71 4.417-13.813 14.735-.656.321-1.302 1.17-1.302 3.282 0 2.807 1.437 3.701 2.789 3.921.478 2.816 2.366 5.221 4.621 6.992-4.482.608-7.41 1.44-7.41 3.841 0-2.402-2.928-3.234-7.41-3.841 2.255-1.771 4.144-4.176 4.621-6.992 1.352-.221 2.789-1.115 2.789-3.921 0-2.111-.646-2.961-1.302-3.281-.103-10.319-2.961-14.843-13.813-14.736-10.759.105-13.16 4.442-13.239 14.611-.752.183-1.646.923-1.646 3.406 0 2.807 1.438 3.701 2.791 3.921.483 2.848 2.41 5.279 4.7 7.055-4.308.66-7.491 1.918-7.491 3.778v27.227h60v-27.227c0-1.86-3.183-3.118-7.491-3.778m-18.817-7.57l-.049-.405-.396-.031c-1.556-.119-2.28-1.063-2.28-2.97 0-1.633.38-2.46 1.129-2.46.045 0 .09.002.137.007.098.594.215 1.024.357 1.311.348.698 1.007 1.08 1.082 1.122l.837.467-.128-.975c-.002-.012-.15-1.167-.097-2.739.318-5.024.624-5.695 1.668-5.695.478 0 1.134.139 1.966.313 1.627.341 3.854.809 7.081.809s5.454-.468 7.08-.809c.832-.175 1.489-.313 1.967-.313 1.044 0 1.349.672 1.667 5.693.055 1.58-.096 2.729-.098 2.74l-.131.979.841-.471c.074-.041.73-.423 1.081-1.122.141-.283.258-.714.357-1.31.851-.092 1.268.724 1.268 2.453 0 1.906-.725 2.851-2.282 2.97l-.396.031-.049.405c-.722 5.937-8.3 9.702-11.306 9.702-3.005 0-10.584-3.765-11.306-9.702m-13.539 28.059c-.886 0-1.123-.791-1.123-1.258s.237-1.26 1.123-1.26h.455l.451-4.975c0-.623.195-.939 1.266-.939.715 0 1.651.156 2.736.338 1.482.246 3.163.525 4.939.525s3.457-.279 4.94-.525c1.085-.182 2.022-.338 2.739-.338 1.07 0 1.267.316 1.268.984l.445 4.93h.456c.886 0 1.123.793 1.123 1.26s-.237 1.258-1.123 1.258h-.5v.5c0 3.975-5.537 6.51-9.349 6.51s-9.349-2.535-9.349-6.51v-.5h-.497m-16.459-28.059l-.048-.405-.396-.032c-1.558-.119-2.282-1.063-2.282-2.97 0-1.729.417-2.545 1.268-2.453.1.596.217 1.026.357 1.31.351.699 1.007 1.081 1.081 1.122l.841.471-.131-.979c-.002-.012-.152-1.16-.098-2.74.318-5.021.623-5.693 1.667-5.693.478 0 1.135.139 1.967.313 1.626.341 3.853.809 7.08.809s5.454-.468 7.081-.809c.832-.175 1.488-.313 1.966-.313 1.044 0 1.35.671 1.668 5.695.054 1.572-.095 2.728-.097 2.739l-.128.975.837-.467c.075-.042.734-.424 1.082-1.122.143-.286.26-.717.357-1.311.047-.005.092-.007.137-.007.749 0 1.129.827 1.129 2.46 0 1.906-.725 2.851-2.28 2.97l-.396.031-.049.405c-.722 5.937-8.301 9.702-11.308 9.702-3.005.001-10.583-3.764-11.305-9.701m-2.677 37.575v-26.227c0-1.143 2.905-2.341 7.65-2.937 2.242 1.455 4.648 2.291 6.333 2.291 1.702 0 4.143-.855 6.405-2.339 4.994.57 8.078 1.734 8.078 3.212v1.018c-6.421.191-10.357 3.885-10.357 8.457v3.154c0 .207.012.4.029.584-.736.391-1.123 1.203-1.123 2.014 0 .984.562 1.98 1.642 2.209.153 1.795 1.218 3.297 2.7 4.451-2.442.885-4.253 2.252-4.735 4.113h-16.622m17.649 0c.54-1.555 2.345-2.695 4.706-3.416 2.021 1.23 4.525 1.91 6.629 1.91 2.102 0 4.605-.678 6.623-1.906 2.36.721 4.17 1.859 4.71 3.412h-22.668m40.317 0h-16.622c-.481-1.861-2.289-3.232-4.729-4.115 1.479-1.154 2.543-2.656 2.696-4.449 1.08-.229 1.643-1.225 1.643-2.209 0-.809-.386-1.617-1.116-2.01.017-.184.025-.379.025-.588 0-1.746 0-3.154 0-3.154 0-4.568-4.142-8.26-10.363-8.457v-1.018c0-1.479 3.084-2.642 8.078-3.212 2.263 1.484 4.703 2.339 6.405 2.339 1.685 0 4.091-.836 6.333-2.291 4.745.596 7.65 1.794 7.65 2.937v26.227"/><circle cx="41.5" cy="20.308" r="2.25"/><circle cx="52.5" cy="20.308" r="2.25"/><path d="m50.934 27.655c.188-.346-.063-.719-.34-.504-2.316 1.801-4.887 1.789-7.189 0-.277-.215-.527.158-.34.504.703 1.285 2.121 2.434 3.934 2.434 1.814-.001 3.231-1.149 3.935-2.434"/><circle cx="22.498" cy="20.308" r="2.25"/><circle cx="11.5" cy="20.308" r="2.25"/><path d="m20.936 27.655c.188-.346-.063-.719-.34-.504-2.303 1.789-4.873 1.801-7.189 0-.277-.215-.527.158-.34.504.703 1.285 2.121 2.434 3.936 2.434 1.811-.001 3.229-1.149 3.933-2.434"/><circle cx="27.228" cy="49.796" r="1.749"/><circle cx="36.774" cy="49.796" r="1.749"/><path d="m28.566 54.783c.614 1.07 1.851 2.027 3.435 2.027s2.82-.957 3.436-2.027c.163-.289-.055-.6-.297-.42-2.011 1.49-4.255 1.5-6.275 0-.245-.179-.462.131-.299.42"/></svg>