<svg xmlns="http://www.w3.org/2000/svg" viewBox="0 0 64 64" enable-background="new 0 0 64 64"><circle cx="11.633" cy="20.309" r="2.25"/><circle cx="22.369" cy="20.309" r="2.25"/><path d="m13.066 27.656c.704 1.285 2.122 2.434 3.934 2.434 1.814 0 3.232-1.148 3.936-2.434.188-.346-.063-.719-.34-.504-2.316 1.801-4.887 1.789-7.189 0-.28-.214-.53.159-.341.504"/><path d="m46.998 2c-6.267 0-6.877 2.506-6.877 2.506s-8.121-.233-8.121 12.166c0-12.398-8.121-12.166-8.121-12.166s-.61-2.506-6.877-2.506c-9.706 0-15.002 6.332-15.002 14.672v45.328h60v-45.328c0-8.34-5.296-14.672-15.002-14.672m-11.444 15.205c3.225-.826 6.391-5.908 7.351-7.57 2.037 1.563 10.16 7.518 15.604 7.578.235.092 1.265.609 1.265 2.563 0 2.84-1.783 3.365-1.858 3.385l-.367.102-.005.383c0 4.703-6.764 9.484-10.543 9.484-3.82 0-10.429-4.689-10.457-9.488l-.002-.389-.379-.094c-.074-.02-1.934-.545-1.934-3.383-.001-2.301 1.312-2.569 1.325-2.571m-3.696 20.627c6.441 0 10.409 3.186 10.409 7.145v1.184c0-3.961-3.968-7.146-10.409-7.146-6.228 0-10.407 3.186-10.407 7.146 0-.715 0-1.184 0-1.184 0-3.959 4.18-7.145 10.407-7.145m-26.366-20.619c5.443-.061 13.566-6.016 15.604-7.578.96 1.662 4.126 6.744 7.351 7.57.013.002 1.326.27 1.326 2.57 0 2.838-1.859 3.363-1.934 3.383l-.379.094-.002.389c-.028 4.799-6.637 9.488-10.457 9.488-3.779 0-10.543-4.781-10.543-9.484l-.005-.383-.367-.102c-.075-.02-1.858-.545-1.858-3.385 0-1.953 1.029-2.47 1.264-2.562m14.553 42.035c.049.088.148.199.279.318-.321.439-.547.92-.683 1.434h-16.624v-26.225c0-1.154 2.97-2.363 7.8-2.953 2.073 1.42 4.376 2.307 6.185 2.307 1.81 0 4.127-.908 6.204-2.361 5.111.566 8.278 1.816 8.278 3.008v1.24c-6.721.156-11.207 4.471-11.207 9.822 0 .629 0 2.35 0 3.746-.392.313-.657.801-.657 1.518 0 .994.396 1.584.928 1.896-.985 1.887-1.508 4.482-.503 6.25m1.705-9.129l.262.02.139-.08c.039-.021 3.537-2.082 3.665-6.361 3.898 3.66 13.267 4.5 15.521 4.65v1.279l.065.498h.499c.447 0 1.197.127 1.197.977 0 .805-.312 1.18-.983 1.18-.103 0-.175-.012-.186-.014l-.593-.113v.604c0 3.23-4.983 5.736-9.27 5.736-4.517 0-9.666-3.055-9.666-5.736l-.004-.592-.584.102c-.015.002-.089.014-.194.014-.683 0-1.001-.375-1.001-1.18.001-.654.381-.984 1.133-.984m-1.083 10.883c.53-1.527 2.286-2.652 4.585-3.375 1.953 1.121 4.415 1.867 6.815 1.867 2.361 0 4.854-.686 6.796-1.832 2.242.723 3.947 1.838 4.47 3.34h-22.666m40.316-.002h-16.623c-.137-.52-.363-1.006-.69-1.447.123-.115.219-.221.266-.305 1.027-1.809.456-4.486-.57-6.381.428-.336.732-.895.732-1.766 0-.684-.264-1.154-.653-1.467v-3.797c0-5.281-4.151-9.549-10.928-9.813v-1.25c0-1.191 3.167-2.441 8.278-3.008 2.077 1.453 4.395 2.361 6.204 2.361 1.809 0 4.111-.887 6.185-2.307 4.83.59 7.8 1.799 7.8 2.953v26.227z"/><circle cx="52.367" cy="20.309" r="2.25"/><circle cx="41.631" cy="20.309" r="2.25"/><path d="m43.064 27.656c.703 1.285 2.121 2.434 3.936 2.434 1.813 0 3.23-1.148 3.934-2.434.189-.346-.061-.719-.34-.504-2.303 1.789-4.873 1.801-7.189 0-.278-.214-.528.159-.341.504"/><circle cx="36.562" cy="49.797" r="1.75"/><circle cx="27.415" cy="49.797" r="1.75"/><path d="m28.549 54.783c.615 1.072 1.854 2.027 3.44 2.027 1.589 0 2.825-.955 3.44-2.027.164-.285-.055-.596-.297-.418-2.025 1.5-4.271 1.49-6.287 0-.241-.177-.46.133-.296.418"/></svg>