<svg xmlns="http://www.w3.org/2000/svg" viewBox="0 0 64 64" enable-background="new 0 0 64 64"><path d="m54.509 30.996c2.29-1.777 4.217-4.207 4.7-7.057 1.353-.219 2.791-1.113 2.791-3.92 0-2.482-.894-3.223-1.646-3.405-.079-10.169-2.48-14.506-13.239-14.612-10.853-.107-13.71 4.417-13.813 14.735-.656.321-1.302 1.171-1.302 3.282 0 2.807 1.437 3.701 2.789 3.92.478 2.816 2.366 5.223 4.621 6.994-4.482.608-7.41 1.44-7.41 3.842 0-2.402-2.928-3.234-7.41-3.842 2.255-1.771 4.144-4.178 4.621-6.994 1.352-.219 2.789-1.113 2.789-3.92 0-2.111-.646-2.961-1.302-3.281-.103-10.319-2.961-14.843-13.813-14.736-10.759.106-13.16 4.443-13.239 14.612-.752.182-1.646.923-1.646 3.405 0 2.807 1.438 3.701 2.791 3.92.483 2.85 2.41 5.279 4.7 7.057-4.308.658-7.491 1.918-7.491 3.779v27.225h60v-27.225c0-1.861-3.183-3.121-7.491-3.779m-45.259 19.123l.262.02.139-.08c.039-.021 3.537-2.082 3.665-6.361 3.898 3.66 13.267 4.5 15.521 4.65v1.279l.065.498h.499c.447 0 1.197.127 1.197.977 0 .805-.312 1.18-.983 1.18-.103 0-.175-.012-.186-.014l-.593-.113v.604c0 3.23-4.983 5.736-9.27 5.736-4.517 0-9.666-3.055-9.666-5.736l-.004-.592-.584.102c-.015.002-.089.014-.194.014-.683 0-1.001-.375-1.001-1.18.001-.654.381-.984 1.133-.984m-.299-3.959c0-.715 0-1.184 0-1.184 0-3.959 4.18-7.145 10.407-7.145 6.441 0 10.409 3.186 10.409 7.145v1.184c0-3.961-3.968-7.146-10.409-7.146-6.227 0-10.407 3.185-10.407 7.146m3.801 11.467c1.953 1.121 4.415 1.867 6.815 1.867 2.361 0 4.854-.686 6.796-1.832 2.241.723 3.946 1.838 4.47 3.338h-22.666c.531-1.525 2.287-2.65 4.585-3.373m18.731-3.344c-.174-.5-.382-.98-.618-1.416.278-.219.494-.545.618-.977v2.393m-25.789-30.858l-.048-.405-.396-.031c-1.558-.119-2.282-1.063-2.282-2.97 0-1.729.417-2.545 1.268-2.453.1.596.217 1.026.357 1.31.351.699 1.007 1.081 1.081 1.122l.841.471-.131-.979c-.002-.012-.152-1.16-.098-2.74.318-5.021.623-5.693 1.667-5.693.478 0 1.135.139 1.967.313 1.626.341 3.853.809 7.08.809s5.454-.468 7.081-.809c.832-.175 1.488-.313 1.966-.313 1.044 0 1.35.671 1.668 5.695.054 1.572-.095 2.728-.097 2.739l-.128.975.837-.467c.075-.042.734-.424 1.082-1.122.143-.286.26-.717.357-1.311.047-.005.092-.007.137-.007.749 0 1.129.827 1.129 2.46 0 1.906-.725 2.851-2.28 2.97l-.396.031-.049.405c-.722 5.938-8.301 9.704-11.308 9.704-3.005 0-10.583-3.766-11.305-9.704m-2.677 37.575v-26.225c0-1.143 2.905-2.342 7.65-2.938 2.242 1.455 4.648 2.291 6.333 2.291 1.702 0 4.143-.855 6.405-2.34 4.994.568 8.078 1.734 8.078 3.213v15.426c-.111-.332-.296-.598-.539-.793v-3.797c0-5.451-4.416-9.838-11.586-9.838-6.932 0-11.582 4.387-11.582 9.838 0 .629 0 2.35 0 3.746-.392.313-.657.801-.657 1.518 0 .994.396 1.584.928 1.896-.983 1.887-1.507 4.482-.502 6.25.049.088.148.199.279.318-.321.441-.547.921-.682 1.435h-4.125m32.675-37.575l-.049-.405-.396-.031c-1.556-.119-2.28-1.063-2.28-2.97 0-1.633.38-2.46 1.129-2.46.045 0 .09.002.137.007.098.594.215 1.024.357 1.311.348.698 1.007 1.08 1.082 1.122l.837.467-.128-.975c-.002-.012-.15-1.167-.097-2.739.318-5.024.624-5.695 1.668-5.695.478 0 1.134.139 1.966.313 1.627.341 3.854.809 7.081.809s5.454-.468 7.08-.809c.832-.175 1.489-.313 1.967-.313 1.044 0 1.349.672 1.667 5.693.055 1.58-.096 2.729-.098 2.74l-.131.979.841-.471c.074-.041.73-.423 1.081-1.122.141-.283.258-.714.357-1.31.851-.092 1.268.724 1.268 2.453 0 1.906-.725 2.851-2.282 2.97l-.396.031-.049.405c-.722 5.938-8.3 9.704-11.306 9.704-3.005 0-10.584-3.766-11.306-9.704m-1.039 28.061c-.886 0-1.123-.791-1.123-1.26 0-.467.237-1.258 1.123-1.258h.455l.451-4.977c0-.621.195-.938 1.266-.938.715 0 1.651.156 2.736.336 1.482.246 3.163.525 4.939.525s3.457-.279 4.94-.525c1.085-.18 2.022-.336 2.739-.336 1.07 0 1.267.316 1.268.982l.445 4.932h.456c.886 0 1.123.791 1.123 1.258 0 .469-.237 1.26-1.123 1.26h-.5v.5c0 3.973-5.537 6.508-9.349 6.508s-9.349-2.535-9.349-6.508v-.5h-.497zm9.848 8.008c2.102 0 4.605-.676 6.623-1.904 2.359.719 4.169 1.857 4.709 3.41h-22.666c.54-1.553 2.344-2.693 4.705-3.416 2.021 1.232 4.525 1.91 6.629 1.91m16.482 1.506h-4.122c-.481-1.859-2.289-3.23-4.729-4.113 1.479-1.156 2.543-2.656 2.696-4.449 1.08-.229 1.643-1.225 1.643-2.211 0-.807-.386-1.615-1.116-2.008.017-.186.025-.381.025-.59 0-1.744 0-3.154 0-3.154 0-4.693-4.367-8.475-10.879-8.475-6.73 0-10.875 3.781-10.875 8.475v3.154c0 .209.012.402.029.586-.736.391-1.123 1.201-1.123 2.012 0 .986.562 1.982 1.642 2.211.153 1.793 1.218 3.295 2.7 4.451-2.016.729-3.591 1.793-4.357 3.186v-25.073c0-1.479 3.084-2.645 8.078-3.213 2.263 1.484 4.703 2.34 6.405 2.34 1.685 0 4.091-.836 6.333-2.291 4.745.596 7.65 1.795 7.65 2.938v26.224"/><circle cx="41.5" cy="20.308" r="2.25"/><circle cx="52.5" cy="20.308" r="2.25"/><path d="m50.934 27.656c.188-.346-.063-.719-.34-.504-2.316 1.801-4.887 1.789-7.189 0-.277-.215-.527.158-.34.504.703 1.285 2.121 2.434 3.934 2.434 1.814 0 3.231-1.149 3.935-2.434"/><circle cx="22.498" cy="20.308" r="2.25"/><circle cx="11.5" cy="20.308" r="2.25"/><path d="m20.936 27.656c.188-.346-.063-.719-.34-.504-2.303 1.789-4.873 1.801-7.189 0-.277-.215-.527.158-.34.504.703 1.285 2.121 2.434 3.936 2.434 1.811 0 3.229-1.149 3.933-2.434"/><circle cx="39.728" cy="49.797" r="1.75"/><circle cx="49.274" cy="49.797" r="1.75"/><path d="m41.066 54.785c.614 1.068 1.851 2.025 3.435 2.025s2.82-.957 3.436-2.025c.163-.289-.055-.6-.297-.42-2.011 1.488-4.255 1.498-6.275 0-.245-.179-.462.131-.299.42"/><circle cx="24.062" cy="49.797" r="1.75"/><circle cx="14.915" cy="49.797" r="1.75"/><path d="m16.049 54.783c.615 1.072 1.854 2.027 3.44 2.027 1.589 0 2.825-.955 3.44-2.027.164-.285-.055-.596-.297-.418-2.025 1.5-4.271 1.49-6.287 0-.241-.177-.46.133-.296.418"/></svg>