<svg xmlns="http://www.w3.org/2000/svg" viewBox="0 0 64 64" enable-background="new 0 0 64 64"><path d="M44.84,6.532C44.84,6.532,43.699,2,32,2C13.889,2,4,13.45,4,28.529V62h28c-8.088,0-21.633-11.662-21.633-21.332
		c0,0-4.367-1.107-4.367-7.516c0-5.074,3.293-5.945,3.293-5.945C21.096,27.207,43,12,43,12s4.59,13.426,11.604,15.207
		c0,0,3.396,0.621,3.396,5.945c0,6.408-4.531,7.516-4.531,7.516C53.408,50.338,40.092,62,32,62h28V28.529
		C60,6.115,44.84,6.532,44.84,6.532z"/><path d="m32 47c4.18-.002 6.27-3 4.18-3s-6.27 0-8.361 0c-2.09 0-.001 3 4.181 3"/><path d="m48.5 33.5c0-1.131-.432-2.152-1.121-2.941.768.111 1.525.24 2.264.334.629.184 1.252.381 1.852.611.105.357.102.875-.01 1.375-.129.615-.342 1.246-.596 1.861-.266.611-.549 1.227-.889 1.811-.168.295-.34.586-.535.863-.199.27-.383.574-.686.738.678-.229 1.148-.814 1.621-1.316.455-.535.879-1.102 1.24-1.713s.697-1.248.916-1.963c.18-.645.379-1.383.105-2.221.861-.146 1.652-.479 2.338-1.123-4.5 1.955-15.75-7.181-18 6.521.797-2.023 1.738-3.393 2.768-4.313-.162.464-.267.956-.267 1.476 0 2.484 2.018 4.5 4.5 4.5 2.486 0 4.5-2.016 4.5-4.5"/><path d="m24.5 33.5c0-.52-.105-1.012-.27-1.475 1.031.92 1.971 2.289 2.77 4.313-2.25-13.703-13.5-4.566-18-6.521.686.645 1.477.977 2.338 1.123-.275.838-.074 1.576.105 2.221.219.715.553 1.352.914 1.963.363.611.785 1.178 1.24 1.713.475.502.945 1.088 1.623 1.316-.305-.164-.486-.469-.686-.738-.195-.277-.369-.568-.535-.863-.34-.584-.625-1.199-.889-1.811-.254-.615-.467-1.246-.598-1.861-.109-.5-.115-1.018-.008-1.375.594-.229 1.211-.428 1.834-.607.742-.096 1.508-.225 2.279-.338-.685.788-1.117 1.809-1.117 2.94 0 2.484 2.012 4.5 4.5 4.5 2.482 0 4.5-2.016 4.5-4.5"/><path d="m35.945 50.115c-2.945-1.115-3.945.656-3.945.656s-1-1.771-3.945-.656c-2.301.871-6.068.355-6.055.359 6 8.525 14 8.525 20 0 .014-.003-3.754.512-6.055-.359"/></svg>