<svg xmlns="http://www.w3.org/2000/svg" viewBox="0 0 64 64" enable-background="new 0 0 64 64"><path d="m24.999 38.35c0-.553-.113-1.074-.295-1.563 1.03.748 1.859 1.754 2.295 3.061 0-7.998-13.998-7.998-13.998-.998.652-1.631 2.162-2.721 3.962-3.252-.594.762-.962 1.709-.962 2.752 0 2.484 2.012 4.498 4.498 4.498 2.484 0 4.5-2.014 4.5-4.498"/><path d="m36.999 39.848c.436-1.307 1.265-2.313 2.295-3.061-.182.488-.295 1.01-.295 1.563 0 2.484 2.016 4.498 4.5 4.498 2.486 0 4.5-2.014 4.5-4.498 0-1.043-.368-1.99-.963-2.752 1.801.531 3.311 1.619 3.963 3.252 0-7-14-7-14 .998"/><path d="m40.099 49.5c-4.051 0-12.148 0-16.199 0-.9 0-.9.857-.9.857 0 3.43 4.5 5.143 9 5.143s9-1.713 9-5.143c-.001 0-.001-.857-.901-.857"/><path d="m58.481 36.162l.52-9.306c0-1.171-.275-2.207-.766-3.139.444-.375.7-.765.754-1.162.015-.023.019-.039.019-.039s2.406-4.945-.273-7.696c-2.518-2.584-8.771-3.055-12.061-4.453-4.089-1.737-10.275-8.367-14.701-8.367s-10.612 6.63-14.7 8.366c-3.277 1.393-9.499 1.879-12.007 4.453-2.68 2.751-.271 7.696-.271 7.696s.004.016.019.039c.046.345.243.684.585 1.012-.39.952-.599 2.038-.599 3.29 0 .5.284 5.488.508 9.332-.014.006-.026.012-.039.02-1.127.69-2.47 2.146-2.469 5.136 0 3.912 2.294 5.412 4.063 5.795 1.206 8.254 19.02 14.861 24.936 14.861s23.73-6.607 24.937-14.859c1.762-.381 4.064-1.881 4.064-5.797 0-2.819-1.192-4.383-2.519-5.182m-29.159-25.997c1.587-.677 2.678-3.382 2.678-3.382s1.089 2.705 2.678 3.382c1.345.572 4.415-2.037 4.415-2.037s-.266 6.602-.818 7.971c-1.443 3.569-6.275 5.664-6.275 5.664s-4.838-2.099-6.272-5.664c-.555-1.371-.818-7.971-.818-7.971s3.091 2.6 4.412 2.037m26.678 35.112h-1v.984c0 6.922-16.912 13.771-23.001 13.771s-22.999-6.848-23.001-13.77l-.01-.977-.992-.008c-.307-.002-2.996-.131-2.996-3.933-.002-3.771 2.699-3.928 2.998-3.934h.39l.287-.26c1.587-1.436 1.49-3.348 1.388-5.371-.085-1.666-.174-3.637.523-5.984.896.242 1.885.47 2.957.679 5.141 3.817 13.126 7.295 25.036 6.875l3.151-.109-2.304-1.482c2.627-.008 4.965-.385 6.951-1.121l1.973-.729-.612-.35c2.068-.01 3.736-.168 5.036-.48-.398 2.49-.548 6.832 2.833 8.251l.188.08h.205c.122 0 3 .045 3 3.934 0 3.772-2.701 3.928-3 3.934"/></svg>