<svg xmlns="http://www.w3.org/2000/svg" viewBox="0 0 64 64" enable-background="new 0 0 64 64"><circle cx="11.633" cy="20.308" r="2.249"/><circle cx="22.369" cy="20.308" r="2.249"/><path d="m13.066 27.654c.703 1.285 2.121 2.434 3.934 2.434 1.814 0 3.232-1.148 3.936-2.434.188-.346-.063-.719-.34-.504-2.316 1.801-4.887 1.789-7.189 0-.28-.214-.53.159-.341.504"/><path d="m46.998 2c-6.267 0-6.877 2.506-6.877 2.506s-8.121-.233-8.121 12.166c0-12.398-8.121-12.166-8.121-12.166s-.61-2.506-6.877-2.506c-9.706 0-15.002 6.332-15.002 14.672v45.328h60v-45.328c0-8.34-5.296-14.672-15.002-14.672m-41.506 15.213c5.443-.061 13.566-6.018 15.604-7.578.96 1.66 4.126 6.744 7.351 7.57.013.002 1.326.27 1.326 2.568 0 2.84-1.859 3.363-1.934 3.385l-.379.092-.002.391c-.028 4.799-6.637 9.486-10.457 9.486-3.779 0-10.543-4.779-10.543-9.484l-.005-.381-.367-.102c-.075-.021-1.858-.547-1.858-3.387 0-1.951 1.029-2.468 1.264-2.56m4.161 34.271c-.886 0-1.123-.791-1.123-1.258s.237-1.26 1.123-1.26h.455l.451-4.975c0-.623.195-.939 1.266-.939.715 0 1.651.156 2.736.338 1.482.246 3.163.525 4.939.525s3.457-.279 4.94-.525c1.085-.182 2.022-.338 2.739-.338 1.07 0 1.267.316 1.268.984l.445 4.93h.456c.886 0 1.123.793 1.123 1.26s-.237 1.258-1.123 1.258h-.5v.5c0 3.975-5.537 6.51-9.349 6.51s-9.349-2.535-9.349-6.51v-.5h-.497m9.848 8.01c2.102 0 4.605-.678 6.623-1.906 2.36.721 4.169 1.859 4.71 3.412h-22.668c.541-1.555 2.346-2.695 4.706-3.416 2.021 1.23 4.525 1.91 6.629 1.91m7.631-2.609c1.479-1.154 2.543-2.656 2.696-4.449 1.08-.229 1.643-1.225 1.643-2.209 0-.809-.386-1.617-1.116-2.01.017-.184.025-.379.025-.588 0-1.746 0-3.154 0-3.154 0-4.695-4.367-8.475-10.879-8.475-6.73 0-10.875 3.779-10.875 8.475v3.154c0 .207.012.4.029.584-.736.391-1.123 1.203-1.123 2.014 0 .984.562 1.98 1.642 2.209.153 1.795 1.218 3.297 2.7 4.451-2.442.884-4.253 2.252-4.735 4.113h-4.122v-26.227c0-1.154 2.97-2.361 7.8-2.951 2.073 1.418 4.376 2.305 6.185 2.305 1.81 0 4.127-.906 6.204-2.359 5.111.566 8.278 1.814 8.278 3.006v25.296c-.766-1.392-2.339-2.457-4.352-3.185m8.422-39.68c3.225-.826 6.391-5.91 7.351-7.57 2.037 1.561 10.16 7.518 15.604 7.578.235.092 1.265.609 1.265 2.561 0 2.84-1.783 3.365-1.858 3.387l-.367.102-.005.381c0 4.705-6.764 9.484-10.543 9.484-3.82 0-10.429-4.688-10.457-9.486l-.004-.392-.379-.092c-.074-.021-1.934-.545-1.934-3.385.001-2.298 1.314-2.566 1.327-2.568m-.901 34.279c-.886 0-1.123-.791-1.123-1.258s.237-1.26 1.123-1.26h.455l.451-4.975c0-.623.195-.939 1.266-.939.715 0 1.651.156 2.736.338 1.482.246 3.163.525 4.939.525s3.457-.279 4.94-.525c1.085-.182 2.022-.338 2.739-.338 1.07 0 1.267.316 1.268.984l.445 4.93h.456c.886 0 1.123.793 1.123 1.26s-.237 1.258-1.123 1.258h-.5v.5c0 3.975-5.537 6.51-9.349 6.51s-9.349-2.535-9.349-6.51v-.5h-.497m9.848 8.01c2.102 0 4.605-.678 6.623-1.906 2.36.721 4.169 1.859 4.71 3.412h-22.668c.541-1.555 2.346-2.695 4.706-3.416 2.021 1.23 4.525 1.91 6.629 1.91m16.482 1.506h-4.122c-.481-1.861-2.289-3.232-4.729-4.115 1.479-1.154 2.543-2.656 2.696-4.449 1.08-.229 1.643-1.225 1.643-2.209 0-.809-.386-1.617-1.116-2.01.017-.184.025-.379.025-.588 0-1.746 0-3.154 0-3.154 0-4.695-4.367-8.475-10.879-8.475-6.73 0-10.875 3.779-10.875 8.475v3.154c0 .207.012.4.029.584-.736.391-1.123 1.203-1.123 2.014 0 .984.562 1.98 1.642 2.209.153 1.795 1.218 3.297 2.7 4.451-2.015.73-3.591 1.793-4.357 3.186v-25.3c0-1.191 3.167-2.439 8.278-3.006 2.077 1.453 4.395 2.359 6.204 2.359 1.809 0 4.111-.887 6.185-2.305 4.83.59 7.8 1.797 7.8 2.951v26.228z"/><circle cx="52.367" cy="20.308" r="2.249"/><circle cx="41.631" cy="20.308" r="2.249"/><path d="m43.064 27.654c.703 1.285 2.121 2.434 3.936 2.434 1.813 0 3.23-1.148 3.934-2.434.189-.346-.061-.719-.34-.504-2.303 1.789-4.873 1.801-7.189 0-.278-.214-.528.159-.341.504"/><circle cx="14.728" cy="49.796" r="1.749"/><circle cx="24.274" cy="49.796" r="1.749"/><path d="m16.066 54.783c.614 1.07 1.851 2.027 3.435 2.027s2.82-.957 3.436-2.027c.163-.289-.055-.6-.297-.42-2.011 1.49-4.255 1.5-6.275 0-.245-.179-.462.131-.299.42"/><circle cx="39.728" cy="49.796" r="1.749"/><circle cx="49.274" cy="49.796" r="1.749"/><path d="m41.066 54.783c.614 1.07 1.851 2.027 3.435 2.027s2.82-.957 3.436-2.027c.163-.289-.055-.6-.297-.42-2.011 1.49-4.255 1.5-6.275 0-.245-.179-.462.131-.299.42"/></svg>