<svg xmlns="http://www.w3.org/2000/svg" viewBox="0 0 64 64" enable-background="new 0 0 64 64"><path d="m60.669 56.129c-.346-.792-19.114-11.958-19.134-11.972-2.648-1.947-2.973-3.841-.836-4.929 1.833-.933 3.408-3.929 4.595-7.137.217.095.446.116.677.048 4.985-1.456 5.075-11.518 1.74-9.739 3.117-27.194-34.535-27.208-31.42.001-3.336-1.781-3.246 8.282 1.74 9.738.229.067.459.047.676-.047 1.186 3.207 2.76 6.203 4.592 7.136 2.154 1.095 1.729 2.896-.887 4.97-.871.691-13.025 7.465-16.453 9.758-.006.002-.018.01-.018.01h.002c-1.416.948-2.424 1.737-2.609 2.163-.979 2.254-1.334 5.871-1.334 5.871h60.001c0 0-.354-3.617-1.332-5.871"/></svg>