<svg xmlns="http://www.w3.org/2000/svg" viewBox="0 0 64 64" enable-background="new 0 0 64 64"><path d="m61.821 40.37c-.504-1.23-1.961-1.844-3.6-2.277-.334-1.197-1.283-2.596-1.557-2.942-2.956-3.744-7.95-5.979-13.358-5.979-2.173 0-4.333.358-6.424 1.051-2.574-1.862-5.314-4.153-8.368-7.002-5.203-4.859-11.469-7.221-19.154-7.221-6.052 0-7.181.159-7.342 1.269-.345 2.36 4.279 5.842 8.17 21.986 0 0 .675 2.855 5.76 2.073 3.854-.592 8.717-.339 18.028 3.764.441.217.897.423 1.369.614.046.021.087.038.133.06l-.004-.005c9.1 3.621 23.042 2.43 24.927-.588.271-.431.444-.838.55-1.227.076-.095.158-.188.221-.287.811-1.298 1.023-2.374.649-3.289m-33.753-4.819c-6.744-9.257-16.231-14.092-21.403-16.728-.613-.313-1.235-.629-1.754-.909 1.419-.085 3.478-.085 4.449-.085 7.205 0 13.066 2.201 17.919 6.731 2.732 2.548 5.226 4.667 7.577 6.437-.107.048-4.254 1.561-6.788 4.554m1.006 1.571c8.665-8.824 20.728-8.105 24.938-2.17 0 0-3.838-2.344-7.797-2.344-2.463 0-10.04 1.264-10.04 11.095-1.781-.655-5.937-3.093-7.101-6.581m17.938-1.44c-.887-.3-1.78-.641-2.69-1.05.561-.119 1.154-.184 1.783-.189.336.341.663.753.907 1.239m.892 9.689c-2.566 0-6.309-.24-9.929-1.341 0-5.157 2.396-7.844 4.055-8.471 6.607 3.771 16.444 2.979 18.109 5.506 1.346 2.042-6.027 4.306-12.235 4.306"/></svg>