<svg xmlns="http://www.w3.org/2000/svg" viewBox="0 0 64 64" enable-background="new 0 0 64 64"><path d="m58.583 58.831c-.177 0-.405-.02-.663-.05.19-.508 2.257-6.408-3.418-8.454-14.632-5.278-22.693-12.047-24.023-35.268 1.42-.148 2.21-.27 2.21-.27l1.314-12.061c0-.402-8.734-.728-14.501-.728s-14.502.326-14.502.729l1.225 11.251c0 0 .787.296 2.378.635.992 16.407-2.389 14.014-3.239 24.729-.223 2.798.755 5.399 2.729 7.246l1.272 15.41h6.256c0 0 .108-5.83.979-8.671 8.234 0 12.422 8.671 15.634 8.671 5.063 0 21.296 0 26.35 0 .556 0 .556-3.169-.001-3.169m-51.354-54.102h24.544l-.902 8.275c-2.069.233-6.138.596-11.417.596-5.865 0-9.639-.725-11.386-1.163l-.839-7.708m49.127 52.102h-22.704c-.392-.278-1.142-.942-1.762-1.491-3.39-3.001-9.063-8.024-16.112-8.024-2.841 0-5.149-.874-6.676-2.527-1.286-1.393-1.906-3.27-1.745-5.287.314-3.974.97-5.942 1.663-8.025 1.113-3.346 2.164-6.549 1.604-16.494.908.141 1.953.272 3.149.378v17.639h2.227v-17.488c1.064.054 2.21.088 3.454.088 3.673 0 6.757-.172 9.027-.356 1.379 23.91 9.739 31.336 25.342 36.966 1.146.412 1.891 1.025 2.278 1.873.397.867.382 1.915.255 2.748"/></svg>