<svg xmlns="http://www.w3.org/2000/svg" viewBox="0 0 64 64" enable-background="new 0 0 64 64"><path d="m22.203 40.25c.871-.73 1.913-1.023 3-1.023 1.085 0 2.126.293 2.996 1.023.232.195.694-.162.605-.361-.898-1.969-2.252-2.953-3.602-2.953-1.354 0-2.706.984-3.604 2.953-.087.199.376.556.605.361"/><path d="m11.422 40.25c.871-.73 1.912-1.023 2.998-1.023 1.087 0 2.127.293 2.997 1.023.23.195.695-.162.605-.361-.899-1.969-2.251-2.953-3.603-2.953-1.353 0-2.705.984-3.604 2.953-.086.199.377.556.607.361"/><path d="m19.738 50.947c1.233-1.275 3.224-.561 4.136-1.508.762-.787-.882-1.428-.882-2.828s1.644-2.037.882-2.826c-.912-.945-2.902-.232-4.136-1.508 0 1.037.87 2.166 2.497 2.166 0 0-1.105.445-1.105 2.168 0 1.725 1.105 2.17 1.105 2.17-1.627 0-2.497 1.131-2.497 2.166"/><path d="m59.15 44.346c1.319-.338 2.85-1.369 2.85-4.326 0-2.996-1.293-3.75-2.178-3.916-.164-9.795-2.737-13.999-13.643-14.102-9.408-.09-12.261 6.225-12.16 12.68-.485 2.043-.718 4.965-.718 9.02 0 4.379 2.393 9.119 6.17 11.279-4.289 1.888-7.471 3.919-7.471 5.796 0-1.877-3.182-3.908-7.472-5.797 3.777-2.16 6.17-6.9 6.17-11.279 0-4.055-.232-6.977-.718-9.02.101-6.456-2.752-12.77-12.16-12.68-10.905.104-13.478 4.307-13.642 14.103-.885.166-2.178.919-2.178 3.916 0 2.957 1.531 3.988 2.85 4.326.134 1.695.682 3.211 1.492 4.561-2.617-.712-4.342-1.128-4.342-1.128v14.221h30 30v-14.221c0 0-1.725.416-4.342 1.127.811-1.349 1.359-2.865 1.492-4.56m-53.367-.858c-2.172-.162-2.815-1.652-2.815-3.469 0-2.363.827-2.959 1.664-2.959.195 0 .393.031.578.082.09.609.21 1.182.378 1.506.299.58.907.91.907.91s-.164-1.178-.105-2.826c.323-4.961.981-6.176 3.254-6.178 2.184 0 5.858 1.123 12.164 1.123 1.401 0 2.694-.332 3.811-.332 2.495 0 4.113 1.652 4.113 12.356 0 5.787-4.175 11.479-9.609 11.479-5.758 0-14.34-4.233-14.34-11.692m25.217 17.512h-27.999v-11.947c1.407.352 2.814.734 4.218 1.121 3.112 3.906 8.648 6.006 12.903 6.006 1.133 0 2.203-.223 3.197-.615 4.629 1.956 7.681 3.835 7.681 5.212v.223m3.269-17.299c0-10.704 1.618-12.356 4.113-12.356 1.116 0 2.409.332 3.811.332 6.306 0 9.98-1.123 12.164-1.123 2.272.002 2.931 1.217 3.254 6.178.059 1.648-.105 2.826-.105 2.826s.608-.33.907-.91c.168-.324.288-.896.378-1.506.186-.051.383-.082.578-.082.837 0 1.664.596 1.664 2.959 0 1.816-.644 3.307-2.815 3.469 0 7.459-8.582 11.691-14.339 11.691-5.436.001-9.61-5.691-9.61-11.478m26.73 5.352v11.947h-27.999v-.223c0-1.377 3.052-3.256 7.681-5.213.994.393 2.064.615 3.197.615 4.255 0 9.791-2.1 12.903-6.006 1.404-.386 2.811-.769 4.218-1.12"/><path d="m42.401 39.889c-.898-1.969-2.251-2.953-3.604-2.953-1.35 0-2.703.984-3.602 2.953-.089.199.373.557.605.361.87-.73 1.911-1.023 2.996-1.023 1.087 0 2.129.293 3 1.023.23.195.693-.162.605-.361"/><path d="m46.583 40.25c.87-.73 1.91-1.023 2.997-1.023 1.086 0 2.127.293 2.998 1.023.229.195.693-.162.605-.361-.898-1.969-2.251-2.953-3.604-2.953-1.352 0-2.703.984-3.603 2.953-.088.199.377.556.607.361"/><path d="m41.765 48.781c0 0 1.105-.445 1.105-2.17 0-1.723-1.105-2.168-1.105-2.168 1.627 0 2.497-1.129 2.497-2.166-1.233 1.275-3.224.563-4.136 1.508-.762.789.882 1.426.882 2.826s-1.644 2.041-.882 2.828c.912.947 2.902.232 4.136 1.508 0-1.035-.87-2.166-2.497-2.166"/><path d="m31.998 26c1.201-1.084 17.977-9.818 14.539-18.92-3.196-8.46-13.578-4.665-14.539-.44-1.32-4.502-11.443-7.859-14.533.444-3.441 9.25 13.334 17.557 14.533 18.916"/></svg>