<svg xmlns="http://www.w3.org/2000/svg" viewBox="0 0 64 64" enable-background="new 0 0 64 64"><path d="m34.106 52.794c-.603-.377-1.243-.617-2.353-1.596-.207-.184-.463-.242-.729-.221-.659-.668-1.12-1.266-1.501-1.771-.89-1.182-1.538-2.043-3.706-2.465-2.3-4.082-4.43-5.93-5.215-6.521-.021-.025-.044-.047-.067-.072l5.165-3.115.118-.109c.374-.348.698-.648.7-1.135.002-.631-.551-1.377-2.455-3.246h.846v-11.588c0-3.404-1.27-5.869-3.744-7.356.418-.933 1.051-2.184 2.043-3.964 1.235-2.223-.072-7.334-.802-7.627-.448-.186-4.221 3.232-4.337 6.078-.072 1.812-.144 3.193-.211 4.287-1.313-.279-2.596-.278-3.881 0-.067-1.094-.139-2.475-.211-4.287-.115-2.846-3.887-6.264-4.335-6.079-.73.293-2.037 5.405-.802 7.627 1.018 1.827 1.656 3.092 2.074 4.033-2.463 1.489-3.775 3.991-3.775 7.287v11.587h.755c-.261.236-.503.453-.719.646-1.546 1.386-1.961 1.757-1.964 2.251-.001.355.24.576.547.855l5.233 5.381c.081.41.177.801.287 1.172l-.122-.143.156 1.232c.026.209.657 5.145 1.553 7.578.988 2.691 1.639 5.836 1.733 6.291.011.33.074.697.218 1.115.163.475.184 1.076-.141 1.332-2.046 1.598 3.601 3.219 3.478-.611-.021-.678-.188-1.508-.233-2.936-.008-.258-.125-.463-.298-.623.033-.906.145-1.635.245-2.244.234-1.424.406-2.463-.69-4.201.671-1.844.316-2.865.044-3.316.576-.037 1.103-.125 1.536-.238.88 1.18 3.304 4.242 5.417 5.141 2.604 1.102 5.274 2.697 5.959 3.113.266.25.621.486 1.087.695 4.378 1.966 6.063-.368 3.097-2.237m-14.858-44.23c.32-2.025 1.932-3.41 2.33-3.248.641.264.937 2.596.351 4.053-1.255 3.113-1.797 4.953-2.032 5.977-.481-.204-.996-.375-1.545-.502.147-1.2.425-3.316.896-6.28m-9.339.805c-.586-1.457-.291-3.789.351-4.053.398-.162 2.01 1.223 2.33 3.248.471 2.963.749 5.078.896 6.279-.549.126-1.064.297-1.546.5-.234-1.023-.776-2.863-2.031-5.974m-3.688 26.53l-.174-.16c-.127-.115-.283-.258-.302-.293.033-.193.739-.824 1.713-1.697.245-.219.528-.475.831-.746l1.526 1.436-1.303 1.234 1.922 2.527c.016.74.061 1.477.142 2.186l-4.355-4.487m4.218 1.073l-.926-1.217 1.064-1.01c-.071.717-.12 1.465-.138 2.227m6.482 16.744c-.152.928-.345 2.084-.239 3.781.023.387-.068.703-.269.918-.38.406-1.212.463-1.275-.639-.007-.035-.691-3.547-1.785-6.521-.618-1.682-1.122-4.719-1.361-6.336.919.795 2.558 1.891 4.386 1.783.171.289.492 1.137-.174 2.844l-.07.182.107.162c1.05 1.589.911 2.431.68 3.826m.873-24.973l-.331.037v1.902c-.29.258-.767.418-1.544.418-.778 0-1.254-.16-1.543-.418v-1.904l-.331-.035c-2.746-.303-4.006-1.416-4.349-3.846l-.043-.301-.302-.02c-.829-.055-1.182-.439-1.182-1.287 0-1.044.386-1.044.531-1.044.284 0 .62.171.727.236l.242.15.207-.192c.036-.034 3.746-3.393 10.819-3.398.053.011 1.265.302 1.149 3.107l-.028.707.599-.374c.105-.065.438-.236.723-.236.131 0 .528 0 .528 1.044 0 .848-.352 1.232-1.177 1.287l-.301.02-.043.301c-.337 2.399-1.638 3.549-4.351 3.846m1.957 4.567l2.251 2.137-3.104 2.484c.04-1.354.497-3.077.853-4.621m-.797 5.535l4.184-3.35-1.113-1.057 1.482-1.395c1.438 1.41 2.269 2.34 2.268 2.742-.001.152-.158.305-.459.584l-5.349 3.24c-.537-.439-1.001-.672-1.001-.672-.006-.028-.008-.063-.012-.092m13.065 14.775c-.113.318-.417.531-.754.531-.231 0-.47-.098-.733-.316-.031-.02-3.199-2-6.279-3.303-1.879-.799-4.153-3.635-5.047-4.816l2.355-2.672c.045-.338.035-.658-.016-.957.99 1.029 2.32 2.678 3.71 5.174l.086.156.174.029c2.021.359 2.546 1.057 3.416 2.213.578.77 1.299 1.727 2.654 2.85.407.336.564.742.434 1.111"/><path d="m57.511 52.794c-.603-.377-1.243-.617-2.353-1.596-.207-.184-.462-.242-.728-.221-.66-.668-1.121-1.266-1.502-1.771-.89-1.182-1.537-2.043-3.706-2.465-2.299-4.082-4.429-5.93-5.215-6.521-.021-.025-.044-.047-.066-.072l5.166-3.115.116-.109c.374-.348.698-.648.7-1.135.002-.631-.551-1.377-2.454-3.246h.846v-11.588c0-3.404-1.27-5.869-3.746-7.356.419-.933 1.053-2.184 2.044-3.964 1.236-2.223-.072-7.334-.801-7.627-.448-.186-4.221 3.232-4.338 6.078-.072 1.812-.144 3.193-.21 4.287-1.314-.279-2.597-.278-3.882 0-.067-1.094-.139-2.475-.211-4.287-.116-2.846-3.889-6.264-4.337-6.078-.729.293-2.036 5.404-.802 7.627 1.018 1.827 1.656 3.092 2.074 4.033-2.462 1.489-3.774 3.991-3.774 7.287v11.587h.754c-.261.236-.503.453-.718.646-1.547 1.385-1.962 1.756-1.965 2.25-.001.355.241.576.547.855l5.234 5.381c.08.41.175.801.286 1.172l-.122-.143.156 1.232c.026.209.657 5.145 1.553 7.578.99 2.691 1.639 5.836 1.732 6.291.013.33.075.697.219 1.115.163.475.184 1.076-.14 1.332-2.046 1.598 3.6 3.219 3.477-.611-.021-.678-.187-1.508-.233-2.936-.008-.258-.125-.463-.298-.623.033-.906.145-1.635.245-2.244.235-1.424.406-2.463-.69-4.201.671-1.844.316-2.865.046-3.316.576-.037 1.102-.125 1.534-.238.879 1.18 3.305 4.242 5.418 5.141 2.604 1.102 5.274 2.697 5.96 3.113.266.25.619.486 1.085.695 4.379 1.966 6.065-.368 3.099-2.237m-14.859-44.23c.32-2.025 1.932-3.41 2.33-3.248.642.264.937 2.596.351 4.053-1.255 3.113-1.796 4.953-2.032 5.977-.481-.204-.995-.375-1.544-.502.146-1.2.426-3.316.895-6.28m-9.339.805c-.585-1.457-.29-3.789.352-4.053.397-.162 2.009 1.223 2.329 3.248.471 2.963.749 5.078.896 6.279-.549.126-1.064.297-1.545.5-.235-1.023-.777-2.863-2.032-5.974m-3.688 26.53l-.174-.16c-.126-.115-.282-.258-.302-.293.034-.193.739-.824 1.714-1.697.244-.219.527-.475.83-.746l1.526 1.436-1.302 1.234 1.921 2.527c.016.74.06 1.477.142 2.186l-4.355-4.487m4.219 1.073l-.925-1.217 1.063-1.01c-.071.717-.12 1.465-.138 2.227m6.482 16.744c-.153.928-.345 2.084-.239 3.781.022.387-.069.703-.269.918-.381.406-1.213.463-1.275-.639-.008-.035-.692-3.547-1.786-6.521-.618-1.682-1.122-4.719-1.36-6.336.918.795 2.558 1.891 4.385 1.783.171.289.492 1.137-.173 2.844l-.071.182.108.162c1.049 1.589.911 2.431.68 3.826m.873-24.973l-.332.037v1.902c-.29.258-.767.418-1.544.418-.778 0-1.254-.16-1.543-.418v-1.904l-.33-.035c-2.746-.303-4.006-1.416-4.35-3.846l-.042-.301-.302-.02c-.83-.055-1.183-.439-1.183-1.287 0-1.044.386-1.044.531-1.044.286 0 .621.171.727.236l.242.15.207-.192c.037-.034 3.747-3.393 10.82-3.398.053.011 1.264.302 1.149 3.107l-.029.707.6-.374c.104-.065.438-.236.722-.236.132 0 .529 0 .529 1.044 0 .848-.353 1.232-1.178 1.287l-.301.02-.042.301c-.337 2.399-1.639 3.549-4.351 3.846m1.957 4.567l2.25 2.137-3.103 2.484c.039-1.354.495-3.077.853-4.621m-.797 5.535l4.183-3.35-1.113-1.057 1.483-1.395c1.438 1.41 2.268 2.34 2.267 2.742-.001.152-.158.305-.459.584l-5.348 3.24c-.538-.439-1.002-.672-1.002-.672-.005-.028-.007-.063-.011-.092m13.064 14.775c-.113.318-.416.531-.753.531-.23 0-.471-.098-.734-.316-.031-.02-3.199-2-6.279-3.303-1.879-.799-4.154-3.635-5.046-4.816l2.354-2.672c.045-.338.035-.658-.016-.957.99 1.029 2.32 2.678 3.71 5.174l.087.156.173.029c2.021.359 2.547 1.057 3.416 2.213.578.77 1.299 1.727 2.654 2.85.407.336.565.742.434 1.111"/><circle cx="12.902" cy="22.194" r="1.234"/><circle cx="18.934" cy="22.194" r="1.234"/><path d="m17.889 25.948c-1.27.986-2.68.98-3.943 0-.15-.119-.289.086-.186.275.385.705 1.162 1.334 2.158 1.334.994 0 1.771-.629 2.156-1.334.104-.189-.033-.394-.185-.275"/><circle cx="36.307" cy="22.194" r="1.234"/><circle cx="42.338" cy="22.194" r="1.234"/><path d="m41.293 25.948c-1.27.986-2.68.98-3.943 0-.15-.119-.289.086-.186.275.385.705 1.162 1.334 2.158 1.334.994 0 1.771-.629 2.156-1.334.104-.189-.033-.394-.185-.275"/></svg>