<svg xmlns="http://www.w3.org/2000/svg" viewBox="0 0 64 64" enable-background="new 0 0 64 64"><path d="m62 37.504c0-1.877-.893-3.766-2.613-4.768.391-1.949.678-4.204.678-6.734-.001-11.001-7.86-24.002-28.065-24.002-20.207 0-28.064 13.001-28.064 24.002 0 2.529.287 4.783.678 6.732-1.723 1.002-2.614 2.893-2.614 4.77 0 2.102 1.125 4.211 3.277 5.078-2.347 4.422-3.338 10.773-.886 15.254 1.061 1.939 10.699 8.119 13.9.342 3.66 1.736 8.209 2.828 13.709 2.828s10.047-1.092 13.707-2.828c3.203 7.777 12.84 1.598 13.902-.342 2.449-4.48 1.459-10.83-.889-15.254 2.153-.867 3.28-2.975 3.28-5.078m-29.99-31.504c14.799 0 24.668 8.001 24.668 18.002 0 0-2.961-15.001-24.668-15.001s-25.656 15.001-25.656 15.001c0-10.001 10.855-18.002 25.656-18.002m23.541 35.004v1c0 7.061-7.307 17.002-23.551 17.002-16.246 0-23.553-9.941-23.553-17.002v-1h-.967c-2.449 0-3.545-1.758-3.545-3.5s1.096-3.5 3.545-3.5h.184l.172-.07c.092-.037 8.426-3.567 8.336-13.917 9.475 9.174 34.137 10.723 39.379 10.952v3.036h.969c2.447 0 3.545 1.758 3.545 3.5s-1.098 3.5-3.545 3.5h-.969z"/><circle cx="44.5" cy="36.504" r="5"/><circle cx="19.5" cy="36.504" r="5"/><path d="m40.09 48.131c-5.215 3.6-11 3.578-16.182 0-.621-.432-1.184.314-.762 1.006 1.576 2.572 4.768 4.867 8.852 4.867 4.086 0 7.277-2.295 8.854-4.867.425-.692-.137-1.438-.762-1.006"/></svg>