<svg xmlns="http://www.w3.org/2000/svg" viewBox="0 0 64 64" enable-background="new 0 0 64 64"><path d="m27.038 27.228c-4.433 7.974 7.948 13.905.962 16.892-6.985 2.988-10.346-3.63-13.854-12.064-3.51-8.434-.691-17.694 6.295-20.68 6.985-2.989 12.461 5.296 6.597 15.852"/><path d="m23.954 5.441c.015-2.33 1.574-3.457 3.486-3.441 1.911.014 3.453 1.162 3.436 3.492-.023 3.334-1.584 4.961-3.495 4.948s-3.452-1.664-3.427-4.999"/><path d="m18.136 6.573c-.244-1.659.739-2.633 2.1-2.838 1.359-.207 2.581.436 2.824 2.094.348 2.372-.582 3.704-1.942 3.909-1.36.204-2.634-.794-2.982-3.165"/><path d="m13.859 9.45c-.393-1.414.358-2.373 1.52-2.703s2.293.092 2.686 1.508c.561 2.023-.105 3.285-1.267 3.615s-2.379-.397-2.939-2.42"/><path d="m11.549 13.44c-.447-1.043.028-1.857.884-2.234s1.768-.174 2.216.869c.638 1.492.261 2.529-.595 2.908-.855.377-1.863-.051-2.505-1.543"/><path d="m10.137 16.909c-.357-.834.021-1.484.707-1.785.684-.303 1.412-.141 1.771.693.511 1.191.208 2.021-.477 2.324-.683.301-1.489-.041-2.001-1.232"/><path d="m35.248 44.153c2.908 8.666-10.34 12.184-4.018 16.424 6.325 4.241 10.829-1.635 15.811-9.27 4.981-7.635 3.896-17.262-2.43-21.504-6.323-4.24-13.211 2.882-9.363 14.35"/><path d="m42.236 23.317c.408-2.293-.919-3.692-2.801-4.036s-3.606.498-4.013 2.791c-.583 3.282.656 5.172 2.538 5.516 1.882.345 3.694-.989 4.276-4.271"/><path d="m47.749 25.515c.541-1.584-.248-2.727-1.548-3.182-1.299-.457-2.615-.053-3.156 1.532-.773 2.264-.101 3.748 1.198 4.203s2.734-.288 3.506-2.553"/><path d="m51.432 29.142c.642-1.318.078-2.4-1.002-2.941-1.082-.541-2.271-.338-2.914.98-.919 1.885-.494 3.248.587 3.791 1.08.541 2.409.054 3.329-1.83"/><path d="m52.975 33.495c.63-.941.311-1.832-.463-2.361-.772-.531-1.705-.502-2.335.439-.899 1.346-.716 2.438.058 2.969.771.531 1.84.299 2.74-1.047"/><path d="m53.733 37.167c.503-.752.247-1.463-.37-1.887-.618-.424-1.361-.4-1.866.352-.719 1.076-.57 1.946.046 2.372.616.424 1.471.238 2.19-.837"/></svg>