<svg xmlns="http://www.w3.org/2000/svg" viewBox="0 0 64 64" enable-background="new 0 0 64 64"><path d="m45.458 57.65c-.256-.587-14.159-8.858-14.175-8.869-1.961-1.442-2.2-2.845-.618-3.651 1.357-.689 2.524-2.91 3.404-5.287.161.071.329.086.501.037 3.693-1.08 3.759-8.533 1.289-7.217 2.309-20.145-25.582-20.155-23.273.001-2.473-1.319-2.405 6.136 1.287 7.216.171.049.341.034.502-.036.879 2.376 2.044 4.597 3.401 5.286 1.595.812 1.28 2.146-.657 3.682-.646.513-9.647 5.531-12.188 7.229-.005.001-.014.007-.014.007h.003c-1.049.703-1.795 1.287-1.934 1.603-.724 1.669-.986 4.349-.986 4.349h44.444c0 0-.26-2.68-.986-4.35"/><path d="m34.544 19.867c1.815 2.036 3.813 5.542 3.668 11.029.704.527 1.292 1.429 1.492 2.827.368 2.582-.683 6.812-4.04 8.129-.909 2.145-1.902 3.659-3.005 4.59h29.341c0 0-.262-2.68-.986-4.35-.256-.586-14.159-8.857-14.174-8.869-1.963-1.441-2.201-2.844-.619-3.65 1.357-.69 2.523-2.91 3.404-5.287.16.07.33.086.501.035 3.692-1.078 3.759-8.531 1.289-7.215 2.261-19.72-24.399-20.133-23.362-1.236 2.504.7 4.767 2.065 6.491 3.997"/></svg>