<svg xmlns="http://www.w3.org/2000/svg" viewBox="0 0 64 64" enable-background="new 0 0 64 64"><path d="m54.509 30.996c2.29-1.776 4.217-4.207 4.7-7.056 1.353-.219 2.791-1.114 2.791-3.92 0-2.482-.894-3.223-1.646-3.404-.079-10.17-2.48-14.507-13.239-14.612-10.853-.107-13.71 4.417-13.813 14.734-.656.321-1.302 1.17-1.302 3.282 0 2.807 1.437 3.701 2.789 3.921.478 2.816 2.366 5.222 4.621 6.993-4.482.607-7.41 1.439-7.41 3.841v-14.755-3.348c0-12.398-8.121-12.166-8.121-12.166s-.61-2.506-6.877-2.506c-9.706 0-15.002 6.332-15.002 14.672v45.328h60v-27.225c0-1.861-3.183-3.12-7.491-3.779m-18.817-7.57l-.049-.405-.396-.031c-1.556-.119-2.28-1.063-2.28-2.97 0-1.633.38-2.459 1.129-2.459.045 0 .09.002.137.006.098.594.215 1.024.357 1.311.348.698 1.007 1.08 1.082 1.122l.837.467-.128-.975c-.002-.012-.15-1.167-.097-2.739.318-5.023.624-5.694 1.668-5.694.478 0 1.134.139 1.966.313 1.627.341 3.854.809 7.081.809s5.454-.468 7.08-.809c.832-.175 1.489-.313 1.967-.313 1.044 0 1.349.672 1.667 5.692.055 1.58-.096 2.729-.098 2.74l-.131.979.841-.471c.074-.041.73-.423 1.081-1.122.141-.283.258-.714.357-1.31.851-.092 1.268.724 1.268 2.453 0 1.906-.725 2.851-2.282 2.97l-.396.031-.049.405c-.722 5.938-8.3 9.703-11.306 9.703-3.005 0-10.584-3.766-11.306-9.703m-3.834 14.405c6.441 0 10.409 3.187 10.409 7.146v1.183c0-3.96-3.968-7.146-10.409-7.146-6.228 0-10.407 3.186-10.407 7.146 0-.715 0-1.183 0-1.183 0-3.959 4.18-7.146 10.407-7.146m-26.366-20.618c5.443-.061 13.566-6.017 15.604-7.578.96 1.661 4.126 6.744 7.351 7.57.013.002 1.326.27 1.326 2.569 0 2.839-1.859 3.363-1.934 3.384l-.379.093-.002.39c-.028 4.799-6.637 9.487-10.457 9.487-3.779 0-10.543-4.78-10.543-9.484l-.005-.382-.367-.102c-.075-.021-1.858-.546-1.858-3.386 0-1.953 1.029-2.469 1.264-2.561m14.553 42.035c.049.088.148.198.279.318-.321.439-.547.92-.683 1.434h-16.624v-26.226c0-1.154 2.97-2.362 7.8-2.952 2.073 1.419 4.376 2.306 6.185 2.306 1.81 0 4.127-.907 6.204-2.36 5.111.566 8.278 1.815 8.278 3.007v1.24c-6.721.157-11.207 4.472-11.207 9.822 0 .63 0 2.351 0 3.747-.392.313-.657.801-.657 1.518 0 .993.396 1.584.928 1.896-.985 1.886-1.508 4.482-.503 6.25m1.705-9.129l.262.02.139-.08c.039-.022 3.537-2.083 3.665-6.362 3.898 3.661 13.267 4.501 15.521 4.651v1.278l.065.498h.499c.447 0 1.197.127 1.197.978 0 .804-.312 1.179-.983 1.179-.103 0-.175-.011-.186-.013l-.593-.113v.604c0 3.23-4.983 5.736-9.27 5.736-4.517 0-9.666-3.055-9.666-5.736l-.004-.592-.584.101c-.015.003-.089.014-.194.014-.683 0-1.001-.375-1.001-1.179.001-.654.381-.984 1.133-.984m-1.083 10.882c.53-1.526 2.286-2.651 4.585-3.375 1.953 1.122 4.415 1.868 6.815 1.868 2.361 0 4.854-.687 6.796-1.833 2.242.724 3.947 1.838 4.47 3.34h-22.666m40.316-.001h-16.623c-.137-.52-.363-1.006-.69-1.448.123-.114.219-.22.266-.304 1.027-1.809.456-4.487-.57-6.381.428-.336.732-.896.732-1.766 0-.684-.264-1.154-.653-1.467v-3.798c0-5.28-4.151-9.548-10.928-9.812v-1.023c0-1.479 3.084-2.644 8.078-3.213 2.263 1.484 4.703 2.34 6.405 2.34 1.685 0 4.091-.836 6.333-2.291 4.745.596 7.65 1.795 7.65 2.938v26.225"/><circle cx="41.5" cy="20.309" r="2.25"/><circle cx="52.5" cy="20.309" r="2.25"/><path d="m50.934 27.656c.188-.346-.063-.719-.34-.504-2.316 1.801-4.887 1.789-7.189 0-.277-.215-.527.158-.34.504.703 1.285 2.121 2.434 3.934 2.434 1.814 0 3.231-1.149 3.935-2.434"/><circle cx="11.633" cy="20.308" r="2.25"/><circle cx="22.369" cy="20.308" r="2.25"/><path d="m13.066 27.655c.703 1.285 2.121 2.434 3.934 2.434 1.814 0 3.232-1.148 3.936-2.434.188-.346-.063-.719-.34-.504-2.316 1.801-4.887 1.789-7.189 0-.28-.214-.53.159-.341.504"/><circle cx="36.562" cy="49.796" r="1.75"/><circle cx="27.415" cy="49.796" r="1.75"/><path d="m28.549 54.782c.615 1.073 1.854 2.028 3.44 2.028 1.589 0 2.825-.955 3.44-2.028.164-.285-.055-.596-.297-.418-2.025 1.501-4.271 1.491-6.287 0-.241-.177-.46.133-.296.418"/></svg>