<svg xmlns="http://www.w3.org/2000/svg" viewBox="0 0 64 64" enable-background="new 0 0 64 64"><path d="m54.509 30.997c2.29-1.777 4.217-4.207 4.7-7.057 1.353-.219 2.791-1.114 2.791-3.92 0-2.482-.894-3.223-1.646-3.404-.079-10.17-2.48-14.507-13.239-14.612-10.853-.107-13.71 4.417-13.813 14.734-.656.321-1.302 1.17-1.302 3.282 0 2.807 1.437 3.702 2.789 3.92.478 2.816 2.366 5.223 4.621 6.994-4.482.608-7.41 1.44-7.41 3.841v-14.755-3.348c0-12.398-8.121-12.166-8.121-12.166s-.61-2.506-6.877-2.506c-9.706 0-15.002 6.332-15.002 14.672v45.328h60v-27.225c0-1.86-3.183-3.12-7.491-3.778m-18.817-7.571l-.049-.405-.396-.031c-1.556-.119-2.28-1.063-2.28-2.97 0-1.633.38-2.459 1.129-2.459.045 0 .09.002.137.006.098.594.215 1.024.357 1.311.348.698 1.007 1.08 1.082 1.122l.837.467-.128-.975c-.002-.012-.15-1.167-.097-2.739.318-5.023.624-5.694 1.668-5.694.478 0 1.134.139 1.966.313 1.627.341 3.854.809 7.081.809s5.454-.468 7.08-.809c.832-.175 1.489-.313 1.967-.313 1.044 0 1.349.672 1.667 5.692.055 1.58-.096 2.729-.098 2.74l-.131.979.841-.471c.074-.041.73-.423 1.081-1.122.141-.283.258-.714.357-1.31.851-.092 1.268.724 1.268 2.453 0 1.906-.725 2.851-2.282 2.97l-.396.031-.049.405c-.722 5.938-8.3 9.703-11.306 9.703-3.005 0-10.584-3.765-11.306-9.703m-13.539 28.058c-.886 0-1.123-.791-1.123-1.258s.237-1.26 1.123-1.26h.455l.451-4.975c0-.623.195-.939 1.266-.939.715 0 1.651.156 2.736.338 1.482.246 3.163.525 4.939.525s3.457-.279 4.94-.525c1.085-.182 2.022-.338 2.739-.338 1.07 0 1.267.316 1.268.984l.445 4.93h.456c.886 0 1.123.793 1.123 1.26s-.237 1.258-1.123 1.258h-.5v.5c0 3.975-5.537 6.51-9.349 6.51s-9.349-2.535-9.349-6.51v-.5h-.497m-16.661-34.271c5.443-.061 13.566-6.017 15.604-7.578.96 1.661 4.126 6.744 7.351 7.57.013.002 1.326.27 1.326 2.569 0 2.839-1.859 3.363-1.934 3.384l-.379.093-.002.39c-.028 4.799-6.637 9.486-10.457 9.486-3.779 0-10.543-4.779-10.543-9.484l-.005-.381-.367-.102c-.075-.021-1.858-.546-1.858-3.386 0-1.953 1.029-2.469 1.264-2.561m-2.475 43.787v-26.227c0-1.154 2.97-2.361 7.8-2.951 2.073 1.417 4.376 2.304 6.185 2.304 1.81 0 4.127-.906 6.204-2.359 5.111.566 8.278 1.814 8.278 3.005v1.244c-6.42.191-10.357 3.885-10.357 8.457v3.154c0 .207.012.4.029.584-.736.391-1.123 1.203-1.123 2.014 0 .984.562 1.98 1.642 2.209.153 1.795 1.218 3.297 2.7 4.451-2.441.885-4.252 2.252-4.735 4.113h-16.623zm17.649 0c.54-1.555 2.345-2.695 4.706-3.416 2.021 1.23 4.525 1.91 6.629 1.91 2.102 0 4.605-.678 6.623-1.906 2.36.721 4.17 1.859 4.71 3.412h-22.668m40.317 0h-16.622c-.481-1.861-2.289-3.232-4.729-4.115 1.479-1.154 2.543-2.656 2.696-4.449 1.08-.229 1.643-1.225 1.643-2.209 0-.809-.386-1.617-1.116-2.01.017-.184.025-.379.025-.588 0-1.746 0-3.154 0-3.154 0-4.568-4.142-8.26-10.363-8.457v-1.016c0-1.479 3.084-2.644 8.078-3.212 2.263 1.484 4.703 2.339 6.405 2.339 1.685 0 4.091-.836 6.333-2.291 4.745.596 7.65 1.794 7.65 2.937v26.225"/><circle cx="41.5" cy="20.309" r="2.25"/><circle cx="52.5" cy="20.309" r="2.25"/><path d="m50.934 27.657c.188-.346-.063-.719-.34-.504-2.316 1.801-4.887 1.789-7.189 0-.277-.215-.527.158-.34.504.703 1.285 2.121 2.434 3.934 2.434 1.814-.001 3.231-1.149 3.935-2.434"/><circle cx="11.633" cy="20.308" r="2.25"/><circle cx="22.369" cy="20.308" r="2.25"/><path d="m13.066 27.655c.703 1.285 2.121 2.434 3.934 2.434 1.814 0 3.232-1.148 3.936-2.434.188-.346-.063-.719-.34-.504-2.316 1.801-4.887 1.789-7.189 0-.28-.215-.53.158-.341.504"/><circle cx="27.228" cy="49.796" r="1.749"/><circle cx="36.774" cy="49.796" r="1.749"/><path d="m28.566 54.783c.614 1.07 1.851 2.027 3.435 2.027s2.82-.957 3.436-2.027c.163-.289-.055-.6-.297-.42-2.011 1.49-4.255 1.5-6.275 0-.245-.179-.462.131-.299.42"/></svg>