<svg xmlns="http://www.w3.org/2000/svg" viewBox="0 0 64 64" enable-background="new 0 0 64 64"><path d="m22.555 40.252c.87-.73 1.911-1.023 2.996-1.023 1.084 0 2.124.293 2.993 1.023.231.195.693-.162.604-.361-.896-1.969-2.249-2.953-3.598-2.953-1.352 0-2.702.984-3.601 2.953-.087.199.376.556.606.361"/><path d="m11.785 40.252c.87-.73 1.91-1.023 2.994-1.023 1.087 0 2.125.293 2.994 1.023.23.195.694-.162.604-.361-.897-1.969-2.247-2.953-3.599-2.953-1.351 0-2.701.984-3.599 2.953-.087.199.377.556.606.361"/><path d="m20.093 50.947c1.231-1.275 3.22-.561 4.131-1.508.761-.787-.881-1.428-.881-2.826 0-1.4 1.642-2.037.881-2.826-.911-.945-2.899-.232-4.131-1.508 0 1.037.869 2.166 2.494 2.166 0 0-1.104.445-1.104 2.168s1.104 2.168 1.104 2.168c-1.625 0-2.494 1.131-2.494 2.166"/><path d="m46.999 22c-6.266 0-6.877 2.506-6.877 2.506s-8.122-.233-8.122 12.168c0-12.4-8.122-12.168-8.122-12.168s-.611-2.506-6.877-2.506c-9.704 0-15.001 6.332-15.001 14.674v11.105 13.4.821h30 30v-.82-13.4-11.106c0-8.342-5.297-14.674-15.001-14.674m-42.28 15.061c.203 0 .406.033.599.084.093.609.218 1.182.389 1.506.31.58.939.91.939.91s11.814-4.059 17.779-9.938c0 0 5.88 1.943 5.88 14.236 0 5.25-3.664 11.32-9.574 11.32-5.951 0-14.822-4.232-14.822-11.689-2.244-.162-2.909-1.652-2.909-3.469-.001-2.365.854-2.96 1.719-2.96m26.281 23.939h-28.001v-11.947c1.48.369 2.964.773 4.44 1.182 3.229 3.869 8.915 5.945 13.291 5.945 1.022 0 1.984-.182 2.889-.484 4.459 1.909 7.381 3.734 7.381 5.081v.223m30.001 0h-28.001v-.223c0-1.348 2.922-3.172 7.381-5.082.904.303 1.866.484 2.889.484 4.376 0 10.063-2.076 13.291-5.945 1.477-.408 2.96-.813 4.44-1.182v11.948m-2.909-17.51c0 7.457-8.871 11.689-14.822 11.689-5.91 0-9.574-6.07-9.574-11.32 0-12.293 5.88-14.236 5.88-14.236 5.965 5.879 17.779 9.938 17.779 9.938s.63-.33.939-.91c.171-.324.296-.896.389-1.506.192-.051.396-.084.599-.084.864 0 1.72.596 1.72 2.961-.001 1.816-.666 3.306-2.91 3.468"/><path d="m42.05 39.891c-.898-1.969-2.249-2.953-3.601-2.953-1.349 0-2.701.984-3.598 2.953-.089.199.373.557.604.361.869-.73 1.909-1.023 2.993-1.023 1.085 0 2.126.293 2.996 1.023.231.195.694-.162.606-.361"/><path d="m49.221 36.938c-1.352 0-2.701.984-3.599 2.953-.09.199.374.557.604.361.869-.73 1.907-1.023 2.994-1.023 1.084 0 2.124.293 2.994 1.023.229.195.693-.162.604-.361-.896-1.969-2.247-2.953-3.597-2.953"/><path d="m43.907 42.279c-1.231 1.275-3.22.563-4.131 1.508-.761.789.881 1.426.881 2.826 0 1.398-1.642 2.039-.881 2.826.911.947 2.899.232 4.131 1.508 0-1.035-.869-2.166-2.494-2.166 0 0 1.104-.445 1.104-2.168s-1.104-2.168-1.104-2.168c1.625 0 2.494-1.129 2.494-2.166"/><path d="m31.998 26.001c1.201-1.084 17.977-9.818 14.539-18.921-3.196-8.459-13.578-4.664-14.539-.439-1.32-4.502-11.443-7.859-14.533.443-3.441 9.251 13.334 17.558 14.533 18.917"/></svg>