<svg xmlns="http://www.w3.org/2000/svg" viewBox="0 0 64 64" enable-background="new 0 0 64 64"><path d="m54.509 30.995c2.29-1.776 4.217-4.207 4.7-7.056 1.353-.219 2.791-1.114 2.791-3.92 0-2.482-.894-3.223-1.646-3.405-.079-10.17-2.48-14.507-13.239-14.612-10.853-.107-13.71 4.417-13.813 14.735-.656.321-1.302 1.17-1.302 3.282 0 2.807 1.437 3.701 2.789 3.921.478 2.816 2.366 5.222 4.621 6.993-4.482.607-7.41 1.439-7.41 3.841 0-2.402-2.928-3.234-7.41-3.842 2.255-1.771 4.144-4.177 4.621-6.993 1.352-.219 2.789-1.114 2.789-3.92 0-2.111-.646-2.961-1.302-3.281-.103-10.319-2.961-14.843-13.813-14.736-10.759.105-13.16 4.442-13.239 14.611-.752.183-1.646.923-1.646 3.406 0 2.807 1.438 3.701 2.791 3.921.483 2.849 2.41 5.279 4.7 7.056-4.308.658-7.491 1.917-7.491 3.778v27.226h60v-27.226c0-1.861-3.183-3.12-7.491-3.779m-48.815-7.57l-.048-.405-.396-.032c-1.558-.119-2.282-1.063-2.282-2.97 0-1.729.417-2.545 1.268-2.453.1.596.217 1.026.357 1.31.351.699 1.007 1.081 1.081 1.122l.841.471-.131-.979c-.002-.012-.152-1.16-.098-2.74.318-5.021.623-5.693 1.667-5.693.478 0 1.135.139 1.967.313 1.626.341 3.853.809 7.08.809s5.454-.468 7.081-.809c.832-.175 1.488-.313 1.966-.313 1.044 0 1.35.671 1.668 5.695.054 1.572-.095 2.728-.097 2.739l-.128.975.837-.467c.075-.042.734-.424 1.082-1.122.143-.286.26-.717.357-1.311.047-.005.092-.007.137-.007.749 0 1.129.827 1.129 2.46 0 1.906-.725 2.851-2.28 2.97l-.396.031-.049.405c-.722 5.938-8.301 9.703-11.308 9.703-3.005.001-10.583-3.765-11.305-9.702m3.959 28.06c-.886 0-1.123-.791-1.123-1.259 0-.467.237-1.259 1.123-1.259h.455l.451-4.976c0-.622.195-.938 1.266-.938.715 0 1.651.156 2.736.337 1.482.246 3.163.525 4.939.525s3.457-.279 4.94-.525c1.085-.181 2.022-.337 2.739-.337 1.07 0 1.267.316 1.268.983l.445 4.931h.456c.886 0 1.123.792 1.123 1.259 0 .468-.237 1.259-1.123 1.259h-.5v.5c0 3.974-5.537 6.509-9.349 6.509s-9.349-2.535-9.349-6.509v-.5h-.497m9.848 8.009c2.102 0 4.605-.677 6.623-1.905 2.359.72 4.169 1.858 4.709 3.411h-22.666c.54-1.554 2.344-2.694 4.705-3.416 2.021 1.231 4.525 1.91 6.629 1.91m7.631-2.608c1.479-1.155 2.543-2.656 2.696-4.449 1.08-.229 1.643-1.225 1.643-2.21 0-.808-.386-1.616-1.116-2.009.017-.185.025-.38.025-.589 0-1.745 0-3.154 0-3.154 0-4.695-4.367-8.475-10.879-8.475-6.73 0-10.875 3.78-10.875 8.475v3.154c0 .208.012.401.029.585-.736.391-1.123 1.202-1.123 2.013 0 .985.562 1.981 1.642 2.21.153 1.794 1.218 3.296 2.7 4.451-2.441.883-4.252 2.252-4.735 4.112h-4.122v-26.226c0-1.143 2.905-2.342 7.65-2.938 2.242 1.455 4.648 2.291 6.333 2.291 1.702 0 4.143-.855 6.405-2.34 4.994.569 8.078 1.734 8.078 3.213v25.07c-.765-1.391-2.338-2.456-4.351-3.184m8.56-33.461l-.049-.405-.396-.031c-1.556-.119-2.28-1.063-2.28-2.97 0-1.633.38-2.46 1.129-2.46.045 0 .09.002.137.007.098.594.215 1.024.357 1.311.348.698 1.007 1.08 1.082 1.122l.837.467-.128-.975c-.002-.012-.15-1.167-.097-2.739.318-5.024.624-5.695 1.668-5.695.478 0 1.134.139 1.966.313 1.627.341 3.854.809 7.081.809s5.454-.468 7.08-.809c.832-.175 1.489-.313 1.967-.313 1.044 0 1.349.672 1.667 5.693.055 1.58-.096 2.729-.098 2.74l-.131.979.841-.471c.074-.041.73-.423 1.081-1.122.141-.283.258-.714.357-1.31.851-.092 1.268.724 1.268 2.453 0 1.906-.725 2.851-2.282 2.97l-.396.031-.049.405c-.722 5.938-8.3 9.703-11.306 9.703-3.005 0-10.584-3.766-11.306-9.703m-1.039 28.06c-.886 0-1.123-.791-1.123-1.259 0-.467.237-1.259 1.123-1.259h.455l.451-4.976c0-.622.195-.938 1.266-.938.715 0 1.651.156 2.736.337 1.482.246 3.163.525 4.939.525s3.457-.279 4.94-.525c1.085-.181 2.022-.337 2.739-.337 1.07 0 1.267.316 1.268.983l.445 4.931h.456c.886 0 1.123.792 1.123 1.259 0 .468-.237 1.259-1.123 1.259h-.5v.5c0 3.974-5.537 6.509-9.349 6.509s-9.349-2.535-9.349-6.509v-.5h-.497m9.848 8.009c2.102 0 4.605-.677 6.623-1.905 2.359.72 4.169 1.858 4.709 3.411h-22.666c.54-1.554 2.344-2.694 4.705-3.416 2.021 1.231 4.525 1.91 6.629 1.91m16.482 1.506h-4.122c-.481-1.86-2.289-3.231-4.729-4.114 1.479-1.155 2.543-2.656 2.696-4.449 1.08-.229 1.643-1.225 1.643-2.21 0-.808-.386-1.616-1.116-2.009.017-.185.025-.38.025-.589 0-1.745 0-3.154 0-3.154 0-4.695-4.367-8.475-10.879-8.475-6.73 0-10.875 3.78-10.875 8.475v3.154c0 .208.012.401.029.585-.736.391-1.123 1.202-1.123 2.013 0 .985.562 1.981 1.642 2.21.153 1.794 1.218 3.296 2.7 4.451-2.016.729-3.591 1.793-4.357 3.186v-25.073c0-1.479 3.084-2.644 8.078-3.213 2.263 1.484 4.703 2.34 6.405 2.34 1.685 0 4.091-.836 6.333-2.291 4.745.596 7.65 1.795 7.65 2.938v26.225"/><circle cx="41.5" cy="20.308" r="2.25"/><circle cx="52.5" cy="20.308" r="2.25"/><path d="m50.934 27.655c.188-.346-.063-.719-.34-.504-2.316 1.801-4.887 1.789-7.189 0-.277-.215-.527.158-.34.504.703 1.285 2.121 2.434 3.934 2.434 1.814 0 3.231-1.149 3.935-2.434"/><circle cx="22.498" cy="20.308" r="2.25"/><circle cx="11.5" cy="20.308" r="2.25"/><path d="m20.936 27.655c.188-.346-.063-.719-.34-.504-2.303 1.789-4.873 1.801-7.189 0-.277-.215-.527.158-.34.504.703 1.285 2.121 2.434 3.936 2.434 1.811 0 3.229-1.149 3.933-2.434"/><circle cx="14.728" cy="49.796" r="1.75"/><circle cx="24.274" cy="49.796" r="1.75"/><path d="m16.066 54.784c.614 1.069 1.851 2.026 3.435 2.026s2.82-.957 3.436-2.026c.163-.289-.055-.6-.297-.42-2.011 1.489-4.255 1.499-6.275 0-.245-.179-.462.131-.299.42"/><circle cx="39.728" cy="49.796" r="1.75"/><circle cx="49.274" cy="49.796" r="1.75"/><path d="m41.066 54.784c.614 1.069 1.851 2.026 3.435 2.026s2.82-.957 3.436-2.026c.163-.289-.055-.6-.297-.42-2.011 1.489-4.255 1.499-6.275 0-.245-.179-.462.131-.299.42"/></svg>