<svg xmlns="http://www.w3.org/2000/svg" viewBox="0 0 64 64" enable-background="new 0 0 64 64"><circle cx="11.633" cy="20.308" r="2.25"/><circle cx="22.369" cy="20.308" r="2.25"/><path d="m13.066 27.655c.703 1.285 2.121 2.434 3.934 2.434 1.814 0 3.232-1.148 3.936-2.434.188-.346-.063-.719-.34-.504-2.316 1.801-4.887 1.789-7.189 0-.28-.214-.53.159-.341.504"/><path d="m46.998 2c-6.267 0-6.877 2.506-6.877 2.506s-8.121-.233-8.121 12.166c0-12.398-8.121-12.166-8.121-12.166s-.61-2.506-6.877-2.506c-9.706 0-15.002 6.332-15.002 14.672v45.328h60v-45.328c0-8.34-5.296-14.672-15.002-14.672m-41.506 15.213c5.443-.061 13.566-6.017 15.604-7.578.96 1.661 4.126 6.744 7.351 7.57.013.002 1.326.27 1.326 2.569 0 2.839-1.859 3.363-1.934 3.384l-.379.093-.002.39c-.028 4.799-6.637 9.487-10.457 9.487-3.779 0-10.543-4.78-10.543-9.484l-.005-.382-.367-.102c-.075-.021-1.858-.546-1.858-3.386 0-1.952 1.029-2.469 1.264-2.561m3.758 32.906l.262.02.139-.08c.039-.022 3.537-2.083 3.665-6.362 3.898 3.661 13.267 4.501 15.521 4.651v1.278l.065.498h.499c.447 0 1.197.127 1.197.978 0 .804-.312 1.179-.983 1.179-.103 0-.175-.011-.186-.013l-.593-.113v.604c0 3.23-4.983 5.736-9.27 5.736-4.517 0-9.666-3.055-9.666-5.736l-.004-.592-.584.101c-.013.002-.087.012-.193.012-.683 0-1.001-.375-1.001-1.179 0-.652.38-.982 1.132-.982m-.299-3.96c0-.715 0-1.183 0-1.183 0-3.959 4.18-7.146 10.407-7.146 6.441 0 10.409 3.187 10.409 7.146v1.183c0-3.96-3.968-7.146-10.409-7.146-6.227.001-10.407 3.186-10.407 7.146m-.783 14.841c.53-1.525 2.285-2.65 4.584-3.374 1.953 1.122 4.415 1.868 6.815 1.868 2.361 0 4.854-.687 6.796-1.833 2.242.724 3.946 1.838 4.469 3.339h-22.664m23.315-6.718c-.174-.499-.382-.979-.618-1.415.278-.219.494-.545.618-.977v2.392m0-3.854c-.111-.332-.296-.598-.539-.793v-3.798c0-5.451-4.416-9.837-11.586-9.837-6.932 0-11.582 4.386-11.582 9.837 0 .63 0 2.351 0 3.747-.392.313-.657.801-.657 1.518 0 .993.396 1.584.928 1.896-.983 1.886-1.507 4.482-.502 6.25.049.088.148.198.279.318-.321.44-.547.92-.682 1.434h-4.125v-26.226c0-1.154 2.97-2.362 7.8-2.952 2.073 1.419 4.376 2.306 6.185 2.306 1.81 0 4.127-.907 6.204-2.36 5.111.566 8.278 1.815 8.278 3.007v15.653zm4.071-33.223c3.225-.826 6.391-5.909 7.351-7.57 2.037 1.562 10.16 7.518 15.604 7.578.235.092 1.265.609 1.265 2.562 0 2.84-1.783 3.365-1.858 3.386l-.367.102-.005.382c0 4.704-6.764 9.484-10.543 9.484-3.82 0-10.429-4.688-10.457-9.487l-.002-.39-.379-.093c-.074-.021-1.934-.545-1.934-3.384-.001-2.3 1.312-2.568 1.325-2.57m-2.388 43.795c.541-1.554 2.346-2.694 4.706-3.416 2.021 1.231 4.525 1.91 6.629 1.91 2.102 0 4.605-.677 6.623-1.905 2.36.72 4.169 1.858 4.71 3.411h-22.668m1.487-9.515c-.886 0-1.123-.791-1.123-1.259 0-.467.237-1.259 1.123-1.259h.455l.451-4.976c0-.622.195-.938 1.266-.938.715 0 1.651.156 2.736.337 1.482.246 3.163.525 4.939.525s3.457-.279 4.94-.525c1.085-.181 2.022-.337 2.739-.337 1.07 0 1.267.316 1.268.983l.445 4.931h.456c.886 0 1.123.792 1.123 1.259 0 .468-.237 1.259-1.123 1.259h-.5v.5c0 3.974-5.537 6.509-9.349 6.509s-9.349-2.535-9.349-6.509v-.5h-.497m26.33 9.515h-4.122c-.481-1.86-2.289-3.231-4.729-4.114 1.479-1.155 2.543-2.656 2.696-4.449 1.08-.229 1.643-1.225 1.643-2.21 0-.808-.386-1.616-1.116-2.009.017-.185.025-.38.025-.589 0-1.745 0-3.154 0-3.154 0-4.695-4.367-8.475-10.879-8.475-6.73 0-10.875 3.78-10.875 8.475v3.154c0 .208.012.401.029.585-.736.391-1.123 1.202-1.123 2.013 0 .985.562 1.981 1.642 2.21.153 1.794 1.218 3.296 2.7 4.451-2.015.729-3.591 1.793-4.357 3.186v-25.3c0-1.191 3.167-2.44 8.278-3.007 2.077 1.453 4.395 2.36 6.204 2.36 1.809 0 4.111-.887 6.185-2.306 4.83.59 7.8 1.798 7.8 2.952v26.227z"/><circle cx="52.367" cy="20.308" r="2.25"/><circle cx="41.631" cy="20.308" r="2.25"/><path d="m43.064 27.655c.703 1.285 2.121 2.434 3.936 2.434 1.813 0 3.23-1.148 3.934-2.434.189-.346-.061-.719-.34-.504-2.303 1.789-4.873 1.801-7.189 0-.278-.214-.528.159-.341.504"/><circle cx="39.728" cy="49.796" r="1.75"/><circle cx="49.274" cy="49.796" r="1.75"/><path d="m41.066 54.784c.614 1.069 1.851 2.026 3.435 2.026s2.82-.957 3.436-2.026c.163-.289-.055-.6-.297-.42-2.011 1.489-4.255 1.499-6.275 0-.245-.179-.462.131-.299.42"/><circle cx="24.062" cy="49.796" r="1.75"/><circle cx="14.915" cy="49.796" r="1.75"/><path d="m16.049 54.782c.615 1.073 1.854 2.028 3.44 2.028 1.589 0 2.825-.955 3.44-2.028.164-.285-.055-.596-.297-.418-2.025 1.501-4.271 1.491-6.287 0-.241-.177-.46.133-.296.418"/></svg>