<svg xmlns="http://www.w3.org/2000/svg" viewBox="0 0 64 64" enable-background="new 0 0 64 64"><path d="m57.881 28.421c-.774-21.526-5.901-26.421-25.881-26.421s-25.107 4.896-25.881 26.421c-1.451.367-3.119 1.727-3.119 6.043 0 4.961 2.764 6.564 5.385 6.968 1.434 8.971 6.619 14.679 17.697 19.577 1.422.63 3.58.991 5.918.991 2.34 0 4.496-.361 5.918-.991 11.078-4.899 16.262-10.608 17.699-19.577 2.619-.404 5.383-2.007 5.383-6.968 0-4.318-1.668-5.677-3.119-6.043m-3.213 11.139l-.814.057-.107.795c-1.354 10.095-7.635 14.817-16.648 18.804-1.156.512-3.061.817-5.098.817-2.035 0-3.941-.306-5.098-.817-9.014-3.986-15.295-8.709-16.648-18.804l-.105-.795-.816-.057c-2.998-.21-4.334-1.782-4.334-5.096 0-2.786.709-4.197 2.111-4.197.068 0 .141.003.215.009.191 1.018.418 1.76.689 2.256.686 1.25 1.977 1.931 2.121 2.004l1.725.874-.277-1.89c-.002-.021-.291-2.031-.186-4.765.789-11.259 1.5-12 6.08-12 1.205 0 2.691.096 4.414.206 2.654.17 5.959.382 10.109.382s7.455-.212 10.109-.383c1.723-.11 3.209-.206 4.412-.206 4.582 0 5.293.743 6.078 11.994.104 2.75-.184 4.751-.188 4.771l-.279 1.891 1.727-.875c.146-.073 1.436-.754 2.121-2.004.273-.497.5-1.238.693-2.256 1.547-.116 2.322 1.266 2.324 4.188.002 3.316-1.334 4.888-4.33 5.097"/><path d="m40.1 47.499c-4.051 0-12.15 0-16.199 0-.9 0-.9.857-.9.857 0 3.43 4.5 5.143 9 5.143s9-1.713 9-5.143c-.001 0-.001-.857-.901-.857"/><path d="m25 31.132c0-.552-.113-1.073-.295-1.562 1.029.747 1.859 1.753 2.295 3.06 0-7.998-14-7.998-14-.998.652-1.632 2.162-2.72 3.963-3.252-.596.763-.963 1.71-.963 2.752 0 2.484 2.014 4.498 4.5 4.498 2.484 0 4.5-2.014 4.5-4.498"/><path d="m37 32.63c.436-1.308 1.264-2.313 2.295-3.06-.182.489-.295 1.01-.295 1.562 0 2.484 2.016 4.498 4.5 4.498 2.486 0 4.5-2.014 4.5-4.498 0-1.042-.369-1.989-.963-2.752 1.801.532 3.311 1.62 3.963 3.252 0-7-14-7-14 .998"/><path d="m32 44.499c4.18-.002 6.27-3 4.18-3s-6.27 0-8.359 0-.001 3 4.179 3"/></svg>