<svg xmlns="http://www.w3.org/2000/svg" viewBox="0 0 64 64" enable-background="new 0 0 64 64"><path d="m46.845 45.83c-11.879-6.931-13.63-9.603-20.83-24.588l-.267-.554c-7.625-15.865-10.47-18.688-15.954-18.688-5.998 0-9.783 12.429-6.691 20.762 2.966 7.99 3.525 13.188 3.525 33.872l2.448.533 3.94-.728c0 0-.854-12.063 1.318-17.761 1.4 2.325 3.268 5.625 5.694 10.278 6.109 11.708 12.03 13.044 17.915 13.044h21.753c1.151-.243 2.304-1.023 2.304-4.091 0-2.731-5.124-6.227-15.155-12.079m-36.981-41.983c3.555.017 6.32 1.294 14.17 17.626l.267.553c6.613 13.766 8.621 17.944 18.579 23.727-2.137.167-6.093 1.679-6.093 1.679-8.364-5.86-14.548-17.552-18.024-25.022-1.104-2.372-2.059-4.421-2.885-5.798-1.977-3.293-4.658-4.449-7.329-4.782-.945-2.577-1.185-5.711-.337-7.098.183-.3.553-.715 1.652-.885m1.207 42.834c-.186 3.266-.109 6.407-.031 8.243l-2.032.336.034-13.474c.216-4.331.719-7.97 1.793-8.291 0 0 .679.7 2.313 3.262-1.137 2.087-1.814 5.346-2.077 9.924m.768-26.112c-1.095-2.52-2.056-4.76-2.837-6.747 2.147.265 3.913 1.507 5.243 3.722.776 1.293 1.711 3.303 2.794 5.628 3.526 7.578 8.822 18.924 17.451 25.113-8.93 2.265-12.558-4.518-22.651-27.716"/></svg>