<svg xmlns="http://www.w3.org/2000/svg" viewBox="0 0 64 64" enable-background="new 0 0 64 64"><path d="m13.667 17.103c0-1.039-.836-1.845-1.87-1.845-1.033 0-1.871.807-1.871 1.845 0 1.037.838 1.844 1.871 1.844 1.034 0 1.87-.807 1.87-1.844"/><path d="m20.943 18.947c1.033 0 1.871-.807 1.871-1.844 0-1.039-.838-1.845-1.871-1.845-1.036 0-1.872.807-1.872 1.845 0 1.037.836 1.844 1.872 1.844"/><path d="m19.641 23.154c.156-.288-.053-.576-.283-.403-1.925 1.499-4.062 1.499-5.978 0-.23-.173-.439.115-.281.403.583 1.096 1.762 2.016 3.271 2.016 1.507 0 2.688-.92 3.271-2.016"/><path d="m60.325 42.844l-6.487-12.139h5.839c0 0 0-13.98 0-16.033 0-15.394-26.527-15.394-26.527 0 0 2.053 0 16.033 0 16.033h5.667l-5.865 10.447-7.277-11.834c-.511-.803-1.14-1.246-1.771-1.246h-4.215v-.221c3.234-1.27 6.881-4.063 7.567-7.661 1.213-.218 2.485-1 2.485-3.318 0-2.135-.837-2.743-1.528-2.885-.085-8.376-2.232-11.927-11.741-11.984-9.603-.112-12.149 3.598-12.252 12.081-.608.259-1.22.964-1.22 2.789 0 2.317 1.272 3.1 2.483 3.318.675 3.54 4.216 6.301 7.41 7.598v.283c0 0-3.736-.002-4.22 0-1.029.006-1.841.723-2.066 1.828l-2.766 13.539h-.001l-.097.471c-.003.014-.004.025-.007.039l-.096.471.009.002c-.206 1.229-.143 1.986.203 2.482.354.508.925.6 1.229.648.175.029.344.049.509.049 1.083 0 1.703-.863 2.138-2.975l.984-3.709.131 2.021v19.062h6.505v-2.74l-.014-.016.002-.807c.02-8.445.531-10.166.733-10.914h.443c.21.773.72 2.51.738 10.912l.002.805-.017.02v2.74h6.504v-19.068l.399-6.908 5.826 7.477c.094 1.98 1.539 3.023 2.98 3.023h.001c.751 0 1.454-.27 1.977-.758.549-.514.844-1.225.881-2.053l4.407-6.957c-.148 1.172-.326 2.398-.567 3.625-1.238 6.314-3.5 10.281-3.523 10.32l-.432.75h5.073l.005 7.035c-.424.145-.826.352-1.11.66l-.131.145v2.709h6.629v-2.709l-.131-.145c-.281-.307-.682-.514-1.104-.658l-.002-7.037h3.188l.008 7.033c-.427.145-.829.352-1.114.662l-.131.145v2.709h6.629v-2.711l-.132-.143c-.251-.273-.635-.494-1.105-.658v-7.037h4.877l-.433-.75c-.022-.039-2.28-4.002-3.525-10.322-.182-.922-.327-1.848-.45-2.74l3.52 6.039.193.332c.004.006.007.012.011.018l.214.367.008-.004c.875 1.412 1.582 2.008 2.385 2.008.325 0 .611-.102.871-.211.283-.119.809-.34 1.001-.91.187-.555-.013-1.317-.607-2.434m-53.919-23.153l-.051-.391-.394-.036c-1.363-.126-1.971-.863-1.971-2.392 0-1.292.309-1.947.916-1.947.027 0 .057.001.087.003.099.52.197.836.307 1.007.326.66.955.952 1.026.983l.816.359-.126-.878c-.002-.01-.135-.958-.087-2.204.295-4.308.591-4.671 1.425-4.671.419 0 1.002.113 1.738.257 1.442.281 3.418.666 6.277.666 2.86 0 4.836-.385 6.279-.666.735-.144 1.318-.257 1.737-.257.835 0 1.129.362 1.421 4.657.048 1.26-.085 2.208-.087 2.218l-.126.879.817-.36c.07-.031.698-.323 1.004-.943.127-.206.228-.521.328-1.047.687-.042 1.006.592 1.006 1.944 0 1.528-.608 2.266-1.973 2.392l-.391.036-.051.391c-.637 4.85-7.314 7.928-9.963 7.928-2.65 0-9.329-3.078-9.964-7.928m9.964 8.911c.688 0 1.517-.152 2.402-.426v.395c0 .539-1.061 1.143-2.479 1.143-1.421 0-2.482-.604-2.482-1.143v-.445c.943.304 1.829.476 2.559.476m-10.778 18c-.115.018-.227-.016-.347-.035-.34-.055-.481-.113-.563-.23-.127-.182-.226-.635-.038-1.754l1.896.309.093.014c-.415 1.692-.848 1.696-1.041 1.696m8.748 14.398h-4.488v-1.34c.418-.328 1.283-.541 2.245-.541.961 0 1.826.213 2.243.541v1.34m8.391 0h-4.487v-1.34c.417-.328 1.282-.541 2.244-.541s1.826.213 2.243.539v1.342m7.873-18.314l-7.315-9.391-.529 9.129h-12.94l-.5-7.725-2.451 9.23-.731-.119-1.303-.21 2.761-13.502c.154-.752.661-1.023 1.084-1.025.534-.002 4.214-.002 4.214-.002.358.953 1.724 1.643 3.399 1.643 1.674 0 3.037-.689 3.396-1.641h4.215c.257 0 .617.307.914.773l7.43 12.08-1.644.76m3.629 2.351c-.336.314-.793.486-1.286.486h-.001c-.921 0-1.85-.592-1.976-1.904l.513-.236 1.457-.674.338.203 1.519.908c-.05.5-.243.916-.564 1.217m10.914 14.666v1.297h-4.613v-1.297c.431-.322 1.319-.531 2.308-.531.987 0 1.876.209 2.305.531m-3.376-8.252h2.139l.002 6.799c-.46-.064-.862-.078-1.07-.078s-.607.014-1.065.078l-.006-6.799m10.719 8.252v1.297h-4.611v-1.297c.429-.322 1.317-.531 2.305-.531s1.877.209 2.306.531m-3.374-8.252h2.138v6.797c-.336-.049-.694-.076-1.07-.076-.207 0-.604.012-1.061.076l-.007-6.797m.28-23.435h-.504v.844c-.009.535-1.072 1.133-2.481 1.133-1.419 0-2.478-.602-2.478-1.141v-.836h-.504c-3.927-.469-6.544-2.139-7.163-6.806-1.818-.125-2.355-1.293-2.355-2.719 0-3.732 2.81-1.838 2.81-1.838s5.772-5.713 17.152-5.713c0 0 2.438.435 2.232 5.713 0 0 2.807-1.894 2.807 1.838 0 1.426-.538 2.594-2.348 2.719-.624 4.669-3.237 6.339-7.168 6.806m10.581 16.943c-.036.105-.151.186-.438.307-.188.08-.341.133-.478.133-.369 0-.855-.473-1.449-1.404l1.795-.76c.612 1.128.623 1.562.57 1.724"/><path d="m43.639 17.679c0-1.055-.85-1.875-1.9-1.875-1.052 0-1.903.82-1.903 1.875 0 1.055.852 1.875 1.903 1.875 1.05 0 1.9-.82 1.9-1.875"/><path d="m51.035 15.804c-1.052 0-1.901.82-1.901 1.875 0 1.055.85 1.875 1.901 1.875 1.053 0 1.903-.82 1.903-1.875 0-1.055-.85-1.875-1.903-1.875"/><path d="m49.424 23.422c-1.957 1.523-4.129 1.523-6.076 0-.234-.176-.447.176-.287.469.593 1.055 1.791 1.99 3.325 1.99s2.733-.936 3.326-1.99c.159-.293-.054-.645-.288-.469"/></svg>