<svg xmlns="http://www.w3.org/2000/svg" viewBox="0 0 64 64" enable-background="new 0 0 64 64"><path d="m7.471 19.293c.492-.262.676-.922.408-1.475-.266-.55-.879-.791-1.371-.529-.488.26-.672.92-.406 1.473.265.551.877.789 1.369.531"/><path d="m25.189 18.893c.004-.152.025-.309.049-.463-2.225 1.293-3.961-.242-3.244-3.299-.998-.006-1.668.369-2.527 1.498 1.877.477 2.445 1.699 1.758 2.754.387.184 1.092.609 1.422 1.596.619-.952 1.433-1.801 2.542-2.086"/><path d="m42.775 19.383c-.688-1.055-.117-2.277 1.76-2.754-.859-1.129-1.531-1.504-2.529-1.498.719 3.057-1.02 4.592-3.244 3.299.025.154.047.311.051.463 1.107.285 1.924 1.135 2.543 2.086.33-.987 1.033-1.413 1.419-1.596"/><path d="m32 13.133c.207-.303.455-.719.652-1.211-.229-.043-1.074-.043-1.303 0 .2.492.446.908.651 1.211"/><path d="m20.205 18.922c.34-.271.334-.992-.953-1.396-.025 1.4.627 1.658.953 1.396"/><path d="m25.621 21.152l-.369-1.18c0 0-1.297.627-1.619 1.352.992.289 1.988-.172 1.988-.172"/><path d="m27.188 16.787c-.705.814-.961 1.916-.961 1.916l1.152.24c0 0 .187-1.142-.191-2.156"/><path d="m27.771 20.498l-.773.941c0 0 .918.871 1.773.957-.234-1.105-1-1.898-1-1.898"/><path d="m26.961 15.58c-.193-.322.109-.686.336-1.244-2.473 1.072-2.424-1.223-2.092-2.051.23-.578 1.137-.34.977.271-.436 1.646 1.25 1.238 1.002.063-.35-1.654-3.16-1.879-3.924 1.611 2.43.443 2.629 1.291 2.738 2.383.381-.527.783-.886.963-1.033"/><path d="m24.963 17.314c.486-1.057-.09-1.975-1.963-2.055-.803 3.257 1.584 2.882 1.963 2.055"/><path d="m53.633 13.91c-.244-.729-.855-1.105-.855-1.105l-.219.828c0 0 .533.39 1.074.277"/><path d="m45.686 19.844c.615.271 1.561.002 1.561.002l-.217-.947c-.001-.001-.774.191-1.344.945"/><path d="m13.094 8.672c.033.053.941 1.551.537 3.289 1.461 1.299 1.381 2.736 1.289 2.969.238.004 1.68 1.027 2.07 2.887.777.023 1.27.553 1.27.553-.275-2.236 1.357-4.395 3.982-4.281.676-3.891 5.146-5.186 5.947-1.357.6-.93 1.732-1.697 1.732-1.697-.351-1.928 1.239-5.035 2.079-5.035.842 0 2.432 3.107 2.078 5.033 0 0 1.133.768 1.732 1.697.803-3.828 5.271-2.533 5.947 1.357 2.625-.113 4.258 2.045 3.982 4.281 0 0 .494-.529 1.271-.553.391-1.859 1.83-2.883 2.068-2.887-.09-.232-.17-1.67 1.291-2.969-.404-1.738.504-3.236.535-3.289.102-.168.293-.229.475-.215-3.414-2.004-6.541-1.926-6.541-1.926s-1.139-4.529-12.838-4.529c-8.336 0-14.914 2.439-19.602 6.529.213-.133.547-.099.696.143"/><path d="m8.553 17.029c.244-.875.695-1.607 1.264-2.117-.566.018-.768-.344-.648-.74.221-.746.51-1.537 1.916-2.471.008-1.434.932-2.738 1.168-3.045-2.375 2.107-4.264 4.637-5.623 7.506.708-.096 1.468.238 1.923.867"/><path d="m12.311 8.584c-.006.006-.029.033-.059.072.049-.043.098-.084.146-.127-.029.02-.064.03-.087.055"/><path d="m54.834 14.172c.117.396-.084.758-.648.74.566.51 1.018 1.242 1.262 2.117.578-.797 1.641-1.125 2.475-.701-1.602-3.869-3.908-6.219-6.145-7.633.273.363 1.131 1.625 1.139 3.006 1.405.934 1.694 1.725 1.917 2.471"/><path d="m51.283 11.33l.609-.043c0 0-.096-.871-.451-1.299-.281.565-.158 1.342-.158 1.342"/><path d="m50.379 15.285c-.221.037-.717.055-.717.055s.152.311.266.793c.051-.133.347-.705.451-.848"/><path d="m50.766 12.998c0 0-.482.477-.596 1.258.545.002 1.01-.482 1.01-.482l-.414-.776"/><path d="m49.912 21.111c-.17-.855-.66-1.545-.66-1.545l-.66.682c0 0 .648.674 1.32.863"/><path d="m48.924 16.297c-.646.486-.869 1.434-.869 1.434l.883.262c0-.001.207-.95-.014-1.696"/><path d="m32 7.404c-.49 0-1.127 2.5-.961 3.367h1.924c.164-.867-.473-3.367-.963-3.367"/><path d="m43.797 18.922c.324.262.977.004.951-1.396-1.287.404-1.293 1.124-.951 1.396"/><path d="m27.984 16.066c0 0 .447.779.463 1.553.135-.92.799-1.594.799-1.594l-1.262.041"/><path d="m16.971 18.898l-.217.947c0 0 .945.27 1.561-.002-.571-.753-1.344-.945-1.344-.945"/><path d="m15.41 20.248l-.66-.682c0 0-.492.689-.662 1.545.674-.189 1.322-.863 1.322-.863"/><path d="m14.338 15.34c0 0-.496-.018-.717-.055.104.143.4.715.453.848.112-.483.264-.793.264-.793"/><path d="m15.078 16.297c-.223.746-.014 1.695-.014 1.695l.883-.262c0 0-.224-.947-.869-1.433"/><path d="m11.223 12.805c0 0-.609.377-.855 1.105.543.113 1.076-.277 1.076-.277l-.221-.828"/><path d="m12.561 9.988c-.355.428-.453 1.299-.453 1.299l.611.043c0 0 .123-.777-.158-1.342"/><path d="m13.234 12.998l-.412.775c0 0 .463.484 1.01.482-.115-.78-.598-1.257-.598-1.257"/><path d="m36.229 20.498c0 0-.764.793-1 1.898.855-.086 1.773-.957 1.773-.957l-.773-.941"/><path d="m36.016 16.066l-1.26-.041c0 0 .662.674.797 1.594.015-.773.463-1.553.463-1.553"/><path d="m40.367 21.324c-.322-.725-1.617-1.352-1.617-1.352l-.371 1.18c0 0 .996.461 1.988.172"/><path d="m28.125 15.012c1.889.064 3.16-.947 3.16-.947l-.953-1.785c0-.001-1.951 1.281-2.207 2.732"/><path d="m35.875 15.012c-.256-1.451-2.207-2.732-2.207-2.732l-.951 1.785c0-.001 1.271 1.011 3.158.947"/><path d="m39.037 17.314c.381.826 2.766 1.201 1.965-2.055-1.875.081-2.451.999-1.965 2.055"/><path d="m40.74 14.23c-.764-3.49-3.574-3.266-3.924-1.611-.248 1.176 1.439 1.584 1.004-.063-.162-.611.746-.85.975-.271.332.828.383 3.123-2.09 2.051.225.559.527.922.334 1.244.18.146.584.506.963 1.033.109-1.092.311-1.939 2.738-2.383"/><path d="m36.813 16.787c-.377 1.014-.191 2.156-.191 2.156l1.154-.24c-.001 0-.258-1.101-.963-1.916"/><path d="m57.492 17.289c-.49-.262-1.104-.021-1.371.529-.266.553-.082 1.213.41 1.475.49.258 1.104.02 1.369-.531.266-.553.082-1.213-.408-1.473"/><path d="m44.502 22.445c.576-.787.553-1.824-.055-2.313-.609-.49-1.568-.246-2.145.539-.578.787-.551 1.824.055 2.313.608.493 1.571.248 2.145-.539"/><path d="m53.023 20.961c1.092-.17 1.805-1.557 1.586-3.096-.217-1.539-1.281-2.648-2.375-2.477-1.096.17-1.809 1.555-1.592 3.096.219 1.539 1.286 2.647 2.381 2.477"/><ellipse cx="32" cy="19.23" rx="3.033" ry="3.822"/><path d="m19.498 22.445c.576.787 1.537 1.031 2.145.539.607-.488.633-1.525.057-2.313-.578-.785-1.537-1.029-2.146-.539-.607.489-.632 1.526-.056 2.313"/><path d="m9.393 17.865c-.221 1.539.492 2.926 1.586 3.096 1.096.17 2.16-.938 2.379-2.477.217-1.541-.494-2.926-1.59-3.096-1.094-.171-2.159.938-2.375 2.477"/><path d="m58.844 19.031c-.023.064-.039.129-.068.191-.633 1.383-2.426 1.498-3.301.52-.406 2.227-2.727 3.096-4.525 1.594.281.967-1.352 1.029-3.232-.551-.584.359-1.662.342-2.102.129.07 1.174-.516 3.086-2.561 3.086-1.404 0-1.957-1.01-1.859-1.813-.828.336-2.285.568-3.361-.139-2.098 1.82-3.623 2.076-3.684 1.035-.611.52-1.352.828-2.15.828-.797 0-1.537-.309-2.15-.828-.061 1.041-1.586.785-3.684-1.035-1.076.707-2.533.475-3.359.139.096.803-.458 1.813-1.861 1.813-2.047 0-2.633-1.912-2.561-3.086-.441.213-1.52.23-2.104-.129-1.879 1.58-3.514 1.518-3.232.551-1.797 1.502-4.119.633-4.525-1.594-.828.926-2.466.858-3.177-.322-.891 2.82-1.348 5.879-1.348 9.107v33.473h56v-33.473c0-3.783-.437-6.902-1.156-9.496m-7.026 22.108c-.058 9.002-12.351 19.861-19.818 19.861s-19.969-10.859-19.969-19.861c0 0-4.031-1.031-4.031-6.998 0-2.131.619-3.461 1.297-4.285.676.617 1.448.941 2.29 1.084-.274.838-.074 1.578.105 2.223.219.713.554 1.352.915 1.963.362.609.785 1.176 1.24 1.713.474.502.944 1.086 1.622 1.316-.304-.166-.486-.469-.686-.738-.195-.277-.368-.57-.535-.863-.34-.586-.624-1.199-.889-1.811-.254-.615-.467-1.246-.597-1.861-.11-.502-.115-1.018-.009-1.377.594-.229 1.211-.426 1.834-.607.743-.096 1.508-.225 2.28-.338-.688.791-1.12 1.811-1.12 2.943 0 2.484 2.013 4.5 4.5 4.5 2.482 0 4.5-2.016 4.5-4.5 0-.521-.105-1.012-.269-1.477 1.03.922 1.971 2.291 2.769 4.314-2.24-13.643-13.397-4.652-17.937-6.502.822-.986 1.727-1.234 1.727-1.234 10.895 0 35.26-4.705 35.26-4.705s.092 3.047 6.566 4.705c0 0 1.069.205 1.959 1.359-4.744 1.279-15.393-6.914-17.575 6.377.798-2.023 1.738-3.393 2.769-4.314-.163.465-.269.955-.269 1.477 0 2.484 2.018 4.5 4.5 4.5 2.487 0 4.5-2.016 4.5-4.5 0-1.133-.432-2.152-1.12-2.943.767.113 1.524.24 2.263.336.629.182 1.253.379 1.852.609.106.359.102.875-.009 1.377-.13.615-.343 1.246-.597 1.861-.265.611-.549 1.225-.889 1.811-.167.293-.34.586-.535.863-.199.27-.382.572-.686.738.678-.23 1.148-.814 1.622-1.316.455-.537.878-1.104 1.24-1.713.361-.611.696-1.25.915-1.963.18-.645.38-1.385.105-2.223.727-.123 1.398-.391 2.004-.855.596.825 1.088 2.095 1.088 4.056 0 5.966-4.182 6.998-4.182 6.998"/><path d="m32.249 47.002c4.18-.002 6.271-3 4.18-3-2.09 0-6.27 0-8.36 0-2.09 0-.001 3 4.18 3"/><path d="m36.194 50.115c-2.945-1.113-3.944.656-3.944.656s-1.001-1.77-3.945-.656c-2.302.871-6.068.355-6.055.359 5.999 8.525 13.999 8.525 19.999 0 .014-.003-3.754.512-6.055-.359"/></svg>