<svg xmlns="http://www.w3.org/2000/svg" viewBox="0 0 64 64" enable-background="new 0 0 64 64"><path d="m60.985 33.653c-1.303-1.516-2.152-1.709-3.5-.789-.632.432-1.648 1.12-4.208 1.022.085-1.651.166-3.357.241-5.172.031-.724.055-1.273.07-1.609.352-6.754-2.137-13.46-6.826-18.398-4.105-4.324-9.349-6.707-14.765-6.707-5.418 0-10.662 2.383-14.768 6.707-4.688 4.938-7.176 11.645-6.826 18.398.02.343.043.907.072 1.651.074 1.792.155 3.476.239 5.108-2.55.102-3.563-.579-4.192-1.007-1.346-.912-2.197-.721-3.506.802-1.025 1.195-1.291 2.842-.725 4.519 1.035 3.07 4.377 5.72 9.211 7.437.751 8.43 1.73 13.334 2.992 15.073.632.872 1.398 1.312 2.275 1.312 1.314 0 2.496-1.012 3.748-2.084 1.271-1.088 2.584-2.213 3.887-2.213 1.455 0 2.162.78 3.057 1.768.98 1.08 2.197 2.424 4.541 2.424 2.34 0 3.557-1.344 4.535-2.423.895-.988 1.602-1.769 3.061-1.769 1.299 0 2.611 1.125 3.883 2.213 1.248 1.072 2.432 2.084 3.747 2.084.877 0 1.641-.441 2.271-1.313 1.264-1.747 2.244-6.654 2.993-15.086 5.54-1.997 8.388-5.01 9.212-7.462.568-1.691.313-3.285-.719-4.486m-1.177 3.85c-.795 2.364-4.377 5.698-11.855 7.313-.541.116-.883.648-.768 1.188.102.469.516.789.977.789.07 0 .141-.007.213-.022.717-.155 1.392-.33 2.046-.514-.828 8.859-1.777 12.202-2.542 13.258-.352.485-.576.485-.65.485-.576 0-1.57-.853-2.447-1.604-1.475-1.263-3.145-2.693-5.184-2.693-2.346 0-3.564 1.345-4.543 2.426-.895.986-1.6 1.766-3.053 1.766-1.457 0-2.164-.78-3.059-1.768-.979-1.08-2.197-2.424-4.539-2.424-2.041 0-3.713 1.431-5.188 2.693-.877.752-1.873 1.604-2.447 1.604-.074 0-.301 0-.654-.486-.762-1.051-1.711-4.388-2.537-13.247.662.184 1.339.354 2.043.505.07.015.141.021.209.021.463 0 .877-.321.979-.792.113-.54-.23-1.071-.771-1.187-7.471-1.592-11.053-4.914-11.85-7.275-.24-.712-.375-1.736.348-2.576.32-.372.508-.543.607-.619.078.047.178.115.258.17 1.16.785 3.318 2.25 10.084.631.537-.129.869-.668.74-1.205s-.666-.867-1.205-.74c-.859.206-1.62.352-2.311.459-.081-1.576-.159-3.221-.232-4.986-.031-.752-.057-1.324-.074-1.671-.322-6.209 1.967-12.375 6.279-16.918 3.725-3.923 8.453-6.083 13.316-6.083 4.861 0 9.592 2.16 13.316 6.083 4.313 4.543 6.602 10.709 6.277 16.918-.018.341-.039.897-.068 1.63-.074 1.791-.154 3.457-.235 5.053-.683-.104-1.433-.247-2.278-.447-.543-.125-1.076.206-1.205.743-.127.538.207 1.076.744 1.204 6.754 1.593 8.908.123 10.066-.669.08-.055.178-.122.256-.17.1.078.283.246.596.61.71.827.577 1.842.341 2.547"/><path d="m41.403 16.707c-3.759 0-6.816 3.412-6.816 7.606 0 4.191 3.058 7.601 6.816 7.601 3.76 0 6.818-3.409 6.818-7.601.001-4.194-3.058-7.606-6.818-7.606m0 13.707c-2.932 0-5.316-2.736-5.316-6.101 0-3.367 2.385-6.106 5.316-6.106 2.933 0 5.318 2.739 5.318 6.106.001 3.365-2.385 6.101-5.318 6.101"/><path d="m41.403 19.811c-2.199 0-3.984 2.011-3.984 4.499 0 2.484 1.785 4.501 3.984 4.501s3.982-2.017 3.982-4.501c.001-2.489-1.782-4.499-3.982-4.499"/><path d="m34.261 22.286c0-5.455-4.146-9.893-9.244-9.893-5.095 0-9.24 4.438-9.24 9.893 0 5.449 4.146 9.882 9.24 9.882 5.097 0 9.244-4.433 9.244-9.882m-16.985 0c0-4.628 3.473-8.393 7.74-8.393 4.271 0 7.744 3.765 7.744 8.393 0 4.622-3.474 8.382-7.744 8.382-4.267 0-7.74-3.76-7.74-8.382"/><path d="m30.595 22.28c0-3.317-2.498-6-5.578-6s-5.576 2.683-5.576 6c0 3.314 2.496 6 5.576 6s5.578-2.685 5.578-6"/><path d="m20.624 35.367c0 2.238 1.419 4.303 3.688 5.793-.087.701-.088 1.585-.088 2.679 0 5.471 3.329 9.006 8.482 9.006 5.154 0 8.484-3.535 8.484-9.01 0-1.194-.001-2.037-.078-2.68 2.262-1.491 3.678-3.553 3.678-5.788 0 0-5.754 1.284-12.084 1.284s-12.082-1.284-12.082-1.284m12.082 15.978c-3.376 0-6.982-1.972-6.982-7.506 0-3.304 0-3.304 1.091-3.304.419 0 .936.035 1.574.078.814.055 1.871.123 3.165.152l1.152 8.688 1.152-8.688c1.295-.029 2.354-.098 3.168-.152.639-.043 1.155-.078 1.574-.078.805 0 .854.126.911.272.179.455.179 1.479.179 3.031 0 5.535-3.608 7.507-6.984 7.507"/></svg>