<svg xmlns="http://www.w3.org/2000/svg" viewBox="0 0 64 64" enable-background="new 0 0 64 64"><path d="m60.837 36.945l.498-5.47c0-7.263-1.399-13.073-6.523-16.893-2.804-5.609-9.053-12.581-22.818-12.582-13.758 0-20.004 6.973-22.806 12.583-5.124 3.819-6.523 9.63-6.523 16.893l.498 5.47c-.691.683-1.163 1.743-1.163 3.3 0 4.176 2.442 4.737 3.444 4.791.498 8.317 8.857 16.963 26.557 16.963 18.793 0 26.05-9.859 26.553-16.962.614-.028 1.435-.214 2.138-.877.869-.818 1.308-2.136 1.308-3.915 0-1.557-.472-2.617-1.163-3.301m-1.17 6.134c-.672.632-1.655.442-1.658.443l-.919-.22v.943c0 6.538-6.682 16.267-25.089 16.267s-25.088-9.728-25.088-16.266l-.007-.925-.906.2c-.001.001-.153.033-.378.033-1.761 0-2.131-1.799-2.131-3.308 0-2.34 1.249-2.831 2.296-2.831.105 0 .175.007.187.008l.19.024.18-.069c2.273-.892 3.791-2.253 4.513-4.044 1.396-3.471-.546-7.668-1.707-10.177-.295-.638-.601-1.296-.681-1.608.223-1.659 2.953-18.062 23.532-18.062 20.576.002 23.309 16.4 23.531 18.062-.081.313-.385.971-.681 1.608-1.161 2.508-3.105 6.706-1.708 10.177.721 1.791 2.239 3.152 4.513 4.044l.18.067.186-.021c.017-.002.087-.009.191-.009 1.047 0 2.296.491 2.296 2.831 0 1.335-.292 2.316-.842 2.833"/><path d="m32.001 46.423c-4.848 0-8.777 2.227-8.777 4.737 0 .337.074 1.178.211 1.178h2.961l.585-1.401.524 1.401h13.025c.158 0 .246-.878.246-1.243 0-2.509-3.928-4.672-8.775-4.672"/><path d="m32.067 9.329c2.328-.097 4.657-.042 6.987.116 2.333.17 4.659.487 7.043.873-2.121-1.154-4.453-1.918-6.837-2.381-2.387-.479-4.833-.622-7.261-.556-2.427.102-4.838.412-7.186.946-2.36.505-4.621 1.272-6.909 1.991 2.429.075 4.804-.285 7.15-.494 2.351-.22 4.682-.435 7.013-.495"/><path d="m32.055 13.438c2.84-.097 5.679-.043 8.52.114 2.844.17 5.681.485 8.563.876-2.665-1.173-5.51-1.93-8.396-2.39-2.888-.475-5.823-.615-8.743-.549-2.92.102-5.826.407-8.684.943-2.864.502-5.647 1.273-8.453 1.995 2.922.076 5.799-.281 8.653-.492 2.857-.221 5.698-.436 8.54-.497"/><path d="m43.461 28.132c-3.442 0-6.396 2.071-7.682 5.036-2.671-.143-5.183-.017-7.466.23-1.229-3.086-4.243-5.267-7.771-5.267-4.618 0-8.366 3.734-8.366 8.345 0 4.608 3.748 8.346 8.366 8.346 4.619 0 8.368-3.737 8.368-8.346 0-.113-.014-.226-.018-.34 1.93-.197 4.022-.3 6.229-.213-.015.183-.03.365-.03.553 0 4.608 3.748 8.346 8.369 8.346 4.617 0 8.364-3.737 8.364-8.346.001-4.61-3.746-8.344-8.363-8.344m-22.919 13.907c-3.08 0-5.577-2.489-5.577-5.563 0-3.074 2.497-5.564 5.577-5.564s5.578 2.49 5.578 5.564c0 3.074-2.498 5.563-5.578 5.563m22.917 0c-3.08 0-5.578-2.489-5.578-5.563 0-3.074 2.498-5.564 5.578-5.564s5.578 2.49 5.578 5.564c0 3.074-2.498 5.563-5.578 5.563"/></svg>