<svg xmlns="http://www.w3.org/2000/svg" viewBox="0 0 64 64" enable-background="new 0 0 64 64"><path d="m46.984 11.522c.001-.04.011-.078.011-.118 0-5.195-6.719-9.404-15.004-9.404s-15.005 4.209-15.005 9.404c0 .039.01.076.01.115-15.551 5.963-18.401 20.97-11.343 28.008l.033 5.951c.001 8.224 8.263 16.522 26.725 16.522 16.437 0 25.865-6.021 25.865-16.522l-.005-5.867c7.162-7.005 4.328-22.102-11.287-28.089m3.295 27.562c0 3.313-2.681 6-5.986 6s-5.985-2.687-5.985-6 2.68-6 5.985-6 5.986 2.687 5.986 6m-18.288-33.14c5.712 0 10.666 2.005 13.199 4.95-3.738-1.192-8.116-1.899-13.199-1.899-5.542 0-12.083 1.541-13.198 1.896 2.535-2.943 7.488-4.947 13.198-4.947m-9.107 21.778c2.647-1.005 7.367-2.846 9.41-3.798 2.441 1.218 5.35 2.486 8.805 3.798 2.007.761 3.816 1.675 5.441 2.657-.72-.186-1.47-.295-2.246-.295-3.692 0-6.862 2.236-8.241 5.431-2.867-.151-5.563-.018-8.011.248-1.319-3.325-4.553-5.679-8.34-5.679-.786 0-1.543.111-2.269.301 1.628-.985 3.44-1.901 5.451-2.663m-3.182 5.362c3.306 0 5.986 2.687 5.986 6s-2.681 6-5.986 6c-3.304 0-5.984-2.687-5.984-6s2.68-6 5.984-6m12.709 26.949c-17.079 0-24.724-7.311-24.724-14.561l-.035-6.269c.847-1.138 2.302-2.896 4.385-4.784-.826 1.361-1.311 2.954-1.311 4.664 0 4.971 4.02 9 8.976 9 4.958 0 8.979-4.029 8.979-9 0-.124-.014-.245-.019-.367 2.072-.212 4.317-.323 6.684-.23-.013.199-.03.396-.03.598 0 4.971 4.021 9 8.979 9 4.956 0 8.978-4.029 8.978-9 0-1.704-.482-3.292-1.303-4.65 2.01 1.822 3.443 3.53 4.301 4.667l.006 6.378c-.002 9.249-8.699 14.554-23.866 14.554"/><path d="m38.158 49.423c.023.612.241 1.188.567 1.705-1.051.393-3.666 1.235-6.793 1.235-3.108 0-5.726-.83-6.799-1.228.328-.518.549-1.097.572-1.713-.776.814-1.459 1.479-2.24 2.121-.767.651-1.582 1.237-2.427 1.979.576.003 1.125-.149 1.639-.362.52-.213.997-.513 1.435-.866.133-.111.26-.233.384-.359.464 1.573 3.612 3.299 7.437 3.299 3.815 0 6.96-1.729 7.434-3.302.124.127.253.25.387.362.438.354.914.653 1.433.866.516.213 1.063.365 1.641.362-.846-.741-1.661-1.327-2.428-1.979-.784-.641-1.465-1.306-2.242-2.12"/></svg>