<svg xmlns="http://www.w3.org/2000/svg" viewBox="0 0 64 64" enable-background="new 0 0 64 64"><path fill-rule="evenodd" d="m59.293 23.164c-3.679-5.415-5.014-10.048-3.857-13.4 1.259-3.653 5.135-4.867 5.219-4.894.757-.222 1.195-1.028.981-1.805-.214-.779-1.005-1.23-1.764-1.01-.216.063-5.338 1.599-7.118 6.696-1.517 4.345-.105 9.756 4.193 16.085 1.846 2.715 2.53 5.439 2.037 8.099-.226 1.215-.681 2.327-1.236 3.321-2.295-19.162-17.245-29.96-25.748-29.96-6.544 0-23.381 8.967-25.766 29.935-.545-.98-.991-2.077-1.216-3.278-.499-2.665.185-5.396 2.034-8.117 4.299-6.329 5.709-11.741 4.193-16.085-1.78-5.097-6.901-6.632-7.117-6.695-.759-.22-1.549.231-1.764 1.01-.215.778.227 1.586.986 1.806.039.011 3.915 1.172 5.205 4.865 1.172 3.354-.158 7.997-3.848 13.427-2.306 3.393-3.145 6.873-2.494 10.342.571 3.047 2.199 5.518 3.743 7.271-.003.307-.018.604-.015.915.035 3.948.232 13.962 2.221 15.614 1.992 1.656 6.927-2.59 9.255-1.471 2.407 1.157 3.24 5.514 5.867 6.094 2.661.592 5.978-2.854 8.714-2.853 2.734-.001 6.056 3.446 8.717 2.854 2.623-.582 3.46-4.939 5.867-6.096 2.328-1.117 7.259 3.127 9.253 1.471 1.988-1.652 2.186-11.666 2.219-15.614.003-.308-.01-.607-.014-.911 1.544-1.755 3.174-4.227 3.745-7.275.652-3.468-.187-6.947-2.492-10.341m-27.293-7.735c8.035 0 10.874 2.103 10.267 3.202-1.276 2.308-2.232.457-10.267.457-8.035 0-8.993 1.851-10.268-.457-.607-1.099 2.233-3.202 10.268-3.202m-14.805 35.844c-.677 1.428-3.292 1.559-5.837.291-2.547-1.27-4.061-3.453-3.382-4.883.678-1.428 3.292-1.559 5.837-.289 2.545 1.268 4.059 3.454 3.382 4.881m3.162-6.777c-4.665-2.244-10.058-.161-6.75-8.151 1.071-2.588 5.524-.345 9.589 2.434-1.299.515-2.236 1.851-2.236 3.429 0 2.025 1.523 3.664 3.398 3.664s3.396-1.639 3.396-3.664c0-.008-.004-.018-.004-.027-1.263-1.014-2.842-2.226-4.492-3.358 3.795 2.603 7.233 5.653 7.233 5.653-2.078 5.015-5.471 2.266-10.134.02m1.376-18.852c-.608-1.1 2.232-3.201 10.268-3.201 8.035 0 10.874 2.101 10.267 3.201-1.277 2.306-2.233.457-10.268.457-8.035 0-8.993 1.849-10.267-.457m13.904 19.123c0 0 .705-1.338 1.8-3.2-.035.209-.062.422-.062.641 0 2.025 1.521 3.664 3.396 3.664 1.875 0 3.396-1.639 3.396-3.664 0-2.021-1.521-3.66-3.396-3.66-.691 0-1.335.225-1.867.606-.254.403-.497.796-.729 1.179 3.067-5.048 8.118-12.275 10.532-9.669 3.604 3.885 3.613 10.209.002 14.104-3.61 3.894-9.472 3.884-13.072-.001m1.842-3.273c.189-.322.392-.66.604-1.01-.213.35-.415.688-.604 1.01m15.162 10.07c-2.546 1.268-5.16 1.137-5.839-.291-.675-1.428.837-3.613 3.384-4.881 2.546-1.27 5.159-1.139 5.837.289.678 1.43-.835 3.614-3.382 4.883"/></svg>