<svg xmlns="http://www.w3.org/2000/svg" viewBox="0 0 64 64" enable-background="new 0 0 64 64"><path d="m32.002 6.631c7.838 0 15.072 2.652 20.87 7.105-2.301-6.575-8.461-11.736-20.871-11.736-12.402 0-18.564 5.152-20.869 11.725l.001.01c5.799-4.453 13.03-7.104 20.869-7.104"/><path d="m53.161 14.73c.063.22.193 2.541.212 4.779-5.508-5.465-13.048-8.852-21.371-8.852-8.339 0-15.895 3.4-21.404 8.883.015-2.219.139-4.52.198-4.73-7.541 13.371-8.796 47.19-8.796 47.19h60c0 0-1.261-33.952-8.839-47.27m-38.076 10.333c8.787 0 23.1-9.482 23.1-9.482s5.411 8.146 10.634 9.482c0 0 2.526.467 2.526 4.465 0 4.813-3.374 5.645-3.374 5.645-.023 3.92-2.927 8.273-6.539 11.452.004 0 .007.001.011.001-1.981 1.742-4.174 3.124-6.225 3.894.027-.306.059-.479.059-.479s-.653.299-1.534.827l-1.085-.765-.762.688-1.092-.991-1.099 1.032c-2.315-.661-4.905-2.196-7.214-4.206-.003 0-.006 0-.01 0-3.653-3.178-6.595-7.532-6.595-11.453 0 0-3.252-.832-3.252-5.645.001-3.811 2.451-4.465 2.451-4.465m20.706 26.3l-.546 1.27c-.039-.386-.057-.734-.062-1.045.202-.068.404-.145.608-.225m-27.046 9.637h-5.698c.256-5.109 1.642-27.837 6.543-41.098.001 1.281.052 2.523.194 3.382-1.514 1.218-2.397 3.072-2.397 5.095 0 1.788.707 3.474 1.929 4.682-.715 1.074-1.101 2.348-1.101 3.676 0 .59.076 1.169.228 1.731-1.63.989-2.454 2.895-2.454 5.681 0 4.379 1.913 6.287 3.894 7.09-.887 2.207-1.112 5.214-1.138 9.761m45.509 0h-13.96l.871-1.977c0-.109-.28-.215-.788-.31-1.229.856-3.913 2.124-5.721.048-1.894 2.065-5.448 2.054-7.304-.139-1.348 1.193-3.576 1.423-5.068.021-.773.113-1.213.242-1.213.38 0 .029.024.059.064.088l1.385 1.889h-12.772c0-.017 0-.033 0-.05.111-10.74 2.073-12.741 12.396-13.306 2.039 1.722 4.179 3.012 6.177 3.771l-.117.637c-1.146-.39-1.973-.527-1.973-.527s.342.485.671 1.298c-.4-.634-.671-.952-.671-.952s-.217.187-.521.501l-.684-.425-.651.918-.731-.813-.811 1.258-.728-.334-.197 1.151c-.748-.051-1.248-.015-1.248-.015.019.016 1.269 1.033 1.686 2.992.084.396.268.724.498 1.007.984.313 2.766.688 3.865-.509-.332-.674-.431-1.223-.431-1.223s.314.287.836.658c.924-1.381 1.401-2.75 1.401-2.75s.255 1.85-.473 3.343c1.182.681 2.801 1.315 4.367.946 2.432-1.682 4.099-4.293 4.099-4.293s-.233 2.332-1.528 4.052c2.129.751 3.962.501 5.114-.126.237-.273.458-.57.631-.914.971-1.926 2.082-2.846 2.082-2.846s-.637-.168-1.558-.295l.445-.932h-1.641l-.035-1.313-1.303.279-.594-1.039-1.207 1.023-.537-1.057c1.777-.781 3.637-1.958 5.416-3.477 10.379.562 12.35 2.562 12.461 13.313 0 .016 0 .032 0 .049m1.003 0c-.026-4.552-.252-7.563-1.14-9.771 1.971-.806 3.873-2.715 3.873-7.08 0-2.785-.825-4.691-2.456-5.681.151-.562.228-1.141.228-1.731 0-1.329-.385-2.602-1.1-3.675 1.222-1.208 1.928-2.894 1.928-4.683 0-2.022-.884-3.877-2.396-5.094.146-.875.193-2.148.19-3.458 4.922 13.251 6.312 36.056 6.569 41.173h-5.696"/><path d="m32.001 39.577c3.226-.002 4.839-2.314 3.226-2.314s-4.838 0-6.451 0-.001 2.314 3.225 2.314"/><path d="m44.735 29.159c0-.873-.334-1.66-.865-2.271.592.088 1.177.186 1.746.26.485.141.967.293 1.43.471.081.277.078.676-.007 1.063-.101.475-.265.961-.461 1.436-.204.473-.424.945-.687 1.398-.128.227-.261.451-.413.666-.153.207-.294.441-.528.57.522-.178.886-.629 1.252-1.018.352-.414.678-.85.957-1.322.279-.471.537-.963.706-1.514.139-.498.293-1.068.082-1.715.664-.111 1.274-.369 1.804-.867-3.473 1.51-12.154-5.541-13.891 5.035.614-1.563 1.341-2.619 2.136-3.33-.125.357-.207.736-.207 1.139 0 1.918 1.557 3.473 3.473 3.473 1.919-.001 3.473-1.556 3.473-3.474"/><path d="m26.213 29.159c0-.402-.082-.781-.207-1.139.795.711 1.521 1.768 2.136 3.33-1.736-10.576-10.418-3.525-13.891-5.035.529.498 1.14.756 1.804.867-.211.646-.057 1.217.082 1.715.169.551.427 1.043.706 1.514.279.473.605.908.957 1.322.366.389.729.84 1.252 1.018-.234-.129-.375-.363-.528-.57-.151-.215-.285-.439-.413-.666-.263-.453-.482-.926-.687-1.398-.196-.475-.359-.961-.461-1.436-.085-.387-.088-.785-.007-1.063.459-.176.935-.33 1.416-.469.573-.074 1.163-.174 1.76-.262-.531.611-.865 1.398-.865 2.271 0 1.918 1.555 3.473 3.474 3.473 1.915.001 3.472-1.554 3.472-3.472"/><path d="m35.046 41.981c-2.273-.859-3.044.506-3.044.506s-.772-1.365-3.045-.506c-1.777.672-4.684.273-4.673.277 4.63 6.58 10.804 6.58 15.434 0 .011-.003-2.896.395-4.672-.277"/></svg>