<svg xmlns="http://www.w3.org/2000/svg" viewBox="0 0 64 64" enable-background="new 0 0 64 64"><path d="M32,2C15.791,2,5,13.123,5,30.607C5,54.065,32,62,32,62s27-7.935,27-31.393C59,13.123,48.207,2,32,2z M44.143,52.996
		C39.039,56.739,33.848,58.73,32,59.369c-4.086-1.415-24.5-9.46-24.5-28.762C7.5,14.748,17.117,4.5,32,4.5s24.5,10.248,24.5,26.107
		C56.5,39.448,52.342,46.981,44.143,52.996z"/><path d="m42.303 45.452c-.311 0-.662.176-1.301.494-1.527.765-4.371 2.187-9.004 2.187-4.629 0-7.475-1.422-9.002-2.187-.637-.318-.988-.494-1.299-.494-.334 0-.672.229-.672.743 0 2.525 5.334 4.913 10.973 4.913 5.643 0 10.975-2.388 10.975-4.913 0-.513-.336-.743-.67-.743"/><path d="m26.084 37.71c1.633-1.607 1.688-4.359.43-7.146.005.005.011.009.016.014-.613-1.629-1.662-3.048-2.848-4.292-1.197-1.246-2.578-2.319-4.084-3.167-1.502-.854-3.129-1.471-4.799-1.848-1.666-.375-3.387-.502-5.074-.271 1.542.576 3.023 1.102 4.462 1.699-.847.188-1.597.562-2.19 1.146-2.482 2.443-1.338 7.524 2.553 11.354 3.889 3.826 9.055 4.951 11.534 2.511m-7.883-8.965c-1.99-1.247-3.076-3.086-2.42-4.106.662-1.021 2.814-.837 4.807.409 1.996 1.247 3.078 3.086 2.418 4.106-.656 1.022-2.807.838-4.805-.409"/><path d="m49.81 22.699c1.44-.597 2.921-1.122 4.462-1.699-1.688-.23-3.404-.105-5.072.271-1.67.377-3.299.992-4.799 1.847-1.506.847-2.887 1.921-4.082 3.166-1.189 1.246-2.236 2.665-2.85 4.293.005-.004.01-.008.015-.013-1.258 2.786-1.204 5.539.429 7.146 2.48 2.442 7.646 1.317 11.535-2.512 3.891-3.828 5.033-8.91 2.555-11.354-.595-.583-1.346-.958-2.193-1.145m-4.017 6.046c-1.994 1.246-4.146 1.43-4.807.407-.656-1.02.426-2.858 2.42-4.104 1.996-1.247 4.146-1.431 4.809-.408.656 1.02-.428 2.857-2.422 4.105"/></svg>