<svg xmlns="http://www.w3.org/2000/svg" viewBox="0 0 64 64" enable-background="new 0 0 64 64"><ellipse cx="20.037" cy="22.979" rx="2.695" ry="2.586"/><path d="m59.857 29.568c-.566-2.913-2.834-5.862-6.072-5.862-.512 0-1.029.078-1.537.232-1.721.522-3.326 1.438-4.877 2.325-.623.355-1.234.702-1.844 1.022-.002-.01-.002-.02-.003-.029.206-.519.331-1.075.331-1.663 0-.254-.037-.499-.078-.742.238-.667.628-1.312 1.225-1.908 8.205-8.208 7.131-11.555-1.361-11.555-10.317.001-20.985-9.388-29.799-9.388-2.449 0-4.758.726-6.873 2.582-7.631 6.694 5.037 14.246.908 15.81-4.895 1.854-7.059 4.979-5.236 10.077 3.449 9.652 5.25 5.238 6.139 16.729.888 11.505 2.419 14.802 6.318 14.802 2.613 0 6.291-1.48 11.555-2.967 2.464-.695 5.049-1.037 7.489-1.258.568.275 1.242.479 2.06.561 4.995.498 9.302 3.664 9.302 3.664-.547-2.111-1.18-3.865-1.865-5.318 1.84-.612 2.549-1.727 1.363-4.01-3.383-6.514-2.938-9.455 0-11.826 1.555-1.256 2.332-2.35 2.633-3.334 2.847-.244 5.391-.714 7.004-1.339 2.545-.985 3.806-3.578 3.218-6.605m-19.082-.827c-.051 0-.102-.007-.151-.008-1.298-.146-2.361-.99-2.768-2.132.108-.073.207-.16.294-.26.284.525.849.889 1.508.889.943 0 1.707-.734 1.707-1.637 0-.729-.499-1.338-1.186-1.551.619-.574 1.264-1.054 1.93-1.437 1.303.434 2.246 1.602 2.246 2.987 0 1.432-1.008 2.631-2.38 3.026-.396.073-.795.123-1.2.123m3.08-6.916c.227-.076.448-.163.684-.224.116-.03.236-.054.355-.08-.199.224-.387.452-.555.69-.151-.139-.314-.267-.484-.386m1.524 17.092c-1.369 1.105-2.242 2.299-2.749 3.552-2.099-1.515-5.688-2.1-9.233-2.435-.699-.065-1.408-.1-2.102-.1-4.545 0-8.561 1.392-11.02 3.818-1.58 1.561-2.408 3.46-2.393 5.491.027 4.129 1.994 4.998 3.637 4.998h.002c1.631 0 3.471-.92 5.6-1.982 1.898-.947 4.049-2.021 5.912-2.287 1.781-.252 3.301-.406 4.643-.543 1.969-.199 3.665-.371 4.873-.848.48 1.727 1.276 3.485 2.18 5.225.104.199.172.359.217.48-.149.058-.338.109-.547.16-2.794-4.27-6.047-4.621-7.846-4.014-1.992.674-3.05 3.059-2.445 5.042-2.021.235-4.126.581-6.162 1.155-1.594.451-3.055.902-4.344 1.303-2.826.875-5.059 1.566-6.504 1.566-1.119 0-2.809 0-3.773-12.49-.555-7.159-1.51-8.827-3.152-11.16-.861-1.224-1.838-2.611-3.123-6.207-1.037-2.907-.799-5.196 3.75-6.919 1.533-.58 2.098-1.659 2.297-2.25.65-1.919-.518-3.738-1.752-5.664-2.5-3.895-3.381-5.989-.672-8.365 1.512-1.326 3.156-1.944 5.17-1.944 3.658 0 8.023 2.028 12.646 4.176 5.514 2.563 11.217 5.213 17.152 5.213 3.178 0 4.186.515 4.424.676-.017.289-.239 1.371-2.294 3.828-.082-.06-.163-.124-.247-.166-.004-.002-.102-.043-.105-.045l-.232-.096c-.16-.062-.33-.118-.479-.16-.318-.094-.635-.163-.961-.214-.621-.096-1.264-.114-1.924-.061-1.248.11-2.504.507-3.633 1.147-1.1.622-2.113 1.495-2.936 2.528-.416.526-.777 1.084-1.078 1.66-.156.301-.299.608-.42.918-.063.155-.121.315-.193.533l-.141.492c-.025.1-.03.2-.034.3-.332-.537-.632-1.064-.876-1.5-.801-1.426-1.285-2.286-2.396-2.286-.141 0-.402.021-.679.143-.01-.086-.011-.173-.036-.258l-.236-.677c-.084-.2-.17-.401-.26-.585-.172-.367-.379-.739-.629-1.144-.445-.709-.979-1.391-1.588-2.031-1.191-1.242-2.652-2.289-4.223-3.026-1.588-.752-3.352-1.216-5.1-1.343-.895-.064-1.783-.043-2.664.069-.482.064-.912.145-1.297.24-.23.054-.453.116-.711.198l-.652.24c-.563.236-.93.778-.93 1.379v.16c0 .82.674 1.489 1.51 1.5.693.01 1.373.051 2.033.124.686.072 1.352.179 1.99.316.072.016.139.041.211.058-2.311 1.162-3.895 3.489-3.895 6.17 0 3.836 3.239 6.957 7.221 6.957.874 0 1.708-.157 2.483-.433-.898 1.815-.504 3.118-.013 3.892.633.993 1.75 1.594 2.914 1.92-.518-.066-1.029-.143-1.525-.235-1.891-.35-3.701-.877-5.395-1.571-1.709-.684-3.42-1.589-5.088-2.692-.768-.506-1.564-1.087-2.373-1.731-.74-.585-1.488-1.232-2.225-1.926-.596-.56-1.535-.556-2.129.007l-.139.137c-.469.447-.596 1.137-.316 1.717l.445.829c.152.256.311.509.477.75.305.454.652.916 1.066 1.423.73.876 1.572 1.724 2.508 2.521 1.805 1.531 3.912 2.804 6.086 3.68 2.174.88 4.498 1.402 6.727 1.511.279.012.559.019.834.019.852 0 1.684-.061 2.48-.182.6-.096 1.127-.208 1.588-.338.27-.072.535-.157.848-.268l.754-.311c.635-.292.984-.968.852-1.643l-.041-.212c-.139-.702-.766-1.211-1.496-1.215-.303-.001-.603-.015-.903-.024.785-.141 1.284-.508 1.474-1.104.803.752 1.862 1.33 3.05 1.779-.211.252-.347.578-.374.897-.047.579.33 1.178.842 1.468.029.016.139.07.17.084l.197.096c.141.064.289.128.408.172.275.106.551.194.834.271.535.146 1.1.242 1.688.289.234.018.469.026.703.026.906 0 1.797-.129 2.641-.381 1.036-.304 2.012-.812 2.838-1.46.102.001.207.003.305.003.448 0 .895-.011 1.34-.022-.302.354-.728.75-1.337 1.242m-2.988 5.38c.035.045.079.09.111.135.074.105.131.216.186.326.021.041.05.082.068.124.132.31.193.634.196.973.002.562-.247.938-.743 1.211.001.005.002.01.003.015-.514.283-1.292.454-2.343.596l-.764-5.17c1.704.487 2.724 1.092 3.286 1.79m-19.731-.541c.906-.612 1.975-1.119 3.158-1.501l1.236 8.354c-1.123.557-2.191 1.107-3.158 1.512l-1.236-8.365m.5 8.648c-2.213.77-3.721.42-3.746-3.172-.016-1.939.938-3.64 2.545-4.953l1.201 8.125m3.403-10.37c1.031-.276 2.139-.464 3.299-.548l1.1 7.443c-1.066.344-2.143.822-3.182 1.324l-1.217-8.219m4.07-.587c.852-.027 1.727-.004 2.617.08.27.025.531.053.787.08l.975 6.6c-.689.08-1.418.17-2.197.281-.365.053-.734.129-1.107.225l-1.075-7.266m4.195.252c1.354.167 2.502.365 3.469.596l.809 5.477c-.936.105-2.045.207-3.328.348l-.95-6.421m-12.42-23.685c1.141.528 2.268 1.225 3.35 2.071.496.387.998.824 1.5 1.307.18.17.357.352.535.533.07.341.109.693.109 1.054 0 3.009-2.566 5.457-5.721 5.457s-5.721-2.448-5.721-5.457c0-2.738 2.125-5.005 4.883-5.394.358.14.723.267 1.065.429m6.978 5.278c.136.038.274.063.415.063.213 0 .421-.06.621-.148-.01.085-.029.154-.035.247-.08 1.361-.629 1.91-1.725 2.573.424-.833.678-1.756.724-2.735m26.69 11.485c-2.162.838-6.389 1.421-10.703 1.421-5.455 0-11.055-.933-12.797-3.464-.732-1.062-1.635-1.455-2.381-1.455-1.508 0-2.359 1.612.213 2.536.473.17.1.311-.605.311-1.701 0-5.34-.814-3.75-3.993 1.48-2.963 5.615-2.343 5.861-6.594.025-.416.092-.595.201-.595.6-.001 2.449 5.326 5.326 6.576 1.123.488 2.185.697 3.204.714.124.01.242.036.368.036.417 0 .815-.067 1.201-.163 3.764-.659 6.977-3.671 10.486-4.736.371-.112.732-.165 1.084-.165 4.279 0 6.818 7.818 2.292 9.571"/></svg>