<svg xmlns="http://www.w3.org/2000/svg" viewBox="0 0 64 64" enable-background="new 0 0 64 64"><path d="m62 14.794c-3.9-.172-3.785-4.164-7.391-7.824-4.498-4.563-18.472-7.71-22.609-1.504-4.138-6.205-18.109-3.06-22.608 1.504-3.607 3.66-3.491 7.653-7.392 7.824 0 0 .124 3.828 3.991 6.382 0 0-4.056 5.867-3.375 14.084 0 0 1.636-3.997 5.462-4.749-4.506 3.781-.878 14.377-4.214 18.24 0 0 4.59-1.992 6.451-3.338-.729 5.924.873 8.234.873 11.133 4.087-1.344 5.659-7.377 5.659-7.377 0 7.467 2.584 7.203 2.584 11.171 0 0 5.531-2.713 7.393-6.45.742 3.524 3.252 5.905 5.176 8.11 1.924-2.205 4.434-4.586 5.176-8.11 1.861 3.737 7.393 6.45 7.393 6.45 0-3.968 2.584-3.704 2.584-11.171 0 0 1.572 6.033 5.66 7.377 0-2.898 1.602-5.209.873-11.133 1.861 1.346 6.451 3.338 6.451 3.338-3.336-3.863.291-14.459-4.215-18.239 3.826.752 5.463 4.749 5.463 4.749.68-8.217-3.375-14.084-3.375-14.084 3.867-2.554 3.99-6.383 3.99-6.383m-10.594-.696c.059.844-.239 1.922-.631 3.129-1.465-.214-2.824-.274-4.092-.227.258-.23.504-.477.723-.755 1.387-1.768 1.738-4.236 1.683-6.516 1.266.479 2.136 1.792 2.317 4.369m-10.177-2.709c2.684-1.328 4.746-5.027 5.879-6.699.516 2.472 1.093 8.17-.91 10.724-.939 1.197-2.354 1.798-4.279 1.836-1.168 0-2.33-.981-2.675-2.282-.183-.691-.355-2.42 1.985-3.579m-.848 32.298c.52.439.572 2.098 0 2.488-.619.424-2.563.424-3.182 0-.57-.391-.52-2.049 0-2.488.565-.477 2.621-.477 3.182 0m2.215-6.157c3.982 7.68 3.189 6.943-3.223 1.278-1.504-1.327 2.356-2.956 3.223-1.278m-4.953 2.43c-1.875 1.942-9.457 1.934-11.328-.017-.996-.729-1.131-2.193-.033-2.018 2.199.858 9.025 1.018 11.398.017 1.164-.244.965 1.291-.037 2.018m-1.918 5.35c-1.324.844-5.979.758-7.422 0-.697-.365-.049-1.918.584-2.33 1.313-.851 4.941-.851 6.254 0 .634.412 1.224 1.921.584 2.33m-12.104-1.623c.559-.477 2.617-.477 3.182 0 .518.438.57 2.098 0 2.488-.621.424-2.564.424-3.182 0-.574-.391-.519-2.05 0-2.488m-2.228-6.157c.869-1.68 4.727-.05 3.223 1.277-6.415 5.667-7.208 6.403-3.223-1.277m6.916-2.717c-4.033 0-2.717-3.441-.034-3.441.106 0 .214.006.324.018.269-1.134 1.079-5.418 1.022-6.378-.098-1.662 1.141-2.493 2.379-2.493s2.477.831 2.379 2.493c-.056.96.755 5.245 1.025 6.378.109-.012.217-.018.324-.018 2.68 0 3.996 3.441-.035 3.441-1.695 0-2.012 1.544-3.693 1.544-1.68-.001-1.997-1.544-3.691-1.544m-3.397-9.77c0-.068-.014-.126-.02-.191 1.283.591 2.332.752 3.085.592-.279 2.131-2.776 3.197-5.276 3.197-2.651 0-5.304-1.199-5.304-3.598 0-1.737.747-3.01 1.84-3.828.883.534 1.779 1.12 2.659 1.754-.78.275-1.404.966-1.404 2.074 0 2.947 4.42 2.947 4.42 0m18.598 0c0-1.108-.625-1.799-1.404-2.074.879-.634 1.775-1.22 2.658-1.753 1.093.817 1.84 2.09 1.84 3.828 0 2.398-2.652 3.598-5.304 3.598-2.499 0-4.997-1.066-5.275-3.197.753.16 1.802 0 3.085-.592-.006.065-.02.124-.02.192 0 2.945 4.42 2.945 4.42-.002m-17.295-9.737c.038-.146.061-.302.083-.457 3.204 2.602 5.704 5.167 5.704 5.167s2.5-2.568 5.702-5.167c.022.155.044.31.083.457.371 1.4 1.377 2.515 2.609 3.032-.453.19-.879.391-1.277.603-1.766.52-3.314 1.683-4.091 3.46-.05-.059-.086-.126-.14-.183-.719-.763-1.771-1.2-2.889-1.2-1.116 0-2.17.438-2.889 1.2-.053.056-.089.123-.139.182-.775-1.778-2.326-2.94-4.092-3.459-.396-.211-.822-.412-1.275-.603 1.233-.517 2.24-1.631 2.611-3.032m-9.32-10.616c1.133 1.673 3.195 5.371 5.879 6.699 2.34 1.158 2.168 2.888 1.984 3.578-.344 1.301-1.506 2.282-2.672 2.282-1.928-.038-3.346-.641-4.286-1.839-2-2.55-1.421-8.248-.905-10.72m-1.985 5.011c-.061 2.285.288 4.764 1.679 6.54.221.281.467.529.727.761-1.259-.048-2.61.011-4.065.222-.399-1.241-.706-2.347-.646-3.21.18-2.548 1.045-3.844 2.305-4.313m39.565 28.132c-.146.576-.885.58-1.246.58-.004 0-.006 0-.008 0-.678 0-1.789-.127-3.281-.346-.678 1.132-1.404 2.27-2.014 3.5 2.098-1.007 1.762-.168-1.168 3.354-.127.66-.207 1.352-.207 2.092 0 9.006-9.85 1.541-14.549 1.541-4.758 0-14.804 7.4-14.804-1.742 0-.787-.082-1.524-.226-2.223-2.565-3.113-2.886-3.928-1.084-3.106-.569-1.192-1.246-2.304-1.882-3.407-1.464.214-2.557.338-3.226.338-.001 0-.001 0-.001 0-.358 0-1.106 0-1.255-.58-.153-.603.41-1.105 3.065-2.615-.394-1.025-.655-2.099-.655-3.281 0-2.542 2.707-5.706 2.813-7.752.104-1.982-.543-4.051-1.153-5.907 1.111.496 2.616 1.213 4.264 2.134-1.18 1.075-1.962 2.622-1.962 4.631 0 3.002 2.798 5.098 6.804 5.098 2.002 0 3.703-.523 4.902-1.422-.079.438-.16.864-.234 1.243-1.153.233-2.145.905-2.701 1.87-.531.918-.555 1.975-.063 2.825.437.756 1.433 1.655 3.704 1.655.322 0 .492.119.939.463.371.286.871.665 1.558.89-13.71-.547-12.917-10.39-15.618-5.801-.504.857-.737 1.632-.807 2.355.567-.313 1.192-.655 1.888-1.036l.212-.116c.297-.164.6-.246.901-.246 1.156 0 1.946 1.188 2.04 2.336.102 1.225-.547 2.135-1.653 2.318-.834.14-1.603.266-2.31.377.995 1.576 2.34 3.052 2.725 4.848 1.051.598 2.324 1.348 3.846 2.244 2.035 1.197-.822 4.621-2.428 2.752-.376-.438-.715-.834-1.047-1.224 1.221 5.284 6.717-.069 13.447-.069 6.744 0 12.246 5.402 13.451.063-.333.392-.674.791-1.051 1.23-1.605 1.869-4.465-1.555-2.428-2.752 1.522-.896 2.797-1.648 3.85-2.247.395-1.821 1.75-3.276 2.742-4.84-.713-.113-1.49-.241-2.334-.382-1.105-.184-1.756-1.094-1.654-2.318.096-1.148.885-2.336 2.041-2.336.301 0 .604.082.9.246l.217.118c.691.379 1.312.719 1.876 1.029-.075-.714-.308-1.483-.8-2.342-2.643-4.625-1.93 5.245-15.617 5.793.687-.226 1.188-.604 1.559-.89.445-.344.617-.463.939-.463 1.155 0 2.096-.236 2.795-.702.803-.533 1.262-1.364 1.262-2.279 0-1.609-1.355-3.003-3.118-3.367-.077-.384-.157-.812-.236-1.247 1.2.899 2.901 1.424 4.904 1.424 4.005 0 6.804-2.096 6.804-5.098 0-2.009-.782-3.556-1.961-4.631 1.66-.93 3.177-1.651 4.291-2.146-.619 1.859-1.283 3.936-1.18 5.919.105 2.046 2.813 5.21 2.813 7.752 0 1.187-.265 2.257-.665 3.275 2.663 1.513 3.228 2.016 3.074 2.62"/></svg>