<svg xmlns="http://www.w3.org/2000/svg" viewBox="0 0 64 64" enable-background="new 0 0 64 64"><path d="M40.322,4.102C38.603,2.702,35.304,2,32,2c-3.302,0-6.601,0.701-8.32,2.101v21.41h16.643V4.102z"/><path d="m58.384 27.574l.532.284c-.526-10.28-5.193-18.535-16.979-21.388l.001 17.323c6.843.676 12.639 2.022 16.446 3.781"/><path d="m22.063 23.793l.002-17.323c-11.788 2.853-16.455 11.108-16.981 21.389l.532-.284c3.808-1.76 9.604-3.106 16.447-3.782"/><path d="M58,35.486V32h4c0-1.345-1.032-2.616-2.833-3.761c-2.343-0.574-9.126-2.125-17.229-2.933v1.717H22.063v-1.717
		c-8.105,0.808-14.892,2.358-17.231,2.935C3.031,29.384,2,30.655,2,32h4v3.486C4.496,36.193,3,37.79,3,41
		c0,3.981,2.302,5.506,4.064,5.893C8.271,55.282,26.084,62,32,62s23.729-6.718,24.936-15.107C58.698,46.506,61,44.981,61,41
		C61,37.79,59.504,36.193,58,35.486z M56,45h-1v1c0,7.037-16.911,14-23,14S9,53.037,9,46v-1H8c-0.122,0-3-0.046-3-4
		c0-3.834,2.701-3.994,3-4h1v-5h46v5h1c0.122,0,3,0.046,3,4C59,44.834,56.299,44.994,56,45z"/><path d="m25 38.558c0-.552-.113-1.073-.295-1.562 1.03.747 1.859 1.752 2.295 3.06 0-7.998-14-7.998-14-.998.652-1.632 2.162-2.72 3.963-3.252-.595.762-.963 1.71-.963 2.752 0 2.484 2.014 4.498 4.5 4.498 2.484 0 4.5-2.014 4.5-4.498"/><path d="m37 40.056c.436-1.308 1.265-2.313 2.295-3.06-.182.488-.295 1.01-.295 1.562 0 2.484 2.016 4.498 4.5 4.498 2.486 0 4.5-2.014 4.5-4.498 0-1.042-.368-1.989-.963-2.752 1.801.532 3.311 1.62 3.963 3.252 0-7-14-7-14 .998"/><path d="m40.1 49.708c-4.051 0-12.15 0-16.199 0-.9 0-.9.857-.9.857 0 3.43 4.5 5.143 9 5.143s9-1.713 9-5.143c-.001 0-.001-.857-.901-.857"/></svg>