<svg xmlns="http://www.w3.org/2000/svg" viewBox="0 0 64 64" enable-background="new 0 0 64 64"><path d="m32 12.305c5.521 0 10.002-.783 10.002-1.75 0-.965-4.48-1.664-10.002-1.664-5.523 0-10 .699-10 1.664 0 .966 4.477 1.75 10 1.75m0-1.914c1.893 0 3.475.079 4.754.196-1.305.13-2.898.218-4.754.218s-3.448-.088-4.754-.218c1.28-.117 2.861-.196 4.754-.196"/><path d="m60.679 28.014c-.18-.871-.776-1.86-2.413-2.421 2.575-2.964 4.623-6.263 3.342-8.286-.324-.51-.977-1.12-2.238-1.12-.513 0-1.105.104-1.773.309 1.603-4.02 1.738-6.614.396-7.732-.388-.323-.866-.494-1.388-.494-.684 0-1.481.32-2.392.955.623-2.685.688-5.145-.778-5.979-.285-.164-.597-.246-.927-.246-1.864 0-3.898 3.07-5.337 5.795-2.94-2.686-10.341-3.158-15.171-3.158-4.829 0-12.229.473-15.17 3.156-1.438-2.722-3.471-5.792-5.334-5.793h-.001c-.33 0-.643.082-.928.245-1.455.826-1.376 3.3-.779 5.923-1.017-.761-1.903-1.143-2.652-1.143-.001 0-.001 0-.001 0-.52 0-1 .17-1.387.493-1.362 1.138-1.201 3.797.473 7.924-.594-.17-1.124-.255-1.59-.255-1.262 0-1.912.609-2.237 1.122-1.306 2.058.839 5.439 3.484 8.448-1.335.578-1.839 1.475-2.001 2.252-.33 1.6.693 3.257 2.91 4.785-2.407 2.133-3.406 4.249-2.764 5.975.268.717 1.042 1.886 3.27 2.051-1.067 1.674-1.727 3.529-.868 4.985.288.485.996 1.295 2.528 1.295.521 0 1.114-.095 1.763-.278-.783 1.952-1.136 4.02.021 5.291.329.364.928.804 1.891.804.531 0 1.094-.138 1.66-.366-.656 2.54-.455 4.199.604 4.951.325.231.714.356 1.121.356.36 0 1.217 0 2.741-1.516.176 2.283.827 2.986 1.727 3.174.104.021.213.032.323.032.554 0 1.078-.225 1.604-.968.123.078.259.141.406.188.145.045.298.071.454.073.264 1.128.772 1.975 1.749 2.138.084.013.176.021.268.021 1.683 0 2.943-2.696 3.758-7.994 1.02.162 2.018.252 2.957.252s1.938-.09 2.958-.253c.813 5.299 2.074 7.995 3.759 7.995.094 0 .186-.008.277-.023.973-.162 1.479-1.009 1.74-2.136.156-.003.31-.028.457-.075s.28-.108.402-.186c.526.743 1.051.968 1.605.968.11 0 .22-.011.326-.033.898-.188 1.548-.891 1.723-3.171 1.523 1.514 2.38 1.514 2.74 1.514.407 0 .796-.125 1.123-.358 1.058-.75 1.257-2.408.602-4.949.567.229 1.129.366 1.659.366.963 0 1.563-.439 1.896-.808 1.152-1.271.801-3.336.017-5.287.649.184 1.243.278 1.764.278 1.532 0 2.241-.81 2.527-1.292.859-1.457.2-3.313-.867-4.988 2.228-.164 3.001-1.335 3.268-2.053.619-1.655-.293-3.691-2.524-5.753 2.438-1.584 3.573-3.321 3.227-5m-28.679-20.877c8.25 0 14.939 1.418 14.939 4.363s-6.687 5.332-14.939 5.332c-8.25 0-14.939-2.387-14.939-5.332s6.687-4.363 14.939-4.363m-6.715 52.337c-.016 0-.032-.001-.049-.004-.502-.083-.783-1.467-.814-3.536-.44.877-.833 1.382-1.128 1.382-.025 0-.05-.004-.074-.012-.497-.157-.556-1.913-.244-4.483-.753 3.118-1.586 5.201-2.173 5.201-.018 0-.034-.001-.051-.005-.603-.125-.758-2.548-.481-5.966-1.732 2.609-3.363 4.279-4.259 4.279-.124 0-.235-.032-.33-.1-.827-.588-.162-3.667 1.483-7.408-1.811 1.617-3.471 2.567-4.538 2.567-.362 0-.657-.109-.865-.341-.931-1.023.113-4.119 2.37-7.481-2.073 1.283-3.947 2.007-5.179 2.007-.626 0-1.084-.188-1.318-.583-.66-1.117.657-3.573 3.101-6.113-1.084.288-2.071.435-2.899.435-1.299 0-2.206-.36-2.484-1.107-.505-1.354 1.216-3.59 4.084-5.592-2.729-1.387-4.423-3.014-4.164-4.272.203-.975 1.537-1.533 3.506-1.646-3.767-3.797-5.983-7.296-5.199-8.53.193-.306.555-.45 1.053-.45 1.027 0 2.637.616 4.559 1.711-2.476-4.873-3.598-8.838-2.562-9.703.138-.115.308-.171.507-.17 1.217 0 3.518 2.064 6.082 5.35-2.143-5.117-3.032-9.71-1.977-10.31.077-.044.162-.065.255-.065.947.001 2.676 2.234 4.372 5.556-.196.432-.307.901-.307 1.418 0 1.529.978 2.804 2.568 3.827.167.454.323.9.463 1.332-4.096 3.492-5.258 8.444-5.258 11.847 0 1.771.081 3.182.186 4.286-1.487.686-2.27 2.253-2.27 3.821 0 1.119.371 2.171 1.045 2.96.629.738 1.47 1.195 2.457 1.343.438 6.368 6.83 10.442 12.883 11.816-.618 3.87-1.597 6.739-2.351 6.739m-9.056-19.255v-.75h-.75c-.863 0-1.551-.292-2.043-.869-.436-.511-.686-1.235-.686-1.987 0-1.339.758-2.689 2.449-2.689h.593l.137-.576c.022-.092.538-2.303.82-6.956.081-1.348.659-1.802 2.287-1.802 1.162 0 2.68.264 4.437.569 2.393.415 5.369.933 8.527.933 3.159 0 6.137-.518 8.529-.934 1.757-.305 3.274-.568 4.436-.568 1.628 0 2.205.454 2.286 1.802.284 4.653.798 6.863.82 6.955l.137.577h.593c1.692 0 2.45 1.351 2.45 2.689 0 .752-.25 1.476-.686 1.986-.492.577-1.18.869-2.044.869h-.75v.75c0 7.149-9.186 11.539-15.771 11.539s-15.771-4.389-15.771-11.538m38.567-7.442c2.729 1.959 4.344 4.109 3.851 5.428-.277.746-1.184 1.107-2.482 1.107-.828 0-1.815-.146-2.898-.435 2.444 2.541 3.762 4.996 3.102 6.113-.234.396-.693.583-1.319.583-1.23 0-3.105-.724-5.178-2.008 2.256 3.363 3.299 6.458 2.368 7.482-.208.231-.503.341-.866.341-1.065 0-2.725-.95-4.535-2.565 1.644 3.74 2.309 6.818 1.481 7.406-.095.067-.206.1-.33.1-.896 0-2.527-1.67-4.259-4.279.277 3.418.121 5.841-.479 5.966-.018.004-.034.005-.051.005-.588 0-1.422-2.083-2.175-5.201.312 2.57.253 4.326-.244 4.483-.024.008-.049.012-.074.012-.294 0-.687-.504-1.127-1.377-.03 2.065-.313 3.448-.812 3.531-.018.003-.034.004-.051.004-.756 0-1.735-2.868-2.352-6.741 6.054-1.375 12.445-5.448 12.883-11.816.988-.147 1.828-.604 2.458-1.343.674-.789 1.045-1.841 1.045-2.96 0-1.568-.781-3.135-2.27-3.82.104-1.105.187-2.516.187-4.287 0-3.402-1.162-8.354-5.257-11.846.14-.433.296-.88.463-1.335 1.59-1.023 2.565-2.297 2.565-3.825 0-.516-.109-.985-.306-1.416 1.696-3.323 3.426-5.558 4.374-5.558.093 0 .178.021.256.065 1.041.592.184 5.076-1.898 10.114 2.426-3.032 4.576-4.911 5.739-4.911.2 0 .371.056.509.171 1.027.856-.064 4.756-2.493 9.568 2.006-1.165 3.688-1.821 4.749-1.821.499 0 .861.145 1.055.451.781 1.231-1.427 4.72-5.18 8.508 2.264.037 3.819.608 4.039 1.669.269 1.308-1.567 3.017-4.488 4.437"/><circle cx="40.332" cy="34.84" r="3.499"/><circle cx="23.666" cy="34.84" r="3.5"/><path d="m37.398 44c-2.699 0-8.098 0-10.797 0-.601 0-.601.57-.601.57 0 2.287 3 3.43 6 3.43 3 0 6-1.143 6-3.43 0 0 0-.57-.602-.57"/></svg>