<svg xmlns="http://www.w3.org/2000/svg" viewBox="0 0 64 64" enable-background="new 0 0 64 64"><path d="m57.535 28.94c.619-5.298.414-11.977-2.895-17.497-1.033-1.73-2.215-1.915-2.996-2.037-.527-.082-.689-.119-.92-.413-3.619-4.639-9.98-6.993-18.908-6.993-6.33 0-12.658 1.16-16.846 1.929-1.996.366-3.572.655-4.266.655-.051 0-.094 0-.039.023l-1.171-.506-.219 1.225c-.012.067-.205 1.2.211 2.399-.408-.169-.77-.454-.898-.578l-1.051-1.027-.58 1.331c-.076.174-1.736 4.056-.182 6.991-1.371 2.721-1.059 9.084-.447 14.536-1.002.525-2.328 1.932-2.328 5.726 0 4.886 2.654 6.479 5.184 6.89 1.779 12.717 5.359 14.961 15.111 19.394 2.27 1.03 3.902 1.045 6.215.997.924-.02 2.055-.02 2.979 0 .421.007.816.015 1.199.015 1.721 0 3.16-.169 5.018-1.013 9.752-4.433 13.33-6.677 15.111-19.394 2.529-.409 5.183-2.003 5.183-6.889 0-3.839-1.418-5.244-2.465-5.764m-48.773-15.044c-.955-1.344-.676-3.288-.35-4.521.898.444 2.236.592 3.242-.052l.998-.637-.824-.838c-.387-.394-.537-.919-.588-1.355.926-.081 2.311-.334 4.104-.663 4.113-.755 10.33-1.895 16.473-1.895 8.266 0 14.092 2.094 17.313 6.224.725.928 1.574 1.061 2.195 1.158.641.1 1.027.16 1.586 1.097 3.219 5.371 3.197 12.14 2.48 17.29-.287 1.51-.977 2.325-1.611 2.754.059-.888.1-2.103.047-3.519-.668-9.887-2.52-13.391-7.076-13.391-1.5 0-3.195.392-5.16.846-2.734.631-5.832 1.348-9.592 1.348-3.758 0-6.855-.717-9.59-1.348-1.963-.454-3.66-.846-5.16-.846-4.555 0-6.406 3.507-7.076 13.432-.053 1.417-.01 2.635.049 3.521-.725-.438-1.551-1.306-1.811-3.01l-.018-.125c-.727-6.262-.977-12.661.34-14.337l.438-.557-.409-.576m45.092 25.861l-.816.059-.104.785c-1.625 12.452-4.469 14.266-14.078 18.634-1.535.698-2.65.83-4.168.83-.369 0-.752-.008-1.158-.015-.475-.01-.98-.021-1.531-.021s-1.055.011-1.529.021c-.406.007-.789.015-1.156.015-1.52 0-2.633-.132-4.168-.83-9.611-4.368-12.453-6.182-14.078-18.634l-.102-.785-.816-.059c-2.871-.205-4.15-1.764-4.15-5.053 0-2.018.395-3.047.768-3.57.963 2.718 3.273 3.643 4.512 3.739l1.24.096-.17-1.193c-.002-.02-.279-2.001-.182-4.697.723-10.708 2.816-11.595 5.08-11.595 1.264 0 2.855.368 4.695.793 2.701.624 6.063 1.401 10.055 1.401 3.996 0 7.355-.777 10.057-1.401 1.842-.425 3.432-.793 4.695-.793 2.266 0 4.357.886 5.08 11.554.1 2.732-.18 4.718-.184 4.736l-.172 1.202 1.248-.104c1.201-.1 3.457-1.046 4.385-3.828.459.555.893 1.662.893 3.66 0 3.289-1.279 4.848-4.146 5.053"/><path d="m40.1 47.999c-4.051 0-12.15 0-16.199 0-.9 0-.9.857-.9.857 0 3.43 4.5 5.143 9 5.143s9-1.713 9-5.143c-.001 0-.001-.857-.901-.857"/><path d="m25 31.632c0-.552-.113-1.074-.295-1.563 1.029.748 1.859 1.754 2.295 3.061 0-7.998-14-7.998-14-.998.652-1.632 2.162-2.72 3.963-3.252-.596.763-.963 1.71-.963 2.752 0 2.484 2.014 4.498 4.5 4.498 2.484 0 4.5-2.014 4.5-4.498"/><path d="m37 33.13c.436-1.307 1.264-2.313 2.295-3.061-.182.489-.295 1.011-.295 1.563 0 2.484 2.016 4.498 4.5 4.498 2.486 0 4.5-2.014 4.5-4.498 0-1.042-.369-1.989-.963-2.752 1.801.532 3.311 1.62 3.963 3.252 0-7-14-7-14 .998"/><path d="m32 44.999c4.18-.002 6.27-3 4.18-3s-6.27 0-8.359 0-.001 3 4.179 3"/></svg>