<svg xmlns="http://www.w3.org/2000/svg" viewBox="0 0 64 64" enable-background="new 0 0 64 64"><path d="m50.632 9.139c.245 0 .997.04 1.548.071-.113-.773-.477-1.507-1.119-2.184-3.37-3.551-13.989-5.026-18.926-5.026-12.621 0-22.989 6.759-27.73 18.078-3.67 8.76-3.084 18.144 1.366 23.101l.382-1.917c4.47-27.233 23.878-32.123 44.479-32.123"/><path d="m55.346 12.948c-.183.397-.444.875-.823 1.418-1.175 1.684-3.652 3.411-6.706 5.134 6.361 7.001 9.919 16.581 10.657 23.036 5.225-5.28 5.008-19.205-3.128-29.588"/><path d="m26.741 29.729h13.95c-1.107-.676-4.939-3.022-5.962-3.75-1.592.631-5.533 2.543-7.988 3.75"/><path d="m46.437 20.256c-3.175 1.686-6.538 3.538-10.157 5.01 8.544 4.918 15.948 10.089 20.097 21.498-2.012 8.299-19.584 13.236-24.378 13.236-3.83 0-21.495-3.474-24.021-12.576 1.129-3.375 5.266-14.184 15.372-17.694 19.756-8.978 29.747-14.655 30.498-17.547.215-.828-1.475-1.572-2.441-1.572-21.76 0-36.57 5.758-42.606 25.566-1.52 4.521-2.834 11.665-2.486 12.589 3.644 9.682 21.516 13.234 25.684 13.234 4.718 0 23.631-4.844 26.258-14.525-.508-3.546-1.2-6.34-1.803-8.34-1.464-5.16-4.353-12.303-10.017-18.879"/><path d="m20.665 43.348c2.484 0 4.5-2.014 4.5-4.5 0-.551-.113-1.073-.295-1.561 1.03.747 1.859 1.753 2.295 3.061 0-8-13.999-8-13.999-1 .652-1.632 2.163-2.721 3.963-3.252-.595.763-.963 1.71-.963 2.752 0 2.486 2.013 4.5 4.499 4.5"/><path d="m51.166 39.348c0-7-14-7-14 1 .436-1.308 1.265-2.313 2.295-3.061-.182.488-.295 1.01-.295 1.561 0 2.486 2.016 4.5 4.5 4.5 2.486 0 4.5-2.014 4.5-4.5 0-1.042-.368-1.989-.964-2.752 1.801.531 3.312 1.62 3.964 3.252"/><path d="m32.165 56c4.501 0 9.001-1.715 9.001-5.143 0 0 0-.857-.9-.857-4.051 0-12.149 0-16.2 0-.9 0-.9.857-.9.857-.001 3.428 4.499 5.143 8.999 5.143"/></svg>