<svg xmlns="http://www.w3.org/2000/svg" viewBox="0 0 64 64" enable-background="new 0 0 64 64"><path d="m25 38.348c0-.551-.113-1.072-.295-1.561 1.031.748 1.859 1.752 2.295 3.061 0-8-14-8-14-1 .652-1.633 2.164-2.721 3.965-3.252-.596.761-.965 1.709-.965 2.752 0 2.486 2.014 4.5 4.5 4.5 2.484 0 4.5-2.014 4.5-4.5"/><path d="m37 39.848c.436-1.309 1.266-2.313 2.295-3.061-.182.488-.295 1.01-.295 1.561 0 2.486 2.016 4.5 4.5 4.5 2.486 0 4.5-2.014 4.5-4.5 0-1.043-.367-1.99-.963-2.752 1.801.531 3.311 1.619 3.963 3.252 0-7-14-7-14 1"/><path d="m40.1 49.5c-4.051 0-12.15 0-16.199 0-.9 0-.9.857-.9.857 0 3.428 4.5 5.143 9 5.143s9-1.715 9-5.143c-.001 0-.001-.857-.901-.857"/><path d="m58.281 36.053l.445-5.246c.002-.002.006-.006.008-.008.256-.195.27-.32.27-.32s2.41-6.412-.271-9.979c-2.313-3.078-8.729-14.604-22.94-16.383-.49-1.221-2.006-2.117-3.822-2.117-1.818 0-3.334.9-3.82 2.125-14.171 1.803-20.575 13.301-22.883 16.375-2.682 3.566-.273 9.979-.273 9.979s.014.123.268.318c.004.004.01.01.014.014l.445 5.242c-1.406.758-2.722 2.33-2.722 5.291 0 3.916 2.303 5.416 4.064 5.797 1.206 8.252 19.02 14.859 24.936 14.859s23.73-6.607 24.936-14.859c1.763-.381 4.064-1.881 4.064-5.797 0-2.961-1.314-4.531-2.719-5.291m-40.045-12.922c1.262-3.02 4.172-12.129 9.805-17.686.322 1.393 1.951 2.455 3.93 2.455 2.002 0 3.645-1.086 3.941-2.502 5.664 5.553 8.588 14.705 9.85 17.732.08.191.139.402.207.604-3.76.186-8.342.301-13.971.301-5.627 0-10.207-.115-13.967-.301.067-.201.127-.412.205-.603m17.764 5.426c0 2.174-1.791 3.936-4.002 3.936-2.209 0-4-1.762-4-3.936 0-2.17 1.791-3.934 4-3.934 2.211 0 4.002 1.764 4.002 3.934m20 16.72h-1v.984c0 6.922-16.91 13.771-23 13.771s-23-6.848-23-13.77v-.984h-1c-.121 0-3-.045-3-3.934 0-3.771 2.701-3.928 3-3.934h1v-5.301c3.52.695 10.219 1.365 22.998 1.365 12.783 0 19.482-.67 23.002-1.365v5.301h1c.123 0 3 .045 3 3.934 0 3.771-2.701 3.929-3 3.933"/></svg>