<svg xmlns="http://www.w3.org/2000/svg" viewBox="0 0 64 64" enable-background="new 0 0 64 64"><circle cx="19.498" cy="27.75" r="5"/><circle cx="44.498" cy="27.75" r="5"/><path d="m57.148 26.452c-.431-16.881-12.845-24.452-25.15-24.452-12.303 0-24.717 7.571-25.15 24.452-3.323.445-4.848 3.209-4.848 5.792-.002 1.532.494 2.95 1.396 3.995.627.729 1.719 1.576 3.482 1.803.422 4.775 4.146 10.805 12.801 13.799.139.154.291.297.441.441 1.06 5.525 5.98 9.718 11.878 9.718 5.902 0 10.82-4.195 11.879-9.719.15-.145.303-.287.441-.441 8.654-2.994 12.379-9.023 12.801-13.801 3.346-.432 4.881-3.205 4.881-5.794 0-2.584-1.525-5.348-4.852-5.793m-25.15 34.085c-5.879 0-10.645-4.689-10.645-10.477 0-4.451 2.824-5.076 6.801-5.129.07-.549.494-.98 1.029-.98h5.631c.535 0 .959.432 1.027.98 3.977.053 6.803.68 6.803 5.129.001 5.788-4.767 10.477-10.646 10.477m12.084-10.76c-.141-5.408-4.143-6.154-7.045-6.279-.998-1.475-2.873-2.475-5.039-2.475-2.162 0-4.039 1-5.037 2.475-2.902.125-6.904.871-7.045 6.279-1.107-1.666-1.707-3.695-1.707-6.057 0-3.902 1.523-4.666 4.156-4.666 1.129 0 2.469.154 3.887.318 1.744.203 3.721.432 5.785.432 2.066 0 4.039-.229 5.781-.432 1.408-.164 2.738-.318 3.857-.318 2.668 0 4.113.744 4.113 4.666.001 2.362-.599 4.389-1.706 6.057m12.111-13.631h-.969v.975c0 3.807-2.6 8.805-9.039 11.865.691-1.551 1.055-3.316 1.055-5.266 0-4.297-1.664-6.129-5.564-6.129-1.203 0-2.572.158-4.023.328-1.703.197-3.633.422-5.615.422-1.98 0-3.914-.225-5.621-.422-1.459-.168-2.84-.328-4.051-.328-2.611 0-5.609.697-5.609 6.129 0 1.949.365 3.715 1.057 5.266-6.441-3.061-9.041-8.059-9.041-11.865v-.975h-.968c-1.275 0-2.268-.4-2.949-1.189-.594-.689-.92-1.652-.92-2.712 0-1.887 1.016-3.903 3.869-3.903h.967v-.976c0-9.115 3.484-15.126 8.346-18.774 3.682 4.431 7.59 7.056 15.85 7.067-3.871-2.927-1.936-6.83-1.936-6.83s7.742 4.878 14.516 2.927c0 0-3.871-.976-4.838-3.902 0 0 2.891.727 5.551.294 5.184 3.596 8.965 9.72 8.965 19.218v.976h.969c2.854 0 3.871 2.017 3.871 3.903-.002 1.886-1.019 3.901-3.873 3.901"/><path d="m35.877 46.842c-.002 0-.004 0-.008 0v.863c0 .619-.473 1.123-1.055 1.123h-5.631c-.584 0-1.057-.504-1.057-1.123v-.863c-.002 0-.004 0-.008 0-2.414 0-4.162.451-4.162 3.219 0 4.115 3.861 6.934 8.041 6.934 4.182 0 8.043-2.818 8.043-6.934.001-2.768-1.749-3.219-4.163-3.219m-.24 7.789c-1.133.188-2.34.295-3.639.295-1.297 0-2.504-.107-3.637-.295-1.705-.912-2.953-2.484-2.953-4.57 0-.93.07-1.48 1.355-1.676.291 1.098 1.266 1.908 2.42 1.908h.293c.762.311 1.617.486 2.521.486.906 0 1.762-.176 2.523-.486h.293c1.154 0 2.127-.809 2.418-1.906.34.053.65.137.871.273.146.09.486.301.486 1.4.002 2.086-1.246 3.659-2.951 4.571"/><path d="m36.178 34.813c-2.09 0-6.27 0-8.359 0s0 2.998 4.18 2.998c4.179-.002 6.271-2.998 4.179-2.998"/></svg>