<svg xmlns="http://www.w3.org/2000/svg" viewBox="0 0 64 64" enable-background="new 0 0 64 64"><path d="m52.635 25.49c.001 9.794 7.07 9.794 7.07 0 0-5.814-3.535-10.529-3.535-10.529s-3.535 4.715-3.535 10.529"/><path d="m47.407 43.197c0 7.457 7.07 7.458 7.07 0 0-4.426-3.535-8.017-3.535-8.017s-3.535 3.591-3.535 8.017"/><path d="m21.131 34.495l9.064 9.169 14.244-14.408-9.064-9.168z"/><path d="M43.13,20.072l-1.927-1.949l-1.887,1.909l-3.941-3.986L8.068,43.664l3.94,3.985l-4.48,4.523l-3.234-3.271L3,50.212
		L14.654,62l1.296-1.31l-3.24-3.277l4.479-4.525l3.941,3.985l27.306-27.617l-3.94-3.985l1.887-1.908l-1.928-1.95L59.736,5.959L61,2
		L43.13,20.072z M21.131,54.029l-10.25-10.365l24.494-24.773l10.249,10.365L21.131,54.029z"/></svg>