<svg xmlns="http://www.w3.org/2000/svg" viewBox="0 0 64 64" enable-background="new 0 0 64 64"><path d="m59.5 43.785c-.002-2.23-.814-4.326-2.281-5.99 1.496-3.202 2.279-6.693 2.279-10.208 0-14.108-12.336-25.587-27.5-25.587-15.162 0-27.498 11.479-27.498 25.587 0 3.516.783 7.006 2.277 10.208-1.467 1.664-2.277 3.76-2.277 5.99 0 4.396 3.217 8.098 7.547 9.112-.025.104-.043.192-.059.271-.348 1.788.135 3.604 1.359 5.104 1.529 1.873 4.057 3.046 6.617 3.074.152.012.445.027.777.027.865 0 1.84-.087 2.631-.691.002.001.002.002.004.003 1.183 1.087 3.024 1.315 4.362 1.315 1.303 0 3.082-.216 4.262-1.226 1.182 1.011 2.959 1.226 4.26 1.226 1.338 0 3.18-.228 4.357-1.312.002-.002.004-.004.006-.006.791.604 1.768.691 2.631.691.334 0 .629-.016.781-.027 2.557-.028 5.082-1.199 6.611-3.071 1.227-1.501 1.711-3.316 1.363-5.113-.016-.076-.033-.163-.059-.265 4.331-1.013 7.55-4.715 7.55-9.112m-9.945 6.867c-.387 0-.771-.028-1.145-.085.469 1.074 1.016 2.407 1.145 3.077.545 2.817-2.514 5.183-5.617 5.183 0 0-.313.025-.684.025-.441 0-.967-.036-1.143-.198-1.162-1.069 0-5.882 0-5.882 0-.811-.711-1.467-1.592-1.467-.875 0-1.59.656-1.59 1.467 0 0 1.16 4.984 0 6.055-.471.435-1.57.651-2.67.651s-2.199-.217-2.672-.651c-1.158-1.07 0-6.055 0-6.055 0-.811-.709-1.467-1.59-1.467-.877 0-1.588.656-1.588 1.467 0 0 1.16 4.984 0 6.055-.473.435-1.572.651-2.672.651s-2.199-.217-2.672-.651c-1.158-1.07 0-6.055 0-6.055 0-.811-.709-1.467-1.588-1.467-.881 0-1.594.656-1.594 1.467 0 0 1.16 4.813 0 5.882-.176.162-.699.198-1.143.198-.369 0-.682-.025-.682-.025-3.102 0-6.166-2.365-5.617-5.183.127-.67.674-2.003 1.143-3.077-.373.057-.754.085-1.143.085-4.109 0-7.441-3.073-7.441-6.867 0-2.208 1.129-4.175 2.889-5.431-1.846-3.212-2.889-6.877-2.889-10.767 0-12.74 11.189-23.066 24.998-23.066s25 10.326 25 23.066c0 3.889-1.045 7.554-2.889 10.767 1.756 1.256 2.889 3.223 2.891 5.431 0 3.794-3.334 6.867-7.445 6.867"/><path d="m14.285 29.455c-6.025.333 1.26 8.292 4.07 10.195 2.807 1.897 9.555-1.638 9.166-3.944-.576-3.388-9.527-6.457-13.236-6.251"/><path d="m32 40.371c-1.09 0-1.537 1.403-2.424 2.954-.766 1.333-2.975 2.283-1.633 3.526 1.432 1.321 6.676 1.321 8.107 0 1.313-1.211-.867-2.193-1.631-3.528-.886-1.55-1.331-2.952-2.419-2.952"/><path d="m49.715 29.455c-3.711-.206-12.66 2.864-13.236 6.25-.391 2.307 6.359 5.842 9.168 3.944 2.806-1.902 10.091-9.862 4.068-10.194"/></svg>