<svg xmlns="http://www.w3.org/2000/svg" viewBox="0 0 64 64" enable-background="new 0 0 64 64"><path d="m57.341 6.659c-5.817-5.816-14.82-6.246-20.108-.955l-16.525 16.519.005.006c-.616.672-.646 1.679-.098 2.387l-15.317 15.316c-4.711 4.713-4.329 12.734.853 17.918 2.753 2.752 6.307 4.15 9.74 4.15 3.03 0 5.967-1.09 8.177-3.299l15.317-15.316c.708.547 1.714.517 2.386-.1l.005.004 16.521-16.521c5.289-5.288 4.861-14.291-.956-20.109m-34.687 50.628c-1.75 1.749-4.151 2.713-6.762 2.713-3.025 0-6.06-1.3-8.326-3.564-4.394-4.396-4.777-11.164-.854-15.09l15.301-15.3 15.942 15.941-15.301 15.3"/></svg>