<svg xmlns="http://www.w3.org/2000/svg" viewBox="0 0 64 64" enable-background="new 0 0 64 64"><path d="m32.063 55.037c-3.123 0-5.588-1.125-5.588-1.125-.105.121-.162.279-.162.471-.002 1.305 2.574 2.904 5.75 2.904s5.75-1.588 5.75-2.895c0-.174-.049-.359-.137-.48 0 0-2.485 1.125-5.613 1.125"/><circle cx="41.449" cy="45.957" r="3.75"/><circle cx="22.549" cy="45.957" r="3.75"/><path d="m57.305 36.813c2.584-.157 4.695-2.057 4.695-2.057-1.424-.547-2.715-2.604-3.908-3.108 1.326-.219 2.361-2.098 3.688-2.918-.652-.205-3.184-1.923-3.971-2.132 1.342-.553 2.564-1.609 3.76-2.836-1.055-.053-2.85-2.168-3.383-2.217 2.186-.982 3.193-2.887 3.193-2.887-.963.064-2.332-1.674-3.498-1.828 2.406-1.518 2.195-4.301 2.195-4.301-1.449.857-3.492.201-4.141.434 1.158-1.939.654-4.365.654-4.365-.988 1.256-2.363.758-3.119 1.17.289-.924-.641-2.656-.326-3.764-1.008 1.004-2.857.877-3.561 2.146.236-1.23-.662-2.916-.83-4.322-.654.846-2.416 2.193-2.762 2.844-.148-1.012-1.355-2.412-1.797-3.451-.287.74-1.988 2.586-2.27 3.076-.193-1.727-.547-1.883-1.197-3.096-.232.816-1.939 1.672-2.373 3.053-.373-1.959-1.432-3.057-1.871-3.869-.287 1.01-2.014 2.441-2.234 3.092-.431-1.338-2.249-3.477-2.249-3.477s-1.82 2.139-2.25 3.477c-.223-.65-1.949-2.082-2.236-3.092-.439.813-1.498 1.91-1.869 3.869-.436-1.381-2.141-2.236-2.375-3.053-.65 1.213-1.004 1.369-1.197 3.096-.279-.49-1.982-2.336-2.27-3.076-.441 1.039-1.648 2.439-1.795 3.451-.346-.65-2.107-1.998-2.764-2.844-.168 1.406-1.066 3.092-.83 4.322-.703-1.27-2.551-1.143-3.561-2.146.316 1.107-.613 2.84-.326 3.764-.756-.412-2.131.086-3.119-1.17 0 0-.504 2.426.654 4.365-.648-.232-2.691.424-4.141-.434 0 0-.211 2.783 2.197 4.301-1.168.154-2.537 1.893-3.5 1.828 0 0 1.008 1.904 3.193 2.887-.533.049-2.326 2.164-3.383 2.217 1.195 1.227 2.418 2.283 3.76 2.836-.787.209-3.318 1.927-3.969 2.132 1.326.82 2.361 2.699 3.686 2.918-1.192.504-2.483 2.561-3.905 3.108 0 0 2.111 1.9 4.695 2.057-1.053.436-.496 2.506-3.246 4.531 3.309-.564 3.75.508 6.742-.967 0 0 .388 1.752-.425 2.902-.407.158-.817.381-1.187.713-.55.496-1.205 1.418-1.205 3.006 0 1.602.479 2.809 1.424 3.592.884.73 1.931.877 2.633.877.145 0 .268-.006.378-.016.587 5.287 6.421 10.549 20.254 10.549 13.824 0 19.66-5.256 20.252-10.541.079.006.162.008.254.008.702 0 1.749-.146 2.633-.877.944-.783 1.424-1.99 1.424-3.592 0-1.586-.655-2.51-1.205-3.004-.369-.334-.78-.557-1.188-.713-.812-1.152-.426-2.904-.426-2.904 2.994 1.475 3.434.402 6.742.967-2.75-2.026-2.194-4.096-3.244-4.531m-47.231 12.234c-.464-.383-.699-1.072-.699-2.049 0-.689.176-1.184.537-1.514.539-.49 1.433-.555 1.84-.537v4.5c-.255.03-1.1.078-1.678-.4m40.387.488c0 5.049-5.16 10.371-18.398 10.371-13.24 0-18.4-5.322-18.4-10.371v-6.264c1.047-.607 2.13-1.678 3.053-3.527-.176 1.223 1.918 1.781 2.453 4.133 2.678-2.635 3.094-5.105 3.094-5.105.43 2.92 4.068 4.031 3.99 5.229 1.162-.898 3.035-2.203 3.277-4.113 1.781 2 1.188 5.031 1.188 5.031s3.781-1.313 4.908-4.955c.24 1.91.959 3.139 2.123 4.037-.08-1.197 3.561-2.309 3.99-5.229 0 0 .414 2.471 3.092 5.105.537-2.352 2.629-2.91 2.453-4.133.96 1.924 2.092 2.998 3.178 3.592v6.199zm3.474-.494c-.505.424-1.213.441-1.562.418v-4.514c.447 0 1.228.096 1.715.541.361.328.537.822.537 1.512 0 .971-.232 1.658-.69 2.043"/></svg>