<svg xmlns="http://www.w3.org/2000/svg" viewBox="0 0 64 64" enable-background="new 0 0 64 64"><path d="m60.929 39.816c.639-.703 1.326-1.605.977-2.346-.443-.941-2.064-.836-4.748-.666-2.624.168-5.815.363-8.288-.469v-13.411c0-17.678-11.99-17.35-11.99-17.35s-.903-3.574-10.158-3.574c-14.327 0-22.148 9.031-22.148 20.924v29.006c.002-.002.004-.002.006-.004-1.992 1.89-2.58 4.99-2.58 10.074h49.443c0-5.078-.586-8.176-2.574-10.068v-7.854c3.424-.057 8.876-.748 12.06-4.262m-51.009-17.062c8.711 0 22.91-11.455 22.91-11.455s5.37 10.113 10.547 11.455c0 0 2.508.467 2.508 4.479 0 4.828-3.348 5.662-3.348 5.662-.021 3.742-2.631 7.877-5.973 11.018v-.003c-3.16 2.971-6.975 5.051-9.877 5.051-2.861 0-6.645-2.018-9.81-4.916.004.002.006.004.01.006-3.453-3.154-6.174-7.359-6.174-11.156 0 0-3.225-.834-3.225-5.662 0-3.825 2.432-4.479 2.432-4.479m26.719 38.101l-.022.145h-33.619c.139-9.012 2.357-10.584 13.908-10.945l.959-.029v-3.842c3.068 2.391 6.267 3.777 8.822 3.777 2.549 0 5.828-1.453 8.889-3.881v3.945c0 0 1.834.059 2.254.078-.127 1.555-1.184 10.7-1.191 10.752m1.095.145c.145-1.238 1.447-13.885 1.48-17.137l6.77.131.527 8.574.464 8.432h-9.241m12.711 0h-2.424l-.004-.063-.517-8.396-.025-.451c2.088 1.412 2.882 3.91 2.97 8.91m-4.816-18.26l.012.248-5.424-.105c.246-1.654.518-2.982.801-3.711 1.189-3.035 5.367-2.418 7.68-1.832 2.633.84 5.865.633 8.522.463 1.494-.096 3.545-.229 3.791.094 0 .002.049.297-.811 1.244-2.904 3.203-8.067 3.859-11.331 3.924v-.006c-1.912-.075-3.24-.319-3.24-.319"/><path d="m26.685 37.377c3.191-.002 4.785-2.314 3.191-2.314-1.596 0-4.785 0-6.381 0-1.593 0 .001 2.314 3.19 2.314"/><path d="m32.41 26.959c0 1.918 1.54 3.473 3.434 3.473 1.898 0 3.436-1.555 3.436-3.473 0-.873-.33-1.66-.855-2.271.584.088 1.162.186 1.727.26.479.141.955.293 1.414.471.08.277.076.676-.008 1.063-.1.475-.262.961-.455 1.436-.203.473-.42.945-.68 1.398-.127.227-.258.451-.408.666-.152.207-.291.441-.521.57.516-.178.875-.629 1.236-1.018.348-.414.672-.85.947-1.322.275-.471.531-.963.697-1.514.139-.498.291-1.068.082-1.715.656-.111 1.26-.369 1.783-.867-3.434 1.51-12.018-5.541-13.737 5.035.607-1.563 1.326-2.619 2.113-3.33-.125.357-.205.736-.205 1.138"/><path d="m11 26.697c.166.551.422 1.043.697 1.514.275.473.6.908.947 1.322.361.389.721.84 1.236 1.018-.23-.129-.369-.363-.521-.57-.15-.215-.281-.439-.408-.666-.26-.453-.477-.926-.68-1.398-.193-.475-.355-.961-.455-1.436-.084-.387-.088-.785-.008-1.063.455-.176.926-.33 1.4-.469.566-.074 1.15-.174 1.74-.262-.525.611-.855 1.398-.855 2.271 0 1.918 1.537 3.473 3.436 3.473 1.895 0 3.433-1.555 3.433-3.473 0-.402-.082-.781-.205-1.139.787.711 1.504 1.768 2.111 3.33-1.717-10.576-10.3-3.525-13.734-5.035.523.498 1.127.756 1.783.867-.208.648-.056 1.218.083 1.716"/><path d="m29.697 39.781c-2.248-.859-3.01.506-3.01.506s-.764-1.365-3.012-.506c-1.758.672-4.63.273-4.619.277 4.578 6.58 10.681 6.58 15.26 0 .012-.003-2.863.395-4.619-.277"/></svg>