<svg xmlns="http://www.w3.org/2000/svg" viewBox="0 0 64 64" enable-background="new 0 0 64 64"><path d="m24.943 18.617c-2.467-1.287-4.875-1.716-6.395-.637-1.074.765-1.549 2.19-1.572 3.914-1.871-1.8-4.223-4.581-5.961-8.421v-11.473h-4.581v11.477h.023c-.789 2.716-1.463 5.901-1.457 8.894.008 6.04 4.738 9.08 8.586 9.08.055 0 .105-.012.16-.013.67-.011 1.307-.118 1.891-.315.012-.004.023-.009.035-.014.631-.219 1.197-.537 1.648-.979 0 0-.668-.471-1.662-1.428.623.045 1.305.03 1.986-.044.521 2.462 1.648 5.097 2.545 6.313l19.694 27.029h4.809l-17.82-25.904c1.377-.031 2.707-.574 3.941-1.452 3.045-2.162 4.359-5.481.885-10.207-.775-1.053-1.713-2.06-2.725-2.972 1.223.776 2.723 2.063 4.355 4.182 6.098 7.903 25.672 34.935 25.672 34.935v-3.545c0 0-17.908-24.654-24.023-32.582-4.215-5.465-8.36-6.686-10.034-5.838m-15.255 7.858c.99 2.5 5.072 3.688 5.072 3.688-2.592 1.457-8.994-2.044-9.002-7.793-.004-2.976.689-6.184 1.49-8.894h1.199c2.484 8.549 8.527 10.758 8.527 10.758-2.556 0-5.555-.767-5.555-.767 2.539 2.907 7.945 3.485 7.945 3.485-4.733 1.032-9.676-.477-9.676-.477m20.884-1.566c3.115 4.233 1.789 6.619.773 7.341-1.014.721-.93-.781-4.045-5.016-3.117-4.232-7.688-7.996-6.672-8.717 1.015-.719 6.829 2.159 9.944 6.392"/><path d="m56.346 23.214c.222.357 2.654 4.625 2.654 4.626v-4.199c0 0-.666-1.096-.895-1.458-2.637-4.215-6.115-6.534-8.189-6.647-.471-.022-.828.07-1.092.2-2.178-1.333-4.35-1.88-5.838-1-1.756 1.038-2.178 3.823-1.674 6.91-.641 2.661.717 7.541 1.84 9.374l15.848 25.03v-6.923l-9.502-16.508c1.283.057 2.564-.353 3.783-1.073 3.07-1.816 4.594-4.865 1.674-9.634-.586-.957-1.299-1.89-2.084-2.759 1.08.887 2.303 2.19 3.475 4.061m-2.364 6.099c-1.021.603-.818-.819-3.434-5.089-2.617-4.271-6.652-8.21-5.631-8.814 1.023-.605 6.314 2.592 8.928 6.862 2.618 4.271 1.165 6.435.137 7.041"/><path d="m14.643 42.074l.014.018c-2.498-1.096-4.893-1.361-6.283-.201-1.561 1.306-1.514 4.125-.506 7.091-.188 2.728 1.957 7.321 3.369 8.95l3.296 4.068h.016 5.367l-2.676-3.469c1.473-.021 2.848-.672 4.076-1.699 2.729-2.283 3.727-5.537.057-9.773-.779-.9-1.695-1.75-2.674-2.514 1.205.689 2.691 1.82 4.27 3.579 3.027 3.374 12.015 13.876 12.015 13.876h2.616c0 0-10.033-11.791-13.078-15.182-3.635-4.05-7.969-6.134-9.879-4.744m5.697 5.517c3.287 3.796 2.209 6.163 1.301 6.927-.91.758-.945-.677-4.234-4.473-3.287-3.796-7.92-7.035-7.014-7.798.908-.761 6.658 1.55 9.947 5.344"/></svg>