<svg xmlns="http://www.w3.org/2000/svg" viewBox="0 0 64 64" enable-background="new 0 0 64 64"><path d="m62 44.867l-2.072-2.074 1.059-1.061-17.243-17.255-.718.718-2.599-2.6-.694.695-11.525-11.533-.842.843-6.22-6.258c-.758-.891-2.527-1.342-5.255-1.342-1.569 0-3.332.161-5.099.466-3.446.594-7.494 1.858-8.524 3.623-.283.486-.345 1.02-.171 1.505.062.173.158.34.29.505.034.047.07.092.113.134l13.115 13.128-.821.822 11.526 11.532-.696.696 2.599 2.6-.718.718 17.245 17.254 1.056-1.059 2.074 2.076 14.12-14.133m-54.854-35.219c-2.307 0-3.451-.341-3.841-.508.651-.66 3.226-1.94 7.64-2.703 1.813-.312 3.613-.476 5.207-.476 2.311 0 3.455.341 3.845.506-.651.661-3.226 1.941-7.641 2.704-1.813.312-3.616.477-5.21.477m10.471 15.535l10.591-10.599 10.113 10.12-10.589 10.597-10.115-10.118m10.83 12.228l11.98-11.989 1.187 1.187-11.979 11.989-1.188-1.187m30.069 6.794l.661.662-11.297 11.307-.662-.662 11.298-11.307"/></svg>