<svg xmlns="http://www.w3.org/2000/svg" viewBox="0 0 64 64" enable-background="new 0 0 64 64"><path d="m57.106 34.982c-.205-.82-.4-1.335-.4-1.335-.908 4.772-6.26 6.606-11.969 6.606-6.936 0-14.398-2.704-15.074-6.13 1.074-1.095 1.57-2.148 1.324-3.45l5.787 3.277-.082.142c-.193.332-.246.719-.148 1.09.098.374.336.687.674.883l.609.35c.389.226.859.254 1.266.088.477.202.896.288 1.27.288 1.049-.001 1.709-.683 2.111-1.376.738-1.292.412-2.506-.875-3.25-1.402-.81-2.205-1.269-2.893-.931l-4.557-2.927c.416-.003.82 0 1.252-.012 7.771-.213 21.428-4.827 18.834-14.818-4.988 7.003-14.125 4.536-16.844-3.085-4.203-11.782-23.267-11.437-24.29 2.807-.125 1.73-1.23 8.195 6.641 12.355l-4.473.543-3.945-3.937c.09-.198.135-.416.127-.641-.012-.385-.172-.742-.451-1.004l-.514-.483c-.324-.308-.775-.441-1.211-.376-1.592-1.167-2.793-.506-3.531.274-.633.662-.754 1.296-.742 1.712.014.594.295 1.152.836 1.66 1.164 1.1 1.828 1.729 2.572 1.578l5.58 5.556 5.164-.378c-1.338 3.498 1.438 4.698 1.438 4.698 1.646 3.204-.566 6.438 2.229 14.756.146.605.332 1.345.426 1.627.975 3.015 1.588 6.584 1.59 6.584.008.155.031.301.066.438 0 .003 0 .005 0 .007.006.023.012.046.02.069.037.184.086.374.156.579.172.49.195 1.111-.145 1.375-2.143 1.652 3.768 3.33 3.637-.63-.018-.597-.146-1.309-.213-2.409 2.473 1.326 5.252 1.918 8.102 1.918 6.395 0 13.131-2.954 17.48-7.129 5.379-5.166 6.528-11.34 3.166-16.959m-35.002-8.711h.814v-2.054l-.441-.053c-3.467-.41-5.131-1.982-5.566-5.257l-.055-.404-.408-.028c-1.057-.073-1.508-.603-1.508-1.772 0-.737.15-1.241.412-1.382.322-.173.924.102 1.166.262l.34.224.289-.283c.047-.046 4.807-4.607 13.961-4.63.229.081 1.578.716 1.439 4.254l-.037.984.816-.55c.229-.153.838-.435 1.162-.262.262.14.412.644.412 1.383 0 1.17-.449 1.699-1.502 1.772l-.406.028-.055.404c-.438 3.275-2.105 4.848-5.574 5.258l-.441.053v2.053l.863-.009c.006.001.195.041.48.116l1.707 2.689c0 .083-.031.116-.092.116-.223 0-.848-.459-1.75-.459-.836 0-1.912.394-3.129 1.912-1.219-1.522-2.297-1.918-3.137-1.918-.91 0-1.541.464-1.766.464-.059 0-.09-.032-.09-.115l1.75-2.755.346-.041m16.659 6.189l.285-.256c.203-.184.51-.063 2.051.827.801.464.969 1.081.506 1.889-.537.928-1.227 1.102-2.307.578l-.262-.127-.238.163c-.139.095-.324.101-.471.015l-.609-.35c-.104-.061-.178-.156-.207-.271-.029-.112-.014-.229.045-.332l.59-1.018-7.693-4.355c-.422-.814-1.074-1.729-1.988-2.792.707.2 1.848.589 2.83 1.231l7.468 4.798m-24.391-3.053l-5.734-5.71-.324.165c-.244.131-.58-.144-1.791-1.286-.34-.318-.514-.642-.523-.959-.006-.225.07-.58.469-.996.736-.777 1.447-.79 2.377-.032l.223.182.27-.102c.158-.061.34-.024.463.091l.514.485c.086.08.135.188.139.306.002.118-.041.23-.139.334l-.33.354 4.924 4.91 6.686-.814c-.883 1-1.512 1.893-1.949 2.688l-5.275.384m20.613 17.336c.152.337.303.666.359.757l.078.125.141.038c2.025.551 2.482 1.091 3.391 2.168.574.682 1.291 1.53 2.631 2.668.406.346.613.743.553 1.063-.031.173-.145.306-.307.363-.266.096-.641-.024-1.021-.35-.033-.021-3.227-2.186-6.27-3.704-1.127-.563-2.746-2.103-4.035-3.515.91-.12 1.75-.169 2.559-.169.58 0 1.143.03 1.701.072.064.137.14.309.22.484m-11.027 4.166c-.094-.286-.313-1.168-.463-1.797.398-.556 1.006-1.222 1.775-1.48.461-.154.898-.291 1.326-.417.008.682-.031 1.488-.131 1.974l-.029.14.072.124c.967 1.658.84 2.536.627 3.99-.141.957-.314 2.149-.219 3.897.029.519-.129.94-.418 1.13-.17.11-.357.126-.521.042-.23-.118-.375-.419-.398-.869-.006-.037-.627-3.663-1.621-6.734m29.287.312c-6.354 6.102-18.133 9.318-25.535 4.388l-.031.046c-.004-.002-.01-.003-.016-.005.039-.831.129-1.52.215-2.099.215-1.472.371-2.544-.65-4.354.104-.609.133-1.493.113-2.19.813-.219 1.568-.39 2.277-.514.797.897 2.961 3.237 4.586 4.05 2.492 1.243 5.088 2.927 5.891 3.457.283.287.672.561 1.207.798 4.582 2.028 6.346-.384 3.24-2.315-.629-.391-1.299-.639-2.459-1.651-.354-.308-.834-.291-1.287-.085-.533-.537-.936-1.002-1.27-1.397-.922-1.094-1.488-1.764-3.607-2.364-.064-.133-.156-.34-.252-.55-.018-.039-.031-.067-.047-.104 2.555.259 5.189.778 9.184.778 1.277 0 2.693-.053 4.289-.185 7.021-.58 8.504-4.825 8.486-8.361 1.195 4.302-.291 8.775-4.334 12.657"/><path d="m8.694 21.756c-.148-.266-.115-.596.053-.845.021-.027.045-.055.068-.08.123-.133-.076-.331-.197-.2-.246.265-.342.612-.279.964.043.241.184.444.357.609.281.262.865.813.879.827.133.125.334-.074.199-.199-.253-.238-1.002-.932-1.08-1.076"/><path d="m22.798 15.676c0 .848-.686 1.535-1.531 1.535-.85 0-1.535-.688-1.535-1.535 0-.846.686-1.533 1.535-1.533.845 0 1.531.688 1.531 1.533"/><circle cx="28.761" cy="15.676" r="1.533"/><path d="m27.462 20.342c-1.578 1.227-3.33 1.219-4.9 0-.188-.146-.359.107-.23.344.479.875 1.445 1.656 2.68 1.656 1.238 0 2.205-.781 2.684-1.656.125-.236-.045-.49-.234-.344"/></svg>