<svg xmlns="http://www.w3.org/2000/svg" viewBox="0 0 64 64" enable-background="new 0 0 64 64"><path d="m39.513 8.369c-1.422-.313-2.884.579-3.267 1.994-.384 1.415.458 2.816 1.877 3.13 1.42.313 2.882-.578 3.267-1.992.381-1.416-.458-2.817-1.877-3.132"/><path d="m54.311 13.986c.437.095.881.144 1.325.144 2.87 0 5.399-1.934 6.149-4.704.43-1.589.211-3.224-.617-4.602-.827-1.376-2.158-2.328-3.751-2.679-.433-.096-.879-.145-1.323-.145-2.869 0-5.397 1.934-6.148 4.704-.104.391-.201 1.23-.205 1.337-.191 3.876-.714 5.695-1.017 6.445-.11-.009-.218-.014-.324-.014-.445 0-.853.096-1.219.267l-.052-.063c-.01-.012-1.323-1.677-2.547-5.684l-.009-.029-.01-.026c-.003-.008-.316-.811-.532-1.171-1.063-1.771-2.962-2.827-5.08-2.827-1.157 0-2.299.324-3.304.938-.064.04-.123.085-.187.127-.205-.546-1.678-3.449-9.799-3.449-13.866 0-21.439 8.957-21.439 20.753v29.183c.141-.15.29-.289.447-.426-2.072 1.812-2.669 4.845-2.669 9.935h47.326c0-8.346-1.617-11.164-8.708-12.117 9.598-4.045 17.972-11.629 20.398-25.521 0 0-2.464 1.379-5.528 1.734l-.025-.061c-.503-1.268-.914-2.14-1.434-3.243-.345-.729-.732-1.553-1.223-2.651l-.499-1.122.772-2.854.037-.135-.002-.143c-.015-.8.011-1.636.063-2.276.361.161.74.286 1.134.375m-5.976 47.024h-45.344c.138-8.676 2.263-10.19 13.279-10.539l.953-.029v-3.668c2.925 2.285 5.969 3.609 8.407 3.609 2.429 0 5.551-1.393 8.472-3.717v3.775l.953.029c11.018.35 13.142 1.866 13.28 10.54m-4.686-30.223c-.832 2.551-2.85 3.066-2.85 3.066-.021 3.629-2.538 7.639-5.75 10.678-3.021 2.857-6.651 4.861-9.42 4.861-2.739 0-6.376-1.967-9.408-4.77-3.283-3.049-5.885-7.111-5.885-10.77 0 0-3.085-.805-3.085-5.475 0-3.697 2.326-4.33 2.326-4.33 8.341 0 21.931-11.077 21.931-11.077s5.138 9.778 10.096 11.077c0 0 1.813.344 2.286 2.984-.192 1.426-.296 2.684-.241 3.756m-.681-17.109c-.423.625-.983 1.181-1.676 1.604-.88.538-1.848.794-2.794.794-1.699 0-3.324-.829-4.233-2.348-1.419-2.365-.568-5.5 1.893-7.004.881-.538 1.849-.795 2.794-.795 1.699 0 3.327.83 4.237 2.348.153.258.437.961.453 1.007 1.313 4.299 2.729 6.023 2.729 6.023-1.124 1.124-1.054 2.652-1.164 3.386l-.877-1.461c0 .001-.802-3.173-1.362-3.554m11.488 12.492c-1.278.041-2.615-.135-3.9-.672l1.354-4.952c1.164 2.619 1.767 3.696 2.546 5.624m-1.95-14.12c-.433.554-.375 3.854-.375 3.854l-4.877 18.017c-4.611-.07-1.994-7.475-.943-16.135.159-1.336.84-2.323 2.089-2.323.257 0 .536.042.841.13 0 0 1.172-1.186 1.482-7.513.002-.049.093-.816.172-1.115.641-2.364 2.84-3.975 5.198-3.975.37 0 .742.039 1.114.122 2.745.606 4.37 3.315 3.629 6.052-.64 2.365-2.839 3.975-5.2 3.975-.368 0-.742-.039-1.112-.12-.769-.173-1.45-.513-2.018-.969"/><path d="m55.749 10.689c1.22 0 2.356-.832 2.689-2.056.382-1.414-.458-2.816-1.877-3.131-.191-.042-.385-.063-.574-.063-1.223 0-2.361.833-2.692 2.057-.384 1.415.458 2.817 1.877 3.13.192.042.386.063.577.063m-1.349-1.727c-.215-.355-.271-.784-.156-1.204.208-.771.94-1.328 1.743-1.328.122 0 .245.014.364.04.418.093.767.34.981.696s.27.786.156 1.208c-.208.767-.94 1.323-1.74 1.323-.123 0-.245-.014-.365-.039-.42-.092-.77-.339-.983-.696"/><path d="m48.873 17.382c-.73-.161-1.478.296-1.675 1.021-.196.725.232 1.442.962 1.604.727.162 1.476-.297 1.676-1.022.193-.725-.236-1.444-.963-1.603"/><path d="m25.629 38.268c3.173-.002 4.76-2.293 3.173-2.293s-4.759 0-6.346 0 0 2.293 3.173 2.293"/><path d="m29.425 30.117c.604-1.549 1.319-2.596 2.101-3.299-.123.354-.203.729-.203 1.127 0 1.9 1.531 3.441 3.415 3.441 1.888 0 3.417-1.541 3.417-3.441 0-.865-.328-1.645-.852-2.25.583.086 1.158.184 1.718.258.478.139.951.289 1.406.465.08.275.077.67-.007 1.053-.099.471-.26.953-.453 1.424-.201.467-.417.936-.675 1.385-.126.225-.257.447-.407.66-.15.205-.289.438-.52.564.515-.176.871-.623 1.231-1.008.347-.41.667-.842.941-1.311.275-.467.528-.953.694-1.5.137-.492.289-1.059.081-1.699.653-.109 1.254-.365 1.774-.857-3.414 1.494-11.953-5.491-13.661 4.988"/><path d="m19.936 27.945c0-.398-.081-.773-.203-1.127.781.703 1.496 1.75 2.101 3.299-1.708-10.479-10.247-3.494-13.663-4.988.521.492 1.121.748 1.773.857-.207.641-.055 1.207.081 1.699.166.547.42 1.033.694 1.5.275.469.596.9.941 1.311.36.385.718.832 1.231 1.008-.23-.127-.368-.359-.52-.564-.148-.213-.28-.436-.406-.66-.259-.449-.475-.918-.675-1.385-.193-.471-.354-.953-.454-1.424-.083-.383-.086-.777-.007-1.053.452-.174.92-.326 1.394-.463.563-.074 1.144-.174 1.73-.26-.522.605-.851 1.385-.851 2.25 0 1.9 1.529 3.441 3.416 3.441 1.886.001 3.418-1.54 3.418-3.441"/><path d="m28.624 40.648c-2.236-.852-2.994.502-2.994.502s-.76-1.354-2.995-.502c-1.748.666-4.607.271-4.597.275 4.555 6.52 10.627 6.52 15.181 0 .01-.003-2.848.391-4.595-.275"/></svg>