<svg xmlns="http://www.w3.org/2000/svg" viewBox="0 0 64 64" enable-background="new 0 0 64 64"><g fill-rule="evenodd"><path d="m6.454 43.857c1.042.061 2.05.086 2.582-.386 4.093-2.146 5.993-2.836-.765-4.744 1.279-.136 8.431 2.339 10.697-.36 1.862-1.301-7.34-3.021-7.813-4.324 1.739 1.072 9.588 4.548 11.086 1.439-.262-1.097-1.295-3.071-4.758-4.201 1.201.263 3.101-.023 3.87-.815-.28-1.032-4.699-3.676-5.115-7.117 1.415 2.053 3.278 5.442 5.508 6.08 0 0 .705-1.667 3.12-2.333-2.227-.001-4.526-1.291-4.824-2.421 1.605 2.564 7.172 1.25 9.489 3.394 0 0-.423-1.457 1.136-3.399.167-.459-.854-1.267-.374-1.429.219.27.276.96.933.841 1.498-.591 2.832-2.505 1.851-4.187.681.383.738 1.917.86 2.793.904.03 2.512-.16 4.148 1.461.324-.247.214-.777.529-1.035.32 1.063.317 3.424 1.87 3.397 1.233-.02 2.808-2.699 3.07-3.744-.057 2.561 1.384 2.263 1.824 2.332 1.163-.115 2.385-3.776 2.945-3.783-.19.461-.249 1.886-.136 2.661 1.237.264 4.424-1.22 5.03-1.904-.079.505-.354.801-.243 1.501 1.075.24 7.48-2.783 9.024-5.862-1.724-.815-3.063-1.689-4.378-2.083-.762.673-.82 3.509-1.763 3.264.5-.627 1.607-3.024.62-3.808-4.248-2.9-2.113 2.18-2.529 2.698.024-.935-1.918-6.097-3.716-5.63-.355.435-1.064-2.611-2.261 4.021.104-1.081 1.505-5.45-5.054-7.256-.329 1.656 1.938 6.68 1.397 7.839-.237-2.162-1.896-7.276-3.075-8.53-2.507-.962-6.839-2.788-8.788-2.063-2.2.608 3.398 5.523 1.84 7.625.351-2.938-3.143-5.985-5.499-6.044-4.866 2.489-.939 7.067-1.648 9.221-.423-2.643-1.831-3.285-1.558-6.348-1.266.836-1.379 2.407-2.658 3.634-.65.172-1.021-.156-1.673.017-1.172 1.192.977 3.795.527 4.844-.753-1.693-.779-4.109-2.695-4.403-1.546-1.041-4.873-.172-7.313 1.434-2.808.763-5.54 8.308-5.4 9.403.18 1.391 2.582 1.542 2.744 2.867-.991-.514-1.308-1.68-2.969-1.555-.615 1.192-.931 2.159-1.064 3.851 1.722 1.15 3.798 2.155 4.345 3.737-1.515-.578-2.415-2.865-4.46-2.23-2.594 7.282.523 5.891.937 6.901-.889.279-1.745-.549-2.144-.037-1.995 3.73.285 3.659.554 4.313-.499-.008-.998-.018-1.5-.027-.784.689-.948 3.049-.725 4.076 1.636-.775 5.295-1.586 4.362-3.586"/><path d="m53.289 24.545c-1.914.437-7.743.895-9.235 2.55 1.678 2.667 8.326 3.104 10.023 5.749-2.527-1.539-7.803-3.83-11.234-4.636-4.022-.945-2.857 1.342-4.162 4.555.606 1.248 2.463 4.582 2.621 5.662-1.021-1.103-1.879-6.234-3.559-3.467-2.639 4.348 1.463 5.231 3.238 9.281-1.154-1.515-3.359-4.521-4.791-6.374l-.968 1.681c-1.708-.432-2.411-.296-2.411-.296.998 2.405 4.174 7.5 5.087 9.022-3.07-3.01-4.318-5.893-5.979-9.148-1.336.053-2.593-.604-3.885-.76-.132 2.797 1.121 4.576 1.137 6.531-1.036-2.975-1.646-9.475-7.651-7.378-1.687 3.405.836 10.116.887 13.068-1.073-3.182-.996-7.792-2.457-10.598-1.936-.113-4.967-.241-4.378 1.013-3.825.984-13.778 6.878-12.083 8.503 3.048 2.931 9.696 6.64 13.87 7.491.192-1.105.701-3.04 1.132-3.68.447 1.748 1.045 3.986 2.852 4.418.493-.582-.188-2.016-.092-2.863 1.586 1.889 5.832 4.074 8.813 2.7.309-1.082-.876-2.697-.217-3.413.392 2.992 7.355 3.285 7.925.564.245-1.174-1.045-1.954-1.019-2.813.973 1.066 1.428 2.53 3.169 2.422 3.723-.236 1.189-5.311.573-7.307.925 1.779 1.984 4.42 3.318 5.803.98-.244 1.507-1.719.917-2.935 3.261 2.255 3.599.5 2.333-3.964.289.854 1.55 2.959 2.352 3.318 2.941-1.263-1.216-6.1-1.743-7.047 1.257.966 2.744 4.268 4.56 4.691.324-.248.353-1.985.608-2.301-.238-1.529-.932-2.858-1.798-4.063 1.223 1.443 2.518 2.734 3.934 3.449 1.132-1.395-.995-5.389-1.637-6.412.977.391 2.644 3.044 3.973 3.094 1.262-.622-.527-3.854-1.359-4.982.512.209 2.121 1.843 3.059 1.641.333-1.512-1.688-3.401-2.14-4.638.578.145 2.396 1.911 3.147 1.885.839-3.282 2.1-7.064 1.902-14.656-1.434.023-7.178 4.308-8.632 4.64m-7.185 10.1c1.16 1.057 2.327 2.611 3.554 4.176-1.345-1.509-2.769-2.842-3.554-4.176"/></g></svg>