<svg xmlns="http://www.w3.org/2000/svg" viewBox="0 0 64 64" enable-background="new 0 0 64 64"><path d="m31.988 26c1.201-1.084 17.977-9.818 14.539-18.92-3.196-8.459-13.578-4.664-14.539-.439-1.32-4.502-11.443-7.859-14.533.443-3.44 9.25 13.334 17.557 14.533 18.916"/><path d="m59.15 44.346c1.319-.339 2.85-1.369 2.85-4.326 0-2.997-1.293-3.75-2.178-3.916-.164-9.796-2.737-13.999-13.643-14.103-9.408-.09-12.261 6.226-12.16 12.68-.485 2.043-.718 4.966-.718 9.021 0 4.378 2.393 9.118 6.17 11.279-4.289 1.887-7.471 3.919-7.471 5.795v-24.104c0-12.399-8.122-12.167-8.122-12.167s-.611-2.506-6.877-2.506c-9.704 0-15.001 6.332-15.001 14.673v11.105 13.401.82h30v.002h30v-14.222c0 0-1.725.416-4.342 1.127.811-1.349 1.359-2.864 1.492-4.559m-54.431-7.286c.203 0 .406.032.599.083.093.609.218 1.182.389 1.506.31.58.939.91.939.91s11.814-4.059 17.779-9.937c0 0 5.88 1.943 5.88 14.235 0 5.25-3.664 11.321-9.574 11.321-5.951 0-14.822-4.232-14.822-11.69-2.244-.162-2.909-1.652-2.909-3.469-.001-2.364.854-2.959 1.719-2.959m26.281 23.939h-28.001v-11.947c1.48.369 2.964.772 4.44 1.181 3.229 3.87 8.915 5.946 13.291 5.946 1.022 0 1.984-.182 2.889-.485 4.459 1.91 7.381 3.735 7.381 5.082v.223m3.269-17.298c0-10.703 1.618-12.355 4.113-12.355 1.116 0 2.409.331 3.811.331 6.306 0 9.98-1.122 12.164-1.122 2.272.001 2.931 1.216 3.254 6.178.059 1.648-.105 2.826-.105 2.826s.608-.33.907-.91c.168-.324.288-.896.378-1.506.186-.051.383-.083.578-.083.837 0 1.664.596 1.664 2.96 0 1.816-.644 3.307-2.815 3.469 0 7.458-8.582 11.69-14.339 11.69-5.436 0-9.61-5.692-9.61-11.478m26.73 5.352v11.946h-27.999v-.223c0-1.377 3.052-3.255 7.681-5.212.994.392 2.064.614 3.197.614 4.255 0 9.791-2.099 12.903-6.006 1.404-.386 2.811-.769 4.218-1.119"/><path d="m42.401 39.889c-.898-1.969-2.251-2.953-3.604-2.953-1.35 0-2.703.984-3.602 2.953-.089.199.373.557.605.361.87-.73 1.911-1.023 2.996-1.023 1.087 0 2.129.293 3 1.023.23.195.693-.162.605-.361"/><path d="m46.583 40.25c.87-.73 1.91-1.023 2.997-1.023 1.086 0 2.127.293 2.998 1.023.229.195.693-.162.605-.361-.898-1.969-2.251-2.953-3.604-2.953-1.352 0-2.703.984-3.603 2.953-.088.199.377.556.607.361"/><path d="m41.765 48.78c0 0 1.105-.445 1.105-2.169 0-1.723-1.105-2.168-1.105-2.168 1.627 0 2.497-1.129 2.497-2.166-1.233 1.275-3.224.563-4.136 1.508-.762.789.882 1.426.882 2.826 0 1.399-1.644 2.04-.882 2.827.912.947 2.902.232 4.136 1.508 0-1.035-.87-2.166-2.497-2.166"/><path d="m22.555 40.25c.87-.73 1.911-1.023 2.996-1.023 1.084 0 2.124.293 2.993 1.023.231.195.693-.162.604-.361-.896-1.969-2.249-2.953-3.598-2.953-1.352 0-2.702.984-3.601 2.953-.087.199.376.556.606.361"/><path d="m11.785 40.25c.87-.73 1.91-1.023 2.994-1.023 1.087 0 2.125.293 2.994 1.023.23.195.694-.162.604-.361-.897-1.969-2.247-2.953-3.599-2.953-1.351 0-2.701.984-3.599 2.953-.087.199.377.556.606.361"/><path d="m20.093 50.946c1.231-1.276 3.22-.561 4.131-1.509.761-.787-.881-1.428-.881-2.826 0-1.4 1.642-2.037.881-2.826-.911-.945-2.899-.232-4.131-1.508 0 1.037.869 2.166 2.494 2.166 0 0-1.104.445-1.104 2.168s1.104 2.168 1.104 2.168c-1.625 0-2.494 1.131-2.494 2.167"/></svg>