<svg xmlns="http://www.w3.org/2000/svg" viewBox="0 0 64 64" enable-background="new 0 0 64 64"><path d="m60.676 8.473l.324-6.473h-10.779l-.061 4.131c.055.071.134.133.199.2l-3.188 4.513c-2.771-1.802-5.455-1.74-5.455-1.74s-.861-3.354-9.716-3.354c-6.505 0-11.572 1.94-15.138 5.142l-3.233-4.577-.001-.002c.071-.061.154-.118.212-.182l-.061-4.131h-10.779l.324 6.473c0 0 .053-.003.135-.007l-.356 10.489c-.167 2.45 1.283 4.399 2.162 5.34.502.537 1.187 1.131 1.848 1.489l-.413 4.959c-.063.906.186 1.718.699 2.296.474.535 1.138.838 1.919.879l.025.001h.025c.029.002.092.003.153.003.458 0 .892-.095 1.288-.256v18.525c.004-.003.008-.005.011-.007-2.315 1.729-2.986 4.694-2.986 9.816h48.332c0-5.111-.67-8.075-2.979-9.806.001 0 .002.001.002.001v-18.529c.396.161.83.256 1.288.256.053 0 .105 0 .158-.003h.001l.045-.001c.781-.041 1.445-.344 1.919-.879.514-.578.762-1.39.699-2.282l-.412-4.973c.662-.358 1.347-.952 1.848-1.488.879-.94 2.329-2.89 2.161-5.374l-.355-10.449c.082 0 .135 0 .135 0m-22.863 6.489c0 0 5.078 9.253 9.975 10.48 0 0 2.373.429 2.373 4.099 0 4.418-3.166 5.182-3.166 5.182-.02 3.323-2.346 6.988-5.373 9.828-3.041 2.854-6.789 4.873-9.621 4.873-2.811 0-6.563-1.99-9.625-4.809-3.094-2.85-5.486-6.544-5.486-9.893 0 0-3.049-.764-3.049-5.182 0-3.499 2.299-4.099 2.299-4.099 8.241.001 21.673-10.479 21.673-10.479m-28.291 17.96c-.045 0-.089 0-.134-.003h-.02c-1.221-.063-1.746-1.022-1.672-2.093l.41-4.937.004.001.406-4.531-.797-2-.499 5.318c-1.315-.896-3.294-3.091-3.118-5.687l.357-10.517c.058 0 .119 0 .183 0 1.923 0 6.278-.167 8.171-1.581l3.912 5.538c.004.006.006.013.01.018.313.291.5.691.521 1.178.066 1.445.318 3.269 1.238 5.435.318.746-.242 2.047-1.595 2.047-.1 0-.204-.007-.313-.022-2.279-.313-3.014-3.383-3.014-3.383l-.861-.766-.979 14.156c-.071 1.032-1.047 1.829-2.21 1.829m45.635 28.078h-46.314c.146-8.342 2.329-9.803 13.563-10.139l.97-.028v-4.067c2.967 2.29 6.146 3.658 8.625 3.658 2.492 0 5.668-1.383 8.621-3.697v4.106l.97.028c11.236.338 13.419 1.798 13.565 10.139m1.623-36.322l-.499-5.318-.797 2 .406 4.531.002-.001.41 4.937c.074 1.07-.451 2.03-1.672 2.093h-.02c-.045.003-.089.003-.134.003-1.162 0-2.139-.797-2.21-1.83l-.979-14.156-.861.766c0 0-.734 3.069-3.014 3.383-.109.016-.214.022-.313.022-1.353 0-1.913-1.301-1.595-2.047.92-2.166 1.172-3.989 1.238-5.435.021-.486.209-.887.521-1.178.004-.005.006-.012.01-.018l3.886-5.501c.092.051.198.094.298.141 2.008 1.248 6.063 1.403 7.899 1.403.063 0 .125 0 .183 0l.357 10.518c.178 2.595-1.799 4.79-3.116 5.687"/><path d="m34.762 41.379c-2.062-.78-2.762.458-2.762.458s-.7-1.238-2.761-.458c-1.611.609-4.248.249-4.239.251 4.2 5.969 9.799 5.969 14 0 .01-.002-2.628.358-4.238-.251"/><path d="m34.896 37.354c-1.462 0-4.389 0-5.851 0-1.464 0 0 2.1 2.926 2.1 2.925-.001 4.389-2.1 2.925-2.1"/><path d="m29.311 30.115c.122-.235-.198-.341-.593-.609-2.486 1.954-6.508 1.773-8.762.001-.393.268-.715.373-.593.608 2.478 4.679 7.468 4.677 9.948 0"/><path d="m44.637 30.115c.122-.235-.198-.341-.593-.609-2.486 1.954-6.508 1.773-8.762.001-.393.268-.715.373-.593.608 2.478 4.679 7.468 4.677 9.948 0"/></svg>