<svg xmlns="http://www.w3.org/2000/svg" viewBox="0 0 64 64" enable-background="new 0 0 64 64"><path d="m45 19.449c1.104 0 2-.824 2-1.84v-1.943c0-1.018-.896-1.842-2-1.842 0-15.766-26-15.766-26 0-1.104 0-2 .824-2 1.842v1.943c0 1.016.896 1.84 2 1.84h.281v36.926h-.281c-1.104 0-2 .824-2 1.84v1.943c0 1.016.896 1.842 2 1.842h26c1.104 0 2-.826 2-1.842v-1.943c0-1.016-.896-1.84-2-1.84h-.281v-36.926h.281m-24.086 21.332c0-1.967 0-3.934 0-5.898 7.391-1.809 14.781-8.826 22.172-10.635 0 1.965 0 3.932 0 5.896-7.391 1.809-14.781 8.827-22.172 10.637m22.172-5.361c0 1.965 0 3.93 0 5.896-7.391 1.809-14.781 8.826-22.172 10.635 0-1.965 0-3.932 0-5.896 7.391-1.811 14.781-8.828 22.172-10.635m-19.377 20.955c6.459-2.584 12.918-8.126 19.377-9.705 0 1.965 0 3.93 0 5.896-3.299.808-5.967 2.272-8.566 3.809h-10.811m-2.795-26.844c0-1.967 0-3.934 0-5.898 3.058-.748 6.115-2.39 9.172-4.184h11.191c-6.788 2.377-13.576 8.419-20.363 10.082"/></svg>