<svg xmlns="http://www.w3.org/2000/svg" viewBox="0 0 64 64" enable-background="new 0 0 64 64"><path d="m56.724 6.01l-47.465 3.164c-.884.061-3.659 1.675-4.039 5.176l-3.174 29.326c-.165 1.531-.039 5.104 2.954 5.662l46.189 8.58c.292.055.589.082.882.082 1.117 0 5.141-.899 5.559-4.794l4.323-39.932c.406-3.732-1.862-7.493-5.229-7.264m-47.339 4.953l47.46-3.165c.618-.042 1.197.104 1.701.42l-19.091 17.294c.082-.872.052-1.763-.121-2.672-1.695-8.926-10.391-4.813-11.59-.574-.486-4.49-7.365-7.576-10.336.332-.142.376-.247.753-.337 1.13l-8.576-12.332c.299-.26.609-.414.89-.433m-5.531 32.902l3.174-29.326c.058-.53.191-1.055.386-1.535l9.401 13.314c.054 1.557.451 3.088 1.055 4.549l-13.995 14.38c-.063-.443-.072-.913-.021-1.382m47.672 12.291l-46.189-8.581c-.254-.047-.506-.219-.731-.489l14.088-14.477c2.445 4.577 6.446 8.163 6.886 9.039.639-.616 6.646-3.979 10.559-8.849l2.278 3.039 15.027 20.034c-.607.305-1.267.405-1.918.284m8.62-43.968l-4.323 39.931c-.105.972-.457 1.872-.996 2.582l-17.572-23.428c.468-.708.882-1.441 1.223-2.198l21.258-19.5c.366.748.513 1.658.41 2.613"/></svg>