<svg xmlns="http://www.w3.org/2000/svg" viewBox="0 0 64 64" enable-background="new 0 0 64 64"><path d="m49.654 12.881l-1.132 1.702c-.168.25-3.839 5.82-5.095 12.017l-2.332-3.944c2.868-2.487 3.816-7.337 2.033-11.896-2.06-5.273-7.552-7.858-7.787-7.966l-1.721-.794.754 1.773c.005.012.147.372.26.991-1.73-1.19-3.089-1.899-3.159-1.935l-.739-.382-.276.8c-.025.076-.53 1.561-.976 3.655-.321-.502-.458-.854-.473-.896l-.655-1.824-.707 1.805c-.096.243-2.317 6.032-.257 11.306.036.093.081.18.119.271-.156-.137-.308-.276-.473-.408-4.382-3.484-10.399-2.873-10.652-2.845l-1.88.205 1.526 1.141c.01.008.313.244.714.72-2.08-.132-3.603-.04-3.681-.034l-.827.053.157.834c.015.078.313 1.62.962 3.658-.524-.268-.816-.501-.849-.528l-1.467-1.236.28 1.923c.032.225.742 4.82 3.745 8.316-5.484-.689-10.332 2.95-10.535 3.107l-1.515 1.154 1.88.187c.012.002.389.048.973.248-1.855.972-3.121 1.844-3.186 1.889l-.683.478.548.634c.052.061 1.077 1.231 2.65 2.647-.585.042-.952-.006-.996-.013l-1.876-.299 1.199 1.508c.161.205 4.028 5.002 9.532 5.717 3.134.407 6.192-.366 8.396-2.119 1.305-1.04 2.203-2.385 2.639-3.864l3.989.707c-3.812 1.726-6.168 3.647-7.515 5.026-.82.839-1.178 1.394-1.192 1.417l-.613.957 6.325-1.109-1.205 1.239c0 0 14.202-2.459 22.641 3.592l-1.777 1.83 3.629 3.736 1.445-1.487c.91 2.404 1.433 5.455 1.433 5.455l2.768-2.834 1.927 1.973 5.206-5.329-1.927-1.972 2.774-2.84c0 0-2.984-.555-5.329-1.503l1.447-1.49-3.63-3.736-1.78 1.831c-5.882-8.685-3.49-23.301-3.49-23.301l-.876.903 1.312-10.821m-18.081-8.299c.728.421 1.906 1.147 3.174 2.088-.05 1.04-.289 2.307-.912 3.717-1.396-.569-2.415-1.309-3.148-2.019.282-1.586.644-2.961.886-3.786m4.572.369c1.67 1.064 4.393 3.194 5.631 6.363 1.824 4.671.445 9.658-3.072 11.117-.141.058-.284.107-.433.145 0 0 0 0-.001.001-1.92.514-4.331-.438-5.484-2.166-1.228-1.839-.902-4.266.92-6.836 2.533-3.584 2.683-6.751 2.439-8.624m1.195 19.403l1.778 4.385c-.918-1.286-1.688-2.796-2.333-4.318.187-.013.37-.042.555-.067m-8.594-7.618c-1.236-3.163-.704-6.654-.217-8.621.803 1.121 2.24 2.59 4.628 3.599-.191.323-.399.65-.636.984-2.523 3.565-2.111 6.228-1.363 7.805-1.005-1.023-1.84-2.301-2.412-3.767m3.653 6.596c.2 2.635.941 5.731 2.794 8.935l-4.332-3.064c.98-2.078.931-4.59-.013-6.969.492.415 1.007.79 1.551 1.098m4.788 11.556l-1.603 1.641-6.035-5.38c.141-.157.283-.311.41-.479l.11-.162c.021-.027.047-.053.068-.079.087-.116.157-.24.236-.36l6.814 4.819m-19.044-19.131c1.967.055 5.367.484 8 2.578 3.881 3.086 5.153 8.103 2.839 11.182-.093.122-.193.238-.302.35-1.404 1.438-3.954 1.862-5.803.969-1.967-.951-2.885-3.215-2.582-6.374.418-4.404-1.018-7.216-2.152-8.705m13.141 18.259c-1.054-.639-2.017-1.256-2.894-1.841.164-.114.309-.25.461-.378-.01.008-.017.019-.026.026l2.459 2.193m-17.268-16.213c.834-.014 2.211.005 3.769.159.473.923.891 2.141 1.05 3.679-1.487.23-2.731.12-3.715-.113-.54-1.515-.907-2.888-1.104-3.725m-.881 4.623c1.244.553 3.211 1.076 5.769.711-.005.379-.022.77-.062 1.179-.418 4.382 1.252 6.467 2.677 7.439-.352-.093-.7-.207-1.047-.339-.713-.499-1.498-.935-2.351-1.273-.182-.129-.367-.248-.544-.39-2.629-2.091-3.893-5.378-4.442-7.327m9.553 11.068c.67.074 1.336.075 1.992.012.686 1.108 1.495 2.306 2.427 3.484l-2.832-.118c-.25-1.208-.793-2.358-1.587-3.378m-18.459 3.216c.712-.446 1.905-1.149 3.323-1.828.866.55 1.83 1.378 2.734 2.621-1.165.972-2.291 1.526-3.253 1.837-1.219-1.021-2.218-2.013-2.804-2.63m9.012 8.427c-3.302-.429-6.027-2.599-7.471-3.989 1.347-.174 3.299-.747 5.318-2.395.186.327.364.673.535 1.045 1.819 3.99 4.294 4.913 6.005 5.009-1.36.403-2.857.529-4.387.33m9.611-5.69c0 0 0 0 0 .002-.494 1.968-2.476 3.663-4.512 3.857-2.166.206-4.082-1.263-5.395-4.141-1.832-4.007-4.465-5.676-6.184-6.367 1.72-.979 4.86-2.38 8.168-1.952.879.114 1.714.329 2.493.623.772.531 1.582.968 2.414 1.299 2.133 1.563 3.384 3.854 3.102 6.223-.02.153-.047.305-.086.456m2.999 7.043l-4.85.851c1.346-1.446 4.123-3.802 8.994-5.731l1.019-.402-5.163 5.282m5.459-5.586l-6.994-1.239c.011-.064.027-.128.036-.192l.015-.195c.004-.036.018-.071.02-.106.052-.436.05-.868.022-1.298l4.89.207-.743-.873c-1.088-1.276-2.032-2.627-2.825-3.885.606-.139 1.188-.325 1.724-.59 1.992 1.347 4.48 2.899 7.396 4.441l.069.036-3.61 3.694m28.465 14.908l-3.829 3.92-1.236-1.272 3.831-3.92 1.234 1.272m-5.287-10.131l2.258 2.324-8.373 8.615-2.257-2.324 8.372-8.615m-16.741-11.367l-.329-.443c-2.633-3.559-3.683-7.081-3.997-10.044.756.313 1.528.515 2.293.585 1.101 2.691 2.604 5.415 4.601 7.131l.076.066-2.644 2.705m3.312-3.388l-2.746-6.77c.224-.065.446-.137.664-.226l.175-.081c.032-.014.068-.02.101-.034.374-.155.722-.353 1.057-.567l3.11 5.262-2.361 2.416m3.16-3.236c.671-4.175 2.654-8.265 3.943-10.59l-.908 7.483-3.035 3.107"/></svg>