<svg xmlns="http://www.w3.org/2000/svg" viewBox="0 0 64 64" enable-background="new 0 0 64 64"><path d="m55.918 22.545c-5.261-14.231-22.34-7.846-23.919-.74-2.173-7.573-18.832-13.223-23.916.75-5.661 15.562 21.941 29.531 23.916 31.819 1.973-1.818 29.577-16.52 23.919-31.829"/><path d="m60.002 18.486c-.614-1.85-1.645-3.58-2.98-4.988-1.34-1.417-2.97-2.504-4.706-3.204-.868-.353-1.762-.612-2.667-.779-.454-.079-.907-.141-1.363-.172-.455-.038-.913-.046-1.368-.02l1.238.572c.406.19.809.375 1.203.578.79.394 1.556.813 2.291 1.27 1.467.911 2.809 1.961 3.974 3.197 1.168 1.232 2.148 2.643 2.965 4.199.41.775.773 1.591 1.111 2.434.169.419.331.85.488 1.287l.473 1.323c.053-.473.069-.952.065-1.429-.003-.479-.037-.957-.094-1.437-.112-.956-.323-1.907-.63-2.831"/><path d="m61.978 15.791c-.054-.716-.188-1.429-.397-2.12-.421-1.394-1.18-2.702-2.181-3.755-1-1.056-2.229-1.855-3.533-2.341-.653-.239-1.323-.409-1.999-.498-.341-.045-.679-.074-1.018-.076-.342-.003-.681.012-1.019.063.301.174.596.332.887.49.293.16.576.317.857.48.563.317 1.104.644 1.624.991 1.034.696 1.978 1.458 2.805 2.335.828.877 1.539 1.863 2.161 2.961.313.549.601 1.122.879 1.724.14.301.271.606.408.921.136.309.268.628.417.953.07-.354.106-.706.119-1.06.022-.357.012-.713-.01-1.068"/><path d="m4.301 21.573c.337-.845.702-1.659 1.11-2.434.817-1.558 1.799-2.968 2.966-4.199 1.164-1.235 2.506-2.286 3.974-3.199.735-.454 1.5-.874 2.291-1.268.395-.203.798-.388 1.204-.578l1.238-.572c-.456-.026-.913-.018-1.369.018-.456.031-.909.095-1.362.174-.906.166-1.8.426-2.668.779-1.737.699-3.365 1.787-4.706 3.204-1.336 1.408-2.367 3.138-2.98 4.988-.307.924-.519 1.875-.63 2.831-.056.478-.091.957-.094 1.437-.004.478.012.956.067 1.429l.471-1.325c.157-.435.319-.868.488-1.285"/><path d="m5.996 11.359c.828-.877 1.771-1.639 2.805-2.335.519-.348 1.06-.674 1.624-.991.281-.163.566-.32.857-.48.291-.158.586-.318.887-.492-.338-.049-.678-.065-1.019-.061-.338.002-.677.029-1.018.076-.676.089-1.346.259-2 .498-1.302.487-2.532 1.284-3.53 2.342-1.003 1.053-1.76 2.361-2.181 3.755-.211.691-.344 1.402-.398 2.118-.023.357-.032.713-.012 1.07.014.352.049.706.12 1.06.149-.325.282-.644.417-.953.136-.315.269-.62.409-.921.277-.602.565-1.175.878-1.726.623-1.098 1.332-2.085 2.161-2.96"/><path d="m7.769 40.492l-.14.155c.522 1.501 1.28 2.742 2.122 3.888.827 1.164 1.77 2.195 2.784 3.15 1.019.949 2.104 1.825 3.307 2.568 1.189.762 2.46 1.43 3.964 1.84l.14-.154c-1.97-1.975-4.015-3.865-6.018-5.802-2.055-1.88-4.069-3.803-6.159-5.645"/><path d="m3.609 43.461l-.14.154c.694 1.664 1.624 3.065 2.637 4.374.999 1.323 2.114 2.519 3.299 3.635 1.191 1.109 2.448 2.147 3.823 3.052 1.361.922 2.803 1.753 4.479 2.324l.14-.154c-2.313-2.298-4.701-4.513-7.049-6.77-2.399-2.202-4.756-4.451-7.189-6.615"/><path d="m51.466 47.686c1.014-.955 1.957-1.986 2.784-3.15.842-1.146 1.6-2.387 2.121-3.888l-.14-.155c-2.089 1.842-4.104 3.765-6.158 5.646-2.004 1.937-4.049 3.827-6.019 5.802l.141.154c1.504-.41 2.774-1.078 3.963-1.84 1.204-.744 2.289-1.62 3.308-2.569"/><path d="m53.203 50.076c-2.348 2.257-4.734 4.472-7.048 6.77l.138.154c1.677-.571 3.119-1.402 4.479-2.324 1.374-.904 2.631-1.942 3.824-3.052 1.185-1.116 2.3-2.312 3.298-3.635 1.013-1.309 1.943-2.71 2.637-4.374l-.14-.154c-2.432 2.164-4.789 4.413-7.188 6.615"/></svg>