<svg xmlns="http://www.w3.org/2000/svg" viewBox="0 0 64 64" enable-background="new 0 0 64 64"><path d="m17.718 8.893c6.457 0 12.902 4.058 14.274 8.78 1.012-4.496 7.61-8.735 14.256-8.735 5.17 0 10.368 2.564 12.99 9.567 6.445 17.219-25 33.753-27.247 35.799-2.247-2.575-33.69-18.284-27.241-35.789 2.58-7.003 7.778-9.623 12.968-9.622m0-1.893h-.002c-6.814 0-12.181 3.957-14.723 10.855-5.788 15.71 15.228 29.479 24.2 35.356 1.445.947 3.082 2.02 3.404 2.354l1.254 1.435 1.396-1.292c.232-.204 1.305-.891 2.343-1.555 8.604-5.508 31.458-20.141 25.401-36.318-2.566-6.858-7.94-10.791-14.742-10.791-5.744 0-11.426 2.763-14.312 6.554-2.982-3.848-8.592-6.597-14.219-6.598z"/></svg>