<svg xmlns="http://www.w3.org/2000/svg" viewBox="0 0 64 64" enable-background="new 0 0 64 64"><path d="m61.092 27.057c-.243.129-.495.289-.75.464-.244 1.003-.568 1.994-.98 2.97l-1.121-1.145c-.798.84-1.498 1.758-1.92 2.584-.896 1.762-3.268.965-5.27-1.768l-.469-.643c-1.2 2.548-2.111 5.934-1.555 9.949l-4.835-4.939-4.903 4.988c0 0 .855-9.002 7.799-17.573.426.374 1.035.542 1.704.496-.198 1.555.278 3.454 1.39 4.972l1.6 2.189c.281.385.573.73.873 1.037 1.035 1.059 1.89 1.359 2.345 1.287.151-.025.557-.008.557-.381 0-4.27-6.229-8.768-6.714-9.111.709-.06 1.472-.344 2.125-.848l.131-.102c.105.066.222.141.293.178l.851.447c1.484.784 1.862.317.838-1.031l-.584-.771c-.059-.078-.122-.144-.184-.214 0-.002.003-.005.004-.008-.002.001-.006.002-.008.004-.004-.005-.008-.01-.012-.015-.006.012-.016.02-.021.031-1.272.766-2.799.793-3.57.005-.771-.79-.746-2.345.004-3.643.012-.006.02-.019.032-.024-.005-.004-.01-.008-.015-.013.002-.002.002-.004.004-.007-.002.001-.004.003-.007.004-.069-.065-.136-.131-.214-.192l-.754-.597c-1.322-1.048-1.778-.659-1.01.856l.436.868c.033.065.098.207.158.335l-.076.103c-.494.667-.773 1.445-.832 2.169-.306-.45-4.728-6.862-8.924-6.862-.367 0-.35.414-.373.569-.07.465.223 1.339 1.26 2.396.297.304.639.604 1.014.889l2.145 1.635c1.487 1.136 3.347 1.623 4.871 1.419-.047.683.117 1.305.482 1.741-8.395 7.088-17.212 7.958-17.212 7.958l4.889-5-4.835-4.941c3.933.569 7.248-.361 9.743-1.586l-.629-.48c-2.678-2.044-3.455-4.465-1.732-5.383.809-.43 1.707-1.144 2.529-1.958l-.74-.751c.666-.287 1.357-.527 2.062-.738.335-.439.621-.876.845-1.295-4.087.978-7.752 3.215-9.885 6.018-2.983-3.849-8.593-6.599-14.221-6.599h-.002c-6.815 0-12.183 3.957-14.726 10.855-5.789 15.711 15.23 29.479 24.204 35.357 1.446.946 3.083 2.02 3.405 2.354l1.253 1.434 1.397-1.291c.232-.205 1.305-.892 2.343-1.556 7.019-4.492 23.51-15.054 26.072-27.57-.145.183-.333.344-.575.474"/><path d="m61.002 17.835c-2.566-6.857-7.942-10.79-14.746-10.79-.417 0-.833.019-1.249.047.714.456 1.462 1.17 2.165 2.131l1.6 2.189c1.099 1.505 1.638 3.311 1.606 4.939.428.125.841.354 1.196.718l.107.109c.355.364.581.786.704 1.222 1.592-.032 3.357.515 4.829 1.637l2.146 1.635c1.406 1.074 2.283 2.25 2.554 3.26.238-2.314-.01-4.687-.912-7.097"/></svg>