<svg xmlns="http://www.w3.org/2000/svg" viewBox="0 0 64 64" enable-background="new 0 0 64 64"><path d="m61.072 18.16c-6.395-16.918-27.154-9.328-29.074-.879-2.64-9.004-22.89-15.72-29.07.891-6.881 18.502 26.67 35.107 29.071 37.828 2.397-2.162 35.952-19.639 29.073-37.84m-29.073 32.623c-2-2.143-29.959-15.213-24.225-29.777 5.148-13.074 22.023-7.787 24.225-.701 1.599-6.65 18.898-12.623 24.228.693 5.732 14.326-22.231 28.084-24.228 29.785"/><path d="m49.227 24.799c-3.79-10.025-16.09-5.527-17.228-.521-1.563-5.334-13.563-9.314-17.225.527-4.078 10.967 15.803 20.805 17.225 22.416 1.422-1.282 21.305-11.637 17.228-22.422"/></svg>