<svg xmlns="http://www.w3.org/2000/svg" viewBox="0 0 64 64" enable-background="new 0 0 64 64"><path d="m47.133 41.13c-4.178-8.521-15.038-3.712-15.706.759-1.813-4.565-13.016-7.209-15.625 1.678-.48 1.636-.358 3.197.171 4.672-.274-.119-.552-.229-.82-.363-1.869-.939-3.587-2.271-4.987-3.93-1.4-1.656-2.476-3.644-3.106-5.809.222 2.243.923 4.484 2.079 6.52 1.153 2.037 2.752 3.862 4.673 5.329 1.542 1.179 3.295 2.112 5.169 2.778 4.864 5 13.203 8.38 14.126 9.236 1.2-1.223 18.522-11.705 14.026-20.87"/><path d="m61.17 24.857c-3.344-4.656-9.287-.783-9.229 1.932-1.541-2.538-8.447-3.045-9.092 2.466-.579 4.963 7.059 7.551 10.526 8.701.077.396.149.796.194 1.206.215 1.988.014 4.069-.602 6.07-1.211 4.013-4.135 7.654-8.09 9.836 4.279-1.411 8.156-4.571 10.396-8.869 1.123-2.139 1.844-4.543 2.045-7.046.084-.993.056-2.01-.033-3.025 2.679-2.914 6.39-7.781 3.885-11.271"/><path d="m43.842 11.549c.977.128 1.949.342 2.9.655 1.988.652 3.885 1.713 5.516 3.146 1.631 1.429 2.988 3.234 3.934 5.282-.551-2.186-1.576-4.298-3.021-6.139-1.443-1.843-3.297-3.41-5.416-4.575-1.118-.616-2.313-1.112-3.553-1.493-.902-3.565-6.036-3.718-7.357-2.016.359-2.563-4.151-6.527-7.7-3.036-3.951 3.886 2.881 11.834 3.191 12.789.778-.242 9.336-.773 11.506-4.613"/><path d="m25.47 25.854c-.313-5.306-5.502-6.341-8.739-5.262-.076-1.291-.006-2.607.252-3.912.794-4.116 3.331-8.037 7.042-10.612-4.113 1.842-7.647 5.383-9.434 9.888-.473 1.18-.819 2.424-1.041 3.703-2.016-2.772-6.93-4.716-10.303-.534-4.853 6.021 5.975 16.025 6.566 17.307 1.176-.521 16.099-3.075 15.657-10.578"/></svg>