<svg xmlns="http://www.w3.org/2000/svg" viewBox="0 0 64 64" enable-background="new 0 0 64 64"><circle cx="12.109" cy="40.309" r="2.25"/><circle cx="22.84" cy="40.309" r="2.25"/><path d="m13.544 47.656c.701 1.285 2.118 2.432 3.932 2.432s3.23-1.146 3.931-2.432c.189-.346-.061-.719-.34-.504-2.313 1.801-4.881 1.789-7.185 0-.278-.214-.528.159-.338.504"/><path d="m54.316 50.949c2.34-1.771 4.302-4.184 4.799-7.008 1.397-.216 2.885-1.108 2.885-3.923 0-2.479-.914-3.221-1.687-3.405-.081-10.169-2.563-14.505-13.695-14.61-11.224-.107-14.181 4.416-14.288 14.737-.111.054-.222.129-.33.216v-.286c0-12.396-8.122-12.164-8.122-12.164s-.611-2.506-6.877-2.506c-9.703 0-15.001 6.33-15.001 14.67v25.33h30 30v-7.225c0-1.906-3.288-3.18-7.684-3.826m-48.423-14.238c6.02 0 15.828-7.83 15.828-7.83s3.707 6.912 7.285 7.83c0 0 1.735.318 1.735 3.063 0 3.299-2.313 3.869-2.313 3.869-.029 4.979-6.826 9.984-10.95 9.984-4.129 0-11.039-5.006-11.039-9.984 0 0-2.229-.57-2.229-3.869 0-2.614 1.683-3.063 1.683-3.063m25.607 24.31l-28.501-.021v-6.225c0-1.014 2.589-2.307 7.511-2.938 2.289 1.703 4.929 2.789 6.968 2.789 1.972 0 4.52-1.042 6.759-2.686 4.435.662 7.264 2.6 7.264 3.56v5.521zm.47-21.003c0-1.632.397-2.46 1.183-2.46.052 0 .104.003.157.009.104.598.226 1.029.371 1.314.358.697 1.039 1.078 1.116 1.119l.838.451-.134-.965c-.002-.012-.158-1.164-.103-2.735.332-5.026.651-5.696 1.743-5.696.496 0 1.177.139 2.04.313 1.681.341 3.982.808 7.317.808s5.637-.467 7.317-.808c.863-.175 1.544-.313 2.041-.313 1.093 0 1.412.672 1.74 5.695.058 1.577-.099 2.725-.101 2.736l-.135.967.841-.453c.077-.041.756-.422 1.115-1.119.147-.287.268-.709.374-1.314.879-.096 1.34.713 1.34 2.451 0 1.906-.754 2.85-2.372 2.971l-.396.029-.051.404c-.749 5.939-8.599 9.705-11.713 9.705s-10.964-3.766-11.711-9.705l-.051-.404-.396-.029c-1.616-.122-2.37-1.065-2.37-2.971m.03 3.008c.536.546 1.219.812 1.885.915.509 2.896 2.557 5.36 4.975 7.143-3.973.68-6.86 1.906-6.86 3.691v-11.749m28.999 17.974l-28.499.001v-5.5c0-1.719 3.174-2.981 7.56-3.597 2.286 1.415 4.726 2.223 6.439 2.223 1.755 0 4.271-.852 6.604-2.331 4.884.579 7.896 1.808 7.896 2.979v6.225"/><circle cx="41.009" cy="40.309" r="2.25"/><circle cx="52.007" cy="40.309" r="2.25"/><path d="m42.573 47.656c.701 1.285 2.119 2.432 3.934 2.432s3.232-1.146 3.934-2.432c.189-.346-.063-.719-.34-.504-2.314 1.801-4.885 1.789-7.189 0-.278-.214-.528.159-.339.504"/><path d="m31.997 26c1.201-1.082 17.977-9.818 14.539-18.92-3.195-8.459-13.578-4.664-14.539-.439-1.32-4.502-11.443-7.859-14.533.443-3.44 9.252 13.334 17.557 14.533 18.916"/></svg>