<svg xmlns="http://www.w3.org/2000/svg" viewBox="0 0 64 64" enable-background="new 0 0 64 64"><path d="m60.222 27.687l-6.973-6.973 1.751-1.752v-2.5l-7.46-7.461h-2.5l-1.752 1.752-6.974-6.975c-2.372-2.371-6.255-2.371-8.628 0l-6.974 6.974-1.75-1.751h-2.502l-7.46 7.463v2.5l1.752 1.751-6.972 6.972c-2.373 2.373-2.373 6.256 0 8.627l6.973 6.974-1.753 1.752v2.5l7.461 7.461h2.502l1.752-1.753 6.972 6.972c2.373 2.373 6.256 2.373 8.628 0l6.972-6.972 1.754 1.753h2.5l7.459-7.459v-2.502l-1.752-1.753 6.974-6.974c2.371-2.371 2.371-6.253 0-8.626m-2.823 8.197l-5.777 5.776-.659-.659h-2.502l-7.461 7.463v2.5l.659.659-5.775 5.774c-2.135 2.137-5.631 2.137-7.767 0l-5.776-5.776.659-.659v-2.5l-7.46-7.461h-2.5l-.66.66-5.777-5.777c-2.137-2.135-2.137-5.631 0-7.768l5.775-5.776.662.661h2.5l7.46-7.459v-2.502l-.661-.661 5.778-5.778c2.136-2.135 5.632-2.135 7.767 0l5.777 5.778-.661.661v2.5l7.461 7.461h2.502l.661-.661 5.775 5.776c2.135 2.137 2.135 5.633 0 7.768"/><path d="m35.576 26.901l-2.426-2.426c-.633-.633-1.668-.633-2.301 0l-2.427 2.427-7.422-5.901 5.9 7.424-2.426 2.426c-.633.633-.633 1.668 0 2.301l2.426 2.426-5.9 7.421 7.422-5.9 2.428 2.428c.633.633 1.668.633 2.301 0l2.427-2.427 7.422 5.901-5.9-7.423 2.427-2.427c.633-.633.633-1.668 0-2.301l-2.427-2.427 5.9-7.422-7.424 5.9"/></svg>