<svg xmlns="http://www.w3.org/2000/svg" viewBox="0 0 64 64" enable-background="new 0 0 64 64"><path d="m18.723 47.868c-3.265-1.06-6.593.309-7.438 3.056-.846 2.748 1.117 5.836 4.382 6.896s6.594-.31 7.439-3.058c.842-2.747-1.119-5.834-4.383-6.894"/><path d="m6.681 56.822c-1.112.873-1.23 2.631-.266 3.927.963 1.298 2.644 1.641 3.755.769 1.11-.873 1.23-2.632.268-3.928-.963-1.298-2.646-1.641-3.757-.768"/><path d="m62 22.655c0-2.685-1.26-5.066-3.204-6.557.015-.191.023-.384.023-.579 0-4.227-3.332-7.653-7.443-7.653-.26 0-.516.014-.768.04-1.562-2.727-4.447-4.558-7.748-4.558-1.95 0-3.754.638-5.227 1.722-1.86-1.897-4.421-3.07-7.25-3.07-4.606 0-8.507 3.111-9.821 7.402-1.546-1.099-3.421-1.743-5.44-1.743-5.286 0-9.569 4.405-9.569 9.838 0 1.604.374 3.117 1.035 4.454-2.777 2.024-4.588 5.352-4.588 9.117 0 6.167 4.861 11.167 10.86 11.167 2.206 0 4.257-.677 5.971-1.838.927 4.725 4.986 8.285 9.856 8.285 3.624 0 6.799-1.972 8.567-4.927 1.22 1.247 2.9 2.019 4.758 2.019 3.526 0 6.419-2.784 6.718-6.33.825.307 1.716.475 2.646.475 4.305 0 7.795-3.588 7.795-8.013 0-.928-.155-1.819-.438-2.648 1.98-1.487 3.267-3.89 3.267-6.603"/></svg>