<svg xmlns="http://www.w3.org/2000/svg" viewBox="0 0 64 64" enable-background="new 0 0 64 64"><path d="m43.91 35.201l18.09-10.033-20.301.882 6.029-12.455-10.994 7.824 1.356-17.178-7.998 14.157-12.045-16.398 5.176 20.429-18.065-5.996 14.396 13.151-17.554 3.416 16.83 3.832-9.439 16.842 15.445-9.328.639 17.654 6.326-16.125 8.512 12.76-.471-15.324 14.652 5.596-10.584-13.706m-7.861 2.664l.072 7.672-4.273-6.33-3.783 8.473-.289-9.273-10.529 7.131 6.867-10.533-9.742-2.243 10.645-2.501-8.568-7.396 10.486 2.657-2.75-10.2 6.293 8.092 4.18-7.921-.23 9.501 6.223-3.566-3.15 6.985 11.748.348-10.594 4.913 5.094 7.566-7.7-3.375"/><path d="m34.707 32.42l4.484-2.08-4.972-.146 1.334-2.958-2.637 1.51.098-4.023-1.77 3.354-2.664-3.426 1.164 4.318-4.439-1.125 3.629 3.131-4.508 1.06 4.125.949-2.908 4.459 4.459-3.019.121 3.928 1.601-3.588 1.811 2.679-.031-3.248 3.259 1.43z"/></svg>