<svg xmlns="http://www.w3.org/2000/svg" viewBox="0 0 64 64" enable-background="new 0 0 64 64"><path d="m41.245 11.293c-.981.966-1.961 1.934-2.94 2.9-.862.852.475 2.172 1.336 1.32.981-.967 1.961-1.934 2.939-2.902.865-.851-.475-2.171-1.335-1.318"/><path d="m46.761 8.486c.97-.957 1.94-1.915 2.91-2.873.862-.852-.475-2.172-1.337-1.32-.971.958-1.941 1.916-2.911 2.873-.864.854.473 2.173 1.338 1.32"/><path d="m48.334 15.514c.862.852 2.199-.469 1.337-1.32-.981-.967-1.958-1.935-2.94-2.9-.859-.853-2.199.467-1.337 1.318.981.968 1.96 1.935 2.94 2.902"/><path d="m41.215 8.486c.865.853 2.203-.467 1.34-1.318-.971-.959-1.941-1.917-2.914-2.875-.861-.853-2.198.469-1.336 1.32.97.958 1.941 1.916 2.91 2.873"/><path d="m44.934 16.904c0-.963 0-1.927 0-2.889 0-1.204-1.893-1.204-1.893 0 0 .962 0 1.926 0 2.889 0 1.203 1.893 1.203 1.893 0"/><path d="m44.934 5.751c0-.949 0-1.899 0-2.849 0-1.203-1.893-1.203-1.893 0 0 .949 0 1.899 0 2.849 0 1.204 1.893 1.204 1.893 0"/><path d="m48.174 10.837c.969 0 1.936 0 2.905 0 1.221 0 1.221-1.866 0-1.866-.97 0-1.937 0-2.905 0-1.219 0-1.219 1.866 0 1.866"/><path d="m32.832 18.229c-4.587 0-8.848 1.374-12.382 3.731l-3.778-3.731-2.254 2.224c-2.295-2.496-4.403-5.648-3.122-7.889 2.564-4.49 16.702-4.402 28.327-1.748l.429-1.826c-12.392-2.832-27.261-2.863-30.411 2.654-1.509 2.64-.353 6.049 3.431 10.138l-2.409 2.377 3.779 3.73c-2.384 3.492-3.779 7.697-3.779 12.226 0 12.085 9.926 21.885 22.169 21.885 12.246 0 22.168-9.8 22.168-21.886 0-12.088-9.922-21.885-22.168-21.885"/></svg>