<svg xmlns="http://www.w3.org/2000/svg" viewBox="0 0 64 64" enable-background="new 0 0 64 64"><path d="m56.576 34.756c.055-.254.1-.513.13-.772.181-1.814-.027-3.735-.8-5.513-.762-1.787-2.126-3.274-3.639-4.39-.92-.684-1.905-1.231-2.916-1.691.308-.991.414-2.062.281-3.113-.226-1.635-.875-3.25-2.063-4.544-1.18-1.296-2.781-2.071-4.338-2.563-3.159-.979-6.336-.938-9.325-1.152-1.486-.101-2.973-.181-4.218-.531-.621-.167-1.146-.419-1.472-.709-.328-.288-.479-.615-.557-1.11-.075-.491-.029-1.112.109-1.752.067-.337.149-.607.26-1.014.109-.407.221-.822.279-1.355.018-.291.06-.576-.064-1.074-.069-.252-.2-.547-.444-.824-.256-.277-.569-.452-.854-.542-.558-.16-.869-.097-1.179-.07-.131.022-.287.047-.396.073l-.278.063c-.849.209-1.626.456-2.396.8-3.049 1.35-5.655 3.603-7.311 6.442-.825 1.415-1.451 2.964-1.719 4.592-.266 1.624-.199 3.317.291 4.887.371 1.098.848 2.157 1.418 3.152-1.423.578-2.813 1.313-4.061 2.317-1.479 1.177-2.772 2.745-3.443 4.564-.672 1.83-.816 3.691-.546 5.551.021.126.054.248.081.372-3.733 1.384-5.406 4.689-5.406 10.382 0 12.364 15.393 16.768 29.798 16.768 19.476 0 30.202-5.955 30.202-16.768 0-5.82-1.672-9.149-5.424-10.476m-24.778 24.852c-13.245 0-27.398-3.776-27.398-14.376 0-4.975 1.368-7.228 3.843-8.167.454.827 1.034 1.57 1.695 2.188 1.297 1.229 2.828 2.088 4.416 2.7-1.385-.984-2.669-2.094-3.616-3.4-.946-1.3-1.527-2.783-1.536-4.275-.021-1.494.302-3.079.977-4.347.675-1.286 1.675-2.355 2.919-3.168 1.298-.831 2.771-1.442 4.329-1.905.548.594 1.139 1.142 1.78 1.628-1.999-2.313-3.303-5.09-3.879-7.941-.538-2.777.377-5.637 1.958-7.932 1.616-2.287 3.873-4.147 6.457-5.132.524-.2 1.073-.372 1.605-.511-.015.052-.025.101-.04.152-.094.325-.236.781-.321 1.19-.188.84-.314 1.754-.174 2.772.133 1.002.681 2.136 1.533 2.828.835.703 1.755 1.052 2.601 1.275 1.71.429 3.294.496 4.846.536 3.083.052 6.082-.013 8.839.595 1.367.314 2.626.866 3.61 1.737.983.852 1.667 2.126 2.006 3.464.354 1.336.221 2.784-.334 4.125-.558 1.34-1.493 2.56-2.602 3.608.877-.553 1.696-1.229 2.397-2.031 1.012.361 1.98.787 2.875 1.314 1.283.771 2.338 1.798 3.079 3.047.746 1.247 1.111 2.757 1.169 4.305.074 1.496-.413 3.007-1.301 4.345-.884 1.345-2.136 2.493-3.498 3.506 1.571-.648 3.082-1.554 4.323-2.845.549-.559 1.021-1.215 1.402-1.93 2.507.869 3.84 3.092 3.84 8.267.002 12.51-17.416 14.378-27.8 14.378"/><path d="m29.691 34.316c0-4.195-3.423-7.609-7.633-7.609-4.211 0-7.637 3.414-7.637 7.609 0 4.197 3.426 7.612 7.637 7.612 4.211.001 7.633-3.414 7.633-7.612m-7.632 6.177c-3.417 0-6.196-2.771-6.196-6.177 0-3.404 2.779-6.174 6.196-6.174 3.416 0 6.193 2.77 6.193 6.174 0 3.407-2.777 6.177-6.193 6.177"/><ellipse cx="23.968" cy="34.321" rx="3.46" ry="3.447"/><path d="m41.943 26.707c-4.211 0-7.635 3.414-7.635 7.609 0 4.197 3.424 7.612 7.635 7.612 4.21 0 7.635-3.415 7.635-7.612 0-4.195-3.425-7.609-7.635-7.609m0 13.786c-3.416 0-6.195-2.771-6.195-6.177 0-3.404 2.779-6.174 6.195-6.174s6.195 2.77 6.195 6.174c.001 3.407-2.779 6.177-6.195 6.177"/><path d="m40.034 30.874c-1.912 0-3.459 1.544-3.459 3.446 0 1.904 1.547 3.448 3.459 3.448 1.907 0 3.458-1.544 3.458-3.448 0-1.902-1.551-3.446-3.458-3.446"/><path d="m32 44.185c-3.184 0-5.76 2.573-5.76 5.741 0 3.173 2.576 5.741 5.76 5.741 3.18 0 5.76-2.568 5.76-5.741 0-3.168-2.58-5.741-5.76-5.741"/></svg>