<svg xmlns="http://www.w3.org/2000/svg" viewBox="0 0 64 64" enable-background="new 0 0 64 64"><path d="m57.631 32.177c3.4-2.802 4.303-5.777 4.369-8.015.007-.293-.122-.573-.354-.76-.23-.187-.537-.257-.83-.192-1.398.308-2.845-.421-3.474-1.741-.649-1.37-.304-3.001.839-3.968.217-.186.342-.458.334-.744-.006-.285-.143-.551-.373-.725-1.105-.839-2.375-1.383-3.772-1.643.227-2.274-.279-4.064-.96-5.38-.135-.264-.395-.45-.694-.501-.3-.052-.606.034-.829.235-1.048.947-2.675 1.061-3.834.249-1.211-.85-1.683-2.425-1.152-3.835.103-.268.071-.565-.08-.808-.154-.245-.41-.408-.701-.444-.357-.044-.725-.068-1.086-.068-1.399 0-3.182.355-5.138 1.561-1.032-1.641-2.288-2.657-3.446-3.279-.266-.142-.583-.156-.858-.033-.274.121-.479.36-.548.65-.351 1.465-1.6 2.489-3.044 2.489-1.445 0-2.695-1.023-3.042-2.49-.068-.29-.271-.531-.548-.65-.277-.123-.593-.109-.86.033-1.158.62-2.415 1.637-3.447 3.279-1.956-1.203-3.736-1.559-5.135-1.559-.361 0-.728.024-1.084.068-.293.036-.55.201-.703.444-.151.242-.183.54-.082.808.532 1.408.059 2.986-1.151 3.835-1.159.815-2.786.696-3.834-.249-.223-.201-.529-.287-.829-.235-.3.051-.562.237-.695.501-.682 1.315-1.188 3.105-.96 5.378-1.399.262-2.667.806-3.771 1.645-.231.174-.365.439-.375.725-.006.284.114.557.333.744 1.146.967 1.49 2.598.84 3.966-.627 1.324-2.087 2.05-3.473 1.742-.289-.066-.598.006-.83.192-.232.185-.36.468-.354.761.066 2.237.969 5.211 4.369 8.013-3.4 2.771-4.302 5.709-4.369 7.923-.006.288.122.566.354.749.23.185.537.255.83.19 1.399-.306 2.845.416 3.474 1.722.649 1.353.304 2.964-.838 3.92-.218.184-.342.454-.335.734.006.282.144.546.374.718 1.117.837 2.407 1.364 3.823 1.615-.338 2.505.188 4.458.91 5.87.135.268.395.456.694.509.299.052.606-.036.829-.239 1.047-.958 2.674-1.073 3.833-.251 1.21.858 1.683 2.453 1.152 3.88-.102.271-.071.571.081.818.154.247.41.412.701.448.358.046.725.068 1.086.068 1.473 0 3.366-.389 5.442-1.766.97 1.362 2.095 2.241 3.142 2.798.265.14.583.154.858.033.275-.121.48-.357.548-.643.349-1.448 1.597-2.459 3.042-2.459 1.444 0 2.695 1.013 3.042 2.461.068.285.271.523.548.643.277.121.593.107.86-.033 1.047-.557 2.172-1.436 3.141-2.798 2.077 1.375 3.97 1.764 5.441 1.764.361 0 .729-.022 1.084-.068.293-.036.551-.203.703-.448.151-.247.183-.548.082-.818-.532-1.425-.059-3.021 1.15-3.88 1.159-.824 2.786-.705 3.834.251.223.203.529.291.829.239.3-.053.562-.241.694-.509.724-1.412 1.249-3.365.91-5.869 1.418-.252 2.707-.779 3.821-1.616.231-.172.366-.436.374-.716.007-.282-.113-.552-.332-.736-1.146-.956-1.49-2.567-.841-3.919.628-1.307 2.088-2.028 3.474-1.723.289.064.599-.006.83-.19.232-.183.361-.461.354-.749-.065-2.214-.967-5.153-4.367-7.922m-12.842-26.458c-.226 1.841.565 3.697 2.125 4.795.854.599 1.853.915 2.892.915.812 0 1.598-.194 2.306-.557.345 1.031.433 2.153.309 3.34-2.341 0-4.969.69-7.784 2.097-1 .496-1.998 1.155-2.99 1.972.286-1.287.43-2.508.43-3.654 0-3.219-.52-5.662-1.306-7.529 1.318-.852 2.667-1.329 4.018-1.379m-32.902 5.154c1.618.828 3.681.709 5.199-.36 1.56-1.097 2.351-2.952 2.127-4.793 1.351.05 2.696.527 4.015 1.376-.787 1.867-1.308 4.311-1.308 7.531 0 1.146.146 2.367.432 3.654-.993-.816-1.992-1.476-2.99-1.972-2.813-1.406-5.441-2.097-7.782-2.097-.125-1.186-.037-2.308.307-3.339m-1.82 37.045c-.771-.133-1.491-.361-2.146-.709 1.102-1.494 1.325-3.507.494-5.24-.823-1.713-2.486-2.8-4.37-2.873.378-2.107 1.72-4.045 3.928-5.744.757.5 1.598.992 2.549 1.467 2.177 1.087 4.931 1.699 8.194 1.827-2.557 1.674-4.509 3.492-5.812 5.426-1.466 2.17-2.349 4.116-2.837 5.846m26.402 11.715c-.868-1.634-2.563-2.695-4.469-2.695-1.909 0-3.602 1.062-4.467 2.693-.611-.465-1.141-1.046-1.601-1.72 1.166-1.021 2.367-2.371 3.568-4.152 1.053-1.563 1.889-3.499 2.5-5.796.61 2.295 1.444 4.233 2.497 5.798 1.203 1.783 2.404 3.133 3.57 4.154-.459.672-.988 1.251-1.598 1.718m15.644-5.901c-1.618-.836-3.681-.716-5.198.365-1.561 1.111-2.352 2.988-2.128 4.851-3.002-.112-5.995-2.262-8.677-6.235-1.631-2.422-2.69-5.922-3.148-10.402-.049-.485-.466-.854-.962-.854-.495 0-.913.369-.962.853-.459 4.482-1.519 7.983-3.15 10.402-2.68 3.976-5.675 6.125-8.677 6.237.226-1.862-.565-3.739-2.125-4.851-.854-.606-1.853-.927-2.891-.927-.812 0-1.597.194-2.306.562-.978-2.953-.079-6.595 2.63-10.614 1.611-2.396 4.395-4.625 8.264-6.628.406-.209.602-.665.48-1.096-.125-.432-.56-.72-.992-.691-4.534.272-8.239-.263-10.875-1.577-4.29-2.141-6.809-4.871-7.352-7.949 1.881-.075 3.545-1.176 4.37-2.91.831-1.752.609-3.788-.494-5.301 2.662-1.436 6.323-1.082 10.569 1.035 1.702.85 3.439 2.267 5.166 4.211.307.348.827.429 1.226.192.401-.238.572-.724.408-1.151-.951-2.446-1.434-4.677-1.434-6.627 0-4.869 1.269-8.373 3.676-10.232.868 1.654 2.563 2.728 4.469 2.728 1.909 0 3.602-1.074 4.467-2.724 2.409 1.855 3.676 5.359 3.676 10.228 0 1.952-.482 4.182-1.434 6.627-.167.43.005.915.405 1.153.401.234.92.155 1.23-.192 1.725-1.944 3.462-3.363 5.166-4.213 4.24-2.117 7.905-2.471 10.568-1.035-1.102 1.513-1.324 3.547-.494 5.303.824 1.732 2.486 2.833 4.371 2.908-.547 3.078-3.063 5.808-7.354 7.949-2.639 1.314-6.344 1.85-10.873 1.577-.434-.028-.871.26-.992.691-.124.431.076.887.478 1.096 3.872 2.001 6.655 4.231 8.269 6.628 2.707 4.019 3.606 7.66 2.63 10.613m3.472-11.762c-.83 1.732-.608 3.743.494 5.239-.654.348-1.375.576-2.146.709-.487-1.73-1.371-3.676-2.836-5.847-1.305-1.934-3.252-3.752-5.812-5.426 3.263-.128 6.015-.74 8.194-1.827.951-.475 1.792-.965 2.551-1.467 2.207 1.697 3.549 3.637 3.926 5.744-1.882.074-3.545 1.161-4.371 2.875"/></svg>