<svg xmlns="http://www.w3.org/2000/svg" viewBox="0 0 64 64" enable-background="new 0 0 64 64"><path d="m22.491 2.637c5.679 12.883 12.351 22.249 19.79 26.55 6.314 3.646 14.369 1.531 17.978-4.73 3.616-6.266 1.417-14.299-4.897-17.946-7.44-4.302-19.098-5.365-32.871-3.874"/><path d="m12.181 10.953c-6.468 8.847-10.181 16.992-10.181 23.688.002 5.68 4.563 10.291 10.184 10.291 5.627 0 10.182-4.611 10.182-10.291-.001-6.696-3.821-14.975-10.185-23.688"/><path d="m28.955 31.222c-1.182 10.899-.326 19.812 3.018 25.607 2.84 4.919 9.092 6.63 13.96 3.816 4.872-2.815 6.515-9.089 3.677-14.007-3.344-5.798-10.79-11.057-20.655-15.416"/></svg>