<svg xmlns="http://www.w3.org/2000/svg" viewBox="0 0 64 64" enable-background="new 0 0 64 64"><path d="m32 2c-11.027 0-20 7.889-20 17.586 0 5.13 3.368 10.412 6.621 15.516 2.803 4.393 5.48 8.586 6.316 12.898h14.125c.838-4.313 3.512-8.506 6.314-12.898 3.255-5.104 6.624-10.386 6.624-15.516 0-9.697-8.973-17.586-20-17.586m0 27.674c1.932 2.085 3.752 2.705 4.584 2.889-.125.555-.238 1.097-.369 1.631-.246 1.092-.486 2.156-.719 3.178-.752 3.342-1.395 6.268-1.895 8.629h-3.203c-.502-2.361-1.144-5.287-1.895-8.629-.232-1.021-.473-2.086-.721-3.178-.131-.534-.244-1.076-.367-1.631.833-.184 2.653-.804 4.585-2.889m-.539-2.183c-.191-.413-.26-.835-.064-1.146.164-.247.381-.388.604-.388s.438.141.604.388c.195.311.127.732-.064 1.146-.141.292-.334.57-.541.839-.209-.269-.4-.547-.539-.839m12.23 6.534c-2.583 4.049-5.039 7.898-6.203 11.975h-3.246c.595-2.322 1.313-5.192 2.113-8.465.246-1.021.506-2.078.771-3.168.148-.58.279-1.178.424-1.773.756-.051 1.479-.287 2.043-.804.578-.569.879-1.313.744-2.107-.061-.38-.346-.872-.896-1.04-.254-.084-.508-.102-.832-.019-.268.103-.465.251-.598.396-.533.592-.727 1.183-.945 1.769-.102.295-.186.59-.266.881 0 0-.85.065-2.668-1.158-1.01-.679-1.301-1.17-1.594-1.495.316-.351.619-.736.854-1.203.125-.261.23-.544.266-.862s-.023-.678-.205-.988c-.182-.306-.443-.588-.865-.76-.182-.065-.385-.096-.588-.096s-.408.03-.588.096c-.422.172-.684.454-.867.76-.182.311-.24.67-.205.988.037.318.143.602.268.862.234.467.537.853.854 1.203-.293.325-.586.816-1.596 1.495-1.818 1.224-2.668 1.158-2.668 1.158-.078-.291-.164-.586-.264-.881-.221-.586-.412-1.177-.945-1.769-.135-.146-.33-.294-.598-.396-.324-.083-.578-.065-.832.019-.553.168-.836.66-.896 1.04-.137.794.166 1.538.744 2.107.566.517 1.287.753 2.043.804.143.596.273 1.193.424 1.773.266 1.09.523 2.146.771 3.168.801 3.272 1.518 6.143 2.113 8.465h-3.246c-1.162-4.073-3.619-7.922-6.209-11.979-3.099-4.863-6.303-9.891-6.303-14.435 0-8.594 8.074-15.586 18-15.586 9.925 0 18 6.992 18 15.586 0 4.546-3.207 9.575-6.309 14.439m-5.892-2.361c.059-.205.119-.413.189-.613.189-.527.43-1.1.758-1.443.078-.088.158-.123.199-.146 0 .004.098-.012.16.019.111.028.217.143.258.364.08.428-.123.979-.49 1.324-.258.245-.656.417-1.074.495m-11.6 0c-.418-.078-.816-.25-1.072-.496-.369-.345-.57-.896-.49-1.324.041-.222.146-.336.258-.364.063-.03.16-.015.16-.019.039.023.121.059.195.146.33.344.57.916.76 1.443.07.201.131.409.189.614"/><path d="m26.52 49.557h-1v1 1.6 1h.768v.601 1.6 1h.768v.601 1.6 1h1 .286c.605 1.429 2.005 2.441 3.658 2.441 1.652 0 3.051-1.012 3.658-2.443h.327 1v-1-1.6-.621l.112-.041.655-.24v-.698-1.6-.625l.065-.021.701-.22v-.735-1.6-1h-1-10.998z"/></svg>