<svg xmlns="http://www.w3.org/2000/svg" viewBox="0 0 64 64" enable-background="new 0 0 64 64"><path d="m55.438 5h-46.875c-3.625 0-6.563 2.918-6.563 6.517v29.793c0 3.598 2.938 6.518 6.563 6.518h6.918v11.172l10.39-11.172h29.567c3.626 0 6.563-2.92 6.563-6.518v-29.793c-.001-3.599-2.938-6.517-6.563-6.517m-39.451 25.604c-2.331 0-4.219-1.875-4.219-4.19 0-2.314 1.888-4.189 4.219-4.189s4.219 1.875 4.219 4.189c0 2.315-1.888 4.19-4.219 4.19m16.013 0c-2.329 0-4.219-1.875-4.219-4.19 0-2.314 1.89-4.189 4.219-4.189s4.219 1.875 4.219 4.189c0 2.315-1.89 4.19-4.219 4.19m16.013 0c-2.331 0-4.219-1.875-4.219-4.19 0-2.314 1.888-4.189 4.219-4.189 2.329 0 4.219 1.875 4.219 4.189-.001 2.315-1.89 4.19-4.219 4.19"/></svg>