<svg xmlns="http://www.w3.org/2000/svg" viewBox="0 0 64 64" enable-background="new 0 0 64 64"><path d="m62 34.629c0-3.996-1.782-7.521-4.5-9.648.593-1.253.932-2.679.932-4.195 0-4.713-3.245-8.571-7.369-8.94-1.229-4.54-4.991-7.846-9.446-7.846-3.679 0-6.882 2.26-8.58 5.603-.761-.201-1.551-.319-2.367-.319-5.674 0-10.273 5.148-10.273 11.502 0 .541.045 1.069.109 1.591-.281.146-.564.293-.844.435-1.338.674-2.691 1.309-4.059 1.893-2.736 1.162-5.525 2.152-8.412 2.725 2.84.955 5.789 1.494 8.748 1.834.148.017.299.026.447.043-1.093.327-2.189.642-3.291.926-3.646.941-7.335 1.663-11.085 1.992 3.595 1.174 7.283 1.976 10.996 2.554-3.702.812-7.384 1.761-11.006 2.948 3.746.328 7.457.9 11.143 1.615 1.195.233 2.386.505 3.577.769-.304.058-.609.101-.913.161-2.906.586-5.801 1.291-8.625 2.25 2.873.568 5.689 1.395 8.479 2.332 1.395.473 2.781.973 4.158 1.502.662.257 1.333.521 1.996.79 1.578 3.707 4.944 6.274 8.855 6.274 1.004 0 1.972-.171 2.885-.484 1.895 4.187 5.767 7.064 10.248 7.064 6.348 0 11.492-5.762 11.492-12.869 0-.51-.033-1.011-.085-1.505 3.966-1.684 6.79-5.966 6.79-10.997m-14.797-25.723c1.397 1.464 2.105 3.417 2.2 5.533 1.967-.442 3.896-.032 5.204 1.338 1.715 1.799 1.881 4.719.66 7.375-.254-2.143-1.082-4.098-2.523-5.609-.95-.995-2.088-1.694-3.332-2.144-.068 1.589-.465 3.239-1.195 4.831-.389-3.289-1.662-6.293-3.881-8.615-2.057-2.156-4.676-3.455-7.545-3.959 3.783-1.758 7.861-1.424 10.412 1.25m-8.293 36.78c-.361-3.074-1.553-5.875-3.621-8.045-1.922-2.014-4.365-3.225-7.047-3.695 3.533-1.639 7.342-1.33 9.723 1.164 2.459 2.578 2.695 6.765.945 10.576m15.766-14.997c-1.504-1.576-3.311-2.689-5.293-3.375 2.415 4.382 2.269 10.248-.223 15.678-.623-5.293-2.678-10.125-6.244-13.863-3.313-3.475-7.525-5.563-12.146-6.375 2.234-1.035 4.532-1.614 6.749-1.726-.663-1.876-1.676-3.584-3.056-5.028-2.057-2.158-4.676-3.455-7.547-3.961 3.785-1.756 7.863-1.422 10.414 1.25 1.879 1.969 2.524 4.816 2.074 7.766 3.105.232 5.959 1.442 8.125 3.713.412.433.777.897 1.117 1.379 3.322-1.038 6.686-.485 8.896 1.832 2.635 2.764 2.887 7.246 1.014 11.326-.388-3.289-1.661-6.293-3.88-8.616"/></svg>