<svg xmlns="http://www.w3.org/2000/svg" viewBox="0 0 64 64" enable-background="new 0 0 64 64"><ellipse cx="10.97" cy="52.578" rx="1.742" ry="1.188"/><path d="m62 46.669l-.654-.384c-.05-.029-5.047-2.994-6.289-6.592l-.277-.797-.512.669c-.016.021-.726.899-2.713 1.929-1.471-8.373-6.475-18.369-13.051-22.631 1.88.152 3.766-.004 5.586-.666 1.096-.398.623-2.184-.483-1.78-1.492.543-2.987.691-4.479.615 3.663-3.357 6.539-8.502 6.539-12.264 0-.904 0-2.587-1.34-2.587-.538 0-.973.336-1.574.8-.922.711-2.314 1.787-4.359 1.787-.779 0-2.205-.822-3.351-1.482-1.385-.797-2.27-1.286-3.014-1.286-1.232 0-3.043.996-4.641 1.875-.65.357-1.539.847-1.723.894-2.316 0-3.661-1.068-4.553-1.775-.52-.414-.897-.714-1.4-.714-1.318 0-1.318 1.581-1.318 3.412 0 3.534 2.692 8.199 6.217 11.334-2.221.159-4.411.83-5.95 2.321-.85.822.438 2.126 1.285 1.306 1.279-1.24 2.956-1.771 4.75-1.874.051.183.113.363.189.54-7.516 5.401-12.855 18.226-12.855 26.884 0 .854.066 1.627.168 2.355-1.938-.861-2.645-1.616-2.659-1.633l-.516-.595-.254.75c-1.123 3.304-6.005 6.17-6.054 6.199l-.715.415.727.393c.255.138.508.259.763.39l-.46.319.243 3.04 19.053 4.164 7.224-4.621c.729.004 1.467.006 2.218.006l8.444 4.615 19.089-6v-3.209l-.505-.303c.252-.16.504-.323.755-.491l.669-.447-.147-.072.851-.233.144-3.336-.492-.349c.262-.157.523-.317.785-.483l.639-.408m-41.787-40.977c0-.444.006-.79.015-1.059.153.12.331.251.521.386.583 1.396 1.686 3.406 3.556 4.672 2.272 1.54 1.97-.23 3.182-1.846 1.212-1.615 2.032-2.461 4.062 1.693.885 1.811 2.36-3.25 3.762-3.989.371.202.741.39 1.104.55 2.514 4.088 3.679 2.813 5.912-.585.614-.36 1.118-.746 1.519-1.055.002.093.004.196.004.311 0 3.21-2.623 7.814-5.835 10.817-.151-.378-.361-.735-.642-1.053-1.297-1.469-3.324.16-4.285 1.229-1.705-.548-4.483-2.057-6.293-1.193-.499.238-.903.52-1.226.831-2.96-2.698-5.356-6.593-5.356-9.709m16.204 10.974c-.446-.095-.893-.201-1.337-.32.558-.481 1.07-.649 1.285.066.023.078.037.167.052.254m-7.6.621c-.331-.063-.671-.12-1.021-.165-.261-.166-.521-.336-.779-.525.914-.613 2.49-.287 3.996.224-.743.075-1.476.237-2.196.466m.454 2.64c-.56.14-1.17.084-1.697-.126.214-.113.43-.211.646-.31.35.169.7.31 1.051.436m-18.497 36.452c-2.186-.639-4.536-1.515-6.912-2.733 1.357-.892 4.313-3.049 5.515-5.641.824.647 2.726 1.827 6.43 2.733-.063.102-.14.211-.214.318-3.162-.828-4.96-1.875-4.989-1.893l-.436-.26-.209.467c-.275.612-.92.704-1.279.704-.1 0-.167-.007-.176-.008l-.357-.052-.13.342c-.266.698-1.358 1.61-1.758 1.903l-.668.49.764.313c.284.116.361.223.365.251.01.069-.111.251-.24.356l-.582.469.677.313c1.387.64 2.958 1.17 4.529 1.607-.125.123-.233.228-.33.321m8.064-3.726c1.398.196 2.947.32 4.639.32h.001c.352 0 .709-.006 1.073-.017.023.072.057.144.103.213.089.135.209.247.361.334l-2.552 2.181c-.043-.002-.093-.003-.146-.003-1.137 0-1.985.418-2.392 1.162-.702-.088-2.466-.325-4.602-.747 1.545-1.383 2.71-2.569 3.515-3.443m-11.349 1.197c.1-.189.165-.418.13-.668-.032-.224-.135-.42-.307-.59.449-.385 1.068-.979 1.408-1.594.773-.011 1.411-.304 1.813-.822.677.354 2.202 1.069 4.455 1.689-.921 1.155-2.162 2.465-3.127 3.439-1.504-.398-3.019-.878-4.372-1.454m14.251 4.209c-.053 0-.121.001-.205.001-.861 0-3.714-.07-7.483-.855.132-.112.269-.227.396-.337 3.058.639 5.524.913 5.709.934l.366.039.113-.355c.247-.766 1.158-.879 1.68-.879.143 0 .238.009.249.01l.194.021 4.433-3.788-1.185-.039c-.396-.014-.563-.103-.604-.164l.251-.657-.694.029c-.506.022-1 .033-1.483.033h-.001c-1.396 0-2.691-.092-3.888-.237.108-.126.198-.233.278-.328 2.416.323 5.309.522 8.802.497-.834 1.17-2.914 3.657-6.928 6.075m10.024-4.345v1.825c-.569 0-1.123-.002-1.665-.006l-.163-2.054-1.354.11c.912-1.078 1.301-1.797 1.336-1.862l.367-.694-.775.014c-7.418.136-12.256-.748-15.31-1.73-.223-.902-.352-1.922-.352-3.113 0-8.123 5.191-20.401 12.083-25.377 1.221 1.181 3.073 1.698 4.833.549.386-.252.722-.582 1.037-.933.075.002.152.019.228.019.252 0 .508-.021.763-.053.323.129.639.259.932.388 1.403.618 2.601.234 3.419-.618 6.313 3.82 11.371 13.925 12.702 22.093-2.886 1.154-7.464 2.28-14.49 2.478 1.386-.792 2.426-2.124 2.052-3.874-.393-1.85-1.939-2.37-3.54-2.455-.004-.869-.004-1.736.002-2.605.491.217.962.467 1.39.734.756.475 1.44-.756.689-1.231-.654-.411-1.352-.747-2.072-.999.01-1.006.015-2.01.015-3.014.001-.92-1.366-.92-1.366 0 0 .883-.006 1.765-.014 2.646-.729-.127-1.465-.139-2.202-.037-.119-.659-.261-1.313-.432-1.97-.226-.886-1.546-.511-1.317.378.168.639.305 1.275.418 1.92-.058.022-.121.033-.178.059-1.852.733-2.982 2.602-1.627 4.345.631.812 1.456 1.14 2.359 1.249.049 1.203.08 2.407.115 3.609-.605-.393-1.156-.897-1.655-1.43-.618-.652-1.583.355-.966 1.006.839.893 1.72 1.568 2.675 2 .043 1.027.104 2.057.204 3.079.088.907 1.456.912 1.367 0-.087-.884-.144-1.771-.187-2.657.52.09 1.066.113 1.646.058.065.946.141 1.892.249 2.838.062.542.58.755.962.645l-.085 1.964c-.602.054-1.216.104-1.856.146l-.762.05.406.656c.041.066.502.795 1.531 1.856h-1.412zm24.888-6.582c-1.257.591-2.847 1.133-4.467 1.606-.996-1.029-2.27-2.402-3.221-3.62 2.119-.642 3.305-1.304 3.84-1.661.423.373.983.567 1.646.566.22 0 .415-.021.565-.045.48.622 1.254 1.34 1.738 1.769-.229.235-.34.495-.331.776.008.24.104.444.23.609m-7.155 3.286c.204.18.415.364.63.55-4.054 1.075-7.071 1.192-7.728 1.203-4.198-2.561-6.374-5.271-7.213-6.491 3.513-.088 6.417-.406 8.839-.844.084.104.182.221.299.36-1.655.263-3.589.476-5.877.583l-.807.034.444.679c-.001.001-.091.169-.687.285l-.969.189 4.764 3.857.222-.06c.005-.001.425-.114.933-.114.733 0 1.234.223 1.486.659l.16.276.311-.055c.186-.031 2.45-.438 5.193-1.111m-14.097-2.939l-1.138-.062c-.053-.568-.106-1.136-.146-1.704.2.332.61.956 1.284 1.766m-1.408-3.661c-.068-1.351-.103-2.693-.119-4.041.164.006.326.021.48.043 1.768.268 2.23 2.234.85 3.34-.36.285-.775.494-1.211.658m10.439 6.752c-.448-.553-1.161-.843-2.083-.843-.385 0-.724.052-.938.094l-2.995-2.427c.249-.143.417-.324.509-.546.023-.058.041-.114.052-.171 2.374-.13 4.374-.367 6.065-.657.82.915 2.025 2.177 3.623 3.644-1.963.467-3.6.787-4.233.906m-11.926-10.757c.019 1.449.055 2.902.132 4.35-.129.02-.256.045-.383.058-.43.049-.838.013-1.226-.085-.049-1.4-.081-2.803-.134-4.204.538-.025 1.083-.078 1.611-.119m-1.68-1.265c-.067-1.098-.161-2.192-.31-3.286.654-.096 1.325-.053 1.987.101-.007 1.022-.009 2.044-.005 3.067-.439.024-.856.066-1.223.099-.155.012-.302.018-.449.019m-1.372-.175c-.085-.023-.169-.041-.256-.07-.401-.137-.757-.36-1.057-.667-.854-.797.318-1.579 1.057-1.95.116.89.196 1.788.256 2.687m11.037 19.466c-4.341-2.218-6.67-4.683-7.595-5.825.665-.05 1.294-.11 1.917-.173l7.118 4.62 15.61-4.288c-8.05 4.852-16.003 5.591-17.05 5.666m12.892-7.89c-.128-.128-.281-.28-.462-.463 1.776-.538 3.494-1.162 4.775-1.848l.779-.419-.79-.402c-.177-.091-.35-.258-.353-.321.002-.024.072-.152.375-.326l.578-.332-.514-.428c-.016-.013-1.619-1.344-2.182-2.201l-.186-.28-.319.093c-.003 0-.277.079-.633.079-.55.001-.962-.179-1.226-.533l-.292-.387-.366.315c-.019.016-1.152.945-4.191 1.823-.104-.151-.203-.3-.289-.44 3.685-1.117 5.568-2.469 6.384-3.209 1.31 2.834 4.429 5.117 5.783 6.012-2.359 1.434-4.695 2.483-6.871 3.267"/><path d="m44.38 47.117c-.997-.271-2.122-.086-2.516.409-.391.497.103 1.123 1.099 1.396.998.271 2.122.085 2.516-.411.391-.497-.101-1.121-1.099-1.394"/></svg>