<svg xmlns="http://www.w3.org/2000/svg" viewBox="0 0 64 64" enable-background="new 0 0 64 64"><path d="m2 10v44h60v-44h-60m22.727 29.333h-15.455v-21.999h15.454v21.999zm12.727 5.502h-10.909v-32.085h10.909v32.085m1.818-10.797c1.245 1.014 2.82 1.629 4.546 1.629 4.017 0 7.271-3.284 7.271-7.334 0-4.049-3.255-7.333-7.271-7.333-1.726 0-3.301.615-4.546 1.629v-5.295h15.454v21.999h-15.454v-5.295m0 8.045h18.182v-27.499h-18.182v-2.75h20.909v33h-20.909v-2.751m-35.454-30.249h20.908v2.75h-18.181v27.499h18.182v2.751h-20.909v-33"/><path d="m17.454 32.917c-1.002 0-1.818-.822-1.818-1.834h-1.817c0 1.705 1.162 3.127 2.727 3.536v1.048h1.818v-1.048c1.564-.409 2.727-1.831 2.727-3.536 0-2.021-1.631-3.666-3.636-3.666-1.002 0-1.818-.822-1.818-1.833 0-1.013.816-1.834 1.818-1.834 1.003 0 1.818.821 1.818 1.834h1.817c0-1.705-1.162-3.127-2.727-3.536v-1.048h-1.818v1.048c-1.564.409-2.727 1.831-2.727 3.536 0 2.021 1.631 3.666 3.636 3.666 1.003 0 1.818.822 1.818 1.833 0 1.012-.815 1.834-1.818 1.834"/></svg>