<svg xmlns="http://www.w3.org/2000/svg" viewBox="0 0 64 64" enable-background="new 0 0 64 64"><path d="m61.925 16.478c-.106-2.057-1.14-4.407-5.173-4.783l-9.498-.831c-.646-2.445-2.256-4.277-3.718-5.283-.395-1.1-1.389-1.931-2.631-2.033l-18.446-1.537c-1.027-.087-1.972.347-2.595 1.074l-.689.322c-1.496.699-3.248 2.266-3.545 5.742-3.178.37-7.031.818-9.194 1.068-1.894.219-3.031 2.654-3.286 3.238l-.008-.001v.017c-1.47 3.389-1.574 9.635 0 13.203v19.112c0 3.05 1.846 5.971 4.158 6.531l39.274 9.539c.397.097.784.144 1.157.144 1.215 0 2.284-.5 3.082-1.351-.018.019-.029.042-.047.06v.01c.757-.65 1.507-1.213 2.242-1.706v.011c0 0 8.821.187 8.977-3.341.003 0 .015-.001.015-.001v-.09c0 0-.031-38.848-.075-39.114m-21.156-9.53c.104-.533.532-1.109 1.039-1.109.109 0 .223.026.338.08 1.771.827 4.408 3.414 4.429 7.081-.065.08-.442.231-1.054.231-.612 0-.988-.151-1.033-.161 0-2.989-2.152-4.66-3.291-5.127-.504-.206-.485-.712-.428-.995m-20.651.394c.488.451 1.115.758 1.826.816l18.449 1.535c.492.041.961-.044 1.389-.217.317.263.627.594.895.985l-21.87-1.915c0 0-.528.062-1.382.161.146-.529.375-.989.693-1.365m-1.496-2.429c-.035.715.15 1.421.527 2.035-.592.818-.9 1.867-.92 3.124-.123.054-.404.126-.826.126-.418 0-.698-.071-.822-.125.024-2.376.709-4.105 2.041-5.16m-13.991 20.047c-1.232-4.005-.476-9.609.683-11.379l2.133.22 41.934 4.543c-.564 2.565-.598 6.435-.095 11.573-.033 2.117-1.249 3.645-2.914 3.645-.146 0-15.399-2.372-15.399-2.372v-4.603l-10.583-1.417-1.086 4.196c0 0-10.324-1.398-12.963-2.003-.699-.16-1.353-1.241-1.71-2.403m23.677 8.503l-8.758-1.377 1.587-6.135 8.759 1.173-1.588 6.339m1.555 5.863l-8.704-1.569-1.578-4.52 8.705 1.368 1.577 4.721m20.382 17.346c0 1.96-1.034 3.328-2.514 3.328-.22 0-39.96-9.625-39.96-9.625-1.244-.302-2.63-2.26-2.63-4.588v-15.581c.386.98 1.901 1.546 2.326 1.616l11.4 1.888 1.521 4.364 10.582 1.908v-4.268l15.771 2.611c1.254.207 2.486-.113 3.521-.791l-.017 19.138m7.008-42.183l-4.967 2.157-46.455-5.032c.293-.214.572-.374.753-.407l8.998-1.052c0 .016-.001.029-.001.046 0 .624.682.997 1.822.997 1.143 0 1.824-.373 1.824-.997 0-.167.02-.318.031-.477l1.511-.177 22.443 1.965c.167.467.272.984.272 1.558 0 .705.799 1.161 2.035 1.161 1.235 0 2.033-.456 2.033-1.161 0-.408-.034-.802-.088-1.185l9.195.805c1.428.133 2.48.544 3.19 1.226-.641-.095-1.48.026-2.596.573"/></svg>