<svg xmlns="http://www.w3.org/2000/svg" viewBox="0 0 64 64" enable-background="new 0 0 64 64"><path d="m2 10v44h60v-44h-60m37.272 24.038c1.245 1.014 2.82 1.629 4.546 1.629 4.017 0 7.271-3.284 7.271-7.334s-3.254-7.333-7.271-7.333c-1.726 0-3.301.615-4.546 1.628v-5.295h15.454v22h-15.454v-5.295m-14.545 5.295h-15.455v-22h15.454v22zm0-24.75h-18.182v27.5h18.182v2.75h-20.909v-33h20.908v2.75zm12.727 30.253h-10.909v-32.086h10.909v32.086m22.728-.003h-20.91v-2.75h18.182v-27.5h-18.182v-2.75h20.909v33z"/><path d="m22 33.219h-5.48c.563-.739.935-1.663.935-2.729 0-.293-.029-.589-.109-.912h2.636v-2.152h-3.697c-.049-.068-.085-.131-.136-.202-.121-.169-.247-.335-.373-.502-.525-.688-.848-1.14-.848-1.702 0-1.371 1.133-2.487 2.527-2.487 1.394 0 2.526 1.116 2.526 2.487h2.019c0-2.469-2.041-4.478-4.546-4.478-2.507 0-4.545 2.009-4.545 4.478 0 .988.43 1.762.887 2.406h-.887v2.152h2.307c.214.474.218.731.218.912 0 1.645-1.623 2.7-2.524 2.729v1.989h9.09v-1.989"/></svg>