<svg xmlns="http://www.w3.org/2000/svg" viewBox="0 0 64 64" enable-background="new 0 0 64 64"><path d="M48.875,28.25h-33.75c-3.107,0-5.625-2.518-5.625-5.625C9.5,19.52,12.018,17,15.125,17h33.75
			c3.107,0,5.625,2.52,5.625,5.625H62C62,15.376,56.124,9.5,48.875,9.5H35.75V2h-7.5v7.5H15.125C7.876,9.5,2,15.376,2,22.625
			S7.876,35.75,15.125,35.75h33.75c3.107,0,5.625,2.52,5.625,5.625c0,3.107-2.518,5.627-5.625,5.627V47h-33.75v0.002
			c-3.107,0-5.625-2.52-5.625-5.627H2C2,48.624,7.876,54.5,15.125,54.5H28.25V62h7.5v-7.5h13.125C56.124,54.5,62,48.624,62,41.375
			S56.124,28.25,48.875,28.25z"/></svg>