<svg xmlns="http://www.w3.org/2000/svg" viewBox="0 0 64 64" enable-background="new 0 0 64 64"><path d="M2,32v24c0,3.314,2.688,6,6,6h24C15.432,62,2,48.569,2,32z"/><path d="M32,2H8C4.688,2,2,4.686,2,8v24C2,15.433,15.432,2,32,2z"/><path d="m55.999 2h-23.999c13.979 0 25.724 9.562 29.055 22.5h-23.054c-.424 0-.836.045-1.234.128-1.375-.892-3.01-1.415-4.767-1.415-4.845 0-8.787 3.941-8.787 8.787s3.942 8.787 8.787 8.787c1.757 0 3.392-.523 4.767-1.415.398.083.811.128 1.234.128h23.054c-3.33 12.939-15.076 22.5-29.055 22.5h23.999c3.316 0 6.001-2.686 6.001-6v-16.5-7.5-7.5-16.5c0-3.314-2.685-6-6.001-6m-23.999 36.912c-3.812 0-6.912-3.101-6.912-6.912s3.101-6.912 6.912-6.912c.906 0 1.771.18 2.563.499-1.548 1.085-2.563 2.879-2.563 4.913v3c0 2.034 1.015 3.828 2.563 4.914-.792.318-1.657.498-2.563.498"/></svg>