<svg xmlns="http://www.w3.org/2000/svg" viewBox="0 0 64 64" enable-background="new 0 0 64 64"><path d="m57 53.816h-.297c.752 0 1.361-.622 1.361-1.389v-33.038c0-.768-.609-1.389-1.361-1.389h-49.378c-.752 0-1.362.621-1.362 1.389v33.039c0 .767.61 1.389 1.362 1.389h-.325l-5 4.852c0 1.665 1.348 3.331 2.997 3.331h54.007c1.555 0 2.996-1.662 2.996-3.332l-5-4.852m-24.986-35.041c.43 0 .777.348.777.777s-.348.777-.777.777c-.429 0-.777-.348-.777-.777s.348-.777.777-.777m-24.609 36.041h49.189l2.938 2.852h-21.99l-.398-.528h-10.26l-.399.528h-22.019l2.939-2.852m28.911 6.022h-8.634c-.296 0-1.084 0-1.084-1.008h10.803c0 1.008-.804 1.008-1.085 1.008"/></svg>