<svg xmlns="http://www.w3.org/2000/svg" viewBox="0 0 64 64" enable-background="new 0 0 64 64"><path d="m2 10v44h60v-44h-60m37.273 24.038c1.244 1.014 2.82 1.629 4.545 1.629 4.018 0 7.271-3.284 7.271-7.334s-3.253-7.333-7.271-7.333c-1.725 0-3.301.615-4.545 1.628v-5.295h15.453v22h-15.453v-5.295m-14.546 5.295h-15.454v-22h15.454v22m0-24.75h-18.182v27.5h18.182v2.75h-20.909v-33h20.909v2.75m12.728 30.253h-10.91v-32.086h10.91v32.086m22.727-.003h-20.909v-2.75h18.182v-27.5h-18.182v-2.75h20.908v33z"/><path d="m13.985 26.056v2.034h2.603v2.034h-2.603v2.032h2.603v3.051h1.733v-3.051h2.601v-2.032h-2.601v-2.034h2.601v-2.034h-2.102l4.089-3.945-1.102-1.569-4.352 4.196-4.352-4.196-1.103 1.569 4.089 3.945z"/></svg>