<svg xmlns="http://www.w3.org/2000/svg" viewBox="0 0 64 64" enable-background="new 0 0 64 64"><path d="M32,2C15.432,2,2,15.432,2,32s13.432,30,30,30s30-13.432,30-30S48.568,2,32,2z M21,10h6.078l4.894,4.887L36.896,10H43
	l-8.881,8.813v0.006h4.6v4.297h-4.6v4.295h4.6v4.295h-4.6V36h-4.302v-4.295h-4.517V27.41h4.517v-4.295h-4.517v-4.297h4.517v-0.01
	L21,10.004V10z M51.322,38.986l-3.977-2.707l-6.555,11.475l-4.855-2.689l-4.358,8.199l-5.07-3.637L23.271,54
	c-1.489-0.471-2.916-1.063-4.271-1.77l6.482-8.762l4.478,3.209l4.081-7.672l4.977,2.756l6.777-11.863l4.256,2.895L55.92,24
	c0.656,2.059,1.031,4.23,1.08,6.48L51.322,38.986z"/></svg>