<svg xmlns="http://www.w3.org/2000/svg" viewBox="0 0 64 64" enable-background="new 0 0 64 64"><path d="M32,2C15.433,2,2,15.432,2,32s13.433,30,30,30c16.568,0,30-13.432,30-30S48.568,2,32,2z M32,60C16.561,60,4,47.439,4,32
		S16.561,4,32,4s28,12.561,28,28S47.439,60,32,60z"/><circle cx="32" cy="32" r="6.637"/><path d="m44.829 33.734c.077-.569.13-1.145.13-1.734 0-7.146-5.813-12.959-12.959-12.959-.59 0-1.165.053-1.734.13l-7.698-11.419c-6.771 2.643-12.173 8.045-14.815 14.817l11.417 7.696c-.076.568-.13 1.145-.13 1.734 0 7.146 5.813 12.959 12.96 12.959.59 0 1.165-.053 1.734-.13l7.696 11.419c6.772-2.643 12.173-8.045 14.817-14.817l-11.418-7.696m-23.134-1.734c0-5.682 4.622-10.305 10.305-10.305 5.682 0 10.305 4.623 10.305 10.305s-4.623 10.305-10.305 10.305c-5.683 0-10.305-4.623-10.305-10.305"/></svg>