<svg xmlns="http://www.w3.org/2000/svg" viewBox="0 0 64 64" enable-background="new 0 0 64 64"><path d="m25.81 39.321c-.861-.778-2.425-.768-3.553.006-.271.186-.676.183-.885-.008-.207-.187-.146-.497.125-.682.273-.188.66-.188.877.009.51-.356 1.016-.714 1.521-1.074-.712-.649-1.861-.763-2.866-.386-.143-.131-.286-.26-.43-.393-.456.317-.914.631-1.373.943.151.137.304.276.458.413-.541.715-.538 1.585.127 2.187.371.337.869.536 1.423.594.74.08 1.561-.096 2.201-.537.272-.185.66-.185.868.004.209.19.165.501-.107.688-.271.187-.677.183-.886-.004-.513.345-1.029.688-1.549 1.027.66.598 1.782.75 2.765.437.178.161.353.324.532.484.461-.311.918-.623 1.373-.94-.172-.152-.343-.307-.512-.465.602-.742.576-1.677-.109-2.303"/><path d="m43.123 21.766c.651 0 1.332-.309 1.815-.892.206-.247.539-.294.747-.105.21.189.22.549.015.796-.206.248-.556.294-.764.106-.39.461-.783.918-1.178 1.372.659.599 1.65.628 2.447.146.178.162.355.323.533.483.35-.413.695-.827 1.037-1.245-.171-.154-.342-.309-.511-.463.401-.922.233-1.985-.45-2.608-.863-.78-2.203-.57-3.053.45-.206.248-.556.294-.764.106-.209-.19-.201-.55.002-.797.209-.246.54-.296.756-.101.385-.466.766-.938 1.141-1.411-.714-.648-1.715-.636-2.521-.079-.145-.131-.289-.262-.433-.392-.341.418-.688.833-1.037 1.245.153.138.306.278.458.414-.355.885-.223 1.877.444 2.479.372.339.829.504 1.316.496"/><path d="m59.696 31.693c.798-.977 1.577-1.96 2.304-2.956-.311-2.492-.652-5.01-1.026-7.545-.043-.038-.086-.078-.129-.116l.471-.69-1.18-1.072c-5.833-5.295-11.664-10.589-17.497-15.882l-1.577-1.432-1.198 1.757c-2.022 2.967-4.241 5.824-6.606 8.578.129-.548.27-1.113.424-1.7.631-2.395-.108-4.021-.84-4.962-1.363-1.755-3.943-2.723-7.268-2.723-9.428 0-23.068 7.414-23.068 20.819 0 1.84 1.226 3.126 2.98 3.126 1.295 0 2.791-.724 4.471-2.159.158.543.396 1.056.744 1.492.666.836 1.648 1.297 2.766 1.297.251 0 .509-.022.774-.068.119.577.337 1.148.685 1.646-3.239 2.328-6.613 4.5-10.124 6.472l-2.219 1.245 1.771 1.608c-.362.224-.725.449-1.086.667-.4 1.848-.823 3.672-1.268 5.463 6.405 5.816 12.809 11.627 19.213 17.442 5.39-2.932 10.877-6.317 16.155-10.05.002.003.002.007.004.009.482.837 1.268 1.409 2.343 1.714-1.861 2.149-2.53 3.99-1.99 5.493.431 1.197 1.54 1.912 2.968 1.912 13.486 0 20.944-13.558 20.944-22.93 0-2.235-.445-4.161-1.287-5.568-.196-.326-.418-.616-.654-.887m-27.17-15.752c3.221-3.525 6.198-7.24 8.866-11.154 5.833 5.294 11.665 10.587 17.497 15.883-2.405 3.526-5.062 6.894-7.918 10.106-.924.195-1.797.364-2.597.494 2.498-2.692 4.865-5.487 7.038-8.416-.193-.176-.389-.352-.583-.529-.645-.585-.738-1.632-.227-2.346.154-.218.309-.433.463-.649-3.889-3.528-7.777-7.059-11.663-10.587-.155.217-.31.434-.463.649-.512.712-1.465.811-2.107.226-.194-.174-.389-.352-.584-.527-2.48 3.342-5.199 6.52-8.097 9.552.087-.814.208-1.711.375-2.702m7.045 9.803c-2.041-1.854-4.899-2.273-7.456-1.431-.077-.503-.188-1.558-.137-3.218 3.058-3.086 5.921-6.337 8.54-9.756.993.515 2.174.4 3.046-.312 3.159 2.868 6.318 5.736 9.478 8.603-.446 1.098-.338 2.386.306 3.358-2.3 3.003-4.796 5.868-7.438 8.615-1.359.145-2.477.195-3.337.195-.319 0-.601-.008-.864-.019.359-2.152-.378-4.438-2.138-6.035m-25.889-.077c-.07.006-.148.021-.214.021-2.235 0-2.016-3.203-1.779-4.754 1.233-1.228 2.393-2.51 3.604-3.722 1.278-1.302 2.621-2.534 4.132-3.516 1.51-.974 3.225-1.665 5.084-1.837-1.857-.192-3.798.292-5.453 1.22-1.676.911-3.107 2.173-4.423 3.491-1.307 1.332-2.506 2.74-3.714 4.125-1.217 1.367-2.421 2.739-3.89 3.869-.617.338-1.135.493-1.544.493-.745 0-1.133-.502-1.133-1.289 0-12.537 13.027-18.982 21.22-18.982 4.3 0 7.27 1.778 6.318 5.384-2.758 10.478-1.49 14.997-1.49 14.997-1.08 2.015-3.162 2.67-3.162 2.67-1.239-.339-2.429-.455-3.48-.455-2.354 0-4.019.584-4.019.584-.88.498-1.56.699-2.085.699-1.9 0-1.756-2.648-1.65-3.565.251-.118.495-.246.73-.384.942-.542 1.774-1.222 2.586-1.888.802-.678 1.582-1.355 2.408-1.95.829-.586 1.721-1.074 2.779-1.27-.268-.049-.539-.064-.811-.053-.816.037-1.635.325-2.348.712-.971.513-1.81 1.191-2.624 1.858-.803.683-1.581 1.367-2.391 1.996-.807.62-1.658 1.17-2.651 1.546m20.243 20.508c-3.415 2.475-6.983 4.784-10.717 6.882-5.832-5.296-11.663-10.586-17.496-15.883 3.742-2.102 7.318-4.416 10.74-6.897.375.139.776.227 1.203.227.438 0 .897-.076 1.381-.224-2.752 2.073-5.608 4.038-8.584 5.858.194.177.39.354.583.532.642.583.535 1.446-.249 1.909-.24.14-.478.281-.716.419 3.887 3.53 7.775 7.059 11.664 10.589.24-.14.477-.278.716-.422.785-.462 1.94-.376 2.583.207.194.178.387.354.583.532 3.068-1.876 6.003-3.912 8.835-6.057-.38.843-.554 1.621-.526 2.328m1.193-4.795c-2.984 2.357-6.095 4.589-9.354 6.645-1.072-.583-2.492-.68-3.697-.274-3.159-2.866-6.32-5.736-9.479-8.603.782-.791.909-1.865.344-2.767 3.484-2.198 6.806-4.588 9.979-7.129.27-.019.55-.032.848-.032 1.037 0 2.044.131 2.992.389l.171.047c-.492 2.07.097 4.252 1.876 5.867 1.634 1.482 3.921 2.162 6.139 1.99.321 1.467.303 2.825.181 3.867m5.574 17.861c-1.229 0-1.755-.936-.787-2.678 1.135-1.451 2.51-2.645 3.879-3.848 1.393-1.2 2.809-2.394 4.15-3.692 1.324-1.308 2.595-2.729 3.511-4.396.933-1.645 1.421-3.575 1.228-5.421-.174 1.848-.867 3.554-1.848 5.056-.988 1.501-2.228 2.836-3.537 4.107-1.219 1.202-2.508 2.355-3.742 3.58-.476.072-1.104.142-1.75.142-1.533 0-3.151-.399-3.02-2.104.378-.996.935-1.848 1.561-2.657.633-.805 1.321-1.578 2.008-2.376.672-.81 1.354-1.644 1.869-2.608.518-.945.861-2.077.663-3.14-.196 1.052-.687 1.939-1.276 2.763-.598.821-1.279 1.597-1.963 2.395-.669.808-1.354 1.635-1.898 2.571-.138.232-.268.475-.385.725-.227.024-.549.054-.922.054-1.562 0-3.83-.499-1.962-3.768 0 0 1.23-3.467.13-7.454 0 0 .658-2.07 2.684-3.144 0 0 1.043.289 3.288.289 2.442 0 6.307-.342 11.8-1.771.458-.119.889-.177 1.289-.177 8.788 0 3.425 27.552-14.97 27.552"/></svg>