<svg xmlns="http://www.w3.org/2000/svg" viewBox="0 0 64 64" enable-background="new 0 0 64 64"><path d="m2 10v44h60v-44h-60m37.272 24.038c1.245 1.014 2.82 1.629 4.546 1.629 4.017 0 7.271-3.284 7.271-7.334s-3.254-7.333-7.271-7.333c-1.726 0-3.301.615-4.546 1.628v-5.295h15.454v22h-15.454v-5.295m-14.545 5.295h-15.455v-22h15.454v22zm0-24.75h-18.182v27.5h18.182v2.75h-20.909v-33h20.908v2.75zm12.727 30.253h-10.909v-32.086h10.909v32.086m22.728-.003h-20.91v-2.75h18.182v-27.5h-18.182v-2.75h20.909v33z"/><path d="m20.488 35.208c.508 0 1.018-.05 1.512-.15l-.41-1.792c-.361.072-.73.109-1.102.109-2.032 0-3.807-1.108-4.762-2.75h6.066v-1.833h-6.729c-.05-.3-.082-.604-.082-.917s.032-.617.082-.917h6.729v-1.833h-6.066c.955-1.642 2.729-2.75 4.762-2.75.371 0 .74.036 1.102.109l.41-1.792c-.494-.101-1.004-.15-1.512-.15-3.121 0-5.795 1.899-6.903 4.583h-2.494v1.833h2.01c-.037.301-.063.605-.063.917s.026.616.063.917h-2.01v1.833h2.494c1.108 2.684 3.782 4.583 6.903 4.583"/></svg>