<svg xmlns="http://www.w3.org/2000/svg" viewBox="0 0 64 64" enable-background="new 0 0 64 64"><path d="m54.125 30.929c.63-.364.985-1.052.845-1.846l-.387-2.213c-.162-.915-.931-1.693-1.854-1.99l-1.22-13.536c-.199-2.209-1.997-4.017-3.994-4.017h-1.854v-1.613c0-2.043-1.629-3.714-3.621-3.714h-19.924c-1.994 0-3.625 1.671-3.625 3.714v1.613h-1.852c-1.998 0-3.796 1.808-3.994 4.017l-1.214 13.492c-.994.255-1.839 1.067-2.011 2.034l-.391 2.213c-.148.857.274 1.596 1 1.93v6.178c-.718 1.121-1.016 2.638-.717 4.306l.427 2.406c.499 2.792 2.511 5.169 4.819 5.952v4.727h-.01c-.939 0-1.87.651-2.164 1.512l-1.309 3.815c-.175.517-.102 1.047.203 1.454.306.405.8.637 1.358.637h11.472c.561 0 1.055-.233 1.359-.641.303-.407.376-.938.199-1.455l-1.309-3.813c-.297-.861-1.227-1.511-2.162-1.511h-.01v-4.452h19.782v4.452h-.01c-.934 0-1.863.649-2.163 1.512l-1.308 3.812c-.176.517-.104 1.047.199 1.455.306.408.802.641 1.363.641h11.47c.56 0 1.055-.233 1.358-.641.304-.408.377-.938.199-1.455l-1.307-3.813c-.297-.861-1.228-1.511-2.163-1.511h-.011v-4.727c2.307-.783 4.32-3.16 4.818-5.952l.431-2.406c.298-1.668-.001-3.185-.719-4.307v-6.259zm-5.72.278h3.813v4.363c-.477-.194-1.003-.303-1.569-.303h-2.243v-4.06zm-36.468 0h3.813v4.061h-2.245c-.565 0-1.091.108-1.569.303v-4.364zm29.884-19.919c-.005.067.002.132-.007.2l-1.698 13.475c-.246 1.95-1.783 3.599-3.355 3.599h-9.366c-1.574 0-3.111-1.648-3.355-3.599l-1.701-13.475c-.008-.068-.001-.133-.007-.2h19.489m-27.276.215c.111-1.24 1.09-2.329 2.094-2.329h2.222c.333.705.875 1.28 1.545 1.652-.007.291.001.586.039.886l1.701 13.475c.361 2.879 2.715 5.221 5.248 5.221h9.366c2.53 0 4.885-2.342 5.248-5.221l1.698-13.475c.038-.299.046-.594.04-.886.668-.372 1.211-.946 1.544-1.652h2.224c1.004 0 1.982 1.089 2.094 2.33l1.193 13.241h-2.271c-1.247 0-2.437.957-2.643 2.125l-.392 2.213c-.15.857.273 1.596 1.001 1.931v4.254h-28.839v-4.339c.629-.364.985-1.052.846-1.846l-.387-2.213c-.208-1.168-1.396-2.125-2.645-2.125h-2.117l1.191-13.242m5.735 43.078h-3.813v-4.452h3.813v4.452m23.594 0v-4.452h3.814v4.452h-3.814"/></svg>