<svg xmlns="http://www.w3.org/2000/svg" viewBox="0 0 64 64" enable-background="new 0 0 64 64"><path d="m36 6h10v16h-10z"/><path d="m61.293 9.293l-6.586-6.586c-.389-.389-1.157-.707-1.707-.707h-44v4h-4v-4h-2c-.55 0-1 .45-1 1v58c0 .55.45 1 1 1h58c.55 0 1-.45 1-1v-50c0-.55-.318-1.318-.707-1.707m-9.293 48.707h-40v-24c0-1.1.9-2 2-2h36c1.1 0 2 .9 2 2v24m0-36c0 1.1-.899 2-2 2h-30c-1.1 0-2-.9-2-2v-19h34v19m7 36c0 .55-.45 1-1 1h-2c-.55 0-1-.45-1-1v-2c0-.55.45-1 1-1h2c.55 0 1 .45 1 1v2"/><path d="m17 36h30v2h-30z"/><path d="m17 42h30v2h-30z"/><path d="m17 48h30v2h-30z"/></svg>