<svg xmlns="http://www.w3.org/2000/svg" viewBox="0 0 64 64" enable-background="new 0 0 64 64"><path d="m60.333 22.575l-18.912-18.915c-1.054-1.055-2.453-1.66-3.839-1.66-1.005 0-1.903.317-2.602.918l-31.212 26.852c-1.084.932-1.71 2.227-1.764 3.643-.056 1.494.522 2.926 1.628 4.033l22.921 22.923c1.053 1.052 2.416 1.631 3.838 1.631 1.472 0 2.87-.645 3.836-1.768l26.848-31.215c1.479-1.718 1.153-4.547-.742-6.442m-56.512 10.906c.034-.906.436-1.735 1.132-2.333l31.214-26.851c.362-.313.852-.479 1.415-.479.894 0 1.849.422 2.554 1.128l1.639 1.638-34.804 31.629-2.053-2.054c-.745-.745-1.135-1.696-1.097-2.678m55.875-5.649l-26.846 31.215c-.631.732-1.504 1.135-2.459 1.135-.937 0-1.844-.391-2.554-1.1l-12.803-12.805 33.441-32.99 10.573 10.573c1.204 1.205 1.496 2.988.648 3.972"/><path d="m47.837 18.607l-25.388 25.914 7.528 7.529 1.141-1.246c.764.174 1.655-.063 2.297-.719.959-.981 1.538-2.388 1.9-3.871l19.172-20.956-6.65-6.651m-.416 9.081c-.704.313-1.897.662-.74-.689.259.201.52.403.779.605-.012.029-.027.056-.039.084m4.433-3.094c.01-.009.005-.021.011-.03l.736.736-13.78 15.064c.541-1.106.945-2.254 1.336-3.417.174-.522.623-.402.98-.762.727-.734 1.429-1.481 2.137-2.211.896-.922 1.204-2.145 2.029-3.072.887-.994 1.738-1.564 2.302-2.679 1.658-.719 3.134-2.566 4.249-3.629m-27.486 19.918l23.479-23.967 3.753 3.754c-.011.006-.022 0-.032.01-.652.62-1.32 1.235-2.013 1.833-.518.445-1.061.864-1.625 1.261.088-.41.044-1.128-.538-1.171-1.236-.097-2.32 2.518-.672 2.267.119-.019.236-.065.354-.098-.175.32-.38.624-.594.913-.482.657-1.248 1.04-1.795 1.654-.695.778-.967 1.894-1.711 2.705-.329.358-2.124 2.652-2.762 2.382-.079-.031-.191.012-.218.088-.206.593-.408 1.191-.612 1.789-.035.105-.249.55-.459.991.211-.97.238-2.018.131-2.513-.038-.175-.246-.188-.345-.109-.869.695-1.126 2.347-.658 3.602-.261.268-.59.458-1.011.547-.245-.135-.424.229-.178.365.08.043.152.064.227.092-.352.285-.754.564-1.186.844.109-1.748.232-5.166-1.748-5.618-.098-.022-.182.005-.228.088-.866 1.522-2.105 4.713-.313 6.368.211.195.489-.103.278-.298-1.375-1.27-.557-3.647-.057-4.946.775-2.006 1.593 1.85 1.635 2.443.053.742.044 1.489.005 2.236-2.484 1.556-5.655 3.23-5.898 6.357-.054.706.105 1.256.389 1.66l-.033.037-5.565-5.566m14.18-7.405c.244.496.281.979.109 1.446-.049.36-.16.652-.299.913-.186-.802-.074-1.702.19-2.359m-8.094 12.403c-.171-.408-.308-.924-.402-1.572.151-.746.481-1.378.987-1.898 1.185-1.47 2.841-2.441 4.41-3.444-.047.567-.118 1.132-.214 1.689l-4.781 5.225m3.357-.814c-.31.612-.729 1.138-1.261 1.556-.443.269-.827.344-1.162.256l3.111-3.398c-.2.54-.428 1.072-.688 1.586m2.054-6.369c.565-.37 1.111-.751 1.611-1.168.062-.052.063-.114.044-.175.32-.024.585-.226.803-.529.018.029.029.064.05.092.046.068.113.104.18.109l-2.813 3.074c.054-.483.097-.957.125-1.403"/></svg>