<svg xmlns="http://www.w3.org/2000/svg" viewBox="0 0 64 64" enable-background="new 0 0 64 64"><path d="M25.438,15.125H8.563c-1.553,0-2.813-1.26-2.813-2.813S7.01,9.5,8.563,9.5h16.875c1.555,0,2.813,1.26,2.813,2.813H32
				c0-3.624-2.938-6.563-6.563-6.563h-6.563V2h-3.75v3.75H8.563C4.938,5.75,2,8.688,2,12.313c0,3.625,2.938,6.563,6.563,6.563
				h16.875c1.555,0,2.813,1.26,2.813,2.813c0,1.555-1.258,2.814-2.813,2.814V24.5H8.563v0.002c-1.553,0-2.813-1.26-2.813-2.814H2
				c0,3.625,2.938,6.563,6.563,6.563h6.563V32h3.75v-3.75h6.563c3.625,0,6.563-2.938,6.563-6.563
				C32,18.063,29.063,15.125,25.438,15.125z"/><path d="m42.053 22.726l-4.864 4.861 15.248.663-.664-15.247-4.861 4.863-13.037-8.178z"/><path d="m19.813 36.688l.663 15.247 4.641-4.64 13.257 7.954-7.954-13.257 4.64-4.641z"/><path d="m53.525 43.25l8.475-8.643-2.557-2.607-7.755 7.912-7.758-7.912-2.555 2.607 8.475 8.643h-.037-3.798v3.75h3.798v3.75h-3.798v3.75h3.798v7.5h3.75v-7.5h3.795v-3.75h-3.795v-3.75h3.795v-3.75h-3.795z"/></svg>