<svg xmlns="http://www.w3.org/2000/svg" viewBox="0 0 64 64" enable-background="new 0 0 64 64"><path d="m59.127 15.035l-7.41-3.264c-.003-.007-.002-.016-.005-.023-.254-.86-.901-1.575-1.775-1.962l-.282-.126c.076-.429.052-.871-.076-1.296-.255-.85-.899-1.553-1.766-1.929l-4.709-2.043c-.436-.188-.9-.284-1.38-.284-.93 0-1.787.354-2.391.97l-.527-.234c-.434-.192-.897-.29-1.379-.29-.498 0-.966.119-1.393.311l-5.64-2.485c-1.967-.864-4.424-.197-5.523 1.478l-22.289 34.051c-1.097 1.675-.603 4.008 1.13 5.228l25.34 17.842c2.243 1.58 5.132 1.302 6.413-.652l25.991-39.707c1.28-1.954.216-4.464-2.329-5.585m-24.586-5.399l1.724-2.633c.239-.366.694-.574 1.163-.574.209 0 .421.041.618.129l1.931.856.557-.85c.243-.369.709-.581 1.191-.581.214 0 .432.041.634.129l4.709 2.044c.688.298.956.99.598 1.542l-.574.875 2.087.927c.703.311.98 1.019.615 1.58l-1.826 2.786c-.244.374-.709.582-1.199.582-.244 0-.494-.053-.727-.16l-10.986-5.16c-.633-.297-.863-.963-.515-1.492m-3.11 48.382l-26.118-17.857 22.973-35.092 5.392 2.462-.705 1.078c-.452.686-.584 1.531-.363 2.317.232.823.833 1.515 1.648 1.898l10.985 5.16c.476.222 1.001.338 1.524.338 1.148 0 2.184-.535 2.769-1.432l1.068-1.631 6.789 3.1-25.962 39.659"/><path d="m31.686 19.378l14.697 7.537.82-1.254-14.746-7.462z"/><path d="m26.654 18.468c.059.166.236.229.399.137l3.98-2.231c.163-.094.199-.288.078-.433l-.218-.26c-.118-.145-.352-.187-.516-.095l-2.724 1.534c-.16.092-.34.031-.396-.136l-.479-1.394c-.057-.163-.256-.264-.444-.225l-.345.071c-.187.038-.297.205-.24.368l.905 2.664"/><path d="m27.17 26.274l14.406 7.984.822-1.254-14.455-7.91z"/><path d="m26.914 22.729l-4.301-2.316-2.454 3.75 4.254 2.389z"/><path d="m22.657 33.17l14.113 8.431.82-1.257-14.163-8.353z"/><path d="m22.439 29.568l-4.216-2.452-2.453 3.75 4.166 2.526z"/><path d="m18.143 40.065l13.82 8.876.823-1.254-13.872-8.8z"/><path d="m11.38 37.572l4.078 2.657 2.503-3.824-4.127-2.581z"/></svg>