<svg xmlns="http://www.w3.org/2000/svg" viewBox="0 0 64 64" enable-background="new 0 0 64 64"><path d="m61.468 5.774c-.286-.339-.69-.415-.998-.415-.25 0-.436.051-.436.051l-.31.13.313-2.04-2.656 1.112.365-2.497-2.626 1.019c-.188-1.708-2.156-.981-2.156-.981l-23.066 7.965c0 0-.827-1.836-1.597-2.933-1.79-2.562-4.854-1.776-4.854-1.776l-17.592 5.687c0 0-2.43 1.011-3.421 3.693-.978 2.646 0 5.868 0 5.868l9.738 41.322.03-.022.009.043 44.566-31.459 5.18-23.138c0-.001.258-.748-.489-1.629m-54.549 17.062l49.669-19.27-.215 1.469-48.45 20.287 1.625 14.014-2.629-16.5m3.333 14.423l-1.316-11.35 49.922-20.904-.147.961-22.265 9.366c0 0-1.398 5.612-4.234 7.086-3.093 1.606-17.594 8.702-17.594 8.702s-2.064 1.221-3.257 3.186c-.604 1.001-.932 2.119-1.109 2.953m44.852-7.824l-40.987 28.825-2.175-19.763c.055-.468.283-2.003 1.024-3.229.834-1.375 2.282-2.339 2.563-2.517 1.298-.635 14.561-7.129 17.551-8.682 2.798-1.454 4.341-5.494 4.926-7.37l22.023-9.265-4.925 22.001"/></svg>