<svg xmlns="http://www.w3.org/2000/svg" viewBox="0 0 64 64" enable-background="new 0 0 64 64"><path d="m56.999 57.001h-5.218l-14.771-18.903-9.051 10.492-25.959-37.649v-8.941h5.982l20.862 30.256 8.547-9.909 19.608 25.091z"/><path d="M62,2H10.412l1.379,2.001H16.5v6.83l2,2.9v-9.73H31V16.5H20.409l1.379,2.002H31v8.191l2-2.318v-5.873h12.5v10.973
				L48.254,33H60v12.5h-1.976l0.977,1.249V47.5H60V60H47.5v-5.229l-2-2.561V60H33V47.5h8.818l-1.563-2h-6.99L31,48.126V60H18.5V47.5
				h6.278l-1.379-2H18.5v-7.104l-2-2.9V45.5H4V33h10.781l-1.379-2H4V18.502h0.783L2,14.464V62h60V2z M16.5,60H4V47.5h12.5V60z
				 M45.5,16.5H33V4.001h12.5V16.5z M60,16.5H47.5V4.001H60V16.5z M60,31H47.5V18.502H60V31z"/></svg>