<svg xmlns="http://www.w3.org/2000/svg" viewBox="0 0 64 64" enable-background="new 0 0 64 64"><path d="m54.93 24.325c-.497.506-29.471 29.925-30.412 30.878-.133.137-.265.271-.4.406-3.535 3.592-9.289 3.592-12.825 0-3.536-3.59-3.536-9.434 0-13.023l34.732-35.265c2.131-2.165 5.603-2.165 7.732 0 2.068 2.1 2.13 5.478.186 7.654l-.024-.025-30.356 30.839v-.002c-.718.73-1.882.73-2.6 0-.699-.709-.717-1.848-.054-2.58 0 0 25.85-26.321 26.271-26.751.703-.713.705-1.9 0-2.615-.7-.711-1.824-.661-2.523.053-.585.596-25.906 26.275-26.21 26.585-.672.68-1.135 1.465-1.435 2.375-.34 1.037-.321 2.293.035 3.322.438 1.275 1.241 2.303 2.367 3.027 2.092 1.344 4.96.963 6.705-.779l30.187-30.666.029.029c3.553-3.606 3.553-9.476 0-13.082-3.553-3.607-9.335-3.607-12.886 0l-34.734 35.266c-4.953 5.033-4.953 13.221 0 18.254 4.957 5.033 13.023 5.033 17.978 0 .501-.506 30.681-31.15 30.813-31.286.702-.712.702-1.902 0-2.614-.701-.712-1.874-.712-2.576 0"/></svg>