<svg xmlns="http://www.w3.org/2000/svg" viewBox="0 0 64 64" enable-background="new 0 0 64 64"><path d="m56.999 7.001h-5.218l-14.771 18.901-9.051-10.492-25.959 37.649v8.941h5.982l20.862-30.255 8.547 9.908 19.608-25.09z"/><path d="M62,2H2v47.536L4.783,45.5H4V33h9.402l1.379-2H4V18.5h12.5v10.005l2-2.9V18.5h4.899l1.379-2H18.5V4H31v11.876
				l2.266,2.624h6.99l1.563-2H33V4h12.5v7.791l2-2.561V4H60v12.5h-0.999v0.751L58.024,18.5H60V31H48.256L45.5,34.525V45.5H33v-5.874
				l-2-2.317V45.5h-9.21l-1.379,2H31V60H18.5v-9.731l-2,2.9V60h-4.709l-1.379,2H62V2z M16.5,16.5H4V4h12.5V16.5z M45.5,60H33V47.5
				h12.5V60z M60,60H47.5V47.5H60V60z M60,45.5H47.5V33H60V45.5z"/></svg>