<svg xmlns="http://www.w3.org/2000/svg" viewBox="0 0 64 64" enable-background="new 0 0 64 64"><path d="m52.625 12.313c-7.443-2.837-15.562-6.517-27.187-10.313h-23.438c16.22 15.979 6.278 44.019 22.5 60 11.933-7.83 25.565-15.607 37.5-23.437-7.174-7.068-7.778-17.216-9.375-26.25m-27.85 47.268c-6.759-7.442-8.175-17.367-9.67-27.848-1.395-9.773-2.83-19.839-8.958-27.858h18.895c1.316.794 3.885 2.485 4.648 4.019-4.978.807-10.537 1.763-15.465 2.558.393.762.751 1.538 1.075 2.325 4.872-.89 10.371-1.941 15.293-2.844.512 1.306.924 2.647 1.266 4.016-4.836 1.061-10.327 2.122-15.094 3.183.222.824.421 1.655.599 2.494 4.73-1.162 10.184-2.324 14.987-3.486.101.499.197.999.285 1.502 6.448-1.7 11.596-3.891 18.324-3.94.155.917.301 1.843.454 2.809 1.147 7.248 2.436 15.381 7.705 21.688-5.42 3.505-11.215 7.042-16.838 10.475-5.845 3.57-11.877 7.252-17.506 10.907"/><path d="m18.159 24.218c.121.859.227 1.722.327 2.589 9.868-3.074 19.735-6.147 29.6-9.221-.073-.639-.154-1.276-.244-1.912-9.895 2.847-19.789 5.697-29.683 8.544"/><path d="m22.729 50.116c.331.786.697 1.561 1.097 2.32 4.702-2.653 9.402-5.307 14.101-7.96-.348-.66-.664-1.333-.952-2.016-4.748 2.554-9.496 5.104-14.246 7.656"/></svg>