<svg xmlns="http://www.w3.org/2000/svg" viewBox="0 0 64 64" enable-background="new 0 0 64 64"><path d="m55.805 31.467c-2.834-1.813-4.683-3.766-5.862-5.349l2.397-.455c2.157-.795 2.8-5.284 1.471-8.922-1.286-3.517-3.648-5.676-5.565-5.676-.255 0-3.152.526-3.334.586-.178.059-.338.144-.491.243l-.395-6.233c-1.451-1.471-4.264-3.661-8.25-3.661-.739 0-1.492.078-2.239.231-5.239 1.077-18.162 4.07-21.503 4.846-2.997.494-5.438 2.956-7.269 7.349-1.052 2.528-.856 7.096-.383 10.753-.223 1.632-.017 3.677.54 5.684.412 1.479 1.081 2.709 1.858 3.652 1.172 3.052 2.771 6.373 4.444 8.241-1.797.706-3.671 1.813-4.516 3.599-.499 1.055-.816 2.766.511 4.919 2.305 3.743 9.495 10.726 15.029 10.726 3.29 0 5.878-1.812 7.1-4.966 1.127-2.905 1.029-7.012-.624-11.019 3.009-.958 6.617-2.107 9.673-3.084 2.827 2.691 7.11 6.456 9.898 7.439.954.339 1.961.485 2.94.485 2.088 0 4.055-.67 5.169-1.61 2.413-2.037 3.753-5.479 3.581-9.208-.167-3.646-1.656-6.956-4.18-8.57m-7.56-19.478c1.377 0 3.488 1.776 4.693 5.068 1.209 3.313.541 7.102-.86 7.717l-1.045.198c1.061-1.755 1.188-5 .181-7.76-.893-2.441-2.305-4.223-3.724-5.088 0 0 .599-.135.755-.135m-.014 11.258c-.079-.186-.121-.3-.125-.308 0 0-1.292-.351-1.834.866l-.999-2.08-.437-2.476-.212-3.742c3.295-.343 5.545 5.486 3.607 7.74m-4.91-1.897l-4.052 1.146-.238-.726 4.147-1.233.143.813m-.377-2.67l-4.779 1.421c-1.046-1.546-2.303-2.324-2.373-2.366-.525-.319-1.209-.159-1.536.352-.328.512-.17 1.189.353 1.513.01.006.635.403 1.282 1.178l-3.909 1.162c-1.07-1.696-2.441-2.56-2.514-2.604-.524-.319-1.209-.159-1.538.353-.326.511-.168 1.188.353 1.512.011.007.751.487 1.457 1.405l-6.864 2.041-1.212-12.185 10.424-2.585 10.215-2.534.641 11.337m-5.83 4.426l-4.127 1.168-.188-.651 4.077-1.212.238.695m-3.201-19.067c.624-.128 1.251-.193 1.863-.193 2.429 0 4.319 1.022 5.461 1.859l-20.285 5.031c-.679-.666-2.178-1.991-4.1-2.877 5.29-1.22 13.236-3.034 17.061-3.82m-21.263 23.528c-.892-2.441-2.302-4.222-3.723-5.087 0 0 .6-.135.757-.135 1.376 0 3.486 1.776 4.69 5.068 1.212 3.313.545 7.101-.859 7.718l-1.046.197c1.062-1.755 1.191-5.001.181-7.761m-3.028 8.952c.463.12.906.134 1.312.037l.001.004 2.844-.539c.753-.278 1.317-1.012 1.682-1.996l1.365-.269c.46 2.239 2.023 5.354 4.398 7.422 1.353 1.175 2.436 2.512 3.281 3.91-.948.705-2.12 1.222-3.519 1.222-2.44 0-5.187-1.528-8.161-4.54-1.066-1.081-2.198-3.059-3.203-5.251m16.584 19.345c-.731 1.885-2.063 2.841-3.958 2.841-3.725 0-9.938-5.54-12.149-9.132-.682-1.107-.432-1.633-.339-1.832.572-1.211 2.577-2.048 4.191-2.476 2.452 1.919 4.81 2.89 7.035 2.89 1.54 0 2.265-.178 4.526-1.119 1.396 3.215 1.588 6.521.694 8.828m.618-13.352c-.915-1.344-2.024-2.631-3.366-3.798-1.475-1.284-3.37-4.481-4.34-6.215.795-1.418.877-3.938.089-6.086-1.16-3.173-3.417-4.958-5.02-4.427l-2.115.413c-.804-.626-1.631-.976-2.388-.976-.256 0-3.617.698-3.746.773-.193-2.777-.107-5.5.543-7.063 1.743-4.185 3.996-6.307 6.698-6.307 3.018 0 5.825 2.58 6.588 3.342l1.456 14.644 9.431-2.551.177.623-9.345 2.744 5.922 13.859c-.122.243-.318.609-.584 1.025m-2.845-13.769l6.988-1.978c-.063 1.152-.337 2.034-.341 2.046-.188.579.136 1.196.725 1.381.114.036.229.053.343.053.474 0 .914-.298 1.066-.764.03-.088.493-1.545.458-3.354l4.083-1.156c-.038 1.245-.347 2.224-.351 2.238-.188.577.136 1.195.726 1.38.114.036.23.053.343.053.474 0 .914-.297 1.066-.765.03-.091.523-1.646.451-3.54l4.343-1.229 5.181 10.79-16.495 5.299-3.62 1.164-4.966-11.618m3.955 15.585c-.015-.028-.031-.056-.048-.083.597-.814.998-1.554 1.212-1.99l9.934-3.192 9.735-3.127c-.71 1.046-2.164 2.402-5.144 3.375-2.44.797-10.153 3.255-15.689 5.017m26.276 2.422c-.752.635-2.989 1.152-4.779.521-1.783-.629-4.812-3.133-7.402-5.504.911-.293 1.661-.535 2.175-.703 5.203-1.699 7.448-6.057 7.448-6.057l-2.723-5.668c1.211 1.599 2.829 3.341 4.92 4.807 1.594 1.117 2.659 3.433 2.777 6.039.126 2.729-.777 5.182-2.416 6.565"/></svg>