<svg xmlns="http://www.w3.org/2000/svg" viewBox="0 0 64 64" enable-background="new 0 0 64 64"><path d="m61.214 7.959c-.303 0-.576.092-.576.092l-11.371 5.314c.299-3.529.609-7.047.861-9.561.258-2.564-1.955-1.643-1.955-1.643l-20.896 8.017c0 0-.75-1.847-1.447-2.953-1.623-2.578-4.398-1.785-4.398-1.785l-15.94 5.723c0 0-2.199 1.018-3.098 3.717-.887 2.661 0 5.903 0 5.903l9.209 41.217 40.023-31.268c0 0 9.971-20.099 10.311-21.536.246-1.031-.272-1.237-.723-1.237m-11.078 21.558l-36.738 28.733c1.648-9.367 3.447-18.741 3.963-19.896.744-1.363 2.025-2.317 2.287-2.503 1.236-.672 14.017-7.5 16.72-9.059 2.582-1.491 4.5-7.434 4.5-7.434l18.361-8.58c-1.859 4.035-6.142 12.786-9.093 18.739"/></svg>