<svg xmlns="http://www.w3.org/2000/svg" viewBox="0 0 64 64" enable-background="new 0 0 64 64"><path d="m5.641 33.206h5.711v2.118h-5.711z"/><path d="m13.136 33.206h5.71v2.118h-5.71z"/><path d="m20.63 33.206h5.711v2.118h-5.711z"/><path d="m28.125 33.206h5.709v2.118h-5.709z"/><path d="m35.618 33.206h5.712v2.118h-5.712z"/><path d="m43.113 33.206h5.71v2.118h-5.71z"/><path d="m50.607 33.206h5.711v2.118h-5.711z"/><path d="m28.125 37.443h5.709v2.117h-5.709z"/><path d="m35.618 37.443h5.712v2.117h-5.712z"/><path d="m43.113 37.443h5.71v2.117h-5.71z"/><path d="m50.607 37.443h5.711v2.117h-5.711z"/><path d="m5.641 41.678h5.711v2.12h-5.711z"/><path d="m13.136 41.678h5.71v2.12h-5.71z"/><path d="m20.63 41.678h5.711v2.12h-5.711z"/><path d="m28.125 41.678h5.709v2.12h-5.709z"/><path d="m35.618 41.678h5.712v2.12h-5.712z"/><path d="m43.113 41.678h5.71v2.12h-5.71z"/><path d="m50.607 41.678h5.711v2.12h-5.711z"/><path d="m5.641 45.916h5.711v2.119h-5.711z"/><path d="m13.136 45.916h5.71v2.119h-5.71z"/><path d="m20.63 45.916h5.711v2.119h-5.711z"/><path d="m28.125 45.916h5.709v2.119h-5.709z"/><path d="m35.618 45.916h5.712v2.119h-5.712z"/><path d="m43.113 45.916h5.71v2.119h-5.71z"/><path d="m50.607 45.916h5.711v2.119h-5.711z"/><path d="m5.641 50.152h5.711v2.119h-5.711z"/><path d="m13.136 50.152h5.71v2.119h-5.71z"/><path d="m20.63 50.152h5.711v2.119h-5.711z"/><path d="m28.125 50.152h5.709v2.119h-5.709z"/><path d="m35.618 50.152h5.712v2.119h-5.712z"/><path d="m43.113 50.152h5.71v2.119h-5.71z"/><path d="m50.607 50.152h5.711v2.119h-5.711z"/><path d="m5.641 54.391h5.711v2.117h-5.711z"/><path d="m13.136 54.391h5.71v2.117h-5.71z"/><path d="m20.63 54.391h5.711v2.117h-5.711z"/><path d="m28.125 54.391h5.709v2.117h-5.709z"/><path d="m35.618 54.391h5.712v2.117h-5.712z"/><path d="m43.113 54.391h5.71v2.117h-5.71z"/><path d="m59.273 18.407h-1.629c-4.925-2.998-23.868-14.407-26.664-14.407-2.801 0-20.888 11.399-25.609 14.407h-.644c-1.506 0-2.727 1.323-2.727 2.958v6.483 2.974 26.22c0 1.634 1.221 2.958 2.727 2.958h2.043 50.463 2.041c1.505 0 2.726-1.324 2.726-2.958v-35.677c0-1.635-1.221-2.958-2.727-2.958m-29.84-12.93c-.172.297-.276.644-.276 1.019 0 1.074.816 1.945 1.824 1.945 1.006 0 1.822-.871 1.822-1.945 0-.383-.107-.738-.287-1.04 4.185 1.726 14.959 7.957 23.215 12.95h-48.507c7.855-4.973 18.121-11.176 22.209-12.929m7.704 15.512h1.896l1.598 3.367 1.527-3.367h1.822l-2.574 4.832v2.898h-1.607v-2.898l-2.662-4.832m.535 6.34v1.39h-5.449v-7.73h1.607v6.34h3.842m-11.348-.43c.193.434.617.65 1.268.65.648 0 1.07-.217 1.264-.65.125-.244.188-.631.188-1.163v-4.747h1.635v4.75c0 .823-.127 1.462-.381 1.92-.471.838-1.375 1.258-2.705 1.258-1.328 0-2.232-.42-2.709-1.258-.252-.458-.379-1.098-.379-1.92v-4.75h1.633v4.747c-.001.532.061.919.186 1.163m-6.642.327c.109.244.344.365.705.365.355 0 .592-.133.705-.398.068-.158.104-.424.104-.798v-5.407h1.605v5.381c0 .657-.109 1.178-.33 1.563-.375.649-1.051.975-2.025.975-.977 0-1.633-.263-1.965-.789-.334-.526-.5-1.244-.5-2.153v-.178h1.518v.178c.013.599.073 1.019.183 1.261m38.277 29.816c0 .528-.333.976-.727.976h-52.505c-.394 0-.727-.448-.727-.976v-26.22h53.959v26.22"/></svg>