<svg xmlns="http://www.w3.org/2000/svg" viewBox="0 0 64 64" enable-background="new 0 0 64 64"><path d="m48.065 14.359c-.296.003-.566.079-.803.201 0-.001-.003-.002-.003-.002l-12.507-4.382c0 0-.001.001-.001.001-.174-.587-.799-1.02-1.541-1.013-.875.008-1.578.619-1.571 1.362.007.744.722 1.341 1.596 1.333.288-.002.555-.076.787-.194.002.001.002.005.002.005l12.561 4.477c0 0 .007.011.012.021.105.245.288.454.528.608.021.017.044.031.065.046.008.004.015.009.022.013.079.051.164.091.253.114.007.003.015.005.023.008.007.001.011.004.017.005 0 0 0-.001 0-.001.182.06.378.094.586.093.875-.008 1.578-.619 1.57-1.363-.006-.743-.722-1.34-1.596-1.332"/><path d="m20.612 38.759l8.361-14.182-2.536-1.006c-.074.123-.226.297-.453.52-.383.371-.781.632-1.192.781-.605.221-1.247.271-1.929.152-.432-.073-1.135-.28-2.114-.622l-1.12 1.897 3.638 1.444-5.769 9.78 3.114 1.236"/><path d="m27.213 41.38l3.159 1.253c.481-.813 1.269-1.789 2.372-2.921 1.095-1.133 2.123-2.055 3.074-2.762 1.211-.904 2.532-1.721 3.965-2.451 1.435-.73 2.504-1.211 3.199-1.441l1.286-2.18-10.924-4.334-1.519 2.485 7.708 3.059c-1.152.372-2.789 1.188-4.911 2.445-3.345 2.059-5.817 4.341-7.409 6.847"/><path d="m60.215 15.733l-32.854-11.279c-.771-.296-1.364-.454-1.865-.454-.832 0-1.409.437-2.132 1.399l-5.628 7.325-2.306 3.003c-2.202 2.783-5.847 7.096-7.987 8.066-2.365 1.07-3.851-.018-4.365 1.75-.431 1.479.028 3.1 1.133 4.791l-1.533 1.994c-.461.601-.674 1.25-.671 1.866l-.007.008v5.885h.007c.002.963.544 1.84 1.583 2.295l39.378 17.268c2.019.885 4.327.03 5.128-1.876l13.902-33.136v-7.304c.022-.62-.176-1.167-1.783-1.601m-55.98 19.286c-.229-.101-.519-.29-.604-.622-.084-.32.033-.72.321-1.095l1.251-1.63c2.198 2.655 5.781 5.439 9.887 8.106l-10.855-4.759m42.149 16.529c-.317.756-1.101 1.244-1.995 1.244-.346 0-.686-.072-1.035-.225-17.185-7.18-40.538-20.156-38.743-26.553.141-.021.336-.038.493-.051.747-.066 1.771-.156 3.002-.713 2.223-1.006 5.556-4.772 7.877-7.638l38.46 14.896-8.059 19.04m-18.086-31.792c.316.127.592.096.82-.095.14-.112.296-.331.477-.655l2.615-4.709 1.488.527-2.627 4.727c-.32.574-.675.99-1.065 1.245-.654.429-1.414.468-2.286.116-.86-.349-1.306-.806-1.35-1.37-.042-.563.15-1.233.58-2.009l.083-.152 1.335.514-.082.152c-.274.521-.422.902-.438 1.148-.019.249.13.435.45.561m6.693 2.606c.626.248 1.146.215 1.557-.101.247-.173.506-.5.776-.98l2.425-4.313 1.659.588-2.459 4.355c-.424.748-.88 1.281-1.366 1.598-.897.575-1.995.598-3.281.078-1.265-.514-1.905-1.227-1.938-2.146-.009-.497.187-1.108.594-1.833l2.35-4.214 1.573.558-2.376 4.246c-.266.472-.398.841-.404 1.105-.033.459.262.811.89 1.059m10.422 3.867l-.755 1.314-5.692-2.297 4.038-7.127 1.69.598-3.356 5.906 4.075 1.606m14.948-8.074c-1.578 4.033-1.578 4.033-1.578 4.033l-36.586-12.802 2.372-3.088c.598-.797 1.12-.873 2.252-.443 0 0 30.456 10.446 33 11.33.632.218.727.491.54.97"/></svg>