<svg xmlns="http://www.w3.org/2000/svg" viewBox="0 0 64 64" enable-background="new 0 0 64 64"><path d="m60.905 48.851l-45.757-45.757c-.705-.705-1.645-1.094-2.648-1.094s-1.942.389-2.649 1.094l-6.756 6.756c-.706.706-1.095 1.646-1.095 2.649 0 1.004.389 1.943 1.095 2.648l45.755 45.759c.705.705 1.646 1.094 2.649 1.094s1.944-.389 2.648-1.094l6.759-6.759c1.459-1.46 1.459-3.837-.001-5.296m-1.285 4.012l-6.758 6.758c-.723.723-2.005.723-2.728 0l-45.755-45.76c-.361-.361-.561-.845-.561-1.362s.199-1.002.562-1.364l6.755-6.755c.363-.362.848-.562 1.365-.562s1.002.199 1.363.561l.258.258-6.898 6.896 1.458 1.46 6.898-6.897 1.46 1.461-3.126 3.127 1.458 1.459 3.126-3.128 1.461 1.46-3.128 3.128 1.459 1.459 3.128-3.128 1.459 1.459-3.127 3.129 1.46 1.459 3.127-3.127 1.46 1.459-6.899 6.898 1.462 1.46 6.896-6.899 1.46 1.46-3.128 3.128 1.46 1.459 3.127-3.127 1.461 1.46-3.129 3.127 1.459 1.459 3.128-3.128 1.46 1.461-3.128 3.127 1.46 1.459 3.127-3.127 1.459 1.458-6.896 6.899 1.46 1.46 6.897-6.898 1.459 1.459-3.128 3.128 1.46 1.459 3.127-3.127 1.461 1.46-3.129 3.127 1.461 1.459 3.127-3.126 1.459 1.459-3.128 3.127 1.46 1.459 3.127-3.127 1.46 1.459-6.897 6.898 1.46 1.46 6.896-6.899 1.46 1.46-3.128 3.128 1.46 1.461 3.128-3.129 1.46 1.46-3.129 3.127 1.459 1.459 3.128-3.128 1.46 1.461-3.128 3.127 1.461 1.459 3.127-3.127.256.256c.75.749.75 1.973-.001 2.725"/><circle cx="12.366" cy="14.942" r="2.365"/><circle cx="22.898" cy="25.473" r="2.364"/><circle cx="47.709" cy="50.284" r="2.364"/></svg>