<svg xmlns="http://www.w3.org/2000/svg" viewBox="0 0 64 64" enable-background="new 0 0 64 64"><path d="m38.301 7.752c-8.653 2.487-17.307 4.976-25.96 7.462.473.688.904 1.395 1.304 2.116 8.562-2.635 17.125-5.27 25.688-7.903-.316-.572-.66-1.13-1.032-1.675"/><path d="m40.8 12.624c-8.434 2.916-16.867 5.834-25.299 8.75.293.773.56 1.558.806 2.353 8.376-3.082 16.755-6.161 25.13-9.241-.196-.63-.407-1.252-.637-1.862"/><path d="m17.459 28.101c.189.821.361 1.65.527 2.482 8.251-3.554 16.502-7.108 24.752-10.663-.132-.658-.27-1.313-.416-1.964-8.289 3.382-16.574 6.764-24.863 10.145"/><path d="m61.228 33.155c-2.256-2.472-3.539-5.399-4.419-8.518-2.727 1.543-5.308 3.003-7.747 4.385-2.67-9.466-1.941-20.534-10.941-27.022-12.039 2.751-24.081 5.502-36.121 8.253 15.272 11.005 11.144 39.508 22.041 50.212.911.895 4.324 2.588 9.068.628 7.352-3.038 4.657-6.484 27.185-22.907 1.987-1.45 2.156-3.67.934-5.031m-36.527 9.655c1.234 4.375 9.551 6.745 8.115 13.259-.872 3.961-5.77 4.762-7.461 3.064-4.45-4.466-6.291-12.502-8.191-21.061-2.199-9.904-4.463-20.106-11.129-26.824l31.65-7.23c5.485 4.371 6.664 10.884 7.909 17.765.491 2.715 1.014 5.497 1.804 8.182-10.088 5.709-17.627 9.975-22.697 12.845"/></svg>