<svg xmlns="http://www.w3.org/2000/svg" viewBox="0 0 64 64" enable-background="new 0 0 64 64"><path d="m56 11h-48c-3.3 0-6 2.7-6 6v30c0 3.3 2.7 6 6 6h48c3.3 0 6-2.7 6-6v-30c0-3.3-2.7-6-6-6m-41 37c0 .55-.45 1-1 1h-4c-.55 0-1-.45-1-1v-4c0-.55.45-1 1-1h4c.55 0 1 .45 1 1v4m8 0c0 .55-.45 1-1 1h-4c-.55 0-1-.45-1-1v-4c0-.55.45-1 1-1h4c.55 0 1 .45 1 1v4m8 0c0 .55-.45 1-1 1h-4c-.55 0-1-.45-1-1v-4c0-.55.45-1 1-1h4c.55 0 1 .45 1 1v4m26-1c0 1.101-.9 2-2 2h-11c-1.1 0-2.703-.562-3.562-1.249l-6.877-5.502c-.858-.687-2.461-1.249-3.561-1.249h-21c-1.1 0-2-.899-2-2v-22c0-1.101.9-2 2-2h46c1.1 0 2 .899 2 2v30"/><path d="m53 41h-16c-1.1 0-1.279.54-.4 1.2l4.801 3.6c.879.66 2.5 1.2 3.6 1.2h8c1.1 0 2-.899 2-2v-2c-.001-1.101-.901-2-2.001-2m-4.242 2.414l-2.344 2.345c-.322.322-.851.322-1.173 0-.321-.322-.321-.851 0-1.173l2.345-2.345c.322-.322.85-.322 1.172 0s.322.851 0 1.173"/><path d="m21 47v-2l-2 1z"/><path d="m27 47l2-1-2-1z"/><circle cx="12" cy="46" r="1"/><path d="m52 35v-12c0-1.654-1.346-3-3-3h-34c-1.654 0-3 1.346-3 3v12c0 1.654 1.346 3 3 3h34c1.654 0 3-1.346 3-3m-38 0v-12c0-.551.449-1 1-1h34c.552 0 1 .449 1 1v12c0 .552-.448 1-1 1h-34c-.551 0-1-.448-1-1"/><path d="m54 17h-6c-.55 0-1 .45-1 1s.45 1 1 1h6c.55 0 1-.45 1-1s-.45-1-1-1"/><path d="m15.092 28.563l-.437.437.437.437h2.836l.436-.437-.436-.437z"/><path d="m20.546 32.055l-.437.436.437.436h2.399l.437-.436-.437-.436z"/><path d="m20.327 29.764l-.654-.656-.218.219v2.51l.545.545.327-.327z"/><path d="m23.164 29.764v2.291l.327.327.546-.545v-2.51l-.219-.219z"/><path d="m22.945 25.945l.437-.436-.437-.436h-2.399l-.437.436.437.436z"/><path d="m20.327 28.236v-2.291l-.327-.327-.545.545v2.51l.218.219z"/><path d="m23.164 25.945v2.291l.654.656.219-.219v-2.51l-.546-.545z"/><path d="m25.564 28.563l-.436.437.436.437h2.836l.437-.437-.437-.437z"/><path d="m33.637 26.055v2.29l.654.655.219-.218v-3.054l-.546-.546z"/><path d="m31.019 26.055v.654l1.636 1.636h.763v-.545l-1.745-1.745z"/><path d="m33.637 29.764v2.291l.327.872.546-.545v-3.055l-.219-.219z"/><path d="m29.928 25.728v3.054l.218.218.654-.655v-2.29l-.327-.873z"/><path d="m29.928 29.327v3.055l.545.545.327-.872v-2.291l-.654-.656z"/><path d="m36.037 28.563l-.436.437.436.437h2.836l.437-.437-.437-.437z"/><path d="m41.272 28.236v-2.073l-.872-.326v2.836l.218.219z"/><path d="m41.272 28.563l-.435.437.435.437h2.837l.437-.437-.437-.437z"/><path d="m40.411 25.618l.873.327h2.935l.327-.872h-3.589z"/><path d="m41.272 32.055l-.872.327.545.545h3.601l-.327-.872z"/><path d="m41.272 29.764l-.654-.656-.218.219v2.836l.872-.326z"/><path d="m48.909 28.563h-2.836l-.436.437.436.437h2.836l.437-.437z"/></svg>