<svg xmlns="http://www.w3.org/2000/svg" viewBox="0 0 64 64" enable-background="new 0 0 64 64"><path d="m5.517 48.374c3.174 2.562 6.939 3.814 10.419 3.533 6.416-.392 16.37-4.872 26.176-12.276 11.278-8.513 18.942-18.313 19.72-24.468.626-4.044-.486-8.695-3.411-12.654-2.561-3.465-22.757 11.782-20.197 15.246 1.965 2.66 4.458 4.611 7.098 5.773-2.673 2.693-5.765 5.404-9.197 7.998-3.451 2.604-6.916 4.838-10.242 6.67-.356-2.887-1.499-5.854-3.462-8.51-2.562-3.464-22.757 11.784-20.197 15.248.577.781 1.204 1.495 1.862 2.153-2.441 1.672-2.157 3.627-1.876 4.473.94 2.814 5.186 4.694 8.737 3.869 2.571-.6 5.276-.427 7.276.398-.621 1.145-.936 2.26-.937 2.89 0 1.793.921 2.591 1.47 2.905.31.18.652.295 1.006.346.687.101 1.417-.037 2.035-.406.809-.486 1.281-1.309 1.266-2.2-.029-1.599-.773-3.02-2.154-4.11-.009-.005-.016-.013-.025-.019.479-.518 1.055-.958 1.729-1.198.833-.3 1.591-.246 2.205-.066-.781 1.589-1.099 3.408-.54 4.875.495 1.299 1.816 2.005 3.214 1.711 1.404-.293 2.347-1.473 2.291-2.871-.063-1.631-.947-3.271-2.337-4.385.436-.506.918-.902 1.394-1.104.952-.404 1.847-.397 2.732.018.276.131.537.293.78.477-.267.298-.496.615-.688.948-.702 1.218-.845 2.595-.402 3.88.604 1.746 2.067 2.147 3.168 1.776 1.396-.466 2.462-2.169 1.83-4.208-.181-.582-.588-1.41-1.193-2.225l-.128-.139c.602-.433 1.456-.86 2.514-.873-.122 1.296.026 2.445.272 3.025.703 1.649 1.862 2.021 2.491 2.097.355.043.715.015 1.062-.077.67-.178 1.288-.59 1.712-1.172.553-.765.666-1.706.301-2.521-.653-1.458-1.896-2.474-3.594-2.935-.01-.002-.02-.006-.03-.008.237-.664.595-1.296 1.119-1.781.649-.602 1.367-.85 2.003-.926-.096 1.768.326 3.566 1.415 4.695.966 1.002 2.458 1.133 3.628.314 1.177-.82 1.581-2.275.981-3.539-.699-1.477-2.154-2.638-3.87-3.117.202-.637.491-1.19.849-1.563.719-.744 1.543-1.09 2.521-1.055.306.012.609.059.904.131-.128.379-.215.762-.261 1.143-.168 1.396.241 2.719 1.152 3.728 1.24 1.37 2.743 1.165 3.61.392 1.102-.977 1.414-2.961.032-4.59-.394-.465-1.093-1.065-1.969-1.577.607-.819 1.473-1.614 2.546-2.323.424-.28.539-.855.258-1.283-.281-.43-.854-.55-1.275-.27-1.404.929-2.505 1.984-3.255 3.102-.541-.172-1.112-.284-1.691-.305-1.484-.055-2.832.503-3.897 1.612-.62.643-1.091 1.577-1.376 2.626-1.336.04-2.585.535-3.556 1.436-.853.789-1.398 1.823-1.722 2.89-1.839-.054-3.362.843-4.128 1.397-.406-.336-.852-.64-1.338-.867-1.344-.633-2.803-.648-4.218-.047-.822.348-1.622 1.023-2.296 1.876-1.244-.487-2.588-.522-3.834-.073-1.094.391-2.001 1.128-2.718 1.982-2.398-1.107-5.628-1.373-8.746-.648-2.848.662-5.999-.904-6.584-2.653-.386-1.153.611-2.034 1.566-2.591m45.263-3.574c.026-.216.074-.434.141-.652.672.403 1.191.856 1.433 1.142.747.882.484 1.691.143 1.995-.377.332-.77.053-1.035-.24-.551-.608-.785-1.384-.682-2.245m-3.629 5.01c.326.688-.257 1.141-.376 1.225-.118.084-.736.469-1.258-.072-.685-.71-.95-1.964-.894-3.223 1.125.36 2.088 1.136 2.528 2.07m-7.866 2.261c1.129.32 1.912.953 2.327 1.882.118.261.003.506-.113.667-.252.346-.697.555-1.081.51-.512-.062-.829-.564-1.005-.977-.114-.268-.215-1.097-.128-2.082m-6.036 2.5c.109-.188.238-.369.386-.545.46.635.76 1.256.87 1.612.342 1.104-.219 1.746-.652 1.892-.476.157-.728-.254-.857-.627-.268-.773-.18-1.58.253-2.332m-6.815.289c.893.773 1.474 1.864 1.513 2.896.03.762-.684.948-.826.979-.142.031-.861.143-1.128-.561-.352-.92-.105-2.177.441-3.314m-6.611 1.891c.913.737 1.385 1.627 1.402 2.645.007.285-.195.466-.366.568-.366.22-.857.236-1.193.045-.447-.257-.542-.844-.541-1.292-.001-.292.232-1.095.698-1.966"/></svg>