<svg xmlns="http://www.w3.org/2000/svg" viewBox="0 0 64 64" enable-background="new 0 0 64 64"><path d="m34.453 12.492l-19.744 5.838 4.816 7.576 20.391-7.467z"/><path d="m33.624 6l-26.717 7.371c0 0-4.907-.138-4.907 5.074 0 2.151.954 3.754.954 3.754l20.354 34.042c1.946 3.1 6.079 1.159 6.079 1.159l31.211-15.205-1.168-1.185c-.275-1.423-.435-4.058 1.497-6.02.043-.044.051-.104.074-.159l.999-.401-28.376-28.43m-.592 2.238l25.416 25.464-29.916 12.564-20.157-31.334 24.657-6.694m-10.446 42.9l-17.904-29.948c-.008-.011-.682-1.209-.682-2.745 0-1.948.954-2.689 1.887-2.948l20.473 31.936c-1.541.667-3.263 2.191-3.774 3.705m35.826-12.997c-.065.46-.098.908-.091 1.328l-20.489 9.725 20.562-8.726c.02.159.038.319.063.463l-26.265 12.686 26.472-11.74c.005.018.011.044.016.062l-29.293 14.013c-.014.009-1.351.72-2.691.72-1.324 0-2.149-.68-2.525-2.078-.967-3.592 4.527-5.628 4.61-5.658l30.383-13.145c-.218.4-.369.807-.495 1.213l-19.287 9.079 19.03-7.942"/></svg>