<svg xmlns="http://www.w3.org/2000/svg" viewBox="0 0 64 64" enable-background="new 0 0 64 64"><path d="m57.063 20.218l1.029-1.698c0 0 .906-1.502.906-3.519 0-4.886-4.662-4.757-4.662-4.757l-10.157-2.765-5.541-5.479-7.291 1.985-2.391-.651-1.817 1.797-10.497 2.858c0 0-4.04-.111-4.04 4.123 0 1.748.786 3.05.786 3.05l1.351 2.23-1.187 1.172-5.86 1.596c0 0-4.662-.129-4.662 4.757 0 1.548.531 2.786.779 3.281l-1.809 1.789.949.376c.021.051.029.108.07.149 1.835 1.839 1.684 4.309 1.422 5.643l-1.109 1.111 8.401 4.039 11.538 19.045c1.849 2.906 5.774 1.088 5.774 1.088l29.649-14.256-1.109-1.111c-.262-1.334-.413-3.804 1.422-5.644.041-.041.049-.098.07-.148l.949-.377-5.513-5.45 6.33-3.043-.961-.963c-.227-1.156-.358-3.297 1.233-4.891.035-.036.041-.084.06-.129l.825-.327-4.937-4.881m-5.685-8.835l-1.25 1.978-3.234-3.198 4.484 1.22m-12.202-4.239l4.643 4.963-16.789 6.067-3.965-6.156 16.111-4.874m-23.432 11.908l11.457 18.911-21.827-8.658 10.37-10.253m-4.775 2.067l-1.345 1.33-.538-.825 1.883-.505m-4.247 1.034l1.252 1.927-2.713 2.682c-.164-.464-.331-1.11-.331-1.845 0-1.826.906-2.521 1.792-2.764m-1.568 14.873c.005-.017.01-.042.015-.058l25.147 11.007-24.95-11.894c.023-.135.041-.284.06-.434l19.533 8.18-19.465-9.116c.007-.394-.023-.814-.086-1.245l18.079 7.445-18.322-8.511c-.119-.381-.263-.762-.47-1.137l24.883 10.625.566.934c1.167 1.834 3.284 1.495 4.351 1.177 1.475.728 4.119 2.412 3.442 4.893-.357 1.312-1.142 1.948-2.399 1.948-1.273 0-2.544-.666-2.557-.675l-27.827-13.139m25.046 13.159l-1.966.814-1.67-2.563 3.636 1.749m-7.614 5.381l-7.729-12.759 7.682 3.693 3.633 5.592c-1.465.626-3.102 2.055-3.586 3.474m34.033-12.184c-.063.431-.093.852-.086 1.245l-19.465 9.116 19.533-8.18c.019.149.036.299.06.434l-24.95 11.895 25.147-11.007c.005.016.011.041.015.058l-27.827 13.137c-.013.009-1.282.675-2.557.675-1.258 0-2.042-.637-2.399-1.948-.918-3.367 4.302-5.276 4.38-5.305l4.575-1.952c.491.209 3.994 1.584 5.711-1.115l1.083-1.786 17.494-7.47c-.207.375-.351.756-.471 1.137l-18.322 8.511 18.079-7.445m.034-4.161l-14.825 6.144 4.114-6.791 6.767-3.253 3.944 3.9m2.393-11.107c-.054.374-.08.738-.075 1.079l-16.868 7.9 16.928-7.089c.017.129.031.26.052.376l-21.624 10.308 21.794-9.539c.005.014.01.036.013.05l-24.117 11.387c-.011.007-1.112.585-2.216.585-1.091 0-1.77-.553-2.079-1.689-.796-2.918 3.728-4.572 3.796-4.597l25.014-10.68c-.179.325-.304.656-.407.986l-15.88 7.376 15.669-6.453"/></svg>