<svg xmlns="http://www.w3.org/2000/svg" viewBox="0 0 64 64" enable-background="new 0 0 64 64"><path d="m58.794 45.709l-10.58-38.34c-.617-2.24-2.492-3.781-4.652-4.089 1.203.672 2.163 1.779 2.618 3.199l12.106 37.87c.959 2.998-.695 6.234-3.694 7.227l-25.697 8.359 25.462-9.426c2.965-1.098 4.509-4.391 3.447-7.354l-13.391-37.418c-.826-2.309-2.989-3.737-5.307-3.737-.657 0-1.326.115-1.981.357l-29.524 10.928c-2.966 1.097-3.039 2.833-1.979 5.797l14.351 40.101c1.063 2.965 1.896 3.352 4.862 2.254l3.758-1.391 26.215-7.27c3.04-.865 4.823-4.03 3.986-7.067m-30.565 12.477l-15.971-44.629 25.497-9.437c.438-.162.893-.245 1.352-.245 1.602 0 3.039 1.006 3.574 2.503l13.392 37.417c.712 1.989-.342 4.21-2.345 4.952l-25.499 9.439"/><path d="m24.141 14.079l-3.032-1.496-1.377 3.128 3.032 1.497z"/><path d="m32.958 10.815l-3.032-1.496-1.377 3.128 3.034 1.497z"/><path d="m41.778 7.551l-3.033-1.496-1.375 3.128 3.031 1.497z"/><path d="m18.356 18.84l-1.377 3.129 3.031 1.495 1.377-3.127z"/><path d="m43.711 19.929l1.379-3.128-3.033-1.496-1.378 3.128z"/><path d="m21.667 28.088l-1.378 3.129 3.033 1.496 1.376-3.129z"/><path d="m26.352 34.21l3.034 1.497 1.375-3.13-3.031-1.495z"/><path d="m39.579 29.313l-3.03-1.497-1.378 3.13 3.033 1.496z"/><path d="m47.021 29.179l1.378-3.13-3.033-1.496-1.377 3.128z"/><path d="m24.976 37.339l-1.377 3.128 3.03 1.494 1.378-3.127z"/><path d="m32.417 37.202l3.033 1.497 1.375-3.129-3.029-1.496z"/><path d="m41.235 33.938l3.034 1.497 1.376-3.129-3.033-1.495z"/><path d="m31.041 40.33l-1.377 3.13 3.032 1.493 1.377-3.125z"/><path d="m39.86 37.066l-1.379 3.129 3.033 1.494 1.378-3.126z"/><path d="m48.677 33.803l-1.378 3.128 3.033 1.497 1.377-3.129z"/><path d="m26.91 49.716l3.03 1.495 1.379-3.127-3.034-1.498z"/><path d="m35.728 46.452l3.033 1.495 1.376-3.127-3.031-1.498z"/><path d="m44.545 43.188l3.033 1.495 1.376-3.127-3.031-1.496z"/><path d="m32.972 52.707l3.036 1.497 1.375-3.127-3.031-1.497z"/><path d="m41.792 49.444l3.033 1.495 1.376-3.126-3.031-1.498z"/><path d="m51.987 43.051l-1.379 3.13 3.034 1.495 1.377-3.127z"/><path d="m23.229 21.952l.511 1.426-.697 1.582 1.534.757 1.109 3.098 3.632-1.345-.212.481 3.033 1.499 1.376-3.131-.468-.23 5.092-1.885-.214.485 3.032 1.495 1.376-3.126-.899-.444-2.339-6.536-1.279.474 1.208-2.745-3.031-1.496-1.379 3.128 2.66 1.313-8.277 3.064 1.208-2.744-3.031-1.498-1.379 3.13 2.662 1.312-5.228 1.936m17.047.394l-13.989 5.18-1.783-4.979 13.99-5.179 1.782 4.978"/></svg>