<svg xmlns="http://www.w3.org/2000/svg" viewBox="0 0 64 64" enable-background="new 0 0 64 64"><path d="m60.066 28.001c-3.873-8.571-13.505-15.289-10.708-26.001-12.551 1.573-25.103 3.144-37.655 4.717-.167.637-.299 1.265-.403 1.882-.453.04-.906.079-1.358.119-.413 1.412-.668 2.778-.808 4.11-.32.028-.642.057-.963.085-.942 3.221-.993 6.183-.49 8.981-1.894.563-3.787 1.127-5.681 1.689 1.645.97 3.23 1.993 4.689 3.089-.165 1.52-.481 3.063-1.004 4.646 1.682-.379 3.364-.758 5.045-1.137.773 1.466 1.622 2.91 2.497 4.346-1.648.96-3.264 1.9-5.048 2.94 1.5.459 2.967.972 4.342 1.571.139 1.265.159 2.578.021 3.962 1.836-.911 3.083-1.53 4.442-2.205 3.109 5.564 5.284 11.4 3.216 18.476 1.467-.759 2.953-1.491 4.438-2.228-.104 1.598-.37 3.243-.871 4.956 11.373-5.881 23.222-11.164 34.594-17.045.44-1.506.568-3.021.512-4.508.908-.483 1.83-.952 2.733-1.441 1.028-3.925-.121-7.863-1.54-11.004m-50.579-6.644c-.169-1.005-.247-2.032-.237-3.083.147 1.007.35 1.999.617 2.971-.126.038-.253.075-.38.112m1.56-8.714c.104 2.731.769 5.284 1.798 7.719-.391.116-.78.231-1.17.348-.699-2.567-.978-5.231-.628-8.067m3.802 20.942c-.78-1.279-1.532-2.553-2.223-3.831.267-.06.531-.119.798-.18.669 1.215 1.377 2.418 2.104 3.615-.227.132-.458.267-.679.396m7.937 22.267c.624-5.968-1.43-11.077-4.116-15.894.234-.116.481-.239.736-.365 2.79 4.808 5.088 9.759 5.273 15.325-.631.31-1.264.617-1.893.934m33.969-12.179c-5.432 2.792-25.748 12.56-30.354 14.879 1.176-9.347-3.454-16.869-7.949-24.174-1.081-1.757-2.145-3.492-3.122-5.233.761-.171 1.522-.344 2.283-.515 5.873 8.509 13.112 16.578 10.148 27.927 9.596-5.208 19.547-10.026 29.242-15.122-.024.769-.091 1.522-.248 2.238m3.206-5.909c-5.309 2.865-25.198 12.942-29.704 15.328.739-8.897-4.2-15.821-8.998-22.545-4.976-6.974-9.688-13.578-8.021-22.133l33.82-4.236c-.709 6.833 3.023 12.063 6.646 17.141 1.801 2.523 3.502 4.907 4.653 7.454 1.547 3.422 2.075 6.373 1.604 8.991"/><path d="m44.347 8.539c-9.486 1.71-18.977 3.42-28.466 5.129.1.735.238 1.459.416 2.169 9.459-1.86 18.92-3.722 28.38-5.583-.14-.562-.251-1.133-.33-1.715"/><path d="m45.692 13.21c-9.371 2.122-18.74 4.242-28.112 6.364.295.674.614 1.341.958 1.998 9.304-2.262 18.607-4.522 27.911-6.784-.271-.52-.525-1.046-.757-1.578"/><path d="m20.584 25.064c.408.637.829 1.269 1.261 1.898 9.055-2.633 18.111-5.265 27.166-7.896-.341-.498-.674-.998-.998-1.502-9.143 2.501-18.287 5-27.429 7.5"/><path d="m32.029 44.819c.17.714.302 1.439.394 2.177 4.158-2.012 8.32-4.026 12.479-6.039-.08-.662-.199-1.313-.354-1.951-4.171 1.937-8.344 3.874-12.519 5.813"/></svg>