<svg xmlns="http://www.w3.org/2000/svg" viewBox="0 0 64 64" enable-background="new 0 0 64 64"><path d="m2 56h60l-4.979-39.857c-.037-3.346.048-5.199.048-5.199-.776.239-1.931.331-3.314.331-.234 0-.479-.004-.728-.009-.005-2.089.039-3.266.039-3.266-1.201 1.58-3.765 1.982-6.688 1.982-3.035 0-6.456-.433-9.144-.433-4.147 0-5.033 2.775-5.225 3.968-.192-1.198-1.082-3.961-5.22-3.961-2.688 0-6.107.433-9.141.433-2.926 0-5.49-.402-6.691-1.984 0 0 .044 1.176.038 3.26-.247.004-.493.009-.728.009-1.385 0-2.537-.092-3.313-.331 0 0 .081 1.771.05 4.986l-5.004 40.071m51.755-42.863c.505 0 .968-.012 1.393-.035-.052 5.433.179 20.275 3.489 39.48-.597-.095-1.209-.207-1.833-.333.392-.163.703-.385.913-.684-3.794-16.071-4.557-30.928-4.671-38.438.24.005.479.01.709.01m-16.131-1.026c2.031 0 4.749.239 7.624.492 2.008.177 4.059.355 5.93.455.115 7.395.846 21.905 4.407 37.608-.269.045-.642.08-1.156.08-1.9 0-4.622-.483-7.254-.951-2.964-.526-6.028-1.071-8.528-1.071-1.938 0-3.464.364-4.667.921-.046.019-.099.033-.142.053l-.007-35.011c.035-.494.383-2.576 3.793-2.576m-24.776.947c1.871-.1 3.92-.278 5.927-.455 2.876-.252 5.594-.492 7.627-.492 3.299 0 3.74 1.928 3.791 2.617l-.009 34.969c-.079-.035-.173-.063-.256-.096-1.188-.529-2.674-.875-4.555-.875-2.5 0-5.564.546-8.527 1.072-2.634.469-5.355.952-7.255.952-.514 0-.888-.035-1.153-.079 3.562-15.705 4.293-30.22 4.41-37.613m-3.971.044c.426.023.888.035 1.393.035.23 0 .47-.005.71-.009-.115 7.508-.879 22.369-4.675 38.443.209.297.517.519.904.681-.621.124-1.232.237-1.826.331 3.313-19.206 3.545-34.048 3.494-39.481"/><path d="m25.197 13.916c2.566 0 3.412.582 3.421.588l.238-.312.243-.305c-.099-.074-1.049-.736-3.875-.736-2.127 0-4.753.539-7.083 1.013-1.698.348-3.169.649-4.011.649l-.069.778c.927 0 2.441-.311 4.19-.671 2.3-.471 4.894-1.004 6.946-1.004"/><path d="m25.063 17.836c2.616 0 3.481.605 3.489.611l.242-.322.248-.318c-.101-.081-1.069-.768-3.951-.768-2.169 0-4.847.558-7.223 1.055-1.733.359-3.233.673-4.091.673l-.073.811c.946 0 2.489-.324 4.274-.696 2.344-.491 4.993-1.046 7.085-1.046"/><path d="m24.924 21.916c2.669 0 3.549.627 3.559.635l.247-.336.254-.329c-.104-.084-1.093-.799-4.032-.799-2.212 0-4.944.581-7.369 1.097-1.769.375-3.301.702-4.175.702l-.077.842c.966 0 2.542-.336 4.362-.724 2.393-.513 5.095-1.088 7.231-1.088"/><path d="m24.777 26.162c2.723 0 3.622.656 3.633.662l.252-.349.258-.346c-.105-.085-1.114-.831-4.112-.831-2.258 0-5.048.605-7.523 1.144-1.806.391-3.368.729-4.263.729l-.078.88c.984 0 2.596-.351 4.454-.756 2.444-.533 5.2-1.133 7.379-1.133"/><path d="m24.626 30.587c2.78 0 3.699.684 3.707.691l.26-.365.264-.36c-.109-.089-1.138-.865-4.2-.865-2.304 0-5.153.63-7.681 1.19-1.846.407-3.441.762-4.355.762l-.081.917c1.005 0 2.649-.366 4.549-.79 2.495-.555 5.309-1.18 7.537-1.18"/><path d="m24.467 35.202c2.84 0 3.778.712 3.787.72l.264-.38.271-.375c-.11-.093-1.161-.903-4.288-.903-2.354 0-5.266.658-7.848 1.242-1.887.426-3.518.795-4.451.795l-.085.955c1.028 0 2.71-.381 4.65-.821 2.55-.581 5.427-1.233 7.7-1.233"/><path d="m24.303 40.02c2.902 0 3.859.746 3.869.754l.27-.398.275-.392c-.112-.098-1.186-.943-4.382-.943-2.405 0-5.38.688-8.021 1.296-1.927.445-3.596.832-4.548.832l-.09 1c1.051 0 2.77-.4 4.754-.861 2.608-.606 5.549-1.288 7.873-1.288"/><path d="m24.128 45.055c2.97 0 3.947.777 3.957.785l.276-.416.283-.408c-.116-.102-1.212-.986-4.479-.986-2.46 0-5.503.718-8.204 1.356-1.971.466-3.678.866-4.652.866l-.093 1.046c1.073 0 2.831-.416 4.861-.897 2.669-.633 5.677-1.346 8.051-1.346"/><path d="m35.406 14.504c.008-.006.854-.588 3.42-.588 2.054 0 4.647.533 6.946 1.004 1.749.36 3.263.671 4.189.671l-.069-.778c-.842 0-2.313-.301-4.011-.649-2.328-.474-4.955-1.013-7.082-1.013-2.824 0-3.776.662-3.876.736l.244.305.239.312"/><path d="m38.934 17.04c-2.883 0-3.852.687-3.951.768l.248.318.241.322c.009-.005.873-.611 3.49-.611 2.092 0 4.739.554 7.083 1.045 1.784.373 3.328.696 4.274.696l-.073-.811c-.856 0-2.357-.313-4.09-.673-2.375-.496-5.053-1.054-7.222-1.054"/><path d="m39.072 21.087c-2.939 0-3.928.715-4.031.799l.253.329.247.336c.009-.007.891-.635 3.559-.635 2.137 0 4.836.575 7.23 1.087 1.82.388 3.397.724 4.361.724l-.075-.842c-.875 0-2.406-.327-4.176-.702-2.422-.516-5.156-1.096-7.368-1.096"/><path d="m39.216 25.298c-3 0-4.009.745-4.112.831l.257.346.253.349c.01-.006.908-.662 3.632-.662 2.18 0 4.937.6 7.382 1.132 1.858.405 3.468.756 4.453.756l-.081-.879c-.894 0-2.456-.338-4.262-.729-2.474-.539-5.264-1.144-7.522-1.144"/><path d="m39.365 29.688c-3.063 0-4.09.776-4.197.865l.264.36.257.365c.011-.007.927-.691 3.709-.691 2.226 0 5.042.625 7.536 1.18 1.9.424 3.545.79 4.551.79l-.082-.917c-.914 0-2.51-.355-4.354-.762-2.528-.56-5.377-1.19-7.684-1.19"/><path d="m39.521 34.264c-3.127 0-4.177.811-4.288.903l.271.375.264.38c.008-.008.946-.72 3.786-.72 2.272 0 5.15.652 7.701 1.232 1.94.44 3.621.821 4.649.821l-.086-.955c-.932 0-2.563-.369-4.447-.795-2.583-.583-5.494-1.241-7.85-1.241"/><path d="m39.687 39.04c-3.196 0-4.269.846-4.382.943l.274.392.271.398c.009-.008.967-.754 3.87-.754 2.323 0 5.265.683 7.872 1.287 1.984.461 3.704.861 4.754.861l-.091-1c-.953 0-2.621-.387-4.546-.832-2.642-.607-5.617-1.295-8.022-1.295"/><path d="m39.857 44.029c-3.268 0-4.365.885-4.48.986l.281.408.276.416c.011-.008.99-.785 3.957-.785 2.377 0 5.385.713 8.052 1.346 2.029.481 3.788.897 4.863.897l-.095-1.046c-.974 0-2.681-.4-4.651-.866-2.701-.638-5.745-1.356-8.203-1.356"/></svg>