<svg xmlns="http://www.w3.org/2000/svg" viewBox="0 0 64 64" enable-background="new 0 0 64 64"><path d="m61.787 45.709l-10.879-38.339c-.635-2.242-2.563-3.783-4.784-4.09 1.236.673 2.225 1.78 2.691 3.2l12.451 37.868c.985 3-.716 6.236-3.801 7.229l-25.745 8.113 25.508-9.181c3.048-1.098 4.635-4.391 3.544-7.354l-13.771-37.418c-.851-2.309-3.075-3.737-5.458-3.737-.676 0-1.364.114-2.038.357l-26.223 9.438-4.139 1.491c-2.673.962-3.061 2.415-2.381 4.756-2.809.826-5.363 2.818-4.638 4.968.87 2.578 3.921 2.673 7.042 1.667l1.978 5.372c-2.788.835-5.307 2.814-4.586 4.951.871 2.582 3.89 2.659 7.015 1.649l-.264-.717 1.888 5.128c-2.774.841-5.271 2.813-4.554 4.941.871 2.582 3.87 2.702 6.995 1.692l-.636-1.727c0 0-3.635 1.162-4.244-.548-.333-.936 1.381-1.845 3.176-2.358l3.451 9.379c-2.784.836-5.299 2.814-4.578 4.949.871 2.582 3.898 2.703 7.023 1.693l.037.102c.734 1.988 1.36 2.817 2.612 2.817.615 0 1.383-.201 2.388-.563l3.896-1.402 26.931-7.258c3.121-.867 4.955-4.031 4.093-7.068m-57.548-23.282c-.336-.944 1.414-1.862 3.227-2.372l1.058 2.873c-.051.016-3.679 1.197-4.285-.501m4.434 11.99c-.335-.94 1.402-1.856 3.209-2.367l1.053 2.86c-.007.002-3.653 1.215-4.262-.493m8.25 22.39c-.335-.939 1.396-1.854 3.2-2.365l1.071 2.91c-.006.002-3.664 1.164-4.271-.545m9.265 2.749c-.818.295-1.393.444-1.709.444-.005 0-.01 0-.015 0-.093-.106-.33-.452-.719-1.508l-1.633-4.437c.082-.007.169-.019.246-.023-.011.271.027.549.127.819.41 1.114 1.654 1.688 2.78 1.282s1.706-1.636 1.298-2.749c-.41-1.113-1.655-1.688-2.779-1.281-.081.029-.153.071-.229.108-.646-.182-1.395-.229-2.182-.161l-3.452-9.38c.091-.009.187-.021.272-.026-.011.271.027.549.127.82.411 1.113 1.655 1.687 2.781 1.281 1.125-.404 1.706-1.636 1.297-2.75-.41-1.113-1.654-1.686-2.779-1.281-.081.029-.152.072-.229.109-.652-.184-1.411-.229-2.208-.158l-3.313-9c.079-.007.163-.019.238-.023-.009.266.028.538.126.804.411 1.114 1.655 1.687 2.781 1.282 1.125-.405 1.706-1.636 1.297-2.75-.409-1.113-1.654-1.687-2.779-1.281-.089.032-.168.077-.249.119-.64-.176-1.377-.222-2.151-.155l-3.677-9.988c.073-.006.151-.017.222-.021-.004.251.031.506.123.756.412 1.114 1.656 1.687 2.781 1.282 1.126-.405 1.707-1.636 1.297-2.75-.409-1.113-1.654-1.687-2.779-1.281-.111.04-.212.094-.313.149-.612-.159-1.313-.202-2.047-.143-.342-1.109-.293-1.548-.217-1.711.043-.091.261-.415 1.297-.788l4.139-1.491 26.222-9.438c.443-.157.901-.237 1.363-.237 1.606 0 3.046.976 3.581 2.428l13.771 37.418c.333.904.288 1.89-.124 2.775-.437.936-1.225 1.648-2.221 2.007l-26.222 9.438-4.14 1.49"/><path d="m38.087 15.948l-17.185 6.186 2.652 7.205 17.185-6.187-2.652-7.204m-15.898 6.785l15.302-5.508 1.961 5.327-15.302 5.509-1.961-5.328"/></svg>