<svg xmlns="http://www.w3.org/2000/svg" viewBox="0 0 64 64" enable-background="new 0 0 64 64"><path d="m33.624 6l-26.717 7.371c0 0-.013 0-.036 0-.444 0-4.871.124-4.871 5.074 0 2.151.954 3.754.954 3.754l20.354 34.042c1.946 3.1 6.079 1.159 6.079 1.159l31.211-15.205-1.168-1.185c-.275-1.423-.435-4.058 1.497-6.02.043-.044.051-.104.074-.159l.999-.401-28.376-28.43m.829 6.492l5.463 5.947-20.391 7.467-4.816-7.576 19.744-5.838m-11.867 38.646l-17.904-29.948c-.008-.011-.682-1.209-.682-2.745 0-1.948.954-2.689 1.887-2.948l20.473 31.936c-1.541.667-3.263 2.191-3.774 3.705m35.826-12.997c-.065.46-.098.908-.091 1.328l-20.489 9.725 20.562-8.726c.02.16.038.319.063.463l-26.265 12.686 26.472-11.741c.005.019.011.045.016.063l-29.293 14.013c-.014.009-1.351.72-2.691.72-1.324 0-2.149-.68-2.525-2.078-.967-3.592 4.527-5.628 4.61-5.658l30.383-13.145c-.218.4-.369.808-.495 1.213l-19.287 9.079 19.03-7.942"/></svg>