<svg xmlns="http://www.w3.org/2000/svg" viewBox="0 0 64 64" enable-background="new 0 0 64 64"><path d="m60.711 52.708h-.013v-41.408h.013c.712 0 1.289-.581 1.289-1.298 0-.717-.577-1.298-1.289-1.298h-.99c.193-.393.313-.83.313-1.298 0-1.623-1.307-2.938-2.918-2.938h-1.086v-1.3c0-.641-.517-1.161-1.154-1.161-.635 0-1.151.52-1.151 1.161v1.299h-1.086c-1.611 0-2.919 1.315-2.919 2.938 0 .469.119.905.313 1.298h-.99c-.713 0-1.289.581-1.289 1.298 0 .261.078.504.21.708-2.93.49-9.125 1.347-16.631 1.347-5.428 0-10.548-.47-15.297-1.347.135-.205.214-.45.214-.714 0-.718-.578-1.298-1.289-1.298h-.992c.194-.394.313-.831.313-1.299 0-1.623-1.306-2.938-2.917-2.938h-1.086v-1.298c-.001-.642-.517-1.162-1.154-1.162-.638 0-1.154.52-1.154 1.162v1.298h-1.086c-1.611 0-2.916 1.315-2.916 2.938 0 .469.119.906.313 1.299h-.993c-.712 0-1.289.58-1.289 1.298 0 .716.577 1.298 1.289 1.298h.013v41.407h-.013c-.712 0-1.289.581-1.289 1.297 0 .719.577 1.299 1.289 1.299h.991c-.192.394-.312.83-.312 1.299 0 1.623 1.305 2.938 2.916 2.938h1.086v1.299c0 .642.517 1.162 1.154 1.162.637 0 1.153-.521 1.153-1.162v-1.299h1.084c1.611 0 2.919-1.314 2.919-2.938 0-.469-.119-.905-.313-1.299h.992c.69 0 1.252-.55 1.284-1.239 3.187.52 9.226 1.312 16.421 1.312 5.329 0 10.392-.432 15.097-1.277.045.677.597 1.213 1.28 1.213h.99c-.194.393-.313.83-.313 1.299 0 1.622 1.308 2.938 2.919 2.938h1.086v1.299c0 .641.517 1.161 1.151 1.161.638 0 1.154-.521 1.154-1.161v-1.301h1.086c1.611 0 2.916-1.315 2.916-2.938 0-.469-.119-.906-.312-1.299h.991c.712 0 1.289-.581 1.289-1.299.002-.716-.575-1.296-1.287-1.296m-9.783-.937v-39.534h7.896v39.533h-7.896zm-37.856-.008h-7.895v-39.532h7.896v39.532zm1.875.166v-39.488c5.062.989 10.567 1.49 16.385 1.49 8.328 0 15.122-1.045 17.717-1.506v39.514c-5.041 1.032-10.549 1.554-16.384 1.554-8.597 0-15.513-1.15-17.718-1.564"/><path d="m31.998 17.816c-8.457 0-13.089-1.373-13.135-1.386l-.273.897c.192.058 4.795 1.427 13.408 1.427 9.195 0 13.639-1.37 13.822-1.428l-.281-.894c-.044.013-4.489 1.384-13.541 1.384"/><path d="m31.998 22.098c-8.457 0-13.089-1.373-13.135-1.386l-.273.897c.192.058 4.795 1.426 13.408 1.426 9.195 0 13.639-1.37 13.822-1.428l-.281-.894c-.044.014-4.489 1.385-13.541 1.385"/><path d="m31.998 26.379c-8.457 0-13.089-1.372-13.135-1.386l-.273.897c.192.058 4.795 1.426 13.408 1.426v-.937"/><path d="m31.998 34.941c-2.291 0-4.509-.1-6.592-.297l-.088.934c2.111.199 4.359.301 6.68.301 9.195 0 13.638-1.369 13.822-1.428l-.281-.895c-.044.015-4.489 1.385-13.541 1.385"/><path d="m31.998 39.224c-8.457 0-13.089-1.372-13.135-1.386l-.273.896c.192.059 4.795 1.427 13.408 1.427 9.195 0 13.639-1.37 13.822-1.429l-.281-.893c-.044.015-4.489 1.385-13.541 1.385"/><path d="m31.998 43.506c-8.457 0-13.089-1.373-13.135-1.387l-.273.897c.192.058 4.795 1.427 13.408 1.427 9.195 0 13.639-1.37 13.822-1.429l-.281-.894c-.044.015-4.489 1.386-13.541 1.386"/><path d="m18.59 47.298c.192.058 4.795 1.426 13.408 1.426v-.938c-8.457 0-13.089-1.372-13.135-1.386l-.273.898"/></svg>