<svg xmlns="http://www.w3.org/2000/svg" viewBox="0 0 64 64" enable-background="new 0 0 64 64"><path d="m21.628 12.411c.167-.265.221-.723.482-.921.335-.25.733-.109 1.054-.339.665-.481 1.028-1.426 1.648-1.993.717-.652 1.586-1.091 2.493-1.415.918-.361 1.876-1.065 2.905-1.007-.395 1.344-1.324 2.465-1.519 3.88-.106.76.013 1.568.059 2.332.177-.576.305-1.204.562-1.752.36-.761 1.104-.676 1.805-.934.727-.346 1.299-.924 1.889-1.456.238.415 1.199-.297 1.37.339.073.275 2.469-.056 2.649-.14-.494-.029-2.359.096-2.439-.365-.268-.123-.74-.181-1.172-.213.021-.179-.014-.411.043-.577-.538.382-1.032.815-1.554 1.218-.773.598-1.764.469-2.493 1.006.291-.881.824-1.654 1.161-2.518.147-.377.246-.763.31-1.163.057-.37.023-.186-.224-.348-1.174-.315-2.474.594-3.498 1.075-.938.396-1.833.921-2.557 1.648-.444.445-1.132 2.032-1.726 2.175-1.186.032-.824 1.098-1.582 1.476-.393.197-.729.169-1.105.461-.477.372-1.063.923-1.715.891.018-.548.027-1.081-.203-1.594-.658.326-.994.956-1.528 1.42.189-1.364.764-2.566.782-3.973-.747.502-1.252 1.133-1.662 1.931-.5.966-.948 2.517-1.99 3.038-.021-1.339.57-2.622.408-3.968-.165.585-.204 1.42-.385 2.092-.218.799-.377 1.584-.326 2.418 1.874-.274 2.277-3.087 3.379-4.29-.221 1.255-.729 2.36-.625 3.662.777-.471 1.117-1.292 1.822-1.821.248.785-.307 1.816.933 1.243.546-.252.946-.715 1.445-1.038.352-.228.852-.081 1.104-.48"/><path d="m26.618 20.097c.345-.484.579-1.032.846-1.561.016-.008.677.204.735.209.315.031.596-.023.848-.216.98.342 2.473.399 3.064-.668 1.071 1.131 1.74-.627 1.801-1.491 1.058.393 2.034-.076 3.025-.432.569-.205 1.723-.677 2.142.03.429.157.872.189 1.309.313-.349-.303-.98-.406-1.382-.783-.482-.454-1.352-.237-1.916-.105-1.421.332-2.346.727-3.684-.025.005.424.076 2.203-.605 2.092-.641-.01-.455-1.826-.512-2.396-.31.496-.647.939-.648 1.556 0 .455.195.728-.194 1.095-.482.458-1.31.349-1.903.264-.143-.987.105-2.117.17-3.112-.203.888-.41 1.775-.615 2.662-.152.658-.738.791-1.335.613-.116-.152.058-.891.069-1.075-.536.993-.879 2.164-1.555 3.062-.316.416-1.127.854-1.465.184-.237-.471-.101-1.087-.033-1.585-.396.509-.826 2.014-1.59 1.982.092-.37.389-.672-.053-.897-.201.389-.374.809-.569 1.208.212-.558.333-1.122.45-1.702-1.151.685-1.85 1.649-2.469 2.821.033-.21.079-.628.053-.774-.094.379-.781 1.673-.362 1.901.613-.979 1.136-2.028 2.032-2.789-.477 1.279-.983 2.419-1.237 3.767.554-.645 1.076-1.277 1.465-2.041.127-.25.243-.504.353-.76.282-.656.271-.165.754-.513.461-.33.666-.969.924-1.448-.062 1.523 1.248 1.799 2.087.614"/><path d="m31.202 25.219c.001.003-.01.004-.065-.014-.004-.314-.294-.524-.6-.279-.397.312-.182-.271-.154-.593.033-.396.067-.79.103-1.183-.198.353-.425.701-.598 1.066-.335.595-.23 1.711-1.156 1.821.136-.437.259-.872.374-1.313-.475.402-.96.692-.98 1.379-.029.847-.887 2.928-2.014 2.71.1-1.716 1.057-3.297 1.438-4.962-1.757 1.055-3.236 3.616-3.437 5.596.894-1.437 1.48-3.118 2.694-4.334-.311 1.287-.785 2.519-.895 3.849-.019.229.678.102.777.068.602-.197 1.033-.785 1.338-1.309.119-.205.227-.419.322-.637.243-.543.334-.191.824-.41.592-.264.627-1.026 1.203-.956.631.079 1.942-.068 2.365-.354-.503-.057-1.046.005-1.539-.145m-.522-.323c.046.051.111.071.137.146-.047-.049-.09-.097-.137-.146"/><path d="m50.307 39.316c-.417-.297-1.617.006-2.178.074.018-.096.034-.191.051-.289-1.609 1.064-2.832 2.582-4.947 2.189.951-1.471 1.773-3.131 1.649-4.924-1.528.545-2.427 2.037-3.109 3.422-.146-.539-.846-.982-1.334-.553-.55.463-.767 1.289-.958 1.947-.236.807-.378 1.637-.425 2.477-.033.574-.118.705.518.689 1.473-.035 2.757-1.703 3.496-2.805 1.889.512 3.043-.391 4.527-1.398.03.684.517 1.129 1.2.988.691-.158 1.002-1.035 1.547-1.072.398-.025.652.178 1.1.166.472-.018.942-.084 1.412-.139-.486-.637-.684-1.012-.889-1.848 1.115.297 2.056.531 3.209.5-1.578-1.156-3.391-1.824-5.097-2.773.385.541.888 1.092 1.122 1.721-.915.083-.781 1.621-.894 1.628m-9.228 3.688c.126-.105.233-.195-.029.029-.19.164-.161.139-.079.066-.44.369-.977.77-1.571.754 0-1.299.146-2.869.821-4.01.329-.561.801-.727 1.281-.223.342.379-.069.721-.082 1.057.084-.156.174-.309.266-.461.101.545.355.879.857 1.129-.434.596-.909 1.173-1.464 1.659m1.612-1.871c-2.092-.855.642-3.547 1.799-4.07-.129 1.478-.954 2.888-1.799 4.07m6.022-.656c-.717.191-.707-.49-.604-.98.453.152.904.311 1.365.455-.191.243-.462.448-.761.525m2.96-1.106c-.159-.01-.319-.018-.478-.025.051-.1.068-.225.101-.336-.221.098-.45.189-.683.254-.021-.293-.084-.916.256-1.084.692-.366.652.754.804 1.191"/><path d="m50.441 20.572l10.291-10.295c1.691-1.689 1.689-4.428 0-6.118l-.891-.892c-1.691-1.689-4.425-1.688-6.118 0l-8.954 8.955c-2.253-3.336-4.799-6.762-7.707-10.204 0 0-.555-.018-1.524-.018-5.275 0-22.854.532-30.564 7.384 0 0 1.238 2.15 3.105 5.579-2.436 1.838-4.571 3.866-6.079 6.069 0 0 12.292 13.064 20.991 25.462 1.729 4.734 2.892 9 2.982 12.08 0 0 .897-1.199 2.761-2.867 1.206 2.32 2.087 4.461 2.482 6.293 0 0 3.373-7.479 12.507-14.529 4.101-1.246 8.956-2.076 14.614-2.076.586 0 1.18.01 1.785.027 0 0-.473-2.23-1.73-5.982 1.162-.432 2.354-.846 3.607-1.223.001 0-3.386-7.925-11.558-17.645m-7.722 6.395l-1.254-1.255 12.381-12.381 1.254 1.254-12.381 12.382m-.727.599l-5.479 2.095-2.172-2.173 2.093-5.479 5.558 5.557m-3.038-4.365l12.381-12.382 1.848 1.848-12.382 12.383-1.847-1.849m12.689-16.523l5.682 5.682-1.414 1.415-5.682-5.682 1.414-1.415m-2.225 2.224l1.254 1.254-12.381 12.382-1.254-1.254 12.381-12.382m-22.106 45.539c-2.88-13.816-16.417-38.392-19.916-44.591 7.745-5.527 23.345-5.975 28.143-5.975.24 0 .452.001.636.002 2.72 3.269 5.116 6.525 7.243 9.697l-7.708 7.709-3.571 9.335c-.419 1.105.141 1.663 1.243 1.241l9.337-3.567 6.005-6.004c5.274 9.575 7.907 17.511 8.971 21.235-16.187.172-25.948 6.868-30.383 10.918"/></svg>