<svg xmlns="http://www.w3.org/2000/svg" viewBox="0 0 64 64" enable-background="new 0 0 64 64"><path d="M59.965,2.643L2.643,59.966C1.523,61.085,1.904,62,3.486,62h0.737v-2.499h0.943V62h1.846v-2.499h0.942V62h1.847v-2.499
	h0.942V62h1.846v-4.698h0.943V62h2.001v-2.499h0.944V62h1.846v-2.499h0.942V62h1.847v-2.499h0.943V62h1.846v-4.698h0.941V62h2.003
	v-2.499h0.942V62h1.847v-2.499h0.943V62h1.845v-2.499h0.944V62h1.847v-4.698h0.941V62h2.003v-2.499h0.942V62h1.846v-2.499h0.944V62
	h1.846v-2.499h0.942V62h1.847v-4.698h0.942V62h2.002v-2.499h0.943V62h1.846v-2.499h0.943V62h1.846v-2.499h0.941V62h1.848v-4.698
	h0.943V62h0.34C60.705,62,62,60.705,62,59.122V3.486C62,1.903,61.083,1.523,59.965,2.643z M48.717,45.838
	c0,1.582-1.295,2.878-2.878,2.878H35.564c-1.583,0-1.961-0.916-0.844-2.034l11.96-11.959c1.119-1.118,2.036-0.739,2.036,0.844
	V45.838z"/></svg>