<svg xmlns="http://www.w3.org/2000/svg" viewBox="0 0 64 64" enable-background="new 0 0 64 64"><path d="m58.792 45.709l-10.578-38.34c-.617-2.24-2.492-3.781-4.652-4.09 1.202.674 2.164 1.779 2.618 3.199l12.106 37.872c.958 2.998-.696 6.234-3.696 7.227l-27.917 9.23 28.136-8.029c3.039-.866 4.823-4.032 3.983-7.069"/><path d="m57.804 43.154l-13.391-37.416c-.826-2.31-2.99-3.738-5.308-3.738-.657 0-1.327.115-1.982.357l-29.522 10.928c-2.965 1.098-3.039 2.834-1.979 5.797l14.352 40.102c1.063 2.965 1.896 3.352 4.859 2.254l29.524-10.928c2.964-1.098 4.507-4.391 3.447-7.356m-29.574 15.032l-15.973-44.629 25.496-9.438c.438-.162.895-.244 1.353-.244 1.603 0 3.04 1.006 3.575 2.504l13.391 37.418c.712 1.988-.341 4.209-2.344 4.951l-25.498 9.438"/><path d="m40.239 14.859l-.32-.881-.879.32-16.035 5.848-.879.32.318.881 2.277 6.266.318.881.879-.32 16.039-5.85.879-.32-.32-.881-2.277-6.264m-14.638 12.434l-2.275-6.266 16.033-5.848 2.279 6.264-16.037 5.85"/></svg>