<svg xmlns="http://www.w3.org/2000/svg" viewBox="0 0 64 64" enable-background="new 0 0 64 64"><path d="m59.272 14h-22.726v-10.185c0-1.002-.772-1.815-1.721-1.815h-5.65c-.95 0-1.72.813-1.72 1.815v10.185h-22.727c-1.504 0-2.728 1.242-2.728 2.77v42.46c0 1.528 1.224 2.77 2.728 2.77h54.545c1.503 0 2.727-1.242 2.727-2.77v-42.46c0-1.528-1.224-2.77-2.728-2.77m.91 45.23c0 .509-.407.923-.909.923h-54.545c-.501 0-.909-.414-.909-.923v-42.46c0-.51.408-.923.909-.923h22.958c.295.549.849.923 1.489.923h5.65c.641 0 1.193-.374 1.489-.923h22.958c.502 0 .909.413.909.923v42.46z"/><path d="m50.187 28.12c.829 0 1.488-.31 1.975-.932.486-.62.73-1.503.73-2.648 0-1.141-.244-2.022-.73-2.646-.486-.622-1.146-.935-1.975-.935-.828 0-1.49.312-1.983.932-.493.622-.741 1.505-.741 2.649 0 1.146.248 2.028.741 2.648.492.623 1.154.932 1.983.932"/><path d="m56.546 17.692h-49.091c-1.004 0-1.818.827-1.818 1.847v36.922c0 1.021.814 1.847 1.818 1.847h49.091c1.004 0 1.818-.826 1.818-1.847v-36.922c0-1.019-.814-1.847-1.818-1.847m-9.641 2.654c.756-.791 1.851-1.187 3.281-1.187 1.432 0 2.526.396 3.281 1.187 1.011.934 1.516 2.332 1.516 4.194 0 1.826-.505 3.224-1.516 4.194-.755.792-1.85 1.188-3.281 1.188-1.431 0-2.525-.396-3.281-1.188-1.014-.971-1.523-2.368-1.523-4.194 0-1.862.51-3.261 1.523-4.194m-9.646-.875h2.092v8.34h5v1.827h-7.092v-10.167m-8.501 0h2.093v8.34h5.002v1.827h-7.095v-10.167m-9.219 0h7.344v1.8h-5.3v2.159h4.865v1.766h-4.865v2.615h5.544v1.827h-7.588v-10.167m-10.124 0h2.079v3.876h3.893v-3.876h2.079v10.167h-2.079v-4.539h-3.893v4.539h-2.079v-10.167m46.221 34.22c0 1.021-.813 1.847-1.817 1.847h-43.637c-1.004 0-1.818-.826-1.818-1.847v-20.307c0-1.018.814-1.845 1.818-1.845h43.637c1.004 0 1.817.827 1.817 1.845v20.307"/><path d="m15.862 36.803l-.786-3.443h-1.312v4.381h.84v-2.964c0-.084-.001-.203-.003-.356 0-.155-.002-.273-.002-.355l.812 3.676h.877l.817-3.676c0 .082-.001.2-.003.355-.001.153-.002.272-.002.356v2.964h.841v-4.381h-1.298l-.781 3.443"/><path d="m20.001 36.89l-.697-2.389h-.928l1.172 3.382c.006.023-.013.089-.054.196-.042.106-.087.177-.136.212-.051.035-.114.057-.188.068-.075.009-.153.012-.234.009l-.105-.007v.677c.089.007.157.011.202.011.045.002.105.002.179.002.369 0 .616-.074.739-.222.123-.147.29-.527.501-1.143l1.095-3.186h-.888l-.658 2.39"/><path d="m25.472 34.424c-.263 0-.479.064-.65.196-.096.073-.196.192-.303.358v-.473h-.808v3.234h.833v-1.754c0-.2.027-.364.082-.492.104-.246.297-.365.578-.365.228 0 .383.082.465.247.044.093.067.223.067.394v1.971h.855v-2.182c0-.407-.105-.698-.313-.872-.209-.174-.477-.262-.806-.262"/><path d="m29.979 37.291c-.004-.146-.005-.271-.005-.375v-1.485c0-.392-.137-.656-.409-.797-.272-.14-.584-.21-.935-.21-.539 0-.919.142-1.141.427-.14.182-.218.417-.234.699h.804c.02-.124.06-.223.119-.298.083-.099.225-.147.424-.147.178 0 .313.024.404.075.092.051.139.143.139.275 0 .109-.061.189-.179.238-.067.031-.179.057-.334.076l-.286.036c-.325.042-.57.11-.736.207-.306.179-.458.467-.458.866 0 .306.095.544.285.712.189.167.429.251.72.251.228 0 .431-.053.611-.157.152-.09.285-.198.401-.325.005.074.013.139.023.197.01.058.028.119.052.184h.908v-.124c-.055-.027-.096-.06-.123-.099-.028-.039-.045-.114-.05-.226m-.837-.812c-.006.284-.086.479-.239.587-.153.105-.321.16-.504.16-.115 0-.213-.033-.293-.098-.08-.063-.121-.169-.121-.313 0-.162.066-.281.197-.358.078-.048.206-.085.384-.118l.189-.033c.095-.019.17-.038.225-.06.055-.02.108-.047.162-.081v.314"/><path d="m35.054 34.803c-.111-.139-.234-.235-.371-.289-.137-.057-.275-.085-.416-.085-.211 0-.401.045-.574.134-.161.09-.297.229-.406.419-.063-.158-.153-.288-.275-.389-.15-.11-.348-.164-.591-.164-.257 0-.467.065-.629.191-.092.07-.189.191-.293.358v-.473h-.811v3.234h.846v-1.948c0-.178.022-.311.066-.398.083-.157.242-.236.481-.236.204 0 .342.079.412.236.039.086.059.225.059.418v1.929h.84v-1.929c0-.145.022-.269.066-.372.088-.194.248-.291.479-.291.199 0 .336.075.409.227.04.08.059.179.059.303v2.063h.855l.005-2.043c0-.209-.01-.369-.029-.478-.031-.164-.091-.303-.182-.417"/><path d="m38.917 35.716c-.039-.254-.123-.479-.254-.671-.146-.218-.33-.379-.552-.479-.223-.102-.474-.151-.75-.151-.469 0-.849.149-1.141.448-.294.3-.44.731-.44 1.291 0 .602.162 1.031.486 1.298.325.266.699.399 1.125.399.514 0 .914-.159 1.199-.473.185-.198.287-.396.311-.586h-.851c-.051.096-.107.17-.172.224-.119.099-.273.147-.463.147-.181 0-.334-.042-.461-.121-.21-.131-.32-.357-.334-.684h2.324c.004-.28-.004-.495-.027-.642m-2.275.083c.029-.211.104-.377.222-.502.118-.122.284-.186.498-.186.196 0 .361.06.495.176.133.117.207.287.223.512h-1.438"/><path d="m41.044 34.501h.846v3.239h-.846z"/><path d="m41.044 33.333h.846v.782h-.846z"/><path d="m44.424 35.792c-.499-.112-.79-.191-.871-.237-.083-.043-.124-.113-.124-.21 0-.077.039-.145.116-.202.078-.058.208-.087.39-.087.221 0 .377.058.47.173.049.063.078.149.091.258h.834c-.037-.396-.182-.674-.434-.836-.251-.162-.576-.242-.975-.242-.42 0-.746.106-.979.323-.231.215-.348.471-.348.77 0 .254.074.449.223.582.147.139.403.251.767.344.503.119.794.205.872.256.078.048.117.12.117.216 0 .099-.049.174-.145.223-.098.051-.229.074-.393.074-.281 0-.473-.055-.576-.169-.061-.063-.098-.17-.115-.321h-.846c0 .334.119.607.358.823.239.214.61.322 1.113.322.493 0 .856-.102 1.093-.305.235-.204.354-.465.354-.786 0-.243-.082-.447-.246-.61-.165-.161-.414-.28-.746-.359"/><path d="m46.017 36.852h.888v.889h-.888z"/><path d="m47.683 36.852h.887v.889h-.887z"/><path d="m49.349 36.852h.887v.889h-.887z"/></svg>