<svg xmlns="http://www.w3.org/2000/svg" viewBox="0 0 64 64" enable-background="new 0 0 64 64"><path d="m45.59 2c-7.006 0-27.863 6.854-32.896 8.531-6.68 2.043-10.694 8.398-10.694 16.556v15.175l26.834 5.273v13.324l8.39 1.141 6.045-5.702v-12.414l18.731-11.095v-14.822c0-10.076-6.104-15.967-16.41-15.967m-10.613 25.774l-1.947-1.421 1.249-2.608c.359 1.305.594 2.655.698 4.029m-24.775-9.558l20.324-1.831c1.294 1.6 2.347 3.427 3.107 5.407l-2.146 4.483c-.001.001 0 .002-.001.003l-.005.012-2.104 4.667-5.086-3.12-14.623-9.455c.146-.083.322-.145.534-.166m-1.969 23.358l4.68-2.058.803 2.811c.035.124.091.234.136.352l-5.619-1.105m6.858.372l-6.09-21.308c-.104-.366-.132-.729-.084-1.06l14.057 9.089-2.384 4.629-4.973 9.656c-.234-.28-.417-.625-.526-1.006m1.753 1.736l4.58-8.894 2.76-5.358 5.136 3.148c.077.048.163.074.251.09.023.004.046.007.069.01.02.001.038.007.058.007.07 0 .142-.01.21-.031.197-.06.359-.2.442-.387l2.075-4.604 1.403 1.024 1.213.886v7.666l-17.512 6.371c-.219.08-.45.104-.685.072m3.73.318l12.563-4.57v7.038l-12.563-2.468m14.744 15.849l-4.579-.623v-11.318l4.302.846v.002l.277-.164v11.257m14.517-47.245l-10.733 4.005.008 17.514-2.601 1.262v-27.366l13.333-4.51-.007 9.095"/></svg>