<svg xmlns="http://www.w3.org/2000/svg" viewBox="0 0 64 64" enable-background="new 0 0 64 64"><path d="m61.144 41.448c-.24-1.247-1.509-2.257-2.748-2.257-.003 0-.006 0-.009 0l-.386-3.859-1.415-13.385c-.128-1.193-1.294-2.17-2.589-2.17h-.886v-17.777h-33.334v17.777h-3.465c-1.296 0-2.461.977-2.591 2.17l-.965 8.941h-1.197c-.408-.891-1.185-1.696-2.107-1.922-.84-.2-1.679-.301-2.518-.301s-1.678.101-2.517.301c-1.392.34-2.472 1.998-2.415 3.281.333 8.327.362 16.653.087 24.98-.101 2.377 1.799 4.454 4.355 4.721v.052h8.982 4.351c14.509 0 22.778 0 38.618 0 1.239 0 2.508-1.013 2.748-2.26 1.143-6.041 1.143-12.248.001-18.292m-51.362 15.864c.027.643-.22 1.272-.695 1.773-.553.582-1.324.907-2.133.915-.848-.008-1.619-.333-2.171-.915-.476-.501-.723-1.131-.694-1.792.274-8.345.245-16.798-.089-25.134-.017-.388.478-1.148.881-1.247.683-.163 1.374-.246 2.053-.246s1.37.083 2.043.244c.414.101.908.861.891 1.258-.334 8.353-.363 16.807-.086 25.144m43.329-35.535h.886c.336 0 .588.272.6.38l1.182 11.175h-2.667v-11.555zm-31.334-17.777h29.334v29.332h-4.32c-.219-1.902-1.948-3.443-3.884-3.443h-12.926c-1.935 0-3.664 1.542-3.883 3.443h-4.321v-29.332m24.667 35.777h-1.07l-.629-6.193c-.091-.887-.933-1.635-1.838-1.635h-12.926c-.905 0-1.747.748-1.838 1.635l-.628 6.193h-1.071l.641-6.301c.146-1.428 1.445-2.588 2.896-2.588h12.926c1.452 0 2.752 1.16 2.897 2.588l.64 6.301m-30.735-17.614c.012-.111.265-.386.603-.386h3.465v11.555h-5.273l1.205-11.169m43.47 37.199c-.055.286-.487.638-.783.638h-42.969c-.296 0-.729-.352-.782-.632-1.101-5.82-1.101-11.725-.001-17.542.055-.285.487-.635.784-.635h42.969c.297 0 .729.35.782.628 1.099 5.825 1.099 11.729 0 17.543"/><path d="m23.444 6.443h26v2.223h-26z"/><path d="m23.444 10.889h26v2.223h-26z"/><path d="m23.444 15.333h26v2.222h-26z"/><path d="m23.444 22h26v2.221h-26z"/><path d="m23.444 26.443h13v2.223h-13z"/><path d="m33.569 42h-16.471c-.973 0-1.765.83-1.765 1.852v7.406c0 1.021.792 1.854 1.765 1.854h16.472c.972 0 1.764-.832 1.764-1.854v-7.406c-.001-1.022-.793-1.852-1.765-1.852m.588 9.258c0 .342-.264.617-.588.617h-16.471c-.324 0-.588-.275-.588-.617v-7.406c0-.34.264-.617.588-.617h16.472c.324 0 .588.277.588.617v7.406z"/><path d="m26.444 44.221h-7.777c-.611 0-1.111.502-1.111 1.111v1.111c0 .611.5 1.111 1.111 1.111h7.777c.611 0 1.111-.5 1.111-1.111v-1.111c.001-.609-.499-1.111-1.111-1.111"/><path d="m32.556 45.332h-3.333c-.307 0-.556.25-.556.557v1.111c0 .305.249.555.556.555h3.333c.306 0 .556-.25.556-.555v-1.111c-.001-.307-.251-.557-.556-.557"/><path d="m51.334 44.221h3.333c.306 0 .556-.25.556-.555v-1.111c0-.305-.25-.555-.556-.555h-3.333c-.307 0-.556.25-.556.555v1.111c0 .305.249.555.556.555"/><path d="m21.444 48.666h-3.333c-.307 0-.556.25-.556.555v1.111c0 .307.249.557.556.557h3.333c.306 0 .556-.25.556-.557v-1.111c0-.305-.25-.555-.556-.555"/><path d="m32.556 48.666h-3.333c-.307 0-.556.25-.556.555v1.111c0 .307.249.557.556.557h3.333c.306 0 .556-.25.556-.557v-1.111c-.001-.305-.251-.555-.556-.555"/><path d="m27 48.666h-3.333c-.307 0-.556.25-.556.555v1.111c0 .307.249.557.556.557h3.333c.306 0 .556-.25.556-.557v-1.111c0-.305-.25-.555-.556-.555"/><circle cx="32" cy="57.555" r="2.223"/><circle cx="53" cy="47.555" r="1.111"/><circle cx="17.556" cy="57.555" r="1.111"/><circle cx="22" cy="57.555" r="1.111"/><circle cx="26.444" cy="57.555" r="1.111"/><circle cx="38.524" cy="56.617" r="1.111"/><circle cx="42.969" cy="56.617" r="1.111"/><circle cx="47.413" cy="56.617" r="1.111"/><circle cx="38.524" cy="52.523" r="1.111"/><circle cx="42.969" cy="52.523" r="1.111"/><circle cx="47.413" cy="52.523" r="1.111"/><circle cx="38.524" cy="48.43" r="1.111"/><circle cx="42.969" cy="48.43" r="1.111"/><circle cx="47.413" cy="48.43" r="1.111"/><circle cx="38.524" cy="44.336" r="1.111"/><circle cx="42.969" cy="44.336" r="1.111"/><circle cx="47.413" cy="44.336" r="1.111"/><path d="m57.444 50.889c-.909 0-1.688.547-2.032 1.33-.001-.002-.001-.002-.001-.002-.001.002-.002.006-.002.008-.056.127-.098.258-.128.396-.22.48-.586.49-1.17.49-1.842 0-3.333 1.49-3.333 3.332s1.491 3.334 3.333 3.334 3.333-1.492 3.333-3.334c0-.58.009-.939.48-1.166.149-.033.293-.082.431-.145.004 0 .007-.002.012-.004h-.002c.766-.352 1.302-1.121 1.302-2.018 0-1.227-.996-2.221-2.223-2.221m-3.333 7.777c-1.228 0-2.223-.994-2.223-2.223 0-1.227.995-2.223 2.223-2.223s2.223.996 2.223 2.223c0 1.229-.995 2.223-2.223 2.223m3.333-4.445c-.613 0-1.11-.496-1.11-1.109 0-.615.497-1.111 1.11-1.111.614 0 1.111.496 1.111 1.111.001.613-.496 1.109-1.111 1.109"/></svg>