<svg xmlns="http://www.w3.org/2000/svg" viewBox="0 0 64 64" enable-background="new 0 0 64 64"><path d="M32,2L2,19.887V44.08L32,62l30-17.92V19.92L32,2z M32,4.109l27.298,16.307l-11.073,6.613L21.027,10.651L32,4.109z
		 M31.091,59.348L3.818,43.057V21.998l27.272,16.289V59.348z M4.677,20.401l10.935-6.52l27.457,16.228L32,36.721L4.677,20.401z
		 M60.182,43.057L49.12,49.664v-7.293l-5.153,3.078v7.293l-11.058,6.605v-21.06l11.058-6.593v7.277l5.153-3.077v-7.272l11.062-6.595
		V43.057z"/><path d="m26.803 8.47l6.429 3.927 5.424-3.235-6.428-3.927z"/><path d="m59.688 23.045l-5.153 3.072v8.333l5.153-3.077z"/><path d="m33.71 57.932l7.031-4.2v-11.361l-7.031 4.192z"/></svg>