<svg xmlns="http://www.w3.org/2000/svg" viewBox="0 0 64 64" enable-background="new 0 0 64 64"><path d="m43.362 38.587l3.741-2.92-5.615-2.203c0 0 2.723-10.172-4.635-20.131-6.771-9.166-14.582-11.333-14.582-11.333s5.024 4.85 8.029 13.714c2.467 7.276.438 13.25.438 13.25l-5.801-2.214 3.188 11.837h-2.786l-23.339 7.919v15.494h50.123l9.877-11.853v-11.56h-18.638m-16.148 1.875h1.416l2.103 7.811h-3.519v-7.811m23.034 19.663h-46.373v-11.744h13.298c.234 2.675.789 6.018 2.102 7.241 2.225 2.076 6.188 2.301 7.788 2.301 1.602 0 5.563-.225 7.79-2.301 1.312-1.225 1.865-4.566 2.1-7.241h13.296v11.744zm1.875-13.619h-16.924c0 0-.037.743-.134 1.767h-4.108l10.004-7.811h18.701l-7.539 6.044"/></svg>