<svg xmlns="http://www.w3.org/2000/svg" viewBox="0 0 64 64" enable-background="new 0 0 64 64"><path d="m61.028 6.487c0 0-.002 0-.002-.001 0 0 0 0 0-.001-.799-1.153-1.997-1.681-3.3-1.419l-37.364 7.634c-.805.167-1.563.823-2.195 1.896-.002.003-.004.004-.006.007-.612 1.039-1.037 2.352-1.195 3.694l-3.631 30.459c-.162 1.353-.046 2.66.325 3.684 0 0 0 .001 0 .002 0 0 0 0 0 .002.424 1.156 1.14 1.854 2.017 1.966l35.905 4.564c.134.018.268.026.4.026 1.084 0 2.175-.572 3.072-1.611 1.028-1.189 1.714-2.851 1.933-4.68l4.943-41.475c.225-1.887-.094-3.573-.902-4.747m-40.314 8.039l37.359-7.633c.375-.076.713-.015 1.013.188l-19.451 24.564-6.705 8.115-3.748-7.422c-.001-.002-.003-.003-.004-.005l-.007-.014-9.184-17.18c.302-.397.568-.58.727-.613m-5.591 34.457l3.631-30.46c.053-.452.146-.904.271-1.337l.565 1.058 7.725 14.451-12.248 17.069c.007-.256.024-.518.056-.781m36.679 8.143l-35.906-4.565c-.075-.01-.208-.111-.347-.342l12.7-17.701 4.545 8.4 7.404-9.086 7.639 13.337 5.406 9.44c-.479.394-.961.58-1.441.517m8.34-46.12l-4.943 41.477c-.111.924-.375 1.809-.758 2.561l-13.014-22.72 18.636-23.535c.145.648.175 1.407.079 2.217"/><path d="m10.311 44.059l-5.808-.129c-.764-.018-1.477.591-1.583 1.352l-.654 4.678c-.107.761.425 1.468 1.183 1.573l5.895.816c.758.105 1.449-.433 1.538-1.195l.658-5.68c.087-.761-.465-1.4-1.229-1.415"/><path d="m12.229 29.858l-7.776.66c-.762.064-1.479.738-1.598 1.497l-.839 5.442c-.117.76.412 1.381 1.176 1.381h7.919c.765 0 1.465-.624 1.559-1.386l.774-6.327c.094-.762-.454-1.333-1.215-1.267"/><path d="m3.292 24.85l9.811-1.076c.76-.083 1.456-.775 1.55-1.537l.782-6.384c.094-.763-.445-1.275-1.198-1.137l-9.59 1.753c-.751.138-1.469.87-1.594 1.627l-.913 5.528c-.128.757.392 1.31 1.152 1.226"/></svg>