<svg xmlns="http://www.w3.org/2000/svg" viewBox="0 0 64 64" enable-background="new 0 0 64 64"><path d="m43.543 7.997c1.928 1.595 3.949 3.427 5.975 5.442 2.021 2.015 3.861 4.027 5.461 5.949-.215-2.16-1.672-4.913-4.09-7.319-2.414-2.404-5.178-3.858-7.346-4.072"/><path d="m61 20.348c-.348-3.479-2.697-7.914-6.588-11.787-3.887-3.873-8.34-6.215-11.832-6.561 3.109 2.569 6.361 5.518 9.621 8.764 3.26 3.247 6.221 6.488 8.799 9.584"/><path d="m42.88 21.09c1.562 1.065 3.709.913 5.097-.469 1.566-1.56 1.566-4.09 0-5.65-1.566-1.56-4.105-1.559-5.672.002-1.387 1.381-1.539 3.52-.471 5.075l-1.515 1.292c-9.081-8.89-18.325-14.674-22.988-14.674-.892 0-1.615.111-2.326.848-2.848 2.948-4.4 6.789-4.711 11.029-.383 5.215 1.105 11.014 4.309 16.428-.094.296-.59 1.479-.409 2.621 0 0-1.006 1.395-1.706 2.569-.003 0-.006-.001-.008-.001h-2.345c-1.794 0-3.246 2.174-3.246 4.855 0 2.17.956 3.986 2.269 4.609-.002.082-.012.323-.012.323-2.319.363-4.097 2.342-4.097 4.753v4.54h-2.049v2.76h28.387v-2.76h-2.049v-4.54c0-2.411-1.867-4.546-4.186-4.907l.924-1.127c.691 0 1.825-.449 1.825-.449 5.435 3.189 11.255 4.688 16.489 4.291 4.684-.355 8.449-1.762 11.25-4.897 2.836-3.177-3.43-14.237-14.059-25.011l1.299-1.51m-28.289 18.531c1.67 3.133 6.829 7.262 9.923 8.585l-.971 1.384h-9.654c1.483-1.234 1.838-2.838 1.838-4.574 0-1.898-.736-3.525-1.799-4.323.225-.374.663-1.072.663-1.072m-2.502 1.539h.391c1.063 0 2.247 1.584 2.247 3.855 0 2.273-1.185 3.857-2.247 3.857h-.392c.782-.887 1.295-2.277 1.295-3.857s-.513-2.968-1.294-3.855m18.298 19.08v.76h-18.771v-.76h18.771m-2.049-5.54v4.23h-14.646v-8.058h10.798c2.121.001 3.848 1.718 3.848 3.828m2.988-27.377l-2.806 1.91c-8.048-8.604-12.253-16.169-12.253-19.517 0-.412.072-.73.194-.853.125-.124.449-.198.869-.198 3.603 0 12.063 4.806 21.46 13.977l-6.555 5.588-.909-.907m22.988 18.174c0 .413-.073.731-.195.854-.125.124-.449.198-.869.198-3.363 0-10.957-4.186-19.59-12.196l1.916-2.796-.91-.906 5.609-6.529c9.211 9.36 14.039 17.788 14.039 21.375"/></svg>