<svg xmlns="http://www.w3.org/2000/svg" viewBox="0 0 64 64" enable-background="new 0 0 64 64"><path d="m56.724 10.01l-21.227 1.415.236-9.425-15.094.705-.244 9.727-11.136.742c-.884.061-3.659 1.676-4.039 5.176l-3.174 29.327c-.165 1.53-.039 5.104 2.954 5.661l46.189 8.581c.292.054.589.081.882.081 1.117 0 5.141-.898 5.559-4.793l4.323-39.932c.406-3.733-1.862-7.494-5.229-7.265m-47.339 4.953l10.965-.73-.07 2.781-4.889.059 11.73 17.502 16.584-17.096-8.357-.166.103-4.087 21.395-1.427c.618-.043 1.197.103 1.701.42l-32.063 29.044-17.989-25.866c.299-.261.609-.415.89-.434m-5.531 32.903l3.174-29.326c.058-.53.191-1.055.386-1.535l11.706 16.577-15.245 15.666c-.063-.443-.072-.913-.021-1.382m47.672 12.29l-46.189-8.58c-.254-.047-.506-.219-.731-.489l14.609-15.013.946-.973 5.962 8.871 9.298-8.127 2.995 3.993 15.027 20.035c-.606.305-1.266.405-1.917.283m8.62-43.968l-4.323 39.932c-.105.972-.457 1.872-.996 2.582l-18.051-24.065 22.959-21.06c.367.746.514 1.656.411 2.611"/></svg>