<svg xmlns="http://www.w3.org/2000/svg" viewBox="0 0 64 64" enable-background="new 0 0 64 64"><path d="m54.014 32.004c-.035 5.582-.273 11.222.164 16.798 2.234-5.416 2.826-11.154 2.895-16.783-.102-5.642-.662-11.371-2.895-16.802-.401 5.577-.199 11.206-.164 16.787"/><path d="m62 32.02c-.131-8.449-.871-16.953-3.578-25.197.045 8.553.551 17.099.514 25.654-.035 8.242-.494 16.482-.514 24.72 2.717-8.234 3.447-16.734 3.578-25.177"/><path d="m50.208 27.145l-.138-.03c-.518-13.135-3.092-23.115-6.187-23.115-.596 0-1.171.377-1.718 1.067-1.188 1.322-16.44 18.026-29.503 19.641-1.529.189-2.99.346-4.346.459-1.578.133-3.014.207-4.252.207 0 0-2.064 3.212-2.064 6.648 0 3.441 2.068 6.648 2.068 6.648 1.238 0 2.676.074 4.254.205.575.049 1.177.109 1.787.172v13.402h8.082l7.938-7.416c8.864 5.846 16.087 13.992 16.087 13.992v-.027c.531.648 1.09 1.002 1.667 1.002 3.095 0 5.669-9.98 6.188-23.115l.138-.029c.843 0 1.528-2.176 1.528-4.855-.001-2.682-.686-4.856-1.529-4.856m-6.325-21.047c1.429 1.257 3.646 8.565 4.171 20.574l-8.242-1.809c.656-10.926 2.715-17.574 4.071-18.765m-29.733 28.468c-.912 0-1.654-.883-1.654-1.968 0-1.088.742-1.97 1.654-1.97.914 0 1.652.882 1.652 1.97.001 1.086-.738 1.968-1.652 1.968m4.041 10.33v-4.092c.989.387 1.979.832 2.961 1.326l-2.961 2.766m0-6.222v-10.433h-4.664c.17-.617.362-1.201.561-1.729 9.87-1.811 20.355-10.882 25.833-16.244-1.417 5.133-2.323 12.959-2.323 21.732 0 8.798.911 16.644 2.337 21.777-4.709-4.609-13.163-11.994-21.744-15.103m25.692 19.228c-1.355-1.191-3.415-7.84-4.071-18.766l8.242-1.809c-.525 12.009-2.742 19.318-4.171 20.575"/></svg>