<svg xmlns="http://www.w3.org/2000/svg" viewBox="0 0 64 64" enable-background="new 0 0 64 64"><path d="M62,17.967C62,7.889,55.988,2,45.847,2c-6.902,0-28.483,7.207-32.685,8.633C6.046,12.576,2,18.795,2,27.089v15.964
		l27.353,4.66v13.146L37.61,62l5.951-5.702V43.882L62,32.789V17.967z M3.875,27.089c0-9.394,5.473-15.229,14.28-15.229
		c9.532,0,15.433,9.088,15.433,17.509v17.164L3.875,41.471V27.089z M35.735,59.849l-4.508-0.623V48.033l4.235,0.721l0.272-0.164
		V59.849z M60.766,26.729l-6.313,3.558v-9.285l-18.062,9.045v-3.102l24.375-11.658V26.729z"/><path d="m9.606 31.002l-1.385-8.063-2.43-.327-.09 10.003 1.557.211.061-6.766c.002-.194.002-.468.002-.819-.002-.352 0-.62.002-.811l1.43 8.597 1.622.218 1.588-8.19c0 .19-.006.46-.011.812-.008.35-.012.622-.013.816l-.061 6.766 1.556.211.088-10.003-2.402-.324-1.514 7.669"/><path d="m17.354 24.172l-2.94 9.619 1.746.234.559-1.983 2.944.397.51 2.128 1.811.243-2.739-10.384-1.891-.254m-.166 6.208l1.071-3.796.976 4.072-2.047-.276"/><path d="m22.863 34.93l1.658.223.088-10.003-1.658-.223z"/><path d="m27.842 25.586l-1.67-.226-.088 10.003 5.66.764.016-1.798-3.989-.538z"/><path d="m16.467 20.878c1.261-.131 2.689-1.115 2.836-2.987l1.046-.482c1.132-.521.205-2.756-.926-2.233l-.675.311c-.539-.866-1.4-1.384-2.336-1.287-.4.042-.84.209-1.135.338-.203.09-.341.162-.341.162s.001.011.002.012c-.948.554-1.54 1.81-1.394 3.207.187 1.784 1.495 3.109 2.923 2.959"/></svg>