<svg xmlns="http://www.w3.org/2000/svg" viewBox="0 0 64 64" enable-background="new 0 0 64 64"><path d="m38 27.229h-28c-2.199 0-3.999 1.688-3.999 3.75v17.047c0 2.062 1.8 3.75 3.999 3.75h28c2.201 0 4.001-1.688 4.001-3.75v-17.047c0-2.063-1.8-3.75-4.001-3.75m2.595 20.796c0 1.293-1.163 2.344-2.595 2.344h-28c-1.43 0-2.593-1.051-2.593-2.344v-17.046c0-1.293 1.163-2.344 2.593-2.344h28c1.432 0 2.595 1.051 2.595 2.344v17.046"/><path d="m14.127 41.82l-1.571-6.367h-2.627v8.098h1.683v-5.478c0-.157-.002-.377-.006-.661-.004-.283-.007-.503-.007-.657l1.626 6.796h1.754l1.637-6.796c0 .154-.002.374-.007.657-.004.284-.006.504-.006.661v5.478h1.683v-8.098h-2.596l-1.563 6.367"/><path d="m22.424 35.453l-3.082 8.098h1.888l.584-1.665h3.183l.569 1.665h1.958l-3.057-8.098h-2.043m-.119 5.037l1.122-3.186 1.09 3.186h-2.212"/><path d="m28.476 35.453h1.792v8.098h-1.792z"/><path d="m33.76 35.453h-1.806v8.098h6.118v-1.456h-4.312z"/><path d="m6.598 23.085h34.521c.039-1.107.098-2.16.174-3.168.535-7.14 1.971-11.84 3.794-14.627h-30.982c-3.224 0-7.507 4.759-7.507 17.795"/><path d="M55.121,2.015V2H55c0,0-42.083,0-42.123,0C8.457,2,2,8.518,2,26.377V62h6.813v-5.621h31.313V62H46l2.881-1.358v-5.613
		l6.24-2.926v3.701h3.999L62,54.445V20.752C62,10.492,59.464,2.169,55.121,2.015z M46,26.377v30.002v3.746h-3.999v-5.621H6.938
		v5.621H3.875V26.377c0-16.393,5.521-22.502,9.002-22.502h38.252C48.257,6.905,46,13.847,46,26.377z M56.996,53.929v-2.705
		l2.124-0.996v3.701H56.996z"/></svg>