<svg xmlns="http://www.w3.org/2000/svg" viewBox="0 0 64 64" enable-background="new 0 0 64 64"><path d="M62,17.965C62,7.889,55.988,2,45.847,2c-6.894,0-28.425,7.188-32.666,8.626C6.052,12.564,2,18.785,2,27.087v15.966
		l27.353,4.66v13.146L37.61,62l5.951-5.702V43.882L62,32.789V17.965z M3.875,27.087c0-9.393,5.473-15.229,14.28-15.229
		c9.532,0,15.433,9.089,15.433,17.511v17.164L3.875,41.471V27.087z M31.228,59.226V48.033l4.235,0.721l0.272-0.164v11.259
		L31.228,59.226z M50.025,12.604l-10.567,4.003l0.009,17.516l-2.56,1.26V8.017l13.125-4.51L50.025,12.604z"/><path d="m9.606 31.002l-1.386-8.063-2.43-.327-.088 10.003 1.557.211.061-6.768c.002-.194.002-.467.002-.818-.002-.351 0-.621.002-.812l1.428 8.597 1.624.22 1.588-8.19c-.002.19-.006.46-.013.81-.006.352-.011.622-.013.816l-.059 6.768 1.556.209.088-10.001-2.403-.327-1.514 7.672"/><path d="m17.354 24.17l-2.94 9.619 1.746.236.559-1.983 2.944.396.51 2.128 1.811.245-2.739-10.384-1.891-.257m-.166 6.21l1.071-3.796.975 4.072-2.046-.276"/><path d="m22.863 34.928l1.658.225.088-10.003-1.658-.223z"/><path d="m27.842 25.586l-1.67-.226-.088 10.003 5.66.762.016-1.798-3.989-.538z"/><path d="m16.467 20.878c1.261-.133 2.69-1.116 2.836-2.989l1.046-.482c1.132-.521.205-2.756-.926-2.233l-.675.312c-.539-.866-1.4-1.385-2.336-1.286-.398.042-.833.206-1.128.335-.008.003-.015.007-.022.01-.195.087-.325.155-.325.155s.001.01.001.011c-.947.555-1.539 1.81-1.393 3.208.186 1.784 1.494 3.107 2.922 2.959"/></svg>