<svg xmlns="http://www.w3.org/2000/svg" viewBox="0 0 64 64" enable-background="new 0 0 64 64"><path d="m56.725 6.01l-47.466 3.164c-.885.061-3.658 1.675-4.039 5.176l-3.174 29.327c-.164 1.53-.039 5.104 2.955 5.661l46.188 8.58c.292.055.589.082.882.082 1.117 0 5.142-.899 5.56-4.793l4.322-39.932c.406-3.733-1.861-7.494-5.228-7.265m-47.339 4.953l47.46-3.165c.619-.042 1.197.103 1.701.42l-24.15 21.875.029-.242-12.917-1.278.67-5.571 13 .612.615-5.125-17.543-.092-.721 5.992-9.035-12.992c.299-.261.609-.415.891-.434m-5.532 32.903l3.174-29.326c.057-.53.191-1.055.385-1.535l9.814 13.898-.635 5.276-12.716 13.068c-.064-.443-.072-.912-.022-1.381m47.672 12.29l-46.189-8.581c-.254-.046-.506-.218-.73-.489l11.631-11.952-.857 7.133 17.063 4.073.617-5.125-12.773-2.487.672-5.574 12.853 1.823.231-1.927 1.378-1.205 2.996 3.994 15.027 20.034c-.608.304-1.268.404-1.919.283m8.62-43.968l-4.323 39.931c-.105.973-.457 1.872-.996 2.582l-18.051-24.065 22.96-21.06c.366.747.514 1.657.41 2.612"/></svg>