<svg xmlns="http://www.w3.org/2000/svg" viewBox="0 0 64 64" enable-background="new 0 0 64 64"><path d="m57.656 22.278c-3.688-3.505-8.007-4.974-9.645-3.279-.021.021-.035.046-.055.068-.246.205-.438.473-.54.79-.561 1.743-1.308 3.763-1.938 5.185-.199-4.732-2.151-9.151-5.549-12.52-3.587-3.561-8.357-5.522-13.433-5.522-5.075 0-9.848 1.961-13.437 5.521-3.589 3.559-5.565 8.292-5.565 13.325 0 1.968.295 3.879.871 5.693-.315-.245-.635-.497-.96-.76-.021-.376-.127-.915-.574-1.392-.437-.471-1.057-.733-1.741-.733-.726 0-1.479.307-2.064.842-1.186 1.087-1.367 2.738-.415 3.761.478.516 1.041.649 1.427.687.195.199 3.959 4.049 5.353 5.313 1.318 1.193 2.974 2.32 4.918 3.35.971.514 1.978.958 2.991 1.319 1.029.368 2.124.671 3.249.897.733.149 1.508.274 2.383.384 0 .587 0 1.175 0 1.762 0 1.597 0 3.194 0 4.791-.934.742-.954 2.595-.954 3.41h.03c0 1.01.828 1.831 1.849 1.831 1.02 0 1.849-.821 1.849-1.831 0 1.01.825 1.831 1.846 1.831 1.022 0 1.849-.821 1.849-1.831h.03c0-.823-.021-2.709-.955-3.436 0-1.072 0-2.145 0-3.217 0-.967 0-1.935 0-2.903.015 0 .029 0 .045 0 .101.397.451.703.88.703.45 0 .816-.337.893-.765 1.124-.067 2.253-.19 3.373-.382 2.078-.35 4.2-.921 6.307-1.697 1.825-.673 3.67-1.513 5.482-2.496 1.532-.834 3.059-1.776 4.537-2.805.895-.623 1.781-1.281 2.637-1.959 1.643-1.22 5.625-3.045 7.627-3.909.366-.089.683-.247.948-.467.051-.038.098-.077.145-.12.007-.008.017-.013.024-.021.013-.014.022-.03.035-.044.191-.197.343-.429.422-.693.734-1.989-.941-5.607-4.175-8.681m-27.393 13.296c-.125-.361-.462-.633-.865-.633-.504 0-.925.418-.925.918 0-.5-.42-.918-.924-.918s-.922.418-.922.918c0-.5-.42-.918-.924-.918-.505 0-.925.418-.925.918 0-.5-.42-.918-.924-.918-.435 0-.788.316-.884.721-4.068-1.442-6.993-5.292-6.993-9.816 0-5.751 4.719-10.431 10.518-10.431s10.516 4.679 10.516 10.431c.001 4.434-2.807 8.22-6.748 9.728m-3.636 16.185c-.65.517-.857 1.564-.924 2.433-.065-.881-.274-1.95-.925-2.458 0-1.072 0-2.145 0-3.217 0-1.037 0-2.077 0-3.116.001.501.421.916.925.916.448 0 .813-.336.892-.762l.032.002c0 .471 0 .941 0 1.411 0 1.596 0 3.194 0 4.791m24.941-16.901c-.777.616-1.634 1.259-2.569 1.911-1.308.908-2.768 1.83-4.376 2.705-1.608.873-3.367 1.697-5.256 2.393-1.887.695-3.903 1.263-5.995 1.615-1.003.171-2.024.285-3.05.352 0-1.227 0-2.453 0-3.681 0-.927 0-1.853 0-2.778 4.881-1.599 8.417-6.159 8.417-11.529 0-6.694-5.491-12.143-12.243-12.143-6.752 0-12.244 5.449-12.244 12.143 0 5.467 3.66 10.098 8.679 11.615 0 .719 0 1.437 0 2.152 0 1.287 0 2.573 0 3.859-.678-.089-1.359-.189-2.039-.328-1.024-.207-2.04-.484-3.01-.832-.969-.345-1.895-.759-2.762-1.218-1.734-.919-3.289-1.947-4.565-3.103-1.376-1.248-5.27-5.232-5.27-5.232-.349-.363-.354-.483-.755-.506-.289-.016-.489.016-.651-.159-.291-.313-.15-.913.315-1.339.28-.255.611-.39.896-.39.19 0 .359.061.477.187.155.166.11.401.115.668.005.225.219.544.534.806.594.481 1.229.98 1.91 1.489 1.148.854 2.422 1.73 3.812 2.542.395.229.799.452 1.21.667-2.542-3.057-3.927-6.863-3.927-10.879 0-4.576 1.797-8.878 5.061-12.114 3.262-3.237 7.601-5.02 12.215-5.02 4.613 0 8.952 1.783 12.214 5.02 3.263 3.235 5.06 7.538 5.06 12.114 0 1.681-.242 3.324-.711 4.891.188-.175.374-.349.553-.521.87-.84 1.634-1.651 2.297-2.4.64-.758 1.464-2.733 2.11-4.459.708 1.622 1.979 3.417 3.707 5.06 1.732 1.646 3.603 2.844 5.27 3.475-1.906.891-4.188 2.041-5.429 2.967"/></svg>