<svg xmlns="http://www.w3.org/2000/svg" viewBox="0 0 64 64" enable-background="new 0 0 64 64"><path d="m32.377 38.588c.502-2.773 1.503-6.515 3.519-10.597 3.401-6.89 9.061-9.679 9.061-9.679l2.536 5.667 11.195-19.446-20.564-2.533 2.412 5.529c0 0-9.117 5.267-10.957 17.512-.861 5.734-.251 10.369.556 13.547h-4.796l-23.339 7.918v15.494h50.123l9.877-11.853v-11.56h-29.623zm17.871 21.537h-46.373v-11.744h13.298c.234 2.675.789 6.018 2.102 7.242 2.225 2.076 6.188 2.301 7.788 2.301 1.602 0 5.563-.225 7.79-2.301 1.312-1.225 1.865-4.567 2.1-7.242h13.296v11.744zm1.875-13.619h-16.924c0 0-.037.742-.134 1.767h-7.852v-7.81h3.465c.621 1.88 1.197 2.902 1.197 2.902s-.015-1.088.212-2.902h27.574l-7.538 6.043"/></svg>