<svg xmlns="http://www.w3.org/2000/svg" viewBox="0 0 64 64" enable-background="new 0 0 64 64"><path d="m11.119 52.861c-.893-.897-1.597-1.567-2.153-1.952-.552-.383-.906-.459-1.088-.217-.178.236-.118.681.195 1.311.311.622.859 1.371 1.694 2.211.837.84 1.585 1.391 2.206 1.703.628.313 1.072.374 1.308.196.24-.183.166-.536-.214-1.089-.381-.556-1.05-1.263-1.948-2.163"/><path d="m50.864 13.137c-6.879-6.879-14.347-11.137-18.85-11.137-1.274 0-2.313.341-3.031 1.061-.173.173-.313.375-.442.583l-.012-.011c0 0-.018.033-.041.081-.021.037-.039.076-.06.114-1.699 3.283-25.141 48.612-25.173 48.698-.59.459-3.066 2.803 1.175 7.044 4.229 4.232 6.573 1.774 7.041 1.177.09-.035 8.552-4.309 8.552-4.309l.587 1.259c.68 1.456 1.885 2.562 3.395 3.11 1.509.55 3.142.477 4.598-.203l7.401-3.449c.639-.299 1.214-.701 1.71-1.197 1.78-1.78 2.262-4.512 1.198-6.795l-.844-1.811 21.81-11.652c.209-.089.408-.191.59-.314l.082-.045-.012-.011c.139-.1.281-.194.402-.315 3.26-3.26-1.252-13.055-10.076-21.878m-24.033 4.297c1.137 2.147 2.431 4.195 3.867 6.126 2.476 3.713 5.414 7.022 8.721 9.847-.337.258-.673.516-1.01.776-3.514-2.428-6.647-5.282-9.325-8.476-1.366-1.82-2.604-3.742-3.699-5.758.483-.834.965-1.673 1.446-2.515m-10.238 17.065c3.935 4.659 9.15 8.609 15.359 11.408-.536.328-1.072.657-1.606.986-1.242-.589-2.443-1.227-3.601-1.909-.709.531-1.415 1.062-2.119 1.593.811.814 1.648 1.59 2.514 2.318-.423.266-.844.533-1.266.799-4.126-3.588-7.645-8.224-10.225-13.686.315-.501.629-1.004.944-1.509m-4.231 24.117c-.351-.234-.694-.473-1.032-.718.263.366.433.632.5.802.122.299.079.514-.125.65-.328.223-.94.154-1.793-.232-.852-.381-1.814-1.042-2.839-2.064-1.034-1.032-1.719-2.018-2.128-2.908-.413-.906-.479-1.564-.233-1.931.222-.323.583-.333 1.113-.027.538.308 1.133.825 1.798 1.521-.14.161-.278.322-.418.483-.478-.463-.849-.73-1.133-.785-.155-.029-.271.006-.347.105-.145.189-.086.566.191 1.113.274.543.785 1.229 1.584 2.025.807.803 1.473 1.28 1.955 1.488.488.211.824.246.992.117.166-.127.152-.356-.039-.693-.192-.341-.52-.734-.966-1.191-.173.153-.344.309-.515.465-.389-.363-.771-.734-1.143-1.115.294-.303.588-.606.883-.908 1.256 1.287 2.613 2.474 4.062 3.549-.122.084-.245.168-.367.254m2.459-1.336c-.435.289-1.1.269-1.958-.08-1.058-.406-2.278-1.199-3.58-2.5-1.323-1.334-2.109-2.561-2.49-3.591-.347-.858-.365-1.527-.077-1.962.298-.447.775-.439 1.476.028.871.519 1.987 1.618 3.486 3.127 1.474 1.474 2.567 2.601 3.116 3.497.465.704.475 1.184.027 1.481m4.055-3.058c-2.916-2.036-5.515-4.484-7.718-7.266-.27.354-.54.707-.811 1.061-.456-.571-.895-1.157-1.315-1.756.721-1.084 1.439-2.176 2.155-3.271.465.684.952 1.351 1.461 2.002-.298.395-.595.788-.894 1.18 2.267 2.877 4.953 5.403 7.971 7.492-.284.187-.566.371-.849.558m2.701-1.769c-3.943-2.681-7.344-6.088-10.016-10.04.787-1.209 1.571-2.428 2.352-3.654.522.801 1.072 1.58 1.651 2.338-.617.832-1.235 1.66-1.854 2.485.639.825 1.312 1.624 2.017 2.392.618-.684 1.236-1.366 1.854-2.051.624.685 1.271 1.346 1.941 1.984-.669.63-1.338 1.262-2.007 1.894.912.871 1.87 1.697 2.866 2.476.865-.65 1.732-1.301 2.604-1.947.771.592 1.564 1.156 2.38 1.689-1.272.806-2.534 1.619-3.788 2.434m11.617.472l-6.027 2.813c-.425.198-.899.221-1.34.059-.44-.158-.792-.48-.989-.906l-.33-.709 9.075-4.569.459.987c.396.848.016 1.924-.848 2.325m6.338-11.571c-4.764-2.71-8.973-6.259-12.433-10.453-.298-.362-.71-.875-1.217-1.555-.507-.681-.881-1.217-1.142-1.596 3.348 5.965 7.816 10.948 13.012 14.656-.601.357-1.201.714-1.798 1.073-5.724-2.752-10.64-6.535-14.497-11.022.233.327.569.789 1.024 1.373.456.584.822 1.027 1.087 1.343 3.06 3.652 6.718 6.779 10.832 9.244-.51.308-1.019.615-1.525.924-5.809-3.529-10.68-8.411-14.199-14.228.49-.805.98-1.613 1.47-2.424 3.296 4.529 7.595 8.482 12.685 11.58-4.396-3.986-8.089-8.998-10.764-14.796.586-.989 1.17-1.983 1.754-2.981 4.127 7.436 10.25 13.568 17.677 17.711-.656.382-1.312.767-1.966 1.151m4.643-2.703c-1.561-.846-3.067-1.78-4.513-2.793.708-.5 1.42-.996 2.131-1.494 1.532 1.059 3.132 2.031 4.79 2.908-.807.459-1.608.919-2.408 1.379m-6.395-12.432c-7.703-7.704-11.799-16.293-9.838-20.145-.02 4.5 4.222 11.972 11.117 18.866 6.866 6.865 14.318 11.119 18.824 11.133-3.868 1.915-12.426-2.179-20.103-9.854m21.834 7.469c-.34.34-.914.512-1.707.512-.445 0-.96-.063-1.525-.184-1.338-4.422-5.142-10.25-10.6-15.709-5.49-5.489-11.354-9.305-15.787-10.623-.371-1.752-.142-2.843.313-3.298.339-.339.912-.511 1.705-.511 3.342 0 10.25 3.313 17.524 10.587 4.115 4.115 7.38 8.548 9.192 12.484 1.777 3.855 1.586 6.042.885 6.742"/><path d="m22.621 44.405c.449-.4.899-.798 1.351-1.199-1.994-1.386-3.831-2.912-5.496-4.559 1.244 2.071 2.632 3.996 4.145 5.758"/></svg>