<svg xmlns="http://www.w3.org/2000/svg" viewBox="0 0 64 64" enable-background="new 0 0 64 64"><path d="m59.104 19.983c-2.054-2.609-9.974-4.152-19.161-4.665.005-.064.026-.127.026-.193 0-1.356-.985-2.574-2.552-3.43l7.029-7.029c.521.247 1.159.167 1.591-.265.55-.548.55-1.439 0-1.989-.55-.549-1.44-.549-1.989 0-.432.433-.511 1.069-.264 1.591l-7.264 7.264c-1.285-.521-2.842-.829-4.521-.829s-3.235.308-4.521.829l-7.264-7.264c.247-.521.168-1.158-.264-1.591-.549-.549-1.44-.549-1.989 0-.549.55-.549 1.441 0 1.989.432.432 1.069.512 1.591.265l7.029 7.029c-1.566.855-2.552 2.073-2.552 3.43 0 .103.03.199.04.301-8.739.606-16.283 2.136-18.642 4.558-4.572 4.69-4.573 32.468 0 37.16.496.509 1.224.979 2.142 1.409-1.114.856-1.819 2.082-1.819 3.447h11.25c0-.366-.056-.721-.151-1.063 4.767.707 10.434 1.063 16.06 1.063 4.996 0 9.957-.281 14.225-.849-.014.001-.025.003-.038.005-.06.274-.096.555-.096.844h11.25c0-1.234-.577-2.354-1.512-3.19-.016.008-.034.014-.05.021 1.098-.503 1.924-1.063 2.415-1.688 3.864-4.907 3.861-32.256.001-37.16m-1.474 36c-1.58 2.008-10.781 4.143-24.721 4.143-14.415 0-24.059-2.158-26.137-4.29-1.44-1.479-2.897-7.886-2.897-17.273 0-9.387 1.458-15.794 2.897-17.271 2.077-2.132 11.721-4.29 26.137-4.29 13.939 0 23.141 2.134 24.721 4.142 1.24 1.574 2.494 8.063 2.495 17.42s-1.255 15.845-2.495 17.419"/><path d="m9.26 24.441c-3.43 3.567-3.431 24.675 0 28.242 4.667 4.855 36.379 4.989 40.256 0 2.896-3.729 2.895-24.514 0-28.242-3.876-4.989-35.59-4.853-40.256 0"/><circle cx="55.688" cy="29.188" r="2.813"/><circle cx="55.688" cy="37.625" r="2.813"/></svg>