<svg xmlns="http://www.w3.org/2000/svg" viewBox="0 0 64 64" enable-background="new 0 0 64 64"><ellipse cx="38.207" cy="37.312" rx="14.896" ry="14.942"/><path d="m58.837 16.122c.015-.072.043-1.576.043-1.576 0-.604-.487-1.094-1.09-1.094h-4.836c-.523 0-.942.38-1.045.878l-1.683-5.681c-.255-.568-1.505-1.49-2.255-1.698-2.29-.635-6.029-.951-9.765-.951-3.738 0-7.477.316-9.768.951-.749.208-2 1.13-2.254 1.698l-2.1 7.088h-1.855v-1.273c0-1.129-.914-2.045-2.04-2.045h-9.053c-1.128 0-2.039.916-2.039 2.045v1.273h-1.997c-2.816 0-5.1 2.291-5.1 5.115v28.39c0 2.823 2.283 5.114 5.1 5.114h19.419c3.322 2.297 7.347 3.644 11.688 3.644 4.339 0 8.364-1.347 11.687-3.644h7.006c2.816 0 5.1-2.291 5.1-5.114v-28.39c0-2.136-1.308-3.964-3.163-4.73m-20.63 39.997c-10.34 0-18.751-8.436-18.751-18.807s8.411-18.808 18.751-18.808c10.338 0 18.749 8.437 18.749 18.808s-8.411 18.807-18.749 18.807"/></svg>