<svg xmlns="http://www.w3.org/2000/svg" viewBox="0 0 64 64" enable-background="new 0 0 64 64"><path d="m33.718 16.531h3.125c.433 0 .782-.35.782-.78v-3.125c0-.432-.35-.782-.782-.782h-3.125c-.431 0-.78.35-.78.782v3.125c0 .431.349.78.78.78"/><path d="m40.28 16.531h3.125c.433 0 .782-.35.782-.78v-3.125c0-.432-.35-.782-.782-.782h-3.125c-.431 0-.78.35-.78.782v3.125c0 .431.35.78.78.78"/><path d="m46.843 16.531h3.125c.433 0 .782-.35.782-.78v-3.125c0-.432-.35-.782-.782-.782h-3.125c-.431 0-.78.35-.78.782v3.125c0 .431.349.78.78.78"/><path d="m53.405 16.531h3.125c.433 0 .782-.35.782-.78v-3.125c0-.432-.35-.782-.782-.782h-3.125c-.431 0-.78.35-.78.782v3.125c0 .431.35.78.78.78"/><path d="m36.843 47.938h-3.125c-.431 0-.78.35-.78.782v3.125c0 .431.35.78.78.78h3.125c.433 0 .782-.35.782-.78v-3.125c0-.433-.35-.782-.782-.782"/><path d="m40.28 52.625h3.125c.433 0 .782-.35.782-.78v-3.125c0-.433-.35-.782-.782-.782h-3.125c-.431 0-.78.35-.78.782v3.125c0 .43.35.78.78.78"/><path d="m46.843 52.625h3.125c.433 0 .782-.35.782-.78v-3.125c0-.433-.35-.782-.782-.782h-3.125c-.431 0-.78.35-.78.782v3.125c0 .43.349.78.78.78"/><path d="m53.405 52.625h3.125c.433 0 .782-.35.782-.78v-3.125c0-.433-.35-.782-.782-.782h-3.125c-.431 0-.78.35-.78.782v3.125c0 .43.35.78.78.78"/><path d="m40.28 34.578h3.125c.433 0 .782-.35.782-.78v-3.125c0-.433-.35-.782-.782-.782h-3.125c-.431 0-.78.35-.78.782v3.125c0 .431.35.78.78.78"/><path d="m46.843 34.578h3.125c.433 0 .782-.35.782-.78v-3.125c0-.433-.35-.782-.782-.782h-3.125c-.431 0-.78.35-.78.782v3.125c0 .431.349.78.78.78"/><path d="m33.718 28.563h3.125c.433 0 .782-.35.782-.782v-3.124c0-.432-.35-.782-.782-.782h-3.125c-.431 0-.78.35-.78.782v3.124c0 .433.349.782.78.782"/><path d="m40.28 28.563h3.125c.433 0 .782-.35.782-.782v-3.124c0-.432-.35-.782-.782-.782h-3.125c-.431 0-.78.35-.78.782v3.124c0 .433.35.782.78.782"/><path d="m46.843 28.563h3.125c.433 0 .782-.35.782-.782v-3.124c0-.432-.35-.782-.782-.782h-3.125c-.431 0-.78.35-.78.782v3.124c0 .433.349.782.78.782"/><path d="m53.405 28.563h3.125c.433 0 .782-.35.782-.782v-3.124c0-.432-.35-.782-.782-.782h-3.125c-.431 0-.78.35-.78.782v3.124c0 .433.35.782.78.782"/><path d="m33.718 22.548h3.125c.433 0 .782-.35.782-.782v-3.125c0-.43-.35-.78-.782-.78h-3.125c-.431 0-.78.35-.78.78v3.125c0 .432.349.782.78.782"/><path d="m40.28 22.548h3.125c.433 0 .782-.35.782-.782v-3.125c0-.43-.35-.78-.782-.78h-3.125c-.431 0-.78.35-.78.78v3.125c0 .432.35.782.78.782"/><path d="m46.843 22.548h3.125c.433 0 .782-.35.782-.782v-3.125c0-.43-.35-.78-.782-.78h-3.125c-.431 0-.78.35-.78.78v3.125c0 .432.349.782.78.782"/><path d="m53.405 22.548h3.125c.433 0 .782-.35.782-.782v-3.125c0-.43-.35-.78-.782-.78h-3.125c-.431 0-.78.35-.78.78v3.125c0 .432.35.782.78.782"/><path d="m58 2h-25.75c-1.999 0-4 1.936-3.999 3.871v18.629l-10.38-10.38v8.447h-15.871v18.867h15.871v8.446l10.38-10.381-.001 18.63c0 1.936 2.001 3.871 4 3.871h25.75c2.001 0 4-1.936 4-3.871v-52.258c0-1.935-1.999-3.871-4-3.871m-2.095 3.281c.518 0 .938.419.938.938 0 .517-.421.938-.938.938s-.937-.421-.937-.938c.001-.518.42-.938.937-.938m-13.312.502h5.064c.156 0 .28.208.28.467 0 .26-.124.471-.28.471h-5.064c-.154 0-.28-.211-.28-.471 0-.258.125-.467.28-.467m6.048 52.701c0 .388-.315.703-.703.703h-5.625c-.388 0-.703-.315-.703-.703v-1.406c0-.388.315-.703.703-.703h5.625c.388 0 .703.315.703.703v1.406m10.547-3.984h-28.125v-17.812l2.308-2.308c.055.119.152.198.348.198h3.125c.433 0 .782-.35.782-.78v-3.125c0-.433-.35-.782-.782-.782h-3.125c-.026 0-.037.013-.062.016l-2.594-2.594v-17.813h28.125v45"/></svg>