<svg xmlns="http://www.w3.org/2000/svg" viewBox="0 0 64 64" enable-background="new 0 0 64 64"><path d="m28.429 32c0 1.969 1.602 3.57 3.571 3.57 1.971 0 3.572-1.602 3.572-3.57s-1.601-3.572-3.572-3.572c-1.969 0-3.571 1.603-3.571 3.572"/><ellipse cx="32" cy="50.482" rx="1.56" ry="1.5"/><path d="M32,2C15.432,2,2,15.432,2,32s13.432,30,30,30c16.568,0,30-13.432,30-30S48.568,2,32,2z M45,49.5c0,2.762-2.328,5-5.199,5
		h-15.6c-2.87,0-5.2-2.238-5.2-5v-35c0-2.762,2.33-5,5.2-5h15.6c2.871,0,5.199,2.238,5.199,5v9.75h-2.6V14.5H21.6v32h20.8v-6.75H45
		V49.5z M37,32c0,2.756-2.242,5-5,5c-2.756,0-5-2.244-5-5c0-2.758,2.243-5,5-5C34.758,27,37,29.242,37,32z M46,28.428h-6.545v2.857
		H46v1.43h-6.545V37H38V27h8V28.428z M55,31.285v1.43h-6.545V37H47V27h8v1.428h-6.545v2.857H55z"/></svg>