<svg xmlns="http://www.w3.org/2000/svg" viewBox="0 0 64 64" enable-background="new 0 0 64 64"><ellipse cx="37.38" cy="43.745" rx="12.91" ry="13.185"/><path d="m55.259 25.05c.013-.064.037-1.391.037-1.391 0-.534-.422-.966-.943-.966h-4.191c-.455 0-.818.334-.906.774l-.541-3.959 6.727.546v-4.228l-7.052 1.304-.569-4.173 5.981-3.783-2.783-3.433-5.456 5.742c-1.192-.339-2.763-.576-4.481-.716l3.953-8.767h-5.083l-1.324 8.642c-.959-.024-1.926-.021-2.879.009l-1.628-8.651h-5.144l4.305 8.797c-1.452.132-2.765.339-3.827.619l-5.632-5.656-2.891 3.417 6.022 3.638-.657 4.313-7.312-1.297v4.222l6.947-.542-.792 5.198h-1.609v-1.123c0-.996-.792-1.804-1.768-1.804h-7.846c-.978 0-1.768.808-1.768 1.804v1.123h-1.729c-2.441 0-4.42 2.022-4.42 4.514v25.05c0 2.49 1.979 4.514 4.42 4.514h16.829c2.881 2.025 6.369 3.213 10.131 3.213 3.76 0 7.248-1.188 10.128-3.214h6.072c2.441 0 4.42-2.023 4.42-4.514v-25.05c0-1.884-1.134-3.497-2.741-4.172m-.819-8.014v1.926l-7.236-.587 7.236-1.339m-3.48-9.774l1.35 1.666-7.35 4.647 6-6.313m-10.154-4.253h2.669l-4.089 8.969 1.42-8.969m-10.213 0h2.704l1.733 8.975-4.437-8.975m2.058 11.618h2.505l2.178 4.45-.837-4.45h1.52l-.683 4.45 2.007-4.45h3.235l-3.919 4.124 5.874-3.715c.347.301.573.739.573 1.236v1.465l-5.557 1.027 5.01.407c-.288.268-.662.441-1.086.441h-12.246c-.417 0-.786-.17-1.073-.43l5.37-.419-5.931-1.052v-1.44c0-.593.318-1.104.787-1.391l6.34 3.829-4.067-4.082m-10.191-5.702l1.423-1.682 6.345 6.372-7.768-4.69m-2.474 10.039v-1.932l7.563 1.343-7.563.589m17.394 41.376c-8.961 0-16.252-7.443-16.252-16.594 0-9.151 7.291-16.595 16.252-16.595 8.959 0 16.248 7.443 16.248 16.595 0 9.15-7.289 16.594-16.248 16.594"/></svg>