<svg xmlns="http://www.w3.org/2000/svg" viewBox="0 0 64 64" enable-background="new 0 0 64 64"><path d="m16.726 45.719c.444.266 1.03.132 1.304-.304.274-.43.136-.994-.311-1.262-.448-.262-1.031-.13-1.305.3-.275.435-.136.999.312 1.266"/><path d="m61.525 20.311c-.18-.237-.403-.429-.651-.581.104-.019.209-.045.306-.101.452-.256.605-.82.34-1.257-.111-.182-.283-.3-.471-.374.25-.274.438-.597.533-.962.158-.6.066-1.225-.256-1.76-.404-.668-1.158-1.071-1.936-1.124.785-1.074.688-2.57-.307-3.531-.936-.908-2.354-1.032-3.443-.411.09-.158.154-.332.154-.526 0-.604-.49-1.094-1.094-1.094-.082 0-.155.03-.232.047.042-.311.037-.627-.055-.938-.181-.605-.594-1.104-1.164-1.404-.797-.418-1.779-.311-2.504.17.027-.094.052-.19.047-.292-.021-.507-.463-.898-.985-.878-.222.01-.411.103-.567.23-.338-.892-1.205-1.525-2.232-1.525l-.108.002c-.648.025-1.244.298-1.679.768-.422.458-.64 1.048-.612 1.663.017.355.12.684.279.979-.213-.023-.436.011-.629.135-.185.117-.299.292-.363.48-.789-.593-1.944-.696-2.803-.148-.541.346-.908.876-1.035 1.494-.062.3-.061.602-.004.894-.374-.087-.777.046-1.008.375-.123.176-.158.377-.145.574-.963-.249-2.067.094-2.641.916-.356.513-.486 1.131-.368 1.741.034.176.094.344.166.504-.914-.191-1.905.051-2.614.739-1.116 1.075-1.114 2.818 0 3.895.002.003.006.005.01.008-.553.056-.989.506-.989 1.072 0 .105.032.201.061.297-.968-.204-2.041.179-2.576 1.021-.336.526-.441 1.149-.297 1.753.088.368.27.695.513.974-.19.069-.365.185-.479.364-.115.181-.143.383-.121.579-.975-.212-2.06.173-2.599 1.021-.335.527-.44 1.15-.296 1.754.088.367.27.694.514.973-.191.069-.365.185-.48.366-.115.18-.143.382-.12.578-.976-.215-2.064.174-2.597 1.021-.338.528-.443 1.152-.299 1.757.088.365.27.691.514.971-.19.068-.364.182-.479.363-.114.181-.142.385-.12.58-.975-.215-2.063.174-2.598 1.021-.336.526-.442 1.149-.298 1.755.088.367.27.693.513.973-.189.068-.364.184-.479.365-.274.431-.137.995.309 1.262.449.265 1.031.131 1.308-.302.113-.179.14-.378.119-.571.183.044.37.076.561.076.338 0 .656-.084.954-.209-.064.115-.125.235-.169.363-.121.35-.145.713-.093 1.068-.2-.042-.413-.036-.611.058-.472.221-.668.772-.438 1.227.228.456.795.647 1.268.424.194-.093.328-.248.419-.422.442.452 1.054.722 1.724.722.363 0 .715-.078 1.044-.234.583-.273 1.019-.754 1.226-1.352.121-.35.145-.713.094-1.068.199.043.413.037.611-.057.197-.092.332-.249.422-.424.445.449 1.065.725 1.723.725.363 0 .715-.078 1.041-.234.584-.274 1.022-.756 1.229-1.354.121-.349.145-.711.094-1.064.2.041.413.035.613-.059.193-.093.327-.248.418-.422.441.452 1.055.722 1.725.722.363 0 .713-.078 1.042-.232.582-.274 1.017-.753 1.226-1.351.121-.35.145-.715.094-1.071.16.033.327.042.495-.011.204-.065.356-.2.471-.359.441.592 1.153.96 1.937.96.251 0 .502-.038.744-.115.617-.197 1.115-.618 1.402-1.187.162-.318.236-.662.239-1.008 1.118.98 2.839.959 3.918-.086.59-.57.856-1.33.819-2.079.192.245.477.413.813.413.413 0 .762-.244.933-.592.445.494 1.087.795 1.792.795.301 0 .596-.055.879-.163.604-.233 1.074-.684 1.326-1.267.198-.461.23-.959.113-1.438.227.018.459-.036.654-.181.172-.13.271-.31.322-.499.395.266.859.422 1.355.422.528 0 1.029-.166 1.45-.479.514-.382.841-.937.922-1.561.046-.353 0-.702-.112-1.028.492.03.934-.299 1.001-.783.028-.203-.028-.392-.124-.558.996-.181 1.796-.97 1.938-1.977.081-.607-.08-1.214-.457-1.706m-37.287 17.096c-.393.614-1.293.824-1.938.441-.319-.189-.542-.488-.625-.839-.082-.342-.022-.694.17-.995.255-.403.703-.645 1.197-.645.26 0 .516.07.737.202.319.19.542.489.626.841.083.343.022.696-.167.995m33.666-21.274c.092-.35.321-.645.645-.829.216-.122.461-.186.71-.186.5 0 .966.257 1.216.669.184.304.235.658.146.998-.092.349-.321.644-.645.828-.651.366-1.551.136-1.926-.482-.182-.304-.234-.658-.146-.998m-7.025-8.417c.246-.437.721-.708 1.238-.708.232 0 .465.057.669.164.331.175.571.463.674.811.101.336.06.692-.113 1.001-.353.63-1.243.887-1.905.54-.332-.174-.571-.46-.675-.808-.101-.336-.06-.692.112-1m-4.926-2.274c.254-.274.604-.434 1.055-.451.75 0 1.361.563 1.395 1.282.016.348-.109.683-.349.944-.255.276-.637.438-1.021.453-.752 0-1.397-.563-1.431-1.281-.014-.349.11-.685.351-.947m-4.92 4.13c.072-.354.285-.659.597-.858.23-.147.498-.225.774-.225.476 0 .916.227 1.176.607.201.294.272.646.201.991-.072.354-.285.657-.596.856-.631.4-1.543.219-1.951-.378-.201-.295-.272-.648-.201-.993m-3.954 3.124c.261-.375.698-.598 1.17-.598.279 0 .551.079.783.229.312.203.521.508.591.862.068.346-.007.698-.211.99-.416.596-1.33.771-1.953.367-.311-.204-.52-.51-.59-.865-.066-.344.008-.694.21-.985m-6.288 9.244c.256-.404.703-.645 1.195-.645.26 0 .516.07.74.205.321.189.543.488.627.84.081.341.021.692-.17.991-.392.618-1.29.828-1.937.442-.319-.191-.542-.489-.626-.841-.08-.34-.021-.692.171-.992m-2.984 4.692c.257-.404.705-.645 1.2-.645.26 0 .516.069.736.2.319.191.542.49.626.842.081.342.021.696-.17.995-.391.615-1.292.824-1.933.442-.321-.191-.545-.489-.629-.841-.08-.341-.02-.693.17-.993m-2.979 4.689c.254-.402.701-.643 1.195-.643.261 0 .516.07.738.203.32.189.543.488.626.84.082.342.021.693-.17.994-.39.615-1.286.826-1.933.441-.321-.189-.545-.487-.629-.838-.08-.34-.02-.694.173-.997m2.593 9.041c-.119.344-.371.621-.711.779-.688.325-1.551.035-1.881-.621-.158-.313-.183-.67-.067-1 .119-.344.372-.62.714-.779.194-.092.402-.14.617-.14.533 0 1.029.298 1.261.759.158.315.183.671.067 1.002m5.12-2.412c-.119.344-.373.621-.715.782-.678.319-1.552.026-1.877-.62-.158-.314-.183-.672-.067-1.003.118-.344.37-.621.71-.78.195-.092.404-.14.619-.14.543 0 1.027.292 1.264.759.157.315.181.67.066 1.002m5.117-2.406c-.12.344-.372.619-.71.777-.681.32-1.556.027-1.88-.62-.159-.314-.184-.671-.067-1.003.119-.344.371-.619.712-.779.195-.092.403-.139.619-.139.533 0 1.027.297 1.26.758.158.316.181.673.066 1.006m5.196-1.906c-.166.33-.457.574-.818.689-.729.229-1.54-.168-1.773-.857-.113-.332-.088-.688.072-1.001.166-.327.457-.569.82-.685.143-.045.292-.068.441-.068.607 0 1.143.371 1.33.923.112.331.087.686-.072.999m10.691-3.93c-.145.336-.419.597-.77.732-.713.272-1.549-.078-1.828-.754-.133-.323-.131-.68.008-1.002.146-.336.418-.596.771-.73.168-.064.345-.098.523-.098.58 0 1.091.333 1.303.848.135.324.132.682-.007 1.004m4.215-2.577c-.596.444-1.516.327-1.973-.248-.223-.28-.321-.626-.276-.976.046-.355.233-.672.528-.892.25-.186.547-.284.862-.284.44 0 .846.191 1.112.527.225.281.322.628.277.978-.046.357-.233.675-.53.895m.558-2.917c-.834-.582-2.035-.617-2.875.009-.512.382-.838.936-.919 1.559-.047.368.005.729.13 1.068-.205-.001-.412.047-.588.177-.143.106-.229.249-.291.401-.656-.524-1.582-.716-2.407-.398-.604.231-1.074.68-1.325 1.263-.141.325-.188.667-.17 1.008-.109-.038-.222-.069-.344-.069-.492 0-.887.348-.998.806-.139-.342-.348-.663-.634-.938-1.113-1.078-2.915-1.076-4.026 0-.6.58-.863 1.354-.816 2.113-.408-.307-.916-.488-1.459-.488-.253 0-.504.04-.743.116-.618.194-1.117.614-1.405 1.181-.168.33-.24.687-.239 1.044-.192-.068-.405-.091-.614-.024-.25.082-.442.25-.553.461-.441-.446-1.048-.713-1.709-.713-.365 0-.717.08-1.043.236-.584.271-1.02.752-1.228 1.35-.122.35-.146.713-.095 1.068-.199-.043-.414-.037-.612.057-.199.095-.335.254-.425.432-.701-.695-1.826-.938-2.762-.498-.584.274-1.02.756-1.227 1.354-.121.349-.144.712-.092 1.066-.201-.042-.414-.035-.611.058-.196.093-.331.248-.422.423-.442-.453-1.055-.723-1.723-.723-.332 0-.652.074-.953.204.277-.501.366-1.073.232-1.632-.088-.367-.27-.693-.512-.973.189-.069.363-.184.478-.364.114-.179.141-.378.12-.57.184.044.371.075.561.075.836 0 1.599-.412 2.038-1.104.336-.527.442-1.15.298-1.755-.088-.368-.27-.694-.514-.974.19-.069.364-.185.479-.365.114-.178.142-.377.121-.57.184.045.37.076.561.076.837 0 1.598-.413 2.037-1.104.335-.527.44-1.15.297-1.755-.087-.367-.269-.693-.511-.974.189-.068.363-.183.477-.364.113-.178.141-.378.121-.57.184.043.371.076.563.076.836 0 1.598-.414 2.038-1.106.336-.525.44-1.147.297-1.751-.088-.369-.271-.696-.516-.976 0 0 .001 0 .002-.001.481-.114.848-.527.848-1.044 0-.15-.031-.292-.086-.423.988.314 2.114.104 2.901-.656.921-.894 1.067-2.239.462-3.288.104.014.205.045.313.045.795 0 1.537-.383 1.985-1.024.358-.515.489-1.135.369-1.746-.073-.368-.24-.701-.472-.989.193-.061.373-.168.495-.343.045-.065.063-.138.089-.208.445.438 1.047.7 1.696.7.466 0 .921-.131 1.313-.38.54-.345.907-.875 1.035-1.493.074-.363.049-.726-.049-1.073.203.017.413-.016.598-.133.281-.18.414-.481.409-.785.372.231.814.366 1.29.366l.102-.002c.649-.027 1.246-.301 1.68-.773.252-.272.42-.596.518-.94.166.115.363.191.582.183.087-.004.163-.034.241-.058-.037.055-.081.103-.114.161-.305.544-.375 1.171-.197 1.766.18.605.594 1.104 1.164 1.402.348.183.739.28 1.133.28.595 0 1.146-.226 1.576-.597.16.406.551.695 1.014.695.097 0 .184-.031.272-.055-1.018 1.08-.994 2.747.085 3.791.586.567 1.363.828 2.131.797-.104.179-.193.368-.246.572-.158.601-.066 1.225.256 1.759.43.709 1.221 1.148 2.065 1.148.173 0 .343-.03.51-.065-.024.193-.002.394.108.575.025.043.066.069.099.106-.02-.003-.037-.011-.056-.013-1.325-.173-2.518.744-2.691 1.995-.085.606.074 1.211.447 1.701.234.309.541.54.886.701-.121.115-.207.257-.25.423m1.1-1.183c-.382-.051-.717-.243-.943-.54-.213-.279-.305-.622-.256-.966.092-.662.688-1.162 1.385-1.162.063 0 .129.004.193.013.379.05.712.24.938.536.215.28.306.625.258.97-.1.722-.813 1.251-1.575 1.149"/><path d="m17.954 40.452c-1.115 1.074-1.114 2.816-.001 3.893 1.111 1.075 2.912 1.076 4.025.001 1.111-1.076 1.111-2.822 0-3.894-1.111-1.076-2.915-1.076-4.024 0"/><path d="m16.309 45.819c-.165-.159.218-1.088-.393-1.678-.601-.582-1.647-.438-2.23.357-.206.283-.495.912-.603 1.23-.19.57-.368 1.722-.333 2.528-.146-.035-.29-.073-.458-.073-.841 0-1.85.438-2.265.845l-.358.353.377.372c-1.676 1.12-5.625 3.842-7.937 6.117-.146.144-.146.374 0 .518.145.142.38.142.525 0 1.585-1.56 4.021-3.378 5.898-4.7-2.243 1.885-5.218 4.399-5.711 4.883-.145.144-.145.375 0 .518.145.145.38.145.525 0 .411-.403 2.71-2.354 4.774-4.091-1.824 1.758-3.871 3.703-4.558 4.247-.16.129-.185.358-.056.518.009.008.017.02.026.027.133.13.347.145.496.027.65-.518 2.419-2.189 4.115-3.818-1.707 1.85-3.343 3.568-3.856 3.938-.166.121-.201.351-.08.511.012.016.024.03.038.043.127.125.333.145.482.035.576-.417 2.31-2.242 3.961-4.033-1.565 1.914-3.097 3.701-3.695 4.15-.163.121-.194.35-.069.512.009.014.021.025.032.037.13.127.338.145.488.031.915-.688 3.572-3.937 5.353-6.168-1.26 1.855-3.215 4.437-5.128 6.32-.146.143-.146.374 0 .517.145.144.38.144.525 0 2.445-2.406 5.059-6.045 6.152-7.872l.273.27.35-.345c.416-.411.861-1.407.861-2.239 0-.164-.039-.303-.073-.443.834.039 2.048-.135 2.643-.32.328-.105.981-.387 1.27-.584.823-.565.967-1.581.368-2.162-.527-.512-1.576-.229-1.729-.378m-3.692 4.806c-.018-.006-.036-.004-.055-.009-.017-.086-.061-.166-.137-.225-.046-.035-.099-.055-.153-.064-.015-.08-.049-.153-.117-.205-.052-.045-.114-.067-.177-.078-.014-.072-.041-.137-.095-.191s-.124-.082-.194-.095c-.011-.06-.032-.12-.075-.169-.056-.067-.131-.102-.209-.117-.006-.032-.023-.063-.039-.093.507-.185 1.172-.27 1.357-.088.074.073.115.22.115.415-.001.295-.101.627-.221.919"/></svg>