<svg xmlns="http://www.w3.org/2000/svg" viewBox="0 0 64 64" enable-background="new 0 0 64 64"><path d="m32 2c-16.568 0-30 13.432-30 30 0 16.569 13.432 30 30 30s30-13.432 30-30c0-16.568-13.432-30-30-30m24 30c0 5.545-1.887 10.649-5.045 14.713l-9.346-9.346v-18.592c0-2.087-1.721-3.778-3.844-3.778h-11.532c-1.924 0-3.504 1.394-3.785 3.208l-5.161-5.16c4.065-3.159 9.167-5.045 14.713-5.045 13.254 0 24 10.745 24 24m-31.688 10.959v-14.405l14.403 14.405h-14.403m8.84 3.01c0 .625-.515 1.133-1.152 1.133-.637 0-1.153-.508-1.153-1.133s.517-1.133 1.153-1.133c.637 0 1.152.508 1.152 1.133m-8.84-25.9v-1.294h15.376v16.67l-15.376-15.376m5.327-3.22c0-.261.215-.473.48-.473h3.76c.266 0 .482.212.482.473s-.217.473-.482.473h-3.76c-.265-.001-.48-.213-.48-.473m-21.639 15.151c0-5.546 1.886-10.648 5.045-14.712l9.344 9.345v18.592c0 2.088 1.721 3.779 3.844 3.779h11.532c1.924 0 3.504-1.395 3.785-3.209l5.16 5.16c-4.062 3.158-9.165 5.045-14.71 5.045-13.255 0-24-10.744-24-24"/></svg>