<svg xmlns="http://www.w3.org/2000/svg" viewBox="0 0 64 64" enable-background="new 0 0 64 64"><path d="m62 21.148c0-7.756-6.288-14.042-14.042-14.042-5.888 0-10.922 3.628-13.009 8.767-1.302-7.867-8.117-13.873-16.354-13.873-9.164 0-16.595 7.431-16.595 16.595 0 8.87 6.963 16.093 15.717 16.552-.249.395-.399.85-.399 1.321v8.296l-8.936-4.467v19.15l9.021-4.511c.28 1.077 1.28 1.956 2.469 1.956h7.659v5.108h11.49v-5.107h6.383c1.4 0 2.553-1.221 2.553-2.552v-11.49l6.383 1.276v-8.936l-6.383 1.276c0-.462-.146-.906-.385-1.296.129.004.254.02.385.02 7.755 0 14.043-6.287 14.043-14.043m-2.63 2.045c0 1.777-1.442 3.219-3.219 3.219-1.777 0-3.219-1.442-3.219-3.219 0-1.777 1.441-3.217 3.219-3.217 1.777.001 3.219 1.441 3.219 3.217m-6.437-12.365c1.779 0 3.219 1.44 3.219 3.218 0 1.777-1.439 3.217-3.219 3.217-1.777 0-3.217-1.44-3.217-3.217 0-1.778 1.439-3.218 3.217-3.218m-2.097 10.807c0 .444-.36.805-.806.805s-.804-.361-.804-.805.358-.805.804-.805.806.361.806.805m-1.609-3.092c.444 0 .804.361.804.804 0 .445-.359.806-.804.806s-.804-.361-.804-.806c0-.443.359-.804.804-.804m-1.244 3.897c.441 0 .804.361.804.804 0 .445-.362.805-.804.805-.445 0-.806-.36-.806-.805.001-.443.361-.804.806-.804m-.439-3.092c0 .445-.363.806-.806.806-.443 0-.802-.361-.802-.806 0-.443.358-.804.802-.804.443-.001.806.36.806.804m-.806 2.287c0 .444-.36.805-.802.805-.445 0-.807-.361-.807-.805s.361-.805.807-.805c.442.001.802.361.802.805m-22.262-15.237c2.1 0 3.804 1.703 3.804 3.803 0 2.101-1.704 3.803-3.804 3.803-2.102 0-3.803-1.703-3.803-3.803 0-2.1 1.701-3.803 3.803-3.803m-2.479 12.773c0 .524-.427.95-.952.95s-.95-.426-.95-.95c0-.525.425-.951.95-.951s.952.426.952.951m-1.902-3.654c.523 0 .95.425.95.952 0 .524-.427.95-.95.95-.525 0-.951-.426-.951-.95 0-.528.425-.952.951-.952m-1.469 4.604c.523 0 .948.427.948.951s-.425.95-.948.95c-.525 0-.952-.426-.952-.95s.427-.951.952-.951m-.52-3.653c0 .524-.427.95-.95.95-.527 0-.952-.426-.952-.95 0-.527.425-.952.952-.952.523.001.95.425.95.952m-.95 2.703c0 .524-.427.95-.952.95-.526 0-.951-.426-.951-.95 0-.525.425-.951.951-.951.525 0 .952.426.952.951m-8.244 5.644c-2.1 0-3.803-1.703-3.803-3.802 0-2.1 1.703-3.803 3.803-3.803 2.101 0 3.803 1.703 3.803 3.803 0 2.099-1.702 3.802-3.803 3.802m0-14.614c0-2.1 1.703-3.803 3.803-3.803s3.803 1.703 3.803 3.803c0 2.101-1.703 3.803-3.803 3.803s-3.803-1.702-3.803-3.803m9.683 22.22c-2.098 0-3.803-1.702-3.803-3.803s1.705-3.803 3.803-3.803c2.102 0 3.803 1.703 3.803 3.803s-1.702 3.803-3.803 3.803m9.684-15.212c2.099 0 3.804 1.703 3.804 3.803 0 2.1-1.705 3.802-3.804 3.802-2.103 0-3.804-1.703-3.804-3.802.001-2.099 1.702-3.803 3.804-3.803m-3.298 16.705c4.313-1.801 7.689-5.375 9.252-9.806.941 4.377 3.922 7.987 7.898 9.806h-17.15m14.783-7.501c-1.776 0-3.218-1.442-3.218-3.219 0-1.777 1.441-3.217 3.218-3.217 1.778 0 3.219 1.44 3.219 3.217-.001 1.777-1.441 3.219-3.219 3.219m0-12.368c0-1.778 1.439-3.218 3.219-3.218 1.778 0 3.218 1.44 3.218 3.218 0 1.777-1.439 3.217-3.218 3.217-1.78.001-3.219-1.439-3.219-3.217m4.975 15.585c0-1.777 1.44-3.217 3.219-3.217 1.777 0 3.219 1.44 3.219 3.217 0 1.776-1.441 3.219-3.219 3.219-1.778 0-3.219-1.443-3.219-3.219"/></svg>