<svg xmlns="http://www.w3.org/2000/svg" viewBox="0 0 64 64" enable-background="new 0 0 64 64"><ellipse cx="26.518" cy="45.689" rx="1.702" ry="1.752"/><path d="m42.873 22.51c-.996.133-1.875.812-1.875 1.508 0 .695.879 1.048 1.875.808.912-.22 1.595-.864 1.595-1.456 0-.591-.683-.981-1.595-.86"/><path d="m42.748 21.798c.912-.222 1.596-.866 1.596-1.456 0-.592-.684-.98-1.596-.859-.996.132-1.873.813-1.873 1.506 0 .695.877 1.047 1.873.809"/><path d="m57.162 27.302h-6.035v-6.652c0-9.377-9.135-11.65-17.99-11.649-8.326 0-16.408 2.01-16.408 2.01l.003.009c-1.127.237-2.223.608-3.254 1.123-3.792 1.075-5.997 3.084-5.997 3.084 0 .005 0 .012 0 .016-3.316 2.478-5.481 6.49-5.481 11.03 0 4.06 1.732 7.694 4.466 10.191v15.032c0 .776.938 1.752 1.701 1.752h3.403v.898c0 .472.371.853.827.853h14.51c.455 0 .826-.381.826-.853v-.898h3.403c.12 0 .244-.031.368-.074l6.69-1.354h18.968c6.45 0 6.45-24.518 0-24.518m-53.287-1.029c0-6.456 5.103-11.709 11.375-11.709 6.271 0 11.373 5.253 11.373 11.709 0 6.457-5.102 11.707-11.373 11.707-6.272 0-11.375-5.25-11.375-11.707m27.087 25.01c-.011.013-.022.024-.035.035h-22.552c-.012-.011-.023-.022-.035-.035v-13.39c2.013 1.272 4.374 2.017 6.909 2.017.138 0 .272-.016.41-.021.075.005.144.021.22.021 8.3 0 13.531-4.987 15.083-10.981v22.354m5.517-23.154v.045l-.014.004.014.005v3.497c0-.439-.343-.796-.767-.796h-1.021c-.421 0-.764.356-.764.796v15.843c0 .439.343.796.764.796h1.021c.424 0 .767-.356.767-.796v2.677l-3.643.737v-26.585c0-6.823-3.709-11.088-8.345-12.794 2.582-.349 5.602-.627 8.645-.627 9.338 0 14.656 2.494 15.854 7.421-.228-.16-.481-.264-.758-.286-1.211-.099-2.336 1.289-2.336 3.113 0 1.825 1.125 2.984 2.336 2.64.389-.111.736-.368 1.02-.719v1.395l-9.744 2.808h-2.191c-.463-.001-.838.369-.838.826m21.267 21.939h-19.564v-21.015h19.564v21.015"/><path d="m15.25 36.124c5.284 0 9.567-4.413 9.567-9.853s-4.283-9.848-9.567-9.848c-5.286 0-9.568 4.408-9.568 9.848s4.281 9.853 9.568 9.853m4.074-17.107c1.637 0 2.962 1.368 2.962 3.053 0 1.683-1.325 3.051-2.962 3.051s-2.965-1.368-2.965-3.051c0-1.685 1.328-3.053 2.965-3.053m-5.917 7.256c1.017 0 1.84.849 1.84 1.892 0 1.048-.824 1.896-1.84 1.896-1.016 0-1.84-.849-1.84-1.896 0-1.043.824-1.892 1.84-1.892m-3.31 4.13c.628 0 1.139.525 1.139 1.174 0 .647-.511 1.173-1.139 1.173-.63 0-1.14-.525-1.14-1.173 0-.648.51-1.174 1.14-1.174"/></svg>