<svg xmlns="http://www.w3.org/2000/svg" viewBox="0 0 64 64" enable-background="new 0 0 64 64"><path d="m32.001 2c-16.568 0-30.001 13.432-30.001 30-.002 16.568 13.433 30 30 30 16.571 0 30.002-13.432 30-30 .002-16.568-13.432-30-29.999-30m-21.163 40.688c-.298-3.549-.135-7.139-.111-10.691-.023-3.553-.16-7.135.111-10.684 1.518 3.457 1.897 7.104 1.967 10.693-.047 3.582-.45 7.234-1.967 10.682m3.809 5.343c.014-5.244.326-10.488.351-15.734.025-5.443-.319-10.883-.351-16.328 1.84 5.246 2.343 10.66 2.431 16.037-.089 5.373-.585 10.783-2.431 16.025m28.093-1.254c0 2.332-1.924 4.223-4.297 4.223h-12.885c-2.373 0-4.297-1.891-4.297-4.223v-29.554c0-2.332 1.924-4.223 4.297-4.223h12.886c2.373 0 4.297 1.891 4.297 4.223v29.554zm6.614 1.254c-1.84-5.246-2.342-10.66-2.43-16.035.088-5.375.584-10.785 2.43-16.027-.014 5.246-.326 10.49-.35 15.734-.025 5.445.318 10.885.35 16.328m3.81-5.343c-1.518-3.457-1.898-7.104-1.967-10.691.047-3.584.449-7.236 1.967-10.684.297 3.549.135 7.139.111 10.693.024 3.551.161 7.133-.111 10.682"/><ellipse cx="32" cy="47.607" rx="1.289" ry="1.266"/><path d="m23.409 17.223h17.183v27.021h-17.183z"/><path d="m29.898 15.598h4.203c.297 0 .537-.238.537-.529s-.24-.527-.537-.527h-4.203c-.297 0-.537.236-.537.527s.241.529.537.529"/></svg>