<svg xmlns="http://www.w3.org/2000/svg" viewBox="0 0 64 64" enable-background="new 0 0 64 64"><path d="m44.97 2h-25.94c-2.015 0-4.03 1.936-4.029 3.871l-.001 52.258c0 1.935 2.015 3.871 4.03 3.871h25.94c2.016 0 4.03-1.936 4.03-3.871v-52.258c0-1.935-2.015-3.871-4.03-3.871m-2.11 3.281c.521 0 .945.419.945.938 0 .517-.424.938-.945.938s-.943-.421-.943-.938c0-.518.422-.938.943-.938m-13.411.502h5.102c.157 0 .282.208.282.467 0 .26-.125.471-.282.471h-5.102c-.155 0-.282-.211-.282-.471 0-.258.127-.467.282-.467m6.093 52.701c0 .389-.317.703-.709.703h-5.666c-.392 0-.709-.314-.709-.703v-1.406c0-.389.317-.703.709-.703h5.666c.392 0 .709.314.709.703v1.406m10.625-3.984h-28.334v-45h28.333v45z"/><path d="m20.593 16.531h3.125c.433 0 .782-.35.782-.78v-3.125c0-.432-.35-.782-.782-.782h-3.125c-.431 0-.78.35-.78.782v3.125c0 .431.349.78.78.78"/><path d="m27.155 16.531h3.125c.433 0 .782-.35.782-.78v-3.125c0-.432-.35-.782-.782-.782h-3.125c-.431 0-.78.35-.78.782v3.125c0 .431.35.78.78.78"/><path d="m33.718 16.531h3.125c.433 0 .782-.35.782-.78v-3.125c0-.432-.35-.782-.782-.782h-3.125c-.431 0-.78.35-.78.782v3.125c0 .431.349.78.78.78"/><path d="m40.28 16.531h3.125c.433 0 .782-.35.782-.78v-3.125c0-.432-.35-.782-.782-.782h-3.125c-.431 0-.78.35-.78.782v3.125c0 .431.35.78.78.78"/><path d="m20.593 52.625h3.125c.433 0 .782-.35.782-.78v-3.126c0-.432-.35-.781-.782-.781h-3.125c-.431 0-.78.35-.78.781v3.126c0 .43.349.78.78.78"/><path d="m27.155 52.625h3.125c.433 0 .782-.35.782-.78v-3.126c0-.432-.35-.781-.782-.781h-3.125c-.431 0-.78.35-.78.781v3.126c0 .43.35.78.78.78"/><path d="m33.718 52.625h3.125c.433 0 .782-.35.782-.78v-3.126c0-.432-.35-.781-.782-.781h-3.125c-.431 0-.78.35-.78.781v3.126c0 .43.349.78.78.78"/><path d="m40.28 52.625h3.125c.433 0 .782-.35.782-.78v-3.126c0-.432-.35-.781-.782-.781h-3.125c-.431 0-.78.35-.78.781v3.126c0 .43.35.78.78.78"/><path d="m20.593 34.578h3.125c.433 0 .782-.35.782-.78v-3.126c0-.432-.35-.781-.782-.781h-3.125c-.431 0-.78.35-.78.781v3.126c0 .431.349.78.78.78"/><path d="m27.155 34.578h3.125c.433 0 .782-.35.782-.78v-3.126c0-.432-.35-.781-.782-.781h-3.125c-.431 0-.78.35-.78.781v3.126c0 .431.35.78.78.78"/><path d="m33.718 34.578h3.125c.433 0 .782-.35.782-.78v-3.126c0-.432-.35-.781-.782-.781h-3.125c-.431 0-.78.35-.78.781v3.126c0 .431.349.78.78.78"/><path d="m20.593 28.563h3.125c.433 0 .782-.35.782-.781v-3.124c0-.432-.35-.782-.782-.782h-3.125c-.431 0-.78.35-.78.782v3.124c0 .431.349.781.78.781"/><path d="m27.155 28.563h3.125c.433 0 .782-.35.782-.781v-3.124c0-.432-.35-.782-.782-.782h-3.125c-.431 0-.78.35-.78.782v3.124c0 .431.35.781.78.781"/><path d="m33.718 28.563h3.125c.433 0 .782-.35.782-.781v-3.124c0-.432-.35-.782-.782-.782h-3.125c-.431 0-.78.35-.78.782v3.124c0 .431.349.781.78.781"/><path d="m40.28 28.563h3.125c.433 0 .782-.35.782-.781v-3.124c0-.432-.35-.782-.782-.782h-3.125c-.431 0-.78.35-.78.782v3.124c0 .431.35.781.78.781"/><path d="m20.593 22.548h3.125c.433 0 .782-.35.782-.782v-3.125c0-.43-.35-.78-.782-.78h-3.125c-.431 0-.78.35-.78.78v3.125c0 .432.349.782.78.782"/><path d="m27.155 22.548h3.125c.433 0 .782-.35.782-.782v-3.125c0-.43-.35-.78-.782-.78h-3.125c-.431 0-.78.35-.78.78v3.125c0 .432.35.782.78.782"/><path d="m33.718 22.548h3.125c.433 0 .782-.35.782-.782v-3.125c0-.43-.35-.78-.782-.78h-3.125c-.431 0-.78.35-.78.78v3.125c0 .432.349.782.78.782"/><path d="m40.28 22.548h3.125c.433 0 .782-.35.782-.782v-3.125c0-.43-.35-.78-.782-.78h-3.125c-.431 0-.78.35-.78.78v3.125c0 .432.35.782.78.782"/></svg>