<svg xmlns="http://www.w3.org/2000/svg" viewBox="0 0 64 64" enable-background="new 0 0 64 64"><path d="m62 23v-9h-60v9c0 .549.45 1 1 1h-1v24.01c0 1.094.9 1.99 2 1.99h56c1.1 0 2-.896 2-1.99v-24.01h-1c.55 0 1-.451 1-1m-9 19h-42c-2.21 0-4-4.029-4-9s1.79-9 4-9h42c2.21 0 4 4.029 4 9s-1.79 9-4 9"/><path d="m44.656 36.602c.973-.729 1.65-1.828 1.793-3.102h-1c-.131.904-.61 1.691-1.292 2.236l.499.866"/><path d="m45.449 32.5h1c-.143-1.273-.82-2.375-1.793-3.102l-.499.865c.682.544 1.161 1.331 1.292 2.237"/><path d="m18.551 33.5h-1c.143 1.273.82 2.373 1.793 3.102l.499-.865c-.682-.546-1.161-1.333-1.292-2.237"/><path d="m19.344 29.398c-.973.727-1.65 1.828-1.793 3.102h1c.131-.906.61-1.693 1.292-2.236l-.499-.866"/><path d="M11,33c0,2.658,0.943,5.098,2.515,7H22v-2c-2.762,0-5-2.238-5-5s2.238-5,5-5v-2h-8.485C11.943,27.902,11,30.34,11,33z"/><path d="m38 26h-12c-1.1 0-2 .9-2 2v1 1 8c0 1.1.9 2 2 2h12c1.1 0 2-.9 2-2v-8-1-1c0-1.1-.9-2-2-2m1 12c0 .552-.448 1-1 1h-12c-.552 0-1-.448-1-1v-8h14v8"/><path d="m26 32h12v2h-12z"/><path d="m26 36h12v2h-12z"/><path d="m20 33c0 1.104.896 2 2 2v-4c-1.104 0-2 .895-2 2"/><path d="m44 33c0-1.105-.896-2-2-2v4c1.104 0 2-.896 2-2"/><path d="m20.703 29.754c.401-.162.837-.254 1.297-.254v-1c-.643 0-1.245.146-1.796.389l.499.865"/><path d="m20.204 37.109c.551.245 1.153.391 1.796.391v-1c-.46 0-.896-.094-1.297-.254l-.499.863"/><path d="m43.796 28.889c-.551-.243-1.153-.389-1.796-.389v1c.46 0 .896.092 1.297.254l.499-.865"/><path d="m43.297 36.246c-.401.16-.837.254-1.297.254v1c.643 0 1.245-.146 1.796-.391l-.499-.863"/><path d="m48.721 31.057c-.843-2.92-3.529-5.057-6.721-5.057v2c2.762 0 5 2.238 5 5s-2.238 5-5 5v2c3.173 0 5.848-2.111 6.708-5.004l.002.004 2.306-9h-1.031l-1.264 5.057"/></svg>