<svg xmlns="http://www.w3.org/2000/svg" viewBox="0 0 64 64" enable-background="new 0 0 64 64"><path d="m29 51.098h6v6.902h-6z"/><path d="m29 6h6v6.902h-6z"/><path d="m51.098 29.001h6.902v6h-6.902z"/><path d="m6 29.001h6.902v6h-6.902z"/><path transform="matrix(-.7071-.7071.7071-.7071-6.493 93.1992)" d="m13.056 44.493h5.999v6.903h-5.999z"/><path transform="matrix(.7071.7071-.7071.7071 25.3953-29.1993)" d="m44.945 12.604h5.999v6.902h-5.999z"/><path transform="matrix(-.7072-.707.707-.7072 47.9508 115.7487)" d="m44.493 44.945h6.902v5.999h-6.902z"/><path transform="matrix(.7071.7071-.7071.7071 16.0557-6.6505)" d="m12.604 13.056h6.903v5.999h-6.903z"/><path d="m32 17c-8.285 0-15 6.716-15 15s6.715 15 15 15c8.283 0 15-6.716 15-15s-6.717-15-15-15m0 25c-5.523 0-10-4.478-10-10s4.477-10 10-10c5.521 0 10 4.478 10 10s-4.479 10-10 10"/></svg>