<svg xmlns="http://www.w3.org/2000/svg" viewBox="0 0 64 64" enable-background="new 0 0 64 64"><path d="m29 50.54h6v11.46h-6z"/><path d="m29 2h6v11.46h-6z"/><path d="m50.539 29h11.461v6h-11.461z"/><path d="m2 29h11.461v6h-11.461z"/><path transform="matrix(-.707-.7072.7072-.707-9.4362 94.414)" d="m11.839 43.432h6v11.46h-6z"/><path transform="matrix(.707.7072-.7072.707 24.8965-30.4189)" d="m46.161 9.108h6v11.46h-6z"/><path transform="matrix(-.7071-.7071.7071-.7071 49.1569 118.6855)" d="m43.431 46.161h11.461v6h-11.461z"/><path transform="matrix(-.7071-.7071.7071-.7071 14.8376 35.8242)" d="m9.108 11.839h11.461v6h-11.461z"/><path d="m32 17c-8.284 0-15 6.716-15 15s6.716 15 15 15 15-6.716 15-15-6.716-15-15-15m0 25c-5.522 0-10-4.478-10-10s4.478-10 10-10 10 4.478 10 10-4.478 10-10 10"/></svg>