<svg xmlns="http://www.w3.org/2000/svg" viewBox="0 0 64 64" enable-background="new 0 0 64 64"><path d="m60.985 21.325c-.652-1.491-1.582-2.829-2.767-3.979-1.188-1.147-2.565-2.051-4.104-2.681-1.594-.653-3.285-.984-5.026-.984-1.743 0-3.435.331-5.026.984-1.538.63-2.919 1.533-4.104 2.681-1.187 1.15-2.117 2.488-2.767 3.979-.674 1.543-1.017 3.184-1.017 4.872v23.285c0 4.93-4.135 8.941-9.221 8.941-5.085 0-9.223-4.012-9.223-8.941v-10.729h2.914c.613 0 1.108-.479 1.108-1.073v-3.972c3.188-1.909 5.312-5.328 5.312-9.227v-4.508h1.605c.61 0 1.106-.479 1.106-1.073v-4.184c0-.496-.346-.914-.816-1.036h-6.487v-10.607c.003-.592-.493-1.073-1.105-1.073h-1.475c-.613 0-1.107.481-1.107 1.073v10.607h-5.792v-10.607c0-.592-.496-1.073-1.107-1.073h-1.476c-.61 0-1.106.481-1.106 1.073v10.607h-6.486c-.472.123-.818.541-.818 1.037v4.183c0 .594.496 1.073 1.105 1.073h1.606v4.508c0 3.9 2.122 7.317 5.312 9.227v3.972c0 .594.494 1.073 1.105 1.073h2.915v10.729c0 1.69.343 3.329 1.015 4.873.652 1.492 1.582 2.831 2.767 3.979 1.187 1.15 2.565 2.051 4.104 2.683 1.592.653 3.285.983 5.026.983s3.436-.33 5.026-.983c1.538-.632 2.919-1.532 4.103-2.683 1.188-1.147 2.117-2.486 2.768-3.979.674-1.544 1.016-3.183 1.016-4.873v-23.285c0-4.929 4.135-8.941 9.222-8.941 5.085 0 9.223 4.013 9.223 8.941v35.803h3.687v-35.803c0-1.688-.343-3.329-1.015-4.872"/></svg>