<svg xmlns="http://www.w3.org/2000/svg" viewBox="0 0 64 64" enable-background="new 0 0 64 64"><path d="m48 6h-6v-2c0-1.1-.9-2-2-2h-16c-1.1 0-2 .9-2 2v2h-6c-2.201 0-4 1.799-4 4v48c0 2.199 1.799 4 4 4h32c2.199 0 4-1.801 4-4v-48c0-2.201-1.801-4-4-4m1 48c0 .541-.459 1-1 1h-32c-.543 0-1-.459-1-1v-40c0-.543.457-1 1-1h32c.541 0 1 .457 1 1v40"/><path d="m44 17h-24c-1.1 0-2 .9-2 2v4c0 1.1.9 2 2 2h24c1.1 0 2-.9 2-2v-4c0-1.1-.9-2-2-2"/><path d="m44 30h-24c-1.1 0-2 .9-2 2v4c0 1.1.9 2 2 2h24c1.1 0 2-.9 2-2v-4c0-1.1-.9-2-2-2"/><path d="m44 43h-24c-1.1 0-2 .9-2 2v4c0 1.1.9 2 2 2h24c1.1 0 2-.9 2-2v-4c0-1.1-.9-2-2-2"/></svg>