<svg xmlns="http://www.w3.org/2000/svg" viewBox="0 0 64 64" enable-background="new 0 0 64 64"><path d="m53.212 10.786c-11.715-11.715-30.711-11.715-42.426 0s-11.715 30.711 0 42.426c11.715 11.717 30.711 11.717 42.426 0 11.717-11.715 11.717-30.711 0-42.426m-26.025 31.213c-.004 0-.01 0-.014 0h-12.174v-5.045h12.098c.188-.033.699-.219 1.035-1.273l.24-.68 1.039 2.945c.33 1.021.785 1.902 1.32 2.658-1.236 1.045-2.625 1.395-3.544 1.395m15.433 4v-3.928h-5.592c-.004 0-.01 0-.016 0-1.563 0-4.49-.998-5.697-4.74l-1.572-4.449-1.611-4.564c-.336-1.055-.848-1.24-1.035-1.273h-12.098v-5.045h12.174c.004 0 .01 0 .014 0 1.564 0 4.49.998 5.699 4.74l1.572 4.449 1.611 4.564c.334 1.053.846 1.24 1.035 1.273h5.516v-3.889l6.379 6.432-6.379 6.43m0-15.139v-3.887h-5.516c-.189.033-.701.221-1.035 1.273l-.266.752-1.016-2.873c-.342-1.063-.816-1.977-1.377-2.752 1.25-1.084 2.668-1.445 3.602-1.445.006 0 .012 0 .016 0h5.592v-3.93l6.379 6.432-6.379 6.43"/></svg>