<svg xmlns="http://www.w3.org/2000/svg" viewBox="0 0 64 64" enable-background="new 0 0 64 64"><path d="m55.217 8.782c-9.044-9.043-23.708-9.043-32.752 0-8.4 8.402-8.985 21.645-1.779 30.735l-1.893 1.893-1.572-1.572-12.845 12.844c-.754-.479-1.335-.684-1.572-.445l-.703.701c-1.143 1.143 7.818 10.106 8.961 8.962l.703-.702c.238-.237.031-.819-.446-1.575l12.844-12.843-1.573-1.572 1.894-1.892c9.091 7.207 22.331 6.621 30.734-1.78 9.042-9.045 9.044-23.708-.001-32.754m-2.729 30.024c-7.538 7.536-19.757 7.538-27.293 0-7.537-7.535-7.537-19.758 0-27.293 7.534-7.537 19.757-7.537 27.293 0s7.534 19.756 0 27.293"/><path d="m55.317 23.902c-.812 2.142-2.063 4.154-3.789 5.879-6.513 6.514-17.076 6.514-23.592-.003-2.862-2.86-4.465-6.505-4.813-10.243-2.256 5.949-1 12.926 3.79 17.716 6.515 6.515 17.078 6.515 23.593 0 3.654-3.651 5.255-8.577 4.811-13.349"/></svg>