<svg xmlns="http://www.w3.org/2000/svg" viewBox="0 0 64 64" enable-background="new 0 0 64 64"><path d="m32 2c-16.568 0-30 13.432-30 30 0 16.566 13.432 30 30 30s30-13.434 30-30c0-16.568-13.432-30-30-30m24 30c0 5.546-1.887 10.648-5.046 14.712l-9.479-9.48v-1.347c2.309 0 4.18-1.738 4.18-3.885 0-2.148-1.871-3.887-4.18-3.887v-7.236-6.998c0-.486-.424-.879-.945-.879-.523 0-.945.393-.945.879v.455l-12.333 8.674-9.963-9.964c4.063-3.158 9.165-5.044 14.711-5.044 13.254 0 24 10.744 24 24m-48 0c0-5.547 1.886-10.648 5.045-14.713l6.994 6.994h-.77c-1.248 0-2.26.939-2.26 2.1v2.082 7.074 2.08c0 1.16 1.012 2.102 2.26 2.102h6.17l14.145 9.947v.455c0 .484.422.879.945.879.521 0 .945-.395.945-.879v-4.404l5.237 5.237c-4.063 3.159-9.165 5.046-14.711 5.046-13.256 0-24-10.746-24-24"/></svg>