<svg xmlns="http://www.w3.org/2000/svg" viewBox="0 0 64 64" enable-background="new 0 0 64 64"><path d="m21.039 34.938c-2.604 0-4.717 2.166-4.717 4.84 0 2.672 2.113 4.84 4.717 4.84 2.605 0 4.715-2.168 4.715-4.84 0-2.674-2.109-4.84-4.715-4.84m.746 7.804h-1.1v-4.27c-.402.387-.875.674-1.422.859v-1.029c.289-.098.6-.279.936-.549.338-.27.568-.584.693-.941h.893v5.93"/><path d="m32 2c-16.568 0-30 13.432-30 30s13.432 30 30 30 30-13.432 30-30-13.432-30-30-30m-14.947 21.951c1.969-2.02 4.586-3.133 7.369-3.133h11.539v-3.818l11.369 6.736-11.369 6.734v-3.82h-11.539c-2.611 0-4.736 2.18-4.736 4.861 0 .043 0 .088.002.129-.609.105-1.205.283-1.779.533-.957.416-1.816 1.01-2.555 1.768-.299.305-.57.631-.814.977-.354-1.084-.54-2.23-.54-3.406 0-2.856 1.084-5.541 3.053-7.561m29.896 15.123c-1.969 2.02-4.586 3.131-7.371 3.131h-11.908c-.973 2.797-3.572 4.795-6.631 4.795-3.887 0-7.039-3.234-7.039-7.223s3.152-7.223 7.039-7.223c2.689 0 5.025 1.545 6.211 3.818h12.328c2.613 0 4.738-2.18 4.738-4.861 0-.125-.006-.25-.014-.371l5.154-3.053c.358 1.089.544 2.243.544 3.425 0 2.855-1.084 5.543-3.051 7.562"/></svg>