<svg xmlns="http://www.w3.org/2000/svg" viewBox="0 0 64 64" enable-background="new 0 0 64 64"><path d="m39.5 61.077l-6.383-8.703c-.257.013-.515.021-.776.021-5.604 0-10.163-3.589-10.163-8.002v-19.435h7.984l-14.081-19.208-14.081 19.208h7.981v19.435c0 4.704 2.327 9.122 6.55 12.449 4.225 3.327 9.838 5.158 15.81 5.158 2.472 0 4.882-.313 7.159-.923"/><path d="m31.691 11.597c5.597 0 10.152 3.583 10.152 7.99v19.478h-7.975l14.067 19.185 14.065-19.186h-7.975v-19.477c0-4.698-2.323-9.112-6.541-12.435-4.22-3.321-9.828-5.152-15.793-5.152-2.483 0-4.904.32-7.191.932l6.371 8.687c.272-.015.545-.022.82-.022"/></svg>