<svg xmlns="http://www.w3.org/2000/svg" viewBox="0 0 64 64" enable-background="new 0 0 64 64"><path d="m36.121 39.678c0-2.302-1.847-4.168-4.123-4.168-2.275 0-4.119 1.866-4.119 4.168 0 1.379.665 2.6 1.685 3.357l-1.727 11.146h8.326l-1.729-11.146c1.022-.758 1.687-1.978 1.687-3.357"/><path d="m57.911 20.704v-.021h-15.666v-.819h-22.443c1.685-4.48 5.826-8.771 12.198-8.771 3.973 0 7.078 1.668 9.263 4.01.501 2.424.983 3.483.983 3.483h15.665c0 0 2.089-4.521 2.089-16.586h-19.842c0 .558.009 1.082.018 1.608-2.532-1.026-5.285-1.608-8.176-1.608-10.66 0-19.578 7.687-21.617 17.864h-1.61c-2.631 0-4.773 2.163-4.773 4.823v3.006 1.818 27.665c0 2.66 2.142 4.824 4.773 4.824h46.453c2.632 0 4.774-2.164 4.774-4.824v-27.665-1.818-3.006c0-1.654-.83-3.114-2.089-3.983m-25.911-16.886c2.932 0 5.711.647 8.229 1.786.102 2.667.307 4.872.553 6.654-2.384-1.826-5.363-2.984-8.782-2.984-8.814 0-14.761 7.638-14.859 14.839-.329.229-1.421.566-2.873.566-1.475 0-2.294-.341-2.518-.515.07-11.23 9.127-20.346 20.25-20.346m-26.193 20.869c0-1.657 1.331-3.005 2.967-3.005h1.326c-.048.417-.087.836-.111 1.26-.667.378-1.068.847-1.068 1.356 0 1.257 2.394 2.276 5.346 2.276 2.953 0 5.349-1.02 5.349-2.276 0-.382-.224-.741-.616-1.056.05-.51.146-1.033.268-1.561h22.98l-.001 6.011h-36.44v-3.005m52.386 32.489c0 1.657-1.33 3.006-2.967 3.006h-46.453c-1.636 0-2.967-1.349-2.967-3.006v-27.665h36.438v1.883h2.61l-2.609 10.708c0 0 4.656 3.756 6.791 9.797v-13.23c-.32-.288-.525-.705-.525-1.17.002-.87.702-1.575 1.565-1.575.868.002 1.568.705 1.57 1.575-.002.463-.206.88-.524 1.172v13.226c2.132-6.039 6.788-9.795 6.788-9.795l-2.609-10.708h2.611v-1.883h.28v27.665zm0-29.484h-.281v-4.265c.176.385.281.809.281 1.259v3.006"/></svg>