<svg xmlns="http://www.w3.org/2000/svg" viewBox="0 0 64 64" enable-background="new 0 0 64 64"><path d="m53.214 10.786c-11.715-11.715-30.711-11.715-42.426 0-11.717 11.717-11.717 30.711 0 42.426 11.715 11.717 30.711 11.717 42.426 0 11.715-11.715 11.715-30.709 0-42.426m-39.213 20.762c0-2.865 1.105-5.555 3.114-7.58 2.007-2.025 4.677-3.141 7.518-3.141h11.771v-3.828l11.598 6.752-11.598 6.752v-3.828h-11.771c-2.665 0-4.831 2.186-4.831 4.873 0 .131.004.262.014.393l-5.252 3.059c-.372-1.099-.563-2.261-.563-3.452m32.884 8.476c-2.012 2.025-4.684 3.143-7.526 3.143h-11.749v3.832l-11.609-6.758 11.609-6.758v3.832h11.748c2.668 0 4.838-2.191 4.838-4.879 0-.125-.006-.25-.015-.371l5.265-3.066c.365 1.094.555 2.25.555 3.438 0 2.867-1.107 5.56-3.116 7.587"/></svg>