<svg xmlns="http://www.w3.org/2000/svg" viewBox="0 0 64 64" enable-background="new 0 0 64 64"><path d="m8.783 41.535c8.403 8.401 21.644 8.987 30.734 1.78l1.894 1.892-1.573 1.572 12.844 12.843c-.478.756-.685 1.338-.446 1.575l.703.702c1.143 1.145 10.104-7.819 8.961-8.962l-.703-.701c-.237-.238-.818-.033-1.572.445l-12.846-12.843-1.572 1.572-1.893-1.893c7.206-9.091 6.621-22.333-1.779-30.735-9.044-9.043-23.708-9.043-32.752 0-9.045 9.046-9.043 23.709 0 32.753m2.729-30.022c7.536-7.537 19.759-7.537 27.293 0 7.537 7.535 7.537 19.758 0 27.293-7.536 7.538-19.755 7.536-27.293 0-7.534-7.537-7.536-19.756 0-27.293"/><path d="m8.683 23.902c.812 2.142 2.063 4.154 3.789 5.879 6.513 6.514 17.076 6.514 23.592-.003 2.862-2.86 4.465-6.505 4.813-10.243 2.256 5.949 1 12.926-3.79 17.716-6.515 6.515-17.078 6.515-23.593 0-3.654-3.651-5.255-8.577-4.811-13.349"/></svg>