<svg xmlns="http://www.w3.org/2000/svg" viewBox="0 0 64 64" enable-background="new 0 0 64 64"><path d="m55.227 19.864h-1.611c-2.04-10.177-10.957-17.864-21.616-17.864-10.66 0-19.578 7.687-21.617 17.864h-1.61c-2.631 0-4.773 2.163-4.773 4.823v3.006 1.818 27.665c0 2.66 2.142 4.824 4.773 4.824h46.453c2.632 0 4.774-2.164 4.774-4.824v-27.665-1.818-3.006c0-2.66-2.142-4.823-4.773-4.823m-23.227-16.046c11.122 0 20.178 9.115 20.248 20.347-.224.174-1.042.515-2.514.515-1.453 0-2.544-.336-2.873-.565-.098-7.203-6.046-14.841-14.861-14.841-8.814 0-14.761 7.638-14.859 14.839-.329.229-1.421.566-2.873.566-1.475 0-2.294-.341-2.518-.515.07-11.23 9.127-20.346 20.25-20.346m12.2 16.046h-24.398c1.685-4.48 5.826-8.771 12.198-8.771 6.373 0 10.516 4.291 12.2 8.771m13.993 37.312c0 1.657-1.33 3.006-2.967 3.006h-46.453c-1.636 0-2.967-1.349-2.967-3.006v-27.665h52.387v27.665m-52.386-29.484v-3.006c0-1.657 1.331-3.005 2.967-3.005h1.326c-.048.417-.087.836-.111 1.26-.667.378-1.068.847-1.068 1.356 0 1.257 2.394 2.276 5.346 2.276 2.953 0 5.349-1.02 5.349-2.276 0-.382-.224-.741-.616-1.056.05-.51.146-1.033.268-1.561h25.471c.12.527.218 1.05.268 1.559-.395.316-.617.676-.617 1.058 0 1.257 2.394 2.276 5.346 2.276 2.953 0 5.348-1.02 5.348-2.276 0-.51-.402-.979-1.069-1.358-.026-.423-.064-.841-.112-1.258h1.328c1.637 0 2.967 1.348 2.967 3.005v3.006h-52.391"/><path d="m36.163 54.182l-1.729-11.146c1.021-.758 1.687-1.979 1.687-3.357 0-2.302-1.847-4.168-4.123-4.168-2.275 0-4.119 1.866-4.119 4.168 0 1.379.665 2.6 1.685 3.357l-1.727 11.146h8.326"/></svg>