<svg xmlns="http://www.w3.org/2000/svg" viewBox="0 0 64 64" enable-background="new 0 0 64 64"><path d="m32 2c-16.568 0-30 13.432-30 30s13.432 30 30 30 30-13.432 30-30-13.432-30-30-30m24 30c0 5.547-1.886 10.648-5.045 14.713l-4.607-4.607c1.011-1.324 1.525-2.846 1.525-4.576 0-1.463-.325-2.787-.975-3.973-.65-1.188-1.62-2.141-2.908-2.859 1.259-.72 2.076-1.567 2.454-2.544.377-.977.566-1.891.566-2.741 0-1.894-.715-3.508-2.145-4.845-1.429-1.336-3.446-2.004-6.053-2.004s-4.625.668-6.054 2.004c-1.43 1.337-2.144 2.951-2.144 4.845 0 .343.039.698.101 1.062l-3.211-3.211v-4.295h-4.278c0 .004-.001.011-.002.015l-5.938-5.938c4.066-3.16 9.168-5.046 14.714-5.046 13.255 0 24 10.745 24 24m-20.477-6.013c0-1.03.291-1.836.875-2.418.583-.581 1.39-.872 2.424-.872 1.046 0 1.853.291 2.424.872.57.582.856 1.388.856 2.418 0 .947-.286 1.72-.856 2.318-.571.6-1.378.899-2.424.899-1.034 0-1.841-.3-2.424-.899-.584-.598-.875-1.37-.875-2.318m3.308 7.138c1.15 0 2.064.344 2.741 1.033.678.689 1.016 1.699 1.016 3.029 0 .381-.039.729-.098 1.061l-4.937-4.937c.391-.114.809-.186 1.278-.186m-30.831-1.125c0-5.546 1.886-10.648 5.045-14.713l6.035 6.035c-.672.105-1.646.189-2.953.247v3.487h6.131v17.977h5.248v-13.284l2.785 2.785c-.356.924-.538 1.922-.538 2.995 0 2.193.749 4.059 2.25 5.6 1.498 1.539 3.706 2.309 6.622 2.309.845 0 1.63-.072 2.366-.202l5.721 5.721c-4.065 3.157-9.166 5.043-14.712 5.043-13.255 0-24-10.744-24-24"/></svg>