<svg xmlns="http://www.w3.org/2000/svg" viewBox="0 0 64 64" enable-background="new 0 0 64 64"><path d="m61 18l-16-16v10h-42v12h42v10z"/><path d="m8 62c-3.308 0-6-2.848-6-6.348h3c0 1.633 1.346 2.965 3 2.965s3-1.332 3-2.965-1.346-2.961-3-2.961c-3.308 0-6-2.846-6-6.346 0-3.497 2.692-6.345 6-6.345s6 2.848 6 6.346h-3c0-1.633-1.346-2.963-3-2.963s-3 1.33-3 2.963 1.346 2.963 3 2.963c3.308 0 6 2.846 6 6.344 0 3.499-2.692 6.347-6 6.347"/><path d="m24 62c-3.308 0-6-2.848-6-6.348v-9.307c0-3.497 2.692-6.345 6-6.345s6 2.848 6 6.346v9.307c0 3.499-2.692 6.347-6 6.347m0-18.617c-1.654 0-3 1.33-3 2.963v9.307c0 1.633 1.346 2.965 3 2.965s3-1.332 3-2.965v-9.307c0-1.633-1.346-2.963-3-2.963"/><path d="m40 62c-3.308 0-6-2.848-6-6.348v-9.307c0-3.497 2.692-6.345 6-6.345s6 2.848 6 6.346v9.307c0 3.499-2.692 6.347-6 6.347m0-18.617c-1.654 0-3 1.33-3 2.963v9.307c0 1.633 1.346 2.965 3 2.965s3-1.332 3-2.965v-9.307c0-1.633-1.346-2.963-3-2.963"/><path d="m53 47.703l5.848 14.297h3.152v-22h-3v14.295l-5.848-14.295h-3.152v22h3z"/></svg>