<svg xmlns="http://www.w3.org/2000/svg" viewBox="0 0 64 64" enable-background="new 0 0 64 64"><path d="m18 24h27.999v10l16.001-16-16.001-16v10h-27.999v-10l-16 16 16 16z"/><path d="m20 40c-3.308 0-6 2.848-6 6.346v9.307c0 3.5 2.692 6.348 6 6.348s6-2.848 6-6.348v-9.307c0-3.498-2.692-6.346-6-6.346m3 15.652c0 1.633-1.346 2.965-3 2.965s-3-1.332-3-2.965v-9.307c0-1.633 1.346-2.963 3-2.963s3 1.33 3 2.963v9.307"/><path d="m38.999 54.295l-5.847-14.295h-3.152v22h3v-14.297l5.847 14.297h3.152v-22h-3z"/><path d="m45.999 58h4v4h-4z"/><path d="m46.735 54h2.528l.736-14h-4z"/></svg>