<svg xmlns="http://www.w3.org/2000/svg" viewBox="0 0 64 64" enable-background="new 0 0 64 64"><path d="m57 7.025c-6.666-6.699-17.475-6.7-24.142 0-5.458 5.486-6.439 13.762-2.961 20.259-.011.01-.026.011-.036.021l-24.385 24.675-3.476 8.396 1.604 1.624 6.285-.586 4.411-.497 1.45-1.468.006-1.992 1.48-1.498.005-1.985 1.479-1.497h1.953l1.472-1.49h1.96l1.961-1.984-.015-1.971 1.479-1.499.006-1.978 9.188-9.297c.013-.014.015-.033.025-.046 6.479 3.56 14.764 2.594 20.25-2.92 6.668-6.701 6.668-17.566.001-24.267m-48.128 46.482c-.517.523-.673.233-.941-.04-.271-.271-.557-.43-.04-.953l21.645-21.92c.518-.524.671-.232.939.04.271.273.559.429.04.953l-21.643 21.92m24.585-18.941l-21.644 21.92c-.517.523-.673.232-.942-.04-.269-.274-.556-.431-.039-.954l21.645-21.92c.518-.523.671-.231.939.041.272.274.559.428.041.953m11.473-22.76c2.02-2.031 5.295-2.031 7.314 0 2.021 2.03 2.021 5.322.001 7.353s-5.295 2.03-7.315 0c-2.02-2.031-2.02-5.324 0-7.353"/></svg>