<svg xmlns="http://www.w3.org/2000/svg" viewBox="0 0 64 64" enable-background="new 0 0 64 64"><path d="m58.035 20.807c.68-1.565 1.062-3.291 1.062-5.108 0-7.063-5.688-12.789-12.707-12.789-1.854 0-3.61.409-5.198 1.127-2.801-1.304-5.913-2.037-9.192-2.037-10.66 0-19.578 7.687-21.617 17.864h-1.61c-2.631 0-4.773 2.163-4.773 4.823v3.006 1.818 27.665c0 2.66 2.142 4.824 4.773 4.824h46.453c2.632 0 4.774-2.164 4.774-4.824v-27.665-1.818-3.006c0-1.596-.779-3.001-1.965-3.88m-13.889-12.884c2.211 1.682 4.067 3.811 5.446 6.251-.77.925-1.909 1.524-3.202 1.524-2.313 0-4.193-1.889-4.193-4.221-.001-1.497.781-2.804 1.949-3.554m-9.767 11.941h-14.577c1.685-4.48 5.826-8.771 12.198-8.771.863 0 1.676.098 2.458.245-.492 1.362-.774 2.826-.774 4.36 0 1.46.248 2.859.695 4.166m12.011-12.606c2.316 0 4.194 1.889 4.194 4.22 0 .247-.032.486-.073.722-1.186-1.848-2.632-3.507-4.288-4.925.055-.004.11-.017.167-.017m-14.39-3.44c2.534 0 4.959.478 7.197 1.341-1.657 1.148-3.031 2.679-3.992 4.469-1.019-.23-2.088-.354-3.205-.354-8.814 0-14.76 7.638-14.859 14.839-.329.229-1.422.566-2.873.566-1.473 0-2.293-.342-2.518-.516.07-11.23 9.127-20.345 20.25-20.345m-26.193 20.869c0-1.657 1.331-3.005 2.967-3.005h1.326c-.048.417-.087.836-.111 1.26-.667.378-1.068.847-1.068 1.356 0 1.257 2.394 2.276 5.346 2.276 2.953 0 5.349-1.02 5.349-2.276 0-.382-.224-.741-.616-1.056.05-.51.146-1.033.268-1.561h15.899c1.455 2.76 3.883 4.917 6.825 6.011h-36.185v-3.005m0 32.489v-27.665h36.348v5.701l2.113 2.005v3.41l-2.113 2.005v4.519l2.113 2.003v3.411l-2.113 2.005v3.11l3.106 2.502h-36.488c-1.635 0-2.966-1.349-2.966-3.006m52.386 0c0 1.657-1.33 3.006-2.967 3.006h-7.706l3.105-2.502v-28.169h7.568v27.665m-7.403-29.484c2.667-.991 4.911-2.854 6.393-5.248.615.552 1.011 1.347 1.011 2.242v3.006h-7.404"/><path d="m36.121 39.678c0-2.303-1.847-4.168-4.123-4.168-2.275 0-4.119 1.865-4.119 4.168 0 1.379.665 2.6 1.685 3.357l-1.727 11.146h8.326l-1.729-11.146c1.022-.758 1.687-1.978 1.687-3.357"/></svg>