<svg xmlns="http://www.w3.org/2000/svg" viewBox="0 0 64 64" enable-background="new 0 0 64 64"><path d="m32 2l-16 16h10v15h12v-15h10z"/><path d="m32 62c-3.308 0-6-2.848-6-6.348v-9.307c0-3.497 2.692-6.345 6-6.345s6 2.848 6 6.346v9.307c0 3.499-2.692 6.347-6 6.347m0-18.617c-1.654 0-3 1.33-3 2.963v9.307c0 1.633 1.346 2.965 3 2.965s3-1.332 3-2.965v-9.307c0-1.633-1.346-2.963-3-2.963"/><path d="m22 40h-12v3h4.5v19h3v-19h4.5z"/><path d="m48 40h-6v22h3v-9.309h3c3.308 0 6-2.848 6-6.348 0-3.497-2.692-6.343-6-6.343m0 9.309h-3v-5.926h3c1.654 0 3 1.328 3 2.961s-1.346 2.965-3 2.965"/></svg>