<svg xmlns="http://www.w3.org/2000/svg" viewBox="0 0 64 64" enable-background="new 0 0 64 64"><path d="m32.057 40.697l-12.96 12.96c-.989.988-2.714.886-3.831-.232l-4.69-4.691c-1.119-1.117-1.222-2.842-.233-3.831l12.961-12.96c.99-.991.884-2.715-.232-3.832-1.117-1.118-2.84-1.222-3.831-.231l-16.561 16.558c-.989.989-.887 2.713.232 3.831l12.819 12.819c1.114 1.117 2.842 1.221 3.83.232l16.561-16.56c.99-.99.884-2.715-.233-3.831-1.117-1.116-2.842-1.223-3.832-.232"/><path d="m61.09 15.73l-12.819-12.819c-1.118-1.118-2.842-1.221-3.832-.232l-16.559 16.559c-.99.99-.886 2.715.231 3.832 1.116 1.116 2.843 1.221 3.832.233l12.958-12.96c.992-.991 2.716-.885 3.833.232l4.69 4.691c1.117 1.118 1.222 2.841.231 3.832l-12.959 12.96c-.99.989-.884 2.715.232 3.833 1.117 1.116 2.842 1.221 3.833.231l16.558-16.56c.993-.989.886-2.716-.229-3.832"/><path d="m20.302 43.7c1.116 1.118 2.84 1.22 3.828.231l19.802-19.801c.99-.99.888-2.711-.231-3.83-1.116-1.118-2.84-1.223-3.832-.231l-19.8 19.8c-.991.989-.886 2.714.233 3.831"/></svg>