<svg xmlns="http://www.w3.org/2000/svg" viewBox="0 0 64 64" enable-background="new 0 0 64 64"><path d="m32 2c-16.568 0-30 13.432-30 30s13.432 30 30 30 30-13.432 30-30-13.432-30-30-30m24 30c0 5.547-1.886 10.648-5.045 14.713l-5.65-5.65h.633c0-6.426-2.686-6.865-3.928-9.094-1.75-3.139-1.477-5.893-1.477-7.99 0-4.355-2.51-7.104-6.105-8.197 0-1.447-.824-2.594-2.426-2.594-1.605 0-2.43 1.146-2.43 2.594-2.358.718-4.244 2.152-5.266 4.282l-7.018-7.018c4.065-3.16 9.167-5.046 14.712-5.046 13.256 0 24 10.746 24 24m-48 0c0-5.546 1.887-10.648 5.046-14.712l10.334 10.334c-.153 1.333-.522 2.792-1.388 4.347-1.242 2.229-3.93 2.668-3.93 9.094h18.758l9.893 9.893c-4.065 3.158-9.166 5.044-14.713 5.044-13.254 0-24-10.744-24-24"/><path d="m24.01 42.938c0 2.42 1.963 4.383 4.383 4.383s4.383-1.963 4.383-4.383h-8.766"/></svg>