<svg xmlns="http://www.w3.org/2000/svg" viewBox="0 0 64 64" enable-background="new 0 0 64 64"><path d="m60.905 5.167c-.262-.629-.994-.926-1.634-.668-3.521 1.423-4.558 3.45-5.556 5.611.084-.261.164-.519.24-.77.66-2.151 1.095-3.572 3.719-5.043.601-.336.809-1.087.467-1.676-.343-.594-1.106-.795-1.707-.459-3.493 1.956-4.164 4.149-4.875 6.47-.465 1.516-.966 3.146-2.355 5.058-1.154-.506-2.025-.847-3.057-.593l-2.738-2.69c-.982-.964-2.287-1.494-3.674-1.494-1.388 0-2.692.53-3.672 1.494l-33.063 32.48 19.444.012.013 19.101 33.063-32.479c2.024-1.99 2.023-5.228-.001-7.217l-2.75-2.701c.234-.917.03-1.752-.361-2.766 0 0-.106.108-.308.297 2.09-2.135 3.006-4.075 3.783-5.764.967-2.102 1.605-3.491 4.341-4.598.64-.257.945-.976.681-1.605m-18.93 14.181c.104.094.221.179.36.235.492.196 1.031.059 1.376-.299.675.142 1.297.467 1.798.958.499.49.83 1.101.975 1.764-.364.338-.505.869-.305 1.353.057.138.144.252.239.356-.166.579-.465 1.115-.909 1.553-1.368 1.342-3.75 1.342-5.116 0-.684-.671-1.06-1.564-1.06-2.513 0-.949.375-1.841 1.06-2.512.444-.438.991-.732 1.582-.895"/></svg>