<svg xmlns="http://www.w3.org/2000/svg" viewBox="0 0 64 64" enable-background="new 0 0 64 64"><path d="m57.642 34.13c-.097-.178-.214-.338-.343-.488-4.105-7.481-7.799-8.649-10.767-9.585-1.056-.333-2.054-.647-2.962-1.218-4.398-2.768-6.365-6.5-7.947-9.5-.213-.405-.419-.798-.625-1.174-2.877-5.276-7.446-8.181-12.863-8.181-1.108 0-2.252.122-3.405.36-1.618-2.371-4.299-3.039-6.716-1.562-2.419 1.477-3.188 4.179-2.023 6.87-4.612 5.542-5.263 12.346-1.763 18.765.206.377.424.766.65 1.167 1.664 2.952 3.735 6.626 3.799 12.055.014 1.133-.229 2.211-.488 3.354-.709 3.139-1.578 7.041 2.336 14.372.056.293.151.57.294.83.654 1.198 2.037 1.805 4.113 1.805 4.722 0 12.768-3.124 20.996-8.15 10.352-6.326 20.079-15.386 17.714-19.72m-26.652 20.985c-.001.002-.006.002-.008.004-.002 0-.004 0-.006 0-3.653.694-7.167-1.343-8.69-4.729 1.816-1.891 8.241-6.897 13.161-9.475 1.022 1.156 1.76 2.619 2.045 4.294.787 4.634-2.12 9.067-6.502 9.906m22.543-22.79c-4.725 0-12.771 3.124-21 8.15-7.778 4.753-15.203 11.05-17.411 15.727-2.299-5.204-1.674-8.038-1.054-10.781.271-1.201.552-2.443.536-3.804-.069-5.929-2.276-9.843-4.05-12.988-.223-.393-.436-.772-.639-1.142-3.235-5.935-2.547-11.987 1.938-17.041l.454-.51-.328-.6c-.408-.751-1.544-3.324 1.036-4.899.567-.347 1.126-.523 1.66-.523 1.058 0 2.06.727 2.75 1.994l.355.653.72-.178c1.236-.306 2.458-.462 3.633-.462 4.749 0 8.613 2.481 11.174 7.176.2.368.403.752.612 1.15 1.689 3.204 3.791 7.191 8.627 10.234 1.117.703 2.281 1.069 3.406 1.424 2.56.807 5.195 1.651 8.326 6.45-.235-.021-.484-.03-.745-.03"/></svg>