<svg xmlns="http://www.w3.org/2000/svg" viewBox="0 0 64 64" enable-background="new 0 0 64 64"><ellipse cx="14.266" cy="24.298" rx="5.346" ry="2.274"/><path d="m36.163 54.181l-1.729-11.147c1.021-.758 1.687-1.977 1.687-3.355 0-2.303-1.847-4.168-4.123-4.168-2.275 0-4.119 1.865-4.119 4.168 0 1.379.665 2.598 1.685 3.355l-1.727 11.147h8.326"/><path d="m55.227 19.862h-1.611c-2.04-10.177-10.957-17.862-21.616-17.862-5.045 0-9.981 1.776-13.899 5.001l-.772.637 6.436 6.475.625-.476c2.194-1.664 4.826-2.544 7.611-2.544 6.372 0 10.514 4.29 12.199 8.77h-35.427c-2.631-.001-4.773 2.163-4.773 4.824v3.004 1.818 27.667c0 2.66 2.142 4.824 4.773 4.824h46.453c2.632 0 4.774-2.164 4.774-4.824v-27.667-1.819-3.004c0-2.66-2.142-4.824-4.773-4.824m-23.227-10.588c-2.914 0-5.682.845-8.055 2.45l-3.912-3.934c3.459-2.567 7.67-3.972 11.967-3.972 11.122 0 20.178 9.114 20.248 20.347-.225.173-1.043.515-2.514.515-1.452 0-2.544-.337-2.873-.566-.098-7.203-6.046-14.84-14.861-14.84m26.193 47.902c0 1.657-1.33 3.006-2.967 3.006h-46.453c-1.636 0-2.967-1.349-2.967-3.006v-27.667h52.387v27.667m0-29.486h-52.386v-3.004c0-1.657 1.331-3.006 2.967-3.006h35.962c.121.526.219 1.049.269 1.559-.395.316-.617.676-.617 1.059 0 1.257 2.394 2.274 5.346 2.274 2.953 0 5.348-1.018 5.348-2.274 0-.512-.402-.98-1.069-1.359-.026-.423-.064-.842-.112-1.258h1.328c1.637 0 2.967 1.349 2.967 3.006v3.003z"/></svg>