<svg xmlns="http://www.w3.org/2000/svg" viewBox="0 0 64 64" enable-background="new 0 0 64 64"><path d="m32 2c-16.568 0-30 13.432-30 30s13.432 30 30 30 30-13.432 30-30-13.432-30-30-30m-14 14.723l4.619-1.723h3.381v14h-3.945v-11.092h-.055l-3.33 1.271-.67-2.456m5.207 32.277c-1.832 0-3.377-.459-4.207-.959l.676-2.375c.586.291 1.941.832 3.291.832 1.719 0 2.592-.789 2.592-1.811 0-1.334-1.395-1.939-2.855-1.939h-1.35v-2.271h1.287c1.109-.02 2.523-.414 2.523-1.561 0-.813-.695-1.416-2.09-1.416-1.154 0-2.375.479-2.963.813l-.674-2.293c.85-.52 2.549-1.02 4.377-1.02 3.027 0 4.707 1.521 4.707 3.373 0 1.439-.85 2.564-2.594 3.148v.039c1.702.294 3.073 1.522 3.073 3.294 0 2.394-2.199 4.146-5.793 4.146m12.293-21.947l1.824-1.611c3.08-2.689 4.578-4.236 4.619-5.846 0-1.123-.693-2.014-2.32-2.014-1.215 0-2.277.594-3.018 1.146l-.93-2.309c1.063-.785 2.711-1.42 4.619-1.42 3.189 0 4.947 1.82 4.947 4.32 0 2.309-1.715 4.152-3.754 5.932l-1.301 1.057v.043h5.314v2.649h-10v-1.947m10.5 18.609h-1.832v3.338h-3.393v-3.338h-6.775v-2.133l5.789-8.529h4.379v8.205h1.832v2.457"/><path d="m39.389 40.107l-2.047 3.057v.041h3.434v-3.098c0-.844.047-1.703.117-2.609h-.092c-.494.906-.895 1.725-1.412 2.609"/></svg>