<svg xmlns="http://www.w3.org/2000/svg" viewBox="0 0 64 64" enable-background="new 0 0 64 64"><path d="m57.047 26.167c0 0-3.049 2.77-8.145 6.074-1.39-8.082-5.246-18.059-12.882-30.241 0 0-2.497 13.067-10.813 25.435-3.629-5.598-5.186-9.993-5.186-9.993-26.166 26.079-4.476 44.558 9.146 44.558 17.484 0 32.87-8.361 27.88-35.833m-26.984 34.165c-3.81 0-12.314-2.656-16.425-14.883 0 0 1.477.756 3.879 1.631.098-4.227 1.797-9.636 6.144-16.46 0 0 1.09 2.93 3.63 6.662 5.821-8.246 7.569-16.961 7.569-16.961 5.346 8.125 8.045 14.778 9.019 20.167 3.566-2.204 5.701-4.052 5.701-4.052-.243 5.423-1.29 9.673-2.805 12.995 2.385-.391 3.892-.807 3.892-.807-6.867 9.698-13.797 11.708-20.604 11.708"/><path d="m21.897 43.854c0 0 2.805 3.826 4.938 2.902 0 0 4.055-6.301 9.874-9.804 0 0-1.195 9.606.179 11.304 1.822 2.258 6.759-2.504 6.759-2.504 0 5.676-6.231 12.828-11.806 12.828-5.535 0-13.382-6.156-9.944-14.726"/><path d="m49.84 18.118c2.101-3.041 3.529-6.156 3.529-6.156 3.523 5.775 1.444 9.287-.104 10.434-2.077 1.542-5.85-.763-3.425-4.278"/><path d="m11.497 17.131c-2.056-3.525-2.287-7.918-2.287-7.918-5.023 7.547-3.061 11.657-1.39 12.901 2.242 1.67 6.05-.91 3.677-4.983"/><path d="m23.183 9.291c.256-2.369-.737-4.826-.737-4.826 4.764 3.064 4.707 5.733 4.086 6.772-.837 1.394-3.646.791-3.349-1.946"/></svg>