<svg xmlns="http://www.w3.org/2000/svg" viewBox="0 0 64 64" enable-background="new 0 0 64 64"><path d="m53.336 55.321c0-3.375 1.561-9.209-4.632-12.487 4.4-4.324 7.132-10.34 7.132-16.998 0-13.164-10.672-23.836-23.836-23.836-13.165 0-23.836 10.672-23.836 23.836 0 6.657 2.731 12.673 7.132 16.999-6.193 3.277-4.63 9.111-4.63 12.486 0 2.6-4.666 1.631-4.666 4.681 0 2.328 3.165 2.187 4.431 1.716 2.989-1.115 4.875-3.787 5.478-4.641.52-.74.209-.863.466-1.672.264-.831 1.857.835 4.019-.084 3.146-1.337 1.051-3.887 3.379-3.887 1.41 0 4.383 1.183 8.229 1.183 3.844 0 6.818-1.183 8.229-1.183 2.33 0 .234 2.55 3.379 3.887 2.162.919 3.756-.747 4.021.084.256.809-.057.932.463 1.672.602.854 2.486 3.525 5.477 4.641 1.265.47 4.429.612 4.429-1.716 0-3.05-4.664-2.081-4.664-4.681m-24.592-32.253c-1.74 0-2.977 2.045-2.977 4.328 0-2.283-1.234-4.328-2.977-4.328 1.742 0 2.977-2.044 2.977-4.328.001 2.284 1.237 4.328 2.977 4.328m-8.318-17.375c0 4.863 2.629 9.212 6.334 9.212-3.705 0-6.334 4.352-6.334 9.215 0-4.863-2.629-9.215-6.334-9.215 3.705.001 6.334-4.349 6.334-9.212m-7.127 21.703c2.007 0 3.431-2.356 3.431-4.992 0 2.636 1.425 4.992 3.433 4.992-2.008 0-3.433 2.357-3.433 4.992-.001-2.635-1.424-4.992-3.431-4.992m-5.822 33.402c-2.347-1.687 2.4-3.725 2.4-2.509 0 1.069.775-.222 2.262-.222 2.523 0-2.312 4.417-4.662 2.731m38.449-10.819c0 0 4.639 2.154 2.293 5.016-.551-2.555-2.576.236-4.572-1.148-2.188-1.519-.248-4.742-4.068-3.664-5.514 1.555-9.643 1.555-15.154 0-3.82-1.078-1.881 2.146-4.068 3.664-1.996 1.385-4.021-1.406-4.572 1.148-2.346-2.861 2.29-5.016 2.29-5.016-3.498-.95-6.08 3.42-6.08 3.42s-1.476-6.716 4.139-9.782c4.215 3.764 9.772 6.055 15.868 6.055s11.653-2.291 15.868-6.055c5.614 3.067 4.14 9.782 4.14 9.782s-2.586-4.37-6.084-3.42m10.597 10.819c-2.35 1.687-7.188-2.73-4.662-2.73 1.484 0 2.264 1.291 2.264.222 0-1.217 4.746.821 2.398 2.508"/></svg>