<svg xmlns="http://www.w3.org/2000/svg" viewBox="0 0 64 64" enable-background="new 0 0 64 64"><path d="m61.295 22.503l-2.657-.901.749-3.272c.114-.502-.203-1.006-.706-1.12l-1.177-.267c-.504-.113-1.016.203-1.137.703l-.722 2.943-11.183-3.79c-.132-1.106-.466-1.845-.992-1.997l-7.624-2.805.511-2.056c.09-.36-.123-.763-.473-.892l-9.737-3.579c-.351-.129-.71.063-.801.424l-.511 2.055-16.702-5.911c-1.623-.469-3.996 3.409-5.301 8.66-1.305 5.254-1.047 9.893.576 10.361l20.001 4.488-.082.33c-.115.465.174.928.643 1.027l2.897.618c-.001.034-.011.067-.011.103 0 1.305.503 2.481 1.305 3.388l-11.397 30.987h1.818l12.091-29.432c.005.001.011.003.016.005l.569 29.427h1.567l.567-29.433 12.028 29.433h1.814l-11.35-31.044c.341-.396.613-.85.825-1.334l.229.049c.469.1.947-.199 1.063-.664l.082-.33 1.843.393c.526.151 1.158-.309 1.784-1.195l17.222 4.141c.811.234 1.998-1.705 2.65-4.33.654-2.628.525-4.949-.287-5.183m-29.296 8.908c-2.027 0-3.67-1.597-3.771-3.599l7.134 1.522c-.627 1.228-1.889 2.077-3.363 2.077m9.7-9.476c-.504 2.032-1.232 3.826-1.986 5.045l-30.997-6.648-.001-.001c1.1-1.551 2.189-4.092 2.932-7.082.747-3.009.979-5.81.739-7.746l29.931 10.988c.088 1.463-.113 3.41-.618 5.444m18.297 5.289c-.262 1.053-.635 1.99-1.039 2.734l-16.222-3.896.023-.095c.434-.979.83-2.133 1.144-3.396.314-1.264.506-2.479.583-3.56l.021-.085 10.562 3.572c-.225.268-.581.418-.939.346l-3.166-.631c-.506-.102-1.053.217-1.215.705l-.48 1.443c-.163.49.116.98.62 1.094l6.571 1.457c.504.113 1.01-.207 1.125-.709l.606-2.649 2.173.734c.006.864-.105 1.881-.367 2.936"/><circle cx="46.79" cy="21.483" r=".859"/></svg>