<svg xmlns="http://www.w3.org/2000/svg" viewBox="0 0 64 64" enable-background="new 0 0 64 64"><path d="m61.287 53.543c-2.648-2.041-9.701-7.677-16.27-14.452-4.367-4.505-6.224-9.017-9.534-12.43-2.997-3.092-5.723-4.895-5.723-4.895l-.768.792-5.188-5.348 2.004-2.067c.336-.349.336-.913 0-1.262l-.414-.428c0 0 5.896-7.936 13.351-5.741.867.255 1.637.694 1.857.47.297-.306-.839-1.48-1.504-2.162-9.428-9.65-19.832 1.104-19.837 1.11l-.366-.378c-.338-.35-.884-.35-1.223 0l-9.237 9.527c-.339.349-.339.914 0 1.263 0 0 1.129 1.979-1.837 2.335-1.194.144-1.941.413-2.366.768-.049.043-1.978 2.009-1.978 2.009-.338.349-.338.914 0 1.262l6.914 7.132c.335.348.885.348 1.223 0 0 0 1.906-1.99 1.947-2.042.344-.438.606-1.208.743-2.44.348-3.06 2.265-1.892 2.265-1.892.337.348.886.348 1.223 0l2.004-2.067 5.187 5.349-.768.793c0 0 1.746 2.813 4.746 5.905 3.309 3.413 7.681 5.328 12.048 9.833 6.567 6.774 12.033 14.048 14.014 16.779.365.5.58.734.809.734.243 0 .503-.26.972-.744l2.849-2.938 2.848-2.937c.913-.944 1.007-1.065.009-1.838"/></svg>