<svg xmlns="http://www.w3.org/2000/svg" viewBox="0 0 64 64" enable-background="new 0 0 64 64"><path d="m46 44c-1.103 0-2 .898-2 2 0 1.104.897 2 2 2s2-.896 2-2c0-1.102-.897-2-2-2"/><path d="m38 40c1.103 0 2-.898 2-2 0-1.104-.897-2-2-2s-2 .896-2 2c0 1.102.897 2 2 2"/><ellipse cx="21.137" cy="38" rx="1.536" ry="1.334"/><path d="m18.068 44.668c0 1.471 1.376 2.666 3.068 2.666.895 0 1.738-.348 2.316-.926l-3.891-4.025c-.891.465-1.493 1.314-1.493 2.285"/><path d="m32 2c-16.568 0-30 13.432-30 30s13.432 30 30 30 30-13.432 30-30-13.432-30-30-30m-5.061 48h-.012l-1.485-1.535c-1.135.969-2.682 1.535-4.305 1.535-3.385 0-6.137-2.393-6.137-5.332 0-1.746.972-3.291 2.467-4.264-.584-.672-.934-1.502-.934-2.404 0-2.205 2.066-4 4.604-4s4.604 1.795 4.604 4c0 1.656-1.166 3.08-2.82 3.688l2.704 2.762 1.401-1.256 1.955 2.213-1.321 1.123 1.34 1.372-2.061 2.098m3.061-24h-6v4h-4v-4h-6v-4h16v4m0-8h-16v-4h16v4m8.648 6.539c.718 0 1.395.098 2.002.27l2.067-10.809h3.234c-.021.277-.004.66.15 1.117.174.533.549 1.152 1.146 1.746.15.148.311.295.482.439l.267.213c.133.094.199.139.33.238.459.35.873.744 1.195 1.232.321.482.505 1.064.476 1.619-.023.555-.225 1.057-.483 1.48-.529.846-1.24 1.438-1.86 1.904-.627.463-1.192.793-1.591 1.014-.4.219-.639.328-.639.328s.217-.139.573-.406c.354-.268.851-.664 1.375-1.188.516-.523 1.085-1.182 1.4-1.949.155-.379.231-.783.179-1.158-.049-.377-.228-.721-.502-1.02-.271-.299-.646-.564-1.025-.773-.075-.045-.23-.123-.311-.164-.124-.061-.248-.119-.371-.18-.244-.127-.482-.26-.713-.402-.297-.184-.576-.387-.838-.6l-1.916 10.023c-.212 1.395-2.202 2.487-4.627 2.487-2.568 0-4.648-1.223-4.648-2.73s2.08-2.731 4.648-2.731m-.648 9.461c2.206 0 4 1.793 4 4 0 2.205-1.794 4-4 4s-4-1.795-4-4c0-2.207 1.794-4 4-4m8 16c-2.206 0-4-1.793-4-4s1.794-4 4-4 4 1.793 4 4-1.794 4-4 4m-8 0h-4l12-16h4l-12 16"/></svg>