<svg xmlns="http://www.w3.org/2000/svg" viewBox="0 0 64 64" enable-background="new 0 0 64 64"><path d="m58.457 41.357c-3.094-3.095-7.449-4.161-11.412-3.2l-21.204-21.199c.962-3.967-.104-8.322-3.199-11.418-3.096-3.096-7.451-4.158-11.413-3.199l8.258 8.26-1.878 7.007-7.009 1.879-8.258-8.26c-.962 3.964.104 8.32 3.201 11.415 3.094 3.094 7.449 4.162 11.412 3.2l21.204 21.2c-.962 3.967.104 8.322 3.199 11.418 3.096 3.096 7.451 4.158 11.413 3.199l-8.259-8.261 1.878-7.007 7.01-1.879 8.256 8.26c.964-3.964-.101-8.32-3.199-11.415"/></svg>