<svg xmlns="http://www.w3.org/2000/svg" viewBox="0 0 64 64" enable-background="new 0 0 64 64"><path d="m61.252 60.484c-.077-.149-.164-.302-.244-.451-.196-.368-.391-.735-.602-1.107 0-.001-.001-.002-.002-.004-8.465-14.963-28.35-33.375-29.762-34.675l.166-.166c.143-.139.143-.368.001-.507l-21.598-21.574-6.962 6.954c0 0-.493.471-.092.872.896.897 1.546.547 2.354.727 1.107.246 2.362 1.498 2.362 1.498l17.989 17.97.066-.066c.715 1.082-1.939 4.58-4.003 7.022-.895 1.06-1.677 1.919-2.021 2.292-.01.01-.021.021-.03.031-.044.049-.083.09-.108.117-.019.021-.049.053-.049.053 21.984 21.956 41.17 22.529 43.109 22.53.004 0 .01 0 .014 0 .105 0 .16-.002.16-.002-.233-.498-.482-1.004-.748-1.514m-52.148-52.399c-.345.342-.9.341-1.241-.002-.341-.341-.344-.896 0-1.238.342-.342.897-.342 1.241 0 .343.343.342.898 0 1.24m13.283 30.307c3.546-4.124 4.6-6.499 4.697-7.926l3.518-3.513c4.637 4.389 19.678 19.055 27.23 31.538-7.366-1.464-20.674-6.014-35.445-20.099"/></svg>