<svg xmlns="http://www.w3.org/2000/svg" viewBox="0 0 64 64" enable-background="new 0 0 64 64"><path d="m41.881 21.348c-.808 0-1.556.604-1.752 1.457-.038.176-.058.35-.058.543v1.398c0 .195.02.369.058.523.196.799.887 1.4 1.752 1.4 1.281 0 2.068-.973 2.068-2.68 0-1.475-.67-2.641-2.068-2.641"/><path d="m20.354 24.123c0 .918.583 1.365 1.343 1.365.851 0 1.544-.588 1.768-1.316.044-.189.066-.398.066-.611v-1.244c-1.788-.026-3.177.423-3.177 1.806"/><path d="m42.118 41.328c-1.361 0-2.075 1.205-2.075 2.699 0 1.615.812 2.625 2.057 2.625.867 0 1.561-.584 1.736-1.418.061-.217.08-.428.08-.682v-1.242c0-.154-.02-.371-.039-.525-.179-.793-.829-1.457-1.759-1.457"/><path d="m32 2c-16.568 0-30 13.432-30 30 0 16.568 13.432 30 30 30s30-13.432 30-30c0-16.568-13.432-30-30-30m-8.142 43.197c.726 0 1.29-.141 1.755-.35l.362 2.633c-.543.284-1.573.52-2.745.52-3.189 0-5.23-2.26-5.23-5.883 0-3.365 1.979-6.117 5.657-6.117.808 0 1.693.164 2.343.447l-.488 2.658c-.363-.189-.907-.354-1.714-.354-1.615 0-2.666 1.344-2.645 3.225 0 2.118 1.21 3.221 2.705 3.221m.076-17.455l-.2-1.152h-.067c-.718.918-1.836 1.41-3.133 1.41-2.214 0-3.534-1.691-3.534-3.521 0-2.982 2.551-4.416 6.42-4.393v-.164c0-.609-.313-1.48-1.99-1.48-1.119 0-2.306.4-3.021.871l-.626-2.305c.76-.443 2.258-1.008 4.25-1.008 3.646 0 4.809 2.254 4.809 4.955v3.992c0 1.105.046 2.16.158 2.795h-3.066m20.397 21.045l-.14-1.396h-.04c-.611 1.066-1.778 1.609-3.021 1.609-2.292 0-4.13-1.924-4.13-4.875-.019-3.203 2.016-5.047 4.328-5.047 1.185 0 2.112.406 2.549 1.064h.039v-5.142h3.003v10.953c0 1.066.039 2.193.081 2.834h-2.669m-1.74-19.787c-1.122 0-2.204-.408-2.894-1.535h-.04l-.118 1.32h-2.539c.039-.621.08-1.768.08-2.834v-10.951h2.991v5.416h.039c.57-.816 1.574-1.34 2.913-1.34 2.303 0 3.995 1.885 3.977 4.797 0 3.418-2.205 5.127-4.409 5.127"/></svg>