<svg xmlns="http://www.w3.org/2000/svg" viewBox="0 0 64 64" enable-background="new 0 0 64 64"><path d="M50.262,32L60,16H40.522L32,2l-8.521,14H4l9.739,16L4,48h19.479L32,62l8.522-14H60L50.262,32z M50.721,21l-3.547,5.928
		L43.566,21H50.721z M44.141,32l-6.578,11H26.439l-6.578-11l6.578-11h11.123L44.141,32z M32,11.701L34.572,16H29.43L32,11.701z
		 M13.283,21h7.151l-3.607,5.926L13.283,21z M13.283,43l3.544-5.926L20.435,43H13.283z M32,52.299L29.43,48h5.143L32,52.299z
		 M47.174,37.072L50.721,43h-7.154L47.174,37.072z"/><ellipse cx="32" cy="32" rx="4.199" ry="4.286"/></svg>