<svg xmlns="http://www.w3.org/2000/svg" viewBox="0 0 64 64" enable-background="new 0 0 64 64"><path d="m56.272 38.087c-1.294-1.411-1.321-5.135-1.236-7.103h1.112v-1.376c0 0-1.271-.208-2.66-.687l.906-3.642-.889-.971c.154-.266.303-.439.395-.439.004 0 .369.011 1.085.982l.28.382h.476.925 1.029l-.096-1.02c-.035-.367-.409-3.592-2.789-3.846-.227-.025-.448-.038-.658-.038-1.16 0-1.895.375-2.41.745-.281-1.524-1.174-2.564-1.908-3.177l.373-1.398c0 0-.727-.611-2.38-1.492-.143-1.865-1.479-1.658-1.479-1.658l-1.224.308-.009.074c-5.057-2.125-14.281-4.753-29.442-5.117-1.466-1.273-3.262-1.786-4.59-1.982-.533-.185-1.102-.371-1.73-.561l-.237-.071-1.176.937-.337 1.427-2.677.939v2.13c-.122 0-.191.001-.191.001l.002.011c-.066.002-.132.004-.197.013-2.038.262-3.058 3.821-2.278 7.944.75 3.963 2.887 7.008 4.861 7.008.081 0 .162-.005.242-.016.147-.02.288-.06.425-.113.398-.024 1.859-.114 3.893-.239l3.135 3.094 10.084.114 2.621 2.167v2.914h1.346c.006.973.107 3.242.824 5.803.934 3.326 3.512 5.012 7.664 5.012 2.037 0 3.868-.927 5.314-2.15.354-.257.664-.533.934-.813v.086c0 0 4.665.256 5.609 6.944.709 5.023-2.588 5.408-2.588 5.408v3.379h1.756 8.562 1.757c0 0 3.299-.911 3.299-5.411 0-3.039 0-8.256-5.728-14.502m.394-13.785h-.925c-.516-.7-.967-1.083-1.361-1.253.559-.274 1.308-.075 2.286 1.253m-4.84-2.114c.498-.403 1.068-.925 2.326-.925.172 0 .357.01.559.032.019.001.035.009.055.012-.152-.014-.307-.015-.467.016-1.141.214-1.317 1.355-2.221 1.43l-.261-.285c.007-.096.007-.187.009-.28m-22.167-8.123c0 0-15.578-.065-21.287.269-.257-.349-1.356-1.702-1.632-1.959 3.899.047 13.27.311 22.919 1.69m-20.88-6.602l.438-.349v1.364h-.138l-.482-.243.182-.772m-2.915 2.5l2.409-.845.033.017v2.314l.008.02c-.999-.021-1.815-.031-2.416-.034l-.035-.081v-1.391zm1.38 15.506c-.04.005-.081.008-.121.008-1.305 0-3.244-2.566-3.939-6.249-.559-2.954-.08-5.275.644-6.266.253-.347.533-.542.833-.581.04-.005.08-.008.121-.008 1.305 0 3.244 2.565 3.94 6.247.491 2.598.239 5.058-.643 6.267-.254.348-.535.544-.835.582m7.961 2.739l-2.299-2.242c.667-.041 1.373-.083 2.11-.128l2.458 2.395-2.269-.025m-6.26-2.932c.241-.371.927-1.557 1.063-2.921 4.969.406 20.724 1.056 22.625 1.101-.113.114-.44.455-.506.478-1.785.028-18.292 1.041-23.182 1.342m19.516 8.121v-2.418l-2.684-2.219 2.208.024 2.651 2.192.078 2.421h-2.253m8.896 10.816c-3.273 0-5.859-1.115-6.761-4.33-.685-2.445-.783-4.633-.79-5.553h1.379c-.012.92.047 3.105.732 5.553.831 2.96 3.097 4.127 6.004 4.295-.186.019-.373.035-.564.035m-3.018-10.261l-.201.666.669.361c1.436.776 2.232 1.682 2.368 2.689.233 1.739-1.491 3.438-1.51 3.454l-.513.488c-.281-.113-.555-.251-.801-.434-1.094-1.411-1.314-3.74-.012-7.224m-.292-.085l.002-.004h.316l-.001.004h-.317m4.06 7.912c-.016.01-.025.018-.025.018s0 0-1.768 0c0 0 4.729-4.506-1.06-7.637l.089-.297h1.469c0 0 .143-.121.395-.291l-.178.588c5.591 3.024 1.374 7.327 1.078 7.619m.594 1.156c-.267 0-.527-.014-.781-.036 3.811-.373 5.674-4.551 5.674-4.551h1.322c0 0-2.035 4.587-6.215 4.587m6.307-11.453c0 0-6.615-1.533-12.781-1.364l.063-3.558c.128.113.276.203.45.248.821.209 1.816-.499 2.224-1.584.359-.957.14-1.886-.48-2.236.079-.131.155-.267.228-.408.368-.725.629-1.577.754-2.502.012-.08.016-.164.024-.244.571-.286.945-1.082.876-2.007-.078-1.055-.701-1.886-1.43-1.966-.082-.186-.167-.37-.264-.538-.537-.935-1.285-1.58-2.152-1.76l3.113.315c-.455.526-.922 2.326.424 1.714l9.412 2.307-1.111-1.428c1.813.578 3.517 1.179 5.042 1.774 0 0 .782.821 1.371 2.145-4.679-1.152-8.102-1.941-14.103-2.476l.521 1.99c-1.938.258-1.49 3.445-.273 3.461l-.688 1.521 10.889 2.327c1.896.56.822 2.223.732 2.354-.784.641-1.716 1.282-2.841 1.915m3.742 3.217c-1.006-.065-1.586-.928-1.296-1.926.067-.232.18-.449.319-.647l2.723 1.874c-.467.461-1.115.742-1.746.699m2.348-1.683c-.067.232-.18.449-.32.648l-2.723-1.875c.469-.46 1.116-.741 1.748-.699 1.006.066 1.586.929 1.295 1.926m1.564-4.655l-2.23-1.521c.578-.906.881-1.772 1.009-2.563.005-.011.012-.019.016-.03.067-.206.125-.406.174-.602l1.734 1.893-.703 2.823"/><path d="m4.782 13.668c-1.1.132-1.564 2.595-1.037 5.499s1.848 5.151 2.948 5.019c1.1-.135 1.565-2.597 1.038-5.501-.528-2.905-1.848-5.151-2.949-5.017"/><path d="m32.979 29.083l8.982.869 1.889-1.845-8.846-.756c-2.303-.712-2.333 1.196-2.025 1.732"/></svg>