<svg xmlns="http://www.w3.org/2000/svg" viewBox="0 0 64 64" enable-background="new 0 0 64 64"><path d="m62 15.268c-.891-3.049-2.537-5.924-4.939-8.327-2.405-2.404-5.28-4.049-8.329-4.941l-12.043 12.041-1.775-1.816-6.025 6.024 1.776 1.816-7.829 7.83c-6.529-1.905-13.859-.337-19.076 4.705-.055.053-.111.103-.164.156-3.758 3.844-.656 13.09 6.953 20.699 5.415 5.415 11.659 8.545 16.194 8.545 1.837 0 3.394-.513 4.502-1.596.053-.055.104-.109.156-.164 5.042-5.219 6.609-12.547 4.703-19.078l25.896-25.894m-32.794 42.816c-.044.045-.087.092-.131.139-3.238 3.165-11.028.555-17.438-5.856-6.412-6.411-9.025-14.202-5.859-17.44.045-.045.092-.087.139-.131 3.28-3.063 11.003-.447 17.369 5.922 6.366 6.364 8.982 14.087 5.92 17.366"/></svg>