<svg xmlns="http://www.w3.org/2000/svg" viewBox="0 0 64 64" enable-background="new 0 0 64 64"><path d="m61.576 52.801l-.008.006-13.279-13.272.707-.707 6.609-6.606-10.287-10.282-6.609 6.604-.709.71-3.447-3.447.004-.003-3.856-3.854-.005.004-2.36-2.359.712-.711 6.607-6.604-10.287-10.28-6.605 6.601-10.151 10.146-6.612 6.607 10.288 10.279 6.609-6.603.683-.683.425.425-.001.001 3.861 3.858h.001l3.861 3.858-.011.007 1.518 1.517-.675.675-6.608 6.604 10.289 10.28 6.604-6.6.688-.687 3.635 3.632-.008.005 3.854 3.853.008-.006 5.146 5.144 1.087 1.087h3.813 4.933v-3.149-5.612-.015l-.424-.423m-16.258-28.209l7.635 7.63-4.857 4.847-7.635-7.632 4.857-4.845m-19.95-19.942l7.632 7.629-4.853 4.844-7.633-7.631 4.854-4.842m-6.471 21.729l-7.633-7.632 7.499-7.495 7.633 7.631-7.499 7.496m2.727 1.361l-.718-.718 6.105-6.104 2.066 2.066-7.453 4.756m3.86 3.858l7.45-4.758 3.74 3.738-.543.545-6.786 4.334-3.861-3.859m13.362 14.724l-7.634-7.634 7.498-7.492 7.635 7.632-7.499 7.494m5.937 4.564l-3.859-3.856 7.451-4.759 3.857 3.856-7.449 4.759m6.356 6.351l-2.5-2.499 7.453-4.756 2.5 2.5-7.453 4.755"/></svg>