<svg xmlns="http://www.w3.org/2000/svg" viewBox="0 0 64 64" enable-background="new 0 0 64 64"><path d="m21.83 15.044h-.051c-.26 1.07-.521 2.432-.809 3.473l-1.041 3.818h3.879l-1.094-3.818c-.312-1.07-.622-2.402-.884-3.473"/><path d="m43.775 16.96c0-1.34-.934-2.049-2.59-2.049-.793 0-1.25.053-1.559.105v4.119h1.195c1.923.001 2.954-.866 2.954-2.175"/><path d="m44.162 24.49c0-1.785-1.465-2.492-3.289-2.492h-1.246v4.986c.359.051.787.051 1.412.051 1.658 0 3.123-.684 3.123-2.545"/><path d="m32 2c-16.568 0-30 13.431-30 30 0 16.568 13.432 30 30 30s30-13.432 30-30c0-16.569-13.432-30-30-30m-8.346 46.738c1.121 0 2.361-.26 3.092-.572l.561 3.084c-.684.359-2.215.75-4.213.75-5.672 0-8.594-3.756-8.594-8.729 0-5.955 3.994-9.271 8.959-9.271 1.926 0 3.383.416 4.041.777l-.754 3.135c-.754-.338-1.803-.648-3.115-.648-2.947 0-5.236 1.891-5.236 5.775 0 3.494 1.949 5.699 5.259 5.699m2.08-18.738l-1.352-4.623h-5.025l-1.248 4.623h-4.109l5.357-18h5.205l5.438 18h-4.266m10.266-17.633c.963-.211 2.904-.367 4.729-.367 2.232 0 3.6.234 4.773.998 1.131.654 1.943 1.859 1.943 3.461 0 1.576-.84 3.043-2.662 3.777v.055c1.85.55 3.217 2.074 3.217 4.355 0 1.602-.674 2.861-1.682 3.752-1.172 1.023-3.14 1.602-6.357 1.602-1.801 0-3.143-.131-3.961-.262v-17.371m11.367 37.35c-1.666 1.547-4.201 2.283-7.303 2.283-1.855 0-3.17-.131-4.064-.266v-17.367c1.318-.234 3.031-.367 4.838-.367 3.008 0 4.957.604 6.484 1.891 1.643 1.363 2.678 3.541 2.678 6.66 0 3.385-1.104 5.722-2.633 7.166"/><path d="m41.215 37.07c-.797 0-1.313.078-1.619.158v11.566c.307.082.799.082 1.242.082 3.242.025 5.357-1.969 5.357-6.191.024-3.673-1.904-5.615-4.98-5.615"/></svg>