<svg xmlns="http://www.w3.org/2000/svg" viewBox="0 0 64 64" enable-background="new 0 0 64 64"><path d="m33.481 31.053c-.818 0-1.581.762-1.781 1.846-.04.223-.06.441-.06.689v1.771c0 .246.02.469.06.666.2 1.01.901 1.773 1.781 1.773 1.301 0 2.103-1.234 2.103-3.398 0-1.871-.681-3.347-2.103-3.347"/><path d="m14.413 36.541c0 1.053.591 1.564 1.364 1.564.865 0 1.571-.672 1.797-1.512.044-.215.068-.457.068-.701v-1.434c-1.818-.024-3.229.489-3.229 2.083"/><path d="m32 2c-16.568 0-30 13.431-30 30 0 16.568 13.432 30 30 30s30-13.432 30-30c0-16.569-13.432-30-30-30m-13.948 38.703l-.205-1.324h-.067c-.729 1.051-1.867 1.621-3.185 1.621-2.252 0-3.595-1.945-3.595-4.055 0-3.428 2.593-5.078 6.529-5.051v-.189c0-.705-.318-1.704-2.023-1.704-1.14 0-2.345.459-3.072.999l-.638-2.645c.774-.516 2.298-1.164 4.322-1.164 3.709 0 4.893 2.594 4.893 5.702v4.592c0 1.271.045 2.488.157 3.219h-3.116zm16.15.051c-1.14 0-2.242-.52-2.942-1.945h-.038l-.121 1.672h-2.582c.038-.785.08-2.24.08-3.594v-13.887h3.042v6.869h.039c.582-1.035 1.603-1.699 2.961-1.699 2.346 0 4.066 2.389 4.046 6.083 0 4.333-2.244 6.501-4.485 6.501m16.619-2.975c.741 0 1.314-.164 1.783-.406l.373 3.031c-.553.326-1.602.596-2.791.596-3.244 0-5.319-2.598-5.319-6.77 0-3.874 2.014-7.04 5.751-7.04.82 0 1.724.189 2.383.514l-.494 3.063c-.37-.219-.922-.41-1.746-.41-1.643 0-2.713 1.545-2.69 3.713-.002 2.434 1.232 3.709 2.75 3.709"/></svg>