<svg xmlns="http://www.w3.org/2000/svg" viewBox="0 0 64 64" enable-background="new 0 0 64 64"><path d="m48.669 2l-2.459 2.088.671.779-2.454 2.091-.674-.782-24.577 20.881.71.823-2.438 3.015 3.986 4.616 3.367-1.929.71.824 5.696-4.839c.892.899 1.977 1.601 3.208 2.035.321.113.649.2.979.273.213 2.3.248 4.752-.129 7.109-.569-.089-1.15-.144-1.744-.147-5.189.039-9.58 3.434-11.059 8.113l-.006.021-1.332 3.828c-.399-.398-.818-.816-1.273-1.271-4.638-4.632-3.471-8.209-2.648-9.655l3.315 3.312 2.821-2.818-11.525-11.497-2.814 2.812 3.592 3.588c-1.548 2.206-5.675 9.528 1.578 16.771l4.84 4.835-1.783 5.124h32.584l-5.228-15.027-.007-.021c-.586-1.857-1.637-3.507-3.009-4.83 1.271-3.924 1.272-8.068.772-11.748 1.296-.975 2.323-2.308 2.887-3.9.749-2.117.626-4.4-.346-6.432-.235-.492-.516-.953-.832-1.384l6.036-5.128-.67-.777 2.454-2.094.675.783 2.457-2.09-6.331-7.352m-26.909 31.595l-2.357-2.731 1.242-1.537 2.83 3.287-1.715.981m-9.945-3.312l10.109 10.084-.938.937-10.111-10.08.94-.941m21.706 26.571c-3.583 0-6.484-2.879-6.484-6.434s2.901-6.436 6.484-6.436c3.58 0 6.483 2.881 6.483 6.436s-2.903 6.434-6.483 6.434m9.821-31.049c-.934 2.639-3.426 4.285-6.091 4.285-.72 0-1.452-.12-2.17-.373-3.378-1.193-5.153-4.873-3.968-8.225.933-2.637 3.422-4.284 6.086-4.285.721 0 1.455.121 2.174.375 3.376 1.189 5.152 4.875 3.969 8.223m5.094-14.191l-3.029-3.519 2.454-2.092 3.03 3.518-2.455 2.093"/><ellipse transform="matrix(.3335-.9427.9427.3335 2.5145 50.8575)" cx="37.226" cy="23.65" rx="3.219" ry="3.243"/><ellipse cx="33.521" cy="50.419" rx="3.244" ry="3.218"/></svg>