<svg xmlns="http://www.w3.org/2000/svg" viewBox="0 0 64 64" enable-background="new 0 0 64 64"><path d="m57.043 24.593c-3.016-7.214-12.285-15.906-12.285-15.906s2.994 7.435.826 17.266l3.51-3.038c0 0 3.342 1.434 3.717 4.958.467 4.355-2.029 10.567-2.029 10.567s-5.506-1.738-13.92-1.617l-3.01-19.583 7.154 4.69-9.006-19.93-9.009 19.93 7.157-4.69-3.01 19.583c-8.416-.121-13.922 1.617-13.922 1.617s-2.494-6.212-2.028-10.567c.375-3.524 3.715-4.958 3.715-4.958l3.511 3.038c-2.168-9.832.826-17.266.826-17.266s-9.27 8.692-12.285 15.906c-3.097 7.407-4.955 16.225-4.955 16.225l6.399 5.914c0 0 5.649-1.664 9.963-1.998 4.129-.318 8.93-.398 8.93-.398l-.618 8.711 5.326 8.953 5.326-8.953-.621-8.711c0 0 4.801.08 8.93.398 4.314.334 9.963 1.998 9.963 1.998l6.402-5.914c0 0-1.859-8.818-4.957-16.225"/></svg>