<svg xmlns="http://www.w3.org/2000/svg" viewBox="0 0 64 64" enable-background="new 0 0 64 64"><path d="m52.117 2.118c-.536-.229-1.159-.12-1.585.269l-18.532 16.941-18.533-16.941c-.427-.389-1.049-.497-1.584-.269-.536.227-.883.741-.883 1.311v39.285c0 .396.167.772.463 1.043l19.535 17.856c.281.258.642.387 1.002.387.359 0 .72-.129 1.002-.387l19.535-17.856c.295-.271.463-.648.463-1.043v-39.285c0-.57-.348-1.084-.883-1.311m-38.187 39.978v-35.37l17.068 15.603c.007.007.018.009.025.016v35.377l-17.093-15.626m36.139 0l-17.092 15.625v-35.377c.008-.007.018-.009.025-.016l17.067-15.602v35.37"/></svg>