<svg xmlns="http://www.w3.org/2000/svg" viewBox="0 0 64 64" enable-background="new 0 0 64 64"><path d="m62 21c0-.55-.449-1-1-1v-7c0-.55-.451-1-1-1h-.072l-.348-2.015c.436.007.83-.351.83-1.237 0-2.022-1.314-2.046-.623-4.748 0 0-1.688 1.82-1.324 4.74.074.601.42 1.012.801 1.173l-.336 2.087h-.07c-.551 0-1 .45-1 1v7c-.551 0-1 .45-1 1 0 .404.246.752.594.909.064.954.344 1.785.758 2.346-.212.183-.353.445-.353.745 0 .35.193.644.467.822-1.127 13.186-11.972 23.635-25.324 24.135v-4.955c10.586-.49 19.194-8.647 20.358-19.046.445-.102.785-.482.785-.956 0-.3-.141-.562-.352-.745.414-.561.693-1.391.758-2.346.348-.156.594-.504.594-.909 0-.55-.449-1-1-1v-7c0-.55-.449-1-1-1h-.07l-.348-2.015c.436.007.83-.352.83-1.237 0-2.022-1.316-2.046-.625-4.748 0 0-1.688 1.82-1.324 4.74.074.602.422 1.012.803 1.173l-.337 2.087h-.072c-.549 0-1 .45-1 1v7c-.549 0-1 .45-1 1 0 .404.246.753.596.909.064.955.344 1.785.756 2.346-.211.183-.352.445-.352.745 0 .306.148.571.367.755-1.062 9.391-8.816 16.76-18.367 17.247v-4.5c7.042-.467 12.756-5.805 13.809-12.672.279-.178.479-.476.479-.83 0-.288-.127-.543-.324-.726.002-.022.004-.044.004-.066.395-.56.662-1.37.725-2.299.348-.157.594-.505.594-.909 0-.55-.449-1-1-1v-7c0-.55-.449-1-1-1h-.07l-.348-2.015c.436.007.83-.352.83-1.237 0-2.022-1.316-2.046-.625-4.748 0 0-1.688 1.82-1.324 4.74.074.602.422 1.012.803 1.173l-.338 2.087h-.072c-.549 0-1 .45-1 1v7c-.549 0-1 .45-1 1 0 .405.248.753.596.91.064.954.344 1.784.756 2.345-.212.183-.352.445-.352.745 0 .419.264.776.631.925-1.061 5.718-5.868 10.125-11.774 10.577v-5.018c3.129-.394 5.704-2.594 6.629-5.525.451-.096.801-.48.801-.959 0-.3-.141-.562-.352-.745.412-.561.691-1.392.756-2.346.348-.156.596-.505.596-.909 0-.55-.451-1-1-1v-7c0-.55-.451-1-1-1h-.072l-.348-2.015c.436.007.83-.351.83-1.237 0-2.022-1.314-2.046-.623-4.748 0 0-1.688 1.82-1.324 4.74.074.601.42 1.012.801 1.173l-.337 2.087h-.07c-.551 0-1 .45-1 1v7h-.002c-.549 0-1 .45-1 1 0 .405.248.753.596.91.064.954.344 1.784.756 2.345-.211.184-.35.445-.35.745 0 .279.117.531.305.714-.754 1.941-2.486 3.394-4.592 3.749v-6.948c.532-.541.901-1.488.977-2.605.348-.156.596-.505.596-.909 0-.55-.451-1-1-1v-7c0-.55-.451-1-1-1h-.073l-.348-2.015c.436.007.83-.351.83-1.237 0-2.022-1.316-2.046-.625-4.748 0 0-1.687 1.82-1.324 4.74.075.601.422 1.012.802 1.173l-.335 2.086h-.072c-.549 0-1 .45-1 1v7h.001c-.55 0-1 .45-1 1 0 .404.247.753.595.909.076 1.117.446 2.064.977 2.605v6.948c-2.105-.355-3.838-1.807-4.591-3.749.188-.182.306-.435.306-.714 0-.3-.141-.562-.352-.745.413-.561.692-1.391.756-2.345.349-.157.596-.505.596-.91 0-.55-.451-1-1-1h-.001v-7c0-.55-.45-1-1-1h-.071l-.348-2.015c.435.007.83-.351.83-1.237 0-2.022-1.316-2.046-.625-4.748 0 0-1.688 1.82-1.324 4.74.075.601.422 1.012.802 1.173l-.336 2.088h-.073c-.549 0-1 .45-1 1v7h.001c-.55 0-1 .45-1 1 0 .404.247.753.595.909.064.955.344 1.785.756 2.346-.211.183-.351.445-.351.745 0 .479.348.863.8.959.926 2.932 3.5 5.132 6.629 5.525v5.018c-5.906-.452-10.713-4.859-11.773-10.577.368-.148.63-.506.63-.925 0-.3-.141-.562-.352-.745.412-.561.691-1.391.756-2.345.349-.157.596-.505.596-.91 0-.55-.451-1-1-1v-7c0-.55-.451-1-1-1h-.072l-.348-2.015c.435.007.83-.351.83-1.237 0-2.022-1.315-2.046-.624-4.748 0 0-1.688 1.82-1.324 4.74.075.601.421 1.012.801 1.173l-.335 2.087h-.071c-.55 0-1 .45-1 1v7h.001c-.551 0-1 .45-1 1 0 .404.246.752.594.909.063.929.33 1.739.725 2.299.001.022.002.044.003.066-.196.183-.322.438-.322.726 0 .354.197.652.477.83 1.053 6.867 6.766 12.205 13.808 12.672v4.5c-9.55-.487-17.305-7.855-18.367-17.247.219-.184.367-.449.367-.755 0-.3-.141-.562-.352-.745.412-.561.691-1.391.756-2.345.349-.156.596-.505.596-.91 0-.55-.45-1-1-1v-7c0-.55-.45-1-1-1h-.071l-.348-2.015c.435.007.83-.352.83-1.237 0-2.022-1.315-2.046-.624-4.748 0 0-1.688 1.82-1.324 4.74.074.601.421 1.012.801 1.173l-.335 2.087h-.071c-.551 0-1 .45-1 1v7c-.551 0-1 .45-1 1 0 .404.246.752.594.909.064.954.344 1.785.757 2.346-.211.183-.352.445-.352.745 0 .474.341.854.786.956 1.163 10.398 9.772 18.556 20.357 19.046v4.955c-13.352-.5-24.197-10.948-25.325-24.134.275-.178.468-.473.468-.823 0-.3-.14-.562-.351-.745.413-.561.692-1.391.756-2.346.348-.156.595-.504.595-.909 0-.55-.449-1-1-1v-7c0-.55-.45-1-1-1h-.072l-.347-2.015c.435.007.83-.352.83-1.237 0-2.022-1.316-2.046-.624-4.748 0 0-1.688 1.82-1.324 4.74.074.601.421 1.012.801 1.173l-.336 2.087h-.071c-.551 0-1 .45-1 1v7c-.55 0-1 .45-1 1 0 .404.247.753.595.909.064.955.344 1.785.756 2.346-.211.183-.351.445-.351.745 0 .436.287.799.679.935 1.187 14.235 12.904 25.52 27.321 26.022v2.164c-1.722.379-3 1.629-3 2.344-2.389.598-4 1.709-4 2.986 0 1.904 3.582 2.549 8 2.549 4.418 0 8-.645 8-2.549 0-1.277-1.611-2.389-4-2.986 0-.715-1.277-1.965-3-2.344v-2.164c14.418-.502 26.133-11.787 27.32-26.022.393-.136.68-.499.68-.935 0-.3-.141-.562-.352-.745.412-.561.691-1.391.756-2.345.35-.156.596-.505.596-.91"/></svg>