<svg xmlns="http://www.w3.org/2000/svg" viewBox="0 0 64 64" enable-background="new 0 0 64 64"><path d="m31.961 23.549l-.941 1.612h1.884z"/><path d="m36.771 31.772l-.724 1.24h1.45z"/><path d="m31.961 36.453l.943-1.611h-1.884z"/><path d="m37.497 26.991h-1.449l.723 1.238z"/><path d="m33.974 33.012l1.761-3.011-1.761-3.01h-4.025l-1.761 3.01 1.761 3.011z"/><path d="m27.152 31.773l-.724 1.239h1.448z"/><path d="m27.875 26.991h-1.447l.724 1.237z"/><path d="m22.323 44c-2.13 0-3.855 1.792-3.855 4h2.892 1.927 2.892c-.001-2.208-1.727-4-3.856-4"/><path d="m31.961 44c-2.129 0-3.854 1.792-3.854 4h2.892 1.927 2.892c-.002-2.208-1.727-4-3.857-4"/><path d="m41.6 44c-2.129 0-3.854 1.792-3.854 4h2.892 1.927 2.892c-.002-2.208-1.728-4-3.857-4"/><path d="m7.61 42.667c-1.314 0-2.378 1.111-2.378 2.479h-1.426v10.928h2.853v-10.928c0-.549.426-.991.952-.991s.951.442.951.991v10.928h2.853v-10.928h-1.428c0-1.368-1.063-2.479-2.377-2.479"/><path d="m3.806 45.146c0-2.189 1.703-3.965 3.805-3.965 2.101 0 3.804 1.775 3.804 3.965v-8.919h-7.609v8.919"/><path d="m3.806 24.362c-.525 0-.951.443-.951.991v.186 4.769h1.901v-4.769-.186c0-.548-.425-.991-.95-.991"/><path d="m12.365 25.539v-.186c0-.548-.424-.991-.951-.991-.524 0-.95.443-.95.991v.186 4.769h1.901v-4.769"/><path d="m8.562 25.539v-.186c0-.548-.425-.991-.951-.991s-.952.443-.952.991v.186 4.769h1.903v-4.769"/><path d="m55.439 45.146c0-.549.426-.991.951-.991.527 0 .951.442.951.991v10.928h2.854v-10.928h-1.427c0-1.367-1.063-2.479-2.378-2.479-1.313 0-2.378 1.111-2.378 2.479h-1.427v10.928h2.854v-10.928"/><path d="m56.391 41.181c2.102 0 3.805 1.775 3.805 3.965v-8.919h-7.609v8.919c-.001-2.19 1.702-3.965 3.804-3.965"/><path d="m52.586 24.362c-.525 0-.95.443-.95.991v.186 4.769h1.901v-4.769-.186c0-.548-.425-.991-.951-.991"/><path d="m60.195 24.362c-.524 0-.95.443-.95.991v.186 4.769h1.901v-4.769-.186c0-.548-.424-.991-.951-.991"/><path d="m62.627 19.408l1.082-2.973h-.002c.106-.306.166-.635.166-.991 0-2.219-2.204-3.734-3.74-4.955-1.01-.802-1.838-1.49-2.317-2.119-.834-1.096-1.185-2.064-1.342-5.419l.335-.64h.83l-.417-.801.417-.71h-.83l-.418-.8-.416.8h-.831l.417.71-.417.801h.831l.334.642c-.15 2.975-.542 4.289-1.338 5.414-.46.646-1.31 1.318-2.32 2.122-1.535 1.221-3.742 2.736-3.742 4.955 0 .355.06.685.167.991h-.002l1.082 2.973-1.349 1.945-10.934-5.672v-1.681c0-3.382-2.651-6.133-5.912-6.133-3.26 0-5.911 2.751-5.911 6.133v1.681l-10.876 5.642-1.328-1.916 1.082-2.973h-.002c.106-.306.166-.635.166-.991 0-2.219-2.203-3.734-3.74-4.955-1.01-.802-1.838-1.49-2.317-2.119-.835-1.095-1.185-2.063-1.343-5.418l.335-.64h.83l-.416-.801.416-.71h-.83l-.417-.8-.417.8h-.831l.418.71-.418.801h.831l.334.642c-.15 2.975-.542 4.289-1.338 5.414-.459.646-1.31 1.318-2.32 2.122-1.533 1.221-3.742 2.736-3.742 4.955 0 .355.06.685.167.991h-.002l1.082 2.973-1.374 1.982v42.61h64v-42.61l-1.373-1.982m-2.163-6.019c.791 2.444-.084 4.296-1.878 5.523 1.007-1.469 1.281-3.496.446-6.083-.486-1.492-1.2-2.744-2.018-3.826 1.434 1.076 2.815 2.429 3.45 4.386m-8.144 0c.632-1.958 2.013-3.311 3.447-4.386-.817 1.082-1.532 2.334-2.016 3.826-.836 2.588-.56 4.614.446 6.083-1.795-1.227-2.669-3.079-1.877-5.523m-40.637 0c.791 2.444-.084 4.296-1.878 5.523 1.007-1.469 1.281-3.496.446-6.083-.486-1.492-1.199-2.744-2.018-3.826 1.435 1.076 2.815 2.429 3.45 4.386m-8.144 0c.633-1.958 2.013-3.311 3.447-4.386-.816 1.082-1.531 2.334-2.016 3.826-.836 2.588-.56 4.614.446 6.083-1.795-1.227-2.669-3.079-1.877-5.523m-1.636 8.001h3.804 3.806 3.804v.897l-.181.094h-3.623-3.806-3.804v-.991m0 9.081v-.163-4.769-.349-.642h.264c.33-.589.937-.991 1.639-.991.704 0 1.309.402 1.64.991h.262.265c.33-.589.937-.991 1.639-.991.703 0 1.309.402 1.639.991h.264.265c.329-.589.936-.991 1.637-.991.705 0 1.31.402 1.641.991h.113c.007.063.01.128.018.192l.131-.068v.519.349 4.769.163.828h-3.807-3.806-3.804v-.829m6.659 31.415v-3.831h-1.904v3.831h-4.755v-28.605h11.413v28.585h-.159c-.002.008-.004.014-.006.02h-4.589m38.821-.02h-1.928v-11.866h-2.892v11.866h-1.927v-11.866h-2.892v11.866h-1.929v-11.866h-2.892v11.866h-1.927v-11.866h-2.892v11.866h-1.929v-11.866h-2.892v11.866h-1.927v-11.866h-2.892v11.866h-1.929v-13.866c0-3.313 2.591-6 5.784-6 2.013 0 3.784 1.069 4.819 2.688 1.04-1.619 2.811-2.688 4.823-2.688 2.013 0 3.785 1.069 4.819 2.688 1.035-1.619 2.809-2.688 4.82-2.688 3.195 0 5.783 2.688 5.783 6v13.866m-24.097-36.705h5.659l3.016-5.161 3.018 5.161h5.658l-2.829 4.839 2.829 4.841h-5.66l-3.016 5.159-3.014-5.158h-5.661l2.829-4.842-2.829-4.839m10.604-6.925v-4.236c0-1.102-.864-2-1.929-2-1.063 0-1.928.898-1.928 2v4.236l-14.813 7.685v-2.236l12.886-6.685v-3c0-2.209 1.726-4 3.854-4 2.13 0 3.855 1.791 3.855 4v3l12.965 6.726v2.236l-14.89-7.726m28.208 43.65h-4.756v-3.831h-1.902v3.831h-4.755v-28.605h11.413v28.605m0-36.696v.349 4.769.163.828h-3.804-3.806-3.804v-.828-.163-4.769-.349-.642h.264c.33-.589.937-.991 1.638-.991.703 0 1.309.402 1.639.991h.264.265c.33-.589.937-.991 1.638-.991.704 0 1.31.402 1.64.991h.264.264c.33-.589.937-.991 1.638-.991.705 0 1.309.402 1.641.991h.262v.642zm0-2.809h-3.804-3.806-3.701l-.103-.054v-.937h3.804 3.806 3.804v.991"/><path d="m56.391 24.362c-.525 0-.951.443-.951.991v.186 4.769h1.902v-4.769-.186c0-.548-.424-.991-.951-.991"/></svg>