<svg xmlns="http://www.w3.org/2000/svg" viewBox="0 0 64 64" enable-background="new 0 0 64 64"><path d="m57.913 10.155c4.445-3.391 5.236-8.155 2.508-8.155-1.994 0-5.872 2.55-11.578 10.035 1.114-7.063-1.008-8.974-3.442-4.774-5.126 8.845-14.229 14.902-16.847 21.537-.137.196-.289.389-.408.589-2.291-1.092-4.623-1.73-6.952-1.73-2.622 0-4.58 1.482-5.336 3.058l-1.683 1.29c-.4-.915-.857-1.799-1.361-2.647-.301-.515-.623-1.021-.953-1.52.484-.363 2.941-2.31 2.652-4.292-.323-2.196-.36-2.416-.313-3.567 0 0-2.509 1.027-2.012 3.864.418 2.392-.16 3.625-.353 3.957-.587-.883-1.22-1.733-1.891-2.54.563-.851 1.993-3.259 1.294-4.858-.862-1.971-.953-2.167-1.197-3.282 0 0-2.13 1.916-.941 4.431.808 1.713.805 2.943.722 3.563-.647-.768-1.329-1.493-2.042-2.158-.428-1.136-1.458-3.412-2.836-3.41-1.835.001-2.019.009-2.944-.248 0 0 .396 3.182 2.781 3.082 1.361-.057 2.204.342 2.687.696.736.77 1.457 1.584 2.106 2.46.044.058.083.121.126.178-.926-.135-3.288-.314-4.028 1.22-.928 1.927-1.015 2.124-1.668 2.964 0 0 2.46 1.195 3.595-1.355.831-1.861 1.767-2.472 2.215-2.669.5.667.975 1.358 1.426 2.074-.983.259-3.091 1.001-3.382 2.668-.382 2.182-.414 2.404-.814 3.447 0 0 2.642.195 3.06-2.661.271-1.845.875-2.789 1.27-3.23.314.508.632 1.014.918 1.546.479.892.896 1.813 1.27 2.757l-1.945 1.491 2.394-.294c.792 2.268 1.347 4.65 1.808 7.071.023-.001.048-.003.073-.004.106-2.509-.321-4.915-1.105-7.163l1.755-.216c.831.61 1.92 1.19 2.29 1.707 1.175 1.646-2.309 8.259 15.888 12.503 10.809 2.521 7.742 10.939 11.487 13.738.671.5 1.257.691 1.757.691 1.574 0 2.323-1.873 2.323-1.873 1.015.383 1.802.539 2.412.539 2.863 0 1.804-3.467 1.804-3.467.754.25 1.328.355 1.759.355 2.315 0 .529-3.027.529-3.027s3.016-.857 1.608-2.873c-1.962-2.813-8.497-.455-12.368-5.571-1.364-1.804-2.837-3.646-4.394-5.438 3.988-1.422 11.652-1.936 7.422-5.251 0 0 8.861-2.458 2.564-4.803 0 0 12.519-3.328 3.018-5.164 0 0 12.216-6.066.866-6.671-.001.002 12.744-6.729 2.406-8.6m-3.108 7.276l-4.791 2.536 5.413.289c1.995.106 2.896.374 3.275.542-.574.794-2.643 2.249-4.73 3.288l-3.969 1.975 4.352.841c.789.152 1.341.302 1.723.43-1.042.576-2.982 1.317-4.841 1.812l-4.55 1.212 4.412 1.643c.49.183.813.343 1.021.466-.656.47-2.118 1.11-3.464 1.485l-2.857.797 2.334 1.829c.23.18.385.325.488.435-.783.453-2.785.948-4.047 1.26-1.186.293-2.412.596-3.441.963l-2.07.738 1.441 1.658c1.412 1.624 2.868 3.427 4.33 5.359 2.585 3.416 6.227 3.979 8.885 4.391 1.599.246 2.979.459 3.449 1.135.033.047.057.086.072.115-.158.152-.55.363-.86.455l-1.869.531.987 1.674c.115.195.24.469.328.717-.209-.039-.488-.109-.854-.23l-2.713-.889.805 2.744c.174.588.162 1.34.027 1.471-.017.014-.131.064-.394.064-.323 0-.911-.076-1.884-.441l-1.354-.494-.562 1.326c-.105.252-.525.943-.936.943-.124 0-.401-.051-.859-.393-.908-.68-1.31-2.094-1.775-3.734-1.01-3.555-2.393-8.426-10.269-10.263-13.675-3.19-14.14-7.466-14.39-9.764-.085-.78-.165-1.517-.618-2.151-.411-.576-1.097-1.025-1.823-1.5-.361-.237-.929-.608-1.188-.855.215-1.031 1.677-2.684 4.154-2.684 1.979 0 4.101.533 6.306 1.584l1.23.586.701-1.167c1.59-2.647 5.189-5.02 9.002-7.532 4.188-2.761 8.52-5.615 11.457-9.493 5.763-7.606 9.333-9.635 10.532-9.635.022 0 .041 0 .057.002.199.598-.424 3.133-3.475 5.461l-2.703 2.062 3.346.606c2.467.446 2.811 1.07 2.811 1.072.103.727-2.485 3.052-5.652 4.728"/><circle cx="20.011" cy="30.849" r="1.092"/></svg>