<svg xmlns="http://www.w3.org/2000/svg" viewBox="0 0 64 64" enable-background="new 0 0 64 64"><path d="m57.927 27v-8l-3.63-12.25v-2.653c.304-.174.518-.48.518-.847s-.214-.673-.518-.847v-.556c.304-.174.518-.48.518-.847 0-.033-.007-.067-.01-.1-.053.395-.396.7-.82.7-.457 0-.829-.358-.829-.799 0-.409.317-.741.726-.792-.035-.001-.069-.009-.105-.009-.572 0-1.037.447-1.037 1 0 .367.214.673.52.847v.556c-.306.174-.52.48-.52.847s.214.673.52.847v2.653l-3.631 12.25v8h-2.073v2l2.073 2v6 3.933h-1.019c.64-1.232 1.019-2.549 1.019-3.933 0-4.165-3.287-8.266-7.809-10.4-5.103-2.409-8.161-4.422-9.302-5.224v-1.447c.894-.223 1.556-.998 1.556-1.929 0-.93-.662-1.706-1.556-1.929v-2.121c2.617-.254 4.667-2.359 4.667-4.95 0-.17-.035-.333-.054-.5-.256 1.971-1.981 3.5-4.095 3.5-2.291 0-4.147-1.791-4.147-4 0-2.038 1.586-3.701 3.629-3.949-.172-.018-.34-.051-.518-.051-2.863 0-5.186 2.239-5.186 5 0 2.59 2.051 4.695 4.667 4.95v2.121c-.894.224-1.556 1-1.556 1.929 0 .931.662 1.706 1.556 1.929v1.447c-1.141.802-4.199 2.815-9.302 5.224-4.521 2.134-7.809 6.235-7.809 10.4 0 1.384.379 2.7 1.019 3.933h-1.019v-3.933-6l2.073-2v-2h-2.073v-8l-3.63-12.25v-2.653c.306-.174.52-.48.52-.847s-.214-.673-.52-.847v-.556c.306-.174.52-.48.52-.847 0-.033-.007-.067-.01-.1-.054.395-.398.7-.82.7-.458 0-.829-.358-.829-.799 0-.409.317-.741.726-.792-.036-.001-.069-.009-.104-.009-.575 0-1.037.447-1.037 1 0 .367.214.673.519.847v.557c-.306.173-.519.479-.519.846s.214.673.519.847v2.653l-3.631 12.25v8h-2.074v2l2.074 2v33h51.853v-33l2.073-2v-2h-2.073m-45.172 35.399h-5.066v-31.399h5.065v31.399zm0-35.399h-.977v-2.592c.318-.301.519-.691.519-1.123 0-.594-.387-1.181-.919-1.484-.781-.448-1.155-.801-1.155-.801s-.376.353-1.156.801c-.532.304-.918.891-.918 1.484 0 .431.199.822.518 1.123v2.592h-.978v-7.77l2.533-8.548 2.532 8.548v7.77zm1.636 15.533h35.219v19.866h-12.423v-2.844c.674-.882 1.035-1.915 1.035-2.984 0-1.859-1.118-3.698-2.851-4.691-1.285-.732-1.921-1.309-1.921-1.309l-1.439-1.337-1.449 1.326c-.007.007-.644.585-1.935 1.321-1.73.991-2.849 2.83-2.849 4.689 0 1.069.361 2.103 1.036 2.984v2.844h-12.423v-19.865m14.498 19.866v-3.585c-.639-.598-1.036-1.384-1.036-2.243 0-1.189.771-2.361 1.835-2.971 1.561-.892 2.312-1.6 2.312-1.6s.751.708 2.313 1.601c1.063.609 1.835 1.781 1.835 2.971 0 .859-.397 1.646-1.037 2.243v3.585h-6.222zm27.422 0h-5.065v-31.399h5.065v31.399m0-35.399h-.977v-2.592c.318-.301.519-.691.519-1.123 0-.594-.387-1.181-.919-1.484-.782-.448-1.157-.801-1.157-.801s-.375.353-1.155.801c-.532.304-.919.891-.919 1.484 0 .431.2.822.519 1.123v2.592h-.977v-7.77l2.532-8.548 2.533 8.548v7.77z"/><path d="m22.808 46.149c-.507-.292-.767-.516-.77-.516l.002.002-1.428-1.299-1.445 1.277c-.003.002-.264.231-.792.535-1.173.674-1.931 1.931-1.931 3.203 0 .634.18 1.248.519 1.793v3.922h7.259v-3.922c.339-.545.519-1.159.519-1.793-.001-1.271-.758-2.528-1.933-3.202m-.66 4.327v2.592h-3.111v-2.592c-.318-.302-.519-.692-.519-1.123 0-.594.387-1.181.919-1.484.779-.448 1.155-.801 1.155-.801s.374.353 1.155.801c.531.304.918.891.918 1.484.001.43-.197.821-.517 1.123"/><path d="m39.778 55.067h7.259v-3.922c.339-.545.519-1.159.519-1.793 0-1.272-.758-2.529-1.932-3.203-.509-.292-.769-.516-.771-.516l.001.002-1.427-1.299-1.445 1.277c-.003.002-.264.231-.791.535-1.175.674-1.932 1.931-1.932 3.203 0 .634.181 1.248.519 1.793v3.923m2.474-7.199c.78-.448 1.155-.801 1.155-.801s.375.353 1.155.801c.532.304.92.891.92 1.484 0 .431-.201.821-.52 1.123v2.592h-3.111v-2.592c-.319-.302-.518-.692-.518-1.123.001-.593.388-1.18.919-1.484"/></svg>