<svg xmlns="http://www.w3.org/2000/svg" viewBox="0 0 64 64" enable-background="new 0 0 64 64"><g fill-rule="evenodd"><path d="m57.244 29.604c-1.867-3.078-5.027-6.358-9.898-6.325-6.857.046-9.533 5.497-11.82 10.063-.713 1.422-1.854 3.618-3.461 3.93-1.908.37-2.973-.726-4.229-1.246 2.625-2.122 4.979-4.6 5.383-8.53.65-6.333-3.262-10.315-8.457-10.734-5.027-.406-9.073.971-12.302 2.779-.87.487-2.634 1.55-2.691 2.396-.041.611 2.172 3.588 3.941 7.763 2.293-1.473 5.539-4.166 9.226-4.504 6.402-.587 6.908 5.634.576 6.805-2.625.484-4.949-.195-7.112-.575 1.216 2.799-.63 8.066 1.538 9.968 2.037 1.787 4.892-.36 7.207-.287 3.369.106 5.744 3.811 4.133 7.477-2.072 4.713-10.082 5.896-14.895 2.875-9.199-5.774-7.544-16.678-9.227-16.678-2.221-.002-3.258 27.219 16.53 27.219 7.92 0 14.586-5.953 13.936-14.377-.189-2.451-1.123-4.625-1.73-6.518 1.629.176 3.229.034 4.709-.191-2.031 3.484-.703 10.032 1.057 12.651 2.641 3.928 8.939 5.281 13.551 2.205 3.828-2.553 6.369-6.749 6.729-12.652.328-5.43-.62-10.096-2.694-13.514m-10.283 18.403c-4.555.483-7.445-1.905-7.783-7.188 3.814-1.569 5.074-8.202 9.705-10.927 4.008-2.358 6.271 2.432 6.535 5.847.496 6.415-2.992 11.687-8.457 12.268"/><path d="m39.225 13.502c0 0 5.533-3.808 5.525-5.799-.008-1.974-5.525-5.703-5.525-5.703s-5.518 3.712-5.525 5.703c-.009 2.008 5.525 5.799 5.525 5.799"/><path d="m37.832 21.457c7.871 1.771 17.875-4.362 17.875-6.422 0-2.626-4.729-5.121-5.574-6.229-2.537 3.265-7.109 7.418-12.975 5.846-5.861-1.57-8.264-9.297-8.264-9.297-.791 2.497-.781 5.519.096 7.859 1.315 3.508 5.092 7.399 8.842 8.243"/></g></svg>