<svg xmlns="http://www.w3.org/2000/svg" viewBox="0 0 64 64" enable-background="new 0 0 64 64"><path d="m12.47 55.191l-2.813-2.812v2.055l2.813 2.812z"/><path d="m19.97 59.344v-2.188h-5.47v.067l-1.719-1.719v2.055l1.719 1.72v.065z"/><path d="m20.281 57.156h2.97v2.188h-2.97z"/><path d="m27.405 59.656h3.689v2.344h-3.689z"/><path d="m15.906 59.656h5.938v2.344h-5.938z"/><path d="m9.344 52.066l-3.437-3.437v2.055l3.437 3.439z"/><path d="m22.156 59.656h4.937v2.344h-4.937z"/><path d="m5.594 48.316l-2.499-2.5v2.055l2.499 2.502z"/><path d="m2 49.5l2.344 2.344v-2.278l-2.344-2.343z"/><path d="m2.781 45.504l-.781-.781v2.054l.781.784z"/><path d="m6.845 52.066l-2.189-2.187v2.277l2.5 2.5-.311-.312z"/><path d="m7.156 52.379v2.277l4.063 4.063v-2.278z"/><path d="m14.5 59.723l-2.968-2.969v2.277l-.313-.312 3.281 3.281h1.094v-2.344h-1.094z"/><path d="m47.781 57.156h5.313v2.188h-5.313z"/><path d="m45.751 59.656h5.391v2.344h-5.391z"/><path d="M 56.532,59.656 H62 V62 H56.532 z"/><path d="m51.453 59.656h4.766v2.344h-4.766z"/><path d="m53.406 57.156h4.688v2.188h-4.688z"/><path d="m58.407 57.156h3.593v2.188h-3.593z"/><path d="m44.031 57.156h3.438v2.188h-3.438z"/><path d="m34.656 59.656h5.47v2.344h-5.47z"/><path d="m33.25 57.156h4.844v2.188h-4.844z"/><path d="m38.406 57.156h5.313v2.188h-5.313z"/><path d="m40.438 59.656h5v2.344h-5z"/><path d="m31.407 59.656h2.937v2.344h-2.937z"/><path d="m49.501 2h-47.501v30 10 2.279l2.344 2.344v-2.279l.313.313v2.277l3.438 3.439v-2.279l.313.313v2.277l2.188 2.188v-2.276l.312.312v2.279l3.594 3.592v.066h3.595v-2.342h.312v2.342h4.845v-2.342-.003-10-2.5-5h9.999v5 2.5 10 .002 2.342h2.969v-2.342h.313v2.342h5.313v-2.342h.313v2.342h4.063v-2.342h.312v2.342h4.61v-2.342h.312v2.342h4.766v-2.342h.313v2.342h5.463v-2.342-10.002-30l-12.499-12.5m-1.036 2.5l7.5 7.5h-40.43l-7.5-7.5h40.43m-45.215 21.25l2.5 2.5v5l-2.5-2.5v-5m19.001 27.752h-7.335l-11.916-11.916v-7.172l10.793 10.793.293.293h.414 7.751v8.002m-15.61-23.854l.359-.148.358.855c0 0-.106.367.094 1.162.096.377.173.795.173 1.223 0 .416-.103.592-.16.881-.108.531-.218 1.063-.465.818-.246-.242-.356-.99-.465-1.736-.057-.402-.159-.781-.159-1.195 0-.43.077-.693.173-.883.2-.398.092-.977.092-.977m1.61 6.102v-5l2.499 2.5v5l-2.499-2.5m3.391-1.102l.359-.148.358.855c0 0-.108.369.093 1.162.095.379.173.795.173 1.225 0 .414-.103.59-.159.879-.109.531-.219 1.063-.465.818-.248-.242-.357-.99-.466-1.736-.058-.402-.16-.781-.16-1.195 0-.43.078-.693.173-.883.201-.398.094-.977.094-.977m1.608 6.102v-5l1.25 1.25h2.5v5h-2.5l-1.25-1.25m5.801-3.242l1.074-.508 1.075.508c0 0-.322.479.279 1.082.289.287.521.633.521 1.066 0 .42-.305.701-.479 1.051-.324.647-.658 1.293-1.396 1.293-.737 0-1.071-.646-1.396-1.293-.174-.35-.479-.631-.479-1.051 0-.434.233-.779.52-1.066.603-.604.281-1.082.281-1.082m41.949 15.994h-26.75v-8.002h26.75v8.002m-25.699-15.994l1.075-.508 1.073.508c0 0-.322.479.281 1.082.286.287.521.633.521 1.066 0 .42-.307.701-.48 1.051-.325.647-.659 1.293-1.395 1.293-.738 0-1.072-.646-1.396-1.293-.175-.35-.479-.631-.479-1.051 0-.434.232-.779.52-1.066.602-.604.28-1.082.28-1.082m4.199 4.492v-5h13.751v5h-13.751m15.802-4.492l1.073-.508 1.074.508c0 0-.322.479.281 1.082.286.287.52.633.52 1.066 0 .42-.305.701-.479 1.051-.324.647-.659 1.293-1.396 1.293-.736 0-1.072-.646-1.396-1.293-.175-.35-.479-.631-.479-1.051 0-.434.233-.779.521-1.066.603-.604.281-1.082.281-1.082m5.698 4.492h-1.5v-5h1.5v5m0-7.5h-46.5l-11.25-11.251v-5l11.25 11.251h46.5v5"/><path d="m25.75 47h5.001l1.249-1.25-1.249-1.25h-5.001l-1.25 1.25z"/><circle cx="30.75" cy="50.75" r="1.25"/><circle cx="25.75" cy="50.75" r="1.25"/><path d="m24.5 41.438c0 .168.122.281.191.42.13.26.264.518.559.518s.43-.258.559-.518c.069-.139.192-.252.192-.42 0-.174-.095-.313-.209-.426-.241-.242-.112-.434-.112-.434l-.43-.203-.431.203c0 0 .131.191-.111.434-.113.113-.208.252-.208.426"/><path d="m26.5 41.438c0 .168.121.281.191.42.131.26.264.518.559.518.294 0 .429-.258.558-.518.07-.139.192-.252.192-.42 0-.174-.094-.313-.208-.426-.241-.242-.112-.434-.112-.434l-.43-.203-.429.203c0 0 .128.191-.113.434-.114.113-.208.252-.208.426"/><path d="m28.5 41.438c0 .168.123.281.192.42.129.26.264.518.558.518.296 0 .429-.258.56-.518.069-.139.191-.252.191-.42 0-.174-.095-.313-.209-.426-.241-.242-.112-.434-.112-.434l-.43-.203-.43.203c0 0 .129.191-.112.434-.113.113-.208.252-.208.426"/><path d="m30.5 41.438c0 .168.122.281.192.42.129.26.264.518.558.518.295 0 .429-.258.559-.518.07-.139.191-.252.191-.42 0-.174-.094-.313-.208-.426-.241-.242-.111-.434-.111-.434l-.431-.203-.429.203c0 0 .128.191-.113.434-.114.113-.208.252-.208.426"/></svg>