<svg xmlns="http://www.w3.org/2000/svg" viewBox="0 0 64 64" enable-background="new 0 0 64 64"><path d="m53 29.433c0-1.287-1.104-2.486-2.989-3.517-1.196-.943-3.143-1.768-5.603-2.407v-10.791c0-1.917-4.079-3.518-9.557-3.938-.213-3.02-2.287-6.78-2.287-6.78 0 1.075-.623 1.919-2.57 5.708-.195.379-.344.722-.469 1.047-5.666.375-9.936 2.002-9.936 3.963v10.791c-2.458.64-4.403 1.464-5.601 2.407-1.884 1.029-2.988 2.23-2.988 3.517 0 2.454 3.949 4.602 9.87 5.815-.204.33-.325.674-.325 1.028 0 .928.744 1.789 2.012 2.5-.673 1.137-1.057 2.41-1.057 3.76 0 2.316 1.117 4.416 2.927 5.966-.597.259-1.12.546-1.538.861-5.251 1.183-8.773 3.356-8.773 5.843-.001 3.752 8.007 6.794 17.884 6.794 9.879 0 17.887-3.042 17.887-6.794 0-2.486-3.524-4.66-8.777-5.844-.418-.314-.939-.602-1.536-.86 1.809-1.55 2.927-3.649 2.927-5.966 0-1.35-.385-2.623-1.057-3.761 1.266-.711 2.01-1.571 2.01-2.499 0-.354-.119-.698-.324-1.029 5.92-1.214 9.87-3.361 9.87-5.814m-22.281-20.014c1.243-2.422 1.643-2.961 1.643-3.65 0 0 3.292 5.977.016 6.648-.105-.533-.18-1.071-.316-1.6-.22-.038-.385 1.436-.418 1.662-1.132-.033-2.142-.697-.925-3.06m-1.569 1.372c.143 1.292 1.258 1.709 2.426 1.709.022 0 .041-.003.063-.003-.051.358-.156.645-.041 1.012.037.115.209.618.369.643.209.033.369-.377.422-.52.135-.322.115-.611.039-.939-.02-.085-.031-.171-.048-.256 1.226-.186 1.915-.806 2.243-1.664 4.19.313 6.783 1.311 7.598 1.945-.975.758-4.461 2.051-10.221 2.051s-9.246-1.293-10.222-2.051c.8-.623 3.317-1.596 7.372-1.927m-7.56 4.127c2.213 1.112 6.044 1.851 10.41 1.851s8.197-.738 10.408-1.851v11.484c-.938.669-4.634 1.763-10.408 1.763-5.775 0-9.472-1.094-10.41-1.763v-11.484m20.57 37.153c2.848.85 4.336 1.887 4.336 2.403 0 .953-4.984 3.71-14.496 3.71-9.514 0-14.498-2.757-14.498-3.71 0-.517 1.488-1.554 4.336-2.403.866 1.953 5.082 3.435 10.162 3.435 5.079 0 9.295-1.482 10.16-3.435m-1.653-1.345c0 1.643-3.811 2.978-8.507 2.978-4.701 0-8.508-1.335-8.508-2.978 0-.644.583-1.238 1.572-1.724 1.852 1.341 4.273 2.162 6.936 2.162 2.661 0 5.084-.82 6.935-2.162.989.486 1.572 1.081 1.572 1.724m-8.507-2.964c-4.775 0-8.646-3.102-8.646-6.927 0-.54.085-1.063.231-1.566 2.093.876 5.082 1.428 8.414 1.428 3.33 0 6.32-.552 8.413-1.428.146.504.231 1.026.231 1.566.002 3.825-3.868 6.927-8.643 6.927m0-9.618c-4.77 0-8.721-1.122-9.497-2.593 2.854.475 6.075.748 9.497.748s6.642-.273 9.496-.748c-.776 1.47-4.726 2.593-9.496 2.593m0-6.006c-11.439 0-17.137-2.921-17.371-4.004.122-.584 1.78-1.663 4.961-2.56v1.228c0 1.857 5.557 3.363 12.41 3.363 6.855 0 12.408-1.506 12.408-3.363v-1.23c3.183.893 4.84 1.966 4.963 2.535-.234 1.11-5.932 4.031-17.371 4.031"/></svg>