<svg xmlns="http://www.w3.org/2000/svg" viewBox="0 0 64 64" enable-background="new 0 0 64 64"><path d="m38.738 50c-3.24 0-9.719 0-12.959 0-.721 0-.721.675-.721.675 0 2.698 3.602 4.047 7.201 4.047s7.199-1.349 7.199-4.047c.001 0 .001-.675-.72-.675"/><path d="m32.26 47.64c3.344-.001 5.016-2.36 3.344-2.36s-5.016 0-6.688 0 0 2.36 3.344 2.36"/><path d="m31.998 19.641c7.854 0 13.867-.426 18.493-1.065-4.883-9.326 1.675-19.556-4.618-15.765-5.164 3.113-10.248 3.928-13.875 3.928s-8.707-.813-13.875-3.928c-6.292-3.791.265 6.439-4.617 15.765 4.625.639 10.638 1.065 18.492 1.065"/><path d="m62 27.599c0-1.242-.441-.599-9.135-5.631-.008-.009-.014-.017-.021-.024-.45.07-11.446 1.797-20.846 1.797s-20.394-1.727-20.844-1.797c-.008.008-.014.016-.021.024-8.694 5.032-9.133 4.388-9.133 5.631 0 .392.134 2.594 6.02 4.374-2.256 5.14-.614 11.16 3.956 14.499l-.711 1.214-1.024-.583-4.833 8.231c-.449-.137-.777-.165-.866-.014l-.265.45c-.43.731 5.406 4.047 5.836 3.314l.264-.448c.089-.153-.102-.419-.447-.734l4.588-7.817c2.022 4.685 5.977 8.035 12.926 11.108 1.161.513 2.917.807 4.816.807s3.654-.294 4.816-.808c8.875-3.927 13.061-8.504 14.251-15.672 2.133-.367 4.331-1.723 4.331-5.745 0-3.649-1.461-4.759-2.706-5.043-.026-.681-.058-1.343-.096-1.983 8.968-1.843 9.144-4.698 9.144-5.15m-51.836 4.938c1.369.314 2.975.605 4.84.857-1.203.787-2.004 1.977-2.004 3.565.606-1.491 2.008-2.485 3.68-2.972-.552.697-.895 1.563-.895 2.514 0 2.271 1.871 4.11 4.178 4.11 2.309 0 4.18-1.84 4.18-4.11 0-.503-.105-.979-.273-1.426.956.683 1.727 1.602 2.131 2.796 0-1.563-.598-2.788-1.532-3.691 1.46.062 3.013.105 4.668.129.627 2.428.334 5.089-1.04 7.431-2.797 4.764-8.99 6.397-13.832 3.646-4.59-2.609-6.313-8.215-4.101-12.849m3.572 16.553l.248-.422c.079.239.164.475.252.707l-.5-.285m39.922-9.315c0 2.526-1.012 3.723-3.279 3.88l-.814.056-.106.797c-.928 6.924-4.63 11.098-13.202 14.891-.9.397-2.394.635-3.996.635s-3.096-.237-3.996-.635c-6.869-3.038-10.551-6.313-12.252-10.989 5.288 1.461 11.107-.697 13.982-5.593 1.568-2.673 1.97-5.688 1.384-8.491.21.001.407.004.62.004 2.508 0 4.789-.046 6.895-.126-1.521.758-2.633 2.115-2.633 4.098.349-1.029 1.012-1.819 1.836-2.408-.146.384-.236.794-.236 1.229 0 1.955 1.613 3.54 3.6 3.54 1.99 0 3.6-1.585 3.6-3.54 0-.82-.295-1.565-.77-2.165 1.44.419 2.648 1.274 3.17 2.559 0-1.841-1.252-3.063-2.916-3.644 1.397-.115 2.684-.25 3.867-.399.044.543.088 1.116.132 1.738.081 2.181-.146 3.767-.148 3.782l-.277 1.891 1.726-.876c.121-.062 1.202-.633 1.781-1.686.213-.389.392-.952.544-1.708h.004c.984-.002 1.484 1.063 1.484 3.16"/></svg>