<svg xmlns="http://www.w3.org/2000/svg" viewBox="0 0 64 64" enable-background="new 0 0 64 64"><path d="m56.933 48.137c-.711-3.016-3.234-9.021-4.796-11.799-.51-.907-2.681-1.611-5.757-2.115-.23-1.943-3.144-3.104-6.615-3.574v-8.579c3.908-1.511 6.682-5.27 6.682-9.676-.001-5.74-4.696-10.394-10.487-10.394-5.792 0-10.487 4.654-10.487 10.395 0 4.406 2.773 8.165 6.682 9.676v8.594c-2.916.41-5.418 1.312-6.234 2.758-.742.036-1.452.088-2.164.138-.975-.755-2.679-1.239-4.71-1.239-3.185 0-5.586 1.182-5.586 2.748v.188c-.808.321-1.375.68-1.601 1.081-1.561 2.777-4.086 8.783-4.797 11.799-.381 1.615 1.109 9.305 1.109 9.305.418 2.506 2.844 4.557 5.392 4.557h36.841c2.548 0 4.975-2.051 5.393-4.559 0 0 1.539-7.591 1.135-9.304m-19.168-25.514v10.652c-.387.098-1.004.194-1.805.194s-1.418-.097-1.805-.194v-10.652c.588.101 1.188.164 1.805.164s1.217-.063 1.805-.164m-5.61 10.068v1.387c0 .928 1.903 1.392 3.805 1.392s3.805-.464 3.805-1.392v-1.404c3.047.465 4.64 1.402 4.64 1.795 0 .531-2.883 2.068-8.385 2.068-5.503 0-8.387-1.537-8.387-2.068-.001-.388 1.551-1.307 4.522-1.778m-4.678 4.221c2.004 1.103 5.348 1.625 8.542 1.625 3.194 0 6.537-.522 8.541-1.625.721.375 1.096.741 1.096.994 0 .76-3.278 2.541-9.637 2.541-6.359 0-9.637-1.781-9.637-2.541 0-.253.374-.619 1.095-.994m-1.879 3.123c2.009 1.588 6.228 2.412 10.421 2.412 4.192 0 8.411-.824 10.421-2.411.295.297.467.591.467.86 0 1.42-4.241 3.482-10.888 3.482-6.648 0-10.889-2.063-10.889-3.482 0-.269.173-.563.468-.861m-6.552-6.715c2.624 0 4.584.923 4.584 1.748 0 .824-1.96 1.746-4.584 1.746-2.625 0-4.586-.922-4.586-1.746 0-.825 1.962-1.748 4.586-1.748m-4.586 3.349c.992.701 2.639 1.146 4.586 1.146 1.946 0 3.593-.444 4.584-1.146v1.454c-.794.812-2.562 1.328-4.584 1.328-2.023 0-3.792-.517-4.585-1.328v-1.454zm-4.194 11.308c.474.129.936.188 1.435.16l1.551-.084c2.081-.094 4.162-.182 6.244-.236 4.163-.129 8.326-.164 12.488-.178 4.164.016 8.327.051 12.49.18 2.081.055 4.163.143 6.244.238l1.56.082c.477.027.959-.031 1.427-.16.932-.27 1.789-.836 2.424-1.563-.475.82-1.234 1.547-2.23 1.98-.495.217-1.052.342-1.616.373l-1.563.084c-2.081.094-4.163.182-6.244.236-4.163.131-8.326.166-12.49.182-4.162-.014-8.325-.049-12.488-.18-2.082-.055-4.163-.141-6.244-.234l-1.571-.086c-.544-.031-1.119-.156-1.608-.375-.997-.434-1.757-1.16-2.23-1.98.633.727 1.49 1.291 2.421 1.561m43.438 3.89c-.474-.131-.937-.188-1.434-.162l-1.552.084c-2.082.096-4.163.184-6.245.236-4.162.131-8.325.166-12.489.18-4.163-.016-8.326-.051-12.488-.182-2.082-.055-4.163-.143-6.245-.236l-1.56-.082c-.477-.027-.958.031-1.426.16-.932.27-1.789.836-2.424 1.563.476-.82 1.234-1.547 2.231-1.98.495-.219 1.05-.342 1.616-.373l1.563-.086c2.082-.094 4.163-.182 6.245-.234 4.162-.131 8.325-.166 12.488-.184 4.164.016 8.327.051 12.489.18 2.082.055 4.163.143 6.245.236l1.571.086c.543.031 1.12.156 1.608.373.996.434 1.756 1.162 2.23 1.982-.634-.727-1.492-1.293-2.423-1.561"/></svg>