<svg xmlns="http://www.w3.org/2000/svg" viewBox="0 0 64 64" enable-background="new 0 0 64 64"><path d="m31.999 29.592c-1.126 0-2.229.034-3.321.078l-1.732-13.061.19-.045-.308-3.564h-2.664l-4.028.25.405 3.756.938.036 1.291 11.394-10.283 2.932-1.557-11.597.188-.058-.307-3.564h-2.641l-4.053.25.495 3.688.851.08 1.777 14.106c-3.297 1.715-5.24 3.786-5.24 6.024 0 3.571 8.216 10.703 29.999 10.703 16.569 0 30.001-4.791 30.001-10.703s-13.432-10.705-30.001-10.705m-8.617-.291c0 0 .085-.012.212-.012.318 0 .902.075 1.074.602.346 1.064-.635 1.693-.635 1.693l-11.075 3.303-.338-2.518 10.762-3.068m-11.604 17.024l-3.386-25.882.274.025 1.295-.399 3.602 26.881c-.414-.137-1.641-.574-1.785-.625m13.948-2.639l-11.141 3.322-.338-2.518 10.827-3.088c0 0 .085-.012.212-.012.319 0 .903.075 1.074.602.346 1.065-.634 1.694-.634 1.694m2.474 5.311l-3.815-31.843.24.01 1.343-.32 4.248 32.19c-.618-.009-1.38-.021-2.016-.037"/></svg>