<svg xmlns="http://www.w3.org/2000/svg" viewBox="0 0 64 64" enable-background="new 0 0 64 64"><path d="m53.546 51.407c-1.156 2.141-2.223 4.007-2.636 4.737.594-.709 2.377-2.626 4.283-4.909-.569.069-1.117.126-1.647.172"/><path d="m37.171 40.089c-1.655 0-2.999 1.344-2.999 3 0 1.654 1.344 3 2.999 3 1.659 0 3.001-1.346 3.001-3 0-1.656-1.342-3-3.001-3"/><path d="m26.846 40.089c-1.654 0-2.998 1.344-2.998 3 0 1.654 1.344 3 2.998 3 1.659 0 3.002-1.346 3.002-3 0-1.656-1.343-3-3.002-3"/><path d="m60.717 48.686c-3.471-1.507-12.521-.8-14.838-1.394.213-.511.366-1.04.481-1.579 2.813-.572 6.417-1.61 10.485-3.51 1.373-.642.278 2.156-1.344 5.438.85-.007 1.682.004 2.477.037 2.775-3.838 4.559-7.57 1.229-7.966-1.803-.214-4.461.355-6.997 1.017 4.474-4.043 10.427-10.108 6.089-11.178-1.978-.487-5.218-.086-8.068.323-2.176-8.357-13.642-12.146-17.182-13.127v-14.747h-2.099v14.748c-3.54.98-15.006 4.77-17.181 13.127-2.851-.409-6.091-.811-8.068-.323-4.337 1.069 1.615 7.135 6.089 11.178-2.536-.661-5.195-1.23-6.997-1.017-3.331.396-1.547 4.128 1.228 7.966.795-.033 1.627-.044 2.476-.037-1.622-3.282-2.717-6.08-1.344-5.438 4.069 1.899 7.672 2.938 10.486 3.51.115.539.269 1.068.481 1.579-2.317.594-11.367-.113-14.838 1.394-5.961 2.588 10.657 11.758 13.074 13.313-1.918-1.783-13.122-12.061-10.038-11.611 6.108.891 10.895.503 13.858.017.406.434.85.844 1.33 1.228-2.023.534-5.247 1.175-6.665 2.219-3.22 2.373 8.197 5.668 9.888 6.281-1.424-.82-9.73-5.518-7.799-5.664 2.875-.216 5.193-.769 6.899-1.325 2.331 1.213 5.142 1.923 8.171 1.923 2.906 0 5.607-.66 7.88-1.784 1.729.589 4.146 1.195 7.192 1.425 1.928.145-6.375 4.842-7.802 5.662 1.692-.613 13.106-3.908 9.89-6.281-1.473-1.083-4.882-1.73-6.882-2.276.566-.433 1.077-.907 1.546-1.406 2.963.486 7.75.874 13.857-.017 3.084-.449-8.119 9.828-10.038 11.611 2.417-1.557 19.037-10.727 13.074-13.316m-43.106-6.46c-1.03-.182-2.508-.597-4.152-1.048-2.961-4.015-7.308-10.223-5.198-9.542 1.839.593 3.567 1.032 5.163 1.357.113 3.002 1.887 5.533 4.747 7.402-.253.59-.437 1.202-.56 1.831m5.995-19.378c0 0 3.757-3.045 8.394-3.045s8.395 3.045 8.395 3.045-2.855-.713-6.657-.896c3.801.683 6.655 3.338 6.655 3.338s-3.758-1.218-8.393-1.218c-4.637 0-8.395 1.217-8.395 1.217s2.855-2.655 6.657-3.338c-3.801.184-6.656.897-6.656.897m-1.268 20.241c0-2.485 2.014-4.5 4.498-4.5 2.486 0 4.502 2.015 4.502 4.5 0 2.486-2.016 4.5-4.502 4.5-2.484 0-4.498-2.014-4.498-4.5m9.662 8.116c-1.61 0-2.914-.773-2.914-1.726 0-.95 1.304-.191 2.914-.191 1.609 0 2.914-.759 2.914.191 0 .953-1.305 1.726-2.914 1.726m5.162-3.616c-2.485 0-4.5-2.014-4.5-4.5 0-2.485 2.015-4.5 4.5-4.5 2.484 0 4.5 2.015 4.5 4.5 0 2.486-2.016 4.5-4.5 4.5m13.414-14.596c1.596-.325 3.324-.765 5.163-1.357 2.109-.681-2.237 5.527-5.198 9.542-1.645.451-3.122.866-4.152 1.048-.123-.629-.307-1.24-.56-1.83 2.86-1.87 4.634-4.401 4.747-7.403"/><path d="m13.09 56.145c-.413-.73-1.479-2.597-2.637-4.737-.529-.046-1.077-.104-1.646-.172 1.906 2.283 3.689 4.2 4.283 4.909"/></svg>