<svg xmlns="http://www.w3.org/2000/svg" viewBox="0 0 64 64" enable-background="new 0 0 64 64"><path d="m48.488 15.598c-.309.271-.902.782-1.793-.144-.889-.925-.34-1.521.068-2.003.166-.197.425-.429.425-.902 0-.434-.874-.831-.469-.487 0 0 .519.237-.148 1.226-.468-.243-1.208-.104-1.208-.104.605.051.944.209 1.082.29-.341.456-.728 1.002-.281 1.657.491.722 1.111 1.455 2.133.865 1.022-.589.725-.867.191-.398"/><path d="m49.457 12.458c.484-.523.917-1.144.954-1.721.023-.375-.103-.729-.354-.997-.172-.183-.699-.74-1.483-.74-.537 0-1.035.258-1.482.766-.136.154-.389.414-.746.774-.113-.024-.228-.037-.342-.037-.824 0-1.26.605-1.424.833l-.035.047c-.226.291-.428.808-.585 1.278-.019-.075-.04-.146-.058-.222 0 0-1.707 1.41-2.902 2.674 0 0 .049.251.18.609-1.377 1.593-2.974 2.732-4.433 3.54.355-.831.544-1.871.544-3.175 0-2.71-.291-4.561-.902-5.839 6.103-1.412 2.572-8.248 2.572-8.248-4.336 1.922-8.472.207-13.168.799-9.313 1.175-7.273 5.56-7.273 5.56-1.764 1.94-1.281 4.355.936 7.031.46.556.803 1.205 1.063 1.881.084.419.211.812.371 1.184.246.992.349 1.971.384 2.753-7.052 5.479-8.318 7.716-7.914 11.527-.122.111-.243.223-.358.367 0 0 .285 1.215.368 2.4-.293.918-.634 2.951 1.002 5.15.556.748 1.676 1.23 2.854 1.23.596 0 1.184-.119 1.749-.35.456-.188 1.083-.516 1.266-1.195.196-.729-.249-1.287-.606-1.736-.055-.068-.109-.137-.162-.207.282-.414.484-.961.189-1.6-.127-.273-.318-.508-.527-.707-.133-.705-.264-1.955.223-2.986 0 0-.096-.214-.411-.462.498-1.455 1.653-3.242 4.33-4.619-.063 1.502-.405 5.099-2.12 10.218l-.081.244.156.207c.034.043.444.566 1.374 1.086-.346 1.195-.444 2.932.176 5.438.816 3.297-.842 9.219-3.856 13.771l-.343.518.592.221c.036.014.461.164 1.14.326-.086.547-.036 1.23.434 1.951h2.942v-1.133c0 0 .492 1.133 4.986 1.133 1.555 0 1.718-1.473.082-1.559-.579-.031-.92-.195-1.192-.471.27-.076.538-.152.799-.246l.499-.182-.203-.48c-.012-.029-1.228-3.035.965-8.734.338-.881.236-1.715.119-2.682-.143-1.156-.313-2.561.305-4.529.799 1.021 2.578 2.996 6.422 6.342-.237 1.225-1.021 6.014.303 9.953l.07.211.21.09c.05.021.319.123.936.225-.115.562-.09 1.292.41 2.062h2.945v-1.133c0 0 .489 1.133 4.984 1.133 1.555 0 1.719-1.473.082-1.559-.584-.031-.924-.205-1.196-.486.798-.104 1.212-.207 1.245-.217l.891-.23-.67-.617c-.029-.027-2.941-2.779-4.505-10.789-.261-1.332-1.308-2.383-2.633-3.715-1.142-1.148-2.515-2.545-3.669-4.465 3.232-.131 4.996-.523 5.197-1.18l.049-.162-.061-.156c-2.506-6.476-2.707-12.91-2.719-14.377 2.238-1.034 4.639-2.83 6.322-4.209.086.039.168.082.26.116 0 0 1.878-.975 2.945-2.131 0 0-.012-.007-.017-.01l.185-.112c2.49-1.524 2.963-2.184 2.963-2.868 0-.891-.787-1.752-1.543-2.375m-27.081.536c1.44.937 2.341 4.827 2.341 4.827.98-.536.795-1.337.795-1.337-1.273-2.865-1.754-7.088-1.754-7.088 4.273-.539 4.391 1.91 11.607 1.028.654 1.128.899 2.894.899 5.663 0 4.381-2.212 5.223-6.567 5.302-1.637.031-3.71-.129-5.377-.902-.121-2.042-1.395-3.952-1.395-3.952s-.54.205-1.267-1.01c-.728-1.213-.722-3.466.718-2.531m9.177 13.73c0 0-.489-2.395-2.023-4.333.063 0 .126 0 .188-.001.728-.013 1.406-.055 2.043-.128-.454 2.011-.208 4.462-.208 4.462m.017.49c2.195 5.285-.832 10.505-.832 10.505 2.177-5.808.832-10.505.832-10.505m-12.996 13.397c-.465.191-.924.271-1.349.271-.932 0-1.702-.385-2.023-.816-1.148-1.545-1.137-2.971-.97-3.818.731-.133 1.909-.221 3.393.02.243.119.745.404 1.006.789.127.322-.284.844-.528.613-.377-.354-.879-.814-.879-.814.643.656.991 1.457.991 1.457.558 1.162 1.828 1.695.359 2.298m3.649-2.338c2.26-6.865 2.096-10.912 2.088-11.083l-.035-.736-.689.304c-3.416 1.506-4.918 3.645-5.565 5.419-.23-.075-.484-.144-.797-.188l-.718 2.847-.682-2.779c0 0-.698-.191-1.516.096-.213-2.969.994-4.964 6.97-9.671-.009.236-.021.38-.021.38 2.604.414 2.919-.57 3.017-1.313.785.316 1.622.523 2.459.652l.188.093c.045.098.078.196.121.294l-1.777.724c0 0 .988.161 2.361.78 2.518 7.404-.053 14.267-.679 15.743-2.893-.077-4.279-1.132-4.725-1.562m16.586 6.809c1.206 1.213 2.159 2.17 2.361 3.207 1.209 6.191 3.188 9.357 4.191 10.635-.754.109-2.016.238-3.775.238-2.366 0-3.498-.203-3.918-.307-1.286-4.16-.148-9.42-.137-9.473l.063-.285-.223-.193c-6.033-5.23-6.995-7.086-7.002-7.098l-.499-1.074-.446 1.098c-1.098 2.697-.878 4.492-.701 5.936.105.869.189 1.559-.063 2.213-1.847 4.803-1.413 7.822-1.114 8.961-1.14.354-2.365.533-3.649.533-1.641 0-3.01-.297-3.754-.5 2.969-4.742 4.49-10.537 3.635-13.994-.549-2.219-.488-3.738-.228-4.766.919.352 2.142.627 3.734.627h.325l.139-.287c.046-.092.34-.715.689-1.732l4.491.221c-.051.107-.09.182-.093.188l-.426.744h.873c.508 0 .976-.006 1.435-.016 1.267 2.269 2.819 3.845 4.092 5.124m4.929-25.801c-1.701 1.375-4.031 3.085-6.115 3.988l-.299.129-.007.317c-.001.073-.12 7.234 2.608 14.592-1.257-.289-3.462.213-4.987.646-.272.006-.554.012-.854.014.757-1.85 2.247-7.064-.379-15.375.968-.971 1.832-1.472 1.832-1.472-.495-.513-1.532-.327-1.745-.281.563-.186 1.07-.426 1.506-.742 1.846-.766 4.297-2.111 6.375-4.391.125.193.264.387.436.573l2.537-1.277-1.855 2.324c0 .001.336.482.947.955m3.754-2.427c-1.285-.801-2.26-1.954-2.734-3.303 0 0 .339-1.22.605-1.563.125-.16.302-.485.641-.485.153 0 .34.066.569.244.7-.698 1.097-1.102 1.298-1.33.247-.281.475-.417.703-.417.233 0 .469.143.727.417.512.541-1.43 2.14-1.43 2.14s2.102 1.328 2.102 2.276c0 .436-1.496 1.418-2.481 2.021"/><ellipse cx="27.239" cy="13.425" rx="1.489" ry="1.451"/><ellipse cx="34.526" cy="13.425" rx="1.491" ry="1.451"/><path d="m28.275 18.165c.465.829 1.404 1.569 2.604 1.569 1.203 0 2.145-.74 2.609-1.569.125-.223-.042-.463-.226-.325-1.532 1.162-3.237 1.154-4.763 0-.184-.138-.349.102-.224.325"/></svg>