<svg xmlns="http://www.w3.org/2000/svg" viewBox="0 0 64 64" enable-background="new 0 0 64 64"><path d="m30.939 20.485c0 .305.475.551 1.061.551s1.061-.247 1.061-.551c0-.306-2.122-.306-2.122 0"/><path d="m32 10.503c3.27 0 5.827-.142 7.843-.358-2.17-3.917.653-9.377-2.017-7.897-2.169 1.203-4.303 1.935-5.826 1.935-1.524 0-3.657-.732-5.828-1.935-2.67-1.48.155 3.98-2.016 7.897 2.016.217 4.573.358 7.844.358"/><path d="m46 13.578c0-.463-1.491-.268-4.868-1.993-2.173.301-5.116.502-9.132.502-4.017 0-6.959-.201-9.133-.502-3.375 1.725-4.867 1.53-4.867 1.993 0 .158.576 1.069 3.754 1.77-.089.929-.034 2.02.549 2.821.375.517.914.841 1.604.968.58 3.126 3.14 4.603 5.523 5.188l-2.838.155-3.349 12.62-.405 1.53c-.204.765.477 1.269 1.121 1.269.423 0 .831-.217.965-.719l.405-1.531 1.569-5.913.16 6.479h.002l-.719 14.851h.219l-.192 1.369c-.362 2.575 3.322 3.089 3.685.514l.265-1.883h.244l1.438-11.986 1.438 11.983h.244l.265 1.883c.361 2.575 4.047 2.062 3.685-.514l-.192-1.369h.219l-.719-14.851h-.004l.172-6.513 1.578 5.948.406 1.531c.133.502.541.719.964.719.645 0 1.325-.504 1.122-1.269l-.406-1.53-3.349-12.62-.007.002-2.846-.156c2.386-.584 4.946-2.062 5.525-5.188.689-.126 1.227-.451 1.603-.967.582-.801.637-1.893.547-2.822 3.179-.7 3.755-1.611 3.755-1.769m-21.561 25.472c-.061.23-.223.348-.48.348-.227 0-.457-.104-.574-.256-.084-.107-.104-.233-.064-.385l.278-1.047 1.118.294-.278 1.046m15.977-1.341l.278 1.048c.04.15.02.276-.063.385-.118.152-.35.256-.575.256-.258 0-.42-.117-.48-.348l-.278-1.046 1.118-.295m-16.039-19.52c-.584-.042-.998-.241-1.266-.609-.323-.444-.433-1.138-.359-2.038.423.074.869.146 1.367.21-.109.373-.139 1.18.062 1.094.122-.052.251-.072.374-.082.027.384.099.86.206 1.451l-.384-.026m10.601 7.793c.219 1.068-1.146 3.484-2.102 5.007l-.288-4.161h-1.179l-.287 4.159c-.955-1.523-2.318-3.937-2.1-5.005.069-.333.594-.905.979-1.288.001.001.002.002.003.003-.052-.085-.084-.175-.104-.268.757.151 1.481.218 2.1.218.619 0 1.345-.067 2.102-.218-.02.091-.051.179-.102.263.384.384.906.956.978 1.29m4.186-7.358c-.623 4.882-6.497 5.023-7.165 5.023-.667 0-6.535-.141-7.161-5.023l-.002-.017c.225.999.828 1.528 3.883 1.61 2.822.075 2.49-3.356 3.281-3.356s.459 3.432 3.281 3.356c3.07-.082 3.666-.617 3.887-1.626l-.004.033m1.725-1.043c-.267.368-.681.566-1.264.608l-.385.027c.106-.591.178-1.067.206-1.451.123.01.251.03.373.082.201.086.171-.721.061-1.094.498-.065.945-.136 1.367-.21.074.9-.035 1.594-.358 2.038"/><path d="m30.931 25.342l.479 1.174h1.179l.48-1.175c-.312.107-.678.171-1.068.171-.396.001-.757-.063-1.07-.17"/><ellipse cx="32" cy="60" rx="7" ry="2"/></svg>