<svg xmlns="http://www.w3.org/2000/svg" viewBox="0 0 64 64" enable-background="new 0 0 64 64"><path d="M58.25,39.305c-4.677,0-8.438-7.306-8.438-11.87C49.813,18.308,41.354,11,32,11c-9.353,0-17.813,7.308-17.813,16.435
		c0,4.564-3.761,11.87-8.438,11.87H2v11.869h2.813V53h7.5v-1.826h39.375V53h7.5v-1.826H62V39.305H58.25z M32,42.043
		c-7.766,0-14.063-6.131-14.063-13.695c0-7.565,6.297-13.695,14.063-13.695c7.768,0,14.063,6.13,14.063,13.695
		C46.063,35.912,39.768,42.043,32,42.043z"/><path d="m38.408 27.813h-4.625c-.15-.477-.493-.868-.944-1.09l-.839-11.437-.839 11.438c-.612.3-1.036.911-1.036 1.624 0 1.009.84 1.826 1.875 1.826.842 0 1.545-.543 1.781-1.288h4.627c.16.746.632 1.288 1.192 1.288.688 0 2.712-1.826 2.712-1.826s-2.023-1.826-2.712-1.826c-.56-.001-1.032.542-1.192 1.291"/></svg>