<svg xmlns="http://www.w3.org/2000/svg" viewBox="0 0 64 64" enable-background="new 0 0 64 64"><path d="m61.991 33.672v-.579c0-.449-.048-.539-.281-.66-.414-.219-.845-.423-1.279-.58-.089-.031-.188-.058-.276-.088-3.912-12.822-8.051-18.765-9.851-18.765-.973 0-1.305.675-1.66 2.226-.854 3.716-.054 4.892.453 5.409.7.714 1.838.128 1.838-3.838.762 1.864 3.807 7.594 6.165 14.285-3.94-.588-8.976-.537-11.697-.291-3.687.331-6.763 1.179-9.279 2.502-2.356 1.206-5.892 1.206-8.248 0-2.519-1.323-5.593-2.171-9.275-2.502-2.727-.245-7.764-.297-11.701.291 2.356-6.69 5.4-12.42 6.161-14.285 0 3.966 1.14 4.552 1.839 3.838.506-.517 1.309-1.693.455-5.409-.358-1.551-.688-2.226-1.664-2.226-1.802 0-5.937 5.943-9.85 18.767-.087.029-.183.056-.269.086-.438.157-.867.361-1.282.58-.234.121-.281.211-.281.66v.579c0 1.09-.135.666.625 1.12 1.481.889 2.32 3.193 2.773 6.367.641 4.625 2.853 7.523 6.452 8.909 3.338 1.283 7.072 1.238 10.383-.115 1.813-.741 3.402-1.915 4.666-3.817 2.216-3.336 1.551-5.418 2.695-8.283.996-2.502 3.795-2.502 4.793 0 1.144 2.865.479 4.947 2.694 8.283 1.263 1.902 2.854 3.076 4.667 3.817 3.311 1.354 7.045 1.398 10.383.115 3.596-1.386 5.813-4.284 6.453-8.909.45-3.174 1.291-5.479 2.771-6.367.76-.454.627-.03.627-1.12"/></svg>