<svg xmlns="http://www.w3.org/2000/svg" viewBox="0 0 64 64" enable-background="new 0 0 64 64"><path d="m62 31.082h-5.261c-6.813-4.749-11.146-12.705-11.618-21.336l2.63-4.825-1.504-.921-2.629 4.829c-7.288 3.882-15.95 3.882-23.238-.002l-2.629-4.827-1.504.921 2.63 4.827c-.473 8.631-4.805 16.585-11.62 21.334h-5.257v1.839h5.259c6.815 4.746 11.147 12.702 11.618 21.333l-2.63 4.828 1.504.918 2.631-4.829c7.286-3.88 15.948-3.882 23.234 0l2.631 4.829 1.504-.918-2.63-4.826c.473-8.633 4.805-16.589 11.618-21.335h5.261v-1.839m-8.203 0h-5.158c-4.447-3.089-7.272-8.271-7.569-13.896l2.58-4.737c1.032 7.333 4.672 14.021 10.147 18.633m-21.797-.921l-2.149-3.945c.695.161 1.404.252 2.114.252.734 0 1.469-.093 2.19-.267l-2.155 3.96m3.651-3.026c.439 1.467 1.177 2.816 2.164 3.947h-4.313l2.149-3.947m-5.154 3.947h-4.298c.978-1.138 1.712-2.489 2.141-3.961l2.157 3.961m0 1.839l-2.148 3.943c-.441-1.466-1.179-2.814-2.164-3.943h4.312m1.503.918l2.147 3.947c-1.417-.329-2.889-.329-4.305.013l2.158-3.96m1.502-.918h4.297c-.978 1.138-1.712 2.488-2.141 3.96l-2.156-3.96m6.959-1.839c-2.001-1.45-3.288-3.789-3.504-6.348l2.677-4.913c.78 4.373 2.951 8.354 6.132 11.261h-5.305m-4.982-7.31c-2.184 1.113-4.738 1.126-6.936.043l-2.677-4.914c1.982.735 4.058 1.111 6.134 1.111 2.074 0 4.149-.376 6.132-1.111l-2.653 4.871m-8.461.92c-.185 2.564-1.452 4.913-3.435 6.39h-5.351c3.181-2.905 5.351-6.888 6.132-11.259l2.654 4.869m-3.479 8.229c2.001 1.447 3.288 3.786 3.502 6.344l-2.677 4.914c-.781-4.371-2.949-8.354-6.13-11.258h5.305m4.981 7.307c2.184-1.113 4.736-1.124 6.936-.043l2.676 4.912c-3.963-1.469-8.301-1.469-12.263.003l2.651-4.872m8.462-.918c.183-2.562 1.448-4.913 3.432-6.389h5.352c-3.181 2.904-5.352 6.887-6.132 11.26l-2.652-4.871m-4.982-25.728c3.448 0 6.894-.691 10.146-2.054l-2.579 4.738c-4.745 2.537-10.392 2.537-15.136 0l-2.58-4.738c3.253 1.363 6.7 2.054 10.149 2.054m-11.651-1.131l2.58 4.736c-.298 5.625-3.122 10.811-7.567 13.895h-5.16c5.474-4.612 9.116-11.298 10.147-18.631m-10.146 20.47h5.158c4.445 3.086 7.27 8.271 7.567 13.894l-2.58 4.737c-1.03-7.334-4.67-14.022-10.145-18.631m11.648 19.551l2.582-4.738c4.742-2.535 10.389-2.535 15.134 0l2.579 4.738c-6.505-2.723-13.788-2.723-20.295 0m21.798-.92l-2.58-4.737c.298-5.623 3.122-10.809 7.567-13.894h5.16c-5.474 4.609-9.116 11.297-10.147 18.631"/></svg>