<svg xmlns="http://www.w3.org/2000/svg" viewBox="0 0 64 64" enable-background="new 0 0 64 64"><path d="m60.123 5.869c-2.477-2.467-6.544-2.516-8.966-.002-7.157 7.435-25.394 27.41-32.043 34.708l-.186-.185-3.181 3.167.043.043c-.751.242-1.553.488-2.475.749-3.127.883-4.909 3.207-5.717 5.697-.185.237-.335.552-.433 1.003l-.011.054-.006.053c-.003.033-.396 3.584-3.811 7.269l-.361.39c-.016.006-.028.014-.045.02 0 0 .015.002.024.003l-.955 1.03 1.973.096c.285.015 7.059.322 11.137-1.173.089-.036.223-.099.375-.185 3.115-.637 6.08-2.505 6.408-6.192.08-.895.194-1.691.329-2.412l.035.033 3.181-3.168-.185-.185c7.333-6.617 27.401-24.767 34.87-31.89 2.527-2.412 2.478-6.46 0-8.923m-45.332 52.061c-3.949 1.448-10.774 1.116-10.774 1.116 3.697-3.988 4.053-7.805 4.053-7.805.182-.852.528-.859 1.124-1.122.108-.048.184-.031.237.022.161.16.139.652.262.774.064.064.169.027.359-.211.146-.183.235-.208.3-.145.154.154.159.835.432 1.106.138.137.345.17.675-.022.243-.145.377-.157.447-.087.212.211-.166 1.189.22 1.573.136.137.367.196.753.124.373-.072.57-.046.654.038.271.271-.603 1.144-.407 1.339.043.043.135.053.298.02.242-.049.353-.045.396-.003.129.129-.336.606.195 1.136.151.15.385.307.736.459.336.145.561.289.701.43.692.688-.661 1.258-.661 1.258m6.587-5.8c-.251 1.275-.608 2.648-1.551 3.444-.946.794.294-3.95-.773-2.996-1.068.954-.802-2.384-2.358-1.708-1.56.673-.266-2.702-1.985-1.978-1.72.728-1.179-2.442-2.205-2.192-1.022.252-.892-.889-.892-.889s.96-.589 2.32-1.004c0 0 2.31.26 2.002 1.989-.309 1.734 1.828.045 1.88 1.421.05 1.375 2.393.472 2.317 1.854-.069 1.393 1.497.789 1.245 2.059m.879-3.393l-5.204-5.18 1.876-1.869 5.204 5.179-1.876 1.87"/></svg>