<svg xmlns="http://www.w3.org/2000/svg" viewBox="0 0 64 64" enable-background="new 0 0 64 64"><path d="m61.068 11.348l-8.416-8.417c-1.213-1.212-3.146-1.244-4.32-.072l-39.545 39.547c-1.174 1.173-1.141 3.106.072 4.319l.03.031-6.487 10.875c-.66 1.106-.49 2.719.377 3.586.001.001.002.001.002.001.867.867 2.482 1.041 3.586.381l10.877-6.488.031.031c1.213 1.213 3.145 1.246 4.318.073l39.547-39.548c1.174-1.172 1.141-3.106-.072-4.319m-55.728 48.534c-.337.203-.94.127-1.146-.079-.204-.203-.277-.808-.075-1.148l6.23-10.439 5.436 5.437-10.445 6.229m14.84-6.082c-.391.391-1.06.358-1.49-.072l-8.416-8.416c-.218-.218-.341-.5-.346-.795-.002-.154.029-.452.273-.695l3.193-3.193 9.979 9.979-3.193 3.192m6.415-6.414l-9.979-9.979 3.273-3.273 9.979 9.978-3.273 3.274m9.782-16.935c-4.303 4.304-10.66 4.927-14.196 1.391l15.587-15.59c3.536 3.537 2.916 9.894-1.391 14.199m13.66-6.51l-9.98-9.979 3.275-3.275 9.98 9.98-3.275 3.274m9.69-9.688l-3.194 3.193-9.979-9.98 3.192-3.192c.393-.392 1.062-.36 1.493.071l8.416 8.417c.222.223.345.512.345.813 0 .184-.048.451-.273.678"/></svg>