<svg xmlns="http://www.w3.org/2000/svg" viewBox="0 0 64 64" enable-background="new 0 0 64 64"><path d="m59.67 4.329c-3.107-3.105-8.144-3.105-11.252 0l-4.43 4.429c0 0-4.732 1.734-13.358 10.361-8.626 8.626-10.359 13.359-10.359 13.359l-9.159 9.157 1.711 1.712-8.695 5.275c0 0 .659 6.029-2.127 11.882l9.457-9.46c-.023-.437.128-.881.461-1.213.623-.621 1.63-.622 2.252-.001.62.624.62 1.629 0 2.253-.333.329-.777.48-1.216.461l-9.457 9.456c5.851-2.786 11.879-2.127 11.879-2.127l5.275-8.698 1.713 1.714 9.155-9.159c0 0 4.734-1.732 13.36-10.36 8.627-8.623 10.357-13.359 10.357-13.359l4.433-4.432c3.106-3.105 3.106-8.143 0-11.25m-30.488 40.063l-9.575-9.575 1.502-1.5 9.574 9.575-1.501 1.5m25.218-25.22l-9.574-9.577 1.499-1.498 9.575 9.575-1.5 1.5"/></svg>