<svg xmlns="http://www.w3.org/2000/svg" viewBox="0 0 64 64" enable-background="new 0 0 64 64"><path d="m62 12.658c0-.721-.604-1.323-1.326-1.325-.721.002-1.323.604-1.323 1.325 0 .513 0 30.308-.002 31.274.002.138.002.275.002.412 0 3.417-2.615 6.237-5.949 6.563-.739-3.627-3.61-6.489-7.242-7.214l.002-35.066c-.002-2.192 1.784-3.978 3.974-3.976 2.13-.002 3.871 1.677 3.974 3.779l-.026.002.008 31.223c0 .74-.599 1.339-1.337 1.337-.72.002-1.304-.565-1.335-1.278 0 0-.036-26.619-.038-27.056 0-.721-.601-1.321-1.324-1.323-.721 0-1.274.604-1.272 1.323.002.603-.015 26.628-.015 26.94 0 .69.159 1.326.469 1.941.35.699.994 1.325 1.699 1.664.872.419 1.804.525 2.751.317 1.758-.397 3.039-2.066 3.052-3.844l-.012-31.049h.031c.001-3.653-2.972-6.627-6.624-6.627-3.653 0-6.627 2.974-6.627 6.627v34.887c-5.004-.002-30.727 0-30.854 0-.721 0-1.323.601-1.323 1.324 0 .723.603 1.325 1.325 1.323.493 0 28.026 0 31.031 0 .729 3.633 3.591 6.502 7.216 7.242-.323 3.334-3.144 5.949-6.563 5.949l-35.717-.001c-2.193.002-3.978-1.783-3.976-3.976-.002-2.126 1.679-3.869 3.781-3.972l-.002.028 31.227-.01c.738 0 1.335.599 1.335 1.337.002.72-.565 1.304-1.276 1.333 0 0-26.621.04-27.056.04-.723 0-1.325.601-1.323 1.324-.002.722.601 1.274 1.323 1.271.601 0 26.624.015 26.938.015.688 0 1.324-.159 1.941-.465.699-.352 1.325-.996 1.666-1.701.418-.87.525-1.804.315-2.75-.396-1.757-2.063-3.038-3.844-3.053l-31.049.009.002-.031c-3.653-.001-6.627 2.973-6.627 6.625 0 3.653 2.974 6.625 6.625 6.625h35.718c4.829.002 8.804-3.721 9.209-8.445 4.727-.409 8.448-4.383 8.448-9.21 0-.513-.002-31.549 0-31.687"/></svg>