<svg xmlns="http://www.w3.org/2000/svg" viewBox="0 0 64 64" enable-background="new 0 0 64 64"><path d="m61.529 29.137c-.856-1.662-2.515-2.615-4.55-2.615-3.247 0-6.296 2.957-8.987 5.566-1.245 1.207-2.52 2.443-3.569 3.113l4.447-22.527c.425-1.82.103-3.523-.905-4.793-.953-1.201-2.461-1.918-4.034-1.918-2.006 0-4.568 1.252-5.182 4.723l-2.055 8.553v-10.524c0-4.408-2.943-6.715-5.851-6.715-2.906 0-5.85 2.307-5.85 6.715v10.865l-2.79-10.238c-.705-3.039-3.054-4.123-5.017-4.123-1.733 0-3.372.785-4.386 2.1-.978 1.27-1.266 2.914-.822 4.59l1.94 8.861-2.444-4.797c-1.025-2.014-2.709-3.168-4.62-3.168-1.667 0-3.253.898-4.14 2.346-.939 1.531-.956 3.434-.026 5.26 2.807 4.949 7.26 13.484 7.26 15.32 0 .529-.054 1.279-.116 2.148-.267 3.734-.714 9.984 1.752 15.514 2.261 5.066 9.051 8.605 16.512 8.607 8.69 0 15.945-4.697 19.903-12.887 1.76-3.641 5.697-8.412 9.575-11.604 1.736-1.427 5.801-4.777 3.955-8.372m-50.113 6.584c0-2.898-6.268-14.117-7.501-16.291-1.897-3.727 3.356-6.385 5.334-2.5l7.251 14.082.615-2.457-3.719-17.094c-1.051-3.973 5.469-6.266 6.521-1.74l5.418 20 1.047-2.291v-18.688c0-6.24 8.036-6.26 8.036-.021v21.416l1.699-1.895 4-17.25c.928-5.227 7.225-3.074 6.261 1.063l-4.541 23.963c-6.729-.238-16.119 4.293-15.054 14.359.857-9.309 9.397-12.416 15.199-12.416 2.209 0 2.949-.25 7.324-4.938 7.415-7.943 10.309-4.027 10.221-2.344-.301 5.76-10.154 7.695-14.606 17.416-5.846 12.762-22.854 13.279-29.961 7.146-5.266-4.544-3.544-18.919-3.544-19.52"/></svg>