<svg xmlns="http://www.w3.org/2000/svg" viewBox="0 0 64 64" enable-background="new 0 0 64 64"><path d="m60.51 29.155c-.92-1.76-2.697-2.77-4.876-2.77-3.059 0-5.974 2.698-8.792 5.309-1.354 1.253-2.739 2.536-3.884 3.216 0 0 3.634-14.95 4.832-19.937 1.96-8.16-5.025-8.783-6.68-7.454-1.342-7.457-10.313-7.378-12.191.359-.896 3.689-3.579 14.756-3.579 14.756s-3.034-9.976-4.113-13.279c-2.232-6.835-11.089-4.564-11.299 1.344-2.069-1.289-9.101.272-6.263 7.9 1.56 4.191 4.268 11.749 4.693 15.857.489 4.72-.814 13.689 1.53 18.862 2.355 5.193 9.126 8.682 16.847 8.682 9.156 0 16.733-4.836 20.27-12.937 1.877-4.301 5.604-9.087 8.862-11.38 1.989-1.402 6.647-4.683 4.643-8.528m-7.027 6.727c-3.579 2.52-7.394 7.291-9.655 11.858-3.291 6.647-8.584 10.898-16.917 10.898-6.948 0-13.672-1.701-15.709-6.193-2.136-4.712-.836-13.711-1.281-18.267-.412-4.21-4.801-16.191-5.022-16.731-1.844-4.521 3.938-6.029 5.053-3.27 2.004 4.962 7.25 18.411 7.25 18.411l.851-3.565c0 0-4.772-12.848-6.382-17.074-1.207-3.17 4.813-6.75 6.948-1.98 2.165 4.834 6.955 20.178 6.955 20.178l5.878-21.882c1.369-5.371 8.556-4.282 7.625.96-.989 5.564-5.232 21.813-5.232 21.813l1.973-1.967 4.854-18.979c.486-1.475 6.063-2.044 4.649 4.06-1.218 5.259-4.951 21.286-4.951 21.286-6.546.391-15.433 4.616-14.826 13.731.832-8.674 10.261-10.705 16.034-11.522 2.033-.288 3.956-2.174 6.219-4.645 6.75-7.368 10.406-4.83 10.844-2.817.374 1.726-1.539 3.148-5.158 5.697"/></svg>