<svg xmlns="http://www.w3.org/2000/svg" viewBox="0 0 64 64" enable-background="new 0 0 64 64"><path d="m54.229 40.812c-.303-1.889-.589-3.671-.589-4.774 0-3.488-2.18-5.742-5.555-5.742-.606 0-1.376.197-2.103.557-1.48-6.353-8.158-5.669-9.248-4.088l.278-18.04c0-9.922-16.148-8.078-16.124.415l1.793 18.139c-1.17-.681-2.135-.847-3.519-.847-3.478 0-6.307 2.57-6.307 5.7-.018.604-.074 2.805-.058 5.634-1.452 2.125-2.952 2.959-3.622 5.196-.869 2.593 1.574 5.409 4.428 7.672.261 1.606.6 2.974 1.044 3.899.687 1.425 2.593 2.387 6.003 3.028 1.289.241 2.795 1.218 4.251 2.161 1.811 1.172 3.519 2.278 5.15 2.278 1.876 0 3.387-.775 4.719-1.46 1.207-.621 2.347-1.206 3.656-1.206 5.15 0 7.125-1.946 8.712-3.51.845-.833 1.511-1.49 2.539-1.773 2.416-.663 4.72-1.73 5.223-5.009.319-2.067-.184-5.201-.671-8.23m-31.282-10.803l1.942 15.018 1.14-2.23-2.508-33.994c-.031-6.15 12.142-6.073 12.142-.275l-1.259 36.554.922-2.019 1.816-13.605c.719-2.861 7.403-2.698 7.3 1.998-.075 3.447-.954 14.003-.954 14.003l1.659-1.916.697-10.168c1.38-2.449 6.187-1.921 6.363 1.479.065 1.257.207 4.08.522 6.047.44 2.747 1.03 6.104.235 7.845-.293.643-1.554 1.226-2.413 1.461-3.476.956-3.496 5.248-10.991 5.248-3.122 0-5.129 2.666-8.375 2.666-2.578 0-6.135-3.845-9.219-4.423-1.438-.271-4.555-.941-5.301-2.49-1.755-3.656-2.104-14.716-1.505-19.425.579-4.535 7.137-3.919 7.787-1.774"/><path d="m34.259 12.35c.324-2.321.109-3.886-.659-4.782-.9-1.045-2.474-1.13-4.288-1.13s-3.388.085-4.283 1.13c-.771.895-.986 2.46-.658 4.782.182 1.288 1.185 2.823 4.941 2.823 3.957 0 4.796-1.769 4.947-2.823m-8.435-.204c-.342-2.431.052-3.312.318-3.621.489-.571 1.779-.618 3.17-.618 1.393 0 2.683.048 3.174.618.265.309.66 1.19.318 3.62-.183 1.289-2 1.56-3.492 1.56-1.491-.001-3.307-.271-3.488-1.559"/></svg>