<svg xmlns="http://www.w3.org/2000/svg" viewBox="0 0 64 64" enable-background="new 0 0 64 64"><path d="m19.897 51.322c-.95 2.449-2.418 4.771-3.829 7.012-.313.498.525.947.837.449 1.454-2.309 2.947-4.699 3.927-7.225.212-.54-.726-.771-.935-.236"/><path d="m44.103 51.322c-.209-.535-1.146-.305-.936.236.98 2.525 2.473 4.916 3.928 7.225.312.498 1.15.049.836-.449-1.41-2.24-2.879-4.563-3.828-7.012"/><path d="m52 16c-1.014 0-2.135 0-3.333 0-.539 0-1.098 0-1.667 0v-12c0-1.1-.899-2-2-2h-26c-1.1 0-2 .9-2 2v12c-.57 0-1.128 0-1.667 0-1.199 0-2.32 0-3.333 0-3.681 0-10 5.088-10 10.805s2.24 27.195 2.24 27.195h2.76v4c0 1.1.9 2 2 2h2.022c-.205 1.697 1.759 2 4.111 2 1.272 0 2.656-.087 3.867-.087h26c1.211 0 2.595.087 3.867.087 2.353 0 4.315-.303 4.111-2h2.022c1.101 0 2-.9 2-2v-4h2.76c0 0 2.24-21.479 2.24-27.195s-6.319-10.805-10-10.805m-33 0v-11c0-.549.45-1 1-1h24c.55 0 1 .451 1 1v11 4h-1v-10h-24v10h-1v-4m23-4v8h-20v-8h20m-33.304 40h-2.65c-.534-5.268-2.046-20.603-2.046-25.195 0-4.152 4.348-7.916 7.102-8.662-2.19 2.013-4.102 5.218-4.102 8.662 0 4.65 1.235 19.732 1.696 25.195m3.304-10.5c0-.186.065-.35.154-.5.175.293.481.5.846.5h2c.364 0 .67-.207.846-.5.089.15.154.314.154.5 0 .551-.45 1-1 1h-2c-.55 0-1-.449-1-1m8-2.5h-7c-.55 0-1-.449-1-1v-4c0-.549.45-1 1-1h7c.55 0 1 .451 1 1v4c0 .551-.45 1-1 1m1 2.5c0 .551-.45 1-1 1h-2c-.55 0-1-.449-1-1 0-.186.065-.35.154-.5.175.293.481.5.846.5h2c.364 0 .671-.207.846-.5.089.15.154.314.154.5m27.867 18.5c-.622 0-1.272-.021-1.915-.043-.67-.022-1.333-.044-1.952-.044h-26c-.619 0-1.282.021-1.953.044-.642.022-1.292.043-1.914.043-1.056 0-1.662-.072-2.002-.144.106-.239.298-.597.645-1.093 2.539-3.637 3.982-6.49 4.688-8.061h3.299c-.395 1.684-1.209 4.289-2.763 6.298h5.24c-.153.481-.307.965-.464 1.441-.182.551.754.783.935.236.183-.555.36-1.117.537-1.678h6.267c0 .52 0 1.039 0 1.559 0 .574.971.574.971 0 0-.52 0-1.039 0-1.559h6.267c.177.561.354 1.123.537 1.678.181.547 1.116.314.935-.236-.157-.477-.311-.96-.464-1.441h5.239c-1.554-2.009-2.368-4.614-2.762-6.297h3.3c.705 1.57 2.148 4.424 4.688 8.061.346.496.537.854.645 1.093-.343.071-.948.143-2.004.143m-27.198-4.5c.869-1.775 1.363-3.572 1.63-4.797h17.402c.267 1.225.761 3.021 1.63 4.797h-20.662m28.331-16.5c-.552 0-1-.447-1-1s.448-1 1-1 1 .447 1 1-.448 1-1 1m0-4c-.552 0-1-.447-1-1s.448-1 1-1 1 .447 1 1-.448 1-1 1m-18-7c-21 0-21-.447-21-1s0-1 21-1 21 .447 21 1 0 1-21 1m25.954 24h-2.65c.461-5.463 1.696-20.545 1.696-25.195 0-3.443-1.912-6.648-4.102-8.662 2.754.746 7.102 4.509 7.102 8.662 0 4.592-1.513 19.927-2.046 25.195"/><path d="M32,9c2.905,0,5.395-1.768,6.454-4.287C36.999,6.703,34.654,8,32,8s-4.999-1.297-6.454-3.287C26.605,7.232,29.095,9,32,9z"/></svg>