<svg xmlns="http://www.w3.org/2000/svg" viewBox="0 0 64 64" enable-background="new 0 0 64 64"><path d="m37.981 2c-6.156 0-10.85 3.07-12.893 8.44-.023 0-.046-.003-.068-.003-8.294.001-15.02 12.889-15.02 22.663 0 16.009 6.726 28.9 15.021 28.9 8.295 0 15.016-12.891 15.016-28.9 0-8.889-5.561-20.352-12.808-22.354 1.855-4.161 5.659-6.87 10.753-6.87 10.012 0 14.016 6.563 14.016 15v43.124l2.002-.006v-43.119c0-10.312-5.282-16.875-16.019-16.875m-21.396 42.541c-.332.602-.651 1.141-.956 1.627-1.007-3.803-1.623-8.252-1.623-13.104 0-2.469.445-5.057 1.193-7.521 3.866 2.928 7.161 8.58 1.386 18.998m18.258-18.998c.746 2.465 1.189 5.053 1.189 7.521 0 4.852-.614 9.301-1.619 13.104-.309-.486-.629-1.025-.96-1.627-5.774-10.418-2.479-16.07 1.39-18.998m-3.871-3.855c0 3.105-2.689 5.625-6.006 5.625-3.318 0-6.008-2.52-6.008-5.625 0-3.107 2.689-5.625 6.008-5.625 3.316 0 6.006 2.517 6.006 5.625"/></svg>