<svg xmlns="http://www.w3.org/2000/svg" viewBox="0 0 64 64" enable-background="new 0 0 64 64"><path d="m46.98 14.99c-.818-.812-1.561-1.552-2.367-2.254-11.549-10.341-21.018-8.131-25.32-5.714-.971.545-2.028 1.3-3.087 2.172-.706-.522-1.551-.604-2.007-.153l-.294.291c-1.677-.378-3.443-.324-5.136.372-4.829 1.983-6.769 6.83-6.769 12.965 0 10.418 6.071 18.051 9.43 23.434 2.208 3.537 5.059 8.461 5.059 11.563h2.391c0-3.775-3.017-8.968-5.416-12.81-3.367-5.395-9.073-12.445-9.072-22.189 0-5.143 1.385-9.174 5.292-10.777.681-.28 1.375-.405 2.065-.42l-.147.145c-.455.454-.372 1.29.155 1.99-.88 1.05-1.642 2.097-2.192 3.061-2.438 4.264-4.668 13.65 5.764 25.099.718.809 1.462 1.542 2.274 2.347 18.398 18.238 32.542 17.215 39.643 10.176s8.133-21.059-10.266-39.298m-5.308-2.205c-3.279 1.458-6.285 3.793-9.201 6.098l-10.912-10.818c4.545-2.075 11.393-2.526 20.113 4.72m-21.923-3.74l11.175 11.077c-1.371 1.141-2.906 2.533-4.266 3.881-1.336 1.324-2.731 2.836-3.879 4.192l-11.176-11.078c1.783-2.766 5.353-6.306 8.146-8.072m-4.373 29.805c-7.308-8.643-6.854-15.431-4.76-19.938l10.912 10.816c-2.323 2.89-4.678 5.871-6.152 9.122m40.472 14.05c-8.198 8.126-22.316 4.229-36.847-10.175-.624-.617-1.486-1.498-2.16-2.227 1.377-3.486 4.144-6.947 6.677-10.098 1.202-1.494 2.966-3.451 4.557-5.028 1.583-1.569 3.559-3.32 5.067-4.512 3.186-2.52 6.668-5.259 10.193-6.624.719.652 1.59 1.489 2.246 2.141 14.53 14.403 18.464 28.397 10.267 36.523"/></svg>