<svg xmlns="http://www.w3.org/2000/svg" viewBox="0 0 64 64" enable-background="new 0 0 64 64"><path d="M49,34.446V17H15v17.447V47h34V34.446z M41.999,20C44.209,20,46,21.79,46,23.999C46,26.209,44.209,28,41.999,28
		C39.791,28,38,26.209,38,23.999C38,21.79,39.791,20,41.999,20z M32.828,29.683l8.653,8.064l-8.653,2.606V29.683z M47.488,45.668
		H16.512V34.446h7.614l-4.177,3.893l12.124,3.652l12.124-3.652l-4.178-3.893h7.469V45.668z M31.317,29.683v10.671l-8.652-2.606
		L31.317,29.683z"/><path d="M2,4v56h60V4H2z M53,51H11V13h42V51z"/></svg>