<svg xmlns="http://www.w3.org/2000/svg" viewBox="0 0 64 64" enable-background="new 0 0 64 64"><path d="m60.908 45.725v-4.797l-4.869 1.03-.097-.075v-4.087l-4.299.761-.669-.518v-3.42l-3.544.68-1.424-1.102v-2.587l-2.714.487-.401-.334-3.026-26.762-4.486-3.001-33.379 6.137v25.878.003l6.751 4.132v11.456l19.87 12.394 33.379-6.137v-9.295l-1.092-.843m-24.139-40.155l1.726-.317 2.783 24.607-4.509-2.76v-21.53m-33.379 27.665v-23.277l1.681 1.029 2.83 25.01-4.511-2.762m2.966-23.16l-1.746-1.002 30.293-5.602 1.536.895-30.083 5.709m2.624 23.104l26.957-4.956 4.28 2.62-30.853 5.728-.384-3.392m7.225 9.944l-3.578-2.779v-2.963l15.299-2.84v1.734l16.69-3.001v2.564l-10.332 1.982v-2.115l-18.079 3.357v4.061m4.969 3.857l-3.578-2.778v-3.981l15.299-2.842v2.126l16.689-3.201v2.617l-10.332 1.828v-1.879l-18.078 3.356v4.754m4.968 3.859l-3.578-2.779v-4.675l15.299-2.841v1.866l16.69-2.954v2.815l-10.333 2.186v-2.427l-18.078 3.356v5.453m33.377-3.81l-30.897 5.735-1.09-.846v-5.373l15.299-2.842v2.47l16.688-3.528v4.384"/></svg>