<svg xmlns="http://www.w3.org/2000/svg" viewBox="0 0 64 64" enable-background="new 0 0 64 64"><path d="m10.791 50.195c-1.383 0-2.502 1.123-2.502 2.51 0 1.389 1.119 2.512 2.502 2.512 1.385 0 2.498-1.123 2.498-2.512 0-1.387-1.113-2.51-2.498-2.51"/><path d="m61.479 24.738h-2.766l.548-1.563c.451-.998.338-1.813-.243-1.879h-3.773l.255-1.133c.285-1.275-.121-2.309-.905-2.309h-3.095l.301-2.588c.287-1.275-.12-2.309-.904-2.309h-4.24c-.188-1.14-.881-1.988-1.714-1.988h-20.591v-3.373c0-1.434-.789-2.596-1.766-2.596h-18.82c-.977 0-1.766 1.162-1.766 2.596v51.404h44.709l15.014-32.383c.451-.998.338-1.812-.244-1.879m-16.645 32.262h-40.959v-49.404c0-.289.066-.487.121-.596h18.358c.056.108.122.308.122.596v3.375 2h1.875 20.36c.058.116.122.323.122.596v43.433zm1.875-42.041h3.24l-.007.062-3.233 27.622v-27.684m4.559 4.896h2.375l-4.89 21.597 2.515-21.597m3.523 3.442h2.426l-6.854 19.561 4.428-19.561m-1.61 17.23l4.833-13.789h1.562l-6.395 13.789"/><path d="m23.92 50.195c-1.387 0-2.498 1.123-2.498 2.51 0 1.389 1.111 2.512 2.498 2.512 1.381 0 2.502-1.123 2.502-2.512 0-1.387-1.121-2.51-2.502-2.51"/><ellipse cx="36.898" cy="52.706" rx="2.5" ry="2.511"/></svg>