<svg xmlns="http://www.w3.org/2000/svg" viewBox="0 0 64 64" enable-background="new 0 0 64 64"><path d="m28.547 23.8l-4.367-.863c-.467-.092-.848.215-.848.682v3.09c0 .467.381.924.848 1.016l4.367.861c.467.092.85-.215.85-.682v-3.09c-.001-.467-.383-.922-.85-1.014"/><path d="m61.77 8.201c0-.001 0-.003-.001-.004 0-.001-.001-.001-.001-.002-.001-.001-.001-.003-.002-.004-.002-.002-.004-.005-.006-.008-.276-.51-.735-.863-1.264-.969l-26.028-5.197c-.151-.03-.311-.02-.459.029l-20.685 6.87c-.009.003-.016.007-.023.008l-.098.033c-.013.003-.021.012-.033.016-.584.221-.988.776-.988 1.456v25.304l-4.271-1.452-.638 4.845-3.418-.683c-1.02-.197-1.855.548-1.855 1.532v16.059c0 .863.66 1.67 1.504 1.838l20.514 4.097c.111.02.219.031.324.031.859 0 1.532-.687 1.532-1.563v-.065l4.881-2.223c3.615.723 6.948 1.392 8.958 1.806.835.171 1.346.2 2.546-.239 4.358-1.598 16.996-6.203 16.996-6.203 1.828-.699 2.747-1.884 2.73-3.512l.015-40.949c0-.286-.076-.564-.23-.851m-52.348 28.536l11.656 3.964-5.418.101-6.6-1.318.362-2.747m8.038-3.437l-1.831 3.606-.03-.01-.189-3.819 2.05.223m-.703-3.418v-15.72l20.238 4.066v15.719l-20.238-4.065m2.248 4.402l7.894 6.31-.405.007-9.12-3.102 1.631-3.215m5.052 25.815l-20.239-4.066v-15.72l20.238 4.065v15.721zm3.214-5.929l-1.396.125v-9.916c0-.874-.646-1.664-1.505-1.838l-.273-.055 2.939-.055 3.031 10.465-2.796 1.274m1.58-12.018l3 2.399-1.878 1.479-1.122-3.878m3.136 8.703l-.66-.148-.805-2.777 1.592-1.254-.127 4.179m.254-8.336l-11.022-8.81 11.254 1.223-.232 7.587m7.511 15.567l-6.15-1.234 3.112-1.418.418.084c.426.084.772-.196.772-.626v-5.565-10.496c0-.43-.347-.849-.772-.933l-2.912-.582.062-2.034 2.676.535c.11.021.219.032.323.032.859 0 1.532-.686 1.532-1.562v-16.058c0-.874-.646-1.665-1.505-1.84l-20.513-4.097c-1.021-.198-1.856.548-1.856 1.531v16.059c0 .521.232 1.008.599 1.356l-1.538-.167v-20.205l25.753 5.07v42.15zm1.547-43.888l-24.031-4.655 17.082-5.672 23.683 4.77-16.734 5.557m18.868 35.812c.006.585-.174 1.252-1.541 1.776l-16.356 5.97v-41.943l17.912-5.95-.015 40.147"/><path d="m9.947 56.135l4.367.863c.467.092.85-.215.85-.682v-3.09c0-.467-.383-.924-.85-1.016l-4.367-.86c-.467-.092-.85.213-.85.68v3.092c.001.464.383.921.85 1.013"/></svg>