<svg xmlns="http://www.w3.org/2000/svg" viewBox="0 0 64 64" enable-background="new 0 0 64 64"><path d="m61.699 46.101c-.042-.042-.09-.081-.141-.113-1.489-1.199-14.357-11.592-21.064-17.674.218-.64.141-.904.141-.904l-6.374-6.375c0 0 .088.224-.079.787-6.153-6.973-15.064-18.007-16.168-19.379.011.016.015.038.023.055-.042-.071-.083-.142-.14-.197-1.203-1.203-5.67 1.313-9.978 5.621-4.307 4.307-6.822 8.774-5.619 9.978.057.056.129.098.201.14-.019-.011-.042-.015-.061-.026 1.373 1.107 12.411 10.021 19.382 16.173-.567.168-.789.073-.789.073l6.374 6.376c0 0 .258.092.911-.133 6.084 6.707 16.468 19.566 17.668 21.057.034.049.072.096.115.141.203.203.5.301.874.301 1.836 0 5.525-2.342 9.104-5.92 4.308-4.309 6.823-8.777 5.62-9.981m-52.3-38.238c1.652-1.651 3.34-2.639 3.772-2.207.067.068.101.165.103.29-.487-.163-1.72.567-2.906 1.754-1.3 1.3-2.053 2.655-1.683 3.023.157.159.494.111.931-.095-1.14.888-2.109 1.318-2.423 1.005-.432-.43.557-2.118 2.206-3.77m-5.062 8c-.361-.361-.249-1.135.23-2.155.011.167.061.302.156.397.677.677 3.326-.874 5.918-3.462 2.591-2.591 4.14-5.241 3.462-5.918-.256-.256-.794-.194-1.505.123 2.018-1.434 3.668-2.069 4.246-1.492.903.904-1.164 4.437-4.617 7.89-3.454 3.454-6.988 5.521-7.89 4.617m10.919-2.386c-.132.134-.264.268-.396.401-.469.467-.939.917-1.414 1.349l14.486 14.484c-.6.576-1.146 1.075-1.652 1.515l-15.416-13.84c-.71.542-1.417 1.04-2.109 1.487l15.541 13.951c-.244.176-.459.315-.671.453-5.074-4.514-12.585-10.692-16.979-14.271 2.352-1.236 4.922-3.365 6.959-5.403.863-.864 3.799-3.911 5.397-6.961 3.469 4.262 9.71 11.852 14.271 16.979-.092.142-.17.272-.278.429l-13.771-15.338c-.473.676-.987 1.359-1.545 2.045l13.739 15.304c-.484.564-1.048 1.185-1.707 1.871l-14.455-14.455m39.498 41.277c-3.396 3.396-6.345 5.11-7.536 5.343-1.659-2.058-11.202-13.853-17.176-20.484 1.194-.773 2.868-2.107 5.165-4.404 1.043-1.044 1.876-1.949 2.56-2.75l19.224 18.701 1.636-1.922-19.303-18.774c.108-.156.188-.288.278-.43 6.533 5.885 18.075 15.23 20.498 17.186-.219 1.071-1.835 4.023-5.346 7.534"/><path d="m32.428 41.338c5.558 6.359 12.84 15.326 15.017 18.02.443-.162 1.166-.5 2.164-1.154 1.496-.979 3.119-2.328 4.693-3.903l-17.281-17.282c-1.511 1.512-3.046 2.953-4.593 4.319"/></svg>