<svg xmlns="http://www.w3.org/2000/svg" viewBox="0 0 64 64" enable-background="new 0 0 64 64"><path d="m56.139 9.846h-2.875c-.025-1.784-.279-3.636-1.135-5.306-.615-1.206-1.902-2.503-3.852-2.518-.06-.003-.105-.022-.168-.022-3.82 0-4.901 3.746-4.926 7.846h-1.48c-.025-1.784-.279-3.636-1.136-5.306-.615-1.206-1.902-2.503-3.853-2.518-.059-.003-.104-.022-.167-.022-3.819 0-4.9 3.746-4.926 7.846h-1.48c-.025-1.784-.279-3.636-1.136-5.306-.615-1.206-1.902-2.503-3.853-2.518-.059-.003-.104-.022-.168-.022-3.819 0-4.9 3.746-4.926 7.846h-1.48c-.025-1.784-.279-3.636-1.135-5.306-.615-1.206-1.902-2.503-3.853-2.518-.059-.003-.104-.022-.167-.022-3.819 0-4.9 3.746-4.925 7.846h-.637c-2.132 0-3.861 1.687-3.861 3.768v44.617c0 2.082 1.729 3.769 3.861 3.769h2.891 42.496 2.891c2.132 0 3.861-1.687 3.861-3.769v-44.617c0-2.081-1.729-3.768-3.861-3.768m-1.028 35.495v12.891c0 .969-.836 1.758-1.863 1.758h-10.597c5.667-2.835 10.07-8.37 12.46-14.649m-6.506-40.844c1.484.296 1.756 3.935 1.77 5.349h-4.092c.014-3.915.844-5.643 2.322-5.349m-11.562 0c1.485.295 1.758 3.935 1.771 5.349h-4.092c.013-3.915.841-5.643 2.321-5.349m-11.563 0c1.485.295 1.758 3.935 1.771 5.349h-4.092c.014-3.915.842-5.643 2.321-5.349m-13.882 5.349c.014-3.915.843-5.643 2.321-5.349 1.484.296 1.757 3.935 1.771 5.349h-4.092m-5.598 48.385v-44.617c0-.969.835-1.758 1.861-1.758h.739c.179 1.641.628 3.517 1.586 4.797-.001.037-.011.071-.011.107 0 1.56 1.299 2.826 2.896 2.826 1.6 0 2.898-1.267 2.898-2.826 0-1.563-1.299-2.828-2.898-2.828-.35 0-.682.07-.992.182-.193-.652-.32-1.455-.396-2.258h8.478c.188 1.719.667 3.704 1.723 4.983.044 1.521 1.316 2.747 2.891 2.747 1.598 0 2.895-1.267 2.895-2.826 0-1.563-1.297-2.828-2.895-2.828-.398 0-.776.079-1.122.22-.199-.659-.331-1.478-.407-2.296h8.479c.188 1.717.666 3.701 1.721 4.98.043 1.523 1.318 2.75 2.889 2.75 1.602 0 2.896-1.267 2.896-2.826 0-1.563-1.295-2.828-2.896-2.828-.396 0-.773.079-1.118.22-.199-.659-.331-1.478-.407-2.296h8.478c.188 1.719.667 3.705 1.724 4.985.045 1.521 1.318 2.745 2.887 2.745 1.602 0 2.898-1.267 2.898-2.826 0-1.563-1.297-2.828-2.898-2.828-.396 0-.773.079-1.119.22-.199-.659-.33-1.478-.406-2.296h6.877c1.027 0 1.863.789 1.863 1.758v26.197c-.822 1.391-1.963 2.879-3.523 4.204v-2.193h-42.894v2.795h42.133c-2.58 1.927-6.173 3.37-11.164 3.37 0 .783-.033 1.516-.084 2.221h-9.439v2.795h9.088c-.619 3.376-1.798 5.599-2.854 6.986h-28.516c-1.026 0-1.861-.789-1.861-1.758"/><path d="m8.697 25.051h42.891v2.795h-42.891z"/><path d="m8.697 33.437h42.891v2.795h-42.891z"/></svg>