<svg xmlns="http://www.w3.org/2000/svg" viewBox="0 0 64 64" enable-background="new 0 0 64 64"><path d="m59.31 54.952c-1.149 0-2.123.791-2.506 1.897h-2.074v-1.645c0-.799-.595-1.447-1.329-1.447h-1.409v-8.963c.555 0 1.109 0 1.664 0 .358 0 .716 0 1.074 0 1.81 0 3.319-1.646 3.319-3.615 0-1.556-.947-2.894-2.235-3.394v-.224-20.31-.22c1.288-.5 2.235-1.837 2.235-3.393 0-1.97-1.51-3.615-3.319-3.615-3.193 0-6.387 0-9.58 0-1.98-2.155-3.959-4.308-5.938-6.462-.139-.151-.277-.301-.416-.452-.654-.713-1.504-1.109-2.434-1.109-.359 0-.716 0-1.074 0-1.732 0-3.464 0-5.196 0-3.604 0-7.208 0-10.812 0-.138 0-.272 0-.408 0-1.81 0-3.319 1.644-3.319 3.614 0 1.007.398 1.926 1.027 2.586-2.852.086-5.439.354-7.194.928-1.952.639-5.511 4.041-5.511 6.095 0 1.832 2.825 4.727 4.822 5.787-.435.092-.838.191-1.187.306-1.951.639-5.51 4.041-5.51 6.095 0 2.055 3.559 5.454 5.511 6.093.877.287 2.051.498 3.415.649-1.92 1.253-4.238 3.788-4.238 5.445 0 2.055 3.559 5.454 5.511 6.093 1.232.402 2.799.652 4.531.791-.711.667-1.176 1.639-1.176 2.723 0 1.97 1.51 3.614 3.319 3.614 2.955 0 5.909 0 8.864 0 2.013 0 4.025 0 6.037 0 .651 0 1.301 0 1.95 0 1.112 0 2.134-.088 3.026-1.061 2.132-2.321 4.266-4.644 6.399-6.964.453 0 .908 0 1.363 0v8.963h-1.412c-.733 0-1.327.648-1.327 1.447v1.645h-2.073c-.384-1.106-1.359-1.897-2.509-1.897-1.485 0-2.69 1.312-2.69 2.927 0 1.616 1.205 2.928 2.69 2.928 1.149 0 2.124-.791 2.509-1.897h2.073v1.645c0 .798.594 1.446 1.327 1.446h8.3c.734 0 1.329-.648 1.329-1.446v-1.645h2.074c.383 1.106 1.356 1.897 2.506 1.897 1.487 0 2.69-1.312 2.69-2.928.001-1.615-1.202-2.927-2.689-2.927m-19.288 2.8c-.46 0-.831-.404-.831-.902 0-.5.371-.904.831-.904.457 0 .829.404.829.904.001.498-.372.902-.829.902m4.541-40.501c.291 0 .582 0 .872 0 2.064 0 4.129 0 6.195 0 .771 0 1.539 0 2.308 0v.244l-9.375 2.899v-3.143m0 6.529l9.375-2.898v3.387l-9.375 2.898v-3.387m0 6.773l9.375-2.898v3.383l-9.375 2.899v-3.384m-38.387-15.329c0-1.629 3.291-4.329 5.095-4.835 6.113-1.718 22.195 0 22.195 0v2.011h-17.526l17.525.91v2.884l-12.604 1.057 12.604-.156v2.963c0 0-2.664.285-6.236.506-4.503-.216-9.73-.343-13.904-.097-.763-.107-1.458-.241-2.055-.409-1.804-.507-5.094-3.204-5.094-4.834m3.209 16.797c-1.829-.482-5.163-3.056-5.163-4.61 0-1.554 3.334-4.131 5.163-4.614 1.265-.334 3.139-.534 5.313-.641 3 .195 6.481.131 9.68-.028 6.257.177 11.878.604 11.878.604v1.729l-8.817.441 8.817.441v2.318l-18.36 2.084 18.36-1.188v3.528c0 0-5.485.418-11.65.6-2.705-.133-5.553-.16-8.044.048-2.961-.077-5.563-.284-7.177-.712m24.706 6.187l-10.494-.964 10.494 1.863v1.623l-17.135 1.592 17.135-.681v2.583c0 0-13.92 1.75-19.977.078-1.788-.492-5.048-3.116-5.048-4.702 0-1.587 3.26-4.213 5.048-4.706.66-.183 1.417-.321 2.236-.428 3.121.06 6.542-.023 9.696-.16 4.383.231 8.045.7 8.045.7v3.202m8.597-20.957v20.312.212c-.198.069-.395.159-.592.284-.564.361-1.032.959-1.494 1.46-1.426 1.554-2.854 3.108-4.281 4.663-.432.469-.862.939-1.293 1.408v-11.827c1.355-.104 2.164-.177 2.164-.177v-12.357c0 0-1.063-.095-2.789-.224v-11.778c.208 0 .416 0 .625 0 1.978 2.154 3.956 4.309 5.935 6.462.138.152.277.302.416.453.379.412.825.701 1.31.885v.224zm1.875 20.312v-.24l9.375-2.898v3.139h-9.375zm4.689 23.493h-2.739v-6.353h2.739v6.353m2.739 0h-1.37v-6.353h1.37v6.353m8.314-3.304c-.459 0-.829-.404-.829-.902 0-.5.37-.904.829-.904.46 0 .83.404.83.904 0 .498-.37.902-.83.902"/></svg>