<svg xmlns="http://www.w3.org/2000/svg" viewBox="0 0 64 64" enable-background="new 0 0 64 64"><path d="m56.139 10.139h-2.881c-.045-1.812-.315-3.68-1.129-5.371-.424-.884-1.061-1.803-2.023-2.321-.338-.228-.85-.447-1.612-.447-4.267 0-5.592 5.966-5.592 8.139h-1.207c-.045-1.812-.315-3.68-1.129-5.371-.487-1.013-1.249-2.077-2.467-2.522-.316-.139-.716-.246-1.24-.246-4.267 0-5.592 5.966-5.592 8.139h-1.133c-.046-1.812-.317-3.68-1.129-5.371-.555-1.155-1.463-2.381-3.005-2.673-.229-.054-.478-.095-.775-.095-4.267 0-5.592 5.966-5.592 8.139h-1.061c-.047-1.812-.315-3.68-1.127-5.371-.57-1.186-1.518-2.441-3.137-2.689-.213-.046-.446-.079-.718-.079-4.267 0-5.592 5.966-5.592 8.139h-.135c-2.133 0-3.863 1.679-3.863 3.749v44.364c0 2.068 1.73 3.748 3.863 3.748h48.275c2.133 0 3.862-1.68 3.862-3.748v-44.364c0-2.07-1.729-3.749-3.861-3.749m-5.346 6.877c0 1.552-1.295 2.812-2.896 2.812-1.168 0-2.158-.679-2.612-1.647.609.429 1.367.694 2.33.694.674 0 1.243-.189 1.646-.546.378-.335.586-.791.586-1.283 0-.809-.614-1.669-1.753-1.669-.44 0-.729-.439-.922-1.069.232-.061.473-.102.725-.102 1.601-.002 2.896 1.256 2.896 2.81m-.432-6.877h-3.57c0-1.619.837-4.641 2.438-4.641.055 0 .305.33.365.464.436.968.729 2.766.767 4.177m-1.867-7.139c.618 0 .975.192 1.165.353.2.17.314.39.314.603 0 .341-.278.544-.745.544-2.429 0-3.438 3.673-3.438 5.64 0 2.18 0 6.236 2.303 6.236.52 0 .753.336.753.67 0 .202-.089.393-.249.534-.218.193-.558.295-.983.295-3.271 0-3.712-3.911-3.712-7.735 0-1.83 1.131-7.14 4.592-7.14m-4.422 27.492v1.843h-7.48v-10.251h2.207v8.408h5.273m-7.736-10.665c-1.135 0-2.104-.638-2.574-1.561.589.381 1.316.608 2.218.608.674 0 1.243-.189 1.646-.546.378-.335.586-.791.586-1.283 0-.809-.614-1.669-1.753-1.669-.435 0-.723-.428-.915-1.046.253-.073.515-.125.792-.125 1.6 0 2.896 1.258 2.896 2.812 0 1.551-1.296 2.81-2.896 2.81m-1.18-9.688c0-1.619.837-4.641 2.438-4.641.079 0 .369.321.439.464.47.952.729 2.766.768 4.177h-3.645m1.703-7.139c.618 0 .975.192 1.165.353.2.17.314.39.314.603 0 .341-.278.544-.745.544-2.429 0-3.438 3.673-3.438 5.64 0 2.18 0 6.236 2.303 6.236.52 0 .753.336.753.67 0 .202-.089.393-.249.534-.218.193-.558.295-.983.295-3.271 0-3.712-3.911-3.712-7.735.001-1.83 1.131-7.14 4.592-7.14m-8.621 19.084v6.294c0 .705.086 1.22.256 1.544.268.574.848.861 1.742.861.889 0 1.471-.287 1.734-.861.172-.324.258-.84.258-1.544v-6.294h2.242v6.3c0 1.089-.174 1.938-.521 2.546-.648 1.113-1.887 1.669-3.713 1.669s-3.068-.557-3.719-1.669c-.35-.607-.523-1.457-.523-2.546v-6.3h2.244m-3.463-2.257c-1.11 0-2.064-.611-2.549-1.501.572.344 1.266.548 2.118.548.674 0 1.243-.189 1.646-.546.378-.335.586-.791.586-1.283 0-.809-.614-1.669-1.753-1.669-.43 0-.715-.417-.908-1.022.273-.087.557-.149.859-.149 1.598 0 2.895 1.258 2.895 2.812.001 1.551-1.296 2.81-2.894 2.81m-1.254-9.688c0-1.619.837-4.641 2.438-4.641.104 0 .431.311.512.464.499.937.728 2.766.766 4.177h-3.716m1.704-7.139c.618 0 .975.192 1.165.353.2.17.314.39.314.603 0 .341-.278.544-.745.544-2.429 0-3.438 3.673-3.438 5.64 0 2.18 0 6.236 2.303 6.236.52 0 .753.336.753.67 0 .202-.089.393-.249.534-.218.193-.558.295-.983.295-3.271 0-3.712-3.911-3.712-7.735 0-1.83 1.131-7.14 4.592-7.14m-8.188 25.447h2.086v.236c.02.792.102 1.351.252 1.673.15.322.473.483.967.483.49 0 .811-.177.969-.528.096-.208.141-.561.141-1.057v-7.17h2.207v7.136c0 .871-.15 1.562-.455 2.072-.514.863-1.439 1.294-2.781 1.294-1.34 0-2.24-.35-2.697-1.048-.457-.698-.688-1.648-.688-2.855v-.236zm-3.848-13.072c-.435 0-.722-.427-.914-1.043.254-.075.518-.128.797-.128 1.6 0 2.898 1.258 2.898 2.812 0 1.552-1.299 2.812-2.898 2.812-1.131 0-2.098-.635-2.571-1.554.588.377 1.313.601 2.209.601.674 0 1.243-.189 1.646-.547.378-.334.586-.79.586-1.283 0-.81-.614-1.67-1.753-1.67m-1.302-5.236c0-1.619.837-4.641 2.438-4.641.13 0 .493.301.586.464.525.923.728 2.766.766 4.177h-3.79m1.703-7.139c.618 0 .975.192 1.165.353.2.169.314.39.314.603 0 .341-.278.544-.745.544-2.429 0-3.438 3.673-3.438 5.64 0 2.18 0 6.236 2.303 6.236.52 0 .753.336.753.669 0 .203-.089.393-.249.535-.218.193-.558.295-.983.295-3.271 0-3.712-3.91-3.712-7.735 0-1.83 1.131-7.14 4.592-7.14m41.519 55.252c0 .964-.835 1.749-1.861 1.749h-45.385c-1.027 0-1.863-.785-1.863-1.749v-22.115h49.109v22.115"/><path d="m20.828 58.721h4.07v-20.617h-3.318c0 .182-.051.457-.154.825-.176.615-.432 1.109-.777 1.478-.498.541-1.15.9-1.947 1.08-.5.115-1.377.201-2.629.258v2.759h4.756v14.217z"/><path d="m37.105 47.189c-2.262 3.99-3.451 7.834-3.572 11.531h4.127c0-1.186.227-2.703.686-4.551.455-1.848.967-3.412 1.537-4.692.715-1.63 1.605-3.21 2.668-4.741s1.893-2.594 2.486-3.192v-3.169h-14.279l-.055 3.639h10.074c-.988.976-2.211 2.702-3.672 5.175"/></svg>