<svg xmlns="http://www.w3.org/2000/svg" viewBox="0 0 64 64" enable-background="new 0 0 64 64"><path d="m41.82 34.893c-3.617.866-7.356 1.213-11.078 1.195-3.748.01-7.477-.299-11.107-1.126-1.809-.429-3.595-.981-5.294-1.757-1.694-.773-3.349-1.724-4.694-3.096 1.047 1.645 2.646 2.863 4.291 3.887 1.673 1 3.479 1.768 5.337 2.334 3.719 1.152 7.618 1.553 11.456 1.576 3.865-.019 7.753-.459 11.462-1.65 1.853-.586 3.647-1.371 5.319-2.365 1.647-1.018 3.241-2.209 4.383-3.781-1.423 1.287-3.082 2.221-4.784 2.992-1.704.773-3.486 1.343-5.291 1.791"/><path d="m56.576 11.458c-2.033-3.139-11.885-6.51-20.121-8.088-4.545-.87-9.492-1.37-13.572-1.37-8.718 0-9.181 2.104-9.323 2.752l-.754 2.786c-.033.089-.06.178-.079.263-.004.017-.004.04-.007.058l-.03.109c-.044.163-.025.329.019.488.041.258.142.552.345.868 1.21 1.867 5.675 3.774 11.054 5.35-9.102 1.299-17.108 5.346-17.108 12.562 0 .038.002.076.007.115l2.663 21.272c.013 1.978.707 3.854 1.931 5.545l.222 1.188c.553 2.909 7.667 6.393 10.855 5.615 2.494.662 5.226 1.029 8.092 1.029 11.604 0 21.05-5.996 21.101-13.377l2.661-21.272c.005-.038.008-.076.008-.114 0-3.684-2.089-6.54-5.342-8.628 4.935-.046 6.503-.938 7.024-1.809.089-.116.159-.246.185-.394l.013-.078c.009-.029.018-.059.024-.088.014-.066.022-.145.029-.225l.481-2.842c.124-.561-.004-1.138-.378-1.715m-3.826 15.722l-2.662 21.27c-.005.037-.006.076-.006.114 0 6.406-8.664 11.618-19.313 11.618-2.271 0-4.443-.249-6.471-.686.889-1.75 1.256-4.48 1.256-4.48l-.267-1.438c-6.335-.852-10.03-4.307-10.03-4.307s-1.807 1.399-2.901 2.789c-.582-1.104-.898-2.279-.898-3.497 0-.038-.002-.077-.007-.114l-2.662-21.269c.053-7.326 10.441-10.838 20.582-11.132.354.082.705.163 1.059.241-10.533.084-19.018 4.052-19.018 8.934 0 4.936 8.667 8.938 19.357 8.938 10.691 0 19.359-4.002 19.359-8.938 0-2.786-2.763-5.274-7.092-6.913.617.058 1.221.107 1.811.149 4.483 1.761 7.872 4.569 7.903 8.721m-13.795-1.324c.567-.389 1.152-.785 1.738-1.172.477-1.48.398-4.025 2.262-4.36 1.144-.206 1.985.563 2.634 1.458.712-.326 1.222-.465 1.401-.314.915.769.775 1.918.443 2.875.504.397 1.156.744 1.783 1.027-.188 4.287-8.552 7.883-18.447 7.883-7.3 0-13.756-1.961-16.726-4.708.009-.005.019-.011.027-.017-.829-1.287-1.526-2.629-1.182-3.083.67-.878 2.063.02 3.323.929 1.205-2.009.899-3.976 2.966-4.508.851-.22 1.269.353 1.617 1.182 1.354-.501 3.131-.862 4.672-2.546.697-.761.779 1.092.703 2.993.268.015.553.164.847.413.149-.667.37-1.109.669-1.194 1.46-.417 2.115.977 2.723 2.093 1.873-4.076 2.94-3.378 3.046.165 1.047-.956 2.216-2.095 3.509-1.455.888.44.703 1.299.204 2.18.636.09 1.258.164 1.788.159m10.749-9.071c1.119-.183 1.808-.493 1.908-.943.363-1.639-7.013-4.444-16.474-6.265-9.463-1.822-17.432-1.969-17.795-.33-.111.499.503 1.106 1.667 1.76-2.926-1.201-4.468-2.244-4.545-2.79.005-.01.665-.972 5.9-.972 4.077 0 9.382.586 14.937 1.651 12.629 2.418 19.24 5.775 19.4 6.927-.003.01-.589.859-4.998.962m5.359-3.155c-3.246-2.548-11.691-5.039-19.43-6.521-5.658-1.084-11.081-1.682-15.267-1.682-2.479 0-4.143.206-5.275.516l.203-.751c.064-.291 1.54-1.374 7.588-1.374 3.974 0 8.801.488 13.242 1.339 9.716 1.861 17.646 5.277 18.957 7.3.116.179.133.287.117.363l-.135.81"/></svg>