<svg xmlns="http://www.w3.org/2000/svg" viewBox="0 0 64 64" enable-background="new 0 0 64 64"><path d="m55.211 13.856c1.809-1.026 3.027-2.95 3.027-5.157 0-3.283-2.695-5.945-6.02-5.945-2.236 0-4.186 1.203-5.225 2.989-1.286-2.235-3.718-3.743-6.507-3.743-4.137 0-7.489 3.311-7.489 7.395s3.352 7.395 7.489 7.395c.354 0 .701-.025 1.043-.072l-1.059 1.046-2.27.038-.039 2.241-.65.642-.174-.173c-.516-.507-1.355-.507-1.869 0l-.117.115c-.514.508-.514 1.338 0 1.846l.176.173-27.797 27.449.546.538-.737.727c-.78-.366-1.613-.329-2.119.17-.702.693-.504 2.013.441 2.947.946.935 2.282 1.13 2.984.437.507-.5.543-1.322.173-2.093l.736-.728.545.539 3.841-3.794 1.596 1.577-4.18 4.126 1.766 1.743 1.09-1.076 1.583 1.563-1.09 1.076.884.872.076.077 3.246 3.204 3.009-2.973-3.244-3.203 2.103-2.076 3.166 3.127 2.232-2.205-3.166-3.127 2.102-2.076 3.322 3.281 3.01-2.973-3.322-3.281-.959-.948-1.092 1.076-1.582-1.563 1.09-1.076-1.766-1.743-4.178 4.126-1.596-1.575 19.856-19.608.174.174c.514.507 1.355.507 1.869 0l.117-.115c.514-.508.514-1.338 0-1.846l-.176-.174.65-.641 2.27-.038.037-2.241 1.061-1.047c-.049.338-.074.682-.074 1.031 0 4.084 3.354 7.395 7.488 7.395s7.488-3.312 7.488-7.396c0-2.756-1.525-5.156-3.789-6.429m-3.69 11.358c-2.76 0-4.994-2.236-4.994-4.995 0-1.069.342-2.056.916-2.868l-1.25-1.241.516-.51c.779.365 1.613.329 2.119-.17.701-.693.506-2.014-.441-2.947-.945-.935-2.281-1.129-2.984-.436-.506.498-.543 1.322-.172 2.092l-.516.51-1.25-1.246c-.832.619-1.854.999-2.971.999-2.758 0-4.994-2.236-4.994-4.995 0-2.758 2.236-4.994 4.994-4.994 2.756 0 4.988 2.23 4.994 4.982h3.09c-.035-.207-.063-.417-.063-.635 0-2.051 1.662-3.714 3.713-3.714s3.715 1.663 3.715 3.714-1.664 3.714-3.715 3.714c-.244 0-.484-.026-.715-.072v2.824c.002 0 .004-.001.008-.001 2.76 0 4.994 2.236 4.994 4.994.001 2.759-2.234 4.995-4.994 4.995"/></svg>