<svg xmlns="http://www.w3.org/2000/svg" viewBox="0 0 64 64" enable-background="new 0 0 64 64"><path d="m38.677 32.023c4.772-5.244 7.681-9.729 8.652-13.366 1.056-3.95-1.138-7.267-3.851-8.502-2.664-1.214-5.465-.395-7.146 2.093-1.886 2.794-1.198 5.383-.037 6.752 1.237 1.456 3.14 1.942 4.736 1.21.825-.381 1.184-1.352.806-2.176-.378-.823-1.352-1.185-2.176-.808-.236.108-.6-.038-.865-.352-.567-.669-.472-1.713.256-2.792 1.051-1.557 2.371-1.258 3.066-.942 1.457.664 2.625 2.48 2.041 4.669-.813 3.042-3.447 7.06-7.682 11.754-.115-.224-.256-.438-.443-.625l-21.018-23.357c-.012-.624-.251-1.243-.726-1.719l-.183-.18c-.487-.488-1.126-.731-1.765-.731-.353 0-.706.074-1.033.223-1.034-.783-2.269-1.174-3.504-1.174-1.485 0-2.97.565-4.104 1.699-2.075 2.077-2.252 5.332-.525 7.609-.418.92-.249 2.042.506 2.799l.183.181c.475.477 1.095.715 1.717.728l23.358 21.02c.188.188.401.328.625.442-4.695 4.234-8.713 6.868-11.755 7.683-2.188.584-4.004-.586-4.668-2.042-.316-.693-.615-2.014.941-3.065 1.08-.729 2.123-.823 2.793-.256.312.266.459.63.352.866-.378.822-.018 1.796.807 2.175.824.378 1.795.019 2.175-.806.733-1.597.246-3.501-1.21-4.736-1.368-1.161-3.957-1.848-6.751.036-2.488 1.682-3.306 4.482-2.093 7.146 1.235 2.712 4.552 4.906 8.502 3.852 3.636-.972 8.122-3.881 13.366-8.652 3.257 4.314 12.163 14.35 29.976 23.321-8.971-17.812-19.008-26.717-23.323-29.977m-25.716-25.952l-6.889 6.89c-.16.16-.346.184-.443.184-.117 0-.288-.031-.449-.192l-.171-.168c-.211-.212-.216-.504-.127-.698l.463-1.019-.676-.891c-1.178-1.554-1.024-3.77.357-5.151.742-.742 1.729-1.15 2.779-1.15.866 0 1.686.274 2.372.794l.89.674 1.017-.462c.079-.035.168-.055.258-.055.096 0 .281.023.453.196l.168.164c.243.244.243.64-.002.884m24.427 27.339c3.433 2.582 11.191 9.319 18.898 22.118l-20.485-20.485c.543-.55 1.078-1.097 1.587-1.633m-3.979 3.979c.536-.508 1.083-1.044 1.634-1.588l20.485 20.485c-12.801-7.707-19.54-15.467-22.119-18.897"/></svg>