<svg xmlns="http://www.w3.org/2000/svg" viewBox="0 0 64 64" enable-background="new 0 0 64 64"><path d="m2 11.517v29.794c0 3.598 2.937 6.517 6.563 6.517h29.567l10.39 11.172v-11.173h6.918c3.624 0 6.563-2.919 6.563-6.517v-29.793c-.001-3.599-2.939-6.517-6.563-6.517h-46.875c-3.626 0-6.563 2.918-6.563 6.517m41.794 14.896c0-2.313 1.888-4.189 4.219-4.189s4.219 1.876 4.219 4.189c0 2.315-1.888 4.19-4.219 4.19s-4.219-1.874-4.219-4.19m-16.013 0c0-2.313 1.89-4.189 4.219-4.189s4.219 1.876 4.219 4.189c0 2.315-1.89 4.19-4.219 4.19s-4.219-1.874-4.219-4.19m-16.012 0c0-2.313 1.89-4.189 4.219-4.189 2.331 0 4.219 1.876 4.219 4.189 0 2.315-1.888 4.19-4.219 4.19-2.33.001-4.219-1.874-4.219-4.19"/></svg>