<svg xmlns="http://www.w3.org/2000/svg" viewBox="0 0 64 64" enable-background="new 0 0 64 64"><path d="m61.353 18.068c1.251-1.637.633-2.795-1.373-2.573l-10.504 1.17c-2.008.224-3.685-1.302-3.732-3.388l-.211-9.47c-.046-2.086-1.057-2.415-2.246-.73l-7.55 10.7c-1.188 1.686-3.101 1.66-4.246-.057l-5.056-7.565c-1.146-1.716-2.348-1.435-2.668.625l-1.153 7.435c-.32 2.06-2.071 3.009-3.892 2.11l-13.502-6.677c-1.82-.899-2.446-.179-1.392 1.6l6.924 11.687c1.053 1.78.472 4.064-1.289 5.077l-6.248 3.589c-1.765 1.012-1.585 2.159.395 2.548l9.981 1.963c1.979.39 3.937 2.522 3.237 4.483-2.173 6.092-14.358 21.405-14.358 21.405s18.446-9.43 23.379-14.205c1.478-1.431 3.378-2.113 4.986-.857l6.72 5.234c1.612 1.256 2.867.576 2.79-1.51l-.236-6.518c-.074-2.085 1.385-3.133 3.245-2.328l14.494 6.268c1.86.805 2.438.064 1.28-1.646l-7.021-10.39c-1.157-1.71-1.08-4.447.169-6.085l9.077-11.895"/></svg>