<svg xmlns="http://www.w3.org/2000/svg" viewBox="0 0 64 64" enable-background="new 0 0 64 64"><path d="m33.725 32.591c-.941.058-1.708.59-2.294 1.603-.59 1.017-.908 2.432-.943 4.239-.034 1.812.224 3.18.776 4.101.552.92 1.299 1.323 2.243 1.221.936-.103 1.687-.665 2.245-1.682.559-1.015.855-2.4.888-4.162.035-1.756-.21-3.091-.732-4.014-.522-.927-1.25-1.364-2.183-1.306"/><path d="m44.966 16.827c.456-2.776.858-7.825-.572-14.092l-.168-.735-33.791.604.264 1.112c1.286 5.426 1.045 10.278.656 13.268l-9.355.241 2.423 31.301 7.268 13.474 47.771-8.549 2.538-33.639-17.034-2.985m-32.196-12.419l29.955-.535c1.448 6.983.404 13.711 0 15.48l-29.948 1.358c.485-2.412 1.39-9.482-.007-16.303m9.893 43.007l-2.482.297-3.99-16.534 2.89-.149 2.478 12.506 2.984-12.787 2.628-.135-4.508 16.802m14.491-3.118c-.86 1.315-2.089 2.074-3.704 2.271-1.635.198-2.888-.273-3.744-1.426-1.165-1.411-1.722-3.583-1.659-6.499.059-2.971.705-5.238 1.926-6.79.905-1.296 2.178-1.981 3.807-2.063 1.608-.079 2.81.469 3.617 1.637 1.076 1.359 1.582 3.452 1.53 6.287-.053 2.783-.641 4.974-1.773 6.583m11.062-12.144l-3.02.191-.22 12.404-2.183.26.228-12.525-3.185.201.052-2.727 8.373-.431-.045 2.627m8.297 11.217l-7.233.865.251-14.773 6.985-.36-.042 2.527-4.997.317-.049 3.105 4.598-.358-.04 2.487-4.602.412-.063 3.768 5.231-.563-.039 2.573"/><path d="m40.253 7.912c-5.405.105-10.811.212-16.218.316.005.438.002.876-.01 1.313 5.411-.106 10.82-.215 16.23-.32.007-.437.007-.873-.002-1.309"/><path d="m18.898 11.063c.146.113.35.083.451-.066.827-1.219 1.611-2.436 2.332-3.652.09-.149 0-.328-.195-.395-.119-.041-.238-.083-.355-.123-.197-.068-.429-.001-.517.148-.487.834-1.003 1.669-1.543 2.504-.096.151-.299.182-.449.068-.421-.319-.846-.641-1.274-.959-.151-.112-.4-.108-.553.013-.094.071-.185.144-.278.216-.15.119-.153.311-.004.422.807.607 1.602 1.214 2.385 1.824"/><path d="m39.806 15.568c-5.425.115-10.853.229-16.28.345-.053.438-.107.876-.162 1.313 5.429-.117 10.857-.232 16.287-.348.052-.437.105-.873.155-1.31"/><path d="m21.391 14.467c-1.785.038-3.57.074-5.354.112-.156 1.437-.343 2.873-.531 4.31 1.787-.039 3.574-.079 5.361-.119.187-1.433.372-2.868.524-4.303"/></svg>