<svg xmlns="http://www.w3.org/2000/svg" viewBox="0 0 64 64" enable-background="new 0 0 64 64"><path d="m33.574 57.039c-.763-9.927 4.268-17.382 4.268-17.382-10.239 8.364-8.611 22.343-8.611 22.343h3.869 1.331 1.205c-1.647-6 1.664-10.897 1.664-10.897-2.117 1.729-3.189 3.95-3.726 5.936"/><path d="M31.69,37.132C20.292,46.44,22.105,62,22.105,62h5.786C24.135,48.311,31.69,37.132,31.69,37.132z"/><path d="m31.784 30.553c0 .226.775.573 1.734.573.957 0 1.733-.348 1.733-.573.001-.146-3.467-.146-3.467 0"/><path d="m32.38 32.304c0 .154.497.394 1.109.394s1.109-.239 1.109-.394c.001-.099-2.218-.099-2.218 0"/><path d="m35.309 27.313c0 .522.748 1.324 1.671 1.324.924 0 1.673-.802 1.673-1.324-.001-.333-3.344-.333-3.344 0"/><path d="m28.384 27.313c0 .522.749 1.324 1.674 1.324.921 0 1.671-.802 1.671-1.324 0-.333-3.345-.333-3.345 0"/><path d="m56 45.196l-10.308-10.177-2.752 2.412v-10.091l5.825-4.312 6.392-4.735-7.845 1.371-5.117.894.344-4.587.561-7.466-4.035 6.314-2.147 3.357-1.579-5.666-1.82-6.53-1.818 6.53-1.579 5.667-2.148-3.359-4.036-6.312.562 7.464.345 4.587-5.117-.894-.38-.066c.048-.16.083-.325.103-.493h1.888v-6.024h-1.096c.355-1.172.347-2.338.205-3.131l-1.275-7.135-1.145 3.31c-2.242-2.627-8.512-4.124-8.512-4.124l2.414 3.678c-1.215.722-2.882 2.379-3.162 5.094-.088.856.026 1.621.239 2.308h-1.002v.882l-.005 1.882v3.261h.654c-.194.372-.303.789-.303 1.228 0 .31.051.608.146.888-.095.274-.146.564-.146.863v.001.045c.001.676.262 1.303.699 1.79.163 1.12.996 2.005 2.071 2.246.624 1.111 1.804 1.856 3.153 1.856h.228l2.223 4.766c-.629 1.953-.76 4.342-.393 7.115l.021.16.048.152 3.229 10.338c-1.016 5.981-1.076 11.447-1.076 11.447h1.889c0 0-.349-11.171 3.712-20.71.462-2.254 1.146-7.1-.305-11.592l.85 1.021-.367-.442 1.651 1.983.632.76c0 0 .49 1.768.094 4.077.26-.297.526-.581.809-.835 2.322-2.098 9.68-2.098 12.001 0 .555.502 1.063 1.096 1.534 1.752v.001c.573.795 1.084 1.689 1.544 2.656l-7.195 7.156 7.625 7.528 2.793-2.674-.991-.979c-.749-.713-.115-1.654.533-1.367-.485-.669.458-1.846 1.146-1.388-.48-.663.597-1.81 1.414-1.127-.448-.933.894-1.668 1.562-.981l1.934 1.91c.6.815-.285 1.77-.99 1.545.616.637-.239 1.871-1.143 1.393.461.611-.675 1.67-1.406 1.133.2.434-.566 1.197-1.384.525l-.665-.656c.007.051.008.102.021.151 1.001 4.06.742 9.16.742 9.16h1.889c0 0-.032-2.933-.434-6.726.229-.09.444-.211.641-.361.671-.037 1.292-.309 1.764-.775.22-.217.398-.463.531-.727.264-.127 1.347-1.314 1.463-1.76.867-.41 1.428-2.895.738-3.678l2.814-2.777m-45.354-34.231c.292-2.831 2.523-3.812 2.523-3.812s-.595 2.369 0 2.708c.075.043.184.07.31.07.532 0 1.387-.482 1.514-2.257.049-.695-.892-2.126-.892-2.126s2.137.727 2.947 2.585c.601 1.379.013 3.784.013 3.784s1.055-.279 1.524-1.639c0 0 .259 1.447-.358 2.802h-7.204c-.276-.566-.464-1.266-.377-2.115m-.752 3.997h.868v.882h.869v-.882h.868v.882h.868v-.882h.869v.882h.868v-.882h.868v.882h.868v-.882h.869v.882h.868v-.882h.868v2.261h-9.556l.005-2.261m4.772 8.05c.619.253.324 1.337-.603 1.337h-2.353c-.939 0-1.249-1.113-.603-1.337-.927-.158-1.031-1.569-.186-1.782-.831-.332-.697-1.758.193-1.783-.669-.254-.832-1.784.403-1.784h2.735c.912 0 1.045 1.575.403 1.784.774.084.818 1.555.194 1.783.835.212.657 1.667-.183 1.782m5.461 12.609l-1.36-2.918c-.001.001-.002.003-.003.006.001-.002.002-.005.003-.007l-3.103-6.654c.473-.315.788-.857.788-1.476l.013-4.724c-.605-.005-1.097-.489-1.097-1.088 0-.604.496-1.092 1.106-1.092.608 0 1.105.488 1.105 1.092 0 .52-.349 1.035-.829 1.035l5.463 9.553c.002-.001.003-.001.005-.002-.002 0-.003.001-.005.002l.805 1.407c.001 4.215-2.891 4.866-2.891 4.866m3.152-8.398c-.021.001-.056.003-.104.007l-.566-.99 1.295.959-.625.024m10.24 6.991c-1.841 0-6.812-2.578-6.812-7.928 0 0 13.621-4.125 13.621 0 0 5.35-4.969 7.928-6.809 7.928"/></svg>