<svg xmlns="http://www.w3.org/2000/svg" viewBox="0 0 64 64" enable-background="new 0 0 64 64"><path d="m9.823 53.364c-.755.199 2.417-1.34.148-1.74-.593-.107-1.582.4-2.265-.402-.678-.803-1.661-.121-1.886.609-.227.729-4.302.863-3.774 1.33.527.469 1.811 2.945 2.34 2.41s1.086-2.074 1.6-1.338.666 2.275-1.146 3.748c-1.811 1.473.906.602.527 2.342-.376 1.74 1.513 1.607 1.813 1.674.303.066 2.038-.938 2.341-1.605.303-.67 2.112-5.422 1.886-5.824-.225-.401-.831-1.407-1.584-1.204"/><path d="m45.379 20.101c0 0-1.357-1.004-1.661 0-.301 1.002 1.736 1.205 1.512 2.008-.227.803-2.267.938-2.343-.537-.073-1.471-.828-.133-.828.938 0 1.072-2.416.135-1.661 1.406s-1.282 2.744-.15 3.012c1.133.268-.378 5.354-1.132 5.889-.758.537-.228 1.539-1.587 1.941-1.36.402-2.794 3.346-4.603 3.816-1.813.469-2.267 1.336-2.491.469-.229-.871-1.588-.738-.378-1.34 1.207-.604 2.037-1.805.753-1.537-1.283.266-2.49 1.469-2.039 2.139.456.67.235 1.941-.788 2.611-1.024.67-2.606 1.605-1.853 2.275.755.67-.227 2.141-1.132 1.605-.907-.535-1.811-1.939-2.718-1.271s-3.32 1.205-4.605 1.004c-1.282-.199-3.172-.803-3.396.068-.227.867-1.998 2.877-2.851 3.078-.851.201-1.476 1.004-2.434 1.203-.698.146-2.038.67-1.134 1.406.906.736 2.755-.938 3.567 0 .814.938 1.493-1.605 1.793-1.004.301.604 2.415.074 3.926-.43 1.511-.508 3.094-1.646 4.606-1.244 1.51.402 2.716.795 1.886 1.402-.831.605-1.435 2.012-.756 2.213.68.201 1.662 1.74 2.568 1.404.906-.334 2.038-3.279 3.396-3.211 1.358.066.38-1.406-.527-1.539-.906-.135 1.132-2.545 1.661-1.406.527 1.137 3.472 2.006 4.15 1.605.681-.4 1.511-1.947 2.494-1.91.979.037-1.511 2.779 0 2.045 1.508-.736 1.432-3.346 2.642-2.543 1.208.803 1.509-2.41 1.659-1.07.152 1.336-.907 2.408 0 2.072.907-.334 3.021-2.541 2.567-3.881-.454-1.338-.754-3.414.681-4.15 1.434-.734-.455-5.822.905-5.822 1.358 0 1.358.619 1.435-.828.075-1.447.604-2.115 1.659-3.254 1.058-1.139-1.811-4.752-2.187-5.354-.379-.603.828-2.61-.606-3.278"/><path d="m20.393 49.265c-.639.117-1.965-.535-2.492.334-.53.871-1.209.352-1.585.887-.379.535-1.284-1.004-1.89 0-.603 1.004-2.112 2.074-1.282 2.676.83.604-.303 1.006.377 1.674.681.67 2.038.938 2.268 0 .225-.936 1.131-3.025 2.188-2.482 1.057.543 1.583.838 1.962.322s1.133-1.32 1.661-1.453c.527-.136.228-2.228-1.207-1.958"/><path d="m60.102 11.802c.377-.336.075-1.072-.53-1.607-.603-.535.53-1.939 1.059-2.811.527-.869-2.038 2.008-2.945 1.674-.906-.336-1.286-.737-2.643-.871-1.358-.133-4.756-3.479-6.114-5.354-1.36-1.873-2.795-.133-2.265.803.527.938.98 2.41.527 3.414-.454 1.004.229 1.74-1.058 2.141-1.282.4 0 1.072 0 2.494s-1.207 1.053-2.338.449c-1.134-.6-1.209-.6-1.461 0-.246.604.628 1.006 0 1.408-.625.4-1.785.869-2.317 1.873-.527 1.004.305 1.873 1.286 2.074.98.201-1.286 1.674-.529 2.611.754.936 1.585-.402 1.964-1.205.378-.803 1.283.133 1.813 0 .527-.133.206-.723-.454-1.406-.197-.203-.549-.35-1.228-.451-.681-.102-1.114-.467-.923-1.021.188-.551 1.017-1.086 1.642-.852.62.234.576.656.66.92.213.662 1.055-.402 2.113-.871s2.416.803 3.548 1.34c1.133.535 2.794 1.338 2.794 1.338.604.602 0-1.07.452-1.807.453-.736 1.888-3.146 2.718-2.678.831.467 2.795.67 3.171.066.378-.602 1.058-.469 2.567-1.404 1.508-.937-1.888.065-1.509-.267"/></svg>