<svg xmlns="http://www.w3.org/2000/svg" viewBox="0 0 64 64" enable-background="new 0 0 64 64"><path d="m18.875 26.05c0-.856-.694-1.55-1.55-1.55h6.103c.856 0 1.55-.694 1.55-1.55 0-.856-.694-1.55-1.55-1.55h-13.775c-.856 0-1.55.694-1.55 1.55 0 .856.694 1.55 1.55 1.55h-6.103c-.856 0-1.55.694-1.55 1.55 0 .856.694 1.55 1.55 1.55h13.775c.856 0 1.55-.694 1.55-1.55"/><path d="m60.45 38.575h-3.594c.856 0 1.55-.694 1.55-1.55 0-.856-.693-1.55-1.55-1.55h-13.774c-.856 0-1.551.693-1.551 1.55 0 .855.694 1.55 1.551 1.55h3.593c-.855 0-1.55.694-1.55 1.55 0 .856.694 1.551 1.55 1.551h13.775c.855 0 1.55-.694 1.55-1.551 0-.855-.694-1.55-1.55-1.55"/><path d="m38.25 47.156v-.64l1.25-3.267v-.64h-2.327l-1.274-4.581h1.155v-2.686h-.297v-1.975h-.352v-1.974h-.205v-1.974h-1.487l-.678-5.664v-.64h1.337v-2.703h-1.126v-1.766h1.126v-3.891h-2.137v-12.755h-2.47v12.758h-2.137v3.891h1.126v1.766h-1.126v2.703h1.337v.64l-.678 5.664h-1.487v1.974h-.205v1.974h-.352v1.975h-.297v2.686h1.155l-1.274 4.581h-2.327v.64l1.25 3.267v.64c-1.603 5.875-3.897 10.139-8.75 14.841h7.258c0 0 2.568-8.906 7.742-8.906s7.742 8.906 7.742 8.906h7.258c-4.854-4.702-7.147-8.966-8.75-14.844m-6.782-38.158v-4.925h1.063v4.925h-1.063m-2.137 7.757h5.338v1.19h-5.338v-1.19m4.212 1.894v1.415h-3.085v-1.415h3.085m-4.212 3.766v-1.296h5.338v1.296h-5.338m4.274 4.572v2.434h-1.201v-2.434c0-.331.269-.601.6-.601.333.001.601.27.601.601m-2.01 0v2.434h-1.201v-2.434c0-.331.269-.601.601-.601s.6.27.6.601m-3.092 3.137h6.994v1.271h-6.994v-1.271m-.205 1.983h7.404v1.262h-7.404v-1.262m-.352 1.974h8.107v1.263h-8.107v-1.263m-.297 3.245v-1.271h8.701v1.271h-8.701m7.828 2.323v2.961h-1.201v-2.961c0-.332.269-.601.601-.601.33.001.6.269.6.601m-1.917 0v2.961h-1.202v-2.961c0-.332.269-.601.601-.601s.601.269.601.601m-1.918 0v2.961h-1.201v-2.961c0-.332.269-.601.601-.601s.6.269.6.601m-1.917 0v2.961h-1.201v-2.961c0-.332.269-.601.601-.601.331.001.6.269.6.601m-3.491 6.164l-.712-1.86h12.957l-.713 1.86h-11.532"/></svg>