<svg xmlns="http://www.w3.org/2000/svg" viewBox="0 0 64 64" enable-background="new 0 0 64 64"><path d="m21.903 34.888c0 0 1.178-.657 1.617-.703.615-.066 2.426.492 2.426.492s2.126-.94 2.886-.957c1.452-.031 5.592 1.589 5.592 1.589s-3.887-3.97-5.628-4.186c-.889-.11-3.306 1.373-3.306 1.373s-1.733-1.302-2.321-1.057c-.848.356-1.266 3.449-1.266 3.449"/><path d="m25.808 36.118c-.852.079-2.76-.764-3.413-.211-.513.435-.28 2.674-.28 2.674s3.332 2.07 7.017.038c2.04-1.124 5.435-1.271 5.435-1.271s-2.992-2.229-4.186-2.392c-1.172-.158-3.4 1.052-4.573 1.162"/><path d="m59.395 56v-3.271h.275c.606 0 1.098-.49 1.098-1.098v-3.297c0 0-.997.282-1.647.956-.65-.674-1.647-.956-1.647-.956v3.297c0 .607.492 1.098 1.099 1.098h.275v3.271h-5.128l1.104-12.637-1.055-11.65 1.161-13.252-8.713-7.28-3.845-5.487-4.643-.844-6.384-2.85-5.644 4.254-8.487 2.605-1.644 9.453-6.332 13.814 3.584 23.874h-8.552v-6.737h.275c.606 0 1.098-.49 1.098-1.098v-3.297c0 0-.997.282-1.647.956-.65-.674-1.647-.956-1.647-.956v3.297c0 .607.492 1.098 1.099 1.098h.275v6.737h-1.723v6h60v-6h-2.605m-15.889 0v-6.383h.204l-.001 6.383h-.203m.205-10.218c-.167.113-.332.243-.479.395-.649-.673-1.645-.956-1.645-.956v3.296c0 .608.488 1.101 1.095 1.101h.276v6.382h-10.686v-2.741h.274c.608 0 1.099-.492 1.099-1.101v-2.226c1.3-.516 6.032-2.615 8.517-6.727.601-.994 1.111-2.058 1.549-3.151v5.728m-12.262 7.477h.276v2.741h-10.008l.113-9.519 2.34 3.9 6.185-.214v1.99c-.001.61.488 1.102 1.094 1.102m-11.185 2.741h-.342v-3.271h.275c.039 0 .072-.019.111-.022l-.044 3.293m31.757-2.149v-3.686h.275c.018 0 .032-.009.05-.01l-.325 3.696m-20.431-49.689l5.375 2.399.207.092.223.041 3.885.705 3.403 4.857.142.204.191.159 7.961 6.652-1.075 12.276-.015.166.015.167 1.041 11.493-.235 2.676c-.31.154-.668.373-.96.676-.65-.674-1.647-.956-1.647-.956v3.297c0 .607.492 1.098 1.099 1.098h.275v5.836h-6.358l.002-20.529c1.345-5.89 1.081-11.364 1.081-11.364h-.001c.022-2.349-.271-3.922-.271-3.922s-1.847-11.497-9.865-13.554c-.95-.244-2.016-.378-3.146-.378-1.72 0-3.595.325-5.467 1.03l4.14-3.121m1.327 3.497c.992 0 1.933.112 2.796.334 5.921 1.52 8.121 9.233 8.678 11.696-5.029-1.946-7.181-6.414-12.568-5.132l-2.146 11.114-6.508.123c0 0 .791 3.851.183 4.879 0 0 5.118-.58 8.866.264l1.362-8.643c2.039-.612 8.236.146 11.072-1.071.209 1.841.488 6.701-1.596 11.423-1.7 3.848-6.75 10.23-9.808 10.911-.276-.036-.96-.383-1.372-.593-.694-.354-1.351-.689-2.001-.782-.408-.059-.921-.088-1.566-.088-2.182 0-5.378.333-7.017.521-1.104-2.551-3.037-7.271-3.311-9.105-.325-2.163.35-8.706.637-11.044v-.01l4.654.541 1.232-7.844c0 0-2.85-.09-4.994 1.883.707-1.965 1.963-4.169 4.219-6.013 3.586-2.927 7.296-3.364 9.188-3.364m-15.643 11.435l.101-.221.043-.239 1.446-8.32 6.205-1.905c-.758.438-1.506.938-2.229 1.527-6.108 4.99-5.617 12.359-5.617 12.359s-1.057 8.596-.632 11.425c.41 2.744 3.832 10.418 3.832 10.418l-.063 4.61c-.243.142-.497.318-.714.543-.649-.674-1.646-.956-1.646-.956v3.297c0 .607.492 1.098 1.099 1.098h.275v3.27h-3.749v-5.431h.274c.608 0 1.099-.492 1.099-1.101v-3.296c0 0-.996.283-1.646.956-.649-.673-1.645-.956-1.645-.956v2.757l-2.533-16.525 6.1-13.31m-3.4 30.925c.19.323.525.551.928.551h.276v5.43h-.287l-.917-5.981"/></svg>