<svg xmlns="http://www.w3.org/2000/svg" viewBox="0 0 64 64" enable-background="new 0 0 64 64"><path d="m33.684 10.122c.593.349 1.302.542 2.04.542.054 0 .108-.001.163-.004.607.21 1.265.319 1.932.319.675 0 1.336-.111 1.947-.325.086.007.172.01.258.01.201 0 .391-.04.582-.073-.505.307-.958.67-1.303 1.109-1.734.419-2.972 1.762-2.972 3.398 0 1.982 1.814 3.535 4.131 3.535.337 0 .671-.034.995-.102.54.224 1.136.346 1.752.354.725.507 1.649.797 2.623.797.252 0 .503-.02.75-.06 1.106.449 2.334.684 3.595.684 1.237 0 2.446-.226 3.534-.655.203.021.4.031.595.031 1.281 0 2.494-.381 3.43-1.051.044.001.089.002.133.002 2.317 0 4.132-1.553 4.132-3.535 0-1.414-.924-2.609-2.295-3.179-.453-1.48-1.809-2.64-3.615-3.057-1.462-1.48-3.749-2.373-6.183-2.373-1.485 0-2.888.325-4.083.9 0-.013.004-.025.004-.038 0-1.189-.788-2.182-1.93-2.585-.482-.504-1.139-.864-1.888-1.025-.906-1.067-2.403-1.741-4.055-1.741-1.412 0-2.715.476-3.637 1.303-.967.294-1.724.92-2.113 1.726-.832.492-1.371 1.341-1.371 2.324 0 1.486 1.233 2.666 2.849 2.769m10.538 1.651c.581-1.878 2.903-3.283 5.686-3.283 2.23 0 4.165.902 5.146 2.228 1.587.15 2.815 1.117 2.815 2.301 0 .191-.04.374-.101.553.033-.001.065-.007.101-.007 1.178 0 2.132.687 2.132 1.534s-.954 1.535-2.132 1.535c-.276 0-.538-.041-.779-.109-.562.691-1.592 1.158-2.783 1.158-.302 0-.589-.039-.867-.095-.932.454-2.054.719-3.262.719-1.269 0-2.438-.295-3.396-.791-.287.104-.605.167-.949.167-.849 0-1.576-.359-1.918-.876-.206.046-.419.079-.645.079-.64 0-1.205-.207-1.596-.525-.345.172-.762.273-1.212.273-1.178 0-2.131-.688-2.131-1.535s.953-1.534 2.131-1.534c.026 0 .051.005.077.005.318-1.047 1.61-1.834 3.16-1.834.18-.001.352.018.523.037m-10.306-5.199c.019 0 .034.003.051.003-.03-.09-.051-.184-.051-.279 0-.602.624-1.092 1.429-1.168.497-.672 1.478-1.13 2.611-1.13 1.411 0 2.589.712 2.884 1.665.086-.01.174-.019.265-.019.786 0 1.441.398 1.603.93.014 0 .027-.002.039-.002.599 0 1.082.349 1.082.778s-.484.778-1.083.778c-.228 0-.439-.051-.614-.138-.198.161-.484.267-.81.267-.114 0-.223-.016-.327-.04-.173.262-.542.445-.972.445-.176 0-.337-.033-.482-.085-.484.251-1.08.4-1.723.4-.613 0-1.182-.135-1.654-.364-.141.028-.287.049-.44.049-.604 0-1.127-.237-1.412-.589-.124.035-.255.055-.396.055-.597 0-1.081-.348-1.081-.777s.484-.779 1.081-.779"/><path d="m56.905 38.864c-.105-.075-10.535-7.635-13.48-10.356-1.303-1.205-3.304-3.555-5.07-5.628-1.051-1.234-2.044-2.4-2.813-3.234l-.051-.058c-.382-.435-1.396-1.588-3.046-1.588-.501 0-1.009.11-1.506.329-.022.011-.043.019-.061.026-.009-.004-.018-.007-.027-.011-.188-.07-.404-.15-.682-.229-.264-.073-.533-.11-.803-.11-1.047 0-1.81.539-2.266.861l-.118.084c-1.398.957-3.031 2.947-4.472 4.703-.442.54-.863 1.052-1.235 1.481-.181-.968-.896-1.751-1.876-2.098-.48-.501-1.133-.859-1.878-1.021-.358-.422-.812-.778-1.327-1.06.971-.716 1.585-1.748 1.585-2.93 0-1.972-1.677-3.563-3.948-3.881-.262-.293-.563-.562-.9-.802-.148-1.974-1.689-3.619-3.989-4.297-1.575-1.646-4.21-2.735-6.942-2.953v1.994c2.534.201 4.692 1.259 5.848 2.753 1.783.348 3.096 1.473 3.096 2.822 0 .274-.071.535-.173.787.938.355 1.651.943 1.991 1.658.077-.005.15-.017.229-.017 1.541 0 2.789.868 2.789 1.938s-1.248 1.938-2.789 1.938c-.72 0-1.37-.193-1.864-.506-.678.319-1.494.506-2.374.506-.974 0-1.861-.237-2.576-.621-1.179.605-2.618.969-4.177 1.019v1.999c1.462-.047 2.934-.332 4.191-.831.804.286 1.673.435 2.563.435.104 0 .204-.019.306-.022-.572.334-1.027.797-1.299 1.354-.829.492-1.366 1.339-1.366 2.319 0 1.485 1.231 2.663 2.843 2.767.59.346 1.295.537 2.029.537.053 0 .104-.001.157-.003.605.209 1.26.317 1.925.317.672 0 1.33-.111 1.938-.324.084.007.169.01.253.01.598 0 1.162-.148 1.642-.42.226-.023.446-.068.658-.134.019.002.037.001.056.003-2.958 2.596-6.754 5.686-6.807 5.729l-.072.06-.066.064c-.141.14-1.176 1.206-2.433 3.311l-6.518 3.962v20.504h60v-20.504l-3.612-1.646-1.483-.986m-39.267-12.61c-.197.16-.481.265-.805.265-.113 0-.221-.016-.325-.04-.172.261-.539.442-.967.442-.174 0-.334-.032-.479-.084-.481.25-1.073.398-1.712.398-.61 0-1.175-.134-1.646-.362-.14.028-.285.048-.437.048-.602 0-1.121-.235-1.404-.585-.123.035-.254.056-.394.056-.593 0-1.075-.347-1.075-.774 0-.427.481-.773 1.075-.773.018 0 .034.003.051.003-.03-.09-.051-.182-.051-.278 0-.598.62-1.084 1.42-1.16.494-.668 1.471-1.124 2.597-1.124 1.402 0 2.573.709 2.866 1.656.087-.011.173-.019.264-.019.782 0 1.434.396 1.594.924.014 0 .026-.002.039-.002.595 0 1.075.347 1.075.773 0 .428-.48.774-1.075.774-.227 0-.437-.051-.611-.138m37.85 16.499c0 0-2.813-2.892-4.906-2.892-.07 0-.14.003-.208.01-.868.083-.767 1.443-.767 1.443s-3.339-3.206-5.613-3.972c-.046-.016-.09-.023-.132-.023-.65 0-.771 1.777-.771 1.777s-1.251-1.346-3.407-1.346c-.076 0-.154.002-.234.006l.74 2.164c0 0-2.414-2.763-5.505-2.763-.188 0-.38.01-.573.031-2.225.252-8.625 4.021-8.625 4.021s3.851-4.983 2.959-4.983c-.183 0-.56.206-1.207.704-.539.414-2.928 3.559-2.928 3.559l1.668-3.405-3.166 3.197 1.086-2.37-1.086.361c0 0 2.291-2.889 1.826-3.868-.026-.054-.065-.078-.117-.078-.534 0-2.382 2.574-3.579 3.326-2.195 1.379-5.585 2.837-5.585 2.837l2.848-3.353-4.592 3.353c0 0 .612-2.34-.13-2.34-.006 0-.011 0-.017 0-1.246.058-4.381 2.34-4.381 2.34 1.598-3.239 3.122-4.745 3.122-4.745s7.591-6.172 9.856-8.559c1.509-1.59 4.138-5.281 5.914-6.497.36-.246.823-.633 1.389-.633.108 0 .223.014.339.047.562.157.812.334 1.163.334.199 0 .431-.057.771-.206.293-.129.561-.182.806-.182.945 0 1.534.789 1.775 1.051 2.034 2.207 5.807 6.951 7.994 8.973 3.063 2.833 13.654 10.502 13.654 10.502s-1.216 1.044-.381 2.179"/><path d="m21.117 31.682l1.15-3.472-3.797 5.734z"/><path d="m24.098 31.179l3.595-5.845-3.595 3.508z"/><path d="m40.378 32.025l-3.56-5.879 1.078 3.56z"/><path d="m38.091 34.149l2.482 1.117-3.559-4.676z"/><path d="m35.596 29.952v-2.337l-3.596-3.507z"/></svg>