<svg xmlns="http://www.w3.org/2000/svg" viewBox="0 0 64 64" enable-background="new 0 0 64 64"><path d="m55.909 2l-14.971 7.75-13.875-6-18.972 1.25-6.091 53.25 19.615-1.667 21.771 5.417 18.614-6.75-6.091-53.25m-1.657 3.109l5.582 48.799-16.064 5.825-.089-1.874 14.171-5.35-4.842-44.593-11.445 5.428-.078-1.626.371-.191 12.394-6.418m-11.637 30.34c.222-.472.44-1.135.544-2.065 0 0 1.102.054 2.458 3.009 0 0 .592-.059.297-1.988 0 0 2.117-.853.975-4.604 0 0 1.776 2.446 1.186-.734 0 0 1.948-2.388-.379-3.976 0 0 .08-1.761 1.479-1.535 0 0 1.398-3.636.724.681 0 0 .04.854.929 1.817 0 0 .383-1.419-.296-2.949 0 0 1.399-2.618 1.271-4.887 0 0-4.532 1.681-9.575 1.179 0 0 .246-.938-.443-1.465l-.141-2.965.12-.057 9.984-4.734 4.488 41.341-12.629 4.769-.992-20.837m-1.838-17.594c-.521.743-1.967 3.028-1.088 4.396 0 0-.426 2.963-1.02-1.359 0 0-.971 2.551-2.285 1.982 0 0-.361 2.582-1.188.852 0 0 .677.285.826-.51 0 0-1.909-2.045-3.05 1.047 0 0-.932.371-.571 1.821 0 0 .654-1.196.994.625 0 0 .361-.284.512-2.615 0 0 .906-.452.206 1.39 0 0 2.076.033-1.141 1.874 0 0-.178-.03-.318-.736 0 0-.487 1.7-1.485 2.303 0 0 .234.679-.506.991 0 0-.401 1.052.553 1.052 0 0 .825-2.528 2.393-.539 0 0 .299-.113-.168-1.108 0 0 .824.316 1.143 1.619 0 0 .509-.088.59-1.221 0 0 .639-1.448 1.678.257 0 0-1.379-.399-1.737.992 0 0 .652-.285 1.058.114 0 0 .041.649-.375.9.18.338.375.662.647.936.178.176.172.395.077.563.734 1.256 2.09 2.928 3.039.259 0 0-1.27.721-1.695-1.268 0 0 2.563.326 3.745 2.897l.995 20.948-19.932-5.59.299-2.957c.414 1.061.899 1.492.899 1.492-.563-4.615 2.767-7.572 2.767-7.572.647-3.168-.998-4.59-2.523-5.23l.783-7.748c.314-.391.499-.652.499-.652-.113-.389-.223-.73-.328-1.042l.759-7.518c.638.777.711 1.483.532 2.125-.821 2.953.235 3.858.235 3.858.641-2.494 2.841-2.892 2.841-2.892-.126-2.332 1.228-4.983 1.228-4.983-1.473-2.531-3.58-.824-4.684.384l.086-.849c.226-.291.462-.608.717-.97 0 0-.211-.145-.594-.251l.672-6.655 13.684 5.672.096.04.135 2.876m-15.582-2.035c-.682.032-1.555.267-2.582.977 0 0-.488 4.482 2.314 1.673l-.313 3.101c-.366-1.224-1.234-1.65-1.234-1.65-.85.514-.765 1.194-.765 1.194.771.116 1.242 1.044 1.519 1.914-.156.239-.423.512-.884.557 0 0 .537.807 1.057 1.033l-.057.556c-1.21-1.813-1.734 1.83-1.734 1.83-2.991-3.333.794-5.001.794-5.001-2.317-.979-3.39-3.785-3.39-3.785-.113 1.743-.792 1.666-.792 1.666-5.31-3.104-6.266 1.895-6.266 1.895.843 2.648-.964 2.951-.964 2.951 1.75.302 2.653-2.121 2.653-2.121 3.618 1.818 1.697 8.331 1.697 8.331 1.411.83 1.807 3.559 1.807 3.559.983.298 1.99.9 2.696 1.377.137-.123.278-.24.426-.349-1.65-1.166-1.653-3.054-1.653-3.054 1.497 0 3.089-1.29 4.238-2.476l-.62 6.143c-.334-.083-.63-.135-.847-.163-.263.127-.513.283-.746.474.073.056.122.095.122.095-1.664 3.197.586 4.479.959 4.664l-.955 9.45-13.236 1.035 4.415-41.814 13.018-.766-.677 6.704m-2.674 36.423l20.159 5.654.09 1.889-20.496-5.1.247-2.443m17.965-40.509l.076 1.59-13.542-5.613.174-1.726 12.95 5.601.342.148m-30.597-4.848l16.317-1.075-.181 1.794-14.529.854-4.737 44.874 14.765-1.157-.246 2.428-17.013 1.447 5.624-49.165"/><path d="m32.062 36.617c0 0 2.122.397 1.273 4.486 0 0 .339 3.187 2.2 2.896 0 0 .508-4.599 2.881-8.122 0 0-.962.958-2.053-2.219-.165.12-.389.148-.576-.038-.47-.469-.754-1.06-1.06-1.654-.05-.098-.058-.189-.051-.277-1.544-.576-4.671-1.154-5.114 3.393.001 0 .592 3.13 2.5 1.535"/><path d="m31.09 25.995c.146 2.048.42 2.67.779 1.819.361-.844-.779-1.819-.779-1.819"/><path d="m30.449 27.928c0 0 .597-.088.426-.839 0 0-.426.044-.426.839"/><path d="m30.219 23.811c0 0-1.505 0-.973.769.529.767.973-.769.973-.769"/><path d="m37.74 42.468c0 0 .46-.938.445-2.384.001 0-1.463 1.672-.445 2.384"/><path d="m47.226 36.59c0 0-1.06.967-.866 1.848.191.884 1.121-.174.866-1.848"/><path d="m51.465 39.717c.465-.814-2.547-1.822-2.547-1.822.595.882 2.125 2.548 2.547 1.822"/><path d="m48.096 39.891c.707-1.21-2.14-.631-2.14-.631s1.865 1.109 2.14.631"/><path d="m49.215 40.143c0 0-.57 1.275-2.688 1.812 0 0 .447 1.025 0 2.958 0 0 2.138-2.728 3.37 1.218 0 0 1.057.574 1.798-2.999 0 0-.889-1.287-1.185-3.117.001-.001-.293 2.344-1.295.128"/><path d="m49.633 28.51c.135-.113.24-.154.24-.154-1.037-1.677-.658.74-.658.74.067-.159.146-.281.227-.384.055.716-.117 1.783-1.235 2.797-.001 0 2.397-.904 1.426-2.999"/><path d="m31.332 15.955c.523-1.226-1.121-2.622-1.121-2.622.211 2.947.602 3.847 1.121 2.622"/><path d="m29.288 16.116c0 0 .851-.126.61-1.204 0 0-.61.061-.61 1.204"/></svg>