<svg xmlns="http://www.w3.org/2000/svg" viewBox="0 0 64 64" enable-background="new 0 0 64 64"><path d="m55.815 13.772c.894-2.709 1.296-6.468.743-11.632 0 0-2.309 3.477-6.074 6.239-5.093-3.993-11.509-6.379-18.484-6.379-6.976 0-13.391 2.386-18.485 6.38-3.766-2.763-6.073-6.24-6.073-6.24-.553 5.165-.15 8.923.742 11.632-3.874 5.054-6.184 11.369-6.184 18.228 0 16.566 13.432 30 30 30s30-13.434 30-30c0-6.859-2.311-13.175-6.185-18.228m-1.569-5.249c-.297 4.344-1.564 6.527-2.465 7.549-1.223 1.387-2.469 1.559-2.988 1.568-1.053 0-2.164-.978-2.426-2.134-.336-1.481.934-2.431 2.057-2.968 2.271-1.083 4.238-2.564 5.822-4.015m-38.668 4.017c1.123.536 2.391 1.485 2.055 2.968-.262 1.155-1.371 2.132-2.465 2.132-.48-.009-1.727-.181-2.949-1.567-.898-1.021-2.168-3.203-2.465-7.548 1.586 1.45 3.553 2.93 5.824 4.015m16.422 46.96c-15.164 0-27.5-12.336-27.5-27.5 0-5.788 1.818-11.149 4.885-15.584 1.702 2.771 4.045 3.69 5.734 3.723.029.001.061.002.09.002 4.422 0 7.854-6.799 1.445-9.857-.296-.141-.583-.294-.867-.45 4.551-3.339 10.148-5.334 16.213-5.334s11.662 1.994 16.213 5.333c-.284.156-.571.309-.867.45-6.41 3.059-2.977 9.857 1.447 9.857.029 0 .059-.001.088-.002 1.688-.033 4.031-.952 5.734-3.724 3.067 4.436 4.885 9.797 4.885 15.586 0 15.164-12.336 27.5-27.5 27.5"/><path d="m32 47.09c-2.469-.004-4.93-.254-7.369-.84-2.449-.586-4.84-1.469-7.314-2.924 1.064 2.713 3.42 4.848 6.047 6.215 2.652 1.379 5.658 2.043 8.637 2.047 2.979.002 5.986-.662 8.641-2.041 2.627-1.367 4.982-3.504 6.043-6.221-2.479 1.451-4.867 2.332-7.316 2.918-2.439.586-4.898.836-7.369.846"/><path d="m48.449 25.643c-1.92.018-3.84.469-5.59 1.279-1.744.801-3.348 1.98-4.596 3.439-1.242 1.461-2.166 3.232-2.369 5.117 1.097-1.097 2.161-2.031 3.266-2.863-.002.086.008.17.043.246 1.361 2.916 4.826 4.178 7.742 2.818 2.914-1.361 4.176-4.826 2.816-7.742-.032-.068-.081-.125-.139-.176 1.344-.309 2.738-.528 4.271-.676-1.584-1.034-3.53-1.45-5.444-1.442"/><path d="m24.797 32.861c.035-.076.045-.159.043-.246 1.104.833 2.169 1.767 3.266 2.863-.203-1.885-1.129-3.656-2.371-5.115-1.248-1.461-2.85-2.641-4.594-3.441-1.75-.811-3.67-1.262-5.592-1.279-1.912-.008-3.857.408-5.443 1.443 1.532.147 2.928.367 4.271.676-.058.05-.106.107-.139.175-1.361 2.916-.1 6.381 2.814 7.742 2.919 1.36 6.384.098 7.745-2.818"/></svg>