<svg xmlns="http://www.w3.org/2000/svg" viewBox="0 0 64 64" enable-background="new 0 0 64 64"><path d="m59.974 21.162c1.898-2.805 2.289-5.561 1.874-7.943-.463-2.654-2.031-4.889-4.463-5.553-2.12-.58-4.093-.016-6.003 1.443-1.017-.861-2.092-1.655-3.219-2.377-1.196-1.813-2.735-3.203-4.735-4.072-2.009-.876-3.98-.844-5.667-.102-1.865-.362-3.789-.558-5.759-.558s-3.894.195-5.759.559c-1.686-.741-3.658-.774-5.667.102-2.001.869-3.541 2.259-4.738 4.072-1.126.723-2.203 1.516-3.22 2.378-1.909-1.46-3.884-2.024-6.003-1.444-2.43.664-4 2.898-4.463 5.553-.413 2.382-.022 5.138 1.875 7.943-1.304 3.361-2.027 7.013-2.027 10.836 0 16.57 13.434 30.001 30.002 30.001 16.566 0 29.998-13.431 29.998-30.001 0-3.823-.723-7.475-2.026-10.837m-27.972 38.339c-15.165 0-27.502-12.337-27.502-27.502 0-3.022.498-5.93 1.403-8.652 3.661 3.382 11.777 8.454 12.097 8.654.268-.291 9.6-10.345 11.682-15.303 2.223-5.297 1.396-9.346-.68-11.975-.015-.018-.032-.032-.046-.05 1-.111 2.016-.173 3.046-.173s2.046.062 3.046.173c-.014.018-.031.032-.046.05-2.076 2.629-2.902 6.678-.68 11.975 2.082 4.958 11.412 15.012 11.682 15.303.32-.2 8.435-5.271 12.094-8.654.905 2.723 1.402 5.63 1.402 8.652 0 15.165-12.335 27.502-27.498 27.502"/><path d="m47.179 35.983c-3.465-.662-8.582-1.342-15.18-1.342-6.596 0-11.715.68-15.177 1.342-1.35.26-1.822 1.264-1.822 2.067 0 7.271 5.611 14.592 17 14.592 11.389 0 17.002-7.32 17.002-14.592-.001-.803-.476-1.807-1.823-2.067m-1.205 3.788c-.053.441-.137.975-.264 1.553-.143.639-.262.936-1.266.816-1.921-.229-22.968-.229-24.889 0-1.003.119-1.123-.178-1.265-.816-.127-.578-.211-1.111-.265-1.553-.09-.744-.011-1.27 1.284-1.486 2.195-.369 6.838-1.014 12.69-1.014s10.495.645 12.69 1.014c1.296.216 1.374.741 1.285 1.486"/></svg>