<svg xmlns="http://www.w3.org/2000/svg" viewBox="0 0 64 64" enable-background="new 0 0 64 64"><path d="M32,2C15.432,2,2,15.432,2,32s13.432,30,30,30s30-13.432,30-30S48.568,2,32,2z M32,59.5C16.836,59.5,4.5,47.164,4.5,32
		S16.836,4.5,32,4.5c15.164,0,27.5,12.336,27.5,27.5S47.164,59.5,32,59.5z"/><path d="m14.859 28.854c1.802-1.901 3.957-2.659 6.206-2.659 2.25 0 4.405.758 6.207 2.659.479.504 1.438-.423 1.254-.938-1.859-5.112-4.66-7.669-7.461-7.669s-5.603 2.558-7.46 7.669c-.184.515.774 1.441 1.254.938"/><path d="m36.729 28.854c1.803-1.901 3.957-2.659 6.207-2.659s4.403.758 6.207 2.659c.478.504 1.437-.423 1.254-.938-1.859-5.112-4.66-7.669-7.461-7.669-2.802 0-5.603 2.558-7.461 7.669-.185.515.774 1.441 1.254.938"/><path d="m51.643 35.344c-4.484-.662-11.108-1.344-19.644-1.344h-.001c-8.535 0-15.159.682-19.641 1.344-1.746.258-2.357 1.263-2.357 2.066 0 9.59 3.492 12.59 17.811 12.59h8.381c14.316 0 17.808-3 17.808-12.59 0-.803-.613-1.808-2.357-2.066m-19.643 12.656c-6.376 0-15.467 0-15.223-2.053.044-.367.152-.803.289-1.276.158-.526.28-.671 1.378-.671 1.839 0 24.716 0 27.112 0 1.098 0 1.223.145 1.377.671.141.474.246.909.289 1.276.245 2.053-8.846 2.053-15.222 2.053m16.934-9.831l-1.113 2.909c-.195.507-.762.922-1.264.922h-29.114c-.5 0-1.068-.415-1.262-.922l-1.115-2.909c-.194-.507.053-.983.549-1.058 0 0 7.392-1.111 16.385-1.111 8.992 0 16.385 1.111 16.385 1.111.495.077.742.551.549 1.058"/></svg>