<svg xmlns="http://www.w3.org/2000/svg" viewBox="0 0 64 64" enable-background="new 0 0 64 64"><path d="m62 32c0-16.57-13.43-30-30-30-16.57 0-30 13.43-30 30 0 2.49.309 4.907.88 7.221-2.49 4.892.696 10.032 5.058 10.699 5.469 7.332 14.211 12.08 24.062 12.08 9.853 0 18.593-4.748 24.062-12.08 4.361-.668 7.545-5.807 5.057-10.697.572-2.315.881-4.732.881-7.223m-30-27.5c15.164 0 27.5 12.336 27.5 27.5 0 1.552-.135 3.071-.383 4.553-5.41-5.293-15.186-5.543-15.186-5.543s.029 1.197.264 2.996c-11.189 0-13.201 0-24.392 0 .236-1.799.264-2.996.264-2.996s-9.771.25-15.183 5.543c-.248-1.483-.384-3.002-.384-4.553 0-15.164 12.337-27.5 27.5-27.5m-13.501 35.5c.443-1.395.762-2.765.99-4 11.787 0 13.236 0 25.021 0 .229 1.235.549 2.605.99 4-9.299 0-17.703 0-27.001 0m21.214 10.664c-2.229.957-4.799 1.518-7.712 1.518-2.914 0-5.484-.561-7.713-1.518 2.152-1.031 4.711-1.662 7.713-1.662 3.001 0 5.562.631 7.712 1.662m-7.713 8.836c-8.443 0-16.007-3.828-21.056-9.836 1.195-.396 2.401-1.152 3.543-2.354.326-.342.632-.704.92-1.08 2.815 4.206 8.185 7.77 16.593 7.77 8.406 0 13.777-3.563 16.591-7.769.289.376.594.737.918 1.079 1.145 1.201 2.352 1.959 3.547 2.354-5.048 6.008-12.613 9.836-21.056 9.836"/><path d="m14.858 29.607c1.802-1.901 3.957-2.658 6.207-2.658s4.404.757 6.207 2.658c.479.505 1.438-.424 1.254-.938-1.859-5.111-4.66-7.669-7.461-7.669-2.801 0-5.602 2.558-7.46 7.669-.184.515.774 1.443 1.253.938"/><path d="m36.727 29.607c1.803-1.901 3.957-2.658 6.207-2.658s4.404.757 6.207 2.658c.479.505 1.438-.424 1.254-.938-1.86-5.111-4.661-7.669-7.461-7.669s-5.602 2.558-7.461 7.669c-.184.515.775 1.443 1.254.938"/></svg>