<svg xmlns="http://www.w3.org/2000/svg" viewBox="0 0 64 64" enable-background="new 0 0 64 64"><path d="M32,2C15.43,2,2,15.43,2,32s13.43,30,30,30s30-13.43,30-30S48.57,2,32,2z M32,59.5C16.836,59.5,4.5,47.164,4.5,32
		S16.836,4.5,32,4.5c15.164,0,27.5,12.336,27.5,27.5S47.164,59.5,32,59.5z"/><path d="m52.249 27.66c-1.752-2.1-4.98-4.162-9.002-4.829 2.709-1.5 5.563-1.958 8.256-2.361.465-.069.73-.759.167-1.094-5.698-3.397-14.964-.679-16.61 6.525-.103.446.315.728.801.678 6.168-.634 11.074.304 15.847 2.036.442.161.937-.481.541-.955"/><path d="m28.14 26.579c.486.05.903-.231.801-.678-1.646-7.204-10.912-9.923-16.61-6.525-.563.335-.298 1.024.167 1.094 2.693.403 5.548.861 8.256 2.361-4.021.667-7.25 2.729-9.002 4.829-.396.474.1 1.116.542.955 4.771-1.732 9.678-2.67 15.846-2.036"/><path d="m47.783 34.006c-15.783 0-15.783 0-31.567 0-.785 0-1.506-.09-1.912.43-3.91 4.986.69 19.564 17.696 19.564 17.007 0 21.606-14.578 17.696-19.564-.406-.52-1.127-.43-1.913-.43m-15.782 18.176c-2.913 0-5.483-.561-7.714-1.517 2.153-1.032 4.712-1.663 7.714-1.663s5.563.631 7.712 1.663c-2.229.956-4.799 1.517-7.712 1.517m15.005-12.182c-10.421 0-19.59 0-30.012 0-2 0-2-4 .053-4 14.953 0 14.953 0 29.906 0 2.054 0 2.054 4 .053 4"/></svg>