<svg xmlns="http://www.w3.org/2000/svg" viewBox="0 0 64 64" enable-background="new 0 0 64 64"><path d="m32 2c-16.568 0-30 13.434-30 29.996 0 16.57 13.432 30.004 30 30.004 16.566 0 30-13.434 30-30.004 0-16.568-13.434-29.996-30-29.996m22.148 47.42c-1.07 1.069-2.431 1.635-3.933 1.635-2.371 0-4.966-1.342-7.505-3.881-.993-.993-1.876-1.878-2.286-2.402 1.609-.74 3.1-1.701 4.425-2.857l7.59 5.797-5.802-7.601c1.126-1.323 2.059-2.83 2.736-4.512.499.351 1.451 1.301 2.529 2.38 4.221 4.222 5.081 8.606 2.246 11.441m-.83-12.856c-1.667-1.666-2.563-2.559-3.337-2.914.041-1.019-1.318-1.409-1.871-.631-4.328 6.107-9.451 7.645-16.11 7.645s-11.782-1.537-16.111-7.645c-.603-.85-2.19-.315-1.839.919 2.273 8.005 10 12.667 17.95 12.667 2.229 0 4.438-.379 6.518-1.084.427.712 1.298 1.584 2.779 3.066 2.749 2.748 5.64 4.261 8.397 4.433-4.786 4.038-10.958 6.48-17.694 6.48-15.164 0-27.5-12.338-27.5-27.504 0-15.161 12.336-27.496 27.5-27.496 15.163 0 27.5 12.335 27.5 27.496 0 3.79-.776 7.4-2.169 10.688-.602-1.896-1.858-3.963-4.013-6.12"/><path d="m21.065 17.186c-2.801 0-5.602 2.558-7.46 7.669-.184.515.774 1.443 1.254.938 1.802-1.901 3.957-2.658 6.207-2.658 2.25 0 4.404.757 6.207 2.658.479.505 1.438-.424 1.254-.938-1.86-5.112-4.661-7.669-7.462-7.669"/><path d="m42.935 17.186c-2.801 0-5.602 2.558-7.461 7.669-.184.515.775 1.443 1.254.938 1.803-1.901 3.957-2.658 6.207-2.658s4.404.757 6.207 2.658c.479.505 1.438-.424 1.254-.938-1.86-5.112-4.661-7.669-7.461-7.669"/></svg>