<svg xmlns="http://www.w3.org/2000/svg" viewBox="0 0 64 64" enable-background="new 0 0 64 64"><path d="m52.214 12.214c1.491-1.497 2.242-3.179 2.048-5.021-.442-4.18-8.36-6.369-25.734-4.547-16.29 1.71-24.662 5.606-24.219 9.788.208 1.964 1.431 3.526 3.417 4.711-2.985 4.558-4.726 10.002-4.726 15.855 0 16.018 12.994 29 29 29 16.019 0 29-12.982 29-29 0-8.154-3.369-15.517-8.786-20.786m-20.214-5.714c4.374 0 8.5 1.071 12.139 2.956-2.723 1.23-8.188 2.478-14.559 3.146-6.102.64-11.487.586-14.499.02 4.593-3.821 10.491-6.122 16.919-6.122m0 53c-14.612 0-26.5-11.887-26.5-26.5 0-5.465 1.664-10.549 4.511-14.773 4.8 1.796 12.158 2.197 20.305 1.342 8.375-.877 15.652-2.881 19.93-5.759 5.078 4.831 8.254 11.645 8.254 19.19 0 14.613-11.888 26.5-26.5 26.5"/><path d="m27.43 35.32c.463.488 1.389-.408 1.212-.906-1.798-4.941-4.505-7.414-7.213-7.414-2.707 0-5.414 2.473-7.211 7.414-.177.498.749 1.395 1.213.906 1.741-1.838 3.825-2.568 5.998-2.568 2.175 0 4.259.73 6.001 2.568"/><path d="m42.568 27c-2.706 0-5.414 2.473-7.211 7.414-.179.498.749 1.395 1.211.906 1.743-1.838 3.825-2.568 6-2.568 2.176 0 4.259.73 6.001 2.568.462.488 1.39-.408 1.212-.906-1.798-4.941-4.504-7.414-7.213-7.414"/><path d="m44.165 42.248c-7.839 5.467-16.537 5.434-24.329 0-.938-.656-1.784.477-1.148 1.523 2.376 3.914 7.17 7.395 13.313 7.395 6.142 0 10.937-3.48 13.313-7.395.635-1.046-.21-2.179-1.149-1.523"/></svg>