<svg xmlns="http://www.w3.org/2000/svg" viewBox="0 0 64 64" enable-background="new 0 0 64 64"><path d="M32.002,2C15.43,2,2,15.43,2,32s13.43,30,30.001,30C48.57,62,62,48.57,62,32S48.57,2,32.002,2z M32.002,59.5
		C16.837,59.5,4.5,47.164,4.5,32S16.837,4.5,32.002,4.5C47.164,4.5,59.5,16.836,59.5,32S47.164,59.5,32.002,59.5z"/><path d="m27.271 27.793c.479.506 1.438-.424 1.254-.938-1.859-5.111-4.66-7.67-7.461-7.67-2.8 0-5.601 2.559-7.459 7.67-.184.514.774 1.443 1.254.938 1.802-1.9 3.958-2.658 6.206-2.658 2.249 0 4.406.758 6.206 2.658"/><path d="m42.934 19.186c-2.801 0-5.602 2.559-7.461 7.67-.184.514.775 1.443 1.254.938 1.803-1.9 3.957-2.658 6.207-2.658s4.404.758 6.207 2.658c.479.506 1.438-.424 1.254-.938-1.86-5.112-4.661-7.67-7.461-7.67"/><path d="m47.178 35.984c-3.463-.662-8.582-1.344-15.178-1.344h-.002c-6.594 0-11.713.682-15.176 1.344-1.35.258-1.822 1.264-1.822 2.067 0 7.271 5.612 14.59 16.999 14.59h.001c11.389 0 17-7.318 17-14.59 0-.803-.473-1.809-1.822-2.067m-1.203 3.786c-.055.443-.137.975-.266 1.553-.141.641-.262.936-1.266.816-1.92-.229-22.967-.229-24.887 0-1.004.119-1.123-.176-1.266-.816-.127-.578-.211-1.109-.265-1.553-.09-.742-.011-1.268 1.283-1.486 2.195-.367 6.838-1.012 12.691-1.012s10.496.645 12.691 1.012c1.294.218 1.374.743 1.285 1.486"/></svg>