<svg xmlns="http://www.w3.org/2000/svg" viewBox="0 0 64 64" enable-background="new 0 0 64 64"><path d="M32.001,2C15.427,2,2,15.428,2,32s13.428,30,30.002,30C48.574,62,62,48.572,62,32S48.574,2,32.001,2z M32.001,59.5
		C16.837,59.5,4.5,47.164,4.5,32S16.837,4.5,32.001,4.5C47.164,4.5,59.5,16.836,59.5,32S47.164,59.5,32.001,59.5z"/><path d="m36.717 33.637c-.229.395.377.962 1.115 1.41 2.139-1.498 4.641-2.336 7.189-2.516.01 2.808 2.229 5.084 4.969 5.084 3.965 0 5.859-4.491 3.893-6.771-3.35-3.889-14.006-2.52-17.166 2.793"/><path d="m26.55 30.844c-3.35-3.888-14.007-2.521-17.169 2.795-.229.393.377.957 1.117 1.408 2.138-1.498 4.641-2.336 7.19-2.516.008 2.808 2.227 5.084 4.967 5.084 3.97 0 5.86-4.491 3.895-6.771"/><path d="m43.316 45.163c-3.164 2.35-11.25 4.123-16.592 2.854-1.432-.34-2.449 3.373-.923 3.759 5.804 1.402 15.056.046 19.847-3.518 1.184-.9-1.154-3.999-2.332-3.095"/><path d="m41.512 21.518c4.168-.748 8.457.4 11.691 3.133.445.387 1.955-1.205 1.414-1.674-3.734-3.154-8.682-4.479-13.492-3.615-.703.134-.193 2.269.387 2.156"/><path d="m10.795 24.5c3.236-2.732 7.524-3.881 11.692-3.133.58.113 1.092-2.021.389-2.156-4.813-.863-9.761.463-13.493 3.615-.543.469.969 2.063 1.412 1.674"/></svg>