<svg xmlns="http://www.w3.org/2000/svg" viewBox="0 0 64 64" enable-background="new 0 0 64 64"><path d="m59.998 21.223c-.003-.102-.006-.225-.006-.402v-.527c0-.41-.045-.492-.263-.604-.156-.08-.316-.154-.478-.229-4.747-10.305-15.161-17.461-27.251-17.461s-22.503 7.156-27.252 17.461c-.161.074-.321.148-.477.229-.219.111-.262.193-.262.604v.527c0 .178-.003.301-.006.404-1.289 3.343-2.003 6.976-2.003 10.775 0 16.568 13.432 30 30 30s30-13.432 30-30c0-3.799-.714-7.432-2.002-10.777m-27.998-16.723c10.278 0 19.252 5.672 23.971 14.047-3.744-.625-8.794-.586-11.467-.354-3.436.303-6.307 1.076-8.656 2.279-2.198 1.098-5.497 1.098-7.697 0-2.349-1.203-5.22-1.977-8.654-2.279-2.673-.232-7.722-.271-11.467.354 4.718-8.375 13.692-14.047 23.97-14.047m0 55c-15.164 0-27.5-12.336-27.5-27.5 0-3.041.504-5.967 1.42-8.705.596 1.066.998 2.553 1.259 4.346.598 4.213 2.666 6.854 6.022 8.115 3.115 1.17 6.601 1.129 9.69-.105 1.691-.676 3.176-1.742 4.355-3.477 2.067-3.037 1.448-4.936 2.516-7.547.932-2.277 3.541-2.277 4.473 0 1.067 2.611.448 4.51 2.516 7.547 1.179 1.734 2.664 2.801 4.354 3.477 3.09 1.234 6.576 1.275 9.691.105 3.356-1.262 5.424-3.902 6.022-8.115.262-1.793.663-3.281 1.26-4.346.916 2.738 1.42 5.662 1.42 8.705.002 15.164-12.334 27.5-27.498 27.5"/><path d="m44.584 42.279c-8.109 5.656-17.105 5.623-25.168 0-.97-.678-1.845.494-1.187 1.578 2.457 4.047 7.417 7.649 13.771 7.649s11.314-3.604 13.771-7.649c.659-1.084-.216-2.253-1.187-1.578"/></svg>