<svg xmlns="http://www.w3.org/2000/svg" viewBox="0 0 64 64" enable-background="new 0 0 64 64"><path d="M32,2C15.432,2,2,15.432,2,32s13.432,30,30,30s30-13.432,30-30S48.568,2,32,2z M32,59.5C16.836,59.5,4.5,47.164,4.5,32
		S16.836,4.5,32,4.5c15.163,0,27.5,12.336,27.5,27.5S47.163,59.5,32,59.5z"/><path d="m44.584 40.279c-8.11 5.656-17.106 5.623-25.168 0-.97-.677-1.845.495-1.187 1.578 2.458 4.047 7.417 7.65 13.771 7.65s11.313-3.604 13.771-7.65c.658-1.083-.217-2.254-1.187-1.578"/><path d="m27.272 27.793c.479.505 1.438-.424 1.254-.938-1.859-5.111-4.66-7.669-7.461-7.669-2.801 0-5.602 2.558-7.46 7.669-.184.515.774 1.443 1.254.938 1.802-1.901 3.957-2.658 6.207-2.658 2.249 0 4.404.757 6.206 2.658"/><path d="m42.935 19.186c-2.801 0-5.602 2.558-7.461 7.669-.184.515.775 1.443 1.254.938 1.803-1.901 3.957-2.658 6.207-2.658s4.404.757 6.207 2.658c.479.505 1.438-.424 1.254-.938-1.86-5.112-4.661-7.669-7.461-7.669"/></svg>