<svg xmlns="http://www.w3.org/2000/svg" viewBox="0 0 64 64" enable-background="new 0 0 64 64"><path d="M32.002,2C15.432,2,2,15.432,2,31.999C2,48.568,15.432,62,32.002,62C48.568,62,62,48.568,62,31.999
		C62,15.432,48.568,2,32.002,2z M32.002,59.5C16.837,59.5,4.5,47.163,4.5,31.999C4.5,16.836,16.837,4.5,32.002,4.5
		C47.164,4.5,59.5,16.836,59.5,31.999C59.5,47.163,47.164,59.5,32.002,59.5z"/><circle cx="22.252" cy="31.591" r="5"/><path d="m52.617 25.873c-3.734-3.154-8.682-4.479-13.492-3.615-.703.135-.193 2.27.387 2.156 4.168-.748 8.457.4 11.691 3.133.445.387 1.955-1.205 1.414-1.674"/><path d="m24.488 18.807c.58.113 1.092-2.021.389-2.156-4.813-.863-9.76.463-13.492 3.615-.543.469.969 2.063 1.412 1.674 3.236-2.733 7.523-3.881 11.691-3.133"/><path d="m43.192 29c-2.62 0-5.239 1.753-6.979 5.257-.172.353.726.989 1.173.643 1.687-1.303 3.701-1.822 5.806-1.822s4.119.52 5.806 1.822c.448.347 1.345-.29 1.173-.643-1.739-3.504-4.358-5.257-6.979-5.257"/><path d="m44.131 42.214c-6.938 3.643-16.358 2.895-19.131 2.895-.743 0-1.178.31-1 .931 2 6.96 17 6.96 21.127-2.733.461-1.083-.359-1.428-.996-1.093"/></svg>