<svg xmlns="http://www.w3.org/2000/svg" viewBox="0 0 64 64" enable-background="new 0 0 64 64"><path d="M32,2C15.432,2,2,15.432,2,32s13.432,30,30,30s30-13.432,30-30S48.568,2,32,2z M32,59.5C16.836,59.5,4.5,47.164,4.5,32
		S16.836,4.5,32,4.5c15.164,0,27.5,12.336,27.5,27.5S47.164,59.5,32,59.5z"/><circle cx="20.5" cy="24.5" r="5"/><circle cx="43.5" cy="24.5" r="5"/><path d="m47.179 35.983c-3.464-.662-8.582-1.343-15.179-1.343h-.001c-6.595 0-11.714.681-15.177 1.343-1.349.259-1.822 1.264-1.822 2.067 0 7.271 5.611 14.591 16.999 14.591h.001c11.389 0 17.001-7.319 17.001-14.591 0-.803-.474-1.808-1.822-2.067m-1.204 3.787c-.054.442-.138.976-.265 1.553-.143.64-.262.936-1.266.816-1.921-.229-22.968-.229-24.888 0-1.004.119-1.124-.177-1.266-.816-.128-.577-.211-1.11-.265-1.553-.09-.743-.011-1.269 1.283-1.486 2.195-.368 6.838-1.013 12.69-1.013 5.854 0 10.496.645 12.691 1.013 1.296.217 1.375.742 1.286 1.486"/></svg>