<svg xmlns="http://www.w3.org/2000/svg" viewBox="0 0 64 64" enable-background="new 0 0 64 64"><path d="M31.999,2C15.433,2,2,15.432,2,32s13.432,30,29.999,30C48.567,62,62,48.568,62,32S48.567,2,31.999,2z M31.999,59.5
		C16.836,59.5,4.5,47.164,4.5,32S16.836,4.5,31.999,4.5C47.163,4.5,59.5,16.836,59.5,32S47.163,59.5,31.999,59.5z"/><path d="m42.768 39.971c-.505-2.861 2.624-4.761.781-6.099-2.206-1.604-6.013.574-8.994-1.593.374 2.119 2.559 4.119 5.882 3.533 0 0-2.098 1.309-1.477 4.83.62 3.521 3.04 4.033 3.04 4.033-3.323.586-4.693 3.212-4.319 5.33 2.061-3.055 6.383-2.311 7.906-4.572 1.273-1.886-2.315-2.601-2.819-5.462"/><path d="m50.634 13.897c-3.584 4.003-10.367 4.888-14.666 2.588-.58.563-1.087.835-.814 1.192 5.531 7.102 13.885 5.626 16.654-2.936.134-.43-.436-.512-1.174-.844"/><path d="m26.272 18.193c-3.584 4.003-10.368 4.889-14.665 2.588-.581.563-1.089.834-.816 1.193 5.532 7.1 13.886 5.625 16.655-2.938.135-.429-.435-.511-1.174-.843"/></svg>