<svg xmlns="http://www.w3.org/2000/svg" viewBox="0 0 64 64" enable-background="new 0 0 64 64"><circle cx="20.5" cy="24.5" r="5"/><circle cx="43.5" cy="24.5" r="5"/><path d="m32 2c-16.569 0-30 13.432-30 30s13.431 30 30 30c16.568 0 30-13.432 30-30s-13.432-30-30-30m.002 58c-5.521-.004-10-4.398-10-13.156v-3.995c0-.531.113-.849.822-.849h7.676l1.502 13.789 1.498-13.789h7.68c.708 0 .822.317.822.849v3.995c0 8.758-4.479 13.152-10 13.156m8.486-1.856c1.647-1.895 2.881-4.573 3.328-8.203 3.394-2.907 5.187-6.981 5.187-10.94 0-.493-.392-1-1.125-1-3.321 0-9.651 0-15.876 0-6.227 0-12.557 0-15.877 0-.733-.001-1.125.506-1.125.999 0 3.957 1.792 8.029 5.183 10.937.446 3.638 1.69 6.313 3.342 8.211-11.027-3.584-19.025-13.943-19.025-26.148 0-15.164 12.336-27.5 27.5-27.5 15.163 0 27.5 12.336 27.5 27.5 0 12.201-7.992 22.557-19.012 26.144"/></svg>