<svg xmlns="http://www.w3.org/2000/svg" viewBox="0 0 64 64" enable-background="new 0 0 64 64"><path d="M32,2C15.432,2,2,15.432,2,32s13.432,30,30,30s30-13.432,30-30S48.568,2,32,2z M32,59.5C16.836,59.5,4.5,47.164,4.5,32
		S16.836,4.5,32,4.5c15.164,0,27.5,12.336,27.5,27.5S47.164,59.5,32,59.5z"/><path d="m23.992 19.865c.541-.469-.971-2.061-1.414-1.674-3.236 2.732-7.523 3.881-11.693 3.133-.578-.113-1.088 2.021-.385 2.156 4.809.864 9.756-.46 13.492-3.615"/><path d="m53.113 21.172c-4.168.748-8.455-.4-11.691-3.133-.443-.389-1.955 1.205-1.412 1.674 3.732 3.152 8.68 4.479 13.492 3.615.703-.135.191-2.269-.389-2.156"/><path d="m46.566 42.396c-.535-.629-1.533-.768-2.219-.309l-4.247 2.841c-.686.459-1.758.394-2.383-.146l-4.582-3.947c-.625-.538-1.648-.537-2.273.001l-4.563 3.938c-.625.538-1.697.604-2.383.146l-4.262-2.847c-.686-.458-1.686-.318-2.219.31l-4.463 5.251c-.535.628-.381.816.342.418l3.775-2.082c.723-.398 1.797-.253 2.387.323l4.627 4.516c.59.576 1.609.638 2.264.136l4.465-3.42c.654-.502 1.727-.502 2.383 0l4.443 3.402c.654.502 1.674.44 2.264-.137l4.6-4.494c.59-.577 1.664-.723 2.387-.325l3.779 2.082c.723.397.875.21.34-.419l-4.462-5.238"/><path d="m43.248 31.55c2.709-1.5 5.563-1.958 8.256-2.361.465-.069.73-.759.166-1.094-5.697-3.397-14.963-.679-16.609 6.525-.104.446.314.728.801.678 6.168-.634 11.074.304 15.846 2.036.443.161.938-.481.543-.955-1.753-2.1-4.981-4.162-9.003-4.829"/><path d="m28.141 35.298c.486.05.902-.231.801-.678-1.646-7.204-10.912-9.923-16.611-6.525-.563.335-.297 1.024.168 1.094 2.693.403 5.547.861 8.256 2.361-4.021.667-7.25 2.729-9.002 4.829-.396.474.1 1.116.541.955 4.772-1.732 9.679-2.67 15.847-2.036"/></svg>