<svg xmlns="http://www.w3.org/2000/svg" viewBox="0 0 64 64" enable-background="new 0 0 64 64"><path d="M31.999,2C15.432,2,2,15.432,2,32s13.432,30,29.999,30C48.567,62,62,48.568,62,32S48.567,2,31.999,2z M31.999,59.5
		C16.836,59.5,4.5,47.164,4.5,32S16.836,4.5,31.999,4.5C47.163,4.5,59.5,16.836,59.5,32S47.163,59.5,31.999,59.5z"/><path d="m20.369 20.34c-2.758.486-5.072 3.492-6.015 8.848-.091.539 1.014 1.287 1.398.707 1.444-2.186 3.436-3.305 5.65-3.695 2.216-.391 4.47-.02 6.574 1.539.56.414 1.342-.666 1.071-1.143-2.718-4.711-5.919-6.742-8.678-6.256"/><path d="m41.906 16.543c-2.759.486-5.073 3.49-6.017 8.848-.091.539 1.015 1.287 1.398.705 1.445-2.186 3.436-3.305 5.65-3.695 2.217-.391 4.469-.02 6.574 1.541.56.414 1.343-.668 1.072-1.143-2.717-4.711-5.919-6.742-8.677-6.256"/><path d="m42.768 39.971c-.505-2.861 2.624-4.76.781-6.098-2.206-1.604-6.013.574-8.994-1.592.374 2.117 2.559 4.117 5.882 3.531 0 0-2.098 1.309-1.477 4.83.62 3.521 3.04 4.033 3.04 4.033-3.323.586-4.693 3.213-4.319 5.332 2.061-3.057 6.383-2.313 7.906-4.574 1.273-1.886-2.315-2.601-2.819-5.462"/></svg>