<svg xmlns="http://www.w3.org/2000/svg" viewBox="0 0 64 64" enable-background="new 0 0 64 64"><path d="M32,2C15.432,2,2,15.432,2,32s13.432,30,30,30c16.571,0,30.002-13.432,30.002-30S48.57,2,32,2z M32,59.5
		C16.836,59.5,4.5,47.164,4.5,32S16.836,4.5,32,4.5c15.165,0,27.502,12.336,27.502,27.5S47.164,59.5,32,59.5z"/><circle cx="20.5" cy="29.59" r="5"/><circle cx="43.502" cy="29.59" r="5"/><path d="m52.619 17.051c-3.736-3.154-8.684-4.479-13.492-3.615-.703.135-.193 2.27.385 2.156 4.17-.748 8.457.4 11.693 3.133.443.386 1.955-1.205 1.414-1.674"/><path d="m24.488 15.441c.578.113 1.09-2.021.387-2.156-4.811-.863-9.757.463-13.492 3.615-.541.469.969 2.063 1.412 1.674 3.238-2.732 7.525-3.881 11.693-3.133"/><path d="m40.582 44.428c-5.404-2.538-11.788-2.54-17.197-.012-1.339.645.329 4.15 1.662 3.5 3.571-1.665 8.896-2.306 13.875.01 1.334.619 3.078-2.813 1.66-3.498"/></svg>