<svg xmlns="http://www.w3.org/2000/svg" viewBox="0 0 64 64" enable-background="new 0 0 64 64"><path d="M32,2C15.432,2,2,15.432,2,32s13.432,30,30,30s30-13.432,30-30S48.568,2,32,2z M32,59.5C16.836,59.5,4.5,47.164,4.5,32
		S16.836,4.5,32,4.5c15.164,0,27.5,12.336,27.5,27.5S47.164,59.5,32,59.5z"/><path d="m54.617 24.053c-3.734-3.154-8.684-4.479-13.492-3.615-.703.135-.195 2.27.387 2.156 4.168-.748 8.457.4 11.691 3.133.445.386 1.953-1.206 1.414-1.674"/><path d="m22.488 22.443c.578.113 1.09-2.021.387-2.156-4.811-.863-9.758.463-13.492 3.615-.539.469.969 2.063 1.412 1.674 3.238-2.732 7.525-3.881 11.693-3.133"/><path d="m51.814 31.174c-4.225 3.32-11.059 3.014-14.893.002-.668.453-1.215.633-1.008 1.033 4.213 7.953 12.695 7.951 16.91 0 .208-.4-.339-.58-1.009-1.035"/><path d="m28.088 32.209c.207-.4-.34-.58-1.01-1.035-4.225 3.32-11.059 3.014-14.891.002-.67.453-1.219.633-1.012 1.033 4.216 7.953 12.698 7.951 16.913 0"/><path d="m38.014 46h-12.028c-1.314 0-1.314 4 0 4h12.027c1.317 0 1.317-4 .001-4"/></svg>