<svg xmlns="http://www.w3.org/2000/svg" viewBox="0 0 64 64" enable-background="new 0 0 64 64"><path d="M32,2C15.432,2,2,15.432,2,32s13.432,30,30,30s30-13.432,30-30S48.568,2,32,2z M32,59.5C16.836,59.5,4.5,47.164,4.5,32
		S16.836,4.5,32,4.5c15.163,0,27.5,12.336,27.5,27.5S47.163,59.5,32,59.5z"/><path d="m25.541 28.352c-.863-1.852-13.66 4.115-12.797 5.967 1.361 2.916 5.328 3.945 8.861 2.297 3.533-1.649 5.295-5.348 3.936-8.264"/><path d="m38.459 28.352c-1.359 2.916.404 6.613 3.936 8.264 3.533 1.646 7.5.619 8.861-2.297.863-1.852-11.934-7.819-12.797-5.967"/><path d="m24.427 21.214c.451-.554-1.313-1.861-1.684-1.401-2.712 3.252-9.237 6.295-13.474 6.282-.589-.013-.723 2.181-.005 2.189 4.885.017 12.03-3.314 15.163-7.07"/><path d="m54.73 26.095c-4.236.013-10.762-3.03-13.473-6.282-.371-.46-2.135.848-1.684 1.401 3.133 3.756 10.277 7.087 15.162 7.07.718-.009.585-2.202-.005-2.189"/><path d="m40.581 46.428c-5.403-2.538-11.787-2.54-17.196-.012-1.339.645.329 4.15 1.662 3.5 3.571-1.665 8.896-2.306 13.875.01 1.334.619 3.077-2.813 1.659-3.498"/></svg>