<svg xmlns="http://www.w3.org/2000/svg" viewBox="0 0 64 64" enable-background="new 0 0 64 64"><path d="m61.539 26.797c-2.565-14.558-15.223-24.797-29.508-24.797-1.73 0-3.482.15-5.246.461-16.314 2.877-27.21 18.434-24.333 34.754 2.566 14.557 15.225 24.795 29.509 24.795 1.729 0 3.482-.15 5.244-.461 16.316-2.877 27.213-18.432 24.334-34.752m-7.016 20.983c-4.213 6.016-10.518 10.031-17.752 11.307-1.592.28-3.21.423-4.811.423-13.351 0-24.726-9.559-27.047-22.729-2.632-14.933 7.375-29.225 22.307-31.858 1.591-.28 3.21-.423 4.812-.423 13.35 0 24.725 9.56 27.047 22.731 1.275 7.235-.343 14.533-4.556 20.549"/><circle cx="42.383" cy="24.683" r="5"/><circle cx="19.732" cy="28.676" r="4.999"/><path d="m43.27 41.832c-5.766-1.549-12.049-.428-16.93 3.013-1.205.87 1.053 4.028 2.252 3.153 3.223-2.268 8.352-3.835 13.66-2.432 1.422.376 2.535-3.309 1.018-3.734"/></svg>