<svg xmlns="http://www.w3.org/2000/svg" viewBox="0 0 64 64" enable-background="new 0 0 64 64"><path d="m21.25 13.842c-5.928 0-10.75 4.822-10.75 10.75s4.822 10.75 10.75 10.75c5.928 0 10.75-4.822 10.75-10.75s-4.822-10.75-10.75-10.75m0 20c-5.101 0-9.25-4.149-9.25-9.25s4.149-9.25 9.25-9.25c5.1 0 9.25 4.149 9.25 9.25s-4.15 9.25-9.25 9.25"/><circle cx="21.25" cy="24.592" r="4.5"/><path d="m43.5 23c-2.807 0-5.613 2.045-7.477 6.133-.186.412.775 1.154 1.256.75 1.807-1.52 3.965-2.126 6.221-2.126 2.254 0 4.412.606 6.221 2.126.479.404 1.439-.338 1.256-.75-1.864-4.088-4.67-6.133-7.477-6.133"/><path d="m32 2c-16.569 0-30 13.432-30 30s13.431 30 30 30c16.568 0 30-13.432 30-30s-13.432-30-30-30m.002 58c-5.521-.004-10-4.398-10-13.156v-3.995c0-.531.113-.849.822-.849h7.676l1.502 13.789 1.498-13.789h7.68c.708 0 .822.317.822.849v3.995c0 8.758-4.479 13.152-10 13.156m8.486-1.856c1.647-1.895 2.881-4.573 3.328-8.203 3.394-2.907 5.187-6.981 5.187-10.94 0-.493-.392-1-1.125-1-3.321 0-9.651 0-15.876 0-6.227 0-12.557 0-15.877 0-.733-.001-1.125.506-1.125.999 0 3.957 1.792 8.029 5.183 10.937.446 3.638 1.69 6.313 3.342 8.211-11.027-3.584-19.025-13.943-19.025-26.148 0-15.164 12.336-27.5 27.5-27.5 15.163 0 27.5 12.336 27.5 27.5 0 12.201-7.992 22.557-19.012 26.144"/></svg>