<svg xmlns="http://www.w3.org/2000/svg" viewBox="0 0 64 64" enable-background="new 0 0 64 64"><path d="M32.002,2C15.428,2,2,15.428,2,32s13.428,30,30.002,30C48.574,62,62,48.572,62,32S48.574,2,32.002,2z M32.002,59.5
		C16.837,59.5,4.5,47.164,4.5,32S16.837,4.5,32.002,4.5C47.165,4.5,59.5,16.836,59.5,32S47.165,59.5,32.002,59.5z"/><path d="m53.883 26.844c-3.35-3.889-14.006-2.52-17.166 2.793-.229.395.377.962 1.115 1.41 2.139-1.498 4.641-2.336 7.189-2.516.01 2.808 2.229 5.084 4.969 5.084 3.965 0 5.86-4.491 3.893-6.771"/><path d="m26.549 26.844c-3.348-3.888-14.004-2.521-17.166 2.795-.229.393.377.957 1.116 1.408 2.138-1.498 4.64-2.336 7.188-2.516.01 2.808 2.229 5.084 4.969 5.084 3.968 0 5.86-4.491 3.893-6.771"/><path d="m40.273 42.827c-5.766-1.549-12.049-.428-16.93 3.013-1.205.87 1.053 4.028 2.252 3.153 3.222-2.268 8.352-3.835 13.66-2.432 1.423.377 2.536-3.309 1.018-3.734"/></svg>