<svg xmlns="http://www.w3.org/2000/svg" viewBox="0 0 64 64" enable-background="new 0 0 64 64"><path d="M31.999,2C15.432,2,2,15.432,2,32s13.432,30,29.999,30C48.567,62,62,48.568,62,32S48.567,2,31.999,2z M31.999,59.5
		C16.836,59.5,4.5,47.164,4.5,32S16.836,4.5,31.999,4.5C47.163,4.5,59.5,16.836,59.5,32S47.163,59.5,31.999,59.5z"/><path d="m41.542 38.631c-1.893-1.963-6.021-.479-8.58-3.131 0 2.152 1.805 4.5 5.18 4.5 0 0-2.295.926-2.295 4.5 0 3.576 2.295 4.5 2.295 4.5-3.375 0-5.18 2.35-5.18 4.5 2.559-2.65 6.688-1.168 8.58-3.129 1.582-1.639-1.828-2.965-1.828-5.871 0-2.904 3.41-4.232 1.828-5.869"/><circle cx="20.499" cy="25.592" r="5"/><circle cx="43.499" cy="25.592" r="5"/><path d="m51.616 14.988c-3.736-3.154-8.684-4.479-13.492-3.615-.703.135-.193 2.27.385 2.156 4.17-.748 8.457.4 11.693 3.133.444.387 1.955-1.205 1.414-1.674"/><path d="m25.874 11.223c-4.811-.863-9.755.463-13.49 3.615-.541.469.969 2.063 1.412 1.674 3.238-2.732 7.523-3.881 11.691-3.133.578.113 1.09-2.022.387-2.156"/></svg>