<svg xmlns="http://www.w3.org/2000/svg" viewBox="0 0 64 64" enable-background="new 0 0 64 64"><path d="M62,16.319C62,9.071,55.259,2,55.259,2s-2.602,2.731-4.572,6.536C45.56,4.449,39.068,2,32,2C15.428,2,2,15.428,2,32
		s13.428,30,30,30s30-13.428,30-30c0-3.65-0.653-7.146-1.846-10.382C61.27,20.384,62.001,18.623,62,16.319z M32,59.5
		C16.836,59.5,4.5,47.164,4.5,32S16.836,4.5,32,4.5c6.698,0,12.843,2.41,17.618,6.404c-0.658,1.718-1.104,3.56-1.104,5.415
		c0,6.362,5.541,8.64,9.521,6.843C58.979,25.938,59.5,28.908,59.5,32C59.5,47.164,47.163,59.5,32,59.5z"/><circle cx="43.497" cy="36" r="5"/><circle cx="20.497" cy="36" r="5"/><path d="m26.991 23.58c.541-.469-.971-2.061-1.414-1.674-3.236 2.732-7.523 3.881-11.693 3.133-.578-.113-1.088 2.021-.385 2.156 4.809.864 9.756-.461 13.492-3.615"/><path d="m50.112 24.887c-4.168.748-8.455-.4-11.691-3.133-.443-.389-1.955 1.205-1.412 1.674 3.732 3.152 8.68 4.479 13.492 3.615.703-.135.191-2.27-.389-2.156"/><path d="m40 48h-16c-1.504 0-1.504 4 0 4h16c1.504 0 1.504-4 0-4"/></svg>