<svg xmlns="http://www.w3.org/2000/svg" viewBox="0 0 64 64" enable-background="new 0 0 64 64"><path d="m50.853 57.996l.007.002-.006-.004-.005.004z"/><ellipse cx="22" cy="27" rx="5" ry="6"/><path d="m60.513 41.332c.961-2.937 1.487-6.072 1.487-9.332 0-16.568-13.433-30-30.001-30-16.567 0-29.999 13.432-29.999 30s13.432 30 29.999 30c6.342 0 12.219-1.973 17.064-5.33 1.006.758 1.72 1.272 1.791 1.324.244-.182 7.859-5.756 9.66-8.449 1.832-2.742 1.771-5.148.852-6.979-.228-.455-.516-.87-.853-1.234m-28.514 18.168c-15.163 0-27.499-12.336-27.499-27.5s12.336-27.5 27.499-27.5c15.164 0 27.501 12.336 27.501 27.5 0 2.769-.415 5.441-1.18 7.963-.599-.186-1.246-.278-1.94-.23-2.332.16-4.117 1.412-5.586 3.471-1.484-2.043-3.281-3.285-5.613-3.424-2.254-.139-4.068 1.063-4.963 2.877-.902 1.836-.943 4.238.91 6.967.966 1.423 3.566 3.635 5.839 5.43-4.312 2.807-9.45 4.446-14.968 4.446"/><path d="m38.154 31.291c1.808-1.52 3.966-2.127 6.221-2.127s4.413.607 6.221 2.127c.479.404 1.44-.338 1.256-.75-1.863-4.088-4.67-6.133-7.477-6.133s-5.613 2.045-7.477 6.133c-.184.412.777 1.154 1.256.75"/><path d="m39.542 38.629c-1.893-1.961-6.021-.479-8.58-3.129 0 2.15 1.805 4.5 5.18 4.5 0 0-2.295.924-2.295 4.5 0 3.574 2.295 4.5 2.295 4.5-3.375 0-5.18 2.348-5.18 4.5 2.559-2.652 6.688-1.168 8.58-3.131 1.582-1.637-1.828-2.965-1.828-5.869 0-2.906 3.41-4.232 1.828-5.871"/></svg>