<svg xmlns="http://www.w3.org/2000/svg" viewBox="0 0 64 64" enable-background="new 0 0 64 64"><path d="M32,2C15.432,2,2,15.432,2,32s13.432,30,30,30s30-13.432,30-30S48.568,2,32,2z M32,59.5C16.836,59.5,4.5,47.164,4.5,32
		S16.836,4.5,32,4.5c15.164,0,27.5,12.336,27.5,27.5S47.164,59.5,32,59.5z"/><path d="m32 33c-6.354 0-11.313 3.604-13.77 7.65-.658 1.082.217 2.254 1.186 1.578 8.111-5.656 17.107-5.623 25.168 0 .971.676 1.846-.496 1.188-1.578-2.458-4.046-7.418-7.65-13.772-7.65"/><path d="m52.25 23.379c-1.752-2.1-4.98-4.162-9.002-4.828 2.709-1.5 5.563-1.959 8.256-2.361.465-.07.73-.76.166-1.094-5.697-3.398-14.963-.68-16.609 6.525-.104.445.314.727.801.678 6.168-.635 11.074.303 15.846 2.035.442.162.937-.48.542-.955"/><path d="m28.141 22.299c.486.049.902-.232.801-.678-1.646-7.205-10.912-9.924-16.611-6.525-.563.334-.297 1.023.168 1.094 2.693.402 5.547.861 8.256 2.361-4.021.666-7.25 2.729-9.002 4.828-.396.475.1 1.117.541.955 4.772-1.732 9.679-2.67 15.847-2.035"/></svg>