<svg xmlns="http://www.w3.org/2000/svg" viewBox="0 0 64 64" enable-background="new 0 0 64 64"><path d="M32,2C15.432,2,2,15.432,2,32s13.432,30,30,30s30-13.432,30-30S48.568,2,32,2z M32,59.5C16.836,59.5,4.5,47.164,4.5,32
		S16.836,4.5,32,4.5c15.164,0,27.5,12.336,27.5,27.5S47.164,59.5,32,59.5z"/><circle cx="20.5" cy="24.5" r="5"/><circle cx="43.5" cy="24.5" r="5"/><path d="m52.516 40c-2.244-3.593-7.696-6-20.516-6s-18.271 2.407-20.515 6c-1.2 1.92.515 5 .515 5 2.143 3.883 1.842 5 20.002 5 18.137 0 17.855-1.117 19.998-5 0 0 1.715-3.08.516-5m-20.516 8c-6.28 0-15.235 0-14.995-2.053.043-.367.15-.803.285-1.277.153-.525.274-.67 1.356-.67 1.812 0 24.347 0 26.708 0 1.081 0 1.205.145 1.356.67.138.475.243.91.284 1.277.242 2.053-8.714 2.053-14.994 2.053m15.979-8.021l-.199 1.041c-.101.539-.6.98-1.109.98h-29.343c-.508 0-1.007-.441-1.109-.98l-.197-1.041c-.103-.537.172-1.207.609-1.486 0 0 3.9-2.492 15.369-2.492s15.369 2.492 15.369 2.492c.437.278.711.948.61 1.486"/></svg>