<svg xmlns="http://www.w3.org/2000/svg" viewBox="0 0 64 64" enable-background="new 0 0 64 64"><path d="m52.643 58.617c1.418-2.313 1.957-4.637 2.012-6.962 4.572-5.264 7.345-12.134 7.345-19.655 0-16.57-13.43-30-30-30-16.57 0-30 13.43-30 30 0 7.521 2.773 14.389 7.344 19.654.054 2.315.59 4.63 1.995 6.936-3.782.257-6.339.745-6.339 1.305 0 .828 5.584 1.5 12.471 1.5 2.718 0 5.228-.105 7.275-.283 2.323.576 4.752.888 7.254.888 1.186 0 2.354-.076 3.502-.21 2.521.134 5.395.21 8.449.21 9.969 0 18.049-.807 18.049-1.803 0-.681-3.781-1.273-9.357-1.58m-20.643-54.117c15.165 0 27.5 12.336 27.5 27.5 0 5.941-1.9 11.443-5.115 15.944-.848-5.476-3.293-10.944-2.371-16.317.283-.422.557-.871.811-1.352.209-.4-.34-.58-1.01-1.035-4.225 3.32-11.059 3.014-14.891.002-.67.453-1.217.633-1.01 1.033 2.203 4.158 5.572 6.12 8.889 5.93-.424 6.373 4.029 12.148 2.604 18.563-4.399 2.985-9.702 4.732-15.407 4.732-5.705 0-11.01-1.747-15.408-4.734-1.425-6.412 3.029-12.188 2.605-18.561 3.317.19 6.688-1.772 8.891-5.93.207-.4-.34-.58-1.01-1.035-4.225 3.32-11.06 3.014-14.892.002-.67.453-1.217.633-1.01 1.033.255.48.527.93.811 1.353.921 5.372-1.524 10.839-2.373 16.315-3.215-4.501-5.114-10.003-5.114-15.943 0-15.164 12.336-27.5 27.5-27.5"/><path d="m19.263 46c-.744 1.92.32 5 .32 5 1.33 3.883 1.143 5 12.416 5 11.26 0 11.086-1.117 12.415-5 0 0 1.066-3.08.322-5-1.395-3.593-4.779-6-12.739-6-7.955 0-11.341 2.407-12.734 6m3.934-1.832c0 0 2.01-2.168 8.801-2.168 6.793 0 8.805 2.168 8.805 2.168.166.179.242.537.17.797l-.154.563c-.071.259-.307.472-.524.472h-16.592c-.217 0-.451-.213-.523-.473l-.154-.563c-.071-.259.007-.617.171-.796"/><path d="m52.238 24.624c.713-.072.391-2.243-.197-2.181-4.219.381-8.389-1.137-11.373-4.141-.41-.424-2.055 1.031-1.555 1.543 3.446 3.469 8.258 5.221 13.125 4.779"/><path d="m11.757 24.625c4.869.439 9.684-1.311 13.127-4.777.498-.516-1.145-1.971-1.553-1.545-2.986 3.004-7.158 4.521-11.376 4.14-.585-.064-.909 2.108-.198 2.182"/></svg>