<svg xmlns="http://www.w3.org/2000/svg" viewBox="0 0 64 64" enable-background="new 0 0 64 64"><path d="M32,2C15.432,2,2,15.432,2,32s13.432,30,30,30s30-13.432,30-30S48.568,2,32,2z M32,59.5C16.836,59.5,4.5,47.164,4.5,32
		S16.836,4.5,32,4.5c15.163,0,27.5,12.336,27.5,27.5S47.163,59.5,32,59.5z"/><circle cx="20" cy="27" r="5"/><circle cx="44" cy="27" r="5"/><path d="m51.617 15.373c-3.736-3.154-8.684-4.479-13.492-3.615-.703.135-.193 2.27.385 2.156 4.17-.748 8.457.4 11.693 3.133.443.387 1.955-1.205 1.414-1.674"/><path d="m25.875 11.607c-4.811-.863-9.758.463-13.492 3.615-.541.469.969 2.063 1.412 1.674 3.238-2.732 7.525-3.881 11.693-3.133.578.114 1.09-2.021.387-2.156"/><circle cx="32" cy="48" r="5"/></svg>