<svg xmlns="http://www.w3.org/2000/svg" viewBox="0 0 64 64" enable-background="new 0 0 64 64"><path d="m19.883 27.48c-1.477-.684-3.012-1.244-4.621-1.666-.294-.078-.589-.146-.884-.214-.057.05-.106.106-.138.175-1.361 2.916-.1 6.381 2.814 7.742 2.918 1.359 6.383.098 7.744-2.818.036-.076.045-.159.043-.246-.235-.177-.47-.355-.709-.523-1.359-.959-2.765-1.758-4.249-2.45"/><path d="m32 2c-16.568 0-30 13.432-30 30s13.432 30 30 30 30-13.432 30-30-13.432-30-30-30m-16.564 35.063c-4.623-2.153-6.817-7.4-5.27-12.128h.001c1.586-1.034 3.472-1.462 5.385-1.454 1.92.018 3.84.469 5.59 1.279 1.744.801 3.346 1.98 4.596 3.441 1.24 1.461 2.162 3.23 2.365 5.115-2.628 4.213-8.052 5.901-12.667 3.747m25.552 12.602c-5.793-4.8-12.219-4.771-17.977 0-.693.573-1.318-.421-.848-1.339 1.754-3.435 5.299-6.492 9.836-6.492 4.539 0 8.082 3.058 9.836 6.492.472.918-.153 1.912-.847 1.339m7.576-12.602c-4.615 2.154-10.039.467-12.668-3.746.203-1.885 1.125-3.654 2.365-5.115 1.25-1.461 2.852-2.641 4.596-3.441 1.75-.811 3.67-1.262 5.59-1.279 1.913-.008 3.8.42 5.386 1.454h.001c1.547 4.726-.646 9.973-5.27 12.127"/><path d="m49.622 25.601c-.295.068-.59.136-.884.214-1.609.422-3.145.982-4.621 1.666-1.484.691-2.891 1.49-4.25 2.449-.239.168-.474.347-.709.523-.002.087.007.17.043.246 1.361 2.916 4.826 4.178 7.744 2.818 2.914-1.361 4.176-4.826 2.814-7.742-.031-.068-.08-.125-.137-.174"/></svg>