<svg xmlns="http://www.w3.org/2000/svg" viewBox="0 0 64 64" enable-background="new 0 0 64 64"><path d="M32,2C15.43,2,2,15.43,2,32s13.43,30,30,30s30-13.43,30-30S48.57,2,32,2z M32,59.5C16.836,59.5,4.5,47.164,4.5,32
		S16.836,4.5,32,4.5c15.164,0,27.5,12.336,27.5,27.5S47.164,59.5,32,59.5z"/><path d="m51.5 23.527c.703-.135.193-2.27-.385-2.156-4.17.748-8.457-.4-11.693-3.133-.443-.387-1.955 1.205-1.414 1.674 3.736 3.154 8.683 4.479 13.492 3.615"/><path d="m12.498 23.377c4.813.863 9.76-.463 13.492-3.615.543-.469-.969-2.063-1.412-1.674-3.236 2.732-7.523 3.881-11.691 3.133-.58-.114-1.092 2.021-.389 2.156"/><path d="m51.467 27.904c-4.941 2.114-11.463.049-14.385-3.852-.764.264-1.34.296-1.242.736 2.01 8.772 10.205 10.966 16.334 4.377.305-.332-.178-.647-.707-1.261"/><path d="m28.162 24.789c.096-.44-.479-.473-1.244-.738-3.221 4.3-9.902 5.772-14.383 3.855-.529.611-1.014.927-.709 1.26 6.129 6.592 14.322 4.395 16.336-4.377"/><path d="m32 38c-9.793 0-13.959 2.407-15.674 6-.918 1.92.393 5 .393 5 1.637 3.883 1.408 5 15.283 5 13.857 0 13.643-1.117 15.279-5 0 0 1.309-3.08.395-5-1.715-3.593-5.881-6-15.676-6m11.363 4.965l-.195.563c-.09.259-.389.472-.664.472h-21.008c-.275 0-.574-.213-.664-.473l-.195-.563c-.09-.26.008-.618.217-.797 0 0 2.545-2.168 11.146-2.168s11.146 2.168 11.146 2.168c.209.18.307.538.217.798"/></svg>