<svg xmlns="http://www.w3.org/2000/svg" viewBox="0 0 64 64" enable-background="new 0 0 64 64"><path d="m32 2c-16.568 0-30 13.432-30 30s13.432 30 30 30 30-13.432 30-30-13.432-30-30-30m0 57.5c-15.164 0-27.5-12.336-27.5-27.5 0-7.577 3.081-14.448 8.055-19.427.365.507.981.958 1.24.731 3.238-2.732 7.525-3.881 11.693-3.133.578.113 1.09-2.021.387-2.156-2.918-.523-5.882-.23-8.599.776 4.26-2.712 9.31-4.291 14.724-4.291 5.681 0 10.966 1.732 15.353 4.695-2.885-1.207-6.083-1.594-9.228-1.029-.703.135-.193 2.27.385 2.156 4.17-.748 8.457.4 11.693 3.133.273.238.952-.276 1.306-.815 4.935 4.973 7.991 11.815 7.991 19.36 0 15.164-12.337 27.5-27.5 27.5"/><path d="m30.25 24.785c0-5.928-4.822-10.75-10.75-10.75s-10.75 4.822-10.75 10.75 4.822 10.75 10.75 10.75 10.75-4.822 10.75-10.75m-20 0c0-5.101 4.149-9.25 9.25-9.25s9.25 4.149 9.25 9.25-4.149 9.25-9.25 9.25-9.25-4.149-9.25-9.25"/><circle cx="19.5" cy="24.785" r="3.5"/><path d="m44.5 14.035c-5.928 0-10.75 4.822-10.75 10.75s4.822 10.75 10.75 10.75 10.75-4.822 10.75-10.75-4.822-10.75-10.75-10.75m0 20c-5.101 0-9.25-4.149-9.25-9.25s4.149-9.25 9.25-9.25 9.25 4.149 9.25 9.25-4.149 9.25-9.25 9.25"/><circle cx="44.5" cy="24.785" r="3.5"/><path d="m32 38c-9.793 0-13.959 2.407-15.674 6-.918 1.92.393 5 .393 5 1.637 3.883 1.408 5 15.283 5 13.857 0 13.643-1.117 15.279-5 0 0 1.309-3.08.395-5-1.715-3.593-5.881-6-15.676-6m11.363 4.965l-.195.563c-.09.259-.389.472-.664.472h-21.008c-.275 0-.574-.213-.664-.473l-.195-.563c-.09-.26.008-.618.217-.797 0 0 2.545-2.168 11.146-2.168s11.146 2.168 11.146 2.168c.209.18.307.538.217.798"/></svg>