<svg xmlns="http://www.w3.org/2000/svg" viewBox="0 0 64 64" enable-background="new 0 0 64 64"><path d="m32 2c-16.568 0-30 13.432-30 30s13.432 30 30 30 30-13.432 30-30-13.432-30-30-30m0 57.5c-15.164 0-27.5-12.336-27.5-27.5 0-6.34 2.162-12.18 5.779-16.836.014.627 1.141 1.712 1.516 1.383 3.236-2.732 7.523-3.881 11.691-3.133.58.113 1.092-2.021.389-2.156-4.686-.841-9.49.409-13.186 3.384 5.047-6.185 12.724-10.142 21.311-10.142 8.757 0 16.563 4.118 21.604 10.515-3.733-3.147-8.675-4.469-13.48-3.606-.703.135-.193 2.27.387 2.156 4.168-.748 8.457.4 11.691 3.133.44.383 1.92-1.172 1.423-1.656 3.675 4.675 5.875 10.562 5.875 16.958 0 15.164-12.337 27.5-27.5 27.5"/><circle cx="20.5" cy="26" r="5"/><circle cx="43.5" cy="26" r="5"/><path d="m31.998 36c-9.793 0-13.959 2.407-15.674 6-.916 1.92.395 5 .395 5 1.637 3.883 1.406 5 15.281 5 13.857 0 13.643-1.117 15.279-5 0 0 1.311-3.08.395-5-1.715-3.593-5.881-6-15.676-6m11.363 4.965l-.195.563c-.09.259-.389.472-.664.472h-21.008c-.273 0-.572-.213-.662-.473l-.195-.563c-.09-.26.008-.618.217-.797 0 0 2.545-2.168 11.145-2.168 8.602 0 11.146 2.168 11.146 2.168.21.18.306.538.216.798"/></svg>