<svg xmlns="http://www.w3.org/2000/svg" viewBox="0 0 64 64" enable-background="new 0 0 64 64"><path d="m62 32c0-16.568-13.432-30-30-30s-30 13.432-30 30 13.432 30 30 30c3.514 0 6.884-.609 10.018-1.72 1.367 1.074 3.096 1.72 4.982 1.72 4.416 0 8-3.525 8-7.877 0-.831-.087-1.697-.241-2.59 4.51-5.249 7.241-12.07 7.241-19.533m-57.5 0c0-15.164 12.336-27.5 27.5-27.5 15.163 0 27.5 12.336 27.5 27.5 0 6.186-2.054 11.899-5.514 16.498-.919-2.783-2.435-5.771-4.452-8.874 3.098-1.636 5.216-4.886 5.216-8.624 0-5.376-4.374-9.75-9.75-9.75s-9.75 4.374-9.75 9.75c0 4.967 3.735 9.07 8.543 9.667-1.257 2.026-2.285 3.987-3.062 5.864-.048-.036-.093-.075-.15-.104-5.403-2.538-11.786-2.54-17.196-.012-1.338.645.33 4.15 1.662 3.5 3.572-1.665 8.896-2.306 13.875.01.213.099.437.086.655.006-.378 1.465-.577 2.866-.577 4.192 0 1.517.442 2.928 1.196 4.129-2.59.811-5.342 1.248-8.196 1.248-15.164 0-27.5-12.336-27.5-27.5m42.496 4c-.821 1.094-1.579 2.172-2.283 3.235-4.415-.153-7.963-3.783-7.963-8.235 0-4.549 3.701-8.25 8.25-8.25s8.25 3.701 8.25 8.25c0 3.22-1.858 6.008-4.556 7.366-.537-.783-1.102-1.572-1.698-2.366"/><path d="m45 25c-3.313 0-6 2.688-6 6 0 2.989 2.188 5.46 5.048 5.917-.19-.438-.308-.925-.308-1.448 0-1.795 1.26-3.25 2.811-3.25 1.456 0 2.64 1.283 2.784 2.922 1.029-1.077 1.665-2.534 1.665-4.141 0-3.312-2.687-6-6-6m-2.221 7.902c-.908 0-1.645-.852-1.645-1.902 0-1.049.736-1.9 1.645-1.9s1.645.852 1.645 1.9c0 1.051-.736 1.902-1.645 1.902"/><path d="m28.75 31c0-5.376-4.374-9.75-9.75-9.75s-9.75 4.374-9.75 9.75 4.374 9.75 9.75 9.75 9.75-4.374 9.75-9.75m-9.75 8.25c-4.549 0-8.25-3.701-8.25-8.25s3.701-8.25 8.25-8.25 8.25 3.701 8.25 8.25-3.701 8.25-8.25 8.25"/><path d="m19 25c-3.313 0-6 2.688-6 6 0 2.989 2.188 5.46 5.047 5.917-.189-.438-.307-.925-.307-1.448 0-1.795 1.258-3.25 2.811-3.25 1.456 0 2.64 1.284 2.782 2.924 1.03-1.077 1.667-2.535 1.667-4.143 0-3.312-2.687-6-6-6m-2.223 7.902c-.908 0-1.643-.852-1.643-1.902 0-1.049.734-1.9 1.643-1.9s1.645.852 1.645 1.9c0 1.051-.736 1.902-1.645 1.902"/><path d="m41.51 17.564c4.168-.748 8.457.4 11.691 3.133.445.387 1.955-1.205 1.414-1.674-3.734-3.154-8.682-4.479-13.492-3.615-.703.135-.193 2.27.387 2.156"/><path d="m10.795 20.547c3.236-2.732 7.523-3.881 11.691-3.133.58.113 1.092-2.021.389-2.156-4.813-.863-9.76.463-13.492 3.615-.543.469.969 2.063 1.412 1.674"/></svg>