<svg xmlns="http://www.w3.org/2000/svg" viewBox="0 0 64 64" enable-background="new 0 0 64 64"><path d="m37.922 18.968c2.422-3.477 6.266-5.697 10.486-6.053.586-.041.529-2.234-.184-2.184-4.873.41-9.307 2.973-12.1 6.984-.401.593 1.472 1.741 1.798 1.253"/><path d="m15.592 12.915c4.221.355 8.064 2.576 10.482 6.053.328.488 2.201-.658 1.799-1.252-2.793-4.012-7.229-6.572-12.098-6.984-.714-.051-.773 2.144-.183 2.183"/><path d="m52.826 21.034c.207-.4-.34-.58-1.012-1.035-4.225 3.32-11.057 3.014-14.893.002-.67.453-1.217.633-1.01 1.033 4.216 7.953 12.7 7.951 16.915 0"/><path d="m28.086 21.034c.207-.4-.34-.58-1.01-1.035-4.225 3.32-11.061 3.014-14.893.002-.67.453-1.217.633-1.01 1.033 4.216 7.953 12.699 7.951 16.913 0"/><path d="m59.438 44.121c1.64-3.708 2.562-7.806 2.562-12.122 0-16.572-13.437-29.999-30.001-29.999-16.573 0-29.999 13.437-29.999 29.999 0 4.315.921 8.413 2.56 12.12-.246.379-.464.778-.616 1.215-.495 1.425-.389 2.954.297 4.305.708 1.393 1.937 2.433 3.484 2.946-.396 1.686-.187 3.44.612 5.015.981 1.933 2.712 3.361 4.874 4.022.822.25 1.673.378 2.53.378 2.078 0 4.009-.746 5.486-2.003 3.345 1.288 6.973 2.003 10.772 2.003 3.798 0 7.427-.716 10.771-2.004 1.477 1.258 3.408 2.003 5.486 2.004.855 0 1.707-.128 2.529-.379 2.16-.66 3.893-2.089 4.875-4.022.799-1.574 1.01-3.329.613-5.014 1.539-.51 2.771-1.551 3.48-2.946.688-1.351.793-2.88.297-4.306-.15-.436-.368-.834-.612-1.212m-54.938-12.122c0-15.163 12.336-27.499 27.499-27.499 15.163 0 27.501 12.336 27.501 27.499 0 3.629-.719 7.09-2.002 10.265-.951-.567-2.063-.901-3.246-.901-.637 0-1.27.095-1.879.281-1.387.423-2.535 1.271-3.291 2.418-1.898-.601-3.76-2.167-5.447-4.091.363-.238.518-.832.17-1.399-.977-1.591-2.422-3.093-4.225-4.255-1.973-3.244-3.23-6.04-3.26-6.104l-1.486-3.343.051 3.658c.004.173.033 1.699.285 3.917-1.004-.232-2.061-.365-3.171-.365-1.11 0-2.168.134-3.17.365.252-2.217.281-3.744.283-3.917l.052-3.661-1.487 3.346c-.027.063-1.285 2.859-3.257 6.104-1.804 1.161-3.249 2.664-4.226 4.255-.348.567-.193 1.161.171 1.399-1.689 1.925-3.549 3.492-5.449 4.092-.757-1.147-1.905-1.996-3.288-2.418-.611-.188-1.244-.282-1.881-.282-1.183 0-2.294.334-3.246.899-1.282-3.174-2.001-6.634-2.001-10.263m17.733 23.982l-.304.679c-1.044 2.332-3.473 3.84-6.188 3.84-.708 0-1.412-.105-2.092-.313-1.768-.541-3.179-1.701-3.974-3.268-.718-1.413-.839-3.008-.334-4.538l.167-.933-.704-.134c-.173-.032-.341-.074-.498-.119-1.214-.37-2.183-1.165-2.728-2.237-.5-.984-.578-2.097-.218-3.132.618-1.773 2.381-2.965 4.387-2.965.488 0 .974.073 1.443.217 1.197.365 2.158 1.146 2.703 2.199l.265.512.562-.124c5.304-1.168 10.133-8.794 12.604-13.382-.474 4.077-1.716 10.576-4.96 14.976l-1.451 1.969 2.305-.816c.98-.348 2.069-.372 3.079-.062 1.212.368 2.181 1.163 2.726 2.236.501.984.578 2.097.218 3.132-.616 1.772-2.376 2.963-4.38 2.963-.489 0-.976-.073-1.455-.22-.168-.05-.332-.112-.49-.183l-.683-.297m9.766 3.519c-3.172 0-6.215-.551-9.053-1.544.012-.019.025-.036.036-.055.61.187 1.242.28 1.878.28 2.641 0 4.971-1.596 5.797-3.97.496-1.425.391-2.953-.297-4.305-.732-1.44-2.021-2.503-3.625-2.991-.701-.215-1.432-.306-2.16-.277 1.825-3.049 2.914-6.656 3.567-9.85 2.563-.594 5.155-.593 7.713 0 .652 3.193 1.74 6.801 3.566 9.85-.725-.028-1.461.063-2.158.276-1.607.488-2.895 1.551-3.625 2.99-.688 1.353-.792 2.882-.297 4.306.826 2.375 3.154 3.971 5.795 3.971.639 0 1.273-.095 1.877-.28.012.02.025.036.037.056-2.837.993-5.88 1.543-9.051 1.543m26.419-10.541c-.545 1.072-1.514 1.867-2.717 2.234-.17.048-.336.09-.508.123l-.701.135.102.707.064.225c.506 1.503.389 3.111-.336 4.536-.797 1.567-2.207 2.728-3.975 3.268-.682.208-1.385.313-2.092.313-2.715-.001-5.145-1.508-6.189-3.84l-.305-.679-.68.298c-.16.07-.322.133-.5.186-.471.144-.957.217-1.445.217-2.002 0-3.762-1.19-4.379-2.964-.361-1.035-.283-2.147.217-3.133.545-1.072 1.514-1.866 2.727-2.235 1.006-.309 2.096-.285 3.076.063l2.307.816-1.451-1.969c-3.246-4.4-4.486-10.9-4.959-14.978 2.471 4.587 7.301 12.216 12.604 13.384l.563.124.266-.513c.543-1.052 1.504-1.833 2.705-2.199.469-.143.953-.216 1.441-.216 2.004 0 3.766 1.191 4.383 2.964.358 1.036.282 2.149-.218 3.133"/></svg>