<svg xmlns="http://www.w3.org/2000/svg" viewBox="0 0 64 64" enable-background="new 0 0 64 64"><path d="M32,2C15.432,2,2,15.432,2,32s13.432,30,30,30s30-13.432,30-30S48.568,2,32,2z M32,59.5C16.836,59.5,4.5,47.164,4.5,32
		S16.836,4.5,32,4.5c15.163,0,27.5,12.336,27.5,27.5S47.163,59.5,32,59.5z"/><circle cx="20.5" cy="26" r="5"/><circle cx="43.5" cy="26" r="5"/><path d="m31.998 38c-8.568 0-12.213 2.408-13.715 6-.801 1.919.346 3.999.346 3.999.449 1.218 2.215 2.001 13.371 2.001 11.143 0 12.922-.783 13.369-2.001 0 0 1.146-2.08.346-3.999-1.5-3.592-5.147-6-13.717-6m9.973 4.965l-.172.563c-.08.258-.342.472-.586.472h-18.43c-.24 0-.502-.214-.58-.472l-.174-.563c-.078-.26.008-.616.191-.797 0 0 2.232-2.168 9.777-2.168 7.547 0 9.779 2.168 9.779 2.168.187.181.275.537.195.797"/></svg>