<svg xmlns="http://www.w3.org/2000/svg" viewBox="0 0 64 64" enable-background="new 0 0 64 64"><path d="m51.814 19.498c-4.225 3.32-11.059 3.014-14.891.002-.67.453-1.217.633-1.01 1.033 4.213 7.953 12.695 7.951 16.91 0 .21-.4-.339-.58-1.009-1.035"/><path d="m27.078 19.498c-4.225 3.32-11.059 3.014-14.891.002-.67.453-1.219.633-1.012 1.033 4.215 7.953 12.697 7.951 16.912 0 .208-.4-.339-.58-1.009-1.035"/><path d="m32 2c-16.568 0-30 13.432-30 30 0 2.508.325 4.935.906 7.263-.467 1.384-.672 2.844-.59 4.314.165 2.97 1.473 5.625 3.683 7.477 1.415 1.186 3.08 1.946 4.887 2.249 5.421 5.373 12.877 8.697 21.114 8.697 16.568 0 30-13.432 30-30s-13.432-30-30-30m-25.038 47.903c-1.889-1.582-3.007-3.858-3.148-6.409-.143-2.57.721-5.109 2.432-7.149 1.976-2.36 4.805-3.714 7.761-3.714 2.141 0 4.116.708 5.714 2.046.481.405.911.851 1.277 1.323l.278.36.448-.081c2.978-.541 5.175-4.005 6.779-6.534.387-.609.836-1.318 1.184-1.773-.213 3.129-4.804 14.957-9.248 20.264-1.977 2.361-4.807 3.716-7.763 3.716-2.14-.002-4.115-.709-5.714-2.049m25.038 9.597c-6.6 0-12.655-2.344-17.399-6.233 2.149-.375 4.163-1.365 5.822-2.873 1.072 4.681 5.846 6.312 11.579 6.312 6.523 0 11.811-2.102 11.811-8.416 0-8.328-5.289-13.699-11.811-13.699-.967 0-1.904.123-2.803.353 1.354-3.544 2.165-6.601 1.921-7.83-.111-.565-.408-.827-.637-.946-.155-.081-.322-.123-.497-.123-.912 0-1.564 1.03-2.75 2.899-1.369 2.157-3.213 5.065-5.366 5.757-.355-.414-.753-.807-1.186-1.171-1.872-1.568-4.182-2.397-6.679-2.397-3.401 0-6.649 1.549-8.911 4.251-.114.137-.215.281-.322.422-.175-1.245-.272-2.515-.272-3.806 0-15.164 12.336-27.5 27.5-27.5s27.5 12.336 27.5 27.5-12.336 27.5-27.5 27.5m-8.266-6.844c0 0 1.834-1.965 8.268-1.965 6.432 0 8.266 1.965 8.266 1.965-1.648 2.762-8.266 2.611-8.266 2.611s-6.617.149-8.268-2.611"/></svg>