<svg xmlns="http://www.w3.org/2000/svg" viewBox="0 0 64 64" enable-background="new 0 0 64 64"><path d="M32,2C15.428,2,2,15.428,2,32s13.428,30,30,30s30-13.428,30-30S48.572,2,32,2z M32,59.5C16.836,59.5,4.5,47.164,4.5,32
		S16.836,4.5,32,4.5c15.163,0,27.5,12.336,27.5,27.5c0,1.357-0.103,2.69-0.294,3.996c-0.838-5.66-5.69-10.766-5.69-10.766
		s-5.828,6.113-5.828,12.375c0,6.353,6.393,7.996,9.708,4.937C53.251,52.488,43.431,59.5,32,59.5z"/><circle cx="38.498" cy="35" r="5"/><circle cx="15.498" cy="35" r="5"/><path d="m21.992 21.58c.541-.469-.971-2.061-1.414-1.674-3.236 2.732-7.523 3.881-11.693 3.133-.578-.113-1.088 2.021-.385 2.156 4.809.864 9.756-.461 13.492-3.615"/><path d="m45.113 22.887c-4.168.748-8.455-.4-11.691-3.133-.443-.389-1.955 1.205-1.412 1.674 3.732 3.152 8.68 4.479 13.492 3.615.703-.135.191-2.27-.389-2.156"/><path d="m38.074 47.33c-5.766-1.549-12.049-.428-16.93 3.014-1.205.869 1.053 4.027 2.252 3.152 3.223-2.268 8.352-3.834 13.66-2.432 1.423.377 2.536-3.308 1.018-3.734"/></svg>