<svg xmlns="http://www.w3.org/2000/svg" viewBox="0 0 64 64" enable-background="new 0 0 64 64"><path d="m32 39.828c-4.59 0-8.313 3.721-8.313 8.313 0 4.59 3.723 8.313 8.313 8.313 4.594 0 8.313-3.723 8.313-8.313 0-4.592-3.719-8.313-8.313-8.313m-5.816 4.953c1.162-2.008 3.332-3.359 5.816-3.359 2.486 0 4.656 1.35 5.818 3.355l-11.634.004"/><circle cx="43.5" cy="33" r="4.5"/><circle cx="20.5" cy="33" r="4.5"/><path d="m26.992 19.58c.541-.469-.971-2.061-1.414-1.674-3.236 2.732-7.523 3.881-11.693 3.133-.578-.113-1.088 2.021-.385 2.156 4.809.864 9.756-.461 13.492-3.615"/><path d="m62 18.535c0-6.848-6.371-13.533-6.371-13.533s-1.819 1.919-3.515 4.742c-5.321-4.812-12.375-7.744-20.114-7.744-16.568 0-30 13.432-30 30s13.432 30 30 30 30-13.432 30-30c0-3.112-.475-6.114-1.354-8.938.83-1.128 1.355-2.633 1.354-4.527m-30 40.965c-15.164 0-27.5-12.336-27.5-27.5s12.336-27.5 27.5-27.5c7.31 0 13.958 2.872 18.888 7.541-.932 1.992-1.632 4.23-1.632 6.494 0 .891.116 1.695.324 2.417-3.999.563-8.06-.582-11.158-3.198-.443-.389-1.955 1.205-1.412 1.674 3.732 3.152 8.68 4.479 13.492 3.615.026-.005.04-.031.063-.041 1.865 2.604 5.352 3.226 7.989 1.859.614 2.278.946 4.67.946 7.139 0 15.164-12.337 27.5-27.5 27.5"/></svg>