<svg xmlns="http://www.w3.org/2000/svg" viewBox="0 0 64 64" enable-background="new 0 0 64 64"><path d="m61.959 43.01c.025-.311.041-.619.041-.93v-2.891l-.387.084c.209-1.219.281-2.674.084-4.373l-.582-5.05-.377.412c-.072-.963-.236-1.959-.514-2.957 1.055-6.184.951-14.225-.344-24.055l-.163-1.25-1.238.164c-7.149.959-13.893 4.025-18.993 7.512-2.312-.5-4.802-.766-7.486-.766-2.682 0-5.174.266-7.486.766-5.1-3.486-11.842-6.553-18.991-7.512l-1.239-.164-.165 1.25c-1.295 9.83-1.398 17.871-.344 24.055-.277.998-.441 1.994-.514 2.957l-.376-.412-.582 5.05c-.196 1.699-.124 3.154.085 4.373l-.388-.084v2.891c0 .311.016.621.042.932-.232 2.285.621 4.424 2.078 5.912 1.828 2.865 4.803 5.516 8.8 7.771 5.796 3.272 13.107 5.305 19.08 5.305 5.973 0 13.284-2.033 19.081-5.305 3.998-2.256 6.971-4.904 8.799-7.77 1.458-1.487 2.311-3.628 2.079-5.915m-2.502-5.119c-.006-.006-.01-.012-.016-.018-.426-.449-.887-.859-1.365-1.242l1.33-1.457c.117 1.017.117 1.918.051 2.717m-1.893-33.034c.809 6.576 1.043 12.361.732 17.225-.029-.689-.148-1.377-.412-2.02l.423-.062-1.682-2.906c.338-1.971.592-5.398-.533-9.473-3.893 1.619-6.9 4.439-8.025 5.592-1.615-1.09-3.402-1.971-5.348-2.648 4.217-2.581 9.375-4.774 14.845-5.708m-51.128 0c5.471.934 10.63 3.127 14.847 5.707-1.947.678-3.733 1.559-5.348 2.648-1.126-1.152-4.133-3.973-8.026-5.592-1.124 4.074-.87 7.5-.532 9.473l-1.683 2.907.422.063c-.264.643-.384 1.33-.412 2.02-.311-4.864-.076-10.649.732-17.226m-1.842 30.317l1.332 1.459c-.48.383-.94.793-1.366 1.24-.006.006-.011.014-.017.02-.067-.799-.067-1.702.051-2.719m27.406 24.482c-7.365 0-17.323-3.387-23.072-8.662 1.815-.01 3.767-.799 5.56-2.684 4.956-5.209 5.519-14.799 5.575-16.138 2.488-.328 5.137-.391 8.076-.09.486.051.904-.23.801-.678-1.646-7.204-10.912-9.922-16.609-6.525-.564.335-.299 1.024.166 1.094 2.693.403 5.549.861 8.255 2.361-4.019.668-7.25 2.73-9.001 4.83-.122.146-.152.307-.132.457-1.867.646-3.781 1.547-5.442 2.811-.424-1.547-1.233-5.406-.021-9.037l1.989 1.488c0 0-.604-1.904-.049-3.208l.859.684c0 0-2.036-4.49-.143-6.211.767 2.572 1.673 2.611 1.725 2.611h.003c0 0-1.146-1.984-.254-2.816.365.598.705.801.979.801.411 0 .675-.457.653-.727-.049-.596.18-1.438-2.496-1.834.369-.637 1.193-.826 2.049-.826 1.275 0 2.619.424 2.619.424s-.086-1.342-1.854-1.342c-.035 0-.07.002-.107.002.556-.834 1.37-1.078 2.13-1.078 1.056 0 2.006.469 2.006.469l-.006.018c.7-.539 1.462-1.02 2.254-1.471.62 1.418 1.458 2.064 2.483 3.959 1.465-2.705 2.537-4.277 3.139-6.174.885-.223 1.801-.412 2.77-.553.775 3.49 2.555 6.191 5.094 10.877 2.577-4.756 4.333-7.416 5.096-10.879.969.141 1.887.332 2.771.555.607 1.918 1.688 3.504 3.135 6.174 1.035-1.914 1.873-2.555 2.488-3.959.791.451 1.553.932 2.254 1.471l-.006-.018c0 0 .949-.469 2.006-.469.76 0 1.574.244 2.129 1.078-.037 0-.072-.002-.107-.002-1.768 0-1.854 1.342-1.854 1.342s1.344-.426 2.619-.424c.855 0 1.68.189 2.049.826-2.676.396-2.447 1.238-2.496 1.834-.021.27.242.727.652.727.275 0 .615-.203.98-.801.893.832-.254 2.816-.254 2.816s0 0 .002 0c.053 0 .959-.039 1.725-2.611 1.895 1.721-.143 6.211-.143 6.211l.859-.684c.557 1.303-.049 3.208-.049 3.208l1.988-1.488c1.213 3.631.404 7.486-.02 9.035-1.662-1.262-3.576-2.164-5.443-2.809.02-.15-.01-.311-.133-.457-1.752-2.099-4.98-4.162-9.002-4.83 2.709-1.5 5.563-1.958 8.256-2.361.465-.069.73-.759.168-1.094-5.699-3.397-14.965-.679-16.611 6.525-.102.447.316.729.801.678 2.941-.301 5.59-.238 8.08.09.055 1.341.617 10.927 5.572 16.138 1.795 1.885 3.746 2.674 5.561 2.684-5.748 5.276-15.707 8.662-23.072 8.662"/><path d="m31.998 43c.744 0 1.67-.287 2.639-1.197 1.535-1.441 1.982-3.111 1.404-3.785-.811-.946-3.299-1.018-4.043-1.018-.742 0-3.232.072-4.043 1.018-.576.674-.131 2.344 1.406 3.785.969.91 1.894 1.197 2.637 1.197"/><path d="M43.607,45.043C40.957,44.529,37.045,44,32,44c-5.045,0-8.959,0.529-11.607,1.043C19.361,45.246,19,46.027,19,46.65
		C19,52.307,23.291,58,32,58c8.708,0,13-5.693,13-11.35C45,46.027,44.639,45.246,43.607,45.043z M32,56
		c-2.455,0-4.621-0.529-6.502-1.432C27.312,53.596,29.468,53,32,53c2.53,0,4.688,0.596,6.499,1.568C36.621,55.471,34.455,56,32,56z"/></svg>