<svg xmlns="http://www.w3.org/2000/svg" viewBox="0 0 64 64" enable-background="new 0 0 64 64"><path d="m61.611 39.273c.209-1.219.281-2.674.086-4.373l-.582-5.051-.377.412c-.072-.963-.236-1.959-.514-2.957 1.055-6.184.951-14.225-.344-24.055l-.165-1.249-1.238.164c-7.148.959-13.891 4.025-18.99 7.512-2.313-.5-4.805-.766-7.487-.766-2.684 0-5.174.266-7.486.766-5.1-3.486-11.843-6.553-18.992-7.512l-1.238-.164-.165 1.25c-1.295 9.83-1.398 17.871-.344 24.055-.277.998-.441 1.994-.514 2.957l-.376-.412-.582 5.05c-.196 1.699-.124 3.154.085 4.373l-.388-.084v2.891c0 5.449 3.878 10.641 10.92 14.615 5.797 3.272 13.108 5.305 19.08 5.305 5.972 0 13.283-2.033 19.08-5.305 7.041-3.974 10.92-9.166 10.92-14.615v-2.891l-.389.084m-4.047-34.416c.807 6.576 1.043 12.361.73 17.225-.027-.689-.148-1.377-.412-2.02l.423-.062-1.682-2.906c.338-1.971.592-5.398-.531-9.473-3.895 1.619-6.9 4.439-8.027 5.592-1.613-1.09-3.4-1.971-5.346-2.648 4.215-2.581 9.375-4.774 14.845-5.708m-51.128 0c5.471.934 10.63 3.127 14.846 5.707-1.945.678-3.732 1.559-5.347 2.648-1.126-1.152-4.133-3.973-8.026-5.592-1.124 4.074-.87 7.5-.532 9.473l-1.683 2.907.422.063c-.264.643-.384 1.33-.412 2.02-.311-4.864-.076-10.649.732-17.226m25.564 54.799c-10.967 0-27.693-7.498-27.693-17.576l1.848.398c0 0-2.138-2.309-1.562-7.305l1.796 1.969c0 0-1.796-5.07-.234-9.748l1.989 1.488c0 0-.604-1.904-.049-3.207l.859.684c0 0-2.036-4.49-.143-6.211.767 2.572 1.673 2.611 1.725 2.611h.003c0 0-1.146-1.984-.254-2.816.365.598.705.801.979.801.411 0 .675-.457.653-.727-.049-.596.18-1.438-2.496-1.834.369-.637 1.193-.826 2.049-.826 1.275 0 2.619.424 2.619.424s-.086-1.342-1.854-1.342c-.035 0-.07.002-.107.002.556-.834 1.37-1.078 2.13-1.078 1.056 0 2.006.469 2.006.469l-.006.018c.7-.539 1.462-1.02 2.254-1.471.621 1.418 1.458 2.064 2.482 3.959 1.467-2.705 2.539-4.277 3.139-6.174.885-.223 1.803-.412 2.771-.553.775 3.49 2.555 6.191 5.094 10.877 2.576-4.756 4.332-7.416 5.093-10.879.971.141 1.887.332 2.773.555.605 1.918 1.688 3.504 3.133 6.174 1.037-1.914 1.873-2.555 2.488-3.959.793.451 1.555.932 2.254 1.471l-.006-.018c0 0 .951-.469 2.006-.469.76 0 1.574.244 2.131 1.078-.037 0-.072-.002-.107-.002-1.768 0-1.854 1.342-1.854 1.342s1.344-.426 2.619-.424c.854 0 1.68.189 2.047.826-2.674.396-2.445 1.238-2.494 1.834-.021.27.242.727.652.727.273 0 .613-.203.979-.801.893.832-.254 2.816-.254 2.816s.002 0 .004 0c.051 0 .957-.039 1.723-2.611 1.895 1.721-.141 6.211-.141 6.211l.859-.684c.555 1.303-.049 3.207-.049 3.207l1.988-1.488c1.561 4.678-.234 9.748-.234 9.748l1.795-1.969c.578 4.996-1.561 7.305-1.561 7.305l1.848-.398c.001 10.078-16.725 17.576-27.69 17.576"/><path d="m32 43c.744 0 1.669-.287 2.638-1.197 1.535-1.441 1.982-3.111 1.404-3.785-.81-.946-3.297-1.018-4.042-1.018-.742 0-3.232.072-4.043 1.018-.576.674-.131 2.344 1.406 3.785.97.91 1.895 1.197 2.637 1.197"/><path d="m18.563 38.855c-1.569.041-3.153-.156-4.519-.75-.339-.148-.658-.33-.94-.533-.139-.102-.272-.209-.37-.311l-.055-.063c.002 0 .004.006.002.006-.001-.002-.01-.018-.018-.029l-.112-.24c-.297-.686-.528-1.43-.688-2.174-.334-1.482-.404-3.027-.021-4.434.353-1.385 1.229-2.705 2.29-3.713 1.064-1.021 2.445-1.641 3.896-1.6.356.014.738.055 1.075.139.379.092.73.199 1.074.346.691.283 1.324.711 1.869 1.246 1.123 1.055 1.852 2.535 2.256 4.094-.076-1.623-.668-3.244-1.715-4.588-.537-.66-1.219-1.221-1.984-1.633-.379-.213-.795-.373-1.191-.498-.439-.143-.86-.219-1.306-.27-1.8-.213-3.617.561-4.921 1.711-1.301 1.174-2.301 2.641-2.792 4.381-.439 1.727-.325 3.506.09 5.15.218.826.5 1.619.879 2.4l.156.299.063.102.097.123c.06.068.102.111.151.16.191.18.38.316.575.441.393.24.796.426 1.207.574 1.65.592 3.378.613 5.012.395 1.636-.26 3.212-.719 4.691-1.387-1.583.348-3.167.651-4.751.656"/><path d="m50.816 25.563c-1.303-1.15-3.119-1.924-4.92-1.711-.447.051-.867.127-1.307.27-.396.125-.813.285-1.191.498-.766.412-1.447.973-1.984 1.633-1.047 1.344-1.639 2.965-1.715 4.588.404-1.559 1.133-3.039 2.256-4.094.545-.535 1.178-.963 1.869-1.246.344-.146.695-.254 1.074-.346.336-.084.719-.125 1.074-.139 1.451-.041 2.832.578 3.896 1.6 1.061 1.008 1.938 2.328 2.291 3.713.383 1.406.313 2.951-.021 4.434-.16.744-.393 1.488-.689 2.174l-.111.242c-.008.012-.018.025-.018.027-.002 0 0-.006.002-.006l-.055.063c-.098.102-.232.209-.371.311-.281.203-.602.385-.939.533-1.367.594-2.949.791-4.52.75-1.584-.006-3.168-.309-4.75-.654 1.479.668 3.055 1.127 4.689 1.387 1.635.219 3.363.197 5.014-.395.41-.148.814-.334 1.205-.574.197-.125.385-.262.576-.441.051-.049.092-.092.152-.16l.096-.123.064-.102.154-.299c.381-.781.662-1.574.881-2.4.414-1.645.527-3.422.09-5.15-.491-1.743-1.491-3.21-2.792-4.383"/><ellipse cx="44.002" cy="32.5" rx="4" ry="4.5"/><ellipse cx="20.002" cy="32.5" rx="4" ry="4.5"/><path d="m43.607 45.043c-2.648-.514-6.562-1.043-11.607-1.043-5.043 0-8.957.529-11.605 1.043-1.031.203-1.393.984-1.393 1.607 0 5.657 4.291 11.35 12.998 11.35 8.708 0 13.001-5.693 13.001-11.35.001-.623-.362-1.404-1.394-1.607m-11.607 10.957c-2.453 0-4.62-.529-6.5-1.432 1.815-.972 3.971-1.568 6.5-1.568 2.531 0 4.689.596 6.5 1.568-1.877.903-4.045 1.432-6.5 1.432"/></svg>