<svg xmlns="http://www.w3.org/2000/svg" viewBox="0 0 64 64" enable-background="new 0 0 64 64"><path d="m61.611 39.273c.209-1.219.281-2.674.086-4.373l-.582-5.051-.377.412c-.072-.963-.236-1.959-.514-2.957 1.055-6.184.951-14.225-.344-24.055l-.165-1.249-1.238.164c-7.148.959-13.891 4.025-18.99 7.512-2.313-.5-4.805-.766-7.487-.766-2.684 0-5.174.266-7.486.766-5.1-3.486-11.843-6.553-18.992-7.512l-1.238-.164-.165 1.25c-1.295 9.83-1.398 17.871-.344 24.055-.277.998-.441 1.994-.514 2.957l-.376-.412-.582 5.05c-.196 1.699-.124 3.154.085 4.373l-.388-.084v2.891c0 5.449 3.878 10.641 10.92 14.615 5.797 3.272 13.108 5.305 19.08 5.305 5.972 0 13.283-2.033 19.08-5.305 7.041-3.974 10.92-9.166 10.92-14.615v-2.891l-.389.084m-4.047-34.416c.807 6.576 1.043 12.361.73 17.225-.027-.689-.148-1.377-.412-2.02l.423-.062-1.682-2.906c.338-1.971.592-5.398-.531-9.473-3.895 1.619-6.9 4.439-8.027 5.592-1.613-1.09-3.4-1.971-5.346-2.648 4.215-2.581 9.375-4.774 14.845-5.708m-51.128 0c5.471.934 10.63 3.127 14.846 5.707-1.945.678-3.732 1.559-5.347 2.648-1.126-1.152-4.133-3.973-8.026-5.592-1.124 4.074-.87 7.5-.532 9.473l-1.683 2.907.422.063c-.264.643-.384 1.33-.412 2.02-.311-4.864-.076-10.649.732-17.226m25.564 54.799c-10.967 0-27.693-7.498-27.693-17.576l1.848.398c0 0-2.138-2.309-1.562-7.305l1.796 1.969c0 0-1.796-5.07-.234-9.748l1.989 1.488c0 0-.604-1.904-.049-3.207l.859.684c0 0-2.036-4.49-.143-6.211.767 2.572 1.673 2.611 1.725 2.611h.003c0 0-1.146-1.984-.254-2.816.365.598.705.801.979.801.411 0 .675-.457.653-.727-.049-.596.18-1.438-2.496-1.834.369-.637 1.193-.826 2.049-.826 1.275 0 2.619.424 2.619.424s-.086-1.342-1.854-1.342c-.035 0-.07.002-.107.002.556-.834 1.37-1.078 2.13-1.078 1.056 0 2.006.469 2.006.469l-.006.018c.7-.539 1.462-1.02 2.254-1.471.621 1.418 1.458 2.064 2.482 3.959 1.467-2.705 2.539-4.277 3.139-6.174.885-.223 1.803-.412 2.771-.553.775 3.49 2.555 6.191 5.094 10.877 2.576-4.756 4.332-7.416 5.093-10.879.971.141 1.887.332 2.773.555.605 1.918 1.688 3.504 3.133 6.174 1.037-1.914 1.873-2.555 2.488-3.959.793.451 1.555.932 2.254 1.471l-.006-.018c0 0 .951-.469 2.006-.469.76 0 1.574.244 2.131 1.078-.037 0-.072-.002-.107-.002-1.768 0-1.854 1.342-1.854 1.342s1.344-.426 2.619-.424c.854 0 1.68.189 2.047.826-2.674.396-2.445 1.238-2.494 1.834-.021.27.242.727.652.727.273 0 .613-.203.979-.801.893.832-.254 2.816-.254 2.816s.002 0 .004 0c.051 0 .957-.039 1.723-2.611 1.895 1.721-.141 6.211-.141 6.211l.859-.684c.555 1.303-.049 3.207-.049 3.207l1.988-1.488c1.561 4.678-.234 9.748-.234 9.748l1.795-1.969c.578 4.996-1.561 7.305-1.561 7.305l1.848-.398c.001 10.078-16.725 17.576-27.69 17.576"/><path d="m31.999 41c.744 0 1.669-.287 2.638-1.195 1.535-1.441 1.982-3.113 1.404-3.785-.811-.946-3.298-1.02-4.042-1.02-.742 0-3.232.074-4.043 1.02-.576.672-.131 2.344 1.406 3.785.969.908 1.894 1.195 2.637 1.195"/><path d="m25.723 33.854c.479.504 1.438-.422 1.254-.938-1.859-5.111-4.66-7.668-7.461-7.668-2.801 0-5.602 2.558-7.459 7.668-.186.516.773 1.441 1.254.938 1.801-1.9 3.957-2.658 6.206-2.658 2.249 0 4.405.758 6.206 2.658"/><path d="m44.484 25.249c-2.803 0-5.604 2.558-7.461 7.668-.186.516.773 1.441 1.254.938 1.803-1.9 3.957-2.658 6.207-2.658s4.402.758 6.207 2.658c.477.504 1.436-.422 1.254-.938-1.859-5.111-4.66-7.668-7.461-7.668"/><path d="m47.178 43.344c-3.465-.662-8.582-1.344-15.179-1.344-6.596 0-11.715.682-15.177 1.344-1.35.258-1.822 1.263-1.822 2.066 0 9.59 2.698 12.59 13.762 12.59h6.476c11.063 0 13.762-3 13.762-12.59 0-.803-.475-1.808-1.822-2.066m-15.178 12.656c-4.928 0-11.952 0-11.764-2.053.033-.367.117-.803.224-1.276.121-.526.216-.671 1.064-.671 1.422 0 19.099 0 20.951 0 .85 0 .945.145 1.064.671.109.474.189.909.223 1.276.189 2.053-6.836 2.053-11.762 2.053m13.084-9.831l-.859 2.909c-.151.507-.588.922-.977.922h-22.497c-.386 0-.825-.415-.976-.922l-.861-2.909c-.151-.507.041-.983.424-1.058 0 0 5.711-1.111 12.662-1.111 6.947 0 12.66 1.111 12.66 1.111.383.077.574.551.424 1.058"/></svg>