<svg xmlns="http://www.w3.org/2000/svg" viewBox="0 0 64 64" enable-background="new 0 0 64 64"><path d="m61.613 39.273c.209-1.219.281-2.674.084-4.373l-.582-5.051-.377.412c-.072-.963-.236-1.959-.514-2.957 1.055-6.184.951-14.225-.344-24.055l-.163-1.249-1.238.164c-7.149.959-13.893 4.025-18.993 7.512-2.312-.5-4.802-.766-7.486-.766-2.682 0-5.174.266-7.486.766-5.1-3.486-11.842-6.553-18.991-7.512l-1.239-.164-.165 1.25c-1.295 9.83-1.398 17.871-.344 24.055-.277.998-.441 1.994-.514 2.957l-.376-.412-.582 5.05c-.196 1.699-.124 3.154.085 4.373l-.388-.084v2.891c0 5.449 3.878 10.641 10.92 14.615 5.796 3.272 13.107 5.305 19.08 5.305 5.973 0 13.284-2.033 19.081-5.305 7.042-3.974 10.919-9.166 10.919-14.615v-2.891l-.387.084m-4.049-34.416c.809 6.576 1.043 12.361.732 17.225-.029-.689-.148-1.377-.412-2.02l.423-.062-1.682-2.906c.338-1.971.592-5.398-.533-9.473-3.893 1.619-6.9 4.439-8.025 5.592-1.615-1.09-3.402-1.971-5.348-2.648 4.217-2.581 9.375-4.774 14.845-5.708m-51.128 0c5.471.934 10.63 3.127 14.847 5.707-1.947.678-3.733 1.559-5.348 2.648-1.126-1.152-4.133-3.973-8.026-5.592-1.124 4.074-.87 7.5-.532 9.473l-1.683 2.907.422.063c-.264.643-.384 1.33-.412 2.02-.311-4.864-.076-10.649.732-17.226m25.564 54.799c-10.965 0-27.692-7.498-27.692-17.576l1.848.398c0 0-2.138-2.309-1.562-7.305l1.796 1.969c0 0-1.796-5.07-.234-9.748l1.989 1.488c0 0-.604-1.904-.049-3.207l.859.684c0 0-.351-.779-.625-1.809 1.777.182 3.381.451 4.928.865.031.008.06.02.09.029-.054.041-.112.072-.164.117-1.301 1.174-2.301 2.641-2.792 4.381-.439 1.727-.325 3.506.09 5.15.218.826.5 1.619.879 2.4l.156.299.063.102.097.123c.06.068.102.111.151.16.191.18.38.316.575.441.393.24.796.426 1.207.574 1.65.592 3.378.613 5.012.395 1.635-.26 3.213-.719 4.692-1.387-1.584.346-3.166.648-4.751.654-1.569.041-3.153-.156-4.519-.75-.339-.148-.658-.33-.94-.533-.139-.102-.272-.209-.37-.311l-.055-.063c.002 0 .004.006.002.006-.003-.004-.049-.08-.017-.027l-.113-.242c-.297-.686-.528-1.43-.688-2.174-.334-1.482-.404-3.027-.021-4.434.353-1.385 1.229-2.705 2.29-3.713.333-.318.698-.49 1.085-.59.908.313 1.8.656 2.665 1.057.63.295 1.244.613 1.849.949-2.08.16-3.728 2.088-3.728 4.469 0 2.484 1.791 4.5 4 4.5 2.209 0 4-2.016 4-4.5 0-.637-.121-1.242-.334-1.791.814.664 1.617 1.389 2.438 2.209-.203-1.885-1.129-3.654-2.371-5.115-1.248-1.461-2.85-2.641-4.594-3.441-1.75-.811-3.669-1.262-5.591-1.279-1.839-.008-3.705.383-5.256 1.334-.364-1.432-.552-3.293.52-4.268.767 2.572 1.673 2.611 1.725 2.611h.003c0 0-1.146-1.984-.254-2.816.365.598.705.801.979.801.411 0 .675-.457.653-.727-.049-.596.18-1.438-2.496-1.834.369-.637 1.193-.826 2.049-.826 1.275 0 2.619.424 2.619.424s-.086-1.342-1.854-1.342c-.035 0-.07.002-.107.002.556-.834 1.37-1.078 2.13-1.078 1.056 0 2.006.469 2.006.469l-.006.018c.7-.539 1.462-1.02 2.254-1.471.62 1.418 1.458 2.064 2.483 3.959 1.465-2.705 2.537-4.277 3.139-6.174.885-.223 1.801-.412 2.77-.553.775 3.49 2.555 6.191 5.094 10.877 2.577-4.756 4.333-7.416 5.096-10.879.969.141 1.887.332 2.771.555.607 1.918 1.688 3.504 3.135 6.174 1.035-1.914 1.873-2.555 2.488-3.959.791.451 1.553.932 2.254 1.471l-.006-.018c0 0 .949-.469 2.006-.469.76 0 1.574.244 2.129 1.078-.037 0-.072-.002-.107-.002-1.768 0-1.854 1.342-1.854 1.342s1.344-.426 2.619-.424c.855 0 1.68.189 2.049.826-2.676.396-2.447 1.238-2.496 1.834-.021.27.242.727.652.727.275 0 .615-.203.98-.801.893.832-.254 2.816-.254 2.816s0 0 .002 0c.053 0 .959-.039 1.725-2.611 1.072.975.885 2.836.52 4.268-1.551-.951-3.418-1.342-5.258-1.334-1.92.018-3.84.469-5.59 1.279-1.744.801-3.348 1.98-4.596 3.441-1.242 1.459-2.166 3.23-2.369 5.115.822-.822 1.629-1.549 2.443-2.217-.213.553-.336 1.158-.336 1.799 0 2.484 1.791 4.5 4 4.5 2.211 0 4-2.016 4-4.5 0-2.383-1.648-4.311-3.73-4.469.604-.336 1.217-.654 1.848-.947.865-.4 1.758-.746 2.666-1.059.387.1.752.271 1.086.59 1.061 1.008 1.938 2.328 2.289 3.713.383 1.406.313 2.951-.021 4.434-.16.744-.391 1.488-.688 2.174l-.113.242c.031-.053-.014.023-.018.027-.002 0 0-.006.002-.006l-.055.063c-.098.102-.23.209-.369.311-.283.203-.602.385-.941.533-1.365.594-2.949.791-4.518.75-1.586-.006-3.168-.309-4.752-.654 1.479.668 3.057 1.127 4.691 1.387 1.635.219 3.361.197 5.012-.395.412-.148.814-.334 1.207-.574.195-.125.385-.262.576-.441.049-.049.092-.092.15-.16l.098-.123.063-.102.156-.299c.379-.781.662-1.574.881-2.4.414-1.645.527-3.422.088-5.15-.49-1.74-1.49-3.207-2.791-4.381-.053-.047-.111-.076-.166-.119.029-.008.059-.02.088-.027 1.549-.414 3.152-.684 4.93-.865-.273 1.029-.625 1.809-.625 1.809l.859-.684c.557 1.303-.049 3.207-.049 3.207l1.988-1.488c1.563 4.678-.234 9.748-.234 9.748l1.797-1.969c.576 4.996-1.563 7.305-1.563 7.305l1.85-.398c-.004 10.078-16.73 17.576-27.697 17.576"/><path d="m32 43.748c.744 0 1.67-.287 2.639-1.197 1.535-1.441 1.982-3.111 1.404-3.785-.811-.945-3.299-1.018-4.043-1.018-.742 0-3.232.072-4.043 1.018-.576.674-.131 2.344 1.406 3.785.969.91 1.894 1.197 2.637 1.197"/><path d="m32.001 46.352c-4.539 0-8.082 3.059-9.836 6.492-.471.918.154 1.912.848 1.34 5.793-4.801 12.219-4.771 17.977 0 .693.572 1.318-.422.848-1.34-1.754-3.434-5.299-6.492-9.837-6.492"/></svg>