<svg xmlns="http://www.w3.org/2000/svg" viewBox="0 0 64 64" enable-background="new 0 0 64 64"><path d="M32.001,2C15.434,2,2,15.432,2,32s13.434,30,30.001,30C48.568,62,62,48.568,62,32S48.568,2,32.001,2z M32.001,59.5
		C16.837,59.5,4.5,47.164,4.5,32S16.837,4.5,32.001,4.5C47.164,4.5,59.5,16.836,59.5,32S47.164,59.5,32.001,59.5z"/><path d="m28.611 29.215l-4.684-4.684 4.684-4.686c.77-.768-2.016-3.553-2.783-2.783l-4.686 4.685-4.685-4.685c-.768-.77-3.553 2.016-2.785 2.783l4.686 4.686-4.684 4.684c-.77.77 2.016 3.553 2.785 2.785l4.683-4.684 4.684 4.684c.769.768 3.552-2.016 2.785-2.785"/><path d="m47.545 17.063l-4.684 4.685-4.686-4.685c-.77-.77-3.553 2.016-2.783 2.783l4.684 4.685-4.684 4.685c-.77.77 2.014 3.553 2.783 2.785l4.686-4.685 4.684 4.684c.768.768 3.553-2.016 2.783-2.785l-4.684-4.684 4.686-4.686c.768-.767-2.016-3.552-2.785-2.782"/><path d="m32 38c-4.969 0-9 4.029-9 9s4.031 9 9 9c4.973 0 9-4.029 9-9s-4.027-9-9-9m-6 6c1.197-2.391 3.436-4 5.998-4 2.567 0 4.803 1.608 6.002 4h-12"/></svg>