<svg xmlns="http://www.w3.org/2000/svg" viewBox="0 0 64 64" enable-background="new 0 0 64 64"><path d="m61.613 39.273c.209-1.219.281-2.674.084-4.373l-.582-5.051-.377.412c-.072-.963-.236-1.959-.514-2.957 1.055-6.184.951-14.225-.344-24.055l-.163-1.249-1.238.164c-7.149.959-13.893 4.025-18.993 7.512-2.312-.5-4.802-.766-7.486-.766-2.682 0-5.174.266-7.486.766-5.1-3.486-11.842-6.553-18.991-7.512l-1.239-.164-.165 1.25c-1.295 9.83-1.398 17.871-.344 24.055-.277.998-.441 1.994-.514 2.957l-.376-.412-.582 5.05c-.196 1.699-.124 3.154.085 4.373l-.388-.084v2.891c0 5.449 3.878 10.641 10.92 14.615 5.796 3.272 13.107 5.305 19.08 5.305 5.973 0 13.284-2.033 19.081-5.305 7.042-3.974 10.919-9.166 10.919-14.615v-2.891l-.387.084m-4.049-34.416c.809 6.576 1.043 12.361.732 17.225-.029-.689-.148-1.377-.412-2.02l.423-.062-1.682-2.906c.338-1.971.592-5.398-.533-9.473-3.893 1.619-6.9 4.439-8.025 5.592-1.615-1.09-3.402-1.971-5.348-2.648 4.217-2.581 9.375-4.774 14.845-5.708m-51.128 0c5.471.934 10.63 3.127 14.847 5.707-1.947.678-3.733 1.559-5.348 2.648-1.126-1.152-4.133-3.973-8.026-5.592-1.124 4.074-.87 7.5-.532 9.473l-1.683 2.907.422.063c-.264.643-.384 1.33-.412 2.02-.311-4.864-.076-10.649.732-17.226m25.564 54.799c-10.965 0-27.692-7.498-27.692-17.576l1.848.398c0 0-2.138-2.309-1.562-7.305l1.796 1.969c0 0-1.796-5.07-.234-9.748l1.989 1.488c0 0-.604-1.904-.049-3.207l.859.684c0 0-2.036-4.49-.143-6.211.767 2.572 1.673 2.611 1.725 2.611h.003c0 0-1.146-1.984-.254-2.816.365.598.705.801.979.801.411 0 .675-.457.653-.727-.049-.596.18-1.438-2.496-1.834.369-.637 1.193-.826 2.049-.826 1.275 0 2.619.424 2.619.424s-.086-1.342-1.854-1.342c-.035 0-.07.002-.107.002.556-.834 1.37-1.078 2.13-1.078 1.056 0 2.006.469 2.006.469l-.006.018c.7-.539 1.462-1.02 2.254-1.471.62 1.418 1.458 2.064 2.483 3.959 1.465-2.705 2.537-4.277 3.139-6.174.885-.223 1.801-.412 2.77-.553.775 3.49 2.555 6.191 5.094 10.877 2.577-4.756 4.333-7.416 5.096-10.879.969.141 1.887.332 2.771.555.607 1.918 1.688 3.504 3.135 6.174 1.035-1.914 1.873-2.555 2.488-3.959.791.451 1.553.932 2.254 1.471l-.006-.018c0 0 .949-.469 2.006-.469.76 0 1.574.244 2.129 1.078-.037 0-.072-.002-.107-.002-1.768 0-1.854 1.342-1.854 1.342s1.344-.426 2.619-.424c.855 0 1.68.189 2.049.826-2.676.396-2.447 1.238-2.496 1.834-.021.27.242.727.652.727.275 0 .615-.203.98-.801.893.832-.254 2.816-.254 2.816s0 0 .002 0c.053 0 .959-.039 1.725-2.611 1.895 1.721-.143 6.211-.143 6.211l.859-.684c.557 1.303-.049 3.207-.049 3.207l1.988-1.488c1.563 4.678-.234 9.748-.234 9.748l1.797-1.969c.576 4.996-1.563 7.305-1.563 7.305l1.85-.398c0 10.078-16.726 17.576-27.693 17.576"/><path d="m41.367 42.029c-1.893-1.961-6.02-.479-8.58-3.129.002 2.15 1.804 4.5 5.179 4.5 0 0-2.293.924-2.293 4.5-.002 3.574 2.293 4.5 2.293 4.5-3.373 0-5.179 2.348-5.177 4.499 2.558-2.65 6.685-1.167 8.58-3.13 1.582-1.637-1.828-2.964-1.83-5.869.002-2.906 3.412-4.232 1.828-5.871"/><path d="m51.814 24.589c-4.225 3.32-11.059 3.014-14.893.002-.668.453-1.215.633-1.008 1.033 4.213 7.954 12.695 7.951 16.91.001.208-.401-.339-.58-1.009-1.036"/><path d="m27.079 24.589c-4.225 3.32-11.061 3.014-14.893.002-.67.453-1.217.633-1.012 1.033 4.217 7.953 12.699 7.951 16.914 0 .207-.399-.339-.58-1.009-1.035"/></svg>