<svg xmlns="http://www.w3.org/2000/svg" viewBox="0 0 64 64" enable-background="new 0 0 64 64"><path d="m61.613 39.273c.209-1.219.281-2.674.084-4.373l-.582-5.051-.377.412c-.018-.23-.059-.469-.086-.702.395-1.262.43-2.474.213-3.584-.07-.358-.18-.702-.305-1.036.674-5.824.457-13.067-.68-21.689l-.163-1.25-1.238.164c-7.149.959-13.893 4.025-18.993 7.512-2.312-.5-4.802-.766-7.486-.766-2.682 0-5.174.266-7.486.766-5.1-3.486-11.842-6.553-18.991-7.512l-1.239-.164-.165 1.25c-1.136 8.621-1.354 15.865-.679 21.688-.126.336-.234.68-.304 1.038-.216 1.108-.182 2.321.212 3.583-.028.234-.069.472-.086.703l-.377-.412-.582 5.05c-.196 1.699-.124 3.154.085 4.373l-.388-.084v2.891c0 5.449 3.878 10.641 10.92 14.615 5.796 3.272 13.107 5.305 19.08 5.305 5.973 0 13.284-2.033 19.081-5.305 7.042-3.974 10.919-9.166 10.919-14.615v-2.891l-.387.084m-13.877-23.441c0 0 .949-.469 2.006-.469.76 0 1.574.244 2.129 1.078-.037 0-.072-.002-.107-.002-1.768 0-1.854 1.342-1.854 1.342s1.344-.426 2.619-.424c.855 0 1.68.189 2.049.826-2.676.396-2.447 1.238-2.496 1.834-.021.27.242.727.652.727.275 0 .615-.203.98-.801.416.389.383 1.026.234 1.598-1.291.32-2.533 1.051-3.754 2.154-1.186-2.904-2.994-5.061-5.846-6.166-.246-.096-.49-.158-.732-.228.754-1.168 1.383-1.81 1.871-2.923.791.451 1.553.932 2.254 1.471l-.005-.017m6.983 5.572c.156-.332.314-.741.469-1.256.359.326.576.753.693 1.229-.393-.032-.779-.017-1.162.027m2.845-16.547c.809 6.576 1.043 12.361.732 17.225-.029-.689-.148-1.377-.412-2.02l.423-.062-1.682-2.906c.338-1.971.592-5.398-.533-9.473-3.893 1.619-6.9 4.439-8.025 5.592-1.615-1.09-3.402-1.971-5.348-2.648 4.217-2.581 9.375-4.774 14.845-5.708m-51.128 0c5.471.934 10.63 3.127 14.847 5.707-1.947.678-3.733 1.559-5.348 2.648-1.126-1.152-4.133-3.973-8.026-5.592-1.124 4.074-.87 7.5-.532 9.473l-1.683 2.907.422.063c-.264.643-.384 1.33-.412 2.02-.311-4.864-.076-10.649.732-17.226m1.683 16.521c.117-.477.334-.903.693-1.229.153.515.312.924.469 1.256-.383-.045-.769-.059-1.162-.027m1.932.164c-.148-.571-.182-1.21.235-1.599.365.598.705.801.979.801.411 0 .675-.457.653-.727-.049-.596.18-1.438-2.496-1.834.369-.637 1.193-.826 2.049-.826 1.275 0 2.619.424 2.619.424s-.086-1.342-1.854-1.342c-.035 0-.07.002-.107.002.556-.834 1.37-1.078 2.13-1.078 1.056 0 2.006.469 2.006.469l-.006.018c.7-.539 1.462-1.02 2.254-1.471.491 1.121 1.12 1.77 1.867 2.925-.241.068-.483.131-.726.226-2.855 1.105-4.664 3.262-5.849 6.166-1.221-1.104-2.464-1.835-3.754-2.154m21.949 38.114c-10.965 0-27.692-7.498-27.692-17.576l1.848.398c0 0-2.138-2.309-1.562-7.305l1.796 1.969c0 0-.575-1.627-.791-3.888 2.532 2.606 11.426 7.569 11.744 7.746.24-.232 8.606-8.275 10.473-12.242 1.992-4.237 1.252-7.477-.609-9.58-1.363-1.539-3.337-2.344-5.49-2.14 1.098-1.949 1.921-3.306 2.418-4.874.885-.223 1.801-.412 2.77-.553.775 3.49 2.555 6.191 5.094 10.877 2.577-4.756 4.333-7.416 5.096-10.879.969.141 1.887.332 2.771.555.5 1.582 1.328 2.947 2.412 4.873-2.15-.201-4.121.604-5.482 2.141-1.863 2.104-2.604 5.342-.609 9.58 1.864 3.967 10.231 12.01 10.471 12.242.318-.177 9.215-5.14 11.742-7.747-.215 2.261-.791 3.89-.791 3.89l1.797-1.969c.576 4.996-1.563 7.305-1.563 7.305l1.85-.398c0 10.077-16.726 17.575-27.693 17.575"/><path d="m31.998 43c.744 0 1.67-.287 2.639-1.197 1.535-1.441 1.982-3.111 1.404-3.785-.811-.946-3.299-1.018-4.043-1.018-.742 0-3.232.072-4.043 1.018-.576.674-.131 2.344 1.406 3.785.969.91 1.894 1.197 2.637 1.197"/><path d="M43.607,45.044C40.957,44.529,37.045,44,32,44c-5.045,0-8.959,0.529-11.607,1.044C19.361,45.246,19,46.027,19,46.651
		C19,52.308,23.291,58,32,58c8.708,0,13-5.692,13-11.349C45,46.027,44.639,45.246,43.607,45.044z M32,56
		c-2.455,0-4.621-0.528-6.502-1.431C27.312,53.596,29.468,53,32,53c2.53,0,4.688,0.596,6.499,1.569C36.621,55.472,34.455,56,32,56z"/></svg>