<svg xmlns="http://www.w3.org/2000/svg" viewBox="0 0 64 64" enable-background="new 0 0 64 64"><path d="m61.613 39.273c.209-1.219.281-2.674.084-4.373l-.582-5.051-.377.412c-.072-.963-.236-1.959-.514-2.957 1.055-6.184.951-14.225-.344-24.055l-.163-1.249-1.238.164c-7.149.959-13.893 4.025-18.993 7.512-2.312-.5-4.802-.766-7.486-.766-2.682 0-5.174.266-7.486.766-5.1-3.486-11.842-6.553-18.991-7.512l-1.239-.164-.165 1.25c-1.295 9.83-1.398 17.871-.344 24.055-.277.998-.441 1.994-.514 2.957l-.376-.412-.582 5.05c-.196 1.699-.124 3.154.085 4.373l-.388-.084v2.891c0 5.449 3.878 10.641 10.92 14.615 5.796 3.272 13.107 5.305 19.08 5.305 3.141 0 6.647-.574 10.112-1.582 1.267.988 2.851 1.582 4.577 1.582 4.039 0 7.328-3.234 7.482-7.281 5.071-3.65 7.829-8.051 7.829-12.639v-2.891l-.387.084m-4.049-34.416c.809 6.576 1.043 12.361.732 17.225-.029-.689-.148-1.377-.412-2.02l.423-.062-1.682-2.906c.338-1.971.592-5.398-.533-9.473-3.893 1.619-6.9 4.439-8.025 5.592-1.615-1.09-3.402-1.971-5.348-2.648 4.217-2.581 9.375-4.774 14.845-5.708m-51.128 0c5.471.934 10.63 3.127 14.847 5.707-1.947.678-3.733 1.559-5.348 2.648-1.126-1.152-4.133-3.973-8.026-5.592-1.124 4.074-.87 7.5-.532 9.473l-1.683 2.907.422.063c-.264.643-.384 1.33-.412 2.02-.311-4.864-.076-10.649.732-17.226m47.527 47.096c-.621-3.713-2.557-7.934-5.484-12.371.543-.083 1.082-.197 1.615-.389.41-.147.814-.334 1.205-.574.197-.124.385-.262.576-.441.051-.048.092-.091.152-.159l.096-.124.064-.102.154-.299c.381-.78.662-1.574.881-2.399.414-1.646.527-3.423.09-5.15-.492-1.74-1.492-3.207-2.793-4.382-1.303-1.15-3.119-1.924-4.92-1.71-.447.051-.867.126-1.307.269-.396.126-.813.285-1.191.498-.766.412-1.447.973-1.984 1.634-1.047 1.344-1.639 2.965-1.715 4.587.404-1.559 1.133-3.038 2.256-4.094.545-.535 1.178-.962 1.869-1.245.344-.146.695-.255 1.074-.347.336-.083.719-.125 1.074-.139 1.451-.041 2.832.578 3.896 1.6 1.061 1.008 1.938 2.329 2.291 3.713.383 1.407.313 2.951-.021 4.435-.16.743-.393 1.487-.689 2.173l-.113.242c-.006.012-.016.026-.016.028-.002-.001 0-.006.002-.007l-.055.063c-.098.103-.232.209-.371.312-.281.203-.602.384-.939.532-.572.249-1.188.414-1.816.535-.359-.523-.729-1.049-1.113-1.576 1.75-.778 2.975-2.525 2.975-4.564 0-2.762-2.238-5-5-5-2.133 0-3.939 1.34-4.66 3.219.234-.293.566-.479.938-.479.707 0 1.279.662 1.279 1.479s-.572 1.479-1.279 1.479c-.6 0-1.096-.478-1.236-1.12-.012.142-.041.277-.041.422 0 2.067 1.254 3.842 3.045 4.603-.148-.342-.24-.722-.24-1.131 0-1.396.977-2.527 2.186-2.527 1.207 0 2.186 1.132 2.186 2.527 0 .382-.086.736-.219 1.061-.447.612-.871 1.218-1.281 1.821-.08-.001-.16.005-.24.003-1.584-.006-3.168-.31-4.75-.655 1.424.644 2.943 1.09 4.516 1.354-2.26 3.413-3.906 6.654-4.836 9.642-5.357-2.438-11.642-2.412-16.981.082-1.338.645.33 4.15 1.662 3.5 3.572-1.664 8.895-2.305 13.875.01.215.1.441.086.662.003-.063.556-.1 1.103-.1 1.634 0 1.494.434 2.883 1.172 4.056-2.91.759-5.793 1.175-8.362 1.175-10.965 0-27.692-7.498-27.692-17.576l1.848.398c0 0-2.138-2.309-1.562-7.305l1.796 1.969c0 0-1.796-5.07-.234-9.748l1.989 1.488c0 0-.604-1.904-.049-3.207l.859.684c0 0-2.036-4.49-.143-6.211.767 2.572 1.673 2.611 1.725 2.611h.003c0 0-1.146-1.984-.254-2.816.365.598.705.801.979.801.411 0 .675-.457.653-.727-.049-.596.18-1.438-2.496-1.834.369-.637 1.193-.826 2.049-.826 1.275 0 2.619.424 2.619.424s-.086-1.342-1.854-1.342c-.035 0-.07.002-.107.002.556-.834 1.37-1.078 2.13-1.078 1.056 0 2.006.469 2.006.469l-.006.018c.7-.539 1.462-1.02 2.254-1.471.62 1.418 1.458 2.064 2.483 3.959 1.465-2.705 2.537-4.277 3.139-6.174.885-.223 1.801-.412 2.77-.553.775 3.49 2.555 6.191 5.094 10.877 2.577-4.756 4.333-7.416 5.096-10.879.969.141 1.887.332 2.771.555.607 1.918 1.688 3.504 3.135 6.174 1.035-1.914 1.873-2.555 2.488-3.959.791.451 1.553.932 2.254 1.471l-.006-.018c0 0 .949-.469 2.006-.469.76 0 1.574.244 2.129 1.078-.037 0-.072-.002-.107-.002-1.768 0-1.854 1.342-1.854 1.342s1.344-.426 2.619-.424c.855 0 1.68.189 2.049.826-2.676.396-2.447 1.238-2.496 1.834-.021.27.242.727.652.727.275 0 .615-.203.98-.801.893.832-.254 2.816-.254 2.816s0 0 .002 0c.053 0 .959-.039 1.725-2.611 1.895 1.721-.143 6.211-.143 6.211l.859-.684c.557 1.303-.049 3.207-.049 3.207l1.988-1.488c1.563 4.678-.234 9.748-.234 9.748l1.797-1.969c.576 4.996-1.563 7.305-1.563 7.305l1.85-.398c-.002 3.724-2.295 7.097-5.732 9.869"/><path d="m31.703 37.749c-.742 0-3.232.072-4.043 1.018-.576.674-.131 2.344 1.406 3.785.969.91 1.895 1.197 2.637 1.197.744 0 1.67-.287 2.639-1.197 1.535-1.441 1.982-3.111 1.404-3.785-.81-.946-3.299-1.018-4.043-1.018"/><path d="m20.304 24.619c-.379-.213-.795-.372-1.191-.498-.439-.143-.86-.218-1.306-.269-1.8-.214-3.617.56-4.921 1.71-1.301 1.175-2.301 2.642-2.792 4.381-.439 1.728-.325 3.506.09 5.15.218.826.5 1.62.879 2.4l.156.299.063.102.097.124c.06.068.102.111.151.159.191.18.38.317.575.441.393.24.796.427 1.207.574 1.65.593 3.378.614 5.012.396 1.636-.26 3.212-.72 4.691-1.388-1.582.346-3.166.649-4.75.655-1.569.041-3.153-.156-4.519-.751-.339-.148-.658-.329-.94-.532-.139-.103-.272-.209-.37-.312l-.055-.063c.002.001.004.006.002.006-.001-.002-.01-.017-.018-.028l-.112-.241c-.297-.686-.528-1.43-.688-2.173-.334-1.483-.404-3.028-.021-4.435.353-1.384 1.229-2.705 2.29-3.713 1.064-1.021 2.445-1.641 3.896-1.6.356.014.738.056 1.075.139.379.092.73.2 1.074.347.691.283 1.324.71 1.869 1.245 1.123 1.055 1.852 2.535 2.256 4.094-.076-1.622-.668-3.243-1.715-4.587-.538-.659-1.219-1.22-1.985-1.632"/><path d="m18.705 27.5c-2.132 0-3.939 1.34-4.659 3.219.233-.293.564-.479.936-.479.707 0 1.279.662 1.279 1.479s-.572 1.479-1.279 1.479c-.598 0-1.096-.478-1.235-1.12-.012.142-.042.277-.042.422 0 2.067 1.255 3.841 3.045 4.603-.148-.342-.24-.722-.24-1.131 0-1.396.978-2.527 2.186-2.527 1.207 0 2.186 1.132 2.186 2.527 0 .412-.093.796-.244 1.14 1.802-.756 3.068-2.535 3.068-4.611-.001-2.763-2.24-5.001-5.001-5.001"/></svg>