<svg xmlns="http://www.w3.org/2000/svg" viewBox="0 0 64 64" enable-background="new 0 0 64 64"><path d="m55.436 13.28l5.049-2.511c.152-.074.275-.199.348-.354l1.096-2.338c.178-.377.018-.828-.363-1.006l-10.582-5c-.379-.178-.83-.016-1.006.361l-1.16 2.468c-.178.379-.018.83.363 1.008l5.543 2.619-2.553 1.267c-5.327-4.843-12.403-7.794-20.171-7.794-16.568 0-30 13.432-30 30 0 16.566 13.432 30 30 30 19.234 0 30-13.434 30-30 0-7.083-2.46-13.588-6.564-18.72m.462 5.139l-5.539-2.616 2.773-1.378c1.036 1.243 1.96 2.581 2.766 3.994m-3.507 33.083c-4.912 5.232-11.962 7.998-20.391 7.998-15.163 0-27.5-12.336-27.5-27.5s12.337-27.5 27.5-27.5c6.753 0 12.941 2.451 17.732 6.504l-4.979 2.469c-.152.076-.275.201-.346.354l-1.156 2.457c-.084.182-.094.391-.025.58.037.105.1.201.178.279.061.061.133.111.213.148l10.781 5.094c.182.088.391.098.578.031.189-.068.342-.209.428-.389l1.135-2.418c1.889 3.727 2.961 7.935 2.961 12.391 0 7.69-2.524 14.616-7.109 19.502"/><path d="m18.09 20.291c.215.406.686.559 1.057.348l1.867-1.082-.66 4.881c-.023.184.01.373.098.541l.67 1.268c.182.342.547.508.881.42.061-.018.119-.039.176-.074l5.035-2.914c.178-.107.307-.281.359-.49.055-.215.025-.439-.078-.635l-.67-1.27c-.213-.404-.686-.557-1.059-.348l-2.002 1.162.668-4.975c.025-.184-.012-.373-.098-.539l-.637-1.207c-.104-.193-.271-.34-.471-.406-.199-.068-.41-.045-.588.061l-4.941 2.865c-.176.104-.307.275-.359.488-.051.213-.021.441.08.637l.672 1.269"/><path d="m37.902 20.32c.088-.018.174-.053.252-.105.172-.115.289-.297.33-.512l.377-1.943c.086-.441-.184-.887-.6-.992l-3.832-.963 5.563-4.82c.133-.111.223-.275.258-.455l.361-1.842c.041-.213.002-.436-.111-.621-.113-.188-.287-.32-.488-.371l-7.869-1.979c-.416-.105-.824.168-.91.611l-.379 1.947c-.043.213-.002.436.109.619.113.189.289.32.49.371l3.613.91-5.471 4.732c-.133.115-.225.275-.26.453l-.379 1.947c-.041.211 0 .434.113.623.111.186.287.316.488.367l8.016 2.018c.113.029.222.029.329.005"/><path d="m40.168 45.881c-4.002 2.582-6.102 6.447-4.691 8.637.783 1.209 2.588 2.609 4.506 1.371 1.395-.898 2.141-3.053 3.928-4.207 1.766-1.137 4.033-.898 5.416-1.787 1.699-1.096 1.432-3.502.643-4.725-1.411-2.188-5.8-1.869-9.802.711"/><path d="m52.297 25.976c-2.426 4.794-8.75 7.405-13.496 6.295-.414.693-.834 1.088-.479 1.363 7.18 5.428 14.867 1.84 15.326-7.147.022-.451-.552-.383-1.351-.511"/><path d="m29.877 36.43c-2.426 4.795-8.748 7.404-13.494 6.296-.416.692-.838 1.088-.48 1.363 7.181 5.426 14.867 1.84 15.328-7.147.017-.451-.555-.383-1.354-.512"/></svg>