<svg xmlns="http://www.w3.org/2000/svg" viewBox="0 0 64 64" enable-background="new 0 0 64 64"><path d="m31.288 24.691c0-5.928-4.837-10.75-10.782-10.75-.658 0-1.299.068-1.924.183 2.322-1.212 4.361-2.961 5.909-5.173.41-.592-1.463-1.738-1.814-1.25-2.402 3.477-6.209 5.695-10.484 6.053-.586.041-.527 2.234.234 2.182.879-.074 1.735-.242 2.577-.453-3.119 1.882-5.217 5.3-5.217 9.209 0 5.928 4.809 10.75 10.719 10.75 5.945-.001 10.782-4.823 10.782-10.751m-10.782 9.25c-5.083 0-9.219-4.149-9.219-9.25s4.136-9.25 9.219-9.25c5.118 0 9.282 4.149 9.282 9.25s-4.164 9.25-9.282 9.25"/><path d="m20.509 21.191c-1.873 0-3.499 1.567-3.499 3.5 0 1.934 1.626 3.5 3.499 3.5 1.954 0 3.501-1.566 3.501-3.5 0-1.932-1.547-3.5-3.501-3.5"/><path d="m43.531 35.441c5.909 0 10.717-4.822 10.717-10.75 0-4.095-2.295-7.659-5.661-9.474.983.274 1.991.479 3.023.565.703.053.762-2.143.176-2.182-4.217-.357-8.023-2.576-10.484-6.053-.293-.49-2.168.658-1.758 1.252 1.624 2.365 3.849 4.21 6.391 5.423-.774-.179-1.576-.282-2.403-.282-5.945 0-10.783 4.822-10.783 10.75s4.837 10.751 10.782 10.751m0-20c5.082 0 9.217 4.149 9.217 9.25s-4.135 9.25-9.217 9.25c-5.119 0-9.283-4.149-9.283-9.25s4.164-9.25 9.283-9.25"/><path d="m43.541 28.191c1.892 0 3.457-1.566 3.457-3.5 0-1.933-1.565-3.5-3.457-3.5-1.978 0-3.542 1.567-3.542 3.5 0 1.934 1.564 3.5 3.542 3.5"/><path d="m31.989 34.041c-4.568 0-8.318 5.381-8.318 12.021 0 6.637 3.75 12.02 8.318 12.02 4.627 0 8.375-5.383 8.375-12.02 0-6.64-3.748-12.021-8.375-12.021m0 22.529c-2.109 0-3.924-1.441-4.92-3.58 0 0 1.055-1.133 4.92-1.133s4.979 1.133 4.979 1.133c-.996 2.139-2.813 3.58-4.979 3.58"/><path d="m61.428 34.062c.35-.821.551-1.524.551-2.062 0-16.568-13.413-30-29.989-30-16.518 0-29.989 13.432-29.989 30 0 .539.203 1.248.558 2.074-1.501.334.68 3.375 1.198 7.516.996 7.748 6.912 12.191 7.791 18.547.059.463 0 1.863 0 1.863h13.646c0 0-.056-1.282-.052-2.375 1.98 1.227 4.608 2.375 6.847 2.375 2.282 0 4.896-1.137 6.87-2.355.005 1.087-.077 2.355-.077 2.355h13.707c0 0-.059-1.4 0-1.863.879-6.355 6.794-10.799 7.79-18.547.526-4.189 2.754-7.255 1.149-7.528m-29.439 25.438c-1.454 0-3.615-.791-5.614-2.049-.377-.244-.789-.535-1.225-.864-.521-2.721-3.114-6.343-9.444-10.884-4.041-2.893-4.744-8.977-9.957-10.904-.01-.004-.018-.006-.027-.01-.824-1.42-1.205-2.367-1.221-2.789 0-15.164 12.331-27.5 27.488-27.5s27.489 12.336 27.489 27.496c-.016.427-.4 1.385-1.232 2.821-5.173 1.946-5.886 8.001-9.915 10.886-6.352 4.557-8.942 8.188-9.483 10.912-.413.311-.805.589-1.164.82-2.051 1.294-4.18 2.065-5.695 2.065"/></svg>