<svg xmlns="http://www.w3.org/2000/svg" viewBox="0 0 64 64" enable-background="new 0 0 64 64"><path d="M31.999,2C15.431,2,2,15.432,2,32s13.431,30,29.999,30C48.568,62,62,48.568,62,32S48.568,2,31.999,2z M31.999,59.5
		C16.836,59.5,4.5,47.164,4.5,32c0-4.568,1.126-8.876,3.105-12.671c0.063,0.616,1.428,1.548,1.748,1.147
		c2.714-3.252,6.738-5.129,10.972-5.115c0.588,0.012,0.723-2.18,0.006-2.191c-4.816-0.014-9.39,2.097-12.517,5.752
		C12.473,10.34,21.568,4.5,31.999,4.5C47.162,4.5,59.5,16.836,59.5,32S47.162,59.5,31.999,59.5z"/><path d="m56.328 19.225c-3.133-3.756-7.775-5.918-12.659-5.904-.717.012-.584 2.201.004 2.191 4.235-.014 8.259 1.863 10.972 5.115.369.457 2.134-.848 1.683-1.402"/><circle cx="31.999" cy="49.471" r="4.5"/><path d="m20.5 19.387c-5.376 0-9.75 4.374-9.75 9.75s4.374 9.75 9.75 9.75c5.376 0 9.75-4.374 9.75-9.75s-4.374-9.75-9.75-9.75m0 18c-4.549 0-8.25-3.701-8.25-8.25s3.701-8.25 8.25-8.25c4.548 0 8.25 3.701 8.25 8.25s-3.702 8.25-8.25 8.25"/><circle cx="20.5" cy="29.137" r="4.5"/><path d="m43.501 19.387c-5.377 0-9.75 4.374-9.75 9.75s4.373 9.75 9.75 9.75c5.374 0 9.749-4.374 9.749-9.75s-4.375-9.75-9.749-9.75m0 18c-4.549 0-8.25-3.701-8.25-8.25s3.701-8.25 8.25-8.25c4.548 0 8.249 3.701 8.249 8.25s-3.701 8.25-8.249 8.25"/><circle cx="43.501" cy="29.137" r="4.5"/></svg>