<svg xmlns="http://www.w3.org/2000/svg" viewBox="0 0 64 64" enable-background="new 0 0 64 64"><path d="m60.564 25.721c-1.092-2.947-3.697-7.932-6.545-7.932-.568 0-1.086.207-1.523.568-2.006-3.242-5.072-5.707-9.152-7.393 1.143-.629 1.881-.943 1.881-.943-3.229-1.182-6.029-1.873-8.453-2.188 1.275-.996 2.127-1.379 2.127-1.379-14.96-2.194-24.139 3.862-27.967 11.552-.298-.131-.614-.217-.953-.217-2.846 0-5.452 4.984-6.543 7.93-1.766 4.773-2.614 16.855 1.754 20.832-.213 2.865-.92 9.388-2.905 15.449h12.619l-.626-8.438c4.266 3.938 10.62 6.438 17.722 6.438s13.455-2.5 17.721-6.436l-.625 8.436h12.619c-1.986-6.061-2.693-12.584-2.904-15.449 4.367-3.981 3.519-16.059 1.753-20.83m-51.974 20.597c-.547 0-1.059-.107-1.458-.279-4.581-1.967-4.292-14.414-2.308-19.775 1.377-3.717 3.66-6.945 5.155-6.945.336 0 .633.164.87.521 1.2 1.813-.091 2.061.395 4.033 1.021 4.143-1.285 8.369-.521 10.32 3.803 9.731.436 12.125-2.133 12.125m36.043-5.089c1.338 1.721 2.121 3.729 2.121 5.885 0 6.316-6.605 11.432-14.754 11.432s-14.754-5.116-14.754-11.433c0-2.156.783-4.164 2.122-5.885-4.587-2.863-7.524-7.252-7.524-12.17-.001-17.583 20.156-6.382 20.156-6.382s20.156-11.201 20.156 6.383c0 4.918-2.937 9.306-7.523 12.17m12.234 4.81c-.398.172-.91.279-1.459.279-2.568 0-5.936-2.395-2.131-12.125.764-1.951-1.543-6.178-.521-10.32.484-1.973-.805-2.221.395-4.033.236-.357.533-.521.869-.521 1.496 0 3.779 3.229 5.156 6.945 1.982 5.361 2.271 17.808-2.309 19.775"/><path d="m34.145 40.789c.553 0 1-.919 1-2.057 0-1.133-.447-2.059-1-2.059s-1 .926-1 2.059c0 1.138.447 2.057 1 2.057"/><path d="m29.854 40.789c.553 0 1-.919 1-2.057 0-1.133-.447-2.059-1-2.059s-1 .926-1 2.059c0 1.138.447 2.057 1 2.057"/><path d="m32 45.249c-4.689 0-9.459-1.271-9.846-.942-1.424 1.214 2.946 6.939 9.846 6.976 6.9-.035 11.272-5.762 9.843-6.977-.385-.327-5.154.944-9.843.943"/><ellipse cx="40.682" cy="31.255" rx="3.5" ry="4.499"/><ellipse cx="23.318" cy="31.255" rx="3.5" ry="4.499"/></svg>