<svg xmlns="http://www.w3.org/2000/svg" viewBox="0 0 64 64" enable-background="new 0 0 64 64"><path d="m61.715 25.826c-1.297-5.15-7.154-12.127-12.523-20.426l-.223.217c-1.293-.645-7.246-3.549-9.629-3.549l-.432-.002c-1.707-.012-2.992.012-3.959.074-.883-.087-1.859-.14-2.963-.14-1.025 0-2.014.051-2.971.145-.961-.061-2.236-.084-3.924-.078l-.431.001c-2.381 0-8.338 2.904-9.629 3.549l-.222-.217c-5.37 8.299-11.227 15.276-12.524 20.426-2.398 9.531 11.127 29.295 10.932 36.174h37.566c-.195-6.879 13.332-26.643 10.932-36.174m-22.811-22.76l.436.002c1.771 0 6.287 2.012 8.869 3.287l-3.865 3.752c-1.826-.143-3.963-1.662-3.963-3.363 0-1.088-1.529-1.457-3.467-1.924-1.404-.338-3.285-.791-3.576-1.459.598-.207 2.484-.318 5.566-.295m-.705 8.934c0 0 5.428 10.043 10.664 11.375 0 0 2.537.465 2.537 4.449 0 4.795-3.385 5.623-3.385 5.623-.025 4.314-3.58 9.162-7.725 12.369-2.801 2.168-5.871 3.59-8.305 3.59s-5.529-1.418-8.357-3.584c-4.191-3.207-7.797-8.057-7.797-12.375 0 0-3.262-.828-3.262-5.623 0-3.797 2.459-4.449 2.459-4.449 8.812 0 23.171-11.375 23.171-11.375m-13.539-8.932l.436-.002c3.113-.023 4.971.088 5.568.295-.293.668-2.172 1.121-3.576 1.459-1.938.467-3.469.836-3.469 1.924 0 1.701-2.135 3.221-3.961 3.363l-3.865-3.752c2.58-1.275 7.096-3.287 8.867-3.287m29.885 45.073c-2.328 5.197-4.371 9.762-4.713 12.859h-35.664c-.342-3.098-2.385-7.662-4.713-12.861-3.527-7.875-7.525-16.803-6.199-22.069.861-3.424 3.953-7.855 7.535-12.986 1.373-1.967 2.785-3.99 4.191-6.121l4.268 4.143c-1.715 1.869-6.016 7.289-9.434 17.707l-.115.354.143.344c.406.973.828 2.037 1.266 3.145 2.316 5.855 4.939 12.492 8.738 14.9l.471.299.5-.242c.674-.326 1.508-.568 2.543-.738 3.041 2.25 6.164 3.533 8.625 3.533 2.455 0 5.563-1.285 8.576-3.539 1.064.172 1.918.418 2.602.75l.5.244.471-.297c3.807-2.395 6.434-9.041 8.754-14.904.438-1.109.859-2.176 1.268-3.15l.143-.344-.115-.354c-3.418-10.418-7.717-15.838-9.432-17.707l4.266-4.143c1.406 2.131 2.818 4.152 4.189 6.119 3.582 5.131 6.676 9.563 7.539 12.988 1.324 5.267-2.674 14.193-6.203 22.07"/><path d="m31.986 37.359c3.225-.002 4.838-2.314 3.225-2.314s-4.838 0-6.451 0 0 2.314 3.226 2.314"/><path d="m37.773 26.941c0 1.918 1.557 3.473 3.473 3.473 1.92 0 3.475-1.555 3.475-3.473 0-.873-.334-1.66-.865-2.271.592.088 1.176.186 1.746.26.484.141.967.293 1.43.471.08.277.078.676-.008 1.063-.1.475-.264.961-.461 1.436-.203.473-.424.945-.686 1.398-.129.227-.262.451-.414.666-.152.207-.293.441-.527.57.521-.178.885-.629 1.252-1.018.352-.414.678-.85.957-1.322.279-.471.537-.963.705-1.514.139-.498.293-1.068.082-1.715.664-.111 1.275-.369 1.805-.867-3.473 1.51-12.154-5.541-13.891 5.035.613-1.563 1.34-2.619 2.135-3.33-.126.357-.208.736-.208 1.138"/><path d="m16.039 24.965c-.211.646-.057 1.217.082 1.715.17.551.428 1.043.707 1.514.279.473.605.908.957 1.322.365.389.729.84 1.252 1.018-.234-.129-.375-.363-.529-.57-.15-.215-.285-.439-.412-.666-.264-.453-.482-.926-.688-1.398-.195-.475-.359-.961-.461-1.436-.084-.387-.088-.785-.006-1.063.459-.176.934-.33 1.416-.469.572-.074 1.162-.174 1.76-.262-.531.611-.865 1.398-.865 2.271 0 1.918 1.555 3.473 3.473 3.473 1.916 0 3.473-1.555 3.473-3.473 0-.402-.082-.781-.207-1.139.795.711 1.521 1.768 2.137 3.33-1.736-10.576-10.418-3.525-13.891-5.035.529.499 1.138.757 1.802.868"/><path d="m35.031 39.764c-2.273-.859-3.045.506-3.045.506s-.771-1.365-3.045-.506c-1.777.672-4.684.273-4.672.277 4.629 6.58 10.803 6.58 15.434 0 .01-.004-2.896.395-4.672-.277"/></svg>