<svg xmlns="http://www.w3.org/2000/svg" viewBox="0 0 64 64" enable-background="new 0 0 64 64"><path d="m37.45 2h-9.652l4.827 9.914z"/><path d="m45.004 2.99l-.648 11.066 9.006-6.108z"/><path d="m20.244 2.99l-8.359 4.958 9.005 6.108z"/><path d="m61.813 40.158c-.034-.445-.067-.869-.091-1.268-.205-3.449-.043-14.033-.041-14.14 0-2.636-1.607-4.904-4.512-4.659-.75-3.433-3.807-4.37-5.504-3.156-1.398-3.12-6.645-2.88-7.761.477-2.601-1.315-5.274 1.216-5.274 4.585v11.129c-1.21-1.294-2.593-1.995-4.027-1.995-.953 0-1.837.322-2.568.92-.742-.769-1.682-1.209-2.704-1.209-1.383 0-2.72.735-3.925 2.125v-10.97c0-4.65-4.279-5.624-5.619-4.65-1.218-3.094-5.466-3.563-7.416-.412-1.923-.963-4.921.068-5.504 3.157-2.634-.495-4.512 2.023-4.512 4.628.002.138.287 10.644-.041 14.171-.454 4.894-.642 8.353 1.051 12.736.577 1.493 1.555 2.804 2.816 3.862.738 3.026.428 5.346.424 5.367l-.165 1.144h14.818l1.185-.003-.2-1.169c-.004-.022-.343-2.171.313-5.173 2.193-1.671 3.938-4.066 5.036-7.058.434-1.178.94-2.385 1.478-3.663.482-1.147 2.881-6.234 2.881-6.234s2.533 5.087 3.015 6.234c.537 1.278 1.044 2.485 1.477 3.664 1.1 2.99 2.844 5.386 5.038 7.057.655 3.002.316 5.149.313 5.17l-.209 1.175h16.01l-.164-1.144c-.004-.023-.32-2.319.424-5.367 1.262-1.059 2.239-2.369 2.816-3.862 1.692-4.384 1.374-8.479 1.142-11.469m-41.651 19.842h-12.494c.021-.73.032-2.466-.468-3.966 1.624 1.281 3.592 2.313 7.244 2.313 2.104 0 4.07-.458 5.839-1.306-.15 1.223-.157 2.24-.121 2.959m8.48-19.319c-.949 2.489-2.074 4.914-2.926 7.227-2.209 6.012-7.893 9.606-12.272 9.606-4.102 0-7.704-3.191-8.981-6.501-1.773-4.593-.885-9.105-.708-12.083.211-3.565.475-10.633.385-14.177-.047-1.848 1.53-3.938 3.342-3.125v13.469l1.208.962v-14.804c0-3.064 2.77-3.502 3.68-2.502v16.314l1.203.991v-17.053c0-3.471 5.066-3.627 5.066.005v16.058l1.086.967.026-16.837c1.062-1 3.657-.194 3.657 2.8v16.439c-4.518-.202-11.045 3.125-10.067 10.427 0-7.203 6.25-8.879 9.745-8.879 1.292 0 1.654-2 1.844-2.888 1.332-6.271 5.496-5.063 5.838-3.498-.387.675-.344 1.469-.219 2.074.054.336.148.662.269.978-.598 1.162-1.58 2.471-2.176 4.03m27.726 19.319h-12.493c.034-.72.028-1.736-.122-2.959 1.77.848 3.736 1.306 5.84 1.306 3.173 0 5.672-.719 7.357-2.156-.531 1.499-.603 3.079-.582 3.809m3.455-8.997c-1.277 3.31-5.246 6.511-9.348 6.511-4.379 0-9.748-3.567-11.889-9.604-2.98-8.404-7.45-11.862-5.561-14.769 1.242-1.911 4.529-1.403 5.982 4.264.225.879.858 2.58 1.941 2.58 3.495 0 9.744 1.676 9.744 8.879.979-7.302-5.549-10.629-10.066-10.427v-16.44c0-2.275 1.52-4.025 3.486-3.011v17.079l1.221-.998v-16.338c.342-3.069 4.702-2.944 5.202-.101v17.431l1.138-.991v-16.471c1.441-1.469 4.089-.313 4.089 2.031 0 3.877 0 15.515 0 15.515l1.106-.991-.012-13.212c1.655-.656 3.436.594 3.404 2.5 0 0-.024 10.748.188 14.313.178 2.978 1.149 7.657-.625 12.25"/></svg>