<svg xmlns="http://www.w3.org/2000/svg" viewBox="0 0 64 64" enable-background="new 0 0 64 64"><path d="M32,2C15.432,2,2,15.432,2,32s13.432,30,30,30s30-13.432,30-30S48.568,2,32,2z M32,59.5C16.836,59.5,4.5,47.164,4.5,32
		S16.836,4.5,32,4.5c15.164,0,27.5,12.336,27.5,27.5S47.164,59.5,32,59.5z"/><circle cx="20.5" cy="26.592" r="5"/><circle cx="43.5" cy="26.592" r="5"/><path d="m32 39.794c-4.539 0-8.082 3.058-9.836 6.491-.471.918.154 1.913.848 1.34 5.793-4.801 12.219-4.771 17.977 0 .693.573 1.318-.422.848-1.34-1.755-3.433-5.3-6.491-9.837-6.491"/></svg>