<svg xmlns="http://www.w3.org/2000/svg" viewBox="0 0 64 64" enable-background="new 0 0 64 64"><path d="m58.428 46.609c-1.607-1.904-3.727-3.926-6.133-5.862-.023-1.063-.57-2.123-1.621-2.672.057-.415.098-.851.098-1.341v-8.09c0-8.17-7.156-14.745-18.774-14.745-11.23 0-18.771 6.575-18.771 14.745 0 0 0 5.053 0 8.09 0 .494.037.933.086 1.351-1.039.551-1.582 1.604-1.605 2.66-2.408 1.939-4.527 3.962-6.133 5.864-2.453 1.317-4.674 4.146-2.979 7.87 1.943 4.272 15.063 5.745 15.063 5.745 1.216 1.44 6.571 1.776 8.481 1.776 0 0 0 0 .002 0 1.939 0 4.461-.199 5.441-1.146.133-.128.701-.128.834 0 .981.947 3.503 1.146 5.444 1.146 1.906 0 7.25-.335 8.479-1.77 0 0 13.107-1.444 15.066-5.751 1.696-3.724-.525-6.552-2.978-7.87m-32.288 14.391c-3.92 0-8.115-1.27-8.115-1.27-.066-3.345.982-5.555 1.344-6.469-1.688-1.937-8.846-6.433-9.762-6.965 4.178 1.304 11.162 6.221 11.162 6.221-.193.464-.361.868-.518 1.243 1.463.295 8.201 3.101 10.203 5.088.858.85 1.194 2.152-4.314 2.152m5.86-8.622c-6.654 0-16.5-2.843-16.5-8.943v-.5h-.002-.498c-.395 0-.736-.066-1.025-.183-.855-.345-1.221-1.119-1.262-1.808l-.01-.158c.014-1.048.723-2.095 2.297-2.095h.42l.072-.413c.025-.144.619-3.527.707-4.714.07-.945.338-.945.531-.945.531 0 1.459.405 2.633.917 2.703 1.18 6.787 2.961 12.637 2.961 5.852 0 9.936-1.782 12.637-2.961 1.174-.513 2.102-.917 2.633-.917.193 0 .459 0 .529.946.09 1.187.686 4.569.711 4.713l.072.413h.42c1.561 0 2.271 1.032 2.295 2.072l-.012.18c-.045.792-.525 1.693-1.68 1.929-.035.008-.072.014-.111.02-.154.025-.316.043-.494.043h-.498-.002v.5c0 6.1-9.846 8.943-16.5 8.943m12.635.884c.361.914 1.41 3.124 1.344 6.469 0 0-4.201 1.27-8.117 1.27-5.508 0-5.172-1.301-4.316-2.15 2.002-1.988 8.744-4.795 10.207-5.089-.156-.375-.326-.779-.52-1.243 0 0 6.984-4.917 11.162-6.221-.915.531-8.075 5.027-9.76 6.964"/><path d="M44.271 3.63 35.906 2 39.412 12.385z"/><path d="m52.852 8.19l-4.635 8.85 9.705-1.264z"/><path d="m28.435 2l-8.709 1.63 5.201 8.755z"/><path d="m11.15 8.19l-5.07 7.586 9.705 1.264z"/><path d="m34.785 49.374c-1.795 1.396-3.788 1.387-5.573 0-.215-.166-.408.123-.262.391.543.996 1.643 1.885 3.047 1.885 1.407 0 2.506-.889 3.051-1.885.145-.268-.048-.557-.263-.391"/><path d="m43.393 42.269c-2.428 1.898-6.357 1.725-8.563.002-.385.26-.699.361-.58.59 2.422 4.545 7.301 4.545 9.725 0 .119-.229-.196-.331-.582-.592"/><path d="m29.169 42.269c-2.43 1.898-6.359 1.725-8.564.002-.385.26-.699.361-.58.59 2.424 4.545 7.301 4.545 9.725 0 .119-.229-.196-.331-.581-.592"/></svg>