<svg xmlns="http://www.w3.org/2000/svg" viewBox="0 0 64 64" enable-background="new 0 0 64 64"><path d="m61.6 22.815c.975-1.093.006-3.16-1.15-3.16-.221 0-.449.075-.672.248-.334.26-2.697 2.137-5.379 4.27v-1.598c0-17.383-12.125-17.061-12.125-17.061s-.913-3.514-10.272-3.514c-14.488 0-22.398 8.88-22.398 20.575v1.598c.002.002-5.047-4.009-5.381-4.27-.223-.173-.452-.248-.672-.248-1.156 0-2.125 2.067-1.15 3.16 3.287 3.688 5.377 6.697 7.243 9.094-.014-.017-.026-.032-.04-.05v17.988c-1.98 1.767-3.328 3.62-3.576 5.534-.245 1.896.564 3.692 2.407 5.341.947.848 2.23 1.278 3.813 1.278 1.385 0 3.044-.343 4.96-1.013h29.586c1.917.67 3.576 1.013 4.961 1.013 1.583 0 2.865-.43 3.813-1.277 1.842-1.648 2.651-3.445 2.406-5.341-.248-1.914-1.595-3.767-3.575-5.532v-17.996c1.856-2.388 3.938-5.379 7.201-9.039m-49.037 3.709c.125-3.498 2.447-4.116 2.447-4.116 8.811 0 23.17-11.265 23.17-11.265s5.428 9.945 10.664 11.265c0 0 2.426.449 2.527 4.171-1.388 1.104-2.686 2.136-3.671 2.919l-.033-.074-.565-1.259-1.028.934c-2.854 2.59-8.479 5.449-14.074 8.169-5.593-2.718-11.216-5.576-14.074-8.169l-1.027-.934-.565 1.259-.034.074c-1-.796-2.331-1.854-3.74-2.976.001.002.002.002.003.002m-3.624 2.821c-1.558-2.068-3.322-4.413-5.787-7.178-.213-.238-.172-.637-.064-.93.139-.379.375-.574.459-.597.01.004.027.014.055.034.629.49 8.681 6.892 12.279 9.755l-2.053 4.571c-1.674-1.386-3.068-3.238-4.889-5.655m45.956 30.65c-.65.582-1.501.886-2.496.979 0 0 0 0 0-.002-.008.002-.016.004-.023.004-.203.019-.404.041-.62.041-4.499 0-11.628-3.885-18.503-8.489l9.555-8.844-19.653 13.497c-4.197 2.29-8.075 3.836-10.907 3.836-.216 0-.417-.022-.62-.041-.009 0-.017-.002-.024-.004 0 .002 0 .002 0 .002-.995-.093-1.846-.396-2.496-.979-6.07-5.432 1.789-10.977 12.086-16.313l10.806-5.318-11.78 4.545c-3.876-3.09-6.456-5.332-6.456-5.332l.467-1.04c.001.001.001.001.001.001l2.397-5.34.619-1.377c2.979 2.703 8.627 5.572 14.752 8.543 6.125-2.971 11.775-5.84 14.752-8.543l.143.318 2.874 6.398c0 0 0 0 .001-.001l.467 1.04c0 0-3.016 2.622-7.43 6.106 10.297 5.337 18.156 10.881 12.088 16.313m-4.723-24.995l-2.053-4.57c4.551-3.619 11.691-9.298 12.277-9.754.029-.021.049-.031.057-.035.084.022.32.216.459.595.109.294.148.693-.064.932-2.465 2.765-4.229 5.109-5.787 7.178-1.821 2.416-3.215 4.268-4.889 5.654"/><path d="m31.966 35.92c3.226-.002 4.839-2.276 3.226-2.276s-4.838 0-6.451 0-.001 2.276 3.225 2.276"/><path d="m37.754 25.673c0 1.887 1.557 3.416 3.473 3.416 1.919 0 3.474-1.529 3.474-3.416 0-.858-.334-1.633-.865-2.234.592.087 1.177.183 1.746.256.485.138.967.288 1.43.463.081.272.078.664-.007 1.045-.101.467-.265.945-.461 1.412-.204.465-.424.93-.687 1.375-.128.224-.261.444-.413.655-.153.204-.294.435-.528.562.522-.175.886-.619 1.252-1.001.352-.407.678-.836.957-1.301.279-.463.537-.947.706-1.489.139-.489.293-1.051.082-1.687.664-.109 1.274-.363 1.804-.853-3.473 1.484-12.154-5.45-13.891 4.952.614-1.537 1.341-2.576 2.136-3.275-.126.351-.208.724-.208 1.12"/><path d="m17.765 28.205c.366.382.729.826 1.252 1.001-.234-.127-.375-.357-.528-.562-.151-.211-.285-.432-.413-.655-.263-.445-.482-.91-.687-1.375-.196-.467-.359-.945-.461-1.412-.085-.381-.088-.772-.007-1.045.459-.173.935-.325 1.416-.461.573-.073 1.163-.171 1.76-.258-.531.602-.865 1.376-.865 2.234 0 1.887 1.555 3.416 3.474 3.416 1.916 0 3.473-1.529 3.473-3.416 0-.396-.082-.769-.207-1.12.795.699 1.521 1.738 2.136 3.275-1.736-10.402-10.418-3.468-13.891-4.952.529.489 1.14.743 1.804.853-.211.636-.057 1.197.082 1.687.169.542.427 1.026.706 1.489.278.465.604.894.956 1.301"/></svg>