<svg xmlns="http://www.w3.org/2000/svg" viewBox="0 0 64 64" enable-background="new 0 0 64 64"><path d="M32,2C15.432,2,2,15.432,2,32s13.432,30,30,30s30-13.432,30-30S48.568,2,32,2z M32,59.5C16.836,59.5,4.5,47.164,4.5,32
		S16.836,4.5,32,4.5c15.163,0,27.5,12.336,27.5,27.5S47.163,59.5,32,59.5z"/><path d="m56.174 24.105l-.116-.255-.256-.115c-3.038-1.381-6.601-2.11-10.302-2.11-3.7 0-7.262.729-10.3 2.11l-.255.115-.116.254c-.717 1.555-1.079 3.203-1.079 4.896 0 6.479 5.271 11.75 11.75 11.75s11.75-5.271 11.75-11.75c0-1.691-.362-3.338-1.076-4.895m-10.674 15.145c-5.651 0-10.25-4.598-10.25-10.25 0-1.384.278-2.732.828-4.015 2.788-1.218 6.04-1.86 9.422-1.86.036 0 .072.002.108.003-.234.545-.374 1.142-.374 1.773 0 2.486 2.016 4.5 4.5 4.5 2.486 0 4.5-2.014 4.5-4.5 0-.067-.011-.132-.014-.199.235.093.474.183.702.283.549 1.283.827 2.633.827 4.015.001 5.652-4.598 10.25-10.249 10.25"/><path d="m30.25 29c0-1.691-.362-3.338-1.076-4.895l-.116-.255-.256-.115c-3.038-1.381-6.601-2.11-10.302-2.11-3.7 0-7.262.729-10.3 2.11l-.254.115-.117.254c-.716 1.555-1.079 3.203-1.079 4.896 0 6.479 5.271 11.75 11.75 11.75 6.479 0 11.75-5.271 11.75-11.75m-11.75 10.25c-5.652 0-10.25-4.598-10.25-10.25 0-1.384.278-2.732.828-4.015 2.789-1.218 6.04-1.86 9.422-1.86.036 0 .072.002.108.003-.234.545-.374 1.142-.374 1.773 0 2.486 2.016 4.5 4.5 4.5 2.486 0 4.5-2.014 4.5-4.5 0-.067-.011-.132-.014-.199.235.093.474.183.702.283.549 1.283.827 2.633.827 4.015.001 5.652-4.598 10.25-10.249 10.25"/><path d="m40.581 47.326c-5.403-2.538-11.787-2.54-17.196-.012-1.339.645.329 4.15 1.662 3.5 3.571-1.665 8.896-2.306 13.875.01 1.334.619 3.077-2.812 1.659-3.498"/></svg>