<svg xmlns="http://www.w3.org/2000/svg" viewBox="0 0 64 64" enable-background="new 0 0 64 64"><path d="m34.146 40.802c.553 0 1-.918 1-2.057 0-1.133-.447-2.059-1-2.059s-1 .926-1 2.059c0 1.139.448 2.057 1 2.057"/><path d="m29.855 36.687c-.553 0-1 .926-1 2.059 0 1.139.447 2.057 1 2.057s1-.918 1-2.057c0-1.134-.447-2.059-1-2.059"/><path d="m24.133 30.276c-1.797 1.268-3.272 2.461-3.272 2.461s1.494-1.037 3.272-2.461"/><path d="m19.593 27.335c-.93.725-1.529 1.23-1.529 1.23s.633-.494 1.529-1.23"/><path d="m62 32.968c0-3.787-2.568-6.963-6.057-7.922-.07-.317-.119-.613-.197-.938-.254-1.071-.729-3.04-1.938-3.844-1.846-4.32-5.365-7.475-10.432-9.485 1.145-.604 1.885-.908 1.885-.908-3.236-1.136-6.045-1.802-8.477-2.105 1.279-.961 2.133-1.327 2.133-1.327-17.219-2.429-26.826 5.608-29.414 14.488-.717.951-1.05 2.344-1.25 3.182-.077.322-.126.617-.195.932-3.49.957-6.057 4.139-6.057 7.928 0 3.553 2.258 6.57 5.416 7.725l-5.417 21.305h11.949c-.422-2.088-.313-8.288.056-10.393 4.278 3.905 10.75 6.393 17.995 6.393 7.245 0 13.719-2.487 17.997-6.393.369 2.104.479 8.305.055 10.393h11.948l-5.416-21.309c3.158-1.152 5.416-4.169 5.416-7.722m-57.121 0c0-1.922 1.031-3.576 2.56-4.515-.525 3.735-.419 6.839.35 9.257-1.724-.895-2.91-2.67-2.91-4.742m27.121-10.908c0 0 13.264-7.143 18.198-.665-.186.223-.367.46-.545.692-.248.326-.658.861-.969 1.161-1.486-1.193-5.182-3.81-9.037-3.81-.326 0-.652.02-.969.059-.799.091-1.398.576-1.607 1.289-.037.124-.066.254-.08.388-.584-.171-1.109-.257-1.576-.257-1.273 0-2 .587-2.383 1.081-.825 1.06-.747 2.329.318 3.946-.37.135-.631.348-.805.536-.258.284-.529.778-.543 1.517-.014-.738-.285-1.232-.544-1.517-.174-.188-.435-.401-.806-.536 1.064-1.617 1.143-2.887.319-3.946-.384-.494-1.108-1.081-2.384-1.081-.466 0-.992.086-1.576.257-.014-.134-.043-.264-.08-.388-.209-.713-.811-1.198-1.608-1.289-.315-.039-.642-.059-.97-.059-3.855 0-7.548 2.616-9.034 3.812-.313-.302-.722-.837-.971-1.163-.178-.234-.359-.47-.544-.692 4.933-6.478 18.196.665 18.196.665m-22.287 2.395c.542-2.276 1.089-3.052 1.658-3.052 1.215 0 2.532 3.541 4.118 3.541.055 0 .11-.004.166-.014 0 0 4.337-3.99 8.699-3.99.266 0 .529.013.793.045 1.688.199-3 4.256-5.553 6.35 2.311-1.795 6.666-4.918 8.994-4.918.513 0 .928.152 1.199.502 1.145 1.473-2.658 4.961-5.653 7.357 2.038-1.439 4.491-2.976 5.677-2.976.484 0 .756.257.701.882-.34 3.865-7.879 12.861-12.484 13.777-.754.15-1.489.23-2.194.23-5.506.001-9.201-4.793-6.121-17.734m22.287 32.147c-8.094 0-14.654-4.929-14.654-11.013 0-.701.096-1.385.266-2.048.236-.036.469-.062.709-.109 5.296-1.052 13.251-10.513 13.681-15.09.427 4.577 8.381 14.036 13.678 15.092.24.046.473.071.709.107.17.663.266 1.347.266 2.048-.001 6.084-6.561 11.013-14.655 11.013m16.168-14.412c-.705 0-1.441-.08-2.195-.23-4.605-.916-12.145-9.912-12.482-13.777-.055-.625.217-.882.701-.882 1.186 0 3.639 1.536 5.678 2.976-2.994-2.396-6.799-5.885-5.654-7.357.273-.35.688-.502 1.199-.502 2.328 0 6.684 3.123 8.992 4.918-2.551-2.096-7.238-6.15-5.553-6.35.264-.032.529-.045.793-.045 4.363 0 8.701 3.99 8.701 3.99.057.01.111.014.166.014 1.584 0 2.9-3.541 4.115-3.541.57 0 1.117.775 1.658 3.052 3.082 12.94-.615 17.734-6.119 17.734m8.395-13.737c1.527.938 2.559 2.593 2.559 4.515 0 2.072-1.186 3.848-2.908 4.74.768-2.416.874-5.521.349-9.255"/><path d="m44.406 27.335c.896.736 1.529 1.23 1.529 1.23s-.597-.505-1.529-1.23"/><path d="m39.869 30.276c1.779 1.424 3.271 2.461 3.271 2.461s-1.474-1.193-3.271-2.461"/><ellipse transform="matrix(-.2769-.9609.9609-.2769 1.0808 96.9022)" cx="37.001" cy="48.044" rx="2.719" ry="4.5"/></svg>