<svg xmlns="http://www.w3.org/2000/svg" viewBox="0 0 64 64" enable-background="new 0 0 64 64"><path d="m51.439 46.652c0 0-.23.173-.623.481-1.904-1.786-3.713-5.386-4.168-7.044-.834-3.042-4.861-23.209-5.193-26.296-.738-6.846-1.271-11.793-5.215-11.793-2.234 0-3.501 1.746-4.24 4.368-.736-2.622-2.003-4.368-4.238-4.368-3.944 0-4.479 4.947-5.217 11.794-.332 3.089-4.357 23.239-5.191 26.286-.451 1.652-2.259 5.265-4.17 7.055-.393-.31-.623-.482-.623-.482l-10.561 8.765v6.582h22.202c.228-.438.313-.925.283-1.449 1.875-.573 4.162-1.373 5.534-2.216.821-.504 1.471-1.032 1.98-1.576.509.544 1.159 1.072 1.979 1.576 1.373.843 3.662 1.644 5.537 2.217-.031.523.055 1.011.283 1.448h22.202v-6.582l-10.561-8.766m-12.974-37.644c.252 2.324 1.537 9.947 1.979 12.745-.541-.22-1.197-.372-2-.372-2.156 0-4.002 1.465-5.443 3.588 0 0-.059-12.906 0-15.54.159-7.128 4.776-6.824 5.464-.421m-7.465.42c.059 2.634 0 15.541 0 15.541-1.441-2.123-3.287-3.588-5.443-3.588-.805 0-1.46.152-2.002.372.441-2.798 1.729-10.422 1.979-12.745.692-6.404 5.307-6.706 5.466.42m-2.027 47.203c-1.181.725-3.271 1.453-5.021 1.988-1.518-3.366-5.917-7.445-8.786-9.867 4.141-2.055 5.468-8.54 6.387-10.055.826-2.554 1.219-5.319 1.15-7.121-.084-2.168-1.219-8.195 2.854-8.195 2.178 0 4.803 1.478 5.443 4.935.572 3.09.453 10.462 0 13.571-1.05 7.21 3.682 11.238-2.027 14.744m4.027-14.738c-.453-3.111-.573-10.486 0-13.578.641-3.456 3.264-4.934 5.443-4.934 4.07 0 2.938 6.028 2.854 8.195-.07 1.802.322 4.567 1.148 7.121.918 1.515 2.244 7.999 6.389 10.055-2.869 2.422-7.27 6.502-8.785 9.868-1.75-.536-3.842-1.265-5.023-1.989-5.705-3.504-.977-7.533-2.026-14.738"/></svg>