<svg xmlns="http://www.w3.org/2000/svg" viewBox="0 0 64 64" enable-background="new 0 0 64 64"><path d="m57.182 45.473c4.41-6.863 5.916-13.939 4.006-19.337l-.452-1.277c.791-5.749.626-12.956-.57-21.648l-.167-1.211-1.251.159c-7.221.928-14.034 3.896-19.187 7.269-2.336-.484-4.852-.741-7.563-.741-2.709 0-5.227.257-7.563.741-5.151-3.373-11.962-6.341-19.184-7.269l-1.251-.159-.167 1.21c-1.195 8.694-1.363 15.908-.573 21.658l-.448 1.268c-1.91 5.398-.403 12.476 4.006 19.339.252 3.268.311 6.682-.921 9.252-1.141 2.383 4.009 5.338 6.464 5.338 2.39 0 4.336-1.139 5.746-2.932 4.567 3.092 9.449 4.867 13.893 4.867s9.326-1.775 13.894-4.867c1.411 1.793 3.356 2.932 5.747 2.932 2.454 0 7.603-2.955 6.464-5.338-1.233-2.573-1.174-5.987-.923-9.254m.643-40.707c.816 6.364 1.054 11.962.74 16.668-.03-.667-.15-1.333-.417-1.954l.427-.061-1.699-2.813c.342-1.907.598-5.224-.539-9.167-3.932 1.567-6.971 4.296-8.107 5.412-1.632-1.055-3.437-1.907-5.402-2.563 4.259-2.496 9.471-4.619 14.997-5.522m-51.652 0c5.527.903 10.739 3.026 14.999 5.523-1.967.656-3.771 1.508-5.403 2.563-1.137-1.115-4.175-3.845-8.108-5.412-1.135 3.943-.879 7.258-.538 9.167l-1.699 2.813.426.061c-.267.622-.388 1.287-.417 1.954-.313-4.707-.076-10.306.74-16.669m25.827 55.298c-4.273 0-8.748-1.771-12.838-4.582 3.035-5.838 1.799-15.611-5.692-19.242-6.573-3.188-7.306-.254-7.042 4.432-2.302-4.838-3.154-9.811-1.702-13.915l1.166 1.537c0 0-.216-.669-.28-1.491 1.149.616 2.288 1.213 2.288 1.213s-.611-1.843-.049-3.104l.868.662c0 0-2.057-4.345-.144-6.011.774 2.489 1.69 2.527 1.742 2.527h.003c0 0-1.158-1.92-.256-2.726.369.578.712.775.988.775.416 0 .682-.442.66-.703-.049-.577.182-1.391-2.521-1.775.373-.616 1.206-.799 2.07-.799 1.289 0 2.646.41 2.646.41s-.087-1.299-1.873-1.299c-.036 0-.071.002-.108.002.561-.807 1.384-1.043 2.151-1.043 1.066 0 2.026.454 2.026.454l-.006.017c.708-.521 1.477-.986 2.277-1.423.626 1.373 1.473 1.998 2.508 3.832 1.48-2.618 2.563-4.139 3.171-5.975.894-.215 1.819-.399 2.798-.535.783 3.378 2.581 5.992 5.146 10.526 2.603-4.603 4.376-7.177 5.147-10.528.979.136 1.906.321 2.8.537.614 1.856 1.705 3.391 3.167 5.975 1.046-1.853 1.893-2.472 2.514-3.832.8.437 1.569.902 2.277 1.423l-.006-.017c0 0 .959-.454 2.026-.454.768 0 1.59.236 2.15 1.043-.037 0-.073-.002-.108-.002-1.785 0-1.872 1.299-1.872 1.299s1.357-.412 2.646-.41c.864 0 1.697.183 2.07.799-2.703.384-2.473 1.198-2.522 1.775-.021.261.245.703.659.703.278 0 .622-.197.991-.775.901.805-.257 2.726-.257 2.726s0 0 .002 0c.053 0 .969-.038 1.742-2.527 1.914 1.666-.145 6.011-.145 6.011l.868-.662c.563 1.261-.049 3.104-.049 3.104s1.146-.575 2.291-1.161c-.071.798-.279 1.439-.279 1.439l1.164-1.537c1.451 4.104.601 9.077-1.702 13.915.263-4.688-.471-7.619-7.043-4.432-7.489 3.631-8.726 13.402-5.691 19.242-4.089 2.809-8.565 4.582-12.837 4.582"/><path d="m32 34.504c.752 0 1.687-.277 2.666-1.158 1.551-1.395 2.002-3.01 1.418-3.663-.818-.915-3.332-.985-4.084-.985-.75 0-3.266.07-4.084.985-.582.652-.132 2.268 1.421 3.663.978.881 1.913 1.158 2.663 1.158"/><path d="m44.634 36.076c1.487.238 3.061.215 4.563-.436.373-.16.741-.365 1.097-.629.18-.137.35-.285.524-.484.047-.051.084-.098.139-.174l.088-.137.058-.111.142-.326c.346-.855.602-1.724.801-2.627.377-1.803.48-3.752.082-5.645-.448-1.906-1.357-3.514-2.542-4.801-1.186-1.259-2.839-2.107-4.478-1.873-.407.056-.789.138-1.189.295-.36.138-.739.312-1.085.545-.696.451-1.316 1.065-1.805 1.79-.953 1.473-1.492 3.249-1.562 5.025.368-1.707 1.031-3.328 2.054-4.485.496-.586 1.071-1.053 1.7-1.363.313-.161.634-.28.979-.38.306-.092.653-.137.978-.153 1.32-.044 2.577.634 3.546 1.753.965 1.105 1.764 2.552 2.085 4.069.349 1.541.284 3.232-.02 4.858-.146.814-.357 1.629-.628 2.379l-.103.268c.03-.059-.013.025-.015.029-.001 0 0-.006.002-.008l-.049.068c-.089.113-.213.229-.339.342-.256.225-.548.422-.854.584-1.245.65-2.685.869-4.113.822-1.441-.006-2.883-.338-4.323-.717 1.344.731 2.779 1.237 4.267 1.522"/><ellipse cx="44.392" cy="28.307" rx="2.02" ry="4.838"/><path d="m15.198 34.449c-.307-.162-.599-.359-.854-.584-.126-.113-.249-.229-.338-.342l-.049-.068c.002.002.004.008.002.008-.002-.004-.044-.088-.015-.029l-.103-.268c-.27-.75-.481-1.564-.627-2.379-.304-1.625-.368-3.317-.02-4.858.322-1.517 1.12-2.964 2.084-4.069.969-1.119 2.226-1.797 3.547-1.753.323.016.672.062.978.153.344.1.665.219.978.38.628.31 1.205.777 1.701 1.363 1.022 1.157 1.685 2.778 2.053 4.485-.069-1.776-.607-3.552-1.561-5.025-.489-.725-1.109-1.339-1.807-1.79-.344-.233-.723-.407-1.084-.545-.4-.157-.781-.239-1.189-.295-1.637-.234-3.292.614-4.477 1.873-1.184 1.287-2.094 2.895-2.542 4.801-.4 1.893-.295 3.841.082 5.643.199.905.455 1.774.8 2.629l.142.326.058.111.088.137c.055.076.092.123.138.174.174.199.345.348.522.484.357.264.726.469 1.098.629 1.502.65 3.075.674 4.562.436 1.489-.285 2.923-.791 4.269-1.521-1.439.379-2.88.711-4.323.717-1.429.046-2.87-.172-4.113-.823"/><ellipse cx="19.611" cy="28.308" rx="2.021" ry="4.839"/><path d="m31.972 36.84c-4.423 0-8.054 4.764-8.054 10.645 0 5.879 3.631 10.645 8.054 10.645 4.48 0 8.11-4.766 8.11-10.645 0-5.881-3.63-10.645-8.11-10.645m0 19.951c-2.042 0-3.799-1.277-4.764-3.172 0 0 1.022-1.004 4.764-1.004 3.744 0 4.821 1.004 4.821 1.004-.964 1.895-2.724 3.172-4.821 3.172"/></svg>