<svg xmlns="http://www.w3.org/2000/svg" viewBox="0 0 64 64" enable-background="new 0 0 64 64"><path d="m57 62c0-5.091-.596-8.19-2.619-10.081.005.004.011.008.016.013v-29.008c0-17.678-12.125-17.35-12.125-17.35s-.913-3.574-10.272-3.574c-14.488 0-22.398 9.031-22.398 20.924v29.006c.002-.002.004-.003.006-.005-2.015 1.891-2.608 4.99-2.608 10.075h50m-41.992-39.246c8.811 0 23.17-11.455 23.17-11.455s5.428 10.113 10.664 11.455c0 0 2.537.467 2.537 4.479 0 4.828-3.385 5.662-3.385 5.662-.023 3.74-2.664 7.877-6.041 11.016-3.197 2.971-7.055 5.051-9.99 5.051-2.893 0-6.717-2.017-9.92-4.917-3.484-3.156-6.232-7.355-6.232-11.149 0 0-3.262-.834-3.262-5.662 0-3.826 2.459-4.48 2.459-4.48m7.066 27.3l.969-.03v-.969-2.872c3.104 2.392 6.337 3.778 8.92 3.778 2.577 0 5.895-1.454 8.99-3.883v2.977.969l.969.03c11.684.361 13.929 1.934 14.07 10.946h-47.984c.141-9.012 2.385-10.586 14.066-10.946"/><path d="m31.965 40.965c-3.389 0-6.137.947-6.135 1.721 0 .113.061.207.172.279 0 0 2.631-.666 5.963-.666 3.338 0 5.988.666 5.988.666.092-.072.145-.182.145-.287 0-.772-2.744-1.713-6.133-1.713"/><path d="m17.182 28.174c0 0 1.78-.449 4.293-.63-.662.57-1.09 1.404-1.09 2.347 0 1.719 1.391 3.109 3.107 3.109 1.719 0 3.109-1.391 3.109-3.109 0-.942-.428-1.777-1.091-2.348 2.526.181 4.321.631 4.321.631.098-.078.154-.191.154-.303 0-.816-2.906-1.814-6.494-1.814-3.586 0-6.494 1.004-6.492 1.822.001.119.065.217.183.295"/><path d="m34.195 28.174c0 0 2.041-.515 4.837-.664-.969.527-1.634 1.542-1.634 2.723 0 1.717 1.393 3.109 3.109 3.109 1.719 0 3.109-1.393 3.109-3.109 0-1.181-.664-2.195-1.633-2.723 2.807.149 4.861.664 4.861.664.099-.078.156-.192.156-.303 0-.816-2.906-1.814-6.494-1.814-3.586 0-6.494 1.004-6.492 1.822 0 .119.064.217.181.295"/><path d="m35.179 36.669c-1.606 0-4.823 0-6.431 0s0 2.307 3.216 2.307c3.215 0 4.823-2.307 3.215-2.307"/></svg>