<svg xmlns="http://www.w3.org/2000/svg" viewBox="0 0 64 64" enable-background="new 0 0 64 64"><path d="m61.399 20.119c.981-2.426.48-5.957.409-6.424-.007-.073-.017-.143-.03-.211l-.211-6.824c-.036-1.252-1.007-2.233-2.21-2.233h-.015l-.052.002c-.115.003-.229.015-.34.036-.268-.832-.958-1.454-1.811-1.604l-.047-.048-.428.012c-.295.01-.576.075-.832.188-.462-.619-1.186-1.013-2.007-1.013h-.014l-.059.002c-.687.021-1.318.321-1.782.842-.144.161-.266.338-.364.528-.188-.053-.389-.081-.594-.081h-.015l-.052.002c-.605.018-1.165.271-1.582.715-.426.451-.658 1.067-.638 1.69l.215 7.073c-.044-.046-.091-.097-.142-.148l-.293-.305c-1.1-1.136-2.302-1.76-3.388-1.76-.088 0-.167.024-.251.032-3.497-4.189-8.175-4.09-8.175-4.09s-.895-3.515-10.101-3.515c-14.251 0-22.031 8.883-22.031 20.58 0 0 .012 28.519.016 28.517-1.99 1.859-2.575 4.908-2.575 9.918h49.205c11.01-13.269 10.994-25.018 8.229-39.637.901-.592 1.606-1.354 1.965-2.244m-51.523 3.279c8.666 0 22.791-11.267 22.791-11.267s5.338 9.947 10.489 11.267c0 0 2.495.459 2.495 4.405 0 4.749-3.329 5.569-3.329 5.569-.023 3.679-2.612 7.751-5.936 10.84-3.146 2.922-6.93 4.962-9.819 4.962-2.847 0-6.614-1.982-9.766-4.833-3.432-3.104-6.136-7.234-6.136-10.969 0 0-3.208-.82-3.208-5.569.001-3.761 2.419-4.405 2.419-4.405m40.865 37.619h-47.75c.139-8.866 2.348-10.414 13.846-10.77l.952-.029v-3.774c3.054 2.352 6.235 3.716 8.778 3.716 2.537 0 5.803-1.43 8.849-3.819v3.909h.983c5.301 0 9.454-1.683 12.345-5.002 5.128-5.885 5.086-15.653 4.403-21.87.622.148 1.272.229 1.948.229 1.185 0 2.312-.252 3.297-.681-.001 0-.001 0-.001 0 .045-.019.094-.032.139-.054 2.815 15.098 2.253 25.85-7.789 38.145m-2.326-41.036c.896 1.429 2.18 2.489 3.706 3.081.688 5.848.827 14.927-3.501 20.715v-20.212c0-1.3-.078-2.481-.205-3.584m6.681 2.641c-2.424 0-5-1.146-6.307-4.011-.519-1.138-1.527-1.965-2.438-3.018-1.099-1.269-2.941-2.242-2.413-3.362.207-.439.63-.689 1.182-.689.731 0 1.691.439 2.681 1.46 1.031 1.068 1.373 1.51 2.182 1.595l-.272-8.93c-.023-.737.542-1.369 1.26-1.391h.006c.013 0 .025-.002.038-.002.703 0 1.282.59 1.305 1.333l-.026-.944c-.029-.899.64-1.65 1.491-1.678.014-.002.028-.002.043-.002.834 0 1.525.701 1.549 1.585l.021.699c-.023-.783.559-1.437 1.301-1.46l.002.002c.014-.002.026-.002.04-.002.726 0 1.325.609 1.349 1.379l.048 1.576c-.021-.727.495-1.33 1.186-1.351.013 0 .025-.002.037-.002.673 0 1.206.564 1.228 1.281l.213 6.91c.016.067.028.134.032.207 0 0 .596 3.623-.342 5.942-.703 1.727-2.973 2.873-5.396 2.873"/><path d="m26.555 37.779c3.173-.002 4.76-2.276 3.173-2.276s-4.759 0-6.346 0 0 2.276 3.173 2.276"/><path d="m32.248 27.532c0 1.887 1.531 3.416 3.415 3.416 1.888 0 3.417-1.529 3.417-3.416 0-.858-.328-1.633-.851-2.233.582.086 1.157.183 1.717.255.478.139.951.288 1.406.463.08.273.077.665-.006 1.045-.1.467-.261.945-.454 1.412-.2.465-.417.93-.675 1.376-.126.223-.257.443-.406.655-.151.203-.289.434-.52.561.514-.175.871-.618 1.231-1.001.346-.407.666-.836.94-1.301.275-.463.529-.946.695-1.488.136-.49.288-1.051.08-1.687.653-.109 1.254-.363 1.774-.854-3.416 1.485-11.955-5.45-13.663 4.953.604-1.537 1.319-2.576 2.101-3.275-.121.352-.201.724-.201 1.119"/><path d="m10.95 27.275c.166.542.42 1.025.694 1.488.274.465.596.894.941 1.301.36.383.718.826 1.231 1.001-.23-.127-.369-.357-.52-.561-.148-.212-.28-.433-.406-.655-.259-.446-.475-.911-.676-1.376-.192-.467-.354-.945-.453-1.412-.084-.38-.086-.771-.007-1.045.452-.173.919-.324 1.394-.461.563-.073 1.144-.171 1.73-.257-.522.601-.852 1.375-.852 2.233 0 1.887 1.529 3.416 3.417 3.416 1.885 0 3.416-1.529 3.416-3.416 0-.396-.081-.768-.204-1.119.782.699 1.497 1.738 2.102 3.275-1.708-10.403-10.248-3.468-13.663-4.953.521.49 1.12.744 1.773.854-.205.637-.054 1.197.083 1.687"/><path d="m29.55 40.145c-2.236-.846-2.994.497-2.994.497s-.76-1.343-2.995-.497c-1.748.66-4.606.269-4.597.272 4.555 6.472 10.627 6.472 15.181 0 .01-.004-2.848.388-4.595-.272"/></svg>