<svg xmlns="http://www.w3.org/2000/svg" viewBox="0 0 64 64" enable-background="new 0 0 64 64"><path d="m62 32.969c0-4.09-2.994-7.474-6.913-8.113-.976-6.745-4.991-11.409-11.712-14.074 1.146-.605 1.887-.908 1.887-.908-3.238-1.139-6.047-1.804-8.477-2.105 1.277-.962 2.131-1.329 2.131-1.329-19.754-2.786-29.494 8.203-30.105 18.431-3.87.68-6.811 4.043-6.811 8.098 0 4.015 2.883 7.355 6.695 8.082.168 3.652 1.839 7.004 4.53 9.76-.008 1.061.058 2.049.201 2.957l-6.856 8.232h12.951l.943-.848c.287.027.58.043.881.043.733 0 1.509-.082 2.304-.238 1.632-.326 3.536-1.523 5.366-3.123.979.098 1.97.166 2.985.166.108 0 .214-.008.322-.01 3.195 1.748 6.896 3.053 9.484 3.053.475 0 .922-.041 1.328-.121.271-.055.523-.125.78-.191l1.07 1.269h13.971l-8.783-9.758c-.02-.242-.053-.49-.09-.738 3.104-2.873 5.037-6.492 5.221-10.453 3.813-.727 6.697-4.067 6.697-8.082m-53.1 5.17c-2.31-.602-4.023-2.676-4.023-5.169 0-2.417 1.613-4.436 3.816-5.104.05 2.161.62 4.228 1.615 6.131-.684 1.312-1.152 2.7-1.408 4.142m14.456 21.345c-.69.139-1.364.211-2.011.211-5.05 0-8.439-4.395-5.613-16.262.496-2.088.997-2.801 1.519-2.801 1.114 0 2.321 3.248 3.775 3.248.051 0 .102-.004.152-.012 0 0 3.978-3.66 7.976-3.66.243 0 .485.014.728.043 1.546.184-2.749 3.898-5.089 5.818.822-.639 1.928-1.459 3.097-2.227-.092.246-.146.506-.116.777.008.078.02.158.035.236-2.057.273-2.791 1.285-3.032 2.156-.334 1.207.154 2.273 1.578 3.281-.092.1-.177.211-.253.336-.226.371-.524 1.15.017 2.191.497.959 1.526 2 2.847 3.012-1.913 1.864-3.964 3.325-5.61 3.653m19.489-.035c-.317.063-.666.094-1.038.094-4.577 0-12.845-4.492-14.357-7.412-.444-.855.252-1.156 1.447-1.156 1.263 0 3.082.336 4.697.703-3.377-.984-7.827-2.615-7.372-4.264.23-.832 1.313-1.129 2.739-1.129 2.3 0 5.492.771 7.44 1.309-2.896-.883-8.281-2.682-6.922-3.441 1.229-.686 2.675-.914 4.06-.914 2.807 0 5.365.941 5.365.941 1.595-.379 1.304-4.529 2.618-4.529.48 0 1.175.555 2.255 2.053 8.046 11.159 5.16 16.544-.932 17.745m-11.439-17.511c.605-.23 1.164-.373 1.631-.373.294 0 .547.061.76.18-.086-.002-.171-.006-.258-.006-.758-.001-1.461.077-2.133.199m12.979-1.907c-1.072-1.318-1.937-1.881-2.862-1.881-1.788 0-2.292 1.885-2.625 3.131-.088.328-.228.852-.368 1.207-.664-.191-1.648-.436-2.786-.592-.088-.277-.226-.541-.421-.793-.155-.199-.385-.408-.67-.592.295-.355.494-1.01.494-1.766 0-1.133-.447-2.059-1-2.059-.555 0-1 .926-1 2.059 0 .525.098.998.254 1.361-.123-.014-.229-.043-.363-.043-.401 0-.849.068-1.343.203-.015-.08-.034-.156-.057-.234-.126-.43-.42-.766-.8-.992.007-.098.016-.193.016-.295 0-1.133-.447-2.059-1-2.059-.551 0-.996.92-.999 2.045-3.388.127-6.587 2.328-7.974 3.428-.267-.275-.982-1.371-1.796-2.182-2.433-2.42-7.106-7.035-7.106-11.773 0-16.933 20.021-6.145 20.021-6.145s20.021-10.788 20.021 6.146c0 4.699-3.14 9.066-7.636 11.826m9.306-6.035c.995-1.904 1.564-3.968 1.613-6.131 2.203.669 3.816 2.688 3.816 5.104 0 2.494-1.714 4.568-4.023 5.169-.254-1.441-.721-2.829-1.406-4.142"/><path d="m33.594 51.678c2.002.584 3.626.941 3.626.941s-1.663-.494-3.626-.941"/><path d="m36.401 47.594c1.019.313 1.729.51 1.729.51s-.686-.221-1.729-.51"/><ellipse cx="40.684" cy="31.746" rx="3.5" ry="4.5"/><ellipse cx="23.32" cy="31.746" rx="3.5" ry="4.5"/></svg>