<svg xmlns="http://www.w3.org/2000/svg" viewBox="0 0 64 64" enable-background="new 0 0 64 64"><path d="m57 62c0-5.092-.596-8.191-2.619-10.082.005.004.011.008.016.014v-29.009c0-17.678-12.125-17.35-12.125-17.35s-.913-3.573-10.272-3.573c-14.488 0-22.398 9.031-22.398 20.923v29.007c.002-.002.004-.004.006-.006-2.015 1.892-2.608 4.99-2.608 10.076h50m-41.992-39.247c8.811 0 23.17-11.455 23.17-11.455s5.428 10.113 10.664 11.455c0 0 2.537.467 2.537 4.479 0 4.828-3.385 5.662-3.385 5.662-.023 3.74-2.664 7.877-6.041 11.016-3.197 2.971-7.055 5.051-9.99 5.051-2.893 0-6.717-2.018-9.92-4.918-3.484-3.156-6.232-7.355-6.232-11.148 0 0-3.262-.834-3.262-5.662 0-3.825 2.459-4.48 2.459-4.48m7.066 27.3l.969-.029v-.969-2.873c3.104 2.393 6.337 3.779 8.92 3.779 2.577 0 5.895-1.455 8.99-3.883v2.977.969l.969.029c11.684.361 13.929 1.935 14.07 10.947h-47.984c.141-9.012 2.385-10.586 14.066-10.947"/><circle cx="31.963" cy="42.916" r="3"/><path d="m31.964 37.344c3.226-.002 4.839-2.314 3.226-2.314s-4.838 0-6.451 0-.001 2.314 3.225 2.314"/><path d="m37.752 26.926c0 1.918 1.557 3.473 3.473 3.473 1.919 0 3.474-1.555 3.474-3.473 0-.873-.334-1.66-.865-2.271.592.088 1.177.186 1.746.26.485.141.967.293 1.43.471.081.277.078.676-.007 1.063-.101.475-.265.961-.461 1.436-.204.473-.424.945-.687 1.398-.128.227-.261.451-.413.666-.153.207-.294.441-.528.57.522-.178.886-.629 1.252-1.018.352-.414.678-.85.957-1.322.279-.471.537-.963.706-1.514.139-.498.293-1.068.082-1.715.664-.111 1.274-.369 1.804-.867-3.473 1.51-12.154-5.541-13.891 5.035.614-1.563 1.341-2.619 2.136-3.33-.126.357-.208.735-.208 1.138"/><path d="m16.1 26.664c.169.551.427 1.043.706 1.514.279.473.605.908.957 1.322.366.389.729.84 1.252 1.018-.234-.129-.375-.363-.528-.57-.151-.215-.285-.439-.413-.666-.263-.453-.482-.926-.687-1.398-.196-.475-.359-.961-.461-1.436-.085-.387-.088-.785-.007-1.063.459-.176.935-.33 1.416-.469.573-.074 1.163-.174 1.76-.262-.531.611-.865 1.398-.865 2.271 0 1.918 1.555 3.473 3.474 3.473 1.916 0 3.473-1.555 3.473-3.473 0-.402-.082-.781-.207-1.139.795.711 1.521 1.768 2.136 3.33-1.736-10.576-10.418-3.525-13.891-5.035.529.498 1.14.756 1.804.867-.212.648-.058 1.218.081 1.716"/></svg>