<svg xmlns="http://www.w3.org/2000/svg" viewBox="0 0 64 64" enable-background="new 0 0 64 64"><path d="m60.332 53.108v1.379h-.633v-28.97c0-3.047-2.42-5.518-5.406-5.518h-44.587c-2.984 0-5.404 2.471-5.404 5.518v28.97h-.634v-1.379h-1.668v5.519h1.668v-1.38h.634 2.068c0 2.624 2.086 4.753 4.655 4.753 2.571 0 4.655-2.129 4.655-4.753h1.035c0 2.624 2.085 4.753 4.654 4.753 2.57 0 4.656-2.129 4.656-4.753h11.949c0 2.624 2.086 4.753 4.654 4.753 2.57 0 4.656-2.129 4.656-4.753h1.033c0 2.624 2.086 4.753 4.656 4.753s4.654-2.129 4.654-4.753h2.07.633v1.38h1.67v-5.519h-1.668m-49.307 7.308c-1.712 0-3.104-1.421-3.104-3.169h1.552c0 .873.697 1.585 1.552 1.585.855 0 1.552-.712 1.552-1.585h1.552c0 1.748-1.391 3.169-3.104 3.169m10.345 0c-1.711 0-3.103-1.421-3.103-3.169h1.552c0 .873.697 1.585 1.551 1.585.855 0 1.553-.712 1.553-1.585h1.553c-.001 1.748-1.393 3.169-3.106 3.169m21.259 0c-1.713 0-3.104-1.421-3.104-3.169h1.553c0 .873.697 1.585 1.551 1.585.855 0 1.553-.712 1.553-1.585h1.551c-.001 1.748-1.391 3.169-3.104 3.169m10.346 0c-1.713 0-3.104-1.421-3.104-3.169h1.551c0 .873.697 1.585 1.553 1.585s1.551-.712 1.551-1.585h1.553c-.001 1.748-1.393 3.169-3.104 3.169m4.724-7.308h-51.397v-3.815h17.033l2.701 2.759h11.927l2.703-2.759h17.033v3.815m0-6.573h-18.152l-2.703 2.758h-9.689l-2.703-2.758h-18.15v-18.258h51.397v18.258"/><path d="m8.439 40.693h6.037c.571 0 1.035-.474 1.035-1.056v-7.546c0-.582-.464-1.056-1.035-1.056h-6.037c-.571 0-1.034.474-1.034 1.056v7.546c0 .583.463 1.056 1.034 1.056m.12-7.452c0-.511.406-.925.907-.925h3.985c.501 0 .907.414.907.925v5.246c0 .512-.406.926-.907.926h-3.985c-.501 0-.907-.414-.907-.926v-5.246"/><path d="m18.71 40.693h6.039c.57 0 1.035-.474 1.035-1.056v-7.546c0-.582-.465-1.056-1.035-1.056h-6.039c-.571 0-1.034.474-1.034 1.056v7.546c0 .583.463 1.056 1.034 1.056m.12-7.452c0-.511.405-.925.907-.925h3.984c.502 0 .908.414.908.925v5.246c0 .512-.406.926-.908.926h-3.984c-.502 0-.907-.414-.907-.926v-5.246"/><path d="m28.981 40.693h6.037c.572 0 1.035-.474 1.035-1.056v-7.546c0-.582-.463-1.056-1.035-1.056h-6.037c-.57 0-1.033.474-1.033 1.056v7.546c0 .583.463 1.056 1.033 1.056m.119-7.452c0-.511.406-.925.908-.925h3.984c.502 0 .908.414.908.925v5.246c0 .512-.406.926-.908.926h-3.984c-.502 0-.908-.414-.908-.926v-5.246"/><path d="m39.252 40.693h6.037c.572 0 1.035-.474 1.035-1.056v-7.546c0-.582-.463-1.056-1.035-1.056h-6.037c-.572 0-1.035.474-1.035 1.056v7.546c0 .583.463 1.056 1.035 1.056m.119-7.452c0-.511.406-.925.908-.925h3.984c.502 0 .908.414.908.925v5.246c0 .512-.406.926-.908.926h-3.984c-.502 0-.908-.414-.908-.926v-5.246"/><path d="m49.523 40.693h6.037c.57 0 1.035-.474 1.035-1.056v-7.546c0-.582-.465-1.056-1.035-1.056h-6.037c-.572 0-1.035.474-1.035 1.056v7.546c0 .583.463 1.056 1.035 1.056m.12-7.452c0-.511.406-.925.906-.925h3.986c.5 0 .906.414.906.925v5.246c0 .512-.406.926-.906.926h-3.986c-.5 0-.906-.414-.906-.926v-5.246"/></svg>