<svg xmlns="http://www.w3.org/2000/svg" viewBox="0 0 64 64" enable-background="new 0 0 64 64"><path d="m61.995 3.877l-.062-1.805-1.812-.069c0 0-.098-.003-.285-.003-2.637 0-16.43.638-29.02 13.224-3.371 3.368-6.324 6.899-8.715 10.356-9.157-3.708-20.101 7.228-20.101 7.228s8.415-3.505 14.489 3.768c-.448 1.541-.649 2.875-.671 4.032l-1.656 1.657c-.485.485-.446 1.313.039 1.799l.399.398-1.142 1.143c-.279.279-.363.705-.163 1.021-.807-.155-1.975.38-4.369 1.269-3.027 1.123-3.585 3.677-3.585 3.677s.976.479 2.406.624c-1.828 2.644-1.409 5.448-1.409 5.448s2.806.418 5.449-1.408c.145 1.43.624 2.405.624 2.405s2.557-.559 3.679-3.587c.902-2.43 1.44-3.597 1.261-4.403.329.164.773.133 1.029-.123l1.143-1.144.479.479c.487.485 1.235.446 1.719-.041l1.68-1.677c1.217-.025 2.555-.253 3.988-.668 7.338 6.075 3.813 14.523 3.813 14.523s10.969-10.965 7.22-20.128c3.423-2.36 6.95-5.307 10.347-8.701 13.605-13.598 13.249-28.66 13.226-29.294m-45.99 48.586c-.623 1.68-2.039 1.99-2.039 1.99s-.367-.759-.364-1.793c-1.528 1.213-3.253.973-3.253.973s-.239-1.725.974-3.253c-1.036.002-1.794-.364-1.794-.364s.31-1.416 1.99-2.039c1.292-.479 1.934-.764 2.38-.7l2.809 2.808c.063.445-.223 1.087-.703 2.378m7.154-6.246c-.636 0-1.211-.088-1.754-.224l-3.44-3.44c-1.352-5.55 4.495-16.231 14.224-25.957 5.275-5.273 10.796-8.349 15.521-10.146l9.836 9.836c-1.797 4.722-4.873 10.24-10.149 15.513-8.796 8.792-18.378 14.418-24.238 14.418"/><path d="m42.261 16.88c-2.683 0-4.854 2.173-4.854 4.854-.002 2.679 2.173 4.853 4.854 4.853 2.679 0 4.855-2.174 4.855-4.853 0-2.682-2.177-4.854-4.855-4.854m0 8.088c-1.789 0-3.236-1.45-3.236-3.234 0-1.787 1.447-3.237 3.236-3.237 1.786 0 3.236 1.449 3.236 3.237 0 1.784-1.45 3.234-3.236 3.234"/><path d="m32.551 26.585c-2.681.002-4.854 2.174-4.855 4.854.001 2.68 2.174 4.853 4.854 4.853 2.68 0 4.854-2.173 4.854-4.853.001-2.679-2.173-4.853-4.853-4.854m-.001 8.088c-1.785.001-3.236-1.446-3.236-3.234s1.447-3.235 3.236-3.235 3.236 1.447 3.236 3.236c0 1.787-1.447 3.234-3.236 3.233"/><circle cx="46.905" cy="7.938" r=".809"/><circle cx="49.195" cy="10.225" r=".808"/><circle cx="51.484" cy="12.513" r=".81"/><circle cx="53.771" cy="14.8" r=".81"/><path d="m56.634 16.516c-.319-.316-.829-.315-1.146 0-.317.315-.317.828 0 1.145.316.315.826.314 1.146 0 .316-.317.314-.829 0-1.145"/></svg>