<svg xmlns="http://www.w3.org/2000/svg" viewBox="0 0 64 64" enable-background="new 0 0 64 64"><path d="m32 32.001v-1h-1v-.318c2.898-.584 5.513-1.982 7.605-4.076l.707-.707-.74-.74c2.129-2.457 3.428-5.654 3.428-9.16 0-7.732-6.268-14-14-14s-14 6.268-14 14c0 3.506 1.297 6.702 3.426 9.159l-.741.741.708.707c2.095 2.094 4.71 3.492 7.607 4.076v.318h-1v1h-10v6 6h10v7h1v1.999h1v9h4v-9h1v-1.999h1v-1h18v-6-6-6h-18m10.57 1.529h6.158v1h-6.158v-1m6.159 1.995v1h-10.096v-1h10.096m-13.526-1.995h6.158v1h-6.158v-1m-13.203-24.53c0-1.1.9-2 2-2h8c1.1 0 2 .9 2 2v8c0 .734-.405 1.373-1 1.72v2.28c0 .55-.451 1-1 1-.551 0-1-.45-1-1v-2h-6v2c0 .55-.451 1-1 1-.551 0-1-.45-1-1v-2.28c-.595-.348-1-.986-1-1.72v-8m4.142 19.851c-2.473-.354-4.735-1.379-6.601-2.978l1.419-1.419c1.971 1.646 4.436 2.542 7.039 2.542 2.605 0 5.069-.896 7.039-2.541l1.42 1.418c-1.863 1.599-4.127 2.623-6.6 2.978l-.858.123v2.027h-2v-2.027l-.858-.123m-6.626 4.711h3.313v2.964h-3.313v-2.964m-3.576 0h1.625v2.964h-1.625v-2.964m3.313 8.937h-3.313v-2.998h3.313v2.998m3.575.001h-1.656v-2.998h1.656v2.998m7.172 6.501h-1v1.999h-2v-1.999h-1v-16h4v16m13.85-.503h-10.597v-1h10.597v1m4.879 0h-3.701v-1h3.701v1m0-1.994h-11.315v-1h11.314v1zm-7.231-6.001v-1h7.23v1h-7.23m7.231.994v1h-3.769v-1h3.769m-4.845 0v1h-3.769v-1h3.769m-3.728-.994h-7.23v-1h7.23v1m-.926.994v1h-3.768v-1h3.768"/><path d="m25 13h6c.549 0 1-.45 1-1v-2c0-.55-.451-1-1-1h-6c-.551 0-1 .45-1 1v2c0 .55.449 1 1 1"/><circle cx="25" cy="16" r="1"/><circle cx="31" cy="16" r="1"/></svg>