<svg xmlns="http://www.w3.org/2000/svg" viewBox="0 0 64 64" enable-background="new 0 0 64 64"><path d="m30.873 19.986v-9.476c-.148-.792-19.391 2.355-19.24 3.147v9.476c.15.793 19.39-2.354 19.24-3.147"/><path d="m52.367 23.134v-9.476c.152-.792-19.09-3.939-19.24-3.147v9.475c-.15.793 19.09 3.94 19.24 3.148"/><ellipse cx="12.439" cy="26.402" rx="1.574" ry="1.535"/><path d="m17.018 51.689l7.441 1.278.369-2.039-7.441-1.278z"/><path d="m39.172 50.928l.369 2.039 7.441-1.278-.369-2.039z"/><ellipse cx="51.562" cy="26.401" rx="1.575" ry="1.535"/><ellipse cx="32" cy="27.291" rx="3.352" ry="3.265"/><path d="m29.713 36.271c0 1.23 1.025 2.229 2.287 2.229s2.287-.998 2.287-2.229-1.025-2.226-2.287-2.226-2.287.996-2.287 2.226m3.359 0c0 .576-.48 1.045-1.072 1.045-.59 0-1.07-.469-1.07-1.045 0-.574.48-1.043 1.07-1.043.592.001 1.072.469 1.072 1.043"/><path d="m45.379 30.195l-.285 1.57c-.084.462.299.914.852 1.009l8.008 1.376c.553.094 1.07-.203 1.152-.664l.285-1.571c.084-.462-.297-.913-.852-1.008l-8.008-1.376c-.552-.095-1.07.203-1.152.664"/><path d="m49.994 52.668v-.167l6.236 9.499h5.77l-8.065-10.567c1.839-.619 2.839-1.518 2.839-2.958v-4.107-2-2-6.076c.02-.071.045-.14.059-.214l.384-2.125c.102-.561-.022-1.127-.351-1.596-.027-.04-.063-.071-.092-.109v-17.87c0-1.725-1.824-2.371-3.289-2.89-.344-.122-.719-.245-1.113-.369v-.695c0-.304-2.428-1.125-6.088-1.887.015-.143.043-.281.043-.428 0-2.266-1.88-4.109-4.191-4.109-2.029 0-3.726 1.423-4.107 3.306-1.959-.184-3.99-.306-6.029-.306-2.038 0-4.068.122-6.025.306-.382-1.883-2.079-3.306-4.108-3.306-2.312 0-4.191 1.843-4.191 4.109 0 .146.028.285.043.427-3.661.762-6.088 1.583-6.088 1.887v.694c-.396.124-.77.248-1.113.369-1.466.519-3.29 1.165-3.29 2.89l.002 17.868c-.03.039-.066.07-.095.111-.327.469-.451 1.035-.35 1.596l.384 2.124c.014.077.039.149.062.222v6.069h-.003v2 6.107c0 1.44 1 2.339 2.839 2.959l-8.067 10.568h5.771l6.235-9.497v.165c0 1.284.793 2.338 2.341 3.167l-3.908 6.165h39.121l-3.906-6.166c1.549-.828 2.34-1.882 2.34-3.166m-7.863-14.307v.199c0 .689-1.045 1.156-1.596 1.248-.754.126-1.662.228-2.66.308 0-.52 0-1.109 0-1.755h4.256m-4.256-2.09c0-.568 0-1.157 0-1.756.998.081 1.906.183 2.66.309.551.092 1.596.559 1.596 1.248v.199h-4.256m18.357-4.497l-.385 2.124c-.101.556-.598.949-1.16.949-.067 0-.136-.006-.205-.018l-9.273-1.594c-.641-.109-1.068-.706-.957-1.331l.385-2.122c.101-.558.598-.949 1.16-.949.068 0 .137.006.207.018l9.273 1.592c.641.112 1.069.706.955 1.331m-14.097-28.774c1.762 0 3.191 1.392 3.191 3.109 0 1.717-1.43 3.109-3.191 3.109s-3.191-1.393-3.191-3.109c-.001-1.717 1.429-3.109 3.191-3.109m-20.268 0c1.762 0 3.191 1.392 3.191 3.109 0 1.717-1.43 3.109-3.191 3.109s-3.191-1.393-3.191-3.109c0-1.717 1.429-3.109 3.191-3.109m-2.585 6.32c.714.554 1.604.899 2.585.899 1.428 0 2.688-.707 3.445-1.779 2.172-.229 4.428-.374 6.688-.374.002 0 .004 0 .006 0 2.259 0 4.514.144 6.684.373.757 1.073 2.018 1.78 3.445 1.78.98 0 1.871-.345 2.585-.899 5.848 1.095 10.054 2.581 10.054 3.058v16.966l-8.601-1.477c-.126-.021-.252-.032-.376-.032-1.059 0-1.959.745-2.145 1.772l-.384 2.121c-.102.563.024 1.131.354 1.601.334.478.838.795 1.418.894l9.272 1.594c.127.021.251.032.374.032.029 0 .057-.007.086-.007v.431h-10.52v-.832c0-1.039-1.262-1.742-1.928-1.879-1.215-.253-2.752-.444-4.449-.575 0-4.186 0-8.49 0-9.903 0-2.539-11.748-2.539-11.748 0 0 1.153 0 5.581 0 9.903-1.698.131-3.235.322-4.449.575-.666.137-1.928.84-1.928 1.879v.832h-10.52v-.431c.028 0 .056.007.084.007.123 0 .248-.011.373-.032l9.273-1.594c.578-.099 1.082-.416 1.418-.893.329-.471.455-1.038.354-1.601l-.385-2.124c-.184-1.025-1.085-1.771-2.143-1.771-.124 0-.25.011-.376.032l-8.6 1.477v-16.966c0-.477 4.206-1.962 10.054-3.057m12.718 22.743c-2.705 0-4.898-2.137-4.898-4.772s2.193-4.772 4.898-4.772 4.898 2.137 4.898 4.772-2.193 4.772-4.898 4.772m3.344 4.208c0 1.801-1.498 3.26-3.344 3.26s-3.342-1.459-3.342-3.26c0-1.797 1.496-3.256 3.342-3.256s3.344 1.46 3.344 3.256m-11.879 3.538c-.551-.092-1.594-.559-1.594-1.248v-.199h4.256c0 .646 0 1.234 0 1.755-1-.081-1.906-.182-2.662-.308m-1.594-3.538v-.199c0-.689 1.043-1.156 1.594-1.248.756-.126 1.662-.228 2.662-.309 0 .599 0 1.187 0 1.756h-4.256m-13.719-2.373l-.384-2.124c-.113-.625.314-1.22.956-1.331l9.273-1.592c.07-.012.139-.018.207-.018.562 0 1.059.392 1.158.949l.385 2.122c.113.625-.314 1.222-.957 1.331l-9.271 1.595c-.068.012-.137.018-.204.018-.562 0-1.061-.394-1.163-.95m39.842 18.77c0 1.7-4.498 2.763-10.121 3.188v-2.889h-11.746v2.889c-5.623-.425-10.121-1.487-10.121-3.188v-2.161c-4.078-.459-6.778-1.137-6.778-2.032v-3.325h15.54v3.725h3.02v2.686h2.143v-2.686h4.141v2.686h2.145v-2.686h3.018v-3.725h15.541v3.324c0 .896-2.699 1.573-6.779 2.032v2.162z"/><path d="m10.049 34.15l8.008-1.376c.553-.097.934-.549.85-1.011l-.283-1.568c-.084-.461-.6-.76-1.154-.664l-8.01 1.376c-.552.095-.934.546-.851 1.008l.284 1.571c.084.461.602.758 1.156.664"/><path d="m21.865 8.235c1.205 0 2.184-.951 2.184-2.126s-.979-2.127-2.184-2.127c-1.203 0-2.182.952-2.182 2.127s.979 2.126 2.182 2.126"/><ellipse cx="42.135" cy="6.109" rx="2.184" ry="2.126"/></svg>