<svg xmlns="http://www.w3.org/2000/svg" viewBox="0 0 64 64" enable-background="new 0 0 64 64"><path d="m19.465 32.089h25.07c.92 0 1.668-.748 1.668-1.668v-8.611c0-.92-.748-1.668-1.668-1.668h-25.07c-.92 0-1.668.748-1.668 1.668v8.611c0 .92.748 1.668 1.668 1.668"/><path d="m32 2c-16.568 0-30 13.432-30 30s13.432 30 30 30 30-13.432 30-30-13.432-30-30-30m-14.724 53.802c-1.729-1.074-3.333-2.332-4.785-3.744l2.651-3.472c.809.518 1.765.827 2.795.827h3.527l-4.188 6.389m.662-8.389c-1.766 0-3.197-1.425-3.197-3.182v-23.548c0-6.288 8.63-9.432 17.26-9.432 8.629 0 17.258 3.144 17.258 9.432v23.549c0 1.757-1.432 3.182-3.195 3.182h-28.126zm28.787 8.389l-4.188-6.389h3.526c1.03 0 1.985-.309 2.793-.826l2.653 3.472c-1.452 1.412-3.055 2.67-4.784 3.743"/><path d="m23.436 38.582h-4.713c-1.08 0-1.959.873-1.959 1.949s.879 1.949 1.959 1.949h4.713c1.082 0 1.959-.873 1.959-1.949s-.877-1.949-1.959-1.949m-2.356 3.62c-.924 0-1.672-.748-1.672-1.671s.748-1.671 1.672-1.671c.922 0 1.67.748 1.67 1.671s-.748 1.671-1.67 1.671"/><path d="m47.234 40.531c0-1.076-.877-1.949-1.957-1.949h-4.715c-1.082 0-1.957.873-1.957 1.949s.875 1.949 1.957 1.949h4.715c1.08 0 1.957-.873 1.957-1.949m-4.314 1.671c-.924 0-1.672-.748-1.672-1.671s.748-1.671 1.672-1.671 1.672.748 1.672 1.671-.748 1.671-1.672 1.671"/></svg>