<svg xmlns="http://www.w3.org/2000/svg" viewBox="0 0 64 64" enable-background="new 0 0 64 64"><path d="M25.346,14C14.488,14,2,37.428,2,50.605c0,1.869,0.876,4.215,2.234,5.855H2v1.848V62h60v-3.691v-1.848H7.735
		C5.64,56.399,4,52.713,4,50.605c0-0.476,0.021-0.967,0.054-1.465h8.176c0,0,13.182,0,13.182-7.32c0-5.49,0-21.964,0-21.964H17.86
		C20.377,17.469,22.959,16,25.346,16H62v-2C62,14,48.875,14,25.346,14z"/><path d="m34.226 35.23v13.91h27.774v-29.284c0 0-18.619 0-20.45 0-7.324 0-7.324 1.464-7.324 15.374"/><ellipse cx="6.395" cy="52.801" rx=".732" ry="2.197"/></svg>