<svg xmlns="http://www.w3.org/2000/svg" viewBox="0 0 64 64" enable-background="new 0 0 64 64"><path d="m6.12 49.896c-.266-.213-1.504-.751-1.504-.751v3.63c0 0 1.238-.537 1.504-.751.801-.641.801-1.486 0-2.128"/><path d="m4.616 39.352v2.722c0 0 .782-.403.95-.563.506-.48.506-1.113 0-1.596-.168-.161-.95-.563-.95-.563"/><path d="m14.898 20.941h7.5v4.538h-7.5z"/><path d="m14.898 27.294h7.5v4.538h-7.5z"/><path d="m24.143 20.941h7.5v4.538h-7.5z"/><path d="m24.143 27.294h7.5v4.538h-7.5z"/><path d="m33.518 20.941h7.5v4.538h-7.5z"/><path d="m33.518 27.294h7.5v4.538h-7.5z"/><path d="m42.893 20.941h7.5v4.538h-7.5z"/><path d="m42.893 27.294h7.5v4.538h-7.5z"/><path d="m51.688 20.941h7.5v4.538h-7.5z"/><path d="m51.688 27.294h7.5v4.538h-7.5z"/><path d="m59.931 16h-55.672c-1.148 0-1.968.945-2.259 2.026v25.579h3.75v.907h-3.75v.908h3.75v.908h-3.75v.906h3.75v.908h-3.75v8.518h9.547c.804 3.068 3.63 5.34 7.005 5.34 3.375 0 6.201-2.271 7.005-5.34h17.024c.804 3.068 3.632 5.34 7.005 5.34 3.374 0 6.201-2.271 7.005-5.34h5.409v-38.627c0-1.117-.932-2.033-2.069-2.033m-41.379 42.442c-1.997 0-3.621-1.593-3.621-3.558s1.625-3.557 3.621-3.557c1.997 0 3.621 1.592 3.621 3.557s-1.624 3.558-3.621 3.558m31.034 0c-1.999 0-3.619-1.593-3.619-3.558s1.62-3.557 3.619-3.557c2 0 3.619 1.592 3.619 3.557s-1.619 3.558-3.619 3.558m10.539-5.397h-2.484c-.849-3.604-4.129-6.293-8.055-6.293s-7.205 2.688-8.055 6.293h-14.925c-.849-3.604-4.129-6.293-8.055-6.293s-7.206 2.688-8.055 6.293h-6.621v-3.995h2.813v-6.353h-2.813v-4.334h1.25v-3.727h11.895l-1.32 1.279v.561h-2.417v3.773h2.417v.563l3.361 3.253h-5.488v1.017h46.552v7.963m-33.175-16.744v4.127l-3.019 2.922h-4.275l-3.019-2.922v-4.127l3.019-2.922h4.275l3.019 2.922m33.175 7.764h-35.599l3.361-3.253v-.953h32.237v4.206zm0-5.702v.48h-32.237v-2.928l-1.321-1.279h33.559v3.727zm0-4.741h-34.607l-1.201-1.163h-5.045l-1.202 1.163h-12.945v-12.681h-1.25v-2.631c.124-.306.307-.471.384-.471h55.672c.103 0 .194.092.194.193v15.59"/><path d="m20.046 34.279l-2.471 2.393v3.384l2.471 2.392h3.495l2.472-2.392v-3.384l-2.472-2.393z"/><path d="m6.688 20.941h6.334v10.891h-6.334z"/></svg>