<svg xmlns="http://www.w3.org/2000/svg" viewBox="0 0 64 64" enable-background="new 0 0 64 64"><path d="m61.607 14.391c-.435-.632-1.172-.994-2.024-.994-1.969 0-6.444 4.089-8.174 5.741h-2.548l-.627-.813c-.576-.746-1.637-.746-2.354 0-.234.243-.385.524-.467.813h-.178c-1.729 0-3.284-.917-3.836-1.566-.923-1.09-2.979-2.262-5.314-2.262h-7.665l-.196-.624c-.133-.673-.695-1.227-1.246-1.227h-1.004v-.956c.256 0 .486-.109.653-.283 9.688.332 19.706 3.556 19.706 3.556.975.314 1.773-.365 1.773-1.508 0-1.144-.822-2.21-1.826-2.373 0 0-9.876-1.589-19.516-1.768-.158-.29-.447-.495-.791-.495v-.718c.509 0 .923-.432.923-.956.001-.527-.413-.958-.921-.958h-1.844c-.506 0-.922.431-.922.958 0 .524.416.956.922.956v.718c-.342 0-.629.204-.789.493-10.38.164-19.52 1.749-19.52 1.749-1.002.173-1.822 1.25-1.822 2.394 0 1.143.793 1.804 1.763 1.469 0 0 9.272-3.214 19.714-3.521.168.176.398.287.654.287v.956h-1.003c-.552 0-1.113.554-1.247 1.227l-.195.624h-.281c-10.97 0-18.341 11.224-18.341 27.929 0 2.964 2.812 4.734 5.53 4.734h2.839c-.764 2.128-1.026 4.459-1.104 6.557h-2.797c0 0-3.688.237-4.61-3.996h-.922c0 0 0 6.454 5.46 6.454.026.001.047.012.072.012h28.587c.508 0 .922-.85.922-1.294 0-.442-.414-1.177-.922-1.177h-5.563c-.079-2.114-.343-4.468-1.121-6.608 2.178-.249 4.729-1.566 6.087-3.223.046-.057 4.612-5.744 6.188-7.553.476-.546.982-1.195 1.52-1.884 1.898-2.438 4.26-5.471 6.721-5.471h1.691l2.139 1.339c.461.376.979.575 1.502.575.527 0 1.006-.206 1.385-.563.367-.046.736-.22 1.044-.539.643-.666.706-1.614.198-2.235l3.946-11.809c.257-.771.167-1.562-.249-2.167m-49.048 40.138c.085-2.062.376-4.504 1.209-6.557h13.349c.834 2.053 1.123 4.495 1.211 6.557h-15.769m39.631-26.779h-2.239c-3.4 0-6.09 3.454-8.252 6.228-.512.658-.994 1.279-1.447 1.799-1.604 1.841-6.053 7.381-6.234 7.607-1.133 1.381-3.558 2.548-5.294 2.548h-.224c-.436-.733-.945-1.423-1.582-2.027-.947-.898-2.516.414-1.574 1.308.229.218.43.467.626.72h-11.055c.197-.253.397-.502.626-.72.94-.894-.628-2.206-1.573-1.308-.637.604-1.147 1.294-1.583 2.027h-3.791c-1.437 0-3.563-.855-3.563-2.693 0-15.484 6.58-25.888 16.374-25.888h14.682c1.73 0 3.285.917 3.838 1.568.923 1.088 2.979 2.259 5.313 2.259h1.137l3.461 2.877c.045.038.102.092.148.133-.018.104-.031.21-.031.32 0 1.057.826 1.913 1.844 1.913.104 0 .204-.016.303-.032.028.035.066.076.092.109l1.881 2.438-1.883-1.186m7.808-11.858l-3.706 11.088-2.537-2.107c-.042-.035-.094-.086-.139-.124.011-.08.023-.159.023-.241 0-1.058-.825-1.914-1.845-1.914-.08 0-.158.015-.236.025-.051-.062-.113-.132-.158-.189l-.965-1.252h1.748l.283-.274c2.711-2.627 6.217-5.45 7.116-5.466.241 0 .378.074.422.138.043.06.039.178-.006.316"/><path d="m26.897 32.119h3.688c.508 0 .922-.43.922-.956v-11.962c0-.526-.414-.957-.922-.957h-3.688c-.507 0-.923.431-.923.957v11.962c.001.526.417.956.923.956"/><path d="m24.131 30.206l.047-10.061c0 0 0-1.913-1.891-1.913-13.208 0-14.609 13.887-14.609 13.887h14.609c1.019 0 1.844-.856 1.844-1.913"/><path d="m6.091 40.493h29.266c.945-1.168 2.129-2.623 3.127-3.827h-32.014c0 0-.379 2.14-.379 3.827"/></svg>