<svg xmlns="http://www.w3.org/2000/svg" viewBox="0 0 64 64" enable-background="new 0 0 64 64"><path d="M2.162 61 62 61 62 41.532 2.162 56.198z"/><path d="M2.162 52.614 62 40.863 62 40.142 2.162 48.54z"/><path d="m42.308 5.1c-1.233-.634-3.839-1.509-5.165-1.75-.76-.138-1.727-.235-2.827-.292-1.142-.058-2.431-.073-3.783-.042-5.58.121-10.861.577-14.027 2.357-1.498.842-2.485 1.859-3.398 2.795-2.697 2.765-4.761 6.118-6.273 9.542-3.24 7.336-7.315 16.58-2.895 20.58.055.057.11.113.169.169.014.011.023.025.038.037h.005c.521.479 1.166.875 1.954 1.059l-.028.001c0 0 .469.314.831.809l-4.747.292v2.64l4.318-.313c-.72.933.613 2.457 4.339 2.101 12.806-1.229 51.181-5.178 51.181-5.178v-3.501l-58.167-.945c-.093-.271-.166-.555-.218-.853 3.66 0 9.976 0 12.623 0 3.56 0 10.496-2.438 13.923-3.598 3.767-1.274 10.903-5.515 14.771-6.223.72-.132 2.187.06 2.905.194.938.176 2.301.539 3.834.99v-7.251c-1.467-.671-2.778-1.194-3.713-1.418-.653-.157-2.024-.228-2.663 0-4.417 1.569-11.64 9.063-15.861 11.278-3.25 1.706-10.055 4.86-13.601 4.86-2.563 0-8.768 0-12.332 0-.047-1.856.442-4.072 1.194-6.39-.013.055-.031.115-.044.17.261.56.619.913 1 .89.689-.039 1.177-1.25 1.094-2.703-.051-.901-.315-1.664-.669-2.117.363-.901.74-1.796 1.117-2.668.05.492.371 1.055.772 1.055 1.008 0 6.548 0 9.241 0 1.292 0 3.908-1.808 5.025-2.589 3.064-2.144 8.847-7.774 11.845-10.051.062-.047.136-.102.212-.155 1.959 1.584 3.943 4.093 3.943 4.093s3.65-2.433 5.006-2.674c1.035-.183 3.215.077 4.156.633 1.794 1.06 11.76 7.628 14.607 9.508v-1.341c0 0-14.436-11.296-19.692-14.001"/><path d="m54.857 26.953v-6.676c-.734-.377-1.469-.743-2.18-1.085v7.082c.712.216 1.446.446 2.18.679"/><path d="m57.582 27.84v-6.123c-.553-.3-1.12-.603-1.695-.904v6.472c.575.186 1.142.371 1.695.555"/><path d="m60.639 28.868c.511.175.97.332 1.361.469v-5.151c-.392-.226-.852-.488-1.361-.776v5.458"/><path d="m59.943 28.632v-5.614c-.494-.277-1.022-.57-1.574-.873v5.956c.552.184 1.078.363 1.574.531"/><path d="m20.744 24.066c-1.621 1.637-2.129 3.775-1.137 4.778.995 1.004 3.111.489 4.73-1.146 1.62-1.637 2.128-3.775 1.135-4.778-.994-1.003-3.11-.489-4.728 1.146"/></svg>