<svg xmlns="http://www.w3.org/2000/svg" viewBox="0 0 64 64" enable-background="new 0 0 64 64"><path d="m27.296 41.335c0-.685-.184-1.319-.482-1.871h-6.885c-.301.552-.484 1.187-.484 1.871 0 .687.184 1.32.485 1.874h6.882c.3-.554.484-1.188.484-1.874m-1.138.874h-2.958c-.092-.284-.139-.576-.139-.874 0-.297.047-.588.138-.871h2.96c.092.283.137.575.137.871 0 .298-.046.59-.138.874"/><path d="m57.835 32l-31.729 17.451c3.113-2.948 5.066-7.533 5.896-13.469.01-.067.021-.141.03-.209l25.802-7.287v-1.463l-1.746.453v-7.145c0-1.03-.678-2.299-1.506-2.819l-5.711-3.586c-.829-.521-1.507-.103-1.507.927v14.887l-2.184.566c.269-.395.438-.865.438-1.342v-17.072c0 0-1.553-.984-2.434-1.544-1.986-1.266-4.446 5.879-5.157 8.24-1.448 4.814-2.708 12.869-2.708 12.869-.094.589.088 1.049.435 1.295l-3.417.887c1.219-8.489 3.043-19.449 6.242-24.516h-19.112c4.895-4.456 8.749-5.123 12.192-5.123 10.687 0 26.176 15.146 26.176 15.146v-2.161c0 0-13.958-14.985-26.176-14.985-3.825 0-8.727.624-15.077 7.123-2.442 2.503-5.091 5.874-7.813 10.421-2.227 3.718-4.475 9.056-5.629 14.399-1.506 6.979-1.14 13.967 3.61 17.375l-4.75 1.923v8.759h60v-30h-4.165m-51.33 16.364c-1.038-1.286-1.702-3.035-1.988-5.155h6.59c.3-.554.484-1.188.484-1.874 0-.685-.184-1.319-.482-1.871h-6.711c.057-1.114.18-2.284.391-3.521h25.2c-1.02 6.969-3.59 11.611-7.617 13.786-2.201 1.148-4.807 1.73-7.744 1.73-3.732.001-6.464-1.041-8.123-3.095m.851-7.029c0-.296.047-.587.138-.871h2.961c.091.283.137.575.137.871 0 .298-.046.59-.138.874h-2.959c-.092-.285-.139-.577-.139-.874m52.644 18.665h-38.546v-4.889h38.546v4.889"/></svg>