<svg xmlns="http://www.w3.org/2000/svg" viewBox="0 0 64 64" enable-background="new 0 0 64 64"><path d="m23.563 28.543c0-3.28-9.375-3.28-9.375 0v11.25h9.375v-11.25m-1.875 9.023h-5.625v-7.5c0-2.344 5.625-2.344 5.625 0v7.5"/><path d="m34.813 28.543c0-3.28-9.375-3.28-9.375 0v11.25h9.375v-11.25m-1.875 9.023h-5.625v-7.5c0-2.344 5.625-2.344 5.625 0v7.5"/><path d="m46.063 28.543c0-3.28-9.375-3.28-9.375 0v11.25h9.375v-11.25m-1.875 9.023h-5.625v-7.5c0-2.344 5.625-2.344 5.625 0v7.5"/><path d="m57.313 28.543c0-3.28-9.375-3.28-9.375 0v11.25h9.375v-11.25m-1.875 9.023h-5.625v-7.5c0-2.344 5.625-2.344 5.625 0v7.5"/><path d="m2 58.25h60v3.75h-60z"/><path d="m17.469 56.375h-6.563-8.906v.938h60v-.938h-8.906-6.563z"/><path d="m62 2h-60v1.875h30.072l2.946 3.77-4.599 7.48h-4.98v3.75h-2.813v-1.406h-9.101v1.406h-4.511v-3.359h-3.203v4.586c-.613.668-.998 1.55-.998 2.523v2.521 2.226 12.07 2.227 4.331c0 0-1.893 0-1.893 2.813v3.148 1.602.398h5.214c.195 1.362 1.356 2.414 2.772 2.414s2.577-1.052 2.772-2.414h1.018c.195 1.362 1.356 2.414 2.772 2.414s2.577-1.052 2.772-2.414h23.517c.195 1.362 1.357 2.414 2.773 2.414s2.576-1.052 2.771-2.414h1.018c.195 1.362 1.357 2.414 2.773 2.414s2.576-1.052 2.771-2.414h3.322v-.398-1.602-5.711-.25-23.375c0-2.063-1.688-3.75-3.75-3.75h-2.48v-1.836h-9.102v1.836h-5.293v-3.606l3.676-5.977-.006-.004.008-.005-4.228-5.408h23.99v-1.875m-26.416 6.367l2.938 3.758-1.846 3h-5.249l4.157-6.758m-29.271 19.139c1.667.267 4.125 1.068 4.125 3.498v8.438h-4.125v-11.936m4.593 26.994c-.518 0-.938-.419-.938-.938 0-.518.42-.938.938-.938.519 0 .938.42.938.938 0 .519-.419.938-.938.938m6.563 0c-.518 0-.938-.419-.938-.938 0-.518.42-.938.938-.938.519 0 .938.42.938.938-.001.519-.42.938-.938.938m29.062 0c-.518 0-.938-.419-.938-.938 0-.518.42-.938.938-.938s.938.42.938.938c0 .519-.42.938-.938.938m6.563 0c-.518 0-.938-.419-.938-.938 0-.518.42-.938.938-.938s.938.42.938.938c-.001.519-.421.938-.938.938m4.594-2.539h-1.576l-1.612-2.148h-9.375l-1.611 2.148h-23.027l-1.612-2.148h-9.375l-1.611 2.148h-3.469v-3.148c0-.742.178-1.252.455-1.313h52.813v4.461m0-27.836v20.625h-51.375v-3.082h6v-12.188c0-2.957-3.813-3.897-6-4.196v-1.16h51.375zm-17.555-14.621l-1.131 1.84-5.84-7.469h2.57l4.401 5.629"/></svg>