<svg xmlns="http://www.w3.org/2000/svg" viewBox="0 0 64 64" enable-background="new 0 0 64 64"><path d="M10.127,22.279c-2.417,0-4.375,1.959-4.375,4.375L5.75,38.85l11.813-1.23v-15.34H10.127z"/><path d="m32.876 22.279h11.813v14.838h-11.813z"/><path d="m31.126 22.279h-11.812v15.159l3.074-.321h8.738z"/><path d="m58.252 26.654c0-2.416-1.958-4.375-4.376-4.375h-7.438v14.838h11.813l.001-10.463"/><path d="m49.585 47.299c-3.998 0-7.24 3.29-7.24 7.352 0 4.059 3.242 7.35 7.24 7.35 3.999 0 7.242-3.291 7.242-7.35 0-4.062-3.243-7.352-7.242-7.352m0 11.026c-2 0-3.619-1.646-3.619-3.675 0-2.029 1.619-3.676 3.619-3.676s3.62 1.646 3.62 3.676c0 2.029-1.62 3.675-3.62 3.675"/><path d="m18.55 47.299c-3.998 0-7.239 3.29-7.239 7.352 0 4.059 3.241 7.35 7.239 7.35 4.001 0 7.243-3.291 7.243-7.35 0-4.062-3.241-7.352-7.243-7.352m0 11.026c-1.996 0-3.619-1.646-3.619-3.675 0-2.029 1.624-3.676 3.619-3.676 1.998 0 3.623 1.646 3.623 3.676 0 2.029-1.625 3.675-3.623 3.675"/><path d="m44.169 48.309h-20.201c1.748 1.539 2.859 3.807 2.859 6.342 0 .629-.067 1.242-.197 1.832h14.879c-.129-.59-.199-1.203-.199-1.832 0-2.536 1.111-4.803 2.859-6.342"/><path d="m62 2h-60v1.875h30.072l2.947 3.77-4.601 7.48h-4.981v3.75h-18.748c-2.589 0-4.689 2.099-4.689 4.688v28.608h4.824v1.968h-4.824v2.344h8.474c-.129-.59-.197-1.203-.197-1.832 0-2.535 1.11-4.803 2.859-6.342h-9.261v-1.932l6.383-1.197v-4.617h-6.383l.002-17c0-1.551 1.261-2.813 2.813-2.813h50.625c1.551 0 2.813 1.262 2.813 2.813l-.002 14.762-1.873.625v5.727l1.873-.002v3.635h-5.122c1.748 1.539 2.859 3.807 2.859 6.342 0 .629-.07 1.242-.198 1.832h4.335v-32.92c0-2.588-2.097-4.688-4.686-4.688h-18.751v-3.604l3.677-5.979-.007-.004.007-.005-4.229-5.407h23.989v-1.877m-53.842 39.143c.91 0 1.651.878 1.651 1.963s-.741 1.963-1.651 1.963c-.712 0-.689 0-.689-1.963s-.025-1.963.689-1.963m-3.334 0c1.091 0 1.975 1.053 1.975 2.352s-.884 2.351-1.975 2.351c-.855 0-.829 0-.829-2.351.001-2.352-.028-2.352.829-2.352m31.853-26.018h-5.249l4.156-6.759 2.938 3.758-1.845 3.001m3.457-5.621l-1.131 1.838-5.84-7.468h2.568l4.403 5.63"/></svg>