<svg xmlns="http://www.w3.org/2000/svg" viewBox="0 0 64 64" enable-background="new 0 0 64 64"><path d="m54.615 62h5.385l-7.316-9.225c1-1.386 1.57-2.982 1.57-4.799v-7.296-1.622-16c0-8.41-7.732-13.068-16.419-14.481l1.499-3.888c1.131.426 1.935 1.465 1.935 2.684h2.625c0-2.963-2.552-5.373-5.688-5.373h-12.411c-3.137 0-5.688 2.41-5.688 5.372h2.625c0-1.218.805-2.258 1.936-2.684l1.498 3.888c-8.687 1.413-16.42 6.071-16.42 14.481l.001 16h-.001v8.919c0 1.816.57 3.413 1.571 4.799l-7.317 9.225h5.386l4.552-6.672c.907.652 1.936 1.23 3.054 1.738l-3.249 4.934h36.515l-3.248-4.934c1.119-.509 2.146-1.087 3.053-1.738l4.552 6.672m-16.831-57.521l-1.496 3.881c-1.425-.167-2.862-.252-4.288-.252-1.424 0-2.863.085-4.287.253l-1.496-3.881h11.567zm-5.784 5.629c9.756 0 20.254 4.052 20.254 12.95v15.622h-1.531v-17.605c0-1.559-37.444-1.559-37.444 0v17.605h-1.531l-.001-15.622c-.001-8.898 10.499-12.95 20.253-12.95m-20.254 30.95h40.508v6.919c0 6.512-10.188 9.918-20.254 9.918-10.064 0-20.254-3.406-20.254-9.918v-6.919"/><path d="m15.65 50.356h5.805c1.332 0 2.41-.924 2.41-2.063s-1.078-2.063-2.41-2.063h-5.805c-1.331 0-2.412.924-2.412 2.063s1.081 2.063 2.412 2.063m3.989-3.549h1.521c.962 0 1.739.666 1.739 1.487s-.777 1.487-1.739 1.487h-1.521c-.959 0-1.739-.666-1.739-1.487s.78-1.487 1.739-1.487"/><path d="m42.547 50.356h5.804c1.331 0 2.411-.924 2.411-2.063s-1.08-2.063-2.411-2.063h-5.804c-1.334 0-2.412.924-2.412 2.063s1.078 2.063 2.412 2.063m.293-3.549h1.523c.961 0 1.738.666 1.738 1.487s-.777 1.487-1.738 1.487h-1.523c-.959 0-1.738-.666-1.738-1.487s.779-1.487 1.738-1.487"/></svg>