<svg xmlns="http://www.w3.org/2000/svg" viewBox="0 0 64 64" enable-background="new 0 0 64 64"><path d="m38.439 12.302c.414-.161.784-.342 1.159-.587 1.113.339 2.382.373 3.495-.063.645-.237 1.209-.627 1.674-1.078.449-.472.829-.997 1.009-1.608-.537.321-1.044.588-1.567.772-.508.205-1.025.31-1.518.368-.99.105-1.936-.07-2.889-.426l-.557-.207-.457.384c-.283.237-.721.527-1.113.745-.411.218-.834.417-1.281.55-.893.299-1.881.336-3.023.146.73.9 1.982 1.408 3.24 1.375.626-.019 1.25-.147 1.828-.371"/><path d="m30.566 12.141c1.12-.306 2.058-1.187 2.233-2.227-.872.546-1.702.723-2.456.678-.758-.041-1.495-.284-2.256-.613l-.795-.343-.463.752c-.094.153-.324.436-.518.62-.205.205-.43.375-.686.527-.256.146-.555.283-.904.355-.354.094-.744.122-1.194.167.544.698 1.499 1.117 2.522.988.504-.061.994-.257 1.414-.536.201-.14.378-.282.544-.443.806.237 1.696.313 2.559.075"/><path d="m42.553 21.553h5.61v9.355h-5.61z"/><path d="m50.033 21.553h5.609v9.355h-5.609z"/><path d="m53.495 33.612v-.802h-8.794v.802c0 .989-.609 1.821-1.33 1.821h-.818v5.044h.818c.721 0 1.33.833 1.33 1.821v.803h8.794v-.803c0-.988.61-1.821 1.329-1.821h.818v-5.044h-.818c-.719.001-1.329-.831-1.329-1.821m.512 5.394c-1.02.339-1.815 1.293-2.065 2.49h-5.688c-.248-1.197-1.046-2.151-2.064-2.49v-2.101c1.019-.338 1.816-1.292 2.064-2.49h5.688c.25 1.198 1.046 2.152 2.065 2.49v2.101"/><path d="m62 18.746v-5.395h-13.058c.343-.652.601-1.358.747-2.111.393-2.037-.029-4.105-1.189-5.823s-2.921-2.881-4.956-3.275c-.487-.094-.985-.142-1.478-.142-2.237 0-4.373.985-5.84 2.666-.02-.004-.039-.008-.058-.011-.427-.083-.862-.125-1.294-.125-1.535 0-3.043.538-4.242 1.496-.479-.244-.986-.418-1.516-.521-.365-.071-.739-.106-1.109-.106-2.077 0-3.989 1.122-5.023 2.902-2.002.306-3.654 1.857-4.047 3.881-.008.046-.017.093-.023.14-1.202.188-2.187 1.114-2.423 2.34-.028.145-.035.291-.041.435h-1.013l1.869 3.742v10.229h-1.869v-.873h-6.545v.873c-3.051 0-4.966 7.088-5.648 10.135l-.046.209.042.208c.374 1.836 1.122 5.005 2.229 7.489h-.379v4.391h.844l-3.934 9.564h11.082v-2.939h1.009c.726 2.248 2.811 3.875 5.274 3.875 3.065 0 5.553-2.52 5.553-5.625 0-.702-.133-1.371-.365-1.991h1.642c.162.298.397.56.709.741l2.17 1.271c.87 3.228 3.78 5.604 7.244 5.604 3.274 0 6.031-2.136 7.063-5.096h.911c1.03 2.96 3.786 5.096 7.062 5.096 4.151 0 7.518-3.41 7.518-7.616 0-1.39-.385-2.679-1.026-3.798h3.996v-5.473h-1.46v-26.367h1.618m-44.53-3.895c.179-.924.988-1.566 1.896-1.566.121 0 .246.012.369.036.047.009.09.028.135.041-.021-.326-.017-.656.049-.99.352-1.817 1.924-3.085 3.701-3.127.775-1.72 2.493-2.848 4.389-2.848.303 0 .611.029.92.089.678.131 1.291.402 1.826.772 1.068-1.083 2.545-1.729 4.121-1.729.364 0 .734.034 1.105.106.213.041.42.096.623.159 1.252-1.724 3.274-2.794 5.463-2.794.425 0 .855.04 1.288.124 3.667.709 6.065 4.259 5.355 7.929-.163.845-.485 1.615-.917 2.301h-11.598v3.605c-.428.102-.863.172-1.314.172-.363 0-.731-.034-1.102-.106-1.254-.243-2.33-.877-3.139-1.748-.758.494-1.653.777-2.594.785l.48-.962h-11.078c.005-.085.006-.166.022-.249m20.345 3.895v10.323h-2.743c0-1.033-.838-1.871-1.869-1.871-1.034 0-1.87.838-1.87 1.871h-4.675v-10.23l.91-1.821c.146.011.293.042.439.042.857 0 1.7-.19 2.475-.557.889.761 1.949 1.274 3.107 1.499.427.082.861.124 1.291.124.445 0 .883-.06 1.314-.147v.766h1.621zm-22.377 12.318h22.378v14.049h-4.821c-2.735 0-4.75.671-5.995 1.996h-11.562v-16.045m-5.05-1.373h3.554v17.418h-3.554v-17.418m-5.151 9.741c1.086-4.729 2.844-8.367 3.654-8.367v16.045h-1.224c-.813-1.657-1.756-4.449-2.43-7.678m.698 18.853c-.118.5-.53.908-.918.908-.387 0-.556-.392-.376-.868l2.174-5.747c.181-.479.404-.869.498-.869.092 0 .072.409-.046.908l-1.332 5.668m3.639-5.648l-.67 5.628c-.06.511-.479.929-.93.929-.451 0-.725-.408-.607-.908l1.332-5.668c.118-.5.388-.908.599-.908.213-.001.336.416.276.927m2.16 5.621c0 .514-.342.936-.763.936-.419 0-.712-.418-.652-.929l.669-5.628c.061-.511.254-.928.429-.928.176 0 .317.421.317.936v5.613m7.076 1.435c-.803-.138-1.5-.566-1.998-1.174l.673-.395h1.325v1.569m.674-9.918v.229h-12.917v-1.398h13.316c-.246.326-.399.728-.399 1.169m.437 9.918v-2.343l1.999 1.17c-.499.607-1.195 1.036-1.999 1.173m2.558-2.147l-2.002-1.171 2.002-1.171c.135.366.219.757.219 1.171s-.085.805-.219 1.171m-1.086-4.788c-.51 0-.923-.42-.923-.936v-2.047c0-.518.413-.936.923-.936h8.754c.51 0 .924.418.924.936v2.047c0 .516-.414.936-.924.936h-8.754m14.173 6.119c-1.088-.186-2.03-.767-2.705-1.591l.652-.382h2.053v1.973m1.504 0v-1.973h2.053l.653.382c-.674.824-1.618 1.405-2.706 1.591m13.532 0c-1.088-.186-2.031-.766-2.706-1.591l.653-.382h2.053v1.973m1.503 0v-1.973h1.84c.063 0 .121-.013.182-.019l.684.4c-.674.825-1.618 1.406-2.706 1.592m1.84-2.971h-23.951l-2.599-1.645c-.2-.117-.329-.301-.396-.506h26.945c1.495.001 1.495 2.151.001 2.151m6.418-6.816h-28.437c-.275-.728-.965-1.248-1.779-1.248h-1.74c.99-.805 2.552-1.231 4.588-1.231h27.369v2.479zm-20.552-3.977v-25.12h18.575v25.121h-18.575zm-2.12-27.864v-2.401h22.813v2.401h-22.813"/></svg>