<svg xmlns="http://www.w3.org/2000/svg" viewBox="0 0 64 64" enable-background="new 0 0 64 64"><path d="m2 45.466h7.5v16.534h1.348v-16.534h4.687v16.534h1.466v-16.534h11.249v16.534h1.348v-16.534h4.687v16.534h1.465v-16.534h11.25v16.534h1.348v-16.534h4.687v16.534h1.465v-16.534h7.5v-1.406h-60z"/><path d="m4.813 36.527h3.75v1.875h-3.75z"/><path d="m12.313 36.527h3.75v1.875h-3.75z"/><path d="m62 24.092h-52.259c0-.648.23-1.406.632-2.232 3.065-.843 14.053-3.727 20.743-3.727 2.273 0 4.208-6.999 4.208-10.316 0-2.614-1.008-2.95-4.302-2.993 1.388-.522 2.648-.824 3.685-.824h27.293v-2h-27.293c-7.861 0-26.966 14.728-26.966 22.092 0 2.346 3.78 6.95 9.735 10.124h-15.476v.938h17.406c1.196.53 2.464.995 3.79 1.374h-3.383v1.875h3.75v-1.773c1.203.326 2.458.57 3.75.733v1.04h3.75v-.123c.707.54 1.465 1.065 2.287 1.561h-31.35v3.281h60v-7.528h-24.139c-3.092-1.35-5.265-3.32-7.277-5.155-1.336-1.217-2.639-2.396-4.091-3.289h35.507v-3.058m-34.316 11.301c-4.301-.529-8.088-2.146-11.064-4.038h3.747c2.878-.001 4.839 1.781 7.317 4.038"/><path d="M62,4.816H46.834c-5.57,0,7.242,15.272,12.061,15.272H62V4.816z"/><path d="m37.014 16.415c0 1.502 1.219 2.719 2.719 2.719 1.502 0 2.719-1.217 2.719-2.719v-8.88c0-1.502-1.217-2.719-2.719-2.719-1.5 0-2.719 1.217-2.719 2.719v8.88"/></svg>