<svg xmlns="http://www.w3.org/2000/svg" viewBox="0 0 64 64" enable-background="new 0 0 64 64"><path d="m40.04 2l-2.884 4.688 4.688-3.282z"/><path d="m27.708 2l-1.802 1.406 4.688 3.282z"/><path d="m44.188 8.563l-.938-1.875-4.687 1.875z"/><path d="m24.5 6.688l-.937 1.875h5.625z"/><path d="m40.438 27.781h3.281c.515 0 .938.422.938.938v3.281c0 .516.421.938.938.938h.938c.515 0 .938-.422.938-.938v-3.281c0-.516.421-.938.938-.938h3.281c.515 0 .938-.422.938-.938v-.938c0-.516-.423-.938-.938-.938h-3.281c-.517 0-.938-.422-.938-.938v-3.279c0-.516-.423-.938-.938-.938h-.938c-.517 0-.938.422-.938.938v3.281c0 .516-.423.938-.938.938h-3.281c-.517 0-.938.422-.938.938v.938c0 .514.421.936.938.936"/><path d="m60.125 52.625h-1.379c0 0 1.344-3.869 2.304-12.109.001-.007.001-.015.003-.021.139-1.197.27-2.486.387-3.869.001-.006.002-.01.002-.016.331-3.906.558-8.55.558-13.985 0-7.342-4.574-7.5-20.625-7.5-.982 0-1.918.006-2.813.018v-2.361h-.938c0 0-.82-2.436-.938-3.281-.216-1.538-1.26-2.813-2.813-2.813-1.555 0-2.599 1.274-2.813 2.813-.119.846-.938 3.281-.938 3.281h-.938v2.827c-6.366.674-8.93 2.06-11.25 4.204-3.159 2.923-9.593 10.195-13.343 14.607-.488.578-.716 3.205-.716 3.205v15c-1.031 0-1.875.844-1.875 1.875s.844 1.875 1.875 1.875h3.997c.834 3.231 3.76 5.625 7.253 5.625 3.49 0 6.418-2.394 7.254-5.625h19.242c.835 3.231 3.762 5.625 7.253 5.625 3.489 0 6.419-2.394 7.255-5.625h3.996c1.031 0 1.875-.844 1.875-1.875s-.844-1.875-1.875-1.875m-26.25-45v3.75c-1.036 0-1.875-.839-1.875-1.875 0-1.035.839-1.875 1.875-1.875m-27.639 27.947c.673-.791 1.443-1.686 2.269-2.635h18.808v-15.07c3.107-.478 7.512-.742 14.063-.742 16.885 0 18.625.514 18.625 5.5 0 5.454-.234 10.094-.573 13.984h-26.49l-3.771 3.828h-21.793v-.937c0-.9-.643-1.658-1.493-1.835.078-.813.235-1.731.355-2.093m9.933 23.07c-.073-.521-.502-.929-1.044-.929-.541 0-.97.408-1.042.93-.784-.197-1.484-.602-2.03-1.164.421-.323.561-.901.29-1.371-.271-.466-.833-.634-1.322-.441-.106-.373-.182-.76-.182-1.168 0-.401.073-.782.176-1.15.123.049.256.08.397.08.593 0 1.071-.48 1.071-1.072 0-.348-.176-.641-.432-.837.546-.563 1.246-.968 2.031-1.165.072.522.501.93 1.042.93.542 0 .971-.406 1.044-.929.783.198 1.482.603 2.027 1.165-.254.196-.428.49-.428.836 0 .59.479 1.07 1.07 1.07.14 0 .271-.031.394-.08.104.369.177.75.177 1.152 0 .401-.073.783-.176 1.151-.123-.048-.254-.079-.394-.079-.594 0-1.072.479-1.072 1.07 0 .348.175.642.43.837-.545.562-1.244.966-2.027 1.164m33.749 0c-.072-.521-.501-.929-1.044-.929-.541 0-.97.408-1.042.93-.784-.197-1.484-.602-2.029-1.165.256-.196.431-.489.431-.835 0-.592-.479-1.07-1.071-1.07-.141 0-.271.031-.395.079-.104-.369-.177-.751-.177-1.153 0-.401.073-.782.176-1.15.123.049.255.08.396.08.592 0 1.071-.48 1.071-1.07 0-.348-.175-.643-.431-.838.545-.563 1.244-.967 2.029-1.164.072.521.501.93 1.042.93.543 0 .972-.408 1.044-.93.785.198 1.484.603 2.03 1.165-.421.321-.562.9-.29 1.372.269.464.833.632 1.32.439.105.373.181.759.181 1.166 0 .402-.073.783-.177 1.151-.122-.048-.254-.079-.395-.079-.592 0-1.071.479-1.071 1.07 0 .347.175.641.431.837-.545.562-1.244.966-2.029 1.164m5.369-8.017c-1.314-2.17-3.692-3.625-6.413-3.625-2.722 0-5.099 1.455-6.413 3.625h-20.923c-1.315-2.171-3.692-3.627-6.413-3.627-2.723 0-5.1 1.456-6.414 3.627h-2.836v-2.101c.854-.175 1.499-.935 1.499-1.837v-2.5h23.688l3.691-3.672h24.273c-.604 5.063-1.344 8.41-1.786 10.109h-1.953z"/><circle cx="48.874" cy="54.498" r="2.143"/><circle cx="15.125" cy="54.498" r="2.143"/></svg>