<svg xmlns="http://www.w3.org/2000/svg" viewBox="0 0 64 64" enable-background="new 0 0 64 64"><circle cx="47.203" cy="50" r="2.769"/><path d="m62 43.901l-.281-.655c-1.581-3.679-4.295-6.494-7.63-8.117l-2.049-15.714h.247c.738 0 1.619-.299 1.619-1.723v-1.969c0-1.424-.881-1.723-1.619-1.723h-23.82c-.739 0-1.62.299-1.62 1.723v1.969c0 1.424.881 1.723 1.62 1.723h.063l-1.363 10.451-20.77 3.146-.179.211c-.716.846-1.862 3.458-2.373 4.668v-8.968h-1.845v13.846h1.845v-.848c.156 0 .308.017.457.041l-.018 2.694c-.017.013-.035.021-.052.033h-2.232v2.891h2.693c-1.651 1.52-2.693 3.691-2.693 6.111 0 4.591 3.718 8.309 8.303 8.309 4.46 0 8.091-3.522 8.284-7.941h2.407c.01-.186.009-.368.01-.551h14.73c1.5 4.915 6.067 8.492 11.469 8.492 6.622 0 11.992-5.373 11.992-12 0-1.548-.303-3.021-.836-4.381l3.641-1.718m-57.687-3.792c-.155-.016-.309-.035-.468-.035v-.577h.472l-.004.612m24.154-22.171c-.057 0-.099-.003-.128-.007-.009-.045-.017-.121-.017-.239v-1.969c0-.118.008-.194.017-.239.029-.004.071-.007.128-.007h23.82c.057 0 .098.003.127.007.008.045.017.121.017.239v1.969c0 .118-.009.194-.017.239-.029.004-.07.007-.127.007h-23.82m14.562 14.185c-2.533 3.622-7.3.394-7.3 4.954h-6.977l1.845-17.538h1.173v1.799c-.462.302-.769.822-.769 1.416v6.231c0 .935.756 1.692 1.691 1.692.934 0 1.689-.757 1.689-1.692v-6.231c0-.934-.756-1.692-1.689-1.692v-1.523h17.277l1.537 14.616c-1.356-.379-2.78-.586-4.251-.586-.019 0-.036.002-.054.002v-8.652c-5.102-.001-2.256 4.454-4.172 7.204m-35.839 2.262l19.901-3.014v6.648h-21.696c.576-1.333 1.325-2.935 1.795-3.634m-1.417 8.338c.227.224.421.484.561.775-.192.082-.379.187-.568.281l.007-1.056m4.53 15.584c-2.546 0-4.612-2.064-4.612-4.615 0-2.55 2.066-4.615 4.612-4.615 2.544 0 4.613 2.065 4.613 4.615 0 2.55-2.069 4.615-4.613 4.615m25.092-6.277h-14.477c-.439-3.567-2.538-6.566-5.802-8.177-2.269-1.119-4.703-1.432-7.009-.923-.442-1.07-1.275-1.935-2.32-2.422l.001-.204h19.965l4.312 6.277h5.646c-.322 1.084-.5 2.229-.5 3.418 0 .694.071 1.37.184 2.031m11.808 4.431c-3.566 0-6.457-2.893-6.457-6.459 0-3.572 2.891-6.464 6.457-6.464 3.561 0 6.457 2.892 6.457 6.464 0 3.566-2.896 6.459-6.457 6.459m.054-18.984c-4.478 0-8.562 2.621-10.821 6.893l-2.123-1.156c2.371-5.128 7.163-8.167 12.944-8.167 5.609 0 10.349 3.026 12.811 8.135l-2.093.988c-2.282-4.149-6.328-6.693-10.718-6.693"/><circle cx="10.303" cy="53.692" r="1.846"/></svg>