<svg xmlns="http://www.w3.org/2000/svg" viewBox="0 0 64 64" enable-background="new 0 0 64 64"><path d="m43.25 27.313h15v24.374h-15z"/><path d="m24.5 27.313h15v24.374h-15z"/><path d="m5.75 51.687h15v-24.374h-7.5z"/><path d="m56.375 2v.52c-.553-.322-1.189-.52-1.875-.52-2.07 0-3.75 1.679-3.75 3.75 0 2.07 1.68 3.75 3.75 3.75.686 0 1.322-.198 1.875-.521v.521h-1.875-18.75-1.875v-.521c.553.323 1.188.521 1.875.521 2.07 0 3.75-1.68 3.75-3.75 0-2.071-1.68-3.75-3.75-3.75-.688 0-1.322.198-1.875.521v-.521h-5.625v.52c-.553-.322-1.189-.52-1.875-.52-2.07 0-3.75 1.679-3.75 3.75 0 2.07 1.68 3.75 3.75 3.75.686 0 1.321-.198 1.875-.521v.521h-1.875-24.375v1.875h26.25v5.625h-26.25v1.875h22.5v3.75h3.75v.938c-4.834 0-9.158 0-12.099 0-5.599 0-6.651 3.75-6.651 3.75l-7.5 24.375c0 7.5.001 10.312 14.809 10.312h45.191v-60h-5.625m-22.5 4.688h2.813v-1.875h-2.813v-.457c.428-.574 1.105-.95 1.875-.95 1.295 0 2.344 1.049 2.344 2.344 0 1.294-1.049 2.344-2.344 2.344-.77 0-1.447-.377-1.875-.951v-.455m26.125 20.625v24.375 8.312h-43.191c-6.607 0-10.194-.567-11.63-1.841-.555-.491-.848-1.207-1.003-2.229h7.2v-2.813h-7.37c-.004-.356-.006-.73-.006-1.13l7.425-24.135c.007-.022.754-2.29 4.726-2.29h43.849v1.751m-5.5-19.219c-1.295 0-2.344-1.05-2.344-2.344 0-1.295 1.049-2.344 2.344-2.344.77 0 1.447.376 1.875.95v.456h-2.813v1.875h2.813v.456c-.428.574-1.105.951-1.875.951m-20.625 3.281h22.5v5.625h-22.5v-5.625m-7.5-3.281c-1.295 0-2.344-1.05-2.344-2.344 0-1.295 1.049-2.344 2.344-2.344.77 0 1.447.376 1.875.95v.456h-2.813v1.875h2.813v.456c-.427.574-1.105.951-1.875.951m-.875 13.531v-1.75h35.5v1.75h-35.5"/></svg>