<svg xmlns="http://www.w3.org/2000/svg" viewBox="0 0 64 64" enable-background="new 0 0 64 64"><path d="m49.623 7.983l-4.449 3.336 1.819 1.615z"/><path d="m19.164 11.319l-4.449-3.336 2.63 4.951z"/><path d="m39.682 2l-3.114 6.323 2.31.703z"/><path d="M27.77 8.323 24.656 2 25.46 9.026z"/><ellipse cx="11.392" cy="55.281" rx="1.875" ry="1.921"/><ellipse cx="52.607" cy="55.281" rx="1.875" ry="1.921"/><path d="m60.775 51.597c0 0-.088.006-.244.016.254-4.296.42-9.844-.367-10.431-2.472-1.841-4.26-3.849-5.582-5.855 1.897-.004 4.248-.188 5.216-1.004 1.157-.975 2.011-3.525.929-4.58-1.301-1.264-5.654-.455-6.898.629-.412.358-.762.977-1.049 1.652-2.491-5.62-2.047-10.449-3.637-10.449 0 0-.645-.057-1.836-.136v-1.455h3.061v-4.579h-12.247-12.244-12.244v4.579h3.062v1.455c-1.192.079-1.838.136-1.838.136-1.373 0-1.13 5.032-3.583 10.581-.297-.727-.663-1.402-1.102-1.784-1.243-1.084-5.601-1.893-6.899-.629-1.082 1.055-.227 3.605.931 4.58.992.836 3.438 1.01 5.357 1.005-1.35 2.075-3.18 4.104-5.724 5.854-.789.541-.621 6.117-.367 10.431-.157-.01-.246-.016-.246-.016-.676 0-1.224.368-1.224.82v4.922c0 .453.548.82 1.224.82 0 0 .951.063 2.658.151v2.317c0 .759.548 1.373 1.225 1.373h8.57c.678 0 1.226-.614 1.226-1.372v-1.881c.418.012.836.023 1.269.035v.438c0 1.035.839 1.875 1.875 1.875h.234c.719 0 1.336-.409 1.65-1.003h20.137c.314.594.932 1.003 1.65 1.003h.234c1.035 0 1.875-.84 1.875-1.875v-.438c.428-.012.855-.022 1.268-.034v1.88c0 .758.549 1.372 1.225 1.372h8.572c.677 0 1.225-.614 1.225-1.372v-2.316c1.714-.09 2.658-.152 2.658-.152.678 0 1.225-.367 1.225-.82v-4.922c0-.453-.547-.821-1.225-.821m-5.118-8.411l1.507-.159c.678 0 1.226.534 1.226 1.193v3.578c0 .659-.548 1.193-1.226 1.193l-1.507.159v-5.964m-1.013.106v5.965l-6.239.657c-.677 0-1.225-.533-1.225-1.191v-3.579c0-.658.548-1.192 1.225-1.192l6.239-.66m-6.308-.516l-3.465-1.205c2.354-4.313 7.457-7.183 7.457-7.183-3.572 5.406-3.992 8.388-3.992 8.388m-28.055 5.781h-.234c-.419 0-.803.143-1.115.375v-2.326c0-.733.508-1.328 1.136-1.328h23.864c.627 0 1.135.595 1.135 1.328v2.325c-.312-.232-.694-.374-1.113-.374h-.234c-1.035 0-1.875.84-1.875 1.875v1.09c-.42.324-.761.741-.984 1.229h-17.718c-.225-.488-.565-.905-.986-1.229v-1.089c-.001-1.037-.841-1.876-1.876-1.876m18.84-32.153h10.246v2.579h-10.246v-2.579m-24.488 2.579v-2.579h10.244v2.579h-10.244m2.061 4.851c0 0 6.581-.422 15.306-.422 8.724 0 15.307.422 15.307.422l2.447 9.542c0 0-8.417-.421-17.754-.421-9.336 0-17.756.421-17.756.421l2.45-9.542m2.434 17.737l-3.465 1.205c0 0-.421-2.982-3.993-8.388 0 .001 5.103 2.871 7.458 7.183m-9.771 1.721l6.236.658c.678 0 1.226.533 1.226 1.191v3.58c0 .659-.548 1.192-1.226 1.192l-6.236-.658v-5.963m-3.748.927c0-.659.547-1.192 1.225-1.192l1.51.159v5.963l-1.51-.159c-.678 0-1.225-.533-1.225-1.191v-3.58m12.563 13.562c-8.963-.235-14.799-.614-14.883-.62l-.032-.002h-.033c-.096 0-.17-.016-.224-.033v-4.496c.048-.016.114-.03.197-.033.512.033 5.806.365 13.834.593-.087.295-.148.601-.148.923 0 1.058.511 1.99 1.289 2.59v1.078m1.992-1.397c-1.294 0-2.344-1.051-2.344-2.344 0-1.294 1.05-2.344 2.344-2.344 1.297 0 2.344 1.05 2.344 2.344 0 1.293-1.047 2.344-2.344 2.344m4.336 1.526c-.797-.012-1.578-.024-2.344-.039v-1.168c.779-.6 1.289-1.532 1.289-2.591 0-.271-.041-.529-.104-.781.62.011 1.158.028 1.158.028v4.551zm17.344-.039c-.765.015-1.546.027-2.344.039v-4.551c0 0 .539-.018 1.159-.028-.062.252-.104.511-.104.781 0 1.059.511 1.99 1.289 2.59v1.169m1.992-1.415c-1.293 0-2.344-1.05-2.344-2.344 0-1.295 1.051-2.344 2.344-2.344 1.297 0 2.344 1.049 2.344 2.344 0 1.294-1.047 2.344-2.344 2.344m17.164.67c-.053.018-.129.033-.225.033h-.033l-.033.002c-.083.006-5.918.385-14.881.62v-1.077c.779-.601 1.289-1.533 1.289-2.592 0-.322-.061-.628-.146-.923 8.026-.228 13.319-.56 13.831-.593.083.003.15.018.198.033v4.497"/><path d="m23.211 46.649h17.578v.732h-17.578z"/><path d="m23.211 48.647h17.578v.731h-17.578z"/><path d="m23.211 50.645h17.578v.732h-17.578z"/><circle cx="13.307" cy="46.649" r="2.605"/><circle cx="50.691" cy="46.649" r="2.605"/></svg>