<svg xmlns="http://www.w3.org/2000/svg" viewBox="0 0 64 64" enable-background="new 0 0 64 64"><path d="m33.115 43.998l-1.116-3.434-1.116 3.434h-3.607l2.917 2.122-1.115 3.434 2.921-2.123 2.922 2.123-1.116-3.434 2.918-2.122z"/><path d="m17.063 48.688c-2.663 0-4.821 2.169-4.821 4.841s2.158 4.841 4.821 4.841 4.821-2.169 4.821-4.841-2.158-4.841-4.821-4.841m0 1.253c.521 0 .918.2 1.098.503l-1.098 1.887-1.098-1.887c.18-.302.577-.503 1.098-.503m-3.131 1.794c.261-.448.633-.689.987-.692l1.099 1.888h-2.197c-.175-.307-.15-.748.111-1.196m0 3.588c-.261-.448-.285-.891-.11-1.196h2.195v.001l-1.098 1.888c-.355-.003-.727-.245-.987-.693m3.131 1.794c-.521 0-.918-.2-1.099-.503l1.099-1.888 1.099 1.888c-.181.303-.579.503-1.099.503m3.13-1.794c-.261.447-.633.688-.987.691l-1.099-1.888h2.197c.175.308.15.749-.111 1.197m.112-2.392h-2.196l1.099-1.889c.354.004.727.246.987.693.26.448.284.889.11 1.196"/><path d="m46.938 48.688c-2.663 0-4.821 2.169-4.821 4.841s2.158 4.841 4.821 4.841 4.821-2.169 4.821-4.841-2.158-4.841-4.821-4.841m0 1.253c.521 0 .918.2 1.098.503l-1.098 1.887-1.098-1.887c.18-.302.577-.503 1.098-.503m-3.131 1.794c.261-.448.633-.689.987-.692l1.099 1.888h-2.197c-.175-.307-.15-.748.111-1.196m0 3.588c-.262-.448-.285-.891-.11-1.196h2.195l.001.001-1.099 1.888c-.355-.003-.728-.245-.987-.693m3.131 1.794c-.521 0-.918-.2-1.099-.503l1.099-1.888 1.099 1.888c-.182.303-.578.503-1.099.503m3.13-1.794c-.261.447-.633.688-.987.691l-1.099-1.888h2.197c.175.308.15.749-.111 1.197m.112-2.392h-2.196-.001l1.1-1.889c.354.004.727.246.986.693.261.448.285.889.111 1.196"/><path d="m60.791 50.599h-.666v-5.54h-3.281c-.368 0-.561-.424-.427-.941.121-.471.487-1.882.487-1.882.134-.518.544-.941.911-.941h2.31v-.941c0-1.017-.89-2.439-1.944-2.762l-5.268-1.602c-1.055-.322-2.108-1.397-2.344-2.392l-2.186-9.245c-.236-.994-1.336-1.883-2.449-1.883h-4.187v-1.1c2.253-.116 4.053-1.969 4.053-4.248 0-2.355-1.915-4.271-4.271-4.271h-2.498c-.183-1.051-1.093-1.851-2.197-1.851s-2.014.8-2.197 1.851h-2.498c-2.355 0-4.271 1.916-4.271 4.271 0 2.279 1.8 4.132 4.052 4.248v1.1h-4.193c-1.115 0-2.434.974-2.93 1.883l-5.273 9.399c-.497.908-1.767 1.915-2.821 2.237l-8.303 2.525c-1.055.322-2.23 1.788-2.48 2.779h3.006c.451 0 .688.424.523.941l-.598 1.882c-.164.518-.668.941-1.119.941h-2.835l-.58 5.54h-1.11c-.663.002-1.207.545-1.207 1.208v2.413c0 .664.544 1.207 1.207 1.207h3.621c.437 0 .806-.249 1.018-.602h.888c.621 4.063 4.107 7.177 8.329 7.177s7.707-3.114 8.329-7.177h13.217c.621 4.063 4.107 7.177 8.329 7.177s7.707-3.114 8.329-7.177h.886c.211.353.58.602 1.02.602h3.619c.663 0 1.209-.543 1.209-1.207v-2.413c-.001-.663-.547-1.206-1.21-1.206m-53.758 3.619c0 .11-.096.207-.205.207h-3.621c-.112 0-.207-.095-.207-.207v-2.413c0-.109.097-.206.207-.206h3.621c.109 0 .205.097.205.206v2.413m45.123-14.796c.667 0 1.207.54 1.207 1.207 0 .666-.54 1.206-1.207 1.206-.668 0-1.208-.54-1.208-1.206 0-.667.54-1.207 1.208-1.207m-12.52-25.071h1.894c1.527 0 2.771 1.243 2.771 2.771 0 1.527-1.243 2.771-2.771 2.771h-1.894v-5.542m-3.886 11.989c0-.575.408-1.046.908-1.046h6.044c.498 0 .987.461 1.084 1.025l1.32 7.362c.102.563-.227 1.024-.725 1.024h-7.724c-.5 0-.908-.471-.908-1.047v-7.318zm-6.382-9.218c0-1.528 1.243-2.771 2.771-2.771h1.894v5.542h-1.894c-1.528 0-2.771-1.244-2.771-2.771m-6.641 16.67l3.753-7.576c.24-.507.854-.922 1.364-.922h5.103c.51 0 .929.471.929 1.046v7.319c0 .576-.419 1.047-.929 1.047h-9.742c-.511 0-.725-.412-.478-.914m-5.664 26.208c-3.55 0-6.438-2.902-6.438-6.471s2.888-6.471 6.438-6.471 6.438 2.902 6.438 6.471-2.889 6.471-6.438 6.471m20.934-8.046h-11.995c0-6.693-6.607-8.946-6.607-13.791h25.21c-.001 4.73-6.608 7.098-6.608 13.791m8.941 8.046c-3.55 0-6.438-2.902-6.438-6.471s2.888-6.471 6.438-6.471 6.438 2.902 6.438 6.471-2.889 6.471-6.438 6.471m14.062-5.782c0 .11-.098.207-.209.207h-3.619c-.112 0-.207-.095-.207-.207v-2.413c0-.111.095-.206.207-.206h3.619c.111 0 .209.097.209.206v2.413"/></svg>