<svg xmlns="http://www.w3.org/2000/svg" viewBox="0 0 64 64" enable-background="new 0 0 64 64"><g fill-rule="evenodd"><path d="m58.774 36.945c-.406-.455-1.146-.941-1.887-1.359-.289-2.327-.787-4.931-1.625-6.019-.605-.786-1.62-1.207-3.156-1.844-1.612-.668-4.311-1.786-4.806-3.024-.563-1.41-.972-2.643-1.241-3.536.098-.108.189-.229.273-.363.285-.453.679-1.405.121-2.692-.654-1.514-2.914-4-5.857-4.971-.084-.109-.182-.228-.287-.352v-8.909c.001-1.036-.738-1.876-1.644-1.876-.191 0-.371.044-.542.113-.177.386-.28.824-.28 1.293 0 .336.057.651.15.95.346-.043.672.085.672.456v6.479c-.557-.388-1.201-.73-1.935-.947-1.606-.476-10.178-1.906-15.69-1.906-2.116 0-4.158.169-5.391 1.099v-5.66c.001-1.037-.736-1.877-1.643-1.877-.191 0-.371.044-.541.113-.179.386-.282.824-.282 1.293 0 .336.057.651.151.95.345-.043.671.085.671.456 0 1.821 0 5.888 0 8.335-.112.447-.215.9-.31 1.363-.18.105-.354.228-.513.386 0 .562 0 1.123 0 1.686h-1.429l-9.753 8.856v10.059l.553.503c-.072.375-.117.86-.117 1.398 0 1.176.209 2.13.467 2.13h1.165c.049 1.274.292 2.245.586 2.245h1.789c.045 0 .088-.031.13-.076l2.718 2.684h.633c.089 2.039.41 3.557.795 3.557h2.284l6.612 3.654v4.783c0 1.068.803 1.938 1.79 1.938h.822v1.902c0 .981.74 1.785 1.645 1.785h3.287c.903 0 1.645-.804 1.645-1.785v-4.836c.922.111 1.967.185 3.176.185.576 0 1.177-.016 1.789-.047 3.22-.164 8.918-.787 14.212-1.422.453 2.683 1.433 4.645 2.604 5.021h4.109c1.341-.43 2.427-2.93 2.764-6.213 1.6-.209 2.646-.35 2.821-.373l1.582-.215.099-1.646c.057-.974.461-9.632-3.186-13.724m-55.872 1.518c-.129 0-.233-.477-.233-1.064s.104-1.064.233-1.064c.129 0 .233.477.233 1.064s-.104 1.064-.233 1.064m.066-3.418v-9.154l7.819-7.1v18.127l-3.909-.965h-1.607v1.189l-2.303-2.097m1.685 5.369c-.167 0-.298-.609-.298-1.359 0-.563.073-1.043.18-1.25l.331.301c.052.245.084.579.084.949 0 .75-.133 1.359-.297 1.359m3.669 1.629l-2.083-2.057v-2.701l2.083.623v4.135m2.396 4.02c-.228 0-.411-1.26-.411-2.813s.184-2.813.411-2.813c.226 0 .411 1.26.411 2.813s-.185 2.813-.411 2.813m11.508 11.25h-.822c-.453 0-.822-.422-.822-.938v-7.5c0-.516.369-.938.822-.938h.822v9.376m37.8-6.767c0 0-19.354 2.616-26.355 2.974-.599.029-1.162.044-1.693.044-1.23 0-2.281-.075-3.176-.192v-8.336c0-.98-.741-1.785-1.645-1.785h-2.757c-.389-1.164-.853-1.846-1.353-1.846-.912 0-1.705 2.264-2.132 5.615-.749.232-1.302.972-1.302 1.855v.449l-7.252-4.008c0 0 0-4.637 0-5.945 0-1.307 1.544-1.783 1.544-1.783.047-1.021.092-1.994.135-2.929.818.313 1.742.132 2.431-.555 0-6.402 0-12.806 0-19.208-.232-.231-.492-.405-.764-.522.216-.968.468-1.891.771-2.821.268-.82 2.103-1.115 4.561-1.115 5.393 0 13.777 1.42 15.158 1.829 2.012.595 3.238 2.615 3.238 2.615 2.574.595 4.736 2.853 5.252 4.042.514 1.188-.929 1.188-.929 1.188s.517 2.259 1.752 5.35c1.234 3.091 7.412 4.28 8.236 5.351.823 1.069 1.337 6.063 1.337 6.063s1.805.908 2.266 1.426c3.195 3.581 2.677 12.244 2.677 12.244"/><path d="m22.636 28.219v-7.752c0-.532-.338-.794-.752-.58l-2.605 1.347c-.414.214-.753.825-.753 1.358v5.627c0 .532.37.969.822.969h2.466c.451 0 .822-.437.822-.969"/><path d="m33.757 28.842l-5.081-1.41c-.887-.245-.933-.099-.106.327l4.462 2.295c.828.426 1.693 1.568 1.924 2.54l2.585 10.879c.231.971.319.951.198-.044l-1.322-10.792c-.12-.994.527-1.811 1.439-1.813l12.451-.039c.912-.002.916-.071.006-.152l-13.293-1.194c-.908-.084-2.376-.351-3.263-.597"/><path d="m54.275 43.227l-1.071-10.291c-.053-.515-.473-.936-.928-.936h-13.687c-.455 0-.789.422-.742.936l1.063 11.308c.047.515.461.911.918.881l13.717-.909c.454-.029.785-.476.73-.989m-14.535-8.497c-.061-.505.284-.926.767-.934l3.504-.068c.481-.009.927.396.986.9.061.506-.287.926-.769.934l-3.504.069c-.481.01-.924-.396-.984-.901m.436 3.67c-.06-.506.283-.926.767-.934l3.504-.068c.481-.009.926.396.987.9.06.504-.286.926-.768.936l-3.505.066c-.482.01-.925-.397-.985-.9m4.927 4.501l-3.506.068c-.48.008-.927-.396-.986-.901-.06-.504.287-.926.768-.934l3.504-.066c.483-.01.927.395.986.898.059.507-.286.927-.766.935m1.646-8.305c-.061-.504.285-.925.766-.934l3.506-.067c.481-.009.926.396.984.9.062.505-.285.925-.767.935l-3.505.066c-.48.01-.923-.395-.984-.9m.436 3.669c-.06-.504.284-.925.766-.935l3.506-.066c.48-.01.926.396.986.9.059.505-.285.926-.768.934l-3.505.067c-.482.01-.926-.395-.985-.9m4.926 4.502l-3.506.068c-.481.009-.925-.396-.984-.901-.06-.504.284-.924.767-.934l3.506-.067c.479-.01.925.396.984.9.06.505-.285.925-.767.934"/><path d="m24.691 19.787v4.814c0 .529.346.978.768.996l8.703.366-.355-6.522-8.347-.565c-.423-.028-.769.382-.769.911"/><path d="m43.897 26.374c.423.019.63-.364.463-.85l-1.598-4.613c-.168-.485-.65-.907-1.073-.936l-6.728-.456.354 6.493 8.582.362"/><path d="m37.845 47.939l-4.935.32c-.451.03-.82.487-.82 1.017v1.5c0 .529.369.939.82.91l4.935-.321c.451-.029.82-.488.82-1.017v-1.5c0-.528-.369-.938-.82-.909"/><path d="m53.46 47.618v1.31c0 .542.367.94.817.879l3.298-.447c.449-.062.816-.557.816-1.1v-1.312c0-.542-.367-.94-.816-.879l-3.298.447c-.45.062-.817.557-.817 1.102"/><path d="m31.713 41.262c-3.032-9.259-10.31-4.887-10.31-4.887 6.352-.178 13.341 14.146 10.31 4.887"/><path d="m25.441 15.553c-1.407-4.295-4.783-2.268-4.783-2.268 2.945-.082 6.189 6.564 4.783 2.268"/></g></svg>