<svg xmlns="http://www.w3.org/2000/svg" viewBox="0 0 64 64" enable-background="new 0 0 64 64"><path d="m13.236 50.49c-.703 0-1.096.49-.875 1.091l.47 1.271c.223.601.587.601.811 0l.468-1.271c.223-.601-.17-1.091-.874-1.091"/><path d="m11.794 53.604l-1.063-.839c-.501-.397-1.088-.174-1.306.495-.218.67.128 1.195.767 1.17l1.352-.056c.64-.024.751-.37.25-.77"/><path d="m11.941 55.597l-1.127.753c-.532.354-.501.983.066 1.396.571.412 1.176.247 1.35-.369l.366-1.304c.172-.617-.123-.832-.655-.476"/><path d="m14.533 55.597c-.532-.355-.827-.141-.657.477l.368 1.304c.172.616.779.781 1.348.369.569-.415.599-1.043.066-1.398l-1.125-.752"/><path d="m15.74 52.766l-1.061.841c-.503.396-.39.743.249.771l1.354.054c.638.027.982-.5.767-1.169-.22-.671-.808-.895-1.309-.497"/><path d="m37.587 50.49c-.701 0-1.096.49-.873 1.091l.469 1.271c.224.601.588.601.811 0l.469-1.271c.222-.601-.171-1.091-.876-1.091"/><path d="m36.146 53.604l-1.063-.839c-.501-.397-1.088-.174-1.306.495-.218.67.128 1.195.767 1.17l1.352-.056c.64-.024.751-.37.25-.77"/><path d="m36.292 55.597l-1.127.753c-.531.354-.5.983.066 1.396.57.412 1.176.247 1.35-.369l.366-1.304c.172-.617-.122-.832-.655-.476"/><path d="m38.885 55.597c-.532-.355-.827-.141-.657.477l.368 1.304c.172.616.779.781 1.349.369.568-.415.598-1.043.065-1.398l-1.125-.752"/><path d="m40.092 52.766l-1.062.841c-.502.396-.389.743.25.771l1.354.054c.639.027.982-.5.766-1.169-.219-.671-.807-.895-1.308-.497"/><path d="m61.94 49.365v-16.427-.776l-.549-.55-5.621-5.625-.548-.549h-.776v-4.644l.027-5.435-2.648-4.592-25.075-6.725-.76.767h.004l-.76.768-3.748-1.007.242-.904c.133-.498-.164-1.016-.662-1.149l-1.809-.485c-.498-.132-1.016.166-1.147.663l-.254.946-2.787-.181c-.05-.363-.311-.68-.685-.78-.498-.134-1.014.164-1.147.662l-.485 1.812c-.133.498.165 1.015.662 1.147.374.102.758-.044.983-.333l2.503 1.238-.974 3.638-1.809-.485-.485 1.813 23.521 6.308 1.325 2.296 4.448 1.193-1.593 1.594h-2.81v1.875h-8.429c-2.066 0-3.746 1.683-3.746 3.75v5.625h-1.873v-9.375c0-2.067-1.682-3.75-3.747-3.75h-.028l-.907-3.633h-1.874c0-.515-.421-.938-.937-.938h-2.81c-2.069 0-3.746 1.679-3.746 3.75v.82h-.947c-2.06 0-3.735 1.683-3.735 3.75 0 1.718 1.156 3.169 2.728 3.611l-1.463 5.567-.854.608c-1.176.742-2.534 2.28-2.794 3.967l-1.318 8.479c-.083.539-.038 1.075.112 1.575-.057.18-.096.367-.096.566v3.75c0 1.031.831 1.875 1.844 1.875h1.844.063c.46 3.702 3.606 6.565 7.426 6.565 4.14 0 7.493-3.356 7.493-7.5 0-.995-.198-1.943-.55-2.813h2.424 1.873v-.937h1.873v.938h1.873 2.423c-.352.869-.55 1.817-.55 2.813 0 4.144 3.355 7.5 7.492 7.5 4.141 0 7.494-3.356 7.494-7.5 0-.995-.199-1.943-.551-2.813h2.037c-.353.869-.551 1.817-.551 2.813 0 4.144 3.355 7.5 7.493 7.5 3.894 0 7.092-2.97 7.457-6.771.61-.313 1.034-.939 1.034-1.667v-3.75c0-.155-.023-.303-.06-.448m-50.577-28.498c0-1.553 1.258-2.813 2.81-2.813h1.874c.516 0 .937.423.937.938v2.813h-5.62v-.938zm1.873 38.321c-2.585 0-4.683-2.099-4.683-4.688 0-2.587 2.098-4.688 4.683-4.688 2.586 0 4.683 2.101 4.683 4.688 0 2.589-2.097 4.688-4.683 4.688m9.367-23.438v12.188h-2.805c-1.667-1.734-3.99-2.813-6.563-2.813-2.572 0-4.894 1.078-6.562 2.813h-2.772c-.002 0-.003.001-.006.001l1.316-8.461c.157-1.018 1.092-2.149 1.981-2.691l1.454-1.036 3.979-2.804.695-4.705c.075-.511-.3-.929-.834-.929h-1.742-1.265c-1.024 0-1.862-.844-1.862-1.875s.838-1.875 1.862-1.875h3.595 6.719.937c1.03 0 1.874.844 1.874 1.875v10.312zm27.272-15.937c1.034 0 1.873.841 1.873 1.875 0 1.036-.839 1.875-1.873 1.875-1.035 0-1.873-.839-1.873-1.875 0-1.035.838-1.875 1.873-1.875m-30.926-13.01c-.5-.134-.797-.648-.662-1.148.133-.501.647-.796 1.147-.662.499.134.796.646.662 1.147-.136.5-.647.797-1.147.663m2.277 5.464l-1.681-.451.97-3.623 1.682.45-.971 3.624m2.068.552l.969-3.621 3.432.921 1.098 4.177-5.499-1.477m6.467-2.146l2.314.621-1.699 1.716-.615-2.337m1.346 4.243l3.037-3.067 3.502.939 1.098 4.177-7.637-2.049m9.703 2.591l-1.096-4.164 4.123 1.105-3.027 3.059m-3.223 41.681c-2.584 0-4.681-2.099-4.681-4.688 0-2.587 2.097-4.688 4.681-4.688 2.588 0 4.684 2.101 4.684 4.688 0 2.589-2.096 4.688-4.684 4.688m15.923 0c-2.585 0-4.683-2.099-4.683-4.688 0-2.587 2.098-4.688 4.683-4.688 2.587 0 4.683 2.101 4.683 4.688-.001 2.589-2.096 4.688-4.683 4.688m6.556-11.258c-1.668-1.729-3.988-2.805-6.557-2.805h-15.922c-2.571 0-4.892 1.078-6.56 2.813h-2.805v-12.188-6.563c0-1.031.844-1.875 1.873-1.875h24.351l5.62 5.625v14.993"/><path d="m53.51 50.49c-.702 0-1.096.49-.874 1.091l.47 1.271c.224.601.587.601.811 0l.468-1.271c.222-.601-.171-1.091-.875-1.091"/><path d="m52.068 53.604l-1.063-.839c-.5-.397-1.088-.174-1.306.495-.218.67.128 1.195.767 1.17l1.352-.056c.64-.024.751-.37.25-.77"/><path d="m52.215 55.597l-1.127.753c-.532.354-.501.983.065 1.396.571.412 1.177.247 1.351-.369l.366-1.304c.172-.617-.123-.832-.655-.476"/><path d="m54.807 55.597c-.532-.355-.827-.141-.657.477l.369 1.304c.172.616.778.781 1.348.369.568-.415.598-1.043.065-1.398l-1.125-.752"/><path d="m56.015 52.766l-1.062.841c-.503.396-.39.743.249.771l1.354.054c.639.027.982-.5.767-1.169-.22-.671-.807-.895-1.308-.497"/><path d="m19.939 27.313h-3.224c-.445 0-.856.432-.917.959l-.681 5.813c-.061.527.236.838.664.693l4.108-1.402c.43-.145.834-.844.839-1.375v-3.75c.007-.532-.348-.938-.789-.938"/><path d="m37.587 31.063c-1.549 0-2.809 1.262-2.809 2.813v5.624c0 1.551 1.26 2.813 2.809 2.813h14.986c1.549 0 2.811-1.262 2.811-2.813v-5.625c0-1.551-1.262-2.813-2.811-2.813h-14.986zm15.923 8.437c0 .519-.419.938-.937.938h-14.986c-.516 0-.936-.419-.936-.938v-.938h16.859v.938m0-1.875h-16.859v-1.875h16.859v1.875m0-3.75v.938h-16.859v-.938c0-.517.42-.938.936-.938h14.986c.518.001.937.421.937.938"/></svg>