<svg xmlns="http://www.w3.org/2000/svg" viewBox="0 0 64 64" enable-background="new 0 0 64 64"><ellipse cx="50.26" cy="55.219" rx="1.961" ry="1.937"/><ellipse cx="19.282" cy="55.219" rx="1.96" ry="1.936"/><path d="m8.577 37.092h4.405c3.348-3.815 7.913-3.815 7.913-3.815v-11.844c-6.838 0-12.318 3.554-12.318 15.659"/><path d="m23.66 21.431h34.06v11.846h-34.06z"/><path d="m56.464 18h-38.907c-12.281 0-15.557 12.683-15.557 20.176v14.1c.118 3.19 3.208 3.909 4.282 3.909h5.847c.123.028.247.059.379.087.513 3.241 3.345 5.728 6.774 5.728 3.425 0 6.26-2.487 6.774-5.729.133-.028.256-.059.379-.087h16.672c.123.028.247.059.379.087.513 3.242 3.347 5.729 6.774 5.729 3.425 0 6.262-2.487 6.775-5.729.132-.028.255-.059.378-.087h.218c1.436 0 2.55-.383 3.312-1.136 1.063-1.053 1.059-2.471 1.058-2.975v-25.096c-.001-5.016-.001-8.977-5.537-8.977m-50.919 36.171c-.686 0-.663 0-.663-1.91s-.023-1.91.663-1.91c.877 0 1.588.854 1.588 1.91 0 1.053-.71 1.91-1.588 1.91m17.497 2.089c-.111-.045-.232-.072-.36-.072-.544 0-.982.433-.982.968 0 .313.16.579.394.757-.498.508-1.139.873-1.855 1.052-.066-.471-.461-.838-.956-.838-.495 0-.887.368-.954.839-.717-.178-1.358-.544-1.858-1.052.385-.293.513-.814.265-1.239-.247-.422-.763-.573-1.21-.398-.098-.338-.167-.688-.167-1.057 0-.362.067-.707.162-1.04.113.044.235.072.364.072.542 0 .98-.433.98-.968 0-.313-.161-.58-.396-.756.5-.51 1.141-.875 1.858-1.054.067.472.459.84.954.84.495 0 .889-.368.956-.839.717.18 1.357.544 1.855 1.053-.232.177-.392.443-.392.755 0 .534.438.968.98.968.128 0 .248-.029.36-.072.095.333.162.679.162 1.041.002.363-.064.706-.16 1.04m30.98 0c-.113-.045-.234-.072-.363-.072-.541 0-.98.433-.98.968 0 .313.16.58.395.757-.5.509-1.141.874-1.857 1.052-.066-.47-.459-.838-.956-.838-.495 0-.888.368-.954.839-.718-.178-1.357-.544-1.857-1.053.234-.177.395-.442.395-.755 0-.535-.439-.968-.98-.968-.129 0-.25.027-.363.072-.094-.334-.161-.679-.161-1.043 0-.362.066-.706.161-1.039.113.043.234.071.363.071.541 0 .98-.433.98-.968 0-.313-.161-.58-.395-.756.499-.51 1.139-.875 1.857-1.054.066.472.459.84.954.84.497 0 .89-.368.956-.839.718.179 1.358.544 1.857 1.053-.385.291-.513.814-.265 1.239.245.421.763.572 1.209.398.097.337.165.686.165 1.054 0 .365-.067.708-.161 1.042m6.159-21.165l-2.246 2.693v2.743 2.743l2.246 2.69v1.241c-1.083 0-3.055 0-5.461 0-1.318-.734-2.838-1.159-4.46-1.159s-3.142.425-4.46 1.159c-4.25 0-8.334 0-10.656 0-4.178 0-5.457 2.03-5.457 2.03h-3.461c-1.67-1.949-4.16-3.189-6.944-3.189-2.786 0-5.276 1.24-6.944 3.189h-8.519v-1.384h.904v-5.369h-.904v-3.04h1.948c0 0-.327-13.197 5.012-16.997h-.925c1.953-1.62 4.474-2.649 7.704-2.649h38.907c3.549 0 3.717 1.725 3.717 7.18v8.119z"/><path d="m5.632 43.346v2.892h5.577v-3.77l-5.577.878m4.176 2.459h-3.973v-2.061l3.973-.626v2.687"/><path d="m39.003 37.357h14.55v.897h-14.55z"/><path d="m24.97 35.477c-.251 0-.455.2-.455.449v2.694c0 .247.204.448.455.448.252 0 .454-.201.454-.448v-2.694c0-.249-.202-.449-.454-.449"/><path d="m20.646 36.644h-2.728c-.25 0-.455.199-.455.448 0 .248.204.449.455.449h2.728c.251 0 .455-.201.455-.449 0-.249-.205-.448-.455-.448"/></svg>