<svg xmlns="http://www.w3.org/2000/svg" viewBox="0 0 64 64" enable-background="new 0 0 64 64"><path d="m24.969 39.882c0-.26-.211-.471-.469-.471h-1.875c-.258 0-.469.211-.469.471v1.882c0 .26.211.471.469.471h1.875c.258 0 .469-.211.469-.471v-1.882"/><path d="m27.313 42.234h-1.875c-.258 0-.469.212-.469.471v1.883c0 .259.211.471.469.471h1.875c.258 0 .469-.212.469-.471v-1.883c-.001-.259-.212-.471-.469-.471"/><path d="m30.594 39.882c0-.26-.211-.471-.469-.471h-1.875c-.258 0-.469.211-.469.471v1.882c0 .26.211.471.469.471h1.875c.258 0 .469-.211.469-.471v-1.882"/><path d="m32.938 42.234h-1.875c-.258 0-.469.212-.469.471v1.883c0 .259.211.471.469.471h1.875c.258 0 .469-.212.469-.471v-1.883c-.001-.259-.212-.471-.469-.471"/><path d="m36.219 39.882c0-.26-.211-.471-.469-.471h-1.875c-.258 0-.469.211-.469.471v1.882c0 .26.211.471.469.471h1.875c.258 0 .469-.211.469-.471v-1.882"/><path d="m38.563 42.234h-1.875c-.258 0-.469.212-.469.471v1.883c0 .259.211.471.469.471h1.875c.258 0 .469-.212.469-.471v-1.883c-.001-.259-.212-.471-.469-.471"/><path d="m41.375 39.411h-1.875c-.258 0-.469.211-.469.471v1.882c0 .26.211.471.469.471h1.875c.258 0 .469-.211.469-.471v-1.882c0-.26-.211-.471-.469-.471"/><path d="m46.451 24.79h-7.918c-.5 0-.908.466-.908 1.034v8.165c0 .568.408 1.034.908 1.034h9.599c.499 0 .825-.455.725-1.013l-1.319-8.206c-.099-.558-.587-1.014-1.087-1.014"/><path d="m33.885 35.023c.51 0 .928-.466.928-1.034v-8.165c0-.568-.418-1.034-.928-1.034h-6.979c-.51 0-1.125.411-1.364.911l-3.753 8.419c-.246.496-.032.903.479.903h11.617"/><path d="m15.018 53.029l-1.099-1.888c-.354.003-.727.244-.987.692-.261.447-.285.889-.111 1.195h2.197z"/><path d="m15.017 54.226h-2.195c-.175.306-.151.748.11 1.196.26.447.633.689.987.692l1.098-1.888"/><path d="m14.964 56.713c.18.303.578.503 1.099.503s.918-.2 1.099-.503l-1.099-1.888-1.099 1.888"/><path d="m17.107 54.226l1.099 1.888c.354-.003.727-.244.987-.691.261-.448.285-.89.111-1.196h-2.197z"/><path d="m18.207 51.141l-1.099 1.889h2.196c.174-.307.151-.748-.111-1.195-.26-.448-.632-.69-.986-.694"/><path d="m17.161 50.543c-.18-.303-.578-.503-1.098-.503s-.918.2-1.098.503l1.098 1.887 1.098-1.887"/><path d="m60.474 48.977h-.349c0-2.588 0-6.936 0-8.372 0-1.479-1.244-2.27-1.944-2.729-.782-.514-5.501-2.965-5.737-3.947l-2.184-10.069c-.237-.983-1.337-1.86-2.45-1.86h-11.21v-.472c0-.518-.492-.941-1.092-.941h-.039l-.805-4.973c-.246-1.011-1.137-1.15-1.735-1.169-.144-.499-.421-.443-.694-.443-.275 0-.551-.056-.695.443-.598.02-1.49.164-1.742 1.208l-.798 4.934h-.038c-.6 0-1.092.424-1.092.941v.472h-2.018c-1.115 0-2.434.962-2.93 1.86 0 0-2.912 6.485-4.336 8.359-.741.976-2.705 2.519-3.759 3.142-1.567.926-4.896 2.44-6.427 3.426-.778.5-2.231 1.769-2.48 2.747l-1.611 7.442h-.783c-1.044.001-1.526.785-1.526 2.188 0 .307.145 2.02.204 2.318.238 1.193 1.228 1.072 2.271 1.072h3.205c.465 4.187 4.037 7.446 8.383 7.446s7.918-3.259 8.383-7.445h15.109c.465 4.186 4.037 7.445 8.383 7.445s7.918-3.259 8.383-7.445h3.205c1.043 0 2.032.121 2.271-1.072.058-.299.203-2.012.203-2.319 0-1.403-.482-2.187-1.526-2.187m-26.789-33.165l.69 4.275h-1.077l-.257-4.632c.496.038.594.16.644.357m-2.909.039c.056-.229.155-.356.651-.396l-.257 4.632h-1.078l.684-4.236m-14.713 42.561c-2.663 0-4.822-2.144-4.822-4.784s2.159-4.784 4.822-4.784 4.822 2.144 4.822 4.784-2.16 4.784-4.822 4.784m31.875 0c-2.662 0-4.822-2.144-4.822-4.784s2.16-4.784 4.822-4.784 4.822 2.144 4.822 4.784-2.16 4.784-4.822 4.784m10.187-16.878h-.871c-.368 0-.778.419-.912.931 0 0-.366 1.396-.487 1.86-.134.512.059.931.427.931h1.844v3.721h-3.172c-1.514-2.244-4.09-3.721-7.016-3.721s-5.502 1.477-7.016 3.721h-17.844c-1.514-2.244-4.089-3.721-7.016-3.721s-5.502 1.477-7.016 3.721h-2.692l.589-2.721h1.209c.451 0 .955-.419 1.119-.931l.598-2.86c.164-.512-.071-.931-.523-.931h-1.101c.333-.362.81-.79 1.237-1.065.765-.492 2.184-1.209 3.435-1.842 1.12-.565 2.177-1.1 2.928-1.544 1.155-.683 3.363-2.376 4.333-3.653 1.463-1.924 4.057-7.614 4.523-8.65.233-.358.881-.773 1.15-.779h21.959c.17 0 .444.2.507.335l2.183 10.059c.327 1.364 1.774 2.399 5.688 4.631.364.207.776.441.934.546.651.427 1.005.719 1.005 1.033v.929z"/><path d="m46.893 53.029l-1.099-1.888c-.354.003-.727.244-.987.692-.261.447-.285.889-.111 1.195h2.197z"/><path d="m46.892 54.226h-2.195c-.175.306-.151.748.11 1.196.26.447.633.689.987.692l1.098-1.888"/><path d="m46.839 56.713c.181.303.577.503 1.099.503s.918-.2 1.099-.503l-1.099-1.888-1.099 1.888"/><path d="m48.982 54.226l1.099 1.888c.354-.003.727-.244.987-.691.261-.448.285-.89.111-1.196h-2.197z"/><path d="m50.082 51.141l-1.1 1.889h.001 2.196c.174-.307.15-.748-.111-1.195-.259-.448-.632-.69-.986-.694"/><path d="m49.035 50.543c-.18-.303-.577-.503-1.098-.503s-.918.2-1.098.503l1.098 1.887 1.098-1.887"/></svg>