<svg xmlns="http://www.w3.org/2000/svg" viewBox="0 0 64 64" enable-background="new 0 0 64 64"><path d="m30.828 33.618h1.875v1.957h-1.875z"/><path d="m58.982 46.563c1.018-.555 1.756-1.361 1.918-2.266l1.1-7.151c0-1.498-.922-2.093-2.459-2.849-1.187-.584-2.574-1.21-3.59-1.658h2.504c.55 0 1.096-.433 1.211-.957l.438-2.003c.115-.524-.24-.955-.789-.955h-3.145c-.549 0-1.095.431-1.21.955l-.314 1.438c-1.562-3.842-4.999-11.989-6.431-12.849-2.901-1.744-12.326-2.268-16.215-2.268-3.886 0-13.313.524-16.214 2.27-1.433.86-4.873 9.014-6.431 12.851l-.314-1.44c-.115-.524-.659-.955-1.211-.955h-3.142c-.552 0-.906.431-.791.955l.438 2.003c.115.524.661.957 1.21.957h2.506c-1.015.447-2.402 1.073-3.592 1.658-1.534.755-2.459 1.349-2.459 2.847l1.103 7.151c.161.904.899 1.711 1.917 2.266-.673.181-1.279.45-1.609.756-.582.538-.634 1.767-.111 2.729l.223.413c.4.739 1.304 1.371 2.229 1.627v7.954c-.002 1.077.843 1.958 1.873 1.958h3.75c1.031 0 1.875-.881 1.875-1.957v-3.915h5.625c0 0 .493.732.938.858 5.184 1.466 19.191 1.466 24.375 0 .447-.126.938-.858.938-.858h5.625v3.915c0 1.076.845 1.957 1.875 1.957h3.75c1.031 0 1.875-.881 1.875-1.957v-7.954c.926-.256 1.83-.888 2.229-1.627l.224-.413c.522-.963.471-2.191-.11-2.729-.333-.306-.939-.576-1.612-.757m-28.154 9.565h-5.391v-3.915h5.391v3.915m7.735 0h-5.859v-3.915h5.859v3.915m16.707-6.851h-46.539c-.985 0-1.388-.441-.896-.979.492-.54 1.701-.979 2.687-.979h42.958c.985 0 2.193.439 2.685.979.492.538.09.979-.895.979m-.77-3.915h-45c-2.062 0-4.081-1.728-4.485-3.84l-.403-2.108c-.404-2.112.952-3.839 3.014-3.839h17.964l1.57-1.957h-4.535c0 0 .581-.64.82-.853.643-.565.82-1.104 2.672-1.104 2.474 0 8.355 0 10.829 0 2.671 0 2.966.539 3.608 1.104.242.213.82.853.82.853h-4.534l1.57 1.957h17.965c2.063 0 3.419 1.727 3.015 3.839l-.403 2.108c-.405 2.113-2.424 3.84-4.487 3.84"/><path d="m17 40.469c0-1.623 1.26-2.936 2.813-2.936h-8.438c1.555 0 2.813 1.313 2.813 2.936 0 1.621-1.258 2.937-2.813 2.937h8.438c-1.553-.001-2.813-1.316-2.813-2.937"/><path d="m8.563 40.469c0-1.623 1.26-2.936 2.813-2.936h-2.729c-1.079 0-1.96.879-1.96 1.957v1.958c0 1.076.881 1.957 1.96 1.957h2.728c-1.553 0-2.812-1.315-2.812-2.936"/><path d="m26.666 39.294l-.783-.588c-.862-.646-2.448-1.173-3.524-1.173h-2.546c1.555 0 2.813 1.313 2.813 2.936 0 1.621-1.258 2.937-2.813 2.937h2.546c1.076 0 2.662-.529 3.524-1.176l.783-.587c.863-.647.863-1.703 0-2.349"/><path d="m49.813 40.469c0-1.623 1.26-2.936 2.813-2.936h-8.438c1.555 0 2.813 1.313 2.813 2.936 0 1.621-1.258 2.937-2.813 2.937h8.438c-1.554-.001-2.813-1.316-2.813-2.937"/><path d="m41.375 40.469c0-1.623 1.26-2.936 2.813-2.936h-2.543c-1.078 0-2.664.527-3.526 1.173l-.784.588c-.86.646-.86 1.702 0 2.349l.784.587c.862.646 2.448 1.176 3.526 1.176h2.543c-1.553-.001-2.813-1.316-2.813-2.937"/><path d="m55.355 37.533h-2.73c1.555 0 2.813 1.313 2.813 2.936 0 1.621-1.258 2.937-2.813 2.937h2.73c1.076 0 1.957-.881 1.957-1.957v-1.959c.001-1.078-.88-1.957-1.957-1.957"/></svg>