<svg xmlns="http://www.w3.org/2000/svg" viewBox="0 0 64 64" enable-background="new 0 0 64 64"><path d="m62 20.65l-3.846-3.246-1.73-4.514-5.098-5.535-2.645 4.633-1.681.422-3.365 4.393-2.307-1.385-1.588-3.971-2.934 1.443-2.932 2.949-2.884-4.092-3.884-2.407v.001l-1.066-.661-3.319-6.68-8.894 8.543-11.827 5.297v21.963l8.365-7.762 1.587-8.123 7.02-5.297-1.683-.602 1.01-4.934-2.837 5.535-2.885 1.504 1.442-4.031-1.395.902.225-2.372 1.59-.712.238-.106.188-.181 7.421-7.128.523 1.056.006.238-1.775 1.565-.914 3.129 2.934-1.686 1.192-.347.444.895.189.383.363.226 1.645 1.02-.084.652-2.26 3.369c0 0-3.801 5.77-3.801 10.76v26.811h-.598v-1.275h-1.577v5.105h1.577v-1.275h.598 1.955c0 .576.119 1.124.32 1.629h-21.023v5.249h3.75v-1.875h3.75v1.875h3.75v-1.875h3.75v1.875h3.75v-1.875h3.75v1.875h3.75v-1.875h3.75v1.875h3.75v-1.875h3.75v1.875h3.75v-1.875h3.75v1.875h3.75v-1.875h3.75v1.875h3.75v-1.875h3.75v-1.875l-1.137-1.136c.309-.601.5-1.271.5-1.993h.637v-3.83h-39.251v-3.531h15.984l2.553 2.553h11.27l2.555-2.553h6.889v-2.553h-7.947l-2.555 2.553h-9.156l-2.553-2.553h-17.04v-16.896h39.251v-7.661m-51.635-4.39l-1.009 6.56-2.606-7.465 5.41-2.422-1.795 3.327m45.131 38.861c0 .807.66 1.465 1.469 1.465.807 0 1.465-.658 1.465-1.465h1.467c0 1.617-1.314 2.932-2.932 2.932-1.619 0-2.934-1.314-2.934-2.932h1.465m-14.221 0h11.289c0 .576.119 1.124.32 1.629h-11.93c.202-.505.321-1.053.321-1.629m-5.865 0c0 .807.658 1.465 1.467 1.465.807 0 1.465-.658 1.465-1.465h1.467c0 1.617-1.314 2.932-2.932 2.932-1.619 0-2.934-1.314-2.934-2.932h1.467m-3.91 0h.979c0 .576.117 1.124.319 1.629h-1.617c.202-.505.319-1.053.319-1.629m-5.865 0c0 .807.66 1.465 1.467 1.465.809 0 1.467-.658 1.467-1.465h1.465c0 1.617-1.314 2.932-2.932 2.932s-2.932-1.314-2.932-2.932h1.465m17.888-36.636l.488.293.814-1.063 3.047-3.977 1.174-.295.621-.156.316-.555 1.629-2.852.912.991.195.575-1.154.963-.24 5.596-3.125 1.443v1.201h-4.783l-.023-.238.129-1.926m-8.585-1.588l2.758-2.771 1.254-.617.557 1.391-.102 1.481-2.645 4.031-.02.238h-1.949l-.576-3.025.723-.728m25.062 9.414h-37.251v-.555c0-1.713 1.394-3.105 3.107-3.105h34.144v3.66"/><path d="m24.659 30.863c-.539 0-.979.438-.979.979v6.982c0 .539.439.977.979.977h5.705c.539 0 .977-.438.977-.977v-6.982c0-.541-.438-.979-.977-.979h-5.705m5.601 6.905c0 .475-.385.861-.859.861h-3.779c-.475 0-.861-.387-.861-.861v-4.871c0-.475.387-.861.861-.861h3.779c.475 0 .859.387.859.861v4.871"/><path d="m34.363 30.863c-.539 0-.979.438-.979.979v6.982c0 .539.439.977.979.977h5.705c.539 0 .977-.438.977-.977v-6.982c0-.541-.438-.979-.977-.979h-5.705m5.602 6.905c0 .475-.385.861-.859.861h-3.779c-.477 0-.861-.387-.861-.861v-4.871c0-.475.385-.861.861-.861h3.779c.475 0 .859.387.859.861v4.871"/><path d="m44.068 30.863c-.541 0-.979.438-.979.979v6.982c0 .539.438.977.979.977h5.703c.541 0 .979-.438.979-.977v-6.982c0-.541-.438-.979-.979-.979h-5.703m5.602 6.905c0 .475-.385.861-.859.861h-3.779c-.475 0-.861-.387-.861-.861v-4.871c0-.475.387-.861.861-.861h3.779c.475 0 .859.387.859.861v4.871"/><path d="m53.771 30.863c-.539 0-.977.438-.977.979v6.982c0 .539.438.977.977.977h5.705c.541 0 .979-.438.979-.977v-6.982c0-.541-.438-.979-.979-.979h-5.705m5.604 6.905c0 .475-.385.861-.861.861h-3.779c-.475 0-.859-.387-.859-.861v-4.871c0-.475.385-.861.859-.861h3.779c.477 0 .861.387.861.861v4.871"/></svg>