<svg xmlns="http://www.w3.org/2000/svg" viewBox="0 0 64 64" enable-background="new 0 0 64 64"><path d="m16.063 42.646c-4.215 0-7.716 3.177-8.467 7.373 1.605-3.187 4.794-5.36 8.467-5.36s6.859 2.174 8.467 5.36c-.752-4.197-4.255-7.373-8.467-7.373"/><path d="m47.938 42.646c-4.2 0-7.688 3.177-8.438 7.373 1.601-3.187 4.777-5.36 8.438-5.36s6.835 2.174 8.438 5.36c-.75-4.197-4.24-7.373-8.438-7.373"/><path d="m42.821 39.39h9.216c.596 0 .985-.538.865-1.196l-1.575-8.603c-.116-.659-.699-1.198-1.295-1.198h-7.211c-.597 0-1.084.55-1.084 1.222v8.553c0 .671.488 1.222 1.084 1.222"/><path d="m39.5 29.614c0-.672-.499-1.222-1.107-1.222h-6.09c-.608 0-1.342.485-1.628 1.077l-4.478 8.853c-.295.586-.038 1.067.569 1.067h11.626c.608 0 1.107-.551 1.107-1.223v-8.552z"/><path d="m61.063 49.098h-1.021c-.154-1.633-.514-4.007-.954-6.589l1.458-.303c.471-.121.762-.615.643-1.1l-1.963-10.182c-.117-.484-.601-.78-1.073-.661l-1.338.145c-.329-1.641-.546-2.688-.546-2.688s1.286-.474 1.286-2.72c0 0-2.328 0-5.898 0 0-1.421-.451-2.374-.93-3h1.922c1.5 0 1.5-2.001 0-2.001h-18.137c-1.5 0-1.5 2.001 0 2.001h2.074c-.479.626-.93 1.579-.93 3-.686 0-1.369 0-2.051 0-.081 0-.162 0-.245 0-2.081 0-4.611.084-6.998 4.493-2.132 3.936-5.252 8.08-5.401 8.232-12.398 0-14.338 4.161-16.228 7.454-.629 1.096-.874 3.015-.949 4.838h-.846c-.517.002-.938.417-.938.923v4.607c0 .507.421.922.938.922h1.875c.515 0 .938-.415.938-.922v-.921h.469 1.46c.467 4.146 4.038 7.374 8.383 7.374s7.916-3.228 8.383-7.373h.617v.921c0 .507.421.922.938.922h12c.515 0 .938-.415.938-.922v-.921h.617c.465 4.145 4.037 7.373 8.382 7.373s7.916-3.228 8.383-7.373h1.234c0 0 .301-.004.695-.169v1.09c0 .507.421.922.938.922h1.875c.515 0 .938-.415.938-.922v-5.529c-.001-.507-.424-.921-.938-.921m-22.454-27.097h10.094c.998 1.369.896 3 .896 3-3.418 0-7.604 0-11.887 0 .001 0-.102-1.631.897-3m-22.546 36.443c-2.662 0-4.821-2.123-4.821-4.739s2.159-4.74 4.821-4.74 4.821 2.124 4.821 4.74-2.159 4.739-4.821 4.739m31.875 0c-2.662 0-4.821-2.123-4.821-4.739s2.159-4.74 4.821-4.74 4.821 2.124 4.821 4.74-2.159 4.739-4.821 4.739m9.515-5.817h-1.157c-.538-4.071-4.069-7.216-8.358-7.216s-7.82 3.145-8.358 7.216h-15.159c-.538-4.071-4.069-7.216-8.358-7.216-4.29 0-7.82 3.145-8.358 7.216h-1.486-.451c-.039-1.388 0-2.929.148-4.204 1.955-1.135 2.746-2.783 1.977-2.928-.328-.063-.663-.086-.989-.08 1.654-2.866 3.743-5.688 14.057-5.688h.84l.588-.6c.348-.354 3.58-4.709 5.732-8.681 1.865-3.445 3.504-3.445 5.239-3.445h.122.123 20.471l.234 1.126c1.061 5.111 3.814 19.094 3.814 22.361.001 1.436-.392 2.056-.671 2.139"/><path d="m15.018 53.106l-1.099-1.889c-.354.004-.727.244-.987.693-.261.447-.285.889-.111 1.195h2.197z"/><path d="m15.017 54.302h-2.195c-.175.307-.151.748.11 1.197.26.447.633.688.987.691l1.098-1.888"/><path d="m14.964 56.79c.18.303.578.502 1.099.502s.918-.199 1.099-.502l-1.099-1.889-1.099 1.889"/><path d="m17.107 54.302l1.099 1.889c.354-.004.727-.244.987-.691.261-.449.285-.891.111-1.197h-2.197z"/><path d="m18.207 51.218l-1.099 1.888v.001h2.196c.174-.307.151-.748-.111-1.195-.26-.449-.632-.69-.986-.694"/><path d="m17.161 50.619c-.18-.303-.578-.503-1.098-.503s-.918.2-1.098.503l1.098 1.888 1.098-1.888"/><path d="m46.893 53.106l-1.099-1.889c-.354.004-.727.244-.987.693-.261.447-.285.889-.111 1.195h2.197z"/><path d="m46.892 54.302h-2.195c-.175.307-.151.748.11 1.197.26.447.633.688.987.691l1.098-1.888"/><path d="m46.839 56.79c.181.303.577.502 1.099.502s.918-.199 1.099-.502l-1.099-1.889-1.099 1.889"/><path d="m48.982 54.302l1.099 1.889c.354-.004.727-.244.987-.691.261-.449.285-.891.111-1.197h-2.197z"/><path d="m50.082 51.218l-1.1 1.888.001.001h2.196c.174-.307.15-.748-.111-1.195-.259-.449-.632-.69-.986-.694"/><path d="m49.035 50.619c-.18-.303-.577-.503-1.098-.503s-.918.2-1.098.503l1.098 1.888 1.098-1.888"/></svg>