<svg xmlns="http://www.w3.org/2000/svg" viewBox="0 0 64 64" enable-background="new 0 0 64 64"><path d="m62 32.244v-.188l-.036-.185c-.13-.657-.529-2.28-1.413-3.147-.744-.729-1.867-1.101-3.336-1.101-.732 0-1.378.091-1.675.141-.099.005-.197.014-.295.028-.671-2.993-1.761-7.378-2.817-9.567-1.949-4.038-4.563-4.829-6.861-5.253-1.776-.328-3.564-.555-5.656-.701v-5.381c-.001-.49-.395-.89-.88-.89h-14.062c-.482 0-.879.4-.879.89v5.381c-2.091.146-3.879.373-5.656.701-2.297.424-4.912 1.215-6.86 5.253-1.057 2.189-2.146 6.574-2.817 9.567-.098-.015-.196-.023-.295-.028-.297-.05-.943-.141-1.675-.141-1.47 0-2.592.371-3.337 1.103-.883.865-1.282 2.488-1.412 3.146l-.038.184v.188c0 1.999 1.63 3.625 3.633 3.625h.745c-.905 1.438-2.205 3.771-3.114 6.552-.591 1.814-.388 4.796-.13 7.694l.042.482c.297 3.43 2.304 4.611 4.215 4.941v4.682c0 .979.792 1.78 1.757 1.78h7.031c.967 0 1.758-.801 1.758-1.779v-3.818c3.332.213 7.648.377 14.23.377 6.436 0 10.656-.155 13.895-.361v3.803c0 .979.792 1.779 1.758 1.779h7.031c.967 0 1.758-.801 1.758-1.779v-4.683c1.914-.333 3.923-1.516 4.215-4.94l.043-.482c.258-2.898.461-5.88-.131-7.693-.908-2.781-2.208-5.115-3.113-6.553h.744c2.004-.002 3.633-1.628 3.633-3.627m-24.693-24.019c0-.245.19-.445.424-.445.232 0 .422.2.422.445v2.67c0 .244-.189.444-.422.444-.233 0-.424-.2-.424-.444v-2.67m-3.368.932l-.589-.996c-.124-.209-.028-.382.214-.382h.089c.242 0 .514.146.603.325.09.18.251.5.357.715 0 0 0 0 .088.202.006 0 .084-.174.172-.386 0 0 0 0 .094-.205l.121-.251c.107-.221.393-.4.635-.4h.083c.241 0 .337.171.21.381l-.592.979c-.127.207-.127.549 0 .758l.645 1.064c.127.207.033.378-.209.378h-.094c-.242 0-.515-.145-.608-.322-.093-.177-.261-.499-.374-.716 0 0-.021-.039-.125-.244-.006 0-.089.176-.184.391 0 0 0 0-.115.248l-.117.243c-.105.221-.39.4-.632.4h-.083c-.242 0-.338-.171-.213-.38l.623-1.04c.125-.21.125-.553.001-.762m-4.759 1.759l.868-2.714c.074-.231.333-.423.575-.423h.227c.242 0 .502.191.576.423l.882 2.714c.075.232-.06.423-.302.423h-.029c-.241 0-.499-.19-.572-.425l-.021-.064c-.072-.233-.33-.425-.572-.425h-.188c-.242 0-.495.193-.564.427l-.018.061c-.068.236-.32.427-.561.427-.24-.001-.376-.192-.301-.424m-2.893-3.137h1.984c.242 0 .439.152.439.338 0 .188-.197.339-.439.339h-.138c-.242 0-.439.2-.439.445v1.993c0 .244-.19.444-.423.444s-.424-.2-.424-.444v-1.993c0-.245-.197-.445-.439-.445h-.121c-.242 0-.439-.151-.439-.339 0-.185.197-.338.439-.338m29.363 26.183c-.189.316-.355.672-.498 1.037-1.172-1.426-2.912-2.363-4.709-2.363-2.871 0-4.797 2.39-4.303 5.339.493 2.949 3.221 5.339 6.088 5.339 2.871 0 4.799-2.39 4.305-5.339-.025-.146-.059-.29-.095-.434.8 1.347 1.794 3.262 2.519 5.476.564 1.731.158 5.571 0 7.416-.078.912-.264 3.121-3.294 3.309-5.868.363-9.183 1.14-23.495 1.14-14.31 0-17.876-.783-23.83-1.14-3.03-.18-3.215-2.396-3.294-3.309-.158-1.845-.564-5.685 0-7.416.725-2.214 1.719-4.129 2.519-5.476-.036.144-.069.287-.095.434-.494 2.949 1.433 5.339 4.304 5.339 2.867 0 5.596-2.39 6.089-5.339.494-2.949-1.433-5.339-4.304-5.339-1.796 0-3.537.938-4.708 2.363-.143-.365-.309-.721-.499-1.037-.026.002-.053.009-.08.009h-2.637c-.966 0-1.758-.777-1.758-1.727 0 0 .319-1.607.879-2.155.459-.451 1.292-.567 2.032-.567.795 0 1.483.135 1.483.135.839 0 1.544.586 1.717 1.361.846-4.221 2.18-9.696 3.271-11.959 1.502-3.113 3.242-3.801 5.513-4.22 3.184-.588 6.614-.89 13.229-.89s10.047.302 13.23.89c2.271.419 4.011 1.106 5.513 4.22 1.091 2.263 2.426 7.738 3.271 11.959.173-.775.878-1.361 1.716-1.361 0 0 .689-.135 1.484-.135.74 0 1.573.116 2.031.567.561.548.879 2.155.879 2.155 0 .949-.791 1.727-1.758 1.727h-2.635c-.027 0-.052-.007-.08-.009m-3.718 7.572c-1.912 0-3.731-1.595-4.059-3.56-.33-1.965.955-3.56 2.869-3.56 1.91 0 3.73 1.595 4.059 3.56s-.955 3.56-2.869 3.56m-42.732-3.559c.328-1.965 2.147-3.56 4.059-3.56 1.914 0 3.198 1.595 2.869 3.56-.327 1.965-2.147 3.56-4.059 3.56-1.914-.001-3.198-1.596-2.869-3.56"/><path d="m46.941 17.858c-.912-.632-7.813-1.685-14.941-1.685-7.128 0-14.028 1.053-14.941 1.685-3.466 2.401-4.395 13.489-4.395 13.489s1.784.843 4.395.843c2.088 0 2.637-1.358 14.941-1.358s12.854 1.358 14.941 1.358c2.611 0 4.395-.843 4.395-.843s-.928-11.087-4.395-13.489"/><path d="m43.258 49.14c-4.325-1.722-18.436-1.946-22.525 0-.762.362-1.55 2.183-.602 2.183 11.937 0 11.865 0 23.73 0 .948-.001.202-1.862-.603-2.183"/><ellipse cx="10.906" cy="48.653" rx="1.758" ry="1.78"/><ellipse cx="53.094" cy="48.653" rx="1.758" ry="1.78"/><path d="m38.69 43.897c1.575 0 2.458-1.24 1.96-2.755l-.1-.298c-.498-1.515-2.219-3.423-3.773-3.723-2.352-.458-7.201-.458-9.555 0-1.553.3-3.275 2.208-3.773 3.723l-.099.298c-.498 1.515.385 2.755 1.96 2.755h13.38m-14.09-2.326l.102-.305c.392-1.191 1.816-2.648 2.77-2.834 1.029-.2 2.721-.319 4.529-.319s3.502.119 4.529.319c.955.186 2.379 1.643 2.773 2.84l.097.291c.103.312.095.582-.021.743-.116.161-.367.256-.688.256h-13.38c-.322 0-.572-.095-.688-.256s-.123-.431-.023-.735"/><path d="m36.797 39.004h-9.594c-.346.174-.746.496-1.111.89h11.816c-.365-.394-.765-.716-1.111-.89"/><path d="m38.886 41.415c-.069-.207-.179-.421-.304-.632h-13.164c-.124.209-.232.419-.301.625l-.089.265h13.943l-.085-.258"/><path d="m30.717 9.824c.227 0 .36-.17.297-.378-.064-.208-.171-.571-.237-.807 0 0-.013-.046-.067-.258-.006 0-.057.195-.111.433 0 0-.011.048-.07.254l-.098.33c-.07.234.059.426.286.426"/></svg>