<svg xmlns="http://www.w3.org/2000/svg" viewBox="0 0 64 64" enable-background="new 0 0 64 64"><path d="m32 2c-16.568 0-30 13.432-30 30s13.432 30 30 30 30-13.432 30-30-13.432-30-30-30m24 30c0 5.547-1.886 10.648-5.045 14.713l-10.84-10.84h.85v-12.781c0-.642-.662-1.162-1.479-1.162h-11.525c-.526 0-.984.218-1.246.543l-9.427-9.428c4.064-3.158 9.166-5.045 14.712-5.045 13.255 0 24 10.745 24 24m-26.709-6.951l-.087-.088.087-.707v.795m10.114 10.114l-1.249-1.249v-9.66l1.249 10.909m-31.405-3.163c0-5.546 1.886-10.648 5.045-14.713l12.428 12.43-2.678 2.16v1.34l4.093-2.085 2.402 2.402v16.282h2.956l1.477-11.619 1.479 11.619h2.954v-7.417l8.556 8.557c-4.065 3.158-9.166 5.044-14.712 5.044-13.255 0-24-10.744-24-24"/><path d="m32.602 20.381h2.595c.956 0 1.73-.618 1.73-1.379v-3.44c0-.761-.774-1.378-1.73-1.378h-2.595c-.956 0-1.73.617-1.73 1.378v3.44c-.001.761.774 1.379 1.73 1.379"/><path d="m19.925 34.23h2.815v3.754h-2.815z"/><path d="m23.785 38.863h2.815v3.756h-2.815z"/><path d="m19.162 43.146h2.816v3.754h-2.816z"/></svg>