<svg xmlns="http://www.w3.org/2000/svg" viewBox="0 0 64 64" enable-background="new 0 0 64 64"><path d="m2 48.875v13.125l60-.002-.001-13.123h-59.999m22.354 6.16c-.599-.002-1.081-.634-1.08-1.42-.001-.781.482-1.417 1.082-1.417.597 0 1.079.636 1.079 1.417.003.786-.483 1.42-1.081 1.42m1.082 2.221c0 .783-.482 1.415-1.08 1.417-.601 0-1.081-.634-1.08-1.419 0-.78.48-1.417 1.08-1.415.596 0 1.081.635 1.08 1.417m-3.894-7.443c.597 0 1.081.632 1.08 1.417.001.782-.483 1.418-1.081 1.418-.596.001-1.079-.636-1.079-1.418-.001-.786.483-1.417 1.08-1.417m-1.947 0c.002.782-.482 1.417-1.083 1.417-.596 0-1.08-.635-1.08-1.417h2.163m-4.109 0c.596 0 1.079.632 1.08 1.417 0 .782-.482 1.418-1.08 1.419-.598-.001-1.082-.637-1.082-1.419.001-.786.485-1.417 1.082-1.417m0 4.206c.597 0 1.08.636 1.08 1.417 0 .786-.483 1.417-1.08 1.417-.598 0-1.082-.631-1.082-1.417.001-.782.485-1.417 1.082-1.417m-11.464-4.206c.597 0 1.082.632 1.082 1.417 0 .782-.485 1.419-1.082 1.418-.6.001-1.084-.636-1.085-1.418.001-.786.486-1.417 1.085-1.417m0 11.25c-.599-.002-1.084-.635-1.085-1.419.001-.784.486-1.419 1.085-1.419.598 0 1.082.635 1.082 1.421 0 .782-.484 1.417-1.082 1.417m0-4.21c-.599 0-1.085-.631-1.085-1.417 0-.781.485-1.417 1.085-1.417.597 0 1.082.636 1.082 1.417 0 .786-.485 1.417-1.082 1.417m1.946 4.21c-.001-.785.485-1.419 1.082-1.417.595-.002 1.081.632 1.081 1.415l-2.163.002m1.081-2.39c-.597-.002-1.082-.634-1.081-1.419 0-.78.483-1.415 1.082-1.417.595.002 1.081.637 1.081 1.417-.001.785-.485 1.419-1.082 1.419m.001-3.638c-.597-.002-1.083-.634-1.083-1.42 0-.781.484-1.417 1.083-1.417.595 0 1.081.636 1.081 1.417 0 .786-.485 1.418-1.081 1.42m0-3.806c-.599 0-1.082-.635-1.083-1.417h2.164c0 .783-.485 1.417-1.081 1.417m3.026 9.834c-.597 0-1.082-.635-1.081-1.419-.001-.784.483-1.419 1.081-1.419.6 0 1.083.635 1.083 1.419.001.784-.483 1.417-1.083 1.419m0-4.21c-.598 0-1.082-.631-1.081-1.417-.001-.781.482-1.417 1.081-1.417.599 0 1.084.636 1.083 1.417 0 .786-.483 1.417-1.083 1.417m0-4.206c-.598 0-1.082-.636-1.082-1.418 0-.785.484-1.417 1.082-1.417.6 0 1.083.632 1.084 1.417 0 .783-.484 1.418-1.084 1.418m1.732 8.416c0-.785.483-1.419 1.081-1.419.596 0 1.082.634 1.082 1.419h-2.163m1.081-2.39c-.595 0-1.08-.634-1.081-1.417 0-.782.485-1.417 1.081-1.417.597-.002 1.082.635 1.082 1.415-.001.785-.486 1.419-1.082 1.419m0-3.64c-.596.002-1.081-.632-1.081-1.418 0-.781.484-1.417 1.081-1.417.597 0 1.082.636 1.082 1.417 0 .786-.487 1.42-1.082 1.418m.001-3.804c-.598 0-1.082-.635-1.081-1.417h2.162c0 .783-.486 1.417-1.081 1.417m2.596 9.832c-.598 0-1.082-.633-1.082-1.417s.483-1.419 1.082-1.419c.596 0 1.08.635 1.08 1.419s-.483 1.419-1.08 1.417m1.946.002c-.001-.785.484-1.419 1.081-1.419.599 0 1.084.634 1.083 1.419h-2.164m-.001-3.807c.001-.782.483-1.417 1.082-1.417.6-.002 1.083.635 1.082 1.417.001.783-.482 1.417-1.083 1.417-.598 0-1.081-.634-1.081-1.417m1.082-2.223c-.599.002-1.081-.632-1.082-1.418 0-.781.485-1.417 1.081-1.417.6.002 1.085.636 1.084 1.417 0 .786-.485 1.42-1.083 1.418m3.028 6.03c-.596-.002-1.08-.635-1.08-1.417 0-.786.484-1.421 1.08-1.421.598 0 1.081.635 1.082 1.419-.001.784-.484 1.417-1.082 1.419m0-4.21c-.596 0-1.078-.631-1.08-1.417 0-.781.484-1.417 1.081-1.417s1.08.636 1.081 1.417c-.001.786-.484 1.417-1.082 1.417m1.733 4.208c0-.783.481-1.417 1.08-1.417s1.081.634 1.082 1.419l-2.162-.002m1.081-9.832c-.6 0-1.081-.635-1.081-1.417h2.163c0 .783-.485 1.417-1.082 1.417m3.552 8.896v-9.375h28.81l.001 9.375h-28.811"/><path d="M62,46.07C43.144,10.432,28.582,34.915,33.367,16.987c7.907-29.617-46.223-9.593-27.344,10.79
		C19.635,42.476,52.004,32.814,62,46.07z"/></svg>