<svg xmlns="http://www.w3.org/2000/svg" viewBox="0 0 64 64" enable-background="new 0 0 64 64"><path d="M59.188,59.188V29.189c0-36.533-54.375-35.97-54.375,0v29.998H2V62h60v-2.813H59.188z M54.467,59.188H9.535V31.675
		c0-32.989,44.932-33.505,44.932,0V59.188z"/><path d="m13.79 30.265h15.599v-18.5c-7.821 1.162-14.984 7.364-15.599 18.5"/><path d="m13.74 35.49h15.648v18.7h-15.648z"/><path d="m34.613 11.736v18.529h11.411v5.225h-11.411v18.7h15.647v-11.07h3.265v-15h-3.515c-1.346-9.944-8.082-15.381-15.397-16.384m12.349 17.79h5.625v12.188h-5.625v-12.188"/><path d="m50.712 37.37c0-.518-.422-.938-.938-.938-.517 0-.937.42-.937.938 0 .31.152.583.383.753l-.392 2.505h1.892l-.392-2.505c.232-.17.384-.443.384-.753"/><path d="m49.775 30.022c-1.488 0-2.695 1.206-2.695 2.695 0 1.484 1.207 2.691 2.695 2.691 1.487 0 2.692-1.207 2.692-2.691.001-1.489-1.204-2.695-2.692-2.695m0 4.568c-1.036 0-1.876-.839-1.876-1.874 0-1.037.84-1.875 1.876-1.875 1.035 0 1.874.839 1.874 1.875 0 1.035-.838 1.874-1.874 1.874"/></svg>