<svg xmlns="http://www.w3.org/2000/svg" viewBox="0 0 64 64" enable-background="new 0 0 64 64"><path d="m62 19.055v-2.009l-22.348-4.486.486-2.514-3.191-.623-2.127-3.483-3.925-.767-3.027 2.478-3.436-.67-.47 2.428-21.962-4.409v2.008l28 5.622v8.83h-10.958c-5.523 0-10 4.495-10 10.039 0 4.365 0 17.462 0 17.462 0 5.544 4.477 10.039 10 10.039h25.915c5.523 0 10-4.495 10-10.039v-17.462c0-5.544-4.477-10.039-10-10.039h-10.957v-8.027l28 5.622m-49.88 33.922c-.359-.623-.642-1.295-.825-2.008h41.41c-.184.713-.467 1.385-.824 2.008h-39.761m32.837-29.517c4.412 0 8 3.606 8 8.039v16.462h-41.915v-16.462c0-4.433 3.589-8.039 8-8.039h25.915"/><path d="m13.02 33.43v11.425h9.137c.291-8.062 2.223-15.953 3.277-19.724h-4.146c-4.567 0-8.268 3.715-8.268 8.299"/><path d="m39.156 44.854c-.291-8.046-2.227-15.948-3.279-19.724h-7.753c-1.055 3.775-2.988 11.678-3.279 19.724h14.311"/><path d="M50.98,44.854V33.43c0-4.584-3.701-8.299-8.268-8.299h-4.148c1.055,3.771,2.988,11.662,3.279,19.724H50.98z"/></svg>