<svg xmlns="http://www.w3.org/2000/svg" viewBox="0 0 64 64" enable-background="new 0 0 64 64"><path d="m61.063 17h-8.438v-2.148c2.71-.807 4.688-3.315 4.688-6.289 0-3.625-2.937-6.563-6.563-6.563-3.624 0-6.563 2.938-6.563 6.563 0 2.974 1.978 5.481 4.688 6.289v2.148h-33.75v-2.148c2.71-.807 4.688-3.315 4.688-6.289 0-3.625-2.938-6.563-6.563-6.563-3.624 0-6.562 2.938-6.562 6.563 0 2.974 1.978 5.481 4.688 6.289v2.148h-8.438c-.519 0-.938.419-.938.938v18.75c0 .519.419.938.938.938h8.438v6.563h-3.438v3.75h3.437v10.752c0 .839-1.875 3.309-1.875 3.309h1.875 3.75 1.875c0 0-1.875-2.47-1.875-3.311v-10.751h33.75v10.752c0 .84-1.875 3.31-1.875 3.31h1.875 3.75 1.875c0 0-1.875-2.47-1.875-3.311v-10.751h3.437v-3.75h-3.437v-6.563h8.438c.519 0 .938-.419.938-.938v-18.75c-.001-.518-.42-.937-.938-.937m-20.704 1.875h9.907l-6.974 16.875h-9.905l6.972-16.875m-31.796-10.312c0-2.587 2.099-4.688 4.688-4.688s4.688 2.101 4.688 4.688c0 2.589-2.099 4.688-4.688 4.688s-4.688-2.1-4.688-4.688m-4.418 26.905c-.166-.168-.27-.399-.27-.655v-15c0-.519.419-.938.938-.938h6.579l-7.247 16.593m9.105 11.283c-.38 0-.688-.308-.688-.688s.309-.688.688-.688.688.308.688.688-.308.688-.688.688m.053-11.001l7.372-16.875h9.94l-6.974 16.875h-10.338m35.572 8.438h-33.75v-6.563h33.75v6.563m1.875 2.563c-.38 0-.688-.308-.688-.688s.309-.688.688-.688.688.308.688.688-.308.688-.688.688m0-33.501c-2.589 0-4.688-2.099-4.688-4.688 0-2.587 2.099-4.688 4.688-4.688s4.688 2.101 4.688 4.688c0 2.589-2.099 4.688-4.688 4.688m9.375 21.563c0 .519-.419.938-.938.938h-6.149l6.842-16.557c.148.166.245.379.245.619v15"/></svg>