<svg xmlns="http://www.w3.org/2000/svg" viewBox="0 0 64 64" enable-background="new 0 0 64 64"><path d="m25.755 34.964h-2.683c-.247 0-.447.202-.447.451v.901c0 .248.2.448.447.448h2.683c.245 0 .447-.2.447-.448v-.901c0-.249-.202-.451-.447-.451"/><path d="m31.12 34.964h-2.683c-.247 0-.447.202-.447.451v.901c0 .248.2.448.447.448h2.683c.245 0 .447-.2.447-.448v-.901c0-.249-.202-.451-.447-.451"/><path d="m20 29.04h1.327v2.722h-1.327z"/><path d="m23.366 29.04h1.326v2.722h-1.326z"/><path d="m26.729 29.04h1.328v2.722h-1.328z"/><path d="m30.095 29.04h1.326v2.722h-1.326z"/><path d="m33.458 29.04h1.328v2.722h-1.328z"/><path d="m36.825 29.04h1.326v2.722h-1.326z"/><path d="m40.188 29.04h1.327v2.722h-1.327z"/><path d="m43.553 29.04h1.327v2.722h-1.327z"/><path d="m13.604 13.073c-.32-.269-.667-.612-.882-.88l-.348-.431-.542.09c-.929.157-1.818.15-2.7-.121-.437-.143-.889-.329-1.315-.605-.443-.262-.856-.597-1.288-.984.056.591.309 1.139.634 1.649.344.495.788.954 1.332 1.284.932.594 2.081.771 3.149.66.303.299.613.534.967.759.487.308 1.03.534 1.597.663 1.138.254 2.363.009 3.186-.686-1.073-.027-1.963-.237-2.722-.668-.384-.201-.734-.457-1.068-.73"/><path d="m25.147 16.547c-.307-.128-.554-.307-.761-.484-.206-.185-.38-.38-.53-.604-.143-.204-.303-.504-.361-.659l-.288-.771-.782.173c-.75.165-1.463.257-2.158.16-.693-.091-1.417-.401-2.113-1.055-.023.983.674 1.954 1.638 2.434.744.37 1.566.459 2.338.385.123.178.258.339.416.503.332.329.744.596 1.191.741.907.298 1.848.084 2.465-.458-.4-.122-.752-.216-1.055-.365"/><path d="m56.561 51.763c.12-3.085.999-4.501 2.327-6.646l.32-.517c2.471-4.02 3.308-7.156 2.486-9.325-.564-1.493-1.703-1.989-2.018-2.101-1.518-.654-3.778-1.002-6.539-1.002-1.209 0-3.064.078-5.445.402v-4.879-.93h-.924-2.725v-.872-1.802h-8.006l-2.777-5.6c-.109-.047-.223-.081-.334-.123-.119-1.116-.805-2.063-1.767-2.534-.069-1.973-1.31-3.719-3.091-4.452-.865-2.244-3.002-3.752-5.444-3.752-.442 0-.881.052-1.31.152-1.221-1.33-2.922-2.12-4.742-2.177-1.385-2.214-3.833-3.605-6.466-3.605-4.214 0-7.643 3.456-7.643 7.704 0 4.246 3.428 7.702 7.643 7.702.511 0 1.021-.053 1.525-.157 1.257 1.256 2.937 1.959 4.734 1.959 1.073 0 2.113-.253 3.058-.739.938.62 2.03.958 3.168.965.662.713 1.514 1.206 2.449 1.433l-.402 3.227h-3.758l-4.46 1.53v1.531 1.339l-2.737 1.257v5.185h2.683v2.225l-6.259 3.153v6.14c-3.893 1.11-6.329 1.449-6.378 1.455l-.803.106v3.753h-.926v10.232h59.077v-10.233h-4.517c.001 0 .001-.003.001-.004m-33.351-33.784c-.193.026-.385.06-.585.06-1.206 0-2.296-.486-3.101-1.268-.887.651-1.977 1.042-3.159 1.042-1.741 0-3.284-.839-4.264-2.134-.627.212-1.297.332-1.995.332-3.457 0-6.258-2.823-6.258-6.307 0-3.485 2.801-6.309 6.258-6.309 2.51 0 4.668 1.491 5.666 3.64.195-.021.393-.035.593-.035 1.864 0 3.504.958 4.466 2.411.549-.244 1.154-.384 1.794-.384 2.113 0 3.872 1.481 4.34 3.467 1.608.352 2.813 1.791 2.813 3.517 0 .318-.053.62-.131.914.045-.003.087-.013.131-.013.711 0 1.318.421 1.607 1.025-.521-.096-1.057-.153-1.607-.153-1.414 0-3.281.341-4.471.932l-.094.755c-.831-.242-1.538-.778-2.003-1.492m-5.056 9.717h28.615v5.018c-.703.107-1.437.234-2.218.391h-26.397v-5.409m15.234 8.781c-2.359.95-4.851 2.098-7.457 3.506-1.75.944-3.455 1.778-5.094 2.521v-8.469h19.787c-1.197.325-2.451.705-3.764 1.151-.078-.131-.214-.222-.375-.222h-2.683c-.247 0-.446.202-.446.451v.901c0 .057.012.111.032.161m-16.128 3.784c0-.248.184-.535.405-.642l1.873-.88c.223-.106.404.011.404.259v2.043c0 .248-.188.521-.418.608l-1.845.694c-.231.087-.42-.045-.42-.293v-1.789zm-3.13 1.471c0-.248.184-.537.406-.642l1.426-.67c.222-.105.404.012.404.26v1.706c0 .248-.188.522-.418.608l-1.397.526c-.23.086-.42-.046-.42-.294v-1.494zm-3.13 1.47c0-.248.184-.535.406-.64l1.426-.671c.222-.105.404.012.404.26v1.414c0 .248-.188.521-.418.608l-1.397.525c-.23.086-.42-.045-.42-.293v-1.203zm-6.229 6.424c2.654-.458 11.47-2.302 22.031-8.003 12.682-6.85 22.642-7.589 26.336-7.589 2.496 0 4.57.307 5.84.864l.107.038c.005.002.59.22.885 1.001.096.252.174.612.178 1.094-.598-.517-1.25-.875-1.75-1.079-5.538-1.563-18.201-.427-32.242 7.156-10.042 5.422-18.636 6.708-21.385 6.995v-.477m49.813 6.507c-3.188.634-16.266 3.075-28.256 3.075-6.394 0-11.487-.687-15.141-2.04-1.406-.521-3.584-1.54-6.416-4.384v-1.779c2.787-.285 11.582-1.581 21.806-7.102 13.619-7.354 26.186-8.55 31.494-7.112.564.229 1.369.665 1.961 1.384-.238 1.25-.895 3.008-2.395 5.446l-.314.511c-1.379 2.223-2.468 3.98-2.606 7.546-.077 1.454-.122 2.949-.133 4.455"/></svg>