<svg xmlns="http://www.w3.org/2000/svg" viewBox="0 0 64 64" enable-background="new 0 0 64 64"><path d="m32 2c-1.647 0-3.259.149-4.834.406-.851-.269-1.789-.406-2.785-.406-5.627 0-12.896 4.066-14.178 9.406-5.079 5.373-8.203 12.615-8.203 20.594 0 16.566 13.432 30 30 30s30-13.434 30-30c0-16.568-13.432-30-30-30m-19.527 8.894c1.604-3.672 7.169-6.894 11.909-6.894 1.302 0 3.055.261 4.01 1.505.914 1.19 1.025 3.211.322 5.845-.765 2.866-1.012 4.794-.006 6.165.964 1.314 2.51 1.382 3.873 1.442 2.274.101 6.054.268 10.709 6.057-3.203-.888-6.884-1.247-10.67-1.615-7.103-.693-14.446-1.408-18.505-5.791-2.062-2.227-2.615-4.487-1.642-6.714m16.785 22.606l5 5h-5.32v-5h.32m2.742 22.5c-13.255 0-24-10.746-24-24 0-5.03 1.574-9.678 4.221-13.533.14.167.273.333.428.5 1.626 1.756 3.663 2.979 5.941 3.865l9.168 9.168h-15.758v8h23.758l10.955 10.955c-4.065 3.158-9.167 5.045-14.713 5.045m-5.26-18.311c-.37 0-.669-.33-.668-.74 0-.408.298-.742.668-.74.37 0 .668.332.668.74 0 .41-.298.74-.668.74m.525.811h-1.05c.122-.18.307-.303.524-.303.22 0 .404.123.526.303m-.526-2.711c-.369-.002-.668-.332-.668-.742 0-.408.3-.74.669-.74.37 0 .668.332.668.74.001.41-.298.742-.669.742m-.522-2.289h1.047c-.122.178-.306.301-.523.301s-.403-.123-.524-.301m-1.215 3.238c-.369 0-.667-.33-.668-.74 0-.408.299-.74.668-.74.368 0 .667.332.669.74-.003.41-.301.74-.669.74m.669 1.459c-.001.108-.024.21-.062.303h-1.215c-.037-.092-.061-.193-.061-.301 0-.41.299-.744.668-.744s.668.334.67.742m-1.337-4.396c0-.107.022-.209.06-.301h1.217c.037.092.06.193.059.301.002.409-.299.74-.667.74-.37 0-.669-.331-.669-.74m-1.205 3.888c-.369 0-.668-.33-.668-.74 0-.408.299-.74.67-.74.369-.002.667.332.667.74 0 .41-.298.74-.669.74m.526.811h-1.05c.122-.18.307-.303.525-.303.219 0 .404.123.525.303m-.524-2.713c-.371.002-.67-.33-.67-.74 0-.408.3-.74.668-.74.371 0 .672.332.669.74 0 .41-.298.742-.667.74m-.525-2.287h1.048c-.122.178-.307.301-.525.301-.217 0-.4-.123-.523-.301m-1.346 3.238c-.372 0-.669-.33-.669-.74 0-.408.3-.74.669-.74s.667.332.667.74c0 .41-.298.74-.667.74m.667 1.459c0 .108-.023.21-.061.303h-1.214c-.037-.093-.061-.194-.061-.303-.001-.408.299-.742.668-.742.368 0 .668.334.668.742m-.667-3.656c-.369 0-.669-.331-.668-.74 0-.107.021-.209.059-.301h1.217c.037.092.06.193.06.301-.001.409-.299.74-.668.74m-1.606 3.148c-.368 0-.667-.33-.667-.74 0-.408.299-.74.667-.74.368-.002.667.332.667.74 0 .41-.299.74-.667.74m.524.811h-1.049c.123-.18.308-.303.525-.303s.402.123.524.303m-.524-2.713c-.368.002-.667-.33-.669-.74.002-.408.301-.74.669-.74s.667.332.667.74c0 .41-.299.742-.667.74m-.523-2.287h1.046c-.122.178-.306.301-.521.301-.218 0-.403-.123-.525-.301m-1.215 3.238c-.369 0-.668-.33-.668-.74 0-.408.299-.74.668-.74.37 0 .67.332.67.74 0 .41-.3.74-.67.74m.67 1.459c0 .108-.023.21-.061.303h-1.217c-.037-.093-.061-.194-.061-.303 0-.408.299-.742.668-.742.371 0 .671.334.671.742m-.67-3.656c-.369 0-.668-.331-.668-.74 0-.107.022-.209.06-.301h1.219c.037.092.06.193.06.301-.001.409-.301.74-.671.74m-1.871 3.148c-.368 0-.668-.33-.668-.74 0-.408.3-.74.669-.742.368.002.668.334.668.742 0 .41-.3.74-.669.74m.525.811h-1.049c.122-.179.307-.302.524-.301.219-.001.402.122.525.301m-.524-2.711c-.368-.002-.669-.332-.67-.742.001-.408.301-.74.67-.74.368 0 .668.332.668.74 0 .41-.3.74-.668.742m-.524-2.289h1.046c-.122.178-.306.301-.522.301s-.401-.123-.524-.301m-1.347 3.238c-.37 0-.67-.33-.67-.74 0-.408.3-.74.67-.74s.669.332.669.74c0 .41-.3.74-.669.74m.669 1.461c0 .107-.023.209-.061.301h-1.217c-.038-.093-.062-.194-.062-.303 0-.408.3-.742.67-.742s.67.334.67.744m-.669-3.658c-.37 0-.67-.331-.67-.74 0-.107.022-.209.06-.301h1.22c.037.092.06.193.06.301-.001.409-.301.74-.67.74m23.566-1.041h8.383l.001 5h-3.383l-5.001-5m13.214 13.213l-6.713-6.713h5.758v-8h-13.759l-6.928-6.928c8.175.893 16.491 1.045 20.18 5.936-12.411-23.459-21.997-7.344-18.847-19.143.389-1.458.539-2.724.51-3.83.282-.011.559-.035.844-.035 13.255 0 24 10.744 24 24 0 5.546-1.887 10.648-5.045 14.713"/></svg>