<svg xmlns="http://www.w3.org/2000/svg" viewBox="0 0 64 64" enable-background="new 0 0 64 64"><path d="m62 15.126l-20.242-3.795c.146.024.295.045.449.045 1.555 0 2.813-1.26 2.813-2.813s-1.258-2.813-2.813-2.813c-1.041 0-1.939.573-2.426 1.415l-15.218-2.766c-.202-1.355-1.36-2.399-2.771-2.399-1.553 0-2.812 1.261-2.812 2.813 0 1.139.679 2.113 1.652 2.556l-18.632-3.493v1.875l28.717 5.384.01 9.43h-18.469c-5.665 0-10.258 4.593-10.258 10.259v20.918c0 5.666 4.593 10.258 10.258 10.258h.192 39.101.191c5.666 0 10.258-4.592 10.258-10.258v-20.918c0-5.666-4.592-10.259-10.258-10.259h-17.265l-.01-8.727 27.533 5.163v-1.875m-41.146-10.313c0-.518.422-.938.938-.938.52 0 .938.42.938.938s-.418.938-.938.938c-.516 0-.938-.42-.938-.938m9.863 4.447l-8.79-1.648c.983-.047 1.827-.597 2.292-1.401l6.498 1.181v1.868m28.754 44.534c-.186.729-.469 1.415-.832 2.052h-53.277c-.363-.637-.647-1.323-.833-2.052h54.942m-7.729-31.229c4.553 0 8.258 3.705 8.258 8.259v20.918h-56v-20.918c0-4.554 3.705-8.259 8.258-8.259h39.484m-9.535-14.939c.52 0 .938.42.938.938 0 .519-.418.938-.938.938-.516 0-.938-.419-.938-.938.001-.518.422-.938.938-.938m-7.74 2.337v-1.889l4.971.904c.17 1.14 1.016 2.053 2.121 2.315l-7.092-1.33"/><path d="m20.059 24.316h9.902v23.23h-9.902z"/><path d="m34.039 24.316h9.9v23.23h-9.9z"/><path d="m57.92 32.796c0-4.684-3.797-8.479-8.48-8.479h-1.42v23.23h9.9v-14.751"/><path d="m6.08 32.796v14.751h9.9v-23.23h-1.42c-4.683-.001-8.48 3.795-8.48 8.479"/></svg>