<svg xmlns="http://www.w3.org/2000/svg" viewBox="0 0 64 64" enable-background="new 0 0 64 64"><path d="m62 47.406v-8.604l-1.387 2.803-16.231-2.474-.399-7.114c0 0-.018-.005-.046-.012l.234-2.85c1.866-2.17 2.711-4.979 1.663-7.514-.155-.376-.593-.932-1.312-1.396.986-.346 1.778-.484 1.778-.484s-1.688-.92-3.524-.535c.713-.468 1.259-.733 1.259-.733s-1.904-.423-3.626.435c.565-.57 1.007-.928 1.007-.928s-3.438-.002-4.828 2.757c-.274.546-.158 1.262-.024 1.742-.779 1.011-.737 2.113-.699 2.751.005.093.011.18.012.257-.064.093-.23.283-.66.665-.424.378-.571.88-.395 1.344.182.476.65.771 1.101.911.011.173.062.386.237.576.015.015.029.029.043.043-.021.091-.029.187-.022.285.017.239.118.531.452.764-.002.346.069.756.36 1.104.326.391.832.589 1.502.589.532 0 1.196-.127 2.005-.378.031.323-.024.622-.079.831-.149.129-.27.289-.35.488-.243.608-.454 1.563-.627 2.546l-1.315.025c-.092-.576-.549-1.041-1.146-1.083l-.377-.029-.028-.002-.064-.001c-.292 0-.569.101-.788.276-.289.035-.533.128-.752.249v-6.56c-.609.093-2.35.47-4.404 1.604-2.957 1.632-4.395 3.065-4.395 3.065l-24.175-.27.787 1.696c.132.285 1.771 3.706 5.577 7.731h-6.364v20.024h60v-10.197h-21.616c0 0 6.701-2.766 7.838-2.65.424.042.683.189.834.387.069-.234.118-.475.135-.701h.763c-.29.359-.547.699-.758.992.167.597-.225 1.363-.225 1.363s2.778-2.754 4.231-2.449c1.016.211 0 2.326 0 2.326s2.047-3.842 4.202-4.474c-.015-.869-.29-1.683-1.248-1.778-2.199-.218-4.478 1.941-5.968 3.732l-1.034-.211c-.077-.287-.266-.507-.644-.574-.418-.076-.908-.008-1.429.15l-18.058-3.691 28.018.574-46.127-7.826c3.559 4.168 9.369 9.141 18.185 11.865h15.985c-1.632.947-3.06 2.162-3.06 2.162s.371-.697 0-.803c-1.676-.479-7.064 1.605-7.064 1.605h-6.113c-13.934-3.838-20.894-12.88-23.285-16.68l54.122 8.364-1.497 3.025c1.396.16.58 3.033.58 3.033l3.233-2.138m-20.442-15.602c.278-.338.523-.768.721-1.245.513-.486.846-1.156 1.052-1.702.034.043.069.08.104.116l-.237 2.885c-.469-.072-1.077-.126-1.64-.054m-3.064-.766c-1.251 0-1.156-.865-1.06-1.399-1.076-.292-.181-.853.309-1.104-.096.077-.234.188-.386.309-.331.262-.12.469.333.188.26-.162.982-.773.982-.773l-.775.171c-.461.088-.758.13-.938.13-.516 0-.144-.326-.343-.797-.035.007-.074.011-.116.011-.491 0-1.425-.469-.786-1.039.312-.277.898-.807.911-1.097.026-.601-.272-1.786.638-2.818-.003-.004-.006-.008-.008-.011.783-.314 2.289-.824 3.194-.522 1.514.505.484 2.146 1.049 3.442h.274c1.004-2.603 3.029-1.622 2.63.288-.47 2.249-1.536 1.837-1.545 1.831-.067.292-.524 2.102-1.636 2.522-1.284.484-2.149.668-2.727.668m-.418 5.891l1.114-.021c-.075.549-.134 1.038-.176 1.406l-1.682-.257c.513-.201.68-.643.744-1.128m-2.016-1.738c.004 0 .008 0 .011 0 .087-.154.253-.256.441-.256.012 0 .023 0 .035 0l.383.03c.283.02.502.267.488.55l-.043.795c-.046.899-.058 1.111-.735 1.111-.209 0-.481-.02-.837-.047-.464-.033-.702-.23-.831-.45v-1.218c.232-.436.704-.515 1.088-.515m-2.842-2.948c-1.111.365-2.143 1.039-3.073 1.778-.963.766-1.887-.973-.935-1.729 1.059-.843 2.252-1.565 3.516-1.98 1.146-.375 1.631 1.557.492 1.931"/><path d="m37.728 24.911c-.288 0-.37.331-.37.741 0 .408.082.74.37.74.287 0 .52-.332.52-.74-.001-.41-.233-.741-.52-.741"/><path d="m42.827 26.913c-.292-1.282.852-2.224.852-2.224-.665 0-1.33.686-1.33 1.484 0 .556.478.74.478.74"/></svg>