<svg xmlns="http://www.w3.org/2000/svg" viewBox="0 0 64 64" enable-background="new 0 0 64 64"><path d="m47 17h-30c-8.25 0-15 6.75-15 15 0 8.251 6.75 15 15 15h30c8.25 0 15-6.749 15-15 0-8.25-6.75-15-15-15m-33.75 22.5c-4.141 0-7.5-3.357-7.5-7.5 0-4.142 3.359-7.5 7.5-7.5 4.143 0 7.5 3.358 7.5 7.5 0 4.143-3.357 7.5-7.5 7.5m18.75 0c-4.141 0-7.5-3.357-7.5-7.5 0-4.142 3.359-7.5 7.5-7.5 4.143 0 7.5 3.358 7.5 7.5 0 4.143-3.357 7.5-7.5 7.5m18.75 0c-4.141 0-7.5-3.357-7.5-7.5 0-4.142 3.359-7.5 7.5-7.5 4.143 0 7.5 3.358 7.5 7.5 0 4.143-3.357 7.5-7.5 7.5"/></svg>