<svg xmlns="http://www.w3.org/2000/svg" viewBox="0 0 64 64" enable-background="new 0 0 64 64"><path d="m32 2c-8.25 0-15 6.751-15 15v30c0 8.25 6.75 15 15 15s15-6.75 15-15v-30c0-8.249-6.75-15-15-15m0 56.25c-4.143 0-7.5-3.358-7.5-7.5 0-4.143 3.357-7.5 7.5-7.5 4.141 0 7.5 3.357 7.5 7.5 0 4.142-3.359 7.5-7.5 7.5m0-18.75c-4.143 0-7.5-3.358-7.5-7.5 0-4.143 3.357-7.5 7.5-7.5 4.141 0 7.5 3.357 7.5 7.5 0 4.142-3.359 7.5-7.5 7.5m0-18.75c-4.143 0-7.5-3.358-7.5-7.5 0-4.143 3.357-7.5 7.5-7.5 4.141 0 7.5 3.357 7.5 7.5 0 4.142-3.359 7.5-7.5 7.5"/></svg>