<svg xmlns="http://www.w3.org/2000/svg" viewBox="0 0 64 64" enable-background="new 0 0 64 64"><path d="m48.598 27.544c0-2.258-7.432-4.088-16.598-4.088s-16.597 1.83-16.597 4.088l-4.595 24.009c-.03.091-.053.181-.053.272v4.088c.001 2.256 9.513 4.087 21.245 4.087 11.734 0 21.245-1.831 21.245-4.087v-4.088c0-.092-.021-.182-.052-.272l-4.595-24.009m-7.967 21.235l-6.783-4.177-1.848 7.585-1.848-7.584-6.783 4.177 4.071-6.961-7.39-1.896 7.39-1.895-4.071-6.963 6.783 4.179 1.848-7.585 1.848 7.582 6.783-4.177-4.07 6.962 7.389 1.896-7.389 1.897 4.07 6.96"/><path d="m55.32 8.855l-7.427 11.424 12.068-6.746z"/><path d="m8.682 8.855l-4.642 4.678 12.068 6.746z"/><path d="m2 23.452v5.473l11.237-1.61z"/><path d="m50.764 27.315l11.236 1.61v-5.473z"/><path d="m24.215 4l-6.048.974 7.554 13.743z"/><path d="M39.786 4 38.28 18.717 45.834 4.974z"/></svg>