<svg xmlns="http://www.w3.org/2000/svg" viewBox="0 0 64 64" enable-background="new 0 0 64 64"><path d="m19.986 15.719c0-.942-.752-1.676-1.684-1.676s-1.687.733-1.687 1.676.755 1.675 1.687 1.675 1.684-.732 1.684-1.675"/><path d="m26.542 17.395c.932 0 1.688-.733 1.688-1.675s-.756-1.676-1.688-1.676c-.933 0-1.686.733-1.686 1.676s.754 1.675 1.686 1.675"/><path d="m35.408 53.486c-.193.024-.328.041-.426.055.184-.023.426-.055.426-.055"/><path d="m23.271 59.448c-.172.023-.258.033 0 0"/><path d="m46.535 59.451c.135-.018.328-.042.436-.057-.203.028-.344.045-.436.057"/><path d="m25.369 21.217c.142-.262-.047-.524-.254-.367-1.734 1.361-3.66 1.361-5.387 0-.207-.157-.396.104-.253.367.525.995 1.587 1.832 2.946 1.832s2.422-.838 2.948-1.832"/><path d="m61 47.75v-4.609l.012-2.125-17.451-1.158.041-.117c1.113-.086 1.984-.797 2.404-1.996.23-.664.502-2.076-.658-3.184l1.184-3.509c1.096-.249 1.791-.776 2.014-1.534l.029-.102c.188-.633.336-1.132.08-1.602-.293-.535-1-.816-2.475-1.244-1.084-.316-1.645-.434-2.07-.434-.688 0-1.004.326-1.215.783-.451-.228-1.084-.438-1.969-.695-1.227-.357-1.859-.49-2.336-.49-1.125 0-1.357.792-1.627 1.709l-.033.11c-.26.881.135 1.862 1.111 2.787l-.777 2.287c-.107-.018-.211-.051-.32-.051-.256 0-.496.063-.725.151l-8.624-2.727-.428-2.775h-2.137c-.113-.19-.191-.418-.191-.674v-.86c3.04-1.029 6.732-3.685 7.392-7.17 1.091-.198 2.24-.908 2.24-3.015 0-1.939-.754-2.491-1.377-2.621-.076-7.605-2.012-10.831-10.579-10.883-8.653-.102-10.947 3.269-11.04 10.976-.548.234-1.1.875-1.1 2.532 0 2.105 1.146 2.816 2.237 3.015.659 3.486 4.352 6.142 7.393 7.17v.86c0 .255-.079.483-.192.674h-2.033c-1.477 0-2.674 1.163-2.674 2.598 0 .207.025.408.072.602l1.442 7.643-13.62-.905h-.001-.002c-.001.03.003.059.002.089-.01.311 0 .622.022.936.01.148.023.297.04.444.013.109.03.219.047.329.03.209.05.422.09.629l.021.002c.654 3.069 2.636 6.137 4.772 8.709-.443.207-.972.363-1.707.363-2.365 0-4.284-1.559-4.284-1.559v14.891h60v-14.891c0 0-.385.303-1 .641m-12.023-1.62l.234.036.066-.006.002 2.496c-.049.002-.086.012-.137.012-2.367 0-2.719-1.559-4.285-1.559s-1.918 1.559-4.285 1.559c-2.369 0-2.721-1.559-4.287-1.559-.152 0-.283.026-.414.053l.973-2.863 12.133 1.831m-9.647-6.553c.383-.146.721-.38 1.004-.697l-.254.747-.75-.05m5.733-2.165c-.066.189-.344.946-1.092 1.229l1.008-2.984c.259.424.349.988.084 1.755m-.954-10.275c.387 0 1.09.189 1.791.394.52.151 1.734.503 1.875.763.059.105-.047.462-.158.839l-.031.103c-.17.577-1.025.806-1.52.891l-.295.051-3.801 11.264-1.414-.102 3.92-11.578-.229-.221c-.158-.153-.363-.377-.514-.627.131-.502.178-.911-.037-1.306-.002-.002-.004-.003-.004-.005.148-.458.204-.466.417-.466m-3.359 7.9l.281-.809c.139-.398.521-.65.932-.65.051 0 .104.018.156.025l-.93 2.748c-.027-.423-.15-.878-.439-1.314m2.564-5.027c.006.006.01.013.014.019l-.889 2.626c-.156-.038-.314-.076-.477-.076-.5 0-.951.2-1.307.513l.643-1.89c.964-.216 1.641-.624 2.016-1.192m-5.425-2.172l.033-.111c.291-.992.342-.992.668-.992.363 0 .959.13 2.057.45.699.203 1.998.581 2.172.901.08.145-.033.525-.174 1.006l-.035.115c-.205.695-1.201.968-1.777 1.068l-.293.051-1.182 3.475c-.238-.412-.619-.74-1.09-.895l-.037-.012.973-2.863-.258-.221c-.489-.416-1.276-1.226-1.057-1.972m-2.362 7.793l.486-1.402c.139-.398.521-.65.93-.65.105 0 .211.016.316.051l.697.228c.369.121.617.435.662.787.906.368 2.006 1.093 1.426 2.769-.082.233-.467 1.345-1.684 1.345-.238 0-.508-.043-.813-.143-2.742-.901-2.742-.901-2.02-2.985m-1.382 1.215c-.053.39-.021.74.152 1.088.184.371.461.625.875.849l-.174.508-6.032-.4-.593-3.84 5.772 1.795m-20.7-18.776l-.046-.354-.355-.033c-1.228-.114-1.775-.785-1.775-2.173 0-1.174.277-1.768.825-1.768.025 0 .051.001.079.003.089.472.178.759.276.914.293.601.86.865.924.893l.736.326-.113-.797c-.002-.009-.122-.87-.079-2.002.264-3.915.53-4.244 1.283-4.244.378 0 .902.103 1.566.233 1.299.256 3.08.606 5.655.606 2.578 0 4.358-.35 5.658-.606.664-.13 1.188-.233 1.566-.233.752 0 1.018.329 1.279 4.23.043 1.145-.076 2.006-.078 2.015l-.113.798.737-.327c.063-.028.628-.292.903-.856.115-.188.205-.473.297-.951.618-.039.905.537.905 1.765 0 1.388-.547 2.059-1.776 2.173l-.355.033-.047.354c-.572 4.407-6.59 7.202-8.977 7.202s-8.403-2.794-8.975-7.201m10.5 9.158h-3.045c.063-.213.105-.437.105-.674v-.573c.513.117.994.184 1.416.184s.904-.067 1.418-.184v.573c0 .238.042.461.106.674m-18.591 12.631l11.432 1.412 16.683 2.518-1.654 4.863c-2.188-.085-2.581-1.544-4.103-1.543-1.566.001-1.916 1.559-4.283 1.559s-2.721-1.559-4.287-1.559c-1.566 0-1.917 1.559-4.285 1.559s-2.719-1.559-4.285-1.559c-.319 0-.582.075-.827.178-1.933-2.293-3.669-4.911-4.391-7.428m24.952 13.229l-.349 1.026c-4.337-.468-9.306-2.365-13.008-2.11 5.103-2.316 8.982.005 13.357 1.084m-24.999 4.813c7.016-3.068 11.641 2.362 18.458 1.483-4.865 2.407-13.054-1.81-18.458-1.483m27.509 2.607h-8.33c.968-2.427 3.319-3.901 5.127-3.901l.545.022 5.936-17.449c.326.117.705.241 1.143.385.051.017.1.023.148.037l-5.971 17.561.278.219c.527.413 1.64 1.514 1.124 3.126m2.592-7.022c-.584.292-1.221.477-1.889.591l.176-.519c.559.014 1.125.003 1.713-.072m-1.685 4.985c-.197-.539-.531-1.044-.995-1.497 4.911-.124 8.938 3.109 14.323 2.411-3.465 1.732-8.672.058-13.328-.914m6.509-6.467c6.984-3.148 11.656 2.344 18.461 1.482-4.892 2.431-13.021-1.857-18.461-1.482m18.768-3.495c-.408.091-.836.159-1.285.159-2.369 0-2.719-1.559-4.285-1.559-.914 0-1.422.528-2.15.971l-.002-2.265 7.722-2.068v4.762"/></svg>