<svg xmlns="http://www.w3.org/2000/svg" viewBox="0 0 64 64" enable-background="new 0 0 64 64"><path d="m32 2c-16.568 0-30 13.432-30 30s13.432 30 30 30 30-13.432 30-30-13.432-30-30-30m24 30c0 5.547-1.886 10.648-5.045 14.713l-14.826-14.827c.099-.138.194-.278.277-.427.087-.146.285-.311.462-.311h.002 3.669v-4.319h-4.479c-.431 0-.78-.348-.78-.777v-.779h-5.764l-12.228-12.228c4.064-3.159 9.166-5.045 14.712-5.045 13.255 0 24 10.745 24 24m-48 0c0-5.546 1.886-10.648 5.045-14.713l10.098 10.099c-.839.573-1.391 1.534-1.391 2.625v3.802h4.335v-1.333c0-.583.382-1.064.905-1.245l19.72 19.721c-4.065 3.158-9.166 5.044-14.712 5.044-13.255 0-24-10.744-24-24"/><path d="m26.577 19.305c.126 0 1.113-.016 1.229-.045.48-.034.996-.077 3.372-.091.102.132.221.251.352.355v1.668h-.777c-.431 0-.778.34-.778.759s.348.76.778.76h.777 2.649.777c.429 0 .777-.341.777-.76s-.349-.759-.777-.759h-.776v-1.668c.131-.104.248-.224.351-.355 2.375.014 2.89.057 3.37.091.118.029 1.104.045 1.231.045.777 0 1.407-.614 1.407-1.374s-.63-1.374-1.407-1.374c-.127 0-1.113.016-1.231.047-.48.034-.995.075-3.37.089-.384-.494-.99-.814-1.675-.814-.686 0-1.292.32-1.677.814-2.376-.014-2.892-.055-3.372-.089-.116-.031-1.104-.047-1.229-.047-.777 0-1.409.614-1.409 1.374s.631 1.374 1.408 1.374"/><path d="m42.248 25.272h1.708v6.833h-1.708z"/><path d="m21.182 46.623h6.263l1.14-10.248h-8.54l1.137 10.248m6.278-6.57h-6.291l-.33-2.971h6.951l-.33 2.971"/></svg>