<svg xmlns="http://www.w3.org/2000/svg" viewBox="0 0 64 64" enable-background="new 0 0 64 64"><path d="m17.498 43.027h8.373l.44-4.058h-9.252z"/><path d="m32 2c-16.568 0-30 13.432-30 30s13.432 30 30 30 30-13.432 30-30-13.432-30-30-30m-7.473 10.93c.166 0 1.463.021 1.617.064.633.047 1.311.105 4.436.123.506-.679 1.307-1.117 2.208-1.117.9 0 1.699.438 2.205 1.117 3.125-.018 3.803-.076 4.436-.123.154-.043 1.453-.064 1.619-.064 1.023 0 1.854.846 1.854 1.889s-.83 1.889-1.854 1.889c-.166 0-1.465-.023-1.619-.064-.633-.049-1.311-.105-4.436-.123-.135.182-.289.344-.463.488v2.289h1.023c.564 0 1.021.467 1.021 1.043s-.457 1.043-1.021 1.043h-1.023-3.484-1.026c-.564 0-1.021-.467-1.021-1.043s.457-1.043 1.021-1.043h1.025v-2.289c-.174-.145-.33-.307-.465-.488-3.125.018-3.803.074-4.436.123-.154.041-1.451.064-1.617.064-1.025 0-1.855-.846-1.855-1.889s.83-1.889 1.855-1.889m1.325 39.07h-8.336l-1.516-13.996h11.367l-1.515 13.996m17.621-21.023h-4.813c0 0 0 0-.002 0-.23 0-.492.221-.605.416-1.029 1.883-3.002 3.156-5.265 3.156-2.256 0-4.221-1.264-5.254-3.133-.107-.201-.379-.439-.619-.439h-.635c-.969 0-1.752.799-1.752 1.785v1.787h-5.686v-5.098c0-2.355 1.875-4.266 4.188-4.266h4.945c.564 0 1.023-.467 1.023-1.043v-1.042h7.576v1.043c0 .576.459 1.043 1.025 1.043h5.873v5.791zm4.527 1.814h-2.842v-9.691h2.842v9.691"/></svg>