<svg xmlns="http://www.w3.org/2000/svg" viewBox="0 0 64 64" enable-background="new 0 0 64 64"><path d="m50.75 39.074c-1.18 0-2.315.188-3.385.532-.21-.243-.427-.479-.649-.711 4.104-1.528 8.985-.879 12.731 2.77.879.855 2.207-.509 1.326-1.368-4.603-4.479-10.689-5.039-15.594-2.814-1.005-.816-2.107-1.535-3.315-2.126-.05-.024-.098-.022-.146-.037l.547-1.675 1.354-4.133c.607.174 1.092.484 1.582.771.866.507 1.806-.046 2.43-.859.483-.627 1.446-2.192 1.208-2.954-.237-.763-1.349-1.723-2.089-1.723-3.097 0-3.091 1.988-6.652 1.988-1.532 0-2.453.068-2.47.742-.052 2.222 1.145 3.126 1.884 2.772.839-.403 1.539-.643 2.139-.768l-1.164 3.559-2.492 7.62c-5.591-8.379-14.936-10.493-18.292-10.991.339-.92.678-1.839 1.015-2.759.114-.311-.021-.706-.241-.929-.646-.658-1.291-1.315-1.937-1.973 1.645-.782 3.588-1.021 5.336-1.053.059-.001.103-.026.156-.036v.036.388c0 .263.21.478.469.478s.469-.215.469-.478v-.388h3.281c.258 0 .469-.215.469-.478v-.956c0-.263-.21-.478-.469-.478h-3.281v-.567c0-.263-.21-.478-.469-.478s-.469.214-.469.478v.567.029c-.053-.008-.097-.03-.156-.029-2.456.045-5.273.452-7.349 1.921-.49.347-.642 1.039-.19 1.5.797.812 1.592 1.623 2.389 2.434-.315.858-.631 1.717-.948 2.576l-.049-.003-.227.751-1.885 6.234c-4.179-.797-8.749.296-12.39 3.839-.88.859.447 2.224 1.326 1.368 3.089-3.007 6.949-3.975 10.508-3.368l-.22.727.046.187c-.536-.08-1.08-.136-1.638-.136-6.203.001-11.249 5.143-11.249 11.464s5.046 11.463 11.25 11.463 11.25-5.142 11.25-11.463c0-5.017-3.183-9.279-7.595-10.83-.044-.254-.086-.475-.119-.625l.1-.332c4.642 1.551 8.386 5.858 8.554 11.808.035 1.246 1.908 1.249 1.873 0-.009-.344-.03-.681-.061-1.014h-.135c-.517 0-.938-.43-.938-.955 0-.472.344-.847.785-.924-.067-.309-.142-.612-.226-.912.217.306.442.598.673.88h2.095c.483 0 .868.38.918.858.921.375 1.841.75 2.762 1.126 1.107.451.624 2.299-.498 1.841-1.153-.47-2.309-.941-3.462-1.412-.024.161-.039.323-.039.491 0 2.111 1.679 3.821 3.75 3.821 1.071 0 2.03-.462 2.714-1.196.031.003.059.02.09.02h2.391c.515 0 .938-.429.938-.955 0-.404-.251-.746-.601-.885.354 0 .715 0 1.071 0 .064.938.232 1.846.506 2.708l-7.158.764c-.152.02-.292.028-.429.028-1.992 0-3.741-2.012-3.741-4.305 0-.229.022-.453.06-.673-.259-.105-.518-.211-.777-.316-.002-.001-.003-.003-.005-.004h-.119c-.059.323-.095.653-.095.993 0 2.848 2.143 5.253 4.678 5.253.178 0 .357-.011.541-.034l7.377-.787c1.703 4.127 5.71 7.031 10.372 7.031 6.203 0 11.25-5.142 11.25-11.463s-5.047-11.463-11.25-11.463m-33.621 4.935c2.167 1.342 3.621 3.762 3.621 6.528 0 4.213-3.365 7.642-7.5 7.642s-7.5-3.429-7.5-7.642c0-4.214 3.365-7.642 7.5-7.642.705 0 1.384.107 2.031.293-.05 2.221-.601 4.893-2.63 6.615l.008.01c-.207.175-.346.429-.346.724 0 .527.419.955.938.955.228 0 .429-.093.592-.23l.007.01c.02-.017.036-.036.056-.053.004-.004.008-.008.012-.012 2.27-1.97 3.039-4.759 3.211-7.198m.306-7.073l.843-2.789c1.954 1.49 3.395 3.794 4.75 6.24-1.59-1.581-3.511-2.758-5.593-3.451m18.194 10.948c-.681-.717-1.633-1.167-2.691-1.167-.972 0-1.85.387-2.516 1.005-.143-.113-.287-.224-.423-.346.67-.696 1.535-1.143 2.461-1.143.137 0 .277.009.417.027l3.174.338-.422 1.286m.724-2.206l-3.366-.36c-.17-.022-.35-.034-.527-.034-1.202 0-2.313.545-3.151 1.418-2.294-2.437-3.752-5.988-5.455-8.646-1.408-2.196-3.031-4.251-5.043-5.669l.263-.869c2.809.394 12.975 2.435 18.15 11.499l-.871 2.661m11.46-2.17c.621 1.106 1.113 2.294 1.47 3.549l-4.907-.525c.811-1.334 2.007-2.402 3.437-3.024m1.715 4.527c.067.303.127.609.177.916-.193.134-.36.304-.493.499l-5.876-.009c.101-.704.291-1.378.566-2.005l5.626.599m-8.4-10.912c.783.397 1.525.852 2.219 1.356-1.474.946-2.786 2.169-3.851 3.63l1.632-4.986m-1.573 12.313l-.913-.002c.093-.876.271-1.71.515-2.504l.89.096c-.246.77-.413 1.577-.492 2.41m.822-3.33l-.9-.097c1.081-2.752 3.034-4.901 5.406-6.258.221.209.434.424.642.644-2.3 1.236-4.133 3.253-5.148 5.711m2.917 5.239c1.927.002 3.865.004 5.766.004.3.647.941 1.099 1.69 1.099 1.036 0 1.875-.854 1.875-1.91 0-.759-.438-1.41-1.069-1.718-.024-.151-.048-.304-.075-.453.883.343 1.613 1.065 1.613 2.171 0 1.421-1.207 2.22-2.404 2.378l-6.787.724c-.314-.716-.526-1.486-.609-2.295m7.456 6.834c-2.692 0-5.052-1.459-6.374-3.636l6.424-.685c1.907-.254 3.231-1.618 3.231-3.321 0-1.563-1.122-2.83-2.774-3.224-.368-1.524-.909-2.975-1.611-4.325.362-.057.729-.093 1.104-.093 4.137 0 7.5 3.428 7.5 7.642 0 4.213-3.363 7.642-7.5 7.642"/></svg>