<svg xmlns="http://www.w3.org/2000/svg" viewBox="0 0 64 64" enable-background="new 0 0 64 64"><path d="m24.275 11.298c-.484 0-.623.56-.623 1.25 0 .689.139 1.251.623 1.251s.877-.562.877-1.251c0-.691-.392-1.25-.877-1.25"/><path d="m32.876 14.676c-.493-2.162 1.438-3.75 1.438-3.75-1.122 0-2.245 1.155-2.245 2.503-.001.934.807 1.247.807 1.247"/><path d="m44.684 54.29l-1.013-1.167-7.333-5.667.031-5.651c.561.489 1.322.821 2.233.821.262 0 .536-.026.819-.085.201-.04.812-.164 1.34-.604.484-.404 1.003-1.165.734-2.505-.425-2.103-.653-2.967-1.584-3.146l-4.049-12.123-.05-.743c-.168-.025-.325-.037-.489-.058v-5.094c3.031-3.633 4.359-8.284 2.625-12.482-.687-1.663-4.625-5.406-11.844-3.003-2.708.901-3.961 3.437-3.597 4.929-.974 1.687-1.049 3.515-1.082 4.51l-.006.158c-.084.147-.355.487-1.206 1.243-.907.809-.718 1.65-.595 1.974.294.771 1.13 1.238 1.872 1.429-.009.274.025.661.333.993.058.063.118.115.182.16-.062.177-.09.362-.077.557.025.362.193.813.768 1.164-.023.565.063 1.263.541 1.834.498.597 1.282.899 2.33.899.784 0 1.763-.184 2.92-.519.49.649.493 1.791.471 2.268-2.299 1.55-3.538 4.759-3.725 10.286l-.503.39c-.383-.285-.844-.461-1.333-.461-.389 0-.771.101-1.109.293l-.753.432c-.548.317-.928.844-1.063 1.437-1.593 1.28-1.914 2.986-.867 4.747.667 1.138 1.661 1.767 2.796 1.767.602 0 1.225-.182 1.851-.54.211-.121.405-.232.593-.34l-1.787 5.988-.566 10.544h-.006c-1.731 0-3.295 1.378-3.3 3.076l7.444-.008c.861 0 1.757-.69 1.759-1.541v-1.533l.97-9.282.876-1.977.298 3.073 8.871 6.006-.214.181c-1.313 1.11-1.594 3.163-.477 4.454l5.646-4.785c.657-.553.883-1.653.325-2.299m-19.116-32.657c-2.111 0-1.95-1.459-1.786-2.361-1.837-.498-.27-1.459.548-1.875-.187.12-.437.291-.678.481-.559.442-.378.789.604.297.463-.229 1.615-1.233 1.615-1.233s-1.975.507-2.891.507c-.871 0-.242-.55-.578-1.344-.059.012-.124.018-.196.018-.829 0-2.406-.79-1.327-1.752.525-.467 1.516-1.36 1.537-1.85.044-.997.031-3.184 1.397-4.935 1.356-.527 3.576-1.21 5.053-.718 2.552.851.817 3.62 1.771 5.806h.461c1.693-4.388 5.108-2.735 4.436.487-.792 3.791-2.582 2.987-2.582 2.987s-.744 3.582-2.783 4.354c-2.167.819-3.626 1.131-4.601 1.131m7.976-3.934c.255.38.54.659.78.84v4.725c-1.369-.093-2.582.003-3.641.317 1.425-1.346 2.473-3.702 2.861-5.882m-9.816 24.102c-.504.289-.944.4-1.325.4-1.146 0-1.748-1.016-1.885-1.247-1.102-1.854.002-2.968.967-3.615-.037-.428.175-.854.576-1.088l.753-.428c.184-.107.386-.156.585-.156.404 0 .8.206 1.02.576l.922 1.555c1.362 2.299 1.362 2.299-1.613 4.003m1.704-5.936l3.678-2.837 1.051-6.019c.127-.704.822-1.176 1.545-1.044.356.063.664.257.866.549.194.277.267.613.206.944l-1.1 6.3c-.103.611-.214.838-.528 1.053l-4.481 3.152c-.125-.223-.262-.457-.416-.718l-.821-1.38m1.894 24.584c0 .172-.345.471-.696.471l-6.007.007c.408-.552 1.106-.933 1.864-.933l4.839-.007v.462m-.162-21.421c-.009-.028-.017-.059-.029-.089l4.617-3.246c.641-.439.847-.998.972-1.753l1.101-6.291c.11-.613-.024-1.234-.38-1.748-.368-.528-.922-.881-1.559-.99-1.298-.229-2.541.628-2.772 1.911l-.98 5.609-1.801 1.392c.385-9.431 4.459-9.982 8.48-9.473l.998 14.693-8.647-.015m12.634-1.674c.232.198.41 1.076.655 2.292.136.667.014 1.146-.369 1.465-.322.269-.736.353-.875.382-1.607.324-2.508-.628-2.738-1.377h.477l-.158-2.344 1.295-.26c.889-.18 1.532-.313 1.713-.158m-1.002-1.053c-.271.038-.575.093-.921.161l-1.16.235-.565-8.321 2.646 7.925m4.88 19.468l-4.584 3.884c-.012-.117-.013-.238-.004-.365.048-.6.334-1.164.788-1.549l3.681-3.12.326.376c.061.068.057.198.053.248-.016.196-.121.405-.26.526"/></svg>