<svg xmlns="http://www.w3.org/2000/svg" viewBox="0 0 64 64" enable-background="new 0 0 64 64"><path d="m55.975 10.549l5.149-8.549h-10.248l-2.18 2.804c-3.297-1.773-6.92-2.804-10.528-2.804-3.597.001-7.177 1.026-10.397 3.337-.014 0-.027-.001-.039-.001-2.16 0-4.963 1.719-6.471 2.766-.377.229-.74.482-1.07.785 0 0-.005.004-.005.004v.001c-.234.215-.455.448-.66.704-1.789 2.236-1.718 5.334-.975 7.979.084.298.179.593.277.886l-16.749 10.348v1.006l17.062-10.49c.147.384.305.763.474 1.137l-17.536 11.901v1.035l17.953-12.065c.167.332.342.66.525.985l-18.478 13.664v1.262l18.989-14.055c.065.105.129.213.196.317l-19.185 16.178v1.006l19.646-16.481c.138.205.277.41.421.612l-20.067 19.505v1.006l20.517-19.896c.154.206.313.408.472.61l-20.989 22.036v1.004l21.424-22.492c1.029 1.256 2.144 2.438 3.293 3.544l-24.717 21.038v1.393l25.473-21.717c.213.196.426.393.641.584l-26.114 24.628v1.393l26.87-25.358c.004.003.007.006.01.009.201.173.414.337.617.507l-27.576 29.385h1.286l27.053-28.76c.15.12.294.247.446.366l-22.914 28.394h1.286l22.43-27.796c.241.181.481.364.726.541l-19.286 27.255h1.286l18.824-26.673c.289.2.584.396.879.59l-16.22 26.083h1.139l15.926-25.529c1.716 1.078 3.506 2.03 5.348 2.845l-18.36 22.684h1.067l18.187-22.289c.24.099.484.182.726.275l-15.738 22.014h1.066l15.596-21.663c.027.01.055.021.083.031l-12.69 21.632h1.066l12.556-21.322c.168.054.335.102.502.152l-10.159 21.17h1.067l10.038-20.882c.07.019.14.045.21.063.237.063.486.124.738.184l-8.794 20.635h1.014l8.744-20.428c.371.072.752.136 1.14.192l-7.39 20.236h1l7.426-20.108c3.896.39 8.195-.231 9.992-3.836.902-1.509 2.078-4.106 1.754-6.897 2.471-7.482-.11-15.055-5.075-20.61m-4.122-6.549h5.734c0 0-1.371 1.706-3.223 2.997-.549.383-1.256.387-1.938.238-.646-.504-1.314-.981-2.002-1.422l1.429-1.813m-30.628 15.369c-.129-.362-.246-.732-.349-1.111l8.051-4.949c.063.104.129.205.198.293.067.086.146.171.221.255l-8.121 5.512m.783 1.876c-.149-.315-.291-.634-.425-.955l8.518-5.725c.154.121.313.235.48.34l-8.573 6.34m.585 1.142c-.042-.077-.086-.153-.127-.231l2.508-1.856c.008.02.018.038.026.058l-2.407 2.029m.745 1.273c-.11-.176-.22-.354-.326-.531l2.46-2.064c.082.092.167.182.259.271l-2.393 2.324m.421.649l2.564-2.485c.156.109.319.208.488.294l-2.65 2.782c-.138-.195-.269-.394-.402-.591m5.45 6.167c-.197-.177-.395-.354-.589-.535l6.835-5.828c-.035.146-.035.308-.006.478l-6.24 5.885m1.313 1.13c-.187-.153-.37-.312-.556-.469l5.902-5.569c.028.039.054.084.082.121.019.023.041.046.06.068l-5.488 5.849m7.821-7.365c-.606-.42-1.303-.712-1.986-.708-.105 0-.182.023-.266.039l4.378-3.733c.028.041.054.088.084.126.192.246.419.486.664.714l-2.874 3.562m3.658-2.944c.264.175.538.331.823.456l-2.863 4.604c-.069-.373-.261-.771-.494-1.067-.108-.138-.231-.272-.36-.404l2.894-3.589m-4.568 5.662c.093.053.186.105.281.15l-2.472 3.494c-.017-.021-.034-.046-.05-.064-.108-.121-.234-.238-.365-.351l2.606-3.229m-3.467 2.704c-.063-.025-.122-.063-.186-.083l1.779-1.892-1.593 1.975m-2.302 2.854c-.125-.097-.25-.19-.373-.288l1.508-1.604c.052.1.109.193.172.273l-1.307 1.619m1.456 1.086c-.018-.013-.037-.025-.055-.038-.201-.145-.403-.295-.605-.444l1.244-1.541c.191.138.394.252.607.339l-1.191 1.684m1.639 1.12c-.273-.18-.545-.359-.813-.542l1.586-2.247c.023-.022.039-.05.055-.077l3.136-4.443c.107.014.214.028.321.028.104 0 .18-.021.266-.036l-4.551 7.317m7.96 4.017c-.213-.073-.425-.149-.637-.229l2.474-3.033c.088.102.182.201.283.298l-2.12 2.964m2.238.661c-.127-.031-.255-.061-.381-.094l1.562-2.652c.039.017.076.031.115.046l-1.296 2.7m1.884.377c-.301-.046-.604-.099-.904-.158l1.311-2.725c1.126-.021.877-1.173.352-1.841-.094-.119-.199-.236-.312-.352l2.392-4.061c.23.242.49.471.77.674l-3.609 8.463m2.08.2c-.359-.015-.719-.04-1.078-.075l3.458-8.079c.171.08.347.149.522.204l-2.902 7.95m7.969-3.371c-1.271 2.377-3.945 3.256-6.43 3.375-.151.007-.303.003-.453.006l2.887-7.814c1.348-.072 1.072-1.486.421-2.326-.79-1.018-2.147-1.947-3.452-1.953-1.261-.007-1.244 1.037-.813 1.886l-2.521 4.296c-.522-.346-1.115-.585-1.697-.594-.813-.012-.943.53-.783 1.091l-2.896 3.577c-1.931-.795-3.793-1.791-5.54-2.883l8.24-13.208c.162.024.326.041.488.04 1.677-.008 1.28-1.725.552-2.666-.866-1.119-2.368-2.162-3.808-2.145-1.131.014-1.3.801-1.072 1.6l-12.142 10.335c-1.188-1.169-2.298-2.425-3.293-3.759l2.939-3.085c.186.045.373.076.56.075 1.231-.006.812-1.313.306-1.951-.442-.559-1.107-1.102-1.822-1.379l5.047-3.734c.314.098.635.153.953.148 1.542-.023 1.068-1.646.422-2.469-.788-1.008-2.15-1.979-3.459-1.947-.945.021-1.115.652-.959 1.322l-7.902 4.882c-.351-1.815-.294-3.711.647-5.321 1.368-2.344 4.116-3.129 6.619-3.199 6.039-.168 12.108 2.879 16.96 6.326 4.733 3.363 9.301 7.869 11.628 13.373 1.052 2.488 1.716 5.592.373 8.101m2.977-9.255c-.563-1.226-1.295-2.529-2.14-3.809-1.677-2.541-3.791-4.971-6.175-7.182-2.39-2.219-5.04-4.209-7.784-5.871-2.74-1.662-5.564-2.986-8.303-3.879-1.438-.469-2.847-.809-4.208-1.023 2.129-1.039 4.445-1.588 6.911-1.588 7.738 0 16.069 5.461 19.809 12.985 1.148 2.312 2.428 6.029 1.89 10.367"/></svg>