<svg xmlns="http://www.w3.org/2000/svg" viewBox="0 0 64 64" enable-background="new 0 0 64 64"><path d="m52.336 59.416c.679-.44 1.306-.952 1.86-1.55.917-.984 1.612-2.133 2.07-3.41.459-1.281.651-2.614.573-3.969-.076-1.303-.399-2.572-.962-3.763-.562-1.193-1.335-2.252-2.298-3.152-.998-.927-2.154-1.642-3.439-2.115-1.285-.476-2.621-.685-3.975-.623-.377.016-.752.062-1.123.118l-.576-2.442c0 0 3.632-1.73 4.453-2.209 1.988-1.154 1.902-3.235 1.49-4.277-.627-1.587-3.521-8.824-9.811-11.149-.207-.076-.421-.136-.633-.2l-.151-1.902c1.294-.61 2.419-1.866 3.079-3.772.396.086.688.016.82-.294 1.955-4.548-.174-9.884-4.756-11.917-4.584-2.033-9.897.003-11.84 4.557-.178.417.035.733.662 1.046-.695 1.644-.662 3.553-.596 4.466l.01.148c-.063.146-.283.487-1 1.275-.767.843-.508 1.608-.361 1.897.352.69 1.176 1.043 1.885 1.147.02.256.09.613.408.893.061.052.121.096.186.131-.04.17-.048.346-.017.526.06.335.26.738.829 1.008.034.53.184 1.17.685 1.656.522.506 1.284.711 2.259.607.731-.075 1.625-.344 2.67-.77.008.053.002.105.006.158-.882.382-1.891.853-2.181 1.212l-1.741 2.958-2.849.17c-.036-.023-.071-.045-.108-.063-.164-.478-.522-.878-1.02-1.063-.072-.028-.148-.047-.227-.066l-.621-.139c-.464-.106-.937-.013-1.318.24-2.145-.137-2.736 1.449-2.893 2.17-.269 1.203.164 2.221 1.13 2.752.22.665.696 1.173 1.386 1.428.256.096.543.156.854.179.438.037.806.064 1.128.078l-1.868 1.602c-.104-.105-.201-.216-.309-.316-.998-.93-2.154-1.641-3.439-2.115-1.286-.478-2.622-.686-3.975-.626-1.304.06-2.568.364-3.754.912-1.186.546-2.234 1.307-3.117 2.258-.916.986-1.613 2.132-2.072 3.41-.457 1.279-.65 2.613-.571 3.968.048.854.214 1.688.474 2.499-1.994-2.013-3.892-4.258-5.652-6.776v25.793l60-.002v-3.333c0 0-3.803.689-9.664.751m-14.655-42.941l-1.381-5.676 1.162.82c-.194.395-.292.85-.243 1.314.092.87.875 1.081.875 1.081-.244-.712-.18-1.382-.004-1.952l2.112 1.493-2.521 2.92m1.405 3.965c-.201-.045-.808-.193-1.276-.038.503-.817.962-1.494 1.109-1.953l.167 1.991m-7.115.776c-1.967.209-1.961-1.167-1.896-2.023-1.76-.283-.395-1.333.326-1.802-.162.13-.379.314-.584.517-.477.468-.275.772.591.215.408-.258 1.384-1.307 1.384-1.307s-1.79.667-2.643.758c-.813.084-.281-.489-.672-1.195-.053.017-.113.028-.181.035-.772.082-2.319-.498-1.409-1.501.443-.488 1.277-1.416 1.25-1.874-.053-.854-.234-2.629.574-4.278 1.293.432 3.365.918 6.313 1.688l1.586 6.844-.395 2.374c-.024.012-.045.03-.07.043-1.938.977-3.266 1.411-4.174 1.506m-.645 5.334l1.124-1.906-.899 2.173-2.796.04c-.016-.054-.046-.1-.065-.15l2.636-.157m-2.594 2.221l.078-1.042 3.315-.047 1.798-4.347c.106-.256.303-.388.496-.484.916-.58 3.174-1.807 3.92-1.68.667.111 1.328.287 1.965.523 5.285 1.955 8.086 7.652 8.865 9.48l-9.729.213-3.855-7.208-.354.812c0 0-.652 1.501-1.548 3.727-.091.224-.356.743-.885.754l-4.134.057c.029-.229.047-.481.068-.758m14.961 12.499c-.434.133-.863.283-1.28.476-.052.024-.099.053-.149.077l.125-1.453.885-.791.419 1.691m-6.762-2.306l.874-.52-.127 3.39-2.231 2.503 1.484-5.373m-.112-5.643l-7.9-2.921 3.894-.055c.723-.012 1.347-.496 1.668-1.296.494-1.228.914-2.231 1.189-2.884l3.152 5.896-2.003 1.26m.783 10.54l-.109 2.907c-.094.211-.189.423-.27.646-.141.392-.242.789-.328 1.192-.293-.002-.572.063-.836.18-.045-.788-.4-1.538-1.021-2.051l2.564-2.874m-1.672 6.039c.217-.201.563-.441.986-.424l3.865.151-.018.78c-.004.115-.061.192-.109.239-.043.041-.141.11-.289.104l-4.914-.197c.122-.243.285-.469.479-.653m-7.679-18.384l7.204 2.665-2.59 1.627-1.536 5.567-4.214-8.885 1.136-.974m5.454 17.931c-.186.154-.441.216-.689.127-.367-.139-.562-.545-.43-.912.132-.366.539-.555.906-.419.312.116.482.423.455.738l-.604-.322-.18.501.542.287m.135-3.304c-.09-.02-.18-.031-.27-.045l-.222-.469.756.217-.264.297m-1.611.11c-.146.055-.279.132-.414.21l-3.134-.887c.451-.551 1.146-.944 1.734-.776l1.298.369.516 1.084m-9.174-18.785c-.162.358-.229.712-.258.98-.334-.527-.206-1.144-.171-1.304.332-1.524 1.487-1.579 2.332-1.449.196-.247.524-.372.855-.297l.624.139c.039.01.078.021.115.034 0 0 .001.001.002.002-.453-.021-.887.132-1.214.425-.739.059-1.262.296-1.638.609l-.863.365.216.496m2.168 2.976c-.244-.021-.451-.065-.626-.131-1.05-.388-.971-1.466-.953-1.684.114-1.563 1.247-1.78 2.099-1.771.16-.272.467-.443.804-.416l.637.05c.081.007.159.024.233.052.348.128.584.473.556.857l-.098 1.303c-.144 1.939-.144 1.939-2.652 1.74m-15.826 6.681c1.548-4.32 6.341-6.529 10.683-4.924 1.166.432 2.178 1.101 3.012 1.926l-5.744 4.921c-.443-.04-.871.201-1.028.637-.187.524.087 1.106.612 1.301.527.194 1.105-.072 1.293-.597.038-.105.045-.216.047-.322l5.723-4.903c1.594 2.186 2.121 5.083 1.152 7.785-1.549 4.321-6.341 6.532-10.682 4.926-4.343-1.606-6.615-6.428-5.068-10.75m7.086 12.972c.453.04.908.063 1.366.041 1.306-.058 2.569-.364 3.754-.91 1.188-.547 2.235-1.308 3.12-2.258.916-.987 1.612-2.134 2.069-3.412.459-1.278.652-2.611.574-3.967-.076-1.304-.398-2.571-.962-3.765-.301-.64-.668-1.238-1.088-1.795l.785-.673 4.706 9.905-.189.688c-1.275-.252-2.179.41-2.803 1.36l-.367-.135-.369 1.032 3.264 1.209.088-.246.406.217c-.102.164-.189.341-.258.531-.527 1.471.244 3.104 1.721 3.653.8.294 1.637.199 2.32-.175l2.041.079c.083 1.271.402 2.507.949 3.669.564 1.192 1.338 2.251 2.299 3.149.119.111.25.21.375.316-7.482-1.097-15.953-3.525-23.801-8.513m29.09 9.102c-.548-.086-1.096-.227-1.636-.426-3.049-1.13-5.07-3.843-5.473-6.854l.923.341.238-.665.704.03c.693.027 1.273-.506 1.293-1.194l.039-1.643.416-4.823c.633-.417 1.315-.756 2.039-.988l1.551 6.244c-.368.227-.67.567-.828 1.011-.374 1.045.175 2.208 1.229 2.598 1.05.389 2.207-.144 2.581-1.189.376-1.048-.174-2.211-1.224-2.599-.166-.062-.334-.091-.502-.109l-1.479-6.268c1.338-.196 2.744-.068 4.107.436 4.342 1.604 6.615 6.425 5.066 10.747-1.197 3.343-4.338 5.413-7.709 5.439-.437-.025-.883-.056-1.335-.088"/><path d="m29.748 11.716c-.451.048-.525.581-.457 1.224s.252 1.152.703 1.105c.452-.049.763-.61.694-1.252-.067-.643-.488-1.126-.94-1.077"/></svg>