<svg xmlns="http://www.w3.org/2000/svg" viewBox="0 0 64 64" enable-background="new 0 0 64 64"><path d="m59.251 2h-11.217c-.967 0-1.75.852-1.75 1.483v1.802c0 .527.549 1.438 1.292 1.727v21.94c-.241-.092-.496-.152-.764-.152h-41.423c-1.318 0-2.389 1.192-2.389 2.657 0 .658.225 1.254.583 1.72-.358.465-.583 1.06-.583 1.719 0 1.466 1.071 2.658 2.389 2.658h1.936c.57 3.824 2.762 7.262 6.057 9.864.276 1.062.426 2.171.426 3.316 0 3.598-1.468 6.264-3.833 8.463h-1.379c-.796 0-1.443.627-1.443 1.401s.647 1.402 1.443 1.402h40.397c.797 0 1.443-.627 1.443-1.401s-.646-1.401-1.443-1.401h-1.377c-2.365-2.199-3.834-4.865-3.834-8.463 0-.523.035-1.039.096-1.548 7.331-.159 13.236-6.009 13.406-13.273h.981c.798 0 1.442-.982 1.442-1.503v-27.399c.744-.289 1.293-1.199 1.293-1.727v-1.802c0-.631-.782-1.483-1.749-1.483m-54.359 32.896c0-.447.263-.781.497-.781h39.476c.161.638.542 1.188 1.063 1.564h-40.539c-.235 0-.497-.335-.497-.783m23.904 15.671c-10.015 0-18.308-5.681-19.578-13.014h37.593c.195 0 .383-.034.564-.083h1.014c-1.22 7.375-9.541 13.097-19.593 13.097m21.516-16.529c.043-.193.069-.392.069-.598 0-.811-.355-1.532-.913-2.041v-24.29h8.349v26.929h-7.505"/><path d="m53.642 12.238c1.867 0 3.379-1.5 3.379-3.348h-6.757c0 1.848 1.512 3.348 3.378 3.348"/></svg>