<svg xmlns="http://www.w3.org/2000/svg" viewBox="0 0 64 64" enable-background="new 0 0 64 64"><path d="m32 2c-16.568 0-30 13.432-30 29.999 0 16.568 13.432 30.001 30 30.001s30-13.433 30-30.001c0-16.567-13.432-29.999-30-29.999m24 29.999c0 5.546-1.886 10.648-5.045 14.713l-3.825-3.825c.309-.085.613-.184.911-.31.886-.375 1.681-.912 2.363-1.594.683-.684 1.22-1.48 1.594-2.367.388-.918.585-1.891.585-2.895 0-1.006-.197-1.98-.585-2.898-.374-.886-.911-1.681-1.594-2.364-.683-.683-1.478-1.22-2.363-1.595-.917-.389-1.892-.585-2.895-.585-1.004 0-1.978.196-2.895.585-.271.115-.533.245-.785.389l-2.533-3.467.872-2.21c.845-.471 1.907-1.141 2.221-1.699.549-.971-1.362-.421-5.532-.421 0 0-2.242-.222-1.22.803.646.646 1.828 1.235 2.611 1.582l-.426 1.078h-8.298l-3.912-3.912c-.003-.021-.017-.037-.017-.059 0-.233.188-.421.422-.421.839 0 3.354 0 3.354 0l1.055-1.689h-5.313c0 0-.028.003-.036.004-.356.031-.793.194-1.123.508l-6.304-6.305c4.065-3.159 9.167-5.045 14.713-5.045 13.255 0 24 10.745 24 23.999m-25.149-5.392h5.943l-1.684 4.26-4.259-4.26m10.416 10.416l5.414-.634-4.209-5.76c.8-.422 1.71-.661 2.675-.661 3.17 0 5.748 2.579 5.748 5.753 0 2.988-2.289 5.45-5.205 5.725l-4.423-4.423m2.344-1.973l-3.864.454-.302-.302c.126-1.39.726-2.646 1.664-3.574l2.502 3.422m-3.722-4.591c-.684.684-1.22 1.479-1.595 2.364-.127.3-.225.606-.311.917l-1.57-1.57 1.787-4.525 1.904 2.606c-.073.067-.145.137-.215.208m-31.889 1.54c0-5.546 1.886-10.647 5.045-14.712l10.438 10.438c-.273.417-.621.929-1.013 1.493-.232-.131-.475-.249-.722-.354-.919-.389-1.893-.585-2.896-.585-1.003 0-1.977.196-2.896.585-.885.375-1.68.912-2.362 1.595-.683.684-1.218 1.479-1.593 2.364-.39.918-.585 1.893-.585 2.898 0 1.004.195 1.977.585 2.895.375.887.91 1.684 1.593 2.367.683.682 1.478 1.219 2.362 1.594.919.389 1.893.586 2.896.586 1.004 0 1.978-.197 2.896-.586.885-.375 1.68-.912 2.362-1.594.684-.684 1.219-1.48 1.594-2.367.388-.918.584-1.891.584-2.895 0-1.006-.196-1.98-.584-2.898-.375-.886-.91-1.681-1.594-2.364-.087-.088-.177-.173-.269-.256.264-.379.51-.741.731-1.072l7.035 7.159c-.099.242-.151.51-.151.787 0 1.102.844 2.006 1.919 2.104l.37 2.287h-.665v.846h2.32v-.846h-.801l-.385-2.381c.151-.05.294-.119.428-.199l12.067 12.067c-4.064 3.158-9.166 5.044-14.712 5.044-13.252 0-23.997-10.744-23.997-24m10.853 4.566c.279 0 .526-.137.681-.346v.002c.297-.406 1.861-2.543 3.33-4.618 1.071 1.044 1.739 2.503 1.739 4.118 0 3.172-2.579 5.752-5.75 5.752-3.169 0-5.749-2.58-5.749-5.752 0-3.174 2.58-5.753 5.749-5.753.953 0 1.851.233 2.643.645-1.229 1.733-2.582 3.599-3.318 4.601 0 .002 0 .002 0 .002-.002.002-.004.004-.004.006-.104.141-.163.313-.163.5-.001.465.376.843.842.843"/></svg>