<svg xmlns="http://www.w3.org/2000/svg" viewBox="0 0 64 64" enable-background="new 0 0 64 64"><path d="m61.074 45.984c-.594-1.37-1.443-2.604-2.523-3.661-1.08-1.06-2.34-1.889-3.742-2.471-1.453-.602-2.994-.907-4.584-.907s-3.131.306-4.584.907c-.407.168-.799.365-1.181.574l-1.585-2.394c0 0 3.289-3.302 4-4.142 1.242-1.467.701-4.326-.047-5.186-1.283-1.476-7.368-9.403-15.147-9.403-.323 0-.648.064-.972.161l-2.006-3.474c.869-4.988-.389-10.012-4.243-12.976-1.528-1.175-7.185-2.54-12.599 3.547-2.029 2.285-1.835 5.305-.7 6.493-.001 2.084.908 3.819 1.409 4.76l.08.149c.002.184-.069.642-.455 1.797-.408 1.237.218 1.914.506 2.15.686.555 1.711.543 2.501.321.14.261.378.602.841.745.088.027.171.043.254.051.039.197.111.384.228.558.218.322.614.65 1.334.667.281.537.735 1.138 1.483 1.413.783.286 1.672.147 2.645-.412.727-.42 1.537-1.113 2.432-2.043.281.453.459.953.578 1.396-1.283 1.858-2.031 5.09-2.031 5.09l-3.046 1.316c-.048-.008-.094-.018-.143-.023-.365-.445-.914-.734-1.527-.734-.092 0-.183.006-.274.018l-.731.098c-.549.071-1.029.357-1.347.783-2.397.702-2.421 2.643-2.311 3.479.179 1.397 1.048 2.319 2.312 2.507.5.626 1.219.983 2.071.983.317 0 .654-.049 1.002-.147.493-.136.905-.252 1.263-.365l-1.415 2.461c-.154-.072-.303-.152-.461-.218-1.453-.602-2.994-.907-4.584-.907s-3.131.306-4.584.907c-1.4.582-2.662 1.411-3.742 2.471-1.08 1.058-1.93 2.291-2.521 3.661-.615 1.425-.928 2.931-.928 4.489 0 1.554.313 3.063.928 4.487.592 1.372 1.441 2.605 2.521 3.662 1.08 1.058 2.342 1.889 3.742 2.471 1.454.601 2.995.907 4.584.907s3.131-.306 4.584-.907c1.402-.582 2.662-1.413 3.742-2.471 1.082-1.057 1.93-2.29 2.523-3.662.615-1.424.926-2.934.926-4.487 0-1.558-.311-3.063-.926-4.488-.594-1.37-1.441-2.604-2.523-3.661-.579-.569-1.214-1.064-1.891-1.498l.594-1.034 9.014 8.771.063.813c-1.49.236-2.217 1.306-2.527 2.576h-.454v1.258h4.037v-.3l.529.072c-.047.215-.074.439-.074.671 0 1.79 1.48 3.239 3.307 3.239.99 0 1.866-.434 2.467-1.107l2.26-.726c.588 1.333 1.42 2.531 2.473 3.563 1.082 1.058 2.342 1.889 3.742 2.471 1.453.601 2.994.907 4.584.907s3.131-.306 4.584-.907c1.402-.582 2.662-1.413 3.742-2.471 1.08-1.057 1.93-2.29 2.523-3.662.615-1.424.926-2.934.926-4.487 0-1.558-.311-3.064-.926-4.489m-37.56 4.489c0 5.257-4.369 9.533-9.738 9.533s-9.738-4.276-9.738-9.533c0-5.256 4.369-9.531 9.738-9.531 1.443 0 2.811.317 4.043.871l-4.347 7.566c-.499.136-.874.563-.874 1.094 0 .636.527 1.153 1.178 1.153s1.178-.518 1.178-1.153c0-.13-.035-.249-.075-.365l4.331-7.539c2.595 1.712 4.304 4.617 4.304 7.904m19.596-9.171c-.423.316-.832.647-1.212 1.021-.047.046-.088.095-.133.144l-.433-1.611h.001l.656-1.202 1.121 1.648m-15.19-24.525l1.795 3.108c-.938.512-1.822 1.288-2.554 2.053.284-1.851.154-3.956-.413-5.523.44.216.854.321 1.172.362m-6.469 7.549c-1.959 1.13-2.591-.31-2.921-1.234-1.972.521-1.032-1.208-.495-2.031-.109.211-.249.504-.371.809-.282.709.07.932.718-.047.308-.461.839-2.009.839-2.009s-1.561 1.528-2.41 2.017c-.809.466-.52-.38-1.256-.936-.048.041-.105.081-.172.122-.771.44-2.656.553-2.17-.917.238-.714.679-2.071.436-2.537-.492-.946-1.674-2.969-1.343-5.323.976-1.214 2.671-3.033 4.304-3.366 2.824-.574 2.697 2.921 4.751 4.438l.427-.248c-.777-4.975 3.277-5.27 4.377-1.92 1.294 3.939-.797 4.149-.797 4.149s1.227 3.721-.254 5.527c-1.571 1.916-2.759 2.986-3.663 3.506m2.396 6.079l.48-2.494-.132 2.69-3.037 1.153c-.038-.051-.088-.088-.131-.135l2.82-1.214m-8.303 3.09l-.8.733.429.449c-.036.447.027.854.101 1.154-.569-.434-.672-1.147-.695-1.332-.234-1.771 1.006-2.287 1.979-2.484.119-.342.428-.607.818-.657l.736-.098c.047-.007.092-.01.139-.01.001 0 .002.001.004.001-.504.158-.917.492-1.16.938-.786.356-1.264.819-1.551 1.306m3.159 3.517c-.273.075-.517.109-.733.109-1.298 0-1.634-1.189-1.7-1.433-.486-1.722.666-2.405 1.6-2.734.068-.354.336-.659.715-.765l.715-.199c.092-.025.184-.038.273-.038.43 0 .824.277.943.699l.404 1.44c.601 2.138.601 2.138-2.217 2.921m6.459-5.707l.264-5.382c.016-.316.177-.539.352-.716.773-.988 3.492-4.904 5.903-4.904 6.536 0 11.894 6.332 13.461 7.985l-10.54 4.093-7.031-6.215-.068 1.015c0 0-.126 1.872-.232 4.618-.01.276-.098.94-.672 1.16l-4.49 1.703c-.062-.258-.139-.535-.225-.841l-.322-1.15 3.6-1.366m11.6 12.994l-1.457 3.576-.482-6.362.752-.905 1.187 3.691m-2.574-10.949l-1.693 2.147h-9.771l4.23-1.604c.785-.3 1.276-1.068 1.315-2.055.059-1.515.123-2.76.168-3.57l5.751 5.082m-5.04 6.387l.5 6.589-8.078-7.868.861-1.497h8.908l-2.191 2.776m3.023 11.861l-3.77.293c.276-.771.882-1.466 1.59-1.522l1.562-.119.986.959c-.137.116-.252.255-.368.389m2.259-1.574l-.174.427c-.105.014-.207.036-.311.061l-.426-.417.911-.071m.972 4.031c-.143.238-.398.407-.703.407-.455 0-.826-.359-.826-.809 0-.444.371-.81.826-.81.385 0 .693.265.785.612l-.785-.106v.608l.703.098m.396-3.442l1.673-4.107 1.019 3.164c-.019.268-.04.531-.04.803 0 .477.045.945.107 1.413-.32.113-.6.295-.842.525-.36-.83-1.04-1.493-1.917-1.798m1.946 3.938c.036-.312.126-.618.266-.894.156-.306.439-.699.91-.848l4.281-1.372.284.844c.042.126.01.232-.024.3-.032.063-.111.176-.276.229l-5.441 1.741m12.481 5.455c-3.77 0-7.039-2.112-8.657-5.188h1.142v-.808l.781-.248c.768-.246 1.191-1.05.945-1.795l-.602-1.779-1.434-5.348c.529-.7 1.141-1.335 1.841-1.871l4.136 6.09c-.313.391-.508.878-.508 1.414 0 1.272 1.055 2.303 2.357 2.303 1.299 0 2.354-1.03 2.354-2.303 0-1.273-1.055-2.305-2.354-2.305-.205 0-.401.034-.592.082l-4.066-6.146c1.385-.742 2.971-1.163 4.656-1.163 5.369 0 9.738 4.275 9.738 9.531.001 5.257-4.368 9.534-9.737 9.534"/><path d="m14.721 15.435c-.449.26-.279.853.091 1.493.368.64.798 1.084 1.247.825s.514-.988.145-1.628c-.37-.639-1.033-.947-1.483-.69"/><path d="m23.836 9.722c-1.041.601-1.465 2.274-.744 3.522.501.867 1.416.724 1.416.724-1.613-1.74-.672-4.246-.672-4.246"/></svg>