<svg xmlns="http://www.w3.org/2000/svg" viewBox="0 0 64 64" enable-background="new 0 0 64 64"><path d="m59.66 28.397l-24.656-25.134c-.799-.814-1.865-1.263-3.003-1.263s-2.204.449-3.002 1.263l-24.657 25.133c-1.335 1.36-2.342 3.834-2.342 5.756v23.542c0 2.374 1.901 4.306 4.239 4.306h51.525c2.336 0 4.236-1.932 4.236-4.306v-23.542c0-1.923-1.006-4.397-2.34-5.755m-.806 29.297c0 .611-.499 1.128-1.091 1.128h-51.524c-.593 0-1.093-.517-1.093-1.128v-23.542c0-1.079.681-2.756 1.43-3.519l24.657-25.133c.204-.208.477-.322.768-.322.292 0 .563.114.769.323l24.657 25.135c.748.761 1.428 2.438 1.428 3.518v23.54z"/><path d="m36.967 26.833c2.772 0 5.013-2.267 5.013-5.063s-2.24-5.061-5.013-5.061c-2.763 0-5.007 2.265-5.007 5.061s2.244 5.063 5.007 5.063"/><ellipse cx="24.801" cy="25.881" rx="4.068" ry="4.11"/><path d="m46.139 43.05l1.611-4.099-3.808-1.528 2.433-4.857c.177-.355.143-.781-.088-1.102l-3.211-4.454c-.029-.042-.074-.065-.109-.102-.024-.026-.035-.062-.062-.084-.02-.017-.046-.019-.065-.034-.085-.063-.176-.105-.273-.14-.044-.015-.083-.037-.129-.047-.148-.031-.301-.037-.45-.001l-7.192 1.708c-.43.102-.727.465-.783.895-.007.012-.019.02-.025.032l-2.715 5.665-2.169-3.443c-.06-.094-.138-.16-.218-.229-.041-.113-.088-.227-.168-.321-.199-.237-.491-.375-.8-.375h-6.238c-.025 0-.047.015-.072.017-.416-.059-.842.135-1.059.527l-2.268 4.109-4.04 3.023c-.465.35-.563 1.012-.219 1.482.206.281.523.429.844.429.217 0 .436-.067.623-.208l4.222-3.16c.119-.09.219-.204.291-.336l1.041-1.887.525 3.645-3.097 6.25c-.164.33-.146.723.048 1.035.191.31.527.498.89.498.004 0 .007 0 .011 0l.24-.003-.595 1.248c-.062.128-.097.267-.103.409l-.316 6.669c-.028.585.418 1.081.997 1.108.017.001.034.002.052.002.556 0 1.019-.441 1.046-1.009l.306-6.455.951-1.995 3.08-.031.14 1.164c.017.137.06.271.126.391l3.855 6.941c.193.346.549.541.916.541.174 0 .35-.044.512-.136.506-.286.685-.933.401-1.442l-3.753-6.758-.087-.724 2.257-.022c.348-.004.672-.182.863-.475.192-.293.228-.664.095-.989l-.757-1.852 1.996.571.811-2.897-1.956-.56.815-2.431 1.17-.542c.221-.104.4-.28.506-.502l1.241-2.59.39 6.756c.002.015.01.026.011.041l-2.106 4.234c-.125.251-.182.531-.164.813l.575 9.325c.052.842.745 1.489 1.567 1.489.033 0 .066 0 .1-.002.867-.055 1.526-.81 1.473-1.686l-.549-8.896 2.148-4.32h1.244l-.224 3.992c-.019.326.063.65.233.928l5.191 8.452c.297.484.811.751 1.338.751.283 0 .568-.077.828-.238.736-.463.964-1.442.506-2.188l-4.929-8.024.202-3.604 4.076 1.638m-3.045-12.416l1.119 1.553-1.385 2.768.266-4.321m-13.614 5.449c0 .001 0 .002 0 .004l-1.005 2.99-.278-.079-.314-.771.623-3.771.992 1.575-.018.052"/></svg>