<svg xmlns="http://www.w3.org/2000/svg" viewBox="0 0 64 64" enable-background="new 0 0 64 64"><path d="m32 2c-16.568 0-30 13.432-30 30s13.432 30 30 30 30-13.432 30-30-13.432-30-30-30m24 30c0 5.547-1.886 10.648-5.045 14.713l-13.819-13.82-2.016-7.751 2.966 1.516v2.786c0 .881.7 1.593 1.565 1.593.863 0 1.563-.712 1.563-1.593v-4.755l-8.36-4.263-.008-.003c-.532-.257-1.126-.398-1.755-.398-1.228 0-2.329.547-3.083 1.415l-.008-.008-1.152 1.174-9.561-9.561c4.065-3.159 9.167-5.045 14.713-5.045 13.255 0 24 10.745 24 24m-48 0c0-5.546 1.886-10.648 5.045-14.713l8.242 8.243h-2.332c-.863 0-1.563.712-1.563 1.593 0 .883.7 1.595 1.563 1.595h5.519l4.472 4.472-4.1 4.178v10.502c0 .883.7 1.594 1.564 1.594s1.564-.711 1.564-1.594v-9.182l3.206-3.263 4.229 4.23 3.681 8.808c.231.588.793 1 1.451 1 .864 0 1.564-.711 1.564-1.594 0-.234-.049-.455-.138-.656l-.717-1.717 5.459 5.46c-4.062 3.158-9.163 5.044-14.709 5.044-13.255 0-24-10.744-24-24"/><circle cx="29.75" cy="15.694" r="2.931"/></svg>