<svg xmlns="http://www.w3.org/2000/svg" viewBox="0 0 64 64" enable-background="new 0 0 64 64"><path d="m11.065 28.838c.51.064.99.396 1.52.789-.021.039-.043.078-.059.119-.08.209-.072.447-.008.676.074.225.215.449.422.58.203.135.447.16.623.061-.174-.143-.285-.266-.359-.389-.072-.125-.127-.246-.166-.381-.045-.133-.07-.275-.09-.424-.012-.15-.027-.301.053-.496-.141-.016-.264.063-.355.17-.123-.279-.303-.539-.531-.756-.277-.271-.646-.461-1.025-.523-.381-.053-.752.025-1.051.193-.303.166-.547.402-.73.691.328-.09.621-.199.91-.266.291-.062.573-.091.846-.044"/><path d="m16.37 24.141c.342.061.699.104 1.074.086.371-.02.771-.102 1.104-.344.338-.23.555-.637.537-1.049-.216.173-.419.271-.623.344-.125-.163-.193-.334-.264-.52-.092-.26-.186-.543-.342-.836-.156-.283-.416-.59-.75-.711-.324-.127-.641-.084-.893.049.289.105.545.203.73.352.186.146.318.33.443.566.137.229.252.506.445.773.101.153.252.302.42.4-.291.071-.589.085-.93.105-.324.02-.674.029-1.033.105-.34.07-.781.211-.941.6.372-.067.677.035 1.023.08"/><path d="m59.398 36.642h-7.523l-.002-.001c-.084-.214-.178-.429-.305-.643-.693-1.162-1.184-2.701-1.658-4.189-.973-3.058-1.979-6.221-4.916-6.221-3.779 0-10.428 6.638-12.82 11.053h-10.077c-.263-.684-.306-1.329-.299-1.712 2.69-1.017 3.958-1.936 4.277-3.059.274-.964-.241-1.777-.627-2.272.118-.18.256-.422.326-.732.132-.586-.008-1.192-.385-1.662-.201-.252-.455-.449-.748-.585.028-.484-.072-.896-.299-1.231-.246-.361-.616-.594-1.06-.669.167-.389.233-.859-.027-1.354-.529-1.005-1.451-1.005-1.754-1.005-.077 0-.158.003-.24.005.042-2.033-1.121-5.273-5.929-6.257-3.412-.699-12.043 2.768-12.588 7.15 0 0-2.303 2.271 1.207 8.18l3.092 5.203v.001h-1.957c-4.115 0-4.115 4.754 0 4.754h.353c.339 6.008 1.995 9.948 4.611 12.539-.963.892-1.828 2.067-2.373 3.541-.865 2.343.531 4.524 2.52 4.524 1.985 0 2.878-2.027 2.878-4.524 0-.396.084-.806.207-1.212 4.856 2.517 11.551 2.623 18.95 2.623 7.196 0 13.727-.101 18.549-2.421.088.34.145.679.145 1.01 0 2.497.893 4.524 2.881 4.524 1.984 0 3.385-2.181 2.52-4.524-.502-1.358-1.277-2.456-2.148-3.317 2.75-2.585 4.496-6.577 4.846-12.763h.375c3.467 0 3.467-4.754-.002-4.754m-14.404-9.554c1.717 0 2.463 1.956 3.486 5.176.484 1.521.99 3.088 1.734 4.377h-6.328c.646-1.471 1.193-3.956 1.465-4.727l-1.879 4.727h-9.562c2.533-4.131 8.338-9.553 11.084-9.553m-35.822.664c.354-.373.84-.552 1.375-.552.826 0 1.77.426 2.533 1.226.33.346.589.728.782 1.12l.015-.009c0 0 1.666-.498.096-6.441-.614-2.331.52-5.115 1.771-5.114.194 0 .392.067.586.214 2.998 2.27 2.18 3.977 2.996 4.611.633.493 1.181.565 1.643.565.191 0 .368-.013.53-.013.365 0 .655.063.87.471.291.553-.668 1.238-.609 1.412.149.429.563.424 1.216.448.977.896-.655 2.494-.655 2.494s1.647-.192 2.038.354c.378.53-.322.92.131 1.467 1.059 1.275 1.574 2.457-4.314 4.439-1.262.425-2.11.915-2.998.915-.99 0-2.029-.609-3.747-2.594-.313.21-.69.312-1.095.312-.822 0-1.759-.421-2.52-1.221-1.257-1.317-1.546-3.155-.644-4.104m11.87 8.889h-5.066c-.527-.392-1.004-.861-1.429-1.358.934.748 1.756 1.078 2.632 1.078.802 0 1.527-.285 2.294-.586.311-.123.647-.256 1.022-.381.111-.037.203-.073.31-.11.018.377.083.848.237 1.357m29.319 17.952c-4.311 2.245-10.234 2.419-18.129 2.419-7.896 0-13.819-.174-18.13-2.419-2.715-1.414-6.246-4.33-6.783-13.197h49.826c-.538 8.867-4.069 11.783-6.784 13.197"/><path d="M39.105,24c0,0,7.021-6.583,1.234-12.591C36.65,7.579,39.105,2,39.105,2s-7.752,7.374-2.857,12.458
		C41.914,20.341,39.105,24,39.105,24z"/><path d="m28.359 24c0 0 5.266-4.788.928-9.157-2.77-2.785-.928-6.843-.928-6.843s-5.814 5.363-2.143 9.061c4.25 4.278 2.143 6.939 2.143 6.939"/><path d="m50.359 24c0 0 5.266-4.789.928-9.158-2.769-2.785-.928-6.842-.928-6.842s-5.814 5.363-2.143 9.061c4.251 4.277 2.143 6.939 2.143 6.939"/></svg>