<svg xmlns="http://www.w3.org/2000/svg" viewBox="0 0 64 64" enable-background="new 0 0 64 64"><path d="m32 2c-16.569 0-30 13.43-30 30 0 16.568 13.432 30 30 30 16.569 0 30-13.432 30-30 0-16.57-13.432-30-30-30m11.814 11.471v3.801h-9.554l-.949-3.801h10.503m-9.554 4.751h9.555c0 0 0 2.165 0 4.751 0 4.764-9.555 4.764-9.555 0 0-.55 0-1.229 0-1.9h-3.801l3.801-2.851m-9.622.831v4.371l-10.32-2.186 10.32-2.185m-10.32 4.371l10.32 2.186v9.834l-10.32-2.186v-9.834m7.06 22.353l-4.752-8.552h5.701l1.9 3.421 6.652-11.973h.01 5.692 8.701l-14.392 14.411v-4.168l-3.811 6.861h-5.701m26.304 4.751h-16.792v-5.044h16.792v5.044m0-6.723h-15.112l15.111-15.131v15.131z"/></svg>