<svg xmlns="http://www.w3.org/2000/svg" viewBox="0 0 64 64" enable-background="new 0 0 64 64"><path d="m8.381 16.606c-.172.138-.003.315.044.394.148.232.627.511 1.525.594.259.021.535.027.822.014l1.646-.078c1.151-.053 2.229-.54 2.865-1.212.001-.001-4.849-1.345-6.902.288"/><path d="m18.151 16.579c.506.776 1.475 1.45 2.599 1.71l1.604.375c.282.066.556.11.813.134.901.083 1.419-.106 1.605-.308.063-.067.263-.212.116-.379-1.723-1.977-6.737-1.532-6.737-1.532"/><path d="m58.38 12.488l1.49-5.217-5.13-1.591.336-1.024-7.42-2.336-.344 1.054-4.424-1.374-4.108 10.488h-6.368l-3.715 1.499.457-9.673-8.766-.808.024-.515-5.956-.547-.024.513-10.396-.957-.287 10.114-.414-.034-.136 5.405.396.021-.253 8.868h-1.342v35.626l7.5-3.75 7.5 3.75h45v-49.512h-3.62m-39.538 1.888c-.226.158-.417.264-.594.348.042-.623.037-.999-.02-1.218.742-.643 1.816-1.086 2.981-1.141l1.646-.078c.113-.006.225-.008.334-.008 1.861 0 3.004.757 2.572 1.754-.46 1.057-.621 2.841-.362 3.961.195.848-.569 1.36-1.819 1.36-.406 0-.862-.054-1.354-.168l-1.604-.374c-1.128-.263-2.1-.886-2.715-1.646.114-.275.196-.8.284-1.748.351.104.771.16 1.264.081 2.743-.435.861-2.157-.613-1.123m-12.988-10.325l8.493.783-.258 5.591-.016.538c-.265-.101-.538-.19-.822-.256l-1.604-.375c-.55-.128-1.076-.193-1.566-.193-1.091 0-1.92.317-2.396.916-.303.382-.422.855-.367 1.352l-1.696-.14.232-8.216m-.386 13.561l1.655.093c.019.032.027.066.048.098.452.688 1.38 1.126 2.591 1.249-.657 1.409-1.647 2.882-3.158 4.016l-1.318.988.182-6.444m4.37 8.763h-.338-4.282l.052-1.789 1.812.165 2.882.261-.126 1.363m3.795 0h-.33c.115-.209.23-.418.349-.646l-.019.646m-1.419 0h-1.434l.201-2.212-3.816-.346c1.793-1.346 2.913-3.105 3.62-4.734.022-.001.042-.001.064-.002l1.646-.077c1.056-.049 2.031-.369 2.837-.854-.756 3.588-2.061 6.387-3.118 8.225m1.982-11.354c.471.167.896.187 1.26.148-.086.949-.1 1.479-.038 1.771-.741.636-1.811 1.073-2.967 1.127l-1.646.077c-.115.006-.228.008-.338.008-1.859 0-3-.757-2.568-1.753.46-1.057.623-2.84.361-3.962-.196-.847.57-1.361 1.819-1.361.406 0 .863.055 1.354.169l1.605.375c1.137.264 2.112.896 2.727 1.662-.096.205-.169.573-.239 1.193-.159-.114-.328-.252-.522-.449-1.264-1.283-3.426.07-.808.995m2.444 2.287c-.889-.081-1.184.73-.92-2.162.264-2.894.407-2.042 1.297-1.96.888.081 1.185-.732.921 2.161-.266 2.894-.409 2.042-1.298 1.961m4.204 9.067h-1.713c-.639-1.975-1.273-4.717-1.358-8.006.705.625 1.606 1.116 2.637 1.356l1.604.373c.021.005.042.007.063.012.4 1.73 1.185 3.665 2.704 5.313l-3.817-.35-.12 1.302m.941 0l.025-.283 2.885.265.199.019h-3.109zm4.484-.721l-.799-.867c-1.283-1.392-1.987-3.021-2.38-4.526.165.013.332.031.49.031 1.091 0 1.92-.315 2.396-.914.144-.18.236-.384.303-.597l.314.018-.324 6.855m.551-11.65l-.074-.006c.1-.479.016-.953-.257-1.37-.536-.817-1.74-1.286-3.3-1.286-.123 0-.25.003-.377.009l-1.647.078c-.401.019-.786.087-1.16.176l.295-6.223 6.897.636-.377 7.986m22.043-9.339l3.842 1.21-2.165 6.613h-4.229l2.552-7.823m2.825 32.788c0 2.446 0 3.731 0 7.209 0 2.488-.213 5.008-1.729 7.105-1.974 2.732-5.106 4.719-8.584 4.602-6.659-.223-10.313-5.46-10.313-11.707 0-3.478 0-4.763 0-7.209-1.09-.389-1.875-1.418-1.875-2.641.001-1.552 1.26-2.812 2.813-2.812 1.555 0 2.813 1.26 2.813 2.813 0 1.223-.785 2.253-1.875 2.641 0 1.573 0 2.434 0 5.112 0 1.616-.224 3.532.157 5.125.908 3.79 4.2 6.939 8.28 6.802 4.215-.141 8.268-3.343 8.417-7.802.046-1.375.021-2.75.021-4.125 0-2.679 0-3.539 0-5.112-1.09-.389-1.875-1.418-1.875-2.641 0-1.553 1.26-2.813 2.813-2.813 1.555 0 2.813 1.26 2.813 2.813-.001 1.222-.787 2.252-1.876 2.64m8.437-11.078h-26.775v-12.012h26.775v12.012"/></svg>