<svg xmlns="http://www.w3.org/2000/svg" viewBox="0 0 64 64" enable-background="new 0 0 64 64"><path d="m32 2c-16.568 0-30 13.431-30 30 0 16.568 13.432 30 30 30s30-13.432 30-30c0-16.569-13.432-30-30-30m14.709 10.471v3.801h-9.555l-.949-3.801h10.504m-9.555 4.751h9.555c0 0 0 2.165 0 4.751 0 4.764-9.555 4.764-9.555 0 0-.55 0-1.229 0-1.9h-3.801l3.801-2.851m-5.73 32.305h-14v-6h-6v-13.999h6v13.999h14v6m-5.449-7.75h-5.701l13.502-14.104h.01 5.691 8.701l-14.393 14.409v-8.465l-7.81 8.16m24.601 7.752h-16.791v-5.045h16.791v5.045m0-6.724h-15.113l15.113-15.131v15.131"/></svg>