<svg xmlns="http://www.w3.org/2000/svg" viewBox="0 0 64 64" enable-background="new 0 0 64 64"><path d="m38 14.064h-12c-.551 0-1 .463-1 1.032v3.904h14v-3.903c0-.57-.447-1.033-1-1.033"/><path d="m32 2c-16.568 0-30 13.431-30 30 0 16.568 13.432 30 30 30s30-13.432 30-30c0-16.569-13.432-30-30-30m-17.5 48c-1.104 0-2-.896-2-2 0-1.105.896-2 2-2 1.105 0 2 .895 2 2 0 1.104-.895 2-2 2m-.5-7c-1.104 0-2-.896-2-2v-20c0-1.104.896-2 2-2h3.5v24h-3.5m7.5 7c-1.104 0-2-.896-2-2 0-1.105.896-2 2-2 1.105 0 2 .895 2 2 0 1.104-.895 2-2 2m7 0c-1.104 0-2-.896-2-2 0-1.105.896-2 2-2 1.105 0 2 .895 2 2 0 1.104-.895 2-2 2m7 0c-1.104 0-2-.896-2-2 0-1.105.896-2 2-2 1.105 0 2 .895 2 2 0 1.104-.895 2-2 2m7 0c-1.104 0-2-.896-2-2 0-1.105.896-2 2-2 1.105 0 2 .895 2 2 0 1.104-.895 2-2 2m-23-7v-24h3.5v-3.903c0-1.708 1.346-3.097 3-3.097h12c1.654 0 3 1.389 3 3.097v3.903h3.5v24h-25m30 7c-1.104 0-2-.896-2-2 0-1.105.896-2 2-2 1.105 0 2 .895 2 2 0 1.104-.895 2-2 2m2.5-9c0 1.104-.895 2-2 2h-3.5v-24h3.5c1.105 0 2 .896 2 2v20"/></svg>