<svg xmlns="http://www.w3.org/2000/svg" viewBox="0 0 64 64" enable-background="new 0 0 64 64"><path d="m50.593 30.594c-.871.586-1.669 1.306-2.384 2.12-.039-.073-.076-.15-.119-.218-.174-.291-.383-.564-.625-.789-.484-.463-1.078-.688-1.654-.784.538.254 1.021.626 1.323 1.117.154.246.267.511.354.793.061.2.105.393.146.598-.598.81-1.114 1.694-1.482 2.655-.451 1.141-.707 2.375-.707 3.598.372-1.151.798-2.239 1.335-3.251.538-1.01 1.164-1.952 1.88-2.812 1.424-1.733 3.133-3.17 5.003-4.463-1.09.268-2.115.792-3.07 1.436"/><path d="m59.919 50.026c1.243-.828 2.081-2.305 2.081-4.004 0-1.354-.536-2.568-1.38-3.428.014-.129.034-.257.034-.391v-11.642c0-1.877-1.236-3.433-2.872-3.808.126-.115.205-.186.205-.186s-.138.028-.356.071c-.454-.905-1.366-1.528-2.428-1.528h-42.971v-12.248c0-.109.022-2.271 1.367-3.007-.327.608-1.059 2.014-1.162 2.628-.241 1.463.563 5.909.563 5.909.333 1.308 3.462 1.493 6.994.407 3.531-1.082 6.124-3.021 5.793-4.331-.023-.092-.064-.177-.114-.258-.445-.996-2.122-4.65-3.16-5.658-.456-.445-2.252-1.153-2.252-1.153l-1.447-4.827c-.172-.672-1.78-.766-3.593-.209-1.814.557-3.146 1.555-2.976 2.223l1.224 4.014c-1.814.68-2.338 2.958-2.338 4.262v12.248h-2.334c-1.095 0-2.035.661-2.474 1.612-1.688.329-2.976 1.921-2.976 3.839v11.643c0 .134.021.261.033.391-.843.859-1.38 2.074-1.38 3.429 0 1.696.839 3.175 2.082 4.002-1.243.828-2.082 2.306-2.082 4.005 0 2.596 1.941 4.707 4.328 4.707h1.951v3.262h3.602v-3.262h40.239v3.262h3.602v-3.262h1.952c2.386 0 4.326-2.111 4.326-4.707 0-1.699-.838-3.177-2.081-4.005m-41.103-35.968c1.854-.571 3.596-.786 4.884-.677-1.043.875-2.71 1.737-4.668 2.338-1.855.57-3.596.788-4.882.676 1.043-.872 2.71-1.736 4.666-2.337m38.219 14.469c.986 0 1.787.913 1.787 2.034v10.943c-.368-.11-.748-.189-1.148-.189h-.029c-.797-.824-1.685-2.367-2.395-5.239v-5.514c0-1.122.801-2.035 1.785-2.035m-1.832-1.542c.096 0 .186.023.271.052-.239.039-.449.07-.601.087-1.604.179-4.475.444-6.641.444-.617 0-1.177-.021-1.634-.073-.424-.047-1.335-.311-1.986-.511h10.591zm-1.785 13.576v.539c-.817-.201-1.66-.39-2.16-.448-.477-.056-1.071-.082-1.817-.082-.84 0-1.779.033-2.688.066-.869.03-1.769.063-2.532.063-.551 0-.98-.017-1.316-.05-.046-.005-.101-.012-.161-.02.133-.136.245-.273.334-.41 1.353-2.114 1.748-6.132 2.063-10.413.031-.429.06-.826.089-1.179.465.126.915.232 1.221.266.48.054 1.079.081 1.783.081 1.906 0 4.222-.193 5.667-.336-.235.441-.394.933-.451 1.461-.706 2.495-.45 6.571-.032 10.462m-44.621-13.576h35.087c.008.359.02 1.039-.006 1.316-.245 2.825-.465 8.827-1.95 11.147-.355.553-1.752 1.304-2.453 1.656-19.607-4.234-26.662-8.688-28.891-10.544-.001-1.556-.854-2.891-2.074-3.52.09-.031.185-.055.287-.055m-3.617 3.576c0-1.121.801-2.034 1.785-2.034.986 0 1.787.913 1.787 2.034v10.753h-1.181c-.798-.824-1.683-2.372-2.392-5.239v-5.514zm-1.619 16.58c3.771-2.413 15.916-3.729 25.904-4.42h28.209c1.276 0 2.355.916 2.767 2.186-3.772 2.412-15.908 3.727-25.895 4.417h-28.218c-1.276-.001-2.356-.915-2.767-2.183m30.985 10.191h-28.218c-1.276 0-2.355-.914-2.768-2.184 3.772-2.412 15.916-3.728 25.904-4.419h28.209c1.276 0 2.355.915 2.767 2.187-3.772 2.41-15.908 3.725-25.894 4.416"/></svg>