<svg xmlns="http://www.w3.org/2000/svg" viewBox="0 0 64 64" enable-background="new 0 0 64 64"><path d="m59.397 36.642h-54.311c-4.115 0-4.115 4.754 0 4.754h.352c.339 6.008 1.996 9.948 4.611 12.539-.963.892-1.828 2.067-2.373 3.541-.864 2.343.532 4.524 2.52 4.524 1.986 0 2.878-2.027 2.878-4.524 0-.396.083-.806.206-1.212 4.857 2.517 11.551 2.623 18.951 2.623 7.196 0 13.728-.101 18.549-2.421.089.34.146.679.146 1.01 0 2.497.893 4.524 2.88 4.524 1.985 0 3.385-2.181 2.52-4.524-.501-1.358-1.277-2.456-2.148-3.317 2.751-2.585 4.497-6.577 4.847-12.763h.374c3.468 0 3.468-4.754-.002-4.754m-9.036 17.951c-4.311 2.245-10.234 2.419-18.13 2.419-7.896 0-13.819-.174-18.13-2.419-2.715-1.414-6.246-4.33-6.783-13.197h49.826c-.537 8.867-4.068 11.783-6.783 13.197"/><path d="M32.141,32c0,0,9.531-8.977,1.678-17.17C28.809,9.607,32.141,2,32.141,2s-10.52,10.056-3.877,16.988
		C35.955,27.01,32.141,32,32.141,32z"/><path d="m17.558 32c0 0 7.147-6.529 1.258-12.487-3.757-3.798-1.258-9.331-1.258-9.331s-7.891 7.314-2.908 12.355c5.767 5.834 2.908 9.463 2.908 9.463"/><path d="m47.416 32c0 0 7.146-6.531 1.258-12.488-3.758-3.799-1.258-9.33-1.258-9.33s-7.892 7.314-2.908 12.355c5.766 5.832 2.908 9.463 2.908 9.463"/></svg>