<svg xmlns="http://www.w3.org/2000/svg" viewBox="0 0 64 64" enable-background="new 0 0 64 64"><path d="m60.026 39.445v-5.854l-5.82-1.464-.397-.744c-.469-.875-.856-1.433-1.154-1.657-.33-.255-.889-.394-1.42-.468-.401-.745-.676-.864-.835-.934-.158-.069-.342-.106-.536-.106-.438 0-.967.208-1.408.43-.679-.729-1.063-.734-1.267-.736h-.224c-2.12 0-4.896.154-7.912.42l-.798-1.016c-.023-.03-2.393-3.065-3.031-5.41l-.116-.425v-8.232c0 0-2.338.345-3.488-2.554h-1.031c0 0-.27.111-.725.168-.922-.105-2.119-.521-3.388-1.719-3.331-3.144-6.511-3.144-6.511-3.144h-1.031c0 0-3.558 0-7.28 3.145-1.356 1.146-2.659 1.637-3.567 1.745-.716-.032-1.155-.194-1.155-.194h-1.032c-1.285 2.898-3.9 2.553-3.9 2.553v28.222h.412v2.935h1.398l.635-2.028 9.599 6.145c.28 1.771 1.5 5.656 1.5 5.656s1.313-3.081 1.521-3.722l.958.612.488 2.483.572-1.805 3.075 1.971.375 3.903.552.379 1.331-.379.637-3.64 34.016-5.672.843 3.444 1.675-.276v-3.587l.413-.07v-7.453l-1.974-.922m-29.121-17.541c2.139 0 3.413.245 3.413.245.697 2.559 3.197 5.738 3.197 5.738-.104-.001-.207-.002-.311-.002-6.207 0-10.847 1.852-10.847 1.852-1.005-3.917-3.158-6.85-3.158-6.85 3.083-.78 5.754-.983 7.706-.983m-13.24.798c2.39 0 3.813.273 3.813.273.78 2.862 3.574 6.417 3.574 6.417-.109-.001-.219-.002-.328-.002-6.951 0-12.148 2.073-12.148 2.073-1.124-4.382-3.534-7.661-3.534-7.661 3.45-.872 6.439-1.1 8.623-1.1m-9.038 2.155c.579.893 1.772 2.896 2.621 5.425-.463.112-.723.184-.723.184-3.618-1.418-4.719-4.387-4.719-4.387.967-.511 1.908-.904 2.821-1.222m5.778 7.021c-.509.399-1.404 1.67-1.601 2.485-.191.793.02 3.381.183 5.026l-8.867-4.327v-5.214l3.173-.258c.742.646 1.688 1.271 2.887 1.74l.298.117.308-.088c.012-.003.276-.076.738-.186.049.172.1.344.145.52l.264 1.028.994-.395c.017-.006.602-.233 1.607-.53-.043.026-.092.054-.129.082m6.389 15.257c0 0-.509-2.401-.878-2.401-.03 0-.061.017-.089.053-.333.417-1.143 4.287-1.143 4.287s-.366-2.569-.798-2.569c-.042 0-.083.023-.125.074-1.04 1.262-2.124 4.476-2.124 4.476s-1.313-5.22-1.042-7.374c.284-2.258 1.529-6.589 2.452-8.42.444-.883 1.553-2.587 2.274-2.803 6.59-1.971 20.711-3.617 27.643-3.617.072 0 .144 0 .213 0 .312.003 1.055 1.006 1.055 1.006s1.088-.7 1.631-.7c.061 0 .115.009.16.029.208.091.595.95.595.95s1.139.085 1.469.339c.283.214.894 1.353.894 1.353s-1.645-.343-2.069-.355c-.272-.008-.557-.012-.852-.012-7.041 0-19.966 2.253-26.271 4.983-.688.296-1.706 2.112-1.99 3.104-.415 1.46-1.005 7.597-1.005 7.597m37.996-7.428l-35.001 4.955-1.699-.829c.199-1.689.432-3.41.612-4.042.199-.699.767-1.697 1.175-2.208l34.913-3.322v5.446"/></svg>