<svg xmlns="http://www.w3.org/2000/svg" viewBox="0 0 64 64" enable-background="new 0 0 64 64"><path d="m48.621 24h-33.244c-.76 0-1.377.599-1.377 1.334v23.332c0 .735.617 1.334 1.377 1.334h33.244c.76 0 1.379-.599 1.379-1.334v-23.332c0-.735-.619-1.334-1.379-1.334m-28.621 24h-3c-.553 0-1-.447-1-1v-14c0-.553.447-1 1-1h3v16m22 0h-20v-16h4v-4c0-1.104.896-2 2-2h8c1.102 0 2 .896 2 2v4h4v16m6-1c0 .553-.447 1-1 1h-3v-16h3c.553 0 1 .447 1 1v14"/><circle cx="23" cy="16" r="2"/><path d="m28 28h8v4h-8z"/><path d="m32 2c-16.568 0-30 13.431-30 30s13.432 30 30 30 30-13.431 30-30-13.432-30-30-30m-8 10c1.477 0 2.752.81 3.445 2h14.555l2 2-2 2h-2l-2-2-2 2h-2l-2-2-2 2h-2.555c-.693 1.19-1.969 2-3.445 2-2.209 0-4-1.791-4-4s1.791-4 4-4m28 36.666c0 1.838-1.516 3.334-3.379 3.334h-33.244c-1.861 0-3.377-1.496-3.377-3.334v-23.332c0-1.838 1.516-3.334 3.377-3.334h33.244c1.863 0 3.379 1.496 3.379 3.334v23.332"/></svg>