<svg xmlns="http://www.w3.org/2000/svg" viewBox="0 0 64 64" enable-background="new 0 0 64 64"><path d="m53.645 51.493c-.262-.14-.537-.388-.812-.696h5.167v-4.051c0-11.479-7.257-20.085-19-22.634v-5.315h-5.143v-4.593h3.375v-4.068h-10.464v4.068h3.375v4.593h-5.143v5.315c-11.743 2.549-19 11.156-19 22.634v4.051h5.168c-.275.309-.55.557-.813.696-1.88 1.004-5.355 2.007-5.355 5.706v4.801h54v-4.801c0-3.697-3.475-4.701-5.355-5.706m-45.645-4.747c0-10.72 6.969-18.703 18.187-20.835l.813-.154v-4.96h10v4.96l.813.154c11.218 2.132 18.187 10.115 18.187 20.835v2.051h-48v-2.051m45.602 13.22h-43.202c-.994 0-1.799-.91-1.799-2.033 0-1.124.805-2.034 1.799-2.034h43.201c.994 0 1.799.91 1.799 2.034 0 1.123-.804 2.033-1.798 2.033"/><path d="M51.131 2 42.182 16.792 56.729 6.438z"/><path d="M12.865 2 7.273 6.438 21.818 16.792z"/><path d="M62 22.848 59.545 16.792 48 22.848z"/><path d="m4.455 16.792l-2.455 6.056h14z"/></svg>