<svg xmlns="http://www.w3.org/2000/svg" viewBox="0 0 64 64" enable-background="new 0 0 64 64"><path d="m61 48c0 0 .656-8.126-1-10-.393-.445-18.85-9.357-29.418-9.469-.176-.303-.359-.596-.561-.869-.26-.354-.563-.484-.867-.484-.867 0-1.758 1.062-1.758 1.062s-.479-.666-1.156-.666c-.134 0-.275.026-.424.089-.834.354-1.201 1.765-1.201 1.765s-.549-.607-1.049-.607c-.182 0-.355.079-.496.295-.313.483-.593.979-.856 1.478-1.052-2.788-5.171-4.961-7.821-5.304-.806-.805-3.648-.867-5.68.877-.813-.862-1.794-1.521-2.713-1.884v-11.283c0-.55-.449-1-1-1h-2c-.549 0-1 .45-1 1v44c0 .55.451 1 1 1h2v4h4v-4h46v4h4v-4h2c.551 0 1-.45 1-1v-8c0-.55-.449-1-1-1m-37.186-17.225c.568 0 1.527 1.68 1.527 1.68s.125-3.051.945-3.189c.43-.072 1.018 1.417 1.018 1.417s1.053-1.882 1.686-1.882c.915 0 2.634 8.539 2.416 14.758-1.345-1.891-5.043-3.219-3.876 9.198-3.531-10.156-4.406-2.604-4.292 2.459-4.458-15.189-.27-24.441.576-24.441m-3.831 6.877l-3.48-2.065c.206.101.407.177.606.241 1.035.398 2.115.549 3.104.48-.089.448-.166.895-.23 1.344m11.447 10.348h-2.436c-.182-4.691 2.193-4.441 2.436 0m-18.95-19.195l2.275-2.44c2.237.468 5.519 2.225 6.476 4.425.221.508.276.996.196 1.482-.148.359-.285.721-.412 1.086-.053.096-.09.19-.152.288-.942 1.46-3.724 1.866-5.427 1.632-1.455-.2-3.687-1.572-3.687-4.548.001-.605.318-1.262.731-1.925m-7.812 12.033c-.328 0-.451-.115-.273-.479 1.746-3.579 2.21-10.956-.082-13.939-.515-.67-.345-.977.157-.977.743 0 2.197.685 3.245 1.841-.16.237-.313.486-.445.762-2.889 6.006 1.758 9.25 5.641 10.122 1.915.43 3.519.049 4.594-.738l2.354 1.291c-.077.775-.12 1.551-.134 2.321-1.286.274-2.831.492-4.599.492-1.813 0-3.836-.224-5.98-.836-.5-.143-1.012-.193-1.506-.193-1.263 0-2.413.333-2.972.333m1.332 7.162v-5.824c.509-.084 1.064-.171 1.639-.171.416 0 .773.044 1.094.136 2.078.593 4.229.894 6.393.894 1.744 0 3.291-.198 4.607-.461.059 1.874.273 3.704.582 5.427h-14.315zm53.592 0h-26.89c.382-4.101.669-12.947-1.376-17.945 9.492.479 25.468 7.8 27.635 9.057.523.87.784 5.54.631 8.888"/></svg>