<svg xmlns="http://www.w3.org/2000/svg" viewBox="0 0 64 64" enable-background="new 0 0 64 64"><path d="m61.063 2h-2.813v.896c-3.916.876-4.479 4.511-4.7 5.9-.105.657-.318 1.942-.582 3.516h-48.98c-1.938 0-2.155 1.811-1.902 2.813l5.746 25.367c.252 1.002 1.313 1.82 2.353 1.82h35.444 4.312 3.188c1.034 0 1.877.841 1.877 1.875s-.843 1.875-1.877 1.875h-46.874c-1.036 0-1.875.839-1.875 1.875 0 1.034.839 1.875 1.875 1.875h2.43c-2.309 1.279-3.872 3.737-3.872 6.563h1.875c0 3.105 2.52 5.625 5.625 5.625s5.625-2.52 5.625-5.625h1.875c0-2.825-1.563-5.283-3.873-6.563h26.494c-2.309 1.279-3.873 3.737-3.873 6.563h1.875c0 3.105 2.52 5.625 5.627 5.625 3.105 0 5.625-2.52 5.625-5.625h1.875c0-2.825-1.563-5.283-3.872-6.563h3.44c3.105-.002 5.625-2.52 5.625-5.625 0-3.107-2.52-5.625-5.627-5.625h-.697l2.398-14.91c.668-3.938 2.108-12.445 2.446-14.561.17-1.069.335-1.82.974-2.241v.774h2.813c.514.001.937-.422.937-.936v-3.75c0-.517-.423-.938-.937-.938m-48.75 57.188c-1.551 0-2.813-1.262-2.813-2.813h5.625c0 1.551-1.262 2.813-2.812 2.813m33.75 0c-1.553 0-2.814-1.262-2.814-2.813h5.627c-.001 1.551-1.263 2.813-2.813 2.813m-2.307-42.194c.053-.513.523-.932 1.04-.932h5.937c.516 0 .875.416.794.927l-.588 3.771c-.078.51-.567.927-1.084.927h-5.663c-.519 0-.897-.419-.841-.932l.405-3.761m-1.009 9.375c.057-.513.523-.932 1.04-.932h5.483c.517 0 .875.416.797.927l-.443 2.834c-.079.51-.567.927-1.084.927h-5.257c-.517 0-.896-.419-.841-.932l.305-2.824m-35.881-5.592l-.95-3.805c-.124-.502.198-.91.715-.91h7.059c.518 0 .985.419 1.04.932l.404 3.762c.055.513-.324.932-.84.932h-6.261c-.516 0-1.042-.411-1.167-.911m3.271 9.348c-.516 0-1.042-.41-1.166-.91l-.716-2.867c-.125-.502.195-.91.712-.91h5.729c.517 0 .985.419 1.04.932l.304 2.824c.056.513-.324.932-.84.932h-5.063zm5.969 8.438h-3.865c-.519 0-1.042-.41-1.167-.91l-.716-2.867c-.124-.502.196-.91.714-.91h4.53c.517 0 .985.419 1.042.932l.302 2.824c.056.512-.323.931-.84.931m11.492-.938c0 .515-.423.938-.94.938h-4.891c-.517 0-.983-.419-1.039-.932l-.304-2.824c-.057-.513.322-.932.839-.932h5.395c.518 0 .94.421.94.938v2.812m0-8.437c0 .515-.423.938-.94.938h-5.798c-.516 0-.982-.419-1.04-.932l-.302-2.824c-.055-.513.322-.932.839-.932h6.301c.518 0 .94.421.94.938v2.812m0-8.438c0 .515-.423.938-.94.938h-6.702c-.518 0-.985-.419-1.04-.932l-.404-3.762c-.056-.513.324-.932.84-.932h7.307c.518 0 .94.421.94.938v3.75zm10.159 16.881c-.055.513-.523.932-1.04.932h-4.42c-.517 0-.939-.423-.939-.938v-2.813c0-.517.423-.938.939-.938h4.924c.516 0 .896.419.84.932l-.304 2.825m.906-8.438c-.055.513-.523.932-1.04.932h-5.326c-.517 0-.939-.423-.939-.938v-2.813c0-.517.423-.938.939-.938h5.83c.517 0 .896.419.839.932l-.303 2.825m.906-8.437c-.055.513-.523.932-1.04.932h-6.232c-.517 0-.939-.423-.939-.938v-3.75c0-.517.423-.938.939-.938h6.837c.517 0 .896.419.841.932l-.406 3.762m7.232 17.807v-.007c-.002.001-.006.005-.008.007h-1.164-3.252c-.029 0-.054-.014-.083-.018-.005-.034-.005-.068-.011-.104l-.044.092c.012.003.024.006.037.008-.461-.053-.791-.434-.738-.91l.302-2.824c.056-.513.524-.932 1.04-.932h5.076c.517 0 .873.416.795.927l-.443 2.834c-.077.51-.565.927-1.082.927h-.425"/></svg>