<svg xmlns="http://www.w3.org/2000/svg" viewBox="0 0 64 64" enable-background="new 0 0 64 64"><path d="M32 10.051 48.639 25.406 53 21.382 32 2 11 21.382 15.361 25.406z"/><path d="m22.523 35.624c4.934 7.817 4.934 7.817 4.934 7.817.701 1.454 2.881 1.12 4.023 0l3.619-3.504 5.568 8.599c-3.354 3.313-5.285 5.152-8.637 8.456-1.805 1.788-.426 5.008 2.011 5.008 5.18 0 11.781 0 16.959 0v-2.932c-9.873-2.934-9.873-2.934-9.873-2.934 2.266-2.238 4.535-4.477 6.809-6.717 1.209-1.189.949-2.926 0-4.146-3.047-3.908-6.094-7.814-9.141-11.72-.984-1.267-2.996-1.011-4.021 0-1.768 1.739-3.535 3.481-5.301 5.229 0 0 0 0-5.529-4.625l-1.421 1.469"/><path d="m35.537 29.633c.574-.514.637-1.42.137-2.016l-3.332-3.956c-.502-.595-1.381-.662-1.955-.145l-3.838 3.444c-.574.512-.635 1.422-.135 2.02l3.334 3.954c.498.595 1.377.661 1.955.139l3.834-3.44"/></svg>