<svg xmlns="http://www.w3.org/2000/svg" viewBox="0 0 64 64" enable-background="new 0 0 64 64"><path d="m13.389 39.519c-.212.551-.691 2.035-.811 4.414 2.04-.405 3.578-2.222 3.578-4.406 0 0-1.998 0-2.664 0-.035-.001-.068-.008-.103-.008"/><ellipse cx="22.371" cy="39.527" rx=".888" ry="1.686"/><ellipse cx="25.924" cy="38.404" rx=".889" ry="1.685"/><ellipse cx="29.475" cy="37.279" rx=".887" ry="1.686"/><path d="m56.113 47.531l-17.446-7.797c.159-.216.319-.432.479-.652.43-.59.886-1.211 1.393-1.821 2.317-.191 6.797-1.867 8.385-3.444.147-.146.248-.441.313-.81l12.763-7.475-10.129 2.85 1.031-5 3.354-1.278-3.174.403.398-1.929 1.645.41 3.652-2.604-4.559-1.386.025-.126.684-3.314-3.01 1.27-.707.298-3.087-3.126-3.553 1.123 1.822 4.035-.352.147-.297.536-3.328 6.02-1.657.211c-.096-.075-.196-.123-.304-.123 0 0-5.814.764-7.992 2.804-.416.39-.849.969-.881 2.114-2.518.757-5.224 1.581-7.795 2.382l-8.519-6.89v-5.618l-1.776 1.124-1.776 5.617 4.064 8.357c-.382.132-.746.259-1.076.379-4.909 1.769-5.94 3.753-7.133 6.051-.708 1.363-1.44 2.772-3.27 4.619-1.265 1.278-2.858 3.2-2.108 5.139.506 1.308 1.825 1.973 3.919 1.973 3.882 0 11.318-2.121 21.711-6.17l27.403 5.494 3.552-2.603v-6.387l-1.724 1.179-.94 4.018m-.557-19.255l-6.238 3.653c-.001-.636-.074-1.309-.206-1.842l6.444-1.811m-13.679-3.44l-.539.975c-.005-.325-.047-.627-.117-.892l.656-.083m-6.187 13.568l-13.624 6.272 2.469.495c-9.365 3.514-15.383 5.029-18.424 5.029-3.028 0-3.109-1.5-.615-4.02 1.42-1.433 2.259-2.664 2.884-3.75-.004.007-.007.013-.011.019.813.954 2.003 1.57 3.347 1.57.007 0 .015-.002.022-.002.086-2.164.444-3.715.731-4.629-.638-.154-1.227-.438-1.726-.839-.786.842-1.237 1.764-1.794 2.83 1.178-2.258 1.869-3.861 6.314-5.463 7.062-2.545 27.104-8.379 27.104-8.379l4.795-8.672.07.155 4.572 1.139-1.804 8.746-1.237.348c-.093-.112-.195-.172-.308-.158-2.243.294-6.317 1.62-8.327 3.69-.414.426-.889 1.005-.889 2.246 0 .338.032.655.085.944-.886 1.055-1.605 2.122-2.299 3.024l-1.335-.595m-27.022 3.508c.015-.027.03-.055.044-.083-.014.028-.028.056-.044.083"/></svg>