<svg xmlns="http://www.w3.org/2000/svg" viewBox="0 0 64 64" enable-background="new 0 0 64 64"><path d="m61.944 5.971c-.375-1.864-2.486-3.106-5.947-3.497-2.297-.259-4.348-.474-6.164-.474-5.145 0-8.582 1.662-18.701 7.035-1.787.056-3.555.266-4.471.566-1.021.33-.924 1.055.079 1.769-2.339 1.242-5.026 2.663-8.094 4.264-3.643-1.093-10.278-3.099-12.993-4.016-2.417-.814-3.653 1.872-3.653 1.872s2.46 6.035 3.937 9.091c-.331.378-.596.801-.717 1.28-.22.868-.137 2.317.818 3.544 1.125 1.444 3.082 2.177 5.819 2.177 2.972 0 6.967-.87 11.933-2.576l-1.033 1.554c-1.571.997-3.236 2.319-5.023 4.119-.313.316-.819.947-.695 1.636.054.3.255.719.969 1.042.063.018.134.03.2.046l-.061.092c-1.287 2.074-.387 3.132 2.001 2.353 1.447-.474 3.209-1.461 4.727-2.58 2.551-.463 5.911-1.394 10.234-3.167 1.045-.429 1.543-2.24 1.111-4.036-.583-2.453-1.668-2.825-2.266-2.826l3.141-3.715c6.486-3.015 13.93-6.859 22.34-11.552 2.591-1.447 2.685-3.128 2.509-4.001m-43.203 28.628c-.148-.028-.293-.058-.42-.093-.161-.073-.359-.195-.388-.354-.035-.194.144-.528.446-.832 1.043-1.052 2.036-1.927 2.991-2.675l-2.629 3.954m16.594-6.325c.363 1.504-.104 2.792-.571 2.983-3.374 1.385-6.14 2.244-8.382 2.768.365-.336.707-.673.984-.999l5.744-6.792c.057-.007.113-.013.171-.02l.667-.068c.553 0 1.071.795 1.387 2.128m23.213-19.89c-7.144 3.985-13.297 7.196-18.606 9.774l2.469-2.919c1.583-1.87.997-2.564-1.302-1.538l-8.874 3.958c-2.3 1.026-3.362 1.565-4.649 3.638l-2.112 3.179c-6.595 2.459-10.863 3.288-13.616 3.288-5.228 0-4.993-2.988-4.875-3.455l14.068-7.135c.474-.241.516-.6.094-.793h-.001c4.06-2.128 7.412-3.917 10.233-5.417 1.248-.663 2.406-1.276 3.461-1.83 7.807-4.098 10.76-5.316 14.996-5.316 1.664 0 3.526.188 5.961.463 4.28.482 5.877 2.361 2.753 4.103"/><path d="m33.456 26.517c-.164.591-.204 1.34-.082 2.122.186 1.172.688 2.089 1.254 2.437.164-.595.204-1.344.078-2.127-.184-1.173-.684-2.087-1.25-2.432"/><path d="m48.516 7.281c0 0 .492.777 1.864.389 1.188-.336 2.363-1.488 3.031-2.751l-1.953-.435c-.41.686-2.942 2.797-2.942 2.797"/><circle cx="21.351" cy="19.661" r=".864"/><circle cx="24.646" cy="17.961" r=".865"/><circle cx="27.942" cy="16.262" r=".865"/><circle cx="31.238" cy="14.563" r=".865"/><circle cx="34.533" cy="12.862" r=".864"/><path d="m37.433 10.396c-.424.216-.592.74-.373 1.164.22.425.742.592 1.166.371.425-.218.592-.74.372-1.164-.218-.425-.742-.592-1.165-.371"/><circle cx="41.124" cy="9.463" r=".865"/><ellipse cx="31.091" cy="59.726" rx="22.32" ry="2.274"/></svg>