<svg xmlns="http://www.w3.org/2000/svg" viewBox="0 0 64 64" enable-background="new 0 0 64 64"><path d="m58 23.571c0-.493-.391-.969-1.111-1.418v-13.841c.72-.449 1.111-.925 1.111-1.417 0-2.705-11.639-4.895-26-4.895-14.359 0-26 2.19-26 4.895 0 .493.391.968 1.111 1.417v13.842c-.72.449-1.111.924-1.111 1.417s.391.969 1.111 1.417v14.023c-.72.449-1.111.925-1.111 1.418s.391.969 1.111 1.417v13.842c-.72.449-1.111.924-1.111 1.417 0 2.703 11.641 4.895 26 4.895 14.361 0 26-2.192 26-4.895 0-.493-.391-.969-1.111-1.418v-13.84c.72-.45 1.111-.925 1.111-1.418s-.391-.969-1.111-1.418v-14.022c.72-.449 1.111-.925 1.111-1.418m-26-19.571c12.841 0 20.814 1.692 23.357 2.894-2.544 1.202-10.515 2.895-23.357 2.895-12.84 0-20.813-1.693-23.358-2.895 2.545-1.202 10.517-2.894 23.358-2.894m0 55.823c-11.395 0-21.075-2.285-24.588-4.206 6.227.918 14.94 2.394 24.588 2.394 9.648 0 18.361-1.476 24.587-2.394-3.511 1.921-13.192 4.206-24.587 4.206m0-16.312c-11.395 0-21.075-2.287-24.588-4.207 6.227.918 14.94 2.395 24.588 2.395 9.648 0 18.361-1.477 24.587-2.395-3.511 1.92-13.192 4.207-24.587 4.207m0-16.859c-11.395 0-21.075-2.286-24.588-4.206 6.227.916 14.94 2.394 24.588 2.394 9.648 0 18.361-1.478 24.587-2.394-3.511 1.92-13.192 4.206-24.587 4.206"/><ellipse cx="17.67" cy="6.894" rx="3.887" ry=".979"/></svg>