<svg xmlns="http://www.w3.org/2000/svg" viewBox="0 0 64 64" enable-background="new 0 0 64 64"><path d="m61.287 53.542c-2.649-2.041-9.702-7.678-16.271-14.452-4.366-4.505-6.223-9.015-9.533-12.429-2.998-3.092-5.725-4.894-5.725-4.894l-.768.792-5.188-5.35 2.004-2.067c.338-.348.338-.912 0-1.262l-.414-.427c.002-.002 5.898-7.936 13.353-5.742.866.257 1.638.694 1.857.471.298-.306-.837-1.482-1.502-2.162-9.431-9.65-19.834 1.104-19.839 1.109l-.367-.379c-.338-.348-.885-.348-1.222 0l-9.239 9.528c-.338.349-.338.914 0 1.262 0 0 1.131 1.979-1.835 2.335-1.194.145-1.942.414-2.366.769-.05.042-1.979 2.009-1.979 2.009-.338.348-.338.914 0 1.262l6.914 7.132c.336.348.885.348 1.223 0 0 0 1.906-1.99 1.947-2.042.343-.438.605-1.208.743-2.44.348-3.06 2.264-1.892 2.264-1.892.338.349.887.349 1.224 0l2.004-2.067 5.186 5.349-.768.793c0 0 1.748 2.813 4.746 5.905 3.309 3.413 7.683 5.328 12.05 9.833 6.567 6.774 12.032 14.047 14.014 16.78.748 1.029.867.934 1.78-.009l2.849-2.938 2.847-2.937c.915-.946 1.009-1.068.011-1.84"/><path d="m34.008 22.689c.792.717 1.635 1.519 2.497 2.408 1.592 1.642 2.924 3.479 4.259 5.44l8.942-8.943c3.261.793 6.84-.086 9.385-2.627 2.544-2.545 3.418-6.125 2.629-9.383l-8.116 8.116-5.76-1.543-1.544-5.763 8.114-8.111c-3.258-.793-6.838.084-9.381 2.63-2.545 2.543-3.42 6.122-2.631 9.38l-8.394 8.396"/><path d="m26.489 35.429c-.922-.95-1.748-1.878-2.479-2.743l-9.717 9.718c-3.259-.791-6.839.084-9.381 2.629-3.883 3.88-3.882 10.174 0 14.055 3.881 3.883 10.173 3.883 14.054 0 2.545-2.545 3.42-6.124 2.631-9.384l10.004-10.003c-1.84-1.338-3.567-2.679-5.112-4.272m-13.006 22.392l-5.761-1.544-1.543-5.762 4.218-4.215 5.76 1.541 1.543 5.763-4.217 4.217"/></svg>