<svg xmlns="http://www.w3.org/2000/svg" viewBox="0 0 64 64" enable-background="new 0 0 64 64"><path d="m25.43 18.94c-1.456-1.461-2.554-4.666-5.5-2.797-.516.327-.992.585-1.443.796-.865-.454-1.729-.998-2.556-1.673-1.308-1.067-2.371-.528-3.359.543-1.833-2.193-2.843-5.328-6.217-2.973-1.635 1.142-4.355 5.547-4.355 5.547v11.187 14.558l24.239-25.12c0 0-.361-.028-.809-.068"/><path d="m59.382 13.807c-2.871 1.343-4.714-1.313-7.559 1.132-.909.782-2.354 1.524-3.973 2.192-.626-.8-1.376-1.236-2.355-.759-4.058 1.977-6.484 2.512-7.732 2.636l24.237 25.12v-14.558-9.72-6.031c0 0-1.371-.597-2.618-.012"/><path d="M36.311 19.008 62 52.348 62 50.157 36.688 19.008z"/><path d="M27.313 19.008 2 50.157 2 52.348 27.689 19.008z"/><path d="m32.274 19.008l.037 1.065-.621-.001.035-1.064h-3.641l-26.084 37.032v5.96h28.309l.391-11.867h2.602l.391 11.867h28.307v-5.96l-26.085-37.032h-3.641m-.6 1.559h.652l.051 1.54h-.752l.049-1.54m-.075 2.281h.803l.08 2.417h-.961l.078-2.417m-.119 3.645h1.041l.144 4.342h-1.33l.145-4.342m-.555 16.792l.332-10.027h1.488l.331 10.027h-2.151"/></svg>