<svg xmlns="http://www.w3.org/2000/svg" viewBox="0 0 64 64" enable-background="new 0 0 64 64"><path d="m58.948 21.592c-1.408-1.202-2.253-2.122-2.931-2.862-3.018-3.286-3.347-3.312-20.569-4.693-.528-.043-1.078-.087-1.639-.132-1.667-1.191-3.795-2.355-4.886-2.649-1.124-.3-1.278.693-.392 2.223-3.375-.277-7.236-.602-11.654-.987-2.254-2.749-6.143-7.508-7.714-9.558-1.434-1.874-3.616-.347-3.616-.347s-.919 5.369-1.312 8.611c-.748.215-1.353.696-1.711 1.404-.728 1.436-.697 3.042.085 4.522 1.636 3.097 6.882 5.676 15.657 7.731l-2.29 1.103c-1.688.055-3.478.307-5.46.797-.388.096-1.074.35-1.311.978-.104.277-.154.728.245 1.366.038.043.085.095.13.144-.885.873-.45 1.8 1.28 2.266.698.188 1.535.297 2.412.346 2.228 1.13 5.573 2.345 10.558 3.273.068.012.139.018.211.018.974 0 2.07-1.167 2.553-2.714.518-1.663.328-2.977-.508-3.512-.064-.043-.134-.084-.199-.125l2.141-.726c.053.127.115.253.191.377.58.945 1.622 1.313 2.328.819.357-.25.557-.671.594-1.151.069.009.139.015.209.021.063.222.152.439.279.648.58.943 1.624 1.313 2.329.819.359-.25.56-.679.594-1.161.068.007.137.013.205.019.063.225.154.448.285.662.579.942 1.623 1.31 2.328.818.549-.382.724-1.175.503-1.955 3.749.41 7.795.771 12.126 1.092-.271.578-.212 1.382.213 2.071.578.946 1.621 1.314 2.326.82.705-.491.804-1.66.225-2.605-.021-.035-.049-.063-.072-.095 1.699.115 3.433.224 5.217.326.149.008.294.013.432.013 2.44 0 3.242-1.322 3.502-2.11.405-1.227.231-3.248-2.894-5.905m-48.491 7.023c-.056.031-.093.063-.146.093-.059-.064-.116-.126-.162-.179-.083-.134-.171-.319-.123-.446.06-.158.344-.328.692-.414.993-.245 1.949-.427 2.872-.561l-3.133 1.507m15.299 3.521c-.415 1.335-1.277 2.072-1.715 2.072l-.059-.005c-3.712-.69-6.473-1.53-8.525-2.365 1.134-.079 2.221-.259 3.07-.546l6.229-2.113c.301.181.592.362.873.542.366.234.546 1.073.127 2.415m32.583-4.404c-.107 0-.221-.004-.337-.01-2.067-.118-4.049-.244-5.965-.378-.52-.036-1.036-.071-1.545-.109-5.913-.431-11.102-.93-15.644-1.479l3.27-1.109c2.06-.698 1.942-1.549-.264-1.888l-8.504-1.309c-2.204-.341-3.254-.441-5.187.566l-3.198 1.541c-17.213-3.572-17.941-7.987-16.886-10.068 0 0 0 0 .001-.001.013.072.031.112.058.115l13.995 1.537c.468.045.666-.222.439-.591 0 0-.021-.024-.028-.033 41.227 3.568 30.98 1.448 39.303 8.537 2.877 2.45 3.285 4.679.492 4.679"/><path d="m23.903 31.384c-.371 1.058-.384 2.058-.097 2.612.388-.414.749-1.012.995-1.723.373-1.058.386-2.054.1-2.607-.389.411-.747 1.012-.998 1.718"/><path d="m50.985 21.782c0 0 .004.87 1.218 1.251 1.048.331 2.464.002 3.557-.67l-1.263-1.334c-.629.341-3.512.753-3.512.753"/><path d="m20.847 17.521c-.421-.036-.79.299-.825.743-.035.446.279.842.701.879.42.036.791-.299.825-.745s-.28-.842-.701-.877"/><path d="m24.12 17.804c-.422-.038-.792.298-.828.744-.033.446.283.843.705.877.419.038.79-.297.824-.746.034-.447-.279-.839-.701-.875"/><path d="m27.391 18.086c-.42-.036-.791.298-.826.747-.034.447.279.84.703.876.418.038.79-.298.822-.744.037-.448-.277-.842-.699-.879"/><path d="m30.663 18.372c-.422-.037-.791.295-.825.744-.035.448.278.842.7.877.422.037.792-.298.826-.744.034-.449-.28-.843-.701-.877"/><path d="m33.937 18.652c-.423-.034-.794.301-.828.748-.032.447.281.839.703.878.42.034.789-.298.825-.748.034-.446-.281-.839-.7-.878"/><path d="m37.206 18.939c-.422-.037-.791.296-.824.744-.035.447.279.839.701.877.422.037.791-.299.824-.746.035-.446-.279-.841-.701-.875"/><path d="m40.478 19.221c-.419-.035-.791.299-.825.746-.034.449.28.841.702.877.42.039.791-.297.826-.744.034-.448-.282-.841-.703-.879"/><path d="m43.748 19.506c-.419-.037-.788.297-.822.744-.036.447.277.842.698.877.422.037.793-.296.826-.745.035-.446-.281-.84-.702-.876"/><ellipse cx="31.381" cy="59.654" rx="21.661" ry="2.346"/></svg>