<svg xmlns="http://www.w3.org/2000/svg" viewBox="0 0 64 64" enable-background="new 0 0 64 64"><path d="m8.592 62v-2.932h-.029l.212-.366h-6.775v3.298z"/><path d="m11.556 53.938l1.71-2.933h-5.526l2.762-3.665h4.901l1.71-2.932h-4.422l2.199-2.933h3.934l1.146-1.965h-3.616l1.824-2.427h3.208l.87-1.492h-2.973l1.434-1.867h2.628l.871-1.494h-2.413l1.124-1.493h2.161l.652-1.119h-1.975l.938-1.244h1.764l.58-.995h-1.601l.747-.994h1.434l.389-.668h-1.326l.617-.823h1.189l.296-.507h-1.107l.485-.634h.992l.295-.507h-.918l.381-.508h-1.607c0 0-1.624-.646-3.319-.94-1.24-2.005-2.401-5.183-5.003-3.675-.573.332-1.092.574-1.576.758-.371-.668-.826-1.257-1.485-1.56-.312-.144-.63-.206-.953-.206-.746 0-1.52.336-2.3.787-2.086-2.492-2.519-7.223-6.321-4.799-1.159.738-2.147 2.227-2.891 3.648-.914-1.415-1.465-2.719-1.465-2.719v44.67l3.565-4.765h5.991z"/><path d="m55.438 59.068h-.03v2.932h6.592v-3.298h-6.775z"/><path d="m50.386 56.47l-3.3-6.741-1.169-2.389-5.751-11.748-.539-1.102-1.105-2.26-.068-.14-1.211-2.473-.608-1.244-.487-.995-.118-.24-.696-1.422-.402-.823-.248-.507-.311-.634-.496-1.015h-.139l.231.508h-3.936l.231-.508h-.139l-.496 1.015-.311.634-.248.507-.402.823-.696 1.422-.118.24-.487.995-.608 1.244-1.211 2.473-.068.14-1.105 2.26-.539 1.102-5.753 11.748-1.169 2.389-3.3 6.741-1.093 2.232-.18.366h.029v2.932h39.258v-2.932h.029l-.18-.366-1.091-2.232m-20.585-32.717h4.398l.289.634h-4.977l.29-.634m-.521 1.141h5.439l.376.823h-6.191l.376-.823m-.68 1.491h6.8l.454.994h-7.709l.455-.994m-.909 1.989h8.617l.567 1.244h-9.752l.568-1.244m-1.078 2.363h10.773l.683 1.493h-12.138l.682-1.493m-1.364 2.988h13.502l.853 1.867h-15.208l.853-1.867m-1.533 3.359h16.568l1.108 2.427h-18.785l1.109-2.427m-2.005 4.392h20.578l1.339 2.933h-23.256l1.339-2.933m-2.677 5.864h25.932l1.674 3.665h-29.28l1.674-3.665m-5.187 11.362l2.176-4.765h31.955l2.176 4.765h-36.307"/><path d="m62 8c0 0-1.371 3.454-2.618 3.988-2.871 1.227-4.664-1.134-6.855-.077-2.101 1.012-2.513 3.647-3.692 5.546-.871-.508-1.785-.914-2.671-.914-.077 0-.152.002-.229.009-1.943.16-3.706 3.255-4.6 4.331-1.007 1.215-4.647 1.855-4.647 1.855h-1.608l.381.508h-.918l.295.507h.992l.485.634h-1.107l.296.507h1.189l.617.823h-1.326l.389.668h1.434l.747.994h-1.601l.58.995h1.764l.938 1.244h-1.975l.652 1.119h2.161l1.124 1.493h-2.413l.871 1.494h2.628l1.434 1.867h-2.973l.87 1.492h3.208l1.824 2.427h-3.616l1.146 1.965h3.934l2.199 2.933h-4.422l1.71 2.932h4.901l2.762 3.665h-5.525l1.71 2.933h5.99l3.565 4.764v-50.702"/></svg>