<svg xmlns="http://www.w3.org/2000/svg" viewBox="0 0 64 64" enable-background="new 0 0 64 64"><path d="m40.394 28.412h-9.742l-3.839 7.239h15.67z"/><path d="m36.345 42.191h-2c-.548 0-.999.45-.999 1v1.999c0 .552.451 1.001.999 1.001h2c.55 0 1.001-.449 1.001-1.001v-1.999c0-.549-.451-1-1.001-1"/><path d="m30.079 42.191h-2.001c-.551 0-1 .45-1 1v1.999c0 .552.449 1.001 1 1.001h2.001c.55 0 .999-.449.999-1.001v-1.999c0-.549-.449-1-.999-1"/><path d="m62 48.063h-1.002c.504 0 .915-.542.915-1.206 0-.662-.411-1.207-.915-1.207h-.681v-2.347h.613v-1.206h-8.965l-4.7-16.067-.39-1.332h-1.295-2.086l-.271-1.254h.879c1.217 0 2.207-1.175 2.207-2.619 0-1.444-.99-2.62-2.207-2.62h-2.012l-.478-2.205h-2.088l-.477 2.206h-2.014c-1.217 0-2.208 1.175-2.208 2.62 0 1.443.991 2.619 2.208 2.619h.879l-.271 1.254h-7.729-1.016l-.512.945-2.1 3.882h-24.284c0 0 4.377 6.78 5.735 9.112.241.413 3.564 6.509 8.792 11.362h-14.527v12h60v-12h-.671l.671-1.937m-5.883-4.759h3.155v2.347h-3.155v-2.347m-1.044 0v2.347h-2.068l-.446-1.525-.24-.821h2.754zm-4.199 1.394l-2.268-.731c-.336-.218-.684-.44-1.045-.663h2.904l.409 1.394m-13.84-22.682c-.486 0-.883-.535-.883-1.19 0-.654.396-1.191.883-1.191h7.068c.485 0 .883.538.883 1.191 0 .655-.397 1.19-.883 1.19h-7.068m-31.658 9.414h21.924l2.612-4.826h15.668l4.532 15.494h-4.624c-4.063-2.225-9.564-4.345-17.521-4.786-.979-.055-3.914-.098-3.914-.098l1.941-3.371h-4.516v3.364h-2.09v-3.364h-3.634v3.364h-2.089v-3.364h-4.132l2.165 3.364h-2.604l-3.718-5.777m52.648 22.665h-28.634c-9.182 0-16.812-10.986-19.283-14.982h14.583c13.443 0 20.053 4.471 24.879 7.736 2.578 1.743 4.613 3.12 6.85 3.12h3.035l-1.43 4.126"/></svg>