<svg xmlns="http://www.w3.org/2000/svg" viewBox="0 0 64 64" enable-background="new 0 0 64 64"><path d="m47.208 13.072c-.908.092-2.261.193-3.728.193-1.54 0-2.891-.113-4.016-.341-3.035-.612-5.988-2.577-7.467-3.683-1.477 1.105-4.426 3.068-7.463 3.683-1.126.228-2.477.341-4.017.341-1.463 0-2.819-.104-3.723-.193-1 2.52-3.39 9.775-1.947 18.683 1.845 11.403 13.887 20.74 17.153 23.084 3.267-2.344 15.309-11.681 17.152-23.084 1.44-8.907-.944-16.161-1.944-18.683m-17.873-.066c1.006-.523 1.917-1.084 2.664-1.592.748.508 1.661 1.069 2.669 1.592v11.279h-5.333v-11.279m5.333 37.465c-1.04.896-1.961 1.628-2.668 2.166-.705-.538-1.626-1.271-2.665-2.164v-19.129h5.333v19.127m12.872-20.01h-31.079c-.243-1.86-.319-3.636-.276-5.294h31.629c.043 1.658-.032 3.433-.274 5.294"/><path d="m52.445 8.325c-.579-1.163-1.742-1.883-3.037-1.883-.162 0-.325.011-.486.034-.02.004-2.164.305-4.539.305-1.328 0-2.453-.092-3.343-.271-3.226-.65-6.795-3.664-6.831-3.694-.611-.526-1.396-.816-2.207-.816-.809 0-1.594.289-2.209.815-.035.029-3.609 3.044-6.831 3.694-.891.18-2.016.271-3.344.271-2.383 0-4.519-.301-4.54-.305-.164-.022-.323-.033-.481-.033-1.294 0-2.459.719-3.039 1.877-.539 1.108-5.127 11.043-2.998 24.22 2.651 16.37 20.813 28.404 21.585 28.908.556.362 1.197.553 1.855.553.662 0 1.305-.191 1.857-.555.771-.503 18.938-12.539 21.585-28.905 2.195-13.567-2.784-23.787-2.997-24.215m1.243 23.935c-2.526 15.612-20.063 27.226-20.81 27.713-.266.174-.573.262-.878.262-.307 0-.609-.088-.877-.262-.747-.487-18.279-12.101-20.808-27.713-2.1-12.997 2.636-22.746 2.834-23.155.279-.557.842-.897 1.447-.897.074 0 .15.005.225.016.022.003 2.275.322 4.796.322 1.449 0 2.693-.104 3.698-.307 3.71-.748 7.599-4.054 7.638-4.087.303-.258.676-.388 1.049-.388s.746.129 1.048.388c.038.033 3.921 3.339 7.636 4.087 1.005.203 2.246.307 3.697.307 2.521 0 4.771-.319 4.795-.322.078-.012.154-.017.23-.017.605 0 1.166.345 1.442.898.204.409 4.939 10.158 2.838 23.155"/><ellipse cx="32.001" cy="6.523" rx="1.228" ry="1.236"/><ellipse cx="48.771" cy="10.852" rx="1.229" ry="1.237"/><ellipse cx="51.838" cy="22.487" rx="1.228" ry="1.237"/><ellipse cx="50.032" cy="36.987" rx="1.228" ry="1.237"/><ellipse cx="42.647" cy="48.316" rx="1.229" ry="1.237"/><circle cx="32" cy="57.353" r="1.234"/><ellipse cx="21.354" cy="48.316" rx="1.227" ry="1.237"/><ellipse cx="13.966" cy="36.988" rx="1.229" ry="1.236"/><ellipse cx="12.162" cy="22.487" rx="1.228" ry="1.237"/><ellipse cx="15.177" cy="10.852" rx="1.228" ry="1.237"/></svg>