<svg xmlns="http://www.w3.org/2000/svg" viewBox="0 0 64 64" enable-background="new 0 0 64 64"><path d="m61.972 3.594c-.031-.997-.781-1.594-1.535-1.594-.001 0-.001 0-.001 0-.91 0-1.404.566-3.248 2.67-2.089 2.387-5.585 6.383-9.362 8.771-4.151 2.625-14.64 10.315-22.796 16.41-8.387-16.631-8.388-16.632-8.388-16.632.413-.273.557-.885.317-1.357-.238-.473-.771-.638-1.183-.365l-1.504.994c-.412.273-.555.883-.318 1.356.239.474.773.636 1.188.363.032.063.609 1.212 8.432 16.729-4.22 3.162-7.615 5.748-8.828 6.713-.833.662-1.847.999-3.014.999-1.956 0-3.677-.927-3.694-.937-.22-.123-.463-.182-.703-.182-.399 0-.939.217-1.076.479-1.766 3.373-5.489 11.536-3.853 20.205.462 2.439 2.197 3.784 4.884 3.784 5.463 0 14.791-5.394 23.808-12.166 2.468 4.896 5.078 10.073 5.078 10.073.481.959 1.554 1.293 2.379.747l1.502-.991c.826-.547 1.108-1.778.626-2.734 0 0-2.75-5.453-5.271-10.456 2.45-1.978 4.822-4.012 7.029-6.017 13.799-12.537 20.036-20.26 19.531-36.862m-13.371 11.06c6.021-3.807 11.099-11.217 11.835-11.217.061 0 .092.05.092.157 0 .324.04 1.919-.346 4.303-1.068 5.782-5.167 16.279-20.435 24.526-3.904 2.11-7.381 3.754-10.472 5.021-.256-.331-.493-.64-.694-.906 3.115-1.241 6.672-2.889 10.733-5.083 2.322-1.255 4.377-2.563 6.198-3.896h-13.217c-2.104 1.553-4.184 3.1-6.127 4.552-.163-.322-.323-.642-.48-.953 8.177-6.112 18.799-13.904 22.913-16.504m-36.87 25.433c1.28 0 2.67-.322 3.916-1.313 1.179-.939 4.475-3.447 8.586-6.529.155.31.319.633.48.953-4.082 3.059-7.342 5.539-8.488 6.451-.12.094-.24.184-.362.27 2.618-.227 6.157-.947 10.803-2.646.096.299.202.652.321 1.063-5.69 2.119-9.934 2.865-13.003 2.865-3.871 0-5.893-1.174-6.651-2.231 0-.001 2.011 1.117 4.398 1.117m-7.432 17.775c-1.256-6.65 1.437-13.998 2.783-17.111 1.11.885 3.186 1.887 6.902 1.887 3.728 0 8.212-.977 13.406-2.904.721 2.523 1.71 5.928 2.839 8.352-8.943 6.751-17.998 11.998-22.939 11.998-1.779 0-2.701-.686-2.991-2.222m36.844-18.82c-2.11 1.916-4.35 3.838-6.642 5.697-1.148-1.994-2.889-4.283-4.31-6.115 3.18-1.323 6.594-2.965 10.245-4.938 10.649-5.754 16.63-13.256 19.355-18.928-1.853 7.153-7.812 14.438-18.648 24.284"/><path d="m59.219 7.684c.099-.625.18-1.245.233-1.851-.156.176-.313.355-.467.529-2.175 2.487-5.82 6.652-9.895 9.228-2.419 1.529-7.19 4.932-12.383 8.725h12.745c6.807-6.316 9.046-12.738 9.767-16.631"/></svg>