<svg xmlns="http://www.w3.org/2000/svg" viewBox="0 0 64 64" enable-background="new 0 0 64 64"><path d="m61.856 11.858l-9.715-9.713c-.186-.188-.484-.194-.662-.015l-18.562 18.562c-.18.179-.172.476.016.663l4.398 4.399-1.467 1.467c-1.477-1.478-2.844-2.844-3.005-3.006-1.048-1.048-1.467-1.453-2.584-.664.79-1.117.385-1.536-.664-2.584-1.189-1.188-1.563-1.561-3.072-.284.72-2.73.018-5.758-2.123-7.898l-2.244 2.243-7.115-1.348c-.025-.252-.136-.497-.328-.689-.448-.449-1.176-.449-1.624 0-.448.448-.448 1.175 0 1.623.165.166.37.271.584.313l1.366 7.218-2.243 2.243c2.141 2.141 5.168 2.843 7.899 2.124-1.277 1.51-.904 1.883.283 3.071 1.049 1.049 1.468 1.454 2.587.662-.792 1.118-.387 1.537.661 2.585.162.162 1.529 1.529 3.008 3.007l-1.494 1.494-4.4-4.401c-.188-.187-.482-.193-.662-.014l-18.563 18.563c-.18.18-.174.477.015.664l9.712 9.713c.188.188.485.193.665.014l18.561-18.561c.18-.18.172-.477-.014-.664l-4.4-4.4 1.494-1.492c1.478 1.477 2.844 2.844 3.006 3.006 1.21 1.209 1.579 1.568 3.154.213-.229.557.094.881.736 1.525 1.301 1.299 1.301 1.299 4.531-1.934 3.23-3.23 3.23-3.23 1.932-4.529-.644-.643-.969-.967-1.525-.736 1.355-1.576.996-1.945-.213-3.155-.162-.162-1.528-1.529-3.006-3.007l1.467-1.467 4.4 4.4c.186.187.484.193.664.014l18.56-18.561c.178-.18.172-.477-.014-.664m-40.485 3.972l-5.505 5.504-.179.035-1.239-6.549c.1-.053.195-.121.281-.206.057-.059.108-.121.15-.188l6.523 1.235-.031.169m-.975 36.65h-16.396l-.679-.678 4.407-4.406h17.752l-5.084 5.084m8.82-10.171l.676.676-1.867 1.867h-17.752l2.544-2.543h16.399m21.965-20.616h-16.395l-.678-.678 4.406-4.407h17.752l-5.085 5.085m7.631-7.63h-17.752l2.545-2.543h16.398l.676.676-1.867 1.867"/></svg>