<svg xmlns="http://www.w3.org/2000/svg" viewBox="0 0 64 64" enable-background="new 0 0 64 64"><path d="m55.438 48c-2.973 0-5.48 2.109-6.287 5h-.482c.823-3.166 3.543-5.5 6.77-5.5 3.102 0 5.613-.494 5.623-1.105-1.596-1.19-3.533-1.895-5.623-1.895-4.786 0-8.78 3.664-9.659 8.5h-17.47c0 0-1.699-8-9.434-8-2.672 0-4.39-1.805-5.175-3.088-.395-.646-1.409-2.493-1.611-2.863l4.714-29.049h2.866c.405 1.19 1.153 2 2.019 2s1.613-.81 2.019-2h5.481c.775 0 1.406-.896 1.406-2s-.631-2-1.406-2h-5.481c-.405-1.19-1.153-2-2.019-2s-1.613.81-2.019 2h-2.218-3.749-2.183c-.405-1.19-1.153-2-2.019-2s-1.612.81-2.02 2h-4.543c-.518 0-.938.896-.938 2s.42 2 .938 2h4.544c.407 1.19 1.155 2 2.021 2s1.613-.81 2.019-2h1.533l-5.299 32.632c-1.361.615-2.223 2.128-2.545 4.085l-.457 2.759c-1.104 1.28-1.816 3.275-1.816 5.524 0 3.866 2.1 7 4.688 7h1.877c2.588 0 4.688-3.134 4.688-7 0-2.432-.831-4.572-2.092-5.827l.102-.612c.069-.421.125-.836.169-1.244l5.443 9.683h31.337c.807 2.891 3.314 5 6.287 5 3.624 0 6.563-3.135 6.563-7s-2.939-7-6.562-7m-45.936-40.792c0-.253 2.098-.458 4.688-.458 2.587 0 4.687.205 4.687.458s-2.1.458-4.687.458c-2.59 0-4.688-.205-4.688-.458m1.49 19.22c1.473-8.906 2.838-16.094 3.051-16.055.213.04-.811 7.293-2.281 16.199-1.473 8.906-2.838 16.094-3.051 16.055-.213-.04.809-7.293 2.281-16.199m-1.234 21.592c-.085-.007-.17-.02-.256-.02h-1.877c-.035 0-.068.007-.104.008l.139-.832c.044-.263.09-.487.143-.69.008-.031.016-.063.023-.093.178-.629.441-.95 1.004-.969.189-.006.404.013.672.076.518.122.482 1.12.256 2.52m-3.707.394c-.012.006-.022.012-.033.018.01-.006.021-.012.033-.018m-1.004 6.586c-.023-3.946 2.697-6.252 2.803-5.979.183.158-1.961 2.513-1.909 5.979-.053 3.466 2.094 5.821 1.908 5.979-.105.273-2.826-2.033-2.802-5.979m6.799 0c0 1.93-1.049 3.5-2.344 3.5s-2.346-1.57-2.346-3.5c0-1.764.881-3.212 2.021-3.451l-.509 3.082c-.119.723.332 1.41 1.01 1.537.676.127 1.32-.354 1.439-1.075l.336-2.027c.247.554.393 1.218.393 1.934m-1.411-6.86c.026-.242.057-.494.089-.761.34-2.781-1.084-2.594-.645-2.781.733-.313 1.471.636 1.068 3.745-.168-.081-.338-.151-.512-.203m36.158 4.858c-.289.051.359-4.368 4.046-6.707 3.656-2.398 7.324-.768 7.135-.513-.033.278-3.447-.733-6.678 1.429-3.291 2.046-4.279 5.9-4.503 5.791m8.845 5.502c-1.813 0-3.281-1.57-3.281-3.5s1.469-3.5 3.281-3.5 3.281 1.57 3.281 3.5-1.469 3.5-3.281 3.5"/></svg>