<svg xmlns="http://www.w3.org/2000/svg" viewBox="0 0 64 64" enable-background="new 0 0 64 64"><ellipse cx="50.5" cy="56.944" rx=".469" ry=".477"/><path d="m54.411 36.418c.505-.346.839-.935.839-1.601v-3.845c0-1.058-.842-1.892-1.873-1.856l-22.502.826c-1.032.036-1.875.933-1.875 1.992v2.883c0 1.058.844 1.924 1.875 1.924h1.161l1.038 1.05c.066.07 1.903 2.06 1.903 6.2 0 1.866-1.726 3.384-3.846 3.384h-7.534c-.666-.732-1.831-4.442-1.831-10.623 0-6.344 2.395-9.595 2.419-9.627l.485-.645.53.224c.325.16.71.19 1.064.023.628-.301.9-1.059.607-1.701-.108-.237-.289-.4-.492-.527l-1.923-.834c-.153-1.231-1.014-2.214-2.168-2.403-.229-.038-.498-.209-.518-.285-.52-1.976-1.846-2.977-3.938-2.977h-2.885l-.021 1.525h-1.026v.953c-.745 0-1.35 1.066-1.35 2.383 0 1.314.604 2.383 1.35 2.383v.953h1.025v1.525h2.016c-2.44 3.586-6.475 10.142-6.475 14.305 0 .179.017.358.046.535-3.443.463-6.585 2.557-8.255 5.593-.328.595-.343 1.262-.042 1.829.471.889 1.419 1.176 2.89 1.339-.404.935-.639 1.964-.639 3.052 0 4.211 3.357 7.625 7.5 7.625 3.822 0 6.97-2.908 7.434-6.666h2.293c.24 0 .437.098.824.303.544.287 1.29.68 2.369.68h18.373c.845 3.269 3.762 5.683 7.241 5.683 3.48 0 6.396-2.414 7.241-5.684h4.259v-1.524c0-9.684-5.366-16.122-7.589-18.374m-24.367-4.571c-.033.002-.061.018-.094.021.035-.516.453-.955.957-.975l22.536-.824c.488 0 .869.397.869.903v.05l-24.268.825m-18.078 26.341c-2.072 0-3.75-1.708-3.75-3.813 0-1.046.422-1.982 1.095-2.668.793.111 1.505.266 1.927.498.496.273.939.61 1.408.967.439.334.904.681 1.429.998-.03.063-.05.131-.05.205 0 .264.209.477.469.477.174 0 .319-.1.4-.242.241.111.495.215.769.305-.26 1.847-1.808 3.273-3.697 3.273m38.534 0c-1.368 0-2.544-.757-3.195-1.871h.965c.021.078.054.152.113.213.182.187.479.187.662 0 .06-.061.093-.135.113-.213h2.686c.021.078.054.152.113.213.184.187.479.187.662 0 .06-.061.093-.135.113-.213h.964c-.651 1.114-1.827 1.871-3.196 1.871m-25.614-3.396c-1.393 0-1.93-.983-3.193-.983-.14 0-2.412 0-3.215 0-3.494 0-4.461-1.805-6.525-2.945-2.445-1.348-9.184-.516-8.387-1.963 1.611-2.93 4.941-4.909 8.387-4.909.27 0 .535.019.799.043l-.002-.003c0 0-.783-1.145-.783-2.004 0-5.275 7.908-15.83 7.908-15.83h-3.449v-6.672c0 0 0 0 1.406 0 .771 0 2.02.063 2.49 1.847.216.819 1.021 1.229 1.574 1.362-.545.301-.918.88-.918 1.555 0 .982.782 1.78 1.748 1.78.09 0 .176-.013.262-.028v.157h.006c0 0-2.729 3.62-2.729 10.555 0 6.715 1.395 12.148 3.117 12.148h7.748c2.956 0 5.346-2.194 5.346-4.909 0-4.587-2.048-6.959-2.316-7.25h18.394c.386.331 7.946 6.968 7.946 18.051h-35.614z"/><path d="m47.076 38.727c-1.295-.119-2.65-.087-3.947.274-1.291.362-2.516 1.026-3.498 1.97-.971.947-1.717 2.141-2.09 3.441-.387 1.297-.463 2.665-.275 3.976.215 1.307.652 2.562 1.307 3.68-.945-2.394-1.213-5.085-.348-7.419.836-2.335 2.807-4.124 5.15-4.729 1.164-.341 2.391-.379 3.629-.295 1.234.081 2.457.329 3.654.683 1.197.355 2.359.853 3.471 1.452 1.125.58 2.191 1.28 3.195 2.08-1.762-1.888-4.004-3.313-6.439-4.225-1.217-.47-2.506-.745-3.809-.888"/><path d="m48.27 40.584c-1.215-.127-2.475-.127-3.713.125-1.23.26-2.428.763-3.447 1.541-1.006.784-1.842 1.826-2.299 3.03-.469 1.197-.598 2.504-.432 3.745.197 1.24.641 2.42 1.303 3.443-.977-2.215-1.215-4.794-.209-6.895.977-2.105 3.035-3.505 5.27-3.932 1.113-.246 2.279-.252 3.447-.161 1.166.075 2.318.31 3.457.607 1.137.31 2.246.737 3.314 1.257 1.084.498 2.117 1.108 3.102 1.807-1.736-1.701-3.898-2.948-6.205-3.76-1.155-.414-2.366-.67-3.588-.807"/><path d="m15.332 44.933c-1.488-.411-3.1-.319-4.514.236-1.42.534-2.656 1.519-3.463 2.759 1.084-.994 2.357-1.675 3.689-2.052 1.332-.368 2.734-.397 4.039-.024 1.311.35 2.504 1.106 3.469 2.105.953 1.015 1.688 2.275 2.104 3.697-.055-1.483-.6-2.984-1.555-4.186-.943-1.206-2.281-2.118-3.769-2.535"/><ellipse cx="9.437" cy="54.375" rx=".469" ry=".477"/><path d="m9.847 55.854c-.184.188-.184.489 0 .676.182.187.479.187.662 0s.184-.488 0-.676c-.183-.186-.48-.186-.662 0"/><ellipse cx="11.964" cy="56.944" rx=".469" ry=".477"/><path d="m13.421 55.855c-.184.186-.184.487 0 .674s.48.187.662 0c.186-.187.186-.488 0-.674-.181-.185-.478-.185-.662 0"/><path d="m9.847 52.221c-.186.184-.184.488 0 .673.184.187.48.187.664 0 .182-.187.184-.489 0-.673-.183-.188-.48-.188-.664 0"/><ellipse cx="11.966" cy="54.375" rx=".938" ry=".953"/></svg>