<svg xmlns="http://www.w3.org/2000/svg" viewBox="0 0 64 64" enable-background="new 0 0 64 64"><path d="m59.325 54.171c2.601-3.764 2.675-6.911 2.675-6.911s-1.479-.95-2.781-1.791v-10.495l-9.781-9.533v-6.588c.126-.043.253-.083.375-.141.598.281 1.227.423 1.875.423 2.481 0 4.5-2.016 4.5-4.492s-2.019-4.492-4.5-4.492c-.647 0-1.276.143-1.875.423-.599-.28-1.228-.423-1.875-.423-2.675 0-3.915 1.536-4.338 2.699-1.686.28-2.975 1.746-2.975 3.508 0 .056.011.108.015.163-.07.04-.136.094-.204.141l-2.248-2.193v-3.542c.448-.053.892-.166 1.313-.364.599.28 1.228.423 1.875.423 2.481 0 4.5-2.016 4.5-4.492s-2.02-4.494-4.501-4.494c-.639 0-1.279.146-1.875.424-.596-.278-1.236-.424-1.875-.424-2.674 0-3.915 1.535-4.338 2.697-1.142.189-2.095.926-2.595 1.927-.857.312-1.688.78-2.448 1.396l-.557.45v4.007l-5.562-.693-7.97 1.987v3.274l-1.875.468v3.273l-1.875.468v2.014c-.465.045-.91.11-1.315.212-.017.004-.03.015-.046.02-.018.005-.036.005-.053.011-.222.082-5.441 2.068-6.95 7.199 0 0 1.584 6.469 6.004 13.463 2.43 3.845 4.255 8.512 5.381 11.828h-11.426v6h60v-6h-3.787c.304-.575.669-1.188 1.112-1.83m-1.106-18.273v1.013l-.438-.375v-.571l-21.562-19.045v1.129l-.726-.623-1.618-.202v-1.097l3.062.382 21.282 19.389m-27.625-7.599v.912c-.786-.371-1.567-.729-2.344-1.078v-.78l3.11.388 26.858 16.635v.451c-.142-.091-.28-.18-.43-.275v-.24l-27.194-16.013m25.502 17.536v.611l-3.905-1.905v-1.135c1.456.893 2.774 1.715 3.905 2.429m-4.374-2.716v1.193l-1.72-.84v-1.396c.591.357 1.165.705 1.72 1.043m-2.189-1.325v1.45l-4.283-2.09v-1.887c1.495.867 2.933 1.715 4.283 2.527m-4.752-2.798v1.93l-1.811-.884v-2.081c.613.347 1.217.691 1.811 1.035m-2.279-1.303v2.12l-5.093-2.485v-2.434c1.73.924 3.438 1.865 5.093 2.799m-5.562-3.049v2.456l-2.031-.991v-2.529c.679.352 1.357.705 2.031 1.064m-8.032-1.463v-2.554c1.829.852 3.683 1.765 5.532 2.714v2.539l-5.532-2.699m.195 2.786c-.064.004-.135.004-.194.011v-.099l.194.088m-7.087-10.383c-1.575-.572-3.094-1.064-4.526-1.445l13.862 1.729 13.541 9.077-13.099-8.112-9.778-1.249m5.465 1.673l-1.243-.002c-.171-.073-.341-.146-.511-.217l1.754.219m-10.981-4.249l-1.943.485c-.332-.056-.647-.093-.964-.133l4.844-1.208 10.931 1.363h-8.797l-4.071-.507m41.271 19.366v-.621l-25.302-17.621v1.282l-.659-.442-.099-.066-1.586-.198v-1.098l3.096.386 24.998 17.555v1.123l-.448-.3m-.04-2.944v-.691l-23.387-18.203v1.191l-.743-.563-1.601-.199v-1.096l3.079.384 23.14 18.472v1.074l-.488-.369m-9.793-15.452l-3.335-3.253c1.172.053 2.328.512 3.335 1.492v1.761m-3.75-9.677h.646l.095-.64c.013-.082.33-2.011 3.009-2.011.517 0 1.021.141 1.498.418l.377.219.377-.219c.478-.277.981-.418 1.498-.418 1.654 0 3 1.343 3 2.992s-1.346 2.992-3 2.992c-.519 0-1.022-.141-1.498-.417l-.377-.219-.377.219c-.144.083-.293.134-.441.191l-.011-.01c-1.298-1.264-2.895-1.932-4.615-1.932-.72 0-1.449.128-2.165.359.235-.874 1.031-1.524 1.984-1.524m.18 2.667c1.252 0 2.496.462 3.569 1.507v1.871c-1.495-1.455-3.317-1.762-5.034-1.278l-1.335-1.302c.892-.495 1.843-.798 2.8-.798m-10.493-10.82l.635-.008.106-.625c.035-.205.416-2.015 3.009-2.015.519 0 1.022.141 1.497.417l.378.221.378-.221c.475-.276.978-.417 1.497-.417 1.654 0 3 1.343 3 2.992s-1.346 2.992-3 2.992c-.517 0-1.021-.141-1.498-.418l-.377-.218-.377.219c-.301.176-.616.282-.936.341v-.855l-.454-.441c-1.203-1.173-2.664-1.825-4.242-1.915.125-.025.252-.049.384-.049m-4.687 3.038c1.177-.952 2.559-1.508 3.931-1.508 1.252 0 2.496.463 3.569 1.508v1.871c-2.25-2.191-5.25-1.82-7.5 0v-1.871m7.5 3.741v.672l-7.2-.897c2.211-1.618 5.048-1.87 7.2.225m-21.532 1.625l7.03-1.753 14.741 1.838 7.956 7.76-7.508-6.841-15.25-1.902-6.97 1.739v-.841zm0 1.871l7.03-1.754 10.93 1.363h-8.795l-4.07-.508-5.095 1.271v-.372m-1.875 1.871l7.03-1.754 14.758 1.841 9.904 8.491-9.49-7.576-15.232-1.9-6.97 1.739v-.841m0 1.871l7.03-1.754 10.932 1.363h-8.795l-4.073-.508-5.094 1.271v-.372m-1.875 1.87l7.031-1.753 14.775 1.842 11.766 8.906-11.386-7.995-15.216-1.898-6.969 1.739v-.841zm-1.739 21.043c-3.705-5.862-5.325-10.856-5.686-12.064.841-2.494 2.846-4.059 4.23-4.888-.146 2.899-.073 8.936 2.235 15.684.808 2.361 1.45 4.479 1.967 6.372-.805-1.732-1.72-3.479-2.746-5.104m2.605-1.934c-2.471-7.224-2.23-13.745-2.064-15.849.404-.057.845-.086 1.317-.086 4.178 0 10.351 2.179 16.914 5.202v2.541l-1.597-.779.011 2.777 1.586.717v.416c-.421.154-.548.438-.271.822.576.791 2.623 1.703 4.58 2.033 1.291.22 2.204.128 2.52-.186l1.672.755v.051c-.182.129-.207.322-.03.571.481.678 2.247 1.506 3.949 1.848.759.153 1.365.177 1.772.103l1.786.807c-.021.104-.005.221.08.362.419.688 2.022 1.559 3.591 1.942.749.184 1.346.219 1.726.135l1.577.713c-.01.076.006.163.078.269.387.566 1.865 1.319 3.311 1.677.539.135.996.195 1.337.189l1.671.755.001-1.656-1.225-.598v-.542c1.597 1.012 2.792 1.789 3.423 2.203-.163.776-.67 2.403-2.238 4.673-.746 1.08-1.293 2.089-1.705 2.991h-39.964c-.441-3.094-1.46-7.995-3.808-14.856"/><path d="m7.821 14.873c-.17-1.432 2.128-2.293 2.128-2.293-2.224-.114-2.806 1.534-2.806 1.534-1.861.452-1.757 1.755-1.757 1.755.797-1.379 2.435-.996 2.435-.996"/><path d="m8.332 7.379c.65-1.286 3.043-.738 3.043-.738-1.791-1.321-3.187-.268-3.187-.268-1.802-.648-2.438.494-2.438.494 1.428-.711 2.582.512 2.582.512"/></svg>