<svg xmlns="http://www.w3.org/2000/svg" viewBox="0 0 64 64" enable-background="new 0 0 64 64"><path d="m32 2c-16.569 0-30 13.432-30 30s13.431 30 30 30c16.568-.001 30-13.432 30-30s-13.432-30-30-30m.002 58c-5.521-.004-10-4.398-10-13.156 0-1.606 0-3.103 0-3.995 0-.531.113-.849.822-.849.205 0 .458 0 .729 0v3.52c0 8.879 3.319 12.854 8.448 12.857 5.131 0 8.442-3.977 8.444-12.859v-3.518c.272 0 .526 0 .733 0 .708 0 .822.317.822.849 0 .893 0 2.389 0 3.995.002 8.758-4.477 13.152-9.998 13.156m-7.644-14.48v-3.52c2.925 0 7.644 0 7.644 0s4.712 0 7.638 0v3.518c0 8.348-2.995 11.977-7.638 11.977-4.641-.003-7.644-3.632-7.644-11.975m16.136 12.611c1.638-1.896 2.858-4.57 3.307-8.179 3.403-2.908 5.201-6.987 5.201-10.952 0-.493-.392-1-1.125-1-3.32 0-9.65 0-15.875 0-6.227 0-12.557 0-15.876 0-.733 0-1.126.507-1.126 1 0 3.965 1.798 8.044 5.203 10.952.449 3.626 1.68 6.308 3.328 8.205-11.031-3.579-19.031-13.948-19.031-26.157 0-15.164 12.336-27.5 27.5-27.5 15.163 0 27.5 12.336 27.5 27.5 0 12.197-7.992 22.541-19.006 26.131"/><path d="m18.967 20.759c0-2.419 5.254-1.255 7.025.387 1.044-1.714.548-3.158.548-3.158s-1.521-1.075-3.76-1.487l-.005-2.248c-1.838-.566-3.813 0-3.813 0v2.089c0 0-3.626.667-3.626 4.418 0 4.858 7.442 3.919 7.442 7.049 0 2.282-4.997 1.331-7.442-.489-.759 1.838 0 3.424 0 3.424 1.809.794 3.624 1.019 3.624 1.019l.006 1.972c0 0 1.975.602 3.813 0v-2.104c0 0 4.221-.232 4.221-3.821 0-4.665-8.033-4.262-8.033-7.051"/><path d="m40.967 20.759c0-2.419 5.254-1.255 7.025.387 1.044-1.714.548-3.158.548-3.158s-1.521-1.075-3.76-1.487l-.005-2.248c-1.838-.566-3.813 0-3.813 0v2.089c0 0-3.626.667-3.626 4.418 0 4.858 7.442 3.919 7.442 7.049 0 2.282-4.997 1.331-7.442-.489-.759 1.838 0 3.424 0 3.424 1.81.794 3.624 1.019 3.624 1.019l.006 1.972c0 0 1.975.602 3.813 0v-2.104c0 0 4.221-.232 4.221-3.821 0-4.665-8.033-4.262-8.033-7.051"/><path d="m30.728 54.616l.003 1.282c0 0 1.233.391 2.383 0v-1.367c0 0 2.639-.152 2.639-2.484 0-3.031-5.021-2.77-5.021-4.582 0-1.572 3.285-.815 4.391.252.652-1.113.344-2.053.344-2.053s-.951-.699-2.352-.967l-.002-1.462c-1.148-.368-2.383 0-2.383 0v1.358c0 0-2.266.434-2.266 2.871 0 3.158 4.65 2.548 4.65 4.582 0 1.483-3.123.865-4.65-.318-.475 1.195 0 2.227 0 2.227 1.129.516 2.264.661 2.264.661"/></svg>