<svg xmlns="http://www.w3.org/2000/svg" viewBox="0 0 64 64" enable-background="new 0 0 64 64"><path d="m55.91 50.115c3.82-5.033 6.09-11.308 6.09-18.115 0-16.568-13.432-30-30-30-16.568 0-30 13.432-30 30 0 16.568 13.432 30 30 30 6.807 0 13.083-2.27 18.118-6.091l3.336 3.978c.15.15.396.152.549 0l5.885-5.883c.152-.152.15-.4 0-.553l-3.978-3.336m-23.91 9.885c-15.439 0-28-12.561-28-28 0-15.439 12.561-28 28-28 15.44 0 28 12.561 28 28 0 6.309-2.1 12.136-5.633 16.822l-5.877-4.929c-.137-.134-.338-.143-.49-.043v-1.491c0-.199-.18-.359-.398-.359h-3.202c-.221 0-.4.16-.4.359v2c0-.199-.18-.359-.398-.359h-3.202c-.221 0-.4.16-.4.359v-2c0-.199-.18-.359-.398-.359h-3.202c-.221 0-.4.16-.4.359v2c0-.199-.18-.359-.398-.359h-3.202c-.221 0-.4.16-.4.359v-2c0-.199-.18-.359-.399-.359h-3.201c-.221 0-.4.16-.4.359v2c0-.199-.18-.359-.399-.359h-3.201c-.221 0-.4.16-.4.359v-2c0-.199-.18-.359-.399-.359h-3.201c-.221 0-.4.16-.4.359v2c0-.199-.18-.359-.399-.359h-3.201c-.221 0-.4.16-.4.359v5.281c0 .2.18.36.4.36h3.201c.219 0 .399-.16.399-.359v-2c0 .199.179.359.4.359h3.201c.219 0 .399-.16.399-.359v2c0 .199.179.359.4.359h3.201c.219 0 .399-.16.399-.359v-2c0 .199.179.359.4.359h3.201c.219 0 .399-.16.399-.359v2c0 .199.179.359.4.359h3.202c.218 0 .398-.16.398-.359v-2c0 .199.18.359.4.359h3.201c.219 0 .399-.16.399-.359v2c0 .199.18.359.4.359h3.201c.219 0 .399-.16.399-.359v-1.024l4.824 5.751c-4.687 3.533-10.515 5.632-16.824 5.632m12.039-12.21l-.039.038v-.188c0 .055.016.104.039.15m13.701 6.3l-3.652 3.646c-.135.137-.354.137-.484 0l-2.369-2.719c1.371-1.146 2.637-2.412 3.783-3.782l2.723 2.368c.132.131.132.352-.001.487"/><circle cx="20.5" cy="29" r="5"/><circle cx="43.5" cy="29" r="5"/></svg>