<svg xmlns="http://www.w3.org/2000/svg" viewBox="0 0 64 64" enable-background="new 0 0 64 64"><path d="m39.195 37.311c-4.338-2.949-9.924-3.91-15.049-2.584-1.35.365-.359 3.523.904 3.201 4.719-1.201 9.277.141 12.143 2.084 1.065.75 3.073-1.955 2.002-2.701"/><path d="m49.685 17.038l-.139-.207-.235-.083c-3.83-1.356-8.632-1.501-12.7-.363l-.244.068-.152.202c-1.096 1.451-1.675 3.171-1.675 4.974 0 4.559 3.709 8.268 8.268 8.268 4.56 0 8.27-3.709 8.27-8.268-.002-1.642-.483-3.23-1.393-4.591m-6.878 11.358c-3.731 0-6.768-3.036-6.768-6.768 0-1.25.358-2.444 1.01-3.506-.018.144-.051.281-.051.43 0 2.076 1.684 3.76 3.76 3.76s3.76-1.684 3.76-3.76c0-.477-.1-.927-.263-1.346 1.507.133 2.975.422 4.315.872.659 1.066 1.006 2.289 1.006 3.55 0 3.732-3.036 6.768-6.769 6.768"/><path d="m29.461 21.629c0-1.642-.481-3.229-1.392-4.591l-.139-.207-.235-.083c-3.83-1.356-8.632-1.501-12.7-.363l-.244.068-.153.202c-1.096 1.451-1.675 3.171-1.675 4.974 0 4.559 3.709 8.268 8.268 8.268 4.56-.001 8.27-3.709 8.27-8.268m-8.27 6.767c-3.731 0-6.768-3.036-6.768-6.768 0-1.25.358-2.444 1.01-3.506-.018.144-.051.281-.051.43 0 2.076 1.684 3.76 3.76 3.76s3.76-1.684 3.76-3.76c0-.477-.1-.927-.263-1.346 1.507.133 2.975.422 4.315.872.659 1.066 1.006 2.289 1.006 3.55.001 3.732-3.035 6.768-6.769 6.768"/><path d="m32 2c-15.469 0-28 12.533-28 28 0 5.192 1.432 10.042 3.895 14.209-.392.896-.744 1.848-.791 3.047-.01.203-.023.422-.037.654-.135 2.057-.334 5.166 2.416 9.063 1.775 2.512 4.531 4.162 7.969 4.766 1.219.213 2.467.295 3.822.25 2.217-.076 3.773-.156 4.625-1.703.722-1.309-.109-2.135.507-2.856 1.808.366 3.677.57 5.594.57 15.469 0 28-12.533 28-28s-12.531-28-28-28m-6.989 55.969c.277 1.699-.689 3.305-7.216 2.127-10.741-1.938-10.012-12.1-8.277-15.761 1.274-2.689 1.08-3.833.344-7.171-.669-3.029 5.053-1.658 5.217 1.974.121 2.694-.916 4.068.375 5.253 2.886 2.65 11.213 1.198 16.842.004 2.408-.511 3.646 1.931 1.861 3.175-1.908 1.333-4.139 1.874-7.439 2.116-1.723.125.221.68-.049 2.316-.147.898-1.088.867-1.052 1.801.019.497 1.044 1.02.347 2.27-.207.373-1.133.801-.953 1.896m6.989-2.469c-1.536 0-3.037-.147-4.499-.41-.041-.27-.133-.545-.278-.83-.377-.738 1.498-1.5.736-3.482 2.857-.469 4.982-1.02 6.951-2.139 2.117-1.203 2.188-2.514 2.043-3.188-.246-1.123-1.404-2.049-2.887-2.309-.576-.102-1.162-.09-1.686.037-3.125.758-10.604 1.779-14.387 1.115-1.063-.188-1.41-.441-1.508-.541-.549-.551-.445-1.605-.176-3.785.33-2.68-2.078-5.537-4.213-5.912-.014-.002-.119-.02-.137-.023-1.178-.148-2.229.191-2.883.934-.732.826-.896 2.061-.453 3.383.349 1.039.428 1.873.36 2.615-1.588-3.323-2.483-7.041-2.483-10.965 0-7.028 2.858-13.401 7.473-18.018.079.022.152.022.213-.015 3.418-1.985 7.543-2.348 11.256-.983.512.198 1.328-1.683.703-1.92-2.437-.896-5.027-1.125-7.538-.752 3.895-2.414 8.483-3.812 13.393-3.812 7.063 0 13.464 2.889 18.087 7.544-4.265-1.547-9.002-1.127-12.929 1.157-.572.342.557 2.049 1.029 1.768 3.416-1.988 7.543-2.348 11.256-.986.429.167 1.06-1.114.89-1.68 4.432 4.59 7.167 10.828 7.167 17.697 0 14.061-11.439 25.5-25.5 25.5"/></svg>