<svg xmlns="http://www.w3.org/2000/svg" viewBox="0 0 64 64" enable-background="new 0 0 64 64"><path d="m59.549 27.089c.111-.097.214-.194.308-.292 2.483-2.617 2.84-6.414.91-9.677-2.016-3.407-8.23-11.331-22.375-11.331-.733 0-1.486.021-2.245.063-1.442-.566-2.916-.852-4.39-.852-1.613 0-3.222.347-4.77 1.02l.008-.108-.617.393c-.885.438-1.746.984-2.573 1.635-.948.609-1.938 1.422-2.986 2.281-1.906 1.563-4.066 3.335-6.429 4.258-2.742 1.07-8.645 1.799-10.69 1.991l-1.7.159v1.701 28.924 1.995l1.999-.131c.016 0 1.555-.101 3.724-.101 6.512 0 11.335.842 13.269 2.312.699.72 1.484 1.334 2.33 1.858l.437.35.009-.084c3.698 2.11 8.412 2.619 12.097 2.619.326 0 .653-.004.98-.012.879 1.387 2.262 2.258 3.894 2.4l5.556.522.04.004.039.002c.139.008.274.012.406.012 1.434 0 2.554-.48 3.633-1.558l4.236-4.142c2.044-2.021 2.098-4.688 1.225-6.803l1.11-1.087c2.548-2.518 2.423-6.064.848-8.7l.453-.442c2.713-2.68 2.701-6.325 1.264-9.179m-21.157-19.431c13.471 0 19.036 7.497 20.76 10.41.668 1.13.952 2.252.966 3.307-.191 1.041-.679 2.048-1.553 2.91l-5.842 5.715c-.826.824-1.542 1.192-2.369 1.323.029-.566-.012-1.156-.154-1.768-.988-4.236-1.368-6.839-1.633-8.557.127-.344.924-2.299 3.224-3.856-1.589.22-2.848 1.373-3.527 2.142-.112-.492-.242-.871-.434-1.192-1.894-3.173-11.284-9.859-11.993-10.348.881-.059 1.732-.086 2.555-.086m17.322 35.069l-5.002 4.892c-1.031 1.033-1.86 1.243-3.083 1.18l-6.554-.615c-2.404-.211-3.613-2.334-3.75-4.596-.347 2.693.808 5.693 3.691 5.947l6.556.615c1.222.063 2.049-.148 3.081-1.179l2.937-2.768c.504.729.832 1.603.911 2.497-.139.757-.492 1.491-1.129 2.12l-4.249 4.152c-.875.878-1.58 1.057-2.617 1.003l-5.567-.521c-2.041-.182-3.068-1.984-3.183-3.904-.051.392-.061.797-.034 1.197-9.289-.313-15.512-3.342-18.508-7.8.051.625.201 1.22.407 1.796-3.371-.763-9.806-2.015-15.745-2.015v-26.398c0 0 7.611-.711 11.198-2.113 4.01-1.565 7.249-5.116 9.785-6.732l-.001.007c2.036-1.631 4.389-2.622 6.898-2.622 1.321 0 2.687.273 4.072.875.002 0 .003 0 .004 0 .376.406 9.994 9.013 10.841 10.892.935 2.075 1.044 5.37 1.917 9.183 1.276 5.567-1.027 8.858-4.651 8.936-4.4.093-6.066-10.657-6.066-10.657s-1.876-.665-4.222-3.114c1.476 3.506 3.133 3.847 3.133 3.847s.075.617.267 1.546c-1.138 2.464-3.653 6.986-9.695 7.479-.514.039-1.021.034-1.522 0 1.35.647 2.84.898 4.405.833 2.354-.095 4.051-.829 5.253-1.711-.167 2.974 1.215 6.06 4.366 6.336l7.655.717c1.427.072 2.394-.172 3.6-1.378l4.288-4.059c.891.943 1.522 2.236 1.655 3.578-.162.89-.592 1.811-1.342 2.554m1.308-9.368l-5.842 5.715c-1.205 1.203-2.174 1.449-3.601 1.376l-7.654-.719c-2.623-.23-4.013-2.411-4.315-4.85 1.505-1.147 2.202-2.508 2.432-3.046.976 2.562 3.172 5.217 5.885 5.175 2.528-.095 5.323-1.813 6.119-4.072.932-.094 1.704-.457 2.61-1.361l4.668-4.566c.685.985 1.146 2.167 1.264 3.378-.191 1.043-.692 2.107-1.566 2.97"/></svg>