<svg xmlns="http://www.w3.org/2000/svg" viewBox="0 0 64 64" enable-background="new 0 0 64 64"><path d="m5.715 36.269l.453.442c-1.575 2.636-1.7 6.183.848 8.7l1.11 1.087c-.873 2.114-.819 4.781 1.225 6.803l4.236 4.142c1.079 1.077 2.199 1.557 3.633 1.557.132 0 .268-.004.408-.011l.039-.002.04-.004 5.556-.522c1.632-.143 3.015-1.014 3.894-2.4.327.008.654.012.98.012 3.685 0 8.398-.509 12.097-2.619l.009.084.437-.35c.846-.524 1.631-1.139 2.33-1.858 1.934-1.47 6.757-2.312 13.269-2.312 2.169 0 3.708.101 3.724.101l1.997.13v-1.995-28.924-1.701l-1.7-.159c-2.045-.191-7.948-.921-10.689-1.992-2.362-.923-4.522-2.694-6.429-4.258-1.048-.859-2.038-1.672-2.986-2.281-.827-.65-1.688-1.197-2.573-1.635l-.617-.393.008.108c-1.549-.672-3.158-1.019-4.771-1.019-1.475 0-2.948.286-4.39.853-.759-.043-1.512-.063-2.245-.063-14.145 0-20.359 7.924-22.375 11.331-1.93 3.263-1.573 7.06.91 9.677.094.098.196.195.308.292-1.437 2.853-1.449 6.498 1.264 9.179m22.449-28.525c-.709.488-10.1 7.175-11.993 10.348-.191.321-.321.7-.434 1.192-.68-.769-1.938-1.922-3.527-2.142 2.3 1.558 3.097 3.513 3.224 3.856-.265 1.718-.645 4.32-1.633 8.557-.143.611-.184 1.201-.154 1.768-.827-.131-1.543-.499-2.369-1.323l-5.842-5.715c-.874-.862-1.361-1.869-1.553-2.91.014-1.055.298-2.177.966-3.307 1.724-2.913 7.289-10.41 20.76-10.41.822 0 1.673.027 2.555.086m-21.22 32.426c.133-1.342.765-2.635 1.655-3.578l4.288 4.059c1.206 1.206 2.173 1.45 3.6 1.378l7.655-.717c3.151-.276 4.533-3.362 4.366-6.336 1.202.882 2.898 1.616 5.253 1.711 1.565.065 3.056-.186 4.405-.833-.502.034-1.009.039-1.522 0-6.042-.492-8.558-5.015-9.695-7.479.191-.929.267-1.546.267-1.546s1.657-.341 3.133-3.847c-2.346 2.449-4.222 3.114-4.222 3.114s-1.666 10.75-6.066 10.657c-3.624-.077-5.928-3.368-4.651-8.936.873-3.813.982-7.107 1.917-9.183.846-1.877 10.464-10.484 10.84-10.89.001 0 .002 0 .004 0 1.386-.602 2.751-.875 4.072-.875 2.51 0 4.862.991 6.898 2.622l-.001-.007c2.536 1.616 5.775 5.167 9.785 6.732 3.587 1.402 11.198 2.113 11.198 2.113v26.399c-5.939 0-12.374 1.252-15.745 2.015.206-.576.356-1.171.407-1.796-2.996 4.458-9.219 7.486-18.508 7.8.026-.4.017-.806-.034-1.197-.114 1.92-1.142 3.723-3.183 3.904l-5.567.521c-1.037.054-1.742-.125-2.617-1.003l-4.249-4.152c-.637-.629-.99-1.363-1.129-2.12.079-.895.407-1.769.911-2.497l2.937 2.768c1.032 1.03 1.859 1.242 3.081 1.179l6.556-.615c2.884-.254 4.038-3.254 3.691-5.947-.137 2.262-1.346 4.385-3.75 4.596l-6.554.615c-1.223.063-2.052-.146-3.083-1.18l-5.002-4.892c-.749-.743-1.179-1.664-1.341-2.557m-1.532-9.781c.117-1.211.579-2.393 1.264-3.378l4.668 4.566c.906.904 1.679 1.268 2.61 1.361.796 2.26 3.591 3.978 6.119 4.072 2.713.042 4.909-2.613 5.885-5.175.229.538.927 1.898 2.432 3.046-.303 2.438-1.692 4.619-4.315 4.85l-7.655.719c-1.427.073-2.396-.173-3.601-1.376l-5.842-5.715c-.873-.863-1.374-1.927-1.565-2.97"/></svg>