<svg xmlns="http://www.w3.org/2000/svg" viewBox="0 0 64 64" enable-background="new 0 0 64 64"><path d="m25.777 19.183c.504.374 1.21-.6.966-1.029-2.452-4.251-5.342-6.084-7.831-5.646-2.488.438-4.576 3.15-5.427 7.983-.081.486.915 1.161 1.262.637 1.304-1.972 3.101-2.98 5.097-3.333 2-.353 4.034-.019 5.933 1.388"/><path d="m34.177 17.702c1.304-1.972 3.099-2.98 5.099-3.334 2-.353 4.032-.018 5.932 1.389.504.374 1.212-.6.968-1.029-2.454-4.25-5.342-6.085-7.831-5.646-2.488.438-4.576 3.15-5.427 7.983-.086.487.912 1.161 1.259.637"/><path d="m44.231 27.729c.415-1.065-.546-1.97-1.303-1.214-6.318 6.294-14.319 7.675-22.361 3.942-.968-.451-1.563.728-.809 1.586 2.817 3.213 7.788 5.635 13.435 4.64 5.645-.995 9.488-4.97 11.038-8.954"/><path d="m61.945 48.302c-.293-2.939-1.868-5.457-4.293-7.103 1.501-3.43 2.348-7.214 2.348-11.198 0-15.465-12.536-28.001-28-28.001s-28 12.536-28 28.001c0 3.984.847 7.768 2.348 11.198-2.425 1.646-4 4.163-4.293 7.103-.4 4.021 1.44 8.654 4.28 10.773 3.243 2.42 10.667 3.756 17.938 2.357 3.639-.7 4.203-2.665 3.385-3.782 1.416.223 2.863.35 4.342.35s2.926-.127 4.342-.35c-.818 1.117-.254 3.082 3.385 3.782 7.271 1.398 14.695.063 17.938-2.357 2.84-2.119 4.681-6.752 4.28-10.773m-38.605 11.818c-7.296 1.017-13.241-.036-16.071-2.147-4.071-3.039-6.53-12.965 1.468-16.723 3.643-1.712 9.539-3.189 10.411-1.18 1.249 2.879-4.183 3.245-4.183 3.245s4.354.628 10.73-.122c1.739-.202 2.987 1.918.927 3.141-1.801 1.069-7.864 1.452-7.864 1.452s3.263.104 7.895-.279c3.729-.311 4.062 3.901-.856 4.476-1.894.222-7.008.563-7.008.563s3.526.661 7.168.148c3.253-.458 3.108 2.839-1.523 3.449-2.205.291-5.721.352-5.721.352s3.158.544 4.878.319c4.405-.579 3.948 2.72-.251 3.306m5.832-4.795c.577-.991.313-2.133-.582-2.623 3.737-1.139 2.705-5.688-.219-5.842 2.235-1.475.334-5.107-2.361-4.656-2.299.385-6.287.379-6.287.379.006-.01 1.283-.514.96-2.193-.335-1.735-2.643-4.176-12.114-.367-1.324-3.08-2.069-6.463-2.069-10.022 0-14.062 11.439-25.501 25.5-25.501s25.5 11.439 25.5 25.501c0 3.559-.745 6.942-2.068 10.021-9.471-3.809-11.779-1.368-12.114.367-.323 1.68.954 2.184.96 2.193 0 0-3.988.006-6.287-.379-2.695-.451-4.597 3.182-2.361 4.656-2.924.154-3.956 4.703-.219 5.842-.895.49-1.159 1.632-.582 2.623-.931.106-1.872.176-2.829.176s-1.898-.07-2.828-.175m27.559 2.648c-2.831 2.111-8.774 3.164-16.071 2.147-4.199-.586-4.656-3.885-.249-3.306 1.72.225 4.878-.319 4.878-.319s-3.516-.061-5.721-.352c-4.632-.61-4.776-3.907-1.523-3.449 3.642.513 7.168-.148 7.168-.148s-5.114-.342-7.008-.563c-4.918-.574-4.586-4.786-.856-4.476 4.632.383 7.895.279 7.895.279s-6.063-.383-7.864-1.452c-2.061-1.223-.813-3.343.927-3.141 6.376.75 10.729.122 10.729.122s-5.432-.366-4.183-3.245c.872-2.01 6.769-.532 10.411 1.18 7.998 3.758 5.539 13.684 1.467 16.723"/></svg>