<svg xmlns="http://www.w3.org/2000/svg" viewBox="0 0 64 64" enable-background="new 0 0 64 64"><path d="m38.813 21.847c-.865-1.728-1.166-4.023 1.662-5.798 4.68-2.936 7.04-7.792 5.373-11.058-.966-1.9-2.617-2.991-4.527-2.991-1.942 0-3.881 1.113-5.459 3.139-2.761 3.542-5.649 6.045-8.442 8.468-2.795 2.424-5.435 4.712-7.368 7.648-2.118 3.217-5.033 8.382-6.43 12.123-2.268 6.09 2.096 13.284 6.098 15.562l.042.024.045.021c3.488 1.689 7.428 3.63 8.098 4.015 2.303 2.034 8.118 7.588 8.176 7.645l.029.027.031.026c.995.852 2.159 1.302 3.368 1.302 2.09 0 4.077-1.389 4.834-3.377.726-1.908.173-3.891-1.479-5.304l-4.229-3.785c.893-.306 1.639-.87 2.16-1.648.518-.769.791-1.7.805-2.662l.391-.036c2.379-.233 4.064-1.868 4.443-4.144 1.584-.178 2.881-.99 3.671-2.299.577-.834.878-1.825.894-2.946.047-3.298-1.307-7.856-12.186-13.952m10.725 13.931c-.014.898-.28 1.767-.666 2.195-.365.406-1.166.753-2.033.838l-5.749.536c-1.196.124-1.884-.158-2.737-.802l-4.449-3.629c-1.639-1.323-1.579-3.231-.682-4.692-.486.503-.858 1.114-1.069 1.764-2.746 1.34-6.093 1.338-8.905-.32-.333-.196-.643-.415-.939-.646.589.915 1.393 1.715 2.402 2.311 2.304 1.357 5.06 1.313 7.278.145.086.807.475 1.596 1.279 2.245l4.45 3.628c.852.645 1.541.927 2.738.803l4.588-.421c.051.824-.128 1.649-.524 2.345-.507.464-1.185.787-2.042.872l-5.75.536c-1.196.123-1.885-.158-2.736-.802l-4.452-3.631c-1.639-1.322-1.577-3.23-.682-4.692-1.434 1.489-1.919 3.912.047 5.498l4.45 3.628c.854.646 1.533 1.163 2.74 1.085 3.895-.255 3.895-.255 3.895-.255.309.698.186 1.715-.311 2.585-.436.396-1.014.673-1.748.745 0 0 0 0-4.918.129-1.03.027-1.954-.381-2.684-.933l-3.477-2.531c-1.402-1.133-1.35-2.767-.584-4.019-1.227 1.275-1.859 3.429-.176 4.788l3.777 2.822c.729.552 1.563.87 2.593.891 3.248.065 3.248.065 3.248.065l6.195 5.545c.064.055.111.113.17.17 2.763 2.889-1.637 7.391-4.85 4.118-2.531-2.574-4.978-5.28-9.846-8.262-2.805-1.718-5.743-3.333-5.743-3.333-3.485-1.983-7.271-7.917-5.299-13.208 1.331-3.575 4.026-8.424 6.14-11.635 3.646-5.54 9.977-9.064 15.675-16.374.813-1.042 2.422-2.705 4.255-2.253.883.218 1.607.97 2.136 2.009 1.29 2.526-.771 6.641-4.853 9.201-3.773 2.366-3.273 5.748-1.971 8.052 11.016 6.087 11.854 10.385 11.819 12.889"/><path d="m41.802 31.448c0 0-3.883-3.945-7.363-2.133 3.684-.813 7.322 4.168 7.322 4.168s1.383-1.489 3.586-1.318c-1.617-.852-3.545-.717-3.545-.717"/></svg>