<svg xmlns="http://www.w3.org/2000/svg" viewBox="0 0 64 64" enable-background="new 0 0 64 64"><path d="m46.803 25.831l-.03-.003-.035-.004-.036-.003c-.152-.012-.305-.019-.455-.019-.398 0-.793.045-1.175.13-.208-1.201-.732-2.328-1.526-3.235-1.094-1.249-2.592-1.994-4.223-2.097l-.042-.003c-.157-.011-.29-.015-.42-.015-2.252 0-4.27 1.245-5.423 3.125l-1.5-2.815 2.486-8.644c.418-1.537.195-3.118-.617-4.479-.854-1.431-2.31-2.483-3.992-2.887l-.042-.01-.042-.008c-.469-.113-.983-.175-1.484-.175-1.577 0-2.991.625-4.031 1.706l-.606-1.135c-.988-1.981-3.12-3.26-5.442-3.26-.841 0-1.659.163-2.434.483l-.008.002-.126.051c-1.515.656-2.7 1.886-3.251 3.374-.531 1.432-.453 2.975.219 4.342l.014.028.015.027 6.162 11.564-4.574 14.822-.01.031-.008.031c-.017.057-.052.148-.092.266-2.146 6.025-1.071 11.9 3.193 17.463 3.607 4.705 9.76 7.516 16.458 7.516 6.737 0 12.622-2.789 15.355-7.279 2.45-4.018 2.505-10.188 2.077-14.848.26-.607.411-1.24.451-1.89l.379-5.976c.198-3.14-2.126-5.902-5.185-6.176m-31.205-17.975c-1.297-2.436 1.218-3.964 2.57-3.964 1.566 0 3.055.824 3.745 2.229l1.979 3.713-2.538 8.823-5.756-10.801m10.549 1.343c.318-1.172 1.431-2.611 3.22-2.478 2.438.181 3.821 2.811 3.226 5.006l-2.696 9.375 4.125 7.743-.163 2.077c-3.478.486-4.504-.547-4.556-2.415l.594-7.403-2.9 10.077c-3.183 2.15-6.859 2.891-8.348 4.07l7.498-26.052m23.561 28.666c-.038.611-.223 1.168-.497 1.662.44 4.318.531 10.457-1.76 14.215-.314.516-.677 1.002-1.08 1.46v-.001c-7.172 5.923-21.006 6.717-27.915-4.344-2.468-3.956-2.875-11.682-.318-14.497 1.688-1.585 4.448-2.11 7.829-4.034 3.486-1.986 4.183 1.146 10.12 1.313.989.028 1.856.505 2.073 1.585.297 1.478-.555 3.449-2.479 4.361-5.474 2.59-5.903-1.08-7.238.352-1.418 1.52-2.096 1.881-3.291 3.645-.395.58-.129 1.893.271 3.153-.179-.829-.212-1.566.056-1.961 1.181-1.739 1.858-2.118 3.243-3.593 5.528 1.008 9.721 5.779 9.721 11.524 0 .489-.041.968-.103 1.442.628-1.24.99-2.637.99-4.121 0-1.686-.462-3.264-1.258-4.627.582-1.797 2.039-3.277 4.021-3.805.39-.104.782-.156 1.172-.179-.906-.382-1.938-.482-2.959-.212-1.527.407-2.658 1.535-3.126 2.912-.907-1.087-2.063-1.96-3.378-2.553.631-.142 1.35-.38 2.202-.783.839-.397 1.425-.951 1.835-1.564 1.782.117 3.4-.898 4.227-2.479-.789.56-2.896 1.104-3.543.682.93-2.964.082-4.088-3.281-4.729 0-.027.567-7.381.567-7.381.052-.689.728-3.021 3.585-3.021 2.443 0 4.057 2.593 3.855 5.195l-.129 1.662-.438 5.637c-.046.596-.204 1.152-.433 1.666l-.054.84c-.134 2.135 1.368 3.951 3.427 4.123l.045.003c1.506.128 2.854-.679 3.528-1.958-.66.443-1.46.689-2.31.618l-.051-.005c-2.055-.172-3.563-2.012-3.428-4.148l.376-5.979c.037-.576 1.112-2.523 3.022-2.406 2.063.126 3.412 2.215 3.277 4.352l-.373 5.978"/></svg>