<svg xmlns="http://www.w3.org/2000/svg" viewBox="0 0 64 64" enable-background="new 0 0 64 64"><circle cx="43.498" cy="30.307" r="5"/><path d="m25.578 15.213c-3.236 2.732-7.524 3.881-11.694 3.133-.578-.113-1.088 2.021-.385 2.156 4.809.863 9.756-.461 13.493-3.615.541-.469-.971-2.061-1.414-1.674"/><path d="m50.113 18.193c-4.168.748-8.455-.4-11.691-3.133-.443-.389-1.955 1.205-1.412 1.674 3.732 3.152 8.68 4.479 13.492 3.615.703-.134.191-2.269-.389-2.156"/><path d="m32 2c-16.568 0-30 13.432-30 30 0 .515.013 1.025.039 1.533-.081.768-.02 1.54.211 2.281 1.875 14.766 14.475 26.186 29.75 26.186 16.568 0 30-13.432 30-30s-13.432-30-30-30m-21.794 28.283l21.396 16.791c-.248.156-.494.316-.735.484l-20.443-15.558c-.383-.272-1.359.442-2.172 1.596s-1.159 2.309-.774 2.582l8.94 5.834.76-1.077.893.563-.769 1.09 1.627 1.063.711-1.01.893.565-.721 1.021 1.627 1.061.652-.926.891.567-.659.936 1.626 1.062.605-.857.889.571-.609.862 1.625 1.062.559-.792.887.574-.561.794.898.587c-.206.202-.41.405-.608.616l-.788-.497-.475.674-.885-.576.467-.662-1.644-1.037-.526.746-.887-.573.521-.737-1.644-1.037-.629.893-.891-.568.627-.889-1.643-1.037-.619.877-.891-.563.618-.876-1.644-1.038-.627.889-.893-.566.626-.887-10.021-6.332c-3.691-2.606.729-8.87 4.42-6.265m21.794 29.217c-12.616 0-23.265-8.545-26.488-20.148l21.017 12.281c-.088.111-.181.22-.267.333-.881 1.195 2.232 3.514 3.107 2.315 2.377-3.143 6.783-6.198 12.268-6.481 1.469-.075 1.404-3.925-.17-3.867-2.936.14-5.793.937-8.367 2.275l-12.998-10.941c.133.011.261.04.396.04 2.76 0 5-2.237 5-5 0-2.761-2.24-5-5-5-2.761 0-5 2.239-5 5 0 .426.069.832.169 1.227l-3.855-3.245c-2.514-1.774-5.181-1.216-7.1.382 1.649-13.599 13.253-24.171 27.288-24.171 15.164 0 27.5 12.336 27.5 27.5s-12.336 27.5-27.5 27.5"/></svg>