<svg xmlns="http://www.w3.org/2000/svg" viewBox="0 0 64 64" enable-background="new 0 0 64 64"><path d="m32 2c-16.568 0-30 13.432-30 30s13.432 30 30 30 30-13.432 30-30-13.432-30-30-30m18.103 9.324c-2.818-1.123-5.925-1.463-8.979-.915-.703.135-.192 2.27.388 2.156 4.168-.748 8.456.4 11.69 3.133.163.142.469.015.765-.222 1.734 2.3 3.11 4.881 4.06 7.66-2.297-3.68-6.37-6.136-11.027-6.136-4.533 0-8.521 2.323-10.848 5.842-2.688-1.168-5.805-1.061-8.301.007-2.326-3.523-6.314-5.849-10.851-5.849-4.657 0-8.73 2.457-11.026 6.137.962-2.818 2.367-5.433 4.136-7.758.27.197.538.299.686.169 3.237-2.732 7.524-3.881 11.692-3.133.58.113 1.092-2.021.389-2.156-2.944-.528-5.936-.228-8.672.8 4.801-4.086 11.013-6.559 17.795-6.559 6.928 0 13.262 2.581 18.103 6.824m6.897 18.676c0 5.521-4.479 10-10 10s-10-4.479-10-10c0-5.524 4.479-10 10-10s10 4.476 10 10m-29.999 0c0 5.523-4.479 10-10.001 10-5.522 0-10-4.477-10-10 0-5.524 4.477-10 10-10 5.523 0 10.001 4.476 10.001 10m4.999 29.5c-14.563 0-26.511-11.379-27.436-25.712 1.623 5.331 6.575 9.212 12.436 9.212 7.18 0 13-5.82 13-13 0-1.276-.191-2.506-.534-3.671 1.53-.436 3.54-.434 5.068.001-.343 1.164-.534 2.395-.534 3.67 0 7.18 5.82 13 13 13 5.861 0 10.813-3.881 12.436-9.212-.925 14.333-12.873 25.712-27.436 25.712"/><ellipse cx="20" cy="30.5" rx="4" ry="5"/><ellipse cx="44" cy="30.5" rx="4" ry="5"/><path d="m41.404 45.15c-3.223 2.269-8.353 3.834-13.66 2.433-1.421-.377-2.535 3.31-1.018 3.733 5.767 1.55 12.049.429 16.93-3.014 1.205-.868-1.054-4.027-2.252-3.152"/></svg>