<svg xmlns="http://www.w3.org/2000/svg" viewBox="0 0 64 64" enable-background="new 0 0 64 64"><path d="m54.729 32.861c-.532-4.535-.342-18.314-.342-18.314 0-3.024-2.4-5.485-5.352-5.485-.561 0-1.098.085-1.603.241-.443-2.73-2.787-4.819-5.603-4.819-.978 0-1.896.249-2.7.688-1.079-1.896-3.099-3.172-5.405-3.172-2.557 0-4.76 1.572-5.722 3.815-.745-.345-1.579-.537-2.458-.537-3.204 0-5.793 2.502-5.793 5.576v20.306c-1.365-1.406-3.165-2.246-5.306-2.441-.185-.018-.365-.025-.539-.025-1.721 0-3.22.8-4.113 2.193-.889 1.389-1.044 3.17-.394 4.538 1.929 4.071 2.462 7.4 2.695 9.55.139 1.286.667 2.4 1.532 3.234 1.02 1.256 3.717 4.647 4.462 5.89 2.739 4.578 10.16 7.901 17.643 7.901 8.12 0 17.281-4.182 18.644-15.912.938-8.08.609-11.052.354-13.227m-2.255 13.01c-.368 3.171-1.229 5.575-2.647 7.593-3.396 4.831-13.302 8.676-23.006 4.57-6.114-2.585-8.868-9.744-11.081-12.004-.551-.563-.922-1.683-1.021-2.601-.298-2.74-.978-6.177-2.881-10.206-1.201-2.541 1.73-2.688 2.432-2.616 4.083.42 5.309 2.698 5.891 5.825l1.48 1.734c.314-.614.861-2.64 1.214-4.507v-22.805c0-1.786 1.433-3.679 2.659-3.679 2.203 0 3.889 1.674 3.889 3.738v17.468c-.159-.26-.307-.53-.427-.85-.194.521-.101 1.124.09 1.634.183.521.456.971.675 1.407.236.432.424.854.56 1.303.134.452.185.939.229 1.487.324-.446.497-1.006.481-1.578-.002-.46 0-23.448 0-23.448 0-2.222 1.61-4.44 2.713-4.44 2.545 0 4.328 1.991 4.328 4.44v1.905 18.661c-.131-.228-.253-.468-.354-.741-.196.522-.103 1.124.087 1.636.186.519.458.969.676 1.407.237.432.425.854.561 1.305.133.451.186.937.23 1.485.324-.446.496-1.008.48-1.578-.003-.516 0-22.175 0-22.175 0-1.904 1.342-3.796 2.738-3.796 1.973 0 3.126 1.888 3.126 3.796v4.305 15.404c-.16-.263-.31-.536-.43-.858-.196.522-.101 1.126.088 1.636.185.521.458.969.676 1.407.237.432.425.853.56 1.305.134.452.185.936.23 1.485.324-.446.496-1.008.48-1.578-.002-.454 0-18.8 0-18.8 0-1.751 1.01-3.521 2.479-3.521 1.645 0 2.794 1.767 2.794 3.521 0 0-.218 13.95.342 18.539.247 2.017.593 4.736-.341 12.785"/></svg>