<svg xmlns="http://www.w3.org/2000/svg" viewBox="0 0 64 64" enable-background="new 0 0 64 64"><path d="m7.801 14.539c1.586-1.984 4.832-2.37 7.145-2.827 1.941-.384 4.049-.612 5.881-1.394 2.596-1 2.48-4.931 3.268-4.931.588 0 2.697 3.019 4.549 3.019 1.58 0 2.58-3.697 3.453-3.697.877 0 1.871 3.697 3.451 3.697 1.854 0 3.963-3.019 4.551-3.019.785 0 .672 3.931 3.268 4.931 1.832.781 3.939 1.01 5.881 1.394 2.313.457 5.559.843 7.145 2.827.582.727 1.729-.113 1.207-.887-.656-.975-1.637-1.658-2.674-2.168-3.377-1.658-11.639-1.31-12.334-5.653-.914-5.694-5.855.062-6.771.062-1.061 0-1.575-3.893-3.725-3.893-2.152 0-2.664 3.893-3.723 3.893-.916 0-5.859-5.756-6.771-.062-.695 4.344-8.959 3.995-12.334 5.653-1.037.51-2.02 1.193-2.674 2.168-.522.774.625 1.614 1.207.887"/><path d="m58 15.98c-2.207 0-4 1.789-4 4 0 1.86 1.279 3.412 3 3.858v24.142h-.5v-2.393c0-2.303-1.537-4.107-3.5-4.107v-5.48c0-15.464-5.535-24-21-24-15.463 0-21 8.536-21 24v5.48c-1.93 0-3.5 1.843-3.5 4.107v2.393h-.5v-24.141c1.723-.446 3-1.997 3-3.858 0-2.211-1.789-4-4-4-2.207 0-4 1.789-4 4 0 1.86 1.279 3.412 3 3.858v26.141h2 .5v2.391c0 2.305 1.537 4.109 3.5 4.109v.52c0 2.762 2.24 5 5 5h32c2.762 0 5-2.238 5-5v-.52c1.963 0 3.5-1.805 3.5-4.109v-2.391h.5 2v-26.141c1.723-.446 3-1.997 3-3.858 0-2.211-1.789-4.001-4-4.001m-52 6.5c-1.379 0-2.5-1.121-2.5-2.5s1.121-2.5 2.5-2.5 2.5 1.121 2.5 2.5-1.121 2.5-2.5 2.5m5 32.5c-1.104 0-2-1.168-2-2.609v-2.391-2-2.393c0-1.439.896-2.607 2-2.607v12m39.5 2.02c0 1.379-1.121 2.5-2.5 2.5h-32c-1.379 0-2.5-1.121-2.5-2.5v-21c0 0-.331-4.09 1.037-9.778 1.984-8.245 7.599-11.722 17.463-11.722s15.272 3.529 17.463 11.722c1.38 5.16 1.037 9.778 1.037 9.778v21m4.5-9.02v2 2.391c0 1.441-.895 2.609-2 2.609v-12c1.105 0 2 1.168 2 2.607v2.393m3-25.5c-1.379 0-2.5-1.121-2.5-2.5s1.121-2.5 2.5-2.5 2.5 1.121 2.5 2.5-1.121 2.5-2.5 2.5"/><path d="m21.5 37.5c3.316 0 6-2.688 6-6 0-3.314-2.684-6-6-6-3.313 0-6 2.686-6 6 0 3.313 2.688 6 6 6m0-8.285c1.262 0 2.285 1.023 2.285 2.285 0 1.264-1.023 2.287-2.285 2.287s-2.285-1.023-2.285-2.287c0-1.262 1.023-2.285 2.285-2.285"/><path d="m42.5 25.5c-3.313 0-6 2.686-6 6 0 3.313 2.688 6 6 6 3.318 0 6-2.688 6-6 0-3.314-2.682-6-6-6m0 8.287c-1.262 0-2.285-1.023-2.285-2.287 0-1.262 1.023-2.285 2.285-2.285 1.264 0 2.287 1.023 2.287 2.285 0 1.264-1.023 2.287-2.287 2.287"/><path d="m44.232 41.088h-24.462c-7.359 0-7.359 13 0 13h24.463c7.357 0 7.357-13-.001-13m-.72 11.5h-23.024c-5.984 0-5.984-10 0-10h23.023c5.985 0 5.985 10 .001 10"/><path d="m19.193 44.514v6.148c0 1.234 2 1.234 2 0v-6.148c0-1.235-2-1.235-2 0"/><path d="m23.916 44.514v6.148c0 1.234 2 1.234 2 0v-6.148c0-1.235-2-1.235-2 0"/><path d="m28.639 44.514v6.148c0 1.234 2 1.234 2 0v-6.148c0-1.235-2-1.235-2 0"/><path d="m33.361 44.514v6.148c0 1.234 2 1.234 2 0v-6.148c0-1.235-2-1.235-2 0"/><path d="m38.084 44.514v6.148c0 1.234 2 1.234 2 0v-6.148c0-1.235-2-1.235-2 0"/><path d="m42.807 44.514v6.148c0 1.234 2 1.234 2 0v-6.148c0-1.235-2-1.235-2 0"/><path d="m32 39.48c.668 0 1.295-.26 1.768-.732s.732-1.102.732-1.77-.261-1.295-.732-1.766c-.945-.945-2.59-.945-3.535 0-.472.471-.732 1.098-.732 1.766s.26 1.297.732 1.77 1.099.732 1.767.732m0-4c.4 0 .777.156 1.061.439.283.282.439.658.439 1.059 0 .27-.076.525-.208.752l-2.043-2.042c.227-.131.482-.208.751-.208m-1.291.749l2.024 2.024c-.569.315-1.321.261-1.794-.212-.283-.284-.439-.661-.439-1.063 0-.269.076-.524.209-.749"/></svg>