<svg xmlns="http://www.w3.org/2000/svg" viewBox="0 0 64 64" enable-background="new 0 0 64 64"><path d="m32 2c-16.569 0-30 13.431-30 30 0 16.567 13.431 30 30 30s30-13.433 30-30c0-16.569-13.432-30-30-30m0 2.508c8.448 0 16.012 3.832 21.061 9.846-10.065-4.49-20.859-7.082-31.832-7.646 3.31-1.415 6.95-2.2 10.771-2.2m-13.368 3.481c12.343.236 24.983 3.734 36.176 8.678 2.422 3.591 4.016 7.784 4.514 12.301-15.883-8.212-34.028-12.373-50.95-11.002 2.481-4.159 6.026-7.611 10.26-9.977m13.368 51.503c-15.159 0-27.492-12.334-27.492-27.492 0-4.426 1.058-8.608 2.924-12.315 10.432-.744 20.873.352 30.851 3.21.98.903 1.941 1.828 2.881 2.771-1.43.879-2.393 2.432-2.393 4.233 0 2.771 2.246 5.016 5.016 5.016 1.584 0 2.99-.736 3.908-1.884 3.104 3.918 5.855 8.11 8.178 12.578-4.742 8.285-13.664 13.883-23.873 13.883m11.42-34.944c5.564 1.963 10.947 4.485 16.07 7.535-.012 3.885-.836 7.579-2.309 10.93-3.443-7.025-8.161-13.158-13.761-18.465"/><circle cx="20.213" cy="29.899" r="5.016"/><path d="m40.395 42.766c-5.785-1.553-12.088-.429-16.984 3.023-1.209.872 1.056 4.04 2.259 3.162 3.232-2.274 8.377-3.846 13.704-2.439 1.425.379 2.542-3.319 1.021-3.746"/></svg>