<svg xmlns="http://www.w3.org/2000/svg" viewBox="0 0 64 64" enable-background="new 0 0 64 64"><path d="m49.725 16.293c-.027.27-.043.578-.05.912l-3.834 1.831c-.537-.088-3.2.067-7.172-1.893-1.007-.497-1.991-.761-2.936-.761-.847 0-1.655.194-2.459.595-1.003-.217-2.448-.773-3.293-.771-1.912.01-6.259 1.567-7.463 1.7-1.178.129-2.391.453-3.612.969-2.219-.646-5.001-1.701-6.491-2.284l-10.415-7.591v24.41l7.654 3.642c.111-.13.238-.33.376-.578l.237.11c.116.3.244.599.384.896-.84 1.414-.94 3.007-.269 4.392.575 1.185 1.646 2.017 2.839 2.25.065.738.313 1.452.731 2.071.75 1.107 1.942 1.768 3.191 1.768.113 0 .226-.005.338-.018.178.481.439.929.778 1.317.754.867 1.81 1.364 2.896 1.364.08 0 .158-.002.237-.008.138.524.373 1.02.701 1.462.755 1.02 1.92 1.627 3.118 1.627.744 0 1.455-.228 2.082-.655 1.212.778 2.266 1.325 3.201 1.661.469.191.957.289 1.455.289 1.178 0 2.321-.55 3.137-1.512.303-.358.549-.758.729-1.186.354.106.718.162 1.087.162 1.252 0 2.439-.613 3.26-1.685.396-.517.675-1.099.83-1.711.086.006.171.009.256.009 1.447 0 2.832-.849 3.611-2.216.416-.727.625-1.528.629-2.336 1.43-.213 2.689-1.23 3.302-2.713.604-1.461.44-3.073-.403-4.417l3.895-2.195c.1.342.198.657.293.913l9.425-5.015v-20.456l-12.275 5.651m-.001 3.037c.062 1.082.175 2.305.321 3.582-.8-1.344-1.81-1.957-3.064-2.262l2.743-1.32m-5.228 23.756c-2.148-.739-6.619-5.995-6.619-5.995.029 0 .06.001.088 0 .455-.032 1.438-.511 2.541-.282-1.732-1.488-3.637-.229-4.934-1 .301.965 1.748 1.269 2.119 1.281l4.284 4.982c1.94 2.255.589 5.045-1.356 5.489-1.305-.635-4.99-5.018-4.99-5.018.126-.023.873-.257 1.634-.157-1.757-1.314-3.749-.174-4.931-.999.67 1.655 2.877 1.231 3.108 1.191l2.292 2.926c1.834 2.34.393 5.043-1.555 5.409-1.727-.607-2.848-2.767-2.848-2.767.174-.028.756-.287 1.584-.167-1.473-1.291-3.188-.12-4.219-.855.637 1.388 2.225 1.072 2.314 1.062 1.588 2.501-.059 5.109-2.027 5.187-.001 0-.002 0-.002 0l-.002.001c-1.182-.205-2.42-1.15-3.818-2.12.48-.532.904-1.467.904-1.467 1.404-2.542-.418-4.79-2.299-4.597 1.526.417 2.67 2.365 1.479 4.528l-.523.88c-.568 1.035-1.455 1.66-2.107 1.583-1.004-.122-2.419-1.588-1.824-3.656.23-.21 2.448-3.603 2.448-3.603 1.525-2.456-.187-4.807-2.073-4.727 1.502.507 2.555 2.521 1.26 4.611l-1.803 2.811c-.615.994-1.411 1.557-2.17 1.453-1.178-.16-2.004-1.597-1.815-3.08-.01.009 1.298-1.454 1.298-1.454 1.738-2.271.25-4.807-1.633-4.94 1.447.674 2.309 2.798.832 4.731l-.638.782c-.7.918-1.543 1.385-2.281 1.201-1.288-.323-1.958-2.733-1.349-3.39.479-.517 1.824-2.154 1.824-2.154 1.737-2.272.251-4.807-1.634-4.942 1.448.676 2.31 2.8.833 4.734l-.638.78c-.704.926-1.55 1.391-2.293 1.202-1.548-.392-2.321-2.782-.84-4.722 0 0-.503-1.598-.73-2.281l-.746-.346c1.749-4.075 4.391-13.069 4.513-16.057 1.288.459 4.688 1.437 5.049 1.439l-.002.002c3.66-1.15 7.496-1.023 9.246-1.699.567-.216 1.695-.23 2.891.454-.747.655-1.453 1.435-2.186 2.162-1.752 1.739-8.266 4.451-7.01 7.303 1.084 2.461 4.137 4.979 9.258 1.026l2.88-.396 4.479 2.21 5.74 5.895c2.047 2.098.888 4.946-1.003 5.556m1.44-6.495c-.658-1.23-2.709-3.247-4.645-4.896-.004-.004-.008-.008-.012-.012.893.036 1.83-1.402 3.041-1.513-.846-.646-2.248.1-2.685.218-2.409.648-6.153-2.383-6.153-2.383l-3.582.516c0 0-4.26 5.199-7.849.916-1.949-2.326 5.114-5.364 6.854-7.093 2.229-2.215 4.215-4.925 7.882-3.079 3.046 1.536 4.246 1.441 8.332 2.152 1.218.213 2.062.771 2.967 1.86.426 3.584 1.115 7.559 1.776 10.325-.341.287-3.264 2.253-5.926 2.989"/></svg>