<svg xmlns="http://www.w3.org/2000/svg" viewBox="0 0 64 64" enable-background="new 0 0 64 64"><path d="m49.814 2.054c-2.674-.387-5.672 1.309-6.259 5.282-.489 3.318-1.75 11.499-2.392 15.652-.969-.808-2.25-1.258-3.631-1.258-1.922 0-3.92.908-5.039 2.628-.18-.215-.367-.426-.591-.61-.95-.785-2.227-1.216-3.593-1.216-2.185 0-4.384 1.114-5.226 3.258l-2.423-12.219c-.588-2.065-2.011-3.523-3.906-3.999-1.9-.478-3.995.109-5.339 1.494-1.305 1.345-1.732 3.261-1.178 5.264.172.993 2.77 16.044 3.205 18.759.221 1.363.161 2.731.088 4.464-.101 2.341-.224 5.255.333 9.356 1.019 7.509 7.789 12.637 17.248 13.066.386.017.775.025 1.166.025 8.107 0 17.257-3.772 19.234-12.396 1.188-5.17.274-8.597-1.606-11.181.384-2.932 2.971-22.789 4.021-30.276.518-3.706-1.767-5.756-4.112-6.093m-4.698 5.293c.848-5.745 7.037-4.297 6.421.185l-3.848 28.504c-1.406-1.225-3.012-2.269-4.603-3.298l-.12-.077c0 0 .02-4.028.104-5.422.038-.665-.111-1.75-.485-2.391.001 0 1.906-13.256 2.531-17.501m-5.182 18.874v4.951c-1.274-.256-2.382.042-3.595.38-.771.216-1.65.456-2.74.602l-.327-5.306c-.001-4.482 6.681-3.97 6.662-.627m-15.756 1.189c-.313-4.188 6.281-4.063 6.379-.129v4.969c-1.728.159-3.487 1.158-4.057 3.098-.179.611-.24 1.324-.139 2.059-.984-.583-1.637-1.643-1.637-2.892l-.546-7.105m-9.251 7.5c-.451-2.804-3.438-19.063-3.438-19.063-1.285-4.519 5.657-6.304 6.75-1.999 0 0 3.212 16.56 4.499 22.031.494 2.095 2.503 3.661 4.679 3.941.417.508.963.979 1.673 1.379.014.008.024.021.04.029l.02.009c.904.419 1.907.818 2.973 1.023-2.235 1.249-4.039 3.685-2.945 7.665-.089-6.568 5.296-7.904 7.995-8.062.048.05 2.861 3.18 3.146 3.718.27.509.063 1.8.063 1.8s.587-1.223.337-1.919c-.229-.634-2.205-4.233-3.584-4.836-.707-.311-1.961.375-3.592.055-1.111-.218-2.785-1.058-3.631-1.568-2.828-1.707-2.323-5.567.234-5.391 3.102.215 5.094-.508 6.564-.916 1.716-.48 3.142-.709 4.717.322 0 0 7.408 5.25 8.471 8.844 1.28 5.884-1.971 16.588-17.522 17.5-6.108 0-9.994-1.734-12.313-3.368-2.172-1.772-4.195-4.189-4.638-7.444-.532-3.925-.246-12.185-.498-13.75"/></svg>