<svg xmlns="http://www.w3.org/2000/svg" viewBox="0 0 64 64" enable-background="new 0 0 64 64"><path d="m35 2c-14.91 0-27 12.09-27 27 0 2.935.493 5.748 1.358 8.393-2.176.214-4.603.365-7.358.433 0 0 1.719 12.417 10.967 12.417.613 0 1.259-.055 1.939-.171.374-.063.721-.094 1.043-.094 5.948 0 3.279 10.354 3.279 10.354s4.877-6.306 7.977-6.306c.865 0 1.592.491 2.037 1.745 2.09 5.891 6.834 6.229 6.834 6.229 1.313-1.83 2.384-4.007 3.227-6.352 12.865-2.06 22.697-13.202 22.697-26.648 0-14.91-12.088-27-27-27m.184 57.732c-.883-.343-2.166-1.119-3.2-2.818 1.624-3.437 5.586-13.053 3.127-20.602-.31-.947-4.533 6.007-13.382 17.762-.158-1.484-.556-2.944-1.423-4.063-.397-.514-.868-.931-1.398-1.253 2.633-1.653 10.409-6.963 11.765-12.778.734-3.151-11.016 2.462-23.535 9.237-1.375-1.744-2.194-3.895-2.651-5.476 14.033-.625 19.399-3.446 25.062-6.423 1.391-.731 2.827-1.486 4.398-2.197.53-.24 1.014-.362 1.438-.362.964 0 1.821.72 2.55 2.139 2.903 5.657 2.1 18.967-2.751 26.834m4.828-6.264c3.201-11.102 1.564-24.709-4.628-24.709-.697 0-1.452.172-2.265.54-6.614 2.995-10.319 6.425-21.738 7.87-.89-2.562-1.381-5.308-1.381-8.169 0-13.785 11.215-25 25-25s25 11.215 25 25c0 12.066-8.602 22.137-19.988 24.468"/><path d="m20.514 12.738c-.643.065-.351 2.021.177 1.965 3.797-.345 7.55 1.022 10.237 3.725.369.385 1.848-.926 1.398-1.389-3.101-3.121-7.433-4.697-11.812-4.301"/><path d="m39.074 18.428c2.686-2.702 6.44-4.068 10.236-3.725.527.057.82-1.899.177-1.965-4.378-.396-8.711 1.18-11.813 4.301-.447.463 1.031 1.774 1.4 1.389"/><path d="m44.652 22.783c2.324-1.287 4.773-1.681 7.084-2.026.398-.06.627-.651.143-.938-4.889-2.915-12.84-.583-14.252 5.599-.09.384.27.625.687.582 5.292-.544 9.503.261 13.597 1.747.381.139.805-.413.467-.819-1.505-1.803-4.274-3.573-7.726-4.145"/><path d="m18.121 19.818c-.483.287-.255.879.144.938 2.312.346 4.761.739 7.085 2.026-3.451.572-6.222 2.342-7.725 4.144-.341.406.085.958.464.819 4.097-1.486 8.307-2.291 13.6-1.747.417.043.774-.198.687-.582-1.413-6.181-9.364-8.513-14.255-5.598"/></svg>