<svg xmlns="http://www.w3.org/2000/svg" viewBox="0 0 64 64" enable-background="new 0 0 64 64"><path d="m33.998 4c-15.104 0-27.409 11.961-27.974 26.926-5.105.967-6.06 8.871 1.31 9.631 3.617 11.276 14.185 19.443 26.664 19.443 17.954 0 28.002-12.539 28.002-28 0-15.464-12.536-28-28.002-28m19.274 46.43c-4.648 4.952-11.312 7.57-19.274 7.57-11.286 0-20.91-7.229-24.498-17.297 6.841.367 14.414-.165 21.106-1.358 4.543-1.002 4.502-7.304 0-7.025-.526.032-1.056.051-1.583.073 1.34-1.756 2.146-3.94 2.146-6.315 0-5.758-4.685-10.442-10.443-10.442-5.758 0-10.443 4.685-10.443 10.442 0 1.999.575 3.862 1.553 5.451-1.101-.16-2.202-.334-3.3-.534-.174-.039-.343-.064-.512-.09.577-13.83 12.004-24.905 25.974-24.905 14.337 0 26.002 11.664 26.002 26 0 7.263-2.389 13.808-6.728 18.43m-26.296-17.968c-4.362.094-8.743-.121-13.108-.657-1.299-1.553-2.084-3.55-2.084-5.728 0-4.931 4.012-8.942 8.943-8.942 4.931 0 8.943 4.012 8.943 8.942 0 2.5-1.033 4.76-2.694 6.385"/><circle cx="23.959" cy="28.231" r="3.231"/><path d="m44.963 15.635c-5.76 0-10.444 4.685-10.444 10.443 0 5.758 4.685 10.441 10.444 10.441 5.757 0 10.442-4.684 10.442-10.441 0-5.759-4.685-10.443-10.442-10.443m0 19.385c-4.931 0-8.944-4.011-8.944-8.941 0-4.932 4.014-8.943 8.944-8.943s8.941 4.012 8.941 8.943c0 4.93-4.01 8.941-8.941 8.941"/><path d="m40.655 25c-1.786 0-3.232 1.447-3.232 3.23 0 1.785 1.446 3.232 3.232 3.232 1.782 0 3.23-1.447 3.23-3.232.001-1.783-1.447-3.23-3.23-3.23"/><path d="m32.996 42c-7.956 0-11.34 2.408-12.735 6.002-.743 1.918.321 3.998.321 3.998.418 1.217 2.057 2 12.418 2 10.347 0 11.999-.783 12.415-2 0 0 1.064-2.08.32-3.998-1.392-3.594-4.779-6.002-12.739-6.002m8.977 5.094l-.155.494c-.073.225-.308.412-.528.412h-16.587c-.217 0-.453-.188-.522-.412l-.157-.494c-.07-.227.008-.539.173-.697 0 0 2.009-1.896 8.8-1.896 6.793 0 8.803 1.896 8.803 1.896.165.158.244.47.173.697"/></svg>