<svg xmlns="http://www.w3.org/2000/svg" viewBox="0 0 64 64" enable-background="new 0 0 64 64"><path d="m61.855 19.645c-.547-1.439-2.562-1.541-9.121.691l.001-.001c-.007.002-.013.004-.02.007-.683.232-1.433.499-2.216.783-1.018.348-1.991.66-2.931.949-.007-.007-.015-.015-.022-.021l-.545-1.717c-.116.03-.227.055-.342.084-.297-1.555-1.451-7.311-2.576-8.934-2.139-3.082.256-4.781-1.404-7.576-1.042-1.753-2.021-2.644-3.48-1.152-2.394 2.447-5.156 3.484-7.199 3.484-2.041 0-4.803-1.037-7.197-3.486-1.459-1.492-2.438-.601-3.48 1.152-1.66 2.794.734 4.494-1.404 7.576-1.127 1.623-2.279 7.378-2.576 8.934-.115-.029-.226-.054-.341-.083l-.548 1.718c-.007.007-.014.014-.021.021-.932-.286-1.896-.595-2.906-.94-.801-.29-1.565-.562-2.26-.798-6.556-2.23-8.572-2.129-9.119-.69-1.017 2.676 3.511 12.018 7.691 13.21-.544 1.956-.839 4.015-.839 6.144 0 12.705 10.295 23 23.002 23 12.705 0 22.998-10.295 22.998-23 0-2.129-.295-4.188-.836-6.145 4.18-1.189 8.709-10.534 7.691-13.21m-29.853 40.355c-11.58 0-21.002-9.42-21.002-21 0-5.489 2.135-10.478 5.596-14.223.896.843 1.76 1.725 2.45 2.569 5.076 6.206 20.834 6.206 25.909 0 .69-.844 1.553-1.726 2.449-2.569 3.461 3.744 5.596 8.734 5.596 14.223 0 11.58-9.42 21-20.998 21"/><path d="m39.642 47.936c-4.925 3.601-10.388 3.58-15.281 0-.589-.43-1.12.316-.721 1.005 1.49 2.575 4.503 4.868 8.36 4.868 3.859 0 6.871-2.293 8.361-4.868.401-.689-.131-1.435-.719-1.005"/><path d="m27.017 36.854c0-2.115-1.717-3.832-3.833-3.832-2.117 0-3.834 1.717-3.834 3.832 0 2.119 1.717 3.834 3.834 3.834 2.116 0 3.833-1.715 3.833-3.834"/><circle cx="40.816" cy="36.854" r="3.833"/></svg>