<svg xmlns="http://www.w3.org/2000/svg" viewBox="0 0 64 64" enable-background="new 0 0 64 64"><path d="m62 32c0-16.568-13.432-30-30-30-16.569 0-30 13.432-30 30 0 16.567 13.432 30 30 30 .969 0 1.911-.043 2.836-.109 1.42.07 2.941.109 4.533.109 7.551 0 13.67-.857 13.67-1.912 0-.648-2.318-1.217-5.85-1.563 9.616-5.031 14.811-15.021 14.811-26.525m-16.811 25.285c.031-1.533-.262-3.066-.881-4.504.078-.248.135-.49.164-.721.381-3.02-3.791-6.035-9.318-6.73-5.526-.697-10.315 1.188-10.698 4.211-.207 1.672.357 4.283 3.008 4.617 1.926.242 4.213-1.127 6.684-.816 2.248.285 4.002 1.926 5.758 2.369.143 1.141.105 2.295-.113 3.424-2.439.57-5.043.865-7.793.865-15.44 0-28-12.561-28-28 0-6.569 2.28-12.612 6.082-17.393.28.211.562.323.715.188 3.236-2.732 7.523-3.881 11.691-3.133.58.113 1.092-2.021.389-2.156-2.873-.516-5.789-.234-8.471.734 4.811-3.898 10.932-6.24 17.594-6.24 15.44 0 28 12.561 28 28 0 7.819-2.572 14.866-7.246 19.844-2.143 2.285-4.688 4.103-7.565 5.441"/><path d="m20.5 18.25c-5.928 0-10.75 4.822-10.75 10.75 0 5.928 4.822 10.75 10.75 10.75s10.75-4.822 10.75-10.75c0-5.928-4.823-10.75-10.75-10.75m0 20c-5.101 0-9.25-4.148-9.25-9.25 0-5.1 4.149-9.25 9.25-9.25s9.25 4.149 9.25 9.25c0 5.102-4.15 9.25-9.25 9.25"/><circle cx="20.5" cy="29" r="3.5"/><path d="m43.5 18.25c-5.928 0-10.75 4.822-10.75 10.75 0 5.928 4.822 10.75 10.75 10.75s10.75-4.822 10.75-10.75c0-5.928-4.822-10.75-10.75-10.75m0 20c-5.1 0-9.25-4.148-9.25-9.25 0-5.1 4.15-9.25 9.25-9.25 5.102 0 9.25 4.149 9.25 9.25 0 5.102-4.148 9.25-9.25 9.25"/><circle cx="43.5" cy="29" r="3.5"/><path d="m54.617 17.271c-3.734-3.154-8.682-4.479-13.492-3.615-.703.135-.193 2.27.387 2.156 4.168-.748 8.457.4 11.691 3.133.445.387 1.955-1.205 1.414-1.674"/></svg>