<svg xmlns="http://www.w3.org/2000/svg" viewBox="0 0 64 64" enable-background="new 0 0 64 64"><path d="M32,2C15.432,2,2,15.432,2,32s13.432,30,30,30c16.571,0,30-13.432,30-30S48.57,2,32,2z M32,60C16.561,60,4,47.439,4,32
		S16.561,4,32,4c15.44,0,28,12.561,28,28S47.439,60,32,60z"/><circle cx="20.502" cy="26.967" r="4.5"/><circle cx="43.504" cy="26.967" r="4.5"/><path d="m36.791 40.692h-9.579c-.336-2.719-1.727-4.923-3.555-5.73 1.021 1.961 1.633 4.377 1.633 7 0 2.625-.611 5.041-1.633 7.001 1.829-.807 3.22-3.014 3.555-5.733h9.579c.334 2.72 1.723 4.927 3.553 5.733-1.021-1.96-1.631-4.376-1.631-7.001 0-2.623.609-5.039 1.631-7-1.828.808-3.217 3.012-3.553 5.73"/><path d="m26.992 17.58c.541-.469-.971-2.061-1.414-1.674-3.236 2.732-7.524 3.881-11.694 3.133-.578-.113-1.088 2.021-.385 2.156 4.809.864 9.756-.461 13.493-3.615"/><path d="m50.113 18.887c-4.168.748-8.455-.4-11.691-3.133-.443-.389-1.955 1.205-1.412 1.674 3.732 3.152 8.68 4.479 13.492 3.615.703-.135.191-2.27-.389-2.156"/></svg>