<svg xmlns="http://www.w3.org/2000/svg" viewBox="0 0 64 64" enable-background="new 0 0 64 64"><path d="m33.646 2c-11.85 0-13.004 4.494-13.004 4.494s-15.347-.414-15.347 21.817v26.159c-1.117 2.337-2.233 4.85-3.295 7.53h3.295 13 43.705v-33.689c0-14.956-10.014-26.311-28.354-26.311m-21.471 16.792c.312-.215.66-.324 1.023-.324 1.311 0 2.823 1.41 3.559 4.323.556 2.216.674 3.07 1.691 3.805l6.547-12.113c.605-1.025 1.368-1.456 2.04-1.456 1.212 0 2.128 1.401 1.292 3.238l-4.812 9.437 6.084-10.192c.584-1.074 1.507-1.558 2.341-1.558 1.366 0 2.494 1.299 1.505 3.429l-5.819 10.157 5.66-8.747c.69-1.065 1.48-1.49 2.154-1.49 1.245 0 2.09 1.452 1.162 2.991l-4.845 9.137 4.569-6.583c.5-.775 1.119-1.094 1.68-1.094 1.132 0 2.021 1.304 1.189 2.764 0 0-7.598 14.666-10.648 17.033-1.054.816-2.463 1.207-3.994 1.207-5.088 0-11.53-4.316-10.814-11.727.186-1.915-.526-3.795-.932-5.898-.49-2.536-2.207-5.253-.632-6.339m.188 13.788c.109-.028.218-.066.328-.1.065 2.485.886 4.424 1.843 5.859-.66.951-1.756 2.584-3.101 4.788-.961-.953-1.905-2.599-1.905-5.399-.001-4.529 2.692-5.119 2.835-5.148m4.969 28.42h-13.85c4.427-10.765 9.667-18.866 11.681-21.807.14.173.281.342.419.494 1.675 1.846 3.978 3.17 6.373 3.745-3.725 6.995-4.478 14.831-4.623 17.568m3.713 0v-5.582c3.01 2.472 6.414 4.613 9.441 5.582h-9.441m25.205 0h-9.489c3.048-.965 6.467-3.096 9.489-5.557v5.557m7.682-16.637l-.377.096v.389c0 3.344-12.478 15.705-19.949 15.705-4.122 0-9.804-3.861-14.025-7.852.691-2.875 1.758-6.074 3.395-9.077.527.078 1.057.132 1.58.132 1.816 0 3.41-.49 4.606-1.417 2.08-1.614 5.861-8.06 8.401-12.659 4.59 1.619 10.412 2.906 17.43 2.916.379.131 2.689 1.097 2.689 5.133 0 5.578-3.6 6.593-3.75 6.634"/><ellipse cx="33.603" cy="55.219" rx="3.999" ry="3"/><path d="m48.672 40.156c-2.734 2.148-7.157 1.951-9.638.002-.432.293-.786.41-.651.668 2.726 5.146 8.214 5.145 10.941 0 .135-.258-.219-.375-.652-.67"/></svg>