<svg xmlns="http://www.w3.org/2000/svg" viewBox="0 0 64 64" enable-background="new 0 0 64 64"><path d="m38.001 10c-5.108 0-9.84 1.602-13.731 4.322.042-.932-.069-1.814-.368-2.594-.197-.516-.692-1.048-1.315-1.542-.058-.693-.197-1.353-.431-1.961-.37-.964-1.586-1.975-2.924-2.788-.193-.777-.965-1.49-1.876-2.042-.934-.803-2.386-1.335-3.301-1.395-.006 0-.012 0-.018 0-1.645 0-11.447 14.006-11.988 15.9-.317 1.12.989 3.301 2.372 4.041.572.512 1.19.883 1.755.961.21.028.424.036.641.033.918.858 1.928 1.562 2.766 1.785.973.261 1.955.263 2.921.067.37.238.731.417 1.06.505.675.182 1.355.208 2.029.117-1.023 2.668-1.589 5.562-1.589 8.59 0 2.933.528 5.742 1.491 8.34-.036-.001-.064-.006-.101-.007-.198-.339-.372-.585-.508-.702-.949-.822-5.352-.357-6.869.9-.01.008-.019.018-.029.027-1.517.012-3.336.42-4.164 1.172-4.568 4.154.244 16.404 5.742 18.174.205.067.436.097.685.097 1.66 0 4.106-1.336 5.108-2.266.005-.004.007-.012.012-.017 1.619-.428 3.474-1.441 4.354-2.186.204-.173.283-.584.269-1.157.358-.217.678-.434.906-.627.563-.477-.005-3.095-.888-5.87 4.396 4.978 10.823 8.12 17.988 8.12 13.256.001 24-10.741 24-23.997 0-13.254-10.744-24-23.999-24m-27.75 50c-.043 0-.071-.003-.078-.003-.002 0-.003.001-.002.001-2.361-.766-4.999-4.702-5.882-8.781-.59-2.725-.262-4.971.878-6.007.145-.132.615-.327 1.254-.47-1.93 4.689 1.385 12.419 5.794 14.653-.728.349-1.481.607-1.964.607m7.921-3.492c-.137.576-.711 1.213-1.234.574-.237-.287-.501-.704-.78-1.209.184.662.284 1.114.256 1.232-.137.576-.711 1.213-1.234.576-1.832-2.228-5.28-11.937-4.725-14.161.164-.668 1.252-.186 1.66.615.027.053.063.133.103.225-.074-.604-.088-1.108-.007-1.436.164-.668 1.254-.188 1.66.613.586 1.152 4.459 12.301 4.301 12.971m-7.372-40.036c-2.403 2.752-4.334 3.732-5.34 3.732-.021 0-.041-.001-.061-.002-.467-.179-1.278-1.27-1.387-1.844.961-2.23 8.203-12.355 10.394-14.278.756.199 1.642.695 1.85 1.02.241 2.213-1.87 7.266-5.456 11.372m27.201 39.526c-12.131 0-21.999-9.868-21.999-21.998 0-3.413.781-6.646 2.174-9.532 2.431-1.444 4.502-4.263 5.488-7.133 3.854-3.32 8.862-5.335 14.337-5.335 12.131 0 21.999 9.869 21.999 22 0 12.13-9.868 21.998-21.999 21.998"/><path d="m35.649 20.029c-3.989-3.088-15.65.545-15.65 13.971s11.661 17.059 15.65 13.971c.416-.32.346-.889.346-1.51 0-12.459 0-12.459 0-24.922 0-.619.07-1.188-.346-1.51m-12.983 20.059c-.766-1.76-1.215-3.789-1.215-6.088s.449-4.33 1.215-6.089c.826 1.698 1.33 3.719 1.33 6.089 0 2.369-.506 4.391-1.33 6.088m11.334 5.693c0 1.617-3 1.617-3 .043 0-8.213 0-15.438 0-23.647 0-1.576 3-1.576 3 .041 0 11.782 0 11.782 0 23.563"/><path d="m40.666 19.286c-.412-.147-1.155.618-.751 1.003 1.521 1.44 2.127 3.165 2.127 4.963 0 1.799-.605 3.523-2.127 4.965-.404.383.339 1.151.751 1.004 4.089-1.488 6.135-3.729 6.135-5.969 0-2.239-2.046-4.481-6.135-5.966"/><path d="m40.666 36.779c-.412-.146-1.155.619-.751 1.004 1.521 1.441 2.127 3.164 2.127 4.965 0 1.799-.605 3.521-2.127 4.965-.404.383.339 1.15.751 1.004 4.089-1.488 6.135-3.729 6.135-5.969 0-2.242-2.046-4.48-6.135-5.969"/></svg>