<svg xmlns="http://www.w3.org/2000/svg" viewBox="0 0 64 64" enable-background="new 0 0 64 64"><path d="m62 26.407c0-2.913-1.547-5.458-3.859-6.877.314-.883.496-1.831.496-2.822 0-4.593-3.689-8.319-8.266-8.39-1.305-2.462-3.889-4.142-6.871-4.142-1.49 0-2.879.427-4.063 1.155-1.619-2.01-4.345-3.331-7.437-3.331s-5.816 1.321-7.438 3.333c-1.184-.728-2.57-1.155-4.063-1.155-2.981 0-5.566 1.679-6.87 4.142-4.576.07-8.266 3.796-8.266 8.39 0 .991.181 1.939.496 2.822-2.311 1.418-3.859 3.962-3.859 6.875 0 1.979.715 3.791 1.897 5.194-.489.946-.77 2.017-.77 3.153 0 2.643 1.491 4.936 3.676 6.09-.03.26-.05.525-.05.795 0 3.311 2.337 6.074 5.45 6.732 2.268 7.354 6.977 9.434 14.021 12.54l.375.165c1.819.804 4.166.924 5.402.924 1.237 0 3.583-.12 5.401-.923l.376-.166c7.042-3.105 11.751-5.186 14.019-12.539 3.113-.659 5.449-3.422 5.449-6.732 0-.27-.02-.535-.049-.795 2.184-1.154 3.676-3.447 3.676-6.09 0-1.137-.281-2.207-.77-3.153 1.182-1.404 1.897-3.215 1.897-5.195m-11.129 16.706c-.279 2.071-.672 3.788-1.174 5.266-.004 0-.006.001-.008.001-2.09 6.14-6.199 7.884-13.117 10.937-1.129.499-2.85.748-4.571.748-1.721 0-3.442-.249-4.571-.748-6.913-3.05-11.02-4.801-13.11-10.925-.003.001-.007 0-.011 0-.505-1.48-.898-3.202-1.178-5.278-3.369-.231-4.368-2.393-4.368-5.028 0-4.232 1.961-4.555 3.48-4.17.138.884.324 1.713.583 2.184.464.842 1.41 1.32 1.41 1.32s-.255-.914-.162-3.316c1.353-19.236 3.695-10.614 17.928-10.614 14.234 0 16.578-8.623 17.926 10.636.092 2.391-.164 3.295-.164 3.295s.947-.479 1.41-1.32c.258-.471.447-1.3.584-2.184 1.52-.385 3.48-.063 3.48 4.17 0 2.634-.998 4.795-4.367 5.026"/><path d="m42.165 44.56c-1.138 0-2.786.326-4.478.721.587-.957.93-2.068.93-3.262 0-3.537-2.963-6.404-6.617-6.404s-6.617 2.867-6.617 6.404c0 1.193.343 2.306.93 3.262-1.691-.395-3.34-.721-4.478-.721h-.001c-1.117 0-1.824.338-2.101 1.006-.441 1.068.591 2.219 1.658 3.204.938.867 1.603 2.175 2.307 3.559 1.44 2.836 3.234 6.365 8.302 6.365 5.066 0 6.859-3.528 8.301-6.364.704-1.385 1.369-2.691 2.309-3.56 1.067-.985 2.099-2.136 1.656-3.203-.276-.67-.983-1.007-2.101-1.007m-.245 3.509c-3.191 2.945-3.238 9.656-9.92 9.656s-6.729-6.711-9.918-9.656c-2.086-1.925-1.704-2.543-.248-2.543 1.296.001 3.439.49 5.452.984 1.2 1.18 2.868 1.912 4.714 1.912s3.514-.732 4.715-1.913c2.012-.494 4.155-.983 5.45-.983 1.456 0 1.839.62-.245 2.543"/><path d="m40.258 47.228c-1.396 0-5.807 1.697-8.258 1.697s-6.861-1.697-8.258-1.697c-.616 0-.646.332.34 1.284 3.291 3.186 2.836 7.103 7.918 7.133 5.084-.03 4.627-3.947 7.92-7.133.984-.953.955-1.284.338-1.284m-8.265 7.449c-1.187-.007-1.977-.254-2.599-.685.475-.398 1.295-.849 2.605-.849 1.309 0 2.129.449 2.605.848-.624.432-1.417.679-2.611.686m5.475-4.975c-.88.749-4.042 1.146-5.468 1.146s-4.587-.397-5.468-1.146c-.278-.236-.378-.633-.411-.985.145.039.285.075.432.115 1.834.497 3.913 1.062 5.447 1.062 1.533 0 3.613-.564 5.449-1.062.145-.04.285-.076.43-.115-.033.353-.133.749-.411.985"/><path d="m27.697 35.134c0-11.921-10-11.921-10 0 0 3.562 10 3.562 10 0m-8.345.051c0-9.537 8-9.537 8 0 0 2.849-8 2.849-8 0"/><ellipse cx="23.676" cy="33.449" rx="2.5" ry="3.386"/><path d="m36.301 35.134c0 3.563 10 3.563 10 0 0-11.921-10-11.921-10 0m.347.051c0-9.537 8-9.537 8 0 0 2.849-8 2.849-8 0"/><path d="m40.291 30.063c-1.381 0-2.5 1.516-2.5 3.386 0 1.874 1.119 3.39 2.5 3.39s2.5-1.516 2.5-3.39c0-1.87-1.119-3.386-2.5-3.386"/></svg>