<svg xmlns="http://www.w3.org/2000/svg" viewBox="0 0 64 64" enable-background="new 0 0 64 64"><path d="m39.377 50.035c-3.682 0-11.063 0-14.744 0-.82 0-.82.859-.82.859 0 3.424 4.092 5.141 8.191 5.141 4.102 0 8.193-1.717 8.193-5.141 0 .001 0-.859-.82-.859"/><path d="m25.629 34.375c0-.502-.103-.977-.269-1.421.939.681 1.696 1.596 2.095 2.786 0-7.283-12.753-7.283-12.753-.906.597-1.485 1.973-2.477 3.612-2.961-.542.694-.878 1.556-.878 2.502 0 2.264 1.837 4.1 4.101 4.1 2.256 0 4.092-1.836 4.092-4.1"/><path d="m36.555 35.74c.398-1.191 1.156-2.106 2.096-2.787-.166.444-.27.92-.27 1.422 0 2.264 1.836 4.1 4.09 4.1 2.266 0 4.102-1.836 4.102-4.1 0-.946-.336-1.808-.878-2.502 1.641.484 3.017 1.476 3.612 2.961 0-6.377-12.752-6.377-12.752.906"/><path d="m32.004 47.035c3.344 0 5.018-3 3.344-3-1.672 0-5.014 0-6.688 0-1.672 0 0 3 3.344 3"/><path d="m57.371 26.165l.193-1.713.332-2.969 2.104-2.077-1.691-1.601 1.223-10.913.468-4.187-3.545 2.398-4.377 2.962-.631-.604-4.039-3.866-1.414-1.354-1.408 1.36-4 3.866-.107.104c-1.346-.224-2.751-.367-4.173-.477l-2.784-3.299-1.516-1.795-1.519 1.796-2.789 3.301c-1.423.108-2.828.254-4.175.477l-.109-.105-4-3.866-1.414-1.369-1.414 1.367-4 3.866-.637.615-4.404-2.978-3.545-2.399.47 4.188 1.223 10.913-1.693 1.6 2.104 2.077.332 2.969.192 1.713h1.764.426c-.178 1.712-.304 3.563-.38 5.599-1.357.328-2.928 1.558-2.928 5.504 0 4.46 2.512 5.928 4.915 6.311 1.327 8.039 6.063 13.15 16.145 17.513 1.309.576 3.289.908 5.435.908s4.126-.332 5.429-.906c10.088-4.371 14.824-9.481 16.15-17.516 2.408-.384 4.924-1.852 4.924-6.311 0-3.955-1.582-5.183-2.947-5.507-.076-2.033-.202-3.884-.379-5.596h.426 1.763zm-11.371-21.196l4.039 3.866h-2.039v.848c-1.525-.673-3.273-1.225-5.166-1.653l3.166-3.061m-28 0l3.169 3.062c-1.894.429-3.643.982-5.169 1.655v-.851h-2l4-3.866m38.508 32.299c0 2.908-1.194 4.288-3.873 4.474l-.814.056-.105.781c-1.064 7.809-5.299 12.506-15.106 16.755-1.041.459-2.762.733-4.604.733s-3.563-.274-4.61-.737c-9.8-4.24-14.033-8.937-15.099-16.751l-.106-.781-.813-.056c-2.673-.185-3.865-1.564-3.865-4.474 0-2.438.617-3.675 1.832-3.675.038 0 .076.001.115.003.171.891.378 1.544.628 1.982.645 1.142 1.836 1.763 1.97 1.83l1.731.867-.282-1.866c-.002-.017-.268-1.812-.167-4.248.184-2.571.362-4.513.596-5.996h36.144c.232 1.483.41 3.426.592 5.997.102 2.445-.164 4.229-.166 4.247l-.284 1.868 1.733-.869c.135-.067 1.329-.69 1.95-1.815.259-.44.458-1.056.641-1.997 1.303-.063 1.962 1.157 1.962 3.672m-48.115-13.025l-1.968-17.558 7.87 5.326-1.968 1.747v1.747h15.739v-1.747l-1.968-1.747 5.905-6.99 5.898 6.99-1.967 1.747v1.747h15.738v-1.747l-1.968-1.747 7.87-5.326-1.969 17.559h-47.212z"/><path d="m30 19.406l2.027 2.961 1.973-2.961-1.973-2.838z"/><path d="m12.334 19.406l2.031 2.961 1.969-2.961-1.969-2.838z"/><path d="m21.167 19.406l2.036 2.961 1.964-2.961-1.964-2.838z"/><path d="m38.834 19.406l2.035 2.961 1.965-2.961-1.965-2.838z"/><path d="m47.667 19.406l2.027 2.961 1.973-2.961-1.973-2.838z"/></svg>