<svg xmlns="http://www.w3.org/2000/svg" viewBox="0 0 64 64" enable-background="new 0 0 64 64"><circle cx="33.534" cy="15.833" r=".487"/><path d="m35.507 16.25c.27-.009.48-.233.471-.502-.01-.271-.233-.479-.507-.471-.268.01-.478.233-.47.505.01.267.235.477.506.468"/><path d="m33.618 18.263c-.267.011-.48.234-.473.503.013.27.237.479.508.47.27-.01.481-.235.471-.503-.008-.269-.232-.479-.506-.47"/><circle cx="35.591" cy="18.681" r=".487"/><path d="m33.097 17.309c-.011-.271-.237-.479-.507-.47-.269.011-.479.234-.47.503.007.27.234.479.503.471.272-.01.481-.236.474-.504"/><circle cx="34.563" cy="17.257" r=".487"/><circle cx="36.518" cy="17.189" r=".486"/><ellipse transform="matrix(.0346.9994-.9994.0346 62.1363 9.6518)" cx="26.072" cy="36.988" rx="1.468" ry="1.093"/><ellipse transform="matrix(.0346.9994-.9994.0346 67.4989 1.1668)" cx="33.146" cy="35.521" rx="1.468" ry="1.095"/><path d="m58.188 55.462c-.126.012-.18.017 0 0"/><path d="m35 55.452c.078-.008.188-.019.319-.031-.083.008-.209.02-.319.031"/><path d="m57.714 51.683c-2.368 0-2.719-1.206-4.285-1.206s-1.919 1.206-4.286 1.206c-2.368 0-2.719-1.206-4.285-1.206s-1.919 1.206-4.286 1.206c-.3 0-.565-.02-.807-.054-1.121-3.762-.565-7.847-.002-11.837.262-1.859.511-3.623.588-5.332l7.965-5.154c.59-.377 1.033-.909 1.285-1.544l2.363-5.995c3.71-.039 7.09-2.034 8.839-5.239 1.264-2.314 1.537-4.971.771-7.479-.779-2.554-2.535-4.646-4.944-5.896-1.456-.755-3.09-1.153-4.727-1.153-3.753 0-7.182 2.011-8.948 5.25-.342.625-.604 1.276-.801 1.943-1.614-3.898-5.396-6.673-9.706-6.673-4.043 0-8.481 2.248-10.358 7.438-1.044 1.757-1.305 3.634-1.44 4.702l-.024.189c-.115.165-.477.54-1.571 1.345-1.17.863-1.037 1.887-.927 2.285.266.951 1.208 1.6 2.071 1.906-.04.327-.043.791.287 1.22.062.081.127.15.198.212-.092.201-.147.42-.152.653-.01.434.14.988.784 1.468-.091.672-.063 1.513.441 2.245.527.764 1.428 1.211 2.675 1.326.935.087 2.119-.023 3.534-.294-.049.792-.314 1.555-.554 2.102l-8.802 2.313c-1.046.226-1.903.882-2.343 1.776l-5.084 9.406c-1.909-.196-2.387 1.11-3.656 4.471-.444 1.173-.458 2.226-.04 3.128.131.282.349.608.666.932-.472.19-1.044.34-1.868.34-2.366 0-4.285-1.206-4.285-1.206v11.523h60v-11.523c0 0-1.919 1.206-4.286 1.206m-5.044-31.445c-.27.024-.538.054-.813.054-1.132 0-2.256-.232-3.306-.657 4.149-2.466 4.221-6.154 4.103-7.438.318-.232.897-.583 1.693-.82.038 1.465-.107 4.872-1.677 8.861m4.853-2.02c-.916.775-1.985 1.358-3.152 1.702 1.426-4.026 1.499-7.384 1.435-8.792.552-.021 1.163.049 1.821.215.239.831.727 3.273-.104 6.875m1.98-2.401c-.029.053-.067.1-.097.151.16-1.701.042-3.055-.129-3.986.387.196.788.448 1.196.73-.11 1.073-.436 2.126-.97 3.105m.653-6.338c.151.495.25.996.306 1.5-4.3-2.485-7.621-.67-8.697.083-.361-.158-.964-.482-1.572-1.058 1.245-.782 4.335-2.397 8.791-2.903.509.718.91 1.516 1.172 2.378m-5.686-5.597c.508.155 1.005.342 1.477.585.685.355 1.301.796 1.851 1.298-4.37.667-7.347 2.318-8.547 3.106-.287-.459-.534-1.019-.715-1.666.596-.613 2.446-2.237 5.934-3.323m-6.167.371c.943-.42 1.969-.666 3.033-.733-1.386.669-2.395 1.381-3.07 1.951-.019-.377.002-.789.037-1.218m-4.047 3.707c.625-1.148 1.507-2.102 2.544-2.841.057 4.824 3.241 6.739 4.422 7.278.041.399.06 1.101-.148 1.932-1.3-.585-4.33-2.277-7.014-5.965.064-.135.123-.272.196-.404m-.786 2.061c2.757 3.465 5.727 5.085 7.078 5.671-.254.469-.612.948-1.075 1.416-.853-.214-3.297-1.045-6.082-3.671-.221-1.14-.188-2.298.079-3.416m4.624 8.189c-.331.213-.708.412-1.108.604-.996-.662-1.822-1.513-2.447-2.499 1.407.997 2.651 1.574 3.555 1.895m-5.335-2.053c.646 1.328 1.573 2.491 2.741 3.411l-1.74 4.413-6.127 2.651-1.442.379.244-2.631c1.877-.896 5.388-3.202 6.324-8.223m-8.295-1.818c.034-.001.068-.002.103-.002 1.572 0 2.875 1.239 2.93 2.817.055 1.608-1.21 2.963-2.83 3.019-.036.001-.071.002-.107.002-1.574 0-2.875-1.241-2.928-2.816-.06-1.611 1.209-2.963 2.832-3.02m-9.921 11.98c-2.514-.233-2.161-1.952-1.865-3.008-2.132-.795-.162-1.766.858-2.171-.236.124-.553.299-.861.499-.712.464-.535.896.686.42.577-.223 2.059-1.291 2.059-1.291s-2.406.387-3.496.286c-1.037-.097-.228-.683-.54-1.663-.071.007-.149.007-.235 0-.987-.093-2.777-1.207-1.387-2.232.676-.498 1.954-1.453 2.033-2.032.126-.913.305-2.666 1.211-4.31.377.022 5.063.379 8.193 4.439-.385.641-.581 1.375-.555 2.138.06 1.774 1.196 3.183 3.122 3.688-.42 1.114-1.634 3.848-3.623 4.397-2.669.739-4.44.948-5.6.84m10.861-5.004l-.445 6.02-4.346 1.142c1.334-1.183 3.511-4.302 4.791-7.162m-26.491 26.493c1.081-2.862 1.392-3.53 1.966-3.53.141 0 .314.024.533.076l.552.131 5.62-10.4c.251-.51.739-.876 1.371-1.014l19.108-5.019 6.848-2.956 1.851-4.688c.124.07.242.148.37.215 1.024.53 2.141.874 3.281 1.037l-2.189 5.557c-.137.343-.38.633-.708.843l-8.62 5.578-.011.389c-.053 1.749-.313 3.6-.589 5.561-.518 3.674-1.063 7.666-.207 11.474-.562-.295-1.038-.583-1.804-.583-1.566 0-1.918 1.206-4.285 1.206s-2.721-1.206-4.287-1.206c-1.33.001-1.794.864-3.351 1.126.324-3.206.276-6.467.208-9.481-.05-2.188-.097-4.253.02-6.016l.075-1.131-3.987 1.441-5.063 9.221.428.393c.269.246.359.627.234.964l-.436 1.146c-.129.334-.439.572-.792.608l-.421.042-.177.383c-.506 1.089-1.104 1.734-1.84 2.002-.671-.33-1.172-.698-2.039-.698-.368 0-.666.07-.941.172-.437-.291-.683-.606-.799-.859-.244-.531-.217-1.197.081-1.984m8.521-2.409l4.273-7.779 1.352-.489c-.049 1.546-.01 3.246.031 5.024.069 3.027.134 6.31-.209 9.492-1.871-.173-2.306-1.171-3.738-1.171-1.566 0-1.918 1.206-4.285 1.206-.131 0-.234-.016-.354-.023.418-.402.8-.896 1.123-1.521.721-.211 1.323-.756 1.598-1.47l.438-1.154c.267-.716.172-1.495-.229-2.115m17.973 10.013c-4.874 1.886-13.035-1.437-18.458-1.147 6.976-2.451 11.656 1.816 18.458 1.147m-30.1 3.416c7.016-2.374 11.641 1.828 18.459 1.148-4.866 1.862-13.055-1.401-18.459-1.148m23.284 0c7.013-2.384 11.644 1.832 18.459 1.148-4.836 1.872-13.075-1.399-18.459-1.148m11.641-4.563c6.984-2.437 11.655 1.813 18.461 1.147-4.892 1.881-13.021-1.437-18.461-1.147"/><path d="m34.935 55.458c-.156.016-.232.023 0 0"/><path d="m24.142 13.877c-.575-.054-.802.595-.879 1.419-.076.82.027 1.504.604 1.557.577.053 1.106-.572 1.183-1.392.074-.823-.331-1.531-.908-1.584"/></svg>