<svg xmlns="http://www.w3.org/2000/svg" viewBox="0 0 64 64" enable-background="new 0 0 64 64"><path d="m60.978 45.447c-1.78-2.189-2.593-3.189-3.688-3.189-.17 0-.342.027-.519.08l-5.545-5.646-4.67-2.602c.226-.525.443-1.037.637-1.502 0 0-6.388 1-10.056-5.693l4.607-4.833c-.109-.174-.222-.339-.335-.505 1.209-1.161 2.533-2.526 3.546-3.816.093-.119.227-.227.37-.351.452-.387 1.071-.917 1.346-1.919.929-3.439 2.635-8.066 2.877-8.717 2.238-.361 4.94-2.638 5.166-4.752h-9.033c-.857.02-1.44 1.855-1.069 3.267l.021.006c-.188.78-.74 1.616-1.326 2.5-.757 1.143-1.54 2.325-1.757 3.675-.146.924-1.336 1.851-1.58 1.979-1.475.779-2.818 1.901-3.902 2.966-.063-.038-.105-.063-.105-.063s-3.509 3.285-4.521 3.391c-1.001.102-5.298-1.788-5.298-1.788-.154.124-.297.256-.44.387-1.828-.653-4.191-1.354-6.304-1.523-.343-.023-.73-.051-1.32-.705-.905-1.002-2.254-1.779-3.558-2.53-.998-.576-1.942-1.119-2.531-1.683l-.044-.042c-.538-1.775-2.587-2.093-3.313-1.639l-6.634 5.37c1.363 1.675 4.883 1.445 6.931.43.949.677 4.077 2.994 6.042 5.48.647.815 1.429 1.059 1.998 1.236.181.056.345.102.477.174 1.376.752 3.065 1.429 4.609 1.975-.062.264-.088.419-.088.419 3.13 2.183 5.894 2.608 5.894 2.608s-1.949 3.194-2.254 8.257c-.55.734-2.054 2.861-3.298 5.688 0 0 .192.076.497.215-.507 1.217-1.252 3.203-1.253 4.354-.003 1.479 1.434 8.572 1.434 8.572.227 1.125.352 1.744-1.152 2.826-.912.658-1.965.951-2.811 1.189-1.02.285-1.983.555-1.983 1.477-.001 1.53 1.957 1.53 4.436 1.53 1.022 0 2.05-.375 2.956-.707.689-.252 1.341-.49 1.801-.49.242 0 .352.068.413.121 1.281 1.076 2.778 1.076 4.227 1.076.488 0 .921-.182 1.218-.514.259-.289.402-.678.402-1.092 0-.805-.569-1.662-1.622-1.662-.84 0-2.438-2.363-2.72-3.529-.211-.879-1.415-7.758-1.48-8.178l.815-1.309c.099.168.188.338.265.516 0 0 2.109-3.674 3.725-5.959l.636.707c-1.859 1.883-3.52 4.758-3.081 7.545-.805.547-1.539 1.564-.832 3.379.625 1.609 1.462 1.908 2.027 1.875 1.631 4.018 3.493 6.682 7.172 6.682 1.419 0 3.115-.387 5.186-1.178 7.622-2.863 7.895-6.814 5.727-12.66.469-.566.482-1.428.041-2.563-.631-1.619-1.69-1.959-2.47-1.959-.138 0-.282.01-.428.031-1.578-2.375-4.769-3.336-7.314-3.477l-.021-.857c3.229.717 6.182 1.924 6.182 1.924s-.015-.531.065-.709l3.526 1.842 4.526 4.881-.037.031c-.913.797-1.037 2.209-.272 3.146l.767.945c.457.559 1.154.859 1.871.797.985.975 1.971 1.451 3.004 1.451.93 0 1.857-.4 2.756-1.186 1.806-1.568 1.981-3.615.468-5.473m-38.596-21.73c-1.479-.525-3.078-1.167-4.358-1.868-.214-.118-.448-.19-.696-.268-.49-.152-.998-.311-1.417-.837-1.938-2.451-4.851-4.676-6.053-5.546l1.78-2.055c.643.5 1.444.962 2.283 1.446 1.224.705 2.489 1.434 3.268 2.296.911 1.012 1.701 1.067 2.186 1.101 1.75.14 3.758.705 5.421 1.276-1.277 1.514-2.017 3.239-2.414 4.455m3.046 23.054c0 0 .894 5.908 1.564 8.707.268 1.105 2.069 4.441 3.882 4.441.415 0 .427.426.427.475 0 .121-.036.232-.1.303-.025.029-.104.115-.325.115-1.347 0-2.509 0-3.456-.797-.316-.266-.715-.4-1.185-.4-.673 0-1.421.273-2.213.563-.853.313-1.733.635-2.544.635-1.213 0-3.047 0-3.269-.262.11-.127.704-.293 1.139-.414.888-.248 2.103-.588 3.188-1.369 2.126-1.531 1.87-2.797 1.622-4.021 0 0-1.412-6.982-1.41-8.338.002-.863.621-2.576 1.13-3.818.891.49 1.988 1.205 2.838 2.117l-1.288 2.063m15.101-32.294c.313-.166 1.96-1.328 2.199-2.843.176-1.096.887-2.168 1.574-3.206.52-.783 1.015-1.531 1.312-2.305l2.621.739c-.536 1.468-1.912 5.317-2.717 8.297-.179.65-.582.996-.973 1.33-.198.17-.385.33-.533.522-.933 1.187-2.166 2.464-3.313 3.572-1.295-1.648-2.682-2.816-3.62-3.505.988-.952 2.172-1.927 3.45-2.601m-5.052 22.658c.396 0 .774.07 1.133.186l.031 1.344c-.707.057-1.336.184-1.842.381-.473.184-1.012.51-1.564.938l-.985-1.096c.711-1.056 1.881-1.753 3.227-1.753m9.329 5.896l.149.273.303-.086c1.04-.297 1.701.078 2.143 1.213.374.961.336 1.535-.112 1.709-.02.008-.041.016-.063.023-.224-.359-.389-.564-.519-.66-.431-.398-.979-.434-1.039-.438l-.706-.031.346.617c.004.006.376.672.702 1.611 1.031 3.287.918 3.641.302 3.879-.311.121-.771.203-1.356.309-1.144.205-2.711.484-4.818 1.307-2.109.82-3.453 1.672-4.437 2.295-.501.318-.896.57-1.206.689-.614.24-.937.055-2.394-3.053-.398-.922-.576-1.666-.577-1.674l-.161-.689-.499.504c-.043.041-.422.439-.467.986-.034.191-.017.453.06.873-.493.229-.912-.15-1.303-1.154-.441-1.137-.207-1.859.762-2.344l.28-.141-.075-.305c-.936-3.787 3.099-7.988 5.051-8.748 1.951-.758 7.763-.389 9.634 3.035m14.916 6.998c-.676.59-1.338.891-1.969.891-.762 0-1.532-.428-2.355-1.307l-.242-.258-.346.09c-.367.094-.762-.039-1.004-.334l-.766-.943c-.365-.449-.307-1.125.131-1.506l.959-.836-5.427-5.852-3.848-2.039c.34-.756.781-1.744 1.227-2.76l4.351 2.408 6.072 6.184.394-.201c.156-.08.283-.119.391-.119.526 0 1.366 1.033 2.76 2.746 1.398 1.719.595 3.034-.328 3.836"/><path d="m42.114 47.869c.762-.297 1.146-1.137.847-1.906-.301-.771-1.152-1.131-1.914-.834s-1.143 1.137-.843 1.906c.3.772 1.149 1.131 1.91.834"/><path d="m34.307 47.752c-.763.297-1.146 1.137-.846 1.908.299.771 1.15 1.131 1.913.834s1.146-1.137.845-1.908c-.299-.77-1.15-1.131-1.912-.834"/><path d="m35.879 41.816c-1.113.432-1.717 1.455-1.829 2.436-.032.26.206.414.325.219.984-1.666 2.561-2.277 4.406-1.715.22.063.29-.211.09-.379-.746-.647-1.883-.994-2.992-.561"/></svg>