<svg xmlns="http://www.w3.org/2000/svg" viewBox="0 0 64 64" enable-background="new 0 0 64 64"><path d="m43.998 9.975c2.203 0 3.99-1.787 3.99-3.988s-1.787-3.987-3.99-3.987c-2.197 0-3.986 1.785-3.986 3.986s1.789 3.989 3.986 3.989"/><circle cx="5.988" cy="29.977" r="3.988"/><path d="m17 10c0-2.201-1.789-3.988-3.988-3.988-2.201 0-3.988 1.787-3.988 3.988s1.787 3.988 3.988 3.988c2.199 0 3.988-1.787 3.988-3.988"/><path d="m58.012 19.988c-2.201 0-3.988 1.789-3.988 3.988 0 2.201 1.787 3.988 3.988 3.988 2.199 0 3.988-1.787 3.988-3.988 0-2.199-1.789-3.988-3.988-3.988"/><path d="m57.704 53.222c.176-.436.272-.91.272-1.406 0-2.137-1.787-3.873-3.988-3.873-2.203 0-3.988 1.736-3.988 3.873 0 .914.334 1.746.883 2.405-.223.044-.437.097-.645.159l-2.924-9.155-.027-.085-.037-.081c-.465-1.003-1.709-2.073-3.808-2.073h-6.619l-.002.006c-.076-.137-.126-.295-.126-.467v-.868c3.803-1.264 8.454-4.572 9.366-8.932 1.814-.354 2.805-1.716 2.805-3.892 0-2.574-1.051-3.294-1.905-3.456-.126-9.232-2.563-13.177-13.11-13.275-10.631-.099-13.518 4.011-13.68 13.37-.77.287-1.564 1.123-1.564 3.361 0 2.176.99 3.538 2.807 3.892.91 4.357 5.557 7.665 9.358 8.931v.869c0 .168-.049.324-.122.461h-6.645c-2.099 0-3.343 1.07-3.808 2.073l-.017.036-.015.037-.856 2.155c-.591-.057-1.138-.073-1.504-.073-.594 0-1.875.038-3.027.309l-.269-.523c-.975-1.674-2.98-.679-2.707 1.033.085.536.433 1.621.729 2.493l-.004 1.088c-.033.346.084.688.332.966.468.524 1.393.802 2.322.95l.616 1.275.019.039.021.039c.795 1.416 2.168 2.229 3.767 2.229 1.229 0 2.271-.375 3.111-1.117l-.001 4.548v1.457h22.099v-2.946c.551 1.363 1.365 2.588 3.986 2.588 1.197 0 2.258-.466 3.053-1.291.813.104 1.569.124 1.986.124 1.069 0 3.652-.108 4.55-1.114.248-.279.365-.62.332-.966v-2.11c.237-.482.447-.941.54-1.229.386-1.198-.582-2.168-1.556-1.834m-34.9-21.264l-.079-.608-.611-.044c-1.406-.102-2.007-.841-2.007-2.474 0-1.256.256-1.926.76-1.993.094.465.206.819.341 1.072.384.724 1.108 1.116 1.19 1.158l1.296.673-.208-1.446c-.001-.011-.149-1.058-.096-2.479.327-4.821.66-5.024 1.383-5.024.447 0 1.088.126 1.898.286 1.621.319 3.842.757 7.064.757 3.224 0 5.444-.437 7.065-.756.811-.16 1.451-.286 1.898-.286.723 0 1.056.204 1.381 5.013.053 1.435-.094 2.479-.095 2.489l-.207 1.45 1.297-.679c.081-.042.799-.433 1.189-1.159.133-.252.243-.599.34-1.07.627.085.762 1.12.762 1.993 0 1.632-.6 2.372-2.005 2.474l-.61.045-.079.608c-.697 5.363-8.027 8.764-10.936 8.764-2.907 0-10.236-3.401-10.931-8.764m10.931 10.264c.441 0 .936-.058 1.46-.16v.463c0 .864.465 1.645 1.186 2.055-.457 1.042-1.473 1.734-2.617 1.734-1.157 0-2.181-.705-2.63-1.764.693-.416 1.138-1.18 1.138-2.025v-.464c.525.103 1.021.161 1.463.161m-19.708 9.439v-2.288c.236-.253 1.541-.702 3.778-.702 1.964 0 3.121.356 3.384.576v2.287c-.235.254-1.54.704-3.78.704-1.965 0-3.122-.358-3.382-.577m34.773 8.525c-1.989 0-2.254-.728-2.826-2.29 0-.002-2.658-7.142-2.658-7.142l-.002 9.79h-19.099l.003-10.51c-.566 1.37-1.114 2.66-1.467 3.416-.398.846-1.157 2.205-3.146 2.205-1.431 0-2.15-.937-2.449-1.469l-.241-.5c.186.006.354.008.495.008 1.168 0 5-.139 5.272-1.932l.008-2.469c.034-.346-.082-.686-.329-.964-.334-.376-.904-.626-1.543-.792l.748-1.883c.28-.604 1.106-1.213 2.439-1.213h5.52c.473 1.909 2.193 3.328 4.239 3.328 2.05 0 3.765-1.419 4.24-3.328h5.438c1.333 0 2.159.608 2.439 1.213l3.017 9.447c-.003.002-.008.005-.011.008-.248.279-.363.619-.329.965v2.361l.008.105c.1.658.681 1.092 1.432 1.379-.329.16-.722.267-1.198.267m8.421-1.746c-.26.22-1.417.578-3.382.578-2.288 0-3.601-.47-3.78-.679v-2.313c.262-.22 1.419-.576 3.382-.576 2.288 0 3.601.47 3.78.678v2.312"/><circle cx="28.628" cy="27.103" r="2.09"/><circle cx="38.845" cy="27.103" r="2.089"/><path d="m37.736 34.694c0 0 0-.381-.4-.381-1.8 0-5.4 0-7.2 0-.399 0-.399.381-.399.381 0 1.523 2 2.285 3.999 2.285 2 0 4-.761 4-2.285"/></svg>