<svg xmlns="http://www.w3.org/2000/svg" viewBox="0 0 64 64" enable-background="new 0 0 64 64"><circle cx="11.549" cy="31.205" r=".574"/><path d="m58.264 25.619h-1.162l.001-.54c0-1.307-1.062-2.407-2.366-2.452h-.017l-.065-.001c-.631 0-1.223.246-1.666.693-.441.444-.684 1.035-.684 1.665l-.002 9.183c0 .816.368 1.539.939 2.039-.607 1.242-1.18 2.418-1.713 3.525-.563-1.164-1.162-2.398-1.805-3.711-.428-.875-1.566-1.813-3.479-1.813h-5.41l-.043.166h-.332c-.621-.217-1.075-.826-1.075-1.555v-.481c3.874-1.349 8.517-4.73 9.354-9.151 1.399-.254 2.871-1.165 2.871-3.865 0-2.486-.967-3.193-1.766-3.36-.098-9.756-2.578-13.892-13.562-13.958-11.093-.13-14.034 4.19-14.153 14.071-.703.301-1.41 1.122-1.41 3.247 0 2.699 1.471 3.61 2.869 3.865.834 4.41 5.455 7.786 9.324 9.142v.49c0 .729-.452 1.338-1.073 1.555h-.337l-.043-.166h-5.833c-1.817 0-2.769 1-3.28 1.537l-5.035 5.27v-13.254c0-.633-.52-1.149-1.153-1.149h-9.219c-.635 0-1.153.516-1.153 1.149v12.335c-.118-.016-.243-.029-.384-.029-1.161 0-2.402.623-2.402 2.368v9.262c0 1.543 1.261 2.799 2.811 2.799h4.296c.3 0 .583-.061.854-.146 2.29-.184 3.204-1.119 3.879-1.826l.064-.068 1.157-1.211 9.002-9.42-.004 17.283v.596l.524.285c.154.08 3.78 2.012 10.564 2.012 6.772 0 10.407-1.93 10.56-2.012l.525-.285v-.598-14.164c.079.164.152.314.219.451.395.838 1.695 2.439 3.769 2.441h.246c.706-.016 2.997-.232 4.091-2.346l.047-.059.035-.105 4.09-8.43.337-.693c.569-.5.935-1.223.935-2.035v-5.821c-.001-1.502-1.229-2.725-2.737-2.725m-43.528 2.626c0-.158.128-.287.288-.287h.576c.159 0 .288.129.288.287v.574c0 .158-.129.287-.288.287h-.576c-.16 0-.288-.129-.288-.287v-.574m-2.828 23.45c0 .99-.808 1.795-1.801 1.795h-4.296c-.994 0-1.802-.805-1.802-1.795v-9.262c0-1.057.666-1.33 1.272-1.359l.025 1.063h4.801c.993 0 1.801.807 1.801 1.797v7.761m-.359-19.341c-.636 0-1.152-.514-1.152-1.149 0-.633.516-1.148 1.152-1.148.635 0 1.152.516 1.152 1.148 0 .635-.517 1.149-1.152 1.149m2.627 19.406c-.411.43-.834.889-1.581 1.209.199-.385.322-.813.322-1.273v-2.116h3.241c.045 0 .083-.021.127-.025-.67.699-1.372 1.435-2.109 2.205m10.479-29.157l-.06-.454-.455-.042c-1.574-.147-2.275-1.006-2.275-2.786 0-1.505.355-2.267 1.057-2.267.032 0 .066.001.102.003.113.606.228.973.354 1.172.376.77 1.104 1.109 1.186 1.145l.943.418-.145-1.023c-.003-.011-.156-1.115-.102-2.566.338-5.019.68-5.44 1.645-5.44.484 0 1.156.132 2.009.299 1.665.328 3.948.776 7.251.776 3.305 0 5.586-.448 7.253-.776.851-.167 1.522-.299 2.007-.299.965 0 1.305.422 1.642 5.424.055 1.468-.099 2.572-.101 2.583l-.146 1.024.945-.419c.081-.036.806-.375 1.159-1.098.146-.241.262-.606.379-1.22.793-.049 1.162.689 1.162 2.264 0 1.779-.703 2.639-2.277 2.786l-.456.042-.06.454c-.733 5.65-8.449 9.234-11.508 9.234-3.06-.001-10.776-3.585-11.509-9.234m7.356 12.774l.163-.057c1.045-.365 1.746-1.371 1.746-2.502v-.18c.82.22 1.588.343 2.244.343.647 0 1.404-.121 2.213-.336v.173c0 1.131.703 2.137 1.75 2.502l.162.057h.209c-.531 1.346-2.846 2.258-4.351 2.258-1.509 0-3.824-.912-4.353-2.258h.217m22.694 9.564c-.001.002-.004.006-.006.008-.816 1.684-2.604 1.867-3.233 1.881h-.245c-1.938-.002-2.839-1.826-2.861-1.873-.463-.961-1.297-2.678-2.135-4.406l-.002 18.555c0 0-3.482 1.891-10.075 1.891-6.604 0-10.077-1.891-10.077-1.891l.004-19.795c-1.875 1.963-4.673 4.891-8.777 9.184.001-.021.013-.041.013-.063v-5.961c1.645-1.721 3.535-3.699 5.742-6.012.487-.51 1.168-1.25 2.573-1.25h5.048c.498 1.967 3.314 3.428 5.474 3.428 2.161 0 4.972-1.461 5.473-3.428h4.626c1.406 0 2.27.631 2.571 1.25 1.002 2.047 1.899 3.904 2.712 5.598.774-1.621 1.635-3.395 2.582-5.336.292.105.602.172.929.172h3.224c.125 0 .244-.021.364-.037l-3.924 8.085m5.287-10.775c0 .947-.779 1.723-1.729 1.723h-3.223c-.95 0-1.729-.775-1.729-1.723l.002-9.183c0-.754.6-1.354 1.342-1.354.016 0 .031 0 .048.001.763.027 1.392.679 1.392 1.449l-.001 1.543h2.171c.949 0 1.729.775 1.729 1.723v5.821z"/><path d="m33.041 19.589c0-1.208-.965-2.148-2.159-2.148s-2.163.94-2.163 2.148c0 1.208.969 2.148 2.163 2.148s2.159-.94 2.159-2.148"/><path d="m41.445 21.737c1.195 0 2.164-.94 2.164-2.148 0-1.208-.969-2.148-2.164-2.148s-2.16.94-2.16 2.148c0 1.208.965 2.148 2.16 2.148"/><path d="m40.164 26.725c0 0 0-.381-.4-.381-1.8 0-5.4 0-7.2 0-.399 0-.399.381-.399.381 0 1.524 2 2.286 3.999 2.286 2-.001 4-.762 4-2.286"/></svg>