<svg xmlns="http://www.w3.org/2000/svg" viewBox="0 0 64 64" enable-background="new 0 0 64 64"><path d="m42.89 28.385c.866-4.964 1.013-12.085-2.587-19.319-3.356-6.749-8.873-6.276-8.873-6.276-6.854-3.082-14.316 3.595-15.717 7.369-2.02 5.447.683 8.565 2.768 9.684-.343.509-.867 1.335-.217 2.41.205.339.618.741 1.432.789-.26.507-.258 1.05.006 1.499.283.482.812.754 1.369.906-.17.679-.149 1.453.332 2.149.23.335.664.733 1.411.733.144 0 .276-.015.396-.033.309.77.939 1.873 2.392 1.873 1.315 0 3.139-.997 5.866-3.199-.272 4.64-10.369 6.84-10.369 10.57 0 2.702 2.523 3.449 2.523 3.449s-4.185 1.59-6.446 5.729c-.104.092-.216.171-.305.282-.282.35-.568.912-.541 1.708-.348 1.093-.571 2.307-.571 3.679 0 6.689 5.32 9.613 11.607 9.613h10.27c0 0 .699-2.042-.629-9.146-.062-.325-.108-.633-.156-.941.002-.001.008-.004.008-.004l-.141-.987c-.008-.073-.018-.148-.025-.221 5.624-1.52 11.631-3.796 12.219-6.695.809-3.985-4.183-12.617-6.022-15.621m-6.587-3.622c-.18.807-.215 1.583-.156 2.325l-4.459-.295c.015-.012.027-.022.043-.035.358-.293.699-.545 1.016-.778 2.123-1.57 3.298-2.717 1.991-7.214.429-.373.761-.864.983-1.431.695 1.449 1.364 3.91.582 7.428m-5.205 1.221c-2.88 2.357-4.51 3.184-5.497 3.184-.937 0-1.297-.742-1.601-1.623-.085-.243-.24-.31-.43-.31-.202 0-.443.068-.68.083-.966-.558-.283-2.117.316-3.017-.887.074-2.07.188-2.545-.943.336-.604.565-.986.246-1.371-.021-.023-.064-.032-.127-.032-.195 0-.569.09-.923.09-.304 0-.592-.066-.739-.312-.697-1.151 1.09-1.449.844-3.607-.133-1.186-2.345-1.411-2.772-5.726-.09-.917.698-1.352 1.8-1.352 1.395 0 3.293.695 4.557 1.992 3.278 3.373 5.059 3.951 5.895 3.951.435 0 .613-.157.613-.157l.018-.01c-.273-.426-.496-.911-.641-1.444-.547-2.031.227-3.935 1.73-4.247.143-.03.287-.044.431-.044 1.377 0 2.786 1.316 3.282 3.156.496 1.833-.09 3.549-1.313 4.099 1.768 5.476.077 5.562-2.464 7.64m-10.819 20.735c.053 0 .082.002.082.002s1.57-.375 2.959.316c-.957-1.068-2.389-.636-2.389-1.013 0-.735 1.158-1.013 1.158-1.013 2.054 0 3.022.979 3.934 1.47v5.88c0 0-4.273 1.386-6.963.197-.763-.722-1.329-1.855-1.68-3.459-.497-2.277 2.374-2.38 2.899-2.38m16.504 14.281h-9.416c-2.488 0-10.607-.621-10.607-8.613 0-.527.041-1.026.104-1.508 1.115 2.951 3.088 3.629 4.656 3.629 2.182 0 3.624-.253 4.564-.541l-.014.426c5.093-.417 8.346-1.471 9.837-2.063.038.234.071.464.117.709.847 4.522.843 6.91.759 7.961m11.149-17.192c-.689 3.397-12.399 6.536-20.334 7.881l-.234-4.45c3.391-.839 12.908-3.354 14.534-5.539l.347-.465-.232-.533c-.908-2.074-6.248-9.193-6.248-9.193l2.416 8.309c-.018.031-.035.063-.053.094-.603 1.066-1.235 2.188-1.721 3.546-1.707.53-4.99 1.506-8.499 2.299h-.952c-.244 0-.572-.211-.986-.478-.83-.534-1.967-1.266-3.879-1.266-1.246 0-1.908.496-2.244.912-.224.275-.354.572-.426.852-.17.021-.354.059-.539.101 2.061-2.753 4.906-3.88 5.092-3.951l2.701-1.022-2.762-.87c-.186-.059-1.814-.626-1.814-2.493 0-1.225 2.17-2.574 4.268-3.879 2.523-1.568 5.344-3.322 5.98-5.821l3.943.261c.856 4.167 4.686 7.002 4.686 7.002s.922-2.014 1.631-5.261c2.387 4.021 5.948 10.892 5.325 13.964m-10.295-.745c.679-1.605 1.547-2.914 2.255-4.348.508.942.942 1.791 1.204 2.388-.457.613-1.782 1.293-3.459 1.96"/><path d="m31.652 12.844c.242-.245.533-.466.822-.735-.398.007-.787.104-1.141.302-.352.191-.658.509-.838.916-.172.409-.209.887-.107 1.322.076.356.229.69.432.979-.166.025-.318.099-.391.246.246.039.389.146.529.248.139.108.264.22.371.344.109.12.197.247.277.393.078.147.131.33.168.587.209-.113.334-.368.324-.649-.004-.282-.143-.557-.324-.764-.186-.202-.422-.354-.678-.4-.053-.009-.105-.012-.158-.014-.068-.758-.102-1.43.146-1.97.121-.297.324-.555.568-.805"/><path d="m21.748 16.491c-.23.323-.427.608-.678.85.006-.224-.051-.463-.143-.654-.148-.351-.357-.631-.5-.903-.16-.266-.262-.507-.295-.778-.033-.272.025-.582.096-.93-.287.167-.525.452-.598.847-.084.401.064.843.254 1.167.197.331.42.593.625.84.143.181.257.368.342.586-.195.15-.414.286-.713.391.406.266.943.297 1.383.105.445-.18.773-.523 1.023-.876.248-.357.424-.735.572-1.108.168-.366.256-.727.551-1.05-.486-.077-.9.272-1.178.563-.296.305-.522.643-.741.95"/></svg>