<svg xmlns="http://www.w3.org/2000/svg" viewBox="0 0 64 64" enable-background="new 0 0 64 64"><path d="m53.016 44.787c.027-1.497-.033-2.916-.234-4.159v-18.901c0-16.669-11.248-16.357-11.248-16.357s-.846-3.37-9.533-3.37c-13.444 0-20.781 8.512-20.781 19.727v18.901c-.202 1.243-.263 2.662-.234 4.159-5.737.705-11.843-.828-7.532 3.152 1.745 1.612 4.797 2.053 7.608 2.053.109 0 .216-.003.325-.004.766 6.161 2.34 12.012 2.34 12.012h36.547c0 0 1.574-5.851 2.34-12.012.109.001.217.004.326.004 2.811 0 5.863-.44 7.607-2.053 4.31-3.98-1.795-2.447-7.531-3.152m-35.334-11.558c0 0-3.116-.249-3.908-4.732-.622-3.548 1.513-4.554 1.513-4.554 7.713-3.943 19.301-14.37 19.301-14.37s5.412 5.427 11.619 8.916c0 0 2.398.028 3.053 3.75.793 4.483-2.168 5.804-2.168 5.804 1.154 6.771-6.494 16.53-12.018 17.504-.369.065-.764.098-1.176.098-5.734 0-15.102-6.106-16.216-12.416m-6.62 15.763c-3.269 0-5.665-.618-6.93-1.787-.524-.484-.808-.812-.961-1.02.669-.133 2.034-.148 3.083-.16 2.086-.023 4.683-.055 7.025-.636 1.693-.421 3.28-.644 4.589-.644 2.111 0 3.439.549 3.946 1.632.699 1.494.995 2.46 1.118 3.04h-4.466v-.018l.056-1.286-1.26.264c-.028.008-2.965.615-6.2.615m5.319 12.008h-1.883c-.685-2.672-1.589-6.879-2.115-11.039 2.807-.127 5.086-.604 5.086-.604l-.014.323h-.39l-.684 11.32m1.001 0l.624-10.319h5.859l.956 10.319h-7.439m8.444 0l-1.049-11.319h-.785c-.079-.649-.369-1.798-1.271-3.727-.803-1.716-2.805-2.208-4.852-2.208-1.863 0-3.764.408-4.83.673-.351.087-.71.16-1.072.224-.062-3.282.352-6.023 1.643-7.201.798-.729 1.956-1.098 3.443-1.098.232 0 .478.03.719.049 2.946 5.526 10.73 10.252 16.127 10.252.473 0 .928-.039 1.35-.113 3.928-.691 8.584-5.121 11.107-10.15.197-.014.4-.037.594-.037 1.486 0 2.645.369 3.443 1.098 1.289 1.178 1.703 3.919 1.643 7.201-.363-.063-.721-.137-1.072-.224-1.066-.265-2.967-.673-4.83-.673-2.049 0-4.051.492-4.854 2.208-.902 1.929-1.191 3.077-1.27 3.727h-.785l-1.049 11.318h-12.35m13.354 0l.955-10.319h5.859l.623 10.319h-7.437m10.322 0h-1.883l-.684-11.319h-.391l-.014-.323c0 0 2.279.477 5.086.604-.524 4.159-1.428 8.367-2.114 11.038m10.367-13.795c-1.266 1.169-3.662 1.787-6.93 1.787-3.227 0-6.174-.607-6.203-.614l-1.26-.263.057 1.285v.018h-4.465c.123-.58.418-1.546 1.117-3.04.506-1.083 1.834-1.632 3.947-1.632 1.309 0 2.895.223 4.588.644 2.342.581 4.939.612 7.025.636 1.049.012 2.414.027 3.084.16-.151.208-.436.535-.96 1.019"/><path d="m28.642 40.94c0 0 2.18-1.907 5.223-2.444 3.055-.537 5.703.518 5.703.518.072-.082.102-.193.084-.289-.127-.717-2.863-1.773-5.963-1.227-3.096.545-5.377 2.491-5.249 3.209.018.106.093.184.202.233"/><path d="m18.146 23c0 0 1.986-.642 4.542-.796 2.563-.155 4.631.24 4.631.24.066-.062.104-.147.098-.228-.037-.603-2.189-1.21-4.791-1.053-2.6.157-4.666 1.024-4.626 1.626.006.09.057.159.146.211"/><path d="m34.205 20c0 0 1.713-1.218 4.115-2.141 2.387-.917 4.459-1.159 4.459-1.159.061-.084.08-.167.047-.251-.215-.563-2.453-.496-4.883.439-2.432.937-4.139 2.382-3.924 2.942.028.077.098.142.186.17"/><path d="m33.49 36.355c.691-.122 3.641-.946 3.461-1.969-.09-.51-7.407 1.236-7.407 1.236.182 1.024 3.248.857 3.946.733"/><path d="m39.48 21.462c-.596.167-1.182.431-1.689.801-.496.379-.932.829-1.26 1.336-.672 1.006-1.023 2.141-1.148 3.285.561-1.001 1.121-1.969 1.834-2.755.02-.023.043-.042.064-.065-.08.358-.094.738-.025 1.122.275 1.55 1.756 2.583 3.301 2.307 1.551-.275 2.584-1.751 2.309-3.303-.145-.807-.617-1.467-1.256-1.882.344-.009.693-.009 1.047-.005.434.084.861.193 1.264.33l.053.018.006.001c.385.085.623.255.717.583.102.337.02.787-.1 1.211-.127.43-.311.856-.518 1.275-.221.408-.439.836-.771 1.17.434-.227.738-.624 1.049-.992.307-.379.572-.792.783-1.25.201-.456.371-.967.285-1.569-.045-.299-.205-.613-.447-.829-.02-.02-.045-.029-.068-.046.514-.095 1.059-.288 1.344-.729-.496.306-1.043.289-1.578.225-.537-.057-1.084-.176-1.648-.261-1.12-.187-2.335-.287-3.548.022"/><path d="m20.449 28.151c.275 1.55 1.752 2.582 3.302 2.307 1.547-.274 2.583-1.751 2.308-3.302-.068-.384-.212-.736-.41-1.045.028.015.056.024.084.039.938.494 1.798 1.21 2.67 1.957-.512-1.03-1.232-1.975-2.209-2.688-.484-.363-1.045-.636-1.643-.821-.604-.173-1.244-.219-1.862-.17-1.245.126-2.353.639-3.336 1.196-.5.274-.972.574-1.459.813-.48.243-.987.447-1.559.331.421.317.998.311 1.513.223-.016.024-.035.042-.049.067-.153.286-.195.637-.135.932.126.596.461 1.017.81 1.375.353.358.745.654 1.163.905.419.238.842.506 1.328.569-.43-.198-.782-.525-1.129-.833-.337-.323-.658-.659-.925-1.019-.257-.358-.489-.752-.511-1.104-.023-.34.143-.58.474-.793l.004-.004.044-.035c.331-.268.695-.517 1.073-.745.331-.126.659-.245.985-.355-.456.61-.674 1.393-.531 2.2"/></svg>