<svg xmlns="http://www.w3.org/2000/svg" viewBox="0 0 64 64" enable-background="new 0 0 64 64"><path d="m49 40c-.184-.807-1.162-3.201-3.48-3.371-2.176-.16-3.766-.268-4.938-.337-.785-.884-1.502-1.567-1.924-1.952 3.406-1.911 6.631-4.995 7.387-8.768 1.576-.282 3.205-1.313 3.205-4.372 0-2.843-1.133-3.659-2.068-3.851-.125-10.686-2.903-15.235-15.051-15.347-12.244-.113-15.534 4.638-15.697 15.463-.835.333-1.684 1.273-1.684 3.735 0 3.059 1.626 4.09 3.203 4.372.754 3.773 3.979 6.857 7.387 8.77-.422.385-1.139 1.068-1.921 1.949-1.172.07-2.761.176-4.937.336-2.203.162-3.256 2.375-3.482 3.373-5 22-5 22-5 22h6l3-14 1 14h24l1-14 3 14h6c0 0 0 0-5-22m-29.656-15.199l-.078-.607-.611-.044c-1.664-.121-2.406-1.03-2.406-2.949 0-1.588.361-2.396 1.072-2.404.112.579.242.997.4 1.295.425.801 1.225 1.235 1.315 1.282l1.294.677-.203-1.446c-.002-.012-.17-1.225-.11-2.87.366-5.387.735-5.868 1.698-5.868.523 0 1.264.146 2.199.33 1.855.366 4.396.866 8.083.866 3.688 0 6.229-.5 8.084-.865.936-.185 1.676-.33 2.199-.33.963 0 1.332.481 1.697 5.858.061 1.658-.109 2.865-.109 2.878l-.209 1.45 1.299-.68c.09-.047.889-.481 1.316-1.281.156-.294.285-.712.398-1.296.713.007 1.076.815 1.076 2.404 0 1.919-.744 2.828-2.408 2.949l-.611.044-.078.607c-.807 6.212-9.291 10.152-12.655 10.152-3.364 0-11.846-3.94-12.652-10.152m12.654 11.652c1.051 0 2.35-.269 3.729-.762l-.223 1.785-.051.396c-.766.373-1.451.739-1.717.883-.049-.099-.105-.185-.17-.248-.555-.539-2.579-.539-3.131 0-.065.063-.122.15-.173.249-.264-.144-.951-.511-1.717-.884l-.05-.396-.223-1.784c1.378.493 2.675.761 3.726.761m-1.005 23.334l-9.97-12.484 2.316-3.514-1.727-1.785c.986-3.395 5.08-6.859 5.08-6.859l.252 2.017c-.833-.321-1.459-.448-1.334-.03.21.704.298 1.773.284 2.776l-.721 1.456 6.032 17.398.023.067.769 2.216-1.004-1.258m-3.89-17.441c1.188-.314 2.699-.895 3.146-1.069.053.111.115.206.187.276.553.537 2.577.537 3.131 0 .07-.069.133-.164.186-.275.447.176 1.957.754 3.145 1.068l-4.898 14.126-4.897-14.126m4.899 18.703l6.822-19.687-.719-1.452c-.014-1.004.074-2.075.285-2.779.125-.419-.502-.291-1.336.031l.252-2.018c0 0 4.094 3.465 5.082 6.859l-1.729 1.785 2.318 3.514-10.975 13.747"/><path d="M30.85 43.871 32 44.998 33.148 43.871 32 42.746z"/><path d="M30.85 47.947 32 49.072 33.148 47.947 32 46.82z"/><path d="M30.85 52.021 32 53.148 33.148 52.021 32 50.895z"/><circle cx="26.14" cy="21.012" r="2.397"/><circle cx="37.859" cy="21.012" r="2.397"/><path d="m36 28.429c0 0 0-.429-.4-.429-1.801 0-5.399 0-7.2 0-.4 0-.4.429-.4.429 0 1.715 2 2.571 4 2.571 2 0 4-.856 4-2.571"/></svg>