<svg xmlns="http://www.w3.org/2000/svg" viewBox="0 0 64 64" enable-background="new 0 0 64 64"><path d="m51.014 49.09c-.007.666-.943.994-2.009 1.302 3.545-2.456 5.452-5.965 5.452-10.397l-.006-5.149c.283-.293.549-.602.801-.919l.845-.076c.241-.023 5.903-.579 5.903-4.859 0-1.373-1.428-2.061-2.93-2.673 0-.32 0-.658 0-1.036 0-4.622-1.582-8.3-4.299-11.121-.691-2.538-2.871-4.796-6.083-6.541-3.221-3.342-9.543-5.621-16.848-5.621-7.217 0-13.479 2.224-16.735 5.499-3.391 1.791-5.671 4.143-6.337 6.792-2.502 2.659-3.99 6.077-4.14 10.301-1.002.253-1.894.667-2.273 1.552-.459 1.07-.472 2.144-.038 3.188 1.075 2.588 4.634 4.03 4.786 4.091l1.38.55c.217.272.446.534.685.789l.029 5.233c0 4.022 2.228 8.061 6.967 10.843-1.481-.522-3.485-.771-3.496-1.748-6.042 1.59-9.858 6.735-9.858 12.91h58.063c-.001-6.175-3.818-11.32-9.859-12.91m-19.23-44.194c9.917 0 18.317 3.211 21.193 7.646-4.994-3.906-12.609-5.708-21.145-5.708-8.65 0-16.354 1.853-21.345 5.869 2.777-4.518 11.259-7.807 21.297-7.807m-24.025 23.147c-.362 0-.663.066-.852.252-.754.741.553 4.23.553 4.23s-5.8-2.31-4.215-6.001c.614-1.434 4.183-1.064 5.515-1.938 1.688-1.106 3.454-5.381 5.413-5.943.079-.022.162-.033.249-.033 1.121 0 2.897 1.731 3.993 1.731.038 0 .074-.003.11-.007 1.815-.213 4.123-3.805 5.922-4.124.148-.026.306-.039.471-.039 2.269 0 6.006 2.32 8.174 2.32.068 0 .135-.002.199-.007 1.867-.136 4.961-2.997 6.906-2.997.07 0 .138.004.205.011 2.088.238 4.73 4.171 6.699 4.882.393.143.91.189 1.493.189 1.198 0 2.679-.2 3.944-.2.975 0 1.822.118 2.32.538.949.804.283 3.757.986 4.766.867 1.244 5.188 1.824 5.188 3.319 0 3.446-5.022 3.895-5.022 3.895s.849-2.526.494-3.005c-.822-1.108-4.479-1.166-5.095-2.392-.563-1.122 1.014-3.082.114-3.979-.315-.314-.746-.431-1.242-.431-1.407 0-3.352.937-4.771.937-.191 0-.373-.017-.543-.056-1.684-.384-3.801-3.877-5.526-4.004-.035-.003-.071-.004-.107-.004-1.812 0-4.515 3.191-6.29 3.305-.035.002-.07.004-.106.004-1.676 0-4.461-2.371-6.179-2.372-.081 0-.16.006-.236.017-1.913.281-4.17 4.517-6.104 4.568-.012 0-.021.001-.033.001-1.509 0-3.892-2.869-5.445-2.87-.081 0-.16.009-.236.024-1.845.397-1.649 4.757-3.287 5.664-.176.097-.41.135-.679.135-.866.001-2.103-.386-2.98-.386m13.503-1.473c-.672 0-1.319.094-1.94.257.226-.14.446-.282.682-.418.128.021.257.034.384.034h.012l.045-.001c1.07-.029 2.047-.802 2.984-1.729.189-.078.375-.16.57-.236 1.713-.659 3.246-1.306 4.656-1.938.26.131.522.269.776.403 1.251.661 2.433 1.286 3.506 1.286.057 0 .112-.001.168-.005.913-.059 1.842-.611 2.808-1.284 1.165.505 2.403 1.018 3.756 1.538 1.754.676 3.337 1.49 4.752 2.365-.641-.173-1.31-.272-2.004-.272-3.176 0-5.903 1.922-7.09 4.668-2.466-.131-4.785-.016-6.891.214-1.134-2.858-3.916-4.882-7.174-4.882m5.31 7.736c0 2.936-2.379 5.316-5.31 5.316s-5.306-2.381-5.306-5.316 2.375-5.316 5.306-5.316 5.31 2.38 5.31 5.316m15.846-5.317c2.93 0 5.307 2.38 5.307 5.316s-2.377 5.316-5.307 5.316c-2.932 0-5.309-2.38-5.309-5.316s2.377-5.316 5.309-5.316m-31.48 11.001l-.03-5.485c.721-.978 1.945-2.476 3.691-4.093-.668 1.144-1.057 2.473-1.057 3.894 0 4.273 3.457 7.736 7.72 7.736 4.266 0 7.725-3.463 7.725-7.736 0-.106-.012-.21-.016-.315 1.782-.182 3.715-.278 5.749-.198-.011.172-.026.342-.026.514 0 4.273 3.459 7.736 7.725 7.736 4.264 0 7.723-3.463 7.723-7.736 0-1.432-.396-2.77-1.074-3.92 1.696 1.569 2.911 3.038 3.643 4.022l.006 5.587c0 8.077-7.479 12.708-20.519 12.708-14.687-.001-21.26-6.383-21.26-12.714m33.855 16.632c-1.163.548-3.666-2.243-5.113-1.868-1.28.331-2.016 4.003-3.463 4.174-1.337.157-2.938-3.229-4.376-3.229-1.438 0-3.038 3.387-4.374 3.229-1.449-.171-2.185-3.843-3.465-4.174-1.447-.376-3.953 2.415-5.117 1.866-1.409-.663-.62-4.258-1.496-5.118-.018-.018-.042-.031-.061-.05 3.647 1.833 8.553 2.992 14.869 2.992 5.595 0 10.229-.837 13.808-2.4-.403 1.313-.009 4.013-1.212 4.578"/><path d="m38.184 45.624c.107.111.213.229.329.328.376.309.786.571 1.231.757.443.186.914.319 1.412.316-.729-.647-1.43-1.159-2.089-1.729-.673-.56-1.259-1.143-1.927-1.854.02.538.212 1.038.493 1.489-.9.342-3.153 1.081-5.849 1.081-2.68 0-4.936-.729-5.855-1.073.284-.453.479-.956.499-1.497-.669.712-1.256 1.295-1.928 1.854-.661.57-1.362 1.082-2.088 1.729.496.003.968-.131 1.41-.316.445-.186.856-.448 1.234-.757.114-.099.219-.215.325-.325.389 1.377 3.104 2.895 6.402 2.895 3.293-.001 6.004-1.521 6.401-2.898"/></svg>