<svg xmlns="http://www.w3.org/2000/svg" viewBox="0 0 64 64" enable-background="new 0 0 64 64"><path d="m49.577 56.055c-.766-1.398-2.086-4.143-3.186-8.133-1.391-5.041-1.356-5.947-.781-9.232 2.177-12.469.877-19.009-1.983-26.538-1.542-4.049-1.954-3.854-1.954-3.854s-2.836-.569-6.832.475c-2.983.775-4.945 2.014-5.747 2.592.649-3.85.226-3.889.226-3.889s-2.164-1.871-6.158-2.913c-3.998-1.042-6.835-.473-6.835-.473s-.411-.195-1.952 3.854c-2.861 7.53-4.16 14.068-1.982 26.536.574 3.284.607 4.191-.781 9.232-1.1 3.99-2.421 6.734-3.187 8.133-3.358-.601-6.075-.273-6.394.881-.37 1.352 2.667 3.313 6.79 4.386 4.117 1.073 7.761.851 8.132-.497.326-1.188-1.985-2.852-5.354-3.966.059-1.589.328-4.597 1.422-8.565 1.389-5.043 1.887-5.814 4.071-8.375 7.591-8.905 10.107-14.933 11.55-21.945.066.568.17 1.283.332 2.206 1.395 7.908 3.631 14.203 11.934 23.942 2.186 2.566 2.684 3.338 4.072 8.379 1.094 3.973 1.364 6.98 1.423 8.568-3.368 1.113-5.681 2.775-5.354 3.963.371 1.35 4.014 1.57 8.135.499 4.12-1.073 7.16-3.037 6.786-4.389-.319-1.153-3.032-1.479-6.393-.877m-34.283.127c-1.256 1.46-5.593.288-6.251.117-.618-.162-5.017-1.264-5.354-3.139 0 0 .46.99 5.578 2.324 5.119 1.331 6.027.698 6.027.698m-5.141-4.192c-.299 1.271-.417 1.787-1.005 1.637-.51-.135-.59-.624-.408-.947 2.143-3.793 4.118-10.222 4.118-10.222s-2.189 7.328-2.705 9.532m14.279-43.343c-.235 1.764-.636 3.627-1.142 5.515.673-.416 1.298-.897 1.856-1.358-1.913 8.773-8.386 20.09-4.499 13.915 3.849-6.115 5.574-12.909 5.943-15.142.824-.683 1.271-.911 1.148.08-1.244 7.003-3.213 12.559-9.229 20.302-1.9 2.446-5.021 1.766-5.46-1.729-.588-4.7-.59-8.477-.136-11.899.219-.581.533-1.046.912-1.426.969-5.447 3.021-9.936 3.485-10.902-.436-.335-.734-.673-.796-.989 0 0 1.537 1.274 5.994 2.433 4.455 1.163 6.443.807 6.443.807-.577.651-2.7.619-4.519.393m20.52 25.761c-.438 3.5-3.998 3.716-5.967 1.104-5.6-7.425-7.516-12.844-8.725-19.647-.123-.992.324-.765 1.148-.082.369 2.229 2.095 9.025 5.943 15.143 3.888 6.178-2.588-5.144-4.5-13.917.554.456 1.173.933 1.839 1.346-.499-1.899-.891-3.758-1.123-5.5-1.82.225-3.942.257-4.522-.396 0 0 1.988.355 6.445-.805 4.455-1.163 5.992-2.435 5.992-2.435-.242 1.24-4.094 2.811-5.77 3.249-.018.005-.04.01-.059.014.125.935.479 3.395 1.192 6.837.412.108.83.184 1.255.184 1.419 0 3.072.052 4.45.582-.409-2.207-.941-4.403-1.644-6.279-.828-2.221.441-2.123 1.088-.584.38.899 1.265 3.79 1.838 7.583.533.425.969.986 1.25 1.733.454 3.417.454 7.183-.13 11.87m.19 12.256c0 0 1.975 6.43 4.121 10.223.18.32.1.813-.41.943-.588.157-.705-.361-1.005-1.633-.517-2.202-2.706-9.533-2.706-9.533m3.819 13.841c-.661.172-4.997 1.344-6.255-.117 0 0 .908.638 6.027-.695 5.118-1.335 5.577-2.325 5.577-2.325-.337 1.874-4.735 2.978-5.349 3.137"/><path d="m18.992 7c-.491.862-1.632 3.279-2.863 8.662 1.221-.325 2.577-.363 3.771-.363.404 0 .803-.07 1.195-.169.752-3.469 1.12-5.922 1.248-6.854-.018-.005-.039-.009-.055-.014-.809-.211-2.124-.687-3.296-1.262"/><path d="m62 14.329l-3.03-5.547-11.317 8.776z"/><path d="m57.645 27.161l2.55-4.753-10.934-1.927z"/><path d="m48.382 2l-2.381 10.935 7.479-8.412z"/></svg>