<svg xmlns="http://www.w3.org/2000/svg" viewBox="0 0 64 64" enable-background="new 0 0 64 64"><path d="m60.908 3.394c-.816-.899-1.959-1.394-3.219-1.394h-51.377c-1.261 0-2.404.495-3.221 1.394-.808.887-1.188 2.052-1.07 3.28l4.82 50.837c.234 2.475 2.466 4.489 4.975 4.489h40.37c2.508 0 4.74-2.014 4.975-4.488l4.818-50.838c.117-1.229-.262-2.394-1.071-3.28m-5.676 53.935c-.141 1.482-1.535 2.736-3.047 2.736h-40.37c-1.512 0-2.908-1.254-3.049-2.737l-4.818-50.838c-.064-.679.14-1.316.575-1.795.446-.49 1.08-.76 1.789-.76h51.377c.707 0 1.342.27 1.789.76.434.479.637 1.116.574 1.795l-4.82 50.839"/><path d="m53.357 45.608c-6.104 0-11.814 3.63-11.814 3.63s11.074-1.721 9.988-.908c-8.27 6.199-32.911 6.023-37.7.454-2.603-3.024 16.633 4.181 20.44-3.176h-23.628c-1 0-1.702.81-1.562 1.796l1.305 9.111c.142.987 1.074 1.795 2.074 1.795h39.081c1 0 1.932-.808 2.074-1.795l1.305-9.111c.141-.986.018-1.796-1.563-1.796m-29.067 10.775c-10.661 0-11.829 1.928-12.249-2.948-.244-2.845 3.461.468 6.924 1.134 1.171.226 15.984 1.814 5.325 1.814m28.319-2.948c-.42 4.876-1.586 2.948-12.246 2.948-10.662 0 4.152-1.588 5.324-1.814 3.463-.667 7.168-3.979 6.922-1.134"/><path d="m54.904 29.335c-1.756-.425-3.35-.581-3.35-.581-.406-1.469-3.125-3.746-6.496-6.751-.723-.34-1.564-.527-2.26-.45l-5.727.592c-1.143.117-2.447 1.041-2.967 2.103l-1.676 3.416c.172-1.191-.097-2.771-.669-3.759l-3.585-6.233c-.66-1.143-2.229-1.818-3.479-1.49l-7.095 1.872c-1.2.316-2.545 1.462-3.06 2.607l-2.81 6.287c-.472.94-.114 2.148-.114 2.149l-2.271.198c-.916.09-1.575.854-1.487 1.789l1.034 10.902c.094.994.998 1.807 2.006 1.807h42.203c1.008 0 1.912-.813 2.006-1.807l1.035-10.902c.079-.846-.454-1.556-1.238-1.749m-19.929-4.662c.375-.766 1.381-1.482 2.197-1.566l5.729-.592c.852-.088 2.039.363 2.607.946l4.572 4.721c.156.16.279.372.363.613h-7.936c-.457-.435-.732-.785-.732-.785s-3.666-4.848-4.533-3.954c-.73.756 1.801 2.688 3.629 4.739h-6.453c.207-.477.459-.965.723-1.482 1.27-2.493.332-2.578-.773-.578-.346.625-.775 1.339-1.174 2.061h-.241l2.022-4.123m13.298 5.089c-.41.1-.875.248-1.379.456-1.121.461-2.232.099-3.135-.456h4.514m-35.522-2.771l2.672-5.933c.395-.879 1.504-1.827 2.424-2.069l7.097-1.873c.823-.219 1.953.278 2.391 1.038l3.588 6.232c.502.867.733 2.42.508 3.39l-.236 1.019h-4.182c-.561-1.17-1.048-2.33-1.168-3.269-.222-1.756.648-3.897.802-5.935.195-2.588-1.114-1.272-1.554 1.825-.442 3.101-5.004 3.792-5.004 3.792s-6.706.915-6.342 2.255c.466 1.714 7.741-2.416 10.528-.907.51.276 1.035 1.16 1.553 2.238h-13.255c-.099-.66-.036-1.325.178-1.803m15.423 9.171l-8.102 2.117c-1.054.275-2.421-.267-3.037-1.206l-4.43-6.74c-.111-.17-.201-.365-.278-.571h1.726c-.167.201.009.941.628 1.994 1.298 2.208 2.988 5.79 4.664 5.348s6.307-1.665 7.164-1.893c.859-.227 1.203-1.706-3.405-.489-4.609 1.218-5.771-.782-7.435-3.404-.587-.922-1.038-1.404-1.325-1.556h11.926c1.101 2.505 2.124 5.371 2.807 4.423.426-.59-.581-2.432-1.588-4.423h3.911.064l-.916 3.928c-.253 1.082-1.319 2.198-2.374 2.472m22.584-5.441l-3.188 5.638c-.498.881-1.678 1.841-2.621 2.136l-5.045 1.565c-.941.293-2.268-.042-2.943-.743l-5.206-5.397c-.678-.702-.867-2.021-.419-2.93l.603-1.228h.021.731c-.612 1.267-.953 2.438-.356 3.053 1.081 1.115 4.065 4.194 4.616 4.766.557.57 1.842.17-1.131-2.895-1.93-1.992-2.17-3.457-1.756-4.924h7.59c.541.736.922 1.468.941 2.144.045 1.814-5.359 7.052-3.721 7.225 1.117.117 3.209-4.901 5.205-6.459 1.244-.97 3.271-1.257 4.9-2.061.773-.381 1.035-.678.926-.849h1.127c-.026.34-.112.672-.274.959"/></svg>