<svg xmlns="http://www.w3.org/2000/svg" viewBox="0 0 64 64" enable-background="new 0 0 64 64"><path d="m55.718 57.25l-1.772-.626c.004-.122-.002-.248-.03-.38 0 0-2.402-1.393-5.215-.807s-5.566 2.227-7.383 1.641c-.399-.129-.901-.437-1.498-.829 2.371-.746 5.069-1.079 5.775-2.335 1.055-1.875 3.428-2.008 3.428-2.008 0-.186-.028-.342-.071-.481l1.886-.343c.1-.018.154-.207.117-.42-.035-.213-.145-.369-.246-.35l-2.286.425c-.349-.217-.718-.241-.718-.241-2.943-.189-2.227 3.184-6.094 3.184-1.524 0-2.468.696-3.487 1.452-1.527-.973-3.463-2.029-5.832-2.52 4.934-1.484 11.208-2.58 15.84-5.311 11.264-6.639 17.766-16.676 11.314-28.08-6.443-11.398-24.82-27.306-32.061-8.617-3.048 7.867-5.757 12.863-7.808 16.394 1.367-2.771 3.192-7.111 4.145-12.109-10.858 5.474-10.568 16.101-9.884 20.627-.211.075-.416.167-.611.282l-9.064 5.34c-3.003 1.77-2.861 7.771.316 13.39 2.518 4.45 6.178 7.324 9.087 7.455l-.013.017c.058 0 .113-.006.171-.007.083.001.163-.005.244-.009 4.064-.164 6.934-2.648 9.392-2.941 3.172-.377 10.797 1.441 13.467-1.227.15-.151.319-.289.498-.419 1.659 1.223 3.329 2.054 5.662 1.267 3.545-1.197 6.826-2.105 10.576-.947 0 0 .1-.131.197-.339l1.684.603c.096.035.234-.102.311-.303.074-.203.058-.393-.037-.428m-16.989-51.3c2.979-1.756 12.629 5.379 16.98 13.074 4.354 7.697-2.541 9.195-6.895 1.498-4.35-7.693-14.991-11.677-10.085-14.572m-24.625 52.775c-2.043 1.207-5.574-1.131-7.885-5.221-2.314-4.093-2.53-8.384-.488-9.591 2.045-1.201 5.575 1.139 7.89 5.227 2.311 4.087 2.528 8.381.483 9.585m5.053-.909c.348-2.963-.507-6.734-2.575-10.396-2.024-3.58-4.831-6.303-7.573-7.506l4.933-2.906c.343-.201.731-.301 1.185-.301 2.114 0 5.565 2.32 8.071 6.754 2.991 5.293 2.836 10.3.825 11.483l-4.866 2.872m11.32-1.097c-2.21-.444-4.395-.422-6.388-.177.985-.581 2.102-1.24 3.37-1.987.563-.331 1.193-.631 1.87-.911 1.57.152 3.741.573 5.328 1.704.485.347.947.71 1.398 1.067-1.264.559-2.941.835-5.578.304"/></svg>