<svg xmlns="http://www.w3.org/2000/svg" viewBox="0 0 64 64" enable-background="new 0 0 64 64"><path d="m6.928 40.494c0 0 1.929-8.179 6.345-12.335.776-.73 1.396-1.43 1.89-2.095.521 2.035 1.172 4.019 1.819 5.967 1.132 3.35 2.271 6.631 3.178 9.937.24.859.462 1.721.67 2.583l-4.624 2.081 5.205.596c.967 4.892 1.386 9.83 1.218 14.772h6.042c-.193-7.176-1.56-14.344-3.917-21.134-1.157-3.4-2.533-6.706-3.852-9.958-.357-.891-.709-1.777-1.047-2.663l3.888-2.86-4.749.47c-.523-1.552-.963-3.104-1.246-4.663-.614-3.244-.398-6.522.732-9.666.543-1.567 1.276-3.081 2.305-4.4 1.018-1.32 2.35-2.442 3.952-3.092 1.593-.655 3.456-.791 5.2-.33 1.412.361 2.709 1.082 3.817 2.005l-.003.002c-12.391 6.77-4.536 20.259-4.536 20.259s.14-1.813.62-4.262c.512 1.201 1.205 2.324 2.074 3.336 5.102 5.953 6.141 12.875 6.152 12.944l.277 1.953 1.066-1.436c.074-.099.896-1.223 1.964-3.102 2.012 1.092 3.938 1.484 4.03 1.502l.887.174-.092-.965c-.063-.676.059-1.416.307-2.196 2.879.747 5.255.36 5.361.343l1.013-.172-.586-1.008c-.008-.016-.896-1.609-1.04-4.141 2.271.363 3.318.934 3.33.942l.621.349.326-.594c.035-.064.779-1.499.959-3.711 2.379-.359 3.975-.776 4.147-.824l1.369-.364-1.194-1.04c-.041-.033-3.985-3.501-7.721-10.459-.543-1.01-1.158-1.943-1.824-2.808 1.914.615 3.188 1.138 3.188 1.138s-8.982-12.282-19.058-6.777l-.763.426c-1.136-1.153-2.554-2.13-4.24-2.695-1.984-.686-4.313-.702-6.359-.026-2.063.664-3.795 1.927-5.124 3.384-1.344 1.461-2.326 3.122-3.088 4.825-1.028 2.303-1.562 4.799-1.664 7.296-2.248-.13-6.756.346-10.245 5.453-5.639 8.253 3.02 17.039 3.02 17.039m43.355-13.297c.081-.118.161-.234.241-.352l.276-.405c1.481-.04 2.884-.155 4.14-.304-.117.869-.324 1.561-.489 2.003-.749-.292-2.118-.71-4.168-.942m-3.188 5.234c.568-1.207 1.344-2.471 2.164-3.713.166.012.329.023.486.039.085 1.728.473 3.098.803 3.977-.801.036-2.055.008-3.453-.303m-4.995 1.63c1.082-2.071 2.28-4.768 3.192-7.881 1.19.156 2.381.238 3.543.265-1.926 2.827-3.917 5.918-4.136 8.656-.647-.189-1.61-.527-2.599-1.04m-11.035-17.047c.918 2.502 3.203 5.731 8.852 7.866 1.238.469 2.526.807 3.826 1.051-1.385 4.547-3.428 8.182-4.609 10.065-.677-2.63-2.354-7.52-6.183-11.986-1.268-1.479-2.098-3.243-2.452-5.144.168-.612.356-1.233.566-1.852m5.196-7.557c3.092-1.691 8.315-.869 12.373.205 1.207 1.197 2.295 2.63 3.178 4.274 2.711 5.055 5.496 8.312 7.004 9.884-3.236.676-11.837 2.066-18.549-.471-4.773-1.802-7.693-4.773-8.225-8.365-.017-.114-.025-.229-.037-.343 1.021-2.218 2.4-4.171 4.256-5.184"/><path d="m42.628 45.404c4.011 3.311 11.906 4.756 11.906 4.756s-8.48 6.493-16.445 2.264c-6.833-3.626-5.082-8.735-5.082-8.735s3.801-3.091 9.621 1.715"/></svg>