<svg xmlns="http://www.w3.org/2000/svg" viewBox="0 0 64 64" enable-background="new 0 0 64 64"><path d="m56.745 49.696c-9.055-6.69-10.482-6.958-14.822-11.298-3.314-3.314-5.576-5.575-10.414-10.416-3.139-3.137-.436-11.009-8.596-19.173-5.799-5.797-15.307-8.989-19.201-5.099-3.895 3.895-.699 13.407 5.098 19.205 8.163 8.159 16.035 5.455 19.174 8.595 4.84 4.838 7.101 7.1 10.414 10.415 4.34 4.34 4.608 5.768 11.297 14.821 3.306 4.482 6.474 7.332 10.429 3.377 3.952-3.952 1.102-7.12-3.379-10.427m-31.404-25.305c-1.201 1.203-2.884 1.754-4.791 1.738-.182-.045-.359-.084-.544-.129 2.753-5.176 1.013-13.155-4.378-20.103 2.188 1.008 4.4 2.494 6.267 4.363 3.313 3.313 4.829 6.461 5.185 9.31.237 1.911-.532 3.614-1.739 4.821"/></svg>