<svg xmlns="http://www.w3.org/2000/svg" viewBox="0 0 64 64" enable-background="new 0 0 64 64"><path d="m53.875 8.962l-.152-.166-.213-.107c-12.412-6.23-15.146-6.537-20.667-6.68-.421-.012-1.263-.012-1.685 0-5.522.143-8.258.449-20.668 6.68l-.213.107-.152.166c-.333.368-8.125 9.393-8.125 43.778l.008 1.523 1.703-.498c.033-.01 3.313-.936 9.521-.15-.41 1.203-1.195 3.285-2.463 5.764l-.531 1.039 1.246.41c.35.113 8.545 2.705 19.752-1.295 5.159 1.903 9.653 2.467 13.17 2.467 4.945 0 7.961-1.115 8.174-1.195l1.154-.441-.504-.984c-1.268-2.479-2.053-4.561-2.463-5.764 6.209-.785 9.488.141 9.516.148l1.717.521v-1.545c0-34.385-7.793-43.41-8.125-43.778m-22.637-4.779c.381-.01 1.145-.01 1.523 0 1.883.049 3.374.089 5.202.475-.553 2.078-2.471 9.142-5.02 16.978-3.991-6.603-6.131-14.905-6.637-17.033 1.707-.336 3.141-.374 4.932-.42m-26.666 47.19c.013-1.982.053-3.871.116-5.68 3.456-1.904 8.173-1.854 8.173-1.854-3.625-.898-6.514-.621-8.086-.322 1.118-23.87 6.412-31.925 7.271-33.081 2.855-1.43 5.156-2.523 7.077-3.365.854 2.123 3.063 7.081 7.22 13.24 0 0-3.604-8.995-4.783-14.256.837-.326 1.59-.594 2.28-.813.664 2.783 3.208 12.386 8.114 19.369-1.712 5.061-3.644 10.213-5.607 14.389-3.517.15-6.112.445-7.613.654.086-3.137-.09-5.986-.475-8.147-1.141-6.41 0-11.273 0-11.273-1.121 1.781-1.336 3.021-1.336 3.021l-2.09-2.602c2.086 4.652.025 4.252 1.488 11.402.113.552.195 1.133.254 1.737-1.74-.191-4.773-.279-7.137.949 0 0 3.951-.781 7.236.895.05 3.131-.441 6.668-1.12 9.996-3.277-.13-6.334 1.018-6.334 1.018 2.558-.275 4.697.234 5.973.672-.338 1.494-.702 2.92-1.059 4.219-4.532-.625-7.757-.426-9.562-.168m9.804 7.848c2.423-4.582 3.724-10.725 4.18-16.41 2.256.25 4.436.424 6.52.541-1.875 1.689-4.378 4.58-6.816 9.367 0 0 2.266.711 4.406 1.344 0 0 1.607-3.08 4.263-6.549.768 3.941 2.145 8.314 2.769 10.203-6.894 2.336-12.506 1.961-15.322 1.504m17.936-1.664c-.598-1.791-2.658-8.172-3.216-12.637.712.557 1.318.904 1.558.703.271-.232 1.23-.951 2.24-1.768 3.907 4.354 6.387 9.119 6.387 9.119 2.141-.633 4.406-1.344 4.406-1.344-1.961-3.852-3.961-6.465-5.646-8.227 3.719-.178 6.396-.48 7.633-.639.455 5.713 1.762 11.895 4.205 16.494-2.875.613-9.297 1.332-17.567-1.701m17.778-6.047c-.328-1.199-.664-2.506-.979-3.877.994-.426 3.557-1.33 6.787-.982 0 0-3.621-1.357-7.207-.947-.646-3.164-1.127-6.521-1.135-9.543 3.408-2.355 8.121-1.418 8.121-1.418-2.848-1.48-6.68-1.049-8.033-.832.059-.645.146-1.265.266-1.854 1.463-7.15-.598-6.75 1.488-11.402l-2.09 2.602c0 0-.215-1.24-1.336-3.021 0 0 1.143 4.863 0 11.273-.389 2.19-.563 5.086-.469 8.272-4.439-.525-8.469-.773-12.004-.85-1.122-.91-2.337-1.734-2.836-1.426 0 0-.544.354-1.273.857 5.18-11.606 9.975-29.095 11.028-33.035.693.227 1.449.502 2.289.835-1.203 5.274-4.76 14.15-4.76 14.15 4.092-6.064 6.293-10.957 7.176-13.133 1.871.827 4.098 1.888 6.83 3.256.871 1.175 6.129 9.208 7.266 32.913-1.662-.191-4.078-.223-6.963.492 0 0 3.768-.035 7.037 1.318.074 1.971.123 4.033.137 6.215-1.776-.254-4.926-.451-9.34.137"/></svg>