<svg xmlns="http://www.w3.org/2000/svg" viewBox="0 0 64 64" enable-background="new 0 0 64 64"><path d="m44.656 26.521v-8.697c0-.365-.199-.672-.48-.861l9.824-14.963h-18.836l-3.164 4.747-3.164-4.747h-18.836l9.822 14.961c-.281.189-.48.496-.48.861v8.697c-4.481 3.669-7.342 9.24-7.342 15.482 0 11.045 8.955 19.999 20 19.999.682 0 1.354-.035 2.018-.102 10.097-1.01 17.982-9.532 17.982-19.897 0-6.242-2.863-11.813-7.344-15.48m-3.83-23.521h6.328l-8.826 13.24-3.164-4.746 5.662-8.494m.666 17.987l.973-1.459c.053.125.082.26.082.404v4.219c0 .277-.117.518-.297.699-3-1.797-6.498-2.85-10.25-2.85-3.754 0-7.252 1.053-10.252 2.852-.178-.184-.297-.424-.297-.701v-4.219c0-.145.031-.281.082-.404l.973 1.459h6.33 6.328 6.328m-24.646-17.987h6.328l11.324 16.987h-6.328l-11.324-16.987m15.154 56.001c-9.389 0-17-7.611-17-17s7.611-17 17-17c9.387 0 17 7.611 17 17s-7.613 17-17 17"/><path d="m32.236 26.548c-8.666 0-15.691 7.037-15.691 15.717 0 2.59.637 5.025 1.744 7.18-.559-1.711-.871-3.535-.871-5.434 0-9.203 7.109-16.725 16.127-17.396-.432-.036-.865-.067-1.309-.067"/><path d="m38.533 55.14c-1.574 1.059-3.26 1.82-4.988 2.316 2.398-.297 4.771-1.135 6.918-2.578 7.203-4.842 9.158-14.5 4.369-21.576-.246-.359-.508-.697-.777-1.031 4.425 7.736 2.113 17.736-5.522 22.869"/><path d="m38.875 46.169c0-1.305-.355-2.416-1.065-3.337-.711-.921-1.659-1.514-2.845-1.778 1.985-1.127 2.979-2.636 2.979-4.526 0-1.333-.485-2.526-1.454-3.585-1.176-1.295-2.739-1.94-4.687-1.94-1.139 0-2.167.223-3.084.669-.919.445-1.634 1.058-2.146 1.837-.513.778-.896 1.819-1.15 3.123l3.655.646c.104-.941.396-1.655.876-2.146.479-.49 1.059-.734 1.736-.734.687 0 1.238.216 1.652.647.414.43.621 1.008.621 1.733 0 .853-.283 1.536-.848 2.05-.564.515-1.384.758-2.457.729l-.438 3.365c.706-.206 1.313-.309 1.822-.309.771 0 1.425.303 1.962.911.537.606.806 1.43.806 2.468 0 1.099-.28 1.97-.841 2.617-.561.646-1.25.97-2.068.97-.763 0-1.412-.271-1.948-.809s-.865-1.318-.988-2.338l-3.84.486c.198 1.812.913 3.278 2.146 4.401 1.233 1.121 2.786 1.683 4.659 1.683 1.976 0 3.627-.667 4.955-1.999 1.327-1.332 1.99-2.943 1.99-4.834"/></svg>