<svg xmlns="http://www.w3.org/2000/svg" viewBox="0 0 64 64" enable-background="new 0 0 64 64"><path d="m58.266 2h-52.534c-2.058 0-3.732 1.795-3.732 4v39c0 .553.835 1 1.866 1s1.866-.447 1.866-1v-1.114l1.883-2.007 2.926 3.121h3.902l2.926-3.121 2.926 3.121h3.902l2.926-3.121 1.909 2.036c-.664 1.563-1.033 3.28-1.033 5.085 0 7.18 5.82 13 13 13s13-5.82 13-13c0-1.396-.226-2.739-.634-4h.094l2.926-3.121 1.881 2.004v1.117c0 .553.835 1 1.867 1 1.031 0 1.867-.447 1.867-1v-39c0-2.205-1.675-4-3.734-4m-1.41 4l-.472.503-.471-.503h.943m-5.851 0h1.008l2.424 2.584-2.928 3.121-2.926-3.121 2.422-2.584m-17.054 28.597l2.926-3.121 2.926 3.121-1.607 1.715c-.704.155-1.387.368-2.044.632l-2.201-2.347m-4.49 14.586c-.141.359-.231.732-.283 1.104-.094-.941-.077-1.893.011-2.736.035.527.119 1.082.272 1.632m12.518-11.856c-.32.426-.65 1.06-.805 1.371-.654.107-3.14.582-5.089 1.846-.394-.104-1.579-.382-2.703-.285.277-.539.694-.938.739-.979.154-.111 3.131-2.192 6.746-2.147v.006c.321.023.79.092 1.112.188m7.745 6.034c-.633-.324-2.226-1.018-4.41-1.135-.329-.487-1.573-2.188-3.536-3.368.269-.526.643-1.168.86-1.363.071-.02.182-.038.35-.038 1.053 0 2.871.689 3.031.751.167.089 3.436 1.85 4.074 3.533-.005.188-.05.855-.369 1.62m1.638 5.491c-.729 2.269-2.171 3.798-2.538 4.158-.487-.019-2.364-.127-4.425-.61-.395-1.376-1.698-4.769-1.996-5.54 1.278-1.826 2.537-3.546 2.887-4.023 2.371.131 4.033.995 4.356 1.176 1.374 2.207 1.673 4.462 1.716 4.839m-21.355-4.151c.523-.936 2.014-3.321 2.996-3.773 1.02-.208 2.29.05 2.806.176-.049.674-.142 2.554.138 4.526-1.129.907-2.913 3.52-3.375 4.209-1.426-.243-2.274-.687-2.528-.837-.53-1.924-.104-4.003-.037-4.301m6.345 1.385c.602.111 3.116.572 5.487 1.002.297.771 1.604 4.179 1.979 5.493-.412.488-2.032 2.376-3.628 3.854-1.694.008-4.576-.969-5.124-1.162-1.196-1.933-1.876-4.46-2.022-5.04.377-.567 2.243-3.319 3.308-4.147m-1.442 9.779c.679.239 3.468 1.184 5.247 1.184.302.405 1.293 1.678 2.507 2.649-.756.74-1.847 1.09-2.04 1.147-3.386.091-6.684-1.813-7.416-3.563.627-.604 1.402-1.193 1.702-1.417m8.357 4.084c.539-.073 2.858-.474 4.954-2.014.138.017.366.034.62.026-1.257 1.233-4.324 2.608-6.69 2.878.383-.222.784-.517 1.116-.89m5.309-2.598c.753-1.962.721-3.44.684-3.913.414-.404 1.832-1.916 2.619-4.214.424.07.7.179.831.239.046.166.122.552.077 1.136-.319 2.101-1.428 5.249-3.368 6.642-.193.099-.537.121-.843.11m-9.748-27.956l2.926-3.121 2.926 3.121-2.926 3.121-2.926-3.121m-1.951-2.082l-2.926-3.121 2.926-3.121 2.926 3.121-2.926 3.121m6.829-3.121l2.926-3.121 2.925 3.121-2.925 3.121-2.926-3.121m0-10.406l2.926-3.121 2.925 3.121-2.925 3.121-2.926-3.121m.974 5.205l-2.926 3.121-2.926-3.121 2.926-3.124 2.926 3.124m-7.803-2.084l-2.926-3.121 2.926-3.121 2.926 3.121-2.926 3.121m-1.951 2.084l-2.926 3.121-2.926-3.121 2.926-3.124 2.926 3.124m-7.803-2.084l-2.926-3.121 2.926-3.121 2.926 3.121-2.926 3.121m-1.951 2.084l-2.926 3.121-2.926-3.121 2.926-3.124 2.926 3.124m-7.803-2.084l-2.926-3.121 2.926-3.121 2.926 3.121-2.926 3.121m-1.951 2.084l-2.926 3.121-2.926-3.121 2.926-3.124 2.926 3.124m0 10.404l-2.926 3.121-2.926-3.121 2.926-3.121 2.926 3.121m-.975-5.203l2.926-3.121 2.926 3.121-2.926 3.121-2.926-3.121m7.803 2.081l2.926 3.121-2.926 3.121-2.926-3.121 2.926-3.121m1.951-2.081l2.926-3.121 2.926 3.121-2.926 3.121-2.926-3.121m7.803 2.081l2.926 3.121-2.926 3.122-2.926-3.121 2.926-3.122m13.938 10.704l-2.231-2.38 2.926-3.121 2.925 3.121-2.653 2.831c-.318-.161-.637-.315-.967-.451m2.645-7.582l2.926-3.121 2.928 3.121-2.928 3.121-2.926-3.121m0-10.404l2.926-3.124 2.928 3.124-2.928 3.121-2.926-3.121m-1.479-12.991l-.472.503-.472-.503h.944m-5.853 0h1.006l2.423 2.584-2.926 3.121-2.926-3.121 2.423-2.584m-3.902 0l-.472.503-.472-.503h.944m-5.852 0h1.006l2.423 2.584-2.926 3.121-2.926-3.121 2.423-2.584m-3.902 0l-.472.503-.472-.503h.944m-5.852 0h1.006l2.423 2.584-2.926 3.121-2.926-3.121 2.423-2.584m-3.902 0l-.472.503-.472-.503h.944m-5.852 0h1.006l2.423 2.584-2.926 3.121-2.926-3.121 2.423-2.584m-3.903 0l-.471.503-.471-.503h.942m-2.354 6.672l1.883-2.007 2.926 3.121-2.926 3.121-1.883-2.007v-2.228m0 10.406l1.883-2.007 2.926 3.121-2.926 3.121-1.883-2.007v-2.228m0 12.633v-2.229l1.883-2.007 2.926 3.121-2.926 3.121-1.883-2.006m6.76 7.208l-2.926-3.121 2.926-3.121 2.926 3.121-2.926 3.121m1.951-8.322l2.926-3.121 2.926 3.121-2.926 3.121-2.926-3.121m7.803 8.322l-2.926-3.121 2.926-3.121 2.926 3.121-2.926 3.121m1.951-8.322l2.926-3.121 2.926 3.121-2.926 3.121-2.926-3.121m4.877 5.201l2.926-3.121 1.563 1.668c-1.175.821-2.201 1.835-3.048 2.99l-1.441-1.537m23.036 2.479c-.749-1.235-1.688-2.343-2.793-3.264l2.191-2.337 2.928 3.121-2.326 2.48m6.156-6.564l-1.881 2.005-2.926-3.121 2.926-3.121 1.881 2.005v2.232m0-10.404l-1.881 2.005-2.926-3.121 2.926-3.121 1.881 2.005v2.232m0-10.407l-1.881 2.005-2.926-3.121 2.926-3.121 1.881 2.005v2.232"/></svg>