<svg xmlns="http://www.w3.org/2000/svg" viewBox="0 0 64 64" enable-background="new 0 0 64 64"><path d="m33.545 26.613c-.434-.036-.867-.067-1.309-.067-8.668 0-15.691 7.036-15.691 15.718 0 2.59.637 5.025 1.744 7.178-.561-1.711-.873-3.533-.873-5.43 0-9.205 7.111-16.729 16.129-17.399"/><path d="m38.533 55.139c-1.576 1.057-3.26 1.818-4.988 2.316 2.398-.299 4.771-1.137 6.918-2.578 7.203-4.842 9.158-14.5 4.367-21.578-.244-.359-.508-.696-.777-1.028 4.427 7.733 2.115 17.735-5.52 22.868"/><path d="m44.656 26.519v-8.698c0-.364-.199-.67-.48-.86l9.824-14.961h-18.836l-3.164 4.746-3.164-4.746h-18.836l9.822 14.96c-.281.19-.48.497-.48.861v8.698c-4.481 3.668-7.342 9.239-7.342 15.481 0 11.045 8.955 20 20 20 .682 0 1.354-.035 2.018-.102 10.097-1.011 17.982-9.533 17.982-19.898 0-6.242-2.863-11.813-7.344-15.481m-3.83-23.519h6.328l-8.826 13.239-3.164-4.746 5.662-8.493m.666 17.985l.973-1.458c.053.125.082.261.082.404v4.219c0 .277-.117.517-.297.7-3-1.798-6.498-2.85-10.25-2.85-3.754 0-7.252 1.053-10.252 2.851-.178-.184-.297-.423-.297-.701v-4.219c0-.143.031-.28.082-.404l.973 1.459h6.33 6.328 6.328zm-24.646-17.985h6.328l11.324 16.985h-6.328l-11.324-16.985m15.154 56c-9.389 0-17-7.611-17-17 0-9.388 7.611-17 17-17 9.387 0 17 7.612 17 17 0 9.389-7.613 17-17 17"/><path d="M34.234,49.207V31h-3.844c0,1.677-1.359,3.035-3.034,3.035v3.793c0.274,0,2.345-0.156,3.034-0.432v11.811h-3.034V53h9.912
		v-3.793H34.234z"/></svg>