<svg xmlns="http://www.w3.org/2000/svg" viewBox="0 0 64 64" enable-background="new 0 0 64 64"><path d="m59.75 15.694c-1.11-2.62-5.262-6.694-11.867-6.694-.797 0-1.616.061-2.436.181-1.655.242-3.16 1.003-4.368 1.614-.648.328-1.455.736-1.744.736-8.785-.369-10.614 1.554-12.258 3.242-.763.784-1.421 1.46-2.851 1.879-1.351.395-8.207 2.629-10.571 7.919-.114.256-.724.708-1.313 1.144-1.067.79-2.507 1.863-3.934 3.634-4.435 4.3-7.52 14.032-6.029 19.849.743 2.904 2.53 4.615 5.17 4.953 4.544.578 8.387.849 12.095.849 2.455 0 4.885-.119 7.432-.364 1.321-.127 2.484-.522 3.465-1.165 2.181-.545 4.129-2.621 6.716-5.391 2.523-2.701 5.663-6.063 10.116-9.14.762-.526 1.508-1.035 2.235-1.53 9.348-6.375 16.105-10.982 10.142-21.716m-44.335 9.572c.205-.08.446-.188.729-.329 4.199-.824 7.717-3.587 15.159.822 5.35 4.427 6.393 8.088 6.632 5.334.829-3.792-6.528-10.427-13.395-9.886-3.046-.245-5.988.952-7.89 2.135 2.615-3.133 7.09-4.589 8.105-4.885 1.042-.305 1.79-.732 2.395-1.195.192-.058.427-.147.755-.312 3.171-.624 5.831-2.709 11.451.621 4.041 3.343 4.828 6.11 5.01 4.03.625-2.866-4.933-7.877-10.117-7.47-1.749-.141-3.445.352-4.792.987 1.222-.984 3.077-1.752 7.752-1.752.633 0 1.313.015 2.128.047.738 0 1.559-.415 2.597-.94.017-.008.036-.018.053-.026 2.123-.308 4.168-1.175 7.676 1.463 2.679 2.759 3.044 4.831 3.331 3.336.669-2.026-2.984-6.118-6.776-6.25-.012-.002-.021-.002-.032-.004.572-.066 1.143-.11 1.698-.11 5.952 0 9.41 3.769 10.153 5.594 2.686 6.599-.082 8.154-7.48 12.309-4.495 2.525-10.488 5.898-17.229 11.811-.562-2.055-1.446-4.145-2.643-6.129-3.155-5.228-8.414-8.475-13.723-8.475-.752 0-1.492.072-2.221.2.273-.268.5-.542.639-.854.009-.027.024-.048.035-.072m-11.082 23.435c-1.394-5.439 2.058-15.563 6.367-18.676 1.835-1.326 4-2.025 6.26-2.025 4.604 0 9.202 2.874 11.994 7.5 3.025 5.013 3.933 10.896 2.209 14.309-.851 1.684-2.291 2.635-4.282 2.827-6.242.599-11.679.464-19.077-.479-1.799-.23-2.934-1.36-3.471-3.456m44.21-12.844c-.73.498-1.479 1.01-2.244 1.537-4.621 3.192-7.838 6.637-10.423 9.404-.847.907-1.613 1.722-2.329 2.426.57-1.895.64-4.146.245-6.52 6.915-6.217 13.099-9.704 17.69-12.283 3.937-2.211 7.012-3.951 8.478-6.381-.656 4.459-5.188 7.569-11.417 11.817"/></svg>