<svg xmlns="http://www.w3.org/2000/svg" viewBox="0 0 64 64" enable-background="new 0 0 64 64"><path d="m57.401 3.277c-1.48-.844-3.14-1.277-4.918-1.277-3.483 0-7.47 1.688-11.861 5.021-.209-.035-.418-.054-.625-.054-.902 0-1.736.345-2.348.972-.764.785-1.32 1.811-1.66 3.054-3.081 2.925-6.36 6.572-9.763 10.854-.743.248-1.419.768-1.804 1.281-.432.571-.728 1.305-.882 2.182-1.513 1.96-3.186 3.955-5.088 6.068-1.146.127-2.369.754-2.814 1.981-.147.401-.221.835-.219 1.297-.755.797-1.495 1.571-2.214 2.321-1.188 1.241-2.319 2.424-3.373 3.564-1.025.12-2.3.684-2.943 1.559-.505.693-.73 1.575-.685 2.683-2.407 3.161-3.54 5.781-3.602 8.341-.747 1.344-.67 2.415-.451 3.106.365 1.146 1.152 2.058 2.291 2.665 1.041 1.388 2.958 2.831 6.435 2.831.898 0 1.874-.098 2.911-.29.602.372 1.233.564 1.862.564.742 0 2.044-.278 3.035-1.991 2.89-1.101 6.102-2.714 9.573-4.807.481.135.926.159 1.185.159.63 0 1.522-.125 2.201-.722.464-.408.954-1.106 1.022-2.262 1.289-.87 2.583-1.782 3.868-2.725.036.002.072.002.108.002 1.151 0 2.521-.636 2.999-2.355 1.293-1.006 2.606-2.063 3.914-3.149 1.639-1.354 3.241-2.829 4.771-4.388 1.066-.112 1.95-.541 2.582-1.256.613-.695.93-1.584.943-2.648 1.77-2.145 3.351-4.371 4.711-6.636.869-.309 1.518-.849 1.871-1.571.24-.493.42-1.224.154-2.157 4.941-10.192 4.493-19.06-1.186-22.217m-.869 22.146c.938 1.649-.463 2.069-1.188 2.175-1.463 2.527-3.262 5.097-5.402 7.623.287 2.309-1.188 2.696-2.197 2.696-.081 0-.159-.002-.233-.007-1.572 1.641-3.282 3.251-5.153 4.798-1.487 1.236-2.965 2.419-4.43 3.547-.1 1.197-.682 1.525-1.286 1.525-.204 0-.412-.038-.604-.092-1.799 1.339-3.571 2.58-5.303 3.725.108.618.133 1.413-.327 1.818-.192.168-.568.255-.965.255-.501 0-1.036-.139-1.271-.43-3.945 2.443-7.616 4.3-10.834 5.451-.001.002-.001.002-.001.006-.514 1.222-1.121 1.611-1.687 1.611-.547 0-1.056-.364-1.407-.697-1.221.279-2.347.423-3.367.423-2.359 0-4.142-.772-5.176-2.434-.741-.306-1.469-.833-1.763-1.754-.205-.646.106-1.379.542-2.015-.11-2.679 1.319-5.355 3.659-8.3-.103-.716-.127-1.605.261-2.137.295-.402 1.196-.818 1.824-.818.147.001.28.023.386.075 1.985-2.184 4.309-4.541 6.766-7.154-.096-.418-.132-.892.024-1.314.181-.499.875-.771 1.49-.771.133 0 .261.013.38.039 2.008-2.203 4.063-4.595 6.058-7.207.05-.493.19-1.273.594-1.808.26-.346.845-.681 1.174-.681.053 0 .099.009.135.027 3.504-4.453 7.03-8.429 10.45-11.624.174-.839.532-1.926 1.311-2.727.277-.283.633-.405 1.006-.405.334 0 .682.096 1.003.259 4.138-3.289 8.051-5.226 11.483-5.226 1.424 0 2.766.333 4.007 1.041 4.797 2.667 4.826 11.09.041 20.507"/><path d="m8.785 49.344c-.205-.211-.734-.012-1.18.447-.446.457-.642 1.002-.435 1.215.207.211.734.012 1.18-.447.447-.457.642-1.002.435-1.215"/><path d="m13.447 53.436c-.393.404-.526.924-.295 1.16.23.236.735.102 1.129-.303.395-.406.527-.926.297-1.162s-.736-.1-1.131.305"/><path d="m8.515 57.371c-.281.289-.384.648-.233.805.152.156.504.051.783-.238s.385-.648.23-.803c-.152-.156-.501-.049-.78.236"/><path d="m43.856 9.93c-.428.439-.592.979-.373 1.205.223.227.748.055 1.174-.383.43-.439.596-.98.373-1.205-.218-.229-.744-.057-1.174.383"/><path d="m51.622 6.34c-.266-.273-.861-.1-1.334.383-.473.484-.639 1.098-.373 1.369.266.275.861.102 1.332-.381.473-.484.639-1.1.375-1.371"/><path d="m50.837 12.549c-.324.332-.439.756-.256.943s.594.068.918-.264c.324-.334.439-.756.258-.943-.186-.185-.596-.07-.92.264"/><path d="m56.077 7.846c-.529.545-.691 1.262-.357 1.604.328.342 1.029.174 1.559-.369.531-.545.693-1.264.359-1.604-.33-.34-1.03-.176-1.561.369"/><path d="m15.275 39.283c-.406.418-.557.939-.336 1.166s.729.074 1.135-.344c.406-.414.557-.939.335-1.164-.221-.228-.73-.074-1.134.342"/><path d="m24.131 43.32c-.498.514-.637 1.205-.309 1.545.334.338 1.006.197 1.506-.314.502-.516.637-1.207.307-1.545-.33-.342-1.002-.199-1.504.314"/><path d="m39.349 26.398c-.51.525-.689 1.189-.4 1.486.287.299.938.113 1.449-.41.51-.525.691-1.191.402-1.488-.291-.297-.938-.113-1.451.412"/><path d="m30.418 26.363c-.414.422-.557.961-.318 1.203.234.244.76.096 1.174-.328.412-.424.555-.963.318-1.205s-.759-.095-1.174.33"/><path d="m36.017 39.646c-.432.447-.547 1.055-.252 1.355.295.303.885.186 1.322-.258.434-.447.547-1.055.252-1.359-.293-.302-.887-.185-1.322.262"/><path d="m46.587 28.789c-.449.467-.578 1.088-.283 1.391s.9.172 1.352-.293.578-1.084.283-1.389c-.295-.303-.897-.172-1.352.291"/></svg>