<svg xmlns="http://www.w3.org/2000/svg" viewBox="0 0 64 64" enable-background="new 0 0 64 64"><path d="m37.656 2c-47.541 0-47.541 60-.001 60h.001c13.445 0 24.344-13.432 24.344-30 0-16.57-10.899-30-24.344-30m0 58.258c-12.665 0-22.931-12.65-22.931-28.258 0-15.606 10.266-28.256 22.931-28.256s22.93 12.65 22.93 28.256c0 15.607-10.265 28.258-22.93 28.258"/><path d="m37.656 7.295c-11.073 0-20.048 11.06-20.048 24.705 0 13.645 8.975 24.704 20.048 24.704 11.071 0 20.047-11.059 20.047-24.704 0-13.645-8.975-24.705-20.047-24.705m0 47.908c-10.228 0-18.548-10.408-18.548-23.204 0-12.795 8.32-23.205 18.548-23.205 10.227 0 18.547 10.41 18.547 23.205 0 12.796-8.32 23.204-18.547 23.204"/><path d="m49.188 23.793l-7.685 3.468 2.814-9.471-5.249 7.735-1.411-9.936-1.41 9.936-5.25-7.735 2.813 9.471-7.684-3.47 6.275 6.47-8.06 1.739 8.061 1.741-6.276 6.467 7.687-3.469-2.816 9.469 5.252-7.732 1.41 9.934 1.411-9.934 5.251 7.732-2.817-9.469 7.685 3.471-6.279-6.47 8.062-1.74-8.062-1.738 6.278-6.469m-2.959 8.207l-3.53.762-1.762.381 1.255 1.293 2.62 2.701-2.899-1.311-1.994-.9.625 2.098.976 3.281-1.624-2.393-1.453-2.139-.364 2.561-.421 2.961-.42-2.961-.363-2.561-1.454 2.139-1.627 2.396.978-3.285.623-2.096-1.995.899-2.902 1.311 2.621-2.701 1.255-1.293-1.762-.381-3.53-.762 3.53-.762 1.762-.38-1.255-1.294-2.619-2.7 2.897 1.31 1.993.9-.622-2.097-.977-3.289 1.628 2.399 1.453 2.142.364-2.563.42-2.962.421 2.962.364 2.563 1.453-2.142 1.625-2.394-.977 3.284-.622 2.096 1.992-.899 2.898-1.308-2.62 2.699-1.256 1.294 1.763.38 3.532.761"/><path d="m36.206 19.271l-1.303-1.89-.444 2.419 1.302 1.888z"/><path d="m33.664 15.896l-1.304-1.891-.444 2.419 1.302 1.889z"/><path d="m41.395 16.857l-1.703 1.323-.162 2.471 1.7-1.321z"/><path d="m39.106 44.727l1.302 1.89.446-2.418-1.303-1.888z"/><path d="m41.648 48.105l1.303 1.887.445-2.416-1.302-1.89z"/><path d="m33.918 47.141l1.702-1.321.162-2.47-1.7 1.32z"/><path d="m46.023 29.664l1.961.546 1.534-1.603-1.962-.549z"/><path d="m50.726 27.08l1.532-1.606-1.962-.548-1.534 1.604z"/><path d="m46.866 34.309l1.072 2.095 2.004.201-1.071-2.097z"/><path d="m29.289 34.334l-1.961-.547-1.534 1.604 1.963.548z"/><path d="m24.589 36.918l-1.534 1.607 1.964.547 1.531-1.603z"/><path d="m28.448 29.689l-1.073-2.096-2.007-.201 1.074 2.098z"/><path d="m47.164 22.624l-1.963.552-.819 2.262 1.962-.549z"/><path d="m48.535 18.338l-1.959.553-.823 2.262 1.964-.549z"/><path d="m26.776 45.66l1.961-.553.82-2.261-1.96.549z"/><path d="m31.886 21.294l-1.837-1.011.446 2.418 1.837 1.01z"/><path d="m28.855 22.02l-.446-2.419-1.839-1.009.449 2.416z"/><path d="m46.457 41.979l.445 2.419 1.838 1.008-.447-2.416z"/></svg>