<svg xmlns="http://www.w3.org/2000/svg" viewBox="0 0 64 64" enable-background="new 0 0 64 64"><path d="m62 36.928c0-3.316-2.132-6.319-5.724-8.674-.26-.938-.696-1.842-1.286-2.704.362-.848.576-1.728.638-2.632 2.324-2.064 3.653-4.488 3.653-7.105 0-7.746-11.598-13.813-26.405-13.813-14.485 0-25.893 5.808-26.381 13.313-2.322 2.063-3.649 4.483-3.649 7.098 0 1.688.552 3.296 1.566 4.778-.432 1.006-.66 2.057-.66 3.141 0 2.745 1.462 5.276 4.001 7.403-3.624 2.339-5.753 5.246-5.753 8.431 0 1.346.386 2.641 1.096 3.865 1.36 6.713 13.765 11.971 28.874 11.971s27.515-5.258 28.874-11.971c.71-1.225 1.096-2.52 1.096-3.865 0-1.574-.529-3.076-1.492-4.48 1.004-1.477 1.552-3.077 1.552-4.756m-6.044-17.178c-.003-.012-.005-.025-.008-.037.016-.003.029-.011.045-.014-.012.018-.025.034-.037.051m-20.571-15.36c20.15 0 24.914 13.488 19.633 13.488-2.72 0 .518 3.869-1.602 3.869-4.179 0 1.039 18.208-3.506 18.208-5.547 0 2.351-16.331-2.364-16.331-2.22 0-3.014 3.19-5.521 3.19-2.745 0-3.008-3.599-4.925-3.599-.757 0-1.771.561-3.297 2.124-1.894 1.941-3.881 3.192-5.503 3.192-1.667 0-2.949-1.321-3.352-4.573-.143-1.155-.595-1.56-1.14-1.56-.993 0-2.295 1.343-2.608 1.951-3.423 6.654 2.74 21.551-2.492 21.551-6.123 0 1.93-22.207-2.059-22.207-1.061 0-2.406 1.324-3.453 1.324-.188 0-.368-.043-.534-.145-3.761-2.303 3.613-8.931-.05-8.931-8.229.001.351-11.551 22.773-11.551m18.236 23.699c-.002-.088-.004-.174-.007-.262.099-.125.191-.25.282-.376.476.921.731 1.885.731 2.878 0 1.035-.282 2.039-.797 2.997-.025-.915-.066-1.866-.112-2.854-.014-.277-.028-.58-.042-.895.023-.189.045-.377.045-.568.001-.31-.038-.617-.1-.92m-24.37 6.2c-2.454 0-4.813-.188-7.048-.514-.074-.893-.125-1.776-.149-2.641 2.271.328 4.684.514 7.197.514 7.115 0 13.482-1.418 17.803-3.654-.118.938-.282 1.932-.421 2.744-4.433 2.183-10.566 3.551-17.382 3.551m17.015 4.959c-4.308 1.834-9.93 2.957-16.108 2.957-2.552 0-5.002-.201-7.314-.553-.007-.818-.061-1.701-.141-2.639 2.347.352 4.846.553 7.455.553 6.065 0 11.578-1.037 15.756-2.725.009.884.109 1.698.352 2.407m-23.823-12.701c.127-.472.276-.92.478-1.311.044-.075.125-.174.224-.279.125.703.296 1.309.495 1.846-.405-.08-.802-.166-1.197-.256m11.717 1.119c.366-.326.717-.655 1.027-.974.987-1.012 1.548-1.363 1.798-1.483.154.174.367.472.52.688.301.422.686.955 1.189 1.447-1.464.173-2.979.282-4.534.322m-24.874-10.577c.553.344 1.224.577 2.007.695-.085.184-.171.364-.245.521-.263.55-.582 1.225-.852 1.958-1.016-1.215-1.63-2.529-1.759-3.905.239.277.519.526.849.731m-2.554.696c.013.047.021.096.034.144-.7.998-1.081 2.06-1.081 3.162 0 3.553 3.925 6.69 9.93 8.604-.102.841-.215 1.688-.323 2.464-6.348-2.146-10.513-5.709-10.513-9.748 0-1.644.706-3.204 1.953-4.626m-1.046 12.545c0-.478.066-.947.181-1.409.245.245.5.487.772.722.386 2.918 3.415 5.516 8.03 7.323-.096.869-.173 1.693-.221 2.465-5.353-2.179-8.762-5.447-8.762-9.101m8.781 12.551c-.857-.713-1.575-1.471-2.112-2.27.645.305 1.333.584 2.038.854.006.498.029.971.074 1.416m-6.879.217c1.013 5.412 11.133 9.666 23.476 9.666 7.544 0 14.239-1.596 18.545-4.07 1.177-.379 2.287-.805 3.326-1.273-3.461 4.055-12.071 7.014-21.871 7.014-12.741 0-23.505-4.994-23.505-10.908 0-.146.017-.287.029-.429m24.382 15.297c-15.197 0-28.036-5.602-28.036-12.23 0-1.523.685-2.99 1.914-4.35-.142.559-.223 1.129-.223 1.711 0 7.203 11.174 12.844 25.438 12.844 12.797 0 23.098-4.543 25.083-10.678 1.159-.746 2.166-1.563 3.005-2.434.55.936.854 1.908.854 2.906.001 6.629-12.838 12.231-28.035 12.231m3.625-9.59c-5.243 0-10.076-.814-14.052-2.18.001 0 .001-.002.001-.002.534-.592.855-1.352 1.054-2.225 3.727 1.111 8.186 1.766 12.997 1.766 13.012 0 23.565-4.727 23.565-10.557 0-1.635-.83-3.183-2.312-4.565 2.044 1.735 3.218 3.743 3.218 5.885 0 6.559-10.957 11.878-24.471 11.878"/><path d="m14.228 14.36c2.608-.346-.479 4.47-.559 7.449-.079 2.962 10.807-6.138 12.071-.614 1.265 5.524 2.699 8.095 7.585 2.763 3.8-4.144 5.148-1.575 7.752.554 2.603 2.128 6.403-5.504 10.119-6.424 3.716-.921 3.953-3.569 2.768-5.181-1.187-1.61-2.09-1.17-1.187 1.382.903 2.553-3.95 1.496-6.403 4.144-2.451 2.648-4.032 3.338-6.167 1.382-2.135-1.958-6.063-.039-8.617 2.877-4.741 5.409-3.871-5.641-7.747-5.641-3.873 0-8.308 3.783-7.636 1.734.575-1.756 2.526-8.913-3.798-5.459-.864.469-.791 1.38 1.819 1.034"/><path d="m49.883 38.971c2.332 0 .967-11.879.967-11.879s-2.22 11.879-.967 11.879"/><path d="m19.146 45.107c2.29 0 .059-13.621.059-13.621s-1.959 13.621-.059 13.621"/><path d="m26.078 8.809v1.811l4.351 4.532 10.151-4.29v-1.995c6.524 1.715 9.921 4.507 9.921 1.981 0-.633-6.454-3.97-13.455-4.699l3.534 1.445-10.196 3.38-4.306-3.206 9.669-1.724c-.331-.018-.663-.039-.994-.044-7.602-.104-15.096 1.696-15.096 3.18 0 1.236 3.131.446 6.421-.371"/></svg>