<svg xmlns="http://www.w3.org/2000/svg" viewBox="0 0 64 64" enable-background="new 0 0 64 64"><path d="m58.24 46.543c2.393-4.309 3.76-9.266 3.76-14.543 0-16.568-13.432-30-30-30-5.277 0-10.233 1.367-14.541 3.759l-2.199-2.198c-2.08-2.08-5.462-2.08-7.542 0l-4.158 4.156c-2.08 2.08-2.08 5.463 0 7.543l2.199 2.199c-2.392 4.308-3.759 9.264-3.759 14.541 0 16.568 13.43 30 30 30 5.277 0 10.233-1.367 14.541-3.76l2.199 2.199c2.08 2.08 5.461 2.08 7.543 0l4.156-4.156c2.08-2.08 2.08-5.463 0-7.543l-2.199-2.197m-51.538-34.426c-.346-.346-.346-.91 0-1.258l4.158-4.158c.348-.346.91-.346 1.257 0l1.555 1.556c-2.027 1.567-3.847 3.388-5.415 5.415l-1.555-1.555m25.298 43.321c-12.943 0-23.437-10.493-23.437-23.438 0-12.944 10.494-23.437 23.437-23.437s23.438 10.493 23.438 23.437c0 12.945-10.495 23.438-23.438 23.438m25.299-2.297l-4.16 4.158c-.346.346-.91.346-1.256 0l-1.555-1.557c2.027-1.566 3.847-3.387 5.414-5.414l1.557 1.555c.346.346.346.91 0 1.258"/><path d="m41.563 31.034c2.781 5.853 4.078 7.806 9.055 3.782 4.973-4.021 7.279-13.742-11.025-23.467-4.977-2.644-12.928 2.365-12.031 6.585.899 4.222 11.225 7.249 14.001 13.1m9.082-4.852c3.396 0-2.086 1.861-5.354 4.683-1.584 1.368-.822-4.683 5.354-4.683m-4.532-7.491c3.398 0-2.084 1.858-5.352 4.682-1.579 1.366-.827-4.682 5.352-4.682m-7.306-4.88c3.395 0-2.088 1.861-5.35 4.679-1.586 1.368-.828-4.679 5.35-4.679"/><path d="m42.402 42.969c-4.059 2.887-6.549 6.307-5.574 7.643 1.756 2.414 1.756 2.414 9.102-2.814 4.053-2.883 6.549-6.307 5.574-7.641-1.764-2.413-1.764-2.413-9.102 2.812"/><path d="m42.545 41.646c1.852.072.697-1.646.91-3.809.209-2.164-1.551-1.055-4.867-1.248-3.32-.193-2.355 2.42-2.221 4.508.135 2.087 1.41.372 6.178.549"/><path d="m30.371 43.256c-1.132-.705-2.089-1.668-2.941-2.754.768.311 1.701.49 2.667.674.419.08.838.16 1.234.25.433.1.768.146 1.053.146 1.554 0 1.724-1.318 1.826-2.107.092-.713.219-1.691.859-2.982.336-.682.22-1.197.063-1.51-.412-.828-1.388-1.014-2.622-1.248-.688-.131-1.468-.279-2.244-.547-.562-.194-1.005-.284-1.396-.284-1.498 0-1.871 1.256-2.144 2.172-.158.531-.337 1.135-.69 1.797-.193.361-.301.707-.354 1.039-2.252-3.816-3.835-8.05-6.505-9.033-.062-.022-.127-.029-.189-.048.044-.097.072-.184.122-.285.336-.681.22-1.197.063-1.51-.316-.634-.963-.891-1.802-1.082.975-.919 2.265-2.275 4.095-4.205.143-.15.277-.3.414-.451-.105.268-.23.549-.387.841-.542 1.016-.243 1.625.467 2.035-.499.155-.858.406-1.021.768-1.33 2.954-1.33 2.954 7.484 7.066 4.863 2.27 9.406 2.787 10.143 1.158 1.332-2.961 1.332-2.961-7.484-7.069-1.165-.544-2.31-.985-3.391-1.322.168-.702.106-2.016 1.059-3.933.666-1.352-1.732-1.055-4.232-1.914-.23-.08-.426-.13-.604-.168 1.806-2.604 2.535-4.902 1.64-5.734-2.232-2.069-2.232-2.069-8.551 4.588-2.62 2.758-4.281 5.629-4.433 7.38-1.207.182-1.551 1.295-1.801 2.134-.158.532-.337 1.135-.69 1.798-.456.855-.522 1.633-.196 2.313.307.64.886 1.045 1.612 1.335-1.08 1.676-1.556 3.649-.819 5.461 7.105 17.48 17.333 17.244 22.169 13.688 4.839-3.555 3.05-5.02-2.474-8.457m-16.969-3.983c.932-5.314 7.193-4.877 5.564-3.764-3.359 2.304-6.081 6.682-5.564 3.764m8.967 2.346c-3.359 2.303-6.078 6.678-5.564 3.764.935-5.319 7.195-4.881 5.564-3.764m6.041 4.469c-3.359 2.303-6.076 6.68-5.564 3.766.937-5.317 7.193-4.879 5.564-3.766"/></svg>