<svg xmlns="http://www.w3.org/2000/svg" viewBox="0 0 64 64" enable-background="new 0 0 64 64"><path d="m17.82 52.881c-.166-.004.159.014 0 0"/><path d="m54.723 50.545c-3.115-3.428-4.611-7.59-7.508-10.904-.335-.392-.689-.769-1.057-1.137 1.355-1.634 1.933-3.547 3.627-4.951 1.992-1.723 5.633-2.609 7.363-4.279 1.605-1.643 1.416-4.072 2.816-5.662.512-.615 1.26-1.098 2.035-1.557-.561-.348-1.107-.779-1.613-1.301-.158-.168-.318-.348-.465-.537-.643-.832-1.248-1.459-1.807-1.93-1.174-1.047-2.299-1.367-3.307-1.633-.84-.229-1.633-.439-2.27-1.078-.301-.322-.566-.766-.76-1.365-.086-.281-.178-.547-.271-.795-.486-1.441-1.133-2.383-1.686-2.979-.971.58-1.996 1.133-2.893 2.035-1.738 1.658-2.875 4.398-4.822 6.105-2.07 1.744-5.059 2.49-7.389 4.287-.285.212-.551.449-.816.686-.428-.82-.889-1.608-1.428-2.336-2.016-2.826-5.131-4.641-6.869-7.318-1.615-2.602-1.965-6.143-3.357-8.621-.703-1.332-1.672-2.295-2.572-3.275-.822.516-1.87 1.402-2.908 2.922-.189.254-.386.537-.578.834-.422.639-.871 1.064-1.32 1.346-.909.525-1.848.533-2.839.533-.029 0-.058 0-.086 0-1.227-.014-2.603.002-4.282.845-.79.367-1.688.91-2.693 1.668-.229.17-.473.332-.706.473-.747.445-1.512.777-2.262 1.004.722.775 1.395 1.576 1.765 2.451 1.038 2.289-.003 5.053 1.25 7.461 1.384 2.486 5.184 4.672 6.845 7.307 1.67 2.522 1.369 5.378 2.961 8.043-1.682 1.507-3.315 3.102-5.378 4.342-2.144 1.271-4.825 2.228-7.443 3.263.326.67 1.041 1.404 2.459 1.932.761.268 3.174.637 3.297.648 1.432.189 2.187.598 2.604 1.113.77.908.585 2.191 1.639 3.195.833.713 2.612 1.311 5.821 1.5 1.971.074 3.83.336 5.018.693 1.615-.613 3.205-1.227 4.556-1.917.604 1.401 1.295 2.808 2.47 4.188 1.406 1.609 3.465 3.188 5.563 4.779 1.457-.033 3.256.158 5.502.695.189.051.4.1.582.135 1.767.387 3.151.547 4.241.547 1.182 0 2.021-.188 2.637-.484 1.529-.832 1.756-2.377 2.932-3.188.469-.337 1.178-.544 2.17-.544.365 0 .77.028 1.215.089.011.003.076.012.084.012.003 0-.004-.001-.026-.006 1.089.194 2.253.294 3.157.294.236 0 .455-.007.65-.021 1.779-.162 2.832-.783 3.43-1.463-2.601-2.029-5.296-3.988-7.278-6.144m.34-26.798c.342-.82.666-1.596 1.155-2.234.421-.581 1.029-1.114 1.674-1.679.072-.063.144-.126.216-.189.275.281.553.595.83.938-.572.439-1.113.909-1.532 1.452-.706.868-1.064 1.866-1.411 2.831-.379 1.054-.736 2.049-1.502 2.757-.844.742-2.189 1.301-3.615 1.893-1.399.58-2.846 1.181-3.989 2.029-1.233.883-2.091 1.983-2.921 3.048-.307.394-.613.772-.928 1.143-.579-.479-1.157-.954-1.724-1.431.118-.122.239-.244.355-.365.967-1.004 1.88-1.953 2.989-2.652 1.03-.67 2.351-1.157 3.627-1.628 1.562-.576 3.175-1.172 4.375-2.149 1.279-1.081 1.875-2.507 2.401-3.764m-17.334 2.435c1.049-.716 2.303-1.225 3.516-1.716 1.439-.584 2.93-1.188 4.146-2.168 1.244-1.043 2.036-2.387 2.802-3.687.531-.902 1.033-1.755 1.658-2.444.345-.395.752-.761 1.181-1.112.207.469.472.877.8 1.229.334.334.696.577 1.071.765-.393.375-.767.765-1.082 1.182-.643.808-1.089 1.73-1.521 2.623-.586 1.209-1.139 2.351-2.104 3.146-.963.755-2.327 1.245-3.771 1.765-1.356.487-2.76.992-3.99 1.767-1.166.713-2.176 1.641-3.146 2.567-.522-.779-.979-1.596-1.396-2.429.591-.555 1.191-1.066 1.836-1.488m-27.205 20.797c-.634-.456-1.497-.747-2.658-.901-.045-.005-.125-.017-.232-.033 1.599-.744 3.192-1.518 4.501-2.358 1.084-.71 3.222-2.04 5.679-3.552.556.479 1.143.958 1.735 1.438-2.025 1.244-3.735 2.325-4.648 2.966-1.203.818-2.742 1.608-4.377 2.44m8.925-3.098c.383-.492.834-.968 1.26-1.363.216.177.43.354.643.532-.113.144-.227.288-.363.456-2.458 2.922-7.005 4.141-7.005 4.141 3.116-1.274 4.825-2.959 5.465-3.766m4.516 4.804c-1.566 1.038-3.596 1.952-5.744 2.919l-.585.264c-1.548-.104-2.64-.3-3.41-.518.344-.174.688-.345 1.027-.514 1.771-.884 3.445-1.719 4.772-2.633.813-.572 2.273-1.512 4.021-2.607.145.164.286.328.417.494.416.51.761 1.028 1.068 1.551-.642.422-1.177.779-1.566 1.044m21.787 12.315c-1.023 0-2.295-.157-3.782-.47-.447-.385-.9-.769-1.352-1.15-1.898-1.608-3.691-3.127-4.931-4.623-1.224-1.509-1.928-3.058-2.672-4.698-.798-1.755-1.622-3.57-3.107-5.281-1.391-1.641-3.314-3.084-5.176-4.48-1.77-1.328-3.441-2.582-4.563-3.904-1.103-1.344-1.67-2.824-2.27-4.393-.569-1.486-1.157-3.023-2.222-4.406-1.001-1.35-2.421-2.498-3.794-3.609-1.416-1.146-2.754-2.229-3.451-3.358-.658-1.13-.725-2.423-.795-3.792-.063-1.213-.126-2.466-.604-3.645-.311-.829-.812-1.595-1.348-2.33.556-.413 1.091-.767 1.598-1.057.081.132.163.264.245.396.543.872 1.056 1.695 1.35 2.551.333.892.436 1.908.544 2.984.161 1.604.345 3.422 1.404 5.063.993 1.471 2.597 2.663 4.147 3.816 1.288.958 2.62 1.948 3.575 3.079 1.015 1.166 1.725 2.564 2.478 4.044.864 1.702 1.759 3.462 3.205 5.036 1.375 1.454 3.19 2.727 4.946 3.959 1.84 1.29 3.742 2.625 5.112 4.15 1.484 1.621 2.372 3.393 3.312 5.27.821 1.641 1.67 3.336 2.965 4.99 1.173 1.467 2.776 2.966 4.474 4.554.451.421.908.85 1.361 1.28-.204.016-.421.024-.649.024m-4.818-11.477c-2.066-5.016-3.658-6.285-9.646-10.361-5.479-3.762-6.129-8.156-6.129-8.156 1.119 2.041 2.689 4.631 9.781 9.393 4.516 3.014 6.486 7.131 7.6 10.047.447 1.145 1.801 3.641 4.881 6.109-.001 0-4.712-2.86-6.487-7.032m13.99 7.37l-.002.004-.023-.007-.059-.008c-.479-.064-.932-.098-1.35-.098-.77 0-1.438.11-1.998.327-1.591-1.512-3.087-2.943-4.177-4.299-1.189-1.51-2.069-3.147-2.921-4.731-1.072-1.994-2.182-4.057-3.909-5.906-1.563-1.708-3.541-3.079-5.454-4.404-1.72-1.191-3.344-2.317-4.605-3.619-1.303-1.372-2.246-3.063-3.159-4.698-.862-1.546-1.755-3.144-2.94-4.468-1.126-1.291-2.53-2.317-3.889-3.311-1.46-1.068-2.84-2.076-3.668-3.256-.855-1.287-1.095-2.809-1.348-4.42-.183-1.16-.371-2.359-.802-3.457-.251-.688-.601-1.349-.973-1.992.568-.085 1.156-.257 1.75-.601.504-.315.964-.746 1.374-1.289.414.607.801 1.231 1.093 1.883.47.996.748 2.156 1.043 3.383.417 1.734.848 3.527 1.888 5.128 1.014 1.478 2.474 2.641 3.887 3.765 1.209.963 2.459 1.958 3.423 3.152 1.018 1.214 1.806 2.69 2.639 4.253.951 1.784 1.935 3.628 3.354 5.231 1.377 1.52 3.124 2.81 4.813 4.057 1.716 1.268 3.489 2.577 4.878 4.131 1.479 1.615 2.531 3.439 3.645 5.372 1.031 1.789 2.098 3.64 3.559 5.379 1.32 1.547 3.008 3.05 4.803 4.632-.296-.039-.589-.084-.872-.133"/><path d="m25.381 24.618c0 0 1.976 1.969 3.214 4.754 1.861 4.006 5.643 6.162 5.643 6.162-4.929-3.646-4.145-8.371-8.857-10.916"/></svg>