<svg xmlns="http://www.w3.org/2000/svg" viewBox="0 0 64 64" enable-background="new 0 0 64 64"><path d="m59.242 8.787c-.332-3.22-.858-4.314-1.232-4.86-.516-.753-1.895-1.872-3.209-1.872-.098 0-.191.006-.284.017-.699.083-1.373.447-2.137 1.171-1.988-.816-4.18-1.243-6.418-1.243-5.116 0-10.254 2.197-14.097 6.028-2.635 2.628-3.8 5.249-4.829 7.561-.946 2.13-1.766 3.971-3.603 5.573-2.184 1.905-4.316 2.359-6.789 2.886-2.805.598-5.983 1.275-9.054 4.338-3.604 3.593-5.589 8.405-5.59 13.548 0 5.324 2.104 10.354 5.924 14.163 3.819 3.807 8.86 5.903 14.195 5.903 5.156 0 9.979-1.979 13.582-5.572 3.076-3.066 3.868-6.121 4.566-8.817.592-2.284 1.15-4.442 3.078-6.67 1.646-1.903 3.434-2.841 5.501-3.927 2.146-1.126 4.579-2.402 7.121-4.938 6.58-6.56 7.94-16.472 3.275-23.289m-4.598 21.961c-4.738 4.726-9.001 4.672-12.717 8.967-4.629 5.351-2.349 10.201-7.55 15.386-3.363 3.354-7.79 5.024-12.258 5.024-4.625 0-9.294-1.791-12.871-5.355-7.031-7.013-7.181-18.23-.333-25.058 5.166-5.152 10.456-2.518 15.752-7.138 4.305-3.754 3.757-8.464 8.522-13.218 3.64-3.628 8.312-5.48 12.772-5.48 2.417 0 4.772.544 6.867 1.645.61-.736 1.377-1.521 1.909-1.586.02-.002.041-.003.063-.003.515 0 1.389.659 1.663 1.059.546.794.827 3.015.959 4.475 4.442 6.023 3.391 15.132-2.778 21.282"/><path d="m56.018 5.711c-.304-.851-1.023-1.375-1.211-1.375-.541 0-1.602 1.456-1.602 1.456l2.869 2.417c0 0 .3-1.504-.056-2.498"/><path d="m43.51 6.802c1.136.063 4.51-1.388 4.23-1.667-.129-.128-.384-.236-.722-.32-1.002.511-2.754 1.144-3.512 1.101-.352-.019-1.064-.345-1.575-.646-.219.114-.413.245-.565.395-.154.151 1.537 1.103 2.144 1.137"/><path d="m37.539 11.924c.779-.276 4.198-3.714 4.148-4.136-.013-.104-.139-.22-.331-.334-.863 1.1-3.201 3.37-3.829 3.592-.562.201-2.272-.722-2.977-1.339-.157.183-.265.337-.296.44-.12.399 2.555 2.036 3.285 1.777"/><path d="m31.998 17.919c.551.016 3.935-4.068 3.917-4.522-.005-.103-.109-.228-.272-.362-.796 1.216-3.207 4.03-3.664 4.015-.549-.016-1.548-.492-1.931-1.025-.097.295-.144.516-.114.613.185.629 1.428 1.261 2.064 1.281"/><path d="m28.52 23.465c.375-.041 2.972-3.125 3.084-3.626.029-.13-.063-.302-.227-.486-.636.976-2.563 3.214-2.884 3.25-.488.052-1.333-.465-1.689-1-.073.15-.123.265-.133.32-.115.65 1.191 1.613 1.849 1.542"/><path d="m23.041 27.859c.524-.029 3.322-2.241 3.523-2.563.131-.209.086-.519-.054-.83-.311.399-2.99 2.509-3.503 2.538-.492.025-1.26-.743-1.614-1.387-.051.045-.092.084-.113.113-.308.452 1.03 2.167 1.761 2.129"/><path d="m15.477 31.027c.626.074 4.397-1.965 4.701-2.305.212-.235.209-.649.086-1.073-.028.083-.065.159-.122.221-.304.341-4.079 2.384-4.706 2.308-.592-.07-1.344-1.153-1.625-1.99-.367.543.815 2.734 1.666 2.839"/><path d="m9.974 35.722c.646-.058 3.622-3.202 3.797-3.651.074-.191.024-.452-.104-.738-.456.701-3.133 3.495-3.742 3.551-.671.061-1.802-1.021-2.223-1.839-.039.06-.069.108-.086.146-.282.627 1.455 2.612 2.358 2.531"/><path d="m8.693 38.149c.032-.134-.021-.335-.125-.567-.271.959-1.187 3.928-1.666 3.891-.626-.049-1.489-.938-1.783-1.541-.037.217-.059.389-.057.488.008.52 1.135 1.824 1.895 1.885.546.043 1.651-3.795 1.736-4.156"/><path d="m5.875 47.215c-.406-.033-.837-2.48-.994-4.145.054 1.49.572 4.936 1.055 4.972.445.034.643-3.486.712-3.781.026-.113-.022-.261-.107-.419-.098.998-.298 3.4-.666 3.373"/><path d="m9.541 48.004c-.273.725-1.192 2.731-1.841 2.084-.289-.287-.462-.851-.547-1.495.021.967.199 1.915.608 2.323.744.743 1.845-2.016 1.914-2.311.029-.117-.028-.337-.134-.601"/><path d="m8.112 43.154c-.06.334-.076.588-.031.686.132.281 2.026 3.002 2.328 3.072.603.141 2.558-3.082 2.464-3.568-.021-.102-.075-.244-.157-.408-.4 1.015-1.856 3.262-2.362 3.145-.275-.063-1.846-2.292-2.242-2.927"/><path d="m19.136 35.268c-.383.075-1.988-1.824-2.584-2.928-.104.082-.173.146-.181.18-.14.602 2.321 3.689 2.808 3.594.795-.154 4.517-2.514 4.565-3.201.011-.156-.05-.368-.154-.608-.624.878-3.734 2.822-4.454 2.963"/><path d="m23.545 29.021c-.087.076-.146.14-.153.172-.14.602 1.689 3.069 2.175 2.975.796-.154 4.305-2.922 4.353-3.609.013-.173-.049-.371-.158-.576-.631.959-3.516 3.193-4.228 3.333-.373.072-1.526-1.351-1.989-2.295"/><path d="m29.479 24.357c-.087.124-.141.209-.149.247-.139.602 1.688 2.776 2.173 2.683.312-.06 1.013-.596 1.753-1.265.48-.433.974-.921 1.391-1.375.581-.631 1.012-1.194 1.028-1.438.012-.149-.058-.328-.172-.517-.665 1.074-3.327 3.596-4.027 3.733-.377.075-1.545-1.203-1.997-2.068"/><path d="m36.548 20.662c-.387.075-2.067-1.242-2.672-2.089-.113.172-.188.296-.197.338-.14.6 2.403 2.716 2.889 2.62.796-.154 3.968-3.797 4.018-4.483.009-.137-.061-.301-.175-.479-.663 1.166-3.169 3.958-3.863 4.093"/><path d="m42.088 14.548c-.383.075-2.212-1.299-2.896-2.177-.144.158-.238.274-.248.317-.139.6 2.67 2.833 3.156 2.738.795-.155 4.387-3.403 4.436-4.089.011-.144-.064-.318-.188-.503-.746 1.092-3.566 3.58-4.26 3.714"/><path d="m45.499 7.517c-.167.108-.277.194-.288.242-.14.6 2.343 2.73 2.829 2.635.795-.154 4.051-2.812 4.099-3.499.014-.173-.063-.339-.196-.494-.721.992-3.221 2.975-3.905 3.108-.371.072-1.892-1.141-2.539-1.992"/><path d="m13.825 40.471c-.709-.136-2.378-2.214-2.902-3.234-.076.16-.119.297-.115.396.027.617 2.229 3.516 3.067 3.676.605.117 3.837-3.121 3.8-4.158-.004-.115-.054-.279-.133-.469-.501 1.279-3.171 3.894-3.717 3.789"/><path d="m59.484 18.433c-.058 1.326-.364 2.727-1.025 3.393-.133.135-.864-1.112-1.081-1.842-.043.228-.065.432-.057.589.034.604.988 2.292 1.143 2.138.81-.817 1.086-2.742 1.02-4.278"/><path d="m53.954 28.927c-.311.093-1.36-1.484-1.698-2.54-.03.051-.058.101-.071.14-.26.728 1.382 3.395 1.781 3.275.644-.192 3.154-3.132 3.369-4.524.028-.183.01-.445-.041-.737-.349 1.44-2.717 4.197-3.34 4.386"/><path d="m47.438 33.241c-.461-.134-.92-.828-1.144-1.442-.073.107-.124.197-.121.252.02.634.653 1.873 1.285 2.059.524.154 4.51-1.811 4.871-2.34.077-.115.039-.427-.067-.818-.554.593-4.316 2.44-4.824 2.289"/><path d="m42.13 36.5c-.472.085-1.103-.572-1.391-1.191-.076.094-.125.168-.129.211-.071.655.894 1.958 1.546 1.844.386-.068 3.466-1.898 3.657-2.392.072-.187.028-.467-.082-.772-.461.595-3.236 2.236-3.601 2.3"/><path d="m38.304 41.883c-.36.246-1.522-.551-1.962-1.254-.082.154-.135.278-.14.354-.037.729 1.684 2.063 2.135 1.755.415-.284 2.426-3.774 2.353-4.131-.022-.118-.095-.243-.185-.366-.474 1.066-1.863 3.41-2.201 3.642"/><path d="m37.716 44.574c-.346 1.369-1.492 4.396-1.84 4.736-.408.399-2.209-.471-2.743-1.277-.074.219-.117.396-.106.491.107.87 2.421 2.092 2.89 1.635.432-.421 2.084-4.966 1.924-5.374-.028-.071-.073-.141-.125-.211"/><path d="m30.808 55.521c-.51.229-1.911-.863-2.384-1.764-.06.102-.102.191-.107.255-.081.899 1.91 2.63 2.54 2.349.579-.256 4.056-3.461 3.972-3.924-.026-.137-.106-.303-.222-.479-.701.978-3.304 3.343-3.799 3.563"/><path d="m23.55 58.076c-.396-.007-1.245-.656-1.657-1.301-.116.088-.185.172-.179.244.061.757 1.37 1.883 1.892 1.89.735.011 5.213-1.128 5.074-1.534-.055-.157-.192-.352-.377-.559-1.022.5-4.149 1.269-4.753 1.26"/><path d="m16.85 57.676c-.521.098-.899.215-.889.362.049.62 5.785 1.302 5.671.972-.069-.201-.257-.477-.489-.746-.909.004-3.045-.256-4.293-.588"/><path d="m18.176 56.156c.007-.148-.123-.341-.329-.543-.875.463-3.663.592-4.669-.102-.23.243-.316.49-.099.705.981.979 5.065.645 5.097-.06"/><path d="m20.176 55.898c.455.213 4.322-.895 4.258-1.794-.008-.112-.101-.271-.244-.448-.771.796-3.678 1.592-4.069 1.409-.226-.104-2.018-1.333-2.76-1.976-.188.197-.293.368-.266.487.069.303 2.8 2.192 3.081 2.322"/><path d="m34.506 42.848c.047-.099-.049-.281-.228-.5-.62 1.104-2.53 4.379-2.792 4.439-.498.115-2.708-1.549-3.397-2.398-.086.188-.145.342-.165.445-.096.484 3.003 2.938 3.604 2.799.304-.07 2.846-4.505 2.978-4.785"/><path d="m34.863 40.633c.304-.068 2.802-3.938 2.934-4.221.057-.119-.019-.346-.174-.609-.563.916-2.526 3.915-2.793 3.977-.482.111-2.164-1.035-2.767-1.745-.098.178-.163.327-.183.429-.094.485 2.381 2.308 2.983 2.169"/><path d="m43.443 31.375c.054-.113-.026-.363-.19-.674-.723.727-3.543 3.087-3.813 3.148-.475.109-1.924-.992-2.475-1.702-.103.164-.171.302-.189.399-.095.484 2.089 2.305 2.69 2.166.305-.069 3.845-3.056 3.977-3.337"/><path d="m45.178 30.376c.303-.071 4.468-3.165 4.6-3.445.051-.108-.029-.367-.188-.693-.804.726-4.159 3.206-4.431 3.269-.478.11-1.908-1.46-2.433-2.355-.094.138-.159.257-.176.345-.095.483 2.025 3.017 2.628 2.879"/><path d="m51.418 25.126c.305-.071 3.896-3.919 4.028-4.201.049-.106-.024-.353-.173-.664-.724.872-3.595 3.924-3.865 3.986-.486.113-2.036-1.684-2.567-2.64-.089.153-.151.281-.169.373-.096.484 2.144 3.285 2.746 3.146"/><path d="m53.89 15.65c-.09.167-.15.307-.171.407-.094.484 2.041 2.959 2.644 2.821.304-.071 2.143-3.965 2.275-4.246.063-.138.042-.44-.043-.796-.315.665-1.95 4.091-2.235 4.156-.485.112-1.962-1.468-2.47-2.342"/><path d="m30.651 49.09c-.007-.1-.08-.229-.192-.377-.662 1.231-3.365 3.658-4.107 3.627-.534-.022-2.774-1.66-3.479-2.646-.113.187-.177.339-.159.43.162.836 3.068 3.029 3.687 3.057.854.036 4.313-3.194 4.25-4.091"/><path d="m14.07 52.984c-.024-.125-.106-.29-.225-.476-.529.628-2.146 1.604-2.637 1.492-.268-.063-1.589-1.42-1.988-1.935-.079.307-.102.557-.048.67.132.282 1.794 2.021 2.098 2.09.602.142 2.894-1.356 2.8-1.841"/><path d="m15.324 52.288c.807.171 3.505-1.933 3.373-3.001-.014-.104-.064-.236-.133-.379-.452 1.115-2.593 2.697-3.297 2.547-.367-.077-2.905-2.671-3.524-3.457-.1.285-.136.516-.079.64.171.376 3.254 3.563 3.66 3.65"/><path d="m29.021 38.674c-.016-.038-.063-.105-.125-.188-.448 1.258-2.129 3.596-3.253 3.578-.965-.015-3.962-2.856-4.595-4.303-.06.16-.094.313-.08.445.108 1.227 3.653 4.687 4.717 4.704 1.389.024 3.629-3.554 3.336-4.236"/><path d="m33.85 32.666c-.014-.052-.088-.16-.195-.3-.563 1.126-2.362 3.386-3.314 3.545-.76.126-2.633-1.556-3.136-2.696-.049.107-.086.21-.094.297-.097 1.02 2.367 3.402 3.263 3.252 1.171-.194 3.619-3.564 3.476-4.098"/><path d="m35.715 31.439c1.271-.295 4.144-4.088 4.029-4.649-.012-.058-.088-.177-.204-.33-.64 1.218-2.795 3.871-3.852 4.116-.817.189-2.681-1.452-3.156-2.638-.04.089-.068.172-.081.246-.178 1.103 2.293 3.479 3.264 3.255"/><path d="m45.502 21.916c.018-.163-.025-.359-.109-.57-.577 1.297-3.629 3.863-4.408 3.882-.365.007-2.293-1.974-2.905-2.784-.129.26-.197.464-.171.567.09.37 2.668 3.096 3.094 3.086.847-.02 4.368-3.038 4.499-4.181"/><path d="m51.383 15.936c.01-.158-.025-.338-.097-.53-.534 1.429-3.362 4.479-4.174 4.46-.386-.007-2.955-2.653-3.726-3.632-.156.248-.239.445-.208.553.113.391 3.498 3.948 3.943 3.957.888.021 4.179-3.617 4.262-4.808"/><path d="m49.561 11.311c-.171.237-.266.419-.248.51.059.299 2.431 2.824 2.781 2.795.693-.054 3.569-3.17 3.728-4.112.03-.179-.01-.386-.1-.601-.538 1.166-2.995 3.777-3.63 3.827-.285.024-1.902-1.634-2.531-2.419"/><path d="m20.715 47.424c-.872-.026-4.21-3.504-4.981-4.804-.086.198-.132.366-.114.479.125.806 4.174 5.133 5.145 5.163.945.029 3.776-2.65 3.617-3.9-.012-.099-.055-.218-.109-.344-.427 1.351-2.725 3.431-3.558 3.406"/></svg>