<svg xmlns="http://www.w3.org/2000/svg" viewBox="0 0 64 64" enable-background="new 0 0 64 64"><path d="m9.044 51.081c-.545 1.184-1.268 1.745-1.619 2.911-.351 1.166-1.949 2.756-2.415 3.872-.466 1.114-.266 1.978.795.126 1.06-1.852 1.468-2.555 2.528-3.569 1.062-1.012.715-3.337 2.652-2.748 1.092.33-1.395-1.776-1.941-.592"/><path d="m15.443 43c-1.064.307-1.456 2.577-4.228 5.317-1.003.992.733 2.602 1.461 1.872.479-.479-1.068-.722-.561-1.442.651-.926 1.923-1.617 3.307-4.45.042.028 1.882 1.461 2.317.879.57-.766-1.736-2.338-2.296-2.176"/><path d="m26.857 29.483c-1.102.196-1.646 2.47-4.643 4.964-1.086.903.578 2.736 1.365 2.073.52-.437-1.039-.855-.477-1.536.723-.873 2.061-1.438 3.65-4.177.041.031 1.82 1.695 2.299 1.148.631-.717-1.613-2.575-2.194-2.472"/><path d="m19.729 37.717c-1.309 2.646-3.034 3.438-2.926 4.288.057.446 2.122 1.79 2.554 1.204.332-.449-1.462-1.483-1.498-1.509 1.851-1.646 1.989-2.732 2.525-3.416.419-.534 1.141.549 1.37.09.351-.696-1.552-1.614-2.025-.657"/><path d="m32.5 23.694c-.896-.043-1.428 1.793-3.939 3.347-.912.563.351 2.444 1.013 2.028.435-.272-.802-.927-.321-1.398.617-.607 1.717-.835 3.109-2.868.031.034 1.396 1.794 1.805 1.418.533-.492-1.195-2.505-1.667-2.527"/><path d="m58.668 16.124c.671-.772 1.722-1.694 3.332-2.487-3.086-2.059-7.072-.58-5.818-2.51 1.912-2.938-.142-5.334-.142-5.334s-2.921 1.512-4.846 1.764c.204-3.561-1.171-5.557-1.171-5.557s-2.864 2.126-4.676 2.75c-2.104-1.811-5.79-1.522-5.79-1.522s.55 2.591.278 4.348c-2.005.004-3.729.356-3.729.356 2.705 2.251 3.83 3.63 4.08 4.464-1.923-.019-3.795.842-3.795.842 5.854 4.069 4.086 8.336 1.885 11.056-1.157-1.175-2.201-2.323-2.474-2.786-1.031-1.752-2.44-2.014-3.189-2.014-2.801 0-5.028 3.453-5.644 4.512-.875 1.509-1.939 2.892-2.588 3.364-1.59 1.158-3.806 3-4.666 5.594-.342 1.03-1.557 2.285-2.445 3.201-.599.618-1.115 1.152-1.454 1.673-.104.159-.219.341-.344.538-.683 1.082-1.617 2.563-2.953 3.657-2.209 1.816-3.742 3.988-4.206 5.96-.031.133-.515.522-.747.709-.741.596-1.754 1.411-2.09 2.84-.302 1.292-1.553 3.677-2.081 4.276-1.322 1.507-1.73 3.143-1.12 4.49.475 1.045 1.515 1.692 2.715 1.692 1.055 0 2.16-.479 3.196-1.39.31-.272.729-.723 1.311-1.347.823-.885 3.001-3.222 3.793-3.558 2.113-.521 4.978-2.901 6.613-4.893.658-.804 2.164-1.868 3.492-2.806 1.332-.941 2.59-1.83 3.424-2.706.911-.956 2.092-1.569 3.461-2.279 1.752-.91 3.738-1.941 5.537-3.93.662-.732 2.037-1.567 3.367-2.374 2.674-1.624 5.201-3.156 5.185-5.605-.009-1.394-.872-2.605-2.563-3.602-.351-.207-1.1-.862-1.953-1.672 2.756-3.092 7.11-6.109 11.082 1.145 0 0 1.236-1.437 1.66-3.905.779-.076 1.92.475 3.595 2.213 0 0 1.073-2.427.427-4.715 1.554-1.188 4.541-.253 4.541-.253s-.271-2.719-2.49-4.199m-17.842 13.056c5.234 3.083-3.75 5.638-6.443 8.614-2.925 3.233-6.524 3.612-8.963 6.173-1.554 1.63-5.506 3.779-7.012 5.618-1.507 1.835-4.042 3.88-5.604 4.247-1.56.368-5.008 4.544-5.895 5.324-.727.639-1.399.909-1.919.909-1.159 0-1.564-1.349-.14-2.97.779-.887 2.146-3.553 2.511-5.111.367-1.563 2.472-1.988 2.837-3.549.367-1.561 1.714-3.398 3.549-4.906 1.839-1.507 2.98-3.547 3.692-4.637.709-1.091 3.392-3.146 4.114-5.32.721-2.172 2.839-3.815 3.97-4.639 1.128-.822 2.408-2.729 3.12-3.955.532-.916 2.345-3.55 3.971-3.55.547 0 1.073.298 1.522 1.062.359.609 1.537 1.921 2.828 3.23-.316.308-.611.574-.856.788-.19.167-.226.393-.169.635 0 .001-.001.001-.002.002.002.003.004.006.005.01.03.122.084.247.156.372.438.884 1.052.996 1.052.996l.001-.002c.259.123.49.142.605-.017.237-.324.528-.727.865-1.166.928.868 1.756 1.577 2.205 1.842m8.05-23.836c0 0 2.822 6.246-3.651 12.379 0 0 3.607-5.789 3.651-12.379m-7.005 15.162c0 0 1.652-6.006-.023-11.783 0 0 4.095 4.731.023 11.783m-1.331 2.765c8.935-10.14 16.612-5.711 16.612-5.711-8.655-1.028-16.612 5.711-16.612 5.711m7.127-6.947c5.487-5.439 9.696-2.617 9.696-2.617-4.8-.294-9.696 2.617-9.696 2.617"/></svg>