<svg xmlns="http://www.w3.org/2000/svg" viewBox="0 0 64 64" enable-background="new 0 0 64 64"><path d="m60.616 14.484c-1.842-4.662-7.141-12.484-21.947-12.484-8.068 0-11.935 4.498-16.029 9.259-2.268 2.639-4.613 5.367-7.822 7.47-11.099 7.271-15.018 16.171-11.649 26.455 3.347 10.215 11.144 16.816 19.866 16.816 3.128 0 6.315-.825 9.475-2.455 8.772-4.521 13.835-11.327 18.303-17.332 2.143-2.879 4.165-5.599 6.32-7.62 4.754-4.455 6.252-13.101 3.483-20.109m-55.6 30.094c-3.104-9.476.45-17.398 10.867-24.223 3.438-2.254 5.875-5.088 8.231-7.828 3.96-4.605 7.379-8.583 14.555-8.583 13.656 0 18.479 7.051 20.14 11.254.103.257.188.522.276.786.231 3.956-.144 8.973-2.056 11.813-1.081 1.607-2.95 3.957-3.99 5.302 2.621-5.926 1.344-9.405 1.344-9.405-2.983 13.896-11.654 14.758-17.295 25.415 0 0 5.08-2.978 8.348-6.461 0 0-4.539 11.153-15.436 12.558-7.821 1.007-9.953 3.141-11.787 4.055-5.838-1.921-10.765-7.257-13.197-14.683"/><path d="m23.623 52.388c-2.344.413-4.641-1.519-4.395-.126.244 1.395 2.342 2.189 4.686 1.775 2.34-.41 4.039-1.878 3.794-3.271-.248-1.394-1.746 1.208-4.085 1.622"/><path d="m10.432 46.796c-1.297-2.205-.651-5.324-1.697-4.504-1.044.82-.836 3.27.461 5.476 1.299 2.204 3.195 3.327 4.24 2.508 1.044-.82-1.704-1.277-3.004-3.48"/><path d="m9.5 37.556c1.276-.016-.754-2.126-.692-4.759.06-2.637 2.185-4.795.905-4.779-1.274.012-2.356 2.158-2.419 4.796-.06 2.633.928 4.757 2.206 4.742"/><path d="m33.091 44.062c-2.432.307-4.722-1.8-4.528-.345.196 1.441 2.328 2.364 4.759 2.058 2.43-.308 4.242-1.732 4.044-3.184-.196-1.446-1.846 1.161-4.275 1.471"/><path d="m45.467 23.463c1.275.056 2.557-2.015 2.861-4.63.301-2.609-.498-4.771-1.779-4.828-1.281-.055.561 2.152.259 4.763-.298 2.611-2.626 4.635-1.341 4.695"/><path d="m31.216 8.936c1.565-1.182 3.862-.945 3.231-1.684-.627-.73-2.409-.368-3.981.813-1.566 1.182-2.324 2.733-1.693 3.468.631.733.875-1.418 2.443-2.597"/><path d="m23.205 19.611c2.568-.986 5.578.226 5.01-1.016-.568-1.231-3.111-1.435-5.689-.45-2.568.983-4.187 2.786-3.616 4.023.57 1.237 1.723-1.573 4.295-2.557"/><path d="m23.791 40.55c2.623-2.155 3.859-5.146 2.76-6.669-1.096-1.53-1.436 2.705-4.057 4.861-2.624 2.158-6.529 1.424-5.431 2.955 1.092 1.522 4.105 1.009 6.728-1.147"/><path d="m40.926 12.652c2.029-2.358 2.679-5.253 1.449-6.453-1.227-1.206-.873 2.669-2.9 5.029-2.031 2.363-5.669 2.32-4.438 3.524 1.221 1.202 3.859.262 5.889-2.1"/><path d="m40.811 33.884c-2.177 1.921-5.521 1.419-4.55 2.683.972 1.267 3.523.736 5.699-1.181 2.178-1.918 3.153-4.501 2.183-5.766-.972-1.266-1.157 2.347-3.332 4.264"/><path d="m18.641 31.138c2.42-.482 4.232-1.975 4.049-3.327-.184-1.354-1.847 1.239-4.266 1.724-2.42.485-4.682-1.321-4.498.03.185 1.353 2.296 2.057 4.715 1.573"/><path d="m51.697 21.695c1.252.564 2.965-.859 3.825-3.178.86-2.321.542-4.658-.71-5.22-1.254-.564.085 2.23-.773 4.55-.861 2.321-3.593 3.286-2.342 3.848"/><path d="m33.492 27.655c2.878-.915 4.977-2.824 4.681-4.258-.292-1.433-2.147 1.643-5.026 2.565-2.882.918-5.688-.666-5.394.768.291 1.43 2.862 1.845 5.739.925"/></svg>