<svg xmlns="http://www.w3.org/2000/svg" viewBox="0 0 64 64" enable-background="new 0 0 64 64"><path d="m53.351 32.531c.771-4.249-.394-7.817-3.474-10.316-1.354-1.099-2.843-1.66-4.418-1.688-.245-1.583-1.657-1.753-2.354-1.829-.869-.095-1.104-.121-1.217-.957-.216-1.587-1.068-1.824-1.559-1.824-.652 0-1.202.424-1.817 1.019-.041-.042-.081-.086-.123-.128.223-1.336.3-2.526-.121-2.996-.937-1.046-1.003-.637-1.873-2.465-.497-1.042.312-3.343-2.343-2.841-.687.129-1.468.506-2.249.989-.188-.239-.366-.469-.516-.676-3.452-4.758-7.16.746-10.459 5.88-.434-.079-.972-.13-1.676-.13-.536 0-1.025.032-1.343.087-.793.137-1.178.802-1.486 1.336-.477.822-.646.93-1.157.808-.253-.061-.482-.09-.705-.09-1.907 0-2.048 1.967-2.123 3.024-.038.528-.077 1.075-.216 1.464-.05.136-.086.174-.121.15-.112 0-.229-.014-.347-.025-.188-.02-.384-.037-.573-.037-.682 0-1.246.234-1.676.695-.729.781-.555 2.244-.11 3.678-.323.02-.573.102-.692.279-.585.878.352 3.49-1.873 3.249-2.226-.239-1.757 1.141-2.459 1.894-.703.752-1.203 2.006-1.069 2.383.045.131.19.813.403 1.605-.983 1.677-1.605 2.869-1.605 5.853 0 4.373 5.373 11.32 13.423 12.515 1.679.249 3.854.646 6.156 1.063 6.12 1.113 13.736 2.5 19.148 2.5 1.831 0 3.276-.154 4.419-.472 6.255-1.739 10.319-5.483 10.489-5.643l.675-.63c3.097-1.874 5.265-4 5.673-6.021.3-1.49-3.542-6.158-8.632-11.703m-7.863-9.854c.002-.042.004-.096.006-.139 1.097.036 2.149.444 3.127 1.238 3.814 3.093 3.239 7.659 2.042 11.011-1.956-.432-1.146-2.924-2.481-4.711-.259-.349-.529-.562-.802-.697.004-.508.01-.967.013-1.367.038-3.256.048-4.131-1.635-4.241-.073-.005-.156-.01-.282-.028-.037-.227-.009-.704.012-1.066m-7.909-1.333c.014-.283.063-.632.129-1.017.632-.389 1.213-.969 1.75-1.511.148-.148.328-.33.501-.494.425 2.098 2.044 2.274 2.93 2.371.217.024.546.06.591.063 0 0 .015.033.023.121.055.583.023 1.141-.009 1.681-.068 1.163-.172 2.92 1.688 3.172.074.011.145.019.211.024.021.456.014 1.271.002 2.233-.01.909-.023 2.077-.023 3.58l.024.226c.013.048.022.106.03.167-1.567-1.197-6.037-6.446-7.931-9.541.039-.341.067-.706.084-1.075m-26.716 2.01c.034-.037.056-.062.218-.062.124 0 .249.014.372.027.187.019.371.036.548.036.962 0 1.653-.511 2-1.476.234-.651.285-1.368.331-2.001.025-.357.066-.932.155-1.16.046.002.116.01.217.035.261.062.517.093.758.093 1.521 0 2.188-1.155 2.589-1.845.068-.121.167-.289.237-.387.332-.036 1.061-.051 1.546-.018-1.931 1.978-4.581 4.819-5.527 6.442-.16.274-.336.586-.522.916-.339.601-.896 1.588-1.399 2.349-.259-.088-.535-.177-.818-.259-.497-1.26-.797-2.398-.705-2.69m33.75 31.24c-.953.266-2.26.399-3.886.399-5.232 0-12.751-1.368-18.792-2.468-2.319-.422-4.511-.82-6.22-1.074-6.777-1.006-11.396-6.911-11.724-10.703 0 0 1.688.339 2.396.108 1.942-.637 3.924-3.063 6.725-6.694 1.575-2.04 5.368-7.035 6.58-9.342 3.987-7.59 5.864-8.18 6.346-8.18.086 0 .313 0 .634.442.487.672.917 1.547 1.462 2.655.864 1.761 2.05 4.173 4.267 7.362 1.755 2.525 4.208 4.717 6.582 6.837 2.001 1.788 3.89 3.478 5.368 5.327 1.2 1.504 2.053 3.262 2.876 4.962 1.313 2.71 2.662 5.494 5.36 6.519-1.666 1.184-4.468 2.875-7.974 3.85m15.815-10.471c-.338 1.484-3.106 3.604-5.587 5.014-2.885-.061-4.101-2.242-5.818-5.789-.873-1.8-1.773-3.66-3.113-5.338-1.583-1.982-3.625-3.807-5.6-5.572-2.287-2.043-4.65-4.154-6.271-6.486-2.13-3.065-3.229-5.303-4.113-7.102-.587-1.194-1.051-2.137-1.638-2.949-.761-1.048-1.644-1.268-2.25-1.268-1.397 0-3.758.958-8.114 9.25-1.171 2.229-5.188 7.491-6.391 9.05-1.898 2.461-4.262 5.522-5.771 6.013-.188 0-1.637-.573-2.057-.603.241-.604.55-1.027.631-1.16.299.607.637.962.988.668.811-.676 6.144-6.522 7.958-9.431.635-.712 1.324-1.851 2.241-3.479.181-.32.353-.623.509-.891.716-1.228 2.922-3.737 6.05-6.885.636-.638.436-1.291.359-1.476-.065-.159-.173-.324-.349-.478 1.597-2.457 3.473-4.961 4.465-5.705 1.562-1.172 1.704-1.85 3.929.596.055.06.108.117.162.176-1.788 1.318-3.309 2.869-3.309 2.869-1.619 1.507 2.185 3.047 4.495 4.037 1.523.651 2.408 2.845 3.148 4.601.045.112.094.228.146.344.315.739.611 1.367.925 1.719 1.811 2.957 4.95 6.593 7.03 8.623.87 1.332 2.763 2.982 4.746 4.376 3.747 2.634 4.801 8.151 5.62 9.28.82 1.129 1.522-.502 1.991-1.129.468-.627 1.99-3.135 1.288-3.762-.703-.627-2.693-.627-2.693-2.383 0-1.274-.357-2.691-1.46-3.459.12-.335.225-.666.322-.994 1.1 1.508 2.13 2.946 2.855 3.811 1.877 2.231 5.131 3.904 4.676 5.912"/><path d="m42.265 41.261c-.14-.143-1.134.72-2.5 2.122-.958-1.428-2.01-2.977-3.131-4.605 1.044-1.332 1.642-2.227 1.531-2.338-.108-.109-.864.537-1.992 1.664-.336-.486-.676-.978-1.021-1.476-.869-1.253-1.713-2.458-2.528-3.614.653-.813 1.011-1.332.956-1.423-.057-.091-.528.269-1.285.954-1.045-1.477-2.029-2.857-2.926-4.096 1.01-1.246 1.565-2.017 1.493-2.104-.072-.087-.754.509-1.859 1.602-2.678-3.686-4.499-6.033-4.643-5.919-.145.114 1.451 2.698 4.006 6.555-1.577 1.593-3.78 3.923-6.245 6.615-.97-1.324-1.817-2.453-2.481-3.295.472-.506.972-1.055 1.485-1.636 2.467-2.794 4.291-5.235 4.077-5.452-.213-.216-2.387 1.873-4.855 4.668-.487.551-.947 1.088-1.373 1.599-.494-.592-.808-.907-.871-.856-.066.052.145.496.563 1.227-1.558 1.892-2.56 3.32-2.396 3.484.154.156 1.349-.908 2.936-2.573.574.942 1.348 2.153 2.264 3.544-.272.3-.545.6-.822.905-.71.784-1.396 1.55-2.06 2.292-1.216-1.58-2.07-2.539-2.203-2.431-.14.109.507 1.317 1.616 3.093-1.014 1.143-1.958 2.222-2.796 3.197-1.786-2.477-3.26-4.221-3.466-4.058-.208.166.981 2.271 2.746 4.897-2.146 2.52-3.461 4.195-3.353 4.33.109.131 1.596-1.285 3.84-3.613.071.105.143.21.217.316 2.141 3.086 4.069 5.438 4.305 5.248.236-.187-1.309-2.842-3.448-5.931-.102-.147-.204-.292-.305-.437.866-.91 1.824-1.932 2.842-3.031.677 1.05 1.472 2.24 2.341 3.491.036.053.071.104.108.155-1.48 1.715-2.376 2.871-2.29 3.014.087.142 1.151-.779 2.758-2.344 2.498 3.545 4.6 6.171 4.818 5.996.222-.176-1.549-3.139-4.032-6.769.854-.847 1.82-1.833 2.85-2.906.02.028.039.058.06.087 1.269 1.828 2.479 3.533 3.559 5.019-1.351 1.683-2.165 2.849-2.037 2.979.126.126 1.126-.769 2.569-2.25 2.175 2.967 3.706 4.876 3.857 4.755.154-.122-1.141-2.289-3.204-5.434.851-.896 1.813-1.946 2.822-3.088.106.153.211.305.318.461.976 1.406 1.913 2.725 2.769 3.9-1.626 1.963-2.683 3.463-2.517 3.63.162.164 1.45-.997 3.136-2.784 1.949 2.645 3.346 4.352 3.501 4.228.158-.125-.999-2.102-2.847-4.931.347-.376.7-.77 1.063-1.182.54-.609 1.045-1.201 1.509-1.758 3.084 4.277 5.239 7.08 5.395 6.957.157-.125-1.777-3.221-4.776-7.713 1.298-1.614 2.097-2.79 1.952-2.937m-20.493 2.222c-.9-1.298-1.765-2.495-2.528-3.515.681-.74 1.384-1.51 2.104-2.305.252-.276.496-.549.742-.821.744 1.118 1.562 2.328 2.437 3.597-1.014 1.096-1.949 2.129-2.755 3.044m3.51-3.858c-.885-1.266-1.729-2.452-2.515-3.537 2.432-2.715 4.543-5.148 5.998-6.904.833 1.253 1.758 2.625 2.751 4.084-.774.732-1.722 1.67-2.786 2.754-.959-1.216-1.583-1.909-1.684-1.828-.104.081.354.949 1.193 2.33-.749.769-1.542 1.596-2.364 2.471-.2.211-.396.421-.593.63m6.771 2.904c-.98 1.111-1.886 2.173-2.662 3.116-.989-1.491-2.12-3.16-3.339-4.919-.05-.07-.098-.139-.146-.209.181-.19.359-.381.543-.574.826-.877 1.612-1.728 2.344-2.531.875 1.389 2.021 3.131 3.327 5.043-.023.025-.045.049-.067.074m.804-.902c-1.325-1.879-2.543-3.542-3.518-4.817 1.011-1.119 1.89-2.122 2.584-2.946.759 1.111 1.55 2.262 2.372 3.447.371.535.738 1.063 1.102 1.583-.753.781-1.62 1.711-2.54 2.733m4.552 4.301c-.31.353-.61.699-.898 1.037-.775-1.172-1.644-2.455-2.574-3.797-.146-.211-.289-.416-.434-.623.906-1.043 1.732-2.026 2.431-2.887 1.108 1.583 2.166 3.076 3.144 4.44-.526.558-1.089 1.174-1.669 1.83"/></svg>