<svg xmlns="http://www.w3.org/2000/svg" viewBox="0 0 64 64" enable-background="new 0 0 64 64"><path d="m61.583 4.253c0 0 .002.007.004.019-.393-.858-1.656-1.423-4.341-.734-1.157.296-2.647.952-3.847 2.38-8.822-9.138-21.656-.7-36.509 9.069-1.242.814-2.486 1.634-3.726 2.438-10.599 6.886-11.495 16.71-11.088 21.955.459 5.877 2.968 11.739 6.709 15.68 3.74 3.94 9.243 6.519 14.716 6.895 4.883.329 14.002-.831 20.195-12.364.727-1.356 1.463-2.714 2.2-4.069 7.745-14.252 14.557-26.794 10.101-35.934l.826-.532c1.071-.619 2.49-1.354 4.233-2.037 1.754-.69.527-2.766.527-2.766m-25.537 37.863c-8.497 15.829-18.924 18.521-25.773 11.309-6.845-7.215-9.845-24.054 4.705-33.509 14.546-9.453 29.313-20.397 37.029-12.269 7.713 8.127-7.467 18.636-15.961 34.469"/><path d="m17.194 27.02c-6.008 6.593-5.269 16.059-1.542 17.881 3.753 1.869 9.244-1.049 13.333-5.459 4.018-4.485 6.619-10.446 4.809-14.444-1.769-3.968-10.585-4.57-16.6 2.022m4.196 2.737c-.355.922-1.828 3.111-2.641 5.079-.899 1.955-1.415 3.653-2.416 4.292-1.024.795-2.333-1.468.213-5.489 2.594-3.846 5.329-4.809 4.844-3.882"/></svg>