<svg xmlns="http://www.w3.org/2000/svg" viewBox="0 0 64 64" enable-background="new 0 0 64 64"><path d="m53.41 5.079c-.33 0-.664.017-.998.05-.848.086-1.668.181-2.482.278-1.381-2.115-3.527-3.407-5.703-3.407-.861 0-1.724.199-2.543.625-.902.47-1.789.966-2.67 1.47-1.219-.797-2.743-1.247-4.398-1.247-1.733 0-3.598.481-5.372 1.535-1.534.912-3.02 1.894-4.476 2.914-.697-1.149-1.446-1.855-2.213-1.855-.112 0-.224.015-.337.045-5.667 1.52-14.187 10.034-15.71 15.699-.303 1.125.061 1.604.902 1.787-.132.617-.07 1.06.165 1.375-1.125 1.581-2.194 3.205-3.19 4.879-1.717 2.882-1.908 6-.985 8.405.049.679.165 1.338.351 1.962-.379.686-.763 1.367-1.125 2.063-1.001 1.921-.75 4.087.402 5.89.325 1.33 1.077 2.621 2.181 3.699-.037.389-.077.764-.109 1.158-.407 4.845 2.787 9.596 6.709 9.596 2.372 0 5.009-1.737 7.277-6.244.108-.216.226-.424.336-.639.958-.421 1.702-1.057 2.115-1.89.763-1.548 1.589-3.056 2.464-4.528 1.818-.559 3.326-1.693 4.178-3.228 3.695-6.743 9.075-12.374 15.645-16.372 1.121-.69 2.001-1.74 2.571-2.998 1.651-1.003 3.349-1.942 5.095-2.803 1.109-.55 1.875-1.678 2.24-3.127.676-.362 1.35-.727 2.037-1.07 11.38-5.718 5.092-14.022-2.357-14.022m-30.959 2.422c.681.634 2.222 3.463 3.377 9.242.824 4.122.958 7.188.832 8.894-4.75-4.23-9.844-4.743-13.34-4.743-1.107 0-2.114.058-3.003.107-.646.037-1.208.069-1.677.071 1.755-4.87 9.053-12.087 13.811-13.571m-10.642 52.499c-1.217 0-2.176-.765-2.767-1.406-1.366-1.486-2.106-3.745-1.953-5.922.387.225.79.434 1.217.61 1.133.487 2.266.973 3.396 1.461 1.785.738 3.572 1.033 5.143.948-1.563 2.779-3.331 4.309-5.036 4.309m6.411-10.685c-.489.937-1.967 1.542-3.765 1.542-1.103 0-2.275-.227-3.365-.644l-1.632-.652-1.657-.661c-1.67-.638-2.992-1.875-3.536-3.311-.276-.727-.477-1.838.134-3.01.13-.248.27-.49.402-.737.782 1.153 1.854 2.05 3.15 2.537 3.313 1.354 6.631 2.707 9.947 4.057.226.085.452.157.677.226-.116.219-.241.433-.355.653m23.135-24.583c-6.812 4.047-12.553 9.785-16.599 16.583-.935 1.548-2.919 2.548-5.058 2.548-.875 0-1.743-.16-2.579-.477l-9.351-3.87-.058-.024-.026-.011-.027-.01c-1.125-.429-2-1.396-2.46-2.722-.685-1.969-.346-4.398.907-6.5 1.057-1.777 2.196-3.501 3.406-5.173 3.733.369 11.623-.92 18.363 5.821 2.529 2.528 1.648-9.826-.785-17.563-.413-1.553-.889-3.01-1.41-4.236 1.49-1.056 3.016-2.063 4.589-2.997 1.38-.821 2.884-1.255 4.349-1.255 2.318 0 4.235 1.102 4.886 2.807l.011.026.01.027 1.303 3.143 2.596 6.259c1.233 3.252-.084 6.43-2.067 7.624m8.002-6.526c-.907.472-1.8.964-2.683 1.47-.103-.326-.218-.652-.358-.976-.311-.671-.621-1.341-.932-2.011-.036-.106-.066-.214-.107-.319-1.303-3.144-2.605-6.285-3.908-9.429-.198-.521-.484-.988-.814-1.421.68-.379 1.358-.761 2.052-1.121.51-.264 1.055-.399 1.62-.399 1.947 0 3.841 1.527 4.721 3.826.435 1.087.871 2.174 1.295 3.232 1.258 3.282.54 6.402-.886 7.148m5.517-.893c-.308.153-.605.32-.91.478-.04-1.359-.345-2.84-.958-4.319-.074-.173-.148-.346-.223-.519-.12-.856-.338-1.735-.674-2.609-.404-1.011-.811-2.022-1.214-3.033.568-.065 1.132-.132 1.718-.19.264-.026.531-.04.797-.04 3.063 0 5.982 1.802 6.508 4.018.496 2.088-1.344 4.354-5.044 6.214"/></svg>