<svg xmlns="http://www.w3.org/2000/svg" viewBox="0 0 64 64" enable-background="new 0 0 64 64"><path d="m39.842 28.281c-.582-1.732-1.47-2.352-2.497-2.352-1.252 0-2.712.919-4.085 1.871-.817.568-3.98 4.061-5.705 4.061-.208 0-.396-.051-.555-.164-1.684-1.192.426-6.386.426-8.877 0-2.411-.438-3.332-1.109-3.332-1.855 0-5.489 7.063-6.502 9.101-.286.575-.685.802-1.148.802-1.619 0-4.027-2.785-5.133-3.212-.188-.072-.359-.106-.519-.106-1.848 0-1.808 4.597-1.78 5.817 1.01-.276 1.957-.446 2.785-.446 2.087 0 3.414 1.081 3.068 4.254-.078.713-.529 2.985.209 3.486.111.077.248.111.399.111.851 0 2.199-1.049 2.7-1.369.674-.432 1.381-.748 1.979-.748.72 0 1.282.457 1.443 1.722.096.749-.271 3.599.463 4.054.109.066.229.097.357.097 1.355 0 3.668-3.386 4.715-3.774.523-.193 1.034-.273 1.536-.273 1.393 0 2.718.615 4.073 1.135.228.088.414.126.565.126.819 0 .581-1.137-.12-1.864-1.021-1.064-2.641-.597-3.777-1.359-1.443-.968.566-2.913 1.346-3.49.931-.69 2.995-1.799 4.642-1.799.763 0 1.436.238 1.864.864.809 1.183-.537 2.677-.197 4.005.143.551.489.741.899.741.873 0 2.03-.862 2.11-.944.531-.557 1.109-1.064 1.713-1.533-3.04-.673-3.298-4.019-4.165-6.605"/><path d="m14.916 25.789c0 0 2.629 2.319 3.752 2.319.215 0 .376-.085.451-.291 1.616-4.425 5.033-9.482 7.264-9.482.973 0 1.72.963 1.992 3.363.352 3.107-1.797 7.816-.764 8.889.044.046.103.068.173.068 1.161 0 5.748-5.874 9.674-5.874.304 0 .603.036.896.111 3.537.907 2.004 6.938 4.875 8.661.494.298 1.047.449 1.577.449 1.058 0 2.024-.603 2.255-1.85.583-3.148-9.415-9.25-4.006-9.25.776 0 1.869.125 3.355.403.885-6.064.576-7.745-.216-7.745-.903 0-2.435 2.183-3.55 2.559-.035.011-.067.017-.1.017-.637 0-.615-2.294-1.705-2.294-.704 0-1.871.957-3.977 4.103-1.086 1.623-1.899 2.265-2.541 2.265-2.442 0-2.373-9.341-5.303-9.341-.592 0-1.306.381-2.188 1.296-1.354 1.406-2.618 1.904-3.801 1.904-2.881 0-5.268-2.959-7.225-2.959-.772 0-1.479.461-2.121 1.749-1.329 2.671 3.171 2.533 1.233 10.93m3.443 1.202c-.526-.236-1.46-.868-2.336-1.588.162-.793.262-1.505.32-2.161.247-.414.551-.822.922-1.2 1.511-1.541 3.447-2.028 4.396-1.138-1.353 1.865-2.544 4.148-3.302 6.087m22.211-3.974c-.494 1.169.467 2.403 1.938 4.016-.104.111-.221.209-.354.283-.142.08-.293.13-.45.159-.468-1.58-1.253-3.097-3.106-3.572-.268-.069-.547-.104-.83-.123-.502-1.632-.269-3.165.682-3.695 1.048-.587 2.576.251 3.619 1.877-.581.111-1.213.379-1.499 1.055"/><path d="m48.007 32.174c-.219 1.431 1.861 1.687.867 4.031-.51 1.199-4.829 3.963-4.511 4.568.471.885 1.037 1.229 1.61 1.229 1.134 0 2.289-1.346 2.754-2.512.609-1.525.766-5.528 2.25-6.27.251-.127.499-.183.744-.183 1.465 0 2.834 1.981 4.154 2.249.322-1.434.092-2.922.42-4.364-5.572-.07 3.096-7.685-1.857-10.792-.267-.167-.491-.242-.687-.241-1.559 0-1.196 4.774-5.135 4.774-.314 0-.657-.031-1.03-.097-1.441-.254-2.436-.372-3.087-.372-3.794.002 4.123 3.993 3.508 7.98"/><path d="m57.877 24.693c.128-.794.162-1.663.022-2.596-.358-2.399-2.233-4.351-4.179-4.352-.665 0-2.257.277-3.01 2.64-.498-.208-1.01-.409-1.533-.6.445-2.995.278-5.048-.521-6.097-.414-.544-1.009-.844-1.673-.844-1.046 0-2.221.7-3.681 2.197-.019-.05-.036-.098-.053-.142-.31-.838-.828-2.24-2.218-2.24-.95 0-2.208.586-4.852 4.44-.76-.056-1.526-.097-2.303-.123-.05-.179-.098-.354-.142-.516-.825-3.029-1.761-6.461-4.398-6.462h-.001c-1.075 0-2.206.633-3.459 1.934-.933.97-1.856 1.441-2.823 1.441-1.179 0-2.386-.676-3.554-1.329-1.181-.66-2.401-1.343-3.663-1.343-1.496 0-2.712.917-3.718 2.804-1.149 2.156-.51 3.58.108 4.958.27.601.553 1.238.754 2.02-6.697 2.876-10.98 7.231-10.98 12.114 0 13.533 13.432 29.403 30 29.403 16.569 0 30-15.87 30-29.403 0-2.886-1.518-5.582-4.123-7.904m-25.877 35.268c-12.611 0-23.215-9.896-26.742-20.259 4.959 5.089 15.068 8.576 26.742 8.576s21.781-3.487 26.74-8.575c-3.527 10.361-14.13 20.258-26.74 20.258m11.135-17.486c-.241.758-.99 1.91-1.919 2.721-1.434 1.251-3.182 1.52-4.015.646-.7-.738-.585-2.109.219-3.392 1.646-2.628 4.006-3.204 5.03-2.684-.02.072-.048.141-.062.218-.142.799.115 1.637.747 2.491m15.368-12.848c-.979 0-1.45 2.712-1.52 4.417-.062 1.503-.496 2.004-1.117 2.004-.894 0-2.176-1.036-3.295-1.622-.358-.188-.633-.271-.849-.271-.641 0-.758.749-.978 1.809-.371 1.789-.813 3.645-1.783 5.188-.712 1.133-1.813 1.921-2.916 1.921-.725 0-1.451-.34-2.069-1.145-2.43-3.158 2.908-3.804 3.972-5.969.616-1.252.419-1.688-.145-1.688-1.11 0-3.641 1.694-4.163 2.173-.922.843-1.981 2.085-3.277 2.085-.219 0-.446-.036-.68-.115-1.375-.464-1.568-2.194-1.277-3.479.242-1.074.799-2.039-.637-2.094-.051-.002-.102-.003-.152-.003-.925 0-1.87.304-2.709.684-1.018.462-2.426 1.288-2.795 2.501-.115.373 2.354.762 2.738.91 1.924.752 2.865 4.373.852 4.373-.26 0-.569-.061-.932-.193-1.262-.471-2.531-1.137-3.852-1.137-.434 0-.873.072-1.318.247-.922.362-1.426 1.395-2.152 2.042-1.074.964-2.024 1.482-2.77 1.482-1.028 0-1.668-.984-1.709-3.145-.036-1.756-.373-2.325-.918-2.325-.972 0-2.604 1.815-4.357 1.949-.051.003-.1.005-.147.005-2.339 0-1.429-4.447-1.247-5.818.199-1.495-.703-2.026-2.092-2.026-1.561 0-3.732.67-5.644 1.397.092.082.188.154.276.244 1.75 1.746 2.325 4.049 1.288 5.14-1.039 1.089-3.298.556-5.046-1.192s-2.325-4.051-1.286-5.141c.887-.937 2.266-.622 3.439.003 1.533-.515 3.088-.964 3.052-1.688-.273-5.476 1.28-6.498 2.479-6.497.713 0 1.301.363 1.301.363 1.082-6.969-2.977-7.442-1.07-11.021.903-1.693 1.846-2.271 2.84-2.271 2.137 0 4.508 2.671 7.217 2.671 1.119 0 2.296-.457 3.537-1.746 1.113-1.156 2.009-1.629 2.746-1.629 3.297.001 3.385 9.47 5.27 9.47.362 0 .791-.349 1.32-1.181 2.765-4.342 4.236-5.629 5.104-5.629 1.266 0 1.249 2.738 2.086 2.738.172 0 .382-.117.646-.398 1.389-1.479 2.458-2.156 3.22-2.156 1.797 0 1.886 3.761.422 9.62 0 0 .327.083.806.083 1.021 0 2.728-.375 3.396-2.719.421-1.476 1.24-2.082 2.114-2.082 1.38 0 2.895 1.51 3.19 3.485.537 3.607-1.842 6.162-1.656 7.25.032.193.127.269.269.269.533 0 1.73-1.085 2.775-1.085.779 0 1.475.605 1.743 2.719-.612-1.281-1.122-1.777-1.54-1.777"/></svg>