<svg xmlns="http://www.w3.org/2000/svg" viewBox="0 0 64 64" enable-background="new 0 0 64 64"><path d="m32 2c-10.831 0-19 4.182-19 9.727 0 1.085.084 26.614 7.423 41.579.973 4.976 5.893 8.694 11.577 8.694s10.604-3.718 11.577-8.694c7.339-14.965 7.423-40.493 7.423-41.578 0-5.546-8.169-9.728-19-9.728m17.1 9.728c0 0-.001 3.042-.29 7.628-.426-1.254-1.297-2.363-2.538-3.308 1.783-1.24 2.828-2.724 2.828-4.32m-3.728 13.75c-.02-.03-.024-.066-.051-.094-.313-.339-.936-.344-1.396-.012-.222.161-.358.371-.411.583-.254-.093-.528-.155-.827-.155h-.001c-.446 0-.903.109-1.32.313-.312.153-.563.365-.78.597-.537-.417-1.304-.681-2.2-.681-.127 0-.256.006-.386.016-.745.062-1.443.292-1.966.651-.367.253-.627.564-.783.898-.395-.255-.906-.408-1.477-.408-.1 0-.203.004-.306.015-.562.055-1.081.254-1.468.562-.172.137-.302.296-.41.463-.331-.29-.774-.458-1.256-.458-.46 0-.917.146-1.285.414-.162.119-.293.263-.406.414-.03-.072-.056-.147-.114-.209-.312-.339-.936-.344-1.395-.011-.078.056-.129.124-.187.189-.021-.105-.062-.207-.14-.293-.283-.306-.844-.309-1.259-.01-.113.082-.198.18-.264.284-5.436-1.303-8.98-4.137-8.98-7.298 0-1.721.971-3.22 2.728-4.409 3.137 1.676 7.778 2.742 12.967 2.742 5.19 0 9.831-1.066 12.967-2.742 1.757 1.189 2.728 2.689 2.728 4.409 0 1.532-.84 2.987-2.322 4.23m-14.757 4.407c-.165.119-.358.178-.539.178-.186 0-.358-.063-.474-.188-.227-.246-.141-.642.191-.882.164-.12.36-.18.541-.18.186 0 .359.063.474.188.226.246.142.642-.193.884m2.982-.142c-.571 0-1.041-.267-1.086-.641-.055-.411.434-.798 1.086-.863.059-.006.119-.008.178-.008.575 0 1.047.266 1.096.64.049.413-.437.799-1.091.862-.063.007-.125.01-.183.01m4.736-.44c-.093.007-.187.011-.277.011-.956 0-1.734-.401-1.793-.96-.062-.612.763-1.179 1.844-1.267.094-.007.188-.011.279-.011.957 0 1.734.402 1.792.96.064.612-.763 1.179-1.845 1.267m2.952-1.095c-.228-.363.066-.892.653-1.18.249-.123.512-.181.748-.181.32 0 .594.108.724.317.227.362-.065.891-.653 1.179-.249.123-.512.181-.749.181-.32 0-.593-.107-.723-.316m-9.285-23.678c8.636 0 15.634 3.239 15.634 6.729 0 1.397-1.138 2.685-3.038 3.732-2.986-1.56-7.313-2.445-12.596-2.445s-9.61.885-12.595 2.445c-1.9-1.047-3.038-2.334-3.038-3.732 0-3.49 7-6.729 15.633-6.729m0 9.422c4.537 0 8.267.664 10.959 1.811-2.821 1.122-6.688 1.817-10.959 1.817-4.271 0-8.138-.694-10.959-1.817 2.693-1.147 6.423-1.811 10.959-1.811m-17.1-2.225c0 1.597 1.045 3.081 2.828 4.321-1.241.944-2.112 2.054-2.538 3.308-.289-4.587-.29-7.628-.29-7.629m26.853 40.991c-2.074 2.369-5.663 3.939-9.753 3.939-4.089 0-7.679-1.57-9.753-3.939-4.088-8.184-5.899-19.947-6.704-28.777 1.717 3.435 6.685 5.961 13.157 6.606.332.357.834.563 1.376.563.459 0 .914-.146 1.282-.414.216.004.425.017.642.017.298 0 .59-.011.884-.018.224.055.459.095.713.095.103 0 .207-.005.312-.016.258-.025.495-.087.718-.166.914-.072 1.8-.181 2.651-.324.248.045.505.076.778.076.125 0 .254-.006.386-.016.743-.061 1.441-.292 1.967-.651.089-.062.153-.137.23-.206.141-.043.281-.088.419-.134.284.128.598.217.95.217.447 0 .903-.109 1.321-.313.722-.355 1.173-.924 1.291-1.513 1.785-1.063 3.108-2.365 3.84-3.835-.803 8.834-2.613 20.615-6.707 28.809"/></svg>