<svg xmlns="http://www.w3.org/2000/svg" viewBox="0 0 64 64" enable-background="new 0 0 64 64"><path d="m57.713 52.875c-2.367 0-4.285-1.979-4.285-4.424 0 2.445-1.937 4.715-4.285 4.424-.088-.012-.342-.086-.342-.086 8.061-7.541 9.619-12.537 9.619-12.537l-6.578 2.303c5-5.637 6.287-8.563 6.287-8.563-3.094 1.266-5.859 1.354-5.859 1.354 2.594-2.725 6.125-11.878 6.125-11.878s-6.305 5.378-11.564 7.884c-.126.06-.239.106-.364.165 1.662-1.267 4.938-4.369 8.165-10.934 0 0-9.008 7.629-22.371 9.089-4.014.439-6.727 2.025-8.316 4.094-1.354-1.524-1.734-4.659-1.734-7.014 0-1.896.504-5.271 1.85-9.373 3.492-1.075 4.086-4.387 4.086-4.387l-1.113.116c1.396-2.24 1.52-3.147 1.52-3.147l-1.609.563.825-1.954c0 0-2.281.832-3.362.832-.458 0-.703-.224-.784-.314-.713-1.088-1.854-2.268-3.103-2.572l1.264-1.681c0 0-1.047-.75-2.633-.351l.08-2.484c0 0-2.182.914-3.097 2.654-1.913-.365-3.46.916-3.46.916l1.484 1.125c-3.203 1.688-3.994 4.124-3.994 7.029 0 .679.123 1.347.313 1.998-.605.247-1.279.507-1.928.507-.445 0-.844-.123-1.226-.378-.055-.039-.114-.104-.184-.172-.292-.29-.691-.688-1.239-.688-.223 0-.552.07-.857.405-.404.447-.203 1.185.036 1.724.531 1.197 1.766 2.539 3.64 3.05-.026.208-.015.381.004.483.176.986 1.22 1.729 2.431 1.729.542 0 1.058-.171 1.563-.443.116 1.377.097 3.839.097 3.839 0 9.579-4.074 14.641-2.265 22.885-.11 2.344-1.969 4.211-4.267 4.211-2.364.001-4.283-1.978-4.283-4.423v13.549h60v-13.549c0 2.445-1.92 4.424-4.287 4.424m-19.068-22.265c1.086-.301 2.211.345 2.5 1.441.109.394.082.786-.027 1.14.85.328 1.553 1.039 1.799 1.994.26 1.004-.014 2.027-.658 2.752.342.266.604.635.727 1.092.289 1.092-.371 2.227-1.457 2.527-.148.035-.287.059-.439.066.879-.445 1.348-1.453 1.1-2.428-.178-.641-.617-1.123-1.182-1.369.537-.666.77-1.563.537-2.445-.221-.818-.783-1.436-1.498-1.764.137-.383.152-.809.043-1.226-.234-.929-1.072-1.532-1.979-1.542.164-.102.34-.188.534-.238m-5.192 1.524c1.113-.201 2.17.541 2.361 1.663.07.396.016.789-.121 1.135.824.398 1.455 1.168 1.619 2.15.178 1.021-.191 2.012-.893 2.682.316.291.549.682.619 1.143.191 1.121-.551 2.195-1.664 2.393-.148.029-.287.039-.439.031.908-.369 1.471-1.328 1.291-2.322-.109-.656-.506-1.176-1.043-1.471.592-.615.895-1.486.742-2.389-.15-.834-.66-1.502-1.332-1.889.166-.369.221-.793.15-1.223-.164-.945-.934-1.62-1.84-1.709.165-.09.345-.157.55-.194m-5.371 1.731c1.113-.201 2.17.539 2.363 1.658.068.398.014.789-.123 1.135.824.402 1.455 1.172 1.621 2.15.18 1.023-.193 2.018-.906 2.68.328.295.563.686.631 1.152.191 1.113-.549 2.186-1.676 2.389-.137.023-.273.033-.426.029.906-.365 1.471-1.326 1.305-2.326-.123-.648-.521-1.17-1.059-1.469.592-.609.895-1.484.742-2.389-.15-.828-.658-1.498-1.332-1.887.166-.373.221-.791.15-1.223-.164-.939-.934-1.617-1.84-1.709.167-.082.345-.153.55-.19m-12.062-26.669c-.12-.374-.465-.807-1.217-1.302 0 0 .231-.058.549-.058.503 0 1.224.146 1.577.9 0 0-.083-1.476.955-2.217l-.069 2.18c.677-.865 1.447-.983 1.821-.983.141 0 .224.017.224.017-.682.453-.984.986-1.124 1.362 1.592.334 2.962 1.341 3.862 2.741.263.341.863.834 1.81.834.422 0 .913-.098 1.475-.352 0 0-.642 1.601-2.317 1.9 0 .001 0 .003.001.004.003 0 .005 0 .008 0 0 0 .169.039.475.039.53 0 1.473-.117 2.659-.759 0 0-.903 2.394-3.035 2.867-.002.01.161.063.5.063.42 0 1.109-.08 2.094-.421 0 0-.859 2.188-3.07 2.188h-.018c-1.883 5.117-2.26 9.287-2.26 9.287l-6.852-.055c0 0 .109-2.163-.161-4.298.36-.289.723-.603 1.091-.927 1.61-1.412 1.73-2.426 1.735-2.657.001-.004.001-.008.001-.012 0-.003.001-.009.001-.012 0-.062-.009-.123-.026-.18v-.001c-.026-.087-.678-2.125-4.472-2.125-.182 0-.368.034-.559.081-.148-.526-.243-1.054-.243-1.574-.001-3.14 1.949-5.771 4.585-6.53m-9.044 10.506c-.388-.42-.631-.843-.764-1.16l.036.037c.128.126.248.247.377.33.583.391 1.231.589 1.926.589.936 0 1.812-.357 2.516-.645.464-.188.902-.367 1.169-.367 1.805 0 2.635.501 2.997.862-1.802 1.18-3.456 1.777-4.925 1.777-1.667-.001-2.733-.774-3.332-1.423m4.179 3.413c-.655 0-1.124-.355-1.183-.685-.004-.021.004-.043.005-.065.111.006.214.026.33.026 1.096 0 2.263-.279 3.484-.817-.952.829-1.85 1.541-2.636 1.541m-1.366 35.01c6.977-3.084 11.658 2.289 18.459 1.447-4.875 2.375-13.035-1.808-18.459-1.447m22.211-3.25c-2.367 0-4.287-1.979-4.287-4.424 0 2.445-1.918 4.424-4.285 4.424s-4.285-1.979-4.285-4.424c0 1.283-.389 2.969-2.076 3.844-1.745.904-3.993-.26-4.646-2.418-1.979-6.541.288-12.488.958-16.854.351-2.284.719-5.938.719-5.938l6.82.031c0 0-.33 4.883 2.17 7.907-2.516 5.83 1.886 14.191 11.053 13.191 7.705-.844 14.55-8.186 17.051-11.066 0 0 3.057-.494 3.459-.646-.858 1.365-6.875 8.5-6.875 8.5s4.199-.873 7.854-2.145c-2.688 4.229-8.063 9.057-8.541 9.395-1.313-.625-2.23-2.359-2.23-3.801 0 2.445-1.92 4.424-4.287 4.424s-4.287-1.979-4.287-4.424c-.002 2.445-1.918 4.424-4.285 4.424m4.037 3.25c6.984-3.066 11.656 2.285 18.461 1.447-4.893 2.369-13.021-1.81-18.461-1.447"/><path d="m15.705 15.288c1.067 0 1.938-.472 1.938-1.553s-.87-2.234-1.938-2.234c-1.079 0-1.95 1.153-1.95 2.234s.871 1.553 1.95 1.553"/></svg>