<svg xmlns="http://www.w3.org/2000/svg" viewBox="0 0 64 64" enable-background="new 0 0 64 64"><path d="m42.959 39.315c1.656 0 3-1.344 3-3s-1.344-3-3-3-3 1.344-3 3 1.344 3 3 3"/><path d="m56.311 30.514c1.291-7.032-.842-27.195-3.715-28.28-4.557-1.723-12.369 6.475-16.547 11.415-1.373-.388-2.73-.603-4.048-.603-1.318 0-2.676.215-4.049.603-4.18-4.94-11.991-13.138-16.549-11.415-2.872 1.084-5.006 21.248-3.714 28.281-3.46 5.183-5.689 10.608-5.689 14.875 18.545 0 17.709 16.61 30 16.61 12.291 0 11.453-16.61 30-16.61 0-4.267-2.23-9.692-5.689-14.876m-31.407 1.513c2.407 3.691-.688 9.406-.688 9.406-11.125 1.125-13.063-10.281-13.063-10.281 5.677-1.812 10.938-3.437 13.751.875m-12.943-26.335c4.512 3.963 6.414 8.549 7.067 12.649-.587.442-1.169.905-1.744 1.388-.698-1.743-1.993-4.117-4.349-6.225 0 0 .515 2.967.421 6.585-.695-.787-1.596-1.423-2.77-1.63 0 0 .803 3.791-.146 8.305-.74.92-1.441 1.861-2.107 2.813-.286-7.705 1.796-22.319 3.628-23.885m-9.363 39.013c9.863-5.573 16.813-3.732 21.476-.056-.497 1.059-.938 2.151-1.291 3.288-.468 1.533-.79 3.187-.751 4.858-6.807-8.763-19.434-8.09-19.434-8.09m27.625 12.843c-.604.652-1.53 1.002-2.476.984-.948-.01-1.912-.37-2.7-1.009-.793-.637-1.404-1.552-1.775-2.595-.75-2.109-.576-4.569-.037-6.845.268-1.116.624-2.207 1.039-3.276 1.709 1.386 3.105 3.009 4.213 4.596-.851.18-1.629.457-2.06.892-.794.801-.181 2.788 1.938 4.504.908.736 1.789 1.124 2.582 1.3-.122.552-.351 1.05-.724 1.449m21.816-51.856c1.83 1.565 3.912 16.179 3.627 23.885-.666-.951-1.367-1.894-2.107-2.813-.949-4.513-.146-8.304-.146-8.304-1.174.207-2.074.843-2.77 1.63-.094-3.618.422-6.585.422-6.585-2.355 2.107-3.65 4.48-4.35 6.225-.574-.482-1.156-.945-1.742-1.388.652-4.101 2.554-8.687 7.066-12.65m-12.943 26.335c2.813-4.313 8.074-2.688 13.75-.875 0 0-1.938 11.406-13.063 10.281 0 .001-3.094-5.714-.687-9.406m1.631 22.902c-.369 1.043-.982 1.958-1.775 2.595-.787.639-1.75.999-2.699 1.009-.945.018-1.873-.332-2.475-.984-.373-.398-.602-.896-.725-1.449.793-.176 1.672-.563 2.582-1.3 2.115-1.716 2.732-3.703 1.938-4.504-.434-.435-1.211-.712-2.061-.892 1.109-1.587 2.506-3.21 4.213-4.596.416 1.069.773 2.16 1.039 3.276.539 2.275.715 4.735-.037 6.845m1.24-2.133c.039-1.672-.283-3.325-.75-4.858-.354-1.137-.793-2.229-1.291-3.288 4.662-3.677 11.613-5.518 21.477.056-.001-.001-12.63-.674-19.436 8.09"/><path d="m21.04 39.315c1.657 0 3-1.344 3-3s-1.343-3-3-3c-1.656 0-3 1.344-3 3s1.343 3 3 3"/></svg>