<svg xmlns="http://www.w3.org/2000/svg" viewBox="0 0 64 64" enable-background="new 0 0 64 64"><path d="m61.988 35c.086-6.412-8.397-11.021-10.207-18.881-2.281-9.915-12.172-14.119-19.781-14.119s-17.497 4.204-19.78 14.119c-1.811 7.86-10.294 12.469-10.209 18.881-.003 0-.007-.001-.011-.001 0 0 0 6.237 4.251 11.729l.876-1.966c0 0 .125 3.034 2.688 6.477l.813-3.032c0 0 .123 4.592 4.123 8.938 0 0 .342-3.018.752-4.102 0 0 2.249 4.756 7.497 7.956 0 0-.688-1.279-.011-2.738 3.407 2.251 6.608 3.739 9.011 3.739s5.604-1.488 9.011-3.738c.677 1.459-.011 2.738-.011 2.738 5.248-3.2 7.498-7.956 7.498-7.956.41 1.084.754 4.102.754 4.102 3.998-4.347 4.123-8.938 4.123-8.938l.813 3.032c2.563-3.442 2.686-6.477 2.686-6.477l.877 1.966c4.249-5.493 4.249-11.73 4.249-11.73-.004 0-.008.001-.012.001m-40.549-19.109c3.117-1.339 6.418 1.191 10.561 1.191 4.145 0 7.443-2.53 10.563-1.191 3.477 1.494 0 0-3.611 1.232-3.609 1.232-5.119 1.379-6.951 1.379-1.83 0-3.342-.146-6.951-1.379s-7.087.262-3.611-1.232m-5.284 2.63c4.677-1.781 9.63 1.59 15.845 1.59 6.217 0 11.168-3.371 15.846-1.59 5.213 1.988 0 0-5.418 1.643-5.414 1.643-7.684 1.835-10.428 1.835s-5.014-.192-10.428-1.835c-5.417-1.643-10.63.346-5.417-1.643m26.345 18.478c-2.305-.66-3.697-.82-4.459-.636.643.754 1.567 1.531 3.119 2.074 4.388 1.535 3.092 5.07.145 5.516.102.191.191.376.258.546 1.238 3.198 2.437 12.502-9.563 12.502s-10.801-9.304-9.563-12.502c.065-.169.154-.353.255-.546-2.942-.448-4.236-3.981.149-5.516 1.722-.604 2.678-1.495 3.326-2.322-.707-.234-2.137-.021-4.668.884-7.931 2.838-16.031-7.31-8.999-11.997 7.03-4.688 14.624 1 19.499 1s12.471-5.688 19.5-1c7.032 4.687-.729 14.37-8.999 11.997"/><path d="m25.9 42.547c3.291-.113 2.727-3.536 2.605-5.096 0 0-.527 2.023-2.838 2.102-3.464.121-2.667 3.098.233 2.994"/><path d="m35.494 37.451c-.121 1.56-.686 4.982 2.605 5.096 2.9.104 3.699-2.873.234-2.994-2.31-.078-2.839-2.102-2.839-2.102"/><ellipse cx="32" cy="49.001" rx="8.619" ry=".5"/><path d="m32 27.877c-10.768 0-19.499.335-19.499.746 0 .184 1.712.352 4.547.481.353 2.877 2.88 5.113 5.952 5.113 2.98 0 5.446-2.104 5.915-4.854 1.007.007 2.032.011 3.085.011s2.079-.004 3.087-.011c.468 2.75 2.935 4.854 5.913 4.854 3.073 0 5.602-2.237 5.954-5.113 2.835-.13 4.546-.298 4.546-.481 0-.411-8.732-.746-19.5-.746m-9 3.802c-1.5 0-2.734-1.069-2.955-2.464 1.754.053 3.739.095 5.896.121-.269 1.336-1.482 2.343-2.941 2.343m18 0c-1.459 0-2.672-1.007-2.941-2.343 2.156-.026 4.142-.068 5.895-.121-.221 1.394-1.452 2.464-2.954 2.464"/></svg>