<svg xmlns="http://www.w3.org/2000/svg" viewBox="0 0 64 64" enable-background="new 0 0 64 64"><path d="m59.834 42.662c.082-.826-1.797-2.521-3.008-3.521-.002-.299-.064-.627-.219-.973-.32-.723-2.285-1.256-3.984-1.592-.164-.223-.361-.441-.627-.635-.688-.505-2.711-.007-4.534.601-.047-.576-.145-1.152-.281-1.721 1.908-.916 3.744-1.52 4.403-2.007 1.707.184 3.15.488 3.656.334 1.668 1.096 3.023 2.447 3.492 2.428.145-.008.295-.059.436-.143 2.244 2.305 2.832 4.617 2.832 4.617-.393-3.021-1.424-4.751-2.174-5.647.041-.248.037-.525-.037-.834-.195-.807-2.527-1.764-4-2.295-.102-.279-.27-.566-.527-.84-.541-.57-2.568-.406-4.281-.143-.227-.154-.486-.293-.801-.385-.819-.241-2.567.923-4.087 2.119-.655-1.17-1.542-2.213-2.639-3.04 3.911-3.854 5.303-7.734 5.277-10.897.489-.552.918-1.321 1.18-2.398.986-4.069-1.456-7.61-3-9.358-.507-.574-1.088-1.106-1.894-1.106-.479 0-.829.167-1.093.4-.909-.842-2.17-1.69-3.968-2.536-4.125-1.938-3.365-1.088-1.326.97 1.658 1.671 3.222 3.77 2.931 4.498-.129.077-.256.161-.383.247-.044.005-.084.015-.137.015-1.529 0-4.01-3.106-4.65-3.41-.491-.231-.185 2.108 3.159 5.076-.148.276-.273.57-.343.904-.239 1.164.159 2.418 1.187 3.728.712.908 1.155 1.577 1.479 2.066.854 1.288 1.344 1.921 3.156 2.219.137.023.285.027.43.035.205 3.924-1.837 7.156-3.154 8.807-.758-.412-1.598-.725-2.514-.921.021-.466.046-1.128.076-1.294.181.024.361.054.55.054 2.164 0 3.914-1.713 3.914-3.826 0-2.111-1.75-3.824-3.914-3.824-2.162 0-3.916 1.713-3.916 3.824 0 1.614 1.027 2.989 2.476 3.551-.02.202-.027.883-.033 1.364-.328-.041-.66-.074-1.006-.086-.031-.051-.061-.102-.085-.143-.222-.378-.683-1.164-1.653-1.164-.131 0-.395.02-.676.148-.404-.752-1.091-.852-1.424-.852-.195 0-.653.041-1.046.381-.374-.328-.812-.381-1.054-.381-.244 0-.681.053-1.055.381-.393-.34-.85-.381-1.046-.381-.333 0-1.021.1-1.424.853-.283-.13-.546-.149-.677-.149-.971 0-1.43.786-1.651 1.164-.023.04-.054.092-.085.143-.346.012-.679.045-1.007.086-.006-.481-.015-1.162-.032-1.364 1.447-.562 2.474-1.937 2.474-3.551 0-2.111-1.752-3.824-3.916-3.824-2.16 0-3.912 1.713-3.912 3.824 0 2.113 1.752 3.826 3.912 3.826.189 0 .371-.029.554-.054.029.165.054.828.075 1.294-.917.196-1.755.509-2.514.921-1.315-1.65-3.359-4.883-3.154-8.807.146-.008.294-.012.435-.035 1.808-.298 2.298-.931 3.151-2.219.323-.489.767-1.158 1.479-2.066 1.027-1.31 1.426-2.563 1.187-3.728-.069-.334-.194-.628-.343-.904 3.344-2.968 3.65-5.308 3.159-5.076-.641.304-3.121 3.41-4.65 3.41-.053 0-.093-.011-.138-.017-.127-.086-.254-.17-.383-.247-.291-.729 1.272-2.827 2.931-4.498 2.039-2.058 2.799-2.907-1.326-.97-1.798.846-3.059 1.694-3.968 2.536-.264-.233-.613-.4-1.092-.4h-.001c-.806.001-1.387.532-1.894 1.107-1.543 1.747-3.985 5.288-3 9.355.262 1.078.691 1.849 1.181 2.399-.025 3.164 1.366 7.044 5.277 10.897-1.098.828-1.984 1.871-2.64 3.043-1.519-1.198-3.268-2.362-4.085-2.121-.316.092-.574.23-.803.385-1.711-.264-3.738-.428-4.279.143-.26.273-.426.561-.527.84-1.473.531-3.805 1.488-4 2.295-.074.309-.08.586-.039.834-.75.898-1.781 2.628-2.174 5.649 0 0 .588-2.312 2.832-4.616.141.084.291.135.436.143.469.02 1.822-1.332 3.49-2.428.508.154 1.951-.15 3.658-.334.658.487 2.494 1.091 4.403 2.008-.137.567-.233 1.144-.281 1.72-1.823-.607-3.845-1.105-4.534-.601-.266.193-.465.412-.627.635-1.701.336-3.666.869-3.984 1.592-.154.346-.217.674-.219.973-1.211 1-3.092 2.695-3.008 3.521.031.314.119.58.24.8-.408 1.099-.807 3.081-.176 6.06 0 0-.211-2.377 1.139-5.314.16.031.318.029.457-.016.447-.139 1.275-1.873 2.484-3.471.527-.027 1.787-.807 3.336-1.561.818.245 2.89.171 5.103.423.104.496.238 1.01.404 1.539-2.061.381-5.893 1.231-6.357 2.366-.127.309-.182.6-.205.877-1.273 1.189-2.668 2.689-2.566 3.475.049.375.164.688.318.942-.514 1.497-1.234 3.939-.736 4.598.191.253.402.433.619.554.223 1.152.91 3.05 2.99 5.251 0 0-1.412-1.911-1.783-5.129.152-.059.285-.144.381-.255.309-.357.113-2.273.314-4.277.436-.307 1.104-1.641 2.031-3.105 1.002-.274 3.336-1.929 5.908-2.926.254.56.537 1.122.845 1.684-.831.332-1.466.709-1.638 1.127-.125.309-.182.6-.205.877-1.273 1.189-2.668 2.689-2.566 3.475.049.377.166.688.318.943-.512 1.498-1.232 3.939-.734 4.6.189.25.402.43.619.55.223 1.155.91 3.053 2.99 5.253 0 0-1.412-1.913-1.785-5.129.152-.059.287-.145.383-.258.307-.355.113-2.271.313-4.275.436-.306 1.104-1.64 2.031-3.105.47-.129 1.244-.569 2.186-1.098 2.783 3.699 6.707 6.687 11.175 6.687 4.467 0 8.393-2.987 11.176-6.686.941.527 1.716.968 2.185 1.097.93 1.466 1.598 2.8 2.031 3.105.201 2.004.006 3.92.314 4.275.096.113.229.199.383.258-.373 3.213-1.785 5.126-1.785 5.126 2.08-2.2 2.768-4.098 2.99-5.253.217-.12.428-.3.619-.55.498-.66-.223-3.102-.736-4.6.154-.256.27-.566.318-.943.104-.785-1.293-2.285-2.564-3.475-.023-.277-.08-.568-.205-.877-.172-.418-.808-.795-1.639-1.126.31-.562.592-1.125.846-1.685 2.571.997 4.906 2.651 5.908 2.926.928 1.465 1.594 2.799 2.031 3.105.199 2.004.006 3.92.314 4.277.096.111.229.196.381.255-.371 3.218-1.783 5.129-1.783 5.129 2.078-2.201 2.768-4.099 2.99-5.251.217-.121.428-.301.619-.554.498-.658-.225-3.101-.736-4.598.152-.255.27-.567.318-.942.102-.785-1.293-2.285-2.566-3.475-.023-.277-.08-.568-.205-.877-.466-1.135-4.297-1.985-6.356-2.366.166-.529.3-1.043.404-1.539 2.213-.252 4.285-.178 5.103-.423 1.549.754 2.809 1.533 3.336 1.561 1.209 1.598 2.035 3.332 2.482 3.471.141.045.299.047.459.016 1.35 2.938 1.137 5.314 1.137 5.314.631-2.979.232-4.961-.174-6.06.121-.218.209-.483.24-.798m-22.813-20.404c0-1.895 1.52-3.432 3.395-3.432s3.395 1.537 3.395 3.432c0 1.897-1.52 3.434-3.395 3.434s-3.395-1.537-3.395-3.434m-13.441 3.433c-1.873 0-3.391-1.536-3.391-3.434 0-1.895 1.518-3.432 3.391-3.432 1.875 0 3.395 1.537 3.395 3.432 0 1.898-1.52 3.434-3.395 3.434"/><path d="m42.748 22.258c0-1.301-1.043-2.357-2.332-2.357s-2.334 1.057-2.334 2.357c0 1.305 1.045 2.363 2.334 2.363s2.332-1.058 2.332-2.363"/><path d="m23.58 19.9c-1.285 0-2.33 1.057-2.33 2.357 0 1.305 1.045 2.363 2.33 2.363 1.289 0 2.334-1.059 2.334-2.363 0-1.3-1.045-2.357-2.334-2.357"/></svg>