<svg xmlns="http://www.w3.org/2000/svg" viewBox="0 0 64 64" enable-background="new 0 0 64 64"><path d="m60.203 15.696c-3.324 2.812-6.596 2.155-8.393 1.419 2.168-1.421 4.104-2.736 5.059-3.911 3.035-3.736 4.104-11.174 2.024-11.174-1.688 0 .764 6.607-6.178 11.473 1.426-5.122-1.063-11.008-2.811-11.473-.406-.107-1.799 0-.75 1.531 3.434 5.011 1.885 9.577.723 11.778-1.766 1.151-3.414 2.3-4.912 3.469.689-2.113 1.395-5.572.584-9.675-1.033-5.247 2.301-3.905 1.455-6.157-.549-1.46-4.223.374-3.654 4.151.361 2.398 1.066 4.454.646 7.674-1.029-.418-3.396-1.596-5.043-4.112-2.324-3.546-5.584 1.25 4.572 6.464-.213.817-.502 1.71-.864 2.681-2.896 1.587-4.756 3.93-5.942 6.237-1.691-.298-3.295-.329-4.719-.329-1.423 0-3.026.031-4.717.329-1.188-2.308-3.047-4.65-5.943-6.237-.363-.971-.651-1.863-.864-2.681 10.155-5.214 6.896-10.01 4.572-6.464-1.647 2.517-4.015 3.694-5.044 4.112-.42-3.22.285-5.275.646-7.674.568-3.777-3.104-5.611-3.654-4.151-.846 2.252 2.488.91 1.454 6.157-.809 4.103-.104 7.562.586 9.675-1.498-1.169-3.147-2.317-4.91-3.469-1.164-2.201-2.712-6.768.72-11.778 1.05-1.531-.344-1.639-.749-1.531-1.748.465-4.236 6.351-2.811 11.473-6.941-4.865-4.492-11.473-6.178-11.473-2.081 0-1.013 7.438 2.022 11.174.957 1.175 2.894 2.49 5.062 3.911-1.799.736-5.07 1.393-8.395-1.419-.398-.339-1.797-1.024-1.797.695 0 1.4 3.902 4.71 8.917 3.697.067 1.754.831 11.401 9.361 15.082-.091.594-.304 1.281-.758 2.061-2.571 4.414-1.391 9.191 3.239 13.107.726.613.88 1.723 1.049 3.478.221 2.273.521 5.387 3.773 7.025 1.562.78 3.005 1.159 4.419 1.159s2.859-.379 4.415-1.158c3.258-1.641 3.558-4.753 3.776-7.027.169-1.754.323-2.864 1.048-3.476 4.632-3.916 5.812-8.693 3.239-13.108-.454-.779-.666-1.466-.757-2.06 8.529-3.681 9.293-13.329 9.36-15.082 5.015 1.013 8.919-2.298 8.919-3.698 0-1.719-1.398-1.034-1.797-.695m-18.525 18.167c-.07 1.204.08 2.64 1.059 4.318 2.529 4.34.219 8.136-2.813 10.699-3.029 2.56-.232 8.13-4.428 10.242-.963.482-2.162.941-3.496.941s-2.532-.459-3.495-.941c-4.195-2.112-1.399-7.683-4.429-10.242-3.029-2.563-5.342-6.359-2.813-10.699.979-1.679 1.13-3.115 1.06-4.319-9.345-3.006-9.413-14.05-9.413-14.05 8.004 0 11.599 4.48 13.218 8.513.377-.109.75-.184 1.124-.26-1.083 1.479-1.382 3.341.417 6.856 2.584 5.047 1.667 14.195 4.332 14.195 2.666 0 1.75-9.148 4.332-14.195 1.799-3.516 1.501-5.377.418-6.856.373.076.747.15 1.125.26 1.619-4.031 5.213-8.513 13.215-8.513-.001.001-.069 11.045-9.413 14.051"/><path d="m22.682 31.303c-.756-.771-2.422-2.313-.005-1.406 2.419.907.005-.831-.448-1.602-.455-.771 2.803.926 2.803.926-4.076-7.326-9.622-7.326-9.622-7.326-.001 8.096 8.029 10.178 7.272 9.408"/><path d="m41.771 28.295c-.453.771-2.867 2.509-.447 1.602 2.418-.907.752.635-.006 1.406-.758.771 7.271-1.312 7.271-9.408 0 0-5.545 0-9.621 7.326.001 0 3.261-1.697 2.803-.926"/><path d="m36.547 53.58c0-1.079-2.576-1.389-4.547-1.389-1.97 0-4.545.31-4.545 1.389 0 1.017 1.612 3.192 4.076 3.444v.955c-1.787-.102-3.163-.849-3.272-.579-.142.247 1.454 1.77 3.741 1.757 2.287.013 3.885-1.51 3.742-1.757-.109-.269-1.486.478-3.273.579v-.955c2.466-.252 4.078-2.427 4.078-3.444"/><path d="m23.142 38.694c-.927.158-1.489 1.323-1.256 2.604.233 1.279 1.173 2.188 2.101 2.03.926-.158 1.488-1.323 1.254-2.604-.234-1.279-1.173-2.188-2.099-2.03"/><path d="m40.859 38.694c-.926-.158-1.867.751-2.1 2.031-.234 1.28.328 2.445 1.256 2.604.926.158 1.865-.751 2.1-2.03.235-1.281-.328-2.446-1.256-2.605"/><path d="m23.644 35.917c-.128.171 1.832 1.45 2.545 3.835.787 2.365-.099 4.486.106 4.56.17.154 1.527-2.076.653-4.784-.84-2.717-3.253-3.832-3.304-3.611"/><path d="m40.357 35.917c-.051-.221-2.465.894-3.307 3.61-.873 2.708.486 4.938.654 4.784.205-.073-.68-2.194.107-4.56.714-2.384 2.673-3.663 2.546-3.834"/></svg>