<svg xmlns="http://www.w3.org/2000/svg" viewBox="0 0 64 64" enable-background="new 0 0 64 64"><path d="m29.481 16.059c.383.325.784.632 1.229.924.244.155.414.268.799.405.201.075.303.091.42.122.044.005.07 0 .108.001-.077.333-.128.676-.128 1.032 0 2.476 1.961 4.483 4.378 4.483 2.183 0 3.977-1.639 4.308-3.777.164.134.298.28.476.407.468.314 1.183.594 1.786.539.856-.088 1.206-.455 1.65-.751.801-.658 1.481-1.38 2.072-2.201-.891.438-1.746.918-2.604 1.258-.392.171-.919.319-1.035.242-.367-.078-.574-.216-.876-.488-1.161-1.069-2.558-4.503-5.968-4.503-2.371 0-4.005 2.062-4.005 2.062s-1.272-.292-2.039-.68l-2.651-1.232c.621.794 1.33 1.488 2.08 2.157m6.806-.559c1.641 0 2.97 1.363 2.97 3.043s-1.329 3.043-2.97 3.043c-1.642 0-2.972-1.363-2.972-3.043s1.331-3.043 2.972-3.043"/><circle cx="36.287" cy="18.544" r="1.5"/><path d="m54.618 44.848c.363-3.839-1.576-6.426-3.266-8.676-1.463-1.947-2.422-3.369-2.269-5.074 1.294.254 2.71.588 4.31 1.074 4.098 1.246 3.576 5.598 3.549 5.801l-.438 3.099 2.115-2.243c.191-.203 4.658-5.027 3.02-10.777-1.115-3.92-4.723-8.006-8.123-9.714-.438-1.702-1.187-3.395-2.273-5.028-4.5-6.766-13.353-11.31-22.032-11.31-2.438 0-4.809.36-7.043 1.069l-3.747 1.19 3.847.78c.221.045.423.108.607.191-2.156.197-4.809.79-7.376 2.282-1.405.79-2.721 1.856-3.911 3.168l-1.171 1.292 1.669.394c1.108.263 1.985.761 2.619 1.485-2.074.942-4.521 2.619-6.187 5.55-1.55 2.195-2.448 5.131-2.668 8.728l-.125 2.027 1.375-.931c-1.179 1.692-2.081 3.597-2.273 5.632 0 0 1.616-2.328 3.944-2.797-.042.231-.092.457-.126.694-4.824 3.166-5.739 10.131-5.739 10.131 3.163-3.204 5.746-3.296 5.746-3.296-5.601 3.565-6.652 13.704-6.652 13.704 2.302-2.09 4.505-3.444 4.505-3.444-4.723 7.097-1.685 12.151-1.685 12.151h56.148c0 0 .99-10.937-6.35-17.152m5.135-16.222c.73 2.562-.133 4.985-1.045 6.634-.494-1.999-1.818-4.146-4.76-5.039-3.543-1.077-6.329-1.463-8.568-1.773-2.748-.381-4.65-.645-6.43-1.886 2.959-.499 5.289-.616 6.821-.616 1.913 0 2.964.178 2.975.18l1.292.223-.151-1.344c-.264-2.346-.166-4.868.2-5.429.135-.025.279-.039.432-.039 3.105 0 8.025 4.841 9.234 9.089m-10.353 23.395l-.605.863c-1.465-3.621-5.489-7.635-5.489-7.635l.919 3.771c.013.049 1.083 4.54.032 8.025-3.642-2.307-4.572-4.594-4.579-4.609l-.756-2.033-1.023 1.905c-.022.042-2.234 4.083-7.13 6.661-3.213-3.615-4.021-9.412-4.03-9.473l-.363-2.641-1.438 2.229c-.015.022-1.447 2.168-6.346 3.344-4.175-6.458-2.975-11.76-2.963-11.81l.906-3.655-2.561 2.689c0 0-.395.416-2.361 2.505-.592-1.683-.933-3.353-1.019-5.031-.606-4.172.762-7.706 2.016-9.937l.802-1.426-1.592-.101c-.144-.009-.295-.015-.454-.015-1.108 0-2.247.254-3.363.744.343-2.354 1.057-4.311 2.157-5.875 1.745-3.063 4.427-4.53 6.37-5.222l1.07-.381-.515-1.042c-.474-.96-1.349-2.14-2.942-2.918.729-.653 1.5-1.21 2.308-1.664 3.002-1.745 6.153-2.112 8.266-2.112l1.795.026-.586-1.435c-.175-.431-.438-.912-.827-1.353 1.335-.256 2.71-.384 4.112-.384 7.934 0 16.327 4.288 20.411 10.427.584.877 1.161 1.926 1.605 3.1-.241-.036-.479-.058-.709-.058-.341 0-.67.039-.98.114-.021.005-.041.016-.064.022-.104-.763-.361-1.505-.838-2.084.125.861.184 1.654.193 2.456-.125.116-.238.249-.34.404-.176-.834-.428-1.652-.76-2.434-.727-1.657-1.846-3.197-3.34-4.105 1.135 1.357 2.023 2.82 2.713 4.416.404.92.74 1.874 1.045 2.85-.436 1.248-.465 3.068-.333 4.84-.526-.039-1.21-.07-2.043-.07-1.956 0-5.146.181-9.231 1.04l-1.762.37 1.252 1.334c2.75 2.929 5.408 3.297 9.089 3.807.64.09 1.309.184 2.008.292-.321 2.664 1.192 4.694 2.671 6.665 2.52 3.358 5.123 6.825-.398 14.604"/><path d="m52.168 23.997c.429-.655.624-1.292.435-1.422-.189-.13-.691.295-1.12.951-.431.655-.624 1.292-.434 1.423.187.128.688-.297 1.119-.952"/><path d="m48.306 39.719c-.047.604-.182 1.201-.354 1.775-.197-.316-.404-.619-.63-.914-.362-.468-.752-.91-1.172-1.322-.849-.815-1.797-1.514-2.812-2.082l-.959-.535.137 1.203c.148 1.316.111 2.652-.138 3.954-.121.651-.292 1.29-.488 1.919-.044.139-.099.277-.147.418-.586-.891-1.158-1.797-1.711-2.709-.805-1.347-1.559-2.725-2.225-4.137l-1.363-2.881-.363 3.217c-.19 1.678-.625 3.314-1.423 4.734-.395.708-.873 1.362-1.423 1.938-.343.363-.743.715-1.138 1.008-.329-.621-.649-1.26-.946-1.902-.428-.918-.812-1.855-1.175-2.801-.71-1.891-1.287-3.854-1.474-5.838l-.178-1.857-.964 1.514c-.673 1.059-1.454 2.041-2.346 2.897-.447.426-.92.823-1.417 1.177-.399.29-.834.551-1.26.762-.242-.49-.457-1.023-.623-1.563-.203-.669-.346-1.361-.429-2.063-.157-1.404-.072-2.855.304-4.246-.521 1.334-.783 2.807-.719 4.281.027.736.119 1.473.279 2.193.162.728.364 1.422.686 2.131l.131.289.312-.103c.665-.218 1.229-.512 1.801-.851.562-.345 1.095-.74 1.601-1.167.619-.525 1.182-1.118 1.719-1.737.229 1.635.653 3.217 1.158 4.752.332 1.012.722 1.996 1.139 2.967.422.975.86 1.912 1.371 2.872l.375.7.682-.336c.954-.473 1.65-1.039 2.342-1.726.67-.685 1.251-1.463 1.73-2.304.515-.897.903-1.863 1.19-2.858.372.665.755 1.321 1.149 1.967.844 1.388 1.748 2.704 2.727 4.013l.823 1.1.56-1.229c.334-.733.553-1.4.754-2.121.199-.71.328-1.439.419-2.174.126-1.059.146-2.139.03-3.203.594.347 1.17.725 1.705 1.17.422.342.825.715 1.203 1.115.371.397.736.838 1.021 1.28l.373.577.171-.621c.241-.88.34-1.75.321-2.636-.021-.88-.22-1.759-.604-2.519.284.814.329 1.678.268 2.512"/><path d="m23.292 24.308c.737.015 1.508-.112 2.236-.382-.115.503-.215 1.006-.297 1.512-.166 1.036-.31 2.063-.385 3.114l-.041.581.497-.075c1.25-.192 2.463-.478 3.657-.884.596-.201 1.182-.446 1.74-.753.553-.304 1.101-.69 1.448-1.242-.42.49-.995.75-1.558.977-.57.225-1.164.373-1.757.509-1.001.216-2.024.349-3.039.442.163-.808.331-1.619.532-2.414.246-.98.494-1.96.838-2.868l.803-2.119-1.791 1.324c-.809.598-1.813.859-2.854.816-.52-.023-1.045-.096-1.566-.218-.082-.02-.163-.048-.245-.07.556-.401 1.101-.816 1.639-1.247.899-.766 1.788-1.563 2.538-2.539l.722-.938-1.065.214c-.616.124-1.247.194-1.885.18-.637-.023-1.285-.099-1.912-.33.801.585 1.768.879 2.756.976-.588.5-1.199.98-1.838 1.422-.912.664-1.887 1.266-2.83 1.852l-1.131.703 1.18.564c.601.289 1.158.477 1.764.634.597.158 1.215.25 1.844.259"/><path d="m15.268 31.901c-.437.18-.865.37-1.291.571.019-.066.035-.137.054-.202.117-.368.237-.734.399-1.079.309-.702.734-1.326 1.377-1.86-.827.081-1.571.7-2.053 1.432-.236.375-.439.772-.576 1.194-.15.424-.246.839-.299 1.313l-.102.901.756-.424c1.123-.631 2.286-1.248 3.479-1.693-.309.646-.502 1.352-.477 2.06.217-.935.712-1.727 1.288-2.397l.486-.566-.748.104c-.799.108-1.552.369-2.293.646"/><path d="m25.35 12.218c-.749-.857-1.758-1.398-2.818-1.694-1.06-.276-2.242-.276-3.229.252 1.089.052 2.071.194 3.063.463.992.257 1.952.618 2.984.979"/><path d="m27.121 12.465c-.39-1.096-1.132-2.004-2.009-2.705-.883-.683-1.979-1.16-3.079-1.068.989.487 1.851 1.014 2.671 1.663.828.637 1.589 1.359 2.417 2.11"/><path d="m27.739 11.349c.057-.818-.221-1.596-.643-2.258-.434-.648-1.075-1.209-1.843-1.321.487.622.892 1.151 1.276 1.745.395.584.749 1.193 1.21 1.834"/></svg>