<svg xmlns="http://www.w3.org/2000/svg" viewBox="0 0 64 64" enable-background="new 0 0 64 64"><path d="m49.506 7.171c.621-.506.721-1.405.217-2.018-.51-.617-1.424-.713-2.043-.212-.621.496-.719 1.395-.213 2.006.508.617 1.424.713 2.039.224"/><path d="m58.77 25.492c-.602.05-2.736 1.032-3.494 1.096-1.572.116-2.41-.64-1.779-1.801.277-.514 1.957-1.976 2.203-2.491.658-1.287-1.471-2.24-2.109-.952-.262.521-.391 2.693-.639 3.231-.469.967-1.84 1.063-2.342.382-.414-.583-1.01-2.816-1.357-3.292-.855-1.158-2.764.091-1.916 1.248.336.454 2.467 1.834 2.709 2.976-2.551-.494-4.111-2.977-4.939-4.841.453-.741.916-1.448 1.416-2.116 1.795.974 4.043.741 5.457-.925.09-.105.207-.236.34-.379.631.41 1.361.652 2.135.652.889 0 1.758-.305 2.449-.857.805-.643 1.311-1.563 1.42-2.59.107-.996-.18-1.971-.791-2.763 2.928-3.383 5.564-7.243 4.004-9.203-1.582-1.987-5.992-.222-9.982 1.927-.746-.86-1.814-1.357-2.961-1.357-.889 0-1.758.306-2.447.861-.811.639-1.32 1.56-1.43 2.586-.066.62.035 1.226.258 1.791-.174.101-.33.189-.455.253-2.043 1.068-2.689 3.334-1.941 5.336-1.6.867-3.824 1.839-6.719 2.621-1.791-.116-6.218-.831-3.441-5.059.844.804 1.104 3.111 1.355 3.581.715 1.399 2.732.239 2.004-1.157-.268-.508-2.02-1.992-2.357-2.615-.391-.737.34-1.913 1.43-1.917.602.011 2.631.832 3.217.828 1.434-.008 1.549-2.296.107-2.277-.586.003-2.678.856-3.27.881-1.348.067-1.645-1.005-.818-2.347.41-.645 2.285-2.114 2.604-2.626.865-1.413-1.016-2.54-1.902-1.124-.313.517-.768 2.822-1.162 3.476-.828 1.342-1.929 1.578-2.5.387-.254-.528-.451-2.746-.725-3.248-.654-1.288-2.674-.12-2.006 1.15.266.519 1.947 1.898 2.24 2.415.506.946-.223 2.116-1.064 2.122-.715-.005-2.871-.832-3.459-.829-1.439.015-1.547 2.294-.115 2.285.535-.006 2.684-.829 3.816-.516-.949 1.226-4.283 6.086.23 8.774-4.855 2.272-11.283 6.22-16.627 11.853-1.646.424-4.11.364-3.842-3.91 1.15.186 2.599 2.136 3.065 2.421 1.321.846 2.479-1.177 1.144-2.012-.487-.303-2.748-.698-3.354-1.064-.709-.437-.673-1.821.267-2.376.524-.296 2.69-.614 3.193-.914 1.233-.732.178-2.764-1.057-2.019-.505.299-1.879 2.094-2.379 2.414-1.127.74-1.925-.036-1.89-1.611.027-.763.904-2.979.921-3.582.031-1.657-2.159-1.678-2.21-.008-.008.603.763 2.824.753 3.586-.037 1.578-.869 2.338-1.962 1.599-.486-.327-1.776-2.141-2.265-2.436-1.217-.78-2.369 1.249-1.151 2.007.493.313 2.641.652 3.152.951.915.559.878 1.937.155 2.369-.621.358-2.898.735-3.406 1.036-1.233.741-.176 2.762 1.056 2.03.447-.269 1.821-1.985 2.942-2.358-.187 1.495-.521 6.732 3.856 7.393-.003.004-.006.008-.009.012-4.08 5.346-8.847 19.73 7.786 25.848 16.228 5.968 37.347-4.204 41.408-23.558 0 0-9.031 24.041-31.095 19.299-6.68-1.439-15.429-5.857-7.219-12.191 1.059-.816 2.248-1.605 3.469-2.367 1.035 4.412 5.674 4.941 8.115 4.908-.131 1.156-2.142 2.648-2.429 3.123-.846 1.322 1.176 2.482 2.009 1.145.301-.488.695-2.752 1.063-3.355.436-.711 1.818-.674 2.373.266.297.525.615 2.693.914 3.197.73 1.232 2.762.176 2.016-1.059-.297-.506-2.09-1.881-2.41-2.381-.74-1.129.035-1.926 1.609-1.891.762.027 2.977.904 3.578.92 1.654.033 1.676-2.16.008-2.211-.602-.008-2.82.762-3.582.752-1.576-.037-2.336-.869-1.598-1.963.326-.486 2.139-1.779 2.434-2.268.777-1.217-1.248-2.371-2.006-1.15-.313.492-.65 2.643-.949 3.154-.561.916-1.936.879-2.367.154-.357-.621-.734-2.9-1.033-3.408-.742-1.234-2.759-.176-2.029 1.057.289.479 2.228 2.023 2.402 3.18-2.181-.35-3.335-1.543-3.783-2.969-.145-.482-.133-1.23.457-2.076 1.389-.834 2.636-1.625 3.566-2.367 4.895-3.906 7.508-7.613 9.49-10.904 1.293 3.75 5.404 3.583 7.711 3.164.063 1.166-1.879 2.907-2.125 3.418-.713 1.398 1.408 2.355 2.109.945.254-.516.428-2.805.734-3.444.367-.75 1.748-.848 2.389.035.346.494.871 2.622 1.217 3.094.848 1.158 2.768-.092 1.906-1.248-.346-.474-2.262-1.67-2.631-2.137-.844-1.052-.15-1.921 1.42-2.039.762-.045 3.051.613 3.652.572 1.65-.129 1.459-2.313-.205-2.203m-22.543 31.612c.891-.055 1.744-.174 2.553-.355-.42 1.482-.262 1.467 1.328 2.115-.857.381-1.729.715-2.617.986-2.516-.95-2.636-1.33-1.264-2.746m-9.896-.915c.699.223 2.43.633 2.629.67-1.592 1.938 1.311 1.873 1.928 4.258-2.465.414-3.697.156-3.697.156-.558-1.937-3.411-3.183-.86-5.084m-8.053-4.753c.491.869 1.374 1.629 2.462 2.285-4.277 2.328-3.719.898-2.202 5.93 0 0-2.387-.627-3.791-1.697-1.124-7.183 1.146-3.089 3.531-6.518m-.815-2.024c-7.67-6.838-4.068-1.453-9.927-.813-.285-1.316-.335-2.646-.221-3.938 2.72 1.08 5.101-7.723 10.967 1.285-.976 1.269-1.163 2.425-.819 3.466m4.136-6.672c-8.962-5.715 1.435-5.258-10.396-8.107.846-1.104 1.748-2.146 2.688-3.135 16.227 1.646 2.061 2.816 11.25 8.93-1.221.738-2.439 1.506-3.542 2.312m8.659-5.513c-9.13-7.997 3.156-10.714-8.969-12.079 0 0 1.798-1.469 3.464-2.307 17.629 3.333 2.405 5.899 9.014 11.806.001-.001-1.408 1.496-3.509 2.58m11.76-12.101c0 0-1.104 2.251-2.889 4.194-3.107-5.16 3.414-6.505-6.908-10.5 1.346-.568 3.662-1.277 3.813-1.317 4.05 3.519 6.671-.26 5.984 7.623m14.259-8.486c-.537.429-1.182.638-1.824.638-.846 0-1.686-.362-2.264-1.06-1.008-1.23-.814-3.033.424-4.025.539-.429 1.188-.637 1.83-.637.846 0 1.684.361 2.254 1.058 1.006 1.232.819 3.038-.42 4.026m-9.507-11.562c.537-.431 1.182-.64 1.822-.64.844 0 1.682.362 2.256 1.057 1.008 1.234.818 3.036-.428 4.023-.533.428-1.176.635-1.814.635-.846 0-1.686-.364-2.26-1.061-1.014-1.23-.826-3.027.424-4.014"/><path d="m53.402 14.562c-.617.506-.717 1.402-.209 2.017.508.615 1.422.711 2.035.217.623-.493.717-1.397.217-2.017-.509-.609-1.424-.708-2.043-.217"/></svg>