<svg xmlns="http://www.w3.org/2000/svg" viewBox="0 0 64 64" enable-background="new 0 0 64 64"><path d="m36.488 15.317c2.709.278 2.816 1.618 2.418 1.89-.057.041-.633.318.227.24 1.129-.096 2.34-1.294 2.41-2.538.051-.78-.703-2.373-2.784-3.52-1.683.837-3.274 2.226-4.604 1.027-.305-.381-.412-1.177-.412-1.177-1.077 1.81-.206 3.775 2.745 4.078"/><path d="m46.822 6.111c-1.553.887 1.141 2.484 1.125 3.875.382.172 1.232.658 1.563.531.932-.361 1.949-1.177 1.988-2.548.004.003.007.008.012.012.021-.703-.082-1.468-.346-2.236-.491-1.432-1.242-2.334-2.1-2.807.135.572-.134 1.968-2.242 3.173"/><path d="m39.18 10.455c1.509-1.182 3.104-3.401 3.445-4.919.115.341.064.802-.102 1.319.628-.054 1.348-.227 2.186-.549 1.535-.601 3.248-2.026 3.766-3.224-.029-.071-.043-.148-.094-.214-.083-.107-.195-.198-.311-.286-1.07-.816-3.375-.783-5.472.154-1.279.572-2.19 1.356-2.621 2.13-1.121.285-2.416.968-3.598 1.984-1.695 1.461-2.889 3.554-2.178 4.621.817 1.226 2.608.844 4.979-1.016"/><path d="m55.059 36.265c-2.615-1.559-3.066-4.367-4.771-2.805-2.444 2.241 1.213 3.357 3.11 4.637.814-.858 1.755-1.1 2.474-1.126-.188-.248-.448-.49-.813-.706"/><path d="m50.32 42.703c0 0 .083-.203-.887-.813-2.576-1.62-3.066-4.367-4.77-2.805-2.48 2.273 1.32 3.39 3.191 4.692.816-.886 1.781-1.08 2.466-1.074"/><path d="m57.789 33.679c.842-.784 1.783-.994 2.495-1.007-.187-.316-.485-.627-.944-.899-2.615-1.559-3.066-4.367-4.771-2.805-2.493 2.283 1.358 3.398 3.22 4.711"/><path d="m56.397 44.913c.343-.414.532-1.018.345-1.827-.646-2.787 1.203-5.064-1.207-5.064-4.154 0-.826 4.551-1.383 6.418-.196.657.152 1.024.652 1.11-.027.105-.033.213.018.321.279.594 2.896.617 2.896.311.001-.32-.611-.941-1.321-1.269"/><path d="m50.773 50.539c.344-.414.532-1.018.346-1.827-.646-2.788 1.203-5.065-1.207-5.065-4.154 0-.828 4.551-1.383 6.419-.196.657.152 1.025.652 1.11-.027.105-.033.213.018.321.277.594 2.896.617 2.896.311.001-.32-.611-.942-1.322-1.269"/><path d="m60.68 40.419c.342-.414.531-1.017.344-1.825-.646-2.788 1.203-5.065-1.207-5.065-4.154 0-.826 4.55-1.383 6.417-.196.658.152 1.025.652 1.111-.027.105-.033.213.018.32.279.594 2.896.617 2.896.312 0-.321-.609-.942-1.32-1.27"/><path d="m33.016 42.475c-5.021 1.982-11.956 6.254-6.647 13.645-.008-.011-.02-.03-.029-.046.02.031.037.061.061.092 0 0-.502-1.346.365-1.799.863-.461-.516-1.361.313-1.756.822-.383-.168-1.451 1.102-2.359 1.264-.881 1.486-1.77 1.486-1.77s1.582.904.447 2.205c-1.137 1.314.063 1.244 1.076 1.555 1.014.303-2.125.705-1.039 1.627 1.086.9-1.48.758-.836 1.916.639 1.172-1.455.561-.705 1.918.75 1.358.348.581-.463 1.845-.81 1.247-.845 2.452-.845 2.452s22.125-5.708 12.688-18.033c-2.301-2.94-5.949-1.871-6.974-1.492"/><path d="m26.247 28.787c.509.062 1.091.38 1.703.772 1.073-1.092 2.329-1.379 3.095-1.433-.764-.21-1.621-.491-2.437-1.006-2.57-1.621-4.451 1.423-2.361 1.667"/><path d="m31.671 24.538c.691.102 1.502.683 2.34 1.286.73-1.068 1.708-1.599 2.398-1.839-.736-.229-1.554-.532-2.322-1.051-2.513-1.695-4.496 1.292-2.416 1.604"/><path d="m26.411 26.236c.502-.216 1.162-.247 1.901.097 1.566-.577 2.992-.566 2.37-1.748-.6-1.143-.474-1.733-.181-2.04-.963.19-1.993 1.933-4.057 2.901-.277.132-.498.281-.69.439.161.044.333.117.528.248.051.035.082.069.129.103"/><ellipse cx="28.662" cy="36.756" rx="2.383" ry="2.468"/><ellipse cx="21.603" cy="35.639" rx="2.086" ry="2.16"/><path d="m44.953 38.143c-.462-.348-1.156-.543-2.095-.357-1.08.21-2.081.14-2.94.053.94-1.995-1.074-4.299-3.908-5.56 3.273.954 4.938 2.01 5.172 4.897 1.771.305 2.979-.607 3.993-1.943 1.284-.113 2.849-.656 3.989-.706.057-.265.154-.546.324-.858.297-.547.67-.875 1.037-1.057-.449-.373-1.154-.594-2.121-.403-.49.095-.963.127-1.415.13.353-.605.714-1.197 1.099-1.739 1.33.545 3.781-.507 5.383-.565.063-.253.156-.52.315-.813.3-.551.673-.887 1.044-1.081-.449-.386-1.16-.619-2.145-.426-.523.102-1.026.134-1.506.132.045-.257.037-.559.063-.791-.017-2.997-3.747-4.716-3.809-4.758 1.75.335 3.152 1.267 3.979 2.384 1.689-3.076 1.577-6.639.731-9.039-.112-.317-.265-.61-.446-.88-.381-.569-.9-1.025-1.504-1.329.182.028.372.046.563.046.728 0 1.466-.271 1.827-1.201.023-.209.049-.418.049-.637 0-1.172-.35-2.209-.896-2.953.062 2.559-1.615 3.681-3.161 2.486-1.379-1.064-1.566.324-1.551 1.293.037.265.092.52.162.764-.85.283-1.697.857-2.445 1.811-2.055 2.621-3.224 5.456-3.637 7.895-4.255.931-7.14 3.024-7.52 4.983-3.273.843-5.661 2.2-6.668 3.604-.906.125-1.746.281-2.529.46.779-.837 1.817-1.731 2.371-2.598-.359-.167-.703-.287-1.023-.326-1.627-.19-1.41-1.669-.267-2.398-1.374-.23-1.44 2.278-3.345 4.289-.393.414-.615.821-.717 1.2-1.141.064-2.121.679-2.708 1.581-2.075-1.175-4.4-1.185-5.406-.365-.402.327-.652.768-.78 1.241-.382.005-.692.051-.868.089-16.032 3.39-7.24 17.424-7.24 17.424s.902-.813 1.411-1.977c.504-1.174-.328-.832 1.152-1.412 1.479-.579-.204-1.058 1.066-1.552 1.271-.486-.324-1.482 1.013-1.625 1.334-.143-.176-1.734.653-1.506.825.221 1.465.779 1.813-.559.297-1.146 1.516-1.266 1.869-1.275.035 0 .068-.003.104-.002 0 0-.559.686-.517 1.809.041 1.131-1.359 1.408-1.178 2.006.178.617-1.326.629-1.173 1.283.152.68-1.182 1.351-1.182 1.351 4.227-.667 6.123-2.964 6.985-5.049.011-.024.021-.05.031-.074.074-.184.143-.365.202-.544l-.001.001c.604-1.827.345-3.722-.157-5.29 0 0-.178-.521-.245-.69-.434-1.104-1.148-1.716-1.892-2.048.575.098 1.467.379 1.947 1.208.158.274.387.403.742.45.198-1.062.724-1.8 1.351-2.324-.124.301-.222.617-.259.953-.464.652-.713 1.363-.713 2.129 0 .961.28 1.913.808 2.799-.858.746-1.727 1.964-.882 4.275 1.119 3.066 1.574 3.078 1.439 1.314-.143-1.82 0-1.941 3.846-1.404 3.844.539.592 2.375-.037 3.152-.078.097-.023.154.113.18 5.387-1.679 5.434-4.726 3.563-6.499 1.543.211 2.071 2.421 1.918 2.992 1.5-1.094 4.109-2.222 5.602-2.66-.114-.668-.055-1.424.121-2.244.256.583 1.048 2.254 1.723 2.236 3.428-.083 3.674 1.726 4.332.935 1.117-1.345.16-2.614-1.043-3.905.918.605 1.625 1.334 2.116 2.071.882-.191 1.773-.421 2.507-.467.059-.283.163-.589.348-.928.304-.557.68-.894 1.053-1.089m-1.054-21.248c3.429-2.231 8.185 1.851 5.282.604-2.9-1.247-6.154-.037-5.282-.604m-1.483 3.223c4.113-2.676 9.819 2.221 6.339.726-3.482-1.497-7.386-.045-6.339-.726m-2.281 3.823c4.492-.793 9.563 3.513 6.27 1.822-3.295-1.689-7.413-1.62-6.27-1.822m-3.5 2.607c5.166-.912 10.999 4.04 7.211 2.097-3.789-1.945-8.526-1.866-7.211-2.097m-4.639 3.584c5.612-1.328 11.729 4.619 7.709 2.34s-9.139-2.004-7.709-2.34m-10.393 8.647c-1.676 0-3.033-1.404-3.033-3.142 0-1.734 1.357-3.141 3.033-3.141 1.674 0 3.033 1.406 3.033 3.141 0 1.738-1.359 3.142-3.033 3.142m7.059 1.567c-1.916 0-3.469-1.605-3.469-3.591 0-1.982 1.553-3.588 3.469-3.588 1.914 0 3.467 1.605 3.467 3.588-.001 1.985-1.553 3.591-3.467 3.591m8.764-4.204c-.172 0-.6-.209-1.336-.723-4.333-3.018-10.18-3.17-8.522-3.428.424-.066.846-.098 1.264-.098 2.469 0 4.811 1.063 6.438 2.125 1.628 1.061 2.541 2.124 2.156 2.124"/></svg>