<svg xmlns="http://www.w3.org/2000/svg" viewBox="0 0 64 64" enable-background="new 0 0 64 64"><circle cx="45.125" cy="22.625" r="5.625"/><circle cx="18.875" cy="22.625" r="5.625"/><path d="m45.234 5.86c-.103 0-.202.014-.305.016.754-.893 1.455-1.888 2.07-2.999 0 0-7.947 6.131-15-.877-7.053 7.008-15 .877-15 .877.615 1.111 1.315 2.106 2.068 2.999-.102-.002-.201-.016-.304-.016-9.242 0-16.763 7.521-16.763 16.765 0 4.715 1.963 8.974 5.106 12.022.437 5.116 2.25 13.268 9.003 18.447-.744.209-1.356.791-1.356 1.758 0 2.469 2 6.147 2 6.147s1.108-2.041 1.675-4.103c.567 2.57 1.668 5.104 1.668 5.104s1.102-2.534 1.67-5.103c.566 2.062 1.673 4.103 1.673 4.103s.729-1.343 1.306-2.948c2.275.906 4.714 1.405 7.255 1.405 2.54 0 4.979-.499 7.254-1.405.578 1.605 1.305 2.948 1.305 2.948s1.109-2.041 1.676-4.103c.567 2.569 1.667 5.103 1.667 5.103s1.102-2.534 1.67-5.103c.567 2.062 1.674 4.103 1.674 4.103s2-3.679 2-6.147c0-.967-.611-1.549-1.355-1.758 6.752-5.18 8.565-13.331 9.002-18.447 3.143-3.049 5.107-7.308 5.107-12.023 0-9.244-7.521-16.765-16.766-16.765m-10.974 4.431c1.039-2.07 2.428-3.604 2.428-3.604s-.289 1.827-1.324 3.896c-1.037 2.069-2.426 3.604-2.426 3.604s.287-1.827 1.322-3.896m-2.26-6.416c0 0 .469 2.52.469 5.625s-.469 5.625-.469 5.625-.469-2.52-.469-5.625.469-5.625.469-5.625m-9.082 41.079l1.549-1.752 1.55 1.752 1.549 1.752-1.549 1.752-1.55 1.753-1.549-1.753-1.55-1.752 1.55-1.752m-2.217.997l-1.55-1.752-1.549-1.752 2.774-3.14c.195-.019.385-.053.578-.078l2.845 3.218-1.55 1.752-1.548 1.752m4.434-3.504l3.098-3.505 3.1 3.505-1.55 1.752-1.55 1.752-1.549-1.752-1.549-1.752m1.549 6.767l1.549-1.753 1.55 1.753 1.55 1.752-3.1 3.505-3.098-3.505 1.549-1.752m3.766-.756l-1.55-1.752 1.55-1.752 1.55-1.752 1.549 1.752 1.55 1.752-1.55 1.752-1.549 1.753-1.55-1.753m2.217-6.011l3.099-3.505 3.098 3.505-1.549 1.752-1.549 1.752-1.549-1.752-1.55-1.752m1.55 6.767l1.549-1.753 1.549 1.753 1.549 1.752-3.098 3.505-3.099-3.505 1.55-1.752m3.765-.756l-1.549-1.752 1.549-1.752 1.549-1.752 1.55 1.752 1.55 1.752-1.55 1.752-1.55 1.753-1.549-1.753m3.766-4.259l-1.549-1.752 2.845-3.218c.192.025.382.06.577.078l2.775 3.14-1.549 1.752-1.55 1.752-1.549-1.752m-2.217-2.507l-3.766-4.26-3.765 4.26-3.768-4.26-3.766 4.26-2.336-2.643c2.334-.477 4.48-1.454 6.348-2.799.701 1.36 1.667 2.588 2.887 3.589l.635.521.634-.521c1.22-1.001 2.187-2.229 2.887-3.589 1.867 1.345 4.014 2.32 6.348 2.799l-2.338 2.643m-7.531-3.968c-1.781-1.753-2.789-4.137-2.789-6.661s1.008-4.908 2.789-6.661c1.781 1.753 2.787 4.137 2.787 6.661s-1.006 4.908-2.787 6.661m-2.262-27.433c1.035 2.069 1.324 3.896 1.324 3.896s-1.389-1.534-2.428-3.604c-1.035-2.069-1.322-3.896-1.322-3.896s1.389 1.534 2.426 3.604m-23.988 12.334c0-7.247 5.878-13.125 13.125-13.125 6.968 0 12.654 5.438 13.083 12.299l-.593.486c-2.64 2.166-4.154 5.365-4.154 8.777 0 .536.051 1.064.124 1.587-2.284 1.932-5.235 3.101-8.46 3.101-7.247 0-13.125-5.878-13.125-13.125m11.335 16.68c.553.056 1.112.085 1.68.085.072 0 .143-.01.216-.011l-1.926 2.178c-.011-.721-.001-1.472.03-2.252m.038 4.11l1.361 1.539 1.549 1.752-1.549 1.752-.557.63c-.353-1.573-.665-3.463-.804-5.673m2.181 8.792c-.259-.243-.512-.494-.76-.751-.107-.366-.218-.761-.328-1.184l.936-1.059 1.55-1.753 1.549 1.753 1.55 1.752-1.967 2.225c-.491-1.072-1.627-1.401-2.53-.983m19.255 2.646c0 .396.057.826.143 1.265-2.1.864-4.354 1.34-6.701 1.34s-4.602-.476-6.702-1.34c.087-.438.142-.868.142-1.265 0-1.289-1.085-1.886-2.125-1.828l1.152-1.304 3.766 4.26 3.766-4.26 3.766 4.26 3.766-4.26 1.153 1.304c-1.04-.058-2.126.538-2.126 1.828m6.896-3.397c-.248.257-.502.508-.76.751-.902-.418-2.039-.089-2.529.983l-1.967-2.225 1.549-1.752 1.55-1.753 1.55 1.753.936 1.059c-.111.424-.221.818-.329 1.184m.617-2.368l-.558-.63-1.55-1.752 1.55-1.752 1.361-1.539c-.138 2.21-.449 4.1-.803 5.673m-1.054-9.709c.074.001.145.011.217.011.567 0 1.127-.029 1.68-.085.031.78.041 1.531.03 2.253l-1.927-2.179m.107-3.629c-3.227 0-6.176-1.169-8.461-3.101.073-.522.123-1.051.123-1.587 0-3.412-1.514-6.611-4.153-8.777l-.593-.486c.429-6.861 6.115-12.299 13.084-12.299 7.246 0 13.125 5.878 13.125 13.125s-5.879 13.125-13.125 13.125"/></svg>