<svg xmlns="http://www.w3.org/2000/svg" viewBox="0 0 64 64" enable-background="new 0 0 64 64"><path d="m40.504 23.025c-1.332 0-2.404 1.338-2.404 2.998 0 1.664 1.072 3.002 2.404 3.002 1.324 0 2.396-1.338 2.396-3.002 0-1.66-1.072-2.998-2.396-2.998"/><path d="m23.497 23.025c-1.323 0-2.397 1.337-2.397 2.998 0 1.664 1.074 3.002 2.397 3.002 1.331 0 2.403-1.338 2.403-3.002 0-1.661-1.072-2.998-2.403-2.998"/><path d="m62 14.793c-1.41-.063-2.295-.626-3.021-1.491-.143-2.924-1.181-5.745-2.689-6.97-.847-.688-2.041-1.036-3.549-1.036-.121 0-.246.009-.369.013-4.245-2.274-8.68-.098-8.68-.098.29-1.553-.44-2.385.109-3.211-8.231 0-11.797 3.462-11.801 3.465-.002-.003-3.568-3.465-11.799-3.465.549.826-.182 1.658.109 3.211 0 0-4.435-2.177-8.68.098-.123-.004-.249-.013-.371-.013-1.507 0-2.701.349-3.548 1.036-1.509 1.225-2.547 4.046-2.69 6.97-.725.865-1.611 1.428-3.021 1.491 0 0 .124 3.829 3.991 6.383 0 0-4.056 3.867-3.375 12.084 0 0 1.636-1.996 5.462-2.748-4.506 3.78-1.878 9.375-5.214 13.238 0 0 4.59 1.008 6.451-.337-.729 5.923 2.873 8.233 2.873 11.132 4.087-1.344 4.659-5.377 4.659-5.377 0 7.468 2.584 7.203 2.584 11.173 0 0 4.533-.714 6.395-4.452.74 3.525 4.25 3.906 6.174 6.111.002 0 .002 0 .002 0 1.924-2.205 5.434-2.586 6.174-6.111 1.861 3.738 6.395 4.452 6.395 4.452 0-3.97 2.584-3.705 2.584-11.173 0 0 .572 4.033 4.658 5.377 0-2.898 3.602-5.209 2.873-11.132 1.861 1.345 6.451.337 6.451.337-3.336-3.863-.707-9.458-5.213-13.238 3.826.752 5.461 2.748 5.461 2.748.682-8.217-3.375-12.084-3.375-12.084 3.867-2.554 3.99-6.383 3.99-6.383m-51.491-3.483c-1.352 1.101-2.155 5.724.625 7.715-.329.593-.647 1.211-.953 1.855-2.183-1.488-2.902-3.831-3.107-5.633-.364-3.187.688-6.379 1.899-7.362.474-.385 1.265-.589 2.287-.589 2.709 0 6.188 1.404 8.303 3.237-1.08.502-2.1 1.155-3.07 1.927-1.853-1.392-4.822-2.092-5.984-1.15m25.336 41.794c.093-1.29-.261-2.348-.261-2.348-.316 1.918-1.172 3.289-1.172 3.289.037-1.645-.801-2.35-.801-2.35-.781 2.23-1.598 3.096-1.598 3.096s-.815-.865-1.597-3.096c0 0-.837.705-.8 2.35 0 0-.856-1.371-1.172-3.289 0 0-.354 1.058-.262 2.348 0 0-6.492-4.197-7.51-9.869 2.084 2.341 6.661 6.132 11.33 1.223 4.688 4.928 9.283 1.088 11.355-1.25-.999 5.686-7.512 9.896-7.512 9.896m-5.517-18.37c-.504-.68-1.025-1.382-1.622-1.822-.309-.229-.575-.42-.81-.584.935-.388 2.84-1.053 4.116-1.053 1.274 0 3.272.586 4.284.923-.277.191-.602.421-.998.714-.598.441-1.113 1.146-1.611 1.828-.561.766-1.195 1.634-1.67 1.634h-.002c-.474-.003-1.119-.873-1.687-1.64m13.668 7.191l-.021.067-.039.059c-.021.032-.16.232-.392.515-1.942 1.406-6.552 3.867-10.544.14v-5.869l3.82-1.615c.582-.268 1.059-.996 1.059-1.614l-.004-1.728c0 0-2.06-1.604-5.862-1.604s-5.874 1.604-5.874 1.604l-.01 1.727c0 .618.478 1.347 1.059 1.614l3.812 1.612v5.879c-3.959 3.689-8.522 1.297-10.488-.113-.248-.301-.396-.514-.419-.548l-.039-.059-.021-.067c-.183-.57-.398-1.702-.233-2.81.162-1.076.678-2.085.948-2.567.347-.62 5.38-4.659 5.392-4.668 1.627-2.867 1.826-3.148 3.228-3.761.591-.257 1.614-.386 2.638-.386s2.045.129 2.637.386c1.401.612 1.606.893 3.234 3.76 0 0 5.059 4.048 5.406 4.669.27.482.787 1.493.947 2.567.165 1.108-.051 2.239-.234 2.81m4.936-13.273c-.462 2.172-3.547 4.354-4.745 7.486-.012-.023-.021-.057-.032-.079-.291-.519-2.146-2.157-5.519-4.87-1.565-2.751-1.913-3.252-3.595-3.986-.974-.425-2.449-.47-3.037-.47-.59 0-2.064.045-3.037.469-1.689.738-2.033 1.239-3.612 4.018-3.348 2.695-5.191 4.323-5.48 4.84-.013.022-.021.058-.033.082-1.204-3.133-4.311-5.316-4.771-7.489-.47-2.214 1.551-7.256 3.454-8.321.341-.189 1.545 0 1.545 0 .356-.476 2.285-6.041 7.318-6.959 2.988-.546 4.625 2.008 4.625 2.008s1.615-2.554 4.604-2.008c5.031.918 6.961 6.483 7.318 6.959 0 0 1.203-.189 1.545 0 1.901 1.064 3.922 6.106 3.452 8.32m7.996-13.404c-.205 1.802-.924 4.144-3.107 5.632-.307-.645-.624-1.263-.953-1.855 2.781-1.991 1.977-6.614.625-7.715-1.162-.941-4.131-.241-5.982 1.15-.971-.771-1.99-1.425-3.07-1.927 2.113-1.833 5.592-3.237 8.301-3.237 1.023 0 1.814.204 2.289.589 1.209.983 2.262 4.177 1.897 7.363"/></svg>