<svg xmlns="http://www.w3.org/2000/svg" viewBox="0 0 64 64" enable-background="new 0 0 64 64"><path d="m58.144 39.624c.028-.057.058-.107.087-.165-.001 0-.033.061-.087.165"/><path d="m26.201 55.421c0 0 1.114-2.112 2.509-1.825 1.536.316 4.281-.672 3.056-1.973-4.383-4.65-5.565 3.798-5.565 3.798"/><path d="m40.991 20.431c-2.132 2.543-1.372 3.597-5.807 5.719 0 0 2.829.184 5.005-1.727 3.058-2.677 4.633-4.171 8.183-2.701 0 0-4.232-5.05-7.381-1.291"/><path d="m49.685 26.15c0 0-2.76-3.965-6.548-.646-6.176 5.412-8.154 4.461-8.154 4.461s1.472 1.151 3.458 1.232c.451 1.109 1.592 1.918 2.977 2.041-.736.793-1.395 1.821-1.892 3.17 0 0 3.444-4.15 9.422-5.549 0 0-1.728-.361-3.772.162.092-.276.156-.563.156-.865 0-.723-.375-1.592-.915-2.273 2.053-1.81 3.129-2.483 5.268-1.733"/><path d="m30.393 25.284c0 0 1.013 6.992-7.848 7.543 0 0 2.065 6.366-2.275 9.607 0 0 6.536-2.914 5.044-8.154-.001 0 8.94-1.085 5.079-8.996"/><path d="m57.727 7.501c0 0-2.254 3.121-6.121 4.008-5.301 1.215-5.727 5.813-5.727 5.813s.744-1.276 4.412-2.116c5.55-1.272 7.436-7.705 7.436-7.705"/><path d="m33.178 51.04c0 0-.727-3.146-1.644-3.468-1.209-.424-4.62 2.189-4.62 2.189s3.39-.878 4.446-.517c.609.209 1.818 1.796 1.818 1.796"/><path d="m50.313 37.205c0 0 2.761-1.213 3.651-.912.792.268 2.054 2.601 2.054 2.601s-.736-3.671-1.799-4c-1.086-.338-3.906 2.311-3.906 2.311"/><path d="m54.378 16.119c-5.091 1.543-5.473 3.488-5.473 3.488 3.351-1.74 4.703-.76 8.188-1.816 9.287-2.816 2.539-15.791 2.539-15.791s-2.017 1.859-4.822 3.317c-.428-.458-1.148-.97-2.27-.97-.332 0-.697.045-1.1.151-8.768 2.311-17.666-.771-19.584 5.015-1.227-.25-2.656-.27-4.35.137-7.825 1.877-9.454-3.252-9.454-3.252-.581 7.87 4.674 12.127 9.681 13.445-.573.994-1.099 1.887-1.532 2.858-.061.135-.132.257-.194.389-2.261-1.134-5.37-1.928-7.053-1.928-.597 0-1.013.099-1.147.318-.67 1.085.663 6.166 2.273 8.616-.409.325-.819.642-1.232.949-2.314-1.915-5.191-1.096-6.347-2.042-4.508-3.693-8.043-11.327-9.022-11.327-.031 0-.059.008-.085.023-3.495 2.109-.029 18.46 6.092 24.749-1.354 1.954-2.167 2.067-.853 4.425 4.547 8.153-4.049 7.29 7.214 8.75 4.857.63 7.207 2.223 9.961 2.223 1.575 0 3.281-.521 5.666-2.04.629-.4 1.356-.744 2.139-1.051 1.357-.338 13.154-2.98 13.154 7.246h5.16c0-10.207 5.465-20.948 6.217-22.376-6.938 13.488-14.344 11.321-22.026 14.021 4.564-2.091 13.679-6.824 16.021-12.22 2.289-5.27.494-3.442-2.855.365-3.29 3.739-7.558 7.177-10.833 9.581-2.982.543-5.931 1.394-8.052 2.745-2.402 1.53-3.715 1.727-4.592 1.727-1.065 0-2.171-.343-3.57-.776-1.568-.486-3.519-1.091-6.133-1.43-1.433-.186-3.112-.403-4.157-.596.217-1.07.318-2.639-.511-4.875 1.142.142 2.759.361 3.468.539 2.307.582 8.932 3.246 8.932 3.246s-6.833-4.678-9.51-4.989c-.662-.077-2.108.353-3.102.687-.229-.55-.494-1.124-.844-1.752-.234-.422-.337-.666-.382-.794.09-.132.242-.326.37-.491.194-.25.419-.544.661-.886.417.202.949.296 1.551.296 2.325 0 5.624-1.324 6.761-2.568 1.539-1.676 2.871-5.6.809-8.894.486-.363.969-.739 1.452-1.133.148.034.306.054.476.054 2.498 0 7.014-3.503 6.626-5.907-.078-.483-.448-.958-.991-1.41.108-.212.216-.426.315-.65.359-.805.8-1.568 1.311-2.452 1.317-2.282 2.957-5.122 4.323-10.61.595-2.393 2.768-2.691 8.369-2.883 3.019-.104 6.439-.221 9.92-1.138.146-.039.271-.045.399-.058-.147.05-.294.104-.444.149-4.213 1.278-8.302 3.538-9.021 8.875 0 0 1.829-5.122 7.684-6.897 5.858-1.774 7.701-2.635 8.579-4.066 0 0 1.232 3.419-.147 7.025-.989 2.066-2.336 3.966-4.623 4.659m-36.513 23.986c-.677.74-3.37 1.918-5.286 1.918-.458 0-.649-.076-.659-.076v.001c-3.976-3.006-7.328-12.026-7.85-18.244-.072-.858-.083-1.57-.056-2.151.046.07.091.14.136.208 1.757 2.7 4.165 6.397 7.084 8.789.931.762 2.077.896 3.185 1.023 1.475.171 2.748.319 3.768 1.653 1.923 2.521.742 5.722-.322 6.879m7.831-12.675c-1.169 1.172-2.773 2-3.59 2.049-.916-.83-2.152-4.347-2.432-6.274 2.521.278 6.351 1.83 7.039 2.746-.05.207-.283.743-1.017 1.479m3.014-9.287c-2.666-.396-7.854-2.836-8.792-7.625 0 0 2.118 2.063 6.87.917 3.109-.75 4.713.021 4.713.021-.854 4.229-2.791 6.687-2.791 6.687"/></svg>