<svg xmlns="http://www.w3.org/2000/svg" viewBox="0 0 64 64" enable-background="new 0 0 64 64"><path d="m25.281 13.931c-.185.818-1.158 6.616.355 8.64 1.021 1.367 1.125 1.142.986.346-.139-.804.441-2.288.394-1.547-.046.743.136 1.301.366.592.229-.697.857-1.689.594-.673-.266 1.012-.261 2.575.273 2.591.529.008.793-.518.916-1.081 1.39-6.236-3.667-9.822-3.884-8.868"/><path d="m8.316 43.631c-.349-.463-1.015-.561-1.483-.222-.471.34-1.061 1.346-.71 1.808.349.463 1.502.207 1.975-.134.468-.339.568-.991.218-1.452"/><path d="m13.533 47.696c-1.49 1.412-3.383 2.314-5.464 2.961 1.093.016 2.202-.166 3.245-.564 1.045-.393 2.012-1.002 2.837-1.759 1.626-1.53 2.683-3.635 2.789-5.779-.387.999-.889 1.919-1.44 2.791-.566.862-1.217 1.66-1.967 2.35"/><path d="m7.01 41.928c.421-.159 2.478-.691 2.65 1.525 0 0 .117.993.377.008.258-.99-.358-3.545-3.054-1.858-.48.299-.394.486.027.325"/><path d="m61.941 46.573l-1.715-3.733c-.734-1.598-1.734-2.99-2.823-4.185l1.584.109c-.298-.732-.663-1.367-1.071-1.923l.407.044-1.456-2.419c-.468-.778-1.025-1.462-1.615-2.093l3.086-.479c-1.893-.638-3.545-1.283-4.962-1.889l3.291-.005 4.349-.007-3.568-2.535c-1.255-.892-2.643-1.639-4.075-2.272l5.085-1.72c-3.709-.231-7.062-.519-9.854-.793l7.049-1.403 6.347-1.264-6.305-1.468c-2.235-.521-4.492-.866-6.749-1.075l4.812-2.391c-8.064-.573-14.169.938-18.047 2.418-.141-.563-.291-1.105-.446-1.629 2.915-1.956 8.097-4.263 16.9-5.104-9.252-.993-14.849.45-18.005 1.932-1.587-3.969-3.266-6.105-3.266-6.105-.869 1.765-1.479 3.384-1.923 4.847-1.759-2.047-3.499-3.091-3.636-3.171l-1.801-1.054-.793 1.959c-.905 2.239-1.18 5.211-1.222 7.699l-19.519-14.864 16.697 22.822c-3.281 3.834-8.075 8.73-11.352 12.076-2.385 2.436-3.654 3.735-4.169 4.372-2.395 2.952 1.606 8.394 3.438 10.597l.465.559.714.086c.313.037 1.238.268 3.066 1.592.454.328 1.001.503 1.582.503 1.223 0 2.367-.723 3.816-1.638 1.308-.825 2.789-1.761 4.219-2.033 4.548-.872 7.913-2.152 10.06-3.82-.7 4.27-3.527 9.58-5.73 11.654l-3.433 3.23h11.518c3.527-12.834-.024-19.404-1.224-20.564-.042-1.089-.386-2.153-.966-3.025.691 1.705.679 3.639-.165 5.145-.849 1.514-2.371 2.56-3.993 3.308-1.631.759-3.404 1.263-5.192 1.679-2.651.617-4.394 1.689-5.126 2.267 0-.001.002-.001.002-.001-1.574.959-2.902 1.938-3.786 1.938-.198 0-.374-.049-.525-.159-.723-.523-2.491-1.754-3.91-1.924 0 0-5.102-6.136-3.421-8.207 1.31-1.62 10.405-10.423 15.669-16.621.822 2.641 4.151 4.717 7.511 6.189-1.133.889-3.609 2.41-6.713 1.761-1.111-.232-2.781-.54-3.678 1.362 0 0 .832-.627 1.584-.474 0 0-1.029 1.041-.256 2.66 0 0 .836-1.96 2.273-2.08 0 0-.982 1.425.273 2.725 0 0 .264-1.983 2.127-2.578 0 0-.261 1.04.648 2.282 0 0-.281-1.792.994-2.664 1.119-.766 2.348-1.228 3.121-2.832 3.823 1.626 7.566 2.469 7.566 2.469-9.814-5.138-12.314-15.355-12.334-15.439-.096-2.522-.043-6.616 1.059-9.341 0 0 4.197 2.464 5.839 7.472-.003.107-.019 1.271.564 2.555 0 0 6.194 16.725 18.96 21.45-9.238-8.985-10.036-15.108-13.748-19.639 6.723 3.367 17.577 14.635 17.714 40.286h4.73l-1.003-2.221c.312.137.622.262.931.358 0 0-.59-.685-1.489-2.145l.403.014 4.14.143-3.242-2.63c-.636-.516-1.284-1.446-1.901-2.552l2.661.78c-.352-.813-.725-1.616-1.1-2.405l1.962 1.288-1-3.426c.671-.49 2.125.236 2.125.236-.484-1.774-2.45-3.754-3.486-4.345-.193-.419-.389-.819-.588-1.198l1.456.772 3.584 1.904m-53.409-37.2l-2.044-2.794 2.525 1.923c-.16.289-.32.58-.481.871m2.463 3.366c.431-.583.861-1.164 1.292-1.745l3.406 2.593c-.779.795-1.558 1.589-2.336 2.382l-2.362-3.23m6.814 9.314l-2.182-2.981c1.204-.928 2.408-1.856 3.612-2.784l2.276 1.733c.008.699.029 1.33.057 1.867-1.254.721-2.509 1.443-3.763 2.165m18.386-2.328c-.02-.107-.037-.223-.059-.33 2.307-.432 5.107-.764 8.318-.764 3.27 0 6.953.342 10.936 1.269l-14.246 2.838c-1.764-1.351-3.462-2.32-4.949-3.013m7.268 4.986c-.422-.401-.845-.771-1.266-1.126 3.83.554 10.061 1.89 14.467 5.02l-9.747.016c-1.153-1.548-2.326-2.841-3.454-3.91m3.717 4.264c2.053.696 6.291 2.516 8.521 6.224l-5.176-.561c-1.044-2.181-2.181-4.056-3.345-5.663m10.195 27.637l-1.885-.065c-.041-.88-.099-1.734-.166-2.574.645 1.108 1.339 2.061 2.051 2.639m.234-7.112l-3.105-2.04c-.459-2.594-1.043-4.959-1.725-7.103 1.012 1.093 3.529 4.186 4.83 9.143m-4.918-9.406c-.572-1.766-1.208-3.381-1.889-4.861 2.145 1.204 6.227 3.939 8.185 8.2l-6.296-3.339"/></svg>