<svg xmlns="http://www.w3.org/2000/svg" viewBox="0 0 64 64" enable-background="new 0 0 64 64"><path d="m60.263 10.363c-.06.176-.128.341-.188.516-.615.635-1.785 1.631-3.122 1.631-.989 0-2.063-.562-3.05-2.226.009-.045.02-.086.028-.131.346-1.886-1.273-2.584-1.672-.408-.071.385-.157.757-.234 1.136-.669 1.025-1.882 2.373-3.638 2.373-.766 0-1.636-.271-2.606-.92.003-.04.009-.078.012-.118.135-1.92-1.544-2.398-1.7-.184-.012.168-.03.332-.043.499-.512 1.304-2.104 4.801-4.814 5.863-.02-.464-.061-.979-.141-1.563l-.637 1.126c-.416-1.443-.901-2.839-1.389-4.03v2.911c0 0-1.438-6.804-.549-12.398.945.363 2.24-.173 2.24-1.628 0-1.398-2.924-.569-2.924-.569s-.939 2.666-1.262 7.407c-.84-1.918-1.768-3.47-2.574-3.47-.824 0-1.777 1.626-2.633 3.606-.314-4.825-1.273-7.542-1.273-7.542s-2.924-.829-2.924.569c0 1.455 1.293 1.991 2.238 1.628.771 4.852-.205 10.607-.479 12.05l-.002-2.563c-.485 1.191-.971 2.587-1.386 4.029l-.636-1.125c-.08.584-.121 1.098-.141 1.563-2.702-1.058-4.293-4.535-4.811-5.85-.013-.172-.032-.339-.045-.512-.158-2.215-1.839-1.736-1.701.184.003.04.008.078.011.117-.972.65-1.843.921-2.608.921-1.756 0-2.968-1.348-3.637-2.373-.078-.379-.164-.751-.235-1.137-.402-2.177-2.016-1.478-1.67.408.008.044.019.084.027.128-.987 1.667-2.061 2.229-3.051 2.229-1.334 0-2.503-.993-3.119-1.628-.062-.175-.13-.342-.19-.519-.703-2.077-2.207-1.106-1.596.691 3.452 10.175 9.381 16.496 11.95 18.882-.002.842.66 1.621 1.563 2.146 0 0-2.734-3.64 6.668-2.774 1.225.112 2.286-.039 3.213-.331.17.236.351.456.558.637-.236.516-.388 1.05-.388 1.603 0 1.649.555 3.425 1.474 4.894-6.325 3.727-4.63 11.889-4.63 11.889 5.113-.965 7.233-5.404 8.115-8.906.432.141.879.221 1.338.221.46 0 .906-.08 1.337-.221.881 3.502 3 7.941 8.115 8.906 0 0 1.693-8.162-4.631-11.889.92-1.469 1.475-3.245 1.475-4.894 0-.554-.15-1.089-.389-1.604.207-.182.387-.4.557-.636.926.293 1.988.444 3.211.332 9.403-.865 6.671 2.774 6.671 2.774.902-.525 1.563-1.305 1.559-2.146 2.572-2.387 8.498-8.708 11.951-18.882.612-1.798-.89-2.769-1.593-.692m-45.655 17.828c-4.37-4.248-7.544-9.22-9.896-15.174.62.282 1.446.494 2.336.494 1.103 0 2.245-.331 3.399-1.603 1.519 6.836 4.196 12.17 6.375 15.645-.976.015-1.751.165-2.214.638m4.159-.574c-2.909-4.312-4.919-9.026-6.243-14.319.74.533 1.793.958 3.089.958.705 0 1.731-.13 2.731-.613.564 5.652 1.992 10.439 3.465 14.082-1.057.019-2.092-.048-3.042-.108m4.669.006c-1.525-3.671-2.539-7.527-3.113-11.667 1.029 1.403 2.477 2.882 3.815 3.659-.063 1.451.081 2.547.222 3.188-.568-.402-.811-.815-.811-.815.037 1.976.704 4.038 1.189 5.288.009.031.021.059.031.089-.439.112-.884.203-1.333.258m3.494-10.888l.053-.081c-.033.116-.053.185-.053.185v-.104m-2.797 28.429c0 0-.432-4.641 3.592-8.279.456.582.975 1.09 1.541 1.488-.46 1.725-1.742 4.971-5.133 6.791m5.967-9.101c-.627 0-1.131-.537-1.131-1.211 0-.404.184-.416.465-.363-.008.047-.025.09-.025.139 0 .422.309.768.688.768s.691-.346.691-.768c0-.049-.017-.092-.024-.137.282-.055.468-.043.468.361-.001.673-.509 1.211-1.132 1.211m1.477-2.584c-.104.096-.496.111-.588 0-.174-.211.064-.87.295-1.038.059-.038.24-.045.293 0 .201.182.197.86 0 1.038m-2.096-.913c-.926.711-2.338.129-1.336.129.369 0 .648-.122.896-.293-.163-.358-.45-1.305.317-2.535 0 0-.22 1.244.202 2.072.595-.679 1.103-1.567 2.44-1.567 1.338 0 1.845.888 2.441 1.565.424-.828.203-2.07.203-2.07.766 1.229.479 2.175.315 2.535.248.171.528.293.897.293 1 0-.412.583-1.338-.129-.541-.418-1.492-1.121-2.519-1.121-1.028 0-1.979.703-2.518 1.121m2.943.913c-.199-.178-.201-.856 0-1.038.051-.045.234-.038.291 0 .232.168.47.827.294 1.038-.089.111-.481.095-.585 0m1.476 2.584c-.625 0-1.132-.537-1.132-1.211 0-.404.187-.416.468-.361-.008.045-.025.088-.025.137 0 .422.311.768.689.768.381 0 .688-.346.688-.768 0-.049-.017-.092-.024-.137.284-.055.472-.045.472.361-.001.673-.511 1.211-1.136 1.211m5.965 9.101c-3.385-1.818-4.67-5.063-5.133-6.789.566-.398 1.085-.906 1.541-1.488 4.024 3.638 3.592 8.277 3.592 8.277m-4.099-22.156c0 .682-.336.949-.336.949-.332-1.129-1.637-1.979-1.637-1.979.297.606 0 1.215 0 1.215-.522-.735-1.793-1.599-1.793-1.599s-1.271.864-1.795 1.599c0 0-.295-.608 0-1.215 0 0-1.303.851-1.641 1.979 0 0-.332-.268-.332-.949l-1.305 1.572c.412-1.752 1.305-2.813 2.271-3.285 0 0-.299.764-.375 1.201 0 0 1.146-1.279 2.434-1.789 0 0-.336.637-.436 1.271l1.179-1.271 1.175 1.271c-.1-.634-.435-1.271-.435-1.271 1.289.51 2.433 1.789 2.433 1.789-.072-.438-.377-1.201-.377-1.201.969.473 1.865 1.533 2.271 3.285l-1.301-1.572m4.795 4.615c-.447-.055-.891-.146-1.33-.258.01-.032.023-.061.032-.092.484-1.25 1.149-3.31 1.185-5.286 0 0-.24.413-.807.813.141-.641.284-1.734.221-3.186 1.34-.778 2.789-2.26 3.819-3.664-.576 4.144-1.59 8-3.12 11.673m1.628.101c1.471-3.643 2.899-8.429 3.467-14.081 1 .482 2.025.612 2.73.612 1.297 0 2.35-.425 3.09-.959-1.322 5.293-3.332 10.007-6.241 14.32-.958.061-1.989.128-3.046.108m7.203.467c-.463-.473-1.238-.623-2.213-.639 2.182-3.474 4.856-8.808 6.376-15.643 1.153 1.271 2.295 1.602 3.397 1.602.891 0 1.718-.212 2.337-.495-2.352 5.955-5.527 10.927-9.897 15.175"/></svg>