<svg xmlns="http://www.w3.org/2000/svg" viewBox="0 0 64 64" enable-background="new 0 0 64 64"><path d="m54.861 37.949c7.727-7.318 7.423-14.215 6.916-16.887-.627-3.305-2.471-5.883-4.969-6.984-.98-3.998-5.776-5.279-5.986-5.336l-1.699-.436.9 1.512c.026.047 2.719 4.648 1.616 9.127l-.372 1.51 1.391-.684c1.132-.559 2.089-1.396 2.404-1.691.291-.063.852.252 1.248.838.236.35.918 1.568-.246 2.598-.896.795-3.502-.066-6.26-.979-2.507-.828-5.318-1.758-8.159-2 1.118-5.662 2.968-11.193 2.987-11.252l.432-1.285-1.304.354c-10.748 2.908-16.072 10.324-18.347 14.671-12.95 4.301-23.413 13.043-23.413 16.53 0 3.717 8.61 10.752 13.161 10.752.45 0 .864-.066 1.231-.197 1.249-.443 2.482-1.01 3.691-1.646-1.313 3.695-1.869 6.92-1.886 7.025l-.062.02 1.287.822c1.505.961 3.426 1.449 5.71 1.449.001 0 .001 0 .001 0 6.426-.002 15.037-3.881 21.553-9.678 7.561 2.127 13.187 9.67 13.243 9.746l1.583 2.152-.283-2.66c-.057-.535-1.4-12.68-6.368-17.391m-34.563 10.815l3.109 2.801-.095-.973c-.133-1.236-.281-2.859-.281-2.859l3.033 2.607c-1.589.826-3.359 1.588-5.311 2.283-.073-.586-.313-2.531-.455-3.859m1.058-1.43l-.979-1.031c.306-.164.612-.324.914-.5-.021.049-.045.102-.065.152l.13 1.379m1.461-2.459c.377-.24.747-.49 1.115-.74l.36 1.959-1.475-1.219m9.966-8.186c.52-.521.988-1.006 1.415-1.455l.536 3.502-1.951-2.047m2.922 3.672c-.115.369-.244.742-.406 1.119-.209.492-.459.971-.733 1.441l-1.304-3.662 2.443 1.102m-1.514 3.17c-.543.83-1.186 1.629-1.933 2.391l-1.172-3.889 3.105 1.498m-3.561-4.777c.44-.404.866-.805 1.267-1.193l.469 2.572-1.736-1.379m1.104 7.684c-.696.656-1.476 1.285-2.329 1.887l-.708-3.791 3.037 1.904m-3.632-5.465c.43-.357.848-.717 1.254-1.072l.52 2.711-1.774-1.639m.881 7.646c-.756.51-1.565 1.002-2.437 1.471l-.57-3.773 3.007 2.302m-3.576-5.531c.413-.305.817-.611 1.215-.924l.346 2.385-1.561-1.461m-.274 11.24c0 0 0 0 0 0-1.287 0-2.432-.17-3.422-.506 7.805-2.863 12.822-6.828 14.928-11.801 2.319-5.475.173-10.078.08-10.271l-.488-1.02-.719.871c-.096.115-9.653 11.602-19.603 15.141-.211.076-.464.113-.749.113-3.782 0-11.224-6.256-11.693-9.039.879-.436 4.326-1.135 8.833-1.135 2.574 0 6.354.24 9.743 1.383.742.252 1.475.377 2.176.377 3.997 0 6.407-3.994 8.344-7.205 1.201-1.99 2.443-4.049 3.515-4.049.088 0 .174.012.266.037 1.398.398 1.846 2.928 2.363 5.857.781 4.412 1.74 9.834 6.502 12.395-6.126 5.247-14.242 8.85-20.076 8.852m21.639-9.717c-4.911-2.002-5.832-7.197-6.643-11.783-.603-3.41-1.124-6.354-3.393-6.998-.218-.063-.439-.094-.659-.094-1.887 0-3.214 2.201-4.75 4.748-1.841 3.051-3.926 6.506-7.108 6.506-.545 0-1.122-.102-1.715-.301-3.576-1.205-7.522-1.457-10.204-1.457-.074 0-5.302.051-8.281.891 2.265-3.482 11.058-10.203 22.122-13.811l.284-.092.136-.268c1.998-3.918 6.72-10.766 16.283-13.818-.637 2.047-1.854 6.199-2.662 10.383-7.675.246-11.974 2.99-11.972 2.992 0 0 5.634-1.479 12.466-1.576l.08.004c2.918.102 5.936 1.1 8.598 1.979 3.436 1.135 6.147 2.031 7.666.689 1.527-1.352 1.345-3.236.485-4.504-.85-1.254-2.183-1.797-3.167-1.289l-.174.127c-.006.004-.345.334-.854.719.234-2.719-.541-5.252-1.205-6.854 1.322.674 3.016 1.908 3.363 3.924l.07.412.391.145c2.178.811 3.875 3.129 4.428 6.049.466 2.453.706 8.84-6.686 15.729-1.436-.143-3.658.314-3.658.314 1.146 0 2.168.375 3.089.99l.231.178c3.648 2.797 5.4 10.438 6.089 14.438-2.332-2.577-6.922-6.874-12.65-8.372"/><path d="m21.444 26.131c-2.916 2.234-2.727 4.498-5.293 5.191 0 0 3.303.678 5.326-1.777.307 1.441 1.578 2.52 3.103 2.52 1.754 0 3.177-1.428 3.177-3.189 0-1.373-.87-2.535-2.084-2.984 1.316-.396 2.821-.477 4.54-.566-.001-.002-5.851-1.431-8.769.805"/><path d="m44.67 21.852c1.244 1.195.372 3.248.105 4.273-.262 1.012-1.58 1.863-1.58 1.863 1.037-.207 1.908-.215 2.553-2.703.645-2.482-1.078-3.433-1.078-3.433"/><path d="m46.83 22.783c1.139 1.309.101 3.271-.25 4.26-.348.986-1.734 1.709-1.734 1.709 1.051-.107 1.918-.031 2.769-2.447.856-2.412-.785-3.522-.785-3.522"/><path d="m48.746 23.492c1.174 1.277.18 3.271-.143 4.27-.32.996-1.682 1.758-1.682 1.758 1.043-.137 1.915-.088 2.701-2.527.79-2.438-.876-3.501-.876-3.501"/><path d="m15.142 38.447c.924.309.542 1.242 1.626 1.242 1.086 0 1.806-.83 1.215-1.256-1.338-.958-2.841.014-2.841.014"/></svg>