<svg xmlns="http://www.w3.org/2000/svg" viewBox="0 0 64 64" enable-background="new 0 0 64 64"><path d="m56.584 10.291c-9.894 0-17.97 8.012-21.194 11.741-.255-.573-.625-1.065-1.091-1.438.324-.832.667-1.783.95-2.876.114-.405.18-.845.273-1.281.067-.446.11-.913.151-1.385-.01-.482.027-.966-.029-1.471-.048-.505-.137-.976-.225-1.457-.356-1.894-.871-3.834-.85-5.747.02-.94.192-1.88.777-2.49.566-.626 1.506-.958 2.419-1.054.925-.092 1.876.001 2.709.318.836.305 1.566.818 1.924 1.547.779 1.454.42 3.217-.424 4.172-.422.491-.978.762-1.497.833-.52.03-.988-.054-1.326-.222-.358-.134-.598-.313-.766-.424s-.255-.171-.255-.171.086.065.247.187.391.314.747.471c.335.189.811.31 1.368.309.557-.043 1.182-.304 1.67-.812.969-.99 1.492-2.846.706-4.574-.377-.884-1.22-1.549-2.139-1.936-.926-.407-1.968-.571-3.029-.522-.531.03-1.072.115-1.598.306-.527.172-1.046.467-1.472.883-.89.854-1.139 2.069-1.218 3.122-.131 2.161.317 4.179.569 6.038.062.46.123.917.142 1.335.03.416-.027.842-.033 1.248-.057.409-.111.811-.188 1.202-.103.388-.17.768-.291 1.132-.287.945-.627 1.798-.954 2.569-.214-.038-.433-.066-.658-.066s-.444.028-.658.066c-.327-.771-.667-1.624-.954-2.569-.121-.364-.188-.744-.291-1.132-.076-.391-.131-.792-.188-1.202-.006-.406-.063-.832-.033-1.248.019-.418.08-.875.142-1.335.252-1.859.7-3.877.569-6.038-.079-1.053-.328-2.267-1.218-3.122-.426-.416-.944-.711-1.472-.883-.525-.19-1.066-.275-1.598-.306-1.062-.049-2.104.115-3.029.522-.919.387-1.762 1.052-2.139 1.936-.786 1.728-.263 3.584.706 4.574.488.508 1.113.769 1.67.812.558.001 1.033-.119 1.368-.309.356-.156.586-.35.747-.471s.247-.187.247-.187-.089.06-.257.171-.407.29-.766.424c-.338.168-.807.252-1.326.222-.52-.071-1.075-.342-1.497-.833-.844-.956-1.203-2.718-.424-4.172.357-.729 1.088-1.243 1.924-1.547.833-.317 1.784-.41 2.709-.318.913.096 1.853.428 2.419 1.054.585.61.758 1.549.777 2.49.021 1.913-.493 3.853-.85 5.747-.088.481-.177.952-.225 1.457-.057.505-.02.988-.029 1.471.041.472.084.939.151 1.385.094.437.159.876.273 1.281.283 1.094.626 2.044.95 2.876-.466.373-.836.865-1.091 1.438-3.22-3.73-11.296-11.741-21.19-11.741-9.482 0-4.317 10.808-.959 18.013 3.357 7.206-1.566 12.797 1.482 15.53 3.083 2.762 9.208-1.378 15.073-3.215-1.805.666-4.043 1.716-6.815 3.313-12.731 7.338-3.958 9.245-.879 14.02 3.05 4.735 15.419 8.745 16.585-8.886.032.003.064.013.097.013s.064-.01.097-.013c1.166 17.631 13.535 13.621 16.585 8.886 3.079-4.774 11.853-6.682-.879-14.02-2.772-1.598-5.011-2.647-6.815-3.313 5.865 1.837 11.99 5.977 15.073 3.215 3.049-2.733-1.875-8.324 1.482-15.53 3.358-7.205 8.523-18.013-.959-18.013m-49.072 6.824c-.754-.035-1.332-.627-1.291-1.319.039-.697.681-1.228 1.435-1.192.752.035 1.33.627 1.29 1.32-.04.694-.682 1.225-1.434 1.191m3.619 1.715c1.085.051 1.92.904 1.863 1.906-.058 1.002-.985 1.772-2.071 1.721-1.089-.053-1.923-.909-1.865-1.912.056-.998.984-1.768 2.073-1.715m-2.068 7.164c.035-.649.639-1.149 1.343-1.113.705.031 1.245.587 1.209 1.232-.037.65-.639 1.15-1.344 1.115-.704-.034-1.246-.587-1.208-1.234m3.02 12.74c-.754.026-1.387-.516-1.412-1.21-.027-.694.563-1.276 1.316-1.302.754-.025 1.385.519 1.412 1.21.025.697-.563 1.281-1.316 1.302m.379-5.232c-1.257.042-2.308-.863-2.353-2.019-.042-1.152.94-2.127 2.193-2.168 1.257-.037 2.309.865 2.352 2.019.043 1.16-.938 2.128-2.192 2.168m4.773-2.646c-2.22-2.189-5.642-3.854-1.736-7.703 3.479-3.429-9.182-9.412-1.735-9.412 4.799 0 10.767 5.464 14.538 9.518-.018.157-.052.307-.052.472 0 1.185.45 1.312 1.167 1.159-.186.355-.334.777-.465 1.229-2.854-2.052-7.039-4.412-11.237-4.43 0 0 5.352.473 11.036 5.193-.133.625-.225 1.332-.296 2.08-3.237-.86-7.633-1.467-11.455-.03 0 0 4.953-1.399 11.388.777-.06.841-.094 1.743-.111 2.69-3.324.39-7.736 1.458-10.99 4.292 0 0 4.283-3.189 10.979-3.551-.012.967-.015 1.969-.015 3.009 0 .437.014.86.026 1.285-.602-.013-1.391.1-2.547.449-18.763 5.665-5.72-4.291-8.495-7.027m-3.844 20.848c-.596 0-1.078-.423-1.078-.946 0-.524.482-.95 1.078-.95.597 0 1.079.426 1.079.95 0 .523-.483.946-1.079.946m3.869 5.391c-1.219 0-2.208-.868-2.208-1.94 0-1.073.989-1.941 2.208-1.941 1.221 0 2.209.868 2.209 1.941 0 1.072-.989 1.94-2.209 1.94m4.478 3.189c-.75 0-1.36-.535-1.36-1.194 0-.661.61-1.196 1.36-1.196.751 0 1.36.535 1.36 1.196.001.659-.609 1.194-1.36 1.194m-.876-5.795c-.94-3.081-4.963-1.702-4.963-6.277 0-3.813 8.568-6.85 12.545-8.054.09.933.202 1.828.347 2.655-3.598 1.345-7.631 3.327-10.385 6.123 0 0 3.694-3.257 10.485-5.557.238 1.222.539 2.282.883 3.158-2.323 1.931-4.526 4.253-5.77 6.849 0 0 1.765-3.02 5.977-6.354.405.896.864 1.528 1.356 1.834-2.274 11.758-9.68 8.229-10.475 5.623m21.4 5.795c-.751 0-1.36-.535-1.36-1.194 0-.661.609-1.196 1.36-1.196.75 0 1.36.535 1.36 1.196 0 .659-.61 1.194-1.36 1.194m8.347-10.476c.596 0 1.078.426 1.078.95 0 .523-.482.946-1.078.946-.597 0-1.079-.423-1.079-.946 0-.525.483-.95 1.079-.95m-1.661 5.346c0 1.072-.989 1.94-2.208 1.94-1.221 0-2.209-.868-2.209-1.94 0-1.073.988-1.941 2.209-1.941 1.219 0 2.208.868 2.208 1.941m-.847-6.942c0 4.575-4.022 3.196-4.963 6.277-.795 2.605-8.201 6.135-10.476-5.622.492-.306.951-.938 1.356-1.834 4.212 3.334 5.977 6.354 5.977 6.354-1.243-2.596-3.446-4.918-5.77-6.849.344-.876.645-1.937.883-3.158 6.791 2.3 10.485 5.557 10.485 5.557-2.754-2.796-6.787-4.778-10.385-6.123.145-.827.257-1.723.347-2.655 3.977 1.203 12.546 4.239 12.546 8.053m-9.83-10.328c-1.156-.35-1.945-.462-2.547-.449.013-.425.026-.849.026-1.285 0-1.04-.003-2.042-.015-3.009 6.695.361 10.979 3.551 10.979 3.551-3.254-2.834-7.666-3.902-10.99-4.292-.018-.947-.052-1.849-.111-2.69 6.434-2.177 11.387-.777 11.387-.777-3.822-1.437-8.218-.83-11.455.03-.071-.748-.163-1.455-.296-2.08 5.685-4.721 11.036-5.193 11.036-5.193-4.198.019-8.384 2.378-11.237 4.43-.131-.452-.279-.874-.465-1.229.717.152 1.167.025 1.167-1.159 0-.165-.034-.314-.052-.472 3.771-4.054 9.738-9.518 14.538-9.518 7.446 0-5.214 5.982-1.735 9.412 3.905 3.849.483 5.514-1.736 7.703-2.775 2.735 10.268 12.691-8.494 7.027m13.646.85c-.753-.021-1.341-.605-1.316-1.302.027-.691.658-1.235 1.412-1.21.753.025 1.344.607 1.316 1.302-.025.695-.658 1.237-1.412 1.21m-.379-5.232c-1.254-.04-2.235-1.008-2.192-2.168.043-1.154 1.095-2.056 2.352-2.019 1.253.041 2.235 1.016 2.193 2.168-.045 1.156-1.096 2.061-2.353 2.019m2.191-6.274c-.705.035-1.307-.465-1.344-1.115-.036-.646.504-1.201 1.209-1.232.704-.036 1.308.464 1.343 1.113.038.647-.504 1.2-1.208 1.234m-.652-4.772c-1.086.052-2.014-.719-2.071-1.721-.057-1.002.778-1.855 1.863-1.906 1.089-.053 2.017.717 2.073 1.715.058 1.004-.776 1.86-1.865 1.912m3.411-5.341c-.752.034-1.395-.497-1.434-1.191-.04-.693.538-1.285 1.29-1.32.754-.036 1.396.495 1.435 1.192.041.692-.537 1.284-1.291 1.319"/></svg>