<svg xmlns="http://www.w3.org/2000/svg" viewBox="0 0 64 64" enable-background="new 0 0 64 64"><path d="m59.723 23.921h-3.061l2.652-1.577c1.087-.649 1.463-2.082.833-3.202l-3.562-6.35c-.627-1.124-2.021-1.509-3.108-.858l-2.65 1.575 1.529-2.729c.628-1.121.256-2.557-.833-3.204l-6.166-3.665c-1.09-.649-2.482-.264-3.109.858l-1.531 2.731v-3.152c-.002-1.298-1.022-2.348-2.28-2.348h-7.117c-1.258 0-2.278 1.05-2.278 2.346v3.152l-1.531-2.729c-.628-1.122-2.022-1.507-3.111-.858l-5.046 3c-.443-.799-.866-1.171-1.118-1.387-1.205-1.035-2.562-1.583-3.923-1.583-2.568 0-4.996 1.83-7.216 5.438-.188.304-.323.599-.433.888l-.305.121c-4.5 1.779-4.364 7.543-4.356 7.788l.06 1.816 1.416-1.036c.687-.503 1.947-1.218 2.599-1.234.354 0 .674.19.93.342.124.074.245.144.375.196-.231.674-.634 1.448-1.289 2.378l-.201.282c-1.258 1.752-3.16 4.4-1.605 6.135.149.167.38.345.687.468-3.186 9.489 4.493 17.75 11.894 21.547-.372.109-.755.17-1.157.17-.945 0-1.891-.279-2.892-.574-1.055-.313-2.145-.635-3.294-.635-.85 0-1.631.176-2.39.535-.144.068-.246.205-.273.366-.027.16.024.324.137.438.109.11 2.727 2.713 6.727 2.953 1.477.088 1.508.592 1.575 1.693.074 1.208.176 2.863 2.597 3.967.196.089.345.129.483.129.199 0 .371-.086.485-.239.222-.3.129-.648-.04-1.281-.321-1.203-.922-3.485.215-6.531.463.185.922.354 1.371.499-.007.038-.019.076-.019.117 0 1.873 2.044 4.43 4.273 5.317-.821 1.37-2.121 1.978-3.779 2.747-1.218.567-2.6 1.209-4.02 2.295-.151.115-.224.313-.184.502.039.189.183.339.367.381.035.008.378.081 1.055.081 1.035 0 2.821-.171 5.458-.983.854-.264 1.554-.126 2.587.125 1.008.244 2.389.579 4.593.579.402 0 .66-.139.765-.413.179-.471-.177-.813-.958-1.559-.85-.814-2.163-2.082-3.056-3.777.966-.479 1.902-1.418 2.669-2.494 2.315.994 4.515 1.539 6.214 1.539 2.925 0 3.691-1.496 3.984-3.279l1.883 3.357c.629 1.121 2.021 1.507 3.109.855l6.166-3.662c1.089-.649 1.463-2.084.833-3.204l-1.531-2.731 2.652 1.577c1.089.647 2.483.265 3.109-.858l3.561-6.35c.628-1.121.256-2.557-.835-3.203l-2.646-1.574h3.059c1.258-.002 2.279-1.053 2.277-2.348v-7.332c.003-1.296-1.019-2.346-2.276-2.344m-53.626-7.192c-.015 0-.03 0-.044 0-1.233.031-3.112 1.411-3.112 1.411s-.152-4.981 3.447-6.68c-.103 1.204.313 2.245.656 3.081.358.874.686 1.686.565 2.738-.291-.159-.831-.55-1.512-.55m1.128 4.796c4.545-6.456-1.098-7.843 1.053-11.335 2.133-3.465 4.205-4.761 6.035-4.761 1.116 0 2.142.482 3.035 1.25 2.383 2.043 2.378 9.752 2.316 12.763-.061 3.008-4.448 1.604-5.86 2.313-1.705.853-2.274 6.923-4.046 6.923-.056 0-.112-.006-.17-.018-.961-.203-.688-4.074-.688-4.074s-2.144 1.599-3.176 1.599c-.175 0-.318-.045-.413-.152-.804-.898 1.214-3.516 1.914-4.508m10.671 35.329c.003.01.006.02.009.03-1.516-.835-1.581-1.899-1.645-2.931-.068-1.105-.152-2.482-2.48-2.62-2.566-.155-4.545-1.415-5.493-2.148 1.329-.368 2.854.016 4.265.433 1.021.301 2.078.613 3.158.613.845 0 1.618-.194 2.353-.583.029.013.058.024.088.038-1.26 3.373-.579 5.952-.255 7.168m12 3.622c.084.08.172.164.255.244-1.745-.051-2.862-.322-3.778-.544-1.109-.269-2.037-.433-3.084-.109-2.09.645-3.606.868-4.616.925.912-.557 1.798-.969 2.61-1.346 1.759-.816 3.348-1.57 4.325-3.387.199.032.396.055.592.055.117 0 .235-.029.354-.047.961 1.918 2.41 3.316 3.342 4.209"/><ellipse cx="5.124" cy="13.928" rx=".593" ry=".322"/><path d="m11.653 9.309c-2.76.422-2.418 2.826-2.418 2.826 3.263 1.291 2.418-2.826 2.418-2.826"/></svg>