<svg xmlns="http://www.w3.org/2000/svg" viewBox="0 0 64 64" enable-background="new 0 0 64 64"><path d="m36.532 24.117c8.79-.436 18.323-7.866 18.323-7.866l-5.197-1.033 10.342-6.585c0 0-12.077 2.253-17.963 1.715-.636-.787-1.468-1.393-2.443-1.73-.574-.196-1.163-.295-1.763-.295-1.971 0-3.749 1.073-4.706 2.743-1.683-.604-3.727-.818-5.849-.907-1.65-.058-3.372-.049-5.068-.162-.419-.04-.842-.066-1.265-.12l-1.266-.217c-.847-.16-1.681-.329-2.493-.529-1.619-.409-3.133-.958-4.437-1.645-.321-.184-.634-.364-.931-.539-.302-.187-.56-.409-.832-.598-.534-.38-1.006-.809-1.423-1.189-.832-.773-1.399-1.552-1.498-2.191-.124-.649.19-.972.153-.969.04 0-.305.296-.221.978.058.675.591 1.52 1.383 2.362.404.418.842.868 1.367 1.298.27.217.52.466.818.67.303.204.609.413.928.628 1.301.795 2.833 1.462 4.47 1.986.82.258 1.659.484 2.513.702l1.283.301c.438.083.884.141 1.33.208 1.763.226 3.487.319 5.098.462 1.486.152 2.873.335 4.051.661-.253.231-.495.485-.721.777-2.656.426-6.668 1.407-8.902 3.583-.081.078-.157.16-.231.245-.251.06-.491.126-.731.191-.753-.349-1.517-.66-2.292-.892-.867-.291-1.755-.42-2.598-.592-.86-.079-1.691-.218-2.491-.205-.396-.008-.787-.012-1.163-.019-.378.023-.749.047-1.103.068-.711.02-1.368.148-1.972.219-1.2.199-2.169.407-2.827.61-.656.187-1.027.291-1.027.291s.371-.078 1.042-.224c.668-.157 1.646-.304 2.844-.426 2.379-.202 5.756-.176 9.038 1.063.408.148.806.316 1.202.502-2.011.669-3.561 1.522-4.62 2.554-.8.777-1.237 1.925-1.271 3.263-1.982 1.111-3.371 2.316-4.13 3.591-.383.646-.537 1.417-.464 2.249-1.438 1.335-2.958 3.1-3.481 4.941-.242.862-.126 1.816.321 2.739-1.081 1.807-1.641 3.419-1.656 4.803-.014.733.234 1.462.713 2.12-.162 1.869-.15 4.574.887 6.436.302.55.77.999 1.367 1.322.277 2.514 1.26 5.793 3.994 8.999l1.307 1.536 1.438-1.407c.563-.55 1.27-1.573 1.603-2.881.383.085.79.135 1.217.135.23 0 .459-.015.689-.043l1.536-.197.112-1.558c.013-.156.055-1.017-.179-2.275.654-.102 1.291-.338 1.899-.706l1.648-.997-1.018-1.648c-.096-.152-2.141-3.41-5.798-5.127-.098-.815-.327-1.676-.683-2.572.551-1.116.882-2.482.992-4.08.785-.76 1.454-1.77 2.016-2.984.99 1.322 2.431 2.726 4.449 3.594.251.105.578.252.881-.16.717.756 1.548 2.047 2.055 4.21.226.972.158 1.591.89 1.559.075-.003.132-.025.188-.051.286.637.63 1.647.751 3.07 0 0 .927-1.433.597-3.999.073.007.133.002.218.02 1.13.216-.975-4.101-3.895-6.3.347-.25.656-.171.416-.731-.445-1.036-3.421-1.1-5.722-3.143.867-.556 1.694-1.316 2.474-2.282.15 0 .309-.019.464-.028 1.253 1.327 3.226 2.888 5.922 3.442.269.052.621.13.832-.337.854.597 1.928 1.693 2.861 3.708.419.907.475 1.526 1.185 1.35.074-.019.124-.051.173-.086.408.565.948 1.487 1.354 2.855 0 0 .619-1.593-.221-4.04.071-.008.13-.024.217-.025 1.15-.017-1.779-3.819-5.081-5.384.285-.314.606-.299.26-.797-.531-.763-2.618-.53-4.824-1.285 1.185-.453 2.396-1.147 3.624-2.094 1.478 1.039 3.649 2.13 6.313 2.168.268.003.628.015.752-.483.949.429 2.207 1.306 3.498 3.113.579.811.748 1.406 1.414 1.104.068-.032.116-.075.154-.119.508.48 1.206 1.286 1.859 2.553 0 0 .313-1.68-.965-3.927.068-.021.121-.049.206-.065 1.127-.229-2.454-3.421-5.987-4.343.221-.361.537-.405.104-.83-.611-.603-2.369-.128-4.45-.31 1.779-.596 3.614-1.751 5.487-3.472.111.001.223.008.336.002m-2.501-11.651c.573-1.666 2.134-2.713 3.8-2.713.433 0 .871.069 1.301.218 2.095.726 3.213 3.014 2.489 5.113-.57 1.667-2.128 2.713-3.79 2.713-.436 0-.877-.071-1.311-.222-2.096-.721-3.21-3.009-2.489-5.109m-26.786 36.746c-.986-1.777-.714-4.938-.563-6.145-.006-.007-.015-.013-.019-.02.125.067 2.563 1.371 4.614.763.599 1.501 1.222 4.569-2.583 6.262-.662-.13-1.204-.421-1.449-.86m9.146.422c-.925.2-3.058-.215-3.058-.215 2.511 2.517 3.646 6.492 3.646 6.492-3.438-1.345-4.648-3.632-4.648-3.632.424 2.465.063 6.943.063 6.943-2.817-3.309-3.563-6.669-3.631-9.134-.014-.003-.028-.008-.041-.011.409.021 4.634.164 5.054-3.021 1.655 1.132 2.615 2.578 2.615 2.578m6.362-27.196c0 0 1.016 2.182 3.125 3.234-4.756 3.486-10.485-1.295-10.485-1.295.876 2.398 1.982 3.813 3.186 4.567-3.403 4.143-7.669.854-7.669.854 1.544 1.953 2.95 2.816 4.195 3.014-.773 2.135-2.82 5.947-7.192 3.966 0 0 2.118 1.572 4.364 1.391-.057 1.499-.688 5.216-5.62 4.873-.478-.433-.777-.939-.768-1.423.028-1.624 1.186-3.608 2.023-4.838-.624-.73-.942-1.559-.757-2.211.515-1.828 2.498-3.722 3.754-4.773-.273-.741-.301-1.461-.004-1.959.892-1.501 2.998-2.731 4.486-3.458-.219-1.24-.035-2.385.604-3.004 1.358-1.321 3.687-2.136 5.674-2.621.377.236.75.481 1.119.733.76.514 1.519 1.028 2.265 1.53.757.501 1.557.937 2.313 1.389.623.361 1.283.735 1.999 1.025-1.94.722-4.341.877-6.612-.994m9.709-1.481c-.228 1.145-1.213 1.457-2.27 1.12-.674-.194-1.387-.549-2.17-.952-.742-.396-1.521-.761-2.287-1.206-.771-.461-1.529-.934-2.336-1.397-.204-.122-.416-.238-.623-.357.05-.061.095-.123.15-.177 2.207-2.153 7.004-2.963 8.685-3.188.236-.408.506-.737.803-1.018 0 .813.163 1.623.526 2.375.637 1.314 1.745 2.299 3.122 2.773.57.197 1.167.298 1.769.298 2.313 0 4.377-1.478 5.129-3.676.375-1.087.384-2.236.063-3.319 3.577.562 11.115-1.385 11.115-1.385l-8.622 5.019 5.332 1.234c0 0-14.39 9.581-19.846-.946-.542 1.576-.146 3.524 1.46 4.802"/><path d="m37.202 15.6c1.003.346 2.101-.188 2.445-1.195.342-1.008-.191-2.105-1.194-2.453-1.005-.344-2.099.189-2.447 1.196-.346 1.004.188 2.103 1.196 2.452"/></svg>