<svg xmlns="http://www.w3.org/2000/svg" viewBox="0 0 64 64" enable-background="new 0 0 64 64"><path d="m61.928 18.667c-.725-3.012-.873-6.278-.883-8.328.981-3.056.597-5.399-.684-6.688-1.28-1.29-3.607-1.677-6.643-.688-2.036-.01-5.279-.16-8.272-.89-3.001-.733-4.401 4.197-5.746 9.317-4.094 1.816-7 2.096-7.491 4.196-.519 2.216 1.808 1.7 2.985 2.989-.812.671-1.903 1.57-2.687 1.631-2.037.158-4.047.446-4.964 1.402-1.066 1.111-1.005 2.604-.946 4.048.011.259.018.526.022.795-2.409 12.822-20.72 4.216-10.815-5.756 3.482-3.506 3.895 3.309 5.766 2.047.86-.58 2.477-3.764-.127-6.385-3.287-3.309-15.747 2.83-13.135 14.486.695 3.101 2.281 5.064 4.305 6.21-6.935 2.054-14.56 8.717-8.273 15.045 1.447 1.457 4.755 4.787 12.223.281 7.383-4.455 1.699-9.137-1.524-8.324-3.225.813 5.521 4.656-3.798 6.119-4.648.729-5.993-6.637 3.695-9.012 3.722-.912 6.365-.842 8.741-1.012-.772 2.104-1.347 4.416-1.596 6.916-.942 9.447-11.94 12.898-15.511 13.93-3.57 1.029 8.559 3.232 15.837-5.814 1.773-2.205 2.897-4.211 3.763-6.127.737 3.266 2.848 6.016 7.181 6.998 11.578 2.631 17.676-9.912 14.388-13.223-2.603-2.621-5.766-.994-6.342-.129-1.254 1.885 5.516 2.299 2.032 5.805-9.925 9.994-18.491-8.543-5.64-10.906.358 0 1.743.057 2.069.057 1.033 0 2.211-.125 3.112-1.051.988-1.018 1.393-2.73 1.313-5.551l-.006-.207c.345-.648.784-1.272 1.263-1.857 1.275 1.188.767 3.525 2.965 3.003 2.086-.494 2.365-3.421 4.17-7.543 5.085-1.355 9.981-2.765 9.253-5.784m-26.694 10.378c.109.111-1.246 1.654-3.03 3.449-1.782 1.794-3.315 3.16-3.426 3.05-.109-.111 1.247-1.654 3.029-3.451 1.784-1.792 3.317-3.159 3.427-3.048m-7.609-5.281c.075.319.232.623.482.872.719.713 1.881.713 2.6 0 .717-.713.717-1.87 0-2.583-.3-.297-.678-.463-1.067-.512.702-.212 1.623-.335 2.868-.335.204 0 .415.004.637.01.587 5.177-4.83 5.497-5.459 5.497-.038 0-.059-.002-.059-.003 0-1.07-.121-2.084-.002-2.946m2.398 6.529c1.52-1.529 2.867-2.648 3.014-2.5.146.146-.965 1.504-2.483 3.033s-2.867 2.648-3.014 2.5.965-1.503 2.483-3.033m3.899 3.873c-1.48 1.492-2.797 2.586-2.938 2.443-.142-.141.945-1.467 2.427-2.957 1.482-1.492 2.799-2.587 2.939-2.445.142.143-.946 1.467-2.428 2.959m9.039.443c-.045-.398-.211-.785-.515-1.09-.713-.717-1.87-.717-2.583 0-.713.719-.713 1.881 0 2.6.25.25.555.408.874.482-.278.039-.571.055-.879.055-.645 0-1.345-.057-2.069-.057-.022 0-.003-5.562 4.734-5.562.241 0 .494.015.76.045.045 1.576-.074 2.711-.322 3.527m1.047-7.128c-1.022-.162-3.286.762-5.273-.783-1.989-1.547-1.205-4.314-1.57-6.152-.364-1.84-1.364-3.277-.03-2.26 1.32 1.006.848 2.912.956 5.078.107 2.166 1.668 3.412 3.712 3.195s3.743.195 4.938 1.396c1.194 1.204-1.712-.314-2.733-.474"/></svg>