<svg xmlns="http://www.w3.org/2000/svg" viewBox="0 0 64 64" enable-background="new 0 0 64 64"><path d="m61.994 22.417c-.05-3.621-.063-4.595-1.328-5.505l-.052-.037c-.554-.42-1.987-1.175-2.578-1.479-7.822-4.18-16.598-6.396-25.352-6.396-1.739 0-3.101.084-4.003.141-.389.024-.681.044-.866.044-2.002 0-3.021.666-3.819 1.289-.074.058-.139.115-.21.158-.056.029-.123.05-.189.076-1.016.392-2.04 1.016-2.648 2.912-.208.651-1.657 1.306-2.225 1.306-1.402 0-2.446.778-3.366 1.464-.321.24-.653.487-.996.702-1.18.735-1.608 1.382-1.884 2.217-.117-.01-.244-.018-.376-.018-.517 0-.974.122-1.363.362-1.186.282-1.901 1.068-2.422 2.64-.27-.115-.562-.175-.865-.175-1.111 0-1.904.782-2.603 1.472-.215.211-.437.431-.605.564-.06.048-.122.073-.298.139-.496.184-2.002.745-1.91 2.928.052 1.181-.001 4.136-.001 4.166 0 1.441 1.588 2.256 1.591 3.268.002.553-1.38.543-1.38 3.14 0 .659.044 6.485.044 7.173 0 2.014 1.852 2.885.938 2.992-1.114.132-1.277 2.307-1.214 3.998.01.248.019.475.019.655-.002 1.567 1.121 2.387 2.231 2.387.448 0 .836-.122 1.147-.221.112-.035.281-.088.345-.096.525-.069 11.677-1.705 12.532-1.898.766-.172.919-1.798 2.461-2.039.938-.146 1.509 1.35 2.608 1.35.229 0 11.907-1.799 13.346-2.029 2.096-.336 1.276-1.55 2.405-1.623.634-.041 1.693.797 2.78.797.459 0 1.009-.059 1.897-.202 1.894-.308 14.93-2.274 15.062-2.294.124-.021.201-.029.271-.037 2.609-.298 2.609-2.558 2.609-3.908 0-1.332.054-4.397.112-7.644.089-4.873.186-10.394.155-12.739m-2.141 20.382c0 2.235-.374 1.932-1.283 2.088 0 0-13.157 1.984-15.082 2.299-.74.119-1.235.178-1.598.178-.119 0-.217-.011-.312-.023-1.002-.226-.419-2.063-2.409-1.681-2.185.419-2.467 2.56-2.471 2.596-.176.08-.458.12-1.073.183-1.538.154-9.22 1.335-10.965 1.608-.33-.124-.761-.38-1.323-.866-1.877-1.619-3.968-1.619-4.689-.282-.722 1.337-1.063 1.712-1.797 2.253-.695.158-10.536 1.566-11.337 1.671-.47.061-.94.302-1.25.302-.219 0-.357-.121-.357-.511 0-.79-.139-2.36.098-2.976.413-.233 1.599.196 1.658-1.381.073-1.906-1.43-3.332-1.438-3.34-.061-.385-.102-.846-.102-1.438 0-2.5-.072-5.012.063-5.941.349-.728 1.127-.739 1.982-1.521 1.156-1.059 1.226-3.31-.501-3.458-.782-.069-1.214-.208-1.466-.343-.171-.204-.292-.44-.292-.794 0 0 .055-3.029 0-4.279-.053-1.254.643-.836 1.498-1.515.724-.573 1.523-1.63 2.044-1.631.095 0 .181.036.256.117.231.251.623.55 1.039.55.45 0 .927-.35 1.26-1.489.643-2.193 1.177-1.463 1.659-1.879.111-.096.263-.125.437-.125.273 0 .601.073.915.073.348 0 .678-.09.895-.47.537-.939.106-1.252 1.444-2.086 1.125-.703 1.948-1.54 2.849-1.792 1.117.313 2.379.884 4.83-1.509 1.187-1.159-.711-.99.333-2.366.438-.469.927-.515 1.348-.754.642-.365 1.123-1.201 3.101-1.201.629 0 2.348-.185 4.869-.185 2.048 0 4.636.129 7.595.573.798.22 10.711 2.977 14.718 5.358 2.784 1.652 2.931 1.885 2.57 2.4-.361.517-1.246.449-8.117 1.914-1.281.271-2.234.35-2.2.667.036.317 1.984-.174 4.004-.334 2.019-.159 7.898-1.39 8.331-.863.219.267.508 2.378.537 3.821-.031 5.215-.271 15.515-.271 18.382"/><path d="m37.512 24.104c-.921-.369-.65-1.793-.299-1.45.352.343.515.711 1.434.686.92-.026 5.25-1.346 5.438-.607.189.739 2.299 1.503 1.92.979-.377-.524-.162-.9.189-1.401.351-.502.676-.794-.566-.952-1.246-.157-1.57.317-1.598.554-.027.239-4.03.713-4.735.82-.701.104-.864.132-1.054-.132-.188-.264-.163-.978-2.651-.978s-1.812 1.109-1.515 1.48c.297.368-.595.528-2.082.711-1.489.186-15.528 2.298-16.096 2.35-.569.053-2-.844-2.786-.42-.784.42-.379.976-1.3 1.107-.404.057-5.669.818-6.49.952-2.654.427 2.239.221 3.889.064 1.65-.16 4.361-.077 4.903-.605.542-.528 1.423-.35 2.209-.333.782.016 16.807-2.771 17.726-2.928.921-.158.921.924 1.786 1.162.866.236 2.597-.688 1.678-1.059"/><path d="m21.185 29.759c-2.395-.614-5.769.434-6.843 3.472-.268.757-.399 1.637-.328 2.648.359 5.074 8.066 3.5 9.5 0 1.01-2.46 1.1-4.039-.103-5.075-.507-.437-1.217-.786-2.226-1.045"/><path d="m37.524 31.644c-.682.999-.989 2.12-.54 3.284.663 1.714 2.758 2.727 4.938 2.727 3.038 0 6.263-3.359 5.473-5.046-2.132-4.552-8.666-2.727-9.871-.965"/><path d="m26.288 43.481c-.429 2.126 1.689 3.108 3.869 3.108 3.038 0 5.283-2.029 4.494-3.716-2.133-4.551-7.841-1.975-8.363.608"/><path d="m12.134 43.007c-2.52 0-4.383 1.639-3.728 2.999 1.77 3.674 6.504 1.596 6.938-.49.356-1.715-1.401-2.509-3.21-2.509"/><path d="m53.446 37.282c-2.361 0-4.107 2.023-3.494 3.704 1.658 4.535 6.096 1.969 6.502-.605.333-2.119-1.314-3.099-3.008-3.099"/><path d="m55.632 25.781c-1.094-2.308-6.373-2.17-6.896.412-.43 2.125 1.688 3.109 3.868 3.109 3.038 0 3.825-1.839 3.028-3.521"/><path d="m43.695 19.645c3.038 0 5.456-.484 4.659-2.167-1.094-2.308-5.89-2.259-7.648-.077-1.359 1.689.81 2.244 2.989 2.244"/><path d="m22.738 23.136c3.038 0 5.457-.484 4.66-2.167-1.094-2.308-5.891-2.259-7.648-.077-1.36 1.689.809 2.244 2.988 2.244"/><path d="m31.534 16.936c3.038 0 4.864-.685 3.75-2.177-1.406-1.886-4.629-1.153-6.739-.066-1.926.992.809 2.243 2.989 2.243"/></svg>