<svg xmlns="http://www.w3.org/2000/svg" viewBox="0 0 64 64" enable-background="new 0 0 64 64"><g fill-rule="evenodd"><path d="m6.01 42.439h9.979l4.011-40.439h-18z"/><ellipse cx="11" cy="54.354" rx="7.664" ry="7.646"/><path d="m40.249 2.064c-11.637.725-17.718 7.314-18.249 19.232h11.74c.147-4.129 2.451-7.215 6.741-7.669 4.211-.447 8.205.555 9.415 3.434 1.307 3.11-1.627 6.724-3.022 8.241-2.582 2.813-6.775 4.865-8.949 7.901-2.131 2.973-2.51 6.886-2.674 11.675h10.346c.145-3.062.349-5.995 1.742-7.898 2.266-3.092 5.65-4.541 8.486-6.983 2.709-2.334 5.559-5.147 6.043-9.5 1.451-13.031-9.185-19.208-21.619-18.433"/><ellipse cx="40.516" cy="55.566" rx="6.532" ry="6.433"/></g></svg>