<svg xmlns="http://www.w3.org/2000/svg" viewBox="0 0 64 64" enable-background="new 0 0 64 64"><path d="m51 27h-.64c-1.04-4.022-3.298-7.555-6.36-10.18v-14.82h-26v14.82c-4.278 3.668-7 9.103-7 15.18 0 6.078 2.722 11.512 7 15.18v14.82h26v-14.82c3.063-2.625 5.32-6.157 6.36-10.18h.64c1.104 0 2-.897 2-2v-6c0-1.103-.896-2-2-2m-37.143 5.954c-.526-.001-.951-.426-.951-.953-.001-.527.425-.953.952-.952.526 0 .951.425.951.951s-.425.952-.952.954m2.774 8.442c-.456.264-1.037.108-1.301-.347-.263-.458-.108-1.04.35-1.303.455-.262 1.036-.107 1.299.349.263.456.107 1.038-.348 1.301m.348-17.491c-.263.456-.845.612-1.301.35-.456-.264-.61-.845-.349-1.301.264-.457.846-.613 1.302-.349.455.263.611.844.348 1.3m21.769-7.228c.265-.455.845-.611 1.301-.348.457.264.613.845.348 1.301-.264.456-.846.612-1.301.349-.455-.264-.61-.845-.348-1.302m-6.803 16.968c-.28.161-.6.26-.945.26-1.052 0-1.904-.853-1.904-1.904 0-.719.403-1.338.992-1.662-.014-.081-.04-.15-.04-.243v-5.814l.476-1.805v-2.857c0-3.571.953-3.571.953 0v2.857l.477 1.805v5.814c0 .092-.027.162-.04.243.589.324.992.942.992 1.662l5.993 3.461-.951 1.649-6.003-3.466m.01 15.5c-.002.525-.426.951-.953.951-.527.002-.954-.426-.952-.953 0-.526.425-.952.95-.952.527-.001.953.427.955.954m-1.907-34.288c0-.526.427-.952.952-.952.527 0 .953.426.953.952 0 .526-.426.953-.953.953-.525 0-.952-.427-.952-.953m-6.048-11.857h14v3h-14v-3m0 8h14v2.285c-2.182-.817-4.533-1.285-7-1.285-2.466 0-4.818.468-7 1.285v-2.285m-.746 5.678c.264.456.107 1.037-.35 1.3-.455.264-1.037.108-1.301-.348s-.106-1.038.35-1.301c.455-.263 1.037-.107 1.301.349m-4.254-13.678h4v2h-4v-2m0 5h4v2h-4v-2m0 5h4v.675c-.869.38-1.697.83-2.497 1.325h-1.503v-2m0 34.973c.485.365.985.707 1.503 1.027h-1.503v-1.027m4 11.027h-4v-2h4v2m0-5h-4v-2h4v2m.255-6.677c-.265.456-.845.612-1.3.349-.458-.264-.615-.845-.35-1.301.264-.455.844-.612 1.299-.35.457.264.614.847.351 1.302m14.745 10.677h-14v-3h14v3m.748-10.679c-.262-.455-.107-1.036.348-1.3.455-.263 1.037-.105 1.303.35.262.456.107 1.037-.348 1.301-.458.264-1.039.107-1.303-.351m4.252 11.679h-4v-2h4v2m0-5h-4v-2h4v2m0-5h-1.502c.518-.32 1.018-.662 1.502-1.027v1.027m0-34h-1.502c-.799-.495-1.629-.944-2.498-1.325v-.675h4v2m0-5h-4v-2h4v2m0-5h-4v-2h4v2m2.371 17.603c.457-.261 1.037-.107 1.301.349.264.458.109 1.039-.35 1.301-.455.264-1.037.108-1.3-.348-.264-.456-.106-1.037.349-1.302m1.302 18.445c-.265.457-.845.614-1.302.349-.455-.264-.613-.846-.349-1.301.263-.456.845-.61 1.303-.349.454.265.611.845.348 1.301m1.472-8.097c-.527 0-.953-.425-.953-.951s.426-.951.954-.954c.525.002.95.426.95.953 0 .528-.425.955-.951.952m3.855 2.049c0 .551-.449 1-1 1h-.408c.101-.494.185-.994.248-1.5h1.16v.5m0-1.5h-1.063c.025-.331.041-.665.049-1h1.014v1m0-2h-1.014c-.008-.335-.023-.669-.049-1h1.063v1m0-2h-1.16c-.063-.506-.147-1.006-.248-1.5h.408c.551 0 1 .45 1 1v.5"/><circle cx="31" cy="32" r=".952"/></svg>