<svg xmlns="http://www.w3.org/2000/svg" viewBox="0 0 64 64" enable-background="new 0 0 64 64"><path d="m52.303 8.563c.937 0 1.697-.823 1.697-1.834v-2.896c0-1.013-.76-1.833-1.697-1.833h-40.606c-.938 0-1.697.82-1.697 1.833v2.896c0 1.011.759 1.833 1.697 1.833h1.053v46.875h-1.053c-.938 0-1.697.82-1.697 1.833v2.895c0 1.013.759 1.835 1.697 1.835h40.605c.938 0 1.698-.822 1.698-1.835v-2.895c0-1.013-.76-1.833-1.697-1.833h-1.053v-46.874h1.053m-37.72 46.875v-46.875h1.725c-.446 0-.808.335-.808.749v2.25c0 .414.358.747.802.75v.001c0 8.289 1.327 16.344 10.931 19.12l.475.15c.416.132.912.288 1.166.417-.254.127-.745.283-1.157.413l-.454.145c-9.633 2.786-10.96 10.841-10.96 19.13v.001c-.443.003-.802.336-.802.748v2.25c0 .414.361.751.808.751h-1.726m29.466-4.688c-.86-7.72-12.049-12.413-12.049-12.413s-11.189 4.693-12.051 12.413h-1.807c.152-9.941 2.813-14.42 9.645-16.397l.469-.147c1.313-.414 2.553-.806 2.553-2.205 0-1.401-1.244-1.794-2.563-2.208l-.487-.155c-6.806-1.968-9.464-6.444-9.616-16.387h27.715c-.153 9.943-2.813 14.422-9.643 16.396l-.457.145c-1.32.414-2.568.807-2.568 2.209 0 1.399 1.242 1.791 2.557 2.205l.494.156c6.805 1.968 9.464 6.445 9.617 16.389h-1.809zm5.367 4.688h-1.723c.444 0 .807-.337.807-.751v-2.25c0-.413-.36-.746-.803-.748v-.001c0-8.29-1.327-16.346-10.932-19.122l-.48-.152c-.412-.13-.905-.286-1.158-.413.254-.129.752-.285 1.168-.417l.444-.141c9.631-2.784 10.958-10.84 10.958-19.13v-.001c.442-.002.803-.335.803-.75v-2.25c0-.414-.362-.749-.807-.749h1.723v46.875"/></svg>