<svg xmlns="http://www.w3.org/2000/svg" viewBox="0 0 64 64" enable-background="new 0 0 64 64"><path d="m59.188 32h-26.187c0-15.518-6.611-15.518-13.003-15.518-6.147 0-11.958 0-11.958-14.482h-1.04c0 15.518 6.611 15.518 12.998 15.518 6.152 0 11.963 0 11.963 14.482h-27.148c-1.553 0-2.813 1.348-2.813 2.998v24.004c0 1.66 1.26 2.998 2.813 2.998h54.375c1.552 0 2.812-1.338 2.812-2.998v-24.004c0-1.65-1.26-2.998-2.812-2.998m-4.112 2.002h1.846c1.436 0 1.436 2.002 0 2.002h-1.846c-1.435 0-1.435-2.002 0-2.002m-5.996 0h1.846c1.436 0 1.436 2.002 0 2.002h-1.846c-1.435 0-1.435-2.002 0-2.002m2.92 10.996v2.002c0 .557-.449 1.006-.996 1.006h-2.002c-.557 0-1.006-.449-1.006-1.006v-2.002c0-.547.449-.996 1.006-.996h2.002c.547 0 .996.449.996.996m-5.996-5.996c0-.557.449-.996.996-.996h2.002c.547 0 .996.439.996.996v2.002c0 .547-.449.996-.996.996h-2.002c-.547 0-.996-.449-.996-.996v-2.002m-2.93-5h1.846c1.436 0 1.436 2.002 0 2.002h-1.846c-1.435 0-1.435-2.002 0-2.002m2.93 10.996v2.002c0 .557-.449 1.006-1.006 1.006h-2.002c-.547 0-.996-.449-.996-1.006v-2.002c0-.547.449-.996.996-.996h2.002c.557 0 1.006.449 1.006.996m-5.005-6.992h1.997c.557 0 1.006.439 1.006.996v2.002c0 .547-.449.996-1.006.996h-1.997c-.552 0-1.001-.449-1.001-.996v-2.002c0-.557.449-.996 1.001-.996m-2.998 12.998c0-.557.449-1.006 1.001-1.006h1.997c.552 0 1.001.449 1.001 1.006v2.002c0 .547-.449.996-1.001.996h-1.997c-.552 0-1.001-.449-1.001-.996v-2.002m-1.001-2.998c-.552 0-1.001-.449-1.001-1.006v-2.002c0-.547.449-.996 1.001-.996h2.002c.547 0 .996.449.996.996v2.002c0 .557-.449 1.006-.996 1.006h-2.002m.078-14.004h1.846c1.436 0 1.436 2.002 0 2.002h-1.846c-1.435 0-1.435-2.002 0-2.002m-3.076 5c0-.557.449-.996.996-.996h2.002c.552 0 1.001.439 1.001.996v2.002c0 .547-.449.996-1.001.996h-2.002c-.547 0-.996-.449-.996-.996v-2.002m1.997 12.002v2.002c0 .547-.449.996-1.001.996h-1.997c-.552 0-1.001-.449-1.001-.996v-2.002c0-.557.449-1.006 1.001-1.006h1.997c.552 0 1.001.449 1.001 1.006m-1.997-4.004c0 .557-.449 1.006-1.001 1.006h-2.002c-.552 0-1.001-.449-1.001-1.006v-2.002c0-.547.449-.996 1.001-.996h2.002c.552 0 1.001.449 1.001.996v2.002m-2.925-12.998h1.846c1.436 0 1.436 2.002 0 2.002h-1.846c-1.435 0-1.435-2.002 0-2.002m-3.076 5c0-.557.449-.996 1.001-.996h1.997c.552 0 1.001.439 1.001.996v2.002c0 .547-.449.996-1.001.996h-1.997c-.552 0-1.001-.449-1.001-.996v-2.002m1.997 12.002v2.002c0 .547-.449.996-.996.996h-2.002c-.552 0-1.001-.449-1.001-.996v-2.002c0-.557.449-1.006 1.001-1.006h2.002c.547 0 .996.449.996 1.006m-1.997-4.004c0 .557-.449 1.006-1.001 1.006h-2.002c-.547 0-.996-.449-.996-1.006v-2.002c0-.547.449-.996.996-.996h2.002c.552 0 1.001.449 1.001.996v2.002m-2.925-12.998h1.846c1.436 0 1.436 2.002 0 2.002h-1.846c-1.435 0-1.435-2.002 0-2.002m-3.076 5c0-.557.449-.996 1.001-.996h1.997c.552 0 1.001.439 1.001.996v2.002c0 .547-.449.996-1.001.996h-1.997c-.552 0-1.001-.449-1.001-.996v-2.002m-2.925-5h1.851c1.431 0 1.431 2.002 0 2.002h-1.851c-1.435 0-1.435-2.002 0-2.002m2.925 10.996v2.002c0 .557-.449 1.006-1.001 1.006h-1.997c-.552 0-1.001-.449-1.001-1.006v-2.002c0-.547.449-.996 1.001-.996h1.997c.552 0 1.001.449 1.001.996m-5-6.992h2.002c.552 0 .996.439.996.996v2.002c0 .547-.444.996-.996.996h-2.002c-.552 0-1.001-.449-1.001-.996v-2.002c0-.557.449-.996 1.001-.996m-3.926-4.004h1.851c1.436 0 1.436 2.002 0 2.002h-1.851c-1.43 0-1.43-2.002 0-2.002m2.925 10.996v2.002c0 .557-.449 1.006-1.001 1.006h-1.997c-.552 0-1.001-.449-1.001-1.006v-2.002c0-.547.449-.996 1.001-.996h1.997c.552 0 1.001.449 1.001.996m-5-6.992h2.002c.552 0 1.001.439 1.001.996v2.002c0 .547-.449.996-1.001.996h-2.002c-.552 0-1.001-.449-1.001-.996v-2.002c0-.557.449-.996 1.001-.996m-3.921-4.004h1.846c1.436 0 1.436 2.002 0 2.002h-1.846c-1.435 0-1.435-2.002 0-2.002m-3.076 5c0-.557.444-.996.996-.996h2.002c.552 0 1.001.439 1.001.996v2.002c0 .547-.449.996-1.001.996h-2.002c-.552 0-.996-.449-.996-.996v-2.002m0 5.996c0-.547.41-.996.923-.996h4.15c.513 0 .923.449.923.996v2.002c0 .557-.41 1.006-.923 1.006h-4.15c-.513 0-.923-.449-.923-1.006v-2.002m5.996 14.004c0 .547-.41.996-.923.996h-4.15c-.513 0-.923-.449-.923-.996v-2.002c0-.547.41-.996.923-.996h4.15c.513 0 .923.449.923.996v2.002m1.113-5h-6.22c-.493 0-.889-.449-.889-.996v-2.002c0-.557.396-1.006.889-1.006h6.221c.488 0 .889.449.889 1.006v2.002c-.001.547-.401.996-.89.996m4.888 5c0 .547-.449.996-1.001.996h-1.997c-.552 0-1.001-.449-1.001-.996v-2.002c0-.557.449-.996 1.001-.996h1.997c.552 0 1.001.439 1.001.996v2.002m1.001-5h-2.002c-.547 0-.996-.449-.996-.996v-2.002c0-.557.449-1.006.996-1.006h2.002c.552 0 1.001.449 1.001 1.006v2.002c0 .547-.449.996-1.001.996m5 5c0 .547-.449.996-1.001.996h-1.997c-.552 0-1.001-.449-1.001-.996v-2.002c0-.557.449-.996 1.001-.996h1.997c.552 0 1.001.439 1.001.996v2.002m1.001-5h-2.002c-.552 0-1.001-.449-1.001-.996v-2.002c0-.557.449-1.006 1.001-1.006h2.002c.552 0 1.001.449 1.001 1.006v2.002c0 .547-.449.996-1.001.996m21.001 5c0 .547-.371.996-.84.996h-18.33c-.459 0-.83-.449-.83-.996v-2.002c0-.547.371-.996.83-.996h18.33c.469 0 .84.449.84.996v2.002m0-5.996v-2.002c0-.557.449-1.006.996-1.006h2.002c.547 0 .996.449.996 1.006v2.002c0 .547-.449.996-.996.996h-2.002c-.547 0-.996-.449-.996-.996m5.996 5.996c0 .547-.449.996-.996.996h-2.002c-.547 0-.996-.449-.996-.996v-2.002c0-.557.449-.996.996-.996h2.002c.547 0 .996.439.996.996v2.002m10 0c0 .547-.4.996-.889.996h-6.221c-.488 0-.888-.449-.888-.996v-2.002c0-.557.4-.996.889-.996h6.221c.488 0 .889.439.889.996v2.002zm0-5.996c0 .547-.361.996-.82.996h-8.359c-.449 0-.82-.449-.82-.996v-2.002c0-.557.371-1.006.82-1.006h8.359c.459 0 .82.449.82 1.006v2.002m0-6.006c0 .557-.41 1.006-.918 1.006h-4.16c-.508 0-.918-.449-.918-1.006v-2.002c0-.547.41-.996.918-.996h4.16c.508 0 .918.449.918.996v2.002m0-5.996c0 .547-.4.996-.889.996h-6.221c-.488 0-.888-.449-.888-.996v-2.002c0-.557.4-.996.889-.996h6.221c.488 0 .889.439.889.996v2.002z"/></svg>