<svg xmlns="http://www.w3.org/2000/svg" viewBox="0 0 64 64" enable-background="new 0 0 64 64"><path d="m58.295 23.517c2.288-2.272 3.705-5.419 3.705-8.895 0-6.933-5.629-12.552-12.569-12.553-.001 0-.001 0-.002 0s-.003 0-.003 0c-3.48 0-6.633 1.414-8.908 3.698l7.417 7.405-1.671 1.689c-4.041-2.771-8.925-4.394-14.188-4.394-5.264 0-10.146 1.622-14.188 4.393l-1.791-1.811 7.246-7.328c-2.259-2.297-5.392-3.721-8.852-3.721-6.899 0-12.491 5.655-12.491 12.631 0 3.5 1.406 6.667 3.681 8.954l7.322-7.405 1.475 1.491c-4.683 4.593-7.593 11-7.593 18.092 0 5.021 1.463 9.697 3.975 13.633l-2.109 12.604h1.866c1.166 0 1.597-1.369 2.355-3.072.466-1.047 1.281-2.926 2.002-4.594 4.491 4.176 10.498 6.729 17.102 6.729 6.603 0 12.609-2.555 17.102-6.729.721 1.668 1.536 3.547 2.003 4.594.759 1.703 1.188 3.072 2.354 3.072h1.866l-2.106-12.607c2.51-3.935 3.973-8.608 3.973-13.629 0-7.092-2.91-13.498-7.593-18.091l1.376-1.39 7.244 7.234m-6.625 12.247c0 10.867-8.773 19.678-19.594 19.678-10.821 0-19.593-8.811-19.593-19.678 0-10.865 8.771-19.675 19.593-19.675 10.82 0 19.594 8.809 19.594 19.675"/><path d="m33.941 32.538v-10.827h-3.731v10.827c-1.11.649-1.866 1.845-1.866 3.227 0 .831.277 1.593.732 2.214l-8.484 8.578 1.16 1.176 8.577-8.673c.522.28 1.112.454 1.747.454 1.378 0 2.567-.758 3.215-1.874h6.115v-3.747h-6.115c-.326-.563-.789-1.028-1.35-1.355"/></svg>