<svg xmlns="http://www.w3.org/2000/svg" viewBox="0 0 64 64" enable-background="new 0 0 64 64"><path d="m50.332 22.833l1.264-1.254.984.976 2.976-2.952c.591-.586.591-1.539 0-2.125l-2.679-2.656c-.59-.586-1.549-.588-2.141 0l-2.977 2.952.984.976-1.264 1.253c-3.84-3.22-8.711-5.265-14.053-5.576v-1.182c2.488-.631 4.332-2.864 4.332-5.53.002-3.157-2.577-5.715-5.758-5.715-3.182 0-5.761 2.558-5.761 5.714 0 2.667 1.843 4.898 4.332 5.53v1.182c-5.343.312-10.213 2.356-14.053 5.577l-1.264-1.254.982-.976-2.976-2.952c-.591-.586-1.55-.586-2.141 0l-2.678 2.656c-.591.586-.592 1.539 0 2.125l2.977 2.954.983-.977 1.263 1.254c-3.53 4.147-5.664 9.504-5.664 15.357 0 13.152 10.746 23.81 24 23.81s24-10.658 24-23.81c0-5.853-2.135-11.211-5.668-15.357m-20.746-16.121v4.294c-1.027-.742-1.701-1.935-1.701-3.292 0-2.254 1.843-4.081 4.115-4.081 2.271 0 4.113 1.827 4.113 4.081 0 1.357-.674 2.55-1.701 3.292l.001-4.294c0-1.455-4.826-1.455-4.827 0m2.414 52.114c-11.487 0-20.8-9.238-20.8-20.636 0-11.396 9.313-20.634 20.8-20.634 11.486 0 20.799 9.239 20.799 20.634 0 11.398-9.313 20.636-20.799 20.636"/><path d="m32 19.143v1.588h-.677v5.372h.677v9.4c-1.496 0-2.709 1.202-2.709 2.687s1.213 2.688 2.709 2.688c.316 0 .617-.064.9-.164l10.122 8.307-.001-.002 2.619 2.575c3.437-3.441 5.559-8.177 5.559-13.404 0-10.518-8.596-19.047-19.199-19.047m13.553 29.685l-10.848-10.66c-.006-.73-.304-1.391-.785-1.871v-15.144c2.189.241 4.256.894 6.123 1.873l-1.185 2.035 1.172.671 1.185-2.032c2.172 1.364 4.015 3.195 5.39 5.35l-2.047 1.173.677 1.163 2.045-1.169c1.17 2.198 1.865 4.676 1.969 7.306h-5.064v1.34h5.067c-.1 2.587-.771 5.072-1.962 7.313l-2.055-1.178-.677 1.163 2.051 1.176c-.328.51-.672 1.012-1.056 1.491"/><path d="m31.323 50.279h1.353v5.372h-1.353z"/><path d="m14.399 37.521h5.416v1.34h-5.416z"/><path d="m22.613 23.406l1.354 2.325 1.173-.671-1.354-2.325z"/><path d="m19.441 30.222l-2.345-1.343-.677 1.164 2.345 1.344z"/><path d="m16.419 46.34l.677 1.164 2.345-1.345-.677-1.163z"/><path d="m22.612 52.977l1.173.671 1.354-2.327-1.172-.672z"/><path d="m38.859 51.321l1.354 2.327 1.174-.671-1.356-2.328z"/></svg>