<svg xmlns="http://www.w3.org/2000/svg" viewBox="0 0 64 64" enable-background="new 0 0 64 64"><path d="M31.999,3C15.431,3,2,18.711,2,38.094C2,57.475,15.431,61,31.999,61S62,57.475,62,38.094C62,18.711,48.567,3,31.999,3z
		 M32,50.152c-12.416,0-22.479-10.215-22.479-22.816S19.584,4.52,32,4.52c12.414,0,22.479,10.215,22.479,22.816
		S44.414,50.152,32,50.152z"/><ellipse transform="matrix(.5002-.8659.8659.5002-26.8636 41.3715)" cx="22.404" cy="43.955" rx="1.308" ry="1.289"/><ellipse transform="matrix(-.4999.8661-.8661-.4999 71.6677-19.9546)" cx="41.595" cy="10.715" rx="1.308" ry="1.289"/><ellipse transform="matrix(-.4997-.8662.8662-.4997-8.9256 68.7082)" cx="15.379" cy="36.932" rx="1.29" ry="1.307"/><ellipse transform="matrix(-.8658.5003-.5003-.8658 99.5923 8.7754)" cx="48.62" cy="17.74" rx="1.308" ry="1.289"/><ellipse cx="12.808" cy="27.336" rx="1.308" ry="1.289"/><ellipse cx="51.191" cy="27.336" rx="1.309" ry="1.289"/><ellipse transform="matrix(-.5001.866-.866-.5001 38.4313 13.2917)" cx="15.379" cy="17.739" rx="1.289" ry="1.31"/><ellipse transform="matrix(.5003-.8658.8658.5003-7.6817 60.5503)" cx="48.621" cy="36.931" rx="1.289" ry="1.308"/><ellipse transform="matrix(.5004.8658-.8658.5004 20.4689-14.0439)" cx="22.404" cy="10.715" rx="1.308" ry="1.289"/><path d="m40.941 42.822c-.617.357-.824 1.152-.463 1.779.361.625 1.154.844 1.771.486.615-.354.824-1.15.461-1.775-.36-.626-1.153-.845-1.769-.49"/><ellipse cx="32" cy="8.145" rx="1.289" ry="1.309"/><ellipse cx="32" cy="46.527" rx="1.289" ry="1.309"/><path d="m33.484 11.411c7.32.743 13.033 6.926 13.033 14.442 0 8.018-6.5 14.518-14.519 14.518s-14.518-6.5-14.518-14.518c0-7.517 5.712-13.699 13.032-14.442-8.137.75-14.512 7.59-14.512 15.925 0 8.836 7.162 16 15.999 16s16.001-7.164 16.001-16c0-8.335-6.376-15.175-14.516-15.925"/><path d="m32 11.336c-2.721 0-4.926 14.337-4.926 21.787 0 7.448 9.85 7.448 9.85 0 0-7.45-2.204-21.787-4.924-21.787"/></svg>