<svg xmlns="http://www.w3.org/2000/svg" viewBox="0 0 64 64" enable-background="new 0 0 64 64"><path d="m52.303 8.563c.937 0 1.697-.823 1.697-1.834v-2.896c0-1.013-.76-1.833-1.697-1.833h-40.606c-.938 0-1.697.82-1.697 1.833v2.896c0 1.011.759 1.833 1.697 1.833h1.053v46.875h-1.053c-.938 0-1.697.82-1.697 1.833v2.895c0 1.013.759 1.835 1.697 1.835h40.605c.938 0 1.698-.822 1.698-1.835v-2.895c0-1.013-.76-1.833-1.697-1.833h-1.053v-46.874h1.053m-37.72 46.875v-46.875h1.724c-.445 0-.807.335-.807.749v2.25c0 .414.358.747.802.75v.001c0 8.289 1.328 16.344 10.932 19.12l.474.15c.415.132.912.288 1.166.417-.254.127-.745.283-1.158.413l-.453.145c-9.632 2.786-10.96 10.841-10.96 19.13v.001c-.443.003-.802.336-.802.748v2.25c0 .414.361.751.807.751h-1.725m21.163-21.233l.494.156c6.806 1.968 9.463 6.445 9.617 16.389h-13.041c-.131-4.624-.459-16.433-.459-18.75 0-.785 1.452-1.886 2.12-2.279 2.819-1.665 6.445-4.959 6.445-8.387h-17.846c0 3.428 3.626 6.722 6.445 8.387.666.394 2.12 1.494 2.12 2.279 0 2.378-.327 14.138-.458 18.75h-13.04c.153-9.941 2.813-14.42 9.645-16.397l.469-.147c1.313-.414 2.553-.806 2.553-2.205 0-1.401-1.244-1.794-2.563-2.208l-.488-.155c-6.805-1.968-9.462-6.444-9.615-16.387h27.715c-.154 9.943-2.813 14.422-9.643 16.396l-.457.145c-1.32.414-2.567.807-2.567 2.209-.002 1.398 1.24 1.79 2.554 2.204m13.67 21.233h-1.722c.444 0 .806-.337.806-.751v-2.25c0-.413-.36-.746-.803-.748v-.001c0-8.29-1.328-16.346-10.932-19.122l-.48-.152c-.412-.13-.905-.286-1.159-.413.255-.129.753-.285 1.169-.417l.443-.141c9.631-2.784 10.959-10.84 10.959-19.13v-.001c.442-.002.803-.335.803-.75v-2.25c0-.414-.361-.749-.806-.749h1.722v46.875"/></svg>