<svg xmlns="http://www.w3.org/2000/svg" viewBox="0 0 64 64" enable-background="new 0 0 64 64"><path d="m20.52 59.717l7.027-7.2c-2.498-.54-4.824-1.529-6.904-2.87l-.123 10.07"/><path d="m43.48 4.284l-7.025 7.199c2.498.541 4.824 1.529 6.904 2.871l.121-10.07"/><path d="m11.484 36.454l-7.201 7.025 10.07-.122c-1.341-2.08-2.33-4.406-2.869-6.903"/><path d="m52.516 27.547l7.201-7.027-10.07.123c1.341 2.08 2.33 4.407 2.869 6.904"/><path d="m14.354 20.642l-10.07-.123 7.201 7.027c.538-2.498 1.527-4.824 2.869-6.904"/><path d="m49.646 43.358l10.07.122-7.201-7.026c-.538 2.497-1.527 4.824-2.869 6.904"/><path d="m27.547 11.483l-7.027-7.2.123 10.07c2.08-1.341 4.406-2.33 6.904-2.87"/><path d="m36.453 52.517l7.027 7.199-.123-10.069c-2.08 1.34-4.406 2.33-6.904 2.87"/><path d="m14.752 43.962l-3.967 9.251 9.252-3.965c-2.062-1.433-3.853-3.225-5.285-5.286"/><path d="m49.248 20.039l3.965-9.252-9.25 3.965c2.062 1.434 3.853 3.225 5.285 5.287"/><path d="M11,32c0-1.278,0.133-2.524,0.352-3.741L2,31.999l9.352,3.74C11.133,34.524,11,33.278,11,32z"/><path d="M62,32l-9.352-3.741C52.867,29.476,53,30.722,53,32c0,1.279-0.133,2.525-0.352,3.741L62,32z"/><path d="m20.039 14.751l-9.252-3.965 3.965 9.252c1.434-2.062 3.225-3.853 5.287-5.287"/><path d="m43.961 49.248l9.252 3.965-3.965-9.251c-1.434 2.062-3.225 3.853-5.287 5.286"/><path d="m35.74 11.352l-3.74-9.352-3.74 9.352c1.215-.219 2.461-.352 3.74-.352s2.525.133 3.74.352"/><path d="m28.26 52.648l3.74 9.352 3.74-9.352c-1.215.219-2.461.352-3.74.352s-2.525-.133-3.74-.352"/><circle cx="32" cy="32" r="19"/></svg>