<svg xmlns="http://www.w3.org/2000/svg" viewBox="0 0 64 64" enable-background="new 0 0 64 64"><path d="m38.715 15c6.475 0 11.725 5.254 11.725 11.736 0 .314-.023.621-.047.93-2.711.207-5.174 1.287-7.109 2.969 1.441-.828 3.105-1.311 4.887-1.311.658 0 1.301.068 1.924.193 1.064.209 2.063.596 2.973 1.121 2.944 1.7 4.932 4.874 4.932 8.522 0 4.67-3.258 8.578-7.623 9.58-.709.166-1.445.26-2.207.26h-34.176c-.877 0-1.717-.145-2.506-.408-3.187-1.053-5.488-4.053-5.488-7.592 0-2.408 1.064-4.561 2.744-6.025.76-.666 1.645-1.186 2.617-1.525.826-.287 1.709-.453 2.633-.453 2.578 0 4.863 1.227 6.326 3.123l.072-.002c-1.697-3.125-4.871-5.33-8.584-5.684 1.381-4.82 5.814-8.357 11.076-8.357.563 0 1.109.053 1.648.131 1.068.154 2.09.447 3.041.871 3.547 1.584 6.137 4.902 6.713 8.877 0-.021.002-.047.002-.068 0-4.527-2.32-8.512-5.834-10.834 2.001-3.609 5.845-6.054 10.261-6.054m0-4c-5.396 0-10.398 2.774-13.275 7.3-.111-.019-.223-.035-.334-.052-.798-.115-1.525-.172-2.221-.172-6.887 0-13.023 4.629-14.922 11.256l-.451 1.575c-.491.316-.96.67-1.404 1.06-2.608 2.273-4.108 5.569-4.108 9.033 0 5.187 3.309 9.764 8.234 11.39 1.206.403 2.476.61 3.76.61h34.176c1.035 0 2.084-.123 3.119-.365 6.299-1.447 10.711-6.989 10.711-13.475 0-4.926-2.657-9.519-6.935-11.986-.207-.119-.415-.232-.626-.341 0-.031 0-.064 0-.097 0-8.676-7.053-15.736-15.724-15.736z"/></svg>