<svg xmlns="http://www.w3.org/2000/svg" viewBox="0 0 64 64" enable-background="new 0 0 64 64"><path d="m32.938 6.708v-3.77c0-.518-.418-.938-.938-.938-.518 0-.938.42-.938.938v3.77c-14.281.418-26.105 10.345-29.062 23.521 1.75-1.801 4.217-2.929 6.963-2.929 3.145 0 5.928 1.481 7.68 3.763 1.75-2.281 4.531-3.763 7.678-3.763 2.637 0 5.01 1.05 6.742 2.729v18.846h-.938v5.625c0 2.067-1.682 3.75-3.75 3.75-2.066 0-3.75-1.683-3.75-3.75 0-1.035-.838-1.875-1.875-1.875-1.035 0-1.875.84-1.875 1.875 0 4.136 3.365 7.5 7.5 7.5 4.137 0 7.5-3.364 7.5-7.5v-5.625h-.938v-18.846c1.733-1.68 4.106-2.729 6.742-2.729 3.146 0 5.928 1.481 7.68 3.763 1.75-2.281 4.533-3.763 7.68-3.763 2.744 0 5.213 1.128 6.961 2.929-2.955-13.176-14.779-23.103-29.062-23.521"/></svg>