<svg xmlns="http://www.w3.org/2000/svg" viewBox="0 0 64 64" enable-background="new 0 0 64 64"><circle cx="32.532" cy="26.439" r="2.5"/><path d="m29.825 43.084l1.051 3.23h3.396l1.049-3.23-2.748-1.996z"/><path d="m29.825 52.877l1.051 3.23h3.396l1.049-3.23-2.748-1.996z"/><path d="m24.388 30.359c2.1 2.283 5.068 3.592 8.145 3.592s6.043-1.309 8.143-3.592c1.225-1.326-.248-2.68-1.473-1.354-1.721 1.871-4.152 2.945-6.67 2.945-2.52 0-4.951-1.074-6.672-2.945-1.188-1.284-2.661.069-1.473 1.354"/><path d="m10.8 54.232l1.912-2.945-2.946 1.912-.767-5.199-.766 5.199-2.946-1.912 1.91 2.944-5.197.769 5.202.769-1.915 2.943 2.944-1.912.768 5.2.769-5.2 2.944 1.912-1.914-2.945 5.202-.767z"/><circle cx="27.116" cy="21.814" r="2"/><path d="m7.943 10.877l-2.186 3.365 3.363-2.185.881 5.943.875-5.943 3.365 2.185-2.186-3.365 5.945-.877-5.943-.877 2.184-3.365-3.367 2.183-.873-5.941-.879 5.943-3.365-2.185 2.182 3.365-5.939.877z"/><path d="M54.457 8.658 52.816 11.182 55.34 9.543 56 14 56.656 9.543 59.181 11.182 57.541 8.656 62 8 57.541 7.343 59.181 4.817 56.655 6.456 56 2 55.344 6.457 52.816 4.817 54.454 7.342 50 8z"/><path d="m34.349 14.869c5.023.893 9.261 2.759 11.687 4.894-.003-.052-.016-.101-.016-.153 0-1.669 1.344-3.021 3.001-3.021 1.655 0 2.998 1.353 2.998 3.021 0 1.667-1.343 3.021-2.998 3.021-.356 0-.693-.073-1.011-.188.149.431.212.86.188 1.286.266.061.539.1.823.1 2.046 0 3.703-1.671 3.703-3.731 0-2.062-1.657-3.731-3.703-3.731-.35 0-.682.064-1.003.156-.81-1.341-1.81-2.913-2.028-4.643-1.354-10.68-2.484-10.547-8.203-9.305-13.009 2.824-12.677 7.741-12.677 7.741-3.646.732-4.528 4.114-4.744 5.718 2.891-1.652 8.18-2.194 13.983-1.165"/><path d="m56.057 48.124l2.185-3.367-3.367 2.186-.875-5.943-.878 5.942-3.366-2.186 2.183 3.365-2.779.411c.241-1.141.373-2.321.373-3.533 0-2.017-.353-3.949-.998-5.742l2.602-1.42 1.905-4.014c.829.281 1.641.404 2.135.245 1.368-.438 1.322-1.268.637-2.077.108-.029.217-.055.324-.095 2.646-.981 5.528-7.312 1.32-8.686-5.08-1.657-4.159 5.89-5.429 3.341-.828-1.664-2.325-1.682-1.976 1.162.096.776.405 1.518.853 2.168-.694.16-1.067.721-.729 1.896.141.494.751 1.017 1.515 1.445l-1.586 3.34-2.199 1.197c-.339-.716-.725-1.404-1.156-2.061.004-.001.009-.002.013-.003.889.029-1.448-4.193-2.943-3.713-.005.002-.01.003-.015.005.777-1.354 1.317-2.862 1.567-4.465-.021.008-.036.019-.058.026v.002c4.189-2.46-3.364-8.185-11.663-9.658-8.301-1.474-16.782 2.43-13.92 5.403 0-.001.001-.002.001-.003-.127.729-.2 1.475-.2 2.239 0 2.323.616 4.499 1.685 6.387-.005-.004-.01-.007-.015-.01-1.533-1.056-3.57 3.277-2.821 3.668.008.004.016.008.023.012-.464.693-.891 1.411-1.25 2.171l-2.196-1.196-1.586-3.34c.763-.429 1.372-.951 1.514-1.445.329-1.13-.054-1.682-.759-1.853.464-.66.784-1.417.882-2.21.352-2.844-1.145-2.827-1.975-1.162-1.27 2.549-.348-4.999-5.428-3.341-4.209 1.374-1.328 7.704 1.32 8.685.056.021.111.031.167.049-.688.804-.696 1.645.792 2.124.495.16 1.308.036 2.137-.246l1.904 4.017 2.607 1.423c-.645 1.793-1.002 3.723-1.002 5.737 0 9.389 7.611 17 17 17 7.853 0 14.443-5.332 16.396-12.567l3.015.445-2.187 3.365 3.364-2.188.88 5.944.876-5.944 3.365 2.188-2.188-3.367 5.947-.877-5.943-.876m-22.562-28.61c1.113.198 2.167.467 3.163.783-.432.367-.712.907-.712 1.518 0 1.105.896 2 2 2 1.105 0 2-.895 2-2 0-.063-.013-.121-.019-.183 1.423.733 2.608 1.579 3.504 2.475.064.466.099.94.099 1.424 0 2.312-.72 4.456-1.942 6.229-1.855.189-4.109 1.124-3.387 1.852-5.699 1.436-9.36 1.529-12.377.619-2.605-2.014-4.294-5.159-4.294-8.699 0-1.859.474-3.605 1.293-5.143 2.593-1.191 6.466-1.622 10.672-.875m13.518 29.337l-1.013.149.938.139c-1.801 6.261-7.571 10.861-14.406 10.861-8.273 0-15-6.729-15-15 0-3.179 1.014-6.114 2.709-8.541 4.341 1.88 8.407 2.308 12.176 2.066.039.001.076.006.115.006.999 0 1.969-.123 2.903-.337 1.415-.215 2.783-.497 4.104-.803.306 3.839-.945 9.1-2.12 11.477-.656 1.321 3.809-1.017 6.376 0 1.184.47 2.127-6.406 1.547-11.625 1.381 2.265 2.19 4.914 2.19 7.757 0 1.333-.191 2.619-.519 3.851"/></svg>