<svg xmlns="http://www.w3.org/2000/svg" viewBox="0 0 64 64" enable-background="new 0 0 64 64"><path d="m36.502 33.383l25.498-31.383-31.382 25.497.645-1.355.14.141 2.022-2.022-.858-.858 7.173-15.089-18.246 20.979-.103-.102 4.061-20.876-11.81 23.042-.783-.782-2.022 2.021 1.435 1.436-7.42 14.477c-.645.514-1.219 1.135-1.682 1.871-2.233 3.539-1.174 8.217 2.365 10.45 3.299 2.082 7.585 1.301 9.961-1.681l40.189-20.602-21.161 4.115 21.162-18.402-19.184 9.123m15.19-21.075l-29.682 36.532 11.416-18.265-18.271 11.418 36.537-29.685m-20.252 9.967l-.038-.038-2.022 2.022.757.757-2.226 4.68-16.284 13.231 22.05-25.354-2.237 4.702m-16.996 10.759l.438-.438-.141-.141 3.934-7.66.464.464 1-1-.785-.784 2.611-5.086-2.597 13.35-10.399 11.959 5.475-10.664m.795 24.961c-1.973 3.126-6.106 4.062-9.233 2.092-3.128-1.975-4.064-6.109-2.092-9.236 1.975-3.127 6.109-4.064 9.235-2.09 3.127 1.972 4.065 6.107 2.09 9.234m26.238-13.836l.856-.857-.527-.527 3.806-.739-4.135 2.123m-.845-1.156l-.299.299.954.954-20.988 10.777 11.962-10.402 8.371-1.628m-19.562 9.371l13.232-16.284 12.125-5.766-10.089 8.773.55-.549-1-1-1 1 .969.969-14.787 12.857"/><path d="m8.617 51.192c.689.436 1.602.229 2.036-.461.437-.689.229-1.602-.46-2.037-.049-.031-.1-.051-.15-.074.51.377.658 1.079.316 1.623-.359.57-1.115.742-1.686.383-.545-.346-.713-1.045-.412-1.605-.037.044-.074.086-.105.135-.435.689-.228 1.601.461 2.036"/><path d="m13.671 53.155c-.35-.223-.459-.667-.282-1.031-.018.023-.044.037-.06.063-.285.455-.15 1.055.304 1.34.454.287 1.056.15 1.341-.301.286-.457.15-1.055-.303-1.342-.024-.016-.054-.018-.079-.03.316.252.408.7.188 1.05-.237.374-.733.488-1.109.251"/><path d="m12.511 57.616c-.05-.031-.103-.053-.154-.076.506.371.655 1.064.316 1.602-.354.561-1.096.73-1.656.375-.538-.338-.7-1.027-.405-1.58-.035.045-.074.086-.105.135-.428.68-.225 1.576.454 2.004.679.43 1.574.227 2.005-.453.426-.679.223-1.577-.455-2.007"/><path d="m5.199 52.083c-.025-.016-.055-.018-.08-.029.316.252.408.697.188 1.049-.236.375-.732.488-1.109.25-.352-.221-.459-.667-.279-1.031-.018.023-.045.038-.061.064-.285.455-.15 1.055.305 1.34.453.287 1.053.15 1.34-.303.284-.455.149-1.053-.304-1.34"/><path d="m9.172 54.167c-.063-.039-.129-.063-.191-.096.809.637 1.029 1.786.467 2.678-.6.949-1.857 1.234-2.807.635-.891-.561-1.188-1.693-.732-2.616-.041.057-.092.106-.129.167-.727 1.15-.383 2.67.766 3.395 1.15.727 2.67.381 3.396-.768.722-1.149.38-2.67-.77-3.395"/><path transform="matrix(.7071.7071-.7071.7071 17.9191-17.411)" d="m28.546 11.495h2.86v2.86h-2.86z"/><path transform="matrix(-.7071.7071-.7071-.7071 103.5265-2.6379)" d="m50.879 18.692h2.862v2.861h-2.862z"/><path transform="matrix(-.7071.7071-.7071-.7071 104.8953 30.4435)" d="m44.712 35.516h2.862v2.862h-2.862z"/><path transform="matrix(-.7071-.7071.7071-.7071 21.1314 103.4892)" d="m31.292 46.661h1.414v1.414h-1.414z"/><path transform="matrix(-.7071.7071-.7071-.7071 98.0756 9.1463)" d="m46.436 24.178h1.414v1.414h-1.414z"/><path transform="matrix(-.7071.7071-.7071-.7071 113.9378 12.7273)" d="m53.626 29.254h1.414v1.414h-1.414z"/><path transform="matrix(.7075.7068-.7068.7075 20.452-27.4078)" d="m42.626 10.294h1.414v1.414h-1.414z"/><path transform="matrix(.7073.7069-.7069.7073 16.0708-31.5589)" d="m45.437 2.92h1.414v1.414h-1.414z"/><path transform="matrix(.7073.7069-.7069.7073 16.0904-22.2302)" d="m34.182 7.608h1.414v1.414h-1.414z"/></svg>