<svg xmlns="http://www.w3.org/2000/svg" viewBox="0 0 64 64" enable-background="new 0 0 64 64"><path d="m62 20.883c0-5.143-2.387-9.592-5.867-11.789-4.596-3.031-13.688-5.095-24.156-5.094-12.049-.001-22.27 2.732-25.914 6.525-2.473 2.431-4.063 6.164-4.063 10.359 0 2.458 9.648 3.268 16.037 2.437-.096.168-.177.343-.262.516-2.018 2.649-3.655 7.461-4.693 11.137-4.014 3.217-6.634 9.453-6.634 9.453v7.285c0 2.23 1.802 4.039 4.024 4.039h.155v.212c0 2.229 1.802 4.038 4.024 4.038h5.556c2.223 0 4.024-1.809 4.024-4.038v-.213h15.536v.212c0 2.229 1.802 4.038 4.023 4.038h5.556c2.223 0 4.024-1.809 4.024-4.038v-.212h.155c2.224 0 4.025-1.809 4.025-4.039v-7.285c0 0-2.621-6.237-6.635-9.453-.992-3.513-2.531-8.065-4.427-10.775-.12-.294-.26-.581-.412-.861 6.392.805 15.924-.012 15.924-2.454m-30.023-8.291c2.074 0 4.073.1 6.011.256-.307.575-.635 1.104-.908 1.269-.963.581-2.909.943-5.08.943s-4.118-.361-5.081-.943c-.273-.166-.602-.696-.908-1.273 1.924-.154 3.907-.252 5.966-.252m-12.757-2.513c.257-.398.994-.569 1.781-.569.887 0 1.838.216 2.237.569 1.094.962 1.921 4.142 3.164 4.894 1.199.725 3.398 1.087 5.598 1.087s4.397-.362 5.597-1.087c1.244-.752 2.071-3.932 3.164-4.894.4-.353 1.351-.569 2.238-.569.787 0 1.525.17 1.782.569 1.21 1.877-1.399 6.213-3.827 8.491-2.549-1.344-5.641-2.115-8.81-2.115-3.23 0-6.403.801-9.017 2.194-2.448-2.255-5.132-6.671-3.907-8.57m26.909 15.409c.451 1.688.276 3.373-.392 4.935l-3.027-4.94-1.313.443 2.937 6.766c-2.427 2.903-6.853 4.959-12.455 4.959-9.667 0-15.709-6.103-13.929-12.162 1.435-4.881 7.687-8.192 14.198-8.192s12.675 3.31 13.981 8.191"/><path d="m32.09 21.707c-3.041 0-5.726 1.678-6.021 3.925-.326 2.464 2.307 4.647 5.908 4.647 3.6 0 6.289-2.184 6.029-4.647-.236-2.247-2.878-3.925-5.916-3.925"/><path d="m30.345 20.501c.954.618 2.55.618 3.521 0 .944-.601.898-1.54-.056-2.101-.93-.545-2.412-.545-3.355 0-.971.561-1.039 1.5-.11 2.101"/><path d="m38.59 22.668c1.439 0 2.474-.753 2.313-1.651-.153-.864-1.366-1.54-2.709-1.54-1.347 0-2.387.678-2.327 1.54.062.898 1.279 1.651 2.723 1.651"/><path d="m36.532 30.652c.092 1.322 1.591 2.439 3.354 2.439 1.754 0 2.98-1.117 2.744-2.439-.227-1.262-1.714-2.242-3.327-2.242-1.619 0-2.858.981-2.771 2.242"/><path d="m34.146 31.427c-1.213-.923-3.137-.923-4.371 0-1.278.953-1.397 2.569-.19 3.615 1.254 1.083 3.374 1.083 4.653 0 1.238-1.046 1.16-2.663-.092-3.615"/><path d="m24.698 28.41c-1.617 0-3.128.979-3.388 2.242-.271 1.319.923 2.439 2.682 2.439s3.291-1.12 3.417-2.439c.119-1.262-1.095-2.242-2.711-2.242"/><path d="m24.019 26.765c1.224-.777 1.4-1.987.457-2.706-.917-.697-2.591-.697-3.798 0-1.241.719-1.566 1.929-.667 2.706.927.801 2.748.801 4.008 0"/><path d="m25.563 22.668c1.439 0 2.682-.754 2.766-1.65.084-.865-.941-1.541-2.285-1.541-1.346 0-2.573.676-2.75 1.541-.185.896.827 1.65 2.269 1.65"/></svg>