<svg xmlns="http://www.w3.org/2000/svg" viewBox="0 0 64 64" enable-background="new 0 0 64 64"><path d="m57.086 18.386c2.713 0 4.914-2.226 4.914-4.964 0-3.229-1.791-7.156-4.912-11.422-3.072 4.201-4.916 8.193-4.916 11.422 0 2.738 2.199 4.964 4.914 4.964m.002-12.83c1.913 3.059 2.912 5.747 2.912 7.866 0 1.635-1.308 2.964-2.914 2.964s-2.914-1.329-2.914-2.964c0-2.115 1.001-4.803 2.916-7.866"/><path d="m44.419 19.259c-.818-2.228-2.194-4.648-4.056-7.192-1.272 1.74-2.319 3.44-3.126 5.07-1.404-.236-2.838-.386-4.3-.429v-3.771c0-.519-.42-.938-.938-.938-.52 0-.938.419-.938.938v3.771c-1.429.042-2.824.204-4.197.43 1.026-.91 1.688-2.229 1.688-3.716 0-3.229-1.791-7.156-4.912-11.422-3.072 4.201-4.916 8.193-4.916 11.422 0 2.308 1.569 4.233 3.685 4.788-3.968 1.273-7.575 3.307-10.645 5.936.028-.216.065-.43.065-.653 0-3.229-1.793-7.16-4.914-11.426-3.071 4.201-4.915 8.196-4.915 11.425 0 2.74 2.199 4.963 4.914 4.963.269 0 .526-.039.784-.08-2.722 3.439-4.713 7.459-5.698 11.854 1.748-1.801 4.217-2.93 6.961-2.93 3.146 0 5.93 1.482 7.68 3.764 1.752-2.281 4.533-3.764 7.68-3.764 2.636 0 5.009 1.051 6.742 2.731v8.845h-.938v5.625c0 2.068-1.684 3.75-3.75 3.75-2.068 0-3.75-1.682-3.75-3.75 0-1.035-.84-1.875-1.875-1.875-1.037 0-1.875.84-1.875 1.875 0 4.135 3.363 7.5 7.5 7.5 4.135 0 7.5-3.365 7.5-7.5v-5.625h-.938v-8.846c1.733-1.68 4.105-2.73 6.742-2.73 3.146 0 5.928 1.482 7.679 3.764 1.751-2.281 4.534-3.764 7.68-3.764 2.745 0 5.213 1.129 6.962 2.93-2.111-9.413-8.755-17.156-17.581-20.97m-23.694-5.837c0-2.115 1.001-4.803 2.916-7.866 1.913 3.06 2.912 5.747 2.912 7.866 0 1.635-1.308 2.964-2.914 2.964s-2.914-1.329-2.914-2.964m-16.725 10.07c0-2.083 1.022-4.817 2.919-7.866 1.912 3.06 2.911 5.746 2.911 7.866 0 1.633-1.308 2.963-2.916 2.963-1.606 0-2.914-1.33-2.914-2.963m36.366-7.866c1.912 3.06 2.911 5.746 2.911 7.866 0 1.633-1.308 2.963-2.916 2.963-1.606 0-2.914-1.33-2.914-2.963 0-2.083 1.023-4.817 2.919-7.866"/></svg>