<svg xmlns="http://www.w3.org/2000/svg" viewBox="0 0 64 64" enable-background="new 0 0 64 64"><path d="m52.197 33.742c-.09.027-.229.051-.381.072.196-1.235.31-2.227.366-2.846.036-.242.056-.484.061-.775 0-4.07-4.643-7.565-11.745-9.522.628-1.688.689-3.801-1.292-5.829-2.723-2.785-.911-6.842-.911-6.842s-5.72 5.363-2.107 9.061c1.127 1.154 1.79 2.186 2.171 3.084-2.475-.539-5.19-.902-8.071-1.057.722-2.261.666-5.025-1.848-7.679-3.631-3.83-1.216-9.409-1.216-9.409s-7.625 7.374-2.81 12.458c1.629 1.719 2.532 3.242 3.015 4.545-.103 0-.205-.003-.308-.003-2.793 0-5.464.196-7.954.555.252-1.457-.037-3.112-1.601-4.712-2.723-2.785-.912-6.843-.912-6.843s-5.719 5.363-2.107 9.061c1.061 1.085 1.716 2.065 2.106 2.925-8.717 1.74-14.654 5.618-14.653 10.255.002.241.024.479.051.671.26 2.825 1.545 12.682 7.198 20.977 1.31 1.926 3.275 3.906 5.813 5.518.574.816 1.44 1.734 2.769 2.582 1.298.824 4.387 2.011 9.289 2.011 4.905 0 7.994-1.188 9.29-2.012 1.325-.846 2.192-1.762 2.766-2.578 1.796-1.139 3.305-2.463 4.497-3.822.074-.016.14-.037.18-.07 5.016-4.211 18.147-5.872 18.147-13.741 0-4.97-3.278-7.955-9.803-6.035m-25.076 25.104c-7.923 0-13.591-4.182-16.255-8.094-5.381-7.897-6.607-17.324-6.861-20.072-.021-.151-.036-.305-.039-.487 0-3.262 5.033-6.685 13.189-8.276.073 1.333-.501 2.083-.501 2.083s.987-.913 1.745-2.305c2.636-.437 5.553-.695 8.722-.695.261 0 .508.013.764.017.136 1.908-.661 2.983-.661 2.983s1.216-1.162 2.207-2.951c3.481.137 6.633.578 9.37 1.235-.037 1.102-.506 1.716-.506 1.716s.623-.584 1.258-1.519c6.687 1.753 10.723 4.803 10.722 7.74-.001.151-.016.3-.044.505-.233 2.542-1.332 11.03-5.94 18.604-.401.557-.802 1.176-1.157 1.758-2.754 3.812-8.315 7.758-16.013 7.758m32.134-17.547c-1.738 2.672-7.597 3.951-11.328 5.398 1.122-2.396 1.955-4.773 2.573-6.949l.494-.117c0 0 .268-1.541 1.542-2.699 1.633-1.48 7.143-1.156 7.143 2.453 0 .691-.156 1.326-.424 1.914"/><path d="m48.619 31.693c-2.07-4.291-10.905-7.516-21.498-7.516-10.592 0-19.427 3.225-21.502 7.516 2.075 4.292 10.91 7.518 21.502 7.518 10.593 0 19.428-3.227 21.498-7.518m-9.678 2.104c0 0-8.018 4.295-19.429 4.295 0 0 2.873-1.318 0-2.482-4.557-1.67-9.097-3.991-7.133-6.454 3.136-3.922 13.401-2.336 14.74-.209.974-1.996 11.5-3.789 14.742.207 1.325 1.635-.313 3.246-2.92 4.643"/><path d="m26.801 30.244c-.762-1.703-7.432-3.07-9.723.016-1.433 1.934 1.425 3.823 4.33 5.196 1.826.955-.144 1.971-.144 1.971 7.515.117 13.045-3.211 13.045-3.211h-.002c1.798-1.08 2.97-2.342 2.19-3.655-1.905-3.206-8.942-1.892-9.696-.317m4.997 3.924c0 0-3.701 2.229-8.73 2.15 0 0 1.317-.682.097-1.318-1.945-.92-3.859-2.186-2.897-3.481 1.531-2.063 5.998-1.148 6.505-.008.507-1.055 5.215-1.936 6.491.211.522.879-.262 1.723-1.466 2.446"/></svg>