<svg xmlns="http://www.w3.org/2000/svg" viewBox="0 0 64 64" enable-background="new 0 0 64 64"><path d="m31.096 62h-4.891c0 0 5.02-18.473 5.213-30.574.014-.838 1.164-.838 1.164 0 0 17.436-1.486 30.574-1.486 30.574"/><path d="m57.985 21.836c-9.24-6.425-22.98 7.2-24.522 9.138.873 1.571 6.095 21.527 16.962 20.817 10.104-.658 8.646-12.536 4.267-14.841 5.278.041 11.593-9.343 3.293-15.114"/><path d="m46.571 7.935c-3.203-9.883-13.61-5.449-14.572-.513-1.323-5.26-11.473-9.185-14.57.521-3.449 10.808 13.355 20.356 14.56 21.946 1.2-1.264 18.032-11.321 14.582-21.954"/><path d="m6.013 21.836c-8.298 5.771-1.98 15.155 3.295 15.114-4.38 2.306-5.836 14.183 4.267 14.841 10.868.709 16.065-19.245 16.937-20.816-1.596-1.938-15.317-15.52-24.499-9.139"/></svg>