<svg xmlns="http://www.w3.org/2000/svg" viewBox="0 0 64 64" enable-background="new 0 0 64 64"><path d="m48.86 38.033v-30.851c0-2.858-2.394-5.182-5.337-5.182-2.924 0-5.303 2.324-5.303 5.182v14.16c-1.643-.774-5.643-.107-6.437 2.437-2.248-3.127-9.597-2.502-9.597 3.208-2.776-2.877-8.721-.919-8.721 3.231 0 0 .051 3.376 0 4.165-.23 3.575-.929 7.188.009 14.33 1.002 7.646 7.683 12.853 17.02 13.264.358.015.716.023 1.078.023 7.958 0 16.968-3.836 18.907-12.584 1.17-5.273.253-8.757-1.619-11.383m-9.094-31.132c0-3.754 6.428-3.438 6.428.091v28.212c-1.246-1.048-4.108-2.97-4.108-2.97v-5.69c0-2.247-1.449-3.747-2.33-4.393l.01-15.25m.079 19.269c0 .337 0 3.658 0 4.771-1.587-.599-2.868-.245-4.295.169-.748.216-1.771.497-2.826.646l-.124-5.275c0-5.092 7.245-4.622 7.245-.311m-9.207.624c0 .364 0 3.977 0 5.057-2.644-.347-5.414 1.841-4.896 5.183-.945-.599-2.058-1.608-2.058-2.869l-.272-7.138c0-4.001 7.226-4.96 7.226-.233m-15.746 4.211c0-3.825 7.146-4.801 7.146.517 0 .299 0 5.69 0 5.69 0 5.813-7.249 5.923-7.249.522l.103-6.729m31.957 20.812c-4.747 7.188-14.331 8.92-21.813 6.791-4.715-1.466-12.035-6.5-10.583-17.25 2.057 3.414 8.667 2.979 9.834-2.92.717.557 1.572.931 2.506 1.055.41.511 2.161 2.345 4.641 2.468-2.201 1.266-3.979 3.741-2.904 7.792-.085-6.665 6.353-8.602 8.064-8.104 1.15.335 2.386 2.439 2.84 3.605.165.424.099 1.914.099 1.914s.433-1.437.347-1.915c-.289-1.61-2.195-4.541-4.17-5.042-1.657-.421-4.107.844-6.772-.968-1.652-1.123-2.241-2.994-1.898-4.136.309-1.021 1.04-2.104 2.25-2.063 3.066.106 5.242-.479 6.688-.896 1.673-.483 3.279-.662 4.813.375 0 0 5.91 4.577 7.229 7.146 1.905 3.724.906 8.998-1.171 12.148"/></svg>