<svg xmlns="http://www.w3.org/2000/svg" viewBox="0 0 64 64" enable-background="new 0 0 64 64"><path d="m16.726 25.981c0 2.318 2.036 4.194 4.548 4.194.237 0 .47-.016.698-.049-.286.655-.62 1.469-.698 1.877-.335 1.721 1.537 3.166 3.432 3.166 0 0 .917.076 1.114-.104.709-.654 0-3.593 0-3.593 0-.496.436-.897.974-.897.536 0 .97.401.97.897 0 0-.707 3.043 0 3.697.578.532 2.688.532 3.265 0 .709-.654 0-3.697 0-3.697 0-.496.437-.897.972-.897s.972.401.972.897c0 0-.709 3.043 0 3.697.576.532 2.687.532 3.263 0 .709-.654 0-3.697 0-3.697 0-.496.436-.897.972-.897.538 0 .972.401.972.897 0 0-.709 2.938 0 3.593.197.181 1.116.104 1.116.104 1.896 0 3.766-1.445 3.433-3.166-.078-.408-.412-1.222-.7-1.877.228.033.463.049.7.049 2.512 0 4.548-1.876 4.548-4.194 0-1.35-.69-2.549-1.765-3.316 1.126-1.963 1.765-4.2 1.765-6.577-.003-7.779-6.84-14.088-15.277-14.088s-15.274 6.309-15.274 14.088c0 2.377.639 4.614 1.765 6.577-1.074.768-1.765 1.967-1.765 3.316m26.195-8.752c3.681.203-.769 5.066-2.486 6.227-1.716 1.161-5.839-.999-5.601-2.407.353-2.07 5.819-3.945 8.087-3.82m-12.304 8.472c.541-.946.814-1.804 1.479-1.804s.937.857 1.48 1.804c.467.814 1.797 1.415.995 2.153-.875.808-4.078.808-4.953 0-.819-.755.53-1.338.999-2.153m-9.343-8.472c2.265-.125 7.734 1.75 8.086 3.819.239 1.408-3.885 3.568-5.601 2.407-1.716-1.159-6.167-6.022-2.485-6.226"/><path d="m57.684 50.325c-2.099-1.119-3.493-.295-3.493-.295-1.442.85-3.829.901-5.312.111l-11.44-6.091 11.439-6.092c1.482-.787 3.871-.737 5.312.112 0 0 1.395.822 3.493-.295 2.214-1.18 2.975-3.792 1.695-5.838-.424-.674-.424-.674-.424-.674-.699-.488-1.361-1.547-1.471-2.353 0 0 0 0-.423-.674-1.279-2.044-4.112-2.743-6.329-1.563-2.099 1.116-2.021 2.642-2.021 2.642.076 1.577-1.07 3.511-2.551 4.298l-14.159 7.54-14.161-7.54c-1.48-.787-2.628-2.721-2.55-4.298 0 0 .077-1.525-2.021-2.642-2.217-1.18-5.051-.48-6.33 1.563-.422.674-.422.674-.422.674-.11.806-.771 1.864-1.473 2.353 0 0 0 0-.421.674-1.28 2.046-.52 4.658 1.696 5.838 2.097 1.118 3.492.295 3.492.295 1.44-.85 3.83-.899 5.31-.112l11.441 6.092-11.441 6.092c-1.48.79-3.87.738-5.31-.111 0 0-1.395-.824-3.492.295-2.215 1.179-2.976 3.794-1.696 5.837.421.674.421.674.421.674.701.489 1.363 1.548 1.473 2.354 0 0 0 0 .422.674 1.278 2.043 4.113 2.744 6.33 1.563 2.099-1.117 2.021-2.643 2.021-2.643-.078-1.574 1.07-3.51 2.55-4.297l14.161-7.541 14.16 7.54c1.48.787 2.627 2.723 2.551 4.297 0 0-.077 1.525 2.021 2.643 2.217 1.181 5.05.479 6.329-1.563.423-.674.423-.674.423-.674.109-.806.771-1.864 1.471-2.354 0 0 0 0 .424-.674 1.279-2.043.518-4.658-1.695-5.837"/></svg>