<svg xmlns="http://www.w3.org/2000/svg" viewBox="0 0 64 64" enable-background="new 0 0 64 64"><path d="M32,2C15.431,2,2,15.432,2,32c0,16.568,13.431,30,30,30c16.57,0,30-13.432,30-30C62,15.432,48.57,2,32,2z M32,59
		C17.088,59,5,46.912,5,32S17.088,5,32,5c14.912,0,27,12.089,27,27S46.912,59,32,59z"/><circle cx="32" cy="32" r="5"/><path d="M8,28.76l17.12,2.221c0.241-1.88,1.233-3.522,2.668-4.62L17.304,12.644C12.303,16.473,8.843,22.205,8,28.76z"/><path d="m32 38.816c-.946 0-1.847-.191-2.668-.533l-6.638 15.938c2.865 1.195 6.009 1.857 9.306 1.857 3.299 0 6.441-.662 9.309-1.857l-6.639-15.938c-.822.342-1.723.533-2.67.533"/><path d="m38.881 30.981l17.119-2.221c-.842-6.555-4.303-12.287-9.303-16.116l-10.484 13.717c1.433 1.098 2.428 2.74 2.668 4.62"/></svg>