<svg xmlns="http://www.w3.org/2000/svg" viewBox="0 0 64 64" enable-background="new 0 0 64 64"><path d="m38.431 25.251c1.253-.941 2.299-2.149 3.057-3.543-2.688-1.889-5.959-2.997-9.487-2.997s-6.8 1.108-9.488 2.997c.758 1.394 1.805 2.602 3.057 3.543 1.857-1.193 4.063-1.889 6.432-1.889s4.572.696 6.429 1.889"/><path d="m48.535 34.109c-1.587-.01-3.154.326-4.587.977.002.098.007.193.007.291 0 4.568-2.535 8.539-6.269 10.572.15 1.572.639 3.105 1.436 4.482 5.594-2.678 9.461-8.412 9.461-15.055 0-.427-.017-.849-.048-1.267"/><path d="m20.045 35.377c0-.111.005-.223.008-.332-1.437-.637-3.004-.959-4.589-.936-.031.418-.047.842-.047 1.268 0 6.672 3.9 12.426 9.534 15.088.801-1.373 1.294-2.9 1.451-4.471-3.781-2.017-6.357-6.014-6.357-10.617"/><path d="m8.815 34.029c5.918-3.433 13.38-1.699 17.127 3.82l2.31-1.34c-.107-.357-.166-.738-.166-1.133 0-1.873 1.303-3.437 3.046-3.835v-2.643c-6.675-.453-11.951-6.1-11.953-13 .001-5.297 3.11-9.855 7.574-11.894-.012.004-.022.008-.034.012.011-.005.022-.01.034-.016-6.701 2.215-11.54 8.554-11.54 16.03 0 0 0 .002 0 .003v.001c0 2.257.441 4.409 1.241 6.377-2.076.292-4.132.981-6.059 2.099-6.442 3.739-9.485 11.119-8.042 18.058-.476-4.904 1.898-9.89 6.462-12.539"/><path d="m61.999 43.301c.058-5.889-2.959-11.636-8.395-14.791-1.927-1.117-3.982-1.807-6.059-2.099.8-1.968 1.241-4.12 1.241-6.377v-.001c0-.001 0-.002 0-.002 0-7.478-4.839-13.816-11.54-16.031.011.006.022.012.034.017-.012-.004-.023-.008-.034-.012 4.464 2.038 7.573 6.597 7.573 11.894-.001 6.9-5.277 12.547-11.953 13v2.643c1.744.398 3.046 1.962 3.046 3.835 0 .416-.064.814-.183 1.191l2.296 1.332c3.737-5.554 11.224-7.31 17.158-3.867 4.137 2.402 6.474 6.721 6.521 11.16.005.457-.015.918-.059 1.375v-.002c0 .002 0 .004 0 .008.228-1.086.343-2.181.354-3.273"/><path d="m42.363 56.348c-4.167-2.418-6.509-6.783-6.523-11.256-.006-1.924.419-3.867 1.313-5.684l-2.303-1.338c-.714.764-1.726 1.24-2.85 1.24-1.146 0-2.176-.494-2.892-1.283l-2.287 1.326c3.012 6.055.791 13.527-5.186 16.994-4.564 2.649-10.047 2.223-14.035-.644 5.259 4.725 13.141 5.768 19.583 2.029 1.915-1.111 3.529-2.545 4.815-4.193 1.287 1.65 2.902 3.086 4.819 4.197 6.441 3.738 14.324 2.697 19.583-2.029-.009.006-.018.012-.025.018.008-.008.017-.014.025-.021-3.989 2.866-9.471 3.292-14.037.644"/></svg>