<svg xmlns="http://www.w3.org/2000/svg" viewBox="0 0 64 64" enable-background="new 0 0 64 64"><path d="m40.593 58.25c-14.207 0-25.728-11.753-25.728-26.249 0-14.498 11.521-26.251 25.728-26.251 2.212 0 4.358.286 6.407.821-4.521-2.893-9.865-4.571-15.595-4.571-16.24 0-29.405 13.432-29.405 30.001 0 16.568 13.165 29.999 29.405 29.999 5.73 0 11.075-1.678 15.595-4.57-2.049.535-4.195.82-6.407.82"/><path d="m49.813 37.972l7.533 5.278-2.846-8.583 7.5-5.322-9.291-.027-2.896-8.567-2.897 8.567-9.291.027 7.502 5.322-2.848 8.583z"/></svg>