<svg xmlns="http://www.w3.org/2000/svg" viewBox="0 0 64 64" enable-background="new 0 0 64 64"><path d="m60.279 22c-1.32-3.725-3.355-7.113-5.943-10-5.496-6.133-13.473-10-22.336-10-8.864 0-16.84 3.867-22.336 10-2.588 2.887-4.623 6.275-5.943 10-1.111 3.129-1.721 6.494-1.721 10s.609 6.871 1.72 10c1.321 3.725 3.355 7.113 5.942 10 5.497 6.133 13.473 10 22.338 10 8.864 0 16.84-3.867 22.338-10 2.586-2.887 4.621-6.275 5.943-10 1.11-3.129 1.719-6.494 1.719-10s-.609-6.871-1.721-10m-52.654 10c0-3.566.792-6.945 2.175-10 1.829-4.041 4.722-7.492 8.329-10 3.215-2.236 6.979-3.736 11.059-4.207v22.805l-16.391 16.388c-1.194-1.527-2.209-3.201-3.017-4.986-1.382-3.053-2.155-6.436-2.155-10m21.563 24.209c-4.094-.475-7.88-1.961-11.101-4.209-.46-.32-.907-.656-1.343-1.008l12.443-12.441v17.658zm5.625 0v-17.658l12.441 12.441c-.436.352-.883.688-1.343 1.008-3.221 2.248-7.007 3.734-11.098 4.209m16.39-9.223l-16.39-16.388v-22.805c4.08.471 7.842 1.971 11.057 4.207 3.608 2.508 6.501 5.959 8.331 10 1.383 3.055 2.174 6.434 2.174 10 0 3.564-.773 6.947-2.156 10-.807 1.785-1.823 3.459-3.016 4.986"/></svg>