<svg xmlns="http://www.w3.org/2000/svg" viewBox="0 0 64 64" enable-background="new 0 0 64 64"><circle cx="42.264" cy="42.263" r="5.443"/><path d="m32 2c-16.542 0-30 13.458-30 30s13.458 30 30 30 30-13.458 30-30-13.458-30-30-30m-6.416 23.584c-2.126 2.126-5.573 2.126-7.699 0-2.125-2.126-2.125-5.571 0-7.698 2.126-2.126 5.573-2.126 7.699 0 2.126 2.127 2.126 5.572 0 7.698m20.501 30.675c-4.859 1.321-10.27.086-14.086-3.729-5.668-5.668-5.668-14.86 0-20.529 5.669-5.669 5.669-14.86 0-20.528-3.815-3.816-9.225-5.052-14.084-3.73 4.144-2.416 8.953-3.807 14.085-3.807 15.476 0 28.064 12.589 28.064 28.064 0 10.344-5.628 19.391-13.979 24.259"/></svg>