<svg xmlns="http://www.w3.org/2000/svg" viewBox="0 0 64 64" enable-background="new 0 0 64 64"><path d="m60.345 30.346c-.509 0-.957.234-1.261.595.071-.185.115-.384.115-.595 0-.914-.741-1.656-1.655-1.656-.18 0-.35.036-.512.089-.581-4.559-2.376-8.736-5.054-12.2.152-.076.298-.172.425-.299.646-.646.645-1.695 0-2.34-.646-.647-1.694-.647-2.342 0-.072.072-.134.152-.19.233-.015-.015-.028-.028-.043-.043.082-.056.161-.118.233-.19.647-.647.647-1.694 0-2.342-.645-.646-1.694-.646-2.34 0-.127.127-.223.272-.3.425-3.464-2.678-7.642-4.472-12.2-5.053.053-.163.089-.333.089-.513 0-.914-.741-1.654-1.655-1.654-.21 0-.41.043-.596.115.361-.304.596-.753.596-1.262 0-.914-.741-1.656-1.655-1.656s-1.655.742-1.655 1.656c0 .509.235.958.596 1.262-.185-.072-.385-.115-.596-.115-.913 0-1.654.74-1.654 1.654 0 .18.036.35.089.513-4.56.581-8.737 2.376-12.201 5.054-.077-.152-.172-.299-.299-.426-.646-.646-1.694-.646-2.341 0-.646.646-.646 1.695 0 2.342.073.072.152.135.234.191-.015.014-.028.028-.043.043-.057-.082-.118-.162-.191-.234-.646-.646-1.694-.646-2.341 0-.646.645-.646 1.693 0 2.34.128.127.273.222.425.299-2.678 3.464-4.473 7.642-5.054 12.2-.162-.053-.332-.089-.512-.089-.914 0-1.655.742-1.655 1.656 0 .21.043.409.114.594-.304-.359-.752-.594-1.26-.594-.914 0-1.655.742-1.656 1.655 0 .913.742 1.655 1.655 1.655.509 0 .958-.234 1.262-.594-.071.184-.115.383-.115.593 0 .914.741 1.655 1.655 1.655.18 0 .35-.036.512-.089.581 4.559 2.376 8.736 5.055 12.2-.152.078-.298.172-.426.301-.646.645-.646 1.693 0 2.34.646.646 1.695.646 2.341 0 .073-.072.136-.152.191-.234.015.014.029.029.043.043-.082.057-.161.119-.234.191-.646.646-.646 1.693 0 2.342.646.645 1.694.645 2.341 0 .127-.127.223-.273.3-.426 3.464 2.678 7.641 4.473 12.2 5.055-.053.162-.089.332-.089.512 0 .914.741 1.654 1.654 1.654.21 0 .409-.043.594-.113-.36.303-.594.752-.594 1.26 0 .914.741 1.654 1.655 1.654s1.655-.74 1.655-1.654c0-.508-.233-.957-.593-1.26.185.07.384.113.593.113.914 0 1.655-.74 1.655-1.654 0-.18-.036-.35-.089-.512 4.56-.582 8.737-2.377 12.201-5.055.077.152.172.297.299.426.646.645 1.694.645 2.34 0 .647-.646.647-1.695 0-2.342-.072-.072-.152-.135-.233-.191.014-.014.028-.027.042-.043.057.082.119.162.191.234.647.646 1.695.646 2.342 0 .646-.646.646-1.693 0-2.34-.128-.127-.273-.223-.426-.299 2.678-3.465 4.473-7.643 5.055-12.202.161.053.331.089.511.089.914 0 1.655-.741 1.655-1.654 0-.21-.043-.409-.114-.594.304.359.753.594 1.261.594.913-.001 1.654-.742 1.655-1.656 0-.912-.742-1.654-1.655-1.654m-25.998-18.654c3.89.444 7.442 1.981 10.355 4.295-.136.614-5.956 7.11-6.503 7.414-1.309-.944-2.839-1.595-4.501-1.862-.172-.602.311-9.32.649-9.847m-4.692 0c.337.526.819 9.244.646 9.847-1.661.268-3.19.918-4.499 1.862-.547-.304-6.366-6.8-6.502-7.414 2.913-2.313 6.466-3.85 10.355-4.295m-13.668 7.609c.615.135 7.111 5.953 7.415 6.501-.944 1.309-1.595 2.839-1.862 4.501-.603.172-9.32-.311-9.847-.646.445-3.891 1.982-7.444 4.294-10.356m.001 25.399c-2.313-2.913-3.85-6.465-4.295-10.354.527-.337 9.244-.819 9.847-.647.269 1.661.918 3.191 1.862 4.499-.304.548-6.798 6.365-7.414 6.502m13.669 7.607c-3.891-.443-7.443-1.98-10.356-4.295.137-.615 5.955-7.108 6.503-7.412 1.308.943 2.837 1.594 4.498 1.861.173.602-.307 9.318-.645 9.846m2.343-15.307c-2.761 0-5-2.236-5-5 0-2.76 2.239-5 5-5 2.762 0 5 2.24 5 5 0 2.764-2.238 5-5 5m2.345 15.307c-.338-.529-.818-9.243-.646-9.846 1.661-.268 3.191-.918 4.499-1.862.548.304 6.366 6.8 6.502 7.415-2.913 2.312-6.466 3.849-10.355 4.293m13.669-7.607c-.615-.136-7.11-5.954-7.414-6.503.944-1.308 1.594-2.838 1.862-4.499.603-.172 9.319.311 9.847.647-.446 3.89-1.982 7.442-4.295 10.355m-5.552-14.397c-.268-1.662-.917-3.192-1.862-4.501.304-.548 6.8-6.366 7.414-6.503 2.313 2.914 3.851 6.467 4.295 10.357-.527.336-9.245.819-9.847.647"/></svg>