<svg xmlns="http://www.w3.org/2000/svg" viewBox="0 0 64 64" enable-background="new 0 0 64 64"><path d="m26.696 31.692c-1.13 1.191-1.674 2.841-1.572 4.771.244 4.653 3.707 6.773 6.82 6.773s6.576-2.12 6.82-6.773c-.244-4.59-3.912-6.705-7.215-6.705-1.918.001-3.687.706-4.853 1.934"/><path d="m32.001 2c-16.569 0-30.001 13.432-30.001 30-.002 16.568 13.432 30 29.999 30 16.571 0 30.003-13.432 30.001-30 .002-16.568-13.432-30-29.999-30m14.589 18.498c-3.702.044-5.579 1.697-7.571 4.537-.587.838-1.136 1.508-1.693 2.063 3.063 1.83 4.99 5.038 5.322 8.91.037.134.055.318.043.51.012.141-.007.327-.056.534-.46 5.1-4.408 10.448-10.198 10.448-.172 0-.346-.005-.52-.015-5.419-.298-11.058-4.597-10.72-11.021.206-3.914 2.271-7.573 5.322-9.515-.517-.535-1.024-1.168-1.54-1.918-1.9-2.766-3.828-4.488-7.569-4.533-1.263-.016-1.916-1.034-1.91-2.031.006-.978.658-1.967 1.894-1.967 3.233.036 5.554.686 7.123 1.986.973.808 1.795 1.936 2.59 3.025 1.434 1.968 2.788 3.826 4.931 3.978 2.07-.151 3.424-2.009 4.858-3.976.796-1.092 1.618-2.22 2.591-3.027 1.568-1.301 3.889-1.95 7.093-1.986 1.264 0 1.916.989 1.922 1.967.004.997-.649 2.015-1.912 2.031"/></svg>