<svg xmlns="http://www.w3.org/2000/svg" viewBox="0 0 64 64" enable-background="new 0 0 64 64"><path d="m29.813 20.916v22.167c1.414-.045 2.831-.048 4.243-.005v-22.158c-1.413.044-2.829.04-4.243-.004"/><path d="m32 2c-16.568 0-30 13.432-30 30s13.432 30 30 30 30-13.432 30-30-13.432-30-30-30m18.092 43.53c1.123.316 1.506 1.324 1.387 2.183-.123.888-.81 1.787-1.885 1.787-.182 0-.369-.026-.557-.079-11.037-3.105-22.962-3.114-34.075-.033-.186.052-.37.078-.551.078-1.08 0-1.769-.903-1.89-1.796-.117-.857.268-1.862 1.39-2.173 3.861-1.07 7.881-1.8 11.956-2.17v-22.656c-4.065-.367-8.085-1.097-11.956-2.17-1.122-.311-1.507-1.314-1.391-2.172.122-.892.81-1.795 1.891-1.795.18 0 .365.026.551.078 11.116 3.079 23.04 3.069 34.075-.033.188-.053.375-.079.557-.079 1.076 0 1.763.899 1.885 1.788.119.858-.264 1.865-1.387 2.182-3.901 1.097-7.965 1.839-12.088 2.208v22.645c4.123.368 8.186 1.111 12.088 2.207"/></svg>