<svg xmlns="http://www.w3.org/2000/svg" viewBox="0 0 64 64" enable-background="new 0 0 64 64"><path d="m32.002 2c-16.57 0-30.002 13.432-30.002 30-.002 16.568 13.432 30 30 30 16.57 0 30.002-13.432 30-30 .002-16.568-13.432-30-29.998-30m-16.724 22.757c.029-.113.098-.271.188-.422.054-.116.147-.256.271-.401.365-.544.84-1.081 1.38-1.558.111-.186.254-.354.428-.501 4.213-3.518 9.25-5.376 14.568-5.376 3.57 0 7.08.833 10.428 2.477.799.392 1.173 1.156.978 1.995-.29 1.246-1.724 2.003-2.896 1.426-2.713-1.332-5.577-2.007-8.513-2.007-2.106 0-4.163.352-6.127 1.048 3.666 2.502 4.904 7.414 2.76 10.952-1.484 2.45-4.172 4.032-6.849 4.032-1.33 0-2.563-.381-3.667-1.135-3.474-2.369-4.66-6.601-2.949-10.53m33.444 14.489c-.037.131-.104.279-.189.422-.054.113-.15.26-.273.398-.361.541-.836 1.076-1.376 1.553-.112.191-.257.361-.432.508-4.21 3.514-9.247 5.373-14.566 5.373-3.572 0-7.08-.834-10.427-2.477-.798-.393-1.172-1.158-.977-1.996.289-1.246 1.722-2.002 2.896-1.426 4.617 2.268 9.976 2.611 14.64.961-3.665-2.5-4.902-7.412-2.759-10.953 1.481-2.449 4.17-4.032 6.849-4.032 1.329 0 2.563.382 3.666 1.134 3.474 2.373 4.66 6.607 2.948 10.535"/><path d="m20.227 31.913c.596.326 1.262.499 1.925.499 1.396 0 2.587-.737 3.188-1.974.678-1.396.618-2.914-.164-4.163-.733-1.172-2.01-1.929-3.253-1.929-.854 0-2.081.344-3.072 1.981-.884 1.822-.556 4.528 1.376 5.586"/><path d="m43.774 32.088c-.598-.326-1.263-.498-1.926-.498-1.395 0-2.586.737-3.186 1.972-.68 1.395-.621 2.912.161 4.162.733 1.174 2.011 1.93 3.253 1.93.855 0 2.082-.344 3.073-1.982.885-1.822.556-4.527-1.375-5.584"/></svg>