<svg xmlns="http://www.w3.org/2000/svg" viewBox="0 0 64 64" enable-background="new 0 0 64 64"><path d="m32.002 2c-16.568 0-30.002 13.432-30.002 30-.002 16.568 13.434 30 30 30 16.57 0 30.002-13.432 30-30 .002-16.568-13.432-30-29.998-30m14.448 39.041c-.901 4.064-3.354 8.811-7.297 8.811h-.001c-.384 0-.778-.047-1.174-.135-2.052-.465-3.47-1.52-4.216-3.135-1.018-2.207-.66-5.367.959-8.453l.729-1.371c1.739-3.264 3.537-6.638 4.208-10.202.458-2.433.872-5.901-.813-7.932-.975-1.176-2.605-1.772-4.846-1.772-2.358 0-3.998.646-4.872 1.919-2.19 3.189.441 10.029 2.183 14.556.517 1.344.963 2.504 1.251 3.445.038.129.057.244.072.361.518 1.648.358 3.488-.481 5.238-.041.129-.12.289-.217.432-.061.117-.167.258-.308.402-1.522 1.988-4.053 3.252-6.564 3.252-1.331 0-2.571-.344-3.686-1.021-1.887-1.146-3.279-3.049-3.724-5.09-.385-1.768-.062-3.477.935-4.945 1.675-2.463 4.837-3.949 7.744-3.595-1.881-4.876-3.356-9.882-1.157-13.789 1.793-3.186 5.196-5.165 8.881-5.165 2.045 0 4.046.607 5.787 1.754 7.289 4.808 3.448 15.247 1.459 19.511-.398.854-.896 1.727-1.424 2.652-1.258 2.205-2.558 4.486-2.607 6.682-.01.439.142.834.439 1.137.357.367.91.586 1.477.586.74 0 1.36-.355 1.701-.973.382-.629.692-1.283.934-1.959.236-.688.482-1.43.65-2.191.198-.891.9-1.443 1.832-1.443.689 0 1.372.316 1.783.828.363.451.492 1.021.363 1.605"/><path d="m25.418 42.424c1.21 0 2.277-.588 3.005-1.658.714-1.314.377-2.426-.035-3.119-.7-1.18-2.096-1.973-3.472-1.973-1.192 0-2.183.611-2.789 1.723-.766 1.402-.444 2.508-.04 3.191.653 1.098 1.992 1.836 3.331 1.836"/></svg>