<svg xmlns="http://www.w3.org/2000/svg" viewBox="0 0 64 64" enable-background="new 0 0 64 64"><path d="m32 2c-16.568 0-30 13.432-30 30s13.432 30 30 30 30-13.432 30-30-13.432-30-30-30m-15.586 33.619h6.231c-.858-1.051-1.421-2.287-1.926-3.475-1.075-2.523-1.298-5.788-.567-8.316 1.411-4.892 5.933-9.844 11.848-9.844 5.896 0 10.456 4.412 11.618 11.24.448 2.633-.049 5.781-1.268 8.018-.18.33-.959 1.316-1.847 2.322h7.082c1.257 0 1.913 1.002 1.913 1.991s-.656 1.991-1.913 1.991h-12.04c-1.081 0-1.961-.893-1.961-1.99v-.178c0-.722.397-1.417.988-1.73 3.505-1.852 6.356-6.139 5.027-10.75-.962-3.328-3.463-6.885-7.6-6.885-4.504 0-6.867 3.385-7.578 6.553-.871 3.885.301 9.062 4.932 11.249.663.314 1.009 1.114 1.009 1.741 0 1.152-.88 2.047-1.961 2.047h-11.987c-1.256 0-1.914-1.002-1.914-1.992s.658-1.992 1.914-1.992m31.152 11.365h-31.132c-1.27 0-1.934-1.014-1.934-2.015s.665-2.015 1.934-2.015h31.133c1.27 0 1.935 1.014 1.935 2.015s-.666 2.015-1.936 2.015"/></svg>