<svg xmlns="http://www.w3.org/2000/svg" viewBox="0 0 64 64" enable-background="new 0 0 64 64"><path d="m32.001 2c-16.568 0-30.001 13.432-30.001 30-.002 16.568 13.433 30 29.999 30 16.57 0 30.003-13.432 30.001-30 .002-16.568-13.433-30-29.999-30m17.113 42.914c-.079.164-.186.326-.305.46l-.002-.001-.021.029-4.797 4.937c-.41.423-.912.646-1.451.646-.844 0-1.678-.578-2.026-1.404-.33-.783-.163-1.623.446-2.25l1.267-1.304c-3.327-.288-5.718-2.616-6.118-5.983-.041-.139-.065-.322-.065-.512v-19.026c-.078-1.471-1.14-2.141-2.157-2.141s-2.081.67-2.16 2.167v23.433c0 2.733-4.273 2.733-4.273 0v-23.459c-.079-1.471-1.141-2.141-2.158-2.141-1.01 0-2.068.663-2.157 2.145l.004 23.455c0 2.733-4.274 2.733-4.274 0l-.008-23.459c-.042-1.271-.953-2.207-2.163-2.238-1.38-.041-2.085-1.147-2.069-2.219.015-1.022.717-2.057 2.029-2.057 1.668.048 3.166.653 4.323 1.716 1.194-1.189 2.714-1.799 4.34-1.715 1.65.092 3.104.687 4.236 1.729 1.195-1.199 2.717-1.811 4.353-1.729 3.402.188 5.951 2.602 6.344 6.009.021.062.064.261.064.504v19.025c.063 1.085.578 1.752 1.674 2.082l-1.027-1.034c-.615-.62-.789-1.457-.464-2.237.347-.834 1.187-1.416 2.041-1.416.535 0 1.035.219 1.446.632 1.198 1.21 2.396 2.416 3.594 3.621l1.283 1.302c.102.127.189.268.266.43.333.601.333 1.36-.015 2.003"/></svg>