<svg xmlns="http://www.w3.org/2000/svg" viewBox="0 0 64 64" enable-background="new 0 0 64 64"><path d="m32 2c-16.568 0-30 13.432-30 30-.001 16.568 13.432 30 30 30 16.569 0 30.001-13.432 30-30 .001-16.568-13.432-30-30-30m16.5 29.998c0 2.504-3.909 2.504-3.909 0v-9.826l-17.098 17.1 5.89 5.889c.565.565.726 1.329.43 2.045-.315.762-1.084 1.295-1.868 1.295-.491 0-.949-.199-1.326-.576l-5.89-5.891-5.938 5.935c-.084.083-.174.155-.281.225-.122.078-.211.125-.31.164-.08.032-.163.058-.247.081l-.144.021c-.055.022-.189.037-.324.037l-.146-.007c-.764-.038-1.387-.487-1.655-1.203-.337-.665-.223-1.45.328-2.052l5.953-5.963-5.89-5.891c-.565-.565-.726-1.329-.43-2.045.315-.762 1.084-1.295 1.868-1.295.491 0 .949.199 1.326.576l5.89 5.891 17.099-17.1h-9.826c-1.252 0-1.908-.983-1.908-1.954s.656-1.954 1.908-1.954l14.653.012c.989.061 1.774.847 1.835 1.824l.01.115v14.547"/></svg>