<svg xmlns="http://www.w3.org/2000/svg" viewBox="0 0 64 64" enable-background="new 0 0 64 64"><path d="m32 2c-16.568 0-30 13.432-30 30s13.432 30 30 30 30-13.432 30-30-13.432-30-30-30m16.437 35.973c-.451 3.799-3.523 6.712-7.135 6.712-.115 0-.232-.004-.351-.01-1.847-.095-3.698-.831-5.089-2.002-1.746 3.66-4.588 5.722-8.063 5.827l-.068.001c-1.197 0-1.839-.945-1.854-1.879-.014-.98.631-1.994 1.893-2.032 2.896-.084 4.27-2.768 4.726-3.917.352-.888.609-1.705.788-2.501.016-.076.119-.646.119-.646-.796-2.497-4.959-16.368-5.29-16.888-.492-.77-1.347-1.248-2.229-1.248-1.217 0-2.106.847-2.381 2.266l.015 21.067c.001.53-.183.994-.528 1.341-.994.998-3.383.617-3.386-1.34l-.004-21.296c-.042-1.139-.97-1.985-2.205-2.018-1.261-.034-1.908-1.044-1.895-2.023.013-.937.655-1.886 1.859-1.886 1.649.044 3.165.659 4.28 1.707 1.162-1.036 2.727-1.623 4.368-1.623 2.839 0 5.151 1.659 6.035 4.33 1.077 3.256 3.789 12.217 3.789 12.217 1.407-1.379 3.245-2.124 5.171-2.012 4.025.208 7.018 2.933 7.447 6.779.041.146.04.865-.012 1.074"/><ellipse cx="40.979" cy="37.403" rx="3.606" ry="3.261"/></svg>