<svg xmlns="http://www.w3.org/2000/svg" viewBox="0 0 64 64" enable-background="new 0 0 64 64"><path d="m32 2c-16.568 0-30 13.432-30 30s13.432 30 30 30 30-13.432 30-30-13.432-30-30-30m19.5 42.396c0 2.596-3.93 2.596-3.93 0v-4.853l-8.715 6.57c-.295.223-.642.341-1.002.341-1.049 0-2.004-.981-2.004-2.059v-4.853l-8.713 6.57c-.295.223-.642.341-1.002.341-1.049 0-2.004-.981-2.004-2.059v-4.853l-8.713 6.57c-.34.256-.702.387-1.074.387-.75 0-1.442-.563-1.722-1.398-.307-.915-.025-1.867.716-2.426l11.719-8.836c.296-.223.643-.341 1.003-.341 1.047 0 2.001.981 2.001 2.059v4.853l8.715-6.57c.296-.223.643-.341 1.003-.341 1.047 0 2.001.981 2.001 2.059v4.853l8.717-6.57c.295-.223.642-.341 1.003-.341 1.047 0 2.001.981 2.001 2.059v8.838m0-16c0 2.596-3.93 2.596-3.93 0v-4.853l-8.715 6.57c-.295.223-.642.341-1.002.341-1.049 0-2.004-.981-2.004-2.059v-4.853l-8.713 6.57c-.295.223-.642.341-1.002.341-1.049 0-2.004-.981-2.004-2.059v-4.853l-8.713 6.57c-.34.256-.702.387-1.074.387-.75 0-1.442-.563-1.722-1.398-.307-.915-.025-1.867.716-2.426l11.719-8.836c.296-.223.643-.341 1.003-.341 1.047 0 2.001.981 2.001 2.059v4.853l8.715-6.57c.296-.223.643-.341 1.003-.341 1.047 0 2.001.981 2.001 2.059v4.853l8.717-6.57c.295-.223.642-.341 1.003-.341 1.047 0 2.001.981 2.001 2.059v8.838"/></svg>