<svg xmlns="http://www.w3.org/2000/svg" viewBox="0 0 64 64" enable-background="new 0 0 64 64"><path d="m32 2c-16.568 0-30 13.432-30 30s13.432 30 30 30 30-13.432 30-30-13.432-30-30-30m13.578 43.455c.763.575 1.043 1.509.732 2.434-.286.853-1.002 1.426-1.782 1.426-.393 0-.772-.137-1.13-.408-4.974-3.764-8.017-9.025-8.605-14.857h-5.304c-.601 5.974-3.746 11.308-8.895 15.061-.356.26-.733.392-1.122.392-.799 0-1.525-.583-1.808-1.449-.3-.922-.007-1.843.764-2.405 3.934-2.87 6.394-6.972 6.969-11.598h-5.887c-1.321 0-2.012-1.025-2.012-2.038s.691-2.038 2.012-2.038h5.885c-.577-4.638-3.047-8.747-6.997-11.617-.772-.562-1.066-1.482-.767-2.404.419-1.286 1.839-1.854 2.931-1.061 5.167 3.756 8.324 9.097 8.927 15.082h5.304c.59-5.832 3.632-11.095 8.604-14.859 1.066-.811 2.481-.266 2.911 1.017.312.926.031 1.859-.731 2.437-3.772 2.856-6.136 6.891-6.698 11.406h5.608c1.321 0 2.012 1.025 2.012 2.038s-.69 2.038-2.012 2.038h-5.607c.562 4.513 2.926 8.548 6.698 11.403"/></svg>