<svg xmlns="http://www.w3.org/2000/svg" viewBox="0 0 64 64" enable-background="new 0 0 64 64"><path d="M51.381,33.332c3.331,2.309,5.335,5.219,5.335,8.391c0,7.48-11.066,13.545-24.716,13.545S7.285,49.203,7.285,41.723
			c0-3.172,2.003-6.082,5.334-8.389C6.131,36.316,2,40.762,2,45.736C2,54.719,15.431,62,32,62s30-7.281,30-16.264
			C62,40.762,57.869,36.316,51.381,33.332z"/><path d="m20.317 2c0 0-1.813 6.07-1.813 13.332 0 5.953 4.582 8.93 4.582 13.9 0 9.85-6.34 16.25-6.34 16.25s2.321-5.09 2.321-13.75c0-3.008-4.285-9.733-4.285-14.02 0-9.403 5.535-15.712 5.535-15.712"/><path d="m33.384 2c0 0-1.816 6.07-1.816 13.332 0 5.953 4.585 8.93 4.585 13.9 0 9.85-6.34 16.25-6.34 16.25s2.321-5.09 2.321-13.75c0-3.008-4.285-9.733-4.285-14.02 0-9.403 5.535-15.712 5.535-15.712"/><path d="m46.45 2c0 0-1.816 6.07-1.816 13.332 0 5.953 4.585 8.93 4.585 13.9 0 9.85-6.34 16.25-6.34 16.25s2.321-5.09 2.321-13.75c0-3.008-4.285-9.733-4.285-14.02 0-9.403 5.535-15.712 5.535-15.712"/></svg>