<svg xmlns="http://www.w3.org/2000/svg" viewBox="0 0 64 64" enable-background="new 0 0 64 64"><path d="m20.285 34.582l6.094 3.52-8.031-14.238-16.348.163 6.098 3.518-4.894 8.475c-.496.858-1.018 2.248-.294 3.504l8.308 14.387c1.488 2.578 4.08 2.563 5.957 2.563h13.278v-15.419h-13.906l3.738-6.473"/><path d="m60.567 32.636l-6.64-11.499-13.353 7.708 6.952 12.042-7.473-.001v-7.034l-8.313 14.073 8.317 14.075-.002-7.039h9.783c.992 0 2.458-.243 3.182-1.497l8.307-14.387c1.487-2.58.179-4.815-.76-6.441"/><path d="m32.563 13.044l3.735 6.474-6.093 3.52 16.347.161 8.031-14.24-6.095 3.521-4.891-8.473c-.497-.859-1.441-2.007-2.888-2.007h-16.613c-2.978 0-4.261 2.252-5.198 3.878l-6.64 11.499 13.353 7.709 6.952-12.042"/></svg>