<svg xmlns="http://www.w3.org/2000/svg" viewBox="0 0 64 64" enable-background="new 0 0 64 64"><path d="M32,2C15.432,2,2,15.432,2,32s13.432,30,30,30s30-13.432,30-30S48.568,2,32,2z M30.999,9C33.209,9,35,10.789,35,13
	c0,2.209-1.791,4-4.001,4C28.79,17,27,15.209,27,13C27,10.789,28.79,9,30.999,9z M29.375,53C22.552,53,17,47.459,17,40.646
	c0-5.369,3.45-9.947,8.25-11.646v4.518c-2.463,1.426-4.123,4.086-4.123,7.129c0,4.541,3.699,8.236,8.248,8.236
	c3.067,0,5.744-1.682,7.166-4.168L39,48.396C36.73,51.201,33.26,53,29.375,53z M45.482,52l-7.373-11.408H29V20h3.991v8.236h7.982
	v4.119h-7.982v4.117h7.253l5.932,9.182l2.48-2.656L51,46.402L45.482,52z"/></svg>