<svg xmlns="http://www.w3.org/2000/svg" viewBox="0 0 64 64" enable-background="new 0 0 64 64"><path d="m56.911 21.28l.406-.394c.35-.336.35-.881 0-1.221l-9.538-9.233c-.351-.339-.915-.339-1.266 0 0 0-1.979 1.129-2.338-1.837-.143-1.193-.413-1.939-.768-2.365-.044-.049-2.011-1.977-2.011-1.977-.351-.338-.916-.338-1.266 0l-7.139 6.912c-.35.336-.35.885 0 1.223 0 0 1.991 1.905 2.043 1.945.439.345 1.209.606 2.443.744 3.064.348 1.896 2.262 1.896 2.262-.351.339-.349.889 0 1.225l2.069 2.003-5.357 5.185-.793-.768c0 0-2.817 1.747-5.912 4.745-3.419 3.308-5.335 7.679-9.846 12.044-6.783 6.565-10.083 8.053-12.818 10.034-1.032.745-.935.863.01 1.778l2.94 2.848 2.94 2.846c.945.912 1.068 1.006 1.84.01 2.045-2.646 3.706-5.721 10.489-12.289 4.51-4.363 9.029-6.219 12.444-9.527 3.096-2.997 4.902-5.723 4.902-5.723l-.793-.769 5.354-5.185 2.069 2.004c.35.336.916.336 1.264-.002l.313-.303c1.83 1.495 7.73 6.913 5.864 13.239-.255.865-.695 1.636-.47 1.855.307.295 1.481-.838 2.165-1.505 8.69-8.474.591-17.971-1.136-19.804"/><path d="m40.77 36.448c-.726.804-1.542 1.661-2.448 2.539-1.281 1.24-2.686 2.32-4.174 3.369l14.165 14.144c.865.859 2.275.857 3.135 0l3.135-3.13c.865-.862.863-2.271 0-3.13l-13.813-13.792"/><path d="m12.581 29.379l4.285-4.278 7.885 7.873c1.044-1.378 2.123-2.682 3.355-3.874.966-.937 1.911-1.775 2.787-2.512l-7.759-7.746 4.283-4.276c.875-.869.877-2.297 0-3.168l-6.752-6.742c-.873-.873-2.301-.873-3.177-.002l-4.281 4.276-1.655-1.652c-.86-.86-2.271-.86-3.134-.002l-3.134 3.132c-.862.86-.861 2.268 0 3.128l1.655 1.652-4.285 4.278c-.872.871-.871 2.297 0 3.17l6.757 6.743c.871.871 2.297.87 3.17 0"/></svg>