<svg xmlns="http://www.w3.org/2000/svg" viewBox="0 0 64 64" enable-background="new 0 0 64 64"><path d="m60.247 27c-4.871 9-9.025 9.102-8.156 11.365.494 1.287 2.062 1.153 3.322.798-19.602 21.59-20.496 1.708-20.555-3.794-.027-2.63-.139-7.845-.244-12.465 2.146-.143 4.281-.453 6.386-.947 0-1.305 0-2.609 0-3.914-2.148-.505-4.331-.821-6.521-.959-.014-.581-.026-1.094-.037-1.53 2.661-.992 4.558-3.548 4.558-6.554 0-3.867-3.134-7-7-7s-7 3.133-7 7c0 3.006 1.899 5.563 4.561 6.555-.011.436-.023.951-.037 1.529-2.191.138-4.374.454-6.523.959 0 1.305 0 2.609 0 3.914 2.104.494 4.241.805 6.386.947-.105 4.621-.216 9.835-.244 12.465-.059 5.502-.953 25.383-20.554 3.795 1.261.354 2.827.488 3.322-.799.868-2.263-3.286-2.365-8.158-11.365 0 0-3.723 15.193-.317 17.773 1.467 1.112 2.504-2.119 3.026-4.348 1.791 3.71 5.755 8.998 14.527 14.834 5.658 3.768 11.011 6.741 11.011 6.741s5.354-2.973 11.012-6.74c8.771-5.836 12.735-11.123 14.526-14.834.522 2.229 1.56 5.459 3.027 4.348 3.405-2.581-.318-17.774-.318-17.774m-28.247-22c2.209 0 4 1.791 4 4s-1.791 4-4 4-4-1.791-4-4 1.791-4 4-4"/></svg>