<svg xmlns="http://www.w3.org/2000/svg" viewBox="0 0 64 64" enable-background="new 0 0 64 64"><path d="m61.016 53.798c-1.404-1.171-1.901-1.459-2.191-1.244-.077-.376-.256-.728-.563-1.004-.431-.39-1.018-.562-1.631-.543-.02-.496-.209-.965-.6-1.318-.432-.391-1.02-.563-1.633-.544-.019-.496-.208-.965-.599-1.318-.431-.391-1.019-.563-1.631-.545-.019-.496-.208-.965-.6-1.318-.501-.455-1.212-.615-1.932-.516 1.663-2.698-.462-5.752-2.124-7.141-1.043-.87-.545.283-2.389 3.103-2.701-2.27-5.104-4.398-7.242-6.393 4.246-2.936 8.923-6.394 13.626-10.321 11.729-9.793 10.452-20.696 10.452-20.696s-1.354 1.384-3.682 3.002c-3.294 2.29-8.542 5.06-14.677 5.06-.091 0-.183-.001-.273-.002 0 0-.315 5.472-11.329 17.129-11.012-11.658-11.325-17.129-11.325-17.129-.091.001-.183.002-.273.002-6.135 0-11.383-2.77-14.677-5.06-2.328-1.618-3.682-3.002-3.682-3.002s-1.277 10.903 10.45 20.695c4.694 3.92 9.376 7.39 13.616 10.322-2.138 1.995-4.529 4.12-7.233 6.392-1.843-2.819-1.345-3.973-2.388-3.103-1.662 1.389-3.787 4.442-2.124 7.141-.719-.1-1.431.061-1.932.516-.391.354-.581.822-.6 1.318-.613-.019-1.2.154-1.631.545-.391.354-.58.822-.599 1.318-.613-.02-1.201.153-1.632.544-.391.354-.58.822-.599 1.318-.613-.019-1.201.153-1.631.543-.306.276-.485.628-.562 1.004-.291-.215-.788.073-2.192 1.244-2.438 2.038.236 1.152 1.75 2.947 2.231 2.646 8.058 5.167 12.837 1.175 3.932-3.281 5.668-8.577 3.903-12.668 1.348-.734 5.276-2.931 10.526-6.305 5.256 3.379 9.178 5.569 10.525 6.306-1.765 4.091-.029 9.387 3.903 12.668 4.779 3.992 10.605 1.472 12.837-1.175 1.514-1.795 4.189-.909 1.751-2.947m-53.843 1.689c.89.297 1.849.184 2.48-.389.389-.353.578-.821.597-1.317.613.02 1.2-.153 1.632-.543.39-.354.579-.822.598-1.319.613.02 1.201-.154 1.634-.544.389-.353.578-.822.597-1.318.613.02 1.201-.152 1.633-.543.386-.352.576-.816.598-1.309 3.628 5.063-4.455 11.827-9.769 7.282m37.356-41.945c4.43-.188 8.369-1.681 11.469-3.369-1.197 3.742-3.731 8.295-8.955 12.654-4.173 3.485-8.326 6.596-12.17 9.299-.643-.635-1.261-1.257-1.846-1.86 8.319-8.816 10.786-14.322 11.502-16.724m-25.058 0c.951 3.187 4.944 11.821 21.674 26.438-5.745-3.468-14.952-9.44-24.188-17.152-5.223-4.359-7.757-8.912-8.955-12.654 3.1 1.687 7.04 3.18 11.469 3.368m3.384 26.437c1.629-1.423 3.123-2.782 4.52-4.093.325.222.646.438.966.653-2.038 1.322-3.903 2.484-5.486 3.44m24.203 8.226c.022.492.212.957.598 1.309.433.391 1.021.563 1.634.543.019.496.208.966.597 1.318.433.39 1.021.563 1.634.544.02.497.208.966.598 1.319.432.39 1.02.563 1.633.543.019.496.207.965.597 1.317.632.572 1.591.686 2.48.389-5.316 4.545-13.399-2.219-9.771-7.282"/></svg>