<svg xmlns="http://www.w3.org/2000/svg" viewBox="0 0 64 64" enable-background="new 0 0 64 64"><path d="m39.5 34.813c0 6.213 5.037 11.25 11.25 11.25s11.25-5.038 11.25-11.25h-1.675l-7.305-18.597c.895-.685 1.48-1.752 1.48-2.966 0-2.07-1.68-3.75-3.75-3.75-.548 0-1.064.124-1.533.334-.717-.28-1.636-.643-2.289-.911-2.868-1.176-6.205-2.53-9.68-3.31-.81-2.11-2.851-3.613-5.248-3.613-2.396 0-4.438 1.503-5.248 3.614-3.476.779-6.813 2.133-9.681 3.31-.653.268-1.572.63-2.289.911-.469-.211-.985-.335-1.532-.335-2.071 0-3.75 1.68-3.75 3.75 0 1.214.586 2.281 1.479 2.966l-7.305 18.597h-1.674c0 6.213 5.037 11.25 11.25 11.25s11.25-5.037 11.25-11.25h-1.675l-7.305-18.596c.894-.686 1.48-1.753 1.48-2.967 0-.087-.021-.169-.026-.255.312-.126.613-.248.935-.379 2.631-1.081 5.678-2.324 8.805-3.083.57 1.581 1.826 2.83 3.412 3.391v5.732h-1.15v18.032h-1.25v8.829c-6.203 1.151-10.726 4.735-10.726 8.983h-1.875v3.75h-3.75v3.75h41.25v-3.75h-3.75v-3.75h-1.875c0-4.248-4.525-7.832-10.725-8.983v-8.829h-1.25v-18.033h-1.15v-5.732c1.585-.561 2.841-1.81 3.411-3.391 3.128.759 6.173 2.002 8.806 3.083.32.132.622.253.934.38-.006.086-.026.168-.026.255 0 1.214.586 2.281 1.479 2.966l-7.305 18.596h-1.674zm-26.25-23.438c1.035 0 1.875.84 1.875 1.875s-.84 1.875-1.875 1.875-1.875-.84-1.875-1.875.84-1.875 1.875-1.875m7.639 23.438h-15.281l7.022-17.875c.203.034.408.062.62.062s.416-.028.618-.063l7.021 17.876m29.861-23.438c1.035 0 1.875.84 1.875 1.875s-.84 1.875-1.875 1.875-1.875-.84-1.875-1.875.84-1.875 1.875-1.875m-.619 5.563c.202.034.406.062.619.062.211 0 .416-.028.618-.063l7.021 17.875h-15.282l7.024-17.874"/></svg>