<svg xmlns="http://www.w3.org/2000/svg" viewBox="0 0 64 64" enable-background="new 0 0 64 64"><path d="m60.432 23.979c-.783-.488-19.299-11.979-26.229-13.402l-.355-.075c-1.055-.223-2.366-.502-4.366-.502-11 0-19.95 9.14-19.95 20.375 0 1.838.261 3.61.71 5.307-.781.164-1.372.875-1.372 1.721 0 .832.572 1.528 1.334 1.708l-8.204 22.889h1.717l8.847-20.881c3.322 5.436 9.069 9.15 15.69 9.566l.369 11.315h1.718l.368-11.314c6.624-.416 12.37-4.133 15.692-9.568l8.845 20.882h1.717l-8.205-22.89c.762-.18 1.336-.876 1.336-1.708 0-.846-.594-1.557-1.373-1.721.449-1.696.709-3.469.709-5.307 0-.979-.07-1.959-.209-2.931l8.182 2.579 1.475.464.762-1.352 1.451-2.568.909-1.612-1.568-.975m-46.813 15.18h3.079c2.54 3.854 6.667 6.517 11.407 6.955l.086 2.642c-6.302-.457-11.713-4.208-14.572-9.597m17.153 9.597l.086-2.642c4.742-.438 8.869-3.101 11.408-6.955h3.078c-2.86 5.389-8.27 9.14-14.572 9.597m27.203-20.571l-11.359-3.578-.016-.014c.588 1.819.916 3.76.916 5.782 0 1.832-.27 3.599-.756 5.271h-2.678-.088c.602-1.7.945-3.521.945-5.423h-30.916c0 1.901.345 3.723.946 5.423h-.087-2.679c-.487-1.672-.757-3.438-.757-5.271 0-10.189 8.075-18.449 18.036-18.449 2.029 0 3.268.317 4.338.537 6.676 1.371 25.605 13.153 25.605 13.153l-1.45 2.569"/></svg>