<svg xmlns="http://www.w3.org/2000/svg" viewBox="0 0 64 64" enable-background="new 0 0 64 64"><path d="m60.953 39.151l-4.061-2.582c.271-1.482.42-3.008.42-4.568 0-1.56-.148-3.084-.419-4.566l4.06-2.582c.912-.581 1.305-1.915.868-2.964l-1.583-3.821c-.435-1.051-1.656-1.718-2.711-1.483l-4.695 1.044c-1.744-2.523-3.936-4.714-6.459-6.459l1.045-4.696c.234-1.055-.432-2.276-1.482-2.71l-3.822-1.584c-1.051-.438-2.386-.046-2.966.868l-2.582 4.06c-1.482-.271-3.005-.42-4.566-.42-1.561 0-3.086.149-4.567.419l-2.582-4.06c-.581-.914-1.914-1.306-2.965-.87l-3.82 1.584c-1.051.434-1.719 1.656-1.483 2.712l1.044 4.695c-2.524 1.745-4.714 3.935-6.458 6.458l-4.696-1.044c-1.055-.236-2.276.432-2.711 1.481l-1.583 3.821c-.436 1.051-.044 2.386.868 2.966l4.061 2.582c-.27 1.482-.419 3.007-.419 4.567 0 1.561.149 3.085.419 4.566l-4.061 2.582c-.913.581-1.304 1.915-.868 2.967l1.583 3.821c.436 1.049 1.656 1.718 2.711 1.481l4.696-1.045c1.745 2.523 3.935 4.714 6.458 6.459l-1.045 4.696c-.236 1.055.433 2.276 1.482 2.71l3.821 1.584c1.052.434 2.385.044 2.966-.869l2.582-4.06c1.482.271 3.007.419 4.567.419 1.56 0 3.083-.148 4.566-.419l2.582 4.06c.58.913 1.915 1.303 2.965.869l3.82-1.582c1.053-.436 1.719-1.657 1.483-2.712l-1.044-4.696c2.523-1.744 4.715-3.936 6.459-6.459l4.695 1.045c1.055.236 2.276-.433 2.711-1.481l1.583-3.821c.438-1.05.045-2.384-.867-2.963m-35.41 11.432l-2.066-.855c-4.019-1.938-7.271-5.19-9.205-9.209l-.852-2.056c-.705-2.027-1.107-4.195-1.107-6.462 0-2.273.405-4.446 1.113-6.478l.842-2.033c1.935-4.022 5.188-7.277 9.208-9.215l2.068-.857c2.025-.704 4.19-1.105 6.455-1.105 2.26 0 4.423.4 6.445 1.102l2.088.865c4.008 1.934 7.252 5.177 9.187 9.184l.869 2.1c.7 2.02 1.099 4.179 1.099 6.437s-.398 4.418-1.099 6.438l-.869 2.1c-1.935 4.008-5.179 7.25-9.187 9.184l-2.088.865c-2.022.701-4.186 1.102-6.445 1.102-2.264-.002-4.43-.404-6.456-1.107"/><path d="m47 32.001c0-8.284-6.715-15-15-15-8.283 0-15 6.716-15 15 0 8.284 6.717 15 15 15 8.285 0 15-6.716 15-15m-22.5 0c0-4.142 3.358-7.5 7.5-7.5 4.141 0 7.5 3.358 7.5 7.5 0 4.142-3.358 7.5-7.5 7.5-4.141 0-7.5-3.358-7.5-7.5"/></svg>