<svg xmlns="http://www.w3.org/2000/svg" viewBox="0 0 64 64" enable-background="new 0 0 64 64"><path d="m57.873 31.999c.156-.213.316-.426.467-.639 3.891-5.556 4.711-10.714 2.313-14.525-2.217-3.521-6.98-5.46-13.416-5.46-1.123 0-2.287.066-3.477.183-2.893-5.907-7.057-9.558-11.76-9.558-4.701 0-8.865 3.651-11.758 9.558-1.189-.117-2.354-.183-3.476-.183-6.434 0-11.199 1.939-13.416 5.46-2.4 3.811-1.579 8.969 2.311 14.525.15.213.31.426.467.639-.158.213-.318.425-.468.64-3.89 5.554-4.711 10.714-2.311 14.525 2.217 3.52 6.982 5.461 13.416 5.461.002 0 .002 0 .002 0 1.122 0 2.285-.066 3.474-.184 2.893 5.909 7.057 9.559 11.759 9.559 4.704 0 8.868-3.65 11.76-9.559 1.189.117 2.354.184 3.477.184 6.436 0 11.199-1.939 13.416-5.461 2.398-3.811 1.578-8.971-2.313-14.525-.151-.215-.311-.427-.467-.64m-10.637-18.904c5.736 0 9.924 1.633 11.791 4.6 2.031 3.226 1.229 7.749-2.266 12.736-.018.025-.039.05-.057.075-2.531-3.048-5.826-5.982-9.668-8.626-.586-3.181-1.447-6.099-2.527-8.666.93-.077 1.843-.119 2.727-.119m-7.41 31.335c-2.566 1.359-5.199 2.504-7.825 3.459-2.626-.955-5.26-2.1-7.827-3.459-1.92-1.018-3.745-2.113-5.466-3.266-.497-2.875-.771-5.955-.771-9.164 0-3.209.274-6.291.771-9.166 1.722-1.152 3.546-2.248 5.466-3.264 2.566-1.359 5.2-2.505 7.827-3.458 2.625.954 5.258 2.1 7.825 3.458 1.92 1.016 3.744 2.112 5.465 3.263.498 2.875.771 5.957.771 9.167 0 3.208-.273 6.291-.771 9.166-1.721 1.15-3.545 2.248-5.465 3.264m4.983-.842c-.578 2.549-1.342 4.895-2.254 6.971-2.553-.342-5.223-.949-7.938-1.791 2.068-.83 4.129-1.783 6.146-2.85 1.397-.738 2.747-1.518 4.046-2.33m-15.426 5.18c-2.714.842-5.384 1.449-7.936 1.791-.914-2.076-1.676-4.422-2.255-6.971 1.299.813 2.649 1.592 4.045 2.33 2.017 1.068 4.077 2.021 6.146 2.85m-12.814-9.098c-3.239-2.393-5.993-4.992-8.136-7.67 2.143-2.677 4.896-5.279 8.136-7.67-.33 2.441-.506 5.01-.506 7.671 0 2.659.176 5.228.506 7.669m2.622-19.257c.579-2.548 1.341-4.895 2.255-6.971 2.552.341 5.222.948 7.937 1.79-2.069.83-4.129 1.783-6.146 2.851-1.396.738-2.746 1.517-4.046 2.33m15.428-5.182c2.713-.841 5.383-1.448 7.936-1.79.912 2.076 1.676 4.422 2.254 6.971-1.299-.813-2.648-1.592-4.045-2.331-2.016-1.066-4.076-2.02-6.145-2.85m12.813 9.098c3.238 2.392 5.994 4.993 8.137 7.671-2.143 2.678-4.896 5.28-8.137 7.67.33-2.441.506-5.01.506-7.669 0-2.662-.176-5.231-.506-7.672m-15.432-20.454c3.793 0 7.239 3.024 9.77 7.923-3.143.461-6.447 1.294-9.769 2.456-3.322-1.162-6.627-1.995-9.77-2.456 2.532-4.899 5.976-7.923 9.769-7.923m-24.762 26.556c-3.492-4.987-4.297-9.511-2.266-12.736 1.868-2.967 6.057-4.6 11.793-4.6.884 0 1.796.042 2.726.119-1.082 2.567-1.942 5.485-2.529 8.666-3.841 2.644-7.136 5.579-9.667 8.626-.017-.025-.039-.05-.057-.075m9.53 20.473h-.002c-5.736 0-9.924-1.633-11.793-4.6-2.031-3.225-1.227-7.748 2.266-12.736.018-.025.04-.049.058-.074 2.531 3.047 5.826 5.982 9.667 8.627.587 3.18 1.447 6.1 2.529 8.666-.931.076-1.842.117-2.725.117m15.232 9.221c-3.792 0-7.237-3.023-9.769-7.924 3.142-.461 6.446-1.295 9.768-2.455 3.322 1.16 6.628 1.994 9.771 2.455-2.532 4.901-5.977 7.924-9.77 7.924m27.029-13.82c-1.869 2.967-6.057 4.6-11.793 4.6-.885 0-1.797-.041-2.727-.117 1.08-2.568 1.941-5.486 2.527-8.666 3.842-2.645 7.137-5.58 9.668-8.629.018.025.039.051.059.076 3.493 4.988 4.298 9.511 2.266 12.736"/><circle cx="32" cy="32" r="5.625"/></svg>