<svg xmlns="http://www.w3.org/2000/svg" viewBox="0 0 64 64" enable-background="new 0 0 64 64"><path d="m36.844 51.023c-.27-1.084 1.125-3.836-1.605-4.504-2.162-.527-3.236 1.469-3.236 1.469s-1.074-1.996-3.238-1.469c-2.729.668-1.334 3.42-1.604 4.504-.683 2.758-3.166 2.758-3.166 2.758s1.193 1.807 3.151 1.807c1.419 0 1.808-.775 1.808-.775-.304 3.007 3.048 7.187 3.048 7.187s3.351-4.18 3.048-7.188c0 0 .389.775 1.809.775 1.955 0 3.15-1.807 3.15-1.807s-2.484.001-3.165-2.757"/><path d="m55.453 25.671c-6.93-5.647-16.506-.138-19.433 9.351-.167.504-.309 1.02-.425 1.546h-1.109c.808-2.829 2.404-6.659 5.582-10.286 8.135-9.289-5.867-14.596-8.068-24.282-2.201 9.686-16.205 14.993-8.068 24.281 3.177 3.627 4.774 7.457 5.583 10.286h-1.111c-.117-.526-.259-1.042-.425-1.546-2.927-9.488-12.503-14.998-19.433-9.351-6.89 5.615-2.667 14.48 3.559 16.077 0 0-2.447-7.529 5.06-7.529 2.324 0 4.044 1.018 5.117 2.349h-.866v.932h1.373v.933h-1.373v1.645h1.373v.932h-1.373v.934h1.425c-.502.574-1.265.947-2.335.947-3.602 0-3.111-3.547-3.111-3.547-3.201.472-6.491 7.227-1.399 10.92 5.449 3.953 11.869-1.01 12.736-8.32h.621v3.965c0 0 1.871.016 2.652 1.408.783-1.393 2.656-1.408 2.656-1.408v-3.965h.611c.867 7.311 7.288 12.273 12.736 8.32 5.092-3.693 1.801-10.448-1.4-10.92 0 0 .49 3.547-3.111 3.547-1.07 0-1.833-.373-2.335-.947h1.425v-.934h-1.371v-.932h1.371v-1.645h-1.371v-.933h1.371v-.932h-.865c1.072-1.331 2.793-2.349 5.117-2.349 7.506 0 5.059 7.529 5.059 7.529 6.223-1.596 10.446-10.461 3.555-16.076"/></svg>