<svg xmlns="http://www.w3.org/2000/svg" viewBox="0 0 64 64" enable-background="new 0 0 64 64"><path d="m61.428 56.709l-26.735-52.527c-.74-1.455-1.716-2.182-2.693-2.182s-1.953.728-2.693 2.183l-26.735 52.526c-1.482 2.912.016 5.291 3.328 5.291h52.197c3.313 0 4.813-2.379 3.331-5.291m-1.555 2.664c-.24.393-.904.627-1.775.627h-52.198c-.87 0-1.534-.232-1.774-.625-.228-.373-.143-1.029.229-1.758l26.734-52.528c.431-.845.828-1.075.911-1.089.083.015.48.244.911 1.09l26.734 52.528c.371.728.457 1.384.228 1.755"/><path d="m30.551 42.051c.275 1.84 2.623 1.84 2.898 0l2.748-18.464c.506-7.199-8.904-7.199-8.396 0l2.75 18.464"/><ellipse cx="32" cy="49.605" rx="4.219" ry="4.207"/></svg>