<svg xmlns="http://www.w3.org/2000/svg" viewBox="0 0 64 64" enable-background="new 0 0 64 64"><path d="m56.924 30.46c.293-.191.479-.326.502-.344l.52-.391-.688-.093c-.023-.003-2.076-.311-3.996-1.771 1.688-.403 2.791-.375 2.806-.374l.56.021-.283-.437c-.035-.054-.367-.56-.923-1.244.46-.632.589-1.196.596-1.223l.048-.238-.246-.061c-.005-.001-.417-.109-1.109-.574.62-.637 1.224-.839 1.229-.842l.39-.123-.232-.296c-.024-.031-.572-.722-1.517-1.236.113-.269.251-.495.422-.658l.246-.234-.277-.174c-.027-.018-.637-.391-1.427-.599.146-.762.183-1.265.187-1.31l.044-.644-.523.449c-.02.016-1.887 1.596-4.624 1.913-.373.043-.728.146-1.069.279.236-.468.503-.952.838-1.469 0 0-1.998.856-2.884 2.955l-13.52-10.325-17.7-4.417-12.294 8.071.012.032v10.343l5.09 13.568 40.703 17.986 14.195-12.288v-10.374l-5.076-3.878m-.383-.43c-.68.437-1.987 1.193-3.61 1.715-.071-.47-.177-.936-.327-1.382-.121-.356-.258-.661-.4-.945.097-.004.16-.008.16-.008-.072-.031-.141-.062-.213-.093-.195-.372-.405-.686-.624-.947.022-.008.046-.01.068-.019.353-.125.688-.229 1.012-.32 1.471 1.228 3.059 1.777 3.934 1.999m-3.489 3.558c.005-.421-.011-.852-.052-1.283 1.111-.344 2.078-.791 2.822-1.191.17.355.278.703.338.938-.972.089-2.086.826-3.108 1.536m2.205.593c-.308-.116-.788-.249-1.397-.273-.004-.056-.006-.116-.008-.177.448-.303.904-.588 1.338-.8.093.506.087.961.067 1.25m-1.67 1.434c-.158.063-.406.14-.715.187.067-.456.124-.964.156-1.501l.146-.102c.042-.031.085-.061.127-.09.058.742.191 1.237.286 1.506m-2.007-6.194c.18.323.343.676.478 1.075.819 2.421.228 5.545-.049 6.719-.538-.539-1.657-1.533-3.413-2.494-.49-.27-.912-.6-1.284-.961-.367-1.983-.19-3.693.97-4.984 1.218.495 2.502.624 3.298.645m-.951-.811c.104-.021.207-.059.312-.083.111.12.218.25.319.39-.214-.101-.428-.202-.631-.307m4.754-3.875c-.057.158-.161.394-.328.654-.303-.351-.652-.728-1.041-1.105l.02-.176c.004-.051.011-.102.017-.153.6.445 1.064.673 1.332.78m.01-2.185c-.291.152-.71.42-1.13.857-.045-.034-.093-.072-.14-.111.065-.532.148-1.059.273-1.521.448.265.79.568.997.775m-1.963-2.443c.383.108.72.257.938.367-.572.781-.747 2.095-.881 3.322-.316-.28-.654-.553-1.01-.807.47-1.052.767-2.064.953-2.882m-6.232.911c.444-.27.941-.446 1.47-.508 2.053-.237 3.626-1.12 4.412-1.651-.116.793-.403 2.263-1.075 3.813-.405-.257-.829-.486-1.269-.667-1.726-.716-2.967-.598-3.803-.273.075-.232.164-.47.265-.714m-.437 1.379c.95-.541 2.247-.511 3.718.099 2.383.988 4.37 3.487 5.083 4.466-.766.044-2.261.22-4.149.89-.528.188-1.059.282-1.578.321-2.31-1.363-3.658-3.104-3.074-5.776m.126 5.583c-.324.363-.639.786-.936 1.286-.266-.162-1.189-.867-2.347-1.895.719-.21 1.429-.44 2.125-.709.307.539.709.967 1.158 1.318m-.125 25.436l-1.446-.637v.93l-1.192.689-2.406-1.097v-2.108l-28.288-12.462v1.141l-1.193.688-2.405-1.099v-2.314l-2.19-.965v-1.844l2.19.965v-2.899l1.203-.586 2.395.995v4.077l28.287 12.46v-3.111l1.203-.585 2.396.995v4.285l1.446.637v1.845m.881-8.869l-38.899-17.47-4.758-12.479 10.339-6.954 17.31 4.25 13.645 10.529c-.27 1.017-.281 2.266.237 3.797-.823.25-1.655.458-2.497.621-.002-.002-.004-.004-.006-.006.389-.377.74-.947.826-1.837.145-1.519-1.508-4.302-1.508-4.302s-1.716 1.749-2.162 3.207c-1.074-1.258-2.037-2.617-2.616-3.939l-1.354.494c.903 1.833 2.397 3.558 3.943 5.017.202.786.677 1.328 1.065 1.654-.23.027-.583.046-1.017.054l-16.259-8.598 4.723-3.201-2.797-1.658-5.14 3.224-4.951-2.712-2.853 1.808 5.031 3.007-4.724 3.17 2.863 1.655 4.979-3.217 11.661 6.11-.343.883c.831.176 1.758.29 2.708.356l7.179 3.762 2.577-2.129-3.393-1.794c.479-.062.883-.131 1.174-.203.019-.004.037-.011.057-.016 1.472 1.131 2.69 1.889 3.072 2.084-1.207 3.388 2.28 6.738 2.28 6.738-.207-.623-.389-1.229-.534-1.815.26.197.535.383.834.547 2.415 1.324 3.596 2.736 3.607 2.751l.353.43.146-.497c.019-.064.185-.643.34-1.506.784-.076 1.299-.352 1.322-.364l.213-.122-.115-.223c-.002-.004-.191-.382-.295-1.203.895.041 1.446.356 1.451.359l.35.208.072-.368c.009-.039.173-.901-.057-1.941.277-.093.541-.141.777-.12l.341.028-.051-.322c-.005-.03-.11-.643-.421-1.314l3.922 3.027-12.647 10.54"/></svg>