<svg xmlns="http://www.w3.org/2000/svg" viewBox="0 0 64 64" enable-background="new 0 0 64 64"><path d="m44.301 50.748c2.646-3.57 9.966-14.746 8.51-27.329-.451-3.897-4.451-5.9-6.678-6.721v-.871c0 0-3.059-1.25-3.424-1.572v-2.844c-.001-.025 1.836-.914 1.836-.914v-5.13c0 0-2.135-1.724-4.266-2.298v-.561c0 0-4.205-.508-8.279-.508-4.073 0-8.278.508-8.278.508v.561c-2.131.574-4.267 2.298-4.267 2.298v5.13c0 0 1.837.889 1.838.891l-.002 2.866c-.366.324-3.424 1.573-3.424 1.573v.871c-2.226.821-6.226 2.824-6.678 6.721-1.456 12.583 5.864 23.759 8.509 27.329-.735.478-1.378 1.022-1.922 1.63-1.4 1.575-1.824 3.203-1.14 4.359.576.971 1.397 1.816 2.442 2.521 2.729 1.845 6.955 2.742 12.922 2.742s10.193-.897 12.924-2.743c1.042-.703 1.863-1.549 2.438-2.515.687-1.161.262-2.79-1.134-4.359-.546-.611-1.191-1.156-1.927-1.635m-18.651-46.631c0 0 1.762-.238 6.35-.238s6.35.238 6.35.238v.431h-12.7v-.431m-4.266 2.12c0 0 .026-.021.043-.034.208.036.612.103 1.243.182 1.662.213 4.781.507 9.33.507s7.669-.294 9.33-.507c.63-.079 1.035-.146 1.242-.182.018.014.043.034.043.034v2.977c-.195.029-.626.091-1.285.166-1.715.199-4.932.479-9.33.479s-7.615-.281-9.33-.479c-.659-.075-1.09-.137-1.286-.167v-2.976m-1.588 11.825v-.888c.206.086.655.25 1.464.434 1.687.385 4.919.854 10.739.854s9.053-.469 10.739-.854c.81-.184 1.258-.348 1.464-.434v.888c0 0 .025.006.042.011-.185.077-.643.246-1.506.435-1.685.367-4.918.817-10.738.817s-9.054-.45-10.739-.818c-.864-.188-1.321-.357-1.506-.435.016-.004.041-.01.041-.01m10.556 7.142c1.099.031 2.198.031 3.297 0-.017 2.009-.033 4.019-.05 6.028 2.132-.059 4.26-.229 6.376-.523-.042 1.01-.084 2.017-.125 3.025-2.083.289-4.178.458-6.275.515-.038 4.527-.075 9.053-.111 13.58-.976.025-1.95.025-2.926 0-.036-4.527-.073-9.053-.111-13.58-2.098-.057-4.192-.226-6.276-.515-.04-1.008-.082-2.015-.124-3.025 2.116.294 4.244.464 6.376.523-.018-2.009-.035-4.019-.051-6.028m1.648 27.82c3.93 0 6.592-.703 8.18-1.323.933-.364 1.492-.699 1.717-.847v.736c0 0-.285.736-1.717 1.369-1.432.629-3.915 1.252-8.18 1.252-4.699 0-7.234-.753-8.581-1.445-1.094-.563-1.316-1.176-1.316-1.176v-.738c.187.123.614.382 1.315.684h.001.001c1.518.652 4.293 1.488 8.58 1.488m13.691 2.776c-.455.765-1.099 1.395-1.867 1.913-3.285 2.221-8.861 2.407-11.824 2.407s-8.539-.187-11.824-2.407c-.769-.519-1.413-1.148-1.867-1.913-.19-.32.046-1.135.804-2.043.094.266.46 1.07 1.668 1.92 1.66 1.166 4.906 2.408 11.219 2.408s9.559-1.242 11.219-2.408c1.208-.85 1.574-1.655 1.668-1.92.759.908.994 1.722.804 2.043"/></svg>