<svg xmlns="http://www.w3.org/2000/svg" viewBox="0 0 64 64" enable-background="new 0 0 64 64"><path d="m61.934 31.992c.021-.713.209-10.904-5.822-17.538-.268-.593-1.539-2.983-5.641-5.904-2.713-2.135-5.543-3.642-5.775-3.763-.002-.001-.006-.003-.008-.004-.256-.137-5.258-2.783-11.329-2.783-.461 0-.917.027-1.368.058v-.008c-4.629-.101-9.227 1.09-11.998 2.341-2.458 1.11-5.187 2.971-5.384 3.115-3.404 1.904-9.859 9.545-10.37 13.594-2.063 2.637-3.787 14.482.004 21.697 2.658 10.027 12.664 15.045 13.46 15.43.484.309 5.937 3.68 12.636 3.68.281 0 1.98.094 2.586.094 7.241 0 17.971-5.104 20.217-9.102 6.171-4.514 9.37-16.147 8.792-20.907m-44.176 15.063c-2.869-4.641-4.504-10.705-4.854-12.098.908-1.361 5.387-7.965 7.939-9.952 1.445.266 7.479 1.374 13.17 2.404.715 1.853 3.852 10.029 4.75 13.185-.99 1.174-4.879 5.702-8.708 9.248-4.065.019-10.979-2.326-12.297-2.787m36.066-32.475c-.012.45-.119 2.05-.885 3.887-1.521-.777-5.344-2.441-10.584-2.722-.793-1.171-3.777-5.254-8.49-8.086.645-1.262 1.543-2.801 2.068-3.27.17-.048.434-.092.836-.092 2.527 0 6.893 1.655 7.273 1.802.403.213 8.251 4.439 9.782 8.481m-42.051 19.432c-3.423-.584-5.458-1.648-6.066-2.008-1.273-4.617-.248-9.607-.09-10.322 1.256-2.246 4.832-7.971 7.191-9.058 2.445-.499 5.494.121 6.736.424-.117 1.615-.342 6.127.326 10.862-2.706 2.178-6.989 8.447-8.097 10.102m19.912-30.482c.768.057 1.895.225 2.667.454-.77 1.024-1.559 2.542-1.932 3.292-1.57.257-7.533 1.397-12.211 4.43-.943-.25-3.791-.917-6.488-.687.668-1.293 1.666-2.249 1.773-2.347.371-.266 7.513-5.263 16.191-5.155v.013m19.096 38.093c-1.17-.048-5.678-.305-10.621-1.466-.947-3.302-4.074-11.444-4.789-13.296 3.066-4.382 6.088-8.51 6.928-9.654 5.688.312 9.682 2.387 10.455 2.82 3.295 5.299 4.018 10.711 4.117 11.615-1.75 5.446-5.211 9.113-6.09 9.981m-47.126-13.104c.084 1.266.287 2.599.654 3.917-.338.863-.557 1.759-.682 2.651-.224-2.261-.183-4.544.028-6.568m9.644 23.359c1.508-1.453 3.367-2.867 4.088-3.401 1.63.574 8.324 2.837 12.591 2.837.727.975 3.104 4.028 6.018 6.362-1.814 1.775-4.434 2.613-4.897 2.752-8.127.218-16.042-4.35-17.8-8.55m21.463 8.538c.922-.537 1.883-1.244 2.678-2.139 1.297-.179 6.863-1.137 11.893-4.832.332.036.879.08 1.49.063-3.018 2.957-10.382 6.26-16.061 6.908m15.424-8.376c1.807-4.708 1.73-8.258 1.641-9.392.992-.972 4.396-4.599 6.285-10.113 1.018.17 1.68.429 1.994.574.109.4.291 1.324.188 2.725-.77 5.043-3.428 12.6-8.084 15.941-.468.239-1.292.291-2.024.265"/></svg>