<svg xmlns="http://www.w3.org/2000/svg" viewBox="0 0 64 64" enable-background="new 0 0 64 64"><path d="m32 2c-16.568 0-30 13.432-30 29.999 0 16.569 13.432 30.001 30 30.001 16.569 0 30-13.433 30-30 0-16.568-13.432-30-30-30m28 30c0 1.095-.07 2.178-.193 3.249-.701-.085-1.396-.196-2.084-.335.123-1.539-1.598-3.36-4.158-4.257-2.689-.948-.623 1.119-.918 2.716-1.271-.516-2.51-1.106-3.707-1.766-.098-.055-.191-.12-.291-.176.611-1.725-.322-3.983-2.416-5.446-2.154-1.513-1.346.752-2.043 2.517-.842-.635-1.664-1.296-2.457-1.99.895-1.605.334-3.996-1.504-5.785-1.82-1.775-1.48.367-2.328 1.984-.891-.988-1.736-2.015-2.533-3.082 1.121-1.333 1.189-3.635-.004-5.749-1.271-2.268-1.533.037-2.879 1.339-.03-.054-.066-.104-.096-.157-.471-.856-.909-1.732-1.31-2.627.991-1.035 1.267-3.236.555-5.543-.743-2.424-1.169-.408-2.28.57-.268-1.068-.466-2.159-.598-3.269 1.064-.123 2.146-.193 3.244-.193 15.439 0 28 12.561 28 28m-56-.001c0-1.147.078-2.276.212-3.389 1.147.132 2.274.338 3.378.614-.979 1.109-2.992 1.535-.571 2.279 2.307.712 4.508.436 5.543-.554.895.4 1.771.839 2.628 1.31.053.03.103.064.156.095-1.302 1.345-3.605 1.606-1.338 2.878 2.114 1.194 4.416 1.127 5.75.006 1.066.796 2.093 1.642 3.081 2.533-1.616.847-3.758.508-1.982 2.326 1.788 1.84 4.179 2.399 5.783 1.506.694.793 1.355 1.615 1.99 2.457-1.766.696-4.028-.111-2.517 2.041 1.463 2.094 3.722 3.029 5.446 2.418.057.099.121.191.177.291.659 1.197 1.249 2.436 1.765 3.707-1.596.293-3.663-1.771-2.715.917.896 2.561 2.717 4.282 4.256 4.159.146.723.264 1.455.35 2.195-1.117.136-2.247.212-3.392.212-15.439 0-28-12.562-28-28.001m47.799 19.8c-4.467 4.466-10.176 7.229-16.348 7.983.055-.753.066-1.507.033-2.262.008-.003.016-.001.023-.004 1.613-.567 2.123-3.314 1.129-6.135-.807-2.306-1.156-.507-2.137.542-.393-1.294-.875-2.563-1.443-3.781-.077-.164-.163-.324-.241-.486 1.325-1.51 1.231-4.273-.345-6.512-1.456-2.082-1.446.185-2.473 1.764-.654-.923-1.353-1.814-2.089-2.674.81-1.709.22-4.211-1.572-6.048-1.805-1.854-1.384.499-2.201 2.231-1.087-.953-2.226-1.846-3.414-2.668.549-1.934-.73-4.389-3.119-5.733-2.364-1.332-1.078 1.083-1.539 3.032-.07-.033-.138-.069-.208-.102-.882-.412-1.789-.779-2.712-1.103.218-1.583-1.604-3.438-4.3-4.266-2.858-.882-.354 1.341-.854 2.979-.008.027-.023.052-.033.077-1.243-.145-2.493-.183-3.736-.088 1.573-12.721 11.708-22.821 24.447-24.34-.082 1.205-.043 2.416.098 3.621-.027.01-.051.025-.078.033-1.637.502-3.861-2.002-2.979.856.826 2.695 2.683 4.518 4.266 4.3.322.923.691 1.83 1.103 2.712.032.069.069.137.103.207-1.949.461-4.365-.824-3.033 1.539 1.344 2.389 3.799 3.668 5.735 3.119.82 1.189 1.715 2.328 2.668 3.415-1.732.817-4.087.396-2.232 2.2 1.836 1.792 4.338 2.382 6.047 1.573.859.735 1.75 1.434 2.674 2.088-1.58 1.025-3.844 1.018-1.762 2.474 2.238 1.573 5 1.669 6.51.344.162.079.322.164.486.239 1.219.57 2.488 1.053 3.781 1.445-1.049.98-2.848 1.328-.541 2.137 2.82.992 5.568.483 6.135-1.131.004-.007.002-.015.004-.021.717.03 1.434.02 2.146-.028-.732 6.219-3.503 11.976-7.999 16.472"/></svg>