<svg xmlns="http://www.w3.org/2000/svg" viewBox="0 0 64 64" enable-background="new 0 0 64 64"><circle cx="31.91" cy="26.439" r="2.5"/><circle cx="26.494" cy="21.814" r="2"/><circle cx="37.324" cy="21.814" r="2"/><path d="m56.195 31.68c1.012-1.072 2.021-2.145 3.033-3.215.346-.365.363-.939 0-1.301-.346-.346-.953-.363-1.297 0-1.373 1.457-2.748 2.912-4.121 4.367l.012-8.439-1.838-.002-.012 10.389c-1.493 1.582-2.985 3.162-4.477 4.743-1.018-2.332-2.536-4.396-4.429-6.043 1.163-1.947 1.843-4.215 1.843-6.647 0-2.233-.564-4.335-1.557-6.171 1.025.049 1.724-.13 1.932-.575.354-.758-.783-2.106-2.817-3.567l4.563-6.229c.051-.048.091-.102.118-.161.447-.957-2.258-3.164-6.039-4.928-3.783-1.764-7.211-2.416-7.658-1.459-.027.06-.043.123-.047.191l-1.839 7.501c-2.427-.618-4.19-.623-4.544.136-.28.602.379 1.574 1.674 2.679-5.622 1.433-9.785 6.515-9.785 12.583 0 2.433.68 4.7 1.843 6.647-1.857 1.617-3.355 3.633-4.371 5.911-1.452-1.537-2.902-3.073-4.353-4.611l-.013-10.389-1.836.002.01 8.439c-1.373-1.455-2.746-2.91-4.119-4.367-.344-.363-.953-.346-1.299 0-.361.361-.344.936 0 1.301 1.012 1.07 2.023 2.143 3.035 3.215l-5.807 1.689.514 1.762 6.709-1.949c.395.416.787.834 1.182 1.252 1.754 1.856 3.507 3.715 5.258 5.571-.485 1.58-.752 3.256-.752 4.995 0 9.389 7.611 17 17 17s17-7.611 17-17c0-1.688-.253-3.315-.712-4.854.005-.005.011-.005.015-.01 1.879-1.99 3.756-3.98 5.635-5.971.311-.328.621-.658.93-.984l6.711 1.949.51-1.761-5.805-1.689m-25.263-17.099c1.194.765 2.6 1.539 4.143 2.259 2.017.94 3.952 1.639 5.594 2.063 1.4 1.846 2.242 4.138 2.242 6.627 0 1.97-.527 3.816-1.438 5.417-.166.292-.344.576-.534.852 0 0 0 0-.001 0-.189.274-.391.539-.604.795-2.02 2.404-5.044 3.938-8.423 3.938-3.377 0-6.4-1.533-8.42-3.937-.213-.254-.414-.519-.604-.791-.002-.003-.004-.005-.005-.007-.19-.274-.368-.559-.534-.851-.91-1.602-1.438-3.447-1.438-5.417 0-5.732 4.414-10.45 10.022-10.948m.978 45.419c-8.271 0-15-6.73-15-15 0-4.432 1.936-8.416 5.002-11.163 2.384 2.867 5.977 4.694 9.998 4.694s7.614-1.827 9.999-4.695c3.066 2.748 5.001 6.732 5.001 11.164 0 8.27-6.726 15-15 15"/><path d="m29.205 43.084l1.049 3.23h3.396l1.051-3.23-2.748-1.996z"/><path d="m29.205 52.877l1.049 3.23h3.396l1.051-3.23-2.748-1.996z"/><path d="m31.91 33.951c3.076 0 6.045-1.309 8.145-3.592.373-.406.346-1.039-.061-1.414-.406-.371-1.039-.346-1.412.061-1.723 1.871-4.154 2.945-6.672 2.945s-4.949-1.074-6.672-2.945c-.373-.406-1.006-.432-1.412-.061-.406.375-.434 1.008-.061 1.414 2.1 2.284 5.069 3.592 8.145 3.592"/></svg>