<svg xmlns="http://www.w3.org/2000/svg" viewBox="0 0 64 64" enable-background="new 0 0 64 64"><path d="m30.346 6.562l-4.801 4.919c1.707.37 3.297 1.045 4.717 1.962l.084-6.881"/><path d="m8.482 28.544l-4.922 4.801 6.883-.084c-.918-1.421-1.593-3.011-1.961-4.717"/><path d="m10.443 17.738l-6.883-.084 4.922 4.802c.37-1.707 1.043-3.296 1.961-4.718"/><path d="m19.457 11.48l-4.801-4.92.084 6.881c1.422-.917 3.012-1.591 4.717-1.961"/><path d="m34.287 17.327l2.709-6.322-6.32 2.709c1.408.979 2.633 2.203 3.611 3.613"/><path d="m8.15 25.5c0-.873.092-1.725.24-2.557l-6.39 2.556 6.391 2.557c-.149-.831-.241-1.682-.241-2.556"/><path d="m14.328 13.713l-6.322-2.709 2.709 6.322c.978-1.409 2.203-2.634 3.613-3.613"/><path d="m25.057 11.391l-2.557-6.391-2.555 6.391c.83-.149 1.682-.24 2.555-.24.875-.001 1.727.09 2.557.24"/><path d="m55.527 34.404c-.193-.113-.387-.222-.584-.324 0-.031 0-.062 0-.094 0-8.262-6.584-14.986-14.675-14.986-.071 0-.142.006-.213.007l1.385-1.352-6.881.084c.414.642.771 1.323 1.08 2.028-.433.148-.855.32-1.271.507-2.011-4.564-6.559-7.758-11.867-7.758-7.17 0-12.982 5.813-12.982 12.983 0 3.186 1.166 6.085 3.071 8.342-.225.447-.434.906-.612 1.381-.452-.489-.881-1-1.262-1.549l-2.711 6.321 1.398-.6c-2.161 2.147-3.403 5.086-3.403 8.178 0 4.939 3.088 9.298 7.686 10.848 1.129.385 2.313.58 3.51.58h31.896c.963 0 1.939-.115 2.906-.345 5.885-1.38 10.002-6.659 10.002-12.836 0-4.691-2.48-9.065-6.473-11.415m-4.375 20.54c-.662.157-1.35.247-2.059.247h-.002-31.896c-.818 0-1.604-.139-2.34-.389-2.973-1.003-5.121-3.86-5.121-7.23 0-2.293.994-4.343 2.561-5.738.709-.635 1.535-1.129 2.443-1.453.77-.273 1.594-.432 2.457-.432 2.406 0 4.539 1.168 5.904 2.974l.066-.001c-1.584-2.978-4.545-5.077-8.01-5.414 1.289-4.591 5.426-7.96 10.338-7.96.523 0 1.033.052 1.537.126.998.146 1.949.426 2.838.83 3.311 1.509 5.729 4.669 6.266 8.454 0-.021.002-.045.002-.064 0-4.313-2.166-8.106-5.445-10.319 1.867-3.435 5.453-5.765 9.576-5.765 6.043 0 10.941 5.005 10.941 11.177 0 .301-.02.593-.043.886-2.529.197-4.828 1.228-6.635 2.827 1.346-.788 2.898-1.246 4.561-1.246.615 0 1.215.063 1.797.182.992.201 1.924.569 2.773 1.069 2.75 1.619 4.605 4.642 4.605 8.115.002 4.447-3.039 8.169-7.114 9.124"/></svg>