<svg xmlns="http://www.w3.org/2000/svg" viewBox="0 0 64 64" enable-background="new 0 0 64 64"><path d="m10.754 42.904c-.535 1.486-.082 3.02 1.018 3.422 1.1.404 2.424-.475 2.961-1.959.631-1.75.674-4.146.246-6.924-2.067 1.823-3.594 3.711-4.225 5.461"/><path d="m9.225 55.945c-.535 1.484-.08 3.018 1.02 3.422s2.426-.475 2.961-1.961c.631-1.75.674-4.146.244-6.922-2.065 1.821-3.593 3.711-4.225 5.461"/><path d="m47.229 42.904c-.537 1.484-.08 3.018 1.018 3.422 1.1.404 2.426-.475 2.961-1.959.631-1.75.674-4.146.246-6.924-2.067 1.821-3.595 3.711-4.225 5.461"/><path d="m38.238 55.945c-.537 1.484-.082 3.018 1.018 3.422 1.1.402 2.424-.475 2.961-1.961.631-1.75.674-4.146.244-6.922-2.065 1.819-3.592 3.711-4.223 5.461"/><path d="m46.863 55.945c-.537 1.484-.082 3.018 1.018 3.422 1.1.402 2.424-.475 2.961-1.961.631-1.75.674-4.146.244-6.922-2.065 1.819-3.592 3.711-4.223 5.461"/><path d="m18.574 55.945c-.535 1.484-.08 3.018 1.018 3.422 1.1.402 2.426-.475 2.961-1.959.631-1.752.674-4.148.246-6.924-2.065 1.819-3.594 3.711-4.225 5.461"/><path d="m49.684 14.324c-.158-.092-.318-.178-.48-.26 0-.025 0-.049 0-.074-.001-6.611-5.409-11.99-12.056-11.99-4.135 0-7.971 2.113-10.176 5.561-.086-.012-.172-.025-.258-.039-.631-.088-1.17-.129-1.701-.129-5.279 0-9.984 3.525-11.441 8.574l-.346 1.203c-.377.24-.736.51-1.076.805-2 1.736-3.15 4.246-3.15 6.883 0 3.951 2.537 7.439 6.313 8.68.927.306 1.9.462 2.882.462h5.701l-4.299 14.053h12.547l-4.257 13.947 16.518-20.242h-11.878l2.299-7.758h9.57c.791 0 1.594-.092 2.389-.275 4.834-1.104 8.215-5.327 8.215-10.27 0-3.752-2.037-7.252-5.316-9.131m-3.594 16.432c-.543.127-1.109.197-1.691.197 0 0 0 0-.002 0h-26.2-.002c-.672 0-1.316-.109-1.92-.311-2.443-.803-4.207-3.088-4.207-5.785 0-1.834.816-3.473 2.102-4.59.584-.508 1.262-.902 2.008-1.162.633-.219 1.311-.346 2.02-.346 1.975 0 3.729.936 4.85 2.379h.055c-1.301-2.383-3.734-4.063-6.58-4.332 1.059-3.672 4.457-6.369 8.492-6.369.43 0 .85.043 1.264.102.818.117 1.602.342 2.33.664 2.719 1.207 4.705 3.736 5.146 6.764 0-.018.002-.035.002-.053 0-3.449-1.779-6.484-4.473-8.254 1.533-2.748 4.48-4.611 7.865-4.611 4.965 0 8.988 4.004 8.988 8.941 0 .24-.016.473-.035.709-2.078.156-3.965.98-5.449 2.262 1.104-.631 2.379-.998 3.744-.998.506 0 .998.051 1.477.145.816.162 1.582.455 2.279.855 2.258 1.297 3.781 3.715 3.781 6.492 0 3.559-2.496 6.537-5.844 7.301"/></svg>