<svg xmlns="http://www.w3.org/2000/svg" viewBox="0 0 64 64" enable-background="new 0 0 64 64"><path d="m32 2c-16.568 0-30 13.432-30 30s13.432 30 30 30 30-13.432 30-30-13.432-30-30-30m18.438 33.078c-.478.271-.957.49-1.438.684v1.238c0 9.375-7.625 17-17 17-9.374 0-17-7.625-17-17v-4.68c-3.057 1.493-5.472 3.635-7 5.68v-7.486c1.978-1.959 4.316-3.683 7-4.898v-11.616h6v9.94c3.45-.41 7.308.017 11.578 1.681 1.037.404 2.141.949 3.309 1.521 2.289 1.131 4.757 2.341 7.113 2.74v-15.882h6v14.463c2.16-1.264 4.842-3.088 7-6.463v8.533c-1.551 2.449-3.521 3.395-5.562 4.545"/><path d="m33.398 33.125c-1.053-.52-2.046-1.008-2.849-1.32-3.426-1.335-6.641-1.63-9.55-1.271v6.466c0 6.064 4.935 11 11 11 6.066 0 11-4.936 11-11v-.479c-3.53-.4-6.865-2.045-9.601-3.396"/></svg>