<svg xmlns="http://www.w3.org/2000/svg" viewBox="0 0 64 64" enable-background="new 0 0 64 64"><path d="m61.501 55.155l-35.392-35.385 1.613-1.614c.567-.564.764-1.363.597-2.096 9.409-7.62 19.175-11.958 26.444-11.986-7.48-4.405-19.843-1.626-31.173 6.766l-.647-.647c-.876-.879-2.31-.879-3.188 0l-1.613 1.612-3.489-3.487c-.35-.348-.791-.499-1.279-.499-2.761 0-7.043 4.855-5.064 6.815l3.501 3.5-1.618 1.618c-.875.875-.875 2.309 0 3.186l.649.648c-8.394 11.325-11.174 23.685-6.768 31.161.031-7.266 4.369-17.03 11.989-26.435.73.165 1.528-.029 2.095-.596l1.619-1.617 35.404 35.396c.348.352.788.505 1.276.505 2.743 0 7.005-4.869 5.044-6.845"/></svg>