<svg xmlns="http://www.w3.org/2000/svg" viewBox="0 0 64 64" enable-background="new 0 0 64 64"><path d="M9.5,32h45h3.75H62l-4.064-4.064C56.218,16.886,47.607,8.123,36.637,6.167C36.374,3.828,34.412,2,32.002,2
		s-4.373,1.827-4.635,4.166C16.396,8.121,7.782,16.885,6.064,27.935L2,32h3.75H9.5z M51.338,26.375h-3.396
		c-1.204-7.588-4.731-13.818-9.38-16.875C44.898,12.616,49.684,18.83,51.338,26.375z M30.125,16.063v-5.625h3.75v5.625H39.5v3.75
		h-5.625v5.625h-3.75v-5.625H24.5v-3.75H30.125z M25.438,9.5c-4.646,3.057-8.176,9.287-9.38,16.875h-3.396
		C14.317,18.83,19.104,12.616,25.438,9.5z"/><path d="M54.5,34v1.75c0,12.408-10.093,22.5-22.5,22.5c-12.405,0-22.5-10.092-22.5-22.5V34H5.75v1.75C5.75,50.225,17.525,62,32,62
		s26.25-11.775,26.25-26.25V34H54.5z"/></svg>