<svg xmlns="http://www.w3.org/2000/svg" viewBox="0 0 64 64" enable-background="new 0 0 64 64"><path d="m16.836 18.637c0-.959 0-1.919 0-2.878 4.074-1.017 7.095-4.572 7.095-8.808l.002-4.951-4.73.002-.001 4.951c-.001 1.707-.996 3.18-2.445 3.959-.551-2.138-4.03-2.139-4.576.002-1.45-.779-2.444-2.253-2.442-3.961l-.004-4.953h-4.733v4.953c.001 4.235 3.025 7.794 7.1 8.807 0 .959 0 1.917 0 2.876-4.076 1.016-7.101 4.574-7.102 8.808l.002 9.109c0 4.235 3.021 7.794 7.097 8.812 0 .958.001 1.917.001 2.876-4.075 1.015-7.097 4.573-7.096 8.808l-.001 4.951 4.729-.002.002-4.949c0-1.708.995-3.182 2.446-3.961.55 2.139 4.03 2.139 4.574-.002 1.45.778 2.445 2.252 2.445 3.959v4.955l4.733-.002v-4.951c-.001-4.234-3.025-7.794-7.1-8.807 0-.959 0-1.917 0-2.875 4.077-1.016 7.101-4.575 7.101-8.81v-9.109c.001-4.236-3.021-7.793-7.097-8.809m-.081 21.879c-.548-2.139-4.027-2.139-4.578-.001-1.449-.78-2.442-2.255-2.442-3.961v-9.107c.001-1.708.996-3.183 2.446-3.961.552 2.14 4.028 2.139 4.576.001 1.45.779 2.444 2.252 2.442 3.96l.002 9.107c-.002 1.708-.996 3.182-2.446 3.962"/><path d="m51.902 33.449c0-.966 0-1.933 0-2.898 4.074-1.023 7.094-4.606 7.094-8.871l.002-9.173c.004-4.263-3.021-7.847-7.101-8.87 0-1.049 0-1.635 0-1.635l-4.731-.002c0 0 0 .587 0 1.637-4.075 1.021-7.098 4.606-7.098 8.87v9.175c.002 4.264 3.023 7.849 7.098 8.871 0 .966 0 1.931 0 2.896-4.074 1.022-7.098 4.605-7.1 8.869l.002 9.175c0 4.266 3.022 7.849 7.099 8.872 0 1.047-.001 1.633-.001 1.633l4.733.002c0 0 0-.587 0-1.635 4.077-1.023 7.101-4.606 7.101-8.87v-9.173c0-4.267-3.021-7.849-7.098-8.873m-7.098-11.767l-.002-9.175c-.001-1.701.97-3.172 2.394-3.963.315 2.534 4.36 2.532 4.673-.001 1.425.791 2.397 2.263 2.4 3.968l-.002 9.172c-.001 1.719-.995 3.202-2.444 3.987-.551-2.152-4.031-2.152-4.578.001-1.449-.786-2.442-2.27-2.441-3.989m7.063 33.777c-.313-2.535-4.356-2.535-4.672-.002-1.423-.792-2.395-2.264-2.394-3.964v-9.171c.001-1.721.995-3.205 2.445-3.989.554 2.153 4.029 2.152 4.577-.001 1.449.785 2.443 2.27 2.44 3.99l.002 9.171c.001 1.702-.973 3.175-2.398 3.966"/></svg>