<svg xmlns="http://www.w3.org/2000/svg" viewBox="0 0 64 64" enable-background="new 0 0 64 64"><path d="m62 2c0 0-10.668 2.501-30 2.501-19.33 0-30-2.501-30-2.501l.789 4.999c0 0 .423.104 1.245.269l.69 3.84.614.134c.123.027 1.185.251 3.136.54v2.407h1.026v4.045c-1.837-.546-2.812-1.234-2.812-1.234l.224 3.75h-2.099v6.563h4.687v22.5h-1.562v2.813h-1.25v9.374h15v-9.375h-1.251v-2.813h-1.562v-22.5h26.25v22.5h-1.563v2.813h-1.25v9.375h15v-9.375h-1.25v-2.813h-1.562v-22.5h4.688v-6.562h-2.099l.224-3.75c0 0-.976.688-2.813 1.232v-4.045h.85v-2.382c2.06-.3 3.186-.537 3.312-.564l.614-.134.69-3.84c.824-.165 1.247-.269 1.247-.269l.787-4.998m-32.812 11.23v7.52h-7.724l.224-3.75c0 0-.976.688-2.813 1.232v-4.045h.85v-1.295c2.766.169 5.913.294 9.463.338m-12.188.958v4.47c-.835.137-1.77.228-2.813.228s-1.978-.091-2.813-.229v-4.469h5.626m0 35.625h-5.625v-22.5h5.625v22.5m35.625 0h-5.625v-22.5h5.625v22.5m4.688-27.188v2.813h-50.625v-2.813h6.313 2.375 33.25 2.375 6.312m-10.313-3.969v-4.469h5.625v4.47c-.835.137-1.77.228-2.813.228s-1.977-.091-2.812-.229m-1.875-4.468v4.045c-1.837-.545-2.812-1.233-2.812-1.233l.224 3.75h-7.724v-7.52c3.474-.043 6.563-.165 9.287-.328v1.285h1.025zm12.547-4.775c-2.31.426-11.106 1.849-25.672 1.849-14.545 0-23.358-1.423-25.672-1.849l-.321-1.784c4.367.741 13.13 1.871 25.993 1.871 12.862 0 21.625-1.13 25.992-1.871l-.32 1.784"/></svg>