<svg xmlns="http://www.w3.org/2000/svg" viewBox="0 0 64 64" enable-background="new 0 0 64 64"><path d="m61.063 60.125h-.938v-15.01c.731.035 1.443-.371 1.739-1.074.376-.894-.059-1.927-.965-2.297l-15.774-6.443v-6.386l.348.141c.906.367 1.956-.058 2.329-.944.376-.887-.059-1.914-.963-2.28l-13.276-5.523v-10.496h4.688v-3.125h-4.688v-4.688h-3.125v4.688h-4.688v3.125h4.688v10.495l-13.276 5.523c-.904.366-1.339 1.394-.963 2.28.373.887 1.423 1.312 2.327.944l.35-.142v6.387l-15.777 6.444c-.904.37-1.339 1.403-.963 2.297.294.703 1.008 1.11 1.739 1.074v15.01h-.937c-.517 0-.938.422-.938.938s.421.937.938.937h58.125c.514 0 .937-.422.937-.937s-.423-.938-.937-.938m-42.188 0h-13.125v-15.659l13.125-5.361v21.02m12.188-1.562h-2.813v-2.813h2.813v2.813m0-4.063h-2.813v-2.813c0-1.742 1.199-3.198 2.813-3.617v6.43m4.687 4.063h-2.813v-2.813h2.813v2.813m0-4.063h-2.813v-6.429c1.612.419 2.813 1.875 2.813 3.616v2.813m7.5 5.625h-5.625v-8.438c0-3.106-2.52-5.625-5.625-5.625-3.107 0-5.625 2.519-5.625 5.625v8.438h-5.625v-31.972l11.25-4.563 11.25 4.564v31.971m15 0h-13.125v-21.021l13.125 5.361v15.66"/><path d="m31.044 34.998c.319.433.517.351.438-.181l-.723-4.859c-.079-.531-.571-.867-1.095-.746 0 0-.129.03-.658.248-.529.22-.639.29-.639.29-.456.283-.567.869-.247 1.302l2.924 3.946"/><path d="m25.274 35.447l4.856.722c.53.08.613-.117.179-.438l-3.942-2.923c-.434-.319-.996-.195-1.254.277l-.529 1.279c-.151.517.158 1.003.69 1.083"/><path d="m30.129 37.206l-4.858.723c-.53.079-.867.571-.745 1.095 0 0 .029.129.247.658.22.528.29.639.29.639.283.456.869.567 1.302.247l3.945-2.924c.434-.32.351-.518-.181-.438"/><path d="m31.044 38.376l-2.922 3.944c-.32.433-.196.996.276 1.253l1.279.53c.517.151 1.002-.158 1.081-.69l.723-4.856c.08-.531-.117-.614-.437-.181"/><path d="m33.241 43.417c.079.53.571.866 1.095.745 0 0 .129-.029.658-.247.527-.22.639-.29.639-.29.456-.283.567-.869.247-1.302l-2.924-3.947c-.32-.433-.519-.35-.438.182l.723 4.859"/><path d="m38.726 37.928l-4.856-.722c-.53-.08-.613.117-.181.438l3.944 2.922c.432.32.996.196 1.252-.276l.531-1.279c.151-.518-.158-1.003-.69-1.083"/><path d="m33.869 36.169l4.86-.723c.53-.079.867-.571.745-1.096 0 0-.029-.128-.247-.657-.22-.528-.29-.639-.29-.639-.283-.457-.869-.567-1.302-.247l-3.947 2.924c-.432.32-.349.518.181.438"/><path d="m32.956 34.998l2.922-3.943c.32-.433.196-.996-.276-1.253l-1.279-.53c-.517-.152-1.002.158-1.083.69l-.721 4.855c-.081.532.117.615.437.181"/><path d="m12.653 51.569c.199.271.322.22.272-.114l-.452-3.036c-.05-.332-.357-.542-.685-.466 0 0-.079.019-.41.154-.33.138-.399.181-.399.181-.286.179-.355.544-.153.813l1.827 2.468"/><path d="m9.046 51.849l3.034.452c.335.051.385-.073.115-.273l-2.467-1.826c-.271-.202-.622-.123-.783.174l-.332.798c-.092.322.102.625.433.675"/><path d="m8.732 54.494c.138.332.182.401.182.401.178.286.544.355.813.153l2.469-1.827c.27-.199.218-.323-.115-.273l-3.037.452c-.331.051-.542.357-.467.686 0 0 .019.079.155.408"/><path d="m12.653 53.68l-1.827 2.467c-.202.27-.123.622.174.782l.798.331c.324.095.626-.1.676-.431l.452-3.035c.05-.334-.073-.385-.273-.114"/><path d="m14.026 56.83c.05.332.357.543.685.466 0 0 .079-.019.408-.154.332-.137.401-.181.401-.181.286-.178.355-.544.153-.813l-1.827-2.468c-.199-.271-.324-.219-.274.114l.454 3.036"/><path d="m17.454 53.4l-3.034-.452c-.335-.05-.385.074-.115.273l2.467 1.827c.269.201.622.123.781-.174l.332-.798c.096-.323-.1-.625-.431-.676"/><path d="m14.42 52.302l3.034-.453c.333-.05.544-.357.467-.685 0 0-.019-.08-.155-.409-.136-.331-.18-.4-.18-.4-.178-.286-.544-.355-.813-.153l-2.469 1.826c-.269.2-.219.324.116.274"/><path d="m13.847 51.569l1.827-2.466c.202-.27.123-.622-.174-.782l-.798-.332c-.324-.095-.626.101-.676.432l-.452 3.034c-.052.334.073.385.273.114"/><path d="m50.153 51.569c.199.271.322.22.272-.114l-.452-3.036c-.05-.332-.357-.542-.685-.466 0 0-.079.019-.41.154-.33.138-.399.181-.399.181-.286.179-.355.544-.153.813l1.827 2.468"/><path d="m46.546 51.849l3.034.452c.335.051.385-.073.115-.273l-2.467-1.826c-.271-.202-.622-.123-.783.174l-.332.798c-.092.322.102.625.433.675"/><path d="m46.232 54.494c.138.332.182.401.182.401.178.286.544.355.813.153l2.469-1.827c.27-.199.218-.323-.115-.273l-3.037.452c-.331.051-.542.357-.467.686 0 0 .019.079.155.408"/><path d="m50.153 53.68l-1.827 2.467c-.202.27-.123.622.174.782l.798.331c.324.095.626-.1.676-.431l.452-3.035c.05-.334-.073-.385-.273-.114"/><path d="m51.526 56.83c.05.332.357.543.685.466 0 0 .079-.019.408-.154.332-.137.401-.181.401-.181.286-.178.355-.544.153-.813l-1.827-2.468c-.199-.271-.324-.219-.274.114l.454 3.036"/><path d="m54.954 53.4l-3.034-.452c-.335-.05-.385.074-.115.273l2.467 1.827c.269.201.622.123.781-.174l.332-.798c.096-.323-.1-.625-.431-.676"/><path d="m51.92 52.302l3.034-.453c.333-.05.544-.357.467-.685 0 0-.019-.08-.155-.409-.136-.331-.18-.4-.18-.4-.178-.286-.544-.355-.813-.153l-2.469 1.826c-.269.2-.219.324.116.274"/><path d="m51.347 51.569l1.827-2.466c.202-.27.123-.622-.174-.782l-.798-.332c-.324-.095-.626.101-.676.432l-.452 3.034c-.052.334.073.385.273.114"/></svg>