<svg xmlns="http://www.w3.org/2000/svg" viewBox="0 0 64 64" enable-background="new 0 0 64 64"><path d="m34.751 6.029c-3.229-.583-11.805 7.717-11.805 7.717l5.548 10.952 8.521 11.015 6.835 6.473 6.967 1.805 3.95 2.116h-12.169l-23.862-3.715-1.69-6.179 3.461 1.431-2.796-7.096h4.35l-2.264-7.405 2.795-1.059 1.909-3.607-1.554-4.73c0 0-1.583-1.769-2.218-1.743-2.772.105-8.388 7.312-11.687 11.638-3.628 4.751-7.042 5.04-7.042 5.04v11.104 6.32 1.867 14.027h60v-15.894h-5.68l-3.684-3.08-5.947-3.081 1.997-1.493-5.281-3.919-2.641-7.781 3.44 1.492-5.282-7.343h1.598l-2.307-4.664-.889-7.223c.001.001-1.743-2.836-2.573-2.985m5.797 41.945c1.362.305 2.683.719 4.187-.014 2.484-1.158 4.29.486 6.688.802-2.29.311-4.18-1.306-6.51-.178-2.149.996-3.784-.092-5.739-.61h1.374m-36.673-6.004l26.585 4.137h-26.585v-4.137m11.99 6.645c-1.555.3-2.931-.81-4.519-.031-1.697.781-2.923-.246-4.517-.61h1.229c1.01.173 1.994.511 3.074 0h2.738c.636.222 1.276.505 1.995.641m-3.801 10.757c-2.488 1.154-4.289-.486-6.69-.804 2.291-.303 4.18 1.313 6.509.182 2.485-1.16 4.291.485 6.69.802-2.29.308-4.179-1.307-6.509-.18m16.648-7.172c-1.688-.202-3.033.328-4.625.876-2.915 1.002-5.034-.961-7.778-1.521.121-.024.214-.034.293-.038 1.381-.168 2.535.466 3.904.632 1.688.206 3.034-.335 4.625-.882 2.912-.996 5.036.959 7.777 1.525-1.515.316-2.731-.415-4.196-.592m13.75 5.069c-2.915 1-5.034-.96-7.778-1.521.12-.024.212-.034.292-.038 1.381-.17 2.536.467 3.904.632 1.688.204 3.034-.335 4.626-.881 2.912-.997 5.036.958 7.777 1.523-1.516.317-2.731-.414-4.196-.591-1.689-.205-3.034.329-4.625.876m11.354 2.822c-2.488 1.154-4.288-.486-6.689-.804 2.291-.306 4.18 1.313 6.51.182 2.484-1.16 4.29.484 6.688.8-2.29.31-4.179-1.306-6.509-.178m6.684-7.815c-1.555.3-2.931-.811-4.518-.032-1.764.811-3.014-.337-4.698-.655.104-.021.177-.023.225-.021 1.463-.157 2.782.793 4.292.054 1.762-.819 3.015.335 4.699.654"/><path d="m42.606 18.911l5.192 12.003 5.281 9.031 1.153-1.12 1.443 1.557 6.325 3.174v-21.846c0 0-3.881-1.916-5.236-1.989-.835-.047-3.284.869-3.284.869l5.226 6.972c-4.382-1.509-5.226-6.972-5.226-6.972s-1.954-1.476-2.663-1.742c-.731-.276-3.018-.371-3.018-.371l6.968 14.048c-5.947-1.124-4.926-9.152-6.968-14.048 0 0-1.562-3.634-2.396-4.357-.782-.677-2.789-.411-3.606-.995-.956-.688-2.142-3.556-3.139-4.109-.31-.17-1.332 0-1.332 0l3.151 6.597 2.129 3.298"/></svg>