<svg xmlns="http://www.w3.org/2000/svg" viewBox="0 0 64 64" enable-background="new 0 0 64 64"><path d="m54.215 47.806c.869-1.389 1.237-2.527 1.107-2.985-.093-.324-1.639-.076-3.597.416-1.224-1.67-2.38-2.838-2.82-2.709-.444.129-.785 1.735-.915 3.805-1.915.641-3.35 1.268-3.252 1.588.036.122.135.267.278.425-5.037.711-9.84 1.866-13.444 2.316-1.046.131-1.981.186-2.835.186-3.945 0-6.14-1.184-9.376-1.619l12.677-20.61c2.557-.704 5.403-.424 7.913 1.025 2.908 1.679 4.689 4.533 5.091 7.577 2.836-1.175 6.2-1.059 9.108.62 2.537 1.465 4.216 3.825 4.872 6.424 4.3-13.758-1.333-29.249-14.313-37.26l2.013-3.484c.276-.479.112-1.091-.366-1.367-.479-.277-1.091-.113-1.367.366l-2.012 3.485c-13.427-7.237-29.659-4.371-39.423 6.231 2.579-.73 5.462-.457 7.999 1.009 2.909 1.68 4.69 4.534 5.091 7.578 2.838-1.174 6.199-1.06 9.108.62 2.369 1.367 3.975 3.52 4.711 5.914l-13.355 21.715c-.041-.001-.079-.003-.12-.003-.832 0-1.742.055-2.76.186-4.546.583-12.228 4.745-12.228 4.745v8h60v-13.001c0 0-3.669-.961-7.785-1.193m5.785 12.194h-56v-4.789c2.608-1.326 7.531-3.594 10.482-3.973.477-.062.931-.103 1.374-.13l-2.393 3.891 1.733 1.001 2.998-4.874c1.512.116 2.78.427 4.096.762 1.851.472 3.765.959 6.447.959.988 0 1.997-.065 3.083-.201 1.844-.23 3.975-.636 6.229-1.065 3.038-.579 6.351-1.202 9.667-1.55.081.035.155.07.239.105.086 1.91.211 3.354.626 3.413.727.105 1.575-.897 2.886-2.27 1.844.449 3.1.834 3.655.355.217-.19-.039-.863-.529-1.8 2.136.152 4.12.498 5.406.762v9.404z"/><path transform="matrix(-.7071-.7071.7071-.7071-23.8462 101.2378)" d="m8.337 54.851h1.414v1.414h-1.414z"/><path transform="matrix(-.7071-.7071.7071-.7071-20.6726 106.5524)" d="m11.024 56.851h1.414v1.414h-1.414z"/><path transform="matrix(.7071.7071-.7071.7071 42.0134 7.6839)" d="m11.378 54.203h.707v.707h-.707z"/><path transform="matrix(-.7071-.7071.7071-.7071-14.4173 107.1434)" d="m14.628 56.204h.707v.707h-.707z"/><path transform="matrix(-.7071-.7071.7071-.7071-26.8211 106.0056)" d="m8.19 58.204h.707v.707h-.707z"/><path transform="matrix(-.7071-.7071.7071-.7071-29.888 100.7352)" d="m5.565 56.204h.707v.707h-.707z"/><path transform="matrix(-.7071-.7071.7071-.7071 23.3461 119.7855)" d="m36.128 54.704h.707v.707h-.707z"/><path transform="matrix(-.7071-.7071.7071-.7071 30.3607 126.6911)" d="m41.065 56.704h.707v.707h-.707z"/><path transform="matrix(-.7071-.7071.7071-.7071 34.2289 124.2933)" d="m42.503 54.704h.707v.707h-.707z"/><path transform="matrix(-.7071-.7071.7071-.7071 37.4695 127.6356)" d="m44.815 55.704h.707v.707h-.707z"/><path transform="matrix(.7071.7071-.7071.7071 51.6803-17.654)" d="m46.797 53.203h.707v.707h-.707z"/><path transform="matrix(-.7071.7071-.7071-.7071 137.353 52.8614)" d="m57.375 54.524h.707v.708h-.707z"/><path transform="matrix(-.7071-.7071.7071-.7071 53.8069 135.4028)" d="m54.593 56.204h.707v.707h-.707z"/><path transform="matrix(-.7064.7078-.7078-.7064 132.8582 54.0067)" d="m54.875 54.204h.708v.707h-.708z"/><path transform="matrix(-.7071-.7071.7071-.7071 28.749 123.0235)" d="m39.146 54.851h1.414v1.414h-1.414z"/><path transform="matrix(.7071.7071-.7071.7071 53.9857-24.2196)" d="m55.521 52.35h1.414v1.414h-1.414z"/><path transform="matrix(-.7071-.7071.7071-.7071 41.852 131.4509)" d="m47.443 56.351h1.414v1.414h-1.414z"/></svg>