<svg xmlns="http://www.w3.org/2000/svg" viewBox="0 0 64 64" enable-background="new 0 0 64 64"><path d="m49.156 41.593c-.213-5.405-.788-9.086-1.525-11.577.557-1.811.727-3.694.776-4.686.01-.088.021-.176.021-.271 0-.028-.005-.053-.007-.08.002-.054.004-.114.006-.155.012-.521-.184-1.024-.543-1.397-.244-.254-.553-.426-.887-.514-1.111-.589-2.751-.857-4.492-1.079-1.133-.144-2.42-.26-3.803-.35 2.42-1.332 4.881-1.721 6.913-1.721 3.177 0 5.598-3.156 0-3.156-3.161 0-6.196 2.554-8.257 4.801-.418-.021-.842-.039-1.273-.055 3.069-3.089 7.281-5.93 5.899-6.209-3.109-.63-5.61 3.166-7.073 6.171-.327-.009-.66-.013-.994-.019 3.457-6.096 8.854-10.485 7.621-11.58-2.721-2.415-6.258 6.167-8.146 11.571-.285-.003-.574-.005-.862-.005 1.465-8.694 5.032-19.282 2.931-19.282-2.525 0-3.207 12.508-3.393 19.279-.022 0-.045 0-.068 0-.274 0-.545.003-.816.005-.955-3.921-2.657-9.487-4.63-9.475-2.69.019 1.754 4.452 4.167 9.478-.319.004-.634.01-.948.016-2.917-4.686-8.911-13.447-11.146-10.258-.997 1.422 5.958 4.663 10.77 10.265-.432.01-.856.022-1.278.037-2.059-2.231-5.066-4.739-8.197-4.739-5.598 0-3.178 3.156 0 3.156 1.992 0 4.398.369 6.775 1.642-1.923.094-3.695.237-5.201.429-1.74.222-3.378.489-4.489 1.078-.806.21-1.411.938-1.433 1.82-.018.734-.008 3.242.729 5.528-.704 2.485-1.25 6.099-1.457 11.332-6.72.753-12.846 2.136-12.846 4.681v5.534c0 1.223 1.417 2.176 3.631 2.922v2.109c0 5.102 25.293 5.161 26.369 5.161s26.369-.059 26.369-5.16v-2.11c2.214-.746 3.631-1.699 3.631-2.921v-5.534c0-2.546-6.126-3.929-12.844-4.682m-29.119-13.517c.472.077.959.146 1.457.209 2.818.357 6.55.555 10.506.555s7.688-.197 10.506-.555c.498-.063.985-.132 1.457-.209.358.955.654 2.128.899 3.42-.225.311-.47.585-.759.77-1.856 1.184-6.649 1.737-11.564 1.737-5.158 0-10.451-.608-12.643-1.737-.299-.154-.549-.393-.779-.66.248-1.336.552-2.547.92-3.53m1.918-2.453c2.324.219 5.953.359 10.045.359s7.721-.141 10.045-.359c.342.086.654.307.939.641-2.664.391-6.591.64-10.984.64s-8.32-.249-10.984-.641c.285-.333.597-.554.939-.64m10.584 10.315c1.098 0 2.811-.031 4.66-.176-.135.936-.342 1.809-.66 2.21-.696.876-2.493 1.285-4.337 1.285-1.935 0-3.919-.451-4.741-1.285-.375-.381-.595-1.305-.725-2.291 1.955.179 3.978.257 5.803.257m-.337 5.255c.619 0 1.435-.045 2.281-.199.235 1.018.595 1.99 1.147 2.513.83.786 3.105 1.745 3.631 2.768.232.452-3.252.923-7.262.923s-7.494-.471-7.262-.923c.525-1.022 2.801-1.981 3.631-2.768.564-.534.928-1.536 1.162-2.575 1.142.225 2.189.261 2.672.261m-6.24 1.637c-.421.259-.845.521-1.244.803-2.417.085-4.664.212-6.696.372.006-.255.014-.521.023-.797 2.4-.214 5.105-.377 8.074-.474-.053.032-.107.066-.157.096m13.319.803c-.398-.282-.822-.544-1.243-.803-.05-.03-.104-.064-.157-.096 2.969.097 5.675.26 8.074.474.01.276.018.542.023.797-2.032-.16-4.279-.287-6.697-.372m-2.894-2.866c-.026-.104-.051-.215-.076-.327.659-.295 1.264-.689 1.71-1.25.619-.779.949-2.192 1.128-3.623 2.316-.286 4.596-.787 5.968-1.661.042-.026.079-.063.12-.091.336 2.484.529 5.158.641 7.461-3.503-.292-6.919-.438-9.491-.509m10.136-15.707c0 .257-.414.501-1.158.723-.301-.262-.6-.438-.887-.55.146-.057.23-.113.23-.173 0-.429-4.016-.786-9.455-.891.297-.312.597-.604.901-.876 5.996.227 10.369.932 10.369 1.767m-10.738-1.78c-.27.349-.489.646-.66.886-.43-.008-.869-.014-1.315-.019.174-.298.376-.601.606-.905.465.01.921.024 1.369.038m-1.725-.045c-.145.357-.263.666-.353.911-.388-.004-.781-.006-1.18-.008.127-.309.258-.615.398-.918.384.004.761.009 1.135.015m-1.32-.015c-.111.337-.211.649-.297.919-.105 0-.21-.001-.316-.001.033-.303.07-.61.111-.921.168 0 .334.002.502.003m-.74-.005c.009 0 .017 0 .025 0-.006.342-.011.648-.014.922-.004 0-.008 0-.012 0-.061 0-.119.001-.18.001-.053-.261-.118-.573-.193-.921.126 0 .248-.002.374-.002m-1.125.008c.186.268.366.539.538.816 0 0-.174-.306-.476-.817.193-.002.389-.003.585-.004.104.307.194.614.274.92-.475.001-.941.003-1.401.008-.175-.245-.401-.551-.677-.905.382-.009.766-.015 1.157-.018m-1.547.025c.314.277.627.577.934.898-6.194.063-10.971.445-10.971.913 0 .06.084.116.23.173-.287.111-.586.288-.887.55-.744-.222-1.158-.466-1.158-.723.001-.903 5.108-1.653 11.852-1.811m-10.564 10.572c.091.056.175.121.271.171 1.338.69 3.425 1.165 5.75 1.474.178 1.6.559 3.094 1.33 3.877.438.443.99.779 1.584 1.036-.028.135-.058.265-.088.389-2.573.072-5.988.218-9.488.509.111-2.301.304-4.973.641-7.456m-3.978 9.731c-.005.252-.011.502-.015.76-4.487.501-7.28 1.195-7.28 1.964 0 1.38 8.966 2.525 20.683 2.733 1.039.077 2.293.124 3.826.124s2.787-.047 3.825-.124c11.718-.207 20.684-1.354 20.684-2.733 0-.769-2.793-1.463-7.28-1.964-.004-.258-.01-.508-.015-.759 6.54.786 10.278 1.914 10.843 2.713-.018.03-.049.062-.076.093-.054.059-.102.116-.188.178-.001.002-.004.003-.006.004-1.907 1.359-11.596 3.378-27.787 3.378-17.281 0-27.156-2.3-28.067-3.644.542-.799 4.286-1.933 10.853-2.723m17.214 16.513c-15.912 0-23.911-2.193-24.464-3.225v-1.562c8.423 2.077 23.583 2.11 24.464 2.11.883 0 16.055-.034 24.476-2.113l.005 1.476c-.57 1.121-8.569 3.314-24.481 3.314m0-4.611c-17.581 0-27.496-2.381-28.095-3.645v-3.321c.213.11.444.216.688.317.168.071.351.139.531.206.062.022.12.046.183.069 7.591 2.732 25.727 2.773 26.694 2.773s19.072-.041 26.675-2.767c.101-.036.194-.073.292-.11.146-.056.296-.11.434-.168.247-.104.482-.211.699-.323l.008 3.254c-.613 1.334-10.528 3.715-28.109 3.715"/><path d="m31.805 17.918c.031.504.04.803.04.803.003-.266-.015-.533-.04-.803"/><path d="m27.6 5.892c-3.408-.747 3.644 6.098 4.205 12.026-.162-2.697-.938-11.311-4.205-12.026"/></svg>