<svg xmlns="http://www.w3.org/2000/svg" viewBox="0 0 64 64" enable-background="new 0 0 64 64"><path d="m32 38.233c-1.703 0-3.372.06-5 .168v-17.341c4.715-2.355 15.223-7.61 15.983-7.991.739-.368.739-1.707 0-2.075-.754-.38-17.983-8.994-17.983-8.994v20.06 16.503c-13.19 1.249-23 5.947-23 11.554 0 6.564 13.432 11.883 30 11.883 16.569 0 30-5.319 30-11.883 0-6.562-13.431-11.884-30-11.884m0 21.831c-16.501 0-28-5.242-28-9.947 0-4.007 8.338-8.399 21-9.617v5.761c-4.173.318-8.103 1.855-8.103 4.451 0 2.933 5.013 4.516 9.729 4.516s9.729-1.583 9.729-4.516c0-2.854-4.75-4.427-9.354-4.508v-5.867c1.608-.107 3.275-.168 5-.168 16.501 0 28 5.242 28 9.948-.001 4.705-11.5 9.947-28.001 9.947"/></svg>