<svg xmlns="http://www.w3.org/2000/svg" viewBox="0 0 64 64" enable-background="new 0 0 64 64"><path d="m62.069 50.934l1.931-9.334h-2.261-.918v-3.732h.918v-.933h-.918v-4.668h.918v-3.733h-12.842v-.001-3.733h1.834v3.732h.918v-3.732h1.834v3.732h.918v-3.732h1.834v3.732h.917v-3.732h1.835v3.732h.918v-3.732h1.834v-.934h-12.842v-4.666h1.835v-3.733h-5.505v-5.6h-1.834v5.6h-1.835v-7.467h-1.834v7.467h-27.518v3.733h1.835v9.333h-1.834v3.733h.706l-2.805 4.668h-7.074v.933h1.835v3.733h-1.835-3.034l4.812 9.334h-4.812v13.066h64v-13.066h-1.931m-7.67-9.334h-1.835v-1.866h1.835v1.866m2.752 0h-1.836v-1.866h1.817v-1.866h.019v3.732m1.836 0h-.919v-3.732h.919v3.732m-43.111-22.4h31.187v4.667h-1.835v-2.8h-5.503v5.6h5.503v1.866h.918v-3.733h.917v3.733h-31.187v-9.333m-.813 13.067h43.925v4.668h-1.854v-2.802h-5.504v5.601h.019v1.866h-32.103v-1.866h.892v-5.601h-3.669l-1.376 2.802h-3.133l2.803-4.668m-4.69 9.333h-.918l.917-1.527v1.527zm.917-3.053l.408-.68h1.427v3.733h-1.835v-3.053m4.586 1.186v1.867h-1.835v-1.866h1.835zm-1.835-.051v-1.814h.892l-.892 1.814m4.586 1.918h-1.834v-1.866h1.834v1.866m-9.08-3.733l-1.01 1.681v-1.681h1.01m-3.761 0h1.834v3.207l-.315.526h-1.519v-3.733m-2.752 5.6h3.149 3.272 49.532 1.834.918l-1.545 7.467-.387 1.867h-51.962l-.962-1.867-3.849-7.467m8.522 12.109c-1.725.719-2.948-.299-4.597-.582.101-.018.171-.021.219-.018 1.432-.142 2.723.703 4.201.047 1.724-.726 2.951.298 4.598.581-1.522.266-2.867-.719-4.421-.028m16.99 3.67c-1.652-.18-2.968.293-4.524.778-2.852.89-4.926-.853-7.61-1.351.118-.021.208-.029.286-.033 1.351-.15 2.48.414 3.819.561 1.653.183 2.969-.297 4.525-.782 2.85-.885 4.928.851 7.609 1.354-1.481.28-2.672-.37-4.105-.527m15.852-3.67c-2.435 1.024-4.196-.434-6.544-.714 2.24-.271 4.088 1.165 6.368.161.565-.239 1.094-.34 1.603-.356h.283c1.563.046 2.959.864 4.659 1.067-2.241.274-4.089-1.16-6.369-.158m8.994 3.248c-1.723.72-2.947-.299-4.597-.582.102-.018.173-.021.22-.018 1.434-.141 2.725.703 4.202.046 1.722-.724 2.95.299 4.597.581-1.522.268-2.869-.717-4.422-.027"/><path d="m44.289 34.133h5.503v5.601h-5.503z"/><path d="m36.951 34.133h5.503v5.601h-5.503z"/><path d="m29.612 34.133h5.502v5.601h-5.502z"/><path d="m22.272 34.133h5.504v5.601h-5.504z"/><path d="m17.71 21.067h5.503v5.6h-5.503z"/><path d="m25.049 21.067h5.504v5.6h-5.504z"/><path d="m32.387 21.067h5.503v5.6h-5.503z"/></svg>