<svg xmlns="http://www.w3.org/2000/svg" viewBox="0 0 64 64" enable-background="new 0 0 64 64"><path d="m28.628 43.311h-.635c-.176 0-.318.143-.318.317v.636c0 .174.143.316.318.316h.635c.174 0 .317-.143.317-.316v-.636c0-.175-.143-.317-.317-.317"/><path d="m24.84 43.234h-2.132c-.195 0-.355.16-.355.355v.711c0 .195.16.355.355.355h2.132c.196 0 .355-.16.355-.355v-.71c0-.195-.159-.356-.355-.356"/><path d="m47.039 46.516c-.93-.322-1.913-.631-2.927-.901-1.43-.383-2.902-.661-4.326-.931-1.846-.35-3.588-.68-4.679-1.145-.387-.164-1.271-.76-2.14-1.43v-2.367l13.549 2.902-13.548-33.87c0-.353-.2-.649-.484-.819v-1.176c2.582.507 5.162-2.414 7.742-1.906-2.58-1.779-5.16-.126-7.742-1.905v-.968h-.968v5.956c-.284.169-.483.466-.483.818 0 0-13.022 20.231-19.916 32.651-.193.185-.386.373-.578.565-.728.724-1.417 1.485-1.922 2.069-.013.016-.023.027-.036.043-.258-.002-.516-.007-.775-.007h-2.879l.986 2.419h-3.913v15.486h60v-15.484h-14.961m-14.071-32.577l10.402 26.052-10.402-2.26v-23.792m-1.651 29.333c.711.575 2.19 1.688 3.031 2.048 2.188.932 5.97 1.283 9.264 2.164 3.2.855 6.104 2.111 7.879 2.959-5.72-1.613-18.075-4.699-32.491-5.875.551-.546 1.125-1.24 1.125-1.24.378-.375 1.123-.684 1.654-.684h7.832c.535.001 1.292.294 1.706.628m10.871 7.441l.008-.262c.008-.003 1.469-.049 2.342.824.832.831.911 2.373.913 2.433h-.259c-.203-1.562-1.437-2.794-3.004-2.995m2.743 3.15h-.973c-.131-.996-.922-1.787-1.918-1.918v-.973c1.53.139 2.752 1.361 2.891 2.891m-13.899-41.55v14.637c-.829-.5-3.251-1.784-7.439-2.689 2.78-4.512 5.49-8.85 7.439-11.948m-11.597 18.75c7.465.237 10.647 1.961 11.598 2.62v4.086c-6.418.024-13.131.972-16.531 1.601 1.324-2.307 3.056-5.21 4.933-8.307m-8.554 11.271c.094-.094.185-.189.277-.283 1.966-.473 10.211-2.305 19.874-2.305v1.229c-.482-.164-.979-.266-1.42-.266h-7.832c-1.037 0-2.277.512-3.016 1.243l-.07.069-.063.076c-.451.547-1.038 1.172-1.276 1.359-.584.248-2.763.582-4.784.73-1.19-.044-2.389-.068-3.594-.08.561-.486 1.245-1.11 1.904-1.772m5.637 15.795c-5.306-3.976-8.711-12.097-8.711-12.097 12.677 0 24.818 1.993 33.508 3.89v.094c-.107 0-1.665-.043-2.66.951-.965.967-1.038 2.68-1.041 2.752h-.218v.864h.218c.003.073.076 1.79 1.041 2.757.427.426.956.659 1.433.789h-23.57m24.794-7.416c-1.568.201-2.806 1.439-3.005 3.006h-.258c.005-.061.083-1.612.913-2.443.875-.873 2.334-.827 2.344-.824l.006.261m-.006 7.142c-.01.004-1.469.049-2.344-.824-.83-.832-.908-2.39-.913-2.448h.257c.197 1.569 1.436 2.81 3.006 3.01l-.006.262m.154-.521c-1.53-.139-2.752-1.361-2.891-2.891h.973c.131.996.922 1.787 1.918 1.918v.973m-1.647-3.181c0-1.067.87-1.937 1.937-1.937 1.068 0 1.937.869 1.937 1.937 0 1.066-.868 1.937-1.937 1.937-1.066 0-1.937-.87-1.937-1.937m2.383 3.702l-.008-.263c1.571-.2 2.809-1.44 3.006-3.01h.257c-.002.059-.081 1.616-.913 2.448-.873.874-2.334.829-2.342.825m1.217.274c.477-.13 1.006-.363 1.434-.789.966-.967 1.039-2.684 1.041-2.757h.217v-.875h-.217c-.002-.071-.075-1.774-1.041-2.741-.129-.129-.268-.238-.412-.336 6.08 1.439 9.823 2.66 9.823 2.66l1.936 4.838h-12.781"/><circle cx="13.612" cy="48.452" r="1.452"/></svg>