<svg xmlns="http://www.w3.org/2000/svg" viewBox="0 0 64 64" enable-background="new 0 0 64 64"><path d="m52.432 48.407l-12.455 4.511-1.701-4.646-2.671-7.308.032-.012c1.676-.749 1.883-2.089 2.02-2.975.045-.294.097-.626.188-.726.755-.828 1.633-1.192 2.564-1.577 1.299-.537 2.643-1.097 3.559-2.925l5.449-2.152.609 1.529c.172.423.654.63 1.077.464.425-.167.635-.648.466-1.069l-.611-1.533.77-.304c.427-.17.633-.648.463-1.071-.169-.423-.648-.63-1.074-.461l-.77.304-.61-1.532c-.169-.42-.655-.629-1.077-.462s-.635.648-.465 1.069l.611 1.533-4.311 1.703c.059-.728-.021-1.479-.208-2.196.77-.139 1.171-.214 1.171-.214-2.178-3.683-6.129-3.274-8.807-5.775-1.205-1.127-2.301-1.882-3.287-2.387.099-.08.182-.163.226-.254.069-.144-.083-.317-.299-.498 1.521-.398 3.254-.761 4.132-.632 2.078.306 5.316 3.555 7.363 4.023 1.242.283 4.332.763 5.096-.253.654-.875-.125-3.624-1.029-4.239-.83-.565-2.986.636-3.986.531-1.822-.188-5.084-2.314-6.913-2.434-.849-.055-2.487.286-3.952.651.34-.277.664-.508.949-.649 1.879-.934 6.403-.115 8.351-.896 1.183-.475 3.991-1.844 4.032-3.111.035-1.089-2.188-2.898-3.283-2.889-1.004.009-2.081 2.223-2.961 2.706-1.605.884-5.5.998-7.068 1.944-.648.391-1.63 1.397-2.539 2.414.07-.411.071-.929-.012-1.586-.002-.017-.005-.035-.01-.052-.157-1.218-.537-2.354-1.076-3.386-1.301-2.491-3.585-4.344-6.283-5.117.021-.274.016-.556-.02-.839-.259-2.094-2.03-3.629-4.072-3.629-.174 0-.348.011-.524.033-2.257.288-3.858 2.364-3.579 4.637.034.279.1.546.184.803-2.42 1.413-4.173 3.769-4.816 6.501-.266 1.132-.349 2.324-.201 3.545.002.017.002.035.003.052.321 2.541 1.311 2.827 2.819 2.317.395.653.848 1.087 1.207 1.425.168.158.316.298.413.419.015.16-.009.561-.228 1.551-.164.739.063 1.219.282 1.49.312.386.808.598 1.396.598.409 0 .848-.1 1.229-.265.177.189.481.478.977.478.119 0 .233-.017.345-.049.047.409.173.67.303.857.264.384.682.604 1.146.604.172 0 .347-.033.521-.092-.001.253.037.474.137.644.269.463 2.313-.232 2.964 0 .688.249 1.747 1.411 2.497 1.266-1.232 4.758-4.201 8.336-4.201 8.336l-.782.829c-1.656-.176-2.097.932-3.349 1.615-.643.35-.916 1.185-.471 1.528l.689-.271-4.049 1.6.613 1.53 3.402-1.344c.006.621.168 1.095.729 1.009 2.014-.312 2.364.864 4.514.046.782-.299 1.519-1.557 1.545-2.327l.783-.828c0 0 .307-.441.781-1.198l.764-.302c-.189.453-.29.943-.29 1.45 0 1.006.394 1.952 1.108 2.663l.213.213.302-.111.396 1.081c-.43.156-.65.628-.494 1.055.154.431.633.648 1.061.493l.566 1.549c-.43.16-.652.63-.494 1.061.156.426.631.646 1.063.49l.566 1.549-1.557.564c-1.291.467-1.955 1.888-1.487 3.169l.284.777c-.43.154-.65.626-.496 1.054.156.428.633.649 1.061.493l-10.119 3.666c-.859.313-1.812-.129-2.124-.987l-1.56.567c.631 1.712 2.531 2.591 4.25 1.969l32.698-11.844-.568-1.551m-18.379-16.483l.355-.796c.756-.511 2.036-1.203 3.767-1.495 2.232-.375 3.97-.678 5.188-.896.217.791.268 1.645.133 2.424l-12.24 4.835 2.797-4.072m-14.446-28.96c.134-.018.269-.026.403-.026 1.591 0 2.939 1.207 3.136 2.809.021.168.017.334.012.5-1.019-.19-2.081-.229-3.164-.095-1.086.136-2.109.437-3.05.872-.043-.152-.082-.307-.102-.468-.217-1.759 1.024-3.37 2.765-3.592m-7.653 12.891c.022-.434.075-.865.158-1.296 2.488-1.503 5.447-2.501 8.579-2.893.968-.121 1.946-.183 2.907-.183 2.145 0 4.201.295 6.119.877.189.398.348.806.477 1.22-1.954-.543-4.069-.826-6.204-.826-1.037 0-2.093.065-3.139.195-3.237.407-6.279 1.405-8.897 2.906m13.816 3.992c-1.252.798-3.326 3.715-4.036 5.821-.271.245-.544.39-.769.39-.549 0-.861-.482-.682-1.282.076-.337.249-.681.385-.944-.081.206-.184.491-.268.787-.193.686.154.859.663-.113.241-.457.587-1.945.587-1.945s-1.813 2.109-2.479 2.086c-.247-.009-.329-.361-.891-.699-.229.253-.818.486-1.315.486-.504 0-.914-.241-.757-.95.138-.626.394-1.823.146-2.197-.344-.52-1.023-.908-1.573-1.75 1.735-.771 3.985-2.097 6.595-2.421 2.883-.359 5.64.566 7.554.809-1.247.637-2.465 1.476-3.16 1.922m.563 19.239l-2.185-2.041c1.387-1.902 4.902-7.369 4.336-13.411-.115-1.23-.303-1.621-.303-1.621s1.125-.625 2.705-.93c.158.247.316.578.465 1.019 1.835 5.454-3.227 14.161-5.018 16.984m5.425-9.095l1.505 1.408-.03.069-3.529 5.141-1.054.417c1.063-1.918 2.288-4.429 3.108-7.035m-2.419 12.277c-.411-.503-.634-1.125-.634-1.782 0-.751.293-1.456.878-2.055l12.846-5.074c-.668.736-1.48 1.079-2.384 1.453-.985.407-2.004.829-2.901 1.813-.279.308-.348.747-.42 1.214-.125.807-.266 1.721-1.444 2.249l-5.941 2.182m.835 12.449l-.283-.775c-.291-.796.124-1.68.924-1.969l1.557-.564.884-.32-.322-.881-.566-1.549 2.228-.808c.431-.153.653-.628.495-1.057-.157-.427-.632-.648-1.06-.492l-2.231.806-.567-1.55 2.229-.807c.431-.155.651-.628.495-1.056-.156-.429-.631-.648-1.062-.493l-2.229.808-.244-.668 4.458-1.616 2.51 6.866 1.135 3.098-8.351 3.027"/><path d="m17.053 18.918c-.393.284-.177.818.227 1.378.404.56.845.933 1.237.649.394-.284.383-.968-.021-1.527-.404-.56-1.05-.783-1.443-.5"/></svg>