<svg xmlns="http://www.w3.org/2000/svg" viewBox="0 0 64 64" enable-background="new 0 0 64 64"><path d="m53.835 54.389h3.798l.207-.725c.089-.31 2.16-7.665 2.16-15.447 0-5.389-1.867-8.035-3.514-10.37-.97-1.372-1.884-2.669-2.382-4.45-.973-3.479.842-13.306 1.623-16.798l.17-.757-.727-.336c-.308-.143-7.63-3.506-13.095-3.506-.557 0-1.084.035-1.569.104-1.452.21-2.552.835-3.382 1.639-.117-.014-.225-.043-.349-.043-3.522 0-4.69 3.176-4.69 3.176s1.27 3.536 1.923 8.322c-.097-.135-.171-.319-.16-.611.017-.457-.361-.842-.848-.856-.486-.018-.89.342-.909.797-.032.866.299 1.603.959 2.127.332.264.747.439 1.187.581.075.856.124 1.74.141 2.64-.081-.131-.14-.307-.131-.567.019-.458-.36-.842-.848-.857-.485-.01-.891.342-.909.8-.033.864.299 1.6.958 2.124.262.209.574.365.906.495-.031.756-.088 1.518-.18 2.278-.067-.127-.111-.296-.103-.529.016-.457-.363-.842-.849-.856-.49-.027-.891.342-.91.799-.031.864.299 1.601.958 2.125.178.141.39.246.602.351-.109.555-.243 1.106-.395 1.653-.026-.147-.018-.327.081-.562.177-.427-.044-.906-.497-1.074-.453-.167-.96.043-1.137.469-.337.806-.285 1.603.151 2.304.189.303.457.563.754.805-.031.079-.059.159-.092.237-.064-.189-.195-.361-.393-.468-.421-.225-.959-.088-1.199.31-.453.743-.533 1.557-.236 2.35.091.242.215.477.365.701-.011.018-.021.033-.032.051-.038-.076-.077-.152-.14-.218-.33-.338-.885-.361-1.241-.05-.671.578-1.011 1.329-.984 2.169.012.349.091.699.212 1.047-.139.161-.275.32-.416.476-.05-.076-.105-.15-.183-.211-.377-.288-.931-.234-1.237.119-.566.657-.74 1.418-.692 2.182-.36.32-.719.623-1.073.908-.027-.044-.041-.092-.076-.131-.311-.352-.865-.399-1.238-.105-.7.549-1.013 1.253-1.104 1.987-.635.411-1.219.762-1.715 1.038-.604-.32-1.227-.65-1.884-.65-.265 0-.513.054-.738.16-.489.232-1.318.482-2.196.748-3.296.993-8.814 2.655-8.091 7.385.177 1.155.729 2.177 1.54 3.088-1.621 1.285-3.642 2.916-4.536 3.759-2.425 2.286-4.062 5.484 14.455 5.484 11.802 0 39.511 0 39.511 0v-2.847h-3.958c0 0-.852-2.466-1.623-4.764m-36.679-10.234c.937-.281 1.753-.527 2.37-.805.201.054.6.266.848.396.585.312 1.19.633 1.829.633.491-.003.995-.076 1.507-.197.09.198.176.373.252.515-.08.163-.13.341-.13.531 0 .709.609 1.283 1.36 1.283.754 0 1.363-.574 1.363-1.283 0-.584-.422-1.057-.989-1.212-.063-.118-.132-.253-.2-.398.916-.402 1.843-.945 2.756-1.594.107.149.205.278.28.373-.021.088-.057.171-.057.265 0 .709.608 1.283 1.36 1.283.754 0 1.363-.574 1.363-1.283 0-.677-.563-1.218-1.27-1.265-.095-.12-.202-.265-.314-.424.69-.572 1.363-1.194 2.012-1.846.396.385.757.695 1.006.898-.002.021-.014.039-.014.062 0 .709.61 1.283 1.361 1.283.752 0 1.361-.574 1.361-1.283s-.609-1.283-1.361-1.283c-.045 0-.082.021-.127.023-.278-.227-.655-.562-1.048-.948.718-.802 1.389-1.628 1.994-2.448.438.226.842.41 1.156.544.074.643.631 1.148 1.332 1.148.753 0 1.362-.575 1.362-1.284 0-.708-.609-1.283-1.362-1.283-.094 0-.174.033-.26.05-.382-.15-.816-.344-1.261-.569.615-.943 1.126-1.852 1.502-2.679.053.011.115.025.164.033.222.429.677.729 1.217.729.751 0 1.36-.574 1.36-1.283s-.609-1.283-1.36-1.283c-.282 0-.528.099-.745.237-.021-.004-.047-.01-.069-.014.255-.955.39-2.038.44-3.206.348-.028.663-.064.928-.102.25.268.604.444 1.012.444.752 0 1.361-.574 1.361-1.283s-.609-1.283-1.361-1.283c-.408 0-.764.178-1.014.445-.277.043-.586.078-.902.106-.013-.85-.047-1.722-.113-2.623.51-.032.973-.085 1.318-.135.246.229.584.371.957.371.752 0 1.361-.574 1.361-1.283s-.609-1.283-1.361-1.283c-.449 0-.828.218-1.077.535-.404.063-.865.113-1.339.142-.096-1.015-.209-2.04-.324-3.064.656-.038 1.229-.112 1.604-.172.204.115.431.2.685.2.754 0 1.363-.574 1.363-1.283s-.609-1.283-1.363-1.283c-.56 0-1.039.319-1.247.774-.38.054-.8.095-1.229.117-.308-2.743-.563-5.293-.44-7.182.002-.042.313-4.173 3.846-4.681.385-.056.811-.084 1.266-.084 4.057 0 9.531 2.165 11.479 2.993-.607 2.889-2.563 12.902-1.432 16.945.586 2.102 1.643 3.598 2.662 5.043 1.628 2.306 3.164 4.482 3.164 9.269 0 6.139-1.382 12.167-1.897 14.204h-8.657l-1.417-5.399-.181-.661-.706-.077c0 0-.19-.021-.498-.021-2.295 0-3.975 1.029-4.493 2.756-1.681 5.593-9.435 7.07-13.3 7.07-.16 0-.315-.002-.464-.007-8.773-.283-15.292-3.039-15.854-6.702-.435-2.836 2.766-4.043 6.675-5.222m-1.866 14.998c-4.562 0-8.173-.683-6.686-2.083.649-.612 2.025-1.726 3.271-2.712 2.322 1.548 5.579 2.598 9.102 3.173-.859.857-2.511 1.622-5.687 1.622m10.891 0c-1.231 0-1.441-.465-1.28-1.175.455.029.91.055 1.364.068.172.006.35.009.533.009 4.4 0 13.253-1.774 15.273-8.493.293-.978 1.32-1.254 2.11-1.316l1.611 6.143h4.2c-.137 2.162-.635 4.765-.635 4.765h-23.176z"/><ellipse cx="39.88" cy="10.351" rx="1.36" ry="1.284"/></svg>