<svg xmlns="http://www.w3.org/2000/svg" viewBox="0 0 64 64" enable-background="new 0 0 64 64"><path d="m50.171 52.509c-.015.007-.245.02-.896.563l-.238.054c-.538.124-1.317-.331-2.129-.818-.871-.521-1.771-1.037-2.704-1.061-.465-.012-.644-.095-.71-.286-.764-2.182-.924-3.732-.926-3.748l-.004-.053.491-.108-2.825-6.751-.857-11.494 5.371-1.146 3.998 2.651c-.02.513.201 1.014.604 1.338l.648.523c.391.315.922.424 1.396.286.624.398 1.203.592 1.763.592h.001c.83 0 1.568-.427 2.195-1.267 1.016-1.354.834-2.798-.483-3.858-1.364-1.104-2.05-1.657-2.729-1.657-.346 0-.625.149-.852.331l-4.989-3.311c-.448-.295-1.328-.385-1.857-.231 0 0-2.563.577-4.56 1.026l.396-3.119c3.312-3.082 5.13-7.333 3.989-11.523-.451-1.659-3.736-5.684-10.871-4.271-2.676.53-4.17 2.783-4.004 4.242-1.125 1.481-1.417 3.206-1.567 4.146l-.024.15c-.098.13-.396.418-1.293 1.032-.958.659-.88 1.479-.802 1.802.187.767.923 1.311 1.604 1.579-.042.261-.056.631.196.982.047.066.099.124.153.174-.079.161-.128.333-.14.52-.02.346.086.794.588 1.194-.09.534-.092 1.206.292 1.806.401.626 1.108 1.007 2.103 1.133.743.094 1.693.038 2.831-.142.074.514.039.953-.034 1.311-.299.252-1.367 1.207-1.804 2.307l-6.368-2.67-2.061-5.147c1.836-1.642 3.172-4.186 3.172-7.145 0-5.208-4.09-9.444-9.117-9.444s-9.118 4.235-9.118 9.443 4.089 9.445 9.116 9.445c.572 0 1.132-.062 1.676-.168l2.384 5.954c.221.542 1.262 1.303 1.495 1.362l6.881 2.932c-1.51 4.421-2.07 8.422-2.07 8.422l-1.262 7.109.371.054-.01.113c-.013.174-.306 4.289 2.113 7.703.504.712 1.77.965 2.701.965.332 0 .793-.034 1.094-.192 2.654-1.414 5.024-1.704 5.048-1.707l.156-.019c1.386 2.137 3.612 2.827 4.829 2.361l-.344-.931c2.799.325 7.558 2.074 7.606 2.094l.413.152c1.569 2.502 4.102 3.345 5.398 2.694l-3.727-7.67c-.315-.65-1.074-.923-1.697-.608m-5.512-28.531c.395-.11.957-.005 1.128.107l5.614 3.725.268-.283c.256-.272.379-.309.467-.309.355 0 1.068.577 2.15 1.451.92.741 1.029 1.596.32 2.54-.447.603-.924.895-1.453.895-.428 0-.899-.185-1.443-.563l-.227-.158-.246.125c-.209.106-.473.076-.665-.077l-.647-.522c-.207-.167-.299-.446-.23-.711l.084-.329-4.852-3.216-5.673 1.223c-.677.141-1.375-.341-1.523-1.05-.075-.355-.012-.717.179-1.016.184-.284.46-.479.785-.546l5.964-1.286m-14.043-.996c-2.002-.254-1.674-1.618-1.41-2.454-1.682-.693-.08-1.416.746-1.713-.191.092-.449.224-.701.375-.583.354-.453.702.537.355.466-.163 1.68-.977 1.68-.977s-1.934.243-2.803.133c-.826-.104-.163-.55-.387-1.343-.057.004-.119.002-.188-.008-.787-.099-2.188-1.038-1.049-1.82.555-.38 1.602-1.108 1.681-1.569.161-.941.412-3.017 1.919-4.513 1.349-.337 3.536-.717 4.877-.073 2.318 1.114.34 3.532.981 5.72l.438.055c2.133-3.958 5.173-1.981 4.147.994-1.207 3.501-2.808 2.522-2.808 2.522s-1.136 3.31-3.163 3.796c-2.151.517-3.572.638-4.497.52m2.656 2.215c-.135.574-.363.904-.363.904 2.156.272 4.879-3.116 5.744-5.892.196.391.434.69.639.891l-.406 3.206c-.771.174-1.314.297-1.316.297-1.324.255-1.902 2.073-2.413 3.677-.226.713-.606 1.907-.866 1.994-.708.193-1.475-.457-1.873-1.495-.483-1.254.526-3.05.854-3.582m-.221 23.3l.247.036c.174-.568.058-1.15.256-1.755.184-.56.501-1.063 1.1-1.063.49 0 .843.337 1.047.752.303.616.299 1.369.626 2.066l.107-.022.003.013c.014.05.113.409.301.928-.191.116-.377.233-.555.354l-.174.05c-.42.122-.848.113-1.25.076-.66-.056-1.295-.019-1.964.295l-.009.003c.285-.989.277-1.55.265-1.733m-11.329-29.117c-.498-.202-.977-.448-1.416-.762-.002 0-.002-.001-.003-.002.081-.052.165-.099.245-.153.338-.235.652-.508.95-.797.089.063.17.135.269.186.472.222.967.234 1.44.152-.439.517-.936.983-1.485 1.376m3.519-6.936c0 2.061-.719 3.948-1.906 5.414-.509.035-1.011-.022-1.418-.296-.063-.041-.113-.098-.171-.145.319-.34.612-.707.868-1.099 1.09-1.701 1.53-3.76 1.465-5.745-.031-.996-.188-1.986-.479-2.933-.057-.175-.123-.346-.189-.517 1.143 1.454 1.83 3.306 1.83 5.321m-8.125-8.428c2.299 0 4.373 1 5.854 2.598.133.365.242.741.328 1.115.209.935.291 1.896.279 2.849-.039 1.901-.486 3.814-1.502 5.369-.225.357-.489.684-.771.991-.239-.348-.42-.75-.562-1.163-.234-.72-.399-1.473-.541-2.237l-.437-2.306c-.324-1.535-.713-3.104-1.499-4.511-.391-.696-.892-1.34-1.503-1.844-.363-.288-.76-.522-1.174-.707.496-.098 1.005-.154 1.528-.154m-1.765.207c1.092.634 1.938 1.614 2.473 2.75.652 1.365 1 2.877 1.309 4.397.328 1.52.549 3.088 1.141 4.592.18.439.422.886.74 1.262-.381.372-.801.696-1.25.983-.405-.314-.8-.644-1.178-.993-1.084-1.017-2.084-2.132-3.019-3.306-.94-1.167-1.813-2.394-2.62-3.666-.4-.638-.783-1.287-1.127-1.962-.261-.497-.477-1.016-.656-1.553 1.102-1.234 2.55-2.126 4.187-2.504m-6.36 8.221c0-2.153.79-4.114 2.076-5.606.104.54.281 1.066.465 1.58.281.722.615 1.42.984 2.095.734 1.355 1.603 2.623 2.553 3.824.963 1.188 2.007 2.313 3.189 3.278.36.295.74.565 1.129.821-.521.296-1.061.557-1.632.739-.017.006-.036.008-.054.014-.356-.242-.729-.454-1.111-.624-1.113-.494-2.247-.844-3.297-1.357-1.058-.492-2.031-1.142-2.839-1.995-.554-.581-1.017-1.256-1.424-1.98-.023-.259-.039-.522-.039-.789m.156 1.628c.255.527.563 1.032.936 1.491.785.987 1.835 1.727 2.941 2.254 1.111.527 2.273.856 3.383 1.236.245.088.486.182.725.284-1.278.334-2.611.467-3.954.473-2.055-1.186-3.564-3.27-4.031-5.738m7.969 6.801c-1.307 0-2.537-.329-3.633-.899 1.436.144 2.9.095 4.328-.279.056.034.117.057.172.094.341.225.631.527.854.891-.556.124-1.131.193-1.721.193m1.106-1.296c.612-.188 1.208-.441 1.771-.769.052.03.1.065.15.094.461.234.943.445 1.439.575-.793.544-1.684.943-2.638 1.173-.148-.406-.403-.777-.722-1.073m4.805 8.514c-.206-.096-.847-.618-.935-.803l-2.324-5.809c.414-.132.813-.3 1.201-.488.057-.026.113-.056.17-.084.386-.197.76-.415 1.111-.665l2.109 5.27 6.661 2.797c-.419.89-.796 1.799-1.131 2.706l-6.862-2.924m9.031 27.211c-.045.025-.251.086-.662.086-.865 0-1.719-.25-1.945-.57-1.742-2.461-1.945-5.41-1.951-6.57l4.609.642c-.026.28-.1.723-.293 1.323-.076.233-.037.491.104.691.246.348.735.432 1.265.183.745-.349 1.095-.245 1.495-.209.374.03.779.05 1.161-.014l1.007 2.727c-.907.171-2.754.628-4.79 1.711m9.992-.424c-.326-.029-.494-.266-.734-.649-.151-.242-.307-.493-.556-.633-1.847-1.047-2.907-3.742-3.274-4.841l4.229-.925c.107.66.357 1.896.901 3.449.157.454.456.916 1.47.916l.118-.001c.679 0 1.468.473 2.23.931.805.483 1.567.939 2.332.97l.552 2.677c-1.551-.542-5.034-1.686-7.268-1.894"/><path d="m30.632 13.025c-.459-.058-.657.456-.74 1.111-.083.653-.02 1.201.44 1.26.459.059.899-.426.981-1.08.084-.655-.221-1.232-.681-1.291"/><path d="m38.384 17.262c-.208-2.109 1.813-3.384 1.813-3.384-1.064-.135-2.269.827-2.431 2.105-.111.886.618 1.279.618 1.279"/></svg>