<svg xmlns="http://www.w3.org/2000/svg" viewBox="0 0 64 64" enable-background="new 0 0 64 64"><path d="m50.975 4.692c-4.604 0-8.336 3.732-8.336 8.335 0 4.604 3.732 8.334 8.336 8.334 4.602 0 8.334-3.73 8.334-8.334 0-4.603-3.733-8.335-8.334-8.335m0 14.653c-3.49 0-6.318-2.828-6.318-6.317 0-3.488 2.828-6.316 6.318-6.316 3.488 0 6.316 2.828 6.316 6.316 0 3.489-2.828 6.317-6.316 6.317"/><path d="m22.414 45.715h9.125v-12.987c-3.537.049-5.544.634-5.879.971-1.652 4.749-2.758 8.876-3.246 12.016"/><path d="m2 2v49.688 3.75 6.562h60v-6.563-3.75-49.687h-60m37.198 16.045l-.938.938-.938-.938.938-.938.938.938m-2.252-11.041l.938.938-.938.938-.938-.938.938-.938m-8.93-3.249l.938.938-.938.937-.938-.938.938-.937m-.663 10.105l.469.469-.469.469-.469-.469.469-.469m-6.915 8.063l-.938.938-.938-.938.938-.938.938.938m-2.5-13.044l.938.938-.938.938-.938-.938.938-.938m-6.347 6.856l.469.469-.469.469-.469-.469.469-.469m0 12.438l.469.469-.469.469-.469-.469.469-.469m-4.264-23.337l.938.938-.938.937-.937-.937.937-.938m-1.596 17.087l.938.938-.938.938-.937-.939.937-.937m-.495 15.939l.938.938-.938.938-.937-.938.937-.938m.938 7.853c8.389-23.184 25.824-25.902 25.824-25.902s17.436 2.718 25.826 25.902c.535 1.478 1.403 3.82 1.959 5.973h-1.021c-.576-2.159-1.456-4.535-2.121-5.973-7.153-15.44-24.643-16.812-24.643-16.812s-17.487 1.371-24.641 16.812c-.665 1.438-1.545 3.813-2.121 5.973h-1.021c.556-2.153 1.425-4.496 1.959-5.973m45.737-17.753l.469-.469.469.469-.469.469-.469-.469m5.918 8.627l.938-.938.938.938-.938.938-.938-.938m-18.623-3.248c1.442 4.134 4.177 12.744 3.495 17.03-.14.879-5.42 1.318-10.702 1.318-5.281 0-10.563-.439-10.702-1.318-.682-4.286 2.055-12.896 3.495-17.03.347-.993 3.484-1.512 6.747-1.557v-.004h.871v.004c3.279.04 6.447.559 6.796 1.557m1.727-.5c4.714 2.173 10.242 6.037 13.814 12.874h-10.373c-.681-4.355-2.252-9.415-3.441-12.874m-21.307 12.874h-10.375c3.572-6.839 9.101-10.703 13.814-12.875-1.188 3.461-2.758 8.522-3.439 12.875m-.131.937c-.226 1.755-.288 3.36-.085 4.642.104.666.351 2.227 12.588 2.227 12.239 0 12.484-1.561 12.589-2.228.203-1.282.142-2.888-.083-4.641h10.545c.841 2.666 1.537 5.479 2.075 8.39h-50.25c.538-2.91 1.234-5.724 2.075-8.39h10.546m40.209-22.598l-.938-.938.938-.938.938.938-.938.938m-8.729-.937c-5.572 0-10.09-4.517-10.09-10.089 0-5.572 4.518-10.089 10.09-10.089 5.57 0 10.088 4.517 10.088 10.089 0 5.572-4.518 10.089-10.088 10.089"/><path d="m32.41 45.715h9.175c-.487-3.142-1.593-7.269-3.247-12.017-.336-.339-2.359-.928-5.928-.973v12.99"/></svg>