<svg xmlns="http://www.w3.org/2000/svg" viewBox="0 0 64 64" enable-background="new 0 0 64 64"><g fill-rule="evenodd"><path d="m30.967 47.875h-6.804c-.204 0-.378.143-.378.312v6.876c0 .169.174.313.378.313h6.804c.205 0 .379-.144.379-.313v-6.876c0-.169-.174-.312-.379-.312"/><path d="m25.203 36.625h-.945c-.261 0-.473.21-.473.469v2.813c0 .258.212.469.473.469h.945c.26 0 .472-.211.472-.469v-2.813c0-.259-.212-.469-.472-.469"/><path d="m28.037 36.625h-.945c-.26 0-.472.21-.472.469v2.813c0 .258.212.469.472.469h.945c.261 0 .473-.211.473-.469v-2.813c0-.259-.212-.469-.473-.469"/><path d="m30.873 36.625h-.945c-.261 0-.473.21-.473.469v2.813c0 .258.212.469.473.469h.945c.26 0 .473-.211.473-.469v-2.813c0-.259-.213-.469-.473-.469"/><path d="m47.93 17.594v2.763c1.52 0 2.759 1.214 2.784 2.715l-4.177 2.763v.739c0 2.432 1.818 4.449 4.178 4.786v.049 19.721c0 1.523-1.25 2.763-2.785 2.763-1.536 0-2.785-1.239-2.785-2.763 0-2.63-1.864-4.833-4.35-5.388v-15.554h1.891 1v-1-2.813c0-1.068-.872-1.938-1.945-1.938h-2.609c-2.71-1.464-6.03-2.435-9.676-2.685v-3.094c3.786-.854 6.615-4.207 6.615-8.221-.001-4.66-3.809-8.437-8.507-8.437s-8.504 3.777-8.504 8.438c0 4.015 2.828 7.368 6.614 8.221v3.094c-3.645.25-6.966 1.22-9.676 2.685h-2.608c-1.072 0-1.944.869-1.944 1.938v2.813 1h1 1.89v26.061h-.946c-1.072 0-1.944.869-1.944 1.938v.214c-.566.339-.945.956-.945 1.661v.937 1h1 32.131 1v-1-.938c0-.705-.38-1.322-.945-1.661v-.214c0-1.068-.872-1.938-1.945-1.938h-.945v-7.592c.923.451 1.564 1.385 1.564 2.472 0 3.047 2.499 5.526 5.57 5.526s5.57-2.479 5.57-5.526v-19.721-8.289c-.001-3.047-2.5-5.525-5.571-5.525m-27.925-7.156c0-4.143 3.385-7.5 7.56-7.5 4.176 0 7.561 3.357 7.561 7.5 0 4.142-3.385 7.5-7.561 7.5-4.175 0-7.56-3.359-7.56-7.5m-7.56 18.75v-2.813c0-.516.425-.938.944-.938h.945 26.46.945c.52 0 .945.422.945.938v2.813h-1.891-26.46-1.888m18.901 12.125h-7.561c-.52 0-.945-.422-.945-.938v-1.668c-.562-.327-.945-.926-.945-1.613v-4.625c0-1.031.852-1.875 1.891-1.875h7.561c1.039 0 1.889.844 1.889 1.875v4.625c0 .688-.384 1.287-.944 1.613v1.668c-.002.516-.427.938-.946.938m.944 1.875v1.875c0 .516-.425.938-.944.938h-7.561c-.52 0-.945-.422-.945-.938v-1.875c0-.516.426-.938.945-.938h7.561c.519 0 .944.422.944.938m9.45 14.062c.52 0 .945.422.945.938v.938c.52 0 .945.422.945.938v.936h-32.13v-.938c0-.516.426-.938.945-.938v-.938c0-.516.425-.938.944-.938h.945 26.46.946zm-17.903-1c-.568-.141-.997-.607-.997-1.188v-6.876c0-.689.594-1.249 1.323-1.249h6.804c.73 0 1.323.56 1.323 1.249v6.876c0 .58-.428 1.047-.996 1.188h-7.457m26.878-27.724c-.602-.211-1.076-.688-1.281-1.287l1.281-.849v2.136"/><path d="m27.967 15.614l.461.264 1.104.634v-1.267-1.266l-1.104.633-.461.265c-.047-.103-.145-.173-.258-.173h-.289c-.113 0-.211.07-.257.173l-.462-.265-1.104-.633v1.266 1.267l1.104-.634.462-.264c.046.102.144.173.257.173h.289c.113 0 .211-.071.258-.173"/><path d="m28.824 12c.325-.262.5-.631.46-.97-.185.29-.442.5-.741.645s-.638.217-.978.218c-.341-.001-.679-.072-.978-.217-.3-.145-.557-.355-.742-.646-.039.339.136.708.461.97.322.265.79.42 1.259.419.468.002.937-.153 1.259-.419"/><path d="m32.422 9.221c0-.453-.062-.891-.178-1.306.035-.036.072-.066.113-.09.123-.073.102-.005.102-.179v-.092c0-.071-.008-.085-.046-.104-.067-.035-.138-.067-.21-.093-.053-.019-.111-.036-.174-.052-.742-1.73-2.462-2.941-4.464-2.941-2.003 0-3.722 1.211-4.465 2.941-.063.016-.12.033-.175.052-.071.025-.142.058-.209.093-.038.02-.046.033-.046.104v.093c0 .174-.022.105.103.179.04.023.077.054.111.09-.115.415-.177.853-.177 1.306 0 2.682 2.175 4.856 4.857 4.856s4.858-2.176 4.858-4.857m-4.857-4.284c1.634 0 3.054.915 3.775 2.26-.576-.053-1.216-.042-1.589-.009-.602.053-1.104.188-1.514.398-.385.191-.962.191-1.346 0-.411-.211-.913-.346-1.514-.398-.374-.033-1.014-.044-1.59.009.725-1.345 2.145-2.26 3.778-2.26m-4.284 4.284c0-.032.001-.064.002-.097.15.572.488.943.995 1.134.544.204 1.154.197 1.694-.019.295-.118.555-.305.762-.607.361-.531.253-.863.439-1.319.163-.398.619-.398.781 0 .188.456.079.788.44 1.319.206.303.466.489.762.607.54.216 1.149.223 1.694.019.508-.19.846-.562.996-1.134 0 .031.001.064.001.097 0 2.365-1.918 4.283-4.283 4.283-2.365 0-4.283-1.918-4.283-4.283"/></g></svg>