<svg xmlns="http://www.w3.org/2000/svg" viewBox="0 0 64 64" enable-background="new 0 0 64 64"><path d="m37.428 32l18.57-15.572c-1.052-1.857-2.48-2.645-4.25-2.645-4.889 0-12.373 6.025-21.611 12.102l-1.664-1.395c0 0-5.913-2.641-6.5-3.825 1.329-.571 2.555-1.425 3.561-2.571 3.583-4.089 3.101-10.239-1.076-13.744-4.181-3.504-10.471-3.035-14.056 1.054-3.585 4.086-3.102 10.238 1.079 13.742.453.383 1.734 1.163 1.821 1.211 5.332 2.807 8.301 4.938 9.953 6.39.363.465 2.027 2.315 2.027 2.315-.367.367-.65.733-.873 1.097-.396.616-.607 1.278-.573 1.973.019.468.148.921.368 1.355.013.027.03.055.045.082.051.094.104.186.16.276.224.362.507.728.873 1.095 0 0-1.415 1.625-1.784 2.095-1.595 1.452-4.587 3.657-10.196 6.608-.087.048-1.368.828-1.821 1.211-4.182 3.504-4.664 9.656-1.08 13.743 3.583 4.089 9.875 4.56 14.056 1.054 4.177-3.503 4.659-9.655 1.076-13.744-1.006-1.146-2.231-2-3.561-2.569.587-1.187 6.5-3.825 6.5-3.825l1.662-1.393c9.234 6.077 16.725 12.1 21.615 12.1 1.768 0 3.197-.787 4.25-2.645l-18.571-15.575m-22.817-16.424c-2.162-1.813-2.411-4.995-.555-7.11 1.85-2.112 5.104-2.358 7.269-.543 2.159 1.811 2.408 4.995.555 7.107-1.852 2.113-5.109 2.358-7.269.546m6.714 40.503c-2.164 1.814-5.419 1.567-7.269-.544-1.856-2.114-1.607-5.297.555-7.111 2.16-1.811 5.415-1.567 7.269.548 1.853 2.112 1.604 5.297-.555 7.107m6.817-29.398l.339.284c-.532.341-1.072.68-1.613 1.018l-.144-.16c-.107-.118-.223-.247-.344-.383l1.762-.759m.179 10.487l-1.779-.78c.07-.082.141-.161.202-.232l1.133-1.302-1.222-1.224c-.657-.66-.959-1.261-.896-1.788.076-.65.718-1.394 1.76-2.039 3.34-2.069 6.545-4.263 9.374-6.198 6.229-4.265 11.609-7.947 14.854-7.947.506 0 1.064.079 1.616.508l-25.042 21.002m23.429 11.176c-3.247 0-8.629-3.683-14.857-7.947-1.635-1.119-3.408-2.325-5.25-3.543l4.313-3.618 17.41 14.601c-.553.428-1.111.507-1.616.507"/><path d="m30.876 30.551c-.818-.657-2.026-.541-2.698.259-.674.802-.554 1.982.264 2.638.819.658 2.028.544 2.699-.258.672-.801.551-1.983-.265-2.639"/></svg>