<svg xmlns="http://www.w3.org/2000/svg" viewBox="0 0 64 64" enable-background="new 0 0 64 64"><path d="m61.22 4.387c-.934-1.518-2.561-2.387-4.466-2.387-1.108 0-2.248.292-3.388.867-3.855 1.948-8.762 5.468-13.911 9.919-2.281-.254-5.601-.623-10.446-1.161l1.893-1.894-1.909-1.91-3.422 3.421c-3.095-.344-6.698-.744-10.891-1.209l2.27-2.27-1.911-1.911-3.797 3.799c-2.471-.274-5.118-.569-7.97-.886-1.968-.219-1.588 4.727.7 5.794 11.158 5.201 18.296 8.528 22.869 10.66-4.408 4.925-10.354 12.196-12.55 17.771-2.097-.233-5.258-.584-10.029-1.114-.678-.074-.548 1.625.239 1.992 5.061 2.358 7.717 3.597 9.113 4.248.032.105.075.205.116.305-1.924 2.323-3.005 4.085-2.614 4.473.386.385 2.138-.69 4.451-2.608.104.044.212.087.328.124.653 1.402 1.89 4.056 4.236 9.091.368.788 2.068.915 1.993.239-.527-4.749-.877-7.903-1.109-10.001 4.861-1.944 11.521-6.907 17.784-12.543 2.131 4.575 5.454 11.705 10.639 22.83 1.068 2.293 6.016 2.669 5.797.699-.317-2.852-.611-5.5-.886-7.971l3.797-3.796-1.911-1.911-2.268 2.269c-.465-4.193-.866-7.797-1.209-10.892l3.419-3.418-1.911-1.912-1.891 1.892c-.538-4.844-.906-8.161-1.16-10.441 4.453-5.149 7.973-10.056 9.919-13.911 1.125-2.233 1.156-4.51.086-6.247m-1.799 5.383c-2.676 5.302-8.707 13.08-16.521 20.892-8.438 8.44-16.827 14.79-22.108 17.087-.164-1.484-.216-1.952-.232-2.098 3.957-4.042 6.65-7.701 6.076-8.283-.582-.578-4.242 2.117-8.285 6.075-.147-.017-.618-.069-2.111-.235 2.303-5.28 8.667-13.675 17.1-22.108 7.813-7.812 15.59-13.843 20.891-16.521.904-.455 1.76-.661 2.524-.661 2.73-.001 4.293 2.625 2.666 5.852"/><path d="m52.743 6.057l-3.295 2.047c1.505-.52 3.557.125 4.748 1.076l2.643-2.642c-1.09-.841-2.61-.981-4.096-.481"/><path d="m54.82 9.804c.95 1.191 1.595 3.243 1.075 4.747l2.047-3.295c.5-1.487.359-3.006-.48-4.095l-2.642 2.643"/></svg>