<svg xmlns="http://www.w3.org/2000/svg" viewBox="0 0 64 64" enable-background="new 0 0 64 64"><path d="m60.223 29.912v-15.974c0-9.784-11.317-9.224-13.24-5.989-1.385-7.655-13.361-7.812-15.503-1.105-3.537-5.896-14.824-4.613-14.824 5.285-3.165-4.363-13.907-4.418-13.907 5.26 0 0 .081 3.747-.002 4.992-.369 5.54-1.483 11.106.011 22.21.67 4.982 2.792 8.839 6.304 11.461 6.255 4.67 14.821 3.888 16.521 3.677 3.664 1.516 7.558 2.271 11.385 2.271 4.229 0 8.375-.922 12.038-2.759 6.182-3.1 10.487-8.529 12.122-15.289 1.536-6.345.923-10.721-.905-14.04m-13.241-19.721c1.729-2.796 9.91-4.183 9.91 5.254 0 .735 0 7.493 0 10.461-2.169-2.118-9.065-6.395-9.91-6.932v-8.783m-14.414.601c0-8.299 11.633-7.613 11.633 1.231 0 .654 0 3.692 0 5.501-2.415-.944-4.327-.412-6.621.234-1.377.389-2.967.832-5.012 1.05v-8.016m-14.271.687c0-7.894 11.174-6.878 11.174 2.059 0 .643 0 3.579 0 5.397-3.402-.552-6.082 1.613-6.908 4.393-.359 1.207-.424 2.684.017 4.147-2.284-.812-4.282-2.71-4.282-5.293v-10.703zm-13.919 5.883c0-7.254 11.36-7.334 11.36 2.087 0 .511 0 7.59 0 7.59 0 6.911-11.36 8.157-11.36.062v-9.739m49.851 32.706c-7.942 9.235-18.616 9.321-29.211 6.394 0 0-10.969 2.502-16.604-3.196-4.168-4.215-5.534-12.828-4.557-21.53 1.518 2.295 4.337 3.645 6.817 3.645 2.283 0 4.398-.933 5.957-2.626 1.233-1.342 2.047-3.108 2.424-5.183 1.246 1.216 2.887 2.022 4.71 2.197 1.897 2.999 5.905 3.723 7.72 4.028-3.8 1.851-7.104 5.787-5.285 12.485-.141-10.676 11.353-13.421 12.867-12.782 1.769.748 3.931 4.128 4.446 5.899.201.689.253 2.856.253 2.856s.6-2.247.476-2.994c-.377-2.29-3.445-6.548-5.605-7.405-1.402-.556-5.09.726-6.007.582-8.465-1.321-9.424-6.796-8.839-8.763.56-1.881 2.696-3.364 4.214-3.27 4.772.317 7.534-.446 9.923-1.12 2.764-.781 4.494-1.368 7.178.404 1.216.803 11.61 7.543 13.4 11.249 2.959 6.125-.354 14.573-4.277 19.13"/></svg>