<svg xmlns="http://www.w3.org/2000/svg" viewBox="0 0 64 64" enable-background="new 0 0 64 64"><path d="m41.947 6.448l-4.239 17.348-3.521-17.588c-1.239-6.833-11.391-4.704-9.977 1.796l2.538 12.911c-2.579-.902-6.947 1.289-6.585 5.322-1.525-2.258-8.707-1.605-8.13 5.009 0 0 .588 4.507.666 6.018.139 2.711-.058 7.696.374 10.853 1.278 9.344 9.804 13.702 17.686 13.877.165.004.331.006.498.006 8.112 0 16.932-4.377 18.747-14.301 1.313-7.192-1.115-10.431-4.473-12.896l6.307-26.16c1.54-6.096-8.346-8.544-9.891-2.195m-16.302.675c-.708-3.589 5.104-4.256 5.8-.612l4.625 24.222c-.869.11-2.555.861-4.619.972l-.74-6.522c-.153-1.38-1.282-3.009-2.259-3.782l-2.807-14.278m.393 15.645c1.542.738 2.123 1.244 2.813 8.957-2.021 0-3.669 1.863-3.669 4.076-1.269 0-2.018-1.302-2.433-2.669-.607-1.993-1.066-4.982-1.271-6.633-.411-3.338 2.963-4.496 4.56-3.731m-6.255 7.029c.264.993 1.612 6.069 1.189 8.328-.713 3.794-6.514 2.976-6.956-.932l-.749-6.405c-.426-3.838 5.256-5.74 6.516-.991m25.707 21.511c-4.947 8.254-15.265 9.729-22.2 6.778-5.976-2.543-10.273-6.653-9.306-17.753 1.155 1.772 7.868 3.514 9.473-3.146.634.393 1.33.616 2.028.683 1.02 2.681 4.297 3.508 5.336 3.711-2.165 1.231-3.906 3.627-2.847 7.533-.085-6.451 6.764-8.293 7.755-7.931 1.148.421 2.615 2.486 2.965 3.596.137.438.166 1.833.166 1.833s.403-1.4.338-1.872c-.201-1.448-2.061-4.218-3.426-4.756-1.623-.637-5.77-.234-7.321-1.03-3.106-1.594-2.059-6.249.496-5.974 2.893.311 4.528-.192 5.958-.597 1.654-.468 3.104-.903 4.559.188 1.518 1.137 4.818 3.575 5.813 4.559 3.26 3.224 2.507 10.349.213 14.178m3.465-42.225l-5.683 24.21c-2.169-1.342-3.209-2.388-4.153-2.45l-.8-3.889 5.079-20.354c.834-3.417 6.589-1.554 5.557 2.483"/></svg>