<svg xmlns="http://www.w3.org/2000/svg" viewBox="0 0 64 64" enable-background="new 0 0 64 64"><path d="m55.339 30.79c-2.519-1.382-11.341-4.241-18.681-6.38l5.328-5.503.578.599 1.273-1.314-.578-.6 3.684-3.807-.705-.73 3.684-3.805-3.144-3.25-3.685 3.806-.709-.73-3.687 3.806-1.38-1.424-8.511 8.802 1.073 1.113 7.221-7.466.316.3-7.795 8.051c-7.035-3.226-9.701.335-13.346 5.255-1.995 2.692-4.479 6.044-8.344 9.308-1.264 1.065-2.559 2.899-2.4 4.853.078.97.574 2.344 2.356 3.55l-3.794 7.037-2.093 2.166 1.036 1.071 2.103-2.171 4.873-2.797c.909 1.213 2.311 2.074 3.742 2.215 3.441.344 6.357 1.625 9.178 2.864 2.797 1.23 5.438 2.391 8.196 2.391 3.637 0 6.477-.493 9.482-1.016 3.901-.677 8.323-1.444 15.791-1.444 2.778 0 4.736-2.27 5.372-6.224 1.123-6.956-2.065-16.132-6.434-18.526m-29.332 10.589c-.959-.442-1.871-.861-2.623-1.137-.055-.02-.116-.037-.171-.057.432-.677 1.31-1.824 3.042-3.444-.131 1.918-.21 3.691-.248 4.638m16.378-30.508l2.822 2.914-2.816 2.908-2.822-2.914 2.816-2.908m-4.091 4.225l2.822 2.914-20.901 21.588c-2.745-.175-6.041.573-8.878 3.343l26.957-27.845m-29.058 23.271c4.085-3.368 6.606-6.871 8.664-9.647 3.544-4.783 5.396-7.568 10.644-5.348l-18.53 19.141c-.917-.541-3.09-2.24-.778-4.146m-3.271 13.038l2.959-5.508.255.263c-.312 1.063-.271 2.154.161 3.206l-3.375 2.039m54.381-2.683c-.271 1.688-2.309 3.986-4.612 3.986-7.643 0-11.49 1.126-15.48 1.772-7.724 1.249-13.457-.34-15.953-1.931-6.256-3.986-9.667-1.93-12.542-4.145-.925-.713-.842-2.455.063-3.544 4-4.802 9.208-3.997 10.898-3.195 4.865 2.31 9.289 2.65 10.472 2.392 1.185-.242 2.233-.886 3.051-1.693-.93.683-2.016 1.133-3.124 1.192-1.105.077-4.287-.916-4.826-1.147-.195-.957-.509-2.663-.538-3.914 1.994 2.033 4.186 2.549 4.186 2.549l-4.265-5.624c0 0 6.24-6.871 10.392-8.98 6.99 2.052 14.336 4.354 16.45 5.514 3.598 1.971 6.798 10.756 5.828 16.768"/></svg>