<svg xmlns="http://www.w3.org/2000/svg" viewBox="0 0 64 64" enable-background="new 0 0 64 64"><path d="m59.466 6.317l-1.783-1.784c-3.381-3.377-8.853-3.376-12.234 0l-36.03 36.032-7.141 18.672c-.838 2.21.281 3.323 2.484 2.481l18.675-7.134 36.029-36.033c3.381-3.376 3.377-8.853 0-12.234m-22.629 9.486l2.508 2.507-24.764 24.766-2.508-2.509 24.764-24.764m3.834 3.834l3.695 3.696-24.763 24.765-3.695-3.695 24.763-24.766m-29.645 37.683l-4.342-4.346 4.201-10.941 11.079 11.077-10.938 4.21m12.411-5.387l-2.506-2.509 24.762-24.765 2.508 2.509-24.764 24.765m26.209-26.21l-11.365-11.363 2.827-2.828 11.365 11.363-2.827 2.828"/></svg>