<svg xmlns="http://www.w3.org/2000/svg" viewBox="0 0 64 64" enable-background="new 0 0 64 64"><path d="m4.329 15.579l4.433 4.432c0 0 1.73 4.735 10.357 13.358 8.626 8.629 13.36 10.36 13.36 10.36l9.155 9.159 1.713-1.713 5.275 8.697c0 0 6.028-.659 11.879 2.127l-9.456-9.456c-.438.021-.883-.132-1.216-.461-.62-.624-.62-1.629 0-2.253.622-.621 1.629-.62 2.252.002.333.331.484.775.461 1.213l9.458 9.46c-2.786-5.853-2.127-11.882-2.127-11.882l-8.695-5.275 1.711-1.712-9.159-9.156c0 0-1.733-4.732-10.359-13.359s-13.359-10.362-13.359-10.362l-4.43-4.429c-3.108-3.105-8.145-3.105-11.252 0-3.106 3.107-3.106 8.145-.001 11.25m28.988 27.313l9.574-9.575 1.502 1.5-9.575 9.576-1.501-1.501m-25.217-25.219l9.575-9.575 1.499 1.498-9.574 9.577-1.5-1.5"/></svg>