<svg xmlns="http://www.w3.org/2000/svg" viewBox="0 0 64 64" enable-background="new 0 0 64 64"><path d="m55 23.353c0 0-1.729-1.469-4.23-2.286-.693-2.334-2.416-3.986-4.432-3.986-.865 0-1.676.305-2.377.839.803.611 1.454 1.521 1.873 2.614h-10.797v-10.024c1.178.389 2.159.994 2.816 1.738.576-.649.904-1.403.904-2.208 0-1.87-1.781-3.469-4.295-4.112-.88-2.323-2.463-3.928-2.463-3.928s-1.582 1.605-2.463 3.928c-2.514.644-4.294 2.242-4.294 4.112 0 .805.328 1.559.904 2.208.657-.744 1.639-1.35 2.816-1.738v10.023h-10.796c.418-1.094 1.071-2.003 1.871-2.614-.698-.534-1.51-.839-2.377-.839-2.016 0-3.736 1.652-4.431 3.986-2.5.818-4.229 2.287-4.229 2.287s1.729 1.47 4.229 2.287c.694 2.334 2.415 3.987 4.431 3.987.867 0 1.679-.306 2.377-.84-.8-.611-1.453-1.521-1.871-2.615h10.797v11.656 15.662c-1.178-.388-2.159-.994-2.816-1.736-.576.648-.904 1.402-.904 2.206 0 1.87 1.78 3.47 4.294 4.112.88 2.324 2.462 3.928 2.462 3.928s1.583-1.604 2.464-3.928c2.514-.643 4.295-2.242 4.295-4.112 0-.804-.328-1.558-.904-2.206-.657.742-1.639 1.349-2.816 1.736v-15.662-11.656h10.797c-.419 1.094-1.07 2.004-1.873 2.615.701.534 1.512.84 2.377.84 2.016 0 3.738-1.653 4.432-3.987 2.5-.818 4.229-2.287 4.229-2.287"/></svg>