<svg xmlns="http://www.w3.org/2000/svg" viewBox="0 0 64 64" enable-background="new 0 0 64 64"><path d="M58,17.448H41.015L32,2l-9.014,15.448H6L14.492,32L6,46.553h16.986L32,62l9.015-15.447H58L49.508,32L58,17.448z
	 M51.854,20.981L47.465,28.5l-4.388-7.519H51.854z M32,9.001l4.93,8.447H27.07L32,9.001z M12.147,20.981h8.776L16.536,28.5
	L12.147,20.981z M12.147,43.02l4.389-7.52l4.388,7.52H12.147z M32,54.998l-4.93-8.445h9.859L32,54.998z M38.992,43.02H25.009
	L18.578,32l6.431-11.02h13.983L45.422,32L38.992,43.02z M51.854,43.02h-8.776l4.388-7.52L51.854,43.02z"/></svg>