<svg xmlns="http://www.w3.org/2000/svg" viewBox="0 0 64 64" enable-background="new 0 0 64 64"><path d="m60.5 30.5h-6.896l4.156-4.157c.586-.586.586-1.535 0-2.121s-1.535-.586-2.121 0l-6.278 6.278h-4.703l2.496-2.494c.586-.586.586-1.535 0-2.121s-1.535-.586-2.121 0l-4.617 4.615h-4.795l9.045-9.044h8.879c.828 0 1.5-.672 1.5-1.5s-.672-1.5-1.5-1.5h-5.879l5.547-5.548c.586-.586.586-1.535 0-2.121s-1.535-.586-2.121 0l-5.547 5.548v-5.879c0-.828-.672-1.5-1.5-1.5s-1.5.672-1.5 1.5v8.879l-9.045 9.044v-4.795l4.615-4.616c.586-.586.586-1.535 0-2.121s-1.535-.586-2.121 0l-2.494 2.495v-4.703l6.279-6.278c.586-.586.586-1.535 0-2.121s-1.535-.586-2.121 0l-4.158 4.156v-6.896c0-.828-.672-1.5-1.5-1.5s-1.5.672-1.5 1.5v6.896l-4.156-4.157c-.586-.586-1.535-.586-2.121 0s-.586 1.535 0 2.121l6.277 6.278v4.703l-2.494-2.495c-.586-.586-1.535-.586-2.121 0s-.586 1.535 0 2.121l4.615 4.616v4.795l-9.043-9.044v-8.879c0-.828-.672-1.5-1.5-1.5s-1.5.672-1.5 1.5v5.879l-5.549-5.548c-.586-.586-1.535-.586-2.121 0s-.586 1.535 0 2.121l5.549 5.548h-5.879c-.828 0-1.5.672-1.5 1.5s.672 1.5 1.5 1.5h8.879l9.043 9.044h-4.795l-4.615-4.615c-.586-.586-1.535-.586-2.121 0s-.586 1.535 0 2.121l2.494 2.494h-4.703l-6.277-6.278c-.586-.586-1.535-.586-2.121 0s-.586 1.535 0 2.121l4.156 4.157h-6.897c-.828.001-1.5.673-1.5 1.501s.672 1.5 1.5 1.5h6.896l-4.156 4.157c-.586.586-.586 1.535 0 2.121.293.293.678.439 1.061.439.385 0 .768-.146 1.061-.439l6.277-6.278h4.703l-2.494 2.494c-.586.586-.586 1.535 0 2.121.293.293.676.439 1.061.439.383 0 .768-.146 1.061-.439l4.615-4.615h4.795l-9.043 9.044h-8.879c-.828 0-1.5.672-1.5 1.5s.672 1.5 1.5 1.5h5.879l-5.549 5.548c-.586.586-.586 1.535 0 2.121.293.293.678.439 1.061.439.385 0 .768-.146 1.061-.439l5.549-5.548v5.879c0 .828.672 1.5 1.5 1.5s1.5-.672 1.5-1.5v-8.879l9.043-9.044v4.795l-4.615 4.616c-.586.586-.586 1.535 0 2.121.293.293.678.439 1.061.439.385 0 .768-.146 1.061-.439l2.494-2.495v4.703l-6.277 6.277c-.586.586-.586 1.535 0 2.121.293.293.676.439 1.061.439.383 0 .768-.146 1.061-.439l4.156-4.156v6.897c0 .828.672 1.5 1.5 1.5s1.5-.672 1.5-1.5v-6.896l4.158 4.156c.293.293.676.439 1.061.439.383 0 .768-.146 1.061-.439.586-.586.586-1.535 0-2.121l-6.284-6.278v-4.703l2.494 2.495c.293.293.678.439 1.061.439.385 0 .768-.146 1.061-.439.586-.586.586-1.535 0-2.121l-4.616-4.616v-4.795l9.045 9.044v8.879c0 .828.672 1.5 1.5 1.5s1.5-.672 1.5-1.5v-5.879l5.547 5.548c.293.293.678.439 1.061.439.385 0 .768-.146 1.061-.439.586-.586.586-1.535 0-2.121l-5.547-5.548h5.879c.828 0 1.5-.672 1.5-1.5s-.672-1.5-1.5-1.5h-8.879l-9.046-9.044h4.795l4.617 4.615c.293.293.676.439 1.061.439.383 0 .768-.146 1.061-.439.586-.586.586-1.535 0-2.121l-2.497-2.494h4.703l6.277 6.278c.293.293.678.439 1.061.439.385 0 .768-.146 1.061-.439.586-.586.586-1.535 0-2.121l-4.156-4.157h6.896c.828 0 1.5-.672 1.5-1.5s-.672-1.5-1.5-1.5"/></svg>