<svg xmlns="http://www.w3.org/2000/svg" viewBox="0 0 64 64" enable-background="new 0 0 64 64"><path d="m28.878 25.999c.946-.368 2.002-.576 3.122-.576 1.119 0 2.174.208 3.122.577.479-6.17 1.229-16.081 1.377-20.341.069-2.021-2.016-3.659-4.5-3.659-2.483 0-4.568 1.637-4.498 3.659.151 4.26.897 14.171 1.377 20.34"/><path d="m25.418 32c0-1.118.209-2.176.581-3.12-6.169-.486-16.079-1.23-20.342-1.379-2.02-.069-3.657 2.015-3.657 4.499-.001 2.484 1.637 4.568 3.658 4.499 4.263-.151 14.171-.898 20.342-1.379-.373-.944-.581-2.002-.582-3.12"/><path d="m11.591 8.944l-2.649 2.648 15.802 15.801c.778-.97 1.674-1.867 2.649-2.648l-15.802-15.801"/><path d="m39.258 36.605c-.781.969-1.678 1.874-2.653 2.65l15.803 15.802 2.649-2.648-15.799-15.804"/><path d="m58.341 27.501c-4.261.148-14.171.893-20.341 1.379.372.944.579 2.002.58 3.12 0 1.117-.209 2.176-.58 3.12 6.169.48 16.081 1.228 20.341 1.379 2.021.069 3.659-2.015 3.659-4.499s-1.638-4.568-3.659-4.499"/><path d="m35.119 38c-.944.372-2.002.58-3.12.58s-2.175-.208-3.12-.58c-.481 6.17-1.227 16.078-1.378 20.341-.07 2.018 2.014 3.659 4.499 3.659 2.483 0 4.568-1.641 4.498-3.659-.148-4.263-.897-14.172-1.379-20.341"/><path d="m39.258 27.395l15.799-15.803-2.648-2.649-15.804 15.8c.977.782 1.871 1.681 2.653 2.652"/><path d="m24.744 36.605l-15.802 15.802 2.649 2.649 15.802-15.802c-.97-.775-1.874-1.682-2.649-2.649"/><circle cx="31.999" cy="32" r="4.5"/></svg>