<svg xmlns="http://www.w3.org/2000/svg" viewBox="0 0 64 64" enable-background="new 0 0 64 64"><g fill-rule="evenodd"><path d="m30.249 2.065c-11.637.724-17.718 7.314-18.249 19.231h11.739c.147-4.128 2.451-7.214 6.741-7.669 4.211-.447 8.206.556 9.416 3.435 1.307 3.11-1.627 6.724-3.022 8.241-2.582 2.813-6.776 4.865-8.95 7.9-2.131 2.974-2.51 6.887-2.674 11.676h10.346c.145-3.062.349-5.995 1.742-7.898 2.266-3.092 5.65-4.541 8.486-6.983 2.709-2.334 5.559-5.147 6.043-9.501 1.453-13.031-9.184-19.208-21.618-18.432"/><ellipse cx="30.515" cy="55.567" rx="6.532" ry="6.433"/></g></svg>