<svg xmlns="http://www.w3.org/2000/svg" viewBox="0 0 64 64" enable-background="new 0 0 64 64"><path d="m32.313 4c6.29 0 11.456 1.903 14.545 5.357 2.501 2.795 3.518 6.468 3.021 10.918-.408 3.662-2.872 6.063-5.361 8.206-.943.813-1.965 1.515-3.045 2.256-2.018 1.384-4.104 2.815-5.75 5.062-1.374 1.878-1.811 4.313-2.015 7.08h-6.366c.228-3.787.755-6.486 2.206-8.512 1.037-1.447 2.711-2.707 4.484-4.041 1.5-1.129 3.051-2.296 4.312-3.67 3.48-3.785 4.654-7.37 3.395-10.369-1.271-3.026-4.689-4.762-9.377-4.762-.682 0-1.387.037-2.093.113-4.437.47-7.494 3.344-8.316 7.657h-7.796c1.054-9.632 6.376-14.622 16.217-15.234.649-.04 1.302-.061 1.939-.061m0-2c-.682 0-1.369.021-2.064.065-11.637.724-17.718 7.314-18.249 19.231h11.739c.147-4.128 2.451-7.214 6.741-7.669.636-.067 1.266-.102 1.882-.102 3.471 0 6.506 1.092 7.534 3.536 1.307 3.11-1.627 6.724-3.022 8.241-2.582 2.813-6.776 4.865-8.95 7.9-2.131 2.974-2.51 6.887-2.674 11.676h10.346c.145-3.062.349-5.995 1.742-7.898 2.266-3.092 5.65-4.541 8.486-6.983 2.709-2.334 5.559-5.147 6.042-9.501 1.372-12.302-8.034-18.496-19.553-18.496z"/><path d="m30.515 51.134c2.5 0 4.533 1.989 4.533 4.434s-2.033 4.432-4.533 4.432c-2.499 0-4.532-1.988-4.532-4.433s2.033-4.433 4.532-4.433m0-2c-3.608 0-6.532 2.881-6.532 6.434s2.924 6.432 6.532 6.432c3.609 0 6.533-2.88 6.533-6.433s-2.924-6.433-6.533-6.433z"/></svg>