<svg xmlns="http://www.w3.org/2000/svg" viewBox="0 0 64 64" enable-background="new 0 0 64 64"><path d="m32 60c-9.852 0-20.66-5.21-22.598-16.849-1.225-7.345 1.136-14.955 6.646-21.425 1.686-1.979 3.616-3.816 5.762-5.498-6.021-1.873-12.779-2.895-19.81-2.895v-9.333c11.049 0 21.396 2.166 30 6.099 8.604-3.932 18.951-6.099 30-6.099v9.333c-7.032 0-13.789 1.022-19.811 2.896 2.146 1.682 4.075 3.518 5.761 5.497 5.511 6.47 7.871 14.079 6.647 21.426-1.937 11.638-12.745 16.848-22.597 16.848m0-39.377c-3.502 2.025-6.49 4.427-8.801 7.14-2.617 3.072-5.53 7.972-4.549 13.862 1.04 6.246 7.453 9.042 13.35 9.042s12.31-2.796 13.35-9.041c.98-5.892-1.933-10.792-4.551-13.864-2.311-2.713-5.298-5.114-8.799-7.139"/></svg>