<svg xmlns="http://www.w3.org/2000/svg" viewBox="0 0 64 64" enable-background="new 0 0 64 64"><path d="m56.414 22.298c1.633-.181 3.495-.304 5.586-.314v-4.904c-6.071.034-10.488.919-12.972 1.59-5.449-1.771-11.146-2.67-16.992-2.67-5.966 0-11.771.933-17.316 2.771-2.748-.624-7.511-1.512-12.72-1.622v4.784c1.962.05 3.867.218 5.608.439-3.34 2.631-5.488 6.706-5.488 11.271 0 7.918 6.447 14.357 14.369 14.357 7.927 0 14.375-6.439 14.375-14.356 0-5.098-2.679-9.581-6.702-12.129 2.583-.405 5.209-.61 7.874-.61 2.675 0 5.314.207 7.91.617-4.016 2.548-6.688 7.029-6.688 12.122 0 7.917 6.445 14.356 14.373 14.356 7.921 0 14.369-6.439 14.369-14.356 0-4.613-2.19-8.719-5.586-11.346m-30.344 11.346c0 5.277-4.296 9.571-9.581 9.571-5.279 0-9.579-4.294-9.579-9.571 0-5.276 4.3-9.568 9.579-9.568 5.285-.001 9.581 4.291 9.581 9.568m21.561 9.571c-5.285 0-9.582-4.294-9.582-9.571 0-5.276 4.297-9.568 9.582-9.568 5.278 0 9.578 4.292 9.578 9.568 0 5.277-4.3 9.571-9.578 9.571"/></svg>