<svg xmlns="http://www.w3.org/2000/svg" viewBox="0 0 64 64" enable-background="new 0 0 64 64"><path d="m60.146 54.634c-14.061-8.682-16.969-24.087-18.701-39.226-.379-3.312-2.344-10.36-7.361-7.018-2.038 1.355-3.084 3.558-4.266 5.622-1.354 2.367-2.869 4.558-4.625 6.536-.313-5.075-.831-10.212-2.314-14.857-1.144-3.582-5.334-5.153-7.992-1.972-2.086 2.496-3.907 10.283-8.033 9.081-4.873-1.419-6.938 6.131-2.088 7.544 4.295 1.251 8.079-.104 11.037-3.358.41-.452.785-.935 1.142-1.432.522 4.406.579 8.974.851 13.188.178 2.742 3.275 5.158 5.909 3.378 4.475-3.028 7.69-6.679 10.558-10.788.1.868.195 1.736.316 2.602 2.08 15.102 8.166 29.159 21.605 37.456 4.315 2.666 8.256-4.104 3.962-6.756"/></svg>