<svg xmlns="http://www.w3.org/2000/svg" viewBox="0 0 64 64" enable-background="new 0 0 64 64"><path d="m35.58 19.596h8.477v7.145h-8.477z"/><path d="m32 2c-16.568 0-30 13.432-30 30s13.432 30 30 30 30-13.432 30-30-13.432-30-30-30m-7.819 33.328v14.172h-4.822v-12.293c-1.37 1.236-2.741 2.309-4.112 3.223-.383-1.344-1.534-3.76-2.246-4.617 3.782-2.148 7.454-5.799 9.812-9.932h-8.223v-4.564h4.823v-6.817h4.877v6.816h1.261l.876-.16 2.687 1.718c-.988 2.685-2.302 5.208-3.892 7.569 1.81 1.449 4.493 3.918 5.316 4.725l-3.178 4.025c-.714-.966-1.918-2.468-3.179-3.865m22.786 13.229h-2.502c-3.37 0-4.135-1.273-4.135-5.371v-11.85h-1.787c-.461 8.527-1.89 14.287-8.17 17.664-.51-1.164-1.786-2.99-2.758-3.877 5.105-2.656 6.128-6.977 6.485-13.787h-2.962v-16.336h17.564v16.336h-4.085v11.795c0 1.328.052 1.439.612 1.439h1.225c.613 0 .767-.721.868-5.371.818.719 2.554 1.383 3.677 1.66-.356 6.147-1.379 7.698-4.032 7.698"/></svg>