<svg xmlns="http://www.w3.org/2000/svg" viewBox="0 0 64 64" enable-background="new 0 0 64 64"><path d="m32 2c-16.568 0-30 13.432-30 30s13.432 30 30 30 30-13.432 30-30-13.432-30-30-30m2.723 12c2.696 1.475 5.974 3.823 7.561 5.682l-3.172 3.495c-1.482-1.802-4.652-4.369-7.402-6.009l3.013-3.168m-10.256 36h-4.389v-13.492c-1.162 3.004-2.483 5.68-3.963 7.592-.371-1.42-1.375-3.551-2.115-4.861 1.956-2.35 3.858-6.336 5.128-10.106h-4.547v-4.589h5.497v-4.097c-1.531.272-3.013.491-4.439.655-.212-1.093-.793-2.732-1.375-3.823 4.071-.602 8.723-1.64 11.419-3.005l3.226 3.715c-1.323.601-2.854 1.092-4.441 1.529v5.025h3.699v4.589h-3.699v.327c.898.875 3.014 3.168 3.912 4.262.422-2.021.688-4.262.845-6.337l3.543.874c-.317 4.426-.952 9.451-2.749 12.51l-3.383-1.803c.633-1.201 1.162-2.678 1.531-4.314l-2.324 2.895c-.318-.656-.794-1.639-1.375-2.623v15.077zm14.273-4.697h3.172c1.004 0 1.216-.766 1.375-5.682.95.766 2.695 1.529 3.963 1.803-.422 6.445-1.585 8.193-4.861 8.193h-4.283c-3.331 0-4.599-.928-4.916-3.934-1.321 1.148-2.696 2.24-4.123 3.225-.688-.93-2.539-2.732-3.543-3.553 2.855-1.746 5.393-3.822 7.561-6.281v-16.77h4.439v10.599c2.802-4.809 4.76-10.49 6.081-16.937l4.651.874c-.847 3.771-1.851 7.267-3.066 10.489l1.639-.437c1.639 3.551 2.908 8.248 3.172 11.363l-4.388 1.311c-.105-2.404-.846-5.736-1.85-8.797-1.745 3.881-3.807 7.322-6.239 10.326v2.459c-.001 1.53.159 1.749 1.216 1.749"/></svg>