<?xml version="1.0" encoding="UTF-8" standalone="no"?>
<svg
   xmlns:dc="http://purl.org/dc/elements/1.1/"
   xmlns:cc="http://creativecommons.org/ns#"
   xmlns:rdf="http://www.w3.org/1999/02/22-rdf-syntax-ns#"
   xmlns:svg="http://www.w3.org/2000/svg"
   xmlns="http://www.w3.org/2000/svg"
   id="svg2"
   viewBox="0 0 32 32"
   height="32"
   width="32"
   version="1.1">
  <metadata
     id="metadata10">
    <rdf:RDF>
      <cc:Work
         rdf:about="">
        <dc:format>image/svg+xml</dc:format>
        <dc:type
           rdf:resource="http://purl.org/dc/dcmitype/StillImage" />
        <dc:title></dc:title>
      </cc:Work>
    </rdf:RDF>
  </metadata>
  <defs
     id="defs8" />
  <path
     id="path4"
     d="M20 12.667v-2.688h-2.688v2.688h2.688zM20 7.354c1.438 0 2.688 1.125 2.688 2.625v8c0 1.5-1.25 2.688-2.688 2.688h-5.313v-2.688h5.313v-2.625h-2.688c-1.438 0-2.625-1.188-2.625-2.688v-2.688c0-1.5 1.188-2.625 2.625-2.625h2.688zM28 23.354v-18.688h-18.688v18.688h18.688zM28 1.979c1.438 0 2.688 1.25 2.688 2.688v18.688c0 1.438-1.25 2.625-2.688 2.625h-18.688c-1.438 0-2.625-1.188-2.625-2.625v-18.688c0-1.438 1.188-2.688 2.625-2.688h18.688zM4 7.354v21.313h21.313v2.688h-21.313c-1.438 0-2.688-1.25-2.688-2.688v-21.313h2.688z" />
</svg>
