<?xml version="1.0" encoding="UTF-8" standalone="no"?>
<!-- Generator: Adobe Illustrator 16.0.0, SVG Export Plug-In . SVG Version: 6.00 Build 0)  -->

<svg
   xmlns:dc="http://purl.org/dc/elements/1.1/"
   xmlns:cc="http://creativecommons.org/ns#"
   xmlns:rdf="http://www.w3.org/1999/02/22-rdf-syntax-ns#"
   xmlns:svg="http://www.w3.org/2000/svg"
   xmlns="http://www.w3.org/2000/svg"
   xmlns:sodipodi="http://sodipodi.sourceforge.net/DTD/sodipodi-0.dtd"
   xmlns:inkscape="http://www.inkscape.org/namespaces/inkscape"
   version="1.1"
   id="Layer_1"
   x="0px"
   y="0px"
   width="64px"
   height="64px"
   viewBox="0 0 64 64"
   enable-background="new 0 0 64 64"
   xml:space="preserve"
   inkscape:version="0.48.5 r10040"
   sodipodi:docname="1F335.svg"
   inkscape:export-filename="D:\TESTINGEMOJI\SVGTEST\1F335.png"
   inkscape:export-xdpi="90"
   inkscape:export-ydpi="90"><metadata
   id="metadata7237"><rdf:RDF><cc:Work
       rdf:about=""><dc:format>image/svg+xml</dc:format><dc:type
         rdf:resource="http://purl.org/dc/dcmitype/StillImage" /><dc:title></dc:title></cc:Work></rdf:RDF></metadata><defs
   id="defs7235" /><sodipodi:namedview
   pagecolor="#ffffff"
   bordercolor="#666666"
   borderopacity="1"
   objecttolerance="10"
   gridtolerance="10"
   guidetolerance="10"
   inkscape:pageopacity="0"
   inkscape:pageshadow="2"
   inkscape:window-width="640"
   inkscape:window-height="480"
   id="namedview7233"
   showgrid="false"
   inkscape:zoom="3.6875"
   inkscape:cx="32"
   inkscape:cy="32"
   inkscape:window-x="649"
   inkscape:window-y="384"
   inkscape:window-maximized="0"
   inkscape:current-layer="Layer_1" />
<g
   id="g7091"
   transform="translate(2,0)">
	<path
   d="M 13.838,39.891 V 23.236 c 0,-1.688 -2.657,-3.052 -5.933,-3.052 -3.28,0 -5.933,1.365 -5.933,3.052 v 20.638 c 0,0 -1.624,11.674 17.599,9.492 l 0.885,-8.49 c 0.001,0 -6.618,1.531 -6.618,-4.985 z"
   id="path7093"
   inkscape:connector-curvature="0"
   style="fill:#78b153" />
	<path
   d="M 6.731,43.913 V 23.271 c 0,-1.214 1.378,-2.259 3.372,-2.749 -0.775,-0.192 -1.641,-0.303 -2.561,-0.303 -3.276,0 -5.931,1.367 -5.931,3.052 v 20.642 c 0,0 -1.521,10.945 15.84,9.656 C 5.544,52.548 6.731,43.913 6.731,43.913 z"
   id="path7095"
   inkscape:connector-curvature="0"
   style="fill:#609340" />
	<path
   d="m 40.883,56.961 c 0,3.846 -4.981,6.959 -11.125,6.959 l 0,0 c -6.146,0 -11.125,-3.113 -11.125,-6.959 V 6.959 C 18.632,3.115 23.611,0 29.757,0 l 0,0 c 6.144,0 11.125,3.115 11.125,6.959 v 50.002 z"
   id="path7097"
   inkscape:connector-curvature="0"
   style="fill:#78b153" />
	<path
   d="M 26.877,57.098 V 7.096 c 0,-2.998 3.041,-5.547 7.29,-6.526 C 32.812,0.206 31.324,0 29.757,0 23.611,0 18.632,3.115 18.632,6.959 v 50.002 c 0,3.846 4.979,6.959 11.125,6.959 1.351,0 2.638,-0.156 3.837,-0.435 -3.95,-1.069 -6.717,-3.524 -6.717,-6.387 z"
   id="path7099"
   inkscape:connector-curvature="0"
   style="fill:#609340" />
	<path
   d="M 57.863,9.522 C 57.863,7.472 55.212,5.81 51.931,5.81 48.652,5.81 46,7.472 46,9.522 v 22.239 c -0.023,0.2 -0.035,0.411 -0.035,0.646 0,6.513 -6.62,4.985 -6.62,4.985 l 0.883,8.49 c 18.265,2.071 17.713,-8.357 17.611,-9.402 0.016,-0.099 0.023,-0.196 0.023,-0.298 V 9.522 z"
   id="path7101"
   inkscape:connector-curvature="0"
   style="fill:#78b153" />
	<path
   d="m 51.936,5.81 c -3.275,0 -5.935,1.662 -5.935,3.712 v 22.239 c -0.018,0.2 -0.029,0.411 -0.029,0.646 0,3.376 -1.783,4.59 -3.497,4.978 0.151,0.109 0.288,0.227 0.421,0.349 l -0.035,-0.345 c 0,0 6.618,1.531 6.618,-4.981 0,-0.235 0.016,-0.446 0.035,-0.646 V 9.522 c 0,-1.668 1.759,-3.078 4.177,-3.546 C 53.137,5.868 52.547,5.81 51.936,5.81 z"
   id="path7103"
   inkscape:connector-curvature="0"
   style="fill:#609340" />
	<g
   id="g7105">
		<path
   d="m 21.455,6.679 c 0.043,0.127 0.086,0.255 0.133,0.38 0.021,0.059 0.039,0.118 0.053,0.176 0.088,0.313 -0.014,-0.356 -0.002,-0.008 0.026,0.795 0.643,1.461 1.463,1.461 0.775,0 1.49,-0.664 1.462,-1.461 C 24.548,6.749 24.429,6.342 24.276,5.899 24.022,5.147 23.279,4.658 22.481,4.879 c -0.738,0.202 -1.282,1.044 -1.026,1.8 l 0,0 z"
   id="path7107"
   inkscape:connector-curvature="0"
   style="fill:#006838" />
	</g>
	<g
   id="g7109">
		<path
   d="m 35.878,5.316 c -0.308,0.498 -0.472,1.075 -0.61,1.637 -0.196,0.773 0.238,1.586 1.021,1.801 0.754,0.208 1.605,-0.249 1.796,-1.022 0.055,-0.2 0.104,-0.396 0.162,-0.591 0.029,-0.096 0.064,-0.188 0.099,-0.28 C 38.197,7.255 38.352,6.884 38.41,6.795 38.833,6.119 38.556,5.188 37.883,4.792 37.177,4.38 36.305,4.643 35.878,5.316 l 0,0 z"
   id="path7111"
   inkscape:connector-curvature="0"
   style="fill:#006838" />
	</g>
	<g
   id="g7113">
		<path
   d="m 30.415,14.832 c 0,0.274 0,0.548 0,0.82 0,0.797 0.666,1.463 1.465,1.463 0.799,0 1.465,-0.666 1.465,-1.463 0,-0.272 0,-0.546 0,-0.82 0,-0.797 -0.666,-1.462 -1.465,-1.462 -0.799,0 -1.465,0.665 -1.465,1.462 l 0,0 z"
   id="path7115"
   inkscape:connector-curvature="0"
   style="fill:#006838" />
	</g>
	<g
   id="g7117">
		<path
   d="m 25.033,23.142 c 0,0.392 0,0.781 0,1.171 0,0.797 0.666,1.462 1.462,1.462 0.795,0 1.461,-0.666 1.461,-1.462 0,-0.39 0,-0.779 0,-1.171 0,-0.799 -0.666,-1.463 -1.461,-1.463 -0.797,0 -1.462,0.664 -1.462,1.463 l 0,0 z"
   id="path7119"
   inkscape:connector-curvature="0"
   style="fill:#006838" />
	</g>
	<g
   id="g7121">
		<path
   d="m 21.604,14.871 c 0.194,0.392 0.349,0.799 0.585,1.169 0.429,0.67 1.289,0.942 2,0.525 0.667,-0.39 0.957,-1.33 0.526,-2.003 -0.237,-0.368 -0.394,-0.777 -0.583,-1.169 -0.353,-0.717 -1.355,-0.907 -2.003,-0.527 -0.725,0.427 -0.876,1.289 -0.525,2.005 l 0,0 z"
   id="path7123"
   inkscape:connector-curvature="0"
   style="fill:#006838" />
	</g>
	<g
   id="g7125">
		<path
   d="m 53.236,9.567 c 0.004,0.064 0,0.131 -0.002,0.198 0.012,-0.07 0.021,-0.137 0.033,-0.208 0.117,-0.215 0.135,-0.262 0.053,-0.145 -0.483,0.639 -0.104,1.637 0.522,2.003 0.341,0.198 0.752,0.252 1.126,0.146 0.407,-0.109 0.635,-0.352 0.877,-0.671 0.278,-0.366 0.317,-0.883 0.321,-1.324 0,-0.797 -0.673,-1.462 -1.468,-1.462 -0.799,0 -1.458,0.666 -1.462,1.463 l 0,0 z"
   id="path7127"
   inkscape:connector-curvature="0"
   style="fill:#006838" />
	</g>
	<g
   id="g7129">
		<path
   d="m 44.298,15.983 c 0.061,0.059 0.274,0.321 0.033,0.008 0.082,0.102 0.152,0.213 0.224,0.323 0.113,0.182 0.221,0.366 0.338,0.546 0.435,0.666 1.289,0.939 2.004,0.524 0.661,-0.39 0.959,-1.335 0.524,-2.003 -0.331,-0.507 -0.625,-1.026 -1.05,-1.467 -0.55,-0.576 -1.514,-0.556 -2.073,0 -0.569,0.573 -0.547,1.496 0,2.069 l 0,0 z"
   id="path7131"
   inkscape:connector-curvature="0"
   style="fill:#006838" />
	</g>
	<g
   id="g7133">
		<path
   d="m 57.295,16.14 c -0.121,0.133 -0.223,0.278 -0.329,0.419 -0.07,0.09 -0.337,0.401 -0.023,0.047 -0.528,0.599 -0.591,1.48 0,2.072 0.537,0.537 1.543,0.597 2.068,0 0.121,-0.135 0.223,-0.278 0.332,-0.419 0.067,-0.094 0.329,-0.399 0.021,-0.051 0.528,-0.595 0.591,-1.48 0,-2.067 -0.538,-0.541 -1.54,-0.6 -2.069,-10e-4 l 0,0 z"
   id="path7135"
   inkscape:connector-curvature="0"
   style="fill:#006838" />
	</g>
	<g
   id="g7137">
		<path
   d="m 40.695,24.29 c 0.736,-0.396 1.212,-1.034 1.489,-1.812 0.269,-0.751 -0.297,-1.6 -1.021,-1.799 -0.812,-0.225 -1.533,0.271 -1.8,1.022 -0.098,0.271 0.161,-0.333 0.025,-0.07 -0.049,0.094 -0.221,0.294 0.045,-0.031 -0.055,0.066 -0.121,0.125 -0.188,0.18 0.296,-0.255 0.062,-0.067 -0.031,-0.018 -0.701,0.374 -0.917,1.333 -0.525,2.003 0.416,0.707 1.297,0.901 2.006,0.525 l 0,0 z"
   id="path7139"
   inkscape:connector-curvature="0"
   style="fill:#006838" />
	</g>
	<g
   id="g7141">
		<path
   d="m 31.821,30.398 c 0.055,-0.49 0.023,-0.25 -0.021,-0.118 -0.061,0.188 -0.075,0.388 -0.1,0.583 -0.09,0.795 0.736,1.465 1.466,1.465 0.868,0 1.373,-0.67 1.465,-1.465 -0.057,0.49 -0.025,0.251 0.018,0.118 0.059,-0.188 0.074,-0.388 0.098,-0.583 0.089,-0.795 -0.732,-1.465 -1.462,-1.465 -0.868,0.001 -1.374,0.674 -1.464,1.465 l 0,0 z"
   id="path7143"
   inkscape:connector-curvature="0"
   style="fill:#006838" />
	</g>
	<g
   id="g7145">
		<path
   d="m 21.69,35.47 c 0.133,0.744 0.351,1.473 0.468,2.225 0.12,0.787 1.101,1.214 1.799,1.021 0.834,-0.23 1.146,-1.014 1.021,-1.801 -0.112,-0.752 -0.333,-1.477 -0.466,-2.225 -0.139,-0.787 -1.086,-1.218 -1.799,-1.022 -0.823,0.228 -1.164,1.015 -1.023,1.802 l 0,0 z"
   id="path7147"
   inkscape:connector-curvature="0"
   style="fill:#006838" />
	</g>
	<g
   id="g7149">
		<path
   d="m 25.203,51.737 c 0.157,0.74 0.822,1.136 1.527,1.19 0.797,0.062 1.462,-0.713 1.462,-1.465 0,-0.842 -0.671,-1.402 -1.462,-1.461 0.309,0.122 0.619,0.243 0.926,0.368 0.129,0.212 0.257,0.427 0.378,0.646 -0.002,-0.023 -0.008,-0.039 -0.014,-0.059 -0.163,-0.779 -1.061,-1.226 -1.797,-1.022 -0.805,0.221 -1.188,1.02 -1.02,1.803 l 0,0 z"
   id="path7151"
   inkscape:connector-curvature="0"
   style="fill:#006838" />
	</g>
	<g
   id="g7153">
		<path
   d="m 36.904,42.53 c -0.123,0.572 -0.366,1.101 -0.586,1.641 -0.299,0.74 0.321,1.605 1.024,1.798 0.836,0.231 1.5,-0.282 1.798,-1.022 0.219,-0.54 0.462,-1.064 0.585,-1.637 0.171,-0.779 -0.219,-1.578 -1.02,-1.802 -0.735,-0.199 -1.633,0.243 -1.801,1.022 l 0,0 z"
   id="path7155"
   inkscape:connector-curvature="0"
   style="fill:#006838" />
	</g>
	<g
   id="g7157">
		<path
   d="m 22.808,44.794 c 0,0.31 0,0.623 0,0.936 0,0.795 0.666,1.465 1.463,1.465 0.797,0 1.464,-0.67 1.464,-1.465 0,-0.312 0,-0.626 0,-0.936 0,-0.799 -0.667,-1.465 -1.464,-1.465 -0.797,0 -1.463,0.666 -1.463,1.465 l 0,0 z"
   id="path7159"
   inkscape:connector-curvature="0"
   style="fill:#006838" />
	</g>
	<g
   id="g7161">
		<path
   d="m 0.187,26.69 c 0.03,0.059 0.063,0.118 0.098,0.176 0.016,0.027 0.029,0.051 0.043,0.078 -0.072,-0.125 -0.105,-0.262 -0.105,-0.407 0.057,0.795 0.623,1.461 1.462,1.461 0.754,0 1.521,-0.666 1.463,-1.461 C 3.114,26.03 2.948,25.652 2.715,25.213 2.341,24.508 1.378,24.297 0.712,24.689 0.005,25.104 -0.187,25.985 0.187,26.69 l 0,0 z"
   id="path7163"
   inkscape:connector-curvature="0"
   style="fill:#006838" />
	</g>
	<g
   id="g7165">
		<path
   d="m 11.924,27.355 c -0.008,0.165 0,0.122 0.027,-0.125 -0.043,0.148 -0.023,0.105 0.068,-0.125 -0.021,0.047 -0.049,0.094 -0.08,0.137 0.145,-0.184 0.168,-0.219 0.062,-0.102 -0.548,0.576 -0.572,1.496 0,2.068 0.552,0.556 1.52,0.58 2.07,0 0.499,-0.525 0.753,-1.124 0.781,-1.853 0.023,-0.799 -0.686,-1.464 -1.465,-1.464 -0.815,0 -1.438,0.666 -1.463,1.464 l 0,0 z"
   id="path7167"
   inkscape:connector-curvature="0"
   style="fill:#006838" />
	</g>
	<g
   id="g7169">
		<path
   d="m 4.722,33.946 c 0.133,0.572 0.182,1.116 0.497,1.637 0.413,0.682 1.308,0.933 2.003,0.525 C 7.9,35.709 8.16,34.788 7.745,34.107 7.58,33.833 7.847,34.431 7.743,34.13 7.71,34.039 7.694,33.945 7.675,33.856 7.626,33.628 7.596,33.394 7.542,33.167 7.364,32.392 6.491,31.941 5.741,32.145 4.953,32.364 4.54,33.171 4.722,33.946 l 0,0 z"
   id="path7171"
   inkscape:connector-curvature="0"
   style="fill:#006838" />
	</g>
	<g
   id="g7173">
		<path
   d="m 7.828,38.708 c 0,0.349 0,0.701 0,1.054 0,0.795 0.666,1.461 1.464,1.461 0.798,0 1.461,-0.666 1.461,-1.461 0,-0.353 0,-0.705 0,-1.054 0,-0.799 -0.662,-1.464 -1.461,-1.464 -0.799,0 -1.464,0.665 -1.464,1.464 l 0,0 z"
   id="path7175"
   inkscape:connector-curvature="0"
   style="fill:#006838" />
	</g>
	<g
   id="g7177">
		<path
   d="m 8.023,18.948 c -0.427,0.433 -0.621,0.901 -0.662,1.504 -0.059,0.795 0.707,1.462 1.463,1.462 0.842,0 1.406,-0.667 1.462,-1.462 0,0.151 -0.039,0.293 -0.107,0.431 -0.163,0.198 -0.19,0.243 -0.086,0.135 0.56,-0.568 0.566,-1.504 0,-2.07 -0.558,-0.562 -1.51,-0.568 -2.07,0 l 0,0 z"
   id="path7179"
   inkscape:connector-curvature="0"
   style="fill:#006838" />
	</g>
	<g
   id="g7181">
		<path
   d="m 5.454,46.466 c 0.135,0.251 0.331,0.454 0.468,0.705 0.384,0.697 1.326,0.92 2.001,0.524 C 8.624,47.284 8.834,46.391 8.45,45.69 8.311,45.444 8.117,45.236 7.98,44.989 7.596,44.293 6.653,44.069 5.979,44.465 5.278,44.876 5.066,45.769 5.454,46.466 l 0,0 z"
   id="path7183"
   inkscape:connector-curvature="0"
   style="fill:#006838" />
	</g>
	<g
   id="g7185">
		<path
   d="m 11.773,51.381 c 0.068,0.129 0.141,0.254 0.211,0.384 0.031,0.055 0.064,0.117 0.094,0.176 0.165,0.313 -0.104,-0.302 0.014,0.027 0.274,0.752 0.987,1.25 1.802,1.022 0.724,-0.2 1.296,-1.05 1.024,-1.798 -0.167,-0.458 -0.396,-0.861 -0.617,-1.288 -0.368,-0.709 -1.339,-0.912 -2.001,-0.524 -0.715,0.419 -0.893,1.296 -0.527,2.001 l 0,0 z"
   id="path7187"
   inkscape:connector-curvature="0"
   style="fill:#006838" />
	</g>
	<g
   id="g7189">
		<path
   d="m 35.252,59.404 c 0.655,-0.524 1.025,-1.366 1.194,-2.169 0.168,-0.779 -0.216,-1.578 -1.019,-1.802 -0.732,-0.199 -1.637,0.243 -1.8,1.022 -0.027,0.125 -0.057,0.246 -0.092,0.368 -0.027,0.098 -0.201,0.489 -0.018,0.09 -0.053,0.113 -0.117,0.216 -0.186,0.321 0.23,-0.349 -0.041,0.012 -0.149,0.098 -0.622,0.497 -0.517,1.555 0,2.071 0.274,0.271 0.648,0.428 1.034,0.428 0.427,10e-4 0.721,-0.176 1.036,-0.427 l 0,0 z"
   id="path7191"
   inkscape:connector-curvature="0"
   style="fill:#006838" />
	</g>
	<g
   id="g7193">
		<path
   d="m 26.904,60.709 c 0,-0.251 0.002,-0.502 0.014,-0.756 0.006,-0.098 0.012,-0.196 0.023,-0.294 -0.047,0.45 0.004,0.02 0.029,-0.082 0.18,-0.775 -0.229,-1.582 -1.026,-1.802 -0.742,-0.203 -1.62,0.247 -1.798,1.022 -0.146,0.63 -0.168,1.269 -0.168,1.911 0,0.799 0.666,1.465 1.463,1.465 0.8,10e-4 1.463,-0.665 1.463,-1.464 l 0,0 z"
   id="path7195"
   inkscape:connector-curvature="0"
   style="fill:#006838" />
	</g>
	<g
   id="g7197">
		<path
   d="m 33.46,41.751 c 0,-0.117 0,-0.234 0,-0.353 0,-0.799 -0.668,-1.465 -1.464,-1.465 -0.799,0 -1.467,0.666 -1.467,1.465 0,0.118 0,0.235 0,0.353 0,0.795 0.667,1.461 1.467,1.461 0.796,0 1.464,-0.666 1.464,-1.461 l 0,0 z"
   id="path7199"
   inkscape:connector-curvature="0"
   style="fill:#006838" />
	</g>
	<g
   id="g7201">
		<path
   d="m 55.267,28.507 c 0.317,-0.329 0.604,-0.708 0.814,-1.116 0.372,-0.705 0.188,-1.584 -0.524,-2.001 -0.664,-0.388 -1.633,-0.18 -2.003,0.525 -0.069,0.129 -0.142,0.25 -0.222,0.368 -0.09,0.129 -0.076,0.109 0.053,-0.059 -0.057,0.074 -0.123,0.145 -0.189,0.211 -0.549,0.58 -0.576,1.5 0,2.071 0.553,0.557 1.519,0.577 2.071,0.001 l 0,0 z"
   id="path7203"
   inkscape:connector-curvature="0"
   style="fill:#006838" />
	</g>
	<g
   id="g7205">
		<path
   d="m 49.533,22.458 c -0.158,-0.155 -0.313,-0.311 -0.47,-0.468 -0.563,-0.564 -1.506,-0.564 -2.067,0 -0.566,0.564 -0.566,1.506 0,2.069 0.152,0.155 0.31,0.312 0.468,0.468 0.562,0.564 1.504,0.564 2.069,0 0.563,-0.563 0.563,-1.505 0,-2.069 l 0,0 z"
   id="path7207"
   inkscape:connector-curvature="0"
   style="fill:#006838" />
	</g>
	<g
   id="g7209">
		<path
   d="m 54.409,18.813 c -0.057,0.487 -0.025,0.249 0.018,0.115 0.062,-0.188 0.072,-0.386 0.1,-0.583 0.09,-0.795 -0.736,-1.464 -1.465,-1.464 -0.869,0 -1.374,0.671 -1.462,1.464 0.053,-0.489 0.023,-0.25 -0.021,-0.117 -0.062,0.188 -0.075,0.388 -0.097,0.585 -0.092,0.793 0.732,1.462 1.463,1.462 0.865,0 1.372,-0.669 1.464,-1.462 l 0,0 z"
   id="path7211"
   inkscape:connector-curvature="0"
   style="fill:#006838" />
	</g>
	<g
   id="g7213">
		<path
   d="m 50.816,36.734 c 0.191,0.243 -0.124,-0.176 -0.159,-0.219 -0.096,-0.138 -0.191,-0.274 -0.29,-0.411 -0.266,-0.384 -0.544,-0.756 -0.834,-1.124 -0.497,-0.627 -1.557,-0.514 -2.069,0 -0.617,0.614 -0.495,1.444 0,2.071 -0.192,-0.243 0.127,0.177 0.158,0.22 0.101,0.137 0.196,0.273 0.292,0.411 0.269,0.384 0.547,0.756 0.836,1.124 0.492,0.626 1.555,0.513 2.066,0 0.617,-0.615 0.497,-1.445 0,-2.072 l 0,0 z"
   id="path7215"
   inkscape:connector-curvature="0"
   style="fill:#006838" />
	</g>
	<g
   id="g7217">
		<path
   d="m 58.074,35.059 c 0.302,-0.282 0.6,-0.509 0.814,-0.877 0.403,-0.693 0.165,-1.602 -0.524,-2.005 -0.689,-0.403 -1.602,-0.165 -2.001,0.525 -0.082,0.133 -0.055,0.102 0.074,-0.09 -0.039,0.039 -0.086,0.078 -0.129,0.117 -0.103,0.086 -0.204,0.168 -0.302,0.263 -0.58,0.548 -0.553,1.516 0,2.067 0.576,0.575 1.493,0.551 2.068,0 l 0,0 z"
   id="path7219"
   inkscape:connector-curvature="0"
   style="fill:#006838" />
	</g>
	<g
   id="g7221">
		<path
   d="m 52.747,44.097 c 0.55,-0.109 1.094,-0.238 1.639,-0.349 0.783,-0.16 1.226,-1.073 1.025,-1.801 -0.223,-0.807 -1.023,-1.183 -1.801,-1.022 -0.549,0.109 -1.095,0.239 -1.637,0.349 -0.783,0.16 -1.227,1.073 -1.028,1.802 0.225,0.806 1.023,1.178 1.802,1.021 l 0,0 z"
   id="path7223"
   inkscape:connector-curvature="0"
   style="fill:#006838" />
	</g>
	<g
   id="g7225">
		<path
   d="m 44.877,42.957 c -0.386,0.607 -0.411,0.678 -0.074,0.216 0.096,-0.134 0.157,-0.29 0.19,-0.45 0.164,-0.779 -0.218,-1.578 -1.021,-1.798 -0.736,-0.204 -1.637,0.239 -1.802,1.022 0.384,-0.607 0.407,-0.678 0.073,-0.216 -0.097,0.133 -0.155,0.29 -0.19,0.45 -0.162,0.779 0.22,1.578 1.022,1.798 0.734,0.204 1.638,-0.239 1.802,-1.022 l 0,0 z"
   id="path7227"
   inkscape:connector-curvature="0"
   style="fill:#006838" />
	</g>
	<g
   id="g7229">
		<path
   d="m 24.189,28.198 c -0.051,-0.027 -0.104,-0.059 -0.153,-0.094 0.165,0.133 0.184,0.145 0.061,0.039 -0.107,-0.094 -0.209,-0.2 -0.312,-0.301 -0.563,-0.564 -1.507,-0.564 -2.069,0 -0.562,0.564 -0.562,1.508 0,2.067 0.301,0.306 0.623,0.607 0.997,0.815 0.699,0.388 1.594,0.176 2.003,-0.525 0.395,-0.674 0.17,-1.614 -0.527,-2.001 l 0,0 z"
   id="path7231"
   inkscape:connector-curvature="0"
   style="fill:#006838" />
	</g>
</g>
</svg>