<?xml version="1.0" encoding="UTF-8" standalone="no"?>
<!-- Generator: Adobe Illustrator 16.0.0, SVG Export Plug-In . SVG Version: 6.00 Build 0)  -->

<svg
   xmlns:dc="http://purl.org/dc/elements/1.1/"
   xmlns:cc="http://creativecommons.org/ns#"
   xmlns:rdf="http://www.w3.org/1999/02/22-rdf-syntax-ns#"
   xmlns:svg="http://www.w3.org/2000/svg"
   xmlns="http://www.w3.org/2000/svg"
   xmlns:sodipodi="http://sodipodi.sourceforge.net/DTD/sodipodi-0.dtd"
   xmlns:inkscape="http://www.inkscape.org/namespaces/inkscape"
   version="1.1"
   id="Layer_1"
   x="0px"
   y="0px"
   width="64px"
   height="64px"
   viewBox="0 0 64 64"
   enable-background="new 0 0 64 64"
   xml:space="preserve"
   inkscape:version="0.48.5 r10040"
   sodipodi:docname="1F360.svg"
   inkscape:export-filename="D:\TESTINGEMOJI\SVGTEST\1F360.png"
   inkscape:export-xdpi="90"
   inkscape:export-ydpi="90"><metadata
   id="metadata4851"><rdf:RDF><cc:Work
       rdf:about=""><dc:format>image/svg+xml</dc:format><dc:type
         rdf:resource="http://purl.org/dc/dcmitype/StillImage" /><dc:title></dc:title></cc:Work></rdf:RDF></metadata><defs
   id="defs4849" /><sodipodi:namedview
   pagecolor="#ffffff"
   bordercolor="#666666"
   borderopacity="1"
   objecttolerance="10"
   gridtolerance="10"
   guidetolerance="10"
   inkscape:pageopacity="0"
   inkscape:pageshadow="2"
   inkscape:window-width="640"
   inkscape:window-height="480"
   id="namedview4847"
   showgrid="false"
   inkscape:zoom="3.6875"
   inkscape:cx="32"
   inkscape:cy="32"
   inkscape:window-x="248"
   inkscape:window-y="295"
   inkscape:window-maximized="0"
   inkscape:current-layer="Layer_1" />
<g
   id="g4827">
	<path
   fill="#C97561"
   d="M61.627,9.646C53.408,6.15,24.152,3.083,8.463,14.917c-3.994,3.013-4.672,4.855-5.069,9.33   C0.091,35.434,8.271,46.146,19.815,46.92c6.561,0.448,12.675-5.191,16.768-9.904c7.945-9.16,15.792-15.417,25.797-21.915   C64.639,13.632,63.802,10.571,61.627,9.646z"
   id="path4829" />
	<path
   fill="#C1694F"
   d="M63.304,11.206c-2.152,0.25-21.155,3.317-38.832,14.353c-6.381,3.986-12.37,9.108-17.613,14.924   c3.095,3.626,7.662,6.085,12.956,6.437c6.561,0.448,12.675-5.191,16.768-9.904c7.945-9.16,15.792-15.417,25.797-21.915   C63.868,14.136,63.995,12.489,63.304,11.206z"
   id="path4831" />
	<path
   fill="#E59433"
   d="M36.225,33.678c-2.087,10.376-11.558,16.929-21.158,14.64C5.465,46.029-0.63,35.769,1.455,25.394   C3.539,15.021,13.012,8.468,22.611,10.756C32.21,13.044,38.307,23.307,36.225,33.678z"
   id="path4833" />
	<g
   id="g4835">
		<path
   fill="#7F4436"
   d="M36.492,10.659c1.312,0.824,3.778,11.304,3.063,12.627c-0.72,1.326-2.472-1.778-3.64-3.269    c-1.204-1.543-2.506-2.998-1.785-4.327C34.854,14.368,35.176,9.838,36.492,10.659z"
   id="path4837" />
	</g>
	<g
   id="g4839">
		<path
   fill="#7F4436"
   d="M51.806,14.242c0.061,1.003-4.143,5.95-5.033,6.006c-0.897,0.055-0.009-1.974,0.301-3.128    c0.326-1.19,0.575-2.41,1.472-2.465C49.438,14.602,51.742,13.233,51.806,14.242z"
   id="path4841" />
	</g>
</g>
<path
   fill="#C97561"
   d="M47.008,55.79c0,4.55-9.872,8.234-22.048,8.234c-12.175,0-22.047-3.685-22.047-8.234  c0-4.554,9.872-6.302,22.047-6.302C37.136,49.488,47.008,51.236,47.008,55.79z"
   id="path4843" />
<ellipse
   fill="#E0B73A"
   cx="24.96"
   cy="54.191"
   rx="22.047"
   ry="6.645"
   id="ellipse4845" />
</svg>