<?xml version="1.0" encoding="UTF-8" standalone="no"?>
<!-- Generator: Adobe Illustrator 16.0.0, SVG Export Plug-In . SVG Version: 6.00 Build 0)  -->

<svg
   xmlns:dc="http://purl.org/dc/elements/1.1/"
   xmlns:cc="http://creativecommons.org/ns#"
   xmlns:rdf="http://www.w3.org/1999/02/22-rdf-syntax-ns#"
   xmlns:svg="http://www.w3.org/2000/svg"
   xmlns="http://www.w3.org/2000/svg"
   xmlns:sodipodi="http://sodipodi.sourceforge.net/DTD/sodipodi-0.dtd"
   xmlns:inkscape="http://www.inkscape.org/namespaces/inkscape"
   version="1.1"
   id="Layer_1"
   x="0px"
   y="0px"
   width="64px"
   height="64px"
   viewBox="0 0 64 64"
   enable-background="new 0 0 64 64"
   xml:space="preserve"
   inkscape:version="0.48.5 r10040"
   sodipodi:docname="1F389.svg"
   inkscape:export-filename="D:\TESTINGEMOJI\SVGTEST\1F389.png"
   inkscape:export-xdpi="90"
   inkscape:export-ydpi="90"><metadata
   id="metadata4417"><rdf:RDF><cc:Work
       rdf:about=""><dc:format>image/svg+xml</dc:format><dc:type
         rdf:resource="http://purl.org/dc/dcmitype/StillImage" /><dc:title></dc:title></cc:Work></rdf:RDF></metadata><defs
   id="defs4415" /><sodipodi:namedview
   pagecolor="#ffffff"
   bordercolor="#666666"
   borderopacity="1"
   objecttolerance="10"
   gridtolerance="10"
   guidetolerance="10"
   inkscape:pageopacity="0"
   inkscape:pageshadow="2"
   inkscape:window-width="640"
   inkscape:window-height="480"
   id="namedview4413"
   showgrid="false"
   inkscape:zoom="3.6875"
   inkscape:cx="32"
   inkscape:cy="32"
   inkscape:window-x="338"
   inkscape:window-y="238"
   inkscape:window-maximized="0"
   inkscape:current-layer="Layer_1" />
<g
   id="g4365">
	<path
   fill-rule="evenodd"
   clip-rule="evenodd"
   fill="#BE202E"
   d="M53.963,23.567c-0.29-1.982-1.515-3.252-2.799-3.799   c-0.666-0.28-1.434-0.45-2.301-0.324c-1.989,0.283-3.12,1.773-3.473,3.272c-0.184,0.782-0.182,1.759,0.234,2.686   c0.726,1.625,2.332,2.472,3.957,2.067c0.951-0.237,1.561-0.815,1.955-1.559c0.444-0.839,0.614-2.345-0.257-3.389   c-0.722-0.871-2.414-1.354-3.421-0.156c-0.362,0.439-0.667,1.26-0.338,2.065c0.283,0.688,1.033,1.103,1.685,0.844   c0.479-0.184,0.708-0.594,0.556-1.186c-0.057-0.011-0.057,0.188-0.109,0.287c-0.059,0.104-0.163,0.216-0.279,0.274   c-0.69,0.357-1.211-0.258-1.191-0.958c0.009-0.561,0.455-1.07,1.099-1.143c0.666-0.074,1.303,0.336,1.586,0.959   c0.527,1.167-0.103,2.557-1.258,2.994c-1.261,0.471-2.488-0.211-3.062-1.244c-0.536-0.97-0.44-1.956-0.158-2.741   c0.394-1.097,1.444-2.134,3.004-2.166c1.484-0.03,3.119,0.91,3.607,2.98c0.165,0.697,0.152,1.214,0.057,1.794   c-0.168,1.034-0.613,1.979-1.521,2.748c-0.896,0.756-2.286,1.131-3.378,0.958c-1.018-0.163-1.963-0.641-2.678-1.412   c-0.795-0.855-1.359-2.103-1.412-3.454c-0.039-1.111,0.237-2.233,0.747-3.145c0.482-0.867,1.426-1.796,2.486-2.271l0.617-0.23   c2.478-0.566,4.546,0.179,5.932,1.972c0.762,0.989,1.313,2.36,1.392,3.681C55.248,24.112,54.368,24.471,53.963,23.567z"
   id="path4367" />
	<path
   fill-rule="evenodd"
   clip-rule="evenodd"
   fill="#BE202E"
   d="M35.938,10.949c-0.24-1.64-1.256-2.695-2.318-3.145   c-0.552-0.237-1.189-0.372-1.906-0.269c-1.647,0.234-2.585,1.469-2.875,2.711c-0.152,0.647-0.15,1.455,0.193,2.223   c0.602,1.347,1.934,2.049,3.276,1.716c0.793-0.2,1.299-0.68,1.622-1.295c0.367-0.693,0.505-1.941-0.214-2.807   c-0.6-0.72-2.001-1.122-2.835-0.129c-0.301,0.363-0.552,1.046-0.278,1.709c0.235,0.571,0.857,0.915,1.396,0.701   c0.396-0.154,0.587-0.494,0.46-0.984c-0.048-0.009-0.048,0.156-0.094,0.241c-0.048,0.083-0.133,0.175-0.232,0.228   c-0.57,0.295-0.998-0.214-0.984-0.792c0.011-0.467,0.375-0.887,0.91-0.949c0.556-0.063,1.081,0.278,1.316,0.793   c0.436,0.968-0.088,2.12-1.044,2.481c-1.041,0.389-2.06-0.173-2.538-1.034c-0.442-0.8-0.364-1.617-0.131-2.267   c0.329-0.91,1.196-1.771,2.488-1.796c1.232-0.021,2.583,0.754,2.991,2.47c0.134,0.577,0.127,1.007,0.046,1.483   c-0.138,0.856-0.51,1.642-1.259,2.279c-0.744,0.626-1.896,0.934-2.797,0.792c-0.848-0.134-1.628-0.531-2.219-1.171   c-0.66-0.704-1.127-1.738-1.169-2.86c-0.036-0.92,0.196-1.851,0.618-2.603c0.4-0.717,1.18-1.488,2.06-1.881l0.513-0.191   c2.049-0.471,3.762,0.147,4.911,1.632c0.632,0.823,1.087,1.957,1.152,3.051C37.003,11.401,36.273,11.7,35.938,10.949z"
   id="path4369" />
	<g
   id="g4371">
		<path
   fill="#BE202E"
   d="M9.618,15.099L7.666,5.465l7.241,8.785l5.012-2.687l-2.263,5.369l4.019,1.904l-5.753,1.9l-4.808,5.367    c0,0-1.069-3.192-1.175-3.849c-0.106-0.659-4.612-4.472-4.612-4.472l2.856-1.446L0,11.563L9.618,15.099z"
   id="path4373" />
		<path
   fill="#F7EC35"
   d="M9.71,13.953L7.907,5.048l6.693,8.115l4.633-2.481l-2.095,4.96l3.716,1.759l-5.318,1.757l-4.443,4.962    c0,0-0.988-2.953-1.087-3.56c-0.099-0.607-4.261-4.134-4.261-4.134l2.637-1.333l-7.56-4.412L9.71,13.953z"
   id="path4375" />
	</g>
	<g
   id="g4377">
		<path
   fill="#BE202E"
   d="M48.079,9.9l2.525-3.298l-0.83,4.96l2.203,1.073l-2.312,0.635l0.48,1.954l-2.154-1.547L44.995,13.4    c0,0,0.722-1.242,0.902-1.458c0.181-0.214,0.173-2.858,0.173-2.858l1.23,0.635l-0.695-4.217L48.079,9.9z"
   id="path4379" />
		<path
   fill="#F7EC35"
   d="M48.467,9.622l2.336-3.047l-0.769,4.585l2.037,0.989l-2.136,0.587l0.446,1.803l-1.993-1.426l-2.768-0.255    c0,0,0.665-1.15,0.832-1.349c0.166-0.198,0.162-2.64,0.162-2.64l1.133,0.584l-0.641-3.896L48.467,9.622z"
   id="path4381" />
	</g>
	<g
   id="g4383">
		<path
   fill="#BE202E"
   d="M50.808,48.598l2.525-3.299l-0.83,4.966l2.203,1.068l-2.311,0.638l0.481,1.95l-2.156-1.547l-2.997-0.272    c0,0,0.724-1.246,0.904-1.462c0.179-0.212,0.172-2.853,0.172-2.853l1.229,0.63l-0.695-4.215L50.808,48.598z"
   id="path4385" />
		<path
   fill="#F7EC35"
   d="M51.195,48.321l2.336-3.047l-0.768,4.583l2.036,0.991l-2.136,0.587l0.446,1.806l-1.993-1.43l-2.77-0.255    c0,0,0.668-1.147,0.834-1.346c0.166-0.201,0.159-2.64,0.159-2.64l1.136,0.58l-0.641-3.896L51.195,48.321z"
   id="path4387" />
	</g>
	<path
   fill="#FBB041"
   d="M21.761,19.527L8.335,52.187c0,0-1.347,5.829,4.856,5.276l30.892-13.689"
   id="path4389" />
	<path
   fill="#E59D3D"
   d="M14.992,55.56l12.331-29.988l-5.562-6.045L8.335,52.187c0,0-1.347,5.829,4.856,5.276l1.681-0.743   C14.883,56.044,14.992,55.56,14.992,55.56z"
   id="path4391" />
	<path
   fill="#B1772B"
   d="M43.621,44.499c-2.375,2.471-9.32-0.984-15.518-7.716c-6.195-6.729-9.291-14.188-6.917-16.658   c2.375-2.469,9.322,0.984,15.516,7.714C42.897,34.572,45.996,42.028,43.621,44.499z"
   id="path4393" />
	<path
   fill="#936126"
   d="M22.057,28.088c1.327,2.729,3.431,5.787,6.123,8.712c2.785,3.026,5.72,5.38,8.324,6.842   c0.527-2.881-1.111-7.117-4.392-10.679C28.79,29.354,24.778,27.521,22.057,28.088z"
   id="path4395" />
	<g
   id="g4397">
		<path
   fill="#DE374B"
   d="M28.254,20.978c-0.393-3.688-1.046-7.57-3.192-10.579c-2.056-2.879-5.836-4.015-8.834-5.326    c-0.389-0.168-1.472,0.474-1.387,0.513c5.921,2.59,9.949,4.781,11.354,11.959c0.792,4.068,2.116,12.009-0.903,15.813    c0.212,0.133,0.349,0.373,0.379,0.658C28.919,31.097,28.718,25.381,28.254,20.978z"
   id="path4399" />
	</g>
	<g
   id="g4401">
		<path
   fill="#AE92C4"
   d="M32.347-0.003c-0.409-0.269-1.764,0.363-1.166,0.759c7.591,5.021,8.151,14.665,6.166,23.15    c-1.423,6.086-5.47,9.606-10.342,11.66c0.082,0.093,0.154,0.202,0.191,0.357c0.021,0.095,0.051,0.184,0.085,0.265    c0.053,0.046,0.099,0.096,0.152,0.142c4.286-1.771,8.003-4.626,10.268-9.406C41.873,18.097,40.567,5.434,32.347-0.003z"
   id="path4403" />
	</g>
	<g
   id="g4405">
		<path
   fill="#B43248"
   d="M63.862,39.265c-7.74-14.418-25.036-10.213-35.87-2.58c0.005,0.007,0.014,0.011,0.018,0.014    c0.294,0.27,0.54,0.584,0.761,0.924c10.232-7.297,26.426-11.3,33.751,2.354C62.875,40.634,64.263,40.015,63.862,39.265z"
   id="path4407" />
	</g>
	<g
   id="g4409">
		<path
   fill="#089083"
   d="M60.026,53.379C59.7,39.424,45.904,35.489,35.913,36.96c-0.645,0.093-0.846,1.119-0.083,1.006    c9.447-1.392,22.741,2.18,23.049,15.491C58.896,54.168,60.042,54.002,60.026,53.379L60.026,53.379z"
   id="path4411" />
	</g>
</g>
</svg>