<?xml version="1.0" encoding="UTF-8" standalone="no"?>
<!-- Generator: Adobe Illustrator 16.0.0, SVG Export Plug-In . SVG Version: 6.00 Build 0)  -->

<svg
   xmlns:dc="http://purl.org/dc/elements/1.1/"
   xmlns:cc="http://creativecommons.org/ns#"
   xmlns:rdf="http://www.w3.org/1999/02/22-rdf-syntax-ns#"
   xmlns:svg="http://www.w3.org/2000/svg"
   xmlns="http://www.w3.org/2000/svg"
   xmlns:sodipodi="http://sodipodi.sourceforge.net/DTD/sodipodi-0.dtd"
   xmlns:inkscape="http://www.inkscape.org/namespaces/inkscape"
   version="1.1"
   id="Layer_1"
   x="0px"
   y="0px"
   width="64px"
   height="64px"
   viewBox="0 0 64 64"
   enable-background="new 0 0 64 64"
   xml:space="preserve"
   inkscape:version="0.48.5 r10040"
   sodipodi:docname="1F495.svg"
   inkscape:export-filename="D:\TESTINGEMOJI\SVGTEST\1F495.png"
   inkscape:export-xdpi="90"
   inkscape:export-ydpi="90"><metadata
   id="metadata3835"><rdf:RDF><cc:Work
       rdf:about=""><dc:format>image/svg+xml</dc:format><dc:type
         rdf:resource="http://purl.org/dc/dcmitype/StillImage" /><dc:title></dc:title></cc:Work></rdf:RDF></metadata><defs
   id="defs3833" /><sodipodi:namedview
   pagecolor="#ffffff"
   bordercolor="#666666"
   borderopacity="1"
   objecttolerance="10"
   gridtolerance="10"
   guidetolerance="10"
   inkscape:pageopacity="0"
   inkscape:pageshadow="2"
   inkscape:window-width="640"
   inkscape:window-height="480"
   id="namedview3831"
   showgrid="false"
   inkscape:zoom="3.6875"
   inkscape:cx="32"
   inkscape:cy="32"
   inkscape:window-x="581"
   inkscape:window-y="336"
   inkscape:window-maximized="0"
   inkscape:current-layer="Layer_1" />
<g
   id="g3813">
	<g
   id="g3815">
		<path
   fill="#DF394C"
   d="M40.461,30.248c-1.383-3.951-4.638-7.232-8.748-7.681c-2.331-0.225-4.677-0.071-6.81,1.007    c-1.684,0.846-3.026,2.265-4.239,3.732c-1.489-1.786-3.133-3.377-5.306-4.203c-1.307-0.501-2.729-0.643-4.111-0.635    c-1.203,0.008-2.413,0.128-3.559,0.519c-2.1,0.715-3.856,2.202-5.171,4.03c-0.767,1.07-1.333,2.293-1.754,3.555    C0.341,31.821,0,33.28,0,34.615c0,1.535,0.002,2.994,0.294,4.509c0.331,1.727,0.937,3.391,1.676,4.964    c2.046,4.365,5.272,8.084,8.647,11.368c3.044,2.962,6.356,5.619,9.757,8.111c0.156,0.114,0.428,0.114,0.582,0    c5.03-3.687,9.927-7.74,13.947-12.626c2.552-3.104,4.783-6.628,5.855-10.597C41.646,37.069,41.58,33.448,40.461,30.248z"
   id="path3817" />
		<path
   fill="#D13852"
   d="M12.502,46.833c-0.249-7.477,2.853-14.744,7.906-19.824c-1.423-1.662-3-3.125-5.049-3.906    c-1.307-0.501-2.729-0.643-4.111-0.635c-1.203,0.008-2.413,0.128-3.559,0.519c-2.1,0.715-3.856,2.202-5.171,4.03    c-0.767,1.07-1.333,2.293-1.754,3.555C0.341,31.821,0,33.28,0,34.615c0,1.535,0.002,2.996,0.294,4.509    c0.331,1.727,0.937,3.391,1.676,4.968c2.046,4.361,5.272,8.08,8.647,11.364c2.161,2.102,4.464,4.05,6.83,5.896    C14.513,57.337,12.687,52.381,12.502,46.833z"
   id="path3819" />
		<path
   fill="#F1A5B1"
   d="M33.637,36.777c0.524,1.172,2.24,1.571,3.831,0.899l0,0c1.597-0.676,2.467-2.173,1.942-3.344l-2.229-4.964    c-0.524-1.171-2.245-1.567-3.841-0.895l0,0c-1.595,0.674-2.456,2.168-1.936,3.34L33.637,36.777z"
   id="path3821" />
	</g>
	<g
   id="g3823">
		<path
   fill="#DF394C"
   d="M63.035,5.625c-1.002-2.857-3.355-5.229-6.325-5.554c-1.686-0.163-3.381-0.05-4.925,0.729    c-1.217,0.613-2.187,1.64-3.065,2.699c-1.075-1.291-2.264-2.442-3.835-3.04C43.94,0.098,42.911-0.005,41.914,0    c-0.87,0.006-1.745,0.094-2.573,0.375c-1.519,0.518-2.79,1.591-3.738,2.914c-0.556,0.774-0.964,1.657-1.27,2.569    c-0.306,0.905-0.552,1.96-0.552,2.924c0,1.11,0.002,2.167,0.211,3.261c0.24,1.247,0.678,2.449,1.214,3.589    c1.479,3.156,3.81,5.844,6.25,8.219c2.2,2.141,4.596,4.062,7.055,5.864c0.112,0.083,0.31,0.083,0.422,0    c3.636-2.666,7.177-5.598,10.082-9.128c1.844-2.244,3.456-4.792,4.233-7.662C63.891,10.558,63.844,7.938,63.035,5.625z"
   id="path3825" />
		<path
   fill="#D13852"
   d="M42.82,17.618c-0.182-5.408,2.062-10.662,5.716-14.334c-1.029-1.201-2.169-2.259-3.651-2.824    C43.94,0.1,42.911-0.005,41.914,0c-0.87,0.007-1.745,0.094-2.573,0.375c-1.519,0.518-2.79,1.592-3.738,2.914    c-0.556,0.774-0.964,1.658-1.27,2.569c-0.306,0.905-0.552,1.96-0.552,2.924c0,1.111,0.002,2.167,0.211,3.261    c0.24,1.248,0.678,2.449,1.214,3.59c1.479,3.155,3.81,5.845,6.25,8.218c1.563,1.518,3.228,2.926,4.94,4.263    C44.273,25.21,42.954,21.628,42.82,17.618z"
   id="path3827" />
		<path
   fill="#F1A5B1"
   d="M58.103,10.347c0.378,0.846,1.618,1.136,2.768,0.65l0,0c1.155-0.489,1.782-1.571,1.404-2.417l-1.613-3.588    c-0.379-0.849-1.62-1.135-2.775-0.65l0,0c-1.152,0.488-1.774,1.569-1.398,2.416L58.103,10.347z"
   id="path3829" />
	</g>
</g>
</svg>