<?xml version="1.0" encoding="UTF-8" standalone="no"?>
<!-- Generator: Adobe Illustrator 16.0.0, SVG Export Plug-In . SVG Version: 6.00 Build 0)  -->

<svg
   xmlns:dc="http://purl.org/dc/elements/1.1/"
   xmlns:cc="http://creativecommons.org/ns#"
   xmlns:rdf="http://www.w3.org/1999/02/22-rdf-syntax-ns#"
   xmlns:svg="http://www.w3.org/2000/svg"
   xmlns="http://www.w3.org/2000/svg"
   xmlns:sodipodi="http://sodipodi.sourceforge.net/DTD/sodipodi-0.dtd"
   xmlns:inkscape="http://www.inkscape.org/namespaces/inkscape"
   version="1.1"
   id="Layer_1"
   x="0px"
   y="0px"
   width="64px"
   height="64px"
   viewBox="0 0 64 64"
   enable-background="new 0 0 64 64"
   xml:space="preserve"
   inkscape:version="0.48.5 r10040"
   sodipodi:docname="1F491.svg"
   inkscape:export-filename="D:\TESTINGEMOJI\SVGTEST\1F491.png"
   inkscape:export-xdpi="90"
   inkscape:export-ydpi="90"><metadata
   id="metadata3579"><rdf:RDF><cc:Work
       rdf:about=""><dc:format>image/svg+xml</dc:format><dc:type
         rdf:resource="http://purl.org/dc/dcmitype/StillImage" /><dc:title></dc:title></cc:Work></rdf:RDF></metadata><defs
   id="defs3577" /><sodipodi:namedview
   pagecolor="#ffffff"
   bordercolor="#666666"
   borderopacity="1"
   objecttolerance="10"
   gridtolerance="10"
   guidetolerance="10"
   inkscape:pageopacity="0"
   inkscape:pageshadow="2"
   inkscape:window-width="640"
   inkscape:window-height="480"
   id="namedview3575"
   showgrid="false"
   inkscape:zoom="3.6875"
   inkscape:cx="32"
   inkscape:cy="32"
   inkscape:window-x="478"
   inkscape:window-y="259"
   inkscape:window-maximized="0"
   inkscape:current-layer="Layer_1" />
<g
   id="g3531"
   transform="translate(0,2)">
	<path
   d="m 56.542,62.344 v -2.189 c 0,-3.329 -6.92,-6.027 -15.452,-6.027 -8.534,0 -15.453,2.698 -15.453,6.027 v 2.189 h 30.905 z"
   id="path3533"
   inkscape:connector-curvature="0"
   style="fill:#28b473" />
	<path
   d="m 34.49,56.956 c 3.449,0.166 14.579,0.711 16.774,0.816 0.137,0.01 -0.404,-7.188 -0.356,-8.149 0.004,-0.073 -15.401,-0.886 -15.401,-0.886 0,0 -1.153,8.211 -1.017,8.219 z"
   id="path3535"
   inkscape:connector-curvature="0"
   style="fill:#249561" />
	<path
   d="M 26.855,40.146 C 26.522,46.93 33.78,52.786 43.084,53.24 52.375,53.695 60.176,48.575 60.503,41.788 60.838,35.017 54.122,17.931 44.829,17.48 35.524,17.024 27.183,33.376 26.855,40.146 z"
   id="path3537"
   inkscape:connector-curvature="0"
   style="fill:#fbb042" />
	<path
   d="m 63.808,25.571 c -0.947,-2.756 -2.396,-3.941 -4.402,-5.212 0.358,-0.32 0.736,-0.744 1.246,-1.358 0.208,-0.255 0.545,-1.052 -0.054,-1.036 -4.565,0.153 -8.203,-4.375 -14.318,-4.166 -3.986,0.141 -11.858,1.986 -12.407,2.388 -3.236,2.356 -5.235,6.281 -6.337,10.377 -0.266,0.993 1.141,0.321 1.411,0.09 0.103,-0.09 0.222,-0.165 0.323,-0.244 -0.063,2.095 -0.505,4.146 -0.426,6.26 0.036,1.134 2.043,-0.674 2.221,-1.132 0.509,-1.283 1.06,-2.44 1.714,-3.628 0.112,-0.212 0.137,-0.335 0.123,-0.439 0.11,-0.094 0.188,-0.193 0.241,-0.285 1.096,-2.317 2.602,-4.213 4.473,-5.745 2.734,0.413 4.643,3.221 8.648,2.269 7.754,-1.839 10.23,3.35 11.715,10.749 0.202,1.032 1.906,-0.406 2.11,-0.885 1.214,-2.726 0.955,-4.718 0.471,-7.182 0.419,0.28 0.831,0.593 1.199,0.971 0.626,0.47 2.324,-0.984 2.049,-1.792 z"
   id="path3539"
   inkscape:connector-curvature="0"
   style="fill:#633d19" />
	<path
   d="m 40.698,35.207 c -0.084,1.657 -1.263,2.948 -2.63,2.882 -1.367,-0.069 -2.409,-1.467 -2.328,-3.126 0.083,-1.656 1.254,-2.954 2.621,-2.887 1.366,0.066 2.416,1.47 2.337,3.131 z"
   id="path3541"
   inkscape:connector-curvature="0"
   style="fill:#25333a" />
	<path
   d="m 52.464,35.779 c -0.077,1.662 -1.254,2.949 -2.617,2.883 -1.371,-0.067 -2.418,-1.464 -2.335,-3.126 0.082,-1.657 1.255,-2.952 2.628,-2.887 1.363,0.07 2.405,1.47 2.324,3.13 z"
   id="path3543"
   inkscape:connector-curvature="0"
   style="fill:#25333a" />
	<path
   d="m 41.688,40.93 c 0,-0.943 0.807,-0.924 1.904,-0.924 1.1,0 2.072,-0.02 2.072,0.924 0,0.949 -0.89,1.715 -1.989,1.715 -1.093,0 -1.987,-0.766 -1.987,-1.715 z"
   id="path3545"
   inkscape:connector-curvature="0"
   style="opacity:0.6;fill:#c37929" />
	<path
   d="m 35.397,42.465 c 0,9.823 -7.973,17.79 -17.795,17.79 l 0,0 c -9.82,0 -17.795,-7.967 -17.795,-17.79 v -9.504 c 0,-9.824 7.976,-17.792 17.795,-17.792 l 0,0 c 9.822,0 17.795,7.968 17.795,17.792 v 9.504 z"
   id="path3547"
   inkscape:connector-curvature="0"
   style="fill:#633d19" />
	<path
   d="m 31.187,62.419 v -2.312 c 0,-3.466 -6.077,-6.279 -13.581,-6.279 -7.508,0 -13.595,2.813 -13.595,6.279 v 2.312 h 27.176 z"
   id="path3549"
   inkscape:connector-curvature="0"
   style="fill:#ed307c" />
	<path
   d="m 2.785,39.577 c 0,5.969 6.63,10.805 14.821,10.805 8.178,0 14.813,-4.836 14.813,-10.805 0,-5.968 -6.636,-20.683 -14.813,-20.683 C 9.415,18.895 2.785,33.609 2.785,39.577 z"
   id="path3551"
   inkscape:connector-curvature="0"
   style="fill:#fbb042" />
	<path
   d="m 10.215,56.651 c 3.043,0 12.836,0 14.771,0 0.123,0 -0.666,-6.294 -0.666,-7.157 0,-0.06 -13.567,-0.107 -13.567,-0.107 0,0 -0.659,7.264 -0.538,7.264 z"
   id="path3553"
   inkscape:connector-curvature="0"
   style="fill:#ed307c" />
	<path
   d="m 14.735,34.639 c 0,1.459 -0.979,2.646 -2.186,2.646 -1.205,0 -2.178,-1.188 -2.178,-2.646 0,-1.468 0.973,-2.646 2.178,-2.646 1.207,0 2.186,1.178 2.186,2.646 z"
   id="path3555"
   inkscape:connector-curvature="0"
   style="fill:#25333a" />
	<path
   d="m 25.102,34.639 c 0,1.459 -0.979,2.646 -2.18,2.646 -1.209,0 -2.195,-1.188 -2.195,-2.646 0,-1.468 0.986,-2.646 2.195,-2.646 1.201,0 2.18,1.178 2.18,2.646 z"
   id="path3557"
   inkscape:connector-curvature="0"
   style="fill:#25333a" />
	<path
   d="m 29.417,31.129 c 0.02,-3.717 0.036,-7.417 0.079,-11.206 -6.729,-6.551 -16.365,-5.509 -23.268,1.162 -0.075,3.73 -0.15,7.377 -0.226,11.042 7.695,-0.946 15.583,-1.276 23.415,-0.998 z"
   id="path3559"
   inkscape:connector-curvature="0"
   style="fill:#633d19" />
	<path
   d="M 46.196,2.101 C 42.853,-1.382 36.192,1.216 31.325,7.895 31.269,7.974 31.224,8.047 31.175,8.12 31.119,8.047 31.078,7.974 31.024,7.895 26.154,1.216 19.494,-1.383 16.155,2.101 c -3.345,3.478 -2.108,11.72 2.766,18.406 3.804,5.221 8.7,9.705 12.253,8.985 3.55,0.72 8.449,-3.764 12.253,-8.985 4.872,-6.686 6.108,-14.929 2.769,-18.406 z"
   id="path3561"
   inkscape:connector-curvature="0"
   style="fill:#df394c" />
	<g
   id="g3563">
		<path
   d="m 26.112,40.423 c 0,4.589 -3.725,8.314 -8.314,8.314 -4.589,0 -8.314,-3.726 -8.314,-8.314"
   id="path3565"
   inkscape:connector-curvature="0"
   style="fill:#633f1a" />
		<path
   d="m 24.686,41.257 c 0,1.835 -3.147,3.324 -7.028,3.324 -3.878,0 -7.024,-1.489 -7.024,-3.324"
   id="path3567"
   inkscape:connector-curvature="0"
   style="fill:#ffffff" />
	</g>
	<g
   id="g3569">
		<path
   d="m 52.549,44.709 c 0,4.589 -3.721,8.312 -8.314,8.312 -4.585,0 -8.31,-3.723 -8.31,-8.312"
   id="path3571"
   inkscape:connector-curvature="0"
   style="fill:#633f1a" />
		<path
   d="m 51.124,45.543 c 0,1.834 -3.146,3.321 -7.028,3.321 -3.877,0 -7.025,-1.487 -7.025,-3.321"
   id="path3573"
   inkscape:connector-curvature="0"
   style="fill:#ffffff" />
	</g>
</g>
</svg>