<?xml version="1.0" encoding="UTF-8" standalone="no"?>
<!-- Generator: Adobe Illustrator 16.0.0, SVG Export Plug-In . SVG Version: 6.00 Build 0)  -->

<svg
   xmlns:dc="http://purl.org/dc/elements/1.1/"
   xmlns:cc="http://creativecommons.org/ns#"
   xmlns:rdf="http://www.w3.org/1999/02/22-rdf-syntax-ns#"
   xmlns:svg="http://www.w3.org/2000/svg"
   xmlns="http://www.w3.org/2000/svg"
   xmlns:sodipodi="http://sodipodi.sourceforge.net/DTD/sodipodi-0.dtd"
   xmlns:inkscape="http://www.inkscape.org/namespaces/inkscape"
   version="1.1"
   id="Layer_1"
   x="0px"
   y="0px"
   width="64px"
   height="64px"
   viewBox="0 0 64 64"
   enable-background="new 0 0 64 64"
   xml:space="preserve"
   inkscape:version="0.48.5 r10040"
   sodipodi:docname="1F49B.svg"
   inkscape:export-filename="D:\TESTINGEMOJI\SVGTEST\1F49B.png"
   inkscape:export-xdpi="90"
   inkscape:export-ydpi="90"><metadata
   id="metadata5720"><rdf:RDF><cc:Work
       rdf:about=""><dc:format>image/svg+xml</dc:format><dc:type
         rdf:resource="http://purl.org/dc/dcmitype/StillImage" /><dc:title></dc:title></cc:Work></rdf:RDF></metadata><defs
   id="defs5718" /><sodipodi:namedview
   pagecolor="#ffffff"
   bordercolor="#666666"
   borderopacity="1"
   objecttolerance="10"
   gridtolerance="10"
   guidetolerance="10"
   inkscape:pageopacity="0"
   inkscape:pageshadow="2"
   inkscape:window-width="640"
   inkscape:window-height="480"
   id="namedview5716"
   showgrid="false"
   inkscape:zoom="3.6875"
   inkscape:cx="32"
   inkscape:cy="32"
   inkscape:window-x="444"
   inkscape:window-y="264"
   inkscape:window-maximized="0"
   inkscape:current-layer="Layer_1" />
<g
   id="g5708">
	<path
   fill="#FCCA58"
   d="M62.582,12.036C60.445,5.924,55.409,0.85,49.053,0.151c-3.607-0.345-7.233-0.105-10.536,1.56   c-2.603,1.311-4.678,3.506-6.555,5.771c-2.302-2.757-4.846-5.221-8.208-6.501C21.733,0.209,19.533-0.013,17.395,0   c-1.855,0.013-3.727,0.2-5.5,0.803C8.647,1.912,5.929,4.207,3.897,7.037c-1.192,1.658-2.063,3.547-2.716,5.498   C0.528,14.47,0,16.725,0,18.792c0,2.374,0.002,4.633,0.455,6.973c0.514,2.669,1.449,5.241,2.593,7.68   c3.166,6.749,8.151,12.502,13.372,17.579c4.709,4.582,9.833,8.691,15.093,12.551c0.239,0.175,0.663,0.175,0.902,0   c7.779-5.707,15.349-11.978,21.571-19.532c3.944-4.798,7.394-10.254,9.054-16.389C64.411,22.587,64.312,16.983,62.582,12.036z"
   id="path5710" />
	<path
   fill="#F2C05B"
   d="M19.336,37.687C18.952,26.123,23.75,14.882,31.565,7.024c-2.199-2.568-4.639-4.834-7.812-6.042   c-2.02-0.772-4.221-0.992-6.358-0.981c-1.855,0.013-3.727,0.199-5.5,0.802C8.647,1.912,5.929,4.209,3.897,7.038   c-1.192,1.657-2.063,3.547-2.716,5.498C0.528,14.47,0,16.725,0,18.792c0,2.374,0.002,4.633,0.455,6.973   c0.514,2.673,1.449,5.241,2.593,7.682c3.166,6.747,8.151,12.502,13.372,17.581c3.344,3.252,6.902,6.257,10.566,9.114   C22.447,53.935,19.623,46.268,19.336,37.687z"
   id="path5712" />
	<path
   fill="#F6DFB1"
   d="M52.027,22.134c0.811,1.812,3.464,2.432,5.924,1.393l0,0c2.471-1.047,3.816-3.362,3.005-5.172l-3.448-7.677   c-0.812-1.814-3.474-2.426-5.938-1.387l0,0c-2.468,1.042-3.802,3.355-2.993,5.165L52.027,22.134z"
   id="path5714" />
</g>
</svg>