<?xml version="1.0" encoding="utf-8"?>
<!-- Generator: Adobe Illustrator 16.0.0, SVG Export Plug-In . SVG Version: 6.00 Build 0)  -->
<!DOCTYPE svg PUBLIC "-//W3C//DTD SVG 1.1//EN" "http://www.w3.org/Graphics/SVG/1.1/DTD/svg11.dtd">
<svg version="1.1" id="Layer_1" xmlns="http://www.w3.org/2000/svg" xmlns:xlink="http://www.w3.org/1999/xlink" x="0px" y="0px"
	 width="64px" height="64px" viewBox="0 0 64 64" enable-background="new 0 0 64 64" xml:space="preserve">
<g>
	<path fill="#BE202E" d="M53.608,0c-1.08,0-2.16,0-3.234,0c-0.166,0-0.282,0.09-0.434,0.127c-0.163,0.037-0.324,0.047-0.491,0.143
		c-0.274,0.161-0.501,0.391-0.699,0.665c-0.048,0.058-0.095,0.071-0.138,0.129C40.804,12.203,30.577,14.743,20.827,7.41
		C15.591,3.47,16.024,0,10.42,0c-2.29,0-3.14,3.884-1.762,6.219c12.641,21.329,34.071,21.329,46.71,0
		C56.753,3.884,55.896,0,53.608,0z"/>
	<path fill="#BE202E" d="M10.417,64.267c1.08,0,2.16,0,3.238,0c0.166,0,0.282-0.09,0.43-0.13c0.167-0.034,0.33-0.044,0.491-0.145
		c0.277-0.156,0.504-0.389,0.7-0.666c0.047-0.055,0.101-0.065,0.137-0.126c7.812-11.137,18.039-13.677,27.789-6.344
		c5.233,3.94,4.803,7.41,10.406,7.41c2.288,0,3.145-3.89,1.761-6.219c-12.638-21.329-34.069-21.329-46.71,0
		C7.28,60.377,8.133,64.267,10.417,64.267z"/>
	<path fill="#BE202E" d="M64.025,49.423c0-0.897,0-1.79,0-2.68c0-0.141-0.037-0.235-0.054-0.364
		c-0.01-0.135-0.016-0.272-0.058-0.404c-0.058-0.232-0.147-0.417-0.254-0.581c-0.021-0.037-0.026-0.079-0.053-0.111
		c-4.31-6.479-5.297-14.962-2.455-23.045c1.525-4.344,2.873-3.99,2.873-8.632c0-1.899-1.506-2.609-2.409-1.468
		c-8.267,10.486-8.267,28.264,0,38.744C62.52,52.029,64.025,51.319,64.025,49.423z"/>
	<path fill="#BE202E" d="M0,48.942c0-0.895,0-1.787,0-2.683c0-0.14,0.037-0.235,0.053-0.362c0.011-0.134,0.016-0.271,0.056-0.403
		c0.058-0.232,0.148-0.417,0.256-0.581c0.021-0.037,0.024-0.079,0.05-0.113c4.315-6.48,5.3-14.958,2.458-23.043
		C1.347,17.413,0,17.769,0,13.127c0-1.901,1.505-2.612,2.408-1.471c8.266,10.486,8.266,28.263,0,38.744
		C1.505,51.546,0,50.839,0,48.942z"/>
</g>
</svg>
