<?xml version="1.0" encoding="UTF-8" standalone="no"?>
<!-- Generator: Adobe Illustrator 16.0.0, SVG Export Plug-In . SVG Version: 6.00 Build 0)  -->

<svg
   xmlns:dc="http://purl.org/dc/elements/1.1/"
   xmlns:cc="http://creativecommons.org/ns#"
   xmlns:rdf="http://www.w3.org/1999/02/22-rdf-syntax-ns#"
   xmlns:svg="http://www.w3.org/2000/svg"
   xmlns="http://www.w3.org/2000/svg"
   xmlns:sodipodi="http://sodipodi.sourceforge.net/DTD/sodipodi-0.dtd"
   xmlns:inkscape="http://www.inkscape.org/namespaces/inkscape"
   version="1.1"
   id="Layer_1"
   x="0px"
   y="0px"
   width="64px"
   height="64px"
   viewBox="0 0 64 64"
   enable-background="new 0 0 64 64"
   xml:space="preserve"
   inkscape:version="0.48.5 r10040"
   sodipodi:docname="1F60D.svg"
   inkscape:export-filename="D:\TESTINGEMOJI\SVGTEST\1F60D.png"
   inkscape:export-xdpi="90"
   inkscape:export-ydpi="90"><metadata
   id="metadata3363"><rdf:RDF><cc:Work
       rdf:about=""><dc:format>image/svg+xml</dc:format><dc:type
         rdf:resource="http://purl.org/dc/dcmitype/StillImage" /><dc:title></dc:title></cc:Work></rdf:RDF></metadata><defs
   id="defs3361" /><sodipodi:namedview
   pagecolor="#ffffff"
   bordercolor="#666666"
   borderopacity="1"
   objecttolerance="10"
   gridtolerance="10"
   guidetolerance="10"
   inkscape:pageopacity="0"
   inkscape:pageshadow="2"
   inkscape:window-width="640"
   inkscape:window-height="480"
   id="namedview3359"
   showgrid="false"
   inkscape:zoom="3.6875"
   inkscape:cx="32"
   inkscape:cy="32"
   inkscape:window-x="719"
   inkscape:window-y="394"
   inkscape:window-maximized="0"
   inkscape:current-layer="Layer_1" />
<g
   id="g3319">
	<g
   id="g3321">
		<g
   id="g3323">
			<circle
   fill="#FBB041"
   cx="31.76"
   cy="31.816"
   r="31.713"
   id="circle3325" />
		</g>
	</g>
	<g
   opacity="0.9866"
   id="g3327">
		<g
   id="g3329">
			<g
   id="g3331">
				<path
   fill="#E79D3C"
   d="M15.139,40.985C9.521,28.93,9.268,15.95,14.347,5.222c-8.608,5.669-14.3,15.41-14.3,26.492      c0,17.517,14.198,31.713,31.713,31.713c0.311,0,0.617-0.039,0.927-0.049C25.417,57.261,19.291,49.895,15.139,40.985z"
   id="path3333" />
			</g>
		</g>
	</g>
	<g
   id="g3335">
		<g
   id="g3337">
			<path
   fill="#633D19"
   d="M51.685,39.146c0,10.911-8.853,19.766-19.768,19.766c-10.907,0-19.762-8.854-19.762-19.766"
   id="path3339" />
		</g>
	</g>
	<g
   id="g3341">
		<g
   id="g3343">
			<path
   fill="#FFFFFF"
   d="M48.297,41.133c0,4.357-7.484,7.896-16.712,7.896c-9.219,0-16.706-3.539-16.706-7.896"
   id="path3345" />
		</g>
	</g>
	<g
   id="g3347">
		<g
   id="g3349">
			<path
   fill="#D13852"
   d="M29.005,15.632c-2.458-2.564-7.359-0.65-10.944,4.271c-0.039,0.054-0.076,0.108-0.114,0.163     c-0.037-0.055-0.072-0.109-0.111-0.163c-3.585-4.92-8.486-6.835-10.95-4.271c-2.46,2.563-1.548,8.628,2.037,13.556     c2.799,3.846,6.41,7.147,9.023,6.616c2.617,0.531,6.222-2.771,9.023-6.616C30.559,24.26,31.467,18.195,29.005,15.632z"
   id="path3351" />
		</g>
	</g>
	<g
   id="g3353">
		<g
   id="g3355">
			<path
   fill="#D13852"
   d="M56.95,15.632c-2.462-2.564-7.363-0.65-10.948,4.271c-0.043,0.054-0.075,0.108-0.112,0.163     c-0.039-0.055-0.074-0.109-0.112-0.163c-3.588-4.92-8.488-6.835-10.946-4.271c-2.46,2.563-1.554,8.628,2.037,13.556     c2.802,3.846,6.406,7.147,9.021,6.616c2.615,0.531,6.216-2.771,9.025-6.616C58.5,24.26,59.412,18.195,56.95,15.632z"
   id="path3357" />
		</g>
	</g>
</g>
</svg>