<?xml version="1.0" encoding="UTF-8" standalone="no"?>
<!-- Generator: Adobe Illustrator 16.0.0, SVG Export Plug-In . SVG Version: 6.00 Build 0)  -->

<svg
   xmlns:dc="http://purl.org/dc/elements/1.1/"
   xmlns:cc="http://creativecommons.org/ns#"
   xmlns:rdf="http://www.w3.org/1999/02/22-rdf-syntax-ns#"
   xmlns:svg="http://www.w3.org/2000/svg"
   xmlns="http://www.w3.org/2000/svg"
   xmlns:sodipodi="http://sodipodi.sourceforge.net/DTD/sodipodi-0.dtd"
   xmlns:inkscape="http://www.inkscape.org/namespaces/inkscape"
   version="1.1"
   id="Layer_1"
   x="0px"
   y="0px"
   width="64px"
   height="64px"
   viewBox="0 0 64 64"
   enable-background="new 0 0 64 64"
   xml:space="preserve"
   inkscape:version="0.48.5 r10040"
   sodipodi:docname="1F63B.svg"
   inkscape:export-filename="D:\TESTINGEMOJI\SVGTEST\1F63B.png"
   inkscape:export-xdpi="90"
   inkscape:export-ydpi="90"><metadata
   id="metadata5427"><rdf:RDF><cc:Work
       rdf:about=""><dc:format>image/svg+xml</dc:format><dc:type
         rdf:resource="http://purl.org/dc/dcmitype/StillImage" /><dc:title></dc:title></cc:Work></rdf:RDF></metadata><defs
   id="defs5425" /><sodipodi:namedview
   pagecolor="#ffffff"
   bordercolor="#666666"
   borderopacity="1"
   objecttolerance="10"
   gridtolerance="10"
   guidetolerance="10"
   inkscape:pageopacity="0"
   inkscape:pageshadow="2"
   inkscape:window-width="640"
   inkscape:window-height="480"
   id="namedview5423"
   showgrid="false"
   inkscape:zoom="3.6875"
   inkscape:cx="32"
   inkscape:cy="32"
   inkscape:window-x="556"
   inkscape:window-y="373"
   inkscape:window-maximized="0"
   inkscape:current-layer="Layer_1" />
<g
   id="g5341">
	<g
   id="g5343">
		<g
   id="g5345">
			<path
   fill="#7094A6"
   d="M49.658,10.535c-0.982,4.156,9.006,12.837,11.915,13.536c2.9,0.699,1.554-8.202,1.416-13.19     c-0.134-5.136-0.016-10.323-2.918-11.023C57.165-0.841,50.642,6.369,49.658,10.535z"
   id="path5347" />
		</g>
	</g>
	<g
   id="g5349">
		<g
   id="g5351">
			<path
   fill="#EDA75A"
   d="M50.153,13.778c-0.857,3.611,7.82,11.147,10.343,11.755c2.521,0.606,1.349-7.123,1.234-11.448     c-0.124-4.461-0.02-8.969-2.539-9.575C56.671,3.904,51.01,10.173,50.153,13.778z"
   id="path5353" />
		</g>
	</g>
	<g
   id="g5355">
		<g
   id="g5357">
			<path
   fill="#7094A6"
   d="M14.088,10.535c0.986,4.156-9.002,12.837-11.909,13.536c-2.906,0.699-1.556-8.202-1.424-13.19     C0.898,5.746,0.772,0.559,3.681-0.142C6.581-0.841,13.103,6.369,14.088,10.535z"
   id="path5359" />
		</g>
	</g>
	<g
   id="g5361">
		<g
   id="g5363">
			<path
   fill="#EDA75A"
   d="M13.811,13.778c0.856,3.611-7.818,11.147-10.343,11.755c-2.521,0.606-1.35-7.123-1.23-11.448     c0.12-4.461,0.01-8.969,2.531-9.575C7.293,3.904,12.957,10.173,13.811,13.778z"
   id="path5365" />
		</g>
	</g>
	<g
   id="g5367">
		<g
   id="g5369">
			<path
   fill="#87B1C1"
   d="M63.421,31.401c0,17.641-14.194,31.937-31.713,31.937c-17.52,0-31.713-14.296-31.713-31.937     c0-17.645,14.193-29.924,31.713-29.924C49.227,1.478,63.421,13.756,63.421,31.401z"
   id="path5371" />
		</g>
	</g>
	<g
   id="g5373">
		<g
   id="g5375">
			<g
   id="g5377">
				<path
   fill="#7094A6"
   d="M15.088,40.738C9.466,28.597,9.822,16.557,14.903,5.757C6.062,10.586-0.005,20.242-0.005,31.401      c0,17.641,14.193,31.937,31.713,31.937c0.316,0,0.614-0.035,0.927-0.047C25.368,57.132,19.24,49.718,15.088,40.738z"
   id="path5379" />
			</g>
		</g>
	</g>
	<g
   id="g5381">
		<g
   id="g5383">
			<path
   fill="#394C54"
   d="M26.298,33.474c0-2.592,2.188-2.552,5.175-2.552c2.987,0,5.644-0.04,5.644,2.552     c0,2.594-2.424,4.699-5.409,4.699C28.719,38.173,26.298,36.067,26.298,33.474z"
   id="path5385" />
		</g>
	</g>
	<g
   id="g5387">
		<g
   id="g5389">
			<path
   fill="#FFFFFF"
   d="M57.669,15.625c-2.277-2.389-6.805-0.612-10.12,3.969c-0.034,0.051-0.069,0.098-0.099,0.149     c-0.037-0.051-0.069-0.098-0.112-0.149c-3.308-4.581-7.838-6.358-10.11-3.969c-2.276,2.381-1.433,8.029,1.879,12.604     c2.592,3.585,5.923,6.657,8.344,6.161c2.414,0.496,5.744-2.576,8.333-6.161C59.102,23.654,59.947,18.007,57.669,15.625z"
   id="path5391" />
		</g>
	</g>
	<g
   id="g5393">
		<g
   id="g5395">
			<path
   fill="#FFFFFF"
   d="M26.535,15.625c-2.273-2.389-6.801-0.612-10.121,3.969c-0.033,0.051-0.065,0.098-0.098,0.149     c-0.038-0.051-0.071-0.098-0.106-0.149c-3.315-4.581-7.841-6.358-10.118-3.969c-2.275,2.381-1.429,8.029,1.883,12.604     c2.589,3.585,5.925,6.657,8.341,6.161c2.417,0.496,5.748-2.576,8.337-6.161C27.965,23.654,28.809,18.007,26.535,15.625z"
   id="path5397" />
		</g>
	</g>
	<g
   id="g5399">
		<g
   id="g5401">
			<path
   fill="#394C54"
   d="M56.692,39.201c0,11.254-11.245,20.379-25.108,20.379c-13.851,0-25.103-9.125-25.103-20.379"
   id="path5403" />
		</g>
	</g>
	<g
   id="g5405">
		<g
   id="g5407">
			<path
   fill="#FFFFFF"
   d="M53.406,40.599c0,4.618-9.797,8.357-21.866,8.357c-12.064,0-21.866-3.739-21.866-8.357"
   id="path5409" />
		</g>
	</g>
	<path
   fill="#394C54"
   d="M45.144,43.687c0,4.996-6.332,9.048-14.146,9.048c-7.802,0-14.143-4.052-14.143-9.048"
   id="path5411" />
	<g
   id="g5413">
		<path
   fill="#5E7D89"
   d="M23.66,37.014c-0.045,0.758-0.565,1.344-1.167,1.311L5.507,37.363c-0.598-0.035-1.053-0.677-1.009-1.435    l0,0c0.043-0.757,0.566-1.344,1.167-1.311l16.984,0.961C23.25,35.612,23.703,36.256,23.66,37.014L23.66,37.014z"
   id="path5415" />
		<path
   fill="#5E7D89"
   d="M22.991,40.195c0.124,0.714-0.179,1.363-0.675,1.45L8.281,44.078c-0.496,0.086-1-0.422-1.125-1.138l0,0    c-0.122-0.712,0.181-1.361,0.677-1.448l14.034-2.433C22.363,38.974,22.867,39.481,22.991,40.195L22.991,40.195z"
   id="path5417" />
		<path
   fill="#5E7D89"
   d="M39.76,36.71c0.044,0.758,0.565,1.345,1.167,1.311l16.984-0.96c0.6-0.035,1.055-0.677,1.011-1.435l0,0    c-0.045-0.758-0.566-1.344-1.167-1.311L40.77,35.276C40.169,35.31,39.717,35.953,39.76,36.71L39.76,36.71z"
   id="path5419" />
		<path
   fill="#5E7D89"
   d="M40.429,39.893c-0.124,0.714,0.18,1.363,0.675,1.45l14.034,2.432c0.496,0.087,1-0.421,1.122-1.137l0,0    c0.126-0.713-0.177-1.362-0.673-1.448l-14.034-2.433C41.057,38.67,40.553,39.178,40.429,39.893L40.429,39.893z"
   id="path5421" />
	</g>
</g>
</svg>