<?xml version="1.0" encoding="UTF-8" standalone="no"?>
<!-- Generator: Adobe Illustrator 16.0.0, SVG Export Plug-In . SVG Version: 6.00 Build 0)  -->

<svg
   xmlns:dc="http://purl.org/dc/elements/1.1/"
   xmlns:cc="http://creativecommons.org/ns#"
   xmlns:rdf="http://www.w3.org/1999/02/22-rdf-syntax-ns#"
   xmlns:svg="http://www.w3.org/2000/svg"
   xmlns="http://www.w3.org/2000/svg"
   xmlns:sodipodi="http://sodipodi.sourceforge.net/DTD/sodipodi-0.dtd"
   xmlns:inkscape="http://www.inkscape.org/namespaces/inkscape"
   version="1.1"
   id="Layer_1"
   x="0px"
   y="0px"
   width="64px"
   height="64px"
   viewBox="0 0 64 64"
   enable-background="new 0 0 64 64"
   xml:space="preserve"
   inkscape:version="0.48.5 r10040"
   sodipodi:docname="26C5.svg"
   inkscape:export-filename="D:\TESTINGEMOJI\SVGTEST\26C5.png"
   inkscape:export-xdpi="90"
   inkscape:export-ydpi="90"><metadata
   id="metadata3879"><rdf:RDF><cc:Work
       rdf:about=""><dc:format>image/svg+xml</dc:format><dc:type
         rdf:resource="http://purl.org/dc/dcmitype/StillImage" /><dc:title></dc:title></cc:Work></rdf:RDF></metadata><defs
   id="defs3877" /><sodipodi:namedview
   pagecolor="#ffffff"
   bordercolor="#666666"
   borderopacity="1"
   objecttolerance="10"
   gridtolerance="10"
   guidetolerance="10"
   inkscape:pageopacity="0"
   inkscape:pageshadow="2"
   inkscape:window-width="640"
   inkscape:window-height="480"
   id="namedview3875"
   showgrid="false"
   inkscape:zoom="3.6875"
   inkscape:cx="32"
   inkscape:cy="32"
   inkscape:window-x="499"
   inkscape:window-y="301"
   inkscape:window-maximized="0"
   inkscape:current-layer="Layer_1" />
<g
   id="g3829">
	<g
   id="g3831">
		<ellipse
   fill="#FBB11C"
   cx="22.879"
   cy="23.372"
   rx="10.21"
   ry="10.427"
   id="ellipse3833" />
		<path
   fill="#FBB11C"
   d="M10.139,23.372c0,1.662-2.273,3.008-5.069,3.008c-2.801,0-5.07-1.346-5.07-3.008    c0-1.662,2.269-3.008,5.07-3.008C7.866,20.363,10.139,21.709,10.139,23.372z"
   id="path3835" />
		<ellipse
   fill="#FBB11C"
   cx="40.687"
   cy="23.372"
   rx="5.07"
   ry="3.008"
   id="ellipse3837" />
		<ellipse
   fill="#FBB11C"
   cx="22.878"
   cy="41.564"
   rx="2.942"
   ry="5.178"
   id="ellipse3839" />
		<path
   fill="#FBB11C"
   d="M22.878,10.357c-1.631,0-2.944-2.32-2.944-5.18C19.934,2.317,21.248,0,22.878,0    c1.625,0,2.942,2.317,2.942,5.177C25.821,8.037,24.503,10.357,22.878,10.357z"
   id="path3841" />
		<path
   fill="#FBB11C"
   d="M13.87,32.573c1.148,1.174,0.477,3.767-1.503,5.791c-1.979,2.021-4.514,2.708-5.666,1.532    c-1.15-1.174-0.477-3.766,1.5-5.787C10.183,32.085,12.721,31.4,13.87,32.573z"
   id="path3843" />
		<path
   fill="#FBB11C"
   d="M31.887,14.169c-1.152-1.175-0.477-3.768,1.504-5.79c1.974-2.021,4.515-2.709,5.661-1.533    c1.15,1.173,0.48,3.765-1.503,5.788C35.57,14.657,33.035,15.343,31.887,14.169z"
   id="path3845" />
		<path
   fill="#FBB11C"
   d="M31.887,32.573c1.15-1.173,3.683-0.488,5.663,1.536c1.983,2.023,2.653,4.613,1.503,5.787    c-1.146,1.174-3.684,0.488-5.661-1.534C31.411,36.34,30.735,33.747,31.887,32.573z"
   id="path3847" />
		<path
   fill="#FBB11C"
   d="M13.87,14.169c-1.15,1.175-3.687,0.488-5.668-1.536c-1.978-2.022-2.651-4.612-1.5-5.787    c1.152-1.175,3.687-0.487,5.666,1.533C14.346,10.401,15.018,12.994,13.87,14.169z"
   id="path3849" />
		<g
   id="g3851">
			<path
   fill="#E29A25"
   d="M26.837,13.756c-1.217-0.524-2.553-0.813-3.959-0.813c-5.641,0-10.21,4.668-10.21,10.429     c0,5.76,4.569,10.427,10.21,10.427c1.406,0,2.742-0.288,3.959-0.813c-3.667-1.582-6.244-5.29-6.244-9.614     C20.594,19.047,23.17,15.339,26.837,13.756z"
   id="path3853" />
			<path
   fill="#E29A25"
   d="M2.365,23.372c0-1.418,1.657-2.601,3.882-2.917c-0.378-0.054-0.77-0.091-1.178-0.091     c-2.801,0-5.07,1.346-5.07,3.008c0,1.662,2.269,3.008,5.07,3.008c0.408,0,0.799-0.036,1.178-0.091     C4.022,25.972,2.365,24.79,2.365,23.372z"
   id="path3855" />
			<path
   fill="#E29A25"
   d="M37.839,23.372c0-1.42,1.663-2.601,3.889-2.917c-0.379-0.054-0.772-0.091-1.183-0.091     c-2.796,0-5.069,1.346-5.069,3.008c0,1.661,2.273,3.008,5.069,3.008c0.41,0,0.804-0.038,1.183-0.091     C39.502,25.972,37.839,24.788,37.839,23.372z"
   id="path3857" />
			<path
   fill="#E29A25"
   d="M24.06,36.828c-0.362-0.282-0.76-0.441-1.182-0.441c-1.627,0-2.944,2.318-2.944,5.178     c0,2.862,1.317,5.178,2.944,5.178c0.421,0,0.819-0.161,1.182-0.44c-1.036-0.802-1.761-2.62-1.761-4.737     C22.299,39.445,23.024,37.628,24.06,36.828z"
   id="path3859" />
			<path
   fill="#E29A25"
   d="M22.878,10.357c0.421,0,0.819-0.162,1.182-0.441c-1.036-0.801-1.761-2.619-1.761-4.739     c0-2.118,0.725-3.935,1.761-4.735C23.698,0.162,23.3,0,22.878,0c-1.631,0-2.944,2.317-2.944,5.177     C19.934,8.037,21.248,10.357,22.878,10.357z"
   id="path3861" />
			<path
   fill="#E29A25"
   d="M8.201,34.112c-1.978,2.022-2.651,4.614-1.5,5.788c0.63,0.642,1.678,0.711,2.816,0.323     c-0.166-0.083-0.319-0.189-0.451-0.323c-1.15-1.174-0.479-3.766,1.503-5.788c0.894-0.916,1.904-1.543,2.848-1.862     C12.14,31.585,9.954,32.321,8.201,34.112z"
   id="path3863" />
			<path
   fill="#E29A25"
   d="M34.704,14.497c-0.166-0.088-0.319-0.19-0.453-0.326c-1.15-1.175-0.475-3.766,1.505-5.79     c0.897-0.915,1.904-1.54,2.848-1.858c-1.278-0.668-3.463,0.069-5.212,1.858c-1.979,2.024-2.655,4.615-1.502,5.79     C32.516,14.813,33.562,14.882,34.704,14.497z"
   id="path3865" />
			<path
   fill="#E29A25"
   d="M34.251,32.571c0.132-0.136,0.287-0.238,0.453-0.325c-1.143-0.386-2.188-0.319-2.817,0.325     c-1.152,1.174-0.477,3.767,1.504,5.789c1.749,1.788,3.934,2.526,5.212,1.859c-0.943-0.319-1.954-0.945-2.85-1.859     C33.774,36.338,33.101,33.745,34.251,32.571z"
   id="path3867" />
			<path
   fill="#E29A25"
   d="M13.417,14.491c-0.943-0.319-1.954-0.944-2.848-1.861c-1.978-2.022-2.653-4.612-1.503-5.788     c0.132-0.135,0.286-0.238,0.451-0.324C8.378,6.131,7.331,6.2,6.701,6.842c-1.15,1.176-0.477,3.766,1.5,5.788     C9.954,14.42,12.136,15.159,13.417,14.491z"
   id="path3869" />
		</g>
	</g>
	<path
   fill-rule="evenodd"
   clip-rule="evenodd"
   fill="#D0D2D3"
   d="M16.154,36.812c-0.977-5.147,0.985-9.055,5.45-11.449   c5.97-3.2,11.743-2.487,17.309,1.727c2.999-3.385,6.635-4.874,10.909-2.644c3.698,1.925,4.843,5.319,4.349,9.479   c0.941,0.087,1.792,0.126,2.633,0.254c6.02,0.914,9.311,8.271,5.942,13.446c-0.421,0.646-1.501,1.201-2.272,1.203   c-16.224,0.069-32.449,0.034-48.676,0.085c-1.481,0.004-2.124-0.662-2.57-1.928c-0.893-2.52-0.242-5.322,2.039-7.191   C12.656,38.655,14.348,37.894,16.154,36.812z"
   id="path3871" />
	<path
   fill-rule="evenodd"
   clip-rule="evenodd"
   fill="#BBBBBC"
   d="M35.253,24.851c-4.425-2.093-8.975-1.995-13.649,0.51   c-4.465,2.395-6.427,6.301-5.45,11.448c-1.808,1.083-3.498,1.843-4.888,2.983c-2.285,1.869-2.931,4.672-2.039,7.191   c0.445,1.264,1.089,1.932,2.57,1.928c10.21-0.033,20.42-0.033,30.627-0.045C27.219,36.201,31.413,28.381,35.253,24.851z"
   id="path3873" />
</g>
</svg>